<?xml version="1.0" encoding="UTF-8" standalone="no"?>
<!DOCTYPE svg PUBLIC "-//W3C//DTD SVG 1.1//EN"
 "http://www.w3.org/Graphics/SVG/1.1/DTD/svg11.dtd">
<!-- Generated by graphviz version 2.43.0 (0)
 -->
<!-- Title: qjs::Runtime::Runtime Pages: 1 -->
<svg width="698pt" height="420pt"
 viewBox="0.00 0.00 698.00 420.00" xmlns="http://www.w3.org/2000/svg" xmlns:xlink="http://www.w3.org/1999/xlink">
<g id="graph0" class="graph" transform="scale(1 1) rotate(0) translate(4 416)">
<title>qjs::Runtime::Runtime</title>
<!-- Node1 -->
<g id="node1" class="node">
<title>Node1</title>
<g id="a_node1"><a xlink:title=" ">
<polygon fill="#bfbfbf" stroke="black" points="0,-202.5 0,-221.5 125,-221.5 125,-202.5 0,-202.5"/>
<text text-anchor="middle" x="62.5" y="-209.5" font-family="Helvetica,sans-Serif" font-size="10.00">qjs::Runtime::Runtime</text>
</a>
</g>
</g>
<!-- Node2 -->
<g id="node2" class="node">
<title>Node2</title>
<g id="a_node2"><a xlink:href="quickjs_8c.html#afc1ca27a266094085ebb43e2eea0dda2" target="_top" xlink:title=" ">
<polygon fill="none" stroke="black" points="161,-202.5 161,-221.5 255,-221.5 255,-202.5 161,-202.5"/>
<text text-anchor="middle" x="208" y="-209.5" font-family="Helvetica,sans-Serif" font-size="10.00">JS_NewRuntime</text>
</a>
</g>
</g>
<!-- Node1&#45;&gt;Node2 -->
<g id="edge1" class="edge">
<title>Node1&#45;&gt;Node2</title>
<path fill="none" stroke="midnightblue" d="M125.19,-212C133.72,-212 142.45,-212 150.87,-212"/>
<polygon fill="midnightblue" stroke="midnightblue" points="150.97,-215.5 160.97,-212 150.97,-208.5 150.97,-215.5"/>
</g>
<!-- Node3 -->
<g id="node3" class="node">
<title>Node3</title>
<g id="a_node3"><a xlink:href="quickjs_8c.html#a27966451027feb455b5da12c1578771c" target="_top" xlink:title=" ">
<polygon fill="none" stroke="black" points="291,-202.5 291,-221.5 391,-221.5 391,-202.5 291,-202.5"/>
<text text-anchor="middle" x="341" y="-209.5" font-family="Helvetica,sans-Serif" font-size="10.00">JS_NewRuntime2</text>
</a>
</g>
</g>
<!-- Node2&#45;&gt;Node3 -->
<g id="edge2" class="edge">
<title>Node2&#45;&gt;Node3</title>
<path fill="none" stroke="midnightblue" d="M255.19,-212C263.36,-212 271.97,-212 280.44,-212"/>
<polygon fill="midnightblue" stroke="midnightblue" points="280.68,-215.5 290.68,-212 280.68,-208.5 280.68,-215.5"/>
</g>
<!-- Node4 -->
<g id="node4" class="node">
<title>Node4</title>
<g id="a_node4"><a xlink:href="quickjs_8c.html#a4883d074a00e989747e68453c718c862" target="_top" xlink:title=" ">
<polygon fill="none" stroke="red" points="452,-392.5 452,-411.5 547,-411.5 547,-392.5 452,-392.5"/>
<text text-anchor="middle" x="499.5" y="-399.5" font-family="Helvetica,sans-Serif" font-size="10.00">init_class_range</text>
</a>
</g>
</g>
<!-- Node3&#45;&gt;Node4 -->
<g id="edge3" class="edge">
<title>Node3&#45;&gt;Node4</title>
<path fill="none" stroke="midnightblue" d="M344.26,-221.86C351.28,-250.36 375.47,-333.64 427,-378 431.82,-382.15 437.38,-385.59 443.24,-388.43"/>
<polygon fill="midnightblue" stroke="midnightblue" points="442.03,-391.73 452.6,-392.44 444.79,-385.29 442.03,-391.73"/>
</g>
<!-- Node9 -->
<g id="node5" class="node">
<title>Node9</title>
<g id="a_node5"><a xlink:href="list_8h.html#a663527a4d757540b2177bef0db1ce5c0" target="_top" xlink:title=" ">
<polygon fill="none" stroke="black" points="608,-259.5 608,-278.5 690,-278.5 690,-259.5 608,-259.5"/>
<text text-anchor="middle" x="649" y="-266.5" font-family="Helvetica,sans-Serif" font-size="10.00">init_list_head</text>
</a>
</g>
</g>
<!-- Node3&#45;&gt;Node9 -->
<g id="edge4" class="edge">
<title>Node3&#45;&gt;Node9</title>
<path fill="none" stroke="midnightblue" d="M344.68,-221.76C352.38,-247.61 377.25,-317.75 427,-345 483.52,-375.96 512.46,-369.66 572,-345 600.17,-333.33 623.34,-305.6 636.42,-287.06"/>
<polygon fill="midnightblue" stroke="midnightblue" points="639.45,-288.82 642.16,-278.57 633.66,-284.9 639.45,-288.82"/>
</g>
<!-- Node10 -->
<g id="node6" class="node">
<title>Node10</title>
<g id="a_node6"><a xlink:href="quickjs_8c.html#a1aca23241f0d5313e2eaefa3aabeeb4b" target="_top" xlink:title=" ">
<polygon fill="none" stroke="black" points="452,-316.5 452,-335.5 547,-335.5 547,-316.5 452,-316.5"/>
<text text-anchor="middle" x="499.5" y="-323.5" font-family="Helvetica,sans-Serif" font-size="10.00">init_shape_hash</text>
</a>
</g>
</g>
<!-- Node3&#45;&gt;Node10 -->
<g id="edge5" class="edge">
<title>Node3&#45;&gt;Node10</title>
<path fill="none" stroke="midnightblue" d="M347.91,-221.77C360.15,-241.12 390.22,-284.43 427,-307 431.72,-309.9 436.88,-312.36 442.2,-314.44"/>
<polygon fill="midnightblue" stroke="midnightblue" points="441.28,-317.83 451.87,-317.82 443.58,-311.22 441.28,-317.83"/>
</g>
<!-- Node11 -->
<g id="node7" class="node">
<title>Node11</title>
<g id="a_node7"><a xlink:href="quickjs_8c.html#a621d5d7548657b7462a29bea78b5a1e4" target="_top" xlink:title=" ">
<polygon fill="none" stroke="black" points="434.5,-278.5 434.5,-297.5 564.5,-297.5 564.5,-278.5 434.5,-278.5"/>
<text text-anchor="middle" x="499.5" y="-285.5" font-family="Helvetica,sans-Serif" font-size="10.00">js_c_function_data_call</text>
</a>
</g>
</g>
<!-- Node3&#45;&gt;Node11 -->
<g id="edge6" class="edge">
<title>Node3&#45;&gt;Node11</title>
<path fill="none" stroke="midnightblue" d="M353.64,-221.66C369.36,-234.25 398.68,-256.17 427,-269 432.32,-271.41 438.01,-273.56 443.77,-275.48"/>
<polygon fill="midnightblue" stroke="midnightblue" points="442.88,-278.86 453.46,-278.47 444.94,-272.17 442.88,-278.86"/>
</g>
<!-- Node12 -->
<g id="node8" class="node">
<title>Node12</title>
<g id="a_node8"><a xlink:href="quickjs_8c.html#afd4ef2d701fa0702f321925b61c57bbf" target="_top" xlink:title=" ">
<polygon fill="none" stroke="red" points="435.5,-240.5 435.5,-259.5 563.5,-259.5 563.5,-240.5 435.5,-240.5"/>
<text text-anchor="middle" x="499.5" y="-247.5" font-family="Helvetica,sans-Serif" font-size="10.00">js_call_bound_function</text>
</a>
</g>
</g>
<!-- Node3&#45;&gt;Node12 -->
<g id="edge7" class="edge">
<title>Node3&#45;&gt;Node12</title>
<path fill="none" stroke="midnightblue" d="M381.49,-221.59C402.14,-226.6 427.61,-232.79 449.51,-238.11"/>
<polygon fill="midnightblue" stroke="midnightblue" points="448.75,-241.52 459.29,-240.48 450.4,-234.72 448.75,-241.52"/>
</g>
<!-- Node445 -->
<g id="node9" class="node">
<title>Node445</title>
<g id="a_node9"><a xlink:href="quickjs_8c.html#a3486836f2ac17a9fa315904e14858e5a" target="_top" xlink:title=" ">
<polygon fill="none" stroke="red" points="448,-202.5 448,-221.5 551,-221.5 551,-202.5 448,-202.5"/>
<text text-anchor="middle" x="499.5" y="-209.5" font-family="Helvetica,sans-Serif" font-size="10.00">js_call_c_function</text>
</a>
</g>
</g>
<!-- Node3&#45;&gt;Node445 -->
<g id="edge8" class="edge">
<title>Node3&#45;&gt;Node445</title>
<path fill="none" stroke="midnightblue" d="M391.09,-212C405.94,-212 422.43,-212 437.94,-212"/>
<polygon fill="midnightblue" stroke="midnightblue" points="437.97,-215.5 447.97,-212 437.97,-208.5 437.97,-215.5"/>
</g>
<!-- Node447 -->
<g id="node10" class="node">
<title>Node447</title>
<g id="a_node10"><a xlink:href="quickjs_8c.html#ad80a65b72c3a346d8a0047858a5f0b13" target="_top" xlink:title=" ">
<polygon fill="none" stroke="red" points="453,-164.5 453,-183.5 546,-183.5 546,-164.5 453,-164.5"/>
<text text-anchor="middle" x="499.5" y="-171.5" font-family="Helvetica,sans-Serif" font-size="10.00">JS_FreeRuntime</text>
</a>
</g>
</g>
<!-- Node3&#45;&gt;Node447 -->
<g id="edge9" class="edge">
<title>Node3&#45;&gt;Node447</title>
<path fill="none" stroke="midnightblue" d="M381.49,-202.41C402.14,-197.4 427.61,-191.21 449.51,-185.89"/>
<polygon fill="midnightblue" stroke="midnightblue" points="450.4,-189.28 459.29,-183.52 448.75,-182.48 450.4,-189.28"/>
</g>
<!-- Node448 -->
<g id="node11" class="node">
<title>Node448</title>
<g id="a_node11"><a xlink:href="quickjs_8c.html#ac90552b1f1659acb3dae9a4c62479a30" target="_top" xlink:title=" ">
<polygon fill="none" stroke="red" points="427,-126.5 427,-145.5 572,-145.5 572,-126.5 427,-126.5"/>
<text text-anchor="middle" x="499.5" y="-133.5" font-family="Helvetica,sans-Serif" font-size="10.00">js_generator_function_call</text>
</a>
</g>
</g>
<!-- Node3&#45;&gt;Node448 -->
<g id="edge11" class="edge">
<title>Node3&#45;&gt;Node448</title>
<path fill="none" stroke="midnightblue" d="M353.64,-202.34C369.36,-189.75 398.68,-167.83 427,-155 432.32,-152.59 438.01,-150.44 443.77,-148.52"/>
<polygon fill="midnightblue" stroke="midnightblue" points="444.94,-151.83 453.46,-145.53 442.88,-145.14 444.94,-151.83"/>
</g>
<!-- Node453 -->
<g id="node12" class="node">
<title>Node453</title>
<g id="a_node12"><a xlink:href="quickjs_8c.html#a2469c0e8a95a75d5835ec98ea967085f" target="_top" xlink:title=" ">
<polygon fill="none" stroke="red" points="460.5,-88.5 460.5,-107.5 538.5,-107.5 538.5,-88.5 460.5,-88.5"/>
<text text-anchor="middle" x="499.5" y="-95.5" font-family="Helvetica,sans-Serif" font-size="10.00">JS_InitAtoms</text>
</a>
</g>
</g>
<!-- Node3&#45;&gt;Node453 -->
<g id="edge12" class="edge">
<title>Node3&#45;&gt;Node453</title>
<path fill="none" stroke="midnightblue" d="M347.91,-202.23C360.15,-182.88 390.22,-139.57 427,-117 434.24,-112.56 442.51,-109.14 450.79,-106.52"/>
<polygon fill="midnightblue" stroke="midnightblue" points="451.79,-109.88 460.47,-103.79 449.89,-103.14 451.79,-109.88"/>
</g>
<!-- Node455 -->
<g id="node13" class="node">
<title>Node455</title>
<g id="a_node13"><a xlink:href="quickjs_8c.html#a13dc07fcd82cf239eb10a991e6be507d" target="_top" xlink:title=" ">
<polygon fill="none" stroke="black" points="437,-39 437,-69 562,-69 562,-39 437,-39"/>
<text text-anchor="start" x="445" y="-57" font-family="Helvetica,sans-Serif" font-size="10.00">js_malloc_usable_size</text>
<text text-anchor="middle" x="499.5" y="-46" font-family="Helvetica,sans-Serif" font-size="10.00">_unknown</text>
</a>
</g>
</g>
<!-- Node3&#45;&gt;Node455 -->
<g id="edge13" class="edge">
<title>Node3&#45;&gt;Node455</title>
<path fill="none" stroke="midnightblue" d="M345.53,-202.42C354.94,-178.17 382.94,-113.85 427,-79 429.27,-77.2 431.68,-75.53 434.19,-73.97"/>
<polygon fill="midnightblue" stroke="midnightblue" points="435.96,-77 443.04,-69.11 432.59,-70.86 435.96,-77"/>
</g>
<!-- Node456 -->
<g id="node14" class="node">
<title>Node456</title>
<g id="a_node14"><a xlink:href="quickjs_8c.html#acc46b60ebaafcded5d2021783ecc34e3" target="_top" xlink:title=" ">
<polygon fill="none" stroke="red" points="444.5,-0.5 444.5,-19.5 554.5,-19.5 554.5,-0.5 444.5,-0.5"/>
<text text-anchor="middle" x="499.5" y="-7.5" font-family="Helvetica,sans-Serif" font-size="10.00">JS_UpdateStackTop</text>
</a>
</g>
</g>
<!-- Node3&#45;&gt;Node456 -->
<g id="edge14" class="edge">
<title>Node3&#45;&gt;Node456</title>
<path fill="none" stroke="midnightblue" d="M343.59,-202.39C349.12,-172.13 370.35,-78.04 427,-30 429.56,-27.83 432.33,-25.9 435.25,-24.17"/>
<polygon fill="midnightblue" stroke="midnightblue" points="437.01,-27.21 444.39,-19.6 433.88,-20.95 437.01,-27.21"/>
</g>
<!-- Node447&#45;&gt;Node9 -->
<g id="edge10" class="edge">
<title>Node447&#45;&gt;Node9</title>
<path fill="none" stroke="midnightblue" d="M546.17,-182.3C555.08,-184.96 564.1,-188.45 572,-193 597.89,-207.91 621.12,-233.89 634.89,-251.27"/>
<polygon fill="midnightblue" stroke="midnightblue" points="632.33,-253.67 641.2,-259.47 637.87,-249.41 632.33,-253.67"/>
</g>
</g>
</svg>
