<?xml version="1.0" encoding="UTF-8" standalone="no"?>
<!DOCTYPE svg PUBLIC "-//W3C//DTD SVG 1.1//EN"
 "http://www.w3.org/Graphics/SVG/1.1/DTD/svg11.dtd">
<!-- Generated by graphviz version 2.43.0 (0)
 -->
<!-- Title: max_int Pages: 1 -->
<!--zoomable 926 -->
<svg id="main" version="1.1" xmlns="http://www.w3.org/2000/svg" xmlns:xlink="http://www.w3.org/1999/xlink" xml:space="preserve" onload="init(evt)">
<style type="text/css"><![CDATA[
.edge:hover path { stroke: red; }
.edge:hover polygon { stroke: red; fill: red; }
]]></style>
<script type="text/javascript"><![CDATA[
var edges = document.getElementsByTagName('g');
if (edges && edges.length) {
  for (var i=0;i<edges.length;i++) {
    if (edges[i].id.substr(0,4)=='edge') {
      edges[i].setAttribute('class','edge');
    }
  }
}
]]></script>
        <defs>
                <circle id="rim" cx="0" cy="0" r="7"/>
                <circle id="rim2" cx="0" cy="0" r="3.5"/>
                <g id="zoomPlus">
                        <use xlink:href="#rim" fill="#404040">
                                <set attributeName="fill" to="#808080" begin="zoomplus.mouseover" end="zoomplus.mouseout"/>
                        </use>
                        <path d="M-4,0h8M0,-4v8" fill="none" stroke="white" stroke-width="1.5" pointer-events="none"/>
                </g>
                <g id="zoomMin">
                        <use xlink:href="#rim" fill="#404040">
                                <set attributeName="fill" to="#808080" begin="zoomminus.mouseover" end="zoomminus.mouseout"/>
                        </use>
                        <path d="M-4,0h8" fill="none" stroke="white" stroke-width="1.5" pointer-events="none"/>
                </g>
                <g id="dirArrow">
                        <path fill="none" stroke="white" stroke-width="1.5" d="M0,-3.0v7 M-2.5,-0.5L0,-3.0L2.5,-0.5"/>
                </g>
               <g id="resetDef">
                       <use xlink:href="#rim2" fill="#404040">
                               <set attributeName="fill" to="#808080" begin="reset.mouseover" end="reset.mouseout"/>
                       </use>
               </g>
        </defs>

<script type="text/javascript">
var viewWidth = 422;
var viewHeight = 926;
var sectionId = 'dynsection-7';
</script>
<script xlink:href="svgpan.js"/>
<svg id="graph" class="graph">
<g id="viewport">
<title>max_int</title>
<!-- Node1 -->
<g id="node1" class="node">
<title>Node1</title>
<g id="a_node1"><a xlink:title=" ">
<polygon fill="#bfbfbf" stroke="black" points="358,-335.5 358,-354.5 414,-354.5 414,-335.5 358,-335.5"/>
<text text-anchor="middle" x="386" y="-342.5" font-family="Helvetica,sans-Serif" font-size="10.00">max_int</text>
</a>
</g>
</g>
<!-- Node2 -->
<g id="node2" class="node">
<title>Node2</title>
<g id="a_node2"><a xlink:href="quickjs_8c.html#acd08798ec15cc37c60d2e7d70007c6a8" target="_top" xlink:title=" ">
<polygon fill="none" stroke="black" points="207,-803.5 207,-822.5 296,-822.5 296,-803.5 207,-803.5"/>
<text text-anchor="middle" x="251.5" y="-810.5" font-family="Helvetica,sans-Serif" font-size="10.00">__JS_NewAtom</text>
</a>
</g>
</g>
<!-- Node1&#45;&gt;Node2 -->
<g id="edge1" class="edge">
<title>Node1&#45;&gt;Node2</title>
<path fill="none" stroke="midnightblue" d="M383.04,-364.62C377.51,-416.02 359.68,-558.44 322,-671 304.49,-723.32 271.63,-781.02 258.32,-803.4"/>
<polygon fill="midnightblue" stroke="midnightblue" points="386.53,-364.88 384.08,-354.57 379.57,-364.15 386.53,-364.88"/>
</g>
<!-- Node659 -->
<g id="node8" class="node">
<title>Node659</title>
<g id="a_node8"><a xlink:href="quickjs_8c.html#a4bd986b91b68c6aa485f57c6142acccb" target="_top" xlink:title=" ">
<polygon fill="none" stroke="black" points="205.5,-642.5 205.5,-661.5 297.5,-661.5 297.5,-642.5 205.5,-642.5"/>
<text text-anchor="middle" x="251.5" y="-649.5" font-family="Helvetica,sans-Serif" font-size="10.00">async_func_init</text>
</a>
</g>
</g>
<!-- Node1&#45;&gt;Node659 -->
<g id="edge7" class="edge">
<title>Node1&#45;&gt;Node659</title>
<path fill="none" stroke="midnightblue" d="M385.37,-364.66C385.27,-411.89 379.1,-533.53 322,-611 311.28,-625.55 293.71,-635.84 278.93,-642.48"/>
<polygon fill="midnightblue" stroke="midnightblue" points="388.87,-364.54 385.29,-354.57 381.87,-364.59 388.87,-364.54"/>
</g>
<!-- Node660 -->
<g id="node12" class="node">
<title>Node660</title>
<g id="a_node12"><a xlink:href="quickjs_8c.html#ab638a184d14e8b02ab3ea38b393c7cad" target="_top" xlink:title=" ">
<polygon fill="none" stroke="black" points="195,-582.5 195,-601.5 308,-601.5 308,-582.5 195,-582.5"/>
<text text-anchor="middle" x="251.5" y="-589.5" font-family="Helvetica,sans-Serif" font-size="10.00">compact_properties</text>
</a>
</g>
</g>
<!-- Node1&#45;&gt;Node660 -->
<g id="edge11" class="edge">
<title>Node1&#45;&gt;Node660</title>
<path fill="none" stroke="midnightblue" d="M385.63,-364.88C385.87,-408.87 380.05,-515.11 322,-573 318.01,-576.97 313.28,-580.14 308.19,-582.66"/>
<polygon fill="midnightblue" stroke="midnightblue" points="389.12,-364.82 385.45,-354.88 382.13,-364.94 389.12,-364.82"/>
</g>
<!-- Node662 -->
<g id="node14" class="node">
<title>Node662</title>
<g id="a_node14"><a xlink:href="libunicode_8c.html#a7b73e29a0e2b936a11426d602faac462" target="_top" xlink:title=" ">
<polygon fill="none" stroke="red" points="219.5,-544.5 219.5,-563.5 283.5,-563.5 283.5,-544.5 219.5,-544.5"/>
<text text-anchor="middle" x="251.5" y="-551.5" font-family="Helvetica,sans-Serif" font-size="10.00">cr_realloc</text>
</a>
</g>
</g>
<!-- Node1&#45;&gt;Node662 -->
<g id="edge13" class="edge">
<title>Node1&#45;&gt;Node662</title>
<path fill="none" stroke="midnightblue" d="M384.31,-364.91C381.87,-403.47 370.91,-488.63 322,-535 311.74,-544.72 297,-549.57 283.73,-551.94"/>
<polygon fill="midnightblue" stroke="midnightblue" points="387.83,-364.69 384.83,-354.53 380.83,-364.35 387.83,-364.69"/>
</g>
<!-- Node686 -->
<g id="node17" class="node">
<title>Node686</title>
<g id="a_node17"><a xlink:href="quickjs_8c.html#a85f635777ac81981997774a375ae4a8c" target="_top" xlink:title=" ">
<polygon fill="none" stroke="red" points="198,-506.5 198,-525.5 305,-525.5 305,-506.5 198,-506.5"/>
<text text-anchor="middle" x="251.5" y="-513.5" font-family="Helvetica,sans-Serif" font-size="10.00">expand_fast_array</text>
</a>
</g>
</g>
<!-- Node1&#45;&gt;Node686 -->
<g id="edge16" class="edge">
<title>Node1&#45;&gt;Node686</title>
<path fill="none" stroke="midnightblue" d="M382.39,-364.97C377.07,-397.51 361.88,-461.86 322,-497 317.12,-501.3 311.35,-504.64 305.27,-507.23"/>
<polygon fill="midnightblue" stroke="midnightblue" points="385.88,-365.29 383.89,-354.88 378.96,-364.26 385.88,-365.29"/>
</g>
<!-- Node320 -->
<g id="node18" class="node">
<title>Node320</title>
<g id="a_node18"><a xlink:href="quickjs_8c.html#ac6d5606ba25525b3a03981eefbe98e13" target="_top" xlink:title=" ">
<polygon fill="none" stroke="black" points="203.5,-468.5 203.5,-487.5 299.5,-487.5 299.5,-468.5 203.5,-468.5"/>
<text text-anchor="middle" x="251.5" y="-475.5" font-family="Helvetica,sans-Serif" font-size="10.00">js_function_bind</text>
</a>
</g>
</g>
<!-- Node1&#45;&gt;Node320 -->
<g id="edge17" class="edge">
<title>Node1&#45;&gt;Node320</title>
<path fill="none" stroke="midnightblue" d="M379.54,-364.29C371.3,-389.8 353.26,-434.42 322,-459 315.51,-464.1 307.75,-467.84 299.8,-470.57"/>
<polygon fill="midnightblue" stroke="midnightblue" points="382.91,-365.22 382.47,-354.63 376.21,-363.18 382.91,-365.22"/>
</g>
<!-- Node471 -->
<g id="node19" class="node">
<title>Node471</title>
<g id="a_node19"><a xlink:href="quickjs_8c.html#af5a7bd13b47d5c2de41e92111bf21305" target="_top" xlink:title=" ">
<polygon fill="none" stroke="black" points="198,-430.5 198,-449.5 305,-449.5 305,-430.5 198,-430.5"/>
<text text-anchor="middle" x="251.5" y="-437.5" font-family="Helvetica,sans-Serif" font-size="10.00">js_math_min_max</text>
</a>
</g>
</g>
<!-- Node1&#45;&gt;Node471 -->
<g id="edge18" class="edge">
<title>Node1&#45;&gt;Node471</title>
<path fill="none" stroke="midnightblue" d="M374.51,-363.23C363.57,-380.61 344.85,-406.27 322,-421 316.01,-424.86 309.24,-427.95 302.34,-430.41"/>
<polygon fill="midnightblue" stroke="midnightblue" points="377.58,-364.91 379.76,-354.54 371.59,-361.29 377.58,-364.91"/>
</g>
<!-- Node688 -->
<g id="node20" class="node">
<title>Node688</title>
<g id="a_node20"><a xlink:href="quickjs_8c.html#ab515cd66efd3e476d2c22d6a55f13194" target="_top" xlink:title=" ">
<polygon fill="none" stroke="red" points="209,-392.5 209,-411.5 294,-411.5 294,-392.5 209,-392.5"/>
<text text-anchor="middle" x="251.5" y="-399.5" font-family="Helvetica,sans-Serif" font-size="10.00">JS_NewClass1</text>
</a>
</g>
</g>
<!-- Node1&#45;&gt;Node688 -->
<g id="edge19" class="edge">
<title>Node1&#45;&gt;Node688</title>
<path fill="none" stroke="midnightblue" d="M362.92,-360.38C351.18,-368.02 336.27,-376.89 322,-383 313.26,-386.74 303.59,-389.94 294.3,-392.58"/>
<polygon fill="midnightblue" stroke="midnightblue" points="365.2,-363.07 371.58,-354.6 361.32,-357.24 365.2,-363.07"/>
</g>
<!-- Node690 -->
<g id="node21" class="node">
<title>Node690</title>
<g id="a_node21"><a xlink:href="quickjs_8c.html#a0eda61158c0a22ef337abc3a035bca33" target="_top" xlink:title=" ">
<polygon fill="none" stroke="red" points="204.5,-354.5 204.5,-373.5 298.5,-373.5 298.5,-354.5 204.5,-354.5"/>
<text text-anchor="middle" x="251.5" y="-361.5" font-family="Helvetica,sans-Serif" font-size="10.00">js_realloc_array</text>
</a>
</g>
</g>
<!-- Node1&#45;&gt;Node690 -->
<g id="edge20" class="edge">
<title>Node1&#45;&gt;Node690</title>
<path fill="none" stroke="midnightblue" d="M347.77,-350.34C332.52,-352.53 314.71,-355.08 298.65,-357.38"/>
<polygon fill="midnightblue" stroke="midnightblue" points="348.47,-353.77 357.87,-348.89 347.47,-346.85 348.47,-353.77"/>
</g>
<!-- Node173 -->
<g id="node22" class="node">
<title>Node173</title>
<g id="a_node22"><a xlink:href="quickjs_8c.html#a710202e2f99e7c52937df93b912a857b" target="_top" xlink:title=" ">
<polygon fill="none" stroke="black" points="205,-316.5 205,-335.5 298,-335.5 298,-316.5 205,-316.5"/>
<text text-anchor="middle" x="251.5" y="-323.5" font-family="Helvetica,sans-Serif" font-size="10.00">js_reflect_apply</text>
</a>
</g>
</g>
<!-- Node1&#45;&gt;Node173 -->
<g id="edge21" class="edge">
<title>Node1&#45;&gt;Node173</title>
<path fill="none" stroke="midnightblue" d="M347.68,-339.65C332.28,-337.44 314.29,-334.86 298.12,-332.54"/>
<polygon fill="midnightblue" stroke="midnightblue" points="347.47,-343.15 357.87,-341.11 348.47,-336.23 347.47,-343.15"/>
</g>
<!-- Node526 -->
<g id="node23" class="node">
<title>Node526</title>
<g id="a_node23"><a xlink:href="quickjs_8c.html#aa46a42bde091ff4968e502d9556c47b6" target="_top" xlink:title=" ">
<polygon fill="none" stroke="black" points="208.5,-278.5 208.5,-297.5 294.5,-297.5 294.5,-278.5 208.5,-278.5"/>
<text text-anchor="middle" x="251.5" y="-285.5" font-family="Helvetica,sans-Serif" font-size="10.00">js_string_slice</text>
</a>
</g>
</g>
<!-- Node1&#45;&gt;Node526 -->
<g id="edge22" class="edge">
<title>Node1&#45;&gt;Node526</title>
<path fill="none" stroke="midnightblue" d="M362.92,-329.62C351.18,-321.98 336.27,-313.11 322,-307 313.38,-303.31 303.84,-300.14 294.67,-297.52"/>
<polygon fill="midnightblue" stroke="midnightblue" points="361.32,-332.76 371.58,-335.4 365.2,-326.93 361.32,-332.76"/>
</g>
<!-- Node557 -->
<g id="node24" class="node">
<title>Node557</title>
<g id="a_node24"><a xlink:href="quickjs_8c.html#a4623c0fbf1417b8c089ba0f5037c5362" target="_top" xlink:title=" ">
<polygon fill="none" stroke="red" points="191.5,-240.5 191.5,-259.5 311.5,-259.5 311.5,-240.5 191.5,-240.5"/>
<text text-anchor="middle" x="251.5" y="-247.5" font-family="Helvetica,sans-Serif" font-size="10.00">JS_ToUint8ClampFree</text>
</a>
</g>
</g>
<!-- Node1&#45;&gt;Node557 -->
<g id="edge23" class="edge">
<title>Node1&#45;&gt;Node557</title>
<path fill="none" stroke="midnightblue" d="M374.51,-326.77C363.57,-309.39 344.85,-283.73 322,-269 316.01,-265.14 309.24,-262.05 302.34,-259.59"/>
<polygon fill="midnightblue" stroke="midnightblue" points="371.59,-328.71 379.76,-335.46 377.58,-325.09 371.59,-328.71"/>
</g>
<!-- Node188 -->
<g id="node25" class="node">
<title>Node188</title>
<g id="a_node25"><a xlink:href="quickjs_8c.html#ae5a8e884ec4a3364f63ebfeae6b08bdc" target="_top" xlink:title=" ">
<polygon fill="none" stroke="red" points="181,-153 181,-183 322,-183 322,-153 181,-153"/>
<text text-anchor="start" x="189" y="-171" font-family="Helvetica,sans-Serif" font-size="10.00">js_typed_array___species</text>
<text text-anchor="middle" x="251.5" y="-160" font-family="Helvetica,sans-Serif" font-size="10.00">Create</text>
</a>
</g>
</g>
<!-- Node1&#45;&gt;Node188 -->
<g id="edge24" class="edge">
<title>Node1&#45;&gt;Node188</title>
<path fill="none" stroke="midnightblue" d="M381.45,-325.42C374.91,-294.52 358.15,-234.24 322,-198 315.97,-191.95 308.52,-187.04 300.76,-183.08"/>
<polygon fill="midnightblue" stroke="midnightblue" points="378.05,-326.25 383.42,-335.38 384.92,-324.89 378.05,-326.25"/>
</g>
<!-- Node189 -->
<g id="node26" class="node">
<title>Node189</title>
<g id="a_node26"><a xlink:href="quickjs_8c.html#a04f45f4b341a84aa1039cfd862adbcd2" target="_top" xlink:title=" ">
<polygon fill="none" stroke="black" points="14.5,-178.5 14.5,-197.5 130.5,-197.5 130.5,-178.5 14.5,-178.5"/>
<text text-anchor="middle" x="72.5" y="-185.5" font-family="Helvetica,sans-Serif" font-size="10.00">js_typed_array_slice</text>
</a>
</g>
</g>
<!-- Node1&#45;&gt;Node189 -->
<g id="edge27" class="edge">
<title>Node1&#45;&gt;Node189</title>
<path fill="none" stroke="midnightblue" d="M379.99,-325.65C372.19,-299.69 354.56,-254.18 322,-231 292.04,-209.67 194.38,-197.82 130.78,-192.19"/>
<polygon fill="midnightblue" stroke="midnightblue" points="376.67,-326.78 382.74,-335.46 383.41,-324.88 376.67,-326.78"/>
</g>
<!-- Node190 -->
<g id="node27" class="node">
<title>Node190</title>
<g id="a_node27"><a xlink:href="quickjs_8c.html#a355310420e303302c981eb7c73a222fb" target="_top" xlink:title=" ">
<polygon fill="none" stroke="black" points="4,-137.5 4,-156.5 141,-156.5 141,-137.5 4,-137.5"/>
<text text-anchor="middle" x="72.5" y="-144.5" font-family="Helvetica,sans-Serif" font-size="10.00">js_typed_array_subarray</text>
</a>
</g>
</g>
<!-- Node1&#45;&gt;Node190 -->
<g id="edge28" class="edge">
<title>Node1&#45;&gt;Node190</title>
<path fill="none" stroke="midnightblue" d="M385.79,-325.14C386.23,-283.23 380.55,-186.07 322,-143 254.92,-93.65 147.74,-120.99 99.05,-137.43"/>
<polygon fill="midnightblue" stroke="midnightblue" points="382.29,-325.11 385.55,-335.19 389.29,-325.28 382.29,-325.11"/>
</g>
<!-- Node725 -->
<g id="node28" class="node">
<title>Node725</title>
<g id="a_node28"><a xlink:href="quickjs_8c.html#a7d087e9b184f7e0369bab54aafb1c36d" target="_top" xlink:title=" ">
<polygon fill="none" stroke="red" points="214.5,-76.5 214.5,-95.5 288.5,-95.5 288.5,-76.5 214.5,-76.5"/>
<text text-anchor="middle" x="251.5" y="-83.5" font-family="Helvetica,sans-Serif" font-size="10.00">push_scope</text>
</a>
</g>
</g>
<!-- Node1&#45;&gt;Node725 -->
<g id="edge29" class="edge">
<title>Node1&#45;&gt;Node725</title>
<path fill="none" stroke="midnightblue" d="M385.54,-325.42C385.68,-281.06 379.75,-171.97 322,-110 313.3,-100.66 300.79,-94.96 288.78,-91.47"/>
<polygon fill="midnightblue" stroke="midnightblue" points="382.04,-325.41 385.4,-335.46 389.04,-325.51 382.04,-325.41"/>
</g>
<!-- Node726 -->
<g id="node29" class="node">
<title>Node726</title>
<g id="a_node29"><a xlink:href="quickjs_8c.html#aa80740ff93b724ea7e0c280826f4a25a" target="_top" xlink:title=" ">
<polygon fill="none" stroke="red" points="201,-38.5 201,-57.5 302,-57.5 302,-38.5 201,-38.5"/>
<text text-anchor="middle" x="251.5" y="-45.5" font-family="Helvetica,sans-Serif" font-size="10.00">resize_properties</text>
</a>
</g>
</g>
<!-- Node1&#45;&gt;Node726 -->
<g id="edge30" class="edge">
<title>Node1&#45;&gt;Node726</title>
<path fill="none" stroke="midnightblue" d="M383.11,-324.96C377.31,-267.61 357.93,-104.55 322,-67 316.55,-61.31 309.58,-57.26 302.15,-54.41"/>
<polygon fill="midnightblue" stroke="midnightblue" points="379.66,-325.62 384.12,-335.23 386.63,-324.94 379.66,-325.62"/>
</g>
<!-- Node753 -->
<g id="node30" class="node">
<title>Node753</title>
<g id="a_node30"><a xlink:href="quickjs_8c.html#a317ccdca83843c76330ace89fb055b56" target="_top" xlink:title=" ">
<polygon fill="none" stroke="red" points="193.5,-0.5 193.5,-19.5 309.5,-19.5 309.5,-0.5 193.5,-0.5"/>
<text text-anchor="middle" x="251.5" y="-7.5" font-family="Helvetica,sans-Serif" font-size="10.00">string_buffer_realloc</text>
</a>
</g>
</g>
<!-- Node1&#45;&gt;Node753 -->
<g id="edge31" class="edge">
<title>Node1&#45;&gt;Node753</title>
<path fill="none" stroke="midnightblue" d="M383.72,-325.14C379.3,-262.81 362.67,-72.62 322,-29 318.42,-25.16 314.14,-22.06 309.49,-19.58"/>
<polygon fill="midnightblue" stroke="midnightblue" points="380.23,-325.49 384.4,-335.22 387.22,-325.01 380.23,-325.49"/>
</g>
<!-- Node3 -->
<g id="node3" class="node">
<title>Node3</title>
<g id="a_node3"><a xlink:href="quickjs_8c.html#a128673f932e71b867730af75a44e3f97" target="_top" xlink:title=" ">
<polygon fill="none" stroke="red" points="20,-898.5 20,-917.5 125,-917.5 125,-898.5 20,-898.5"/>
<text text-anchor="middle" x="72.5" y="-905.5" font-family="Helvetica,sans-Serif" font-size="10.00">__JS_NewAtomInit</text>
</a>
</g>
</g>
<!-- Node2&#45;&gt;Node3 -->
<g id="edge2" class="edge">
<title>Node2&#45;&gt;Node3</title>
<path fill="none" stroke="midnightblue" d="M232.24,-829.37C212.19,-846.55 178.39,-873.2 145,-889 136.99,-892.79 128.1,-895.92 119.39,-898.47"/>
<polygon fill="midnightblue" stroke="midnightblue" points="234.72,-831.86 239.95,-822.65 230.12,-826.59 234.72,-831.86"/>
</g>
<!-- Node22 -->
<g id="node4" class="node">
<title>Node22</title>
<g id="a_node4"><a xlink:href="quickjs_8c.html#aa641af3a921335927dab07dc83285917" target="_top" xlink:title=" ">
<polygon fill="none" stroke="red" points="20.5,-860.5 20.5,-879.5 124.5,-879.5 124.5,-860.5 20.5,-860.5"/>
<text text-anchor="middle" x="72.5" y="-867.5" font-family="Helvetica,sans-Serif" font-size="10.00">JS_NewAtomInt64</text>
</a>
</g>
</g>
<!-- Node2&#45;&gt;Node22 -->
<g id="edge3" class="edge">
<title>Node2&#45;&gt;Node22</title>
<path fill="none" stroke="midnightblue" d="M216.43,-826.11C195.89,-833.81 169.11,-843.47 145,-851 134.33,-854.33 122.66,-857.59 111.89,-860.45"/>
<polygon fill="midnightblue" stroke="midnightblue" points="217.86,-829.32 225.98,-822.51 215.38,-822.77 217.86,-829.32"/>
</g>
<!-- Node55 -->
<g id="node5" class="node">
<title>Node55</title>
<g id="a_node5"><a xlink:href="quickjs_8c.html#a33fd643aff7f70e649d246385cd99b00" target="_top" xlink:title=" ">
<polygon fill="none" stroke="red" points="26.5,-822.5 26.5,-841.5 118.5,-841.5 118.5,-822.5 26.5,-822.5"/>
<text text-anchor="middle" x="72.5" y="-829.5" font-family="Helvetica,sans-Serif" font-size="10.00">JS_NewAtomStr</text>
</a>
</g>
</g>
<!-- Node2&#45;&gt;Node55 -->
<g id="edge4" class="edge">
<title>Node2&#45;&gt;Node55</title>
<path fill="none" stroke="midnightblue" d="M196.7,-818.77C171.73,-821.46 142.39,-824.61 118.6,-827.16"/>
<polygon fill="midnightblue" stroke="midnightblue" points="197.18,-822.24 206.75,-817.7 196.43,-815.28 197.18,-822.24"/>
</g>
<!-- Node655 -->
<g id="node6" class="node">
<title>Node655</title>
<g id="a_node6"><a xlink:href="quickjs_8c.html#a7445082229205ad47aec019d74536f8e" target="_top" xlink:title=" ">
<polygon fill="none" stroke="red" points="17,-784.5 17,-803.5 128,-803.5 128,-784.5 17,-784.5"/>
<text text-anchor="middle" x="72.5" y="-791.5" font-family="Helvetica,sans-Serif" font-size="10.00">JS_NewAtomUInt32</text>
</a>
</g>
</g>
<!-- Node2&#45;&gt;Node655 -->
<g id="edge5" class="edge">
<title>Node2&#45;&gt;Node655</title>
<path fill="none" stroke="midnightblue" d="M196.7,-807.23C174.99,-804.89 149.96,-802.21 128.16,-799.87"/>
<polygon fill="midnightblue" stroke="midnightblue" points="196.43,-810.72 206.75,-808.3 197.18,-803.76 196.43,-810.72"/>
</g>
<!-- Node656 -->
<g id="node7" class="node">
<title>Node656</title>
<g id="a_node7"><a xlink:href="quickjs_8c.html#a4709c57b3c941673dcc69e07eb45182c" target="_top" xlink:title=" ">
<polygon fill="none" stroke="red" points="28,-746.5 28,-765.5 117,-765.5 117,-746.5 28,-746.5"/>
<text text-anchor="middle" x="72.5" y="-753.5" font-family="Helvetica,sans-Serif" font-size="10.00">JS_NewSymbol</text>
</a>
</g>
</g>
<!-- Node2&#45;&gt;Node656 -->
<g id="edge6" class="edge">
<title>Node2&#45;&gt;Node656</title>
<path fill="none" stroke="midnightblue" d="M216.43,-799.89C195.89,-792.19 169.11,-782.53 145,-775 134.33,-771.67 122.66,-768.41 111.89,-765.55"/>
<polygon fill="midnightblue" stroke="midnightblue" points="215.38,-803.23 225.98,-803.49 217.86,-796.68 215.38,-803.23"/>
</g>
<!-- Node157 -->
<g id="node9" class="node">
<title>Node157</title>
<g id="a_node9"><a xlink:href="quickjs_8c.html#a8029b29b8458274699fbcb7ce42a7100" target="_top" xlink:title=" ">
<polygon fill="none" stroke="red" points="9.5,-708.5 9.5,-727.5 135.5,-727.5 135.5,-708.5 9.5,-708.5"/>
<text text-anchor="middle" x="72.5" y="-715.5" font-family="Helvetica,sans-Serif" font-size="10.00">js_async_function_call</text>
</a>
</g>
</g>
<!-- Node659&#45;&gt;Node157 -->
<g id="edge8" class="edge">
<title>Node659&#45;&gt;Node157</title>
<path fill="none" stroke="midnightblue" d="M222.16,-666.11C201.2,-676.18 171.77,-689.55 145,-699 135.07,-702.51 124.16,-705.72 113.93,-708.46"/>
<polygon fill="midnightblue" stroke="midnightblue" points="223.96,-669.12 231.43,-661.61 220.91,-662.83 223.96,-669.12"/>
</g>
<!-- Node159 -->
<g id="node10" class="node">
<title>Node159</title>
<g id="a_node10"><a xlink:href="quickjs_8c.html#ae19867da709929c072f05e90301835a4" target="_top" xlink:title=" ">
<polygon fill="none" stroke="red" points="17,-659 17,-689 128,-689 128,-659 17,-659"/>
<text text-anchor="start" x="25" y="-677" font-family="Helvetica,sans-Serif" font-size="10.00">js_async_generator</text>
<text text-anchor="middle" x="72.5" y="-666" font-family="Helvetica,sans-Serif" font-size="10.00">_function_call</text>
</a>
</g>
</g>
<!-- Node659&#45;&gt;Node159 -->
<g id="edge9" class="edge">
<title>Node659&#45;&gt;Node159</title>
<path fill="none" stroke="midnightblue" d="M195.43,-658.84C173.97,-661.51 149.42,-664.56 128.01,-667.22"/>
<polygon fill="midnightblue" stroke="midnightblue" points="195.89,-662.32 205.38,-657.61 195.02,-655.37 195.89,-662.32"/>
</g>
<!-- Node161 -->
<g id="node11" class="node">
<title>Node161</title>
<g id="a_node11"><a xlink:href="quickjs_8c.html#ac90552b1f1659acb3dae9a4c62479a30" target="_top" xlink:title=" ">
<polygon fill="none" stroke="red" points="0,-620.5 0,-639.5 145,-639.5 145,-620.5 0,-620.5"/>
<text text-anchor="middle" x="72.5" y="-627.5" font-family="Helvetica,sans-Serif" font-size="10.00">js_generator_function_call</text>
</a>
</g>
</g>
<!-- Node659&#45;&gt;Node161 -->
<g id="edge10" class="edge">
<title>Node659&#45;&gt;Node161</title>
<path fill="none" stroke="midnightblue" d="M195.2,-645.13C179.31,-643.15 161.75,-640.97 145.03,-638.89"/>
<polygon fill="midnightblue" stroke="midnightblue" points="195.02,-648.63 205.38,-646.39 195.89,-641.68 195.02,-648.63"/>
</g>
<!-- Node661 -->
<g id="node13" class="node">
<title>Node661</title>
<g id="a_node13"><a xlink:href="quickjs_8c.html#a2b9a2014cb970af5b5b7dde00afbdffa" target="_top" xlink:title=" ">
<polygon fill="none" stroke="red" points="25.5,-582.5 25.5,-601.5 119.5,-601.5 119.5,-582.5 25.5,-582.5"/>
<text text-anchor="middle" x="72.5" y="-589.5" font-family="Helvetica,sans-Serif" font-size="10.00">delete_property</text>
</a>
</g>
</g>
<!-- Node660&#45;&gt;Node661 -->
<g id="edge12" class="edge">
<title>Node660&#45;&gt;Node661</title>
<path fill="none" stroke="midnightblue" d="M184.85,-592C163.17,-592 139.52,-592 119.62,-592"/>
<polygon fill="midnightblue" stroke="midnightblue" points="184.98,-595.5 194.98,-592 184.98,-588.5 184.98,-595.5"/>
</g>
<!-- Node663 -->
<g id="node15" class="node">
<title>Node663</title>
<g id="a_node15"><a xlink:href="libunicode_8h.html#aeade60962a424d84bc260a72311a0745" target="_top" xlink:title=" ">
<polygon fill="none" stroke="red" points="26.5,-544.5 26.5,-563.5 118.5,-563.5 118.5,-544.5 26.5,-544.5"/>
<text text-anchor="middle" x="72.5" y="-551.5" font-family="Helvetica,sans-Serif" font-size="10.00">cr_add_interval</text>
</a>
</g>
</g>
<!-- Node662&#45;&gt;Node663 -->
<g id="edge14" class="edge">
<title>Node662&#45;&gt;Node663</title>
<path fill="none" stroke="midnightblue" d="M208.95,-554C181.86,-554 146.5,-554 118.71,-554"/>
<polygon fill="midnightblue" stroke="midnightblue" points="209.26,-557.5 219.26,-554 209.26,-550.5 209.26,-557.5"/>
</g>
<!-- Node678 -->
<g id="node16" class="node">
<title>Node678</title>
<g id="a_node16"><a xlink:href="libunicode_8h.html#aaf2d50fc6added56ee3c3273e991321c" target="_top" xlink:title=" ">
<polygon fill="none" stroke="red" points="33,-506.5 33,-525.5 112,-525.5 112,-506.5 33,-506.5"/>
<text text-anchor="middle" x="72.5" y="-513.5" font-family="Helvetica,sans-Serif" font-size="10.00">cr_add_point</text>
</a>
</g>
</g>
<!-- Node662&#45;&gt;Node678 -->
<g id="edge15" class="edge">
<title>Node662&#45;&gt;Node678</title>
<path fill="none" stroke="midnightblue" d="M209.34,-545.16C180.02,-538.87 140.88,-530.46 112.14,-524.3"/>
<polygon fill="midnightblue" stroke="midnightblue" points="208.75,-548.62 219.26,-547.29 210.22,-541.77 208.75,-548.62"/>
</g>
<!-- Node188&#45;&gt;Node189 -->
<g id="edge25" class="edge">
<title>Node188&#45;&gt;Node189</title>
<path fill="none" stroke="midnightblue" d="M170.57,-177.03C157.09,-178.56 143.34,-180.11 130.59,-181.55"/>
<polygon fill="midnightblue" stroke="midnightblue" points="171.26,-180.48 180.8,-175.88 170.47,-173.52 171.26,-180.48"/>
</g>
<!-- Node188&#45;&gt;Node190 -->
<g id="edge26" class="edge">
<title>Node188&#45;&gt;Node190</title>
<path fill="none" stroke="midnightblue" d="M170.6,-158.52C160.75,-157.35 150.76,-156.17 141.11,-155.02"/>
<polygon fill="midnightblue" stroke="midnightblue" points="170.46,-162.03 180.8,-159.73 171.28,-155.08 170.46,-162.03"/>
</g>
</g>
</svg>
        <g id="navigator" transform="translate(0 0)" fill="#404254">
                <rect fill="#f2f5e9" fill-opacity="0.5" stroke="#606060" stroke-width=".5" x="0" y="0" width="60" height="60"/>
                <use id="zoomplus" xlink:href="#zoomPlus" x="17" y="9" onmousedown="handleZoom(evt,'in')"/>
                <use id="zoomminus" xlink:href="#zoomMin" x="42" y="9" onmousedown="handleZoom(evt,'out')"/>
                <use id="reset" xlink:href="#resetDef" x="30" y="36" onmousedown="handleReset()"/>
                <g id="arrowUp" xlink:href="#dirArrow" transform="translate(30 24)" onmousedown="handlePan(0,-1)">
                  <use xlink:href="#rim" fill="#404040">
                        <set attributeName="fill" to="#808080" begin="arrowUp.mouseover" end="arrowUp.mouseout"/>
                  </use>
                  <path fill="none" stroke="white" stroke-width="1.5" d="M0,-3.0v7 M-2.5,-0.5L0,-3.0L2.5,-0.5"/>
                </g>
                <g id="arrowRight" xlink:href="#dirArrow" transform="rotate(90) translate(36 -43)" onmousedown="handlePan(1,0)">
                  <use xlink:href="#rim" fill="#404040">
                        <set attributeName="fill" to="#808080" begin="arrowRight.mouseover" end="arrowRight.mouseout"/>
                  </use>
                  <path fill="none" stroke="white" stroke-width="1.5" d="M0,-3.0v7 M-2.5,-0.5L0,-3.0L2.5,-0.5"/>
                </g>
                <g id="arrowDown" xlink:href="#dirArrow" transform="rotate(180) translate(-30 -48)" onmousedown="handlePan(0,1)">
                  <use xlink:href="#rim" fill="#404040">
                        <set attributeName="fill" to="#808080" begin="arrowDown.mouseover" end="arrowDown.mouseout"/>
                  </use>
                  <path fill="none" stroke="white" stroke-width="1.5" d="M0,-3.0v7 M-2.5,-0.5L0,-3.0L2.5,-0.5"/>
                </g>
                <g id="arrowLeft" xlink:href="#dirArrow" transform="rotate(270) translate(-36 17)" onmousedown="handlePan(-1,0)">
                  <use xlink:href="#rim" fill="#404040">
                        <set attributeName="fill" to="#808080" begin="arrowLeft.mouseover" end="arrowLeft.mouseout"/>
                  </use>
                  <path fill="none" stroke="white" stroke-width="1.5" d="M0,-3.0v7 M-2.5,-0.5L0,-3.0L2.5,-0.5"/>
                </g>
        </g>
        <svg viewBox="0 0 15 15" width="100%" height="30px" preserveAspectRatio="xMaxYMin meet">
         <g id="arrow_out" transform="scale(0.3 0.3)">
          <a xlink:href="cutils_8h_a94f155fcce337a2b9d4719ed8042cbbe_icgraph_org.svg" target="_base">
           <rect id="button" ry="5" rx="5" y="6" x="6" height="38" width="38"
                fill="#f2f5e9" fill-opacity="0.5" stroke="#606060" stroke-width="1.0"/>
           <path id="arrow"
             d="M 11.500037,31.436501 C 11.940474,20.09759 22.043105,11.32322 32.158766,21.979434 L 37.068811,17.246167 C 37.068811,17.246167 37.088388,32 37.088388,32 L 22.160133,31.978069 C 22.160133,31.978069 26.997745,27.140456 26.997745,27.140456 C 18.528582,18.264221 13.291696,25.230495 11.500037,31.436501 z"
             style="fill:#404040;"/>
          </a>
         </g>
        </svg>
</svg>
