<?xml version="1.0" encoding="UTF-8" standalone="no"?>
<!DOCTYPE svg PUBLIC "-//W3C//DTD SVG 1.1//EN"
 "http://www.w3.org/Graphics/SVG/1.1/DTD/svg11.dtd">
<!-- Generated by graphviz version 2.43.0 (0)
 -->
<!-- Title: validate_typed_array Pages: 1 -->
<svg width="289pt" height="78pt"
 viewBox="0.00 0.00 289.00 77.50" xmlns="http://www.w3.org/2000/svg" xmlns:xlink="http://www.w3.org/1999/xlink">
<g id="graph0" class="graph" transform="scale(1 1) rotate(0) translate(4 73.5)">
<title>validate_typed_array</title>
<!-- Node1 -->
<g id="node1" class="node">
<title>Node1</title>
<g id="a_node1"><a xlink:title=" ">
<polygon fill="#bfbfbf" stroke="black" points="161,-22.5 161,-41.5 281,-41.5 281,-22.5 161,-22.5"/>
<text text-anchor="middle" x="221" y="-29.5" font-family="Helvetica,sans-Serif" font-size="10.00">validate_typed_array</text>
</a>
</g>
</g>
<!-- Node2 -->
<g id="node2" class="node">
<title>Node2</title>
<g id="a_node2"><a xlink:href="quickjs_8c.html#a1e80be77ffd5dbb921de62f804a26675" target="_top" xlink:title=" ">
<polygon fill="none" stroke="black" points="0,-39 0,-69 125,-69 125,-39 0,-39"/>
<text text-anchor="start" x="8" y="-57" font-family="Helvetica,sans-Serif" font-size="10.00">js_create_typed_array</text>
<text text-anchor="middle" x="62.5" y="-46" font-family="Helvetica,sans-Serif" font-size="10.00">_iterator</text>
</a>
</g>
</g>
<!-- Node1&#45;&gt;Node2 -->
<g id="edge1" class="edge">
<title>Node1&#45;&gt;Node2</title>
<path fill="none" stroke="midnightblue" d="M150.86,-41.72C142.28,-42.93 133.55,-44.15 125.09,-45.34"/>
<polygon fill="midnightblue" stroke="midnightblue" points="151.42,-45.18 160.83,-40.32 150.44,-38.24 151.42,-45.18"/>
</g>
<!-- Node3 -->
<g id="node3" class="node">
<title>Node3</title>
<g id="a_node3"><a xlink:href="quickjs_8c.html#a04f45f4b341a84aa1039cfd862adbcd2" target="_top" xlink:title=" ">
<polygon fill="none" stroke="black" points="4.5,-0.5 4.5,-19.5 120.5,-19.5 120.5,-0.5 4.5,-0.5"/>
<text text-anchor="middle" x="62.5" y="-7.5" font-family="Helvetica,sans-Serif" font-size="10.00">js_typed_array_slice</text>
</a>
</g>
</g>
<!-- Node1&#45;&gt;Node3 -->
<g id="edge2" class="edge">
<title>Node1&#45;&gt;Node3</title>
<path fill="none" stroke="midnightblue" d="M150.85,-22.28C140.77,-20.86 130.48,-19.42 120.68,-18.04"/>
<polygon fill="midnightblue" stroke="midnightblue" points="150.44,-25.76 160.83,-23.68 151.42,-18.82 150.44,-25.76"/>
</g>
</g>
</svg>
