<?xml version="1.0" encoding="UTF-8" standalone="no"?>
<!DOCTYPE svg PUBLIC "-//W3C//DTD SVG 1.1//EN"
 "http://www.w3.org/Graphics/SVG/1.1/DTD/svg11.dtd">
<!-- Generated by graphviz version 2.43.0 (0)
 -->
<!-- Title: JS_GetPrototype Pages: 1 -->
<!--zoomable 667 -->
<svg id="main" version="1.1" xmlns="http://www.w3.org/2000/svg" xmlns:xlink="http://www.w3.org/1999/xlink" xml:space="preserve" onload="init(evt)">
<style type="text/css"><![CDATA[
.edge:hover path { stroke: red; }
.edge:hover polygon { stroke: red; fill: red; }
]]></style>
<script type="text/javascript"><![CDATA[
var edges = document.getElementsByTagName('g');
if (edges && edges.length) {
  for (var i=0;i<edges.length;i++) {
    if (edges[i].id.substr(0,4)=='edge') {
      edges[i].setAttribute('class','edge');
    }
  }
}
]]></script>
        <defs>
                <circle id="rim" cx="0" cy="0" r="7"/>
                <circle id="rim2" cx="0" cy="0" r="3.5"/>
                <g id="zoomPlus">
                        <use xlink:href="#rim" fill="#404040">
                                <set attributeName="fill" to="#808080" begin="zoomplus.mouseover" end="zoomplus.mouseout"/>
                        </use>
                        <path d="M-4,0h8M0,-4v8" fill="none" stroke="white" stroke-width="1.5" pointer-events="none"/>
                </g>
                <g id="zoomMin">
                        <use xlink:href="#rim" fill="#404040">
                                <set attributeName="fill" to="#808080" begin="zoomminus.mouseover" end="zoomminus.mouseout"/>
                        </use>
                        <path d="M-4,0h8" fill="none" stroke="white" stroke-width="1.5" pointer-events="none"/>
                </g>
                <g id="dirArrow">
                        <path fill="none" stroke="white" stroke-width="1.5" d="M0,-3.0v7 M-2.5,-0.5L0,-3.0L2.5,-0.5"/>
                </g>
               <g id="resetDef">
                       <use xlink:href="#rim2" fill="#404040">
                               <set attributeName="fill" to="#808080" begin="reset.mouseover" end="reset.mouseout"/>
                       </use>
               </g>
        </defs>

<script type="text/javascript">
var viewWidth = 948;
var viewHeight = 667;
var sectionId = 'dynsection-539';
</script>
<script xlink:href="svgpan.js"/>
<svg id="graph" class="graph">
<g id="viewport">
<title>JS_GetPrototype</title>
<!-- Node1 -->
<g id="node1" class="node">
<title>Node1</title>
<g id="a_node1"><a xlink:title=" ">
<polygon fill="#bfbfbf" stroke="black" points="845,-478 845,-497 940,-497 940,-478 845,-478"/>
<text text-anchor="middle" x="892.5" y="-485" font-family="Helvetica,sans-Serif" font-size="10.00">JS_GetPrototype</text>
</a>
</g>
</g>
<!-- Node2 -->
<g id="node2" class="node">
<title>Node2</title>
<g id="a_node2"><a xlink:href="quickjs_8c.html#ac2894ff4edcdb4e6841bcce9c76081e3" target="_top" xlink:title=" ">
<polygon fill="none" stroke="black" points="361,-375 361,-394 448,-394 448,-375 361,-375"/>
<text text-anchor="middle" x="404.5" y="-382" font-family="Helvetica,sans-Serif" font-size="10.00">JS_CallInternal</text>
</a>
</g>
</g>
<!-- Node1&#45;&gt;Node2 -->
<g id="edge1" class="edge">
<title>Node1&#45;&gt;Node2</title>
<path fill="none" stroke="midnightblue" d="M862.8,-473.51C815.99,-451.49 719.73,-409.51 633,-392.5 569.59,-380.06 494.38,-380.25 448.31,-382.01"/>
<polygon fill="midnightblue" stroke="midnightblue" points="861.48,-476.76 872.01,-477.89 864.48,-470.43 861.48,-476.76"/>
</g>
<!-- Node598 -->
<g id="node21" class="node">
<title>Node598</title>
<g id="a_node21"><a xlink:href="quickjs_8c.html#adda8732f2afb3bb7bd7e5f59e3ba022d" target="_top" xlink:title=" ">
<polygon fill="none" stroke="black" points="4.5,-639 4.5,-658 141.5,-658 141.5,-639 4.5,-639"/>
<text text-anchor="middle" x="73" y="-646" font-family="Helvetica,sans-Serif" font-size="10.00">js_proxy_getPrototypeOf</text>
</a>
</g>
</g>
<!-- Node1&#45;&gt;Node598 -->
<g id="edge38" class="edge">
<title>Node1&#45;&gt;Node598</title>
<path fill="none" stroke="midnightblue" d="M873.46,-505.08C858.28,-522.64 834.93,-548.63 809,-564.5 710.23,-624.93 675.29,-639.5 559.5,-639.5 559.5,-639.5 559.5,-639.5 403.5,-639.5 312.83,-639.5 208.13,-639.5 141.52,-641.64"/>
<polygon fill="midnightblue" stroke="midnightblue" points="876.36,-507.08 880.24,-497.22 871.06,-502.51 876.36,-507.08"/>
</g>
<!-- Node605 -->
<g id="node22" class="node">
<title>Node605</title>
<g id="a_node22"><a xlink:href="quickjs_8c.html#ae8b32777df50bb192c19840adc4d32a1" target="_top" xlink:title=" ">
<polygon fill="none" stroke="red" points="4.5,-597 4.5,-616 141.5,-616 141.5,-597 4.5,-597"/>
<text text-anchor="middle" x="73" y="-604" font-family="Helvetica,sans-Serif" font-size="10.00">js_proxy_setPrototypeOf</text>
</a>
</g>
</g>
<!-- Node1&#45;&gt;Node605 -->
<g id="edge39" class="edge">
<title>Node1&#45;&gt;Node605</title>
<path fill="none" stroke="midnightblue" d="M867.15,-502.13C813.55,-532.91 680.52,-601.5 559.5,-601.5 559.5,-601.5 559.5,-601.5 403.5,-601.5 312.82,-601.5 208.12,-603.42 141.52,-604.88"/>
<polygon fill="midnightblue" stroke="midnightblue" points="869.04,-505.08 875.92,-497.02 865.52,-499.03 869.04,-505.08"/>
</g>
<!-- Node611 -->
<g id="node23" class="node">
<title>Node611</title>
<g id="a_node23"><a xlink:href="quickjs_8c.html#a7f82fd53b039b4e12f1addfa15d750ae" target="_top" xlink:title=" ">
<polygon fill="none" stroke="black" points="681,-478 681,-497 797,-497 797,-478 681,-478"/>
<text text-anchor="middle" x="739" y="-485" font-family="Helvetica,sans-Serif" font-size="10.00">JS_GetPrototypeFree</text>
</a>
</g>
</g>
<!-- Node1&#45;&gt;Node611 -->
<g id="edge29" class="edge">
<title>Node1&#45;&gt;Node611</title>
<path fill="none" stroke="midnightblue" d="M834.71,-487.5C822.45,-487.5 809.49,-487.5 797.22,-487.5"/>
<polygon fill="midnightblue" stroke="midnightblue" points="834.81,-491 844.81,-487.5 834.81,-484 834.81,-491"/>
</g>
<!-- Node311 -->
<g id="node29" class="node">
<title>Node311</title>
<g id="a_node29"><a xlink:href="quickjs_8c.html#a0b46bf41453514070c7c0d722b107546" target="_top" xlink:title=" ">
<polygon fill="none" stroke="black" points="672.5,-326 672.5,-345 805.5,-345 805.5,-326 672.5,-326"/>
<text text-anchor="middle" x="739" y="-333" font-family="Helvetica,sans-Serif" font-size="10.00">js_object_get___proto__</text>
</a>
</g>
</g>
<!-- Node1&#45;&gt;Node311 -->
<g id="edge36" class="edge">
<title>Node1&#45;&gt;Node311</title>
<path fill="none" stroke="midnightblue" d="M884.07,-468.55C872.25,-440.76 846.59,-389.07 809,-359.5 801.02,-353.23 791.3,-348.53 781.69,-345.04"/>
<polygon fill="midnightblue" stroke="midnightblue" points="880.88,-470.01 887.92,-477.93 887.36,-467.35 880.88,-470.01"/>
</g>
<!-- Node612 -->
<g id="node30" class="node">
<title>Node612</title>
<g id="a_node30"><a xlink:href="quickjs_8c.html#ad3ae6750957868bc31ebfcb116b4df9c" target="_top" xlink:title=" ">
<polygon fill="none" stroke="black" points="669,-288 669,-307 809,-307 809,-288 669,-288"/>
<text text-anchor="middle" x="739" y="-295" font-family="Helvetica,sans-Serif" font-size="10.00">js_object_getPrototypeOf</text>
</a>
</g>
</g>
<!-- Node1&#45;&gt;Node612 -->
<g id="edge37" class="edge">
<title>Node1&#45;&gt;Node612</title>
<path fill="none" stroke="midnightblue" d="M887.52,-467.48C879.34,-431.68 857.2,-356.69 809,-316.5 804.32,-312.6 798.91,-309.5 793.21,-307.03"/>
<polygon fill="midnightblue" stroke="midnightblue" points="884.18,-468.59 889.7,-477.63 891.02,-467.12 884.18,-468.59"/>
</g>
<!-- Node2&#45;&gt;Node2 -->
<g id="edge28" class="edge">
<title>Node2&#45;&gt;Node2</title>
<path fill="none" stroke="midnightblue" d="M432.5,-403.15C431.33,-408.44 422,-412.5 404.5,-412.5 377.84,-412.5 370.13,-403.07 381.38,-394.26"/>
<polygon fill="midnightblue" stroke="midnightblue" points="435.5,-401.34 427.62,-394.26 429.36,-404.71 435.5,-401.34"/>
</g>
<!-- Node3 -->
<g id="node3" class="node">
<title>Node3</title>
<g id="a_node3"><a xlink:href="quickjs_8c.html#ade71a22dc56e7371392393df663b28b3" target="_top" xlink:title=" ">
<polygon fill="none" stroke="black" points="197,-99 197,-118 310,-118 310,-99 197,-99"/>
<text text-anchor="middle" x="253.5" y="-106" font-family="Helvetica,sans-Serif" font-size="10.00">async_func_resume</text>
</a>
</g>
</g>
<!-- Node2&#45;&gt;Node3 -->
<g id="edge2" class="edge">
<title>Node2&#45;&gt;Node3</title>
<path fill="none" stroke="midnightblue" d="M393.48,-365.94C364.54,-312.33 281.5,-158.52 259.76,-118.25"/>
<polygon fill="midnightblue" stroke="midnightblue" points="390.54,-367.86 398.37,-375 396.7,-364.54 390.54,-367.86"/>
</g>
<!-- Node22 -->
<g id="node8" class="node">
<title>Node22</title>
<g id="a_node8"><a xlink:href="quickjs_8c.html#a1a4c02a29525d5cb2085dd8bca3af350" target="_top" xlink:title=" ">
<polygon fill="none" stroke="red" points="228.5,-375 228.5,-394 278.5,-394 278.5,-375 228.5,-375"/>
<text text-anchor="middle" x="253.5" y="-382" font-family="Helvetica,sans-Serif" font-size="10.00">JS_Call</text>
</a>
</g>
</g>
<!-- Node2&#45;&gt;Node22 -->
<g id="edge7" class="edge">
<title>Node2&#45;&gt;Node22</title>
<path fill="none" stroke="midnightblue" d="M350.53,-378.01C325.98,-377.41 298.03,-377.86 278.63,-379.37"/>
<polygon fill="midnightblue" stroke="midnightblue" points="350.7,-381.51 360.8,-378.33 350.92,-374.52 350.7,-381.51"/>
</g>
<!-- Node108 -->
<g id="node19" class="node">
<title>Node108</title>
<g id="a_node19"><a xlink:href="quickjs_8c.html#ad35594576a14c10812efaf958c99af8a" target="_top" xlink:title=" ">
<polygon fill="none" stroke="red" points="182,-337 182,-356 325,-356 325,-337 182,-337"/>
<text text-anchor="middle" x="253.5" y="-344" font-family="Helvetica,sans-Serif" font-size="10.00">JS_CallConstructorInternal</text>
</a>
</g>
</g>
<!-- Node2&#45;&gt;Node108 -->
<g id="edge21" class="edge">
<title>Node2&#45;&gt;Node108</title>
<path fill="none" stroke="midnightblue" d="M374.48,-371.62C358.41,-366.49 337.77,-360.82 318.15,-356.05"/>
<polygon fill="midnightblue" stroke="midnightblue" points="373.73,-375.06 384.33,-374.91 375.95,-368.42 373.73,-375.06"/>
</g>
<!-- Node122 -->
<g id="node20" class="node">
<title>Node122</title>
<g id="a_node20"><a xlink:href="quickjs_8c.html#a75f6ee5e4235a7dc99889f3d2eb2c147" target="_top" xlink:title=" ">
<polygon fill="none" stroke="red" points="218,-484 218,-503 289,-503 289,-484 218,-484"/>
<text text-anchor="middle" x="253.5" y="-491" font-family="Helvetica,sans-Serif" font-size="10.00">JS_CallFree</text>
</a>
</g>
</g>
<!-- Node2&#45;&gt;Node122 -->
<g id="edge23" class="edge">
<title>Node2&#45;&gt;Node122</title>
<path fill="none" stroke="midnightblue" d="M375.34,-399.68C340.82,-422.63 284.31,-464.66 262.99,-483.94"/>
<polygon fill="midnightblue" stroke="midnightblue" points="377.56,-402.41 384.02,-394.02 373.73,-396.55 377.56,-402.41"/>
</g>
<!-- Node4 -->
<g id="node4" class="node">
<title>Node4</title>
<g id="a_node4"><a xlink:href="quickjs_8c.html#a1bf6b62983e8fff99c0a5d5a9f486115" target="_top" xlink:title=" ">
<polygon fill="none" stroke="red" points="0,-137 0,-156 146,-156 146,-137 0,-137"/>
<text text-anchor="middle" x="73" y="-144" font-family="Helvetica,sans-Serif" font-size="10.00">js_async_function_resume</text>
</a>
</g>
</g>
<!-- Node3&#45;&gt;Node4 -->
<g id="edge3" class="edge">
<title>Node3&#45;&gt;Node4</title>
<path fill="none" stroke="midnightblue" d="M197.63,-120.18C172.32,-125.57 142.65,-131.89 118.72,-136.98"/>
<polygon fill="midnightblue" stroke="midnightblue" points="198.4,-123.59 207.46,-118.09 196.95,-116.75 198.4,-123.59"/>
</g>
<!-- Node12 -->
<g id="node5" class="node">
<title>Node12</title>
<g id="a_node5"><a xlink:href="quickjs_8c.html#ae19867da709929c072f05e90301835a4" target="_top" xlink:title=" ">
<polygon fill="none" stroke="red" points="17.5,-49.5 17.5,-79.5 128.5,-79.5 128.5,-49.5 17.5,-49.5"/>
<text text-anchor="start" x="25.5" y="-67.5" font-family="Helvetica,sans-Serif" font-size="10.00">js_async_generator</text>
<text text-anchor="middle" x="73" y="-56.5" font-family="Helvetica,sans-Serif" font-size="10.00">_function_call</text>
</a>
</g>
</g>
<!-- Node3&#45;&gt;Node12 -->
<g id="edge4" class="edge">
<title>Node3&#45;&gt;Node12</title>
<path fill="none" stroke="midnightblue" d="M203.77,-96.49C180.5,-90.75 152.55,-83.86 128.57,-77.95"/>
<polygon fill="midnightblue" stroke="midnightblue" points="203.22,-99.96 213.77,-98.95 204.9,-93.16 203.22,-99.96"/>
</g>
<!-- Node13 -->
<g id="node6" class="node">
<title>Node13</title>
<g id="a_node6"><a xlink:href="quickjs_8c.html#a89b019c704a2d2914bc30b30a72040b3" target="_top" xlink:title=" ">
<polygon fill="none" stroke="black" points="17.5,-0.5 17.5,-30.5 128.5,-30.5 128.5,-0.5 17.5,-0.5"/>
<text text-anchor="start" x="25.5" y="-18.5" font-family="Helvetica,sans-Serif" font-size="10.00">js_async_generator</text>
<text text-anchor="middle" x="73" y="-7.5" font-family="Helvetica,sans-Serif" font-size="10.00">_resume_next</text>
</a>
</g>
</g>
<!-- Node3&#45;&gt;Node13 -->
<g id="edge5" class="edge">
<title>Node3&#45;&gt;Node13</title>
<path fill="none" stroke="midnightblue" d="M231.91,-92.9C211.11,-77.7 177.62,-54.71 146,-39.5 139.23,-36.24 131.91,-33.25 124.61,-30.56"/>
<polygon fill="midnightblue" stroke="midnightblue" points="229.89,-95.76 240.01,-98.89 234.05,-90.13 229.89,-95.76"/>
</g>
<!-- Node14 -->
<g id="node7" class="node">
<title>Node14</title>
<g id="a_node7"><a xlink:href="quickjs_8c.html#ac90552b1f1659acb3dae9a4c62479a30" target="_top" xlink:title=" ">
<polygon fill="none" stroke="red" points="0.5,-99 0.5,-118 145.5,-118 145.5,-99 0.5,-99"/>
<text text-anchor="middle" x="73" y="-106" font-family="Helvetica,sans-Serif" font-size="10.00">js_generator_function_call</text>
</a>
</g>
</g>
<!-- Node3&#45;&gt;Node14 -->
<g id="edge6" class="edge">
<title>Node3&#45;&gt;Node14</title>
<path fill="none" stroke="midnightblue" d="M186.89,-108.5C173.44,-108.5 159.22,-108.5 145.58,-108.5"/>
<polygon fill="midnightblue" stroke="midnightblue" points="187,-112 197,-108.5 187,-105 187,-112"/>
</g>
<!-- Node22&#45;&gt;Node2 -->
<g id="edge20" class="edge">
<title>Node22&#45;&gt;Node2</title>
<path fill="none" stroke="midnightblue" d="M288.89,-390.29C310.3,-391.43 338,-391.55 360.8,-390.67"/>
<polygon fill="midnightblue" stroke="midnightblue" points="288.84,-386.78 278.63,-389.63 288.39,-393.77 288.84,-386.78"/>
</g>
<!-- Node22&#45;&gt;Node4 -->
<g id="edge17" class="edge">
<title>Node22&#45;&gt;Node4</title>
<path fill="none" stroke="midnightblue" d="M218.09,-382.86C205.08,-380.48 191.2,-375.52 182,-365.5 120.91,-298.98 207.26,-231.86 146,-165.5 142.49,-161.7 138.32,-158.62 133.78,-156.14"/>
<polygon fill="midnightblue" stroke="midnightblue" points="217.85,-386.36 228.24,-384.26 218.81,-379.42 217.85,-386.36"/>
</g>
<!-- Node23 -->
<g id="node9" class="node">
<title>Node23</title>
<g id="a_node9"><a xlink:href="quickjs-libc_8c.html#abb1cbe3fdf905e81f603a3a0bfce475a" target="_top" xlink:title=" ">
<polygon fill="none" stroke="black" points="35,-383 35,-402 111,-402 111,-383 35,-383"/>
<text text-anchor="middle" x="73" y="-390" font-family="Helvetica,sans-Serif" font-size="10.00">call_handler</text>
</a>
</g>
</g>
<!-- Node22&#45;&gt;Node23 -->
<g id="edge8" class="edge">
<title>Node22&#45;&gt;Node23</title>
<path fill="none" stroke="midnightblue" d="M218.2,-386.04C187.48,-387.41 142.53,-389.43 111.01,-390.84"/>
<polygon fill="midnightblue" stroke="midnightblue" points="218.59,-389.52 228.43,-385.58 218.28,-382.53 218.59,-389.52"/>
</g>
<!-- Node24 -->
<g id="node10" class="node">
<title>Node24</title>
<g id="a_node10"><a xlink:href="quickjs-libc_8c.html#a9fa4c190ba56314c7ed9b00bbc7ad0f9" target="_top" xlink:title=" ">
<polygon fill="none" stroke="black" points="4.5,-345 4.5,-364 141.5,-364 141.5,-345 4.5,-345"/>
<text text-anchor="middle" x="73" y="-352" font-family="Helvetica,sans-Serif" font-size="10.00">handle_posted_message</text>
</a>
</g>
</g>
<!-- Node22&#45;&gt;Node24 -->
<g id="edge9" class="edge">
<title>Node22&#45;&gt;Node24</title>
<path fill="none" stroke="midnightblue" d="M218.42,-378.77C193.64,-374.61 159.52,-368.87 130.67,-364.02"/>
<polygon fill="midnightblue" stroke="midnightblue" points="217.98,-382.25 228.43,-380.45 219.15,-375.34 217.98,-382.25"/>
</g>
<!-- Node25 -->
<g id="node11" class="node">
<title>Node25</title>
<g id="a_node11"><a xlink:href="quickjs_8c.html#a624282391413d4c5a030adbd8b77aa80" target="_top" xlink:title=" ">
<polygon fill="none" stroke="red" points="3,-289 3,-308 143,-308 143,-289 3,-289"/>
<text text-anchor="middle" x="73" y="-296" font-family="Helvetica,sans-Serif" font-size="10.00">internalize_json_property</text>
</a>
</g>
</g>
<!-- Node22&#45;&gt;Node25 -->
<g id="edge10" class="edge">
<title>Node22&#45;&gt;Node25</title>
<path fill="none" stroke="midnightblue" d="M218.32,-378.42C206.41,-375.5 193.22,-371.33 182,-365.5 163.52,-355.9 163.37,-347 146,-335.5 129.83,-324.79 110.17,-314.88 95.48,-308.01"/>
<polygon fill="midnightblue" stroke="midnightblue" points="217.85,-381.9 228.38,-380.68 219.39,-375.07 217.85,-381.9"/>
</g>
<!-- Node27 -->
<g id="node12" class="node">
<title>Node27</title>
<g id="a_node12"><a xlink:href="quickjs_8c.html#aa0bbf08a7e91459c68a312fba7016c6d" target="_top" xlink:title=" ">
<polygon fill="none" stroke="black" points="28.5,-251 28.5,-270 117.5,-270 117.5,-251 28.5,-251"/>
<text text-anchor="middle" x="73" y="-258" font-family="Helvetica,sans-Serif" font-size="10.00">js_array_every</text>
</a>
</g>
</g>
<!-- Node22&#45;&gt;Node27 -->
<g id="edge12" class="edge">
<title>Node22&#45;&gt;Node27</title>
<path fill="none" stroke="midnightblue" d="M218.19,-381.59C205.6,-379.01 191.99,-374.24 182,-365.5 150.82,-338.22 177.26,-306.7 146,-279.5 138.1,-272.63 127.99,-268.2 117.86,-265.36"/>
<polygon fill="midnightblue" stroke="midnightblue" points="218,-385.11 228.44,-383.29 219.14,-378.2 218,-385.11"/>
</g>
<!-- Node28 -->
<g id="node13" class="node">
<title>Node28</title>
<g id="a_node13"><a xlink:href="quickjs_8c.html#a9dd41b086da4e13b3487cc9c6e2af2b8" target="_top" xlink:title=" ">
<polygon fill="none" stroke="black" points="33.5,-213 33.5,-232 112.5,-232 112.5,-213 33.5,-213"/>
<text text-anchor="middle" x="73" y="-220" font-family="Helvetica,sans-Serif" font-size="10.00">js_array_find</text>
</a>
</g>
</g>
<!-- Node22&#45;&gt;Node28 -->
<g id="edge13" class="edge">
<title>Node22&#45;&gt;Node28</title>
<path fill="none" stroke="midnightblue" d="M218.32,-382.3C205.46,-379.83 191.64,-374.96 182,-365.5 141.03,-325.32 187.07,-281.58 146,-241.5 137.12,-232.83 124.77,-227.99 112.81,-225.33"/>
<polygon fill="midnightblue" stroke="midnightblue" points="217.92,-385.78 228.33,-383.81 218.96,-378.86 217.92,-385.78"/>
</g>
<!-- Node29 -->
<g id="node14" class="node">
<title>Node29</title>
<g id="a_node14"><a xlink:href="quickjs_8c.html#a5e32da9a43002cb96dcbd62a1a340144" target="_top" xlink:title=" ">
<polygon fill="none" stroke="black" points="31,-175 31,-194 115,-194 115,-175 31,-175"/>
<text text-anchor="middle" x="73" y="-182" font-family="Helvetica,sans-Serif" font-size="10.00">js_array_from</text>
</a>
</g>
</g>
<!-- Node22&#45;&gt;Node29 -->
<g id="edge14" class="edge">
<title>Node22&#45;&gt;Node29</title>
<path fill="none" stroke="midnightblue" d="M218.29,-382.67C205.31,-380.26 191.4,-375.33 182,-365.5 131.02,-312.2 197.12,-256.67 146,-203.5 137.85,-195.02 126.39,-190.17 115.01,-187.44"/>
<polygon fill="midnightblue" stroke="midnightblue" points="218.01,-386.16 228.4,-384.1 219,-379.23 218.01,-386.16"/>
</g>
<!-- Node30 -->
<g id="node15" class="node">
<title>Node30</title>
<g id="a_node15"><a xlink:href="quickjs_8c.html#a36c1692489542a86dd79a7d39ab8ff95" target="_top" xlink:title=" ">
<polygon fill="none" stroke="black" points="26,-559 26,-578 120,-578 120,-559 26,-559"/>
<text text-anchor="middle" x="73" y="-566" font-family="Helvetica,sans-Serif" font-size="10.00">js_array_reduce</text>
</a>
</g>
</g>
<!-- Node22&#45;&gt;Node30 -->
<g id="edge15" class="edge">
<title>Node22&#45;&gt;Node30</title>
<path fill="none" stroke="midnightblue" d="M236.97,-401.93C221.81,-419.47 198.65,-447.7 182,-474.5 162.48,-505.9 174.5,-525.95 146,-549.5 138.63,-555.59 129.5,-559.75 120.25,-562.59"/>
<polygon fill="midnightblue" stroke="midnightblue" points="239.76,-404.06 243.71,-394.23 234.49,-399.45 239.76,-404.06"/>
</g>
<!-- Node31 -->
<g id="node16" class="node">
<title>Node31</title>
<g id="a_node16"><a xlink:href="quickjs_8c.html#aa45afa6d2861615f29444c9614ce766a" target="_top" xlink:title=" ">
<polygon fill="none" stroke="black" points="15.5,-509.5 15.5,-539.5 130.5,-539.5 130.5,-509.5 15.5,-509.5"/>
<text text-anchor="start" x="23.5" y="-527.5" font-family="Helvetica,sans-Serif" font-size="10.00">js_async_from_sync</text>
<text text-anchor="middle" x="73" y="-516.5" font-family="Helvetica,sans-Serif" font-size="10.00">_iterator_next</text>
</a>
</g>
</g>
<!-- Node22&#45;&gt;Node31 -->
<g id="edge16" class="edge">
<title>Node22&#45;&gt;Node31</title>
<path fill="none" stroke="midnightblue" d="M240.19,-402.59C222.24,-427.69 186.57,-472.98 146,-499.5 140.24,-503.26 133.85,-506.53 127.32,-509.35"/>
<polygon fill="midnightblue" stroke="midnightblue" points="243.11,-404.52 245.98,-394.33 237.38,-400.51 243.11,-404.52"/>
</g>
<!-- Node32 -->
<g id="node17" class="node">
<title>Node32</title>
<g id="a_node17"><a xlink:href="quickjs_8c.html#a2355fabf91f59212ea65baba1b0b7c1b" target="_top" xlink:title=" ">
<polygon fill="none" stroke="black" points="4,-471 4,-490 142,-490 142,-471 4,-471"/>
<text text-anchor="middle" x="73" y="-478" font-family="Helvetica,sans-Serif" font-size="10.00">js_async_generator_next</text>
</a>
</g>
</g>
<!-- Node22&#45;&gt;Node32 -->
<g id="edge18" class="edge">
<title>Node22&#45;&gt;Node32</title>
<path fill="none" stroke="midnightblue" d="M234.41,-400.83C214.23,-418.23 179.93,-445.45 146,-461.5 138.05,-465.26 129.25,-468.36 120.6,-470.89"/>
<polygon fill="midnightblue" stroke="midnightblue" points="236.95,-403.26 242.16,-394.03 232.33,-397.99 236.95,-403.26"/>
</g>
<!-- Node33 -->
<g id="node18" class="node">
<title>Node33</title>
<g id="a_node18"><a xlink:href="quickjs_8c.html#a3e852026d167fa03c673f86697dd3e67" target="_top" xlink:title=" ">
<polygon fill="none" stroke="red" points="17.5,-421.5 17.5,-451.5 128.5,-451.5 128.5,-421.5 17.5,-421.5"/>
<text text-anchor="start" x="25.5" y="-439.5" font-family="Helvetica,sans-Serif" font-size="10.00">js_async_generator</text>
<text text-anchor="middle" x="73" y="-428.5" font-family="Helvetica,sans-Serif" font-size="10.00">_resolve_or_reject</text>
</a>
</g>
</g>
<!-- Node22&#45;&gt;Node33 -->
<g id="edge19" class="edge">
<title>Node22&#45;&gt;Node33</title>
<path fill="none" stroke="midnightblue" d="M218.59,-394.38C192.39,-402.01 155.68,-412.7 125.81,-421.41"/>
<polygon fill="midnightblue" stroke="midnightblue" points="219.8,-397.67 228.43,-391.51 217.85,-390.95 219.8,-397.67"/>
</g>
<!-- Node25&#45;&gt;Node25 -->
<g id="edge11" class="edge">
<title>Node25&#45;&gt;Node25</title>
<path fill="none" stroke="midnightblue" d="M106.73,-316.39C106.24,-322.04 94.99,-326.5 73,-326.5 41.01,-326.5 31.76,-317.07 45.26,-308.26"/>
<polygon fill="midnightblue" stroke="midnightblue" points="109.49,-314.23 100.74,-308.26 103.85,-318.38 109.49,-314.23"/>
</g>
<!-- Node108&#45;&gt;Node2 -->
<g id="edge22" class="edge">
<title>Node108&#45;&gt;Node2</title>
<path fill="none" stroke="midnightblue" d="M283.44,-359.35C305.43,-366.39 336.01,-374.42 360.8,-379.78"/>
<polygon fill="midnightblue" stroke="midnightblue" points="284.29,-355.95 273.7,-356.1 282.07,-362.59 284.29,-355.95"/>
</g>
<!-- Node122&#45;&gt;Node2 -->
<g id="edge24" class="edge">
<title>Node122&#45;&gt;Node2</title>
<path fill="none" stroke="midnightblue" d="M282.78,-478.24C317.33,-455.26 373.81,-413.25 395.06,-394.01"/>
<polygon fill="midnightblue" stroke="midnightblue" points="280.55,-475.52 274.08,-483.91 284.37,-481.38 280.55,-475.52"/>
</g>
<!-- Node122&#45;&gt;Node598 -->
<g id="edge25" class="edge">
<title>Node122&#45;&gt;Node598</title>
<path fill="none" stroke="midnightblue" d="M242.41,-511.97C225.92,-540.46 190.55,-594.99 146,-625.5 137.56,-631.28 127.57,-635.68 117.77,-638.99"/>
<polygon fill="midnightblue" stroke="midnightblue" points="245.57,-513.5 247.43,-503.07 239.47,-510.06 245.57,-513.5"/>
</g>
<!-- Node122&#45;&gt;Node605 -->
<g id="edge27" class="edge">
<title>Node122&#45;&gt;Node605</title>
<path fill="none" stroke="midnightblue" d="M237.76,-510.71C218.69,-531.89 183.45,-567.5 146,-587.5 138.82,-591.34 130.81,-594.44 122.82,-596.93"/>
<polygon fill="midnightblue" stroke="midnightblue" points="240.48,-512.92 244.47,-503.11 235.23,-508.29 240.48,-512.92"/>
</g>
<!-- Node598&#45;&gt;Node1 -->
<g id="edge26" class="edge">
<title>Node598&#45;&gt;Node1</title>
<path fill="none" stroke="midnightblue" d="M151.55,-655.66C218.32,-657.5 317.26,-657.5 403.5,-657.5 559.5,-657.5 559.5,-657.5 559.5,-657.5 675.29,-657.5 710.23,-642.93 809,-582.5 845.71,-560.04 877.23,-517.3 887.76,-497.24"/>
<polygon fill="midnightblue" stroke="midnightblue" points="151.62,-652.16 141.52,-655.36 151.41,-659.16 151.62,-652.16"/>
</g>
<!-- Node128 -->
<g id="node24" class="node">
<title>Node128</title>
<g id="a_node24"><a xlink:href="quickjs_8c.html#aa40a5354bee3b56e05a71244910bcc78" target="_top" xlink:title=" ">
<polygon fill="none" stroke="red" points="501,-402 501,-421 616,-421 616,-402 501,-402"/>
<text text-anchor="middle" x="558.5" y="-409" font-family="Helvetica,sans-Serif" font-size="10.00">build_for_in_iterator</text>
</a>
</g>
</g>
<!-- Node611&#45;&gt;Node128 -->
<g id="edge30" class="edge">
<title>Node611&#45;&gt;Node128</title>
<path fill="none" stroke="midnightblue" d="M714.52,-472.58C693.75,-459.92 662.29,-442.03 633,-430.5 623.68,-426.83 613.42,-423.66 603.59,-421.03"/>
<polygon fill="midnightblue" stroke="midnightblue" points="712.91,-475.7 723.26,-477.99 716.6,-469.75 712.91,-475.7"/>
</g>
<!-- Node309 -->
<g id="node25" class="node">
<title>Node309</title>
<g id="a_node25"><a xlink:href="quickjs_8c.html#a26abea9136a3d8e9a861aefb51626b4e" target="_top" xlink:title=" ">
<polygon fill="none" stroke="black" points="484,-516 484,-535 633,-535 633,-516 484,-516"/>
<text text-anchor="middle" x="558.5" y="-523" font-family="Helvetica,sans-Serif" font-size="10.00">js_object___lookupGetter__</text>
</a>
</g>
</g>
<!-- Node611&#45;&gt;Node309 -->
<g id="edge31" class="edge">
<title>Node611&#45;&gt;Node309</title>
<path fill="none" stroke="midnightblue" d="M683.13,-499.18C657.82,-504.57 628.15,-510.89 604.22,-515.98"/>
<polygon fill="midnightblue" stroke="midnightblue" points="683.9,-502.59 692.96,-497.09 682.45,-495.75 683.9,-502.59"/>
</g>
<!-- Node313 -->
<g id="node26" class="node">
<title>Node313</title>
<g id="a_node26"><a xlink:href="quickjs_8c.html#a04be55d1144f71bce472514bd31f0796" target="_top" xlink:title=" ">
<polygon fill="none" stroke="black" points="492.5,-478 492.5,-497 624.5,-497 624.5,-478 492.5,-478"/>
<text text-anchor="middle" x="558.5" y="-485" font-family="Helvetica,sans-Serif" font-size="10.00">js_object_isPrototypeOf</text>
</a>
</g>
</g>
<!-- Node611&#45;&gt;Node313 -->
<g id="edge32" class="edge">
<title>Node611&#45;&gt;Node313</title>
<path fill="none" stroke="midnightblue" d="M670.32,-487.5C655.34,-487.5 639.49,-487.5 624.6,-487.5"/>
<polygon fill="midnightblue" stroke="midnightblue" points="670.54,-491 680.54,-487.5 670.54,-484 670.54,-491"/>
</g>
<!-- Node407 -->
<g id="node27" class="node">
<title>Node407</title>
<g id="a_node27"><a xlink:href="quickjs_8c.html#aa0b5c1a59ff4832154e2a98d7c63a4b2" target="_top" xlink:title=" ">
<polygon fill="none" stroke="red" points="491.5,-440 491.5,-459 625.5,-459 625.5,-440 491.5,-440"/>
<text text-anchor="middle" x="558.5" y="-447" font-family="Helvetica,sans-Serif" font-size="10.00">JS_OrdinaryIsInstanceOf</text>
</a>
</g>
</g>
<!-- Node611&#45;&gt;Node407 -->
<g id="edge33" class="edge">
<title>Node611&#45;&gt;Node407</title>
<path fill="none" stroke="midnightblue" d="M683.13,-475.82C657.82,-470.43 628.15,-464.11 604.22,-459.02"/>
<polygon fill="midnightblue" stroke="midnightblue" points="682.45,-479.25 692.96,-477.91 683.9,-472.41 682.45,-479.25"/>
</g>
<!-- Node124 -->
<g id="node28" class="node">
<title>Node124</title>
<g id="a_node28"><a xlink:href="quickjs_8c.html#a3d5eeb3c1fed80d35e4e9e14b9cb15b8" target="_top" xlink:title=" ">
<polygon fill="none" stroke="red" points="496,-554 496,-573 621,-573 621,-554 496,-554"/>
<text text-anchor="middle" x="558.5" y="-561" font-family="Helvetica,sans-Serif" font-size="10.00">JS_SetPropertyGeneric</text>
</a>
</g>
</g>
<!-- Node611&#45;&gt;Node124 -->
<g id="edge34" class="edge">
<title>Node611&#45;&gt;Node124</title>
<path fill="none" stroke="midnightblue" d="M714.52,-502.42C693.75,-515.08 662.29,-532.97 633,-544.5 623.68,-548.17 613.42,-551.34 603.59,-553.97"/>
<polygon fill="midnightblue" stroke="midnightblue" points="716.6,-505.25 723.26,-497.01 712.91,-499.3 716.6,-505.25"/>
</g>
<!-- Node124&#45;&gt;Node2 -->
<g id="edge35" class="edge">
<title>Node124&#45;&gt;Node2</title>
<path fill="none" stroke="midnightblue" d="M490.53,-549.1C488.24,-547.71 486.06,-546.18 484,-544.5 433.63,-503.45 413.08,-422.08 407.31,-394.17"/>
<polygon fill="midnightblue" stroke="midnightblue" points="489.26,-552.39 499.75,-553.85 492.47,-546.16 489.26,-552.39"/>
</g>
</g>
</svg>
        <g id="navigator" transform="translate(0 0)" fill="#404254">
                <rect fill="#f2f5e9" fill-opacity="0.5" stroke="#606060" stroke-width=".5" x="0" y="0" width="60" height="60"/>
                <use id="zoomplus" xlink:href="#zoomPlus" x="17" y="9" onmousedown="handleZoom(evt,'in')"/>
                <use id="zoomminus" xlink:href="#zoomMin" x="42" y="9" onmousedown="handleZoom(evt,'out')"/>
                <use id="reset" xlink:href="#resetDef" x="30" y="36" onmousedown="handleReset()"/>
                <g id="arrowUp" xlink:href="#dirArrow" transform="translate(30 24)" onmousedown="handlePan(0,-1)">
                  <use xlink:href="#rim" fill="#404040">
                        <set attributeName="fill" to="#808080" begin="arrowUp.mouseover" end="arrowUp.mouseout"/>
                  </use>
                  <path fill="none" stroke="white" stroke-width="1.5" d="M0,-3.0v7 M-2.5,-0.5L0,-3.0L2.5,-0.5"/>
                </g>
                <g id="arrowRight" xlink:href="#dirArrow" transform="rotate(90) translate(36 -43)" onmousedown="handlePan(1,0)">
                  <use xlink:href="#rim" fill="#404040">
                        <set attributeName="fill" to="#808080" begin="arrowRight.mouseover" end="arrowRight.mouseout"/>
                  </use>
                  <path fill="none" stroke="white" stroke-width="1.5" d="M0,-3.0v7 M-2.5,-0.5L0,-3.0L2.5,-0.5"/>
                </g>
                <g id="arrowDown" xlink:href="#dirArrow" transform="rotate(180) translate(-30 -48)" onmousedown="handlePan(0,1)">
                  <use xlink:href="#rim" fill="#404040">
                        <set attributeName="fill" to="#808080" begin="arrowDown.mouseover" end="arrowDown.mouseout"/>
                  </use>
                  <path fill="none" stroke="white" stroke-width="1.5" d="M0,-3.0v7 M-2.5,-0.5L0,-3.0L2.5,-0.5"/>
                </g>
                <g id="arrowLeft" xlink:href="#dirArrow" transform="rotate(270) translate(-36 17)" onmousedown="handlePan(-1,0)">
                  <use xlink:href="#rim" fill="#404040">
                        <set attributeName="fill" to="#808080" begin="arrowLeft.mouseover" end="arrowLeft.mouseout"/>
                  </use>
                  <path fill="none" stroke="white" stroke-width="1.5" d="M0,-3.0v7 M-2.5,-0.5L0,-3.0L2.5,-0.5"/>
                </g>
        </g>
        <svg viewBox="0 0 15 15" width="100%" height="30px" preserveAspectRatio="xMaxYMin meet">
         <g id="arrow_out" transform="scale(0.3 0.3)">
          <a xlink:href="quickjs_8c_ad56da91bca3e6259b73d5148126b5099_icgraph_org.svg" target="_base">
           <rect id="button" ry="5" rx="5" y="6" x="6" height="38" width="38"
                fill="#f2f5e9" fill-opacity="0.5" stroke="#606060" stroke-width="1.0"/>
           <path id="arrow"
             d="M 11.500037,31.436501 C 11.940474,20.09759 22.043105,11.32322 32.158766,21.979434 L 37.068811,17.246167 C 37.068811,17.246167 37.088388,32 37.088388,32 L 22.160133,31.978069 C 22.160133,31.978069 26.997745,27.140456 26.997745,27.140456 C 18.528582,18.264221 13.291696,25.230495 11.500037,31.436501 z"
             style="fill:#404040;"/>
          </a>
         </g>
        </svg>
</svg>
