<?xml version="1.0" encoding="UTF-8" standalone="no"?>
<!DOCTYPE svg PUBLIC "-//W3C//DTD SVG 1.1//EN"
 "http://www.w3.org/Graphics/SVG/1.1/DTD/svg11.dtd">
<!-- Generated by graphviz version 2.43.0 (0)
 -->
<!-- Title: js_string_split Pages: 1 -->
<svg width="882pt" height="1007pt"
 viewBox="0.00 0.00 882.00 1006.67" xmlns="http://www.w3.org/2000/svg" xmlns:xlink="http://www.w3.org/1999/xlink">
<g id="graph0" class="graph" transform="scale(1 1) rotate(0) translate(4 1002.67)">
<title>js_string_split</title>
<!-- Node1 -->
<g id="node1" class="node">
<title>Node1</title>
<g id="a_node1"><a xlink:title=" ">
<polygon fill="#bfbfbf" stroke="black" points="0,-323.5 0,-342.5 84,-342.5 84,-323.5 0,-323.5"/>
<text text-anchor="middle" x="42" y="-330.5" font-family="Helvetica,sans-Serif" font-size="10.00">js_string_split</text>
</a>
</g>
</g>
<!-- Node2 -->
<g id="node2" class="node">
<title>Node2</title>
<g id="a_node2"><a xlink:href="quickjs_8c.html#a75f6ee5e4235a7dc99889f3d2eb2c147" target="_top" xlink:title=" ">
<polygon fill="none" stroke="black" points="127.5,-608.5 127.5,-627.5 198.5,-627.5 198.5,-608.5 127.5,-608.5"/>
<text text-anchor="middle" x="163" y="-615.5" font-family="Helvetica,sans-Serif" font-size="10.00">JS_CallFree</text>
</a>
</g>
</g>
<!-- Node1&#45;&gt;Node2 -->
<g id="edge1" class="edge">
<title>Node1&#45;&gt;Node2</title>
<path fill="none" stroke="midnightblue" d="M47.1,-342.81C64.3,-384.01 130.86,-543.43 154.01,-598.87"/>
<polygon fill="midnightblue" stroke="midnightblue" points="150.84,-600.35 157.92,-608.23 157.3,-597.65 150.84,-600.35"/>
</g>
<!-- Node75 -->
<g id="node10" class="node">
<title>Node75</title>
<g id="a_node10"><a xlink:href="quickjs_8h.html#ad80a83d73e9b7d872b88fbf2943aebe9" target="_top" xlink:title=" ">
<polygon fill="none" stroke="black" points="652,-418.5 652,-437.5 739,-437.5 739,-418.5 652,-418.5"/>
<text text-anchor="middle" x="695.5" y="-425.5" font-family="Helvetica,sans-Serif" font-size="10.00">JS_IsException</text>
</a>
</g>
</g>
<!-- Node1&#45;&gt;Node75 -->
<g id="edge35" class="edge">
<title>Node1&#45;&gt;Node75</title>
<path fill="none" stroke="midnightblue" d="M66.24,-323.44C145.53,-292.41 410.79,-201.7 596,-295 643.52,-318.94 673.83,-377.83 686.96,-408.59"/>
<polygon fill="midnightblue" stroke="midnightblue" points="683.87,-410.26 690.89,-418.19 690.34,-407.61 683.87,-410.26"/>
</g>
<!-- Node57 -->
<g id="node14" class="node">
<title>Node57</title>
<g id="a_node14"><a xlink:href="quickjs_8h.html#afaa20c47565bc704c6c85f3d77254e7d" target="_top" xlink:title=" ">
<polygon fill="none" stroke="red" points="795,-912.5 795,-931.5 874,-931.5 874,-912.5 795,-912.5"/>
<text text-anchor="middle" x="834.5" y="-919.5" font-family="Helvetica,sans-Serif" font-size="10.00">JS_FreeValue</text>
</a>
</g>
</g>
<!-- Node1&#45;&gt;Node57 -->
<g id="edge33" class="edge">
<title>Node1&#45;&gt;Node57</title>
<path fill="none" stroke="midnightblue" d="M42.9,-342.56C42.33,-412.05 42.08,-839.53 120,-936 178.75,-1008.72 227.51,-998 321,-998 321,-998 321,-998 518,-998 626.65,-998 655.33,-989.51 759,-957 775.73,-951.75 793.53,-943.5 807.54,-936.32"/>
<polygon fill="midnightblue" stroke="midnightblue" points="809.35,-939.33 816.57,-931.58 806.09,-933.13 809.35,-939.33"/>
</g>
<!-- Node68 -->
<g id="node15" class="node">
<title>Node68</title>
<g id="a_node15"><a xlink:href="quickjs_8h.html#a89b7c8686c7eee70b86be722ee4730ad" target="_top" xlink:title=" ">
<polygon fill="none" stroke="black" points="472.5,-836.5 472.5,-855.5 561.5,-855.5 561.5,-836.5 472.5,-836.5"/>
<text text-anchor="middle" x="517" y="-843.5" font-family="Helvetica,sans-Serif" font-size="10.00">JS_GetProperty</text>
</a>
</g>
</g>
<!-- Node1&#45;&gt;Node68 -->
<g id="edge34" class="edge">
<title>Node1&#45;&gt;Node68</title>
<path fill="none" stroke="midnightblue" d="M42.84,-342.57C42.65,-382.84 46.78,-540.83 120,-637 208.1,-752.72 378.94,-810.93 464.52,-833.88"/>
<polygon fill="midnightblue" stroke="midnightblue" points="463.71,-837.28 474.28,-836.44 465.49,-830.51 463.71,-837.28"/>
</g>
<!-- Node125 -->
<g id="node17" class="node">
<title>Node125</title>
<g id="a_node17"><a xlink:href="quickjs_8h.html#a149f24b67e745bad93573b3b4c80db4c" target="_top" xlink:title=" ">
<polygon fill="none" stroke="black" points="487.5,-380.5 487.5,-399.5 546.5,-399.5 546.5,-380.5 487.5,-380.5"/>
<text text-anchor="middle" x="517" y="-387.5" font-family="Helvetica,sans-Serif" font-size="10.00">JS_IsNull</text>
</a>
</g>
</g>
<!-- Node1&#45;&gt;Node125 -->
<g id="edge36" class="edge">
<title>Node1&#45;&gt;Node125</title>
<path fill="none" stroke="midnightblue" d="M79.23,-342.5C92.04,-345.59 106.59,-348.78 120,-351 249.66,-372.44 405.29,-383.55 476.7,-387.85"/>
<polygon fill="midnightblue" stroke="midnightblue" points="476.82,-391.36 487.01,-388.45 477.23,-384.37 476.82,-391.36"/>
</g>
<!-- Node126 -->
<g id="node18" class="node">
<title>Node126</title>
<g id="a_node18"><a xlink:href="quickjs_8h.html#a4e407128a9605afb77523e49e9a627fd" target="_top" xlink:title=" ">
<polygon fill="none" stroke="black" points="472.5,-342.5 472.5,-361.5 561.5,-361.5 561.5,-342.5 472.5,-342.5"/>
<text text-anchor="middle" x="517" y="-349.5" font-family="Helvetica,sans-Serif" font-size="10.00">JS_IsUndefined</text>
</a>
</g>
</g>
<!-- Node1&#45;&gt;Node126 -->
<g id="edge37" class="edge">
<title>Node1&#45;&gt;Node126</title>
<path fill="none" stroke="midnightblue" d="M84.15,-334.65C169.7,-338.09 366.72,-346 462.19,-349.84"/>
<polygon fill="midnightblue" stroke="midnightblue" points="462.08,-353.34 472.22,-350.24 462.36,-346.34 462.08,-353.34"/>
</g>
<!-- Node272 -->
<g id="node19" class="node">
<title>Node272</title>
<g id="a_node19"><a xlink:href="quickjs_8c.html#ad4ba09e4c7ab9f28c144182e1aacf1f6" target="_top" xlink:title=" ">
<polygon fill="none" stroke="red" points="477.5,-304.5 477.5,-323.5 556.5,-323.5 556.5,-304.5 477.5,-304.5"/>
<text text-anchor="middle" x="517" y="-311.5" font-family="Helvetica,sans-Serif" font-size="10.00">JS_NewArray</text>
</a>
</g>
</g>
<!-- Node1&#45;&gt;Node272 -->
<g id="edge38" class="edge">
<title>Node1&#45;&gt;Node272</title>
<path fill="none" stroke="midnightblue" d="M84.15,-331.35C171.24,-327.85 373.84,-319.71 467.24,-315.96"/>
<polygon fill="midnightblue" stroke="midnightblue" points="467.43,-319.45 477.28,-315.56 467.14,-312.46 467.43,-319.45"/>
</g>
<!-- Node269 -->
<g id="node20" class="node">
<title>Node269</title>
<g id="a_node20"><a xlink:href="quickjs_8c.html#aa44ddb5f94a842c9c5152a17032de580" target="_top" xlink:title=" ">
<polygon fill="none" stroke="red" points="242,-950.5 242,-969.5 402,-969.5 402,-950.5 242,-950.5"/>
<text text-anchor="middle" x="322" y="-957.5" font-family="Helvetica,sans-Serif" font-size="10.00">JS_CreateDataPropertyUint32</text>
</a>
</g>
</g>
<!-- Node1&#45;&gt;Node269 -->
<g id="edge31" class="edge">
<title>Node1&#45;&gt;Node269</title>
<path fill="none" stroke="midnightblue" d="M42.95,-342.84C42.81,-410.74 45.19,-809.57 120,-898 147.56,-930.58 191.84,-946.33 231.83,-953.83"/>
<polygon fill="midnightblue" stroke="midnightblue" points="231.44,-957.32 241.89,-955.57 232.63,-950.42 231.44,-957.32"/>
</g>
<!-- Node437 -->
<g id="node21" class="node">
<title>Node437</title>
<g id="a_node21"><a xlink:href="quickjs_8c.html#a011157b8ff30c8418be989eadf509c92" target="_top" xlink:title=" ">
<polygon fill="none" stroke="black" points="123,-228.5 123,-247.5 203,-247.5 203,-228.5 123,-228.5"/>
<text text-anchor="middle" x="163" y="-235.5" font-family="Helvetica,sans-Serif" font-size="10.00">js_sub_string</text>
</a>
</g>
</g>
<!-- Node1&#45;&gt;Node437 -->
<g id="edge39" class="edge">
<title>Node1&#45;&gt;Node437</title>
<path fill="none" stroke="midnightblue" d="M52.35,-323.06C66.25,-308.58 93.59,-281.34 120,-262 124.38,-258.8 129.22,-255.68 134.01,-252.81"/>
<polygon fill="midnightblue" stroke="midnightblue" points="136.1,-255.65 143.04,-247.65 132.62,-249.58 136.1,-255.65"/>
</g>
<!-- Node96 -->
<g id="node25" class="node">
<title>Node96</title>
<g id="a_node25"><a xlink:href="quickjs_8c.html#a7bcb8e1a20cbc8374a5f9ba4a2088cec" target="_top" xlink:title=" ">
<polygon fill="none" stroke="red" points="128,-190.5 128,-209.5 198,-209.5 198,-190.5 128,-190.5"/>
<text text-anchor="middle" x="163" y="-197.5" font-family="Helvetica,sans-Serif" font-size="10.00">JS_ToString</text>
</a>
</g>
</g>
<!-- Node1&#45;&gt;Node96 -->
<g id="edge46" class="edge">
<title>Node1&#45;&gt;Node96</title>
<path fill="none" stroke="midnightblue" d="M47.2,-323.44C57.03,-302.06 83.49,-249.8 120,-219 121.79,-217.49 123.72,-216.08 125.73,-214.76"/>
<polygon fill="midnightblue" stroke="midnightblue" points="127.93,-217.54 134.92,-209.58 124.49,-211.44 127.93,-217.54"/>
</g>
<!-- Node224 -->
<g id="node26" class="node">
<title>Node224</title>
<g id="a_node26"><a xlink:href="quickjs_8h.html#aa032ee323127468119b3dd2bb1452680" target="_top" xlink:title=" ">
<polygon fill="none" stroke="red" points="126,-152.5 126,-171.5 200,-171.5 200,-152.5 126,-152.5"/>
<text text-anchor="middle" x="163" y="-159.5" font-family="Helvetica,sans-Serif" font-size="10.00">JS_ToUint32</text>
</a>
</g>
</g>
<!-- Node1&#45;&gt;Node224 -->
<g id="edge47" class="edge">
<title>Node1&#45;&gt;Node224</title>
<path fill="none" stroke="midnightblue" d="M45.42,-323.46C52.5,-297.3 75.54,-223.54 120,-181 121.47,-179.59 123.07,-178.27 124.75,-177.04"/>
<polygon fill="midnightblue" stroke="midnightblue" points="126.96,-179.8 133.68,-171.6 123.32,-173.82 126.96,-179.8"/>
</g>
<!-- Node438 -->
<g id="node27" class="node">
<title>Node438</title>
<g id="a_node27"><a xlink:href="quickjs_8c.html#a66a97bf569ad46f27c410b7f92ad8a98" target="_top" xlink:title=" ">
<polygon fill="none" stroke="black" points="120,-57.5 120,-76.5 206,-76.5 206,-57.5 120,-57.5"/>
<text text-anchor="middle" x="163" y="-64.5" font-family="Helvetica,sans-Serif" font-size="10.00">string_indexof</text>
</a>
</g>
</g>
<!-- Node1&#45;&gt;Node438 -->
<g id="edge48" class="edge">
<title>Node1&#45;&gt;Node438</title>
<path fill="none" stroke="midnightblue" d="M46.45,-323.34C56.62,-295.1 87.83,-210.47 120,-143 129.58,-122.91 142.08,-100.71 150.95,-85.52"/>
<polygon fill="midnightblue" stroke="midnightblue" points="154.12,-87.03 156.18,-76.64 148.09,-83.48 154.12,-87.03"/>
</g>
<!-- Node3 -->
<g id="node3" class="node">
<title>Node3</title>
<g id="a_node3"><a xlink:href="quickjs_8c.html#ac2894ff4edcdb4e6841bcce9c76081e3" target="_top" xlink:title=" ">
<polygon fill="none" stroke="red" points="278.5,-608.5 278.5,-627.5 365.5,-627.5 365.5,-608.5 278.5,-608.5"/>
<text text-anchor="middle" x="322" y="-615.5" font-family="Helvetica,sans-Serif" font-size="10.00">JS_CallInternal</text>
</a>
</g>
</g>
<!-- Node2&#45;&gt;Node3 -->
<g id="edge2" class="edge">
<title>Node2&#45;&gt;Node3</title>
<path fill="none" stroke="midnightblue" d="M198.84,-612.28C219.21,-611.2 245.33,-610.97 268.18,-611.58"/>
<polygon fill="midnightblue" stroke="midnightblue" points="268.31,-615.09 278.42,-611.92 268.54,-608.09 268.31,-615.09"/>
</g>
<!-- Node2&#45;&gt;Node57 -->
<g id="edge30" class="edge">
<title>Node2&#45;&gt;Node57</title>
<path fill="none" stroke="midnightblue" d="M165.65,-627.51C171.17,-656.64 191.57,-745.8 242,-797 390.37,-947.66 671.53,-938.61 784.6,-927.91"/>
<polygon fill="midnightblue" stroke="midnightblue" points="785.08,-931.38 794.69,-926.91 784.39,-924.41 785.08,-931.38"/>
</g>
<!-- Node3&#45;&gt;Node2 -->
<g id="edge14" class="edge">
<title>Node3&#45;&gt;Node2</title>
<path fill="none" stroke="midnightblue" d="M278.42,-624.08C256.88,-624.94 230.73,-624.97 208.87,-624.17"/>
<polygon fill="midnightblue" stroke="midnightblue" points="208.99,-620.67 198.84,-623.72 208.68,-627.66 208.99,-620.67"/>
</g>
<!-- Node3&#45;&gt;Node3 -->
<g id="edge15" class="edge">
<title>Node3&#45;&gt;Node3</title>
<path fill="none" stroke="midnightblue" d="M297.65,-627.76C285.8,-636.57 293.92,-646 322,-646 340.43,-646 350.26,-641.94 351.49,-636.65"/>
<polygon fill="midnightblue" stroke="midnightblue" points="354.39,-634.66 346.35,-627.76 348.32,-638.17 354.39,-634.66"/>
</g>
<!-- Node4 -->
<g id="node4" class="node">
<title>Node4</title>
<g id="a_node4"><a xlink:href="quickjs_8c.html#a853f0924d441ea4225488f37c8b69f9a" target="_top" xlink:title=" ">
<polygon fill="none" stroke="black" points="655.5,-570.5 655.5,-589.5 735.5,-589.5 735.5,-570.5 655.5,-570.5"/>
<text text-anchor="middle" x="695.5" y="-577.5" font-family="Helvetica,sans-Serif" font-size="10.00">__attribute__</text>
</a>
</g>
</g>
<!-- Node3&#45;&gt;Node4 -->
<g id="edge3" class="edge">
<title>Node3&#45;&gt;Node4</title>
<path fill="none" stroke="midnightblue" d="M365.74,-610C387.34,-606.2 413.99,-601.87 438,-599 509.76,-590.43 593.31,-585.1 645.06,-582.34"/>
<polygon fill="midnightblue" stroke="midnightblue" points="645.48,-585.83 655.28,-581.81 645.12,-578.83 645.48,-585.83"/>
</g>
<!-- Node5 -->
<g id="node5" class="node">
<title>Node5</title>
<g id="a_node5"><a xlink:href="quickjs_8c.html#a877fcb7651d95b411ce70e62b7f4a1f0" target="_top" xlink:title=" ">
<polygon fill="none" stroke="black" points="454.5,-722.5 454.5,-741.5 579.5,-741.5 579.5,-722.5 454.5,-722.5"/>
<text text-anchor="middle" x="517" y="-729.5" font-family="Helvetica,sans-Serif" font-size="10.00">__JS_AtomFromUInt32</text>
</a>
</g>
</g>
<!-- Node3&#45;&gt;Node5 -->
<g id="edge4" class="edge">
<title>Node3&#45;&gt;Node5</title>
<path fill="none" stroke="midnightblue" d="M331.79,-627.76C349.76,-647.09 392.86,-690.37 438,-713 442.83,-715.42 447.98,-717.54 453.25,-719.4"/>
<polygon fill="midnightblue" stroke="midnightblue" points="452.23,-722.75 462.82,-722.48 454.37,-716.09 452.23,-722.75"/>
</g>
<!-- Node6 -->
<g id="node6" class="node">
<title>Node6</title>
<g id="a_node6"><a xlink:href="quickjs_8h.html#a9bf98b18de88b4199910a43e933eb97d" target="_top" xlink:title=" ">
<polygon fill="none" stroke="black" points="467,-684.5 467,-703.5 567,-703.5 567,-684.5 467,-684.5"/>
<text text-anchor="middle" x="517" y="-691.5" font-family="Helvetica,sans-Serif" font-size="10.00">__JS_NewFloat64</text>
</a>
</g>
</g>
<!-- Node3&#45;&gt;Node6 -->
<g id="edge5" class="edge">
<title>Node3&#45;&gt;Node6</title>
<path fill="none" stroke="midnightblue" d="M339.63,-627.71C361.54,-640.16 401.57,-661.72 438,-675 444.84,-677.49 452.14,-679.76 459.42,-681.79"/>
<polygon fill="midnightblue" stroke="midnightblue" points="458.74,-685.23 469.3,-684.41 460.53,-678.46 458.74,-685.23"/>
</g>
<!-- Node7 -->
<g id="node7" class="node">
<title>Node7</title>
<g id="a_node7"><a xlink:href="quickjs_8c.html#a74547db03bf739a52c83a326b32db997" target="_top" xlink:title=" ">
<polygon fill="none" stroke="red" points="476.5,-646.5 476.5,-665.5 557.5,-665.5 557.5,-646.5 476.5,-646.5"/>
<text text-anchor="middle" x="517" y="-653.5" font-family="Helvetica,sans-Serif" font-size="10.00">add_property</text>
</a>
</g>
</g>
<!-- Node3&#45;&gt;Node7 -->
<g id="edge6" class="edge">
<title>Node3&#45;&gt;Node7</title>
<path fill="none" stroke="midnightblue" d="M365.83,-626.43C395.47,-632.27 435,-640.05 466.06,-646.17"/>
<polygon fill="midnightblue" stroke="midnightblue" points="465.76,-649.68 476.25,-648.17 467.11,-642.81 465.76,-649.68"/>
</g>
<!-- Node65 -->
<g id="node8" class="node">
<title>Node65</title>
<g id="a_node8"><a xlink:href="quickjs_8c.html#a4956f45ffd2849b96dc051277264f87a" target="_top" xlink:title=" ">
<polygon fill="none" stroke="red" points="476,-532.5 476,-551.5 558,-551.5 558,-532.5 476,-532.5"/>
<text text-anchor="middle" x="517" y="-539.5" font-family="Helvetica,sans-Serif" font-size="10.00">build_arg_list</text>
</a>
</g>
</g>
<!-- Node3&#45;&gt;Node65 -->
<g id="edge7" class="edge">
<title>Node3&#45;&gt;Node65</title>
<path fill="none" stroke="midnightblue" d="M342.22,-608.41C364.8,-597.35 403.57,-579.02 438,-566 448.86,-561.89 460.77,-557.95 471.94,-554.5"/>
<polygon fill="midnightblue" stroke="midnightblue" points="472.96,-557.84 481.51,-551.59 470.93,-551.14 472.96,-557.84"/>
</g>
<!-- Node36 -->
<g id="node9" class="node">
<title>Node36</title>
<g id="a_node9"><a xlink:href="quickjs_8h.html#a775522f2d084fc8fa0fcb33f390006b4" target="_top" xlink:title=" ">
<polygon fill="none" stroke="black" points="796,-494.5 796,-513.5 873,-513.5 873,-494.5 796,-494.5"/>
<text text-anchor="middle" x="834.5" y="-501.5" font-family="Helvetica,sans-Serif" font-size="10.00">JS_DupValue</text>
</a>
</g>
</g>
<!-- Node3&#45;&gt;Node36 -->
<g id="edge18" class="edge">
<title>Node3&#45;&gt;Node36</title>
<path fill="none" stroke="midnightblue" d="M328.14,-608.48C342.01,-583.92 382.89,-518.55 438,-493 557.19,-437.74 719.03,-471.19 793.27,-491.64"/>
<polygon fill="midnightblue" stroke="midnightblue" points="792.58,-495.08 803.15,-494.43 794.48,-488.35 792.58,-495.08"/>
</g>
<!-- Node3&#45;&gt;Node75 -->
<g id="edge26" class="edge">
<title>Node3&#45;&gt;Node75</title>
<path fill="none" stroke="midnightblue" d="M326.34,-608.3C337.08,-578.74 373.84,-489.52 438,-452 500.57,-415.41 586.71,-415.53 641.5,-420.54"/>
<polygon fill="midnightblue" stroke="midnightblue" points="641.39,-424.05 651.69,-421.56 642.09,-417.08 641.39,-424.05"/>
</g>
<!-- Node160 -->
<g id="node11" class="node">
<title>Node160</title>
<g id="a_node11"><a xlink:href="quickjs_8c.html#a61c8dfb5e807af1b6ff7d8ca61576dda" target="_top" xlink:title=" ">
<polygon fill="none" stroke="red" points="470,-608.5 470,-627.5 564,-627.5 564,-608.5 470,-608.5"/>
<text text-anchor="middle" x="517" y="-615.5" font-family="Helvetica,sans-Serif" font-size="10.00">build_backtrace</text>
</a>
</g>
</g>
<!-- Node3&#45;&gt;Node160 -->
<g id="edge11" class="edge">
<title>Node3&#45;&gt;Node160</title>
<path fill="none" stroke="midnightblue" d="M365.83,-618C393.45,-618 429.66,-618 459.61,-618"/>
<polygon fill="midnightblue" stroke="midnightblue" points="459.92,-621.5 469.92,-618 459.92,-614.5 459.92,-621.5"/>
</g>
<!-- Node247 -->
<g id="node12" class="node">
<title>Node247</title>
<g id="a_node12"><a xlink:href="quickjs_8c.html#a344894112559c2ba75043fd10bcfa02f" target="_top" xlink:title=" ">
<polygon fill="none" stroke="red" points="645,-494.5 645,-513.5 746,-513.5 746,-494.5 645,-494.5"/>
<text text-anchor="middle" x="695.5" y="-501.5" font-family="Helvetica,sans-Serif" font-size="10.00">close_lexical_var</text>
</a>
</g>
</g>
<!-- Node3&#45;&gt;Node247 -->
<g id="edge12" class="edge">
<title>Node3&#45;&gt;Node247</title>
<path fill="none" stroke="midnightblue" d="M330.97,-608.22C348.08,-588.03 390.66,-542.03 438,-523 501.64,-497.42 581.25,-495.7 634.76,-498.41"/>
<polygon fill="midnightblue" stroke="midnightblue" points="634.58,-501.91 644.77,-498.98 634.99,-494.92 634.58,-501.91"/>
</g>
<!-- Node270 -->
<g id="node13" class="node">
<title>Node270</title>
<g id="a_node13"><a xlink:href="quickjs_8c.html#a0c61bd5a64c743e81188bb528b78e715" target="_top" xlink:title=" ">
<polygon fill="none" stroke="red" points="438,-950.5 438,-969.5 596,-969.5 596,-950.5 438,-950.5"/>
<text text-anchor="middle" x="517" y="-957.5" font-family="Helvetica,sans-Serif" font-size="10.00">JS_DefinePropertyValueValue</text>
</a>
</g>
</g>
<!-- Node3&#45;&gt;Node270 -->
<g id="edge16" class="edge">
<title>Node3&#45;&gt;Node270</title>
<path fill="none" stroke="midnightblue" d="M326.56,-627.87C339.13,-662.13 383.59,-778.52 438,-865 456.43,-894.29 482.81,-924.59 499.67,-942.87"/>
<polygon fill="midnightblue" stroke="midnightblue" points="497.3,-945.46 506.69,-950.38 502.42,-940.68 497.3,-945.46"/>
</g>
<!-- Node3&#45;&gt;Node57 -->
<g id="edge19" class="edge">
<title>Node3&#45;&gt;Node57</title>
<path fill="none" stroke="midnightblue" d="M330.79,-627.71C354.34,-656.97 424.06,-742.8 438,-751 499.83,-787.38 526.18,-767.51 596,-784 668.92,-801.22 696.41,-785.83 759,-827 788.61,-846.48 811.61,-881.68 823.81,-903.33"/>
<polygon fill="midnightblue" stroke="midnightblue" points="820.79,-905.1 828.64,-912.21 826.94,-901.76 820.79,-905.1"/>
</g>
<!-- Node3&#45;&gt;Node68 -->
<g id="edge20" class="edge">
<title>Node3&#45;&gt;Node68</title>
<path fill="none" stroke="midnightblue" d="M325.67,-627.8C335.08,-660.55 369.92,-767.17 438,-822 445.21,-827.81 453.83,-832.22 462.66,-835.56"/>
<polygon fill="midnightblue" stroke="midnightblue" points="461.67,-838.92 472.27,-838.78 463.9,-832.28 461.67,-838.92"/>
</g>
<!-- Node69 -->
<g id="node16" class="node">
<title>Node69</title>
<g id="a_node16"><a xlink:href="quickjs_8c.html#a5762c57ae0c9937e986040c01222833a" target="_top" xlink:title=" ">
<polygon fill="none" stroke="red" points="632,-836.5 632,-855.5 759,-855.5 759,-836.5 632,-836.5"/>
<text text-anchor="middle" x="695.5" y="-843.5" font-family="Helvetica,sans-Serif" font-size="10.00">JS_GetPropertyInternal</text>
</a>
</g>
</g>
<!-- Node3&#45;&gt;Node69 -->
<g id="edge25" class="edge">
<title>Node3&#45;&gt;Node69</title>
<path fill="none" stroke="midnightblue" d="M326.76,-627.71C338.43,-656.52 376.99,-742.17 438,-784 454.41,-795.25 566.65,-819.78 637.11,-834.39"/>
<polygon fill="midnightblue" stroke="midnightblue" points="636.69,-837.87 647.19,-836.47 638.1,-831.02 636.69,-837.87"/>
</g>
<!-- Node3&#45;&gt;Node125 -->
<g id="edge27" class="edge">
<title>Node3&#45;&gt;Node125</title>
<path fill="none" stroke="midnightblue" d="M325.67,-608.2C335.08,-575.45 369.92,-468.83 438,-414 449.17,-405.01 463.7,-399.37 477.18,-395.85"/>
<polygon fill="midnightblue" stroke="midnightblue" points="478.26,-399.19 487.22,-393.54 476.69,-392.37 478.26,-399.19"/>
</g>
<!-- Node3&#45;&gt;Node126 -->
<g id="edge28" class="edge">
<title>Node3&#45;&gt;Node126</title>
<path fill="none" stroke="midnightblue" d="M324.45,-608.38C330.56,-571.36 357.73,-436.85 438,-371 445.12,-365.16 453.77,-361.07 462.67,-358.21"/>
<polygon fill="midnightblue" stroke="midnightblue" points="463.65,-361.57 472.38,-355.57 461.81,-354.82 463.65,-361.57"/>
</g>
<!-- Node3&#45;&gt;Node272 -->
<g id="edge29" class="edge">
<title>Node3&#45;&gt;Node272</title>
<path fill="none" stroke="midnightblue" d="M323.81,-608.35C327.72,-567.91 348.41,-410.49 438,-333 446.31,-325.81 456.91,-321.25 467.59,-318.37"/>
<polygon fill="midnightblue" stroke="midnightblue" points="468.36,-321.79 477.35,-316.18 466.83,-314.96 468.36,-321.79"/>
</g>
<!-- Node65&#45;&gt;Node4 -->
<g id="edge8" class="edge">
<title>Node65&#45;&gt;Node4</title>
<path fill="none" stroke="midnightblue" d="M558.05,-550.62C583.96,-556.2 617.86,-563.5 645.39,-569.43"/>
<polygon fill="midnightblue" stroke="midnightblue" points="644.7,-572.86 655.22,-571.54 646.18,-566.02 644.7,-572.86"/>
</g>
<!-- Node65&#45;&gt;Node36 -->
<g id="edge9" class="edge">
<title>Node65&#45;&gt;Node36</title>
<path fill="none" stroke="midnightblue" d="M558.34,-540.93C606.41,-539.16 689.02,-534.59 759,-523 769.58,-521.25 780.85,-518.72 791.35,-516.09"/>
<polygon fill="midnightblue" stroke="midnightblue" points="792.32,-519.45 801.12,-513.54 790.56,-512.67 792.32,-519.45"/>
</g>
<!-- Node65&#45;&gt;Node75 -->
<g id="edge10" class="edge">
<title>Node65&#45;&gt;Node75</title>
<path fill="none" stroke="midnightblue" d="M532.74,-532.48C563.3,-512.74 633.74,-467.24 670.77,-443.32"/>
<polygon fill="midnightblue" stroke="midnightblue" points="672.92,-446.1 679.42,-437.74 669.12,-440.22 672.92,-446.1"/>
</g>
<!-- Node247&#45;&gt;Node36 -->
<g id="edge13" class="edge">
<title>Node247&#45;&gt;Node36</title>
<path fill="none" stroke="midnightblue" d="M746.35,-504C759.14,-504 772.87,-504 785.56,-504"/>
<polygon fill="midnightblue" stroke="midnightblue" points="785.94,-507.5 795.94,-504 785.94,-500.5 785.94,-507.5"/>
</g>
<!-- Node270&#45;&gt;Node57 -->
<g id="edge17" class="edge">
<title>Node270&#45;&gt;Node57</title>
<path fill="none" stroke="midnightblue" d="M596.08,-953.95C643.35,-949.85 704.79,-943.78 759,-936 767.43,-934.79 776.35,-933.3 784.99,-931.74"/>
<polygon fill="midnightblue" stroke="midnightblue" points="785.74,-935.16 794.94,-929.9 784.47,-928.28 785.74,-935.16"/>
</g>
<!-- Node68&#45;&gt;Node69 -->
<g id="edge21" class="edge">
<title>Node68&#45;&gt;Node69</title>
<path fill="none" stroke="midnightblue" d="M561.63,-846C579.71,-846 601.17,-846 621.52,-846"/>
<polygon fill="midnightblue" stroke="midnightblue" points="621.72,-849.5 631.72,-846 621.72,-842.5 621.72,-849.5"/>
</g>
<!-- Node69&#45;&gt;Node2 -->
<g id="edge22" class="edge">
<title>Node69&#45;&gt;Node2</title>
<path fill="none" stroke="midnightblue" d="M666.79,-855.56C618.5,-870.62 516.57,-895.19 438,-865 313.88,-817.31 210.86,-684.51 176.36,-636.02"/>
<polygon fill="midnightblue" stroke="midnightblue" points="179.16,-633.92 170.56,-627.74 173.43,-637.94 179.16,-633.92"/>
</g>
<!-- Node69&#45;&gt;Node36 -->
<g id="edge23" class="edge">
<title>Node69&#45;&gt;Node36</title>
<path fill="none" stroke="midnightblue" d="M700.31,-836.5C718.9,-790.09 800.25,-587 825.8,-523.23"/>
<polygon fill="midnightblue" stroke="midnightblue" points="829.18,-524.2 829.65,-513.62 822.68,-521.6 829.18,-524.2"/>
</g>
<!-- Node69&#45;&gt;Node57 -->
<g id="edge24" class="edge">
<title>Node69&#45;&gt;Node57</title>
<path fill="none" stroke="midnightblue" d="M713.85,-855.63C737.42,-868.7 779.77,-892.2 807.25,-907.44"/>
<polygon fill="midnightblue" stroke="midnightblue" points="805.85,-910.66 816.29,-912.45 809.24,-904.54 805.85,-910.66"/>
</g>
<!-- Node269&#45;&gt;Node270 -->
<g id="edge32" class="edge">
<title>Node269&#45;&gt;Node270</title>
<path fill="none" stroke="midnightblue" d="M402.06,-960C410.42,-960 418.96,-960 427.43,-960"/>
<polygon fill="midnightblue" stroke="midnightblue" points="427.69,-963.5 437.69,-960 427.69,-956.5 427.69,-963.5"/>
</g>
<!-- Node437&#45;&gt;Node36 -->
<g id="edge41" class="edge">
<title>Node437&#45;&gt;Node36</title>
<path fill="none" stroke="midnightblue" d="M203.2,-235.72C295.87,-230.91 525.92,-222.41 596,-252 710.77,-300.46 795.35,-435.59 823.42,-485.32"/>
<polygon fill="midnightblue" stroke="midnightblue" points="820.5,-487.27 828.41,-494.33 826.62,-483.88 820.5,-487.27"/>
</g>
<!-- Node94 -->
<g id="node22" class="node">
<title>Node94</title>
<g id="a_node22"><a xlink:href="quickjs_8c.html#ad303a9bc56766627b5fca41574933930" target="_top" xlink:title=" ">
<polygon fill="none" stroke="red" points="474,-152.5 474,-171.5 560,-171.5 560,-152.5 474,-152.5"/>
<text text-anchor="middle" x="517" y="-159.5" font-family="Helvetica,sans-Serif" font-size="10.00">js_alloc_string</text>
</a>
</g>
</g>
<!-- Node437&#45;&gt;Node94 -->
<g id="edge40" class="edge">
<title>Node437&#45;&gt;Node94</title>
<path fill="none" stroke="midnightblue" d="M189.3,-228.47C195.03,-225.8 200.91,-222.62 206,-219 224.95,-205.51 220.96,-190.93 242,-181 313.05,-147.48 406.13,-149.23 463.46,-154.74"/>
<polygon fill="midnightblue" stroke="midnightblue" points="463.42,-158.26 473.73,-155.81 464.15,-151.3 463.42,-158.26"/>
</g>
<!-- Node152 -->
<g id="node23" class="node">
<title>Node152</title>
<g id="a_node23"><a xlink:href="quickjs_8c.html#a960b48be1175b0982ecc03505711fc56" target="_top" xlink:title=" ">
<polygon fill="none" stroke="black" points="274.5,-114.5 274.5,-133.5 369.5,-133.5 369.5,-114.5 274.5,-114.5"/>
<text text-anchor="middle" x="322" y="-121.5" font-family="Helvetica,sans-Serif" font-size="10.00">js_new_string16</text>
</a>
</g>
</g>
<!-- Node437&#45;&gt;Node152 -->
<g id="edge42" class="edge">
<title>Node437&#45;&gt;Node152</title>
<path fill="none" stroke="midnightblue" d="M192.32,-228.4C197.26,-225.87 202.07,-222.76 206,-219 231.57,-194.54 214.9,-170.74 242,-148 248.63,-142.44 256.53,-138.16 264.72,-134.88"/>
<polygon fill="midnightblue" stroke="midnightblue" points="266.16,-138.08 274.43,-131.46 263.83,-131.48 266.16,-138.08"/>
</g>
<!-- Node102 -->
<g id="node24" class="node">
<title>Node102</title>
<g id="a_node24"><a xlink:href="quickjs_8c.html#aa923510185fe24e3083baf7405b09f51" target="_top" xlink:title=" ">
<polygon fill="none" stroke="red" points="277.5,-190.5 277.5,-209.5 366.5,-209.5 366.5,-190.5 277.5,-190.5"/>
<text text-anchor="middle" x="322" y="-197.5" font-family="Helvetica,sans-Serif" font-size="10.00">js_new_string8</text>
</a>
</g>
</g>
<!-- Node437&#45;&gt;Node102 -->
<g id="edge44" class="edge">
<title>Node437&#45;&gt;Node102</title>
<path fill="none" stroke="midnightblue" d="M203.21,-228.51C224.01,-223.48 249.75,-217.24 271.87,-211.89"/>
<polygon fill="midnightblue" stroke="midnightblue" points="272.85,-215.26 281.74,-209.5 271.2,-208.45 272.85,-215.26"/>
</g>
<!-- Node152&#45;&gt;Node94 -->
<g id="edge43" class="edge">
<title>Node152&#45;&gt;Node94</title>
<path fill="none" stroke="midnightblue" d="M369.72,-133.2C398.16,-138.8 434.55,-145.96 463.91,-151.74"/>
<polygon fill="midnightblue" stroke="midnightblue" points="463.5,-155.23 473.98,-153.73 464.85,-148.36 463.5,-155.23"/>
</g>
<!-- Node102&#45;&gt;Node94 -->
<g id="edge45" class="edge">
<title>Node102&#45;&gt;Node94</title>
<path fill="none" stroke="midnightblue" d="M366.79,-191.38C395.57,-185.71 433.37,-178.27 463.72,-172.29"/>
<polygon fill="midnightblue" stroke="midnightblue" points="464.57,-175.69 473.7,-170.33 463.22,-168.83 464.57,-175.69"/>
</g>
<!-- Node439 -->
<g id="node28" class="node">
<title>Node439</title>
<g id="a_node28"><a xlink:href="quickjs_8c.html#a33f864515daeb5fe5612be71c5a60870" target="_top" xlink:title=" ">
<polygon fill="none" stroke="black" points="286.5,-0.5 286.5,-19.5 357.5,-19.5 357.5,-0.5 286.5,-0.5"/>
<text text-anchor="middle" x="322" y="-7.5" font-family="Helvetica,sans-Serif" font-size="10.00">string_cmp</text>
</a>
</g>
</g>
<!-- Node438&#45;&gt;Node439 -->
<g id="edge49" class="edge">
<title>Node438&#45;&gt;Node439</title>
<path fill="none" stroke="midnightblue" d="M184.95,-57.43C200.52,-50.49 222.37,-41.11 242,-34 253.26,-29.92 265.58,-25.95 277.07,-22.45"/>
<polygon fill="midnightblue" stroke="midnightblue" points="278.34,-25.72 286.91,-19.5 276.33,-19.02 278.34,-25.72"/>
</g>
<!-- Node440 -->
<g id="node29" class="node">
<title>Node440</title>
<g id="a_node29"><a xlink:href="quickjs_8c.html#a80398f847e2e83c2613b638719bf6fda" target="_top" xlink:title=" ">
<polygon fill="none" stroke="black" points="484.5,-19.5 484.5,-38.5 549.5,-38.5 549.5,-19.5 484.5,-19.5"/>
<text text-anchor="middle" x="517" y="-26.5" font-family="Helvetica,sans-Serif" font-size="10.00">string_get</text>
</a>
</g>
</g>
<!-- Node438&#45;&gt;Node440 -->
<g id="edge51" class="edge">
<title>Node438&#45;&gt;Node440</title>
<path fill="none" stroke="midnightblue" d="M206.11,-62.45C273.84,-55.14 406.21,-40.85 473.92,-33.54"/>
<polygon fill="midnightblue" stroke="midnightblue" points="474.65,-36.98 484.21,-32.43 473.89,-30.03 474.65,-36.98"/>
</g>
<!-- Node441 -->
<g id="node30" class="node">
<title>Node441</title>
<g id="a_node30"><a xlink:href="quickjs_8c.html#a646c73cb7ff4b6af11529c2524d90a43" target="_top" xlink:title=" ">
<polygon fill="none" stroke="black" points="266,-76.5 266,-95.5 378,-95.5 378,-76.5 266,-76.5"/>
<text text-anchor="middle" x="322" y="-83.5" font-family="Helvetica,sans-Serif" font-size="10.00">string_indexof_char</text>
</a>
</g>
</g>
<!-- Node438&#45;&gt;Node441 -->
<g id="edge52" class="edge">
<title>Node438&#45;&gt;Node441</title>
<path fill="none" stroke="midnightblue" d="M206.07,-72.09C221.27,-73.93 238.8,-76.05 255.52,-78.08"/>
<polygon fill="midnightblue" stroke="midnightblue" points="255.45,-81.59 265.8,-79.32 256.3,-74.64 255.45,-81.59"/>
</g>
<!-- Node439&#45;&gt;Node440 -->
<g id="edge50" class="edge">
<title>Node439&#45;&gt;Node440</title>
<path fill="none" stroke="midnightblue" d="M357.5,-13.4C390.13,-16.61 439.14,-21.43 474.02,-24.87"/>
<polygon fill="midnightblue" stroke="midnightblue" points="474.06,-28.39 484.35,-25.88 474.74,-21.42 474.06,-28.39"/>
</g>
</g>
</svg>
