<?xml version="1.0" encoding="UTF-8" standalone="no"?>
<!DOCTYPE svg PUBLIC "-//W3C//DTD SVG 1.1//EN"
 "http://www.w3.org/Graphics/SVG/1.1/DTD/svg11.dtd">
<!-- Generated by graphviz version 2.43.0 (0)
 -->
<!-- Title: js_array_reduce Pages: 1 -->
<!--zoomable 1256 -->
<svg id="main" version="1.1" xmlns="http://www.w3.org/2000/svg" xmlns:xlink="http://www.w3.org/1999/xlink" xml:space="preserve" onload="init(evt)">
<style type="text/css"><![CDATA[
.edge:hover path { stroke: red; }
.edge:hover polygon { stroke: red; fill: red; }
]]></style>
<script type="text/javascript"><![CDATA[
var edges = document.getElementsByTagName('g');
if (edges && edges.length) {
  for (var i=0;i<edges.length;i++) {
    if (edges[i].id.substr(0,4)=='edge') {
      edges[i].setAttribute('class','edge');
    }
  }
}
]]></script>
        <defs>
                <circle id="rim" cx="0" cy="0" r="7"/>
                <circle id="rim2" cx="0" cy="0" r="3.5"/>
                <g id="zoomPlus">
                        <use xlink:href="#rim" fill="#404040">
                                <set attributeName="fill" to="#808080" begin="zoomplus.mouseover" end="zoomplus.mouseout"/>
                        </use>
                        <path d="M-4,0h8M0,-4v8" fill="none" stroke="white" stroke-width="1.5" pointer-events="none"/>
                </g>
                <g id="zoomMin">
                        <use xlink:href="#rim" fill="#404040">
                                <set attributeName="fill" to="#808080" begin="zoomminus.mouseover" end="zoomminus.mouseout"/>
                        </use>
                        <path d="M-4,0h8" fill="none" stroke="white" stroke-width="1.5" pointer-events="none"/>
                </g>
                <g id="dirArrow">
                        <path fill="none" stroke="white" stroke-width="1.5" d="M0,-3.0v7 M-2.5,-0.5L0,-3.0L2.5,-0.5"/>
                </g>
               <g id="resetDef">
                       <use xlink:href="#rim2" fill="#404040">
                               <set attributeName="fill" to="#808080" begin="reset.mouseover" end="reset.mouseout"/>
                       </use>
               </g>
        </defs>

<script type="text/javascript">
var viewWidth = 871;
var viewHeight = 1256;
var sectionId = 'dynsection-1492';
</script>
<script xlink:href="svgpan.js"/>
<svg id="graph" class="graph">
<g id="viewport">
<title>js_array_reduce</title>
<!-- Node1 -->
<g id="node1" class="node">
<title>Node1</title>
<g id="a_node1"><a xlink:title=" ">
<polygon fill="#bfbfbf" stroke="black" points="0,-734 0,-753 94,-753 94,-734 0,-734"/>
<text text-anchor="middle" x="47" y="-741" font-family="Helvetica,sans-Serif" font-size="10.00">js_array_reduce</text>
</a>
</g>
</g>
<!-- Node2 -->
<g id="node2" class="node">
<title>Node2</title>
<g id="a_node2"><a xlink:href="quickjs_8c.html#a59a7e992f228759bf0a56f0aae4f3cc3" target="_top" xlink:title=" ">
<polygon fill="none" stroke="black" points="140,-1228 140,-1247 230,-1247 230,-1228 140,-1228"/>
<text text-anchor="middle" x="185" y="-1235" font-family="Helvetica,sans-Serif" font-size="10.00">check_function</text>
</a>
</g>
</g>
<!-- Node1&#45;&gt;Node2 -->
<g id="edge1" class="edge">
<title>Node1&#45;&gt;Node2</title>
<path fill="none" stroke="midnightblue" d="M48.47,-753.12C51.57,-813.29 70.89,-1137.75 130,-1213.5 132.85,-1217.15 136.37,-1220.25 140.23,-1222.9"/>
<polygon fill="midnightblue" stroke="midnightblue" points="138.71,-1226.06 149.12,-1227.98 142.18,-1219.98 138.71,-1226.06"/>
</g>
<!-- Node4 -->
<g id="node4" class="node">
<title>Node4</title>
<g id="a_node4"><a xlink:href="quickjs_8c.html#a1a4c02a29525d5cb2085dd8bca3af350" target="_top" xlink:title=" ">
<polygon fill="none" stroke="black" points="160,-829 160,-848 210,-848 210,-829 160,-829"/>
<text text-anchor="middle" x="185" y="-836" font-family="Helvetica,sans-Serif" font-size="10.00">JS_Call</text>
</a>
</g>
</g>
<!-- Node1&#45;&gt;Node4 -->
<g id="edge3" class="edge">
<title>Node1&#45;&gt;Node4</title>
<path fill="none" stroke="midnightblue" d="M61.79,-753.13C85.31,-769.56 133.39,-803.14 161.72,-822.94"/>
<polygon fill="midnightblue" stroke="midnightblue" points="159.97,-825.99 170.17,-828.84 163.98,-820.25 159.97,-825.99"/>
</g>
<!-- Node38 -->
<g id="node11" class="node">
<title>Node38</title>
<g id="a_node11"><a xlink:href="quickjs_8h.html#a775522f2d084fc8fa0fcb33f390006b4" target="_top" xlink:title=" ">
<polygon fill="none" stroke="black" points="644,-962 644,-981 721,-981 721,-962 644,-962"/>
<text text-anchor="middle" x="682.5" y="-969" font-family="Helvetica,sans-Serif" font-size="10.00">JS_DupValue</text>
</a>
</g>
</g>
<!-- Node1&#45;&gt;Node38 -->
<g id="edge38" class="edge">
<title>Node1&#45;&gt;Node38</title>
<path fill="none" stroke="midnightblue" d="M50.78,-753.01C59,-779.86 85.49,-857.49 130,-906.5 181.56,-963.28 207.07,-964.88 276,-998.5 400.83,-1059.39 463.64,-1140.77 581,-1066.5 612.58,-1046.51 588.59,-1014.79 617,-990.5 621.95,-986.27 627.8,-982.98 633.93,-980.42"/>
<polygon fill="midnightblue" stroke="midnightblue" points="635.44,-983.6 643.7,-976.98 633.11,-977 635.44,-983.6"/>
</g>
<!-- Node77 -->
<g id="node12" class="node">
<title>Node77</title>
<g id="a_node12"><a xlink:href="quickjs_8h.html#ad80a83d73e9b7d872b88fbf2943aebe9" target="_top" xlink:title=" ">
<polygon fill="none" stroke="black" points="639,-240 639,-259 726,-259 726,-240 639,-240"/>
<text text-anchor="middle" x="682.5" y="-247" font-family="Helvetica,sans-Serif" font-size="10.00">JS_IsException</text>
</a>
</g>
</g>
<!-- Node1&#45;&gt;Node77 -->
<g id="edge53" class="edge">
<title>Node1&#45;&gt;Node77</title>
<path fill="none" stroke="midnightblue" d="M48.54,-733.76C51.22,-691.18 65.78,-518.12 130,-395.5 174.97,-309.64 196.92,-289.55 276,-233.5 390.24,-152.53 458.37,-86.91 581,-154.5 607.24,-168.96 595.49,-190.64 617,-211.5 626.7,-220.9 639.15,-228.93 650.52,-235.15"/>
<polygon fill="midnightblue" stroke="midnightblue" points="649.25,-238.44 659.73,-239.95 652.48,-232.23 649.25,-238.44"/>
</g>
<!-- Node59 -->
<g id="node14" class="node">
<title>Node59</title>
<g id="a_node14"><a xlink:href="quickjs_8h.html#afaa20c47565bc704c6c85f3d77254e7d" target="_top" xlink:title=" ">
<polygon fill="none" stroke="red" points="784,-895 784,-914 863,-914 863,-895 784,-895"/>
<text text-anchor="middle" x="823.5" y="-902" font-family="Helvetica,sans-Serif" font-size="10.00">JS_FreeValue</text>
</a>
</g>
</g>
<!-- Node1&#45;&gt;Node59 -->
<g id="edge39" class="edge">
<title>Node1&#45;&gt;Node59</title>
<path fill="none" stroke="midnightblue" d="M49.41,-753.02C59.68,-818.51 128.97,-1199.5 351.5,-1199.5 351.5,-1199.5 351.5,-1199.5 524,-1199.5 639.78,-1199.5 670.53,-1152.54 748,-1066.5 786.72,-1023.49 808.62,-956.9 817.62,-924.11"/>
<polygon fill="midnightblue" stroke="midnightblue" points="821.11,-924.58 820.27,-914.01 814.34,-922.8 821.11,-924.58"/>
</g>
<!-- Node280 -->
<g id="node20" class="node">
<title>Node280</title>
<g id="a_node20"><a xlink:href="quickjs_8c.html#a710289a14c2810467e5b448d3c28bd55" target="_top" xlink:title=" ">
<polygon fill="none" stroke="red" points="486.5,-1038 486.5,-1057 559.5,-1057 559.5,-1038 486.5,-1038"/>
<text text-anchor="middle" x="523" y="-1045" font-family="Helvetica,sans-Serif" font-size="10.00">JS_ToObject</text>
</a>
</g>
</g>
<!-- Node1&#45;&gt;Node280 -->
<g id="edge57" class="edge">
<title>Node1&#45;&gt;Node280</title>
<path fill="none" stroke="midnightblue" d="M52.86,-753.29C63.92,-774.71 92.87,-826.27 130,-857.5 240.37,-950.33 403.81,-1010.28 480.03,-1034.84"/>
<polygon fill="midnightblue" stroke="midnightblue" points="479.16,-1038.23 489.75,-1037.93 481.28,-1031.56 479.16,-1038.23"/>
</g>
<!-- Node437 -->
<g id="node21" class="node">
<title>Node437</title>
<g id="a_node21"><a xlink:href="quickjs_8c.html#a5f848f76409193212a44e6221e430919" target="_top" xlink:title=" ">
<polygon fill="none" stroke="black" points="476,-164 476,-183 570,-183 570,-164 476,-164"/>
<text text-anchor="middle" x="523" y="-171" font-family="Helvetica,sans-Serif" font-size="10.00">js_get_length64</text>
</a>
</g>
</g>
<!-- Node1&#45;&gt;Node437 -->
<g id="edge40" class="edge">
<title>Node1&#45;&gt;Node437</title>
<path fill="none" stroke="midnightblue" d="M50.12,-733.78C57.36,-702.06 83.26,-599.5 130,-527.5 234.2,-367 429.01,-232.93 497.46,-188.86"/>
<polygon fill="midnightblue" stroke="midnightblue" points="499.71,-191.58 506.25,-183.24 495.94,-185.67 499.71,-191.58"/>
</g>
<!-- Node441 -->
<g id="node23" class="node">
<title>Node441</title>
<g id="a_node23"><a xlink:href="quickjs_8c.html#a7bb763b31e1c40a04aa0c1d5db0f1191" target="_top" xlink:title=" ">
<polygon fill="none" stroke="black" points="295.5,-620 295.5,-639 409.5,-639 409.5,-620 295.5,-620"/>
<text text-anchor="middle" x="352.5" y="-627" font-family="Helvetica,sans-Serif" font-size="10.00">JS_GetPropertyInt64</text>
</a>
</g>
</g>
<!-- Node1&#45;&gt;Node441 -->
<g id="edge45" class="edge">
<title>Node1&#45;&gt;Node441</title>
<path fill="none" stroke="midnightblue" d="M73.35,-733.98C127.47,-713.65 254.39,-665.98 316.29,-642.72"/>
<polygon fill="midnightblue" stroke="midnightblue" points="317.87,-645.87 326,-639.08 315.41,-639.32 317.87,-645.87"/>
</g>
<!-- Node273 -->
<g id="node25" class="node">
<title>Node273</title>
<g id="a_node25"><a xlink:href="quickjs_8h.html#a6acbc709e59969eac6775f9b253b438f" target="_top" xlink:title=" ">
<polygon fill="none" stroke="black" points="484.5,-734 484.5,-753 561.5,-753 561.5,-734 484.5,-734"/>
<text text-anchor="middle" x="523" y="-741" font-family="Helvetica,sans-Serif" font-size="10.00">JS_NewInt64</text>
</a>
</g>
</g>
<!-- Node1&#45;&gt;Node273 -->
<g id="edge54" class="edge">
<title>Node1&#45;&gt;Node273</title>
<path fill="none" stroke="midnightblue" d="M94.31,-743.5C184.48,-743.5 382.76,-743.5 474.15,-743.5"/>
<polygon fill="midnightblue" stroke="midnightblue" points="474.23,-747 484.23,-743.5 474.23,-740 474.23,-747"/>
</g>
<!-- Node443 -->
<g id="node26" class="node">
<title>Node443</title>
<g id="a_node26"><a xlink:href="quickjs_8c.html#a14674e74168715dc5a3a391910982e5d" target="_top" xlink:title=" ">
<polygon fill="none" stroke="black" points="288.5,-392 288.5,-411 416.5,-411 416.5,-392 288.5,-392"/>
<text text-anchor="middle" x="352.5" y="-399" font-family="Helvetica,sans-Serif" font-size="10.00">JS_TryGetPropertyInt64</text>
</a>
</g>
</g>
<!-- Node1&#45;&gt;Node443 -->
<g id="edge58" class="edge">
<title>Node1&#45;&gt;Node443</title>
<path fill="none" stroke="midnightblue" d="M56.43,-734C98.04,-687.11 281.58,-480.29 336.15,-418.8"/>
<polygon fill="midnightblue" stroke="midnightblue" points="338.94,-420.92 342.96,-411.12 333.71,-416.28 338.94,-420.92"/>
</g>
<!-- Node444 -->
<g id="node27" class="node">
<title>Node444</title>
<g id="a_node27"><a xlink:href="quickjs_8c.html#add71c7e0efcb1fd14572d39e2672971d" target="_top" xlink:title=" ">
<polygon fill="none" stroke="black" points="130,-60.5 130,-90.5 240,-90.5 240,-60.5 130,-60.5"/>
<text text-anchor="start" x="138" y="-78.5" font-family="Helvetica,sans-Serif" font-size="10.00">js_typed_array_get</text>
<text text-anchor="middle" x="185" y="-67.5" font-family="Helvetica,sans-Serif" font-size="10.00">_length_internal</text>
</a>
</g>
</g>
<!-- Node1&#45;&gt;Node444 -->
<g id="edge67" class="edge">
<title>Node1&#45;&gt;Node444</title>
<path fill="none" stroke="midnightblue" d="M48.33,-733.9C50.87,-664.08 68.85,-233.93 130,-121.5 135.08,-112.17 142.86,-103.9 150.95,-97.05"/>
<polygon fill="midnightblue" stroke="midnightblue" points="153.36,-99.6 159.06,-90.67 149.04,-94.1 153.36,-99.6"/>
</g>
<!-- Node3 -->
<g id="node3" class="node">
<title>Node3</title>
<g id="a_node3"><a xlink:href="quickjs_8c.html#a1ca9cdb1fa2ffc3e6506e92b200e490f" target="_top" xlink:title=" ">
<polygon fill="none" stroke="black" points="312.5,-1228 312.5,-1247 392.5,-1247 392.5,-1228 312.5,-1228"/>
<text text-anchor="middle" x="352.5" y="-1235" font-family="Helvetica,sans-Serif" font-size="10.00">JS_IsFunction</text>
</a>
</g>
</g>
<!-- Node2&#45;&gt;Node3 -->
<g id="edge2" class="edge">
<title>Node2&#45;&gt;Node3</title>
<path fill="none" stroke="midnightblue" d="M230.35,-1237.5C252.52,-1237.5 279.41,-1237.5 302.23,-1237.5"/>
<polygon fill="midnightblue" stroke="midnightblue" points="302.39,-1241 312.39,-1237.5 302.39,-1234 302.39,-1241"/>
</g>
<!-- Node5 -->
<g id="node5" class="node">
<title>Node5</title>
<g id="a_node5"><a xlink:href="quickjs_8c.html#ac2894ff4edcdb4e6841bcce9c76081e3" target="_top" xlink:title=" ">
<polygon fill="none" stroke="red" points="309,-829 309,-848 396,-848 396,-829 309,-829"/>
<text text-anchor="middle" x="352.5" y="-836" font-family="Helvetica,sans-Serif" font-size="10.00">JS_CallInternal</text>
</a>
</g>
</g>
<!-- Node4&#45;&gt;Node5 -->
<g id="edge4" class="edge">
<title>Node4&#45;&gt;Node5</title>
<path fill="none" stroke="midnightblue" d="M210.07,-833.57C233.16,-831.78 268.82,-831.31 298.56,-832.16"/>
<polygon fill="midnightblue" stroke="midnightblue" points="298.68,-835.66 308.8,-832.51 298.93,-828.67 298.68,-835.66"/>
</g>
<!-- Node5&#45;&gt;Node4 -->
<g id="edge13" class="edge">
<title>Node5&#45;&gt;Node4</title>
<path fill="none" stroke="midnightblue" d="M308.8,-844.49C281.21,-845.62 245.79,-845.49 220.09,-844.08"/>
<polygon fill="midnightblue" stroke="midnightblue" points="220.27,-840.59 210.07,-843.43 219.82,-847.57 220.27,-840.59"/>
</g>
<!-- Node5&#45;&gt;Node5 -->
<g id="edge14" class="edge">
<title>Node5&#45;&gt;Node5</title>
<path fill="none" stroke="midnightblue" d="M326.91,-848.26C314.47,-857.07 323,-866.5 352.5,-866.5 372.32,-866.5 382.68,-862.24 383.56,-856.77"/>
<polygon fill="midnightblue" stroke="midnightblue" points="386.44,-854.77 378.09,-848.26 380.55,-858.56 386.44,-854.77"/>
</g>
<!-- Node6 -->
<g id="node6" class="node">
<title>Node6</title>
<g id="a_node6"><a xlink:href="quickjs_8c.html#a853f0924d441ea4225488f37c8b69f9a" target="_top" xlink:title=" ">
<polygon fill="none" stroke="black" points="642.5,-1000 642.5,-1019 722.5,-1019 722.5,-1000 642.5,-1000"/>
<text text-anchor="middle" x="682.5" y="-1007" font-family="Helvetica,sans-Serif" font-size="10.00">__attribute__</text>
</a>
</g>
</g>
<!-- Node5&#45;&gt;Node6 -->
<g id="edge5" class="edge">
<title>Node5&#45;&gt;Node6</title>
<path fill="none" stroke="midnightblue" d="M354.68,-848.21C359.74,-884.87 383.14,-1015.41 465,-1066.5 508.74,-1093.8 533.64,-1086.87 581,-1066.5 602.37,-1057.31 597.16,-1040.65 617,-1028.5 621.79,-1025.57 627.06,-1023.06 632.46,-1020.93"/>
<polygon fill="midnightblue" stroke="midnightblue" points="633.97,-1024.11 642.24,-1017.49 631.64,-1017.51 633.97,-1024.11"/>
</g>
<!-- Node7 -->
<g id="node7" class="node">
<title>Node7</title>
<g id="a_node7"><a xlink:href="quickjs_8c.html#a877fcb7651d95b411ce70e62b7f4a1f0" target="_top" xlink:title=" ">
<polygon fill="none" stroke="black" points="620,-278 620,-297 745,-297 745,-278 620,-278"/>
<text text-anchor="middle" x="682.5" y="-285" font-family="Helvetica,sans-Serif" font-size="10.00">__JS_AtomFromUInt32</text>
</a>
</g>
</g>
<!-- Node5&#45;&gt;Node7 -->
<g id="edge6" class="edge">
<title>Node5&#45;&gt;Node7</title>
<path fill="none" stroke="midnightblue" d="M357.91,-828.78C370.35,-801.07 406.31,-719.13 429,-648.5 449.31,-585.28 432.3,-561.29 465,-503.5 491.89,-455.99 615.29,-345.42 662.79,-303.76"/>
<polygon fill="midnightblue" stroke="midnightblue" points="665.26,-306.25 670.49,-297.04 660.66,-300.98 665.26,-306.25"/>
</g>
<!-- Node8 -->
<g id="node8" class="node">
<title>Node8</title>
<g id="a_node8"><a xlink:href="quickjs_8h.html#a9bf98b18de88b4199910a43e933eb97d" target="_top" xlink:title=" ">
<polygon fill="none" stroke="black" points="632.5,-734 632.5,-753 732.5,-753 732.5,-734 632.5,-734"/>
<text text-anchor="middle" x="682.5" y="-741" font-family="Helvetica,sans-Serif" font-size="10.00">__JS_NewFloat64</text>
</a>
</g>
</g>
<!-- Node5&#45;&gt;Node8 -->
<g id="edge7" class="edge">
<title>Node5&#45;&gt;Node8</title>
<path fill="none" stroke="midnightblue" d="M370.81,-848.13C410.28,-868.7 509.12,-912.28 581,-876.5 628.98,-852.62 660.13,-793.7 673.69,-762.93"/>
<polygon fill="midnightblue" stroke="midnightblue" points="677.09,-763.89 677.76,-753.32 670.64,-761.17 677.09,-763.89"/>
</g>
<!-- Node9 -->
<g id="node9" class="node">
<title>Node9</title>
<g id="a_node9"><a xlink:href="quickjs_8c.html#a74547db03bf739a52c83a326b32db997" target="_top" xlink:title=" ">
<polygon fill="none" stroke="red" points="482.5,-848 482.5,-867 563.5,-867 563.5,-848 482.5,-848"/>
<text text-anchor="middle" x="523" y="-855" font-family="Helvetica,sans-Serif" font-size="10.00">add_property</text>
</a>
</g>
</g>
<!-- Node5&#45;&gt;Node9 -->
<g id="edge8" class="edge">
<title>Node5&#45;&gt;Node9</title>
<path fill="none" stroke="midnightblue" d="M396.02,-843.29C419.22,-845.91 448.08,-849.16 472.31,-851.9"/>
<polygon fill="midnightblue" stroke="midnightblue" points="472.06,-855.39 482.39,-853.03 472.84,-848.43 472.06,-855.39"/>
</g>
<!-- Node67 -->
<g id="node10" class="node">
<title>Node67</title>
<g id="a_node10"><a xlink:href="quickjs_8c.html#a4956f45ffd2849b96dc051277264f87a" target="_top" xlink:title=" ">
<polygon fill="none" stroke="red" points="482,-962 482,-981 564,-981 564,-962 482,-962"/>
<text text-anchor="middle" x="523" y="-969" font-family="Helvetica,sans-Serif" font-size="10.00">build_arg_list</text>
</a>
</g>
</g>
<!-- Node5&#45;&gt;Node67 -->
<g id="edge9" class="edge">
<title>Node5&#45;&gt;Node67</title>
<path fill="none" stroke="midnightblue" d="M361.2,-848.18C378.07,-868.86 420.35,-917.84 465,-947.5 470.83,-951.37 477.38,-954.83 483.92,-957.83"/>
<polygon fill="midnightblue" stroke="midnightblue" points="482.82,-961.17 493.39,-961.89 485.58,-954.73 482.82,-961.17"/>
</g>
<!-- Node5&#45;&gt;Node38 -->
<g id="edge17" class="edge">
<title>Node5&#45;&gt;Node38</title>
<path fill="none" stroke="midnightblue" d="M360.24,-848.18C383.16,-881.04 457.12,-986.51 465,-990.5 510.99,-1013.8 529.67,-995.31 581,-990.5 598.28,-988.88 617.01,-985.73 633.56,-982.45"/>
<polygon fill="midnightblue" stroke="midnightblue" points="634.46,-985.84 643.56,-980.41 633.06,-978.98 634.46,-985.84"/>
</g>
<!-- Node5&#45;&gt;Node77 -->
<g id="edge31" class="edge">
<title>Node5&#45;&gt;Node77</title>
<path fill="none" stroke="midnightblue" d="M358.31,-828.9C371.8,-801.5 410.28,-720.28 429,-648.5 459.67,-530.93 402.49,-481.69 465,-377.5 507.77,-306.21 542.3,-304.98 617,-268.5 621.67,-266.22 626.66,-264.16 631.72,-262.31"/>
<polygon fill="midnightblue" stroke="midnightblue" points="633.13,-265.53 641.48,-259.01 630.89,-258.9 633.13,-265.53"/>
</g>
<!-- Node179 -->
<g id="node13" class="node">
<title>Node179</title>
<g id="a_node13"><a xlink:href="quickjs_8c.html#a0a8765bd4012467d9139bc24aabcb3ca" target="_top" xlink:title=" ">
<polygon fill="none" stroke="red" points="617,-1038 617,-1057 748,-1057 748,-1038 617,-1038"/>
<text text-anchor="middle" x="682.5" y="-1045" font-family="Helvetica,sans-Serif" font-size="10.00">JS_DefinePropertyValue</text>
</a>
</g>
</g>
<!-- Node5&#45;&gt;Node179 -->
<g id="edge15" class="edge">
<title>Node5&#45;&gt;Node179</title>
<path fill="none" stroke="midnightblue" d="M354.24,-848.04C357.81,-886.55 376.9,-1031.33 465,-1088.5 525.86,-1128 615.37,-1086.47 657.68,-1062.29"/>
<polygon fill="midnightblue" stroke="midnightblue" points="659.59,-1065.23 666.43,-1057.15 656.04,-1059.19 659.59,-1065.23"/>
</g>
<!-- Node5&#45;&gt;Node59 -->
<g id="edge19" class="edge">
<title>Node5&#45;&gt;Node59</title>
<path fill="none" stroke="midnightblue" d="M367.09,-848.22C387.29,-862.03 426.95,-886.74 465,-896.5 572.39,-924.04 703.92,-917.05 773.66,-910.3"/>
<polygon fill="midnightblue" stroke="midnightblue" points="774.3,-913.76 783.89,-909.27 773.59,-906.79 774.3,-913.76"/>
</g>
<!-- Node58 -->
<g id="node15" class="node">
<title>Node58</title>
<g id="a_node15"><a xlink:href="quickjs_8c.html#ab7fc45a99935a1c0ba50b0216d9401a9" target="_top" xlink:title=" ">
<polygon fill="none" stroke="red" points="643.5,-601 643.5,-620 721.5,-620 721.5,-601 643.5,-601"/>
<text text-anchor="middle" x="682.5" y="-608" font-family="Helvetica,sans-Serif" font-size="10.00">JS_FreeAtom</text>
</a>
</g>
</g>
<!-- Node5&#45;&gt;Node58 -->
<g id="edge18" class="edge">
<title>Node5&#45;&gt;Node58</title>
<path fill="none" stroke="midnightblue" d="M356.09,-828.61C365.02,-796.59 397.77,-695.18 465,-648.5 491.58,-630.05 577.94,-619.37 633.22,-614.26"/>
<polygon fill="midnightblue" stroke="midnightblue" points="633.85,-617.72 643.5,-613.34 633.22,-610.74 633.85,-617.72"/>
</g>
<!-- Node70 -->
<g id="node16" class="node">
<title>Node70</title>
<g id="a_node16"><a xlink:href="quickjs_8h.html#a89b7c8686c7eee70b86be722ee4730ad" target="_top" xlink:title=" ">
<polygon fill="none" stroke="red" points="638,-430 638,-449 727,-449 727,-430 638,-430"/>
<text text-anchor="middle" x="682.5" y="-437" font-family="Helvetica,sans-Serif" font-size="10.00">JS_GetProperty</text>
</a>
</g>
</g>
<!-- Node5&#45;&gt;Node70 -->
<g id="edge20" class="edge">
<title>Node5&#45;&gt;Node70</title>
<path fill="none" stroke="midnightblue" d="M356.7,-828.81C367.78,-796.27 407.02,-688.87 465,-616.5 522.67,-544.52 613.98,-481.89 657.24,-454.38"/>
<polygon fill="midnightblue" stroke="midnightblue" points="659.11,-457.34 665.71,-449.05 655.38,-451.41 659.11,-457.34"/>
</g>
<!-- Node136 -->
<g id="node17" class="node">
<title>Node136</title>
<g id="a_node17"><a xlink:href="quickjs_8c.html#a90d6e607f6917d817c1e997bd2e6ed07" target="_top" xlink:title=" ">
<polygon fill="none" stroke="red" points="465,-658 465,-677 581,-677 581,-658 465,-658"/>
<text text-anchor="middle" x="523" y="-665" font-family="Helvetica,sans-Serif" font-size="10.00">JS_GetPropertyValue</text>
</a>
</g>
</g>
<!-- Node5&#45;&gt;Node136 -->
<g id="edge21" class="edge">
<title>Node5&#45;&gt;Node136</title>
<path fill="none" stroke="midnightblue" d="M363.01,-828.7C382.22,-808.94 427.04,-762.88 465,-724.5 478.43,-710.92 493.75,-695.61 505.12,-684.29"/>
<polygon fill="midnightblue" stroke="midnightblue" points="507.67,-686.68 512.29,-677.15 502.73,-681.72 507.67,-686.68"/>
</g>
<!-- Node78 -->
<g id="node18" class="node">
<title>Node78</title>
<g id="a_node18"><a xlink:href="quickjs_8h.html#a2050bc428da1c65ac7eb87c3fa3b0392" target="_top" xlink:title=" ">
<polygon fill="none" stroke="black" points="644,-696 644,-715 721,-715 721,-696 644,-696"/>
<text text-anchor="middle" x="682.5" y="-703" font-family="Helvetica,sans-Serif" font-size="10.00">JS_NewInt32</text>
</a>
</g>
</g>
<!-- Node5&#45;&gt;Node78 -->
<g id="edge32" class="edge">
<title>Node5&#45;&gt;Node78</title>
<path fill="none" stroke="midnightblue" d="M381.42,-828.88C403.95,-821.14 436.49,-810.03 465,-800.5 516.45,-783.3 535.17,-791.52 581,-762.5 600.66,-750.05 597.16,-736.65 617,-724.5 622.36,-721.22 628.31,-718.48 634.38,-716.2"/>
<polygon fill="midnightblue" stroke="midnightblue" points="635.57,-719.49 643.93,-712.97 633.33,-712.85 635.57,-719.49"/>
</g>
<!-- Node307 -->
<g id="node19" class="node">
<title>Node307</title>
<g id="a_node19"><a xlink:href="quickjs_8c.html#a9d6d0a9704951d01c128975e0d2213f8" target="_top" xlink:title=" ">
<polygon fill="none" stroke="red" points="477.5,-810 477.5,-829 568.5,-829 568.5,-810 477.5,-810"/>
<text text-anchor="middle" x="523" y="-817" font-family="Helvetica,sans-Serif" font-size="10.00">JS_HasProperty</text>
</a>
</g>
</g>
<!-- Node5&#45;&gt;Node307 -->
<g id="edge28" class="edge">
<title>Node5&#45;&gt;Node307</title>
<path fill="none" stroke="midnightblue" d="M396.02,-833.71C417.68,-831.26 444.25,-828.27 467.41,-825.66"/>
<polygon fill="midnightblue" stroke="midnightblue" points="467.89,-829.12 477.43,-824.53 467.1,-822.17 467.89,-829.12"/>
</g>
<!-- Node5&#45;&gt;Node280 -->
<g id="edge33" class="edge">
<title>Node5&#45;&gt;Node280</title>
<path fill="none" stroke="midnightblue" d="M360.93,-848.07C375.15,-866.61 406.77,-909.03 429,-947.5 447.7,-979.86 438,-997.66 465,-1023.5 469.02,-1027.35 473.76,-1030.63 478.75,-1033.4"/>
<polygon fill="midnightblue" stroke="midnightblue" points="477.39,-1036.63 487.91,-1037.87 480.46,-1030.34 477.39,-1036.63"/>
</g>
<!-- Node67&#45;&gt;Node6 -->
<g id="edge10" class="edge">
<title>Node67&#45;&gt;Node6</title>
<path fill="none" stroke="midnightblue" d="M563.74,-981.09C584.61,-986.12 610.36,-992.34 632.45,-997.67"/>
<polygon fill="midnightblue" stroke="midnightblue" points="631.77,-1001.1 642.31,-1000.05 633.41,-994.3 631.77,-1001.1"/>
</g>
<!-- Node67&#45;&gt;Node38 -->
<g id="edge11" class="edge">
<title>Node67&#45;&gt;Node38</title>
<path fill="none" stroke="midnightblue" d="M564.15,-971.5C585.32,-971.5 611.42,-971.5 633.63,-971.5"/>
<polygon fill="midnightblue" stroke="midnightblue" points="633.86,-975 643.86,-971.5 633.86,-968 633.86,-975"/>
</g>
<!-- Node67&#45;&gt;Node77 -->
<g id="edge12" class="edge">
<title>Node67&#45;&gt;Node77</title>
<path fill="none" stroke="midnightblue" d="M532.08,-961.74C545.13,-945.34 570.44,-910.68 581,-876.5 600.98,-811.84 574.88,-321.47 617,-268.5 620.36,-264.27 624.62,-260.95 629.34,-258.34"/>
<polygon fill="midnightblue" stroke="midnightblue" points="631.11,-261.39 638.87,-254.17 628.3,-254.98 631.11,-261.39"/>
</g>
<!-- Node179&#45;&gt;Node59 -->
<g id="edge16" class="edge">
<title>Node179&#45;&gt;Node59</title>
<path fill="none" stroke="midnightblue" d="M731.29,-1037.88C737.26,-1035.43 743.01,-1032.36 748,-1028.5 783.61,-1000.97 805.87,-951.22 816.02,-923.85"/>
<polygon fill="midnightblue" stroke="midnightblue" points="819.39,-924.83 819.43,-914.23 812.79,-922.49 819.39,-924.83"/>
</g>
<!-- Node136&#45;&gt;Node8 -->
<g id="edge22" class="edge">
<title>Node136&#45;&gt;Node8</title>
<path fill="none" stroke="midnightblue" d="M537.24,-677.18C554.75,-689.6 586.89,-711.12 617,-724.5 622.13,-726.78 627.62,-728.88 633.14,-730.77"/>
<polygon fill="midnightblue" stroke="midnightblue" points="632.45,-734.23 643.04,-733.98 634.6,-727.57 632.45,-734.23"/>
</g>
<!-- Node136&#45;&gt;Node38 -->
<g id="edge23" class="edge">
<title>Node136&#45;&gt;Node38</title>
<path fill="none" stroke="midnightblue" d="M536.34,-677.27C548.97,-687.8 568.46,-705.61 581,-724.5 632.1,-801.5 664.62,-908.6 676.46,-952.04"/>
<polygon fill="midnightblue" stroke="midnightblue" points="673.12,-953.12 679.08,-961.88 679.89,-951.31 673.12,-953.12"/>
</g>
<!-- Node136&#45;&gt;Node59 -->
<g id="edge25" class="edge">
<title>Node136&#45;&gt;Node59</title>
<path fill="none" stroke="midnightblue" d="M569.55,-657.97C618.86,-650.43 697.25,-646.86 748,-686.5 810.79,-735.54 820.97,-840.26 822.4,-884.31"/>
<polygon fill="midnightblue" stroke="midnightblue" points="818.9,-884.65 822.6,-894.58 825.9,-884.52 818.9,-884.65"/>
</g>
<!-- Node136&#45;&gt;Node58 -->
<g id="edge24" class="edge">
<title>Node136&#45;&gt;Node58</title>
<path fill="none" stroke="midnightblue" d="M550.36,-657.96C576.37,-648.55 616.33,-634.09 645.3,-623.6"/>
<polygon fill="midnightblue" stroke="midnightblue" points="646.84,-626.77 655.05,-620.07 644.46,-620.18 646.84,-626.77"/>
</g>
<!-- Node136&#45;&gt;Node70 -->
<g id="edge26" class="edge">
<title>Node136&#45;&gt;Node70</title>
<path fill="none" stroke="midnightblue" d="M530.57,-657.99C554.53,-623.3 637.52,-503.16 669.14,-457.39"/>
<polygon fill="midnightblue" stroke="midnightblue" points="672.1,-459.26 674.9,-449.05 666.34,-455.29 672.1,-459.26"/>
</g>
<!-- Node136&#45;&gt;Node78 -->
<g id="edge27" class="edge">
<title>Node136&#45;&gt;Node78</title>
<path fill="none" stroke="midnightblue" d="M563.74,-677.09C585.08,-682.24 611.53,-688.62 633.95,-694.03"/>
<polygon fill="midnightblue" stroke="midnightblue" points="633.4,-697.49 643.94,-696.44 635.04,-690.69 633.4,-697.49"/>
</g>
<!-- Node307&#45;&gt;Node38 -->
<g id="edge29" class="edge">
<title>Node307&#45;&gt;Node38</title>
<path fill="none" stroke="midnightblue" d="M563.24,-829.08C569.5,-831.57 575.66,-834.67 581,-838.5 624.11,-869.45 657.03,-924.31 672.23,-952.94"/>
<polygon fill="midnightblue" stroke="midnightblue" points="669.16,-954.61 676.86,-961.89 675.38,-951.4 669.16,-954.61"/>
</g>
<!-- Node307&#45;&gt;Node59 -->
<g id="edge30" class="edge">
<title>Node307&#45;&gt;Node59</title>
<path fill="none" stroke="midnightblue" d="M557.37,-829C611.59,-844.44 718.78,-874.97 778.94,-892.1"/>
<polygon fill="midnightblue" stroke="midnightblue" points="778.31,-895.56 788.89,-894.93 780.23,-888.82 778.31,-895.56"/>
</g>
<!-- Node280&#45;&gt;Node38 -->
<g id="edge35" class="edge">
<title>Node280&#45;&gt;Node38</title>
<path fill="none" stroke="midnightblue" d="M551.92,-1037.97C561.5,-1034.13 572.05,-1029.24 581,-1023.5 599.27,-1011.78 598.1,-1001.18 617,-990.5 622.27,-987.52 628.06,-984.97 633.93,-982.79"/>
<polygon fill="midnightblue" stroke="midnightblue" points="635.46,-985.97 643.83,-979.48 633.23,-979.34 635.46,-985.97"/>
</g>
<!-- Node280&#45;&gt;Node77 -->
<g id="edge36" class="edge">
<title>Node280&#45;&gt;Node77</title>
<path fill="none" stroke="midnightblue" d="M538.46,-1037.91C552.17,-1027.9 571.98,-1010.84 581,-990.5 613.58,-917.08 567.31,-331.6 617,-268.5 620.34,-264.25 624.59,-260.92 629.3,-258.31"/>
<polygon fill="midnightblue" stroke="midnightblue" points="631.07,-261.36 638.82,-254.13 628.26,-254.95 631.07,-261.36"/>
</g>
<!-- Node280&#45;&gt;Node179 -->
<g id="edge34" class="edge">
<title>Node280&#45;&gt;Node179</title>
<path fill="none" stroke="midnightblue" d="M559.74,-1047.5C573.72,-1047.5 590.31,-1047.5 606.67,-1047.5"/>
<polygon fill="midnightblue" stroke="midnightblue" points="606.8,-1051 616.8,-1047.5 606.8,-1044 606.8,-1051"/>
</g>
<!-- Node280&#45;&gt;Node78 -->
<g id="edge37" class="edge">
<title>Node280&#45;&gt;Node78</title>
<path fill="none" stroke="midnightblue" d="M537.84,-1037.93C551.28,-1027.81 571.06,-1010.56 581,-990.5 633.96,-883.6 539.29,-815.02 617,-724.5 621.6,-719.14 627.62,-715.26 634.14,-712.45"/>
<polygon fill="midnightblue" stroke="midnightblue" points="635.64,-715.63 643.94,-709.05 633.35,-709.02 635.64,-715.63"/>
</g>
<!-- Node437&#45;&gt;Node77 -->
<g id="edge42" class="edge">
<title>Node437&#45;&gt;Node77</title>
<path fill="none" stroke="midnightblue" d="M547.76,-183.01C558.06,-187.26 570.21,-192.45 581,-197.5 606.49,-209.44 634.94,-224.31 655.04,-235.08"/>
<polygon fill="midnightblue" stroke="midnightblue" points="653.46,-238.2 663.92,-239.87 656.78,-232.04 653.46,-238.2"/>
</g>
<!-- Node437&#45;&gt;Node70 -->
<g id="edge41" class="edge">
<title>Node437&#45;&gt;Node70</title>
<path fill="none" stroke="midnightblue" d="M535.67,-183.02C548.1,-193.62 567.78,-211.74 581,-230.5 602.53,-261.05 600.85,-272.8 617,-306.5 636.58,-347.36 659.84,-395.12 672.38,-420.83"/>
<polygon fill="midnightblue" stroke="midnightblue" points="669.24,-422.38 676.78,-429.84 675.53,-419.31 669.24,-422.38"/>
</g>
<!-- Node438 -->
<g id="node22" class="node">
<title>Node438</title>
<g id="a_node22"><a xlink:href="quickjs_8c.html#a07acd485a57197356906928a788a0644" target="_top" xlink:title=" ">
<polygon fill="none" stroke="red" points="635,-183 635,-202 730,-202 730,-183 635,-183"/>
<text text-anchor="middle" x="682.5" y="-190" font-family="Helvetica,sans-Serif" font-size="10.00">JS_ToLengthFree</text>
</a>
</g>
</g>
<!-- Node437&#45;&gt;Node438 -->
<g id="edge43" class="edge">
<title>Node437&#45;&gt;Node438</title>
<path fill="none" stroke="midnightblue" d="M570.4,-179.1C587.39,-181.15 606.82,-183.49 624.62,-185.64"/>
<polygon fill="midnightblue" stroke="midnightblue" points="624.54,-189.15 634.88,-186.88 625.38,-182.2 624.54,-189.15"/>
</g>
<!-- Node438&#45;&gt;Node59 -->
<g id="edge44" class="edge">
<title>Node438&#45;&gt;Node59</title>
<path fill="none" stroke="midnightblue" d="M711.27,-202.04C724.58,-208.08 739.46,-217.3 748,-230.5 820.59,-342.69 823.02,-785.91 822.64,-884.85"/>
<polygon fill="midnightblue" stroke="midnightblue" points="819.14,-884.92 822.59,-894.94 826.14,-884.96 819.14,-884.92"/>
</g>
<!-- Node441&#45;&gt;Node58 -->
<g id="edge46" class="edge">
<title>Node441&#45;&gt;Node58</title>
<path fill="none" stroke="midnightblue" d="M409.54,-621.33C427.24,-619.06 446.91,-616.84 465,-615.5 522.62,-611.23 589.08,-610.28 633,-610.21"/>
<polygon fill="midnightblue" stroke="midnightblue" points="633.12,-613.71 643.12,-610.21 633.12,-606.71 633.12,-613.71"/>
</g>
<!-- Node441&#45;&gt;Node70 -->
<g id="edge47" class="edge">
<title>Node441&#45;&gt;Node70</title>
<path fill="none" stroke="midnightblue" d="M359.15,-619.8C373.59,-595.89 414.27,-533.77 465,-501.5 514.99,-469.7 581.66,-453.82 627.75,-446.16"/>
<polygon fill="midnightblue" stroke="midnightblue" points="628.5,-449.58 637.83,-444.56 627.41,-442.67 628.5,-449.58"/>
</g>
<!-- Node441&#45;&gt;Node136 -->
<g id="edge48" class="edge">
<title>Node441&#45;&gt;Node136</title>
<path fill="none" stroke="midnightblue" d="M396.02,-639.09C418.46,-644.15 446.17,-650.4 469.89,-655.75"/>
<polygon fill="midnightblue" stroke="midnightblue" points="469.26,-659.19 479.79,-657.98 470.8,-652.37 469.26,-659.19"/>
</g>
<!-- Node441&#45;&gt;Node78 -->
<g id="edge52" class="edge">
<title>Node441&#45;&gt;Node78</title>
<path fill="none" stroke="midnightblue" d="M367.89,-639.17C388.43,-652.42 427.81,-675.8 465,-686.5 521.4,-702.72 589.18,-706.24 633.7,-706.51"/>
<polygon fill="midnightblue" stroke="midnightblue" points="633.93,-710.01 643.94,-706.52 633.94,-703.01 633.93,-710.01"/>
</g>
<!-- Node442 -->
<g id="node24" class="node">
<title>Node442</title>
<g id="a_node24"><a xlink:href="quickjs_8c.html#aa641af3a921335927dab07dc83285917" target="_top" xlink:title=" ">
<polygon fill="none" stroke="red" points="471,-240 471,-259 575,-259 575,-240 471,-240"/>
<text text-anchor="middle" x="523" y="-247" font-family="Helvetica,sans-Serif" font-size="10.00">JS_NewAtomInt64</text>
</a>
</g>
</g>
<!-- Node441&#45;&gt;Node442 -->
<g id="edge49" class="edge">
<title>Node441&#45;&gt;Node442</title>
<path fill="none" stroke="midnightblue" d="M356.87,-619.62C369.46,-583.06 415.54,-452.28 465,-349.5 479.15,-320.1 498.44,-287.52 510.55,-267.78"/>
<polygon fill="midnightblue" stroke="midnightblue" points="513.58,-269.54 515.87,-259.19 507.63,-265.85 513.58,-269.54"/>
</g>
<!-- Node442&#45;&gt;Node7 -->
<g id="edge50" class="edge">
<title>Node442&#45;&gt;Node7</title>
<path fill="none" stroke="midnightblue" d="M563.74,-259.09C584.53,-264.1 610.16,-270.29 632.2,-275.61"/>
<polygon fill="midnightblue" stroke="midnightblue" points="631.5,-279.04 642.04,-277.98 633.14,-272.23 631.5,-279.04"/>
</g>
<!-- Node442&#45;&gt;Node77 -->
<g id="edge51" class="edge">
<title>Node442&#45;&gt;Node77</title>
<path fill="none" stroke="midnightblue" d="M575.14,-249.5C592.17,-249.5 611.18,-249.5 628.36,-249.5"/>
<polygon fill="midnightblue" stroke="midnightblue" points="628.79,-253 638.79,-249.5 628.79,-246 628.79,-253"/>
</g>
<!-- Node273&#45;&gt;Node8 -->
<g id="edge55" class="edge">
<title>Node273&#45;&gt;Node8</title>
<path fill="none" stroke="midnightblue" d="M561.73,-743.5C579.86,-743.5 602.03,-743.5 622.35,-743.5"/>
<polygon fill="midnightblue" stroke="midnightblue" points="622.45,-747 632.45,-743.5 622.45,-740 622.45,-747"/>
</g>
<!-- Node273&#45;&gt;Node78 -->
<g id="edge56" class="edge">
<title>Node273&#45;&gt;Node78</title>
<path fill="none" stroke="midnightblue" d="M561.73,-734.4C583.37,-729.18 610.74,-722.57 633.86,-716.99"/>
<polygon fill="midnightblue" stroke="midnightblue" points="634.91,-720.34 643.81,-714.59 633.27,-713.54 634.91,-720.34"/>
</g>
<!-- Node443&#45;&gt;Node7 -->
<g id="edge59" class="edge">
<title>Node443&#45;&gt;Node7</title>
<path fill="none" stroke="midnightblue" d="M380.9,-391.98C439.63,-371.57 577.68,-323.58 644.28,-300.44"/>
<polygon fill="midnightblue" stroke="midnightblue" points="645.65,-303.67 653.95,-297.08 643.35,-297.05 645.65,-303.67"/>
</g>
<!-- Node443&#45;&gt;Node77 -->
<g id="edge64" class="edge">
<title>Node443&#45;&gt;Node77</title>
<path fill="none" stroke="midnightblue" d="M359.55,-391.96C382.17,-356.31 460.73,-232.81 465,-230.5 524.06,-198.5 605.69,-220.2 649.92,-236.38"/>
<polygon fill="midnightblue" stroke="midnightblue" points="648.7,-239.66 659.29,-239.93 651.18,-233.12 648.7,-239.66"/>
</g>
<!-- Node443&#45;&gt;Node58 -->
<g id="edge60" class="edge">
<title>Node443&#45;&gt;Node58</title>
<path fill="none" stroke="midnightblue" d="M370.3,-411.15C408.34,-433.11 503.73,-488.86 581,-539.5 608.86,-557.76 640.07,-580.12 660.21,-594.8"/>
<polygon fill="midnightblue" stroke="midnightblue" points="658.24,-597.7 668.37,-600.78 662.37,-592.05 658.24,-597.7"/>
</g>
<!-- Node443&#45;&gt;Node70 -->
<g id="edge61" class="edge">
<title>Node443&#45;&gt;Node70</title>
<path fill="none" stroke="midnightblue" d="M393.59,-391.93C439.54,-382.59 516.79,-371.87 581,-387.5 610,-394.56 639.98,-411.56 659.56,-424.21"/>
<polygon fill="midnightblue" stroke="midnightblue" points="657.77,-427.22 668.03,-429.83 661.64,-421.39 657.77,-427.22"/>
</g>
<!-- Node443&#45;&gt;Node136 -->
<g id="edge62" class="edge">
<title>Node443&#45;&gt;Node136</title>
<path fill="none" stroke="midnightblue" d="M359.7,-411.28C384.63,-450.64 477.82,-597.75 510.55,-649.42"/>
<polygon fill="midnightblue" stroke="midnightblue" points="507.62,-651.33 515.92,-657.91 513.53,-647.59 507.62,-651.33"/>
</g>
<!-- Node443&#45;&gt;Node78 -->
<g id="edge66" class="edge">
<title>Node443&#45;&gt;Node78</title>
<path fill="none" stroke="midnightblue" d="M362.16,-411.2C380.52,-431.64 424.97,-480.38 465,-518.5 534.55,-584.73 622.56,-657.6 661.46,-689.29"/>
<polygon fill="midnightblue" stroke="midnightblue" points="659.44,-692.17 669.41,-695.76 663.86,-686.73 659.44,-692.17"/>
</g>
<!-- Node443&#45;&gt;Node307 -->
<g id="edge63" class="edge">
<title>Node443&#45;&gt;Node307</title>
<path fill="none" stroke="midnightblue" d="M357.52,-411.37C369.54,-441.09 405.75,-532.49 429,-610.5 448.83,-677.03 431.17,-701.88 465,-762.5 473.87,-778.39 488.43,-792.84 500.61,-803.21"/>
<polygon fill="midnightblue" stroke="midnightblue" points="498.61,-806.1 508.57,-809.71 503.04,-800.68 498.61,-806.1"/>
</g>
<!-- Node443&#45;&gt;Node442 -->
<g id="edge65" class="edge">
<title>Node443&#45;&gt;Node442</title>
<path fill="none" stroke="midnightblue" d="M359.63,-391.82C374.82,-368.51 416.53,-308.57 465,-273.5 470.49,-269.52 476.75,-266.05 483.05,-263.07"/>
<polygon fill="midnightblue" stroke="midnightblue" points="484.47,-266.27 492.24,-259.06 481.67,-259.85 484.47,-266.27"/>
</g>
<!-- Node445 -->
<g id="node28" class="node">
<title>Node445</title>
<g id="a_node28"><a xlink:href="quickjs_8c.html#af894945c3459f86096c1821a0a696934" target="_top" xlink:title=" ">
<polygon fill="none" stroke="black" points="304.5,-50 304.5,-69 400.5,-69 400.5,-50 304.5,-50"/>
<text text-anchor="middle" x="352.5" y="-57" font-family="Helvetica,sans-Serif" font-size="10.00">get_typed_array</text>
</a>
</g>
</g>
<!-- Node444&#45;&gt;Node445 -->
<g id="edge68" class="edge">
<title>Node444&#45;&gt;Node445</title>
<path fill="none" stroke="midnightblue" d="M240.19,-70.26C257.53,-68.58 276.77,-66.72 294.31,-65.03"/>
<polygon fill="midnightblue" stroke="midnightblue" points="294.8,-68.5 304.42,-64.05 294.13,-61.53 294.8,-68.5"/>
</g>
<!-- Node275 -->
<g id="node29" class="node">
<title>Node275</title>
<g id="a_node29"><a xlink:href="quickjs_8c.html#a033dd3ebd29c4eb9f0baff1dd0fec0b1" target="_top" xlink:title=" ">
<polygon fill="none" stroke="black" points="276,-0.5 276,-30.5 429,-30.5 429,-0.5 276,-0.5"/>
<text text-anchor="start" x="284" y="-18.5" font-family="Helvetica,sans-Serif" font-size="10.00">JS_ThrowTypeErrorDetached</text>
<text text-anchor="middle" x="352.5" y="-7.5" font-family="Helvetica,sans-Serif" font-size="10.00">ArrayBuffer</text>
</a>
</g>
</g>
<!-- Node444&#45;&gt;Node275 -->
<g id="edge69" class="edge">
<title>Node444&#45;&gt;Node275</title>
<path fill="none" stroke="midnightblue" d="M223.5,-60.42C239.59,-54.08 258.65,-46.74 276,-40.5 282.05,-38.32 288.4,-36.11 294.74,-33.95"/>
<polygon fill="midnightblue" stroke="midnightblue" points="296.3,-37.11 304.65,-30.6 294.06,-30.48 296.3,-37.11"/>
</g>
<!-- Node276 -->
<g id="node30" class="node">
<title>Node276</title>
<g id="a_node30"><a xlink:href="quickjs_8c.html#a869fa88a646c0a1914ec2e559b193b5c" target="_top" xlink:title=" ">
<polygon fill="none" stroke="black" points="283,-88 283,-107 422,-107 422,-88 283,-88"/>
<text text-anchor="middle" x="352.5" y="-95" font-family="Helvetica,sans-Serif" font-size="10.00">typed_array_is_detached</text>
</a>
</g>
</g>
<!-- Node444&#45;&gt;Node276 -->
<g id="edge70" class="edge">
<title>Node444&#45;&gt;Node276</title>
<path fill="none" stroke="midnightblue" d="M240.19,-82.7C250.66,-84.09 261.82,-85.58 272.88,-87.05"/>
<polygon fill="midnightblue" stroke="midnightblue" points="272.61,-90.54 282.99,-88.39 273.53,-83.61 272.61,-90.54"/>
</g>
</g>
</svg>
        <g id="navigator" transform="translate(0 0)" fill="#404254">
                <rect fill="#f2f5e9" fill-opacity="0.5" stroke="#606060" stroke-width=".5" x="0" y="0" width="60" height="60"/>
                <use id="zoomplus" xlink:href="#zoomPlus" x="17" y="9" onmousedown="handleZoom(evt,'in')"/>
                <use id="zoomminus" xlink:href="#zoomMin" x="42" y="9" onmousedown="handleZoom(evt,'out')"/>
                <use id="reset" xlink:href="#resetDef" x="30" y="36" onmousedown="handleReset()"/>
                <g id="arrowUp" xlink:href="#dirArrow" transform="translate(30 24)" onmousedown="handlePan(0,-1)">
                  <use xlink:href="#rim" fill="#404040">
                        <set attributeName="fill" to="#808080" begin="arrowUp.mouseover" end="arrowUp.mouseout"/>
                  </use>
                  <path fill="none" stroke="white" stroke-width="1.5" d="M0,-3.0v7 M-2.5,-0.5L0,-3.0L2.5,-0.5"/>
                </g>
                <g id="arrowRight" xlink:href="#dirArrow" transform="rotate(90) translate(36 -43)" onmousedown="handlePan(1,0)">
                  <use xlink:href="#rim" fill="#404040">
                        <set attributeName="fill" to="#808080" begin="arrowRight.mouseover" end="arrowRight.mouseout"/>
                  </use>
                  <path fill="none" stroke="white" stroke-width="1.5" d="M0,-3.0v7 M-2.5,-0.5L0,-3.0L2.5,-0.5"/>
                </g>
                <g id="arrowDown" xlink:href="#dirArrow" transform="rotate(180) translate(-30 -48)" onmousedown="handlePan(0,1)">
                  <use xlink:href="#rim" fill="#404040">
                        <set attributeName="fill" to="#808080" begin="arrowDown.mouseover" end="arrowDown.mouseout"/>
                  </use>
                  <path fill="none" stroke="white" stroke-width="1.5" d="M0,-3.0v7 M-2.5,-0.5L0,-3.0L2.5,-0.5"/>
                </g>
                <g id="arrowLeft" xlink:href="#dirArrow" transform="rotate(270) translate(-36 17)" onmousedown="handlePan(-1,0)">
                  <use xlink:href="#rim" fill="#404040">
                        <set attributeName="fill" to="#808080" begin="arrowLeft.mouseover" end="arrowLeft.mouseout"/>
                  </use>
                  <path fill="none" stroke="white" stroke-width="1.5" d="M0,-3.0v7 M-2.5,-0.5L0,-3.0L2.5,-0.5"/>
                </g>
        </g>
        <svg viewBox="0 0 15 15" width="100%" height="30px" preserveAspectRatio="xMaxYMin meet">
         <g id="arrow_out" transform="scale(0.3 0.3)">
          <a xlink:href="quickjs_8c_a36c1692489542a86dd79a7d39ab8ff95_cgraph_org.svg" target="_base">
           <rect id="button" ry="5" rx="5" y="6" x="6" height="38" width="38"
                fill="#f2f5e9" fill-opacity="0.5" stroke="#606060" stroke-width="1.0"/>
           <path id="arrow"
             d="M 11.500037,31.436501 C 11.940474,20.09759 22.043105,11.32322 32.158766,21.979434 L 37.068811,17.246167 C 37.068811,17.246167 37.088388,32 37.088388,32 L 22.160133,31.978069 C 22.160133,31.978069 26.997745,27.140456 26.997745,27.140456 C 18.528582,18.264221 13.291696,25.230495 11.500037,31.436501 z"
             style="fill:#404040;"/>
          </a>
         </g>
        </svg>
</svg>
