<?xml version="1.0" encoding="UTF-8" standalone="no"?>
<!DOCTYPE svg PUBLIC "-//W3C//DTD SVG 1.1//EN"
 "http://www.w3.org/Graphics/SVG/1.1/DTD/svg11.dtd">
<!-- Generated by graphviz version 2.43.0 (0)
 -->
<!-- Title: js_generator_function_call Pages: 1 -->
<!--zoomable 1082 -->
<svg id="main" version="1.1" xmlns="http://www.w3.org/2000/svg" xmlns:xlink="http://www.w3.org/1999/xlink" xml:space="preserve" onload="init(evt)">
<style type="text/css"><![CDATA[
.edge:hover path { stroke: red; }
.edge:hover polygon { stroke: red; fill: red; }
]]></style>
<script type="text/javascript"><![CDATA[
var edges = document.getElementsByTagName('g');
if (edges && edges.length) {
  for (var i=0;i<edges.length;i++) {
    if (edges[i].id.substr(0,4)=='edge') {
      edges[i].setAttribute('class','edge');
    }
  }
}
]]></script>
        <defs>
                <circle id="rim" cx="0" cy="0" r="7"/>
                <circle id="rim2" cx="0" cy="0" r="3.5"/>
                <g id="zoomPlus">
                        <use xlink:href="#rim" fill="#404040">
                                <set attributeName="fill" to="#808080" begin="zoomplus.mouseover" end="zoomplus.mouseout"/>
                        </use>
                        <path d="M-4,0h8M0,-4v8" fill="none" stroke="white" stroke-width="1.5" pointer-events="none"/>
                </g>
                <g id="zoomMin">
                        <use xlink:href="#rim" fill="#404040">
                                <set attributeName="fill" to="#808080" begin="zoomminus.mouseover" end="zoomminus.mouseout"/>
                        </use>
                        <path d="M-4,0h8" fill="none" stroke="white" stroke-width="1.5" pointer-events="none"/>
                </g>
                <g id="dirArrow">
                        <path fill="none" stroke="white" stroke-width="1.5" d="M0,-3.0v7 M-2.5,-0.5L0,-3.0L2.5,-0.5"/>
                </g>
               <g id="resetDef">
                       <use xlink:href="#rim2" fill="#404040">
                               <set attributeName="fill" to="#808080" begin="reset.mouseover" end="reset.mouseout"/>
                       </use>
               </g>
        </defs>

<script type="text/javascript">
var viewWidth = 980;
var viewHeight = 1082;
var sectionId = 'dynsection-68';
</script>
<script xlink:href="svgpan.js"/>
<svg id="graph" class="graph">
<g id="viewport">
<title>js_generator_function_call</title>
<!-- Node1 -->
<g id="node1" class="node">
<title>Node1</title>
<g id="a_node1"><a xlink:title=" ">
<polygon fill="#bfbfbf" stroke="black" points="0,-340.5 0,-359.5 145,-359.5 145,-340.5 0,-340.5"/>
<text text-anchor="middle" x="72.5" y="-347.5" font-family="Helvetica,sans-Serif" font-size="10.00">js_generator_function_call</text>
</a>
</g>
</g>
<!-- Node2 -->
<g id="node2" class="node">
<title>Node2</title>
<g id="a_node2"><a xlink:href="quickjs_8c.html#a4bd986b91b68c6aa485f57c6142acccb" target="_top" xlink:title=" ">
<polygon fill="none" stroke="black" points="360.5,-893.5 360.5,-912.5 452.5,-912.5 452.5,-893.5 360.5,-893.5"/>
<text text-anchor="middle" x="406.5" y="-900.5" font-family="Helvetica,sans-Serif" font-size="10.00">async_func_init</text>
</a>
</g>
</g>
<!-- Node1&#45;&gt;Node2 -->
<g id="edge1" class="edge">
<title>Node1&#45;&gt;Node2</title>
<path fill="none" stroke="midnightblue" d="M79.26,-359.6C118.1,-424.3 341.74,-796.79 394.4,-884.5"/>
<polygon fill="midnightblue" stroke="midnightblue" points="391.43,-886.37 399.58,-893.14 397.43,-882.76 391.43,-886.37"/>
</g>
<!-- Node6 -->
<g id="node6" class="node">
<title>Node6</title>
<g id="a_node6"><a xlink:href="quickjs_8c.html#ade71a22dc56e7371392393df663b28b3" target="_top" xlink:title=" ">
<polygon fill="none" stroke="black" points="191,-376.5 191,-395.5 304,-395.5 304,-376.5 191,-376.5"/>
<text text-anchor="middle" x="247.5" y="-383.5" font-family="Helvetica,sans-Serif" font-size="10.00">async_func_resume</text>
</a>
</g>
</g>
<!-- Node1&#45;&gt;Node6 -->
<g id="edge5" class="edge">
<title>Node1&#45;&gt;Node6</title>
<path fill="none" stroke="midnightblue" d="M119.41,-359.55C141.29,-364.11 167.66,-369.59 190.7,-374.39"/>
<polygon fill="midnightblue" stroke="midnightblue" points="190.18,-377.85 200.68,-376.47 191.6,-371 190.18,-377.85"/>
</g>
<!-- Node25 -->
<g id="node14" class="node">
<title>Node25</title>
<g id="a_node14"><a xlink:href="quickjs_8c.html#a80e54dcf9ac687d4ccc2f90273565f30" target="_top" xlink:title=" ">
<polygon fill="none" stroke="black" points="809.5,-684.5 809.5,-703.5 859.5,-703.5 859.5,-684.5 809.5,-684.5"/>
<text text-anchor="middle" x="834.5" y="-691.5" font-family="Helvetica,sans-Serif" font-size="10.00">js_free</text>
</a>
</g>
</g>
<!-- Node1&#45;&gt;Node25 -->
<g id="edge50" class="edge">
<title>Node1&#45;&gt;Node25</title>
<path fill="none" stroke="midnightblue" d="M78.01,-340.29C102.75,-288.6 227.46,-48 405.5,-48 405.5,-48 405.5,-48 568.5,-48 667.63,-48 704.53,-81.18 759,-164 815.87,-250.47 830.18,-587.76 832.93,-673.89"/>
<polygon fill="midnightblue" stroke="midnightblue" points="829.44,-674.24 833.24,-684.12 836.44,-674.02 829.44,-674.24"/>
</g>
<!-- Node59 -->
<g id="node16" class="node">
<title>Node59</title>
<g id="a_node16"><a xlink:href="quickjs_8h.html#afaa20c47565bc704c6c85f3d77254e7d" target="_top" xlink:title=" ">
<polygon fill="none" stroke="red" points="795,-760.5 795,-779.5 874,-779.5 874,-760.5 795,-760.5"/>
<text text-anchor="middle" x="834.5" y="-767.5" font-family="Helvetica,sans-Serif" font-size="10.00">JS_FreeValue</text>
</a>
</g>
</g>
<!-- Node1&#45;&gt;Node59 -->
<g id="edge51" class="edge">
<title>Node1&#45;&gt;Node59</title>
<path fill="none" stroke="midnightblue" d="M73.32,-359.69C72.25,-445.6 75.7,-1074 405.5,-1074 405.5,-1074 405.5,-1074 568.5,-1074 606.7,-1074 772.35,-853.08 820.39,-787.89"/>
<polygon fill="midnightblue" stroke="midnightblue" points="823.26,-789.9 826.37,-779.77 817.62,-785.75 823.26,-789.9"/>
</g>
<!-- Node77 -->
<g id="node17" class="node">
<title>Node77</title>
<g id="a_node17"><a xlink:href="quickjs_8h.html#ad80a83d73e9b7d872b88fbf2943aebe9" target="_top" xlink:title=" ">
<polygon fill="none" stroke="black" points="672,-266.5 672,-285.5 759,-285.5 759,-266.5 672,-266.5"/>
<text text-anchor="middle" x="715.5" y="-273.5" font-family="Helvetica,sans-Serif" font-size="10.00">JS_IsException</text>
</a>
</g>
</g>
<!-- Node1&#45;&gt;Node77 -->
<g id="edge52" class="edge">
<title>Node1&#45;&gt;Node77</title>
<path fill="none" stroke="midnightblue" d="M83.65,-340.3C101.8,-323.41 141.64,-288.47 181,-268 312.56,-199.58 352.46,-189.71 499,-167 559.17,-157.67 581.81,-139.24 636,-167 672.85,-185.87 696.34,-230.99 707.28,-256.88"/>
<polygon fill="midnightblue" stroke="midnightblue" points="704.12,-258.39 711.09,-266.36 710.61,-255.78 704.12,-258.39"/>
</g>
<!-- Node439 -->
<g id="node27" class="node">
<title>Node439</title>
<g id="a_node27"><a xlink:href="quickjs_8c.html#a79e765cc00783901041f08e060c14287" target="_top" xlink:title=" ">
<polygon fill="none" stroke="black" points="181,-840.5 181,-859.5 314,-859.5 314,-840.5 181,-840.5"/>
<text text-anchor="middle" x="247.5" y="-847.5" font-family="Helvetica,sans-Serif" font-size="10.00">free_generator_stack_rt</text>
</a>
</g>
</g>
<!-- Node1&#45;&gt;Node439 -->
<g id="edge39" class="edge">
<title>Node1&#45;&gt;Node439</title>
<path fill="none" stroke="midnightblue" d="M76.5,-359.72C88.8,-399.42 136.8,-553.16 181,-678 200.83,-734.02 226.42,-799.42 238.93,-831.01"/>
<polygon fill="midnightblue" stroke="midnightblue" points="235.7,-832.36 242.65,-840.36 242.21,-829.78 235.7,-832.36"/>
</g>
<!-- Node299 -->
<g id="node29" class="node">
<title>Node299</title>
<g id="a_node29"><a xlink:href="quickjs_8c.html#a93dbf502b17d1328c524401335f60499" target="_top" xlink:title=" ">
<polygon fill="none" stroke="red" points="350,-228.5 350,-247.5 463,-247.5 463,-228.5 350,-228.5"/>
<text text-anchor="middle" x="406.5" y="-235.5" font-family="Helvetica,sans-Serif" font-size="10.00">js_create_from_ctor</text>
</a>
</g>
</g>
<!-- Node1&#45;&gt;Node299 -->
<g id="edge43" class="edge">
<title>Node1&#45;&gt;Node299</title>
<path fill="none" stroke="midnightblue" d="M101.81,-340.45C161.47,-320.32 300.16,-273.54 367.48,-250.83"/>
<polygon fill="midnightblue" stroke="midnightblue" points="368.91,-254.04 377.27,-247.52 366.67,-247.41 368.91,-254.04"/>
</g>
<!-- Node279 -->
<g id="node30" class="node">
<title>Node279</title>
<g id="a_node30"><a xlink:href="quickjs_8c.html#a0ddf716409e51648f0d59e7521150d19" target="_top" xlink:title=" ">
<polygon fill="none" stroke="black" points="205.5,-0.5 205.5,-19.5 289.5,-19.5 289.5,-0.5 205.5,-0.5"/>
<text text-anchor="middle" x="247.5" y="-7.5" font-family="Helvetica,sans-Serif" font-size="10.00">JS_SetOpaque</text>
</a>
</g>
</g>
<!-- Node1&#45;&gt;Node279 -->
<g id="edge53" class="edge">
<title>Node1&#45;&gt;Node279</title>
<path fill="none" stroke="midnightblue" d="M73.88,-340.49C76.08,-298.38 90.49,-126.64 181,-34 185.39,-29.51 190.68,-25.85 196.34,-22.88"/>
<polygon fill="midnightblue" stroke="midnightblue" points="197.79,-26.06 205.45,-18.74 194.9,-19.69 197.79,-26.06"/>
</g>
<!-- Node3 -->
<g id="node3" class="node">
<title>Node3</title>
<g id="a_node3"><a xlink:href="list_8h.html#a663527a4d757540b2177bef0db1ce5c0" target="_top" xlink:title=" ">
<polygon fill="none" stroke="black" points="526.5,-874.5 526.5,-893.5 608.5,-893.5 608.5,-874.5 526.5,-874.5"/>
<text text-anchor="middle" x="567.5" y="-881.5" font-family="Helvetica,sans-Serif" font-size="10.00">init_list_head</text>
</a>
</g>
</g>
<!-- Node2&#45;&gt;Node3 -->
<g id="edge2" class="edge">
<title>Node2&#45;&gt;Node3</title>
<path fill="none" stroke="midnightblue" d="M452.64,-897.61C472.51,-895.23 495.93,-892.43 516.34,-889.99"/>
<polygon fill="midnightblue" stroke="midnightblue" points="516.89,-893.45 526.4,-888.79 516.06,-886.5 516.89,-893.45"/>
</g>
<!-- Node4 -->
<g id="node4" class="node">
<title>Node4</title>
<g id="a_node4"><a xlink:href="quickjs_8h.html#a775522f2d084fc8fa0fcb33f390006b4" target="_top" xlink:title=" ">
<polygon fill="none" stroke="black" points="677,-722.5 677,-741.5 754,-741.5 754,-722.5 677,-722.5"/>
<text text-anchor="middle" x="715.5" y="-729.5" font-family="Helvetica,sans-Serif" font-size="10.00">JS_DupValue</text>
</a>
</g>
</g>
<!-- Node2&#45;&gt;Node4 -->
<g id="edge3" class="edge">
<title>Node2&#45;&gt;Node4</title>
<path fill="none" stroke="midnightblue" d="M437.74,-912.56C484.38,-925.35 574.89,-942.19 636,-903 689.08,-868.96 706.74,-789.03 712.22,-751.77"/>
<polygon fill="midnightblue" stroke="midnightblue" points="715.72,-752.05 713.56,-741.67 708.78,-751.13 715.72,-752.05"/>
</g>
<!-- Node5 -->
<g id="node5" class="node">
<title>Node5</title>
<g id="a_node5"><a xlink:href="cutils_8h.html#a94f155fcce337a2b9d4719ed8042cbbe" target="_top" xlink:title=" ">
<polygon fill="none" stroke="black" points="539.5,-950.5 539.5,-969.5 595.5,-969.5 595.5,-950.5 539.5,-950.5"/>
<text text-anchor="middle" x="567.5" y="-957.5" font-family="Helvetica,sans-Serif" font-size="10.00">max_int</text>
</a>
</g>
</g>
<!-- Node2&#45;&gt;Node5 -->
<g id="edge4" class="edge">
<title>Node2&#45;&gt;Node5</title>
<path fill="none" stroke="midnightblue" d="M433.92,-912.56C452.19,-919.17 477.06,-928.14 499,-936 509.01,-939.59 519.86,-943.45 529.88,-947.01"/>
<polygon fill="midnightblue" stroke="midnightblue" points="528.96,-950.4 539.56,-950.45 531.31,-943.81 528.96,-950.4"/>
</g>
<!-- Node7 -->
<g id="node7" class="node">
<title>Node7</title>
<g id="a_node7"><a xlink:href="quickjs_8c.html#ac2894ff4edcdb4e6841bcce9c76081e3" target="_top" xlink:title=" ">
<polygon fill="none" stroke="red" points="363,-551.5 363,-570.5 450,-570.5 450,-551.5 363,-551.5"/>
<text text-anchor="middle" x="406.5" y="-558.5" font-family="Helvetica,sans-Serif" font-size="10.00">JS_CallInternal</text>
</a>
</g>
</g>
<!-- Node6&#45;&gt;Node7 -->
<g id="edge6" class="edge">
<title>Node6&#45;&gt;Node7</title>
<path fill="none" stroke="midnightblue" d="M257.16,-395.66C282.52,-423.92 356.82,-506.74 389.63,-543.31"/>
<polygon fill="midnightblue" stroke="midnightblue" points="387.39,-546.05 396.67,-551.16 392.6,-541.38 387.39,-546.05"/>
</g>
<!-- Node221 -->
<g id="node22" class="node">
<title>Node221</title>
<g id="a_node22"><a xlink:href="quickjs_8c.html#af23ec7c9970ceb4671c59da7abd4b078" target="_top" xlink:title=" ">
<polygon fill="none" stroke="red" points="499,-342.5 499,-361.5 636,-361.5 636,-342.5 499,-342.5"/>
<text text-anchor="middle" x="567.5" y="-349.5" font-family="Helvetica,sans-Serif" font-size="10.00">js_check_stack_overflow</text>
</a>
</g>
</g>
<!-- Node6&#45;&gt;Node221 -->
<g id="edge37" class="edge">
<title>Node6&#45;&gt;Node221</title>
<path fill="none" stroke="midnightblue" d="M304.26,-380.04C355.42,-374.57 431.72,-366.41 488.85,-360.3"/>
<polygon fill="midnightblue" stroke="midnightblue" points="489.35,-363.77 498.92,-359.23 488.6,-356.81 489.35,-363.77"/>
</g>
<!-- Node223 -->
<g id="node26" class="node">
<title>Node223</title>
<g id="a_node26"><a xlink:href="quickjs_8c.html#a8353f635fb8a20553c08db8cf38c17e0" target="_top" xlink:title=" ">
<polygon fill="none" stroke="black" points="502,-418.5 502,-437.5 633,-437.5 633,-418.5 502,-418.5"/>
<text text-anchor="middle" x="567.5" y="-425.5" font-family="Helvetica,sans-Serif" font-size="10.00">JS_ThrowStackOverflow</text>
</a>
</g>
</g>
<!-- Node6&#45;&gt;Node223 -->
<g id="edge38" class="edge">
<title>Node6&#45;&gt;Node223</title>
<path fill="none" stroke="midnightblue" d="M304.26,-393.36C356.26,-400.23 434.23,-410.53 491.65,-418.11"/>
<polygon fill="midnightblue" stroke="midnightblue" points="491.38,-421.61 501.75,-419.45 492.3,-414.67 491.38,-421.61"/>
</g>
<!-- Node7&#45;&gt;Node3 -->
<g id="edge26" class="edge">
<title>Node7&#45;&gt;Node3</title>
<path fill="none" stroke="midnightblue" d="M407.5,-570.54C408.03,-611.29 415.52,-772.71 499,-860 504.02,-865.25 510.27,-869.36 516.92,-872.57"/>
<polygon fill="midnightblue" stroke="midnightblue" points="515.59,-875.8 526.16,-876.41 518.27,-869.34 515.59,-875.8"/>
</g>
<!-- Node7&#45;&gt;Node4 -->
<g id="edge29" class="edge">
<title>Node7&#45;&gt;Node4</title>
<path fill="none" stroke="midnightblue" d="M408.66,-570.84C413.11,-603.57 432.35,-709.12 499,-751 556.36,-787.04 639.86,-762.87 684.2,-745.44"/>
<polygon fill="midnightblue" stroke="midnightblue" points="685.62,-748.64 693.56,-741.62 682.98,-742.15 685.62,-748.64"/>
</g>
<!-- Node7&#45;&gt;Node7 -->
<g id="edge27" class="edge">
<title>Node7&#45;&gt;Node7</title>
<path fill="none" stroke="midnightblue" d="M382.15,-570.76C370.3,-579.57 378.42,-589 406.5,-589 424.93,-589 434.76,-584.94 435.99,-579.65"/>
<polygon fill="midnightblue" stroke="midnightblue" points="438.89,-577.66 430.85,-570.76 432.82,-581.17 438.89,-577.66"/>
</g>
<!-- Node8 -->
<g id="node8" class="node">
<title>Node8</title>
<g id="a_node8"><a xlink:href="quickjs_8c.html#a853f0924d441ea4225488f37c8b69f9a" target="_top" xlink:title=" ">
<polygon fill="none" stroke="black" points="675.5,-456.5 675.5,-475.5 755.5,-475.5 755.5,-456.5 675.5,-456.5"/>
<text text-anchor="middle" x="715.5" y="-463.5" font-family="Helvetica,sans-Serif" font-size="10.00">__attribute__</text>
</a>
</g>
</g>
<!-- Node7&#45;&gt;Node8 -->
<g id="edge7" class="edge">
<title>Node7&#45;&gt;Node8</title>
<path fill="none" stroke="midnightblue" d="M415.37,-551.43C429.89,-534.57 462.72,-499.94 499,-485 552.65,-462.91 620.01,-460.56 665.01,-462.17"/>
<polygon fill="midnightblue" stroke="midnightblue" points="664.96,-465.67 675.1,-462.61 665.26,-458.68 664.96,-465.67"/>
</g>
<!-- Node9 -->
<g id="node9" class="node">
<title>Node9</title>
<g id="a_node9"><a xlink:href="quickjs_8c.html#a877fcb7651d95b411ce70e62b7f4a1f0" target="_top" xlink:title=" ">
<polygon fill="none" stroke="black" points="505,-570.5 505,-589.5 630,-589.5 630,-570.5 505,-570.5"/>
<text text-anchor="middle" x="567.5" y="-577.5" font-family="Helvetica,sans-Serif" font-size="10.00">__JS_AtomFromUInt32</text>
</a>
</g>
</g>
<!-- Node7&#45;&gt;Node9 -->
<g id="edge8" class="edge">
<title>Node7&#45;&gt;Node9</title>
<path fill="none" stroke="midnightblue" d="M450.11,-566.09C463.92,-567.74 479.63,-569.62 494.95,-571.45"/>
<polygon fill="midnightblue" stroke="midnightblue" points="494.59,-574.93 504.94,-572.64 495.43,-567.98 494.59,-574.93"/>
</g>
<!-- Node10 -->
<g id="node10" class="node">
<title>Node10</title>
<g id="a_node10"><a xlink:href="quickjs_8h.html#a9bf98b18de88b4199910a43e933eb97d" target="_top" xlink:title=" ">
<polygon fill="none" stroke="black" points="517.5,-532.5 517.5,-551.5 617.5,-551.5 617.5,-532.5 517.5,-532.5"/>
<text text-anchor="middle" x="567.5" y="-539.5" font-family="Helvetica,sans-Serif" font-size="10.00">__JS_NewFloat64</text>
</a>
</g>
</g>
<!-- Node7&#45;&gt;Node10 -->
<g id="edge9" class="edge">
<title>Node7&#45;&gt;Node10</title>
<path fill="none" stroke="midnightblue" d="M450.11,-555.91C467.65,-553.81 488.28,-551.35 507.25,-549.08"/>
<polygon fill="midnightblue" stroke="midnightblue" points="507.78,-552.54 517.3,-547.88 506.95,-545.59 507.78,-552.54"/>
</g>
<!-- Node11 -->
<g id="node11" class="node">
<title>Node11</title>
<g id="a_node11"><a xlink:href="quickjs_8c.html#a74547db03bf739a52c83a326b32db997" target="_top" xlink:title=" ">
<polygon fill="none" stroke="red" points="527,-494.5 527,-513.5 608,-513.5 608,-494.5 527,-494.5"/>
<text text-anchor="middle" x="567.5" y="-501.5" font-family="Helvetica,sans-Serif" font-size="10.00">add_property</text>
</a>
</g>
</g>
<!-- Node7&#45;&gt;Node11 -->
<g id="edge10" class="edge">
<title>Node7&#45;&gt;Node11</title>
<path fill="none" stroke="midnightblue" d="M428.67,-551.36C447.04,-543.21 474.46,-531.51 499,-523 505.57,-520.72 512.57,-518.51 519.47,-516.46"/>
<polygon fill="midnightblue" stroke="midnightblue" points="520.84,-519.71 529.47,-513.57 518.89,-512.98 520.84,-519.71"/>
</g>
<!-- Node67 -->
<g id="node12" class="node">
<title>Node67</title>
<g id="a_node12"><a xlink:href="quickjs_8c.html#a4956f45ffd2849b96dc051277264f87a" target="_top" xlink:title=" ">
<polygon fill="none" stroke="red" points="526.5,-608.5 526.5,-627.5 608.5,-627.5 608.5,-608.5 526.5,-608.5"/>
<text text-anchor="middle" x="567.5" y="-615.5" font-family="Helvetica,sans-Serif" font-size="10.00">build_arg_list</text>
</a>
</g>
</g>
<!-- Node7&#45;&gt;Node67 -->
<g id="edge11" class="edge">
<title>Node7&#45;&gt;Node67</title>
<path fill="none" stroke="midnightblue" d="M428.67,-570.64C447.04,-578.79 474.46,-590.49 499,-599 505.57,-601.28 512.57,-603.49 519.47,-605.54"/>
<polygon fill="midnightblue" stroke="midnightblue" points="518.89,-609.02 529.47,-608.43 520.84,-602.29 518.89,-609.02"/>
</g>
<!-- Node68 -->
<g id="node13" class="node">
<title>Node68</title>
<g id="a_node13"><a xlink:href="quickjs_8c.html#ac864482356b3efc2d0b0a509fcfa4c7c" target="_top" xlink:title=" ">
<polygon fill="none" stroke="black" points="677,-684.5 677,-703.5 754,-703.5 754,-684.5 677,-684.5"/>
<text text-anchor="middle" x="715.5" y="-691.5" font-family="Helvetica,sans-Serif" font-size="10.00">free_arg_list</text>
</a>
</g>
</g>
<!-- Node7&#45;&gt;Node68 -->
<g id="edge23" class="edge">
<title>Node7&#45;&gt;Node68</title>
<path fill="none" stroke="midnightblue" d="M411.8,-570.51C422.66,-593.26 453.57,-650.7 499,-675 551.23,-702.94 620.9,-703.67 666.69,-700.1"/>
<polygon fill="midnightblue" stroke="midnightblue" points="667.29,-703.57 676.94,-699.2 666.67,-696.59 667.29,-703.57"/>
</g>
<!-- Node7&#45;&gt;Node59 -->
<g id="edge30" class="edge">
<title>Node7&#45;&gt;Node59</title>
<path fill="none" stroke="midnightblue" d="M408.15,-570.98C411.03,-606.32 426.07,-725.95 499,-774 591.3,-834.81 731.24,-802.99 796.97,-782.66"/>
<polygon fill="midnightblue" stroke="midnightblue" points="798.39,-785.88 806.86,-779.52 796.27,-779.21 798.39,-785.88"/>
</g>
<!-- Node7&#45;&gt;Node77 -->
<g id="edge32" class="edge">
<title>Node7&#45;&gt;Node77</title>
<path fill="none" stroke="midnightblue" d="M410.44,-551.45C419.19,-524.61 447.74,-447.95 499,-409 549.31,-370.77 582.99,-405.38 636,-371 666.35,-351.31 690.86,-316.18 704,-294.6"/>
<polygon fill="midnightblue" stroke="midnightblue" points="707.16,-296.14 709.22,-285.74 701.12,-292.58 707.16,-296.14"/>
</g>
<!-- Node163 -->
<g id="node18" class="node">
<title>Node163</title>
<g id="a_node18"><a xlink:href="quickjs_8c.html#a61c8dfb5e807af1b6ff7d8ca61576dda" target="_top" xlink:title=" ">
<polygon fill="none" stroke="red" points="520.5,-646.5 520.5,-665.5 614.5,-665.5 614.5,-646.5 520.5,-646.5"/>
<text text-anchor="middle" x="567.5" y="-653.5" font-family="Helvetica,sans-Serif" font-size="10.00">build_backtrace</text>
</a>
</g>
</g>
<!-- Node7&#45;&gt;Node163 -->
<g id="edge19" class="edge">
<title>Node7&#45;&gt;Node163</title>
<path fill="none" stroke="midnightblue" d="M416.41,-570.67C431.75,-586.77 464.81,-619.04 499,-637 503.29,-639.25 507.87,-641.26 512.56,-643.05"/>
<polygon fill="midnightblue" stroke="midnightblue" points="511.66,-646.45 522.26,-646.43 513.96,-639.84 511.66,-646.45"/>
</g>
<!-- Node249 -->
<g id="node19" class="node">
<title>Node249</title>
<g id="a_node19"><a xlink:href="quickjs_8c.html#a344894112559c2ba75043fd10bcfa02f" target="_top" xlink:title=" ">
<polygon fill="none" stroke="red" points="517,-722.5 517,-741.5 618,-741.5 618,-722.5 517,-722.5"/>
<text text-anchor="middle" x="567.5" y="-729.5" font-family="Helvetica,sans-Serif" font-size="10.00">close_lexical_var</text>
</a>
</g>
</g>
<!-- Node7&#45;&gt;Node249 -->
<g id="edge20" class="edge">
<title>Node7&#45;&gt;Node249</title>
<path fill="none" stroke="midnightblue" d="M410.95,-570.81C420.62,-596.95 450.53,-668.98 499,-708 504.09,-712.09 509.93,-715.52 515.99,-718.38"/>
<polygon fill="midnightblue" stroke="midnightblue" points="515.07,-721.78 525.65,-722.41 517.77,-715.33 515.07,-721.78"/>
</g>
<!-- Node250 -->
<g id="node20" class="node">
<title>Node250</title>
<g id="a_node20"><a xlink:href="quickjs_8c.html#a1782043fce951bd4f0d91c7796b31e24" target="_top" xlink:title=" ">
<polygon fill="none" stroke="red" points="524,-988.5 524,-1007.5 611,-1007.5 611,-988.5 524,-988.5"/>
<text text-anchor="middle" x="567.5" y="-995.5" font-family="Helvetica,sans-Serif" font-size="10.00">close_var_refs</text>
</a>
</g>
</g>
<!-- Node7&#45;&gt;Node250 -->
<g id="edge22" class="edge">
<title>Node7&#45;&gt;Node250</title>
<path fill="none" stroke="midnightblue" d="M408.98,-570.51C418.31,-629.82 469.44,-947.65 499,-979 503.23,-983.48 508.42,-986.94 514.03,-989.59"/>
<polygon fill="midnightblue" stroke="midnightblue" points="513.19,-993.02 523.78,-993.35 515.71,-986.49 513.19,-993.02"/>
</g>
<!-- Node56 -->
<g id="node21" class="node">
<title>Node56</title>
<g id="a_node21"><a xlink:href="quickjs_8c.html#a9e7b4bccf927d811b0f99b40b08c0472" target="_top" xlink:title=" ">
<polygon fill="none" stroke="red" points="796.5,-836.5 796.5,-855.5 872.5,-855.5 872.5,-836.5 796.5,-836.5"/>
<text text-anchor="middle" x="834.5" y="-843.5" font-family="Helvetica,sans-Serif" font-size="10.00">free_var_ref</text>
</a>
</g>
</g>
<!-- Node7&#45;&gt;Node56 -->
<g id="edge24" class="edge">
<title>Node7&#45;&gt;Node56</title>
<path fill="none" stroke="midnightblue" d="M407.79,-570.72C409.48,-608.1 420.98,-743.57 499,-805 582.57,-870.8 716.15,-863.82 786.56,-854.25"/>
<polygon fill="midnightblue" stroke="midnightblue" points="787.07,-857.71 796.47,-852.82 786.08,-850.78 787.07,-857.71"/>
</g>
<!-- Node7&#45;&gt;Node221 -->
<g id="edge28" class="edge">
<title>Node7&#45;&gt;Node221</title>
<path fill="none" stroke="midnightblue" d="M409.55,-551.39C416.49,-521.1 441.95,-426.7 499,-376 503.53,-371.98 508.77,-368.62 514.3,-365.81"/>
<polygon fill="midnightblue" stroke="midnightblue" points="516.07,-368.85 523.79,-361.6 513.23,-362.46 516.07,-368.85"/>
</g>
<!-- Node70 -->
<g id="node23" class="node">
<title>Node70</title>
<g id="a_node23"><a xlink:href="quickjs_8h.html#a89b7c8686c7eee70b86be722ee4730ad" target="_top" xlink:title=" ">
<polygon fill="none" stroke="red" points="523,-266.5 523,-285.5 612,-285.5 612,-266.5 523,-266.5"/>
<text text-anchor="middle" x="567.5" y="-273.5" font-family="Helvetica,sans-Serif" font-size="10.00">JS_GetProperty</text>
</a>
</g>
</g>
<!-- Node7&#45;&gt;Node70 -->
<g id="edge31" class="edge">
<title>Node7&#45;&gt;Node70</title>
<path fill="none" stroke="midnightblue" d="M407.77,-551.34C409.41,-512.85 420.72,-368.95 499,-295 503.15,-291.08 508.04,-287.96 513.27,-285.48"/>
<polygon fill="midnightblue" stroke="midnightblue" points="514.92,-288.59 522.94,-281.66 512.35,-282.07 514.92,-288.59"/>
</g>
<!-- Node289 -->
<g id="node24" class="node">
<title>Node289</title>
<g id="a_node24"><a xlink:href="quickjs_8h.html#a3d68fe446df2d9c7d1900b16371bff5b" target="_top" xlink:title=" ">
<polygon fill="none" stroke="black" points="532,-228.5 532,-247.5 603,-247.5 603,-228.5 532,-228.5"/>
<text text-anchor="middle" x="567.5" y="-235.5" font-family="Helvetica,sans-Serif" font-size="10.00">JS_IsObject</text>
</a>
</g>
</g>
<!-- Node7&#45;&gt;Node289 -->
<g id="edge33" class="edge">
<title>Node7&#45;&gt;Node289</title>
<path fill="none" stroke="midnightblue" d="M407.3,-551.44C406.96,-509.88 411.31,-343.13 499,-257 505.37,-250.74 513.64,-246.51 522.19,-243.65"/>
<polygon fill="midnightblue" stroke="midnightblue" points="523.17,-247.02 531.88,-240.99 521.31,-240.27 523.17,-247.02"/>
</g>
<!-- Node129 -->
<g id="node25" class="node">
<title>Node129</title>
<g id="a_node25"><a xlink:href="quickjs_8h.html#a4e407128a9605afb77523e49e9a627fd" target="_top" xlink:title=" ">
<polygon fill="none" stroke="black" points="523,-304.5 523,-323.5 612,-323.5 612,-304.5 523,-304.5"/>
<text text-anchor="middle" x="567.5" y="-311.5" font-family="Helvetica,sans-Serif" font-size="10.00">JS_IsUndefined</text>
</a>
</g>
</g>
<!-- Node7&#45;&gt;Node129 -->
<g id="edge34" class="edge">
<title>Node7&#45;&gt;Node129</title>
<path fill="none" stroke="midnightblue" d="M408.43,-551.04C412.27,-515.67 430.14,-394.84 499,-333 503.19,-329.24 508.07,-326.21 513.25,-323.79"/>
<polygon fill="midnightblue" stroke="midnightblue" points="514.79,-326.94 522.82,-320.03 512.24,-320.43 514.79,-326.94"/>
</g>
<!-- Node7&#45;&gt;Node223 -->
<g id="edge35" class="edge">
<title>Node7&#45;&gt;Node223</title>
<path fill="none" stroke="midnightblue" d="M413.08,-551.37C425.73,-530.35 458.62,-480.05 499,-452 505.04,-447.81 511.89,-444.27 518.85,-441.31"/>
<polygon fill="midnightblue" stroke="midnightblue" points="520.3,-444.5 528.36,-437.62 517.77,-437.98 520.3,-444.5"/>
</g>
<!-- Node67&#45;&gt;Node4 -->
<g id="edge17" class="edge">
<title>Node67&#45;&gt;Node4</title>
<path fill="none" stroke="midnightblue" d="M608.74,-623.37C618.47,-626.19 628.28,-630.48 636,-637 664.55,-661.12 645.28,-686.86 672,-713 673.43,-714.4 674.98,-715.7 676.62,-716.92"/>
<polygon fill="midnightblue" stroke="midnightblue" points="674.97,-720.02 685.32,-722.3 678.65,-714.07 674.97,-720.02"/>
</g>
<!-- Node67&#45;&gt;Node8 -->
<g id="edge12" class="edge">
<title>Node67&#45;&gt;Node8</title>
<path fill="none" stroke="midnightblue" d="M608.7,-612.04C618.32,-609.23 628.09,-605.09 636,-599 674.62,-569.27 697.98,-514.7 708.27,-485.56"/>
<polygon fill="midnightblue" stroke="midnightblue" points="711.7,-486.33 711.58,-475.74 705.07,-484.1 711.7,-486.33"/>
</g>
<!-- Node67&#45;&gt;Node68 -->
<g id="edge13" class="edge">
<title>Node67&#45;&gt;Node68</title>
<path fill="none" stroke="midnightblue" d="M608.63,-626.78C617.85,-629.48 627.45,-632.86 636,-637 658.38,-647.84 681.06,-665.14 696.25,-677.84"/>
<polygon fill="midnightblue" stroke="midnightblue" points="693.99,-680.51 703.86,-684.35 698.54,-675.19 693.99,-680.51"/>
</g>
<!-- Node67&#45;&gt;Node77 -->
<g id="edge18" class="edge">
<title>Node67&#45;&gt;Node77</title>
<path fill="none" stroke="midnightblue" d="M608.68,-613.99C618.76,-611.18 628.75,-606.56 636,-599 684.05,-548.89 655.63,-514.47 672,-447 685.36,-391.95 701.63,-327.07 709.61,-295.39"/>
<polygon fill="midnightblue" stroke="midnightblue" points="713.02,-296.18 712.07,-285.63 706.23,-294.47 713.02,-296.18"/>
</g>
<!-- Node68&#45;&gt;Node25 -->
<g id="edge14" class="edge">
<title>Node68&#45;&gt;Node25</title>
<path fill="none" stroke="midnightblue" d="M754.16,-694C768.54,-694 784.84,-694 798.91,-694"/>
<polygon fill="midnightblue" stroke="midnightblue" points="799.17,-697.5 809.17,-694 799.17,-690.5 799.17,-697.5"/>
</g>
<!-- Node68&#45;&gt;Node59 -->
<g id="edge16" class="edge">
<title>Node68&#45;&gt;Node59</title>
<path fill="none" stroke="midnightblue" d="M740.37,-703.5C746.58,-706.29 753.17,-709.53 759,-713 779.12,-724.97 800.14,-741.48 814.7,-753.65"/>
<polygon fill="midnightblue" stroke="midnightblue" points="812.59,-756.44 822.48,-760.24 817.12,-751.1 812.59,-756.44"/>
</g>
<!-- Node26 -->
<g id="node15" class="node">
<title>Node26</title>
<g id="a_node15"><a xlink:href="quickjs_8c.html#a69e19dda8a93d613203e0baa06f0ed8d" target="_top" xlink:title=" ">
<polygon fill="none" stroke="black" points="910,-836.5 910,-855.5 972,-855.5 972,-836.5 910,-836.5"/>
<text text-anchor="middle" x="941" y="-843.5" font-family="Helvetica,sans-Serif" font-size="10.00">js_free_rt</text>
</a>
</g>
</g>
<!-- Node25&#45;&gt;Node26 -->
<g id="edge15" class="edge">
<title>Node25&#45;&gt;Node26</title>
<path fill="none" stroke="midnightblue" d="M842.04,-703.51C859.12,-728.35 905.3,-795.53 927.61,-827.98"/>
<polygon fill="midnightblue" stroke="midnightblue" points="924.92,-830.24 933.47,-836.5 930.68,-826.27 924.92,-830.24"/>
</g>
<!-- Node249&#45;&gt;Node4 -->
<g id="edge21" class="edge">
<title>Node249&#45;&gt;Node4</title>
<path fill="none" stroke="midnightblue" d="M618.34,-732C633.91,-732 651.05,-732 666.49,-732"/>
<polygon fill="midnightblue" stroke="midnightblue" points="666.87,-735.5 676.87,-732 666.87,-728.5 666.87,-735.5"/>
</g>
<!-- Node56&#45;&gt;Node26 -->
<g id="edge25" class="edge">
<title>Node56&#45;&gt;Node26</title>
<path fill="none" stroke="midnightblue" d="M872.64,-846C881.41,-846 890.8,-846 899.7,-846"/>
<polygon fill="midnightblue" stroke="midnightblue" points="899.86,-849.5 909.86,-846 899.86,-842.5 899.86,-849.5"/>
</g>
<!-- Node223&#45;&gt;Node8 -->
<g id="edge36" class="edge">
<title>Node223&#45;&gt;Node8</title>
<path fill="none" stroke="midnightblue" d="M605.34,-437.59C624.35,-442.54 647.73,-448.62 667.97,-453.89"/>
<polygon fill="midnightblue" stroke="midnightblue" points="667.36,-457.35 677.92,-456.48 669.13,-450.57 667.36,-457.35"/>
</g>
<!-- Node440 -->
<g id="node28" class="node">
<title>Node440</title>
<g id="a_node28"><a xlink:href="quickjs_8c.html#ab3180b5caf3b66ac6db634e41e56a4ef" target="_top" xlink:title=" ">
<polygon fill="none" stroke="red" points="358.5,-988.5 358.5,-1007.5 454.5,-1007.5 454.5,-988.5 358.5,-988.5"/>
<text text-anchor="middle" x="406.5" y="-995.5" font-family="Helvetica,sans-Serif" font-size="10.00">async_func_free</text>
</a>
</g>
</g>
<!-- Node439&#45;&gt;Node440 -->
<g id="edge40" class="edge">
<title>Node439&#45;&gt;Node440</title>
<path fill="none" stroke="midnightblue" d="M258.8,-859.71C285.09,-884.49 354.9,-950.3 387.84,-981.35"/>
<polygon fill="midnightblue" stroke="midnightblue" points="385.69,-984.13 395.36,-988.45 390.49,-979.04 385.69,-984.13"/>
</g>
<!-- Node440&#45;&gt;Node26 -->
<g id="edge42" class="edge">
<title>Node440&#45;&gt;Node26</title>
<path fill="none" stroke="midnightblue" d="M440.26,-1007.51C485.17,-1019.03 568.03,-1034.8 636,-1017 753.77,-986.15 874.05,-898.29 920.27,-861.99"/>
<polygon fill="midnightblue" stroke="midnightblue" points="922.61,-864.61 928.26,-855.65 918.25,-859.12 922.61,-864.61"/>
</g>
<!-- Node440&#45;&gt;Node250 -->
<g id="edge41" class="edge">
<title>Node440&#45;&gt;Node250</title>
<path fill="none" stroke="midnightblue" d="M454.77,-998C473.32,-998 494.68,-998 513.73,-998"/>
<polygon fill="midnightblue" stroke="midnightblue" points="513.74,-1001.5 523.74,-998 513.74,-994.5 513.74,-1001.5"/>
</g>
<!-- Node299&#45;&gt;Node4 -->
<g id="edge44" class="edge">
<title>Node299&#45;&gt;Node4</title>
<path fill="none" stroke="midnightblue" d="M426.17,-228.36C469.42,-207.52 577.26,-164.38 636,-219 716.61,-293.95 608.8,-622.88 672,-713 672.76,-714.08 673.59,-715.1 674.49,-716.06"/>
<polygon fill="midnightblue" stroke="midnightblue" points="672.39,-718.86 682.39,-722.37 676.76,-713.4 672.39,-718.86"/>
</g>
<!-- Node299&#45;&gt;Node59 -->
<g id="edge45" class="edge">
<title>Node299&#45;&gt;Node59</title>
<path fill="none" stroke="midnightblue" d="M415.63,-228.49C430.31,-212.14 463.05,-179.31 499,-167 614.69,-127.38 699.42,-150.22 759,-257 808.53,-345.77 761.45,-617.05 795,-713 800.05,-727.44 809.69,-741.71 818.06,-752.35"/>
<polygon fill="midnightblue" stroke="midnightblue" points="815.6,-754.88 824.66,-760.37 821.01,-750.43 815.6,-754.88"/>
</g>
<!-- Node299&#45;&gt;Node77 -->
<g id="edge47" class="edge">
<title>Node299&#45;&gt;Node77</title>
<path fill="none" stroke="midnightblue" d="M419.61,-228.35C436.32,-215.71 467.91,-194.22 499,-186 557.87,-170.44 580.57,-160.8 636,-186 668.08,-200.59 692.17,-235.48 704.73,-257.28"/>
<polygon fill="midnightblue" stroke="midnightblue" points="701.79,-259.19 709.68,-266.26 707.92,-255.81 701.79,-259.19"/>
</g>
<!-- Node299&#45;&gt;Node70 -->
<g id="edge46" class="edge">
<title>Node299&#45;&gt;Node70</title>
<path fill="none" stroke="midnightblue" d="M447.62,-247.59C468.6,-252.6 494.48,-258.79 516.73,-264.11"/>
<polygon fill="midnightblue" stroke="midnightblue" points="516.13,-267.56 526.67,-266.48 517.75,-260.75 516.13,-267.56"/>
</g>
<!-- Node299&#45;&gt;Node289 -->
<g id="edge48" class="edge">
<title>Node299&#45;&gt;Node289</title>
<path fill="none" stroke="midnightblue" d="M463.11,-238C482.36,-238 503.68,-238 521.93,-238"/>
<polygon fill="midnightblue" stroke="midnightblue" points="522,-241.5 532,-238 522,-234.5 522,-241.5"/>
</g>
<!-- Node299&#45;&gt;Node129 -->
<g id="edge49" class="edge">
<title>Node299&#45;&gt;Node129</title>
<path fill="none" stroke="midnightblue" d="M420.19,-247.54C437.28,-259.99 469.04,-281.77 499,-295 504.35,-297.36 510.07,-299.51 515.83,-301.43"/>
<polygon fill="midnightblue" stroke="midnightblue" points="514.92,-304.82 525.51,-304.47 517.02,-298.14 514.92,-304.82"/>
</g>
</g>
</svg>
        <g id="navigator" transform="translate(0 0)" fill="#404254">
                <rect fill="#f2f5e9" fill-opacity="0.5" stroke="#606060" stroke-width=".5" x="0" y="0" width="60" height="60"/>
                <use id="zoomplus" xlink:href="#zoomPlus" x="17" y="9" onmousedown="handleZoom(evt,'in')"/>
                <use id="zoomminus" xlink:href="#zoomMin" x="42" y="9" onmousedown="handleZoom(evt,'out')"/>
                <use id="reset" xlink:href="#resetDef" x="30" y="36" onmousedown="handleReset()"/>
                <g id="arrowUp" xlink:href="#dirArrow" transform="translate(30 24)" onmousedown="handlePan(0,-1)">
                  <use xlink:href="#rim" fill="#404040">
                        <set attributeName="fill" to="#808080" begin="arrowUp.mouseover" end="arrowUp.mouseout"/>
                  </use>
                  <path fill="none" stroke="white" stroke-width="1.5" d="M0,-3.0v7 M-2.5,-0.5L0,-3.0L2.5,-0.5"/>
                </g>
                <g id="arrowRight" xlink:href="#dirArrow" transform="rotate(90) translate(36 -43)" onmousedown="handlePan(1,0)">
                  <use xlink:href="#rim" fill="#404040">
                        <set attributeName="fill" to="#808080" begin="arrowRight.mouseover" end="arrowRight.mouseout"/>
                  </use>
                  <path fill="none" stroke="white" stroke-width="1.5" d="M0,-3.0v7 M-2.5,-0.5L0,-3.0L2.5,-0.5"/>
                </g>
                <g id="arrowDown" xlink:href="#dirArrow" transform="rotate(180) translate(-30 -48)" onmousedown="handlePan(0,1)">
                  <use xlink:href="#rim" fill="#404040">
                        <set attributeName="fill" to="#808080" begin="arrowDown.mouseover" end="arrowDown.mouseout"/>
                  </use>
                  <path fill="none" stroke="white" stroke-width="1.5" d="M0,-3.0v7 M-2.5,-0.5L0,-3.0L2.5,-0.5"/>
                </g>
                <g id="arrowLeft" xlink:href="#dirArrow" transform="rotate(270) translate(-36 17)" onmousedown="handlePan(-1,0)">
                  <use xlink:href="#rim" fill="#404040">
                        <set attributeName="fill" to="#808080" begin="arrowLeft.mouseover" end="arrowLeft.mouseout"/>
                  </use>
                  <path fill="none" stroke="white" stroke-width="1.5" d="M0,-3.0v7 M-2.5,-0.5L0,-3.0L2.5,-0.5"/>
                </g>
        </g>
        <svg viewBox="0 0 15 15" width="100%" height="30px" preserveAspectRatio="xMaxYMin meet">
         <g id="arrow_out" transform="scale(0.3 0.3)">
          <a xlink:href="quickjs_8c_ac90552b1f1659acb3dae9a4c62479a30_cgraph_org.svg" target="_base">
           <rect id="button" ry="5" rx="5" y="6" x="6" height="38" width="38"
                fill="#f2f5e9" fill-opacity="0.5" stroke="#606060" stroke-width="1.0"/>
           <path id="arrow"
             d="M 11.500037,31.436501 C 11.940474,20.09759 22.043105,11.32322 32.158766,21.979434 L 37.068811,17.246167 C 37.068811,17.246167 37.088388,32 37.088388,32 L 22.160133,31.978069 C 22.160133,31.978069 26.997745,27.140456 26.997745,27.140456 C 18.528582,18.264221 13.291696,25.230495 11.500037,31.436501 z"
             style="fill:#404040;"/>
          </a>
         </g>
        </svg>
</svg>
