<?xml version="1.0" encoding="UTF-8" standalone="no"?>
<!DOCTYPE svg PUBLIC "-//W3C//DTD SVG 1.1//EN"
 "http://www.w3.org/Graphics/SVG/1.1/DTD/svg11.dtd">
<!-- Generated by graphviz version 2.43.0 (0)
 -->
<!-- Title: js_async_generator_resolve_or_reject Pages: 1 -->
<!--zoomable 1033 -->
<svg id="main" version="1.1" xmlns="http://www.w3.org/2000/svg" xmlns:xlink="http://www.w3.org/1999/xlink" xml:space="preserve" onload="init(evt)">
<style type="text/css"><![CDATA[
.edge:hover path { stroke: red; }
.edge:hover polygon { stroke: red; fill: red; }
]]></style>
<script type="text/javascript"><![CDATA[
var edges = document.getElementsByTagName('g');
if (edges && edges.length) {
  for (var i=0;i<edges.length;i++) {
    if (edges[i].id.substr(0,4)=='edge') {
      edges[i].setAttribute('class','edge');
    }
  }
}
]]></script>
        <defs>
                <circle id="rim" cx="0" cy="0" r="7"/>
                <circle id="rim2" cx="0" cy="0" r="3.5"/>
                <g id="zoomPlus">
                        <use xlink:href="#rim" fill="#404040">
                                <set attributeName="fill" to="#808080" begin="zoomplus.mouseover" end="zoomplus.mouseout"/>
                        </use>
                        <path d="M-4,0h8M0,-4v8" fill="none" stroke="white" stroke-width="1.5" pointer-events="none"/>
                </g>
                <g id="zoomMin">
                        <use xlink:href="#rim" fill="#404040">
                                <set attributeName="fill" to="#808080" begin="zoomminus.mouseover" end="zoomminus.mouseout"/>
                        </use>
                        <path d="M-4,0h8" fill="none" stroke="white" stroke-width="1.5" pointer-events="none"/>
                </g>
                <g id="dirArrow">
                        <path fill="none" stroke="white" stroke-width="1.5" d="M0,-3.0v7 M-2.5,-0.5L0,-3.0L2.5,-0.5"/>
                </g>
               <g id="resetDef">
                       <use xlink:href="#rim2" fill="#404040">
                               <set attributeName="fill" to="#808080" begin="reset.mouseover" end="reset.mouseout"/>
                       </use>
               </g>
        </defs>

<script type="text/javascript">
var viewWidth = 721;
var viewHeight = 1033;
var sectionId = 'dynsection-894';
</script>
<script xlink:href="svgpan.js"/>
<svg id="graph" class="graph">
<g id="viewport">
<title>js_async_generator_resolve_or_reject</title>
<!-- Node1 -->
<g id="node1" class="node">
<title>Node1</title>
<g id="a_node1"><a xlink:title=" ">
<polygon fill="#bfbfbf" stroke="black" points="0,-743.75 0,-773.75 111,-773.75 111,-743.75 0,-743.75"/>
<text text-anchor="start" x="8" y="-761.75" font-family="Helvetica,sans-Serif" font-size="10.00">js_async_generator</text>
<text text-anchor="middle" x="55.5" y="-750.75" font-family="Helvetica,sans-Serif" font-size="10.00">_resolve_or_reject</text>
</a>
</g>
</g>
<!-- Node2 -->
<g id="node2" class="node">
<title>Node2</title>
<g id="a_node2"><a xlink:href="quickjs_8c.html#a1a4c02a29525d5cb2085dd8bca3af350" target="_top" xlink:title=" ">
<polygon fill="none" stroke="black" points="147,-502.25 147,-521.25 197,-521.25 197,-502.25 147,-502.25"/>
<text text-anchor="middle" x="172" y="-509.25" font-family="Helvetica,sans-Serif" font-size="10.00">JS_Call</text>
</a>
</g>
</g>
<!-- Node1&#45;&gt;Node2 -->
<g id="edge1" class="edge">
<title>Node1&#45;&gt;Node2</title>
<path fill="none" stroke="midnightblue" d="M63.49,-743.67C83.39,-700.73 140.34,-577.88 162.26,-530.61"/>
<polygon fill="midnightblue" stroke="midnightblue" points="165.46,-532.03 166.49,-521.48 159.11,-529.08 165.46,-532.03"/>
</g>
<!-- Node21 -->
<g id="node10" class="node">
<title>Node21</title>
<g id="a_node10"><a xlink:href="quickjs_8c.html#a80e54dcf9ac687d4ccc2f90273565f30" target="_top" xlink:title=" ">
<polygon fill="none" stroke="red" points="648.5,-948.25 648.5,-967.25 698.5,-967.25 698.5,-948.25 648.5,-948.25"/>
<text text-anchor="middle" x="673.5" y="-955.25" font-family="Helvetica,sans-Serif" font-size="10.00">js_free</text>
</a>
</g>
</g>
<!-- Node1&#45;&gt;Node21 -->
<g id="edge43" class="edge">
<title>Node1&#45;&gt;Node21</title>
<path fill="none" stroke="midnightblue" d="M60.13,-773.92C69.24,-809.19 96.05,-897.86 147,-952.75 191.54,-1000.72 210.03,-1024.75 275.5,-1024.75 275.5,-1024.75 275.5,-1024.75 419.5,-1024.75 502.22,-1024.75 595.24,-990.86 642.07,-971.29"/>
<polygon fill="midnightblue" stroke="midnightblue" points="643.51,-974.48 651.34,-967.35 640.77,-968.04 643.51,-974.48"/>
</g>
<!-- Node57 -->
<g id="node11" class="node">
<title>Node57</title>
<g id="a_node11"><a xlink:href="quickjs_8h.html#afaa20c47565bc704c6c85f3d77254e7d" target="_top" xlink:title=" ">
<polygon fill="none" stroke="red" points="634,-635.25 634,-654.25 713,-654.25 713,-635.25 634,-635.25"/>
<text text-anchor="middle" x="673.5" y="-642.25" font-family="Helvetica,sans-Serif" font-size="10.00">JS_FreeValue</text>
</a>
</g>
</g>
<!-- Node1&#45;&gt;Node57 -->
<g id="edge44" class="edge">
<title>Node1&#45;&gt;Node57</title>
<path fill="none" stroke="midnightblue" d="M62.33,-774.06C82.89,-825.18 157.22,-986.75 275.5,-986.75 275.5,-986.75 275.5,-986.75 419.5,-986.75 505.72,-986.75 541.1,-975.53 598,-910.75 662.46,-837.36 671.51,-712.37 672.51,-664.35"/>
<polygon fill="midnightblue" stroke="midnightblue" points="676.01,-664.38 672.63,-654.34 669.01,-664.31 676.01,-664.38"/>
</g>
<!-- Node30 -->
<g id="node14" class="node">
<title>Node30</title>
<g id="a_node14"><a xlink:href="list_8h.html#ab60d5d18869ebeb5d6ab694289576fa7" target="_top" xlink:title=" ">
<polygon fill="none" stroke="black" points="531.5,-27.25 531.5,-46.25 583.5,-46.25 583.5,-27.25 531.5,-27.25"/>
<text text-anchor="middle" x="557.5" y="-34.25" font-family="Helvetica,sans-Serif" font-size="10.00">list_del</text>
</a>
</g>
</g>
<!-- Node1&#45;&gt;Node30 -->
<g id="edge45" class="edge">
<title>Node1&#45;&gt;Node30</title>
<path fill="none" stroke="midnightblue" d="M56.84,-743.65C59.77,-654.3 87.86,-192.72 356,-17.75 408.32,16.39 485.28,-6.38 526.99,-23.25"/>
<polygon fill="midnightblue" stroke="midnightblue" points="525.74,-26.52 536.32,-27.16 528.45,-20.06 525.74,-26.52"/>
</g>
<!-- Node3 -->
<g id="node3" class="node">
<title>Node3</title>
<g id="a_node3"><a xlink:href="quickjs_8c.html#ac2894ff4edcdb4e6841bcce9c76081e3" target="_top" xlink:title=" ">
<polygon fill="none" stroke="red" points="233,-502.25 233,-521.25 320,-521.25 320,-502.25 233,-502.25"/>
<text text-anchor="middle" x="276.5" y="-509.25" font-family="Helvetica,sans-Serif" font-size="10.00">JS_CallInternal</text>
</a>
</g>
</g>
<!-- Node2&#45;&gt;Node3 -->
<g id="edge2" class="edge">
<title>Node2&#45;&gt;Node3</title>
<path fill="none" stroke="midnightblue" d="M197.03,-505.93C204.77,-505.34 213.68,-505.03 222.65,-505"/>
<polygon fill="midnightblue" stroke="midnightblue" points="222.72,-508.5 232.74,-505.08 222.77,-501.5 222.72,-508.5"/>
</g>
<!-- Node3&#45;&gt;Node2 -->
<g id="edge40" class="edge">
<title>Node3&#45;&gt;Node2</title>
<path fill="none" stroke="midnightblue" d="M232.74,-518.41C224.16,-518.58 215.26,-518.49 207.03,-518.15"/>
<polygon fill="midnightblue" stroke="midnightblue" points="207.22,-514.65 197.03,-517.57 206.81,-521.64 207.22,-514.65"/>
</g>
<!-- Node3&#45;&gt;Node3 -->
<g id="edge41" class="edge">
<title>Node3&#45;&gt;Node3</title>
<path fill="none" stroke="midnightblue" d="M260.47,-521.5C252.67,-530.31 258.02,-539.75 276.5,-539.75 288.05,-539.75 294.47,-536.06 295.76,-531.15"/>
<polygon fill="midnightblue" stroke="midnightblue" points="299.02,-529.87 292.53,-521.5 292.39,-532.1 299.02,-529.87"/>
</g>
<!-- Node4 -->
<g id="node4" class="node">
<title>Node4</title>
<g id="a_node4"><a xlink:href="quickjs_8c.html#a853f0924d441ea4225488f37c8b69f9a" target="_top" xlink:title=" ">
<polygon fill="none" stroke="black" points="517.5,-787.25 517.5,-806.25 597.5,-806.25 597.5,-787.25 517.5,-787.25"/>
<text text-anchor="middle" x="557.5" y="-794.25" font-family="Helvetica,sans-Serif" font-size="10.00">__attribute__</text>
</a>
</g>
</g>
<!-- Node3&#45;&gt;Node4 -->
<g id="edge3" class="edge">
<title>Node3&#45;&gt;Node4</title>
<path fill="none" stroke="midnightblue" d="M278.88,-521.28C285.36,-564.72 314.29,-743.38 356,-777.75 397.93,-812.3 462.84,-811.9 507.37,-806.26"/>
<polygon fill="midnightblue" stroke="midnightblue" points="507.97,-809.71 517.39,-804.86 507,-802.78 507.97,-809.71"/>
</g>
<!-- Node5 -->
<g id="node5" class="node">
<title>Node5</title>
<g id="a_node5"><a xlink:href="quickjs_8c.html#a877fcb7651d95b411ce70e62b7f4a1f0" target="_top" xlink:title=" ">
<polygon fill="none" stroke="black" points="356,-293.25 356,-312.25 481,-312.25 481,-293.25 356,-293.25"/>
<text text-anchor="middle" x="418.5" y="-300.25" font-family="Helvetica,sans-Serif" font-size="10.00">__JS_AtomFromUInt32</text>
</a>
</g>
</g>
<!-- Node3&#45;&gt;Node5 -->
<g id="edge4" class="edge">
<title>Node3&#45;&gt;Node5</title>
<path fill="none" stroke="midnightblue" d="M278.59,-502.24C282.63,-471.4 299.56,-373.21 356,-321.75 357.74,-320.16 359.62,-318.7 361.59,-317.36"/>
<polygon fill="midnightblue" stroke="midnightblue" points="363.73,-320.18 370.76,-312.25 360.32,-314.06 363.73,-320.18"/>
</g>
<!-- Node6 -->
<g id="node6" class="node">
<title>Node6</title>
<g id="a_node6"><a xlink:href="quickjs_8h.html#a9bf98b18de88b4199910a43e933eb97d" target="_top" xlink:title=" ">
<polygon fill="none" stroke="black" points="368.5,-255.25 368.5,-274.25 468.5,-274.25 468.5,-255.25 368.5,-255.25"/>
<text text-anchor="middle" x="418.5" y="-262.25" font-family="Helvetica,sans-Serif" font-size="10.00">__JS_NewFloat64</text>
</a>
</g>
</g>
<!-- Node3&#45;&gt;Node6 -->
<g id="edge5" class="edge">
<title>Node3&#45;&gt;Node6</title>
<path fill="none" stroke="midnightblue" d="M277.87,-501.88C279.71,-466.83 290.75,-346.95 356,-283.75 357.63,-282.17 359.39,-280.72 361.25,-279.39"/>
<polygon fill="midnightblue" stroke="midnightblue" points="363.06,-282.38 369.92,-274.3 359.52,-276.34 363.06,-282.38"/>
</g>
<!-- Node7 -->
<g id="node7" class="node">
<title>Node7</title>
<g id="a_node7"><a xlink:href="quickjs_8c.html#a74547db03bf739a52c83a326b32db997" target="_top" xlink:title=" ">
<polygon fill="none" stroke="red" points="517,-407.25 517,-426.25 598,-426.25 598,-407.25 517,-407.25"/>
<text text-anchor="middle" x="557.5" y="-414.25" font-family="Helvetica,sans-Serif" font-size="10.00">add_property</text>
</a>
</g>
</g>
<!-- Node3&#45;&gt;Node7 -->
<g id="edge6" class="edge">
<title>Node3&#45;&gt;Node7</title>
<path fill="none" stroke="midnightblue" d="M283.94,-502.2C295.88,-485.39 323.27,-450.83 356,-435.75 403.82,-413.71 464.75,-411.02 506.83,-412.55"/>
<polygon fill="midnightblue" stroke="midnightblue" points="506.69,-416.05 516.84,-413 507.01,-409.05 506.69,-416.05"/>
</g>
<!-- Node65 -->
<g id="node8" class="node">
<title>Node65</title>
<g id="a_node8"><a xlink:href="quickjs_8c.html#a4956f45ffd2849b96dc051277264f87a" target="_top" xlink:title=" ">
<polygon fill="none" stroke="red" points="377.5,-825.25 377.5,-844.25 459.5,-844.25 459.5,-825.25 377.5,-825.25"/>
<text text-anchor="middle" x="418.5" y="-832.25" font-family="Helvetica,sans-Serif" font-size="10.00">build_arg_list</text>
</a>
</g>
</g>
<!-- Node3&#45;&gt;Node65 -->
<g id="edge7" class="edge">
<title>Node3&#45;&gt;Node65</title>
<path fill="none" stroke="midnightblue" d="M277.09,-521.46C275.92,-562.26 276.75,-721.78 356,-810.75 359.48,-814.66 363.68,-817.94 368.23,-820.69"/>
<polygon fill="midnightblue" stroke="midnightblue" points="366.82,-823.9 377.32,-825.34 370.02,-817.67 366.82,-823.9"/>
</g>
<!-- Node66 -->
<g id="node9" class="node">
<title>Node66</title>
<g id="a_node9"><a xlink:href="quickjs_8c.html#ac864482356b3efc2d0b0a509fcfa4c7c" target="_top" xlink:title=" ">
<polygon fill="none" stroke="black" points="519,-882.25 519,-901.25 596,-901.25 596,-882.25 519,-882.25"/>
<text text-anchor="middle" x="557.5" y="-889.25" font-family="Helvetica,sans-Serif" font-size="10.00">free_arg_list</text>
</a>
</g>
</g>
<!-- Node3&#45;&gt;Node66 -->
<g id="edge16" class="edge">
<title>Node3&#45;&gt;Node66</title>
<path fill="none" stroke="midnightblue" d="M277.72,-521.37C279.26,-578.76 290.37,-875.29 356,-929.75 407.73,-972.67 492.91,-931.1 533.54,-906.7"/>
<polygon fill="midnightblue" stroke="midnightblue" points="535.52,-909.59 542.19,-901.36 531.84,-903.63 535.52,-909.59"/>
</g>
<!-- Node3&#45;&gt;Node57 -->
<g id="edge42" class="edge">
<title>Node3&#45;&gt;Node57</title>
<path fill="none" stroke="midnightblue" d="M280.74,-521.3C289.05,-544.13 313.52,-601.77 356,-625.75 400.41,-650.81 546.33,-649.55 623.56,-646.94"/>
<polygon fill="midnightblue" stroke="midnightblue" points="624.11,-650.42 633.98,-646.56 623.86,-643.42 624.11,-650.42"/>
</g>
<!-- Node161 -->
<g id="node12" class="node">
<title>Node161</title>
<g id="a_node12"><a xlink:href="quickjs_8c.html#a61c8dfb5e807af1b6ff7d8ca61576dda" target="_top" xlink:title=" ">
<polygon fill="none" stroke="red" points="371.5,-217.25 371.5,-236.25 465.5,-236.25 465.5,-217.25 371.5,-217.25"/>
<text text-anchor="middle" x="418.5" y="-224.25" font-family="Helvetica,sans-Serif" font-size="10.00">build_backtrace</text>
</a>
</g>
</g>
<!-- Node3&#45;&gt;Node161 -->
<g id="edge12" class="edge">
<title>Node3&#45;&gt;Node161</title>
<path fill="none" stroke="midnightblue" d="M277.31,-502.18C277.07,-464.04 281.4,-321.29 356,-245.75 357.89,-243.83 359.97,-242.11 362.18,-240.56"/>
<polygon fill="midnightblue" stroke="midnightblue" points="364.31,-243.38 371.28,-235.4 360.86,-237.29 364.31,-243.38"/>
</g>
<!-- Node248 -->
<g id="node13" class="node">
<title>Node248</title>
<g id="a_node13"><a xlink:href="quickjs_8c.html#a344894112559c2ba75043fd10bcfa02f" target="_top" xlink:title=" ">
<polygon fill="none" stroke="red" points="368,-331.25 368,-350.25 469,-350.25 469,-331.25 368,-331.25"/>
<text text-anchor="middle" x="418.5" y="-338.25" font-family="Helvetica,sans-Serif" font-size="10.00">close_lexical_var</text>
</a>
</g>
</g>
<!-- Node3&#45;&gt;Node248 -->
<g id="edge13" class="edge">
<title>Node3&#45;&gt;Node248</title>
<path fill="none" stroke="midnightblue" d="M279.75,-501.9C286.41,-474.96 308.63,-399.4 356,-359.75 358.02,-358.05 360.2,-356.51 362.48,-355.1"/>
<polygon fill="midnightblue" stroke="midnightblue" points="364.43,-358.04 371.7,-350.33 361.21,-351.82 364.43,-358.04"/>
</g>
<!-- Node249 -->
<g id="node15" class="node">
<title>Node249</title>
<g id="a_node15"><a xlink:href="quickjs_8c.html#a1782043fce951bd4f0d91c7796b31e24" target="_top" xlink:title=" ">
<polygon fill="none" stroke="red" points="375,-179.25 375,-198.25 462,-198.25 462,-179.25 375,-179.25"/>
<text text-anchor="middle" x="418.5" y="-186.25" font-family="Helvetica,sans-Serif" font-size="10.00">close_var_refs</text>
</a>
</g>
</g>
<!-- Node3&#45;&gt;Node249 -->
<g id="edge15" class="edge">
<title>Node3&#45;&gt;Node249</title>
<path fill="none" stroke="midnightblue" d="M278.73,-502.04C284.85,-455.12 313.48,-252.31 356,-207.75 358.83,-204.78 362.1,-202.28 365.65,-200.16"/>
<polygon fill="midnightblue" stroke="midnightblue" points="367.43,-203.19 374.88,-195.67 364.36,-196.9 367.43,-203.19"/>
</g>
<!-- Node54 -->
<g id="node16" class="node">
<title>Node54</title>
<g id="a_node16"><a xlink:href="quickjs_8c.html#a9e7b4bccf927d811b0f99b40b08c0472" target="_top" xlink:title=" ">
<polygon fill="none" stroke="red" points="380.5,-27.25 380.5,-46.25 456.5,-46.25 456.5,-27.25 380.5,-27.25"/>
<text text-anchor="middle" x="418.5" y="-34.25" font-family="Helvetica,sans-Serif" font-size="10.00">free_var_ref</text>
</a>
</g>
</g>
<!-- Node3&#45;&gt;Node54 -->
<g id="edge17" class="edge">
<title>Node3&#45;&gt;Node54</title>
<path fill="none" stroke="midnightblue" d="M277.83,-501.94C280.06,-442.01 294.63,-125.6 356,-55.75 360.02,-51.17 365.11,-47.69 370.63,-45.03"/>
<polygon fill="midnightblue" stroke="midnightblue" points="372.18,-48.19 380.23,-41.3 369.64,-41.66 372.18,-48.19"/>
</g>
<!-- Node251 -->
<g id="node17" class="node">
<title>Node251</title>
<g id="a_node17"><a xlink:href="cutils_8h.html#a7c82a3ee025fee89db5b11ff5b7691b8" target="_top" xlink:title=" ">
<polygon fill="none" stroke="black" points="392,-141.25 392,-160.25 445,-160.25 445,-141.25 392,-141.25"/>
<text text-anchor="middle" x="418.5" y="-148.25" font-family="Helvetica,sans-Serif" font-size="10.00">get_i16</text>
</a>
</g>
</g>
<!-- Node3&#45;&gt;Node251 -->
<g id="edge19" class="edge">
<title>Node3&#45;&gt;Node251</title>
<path fill="none" stroke="midnightblue" d="M278.42,-502.19C283.4,-452.16 308.74,-220.64 356,-169.75 362.83,-162.39 372.43,-157.86 382.03,-155.07"/>
<polygon fill="midnightblue" stroke="midnightblue" points="382.97,-158.45 391.91,-152.76 381.37,-151.63 382.97,-158.45"/>
</g>
<!-- Node252 -->
<g id="node18" class="node">
<title>Node252</title>
<g id="a_node18"><a xlink:href="cutils_8h.html#a288ee4e688944e23500af2ecc813c306" target="_top" xlink:title=" ">
<polygon fill="none" stroke="black" points="395,-103.25 395,-122.25 442,-122.25 442,-103.25 395,-103.25"/>
<text text-anchor="middle" x="418.5" y="-110.25" font-family="Helvetica,sans-Serif" font-size="10.00">get_i8</text>
</a>
</g>
</g>
<!-- Node3&#45;&gt;Node252 -->
<g id="edge20" class="edge">
<title>Node3&#45;&gt;Node252</title>
<path fill="none" stroke="midnightblue" d="M278.18,-502.21C282.15,-448.99 304.02,-188.96 356,-131.75 363.46,-123.53 374.38,-118.83 384.96,-116.16"/>
<polygon fill="midnightblue" stroke="midnightblue" points="385.76,-119.57 394.87,-114.16 384.38,-112.7 385.76,-119.57"/>
</g>
<!-- Node253 -->
<g id="node19" class="node">
<title>Node253</title>
<g id="a_node19"><a xlink:href="cutils_8h.html#ad587834d17e95461893d59661e5e9676" target="_top" xlink:title=" ">
<polygon fill="none" stroke="black" points="390.5,-65.25 390.5,-84.25 446.5,-84.25 446.5,-65.25 390.5,-65.25"/>
<text text-anchor="middle" x="418.5" y="-72.25" font-family="Helvetica,sans-Serif" font-size="10.00">get_u16</text>
</a>
</g>
</g>
<!-- Node3&#45;&gt;Node253 -->
<g id="edge21" class="edge">
<title>Node3&#45;&gt;Node253</title>
<path fill="none" stroke="midnightblue" d="M278,-502.02C281.07,-445.27 299.35,-157.25 356,-93.75 362.39,-86.58 371.42,-82.09 380.6,-79.27"/>
<polygon fill="midnightblue" stroke="midnightblue" points="381.62,-82.63 390.49,-76.84 379.95,-75.83 381.62,-82.63"/>
</g>
<!-- Node50 -->
<g id="node20" class="node">
<title>Node50</title>
<g id="a_node20"><a xlink:href="cutils_8h.html#a941262a5f72fda2ec43ae7911e97a0dc" target="_top" xlink:title=" ">
<polygon fill="none" stroke="black" points="390.5,-901.25 390.5,-920.25 446.5,-920.25 446.5,-901.25 390.5,-901.25"/>
<text text-anchor="middle" x="418.5" y="-908.25" font-family="Helvetica,sans-Serif" font-size="10.00">get_u32</text>
</a>
</g>
</g>
<!-- Node3&#45;&gt;Node50 -->
<g id="edge22" class="edge">
<title>Node3&#45;&gt;Node50</title>
<path fill="none" stroke="midnightblue" d="M278.18,-521.28C282.15,-574.5 304.02,-834.53 356,-891.75 362.4,-898.79 371.35,-903.25 380.45,-906.07"/>
<polygon fill="midnightblue" stroke="midnightblue" points="379.71,-909.49 390.26,-908.52 381.41,-902.7 379.71,-909.49"/>
</g>
<!-- Node254 -->
<g id="node21" class="node">
<title>Node254</title>
<g id="a_node21"><a xlink:href="quickjs_8c.html#a37fe43b6649456a848bd54846450b995" target="_top" xlink:title=" ">
<polygon fill="none" stroke="red" points="382.5,-863.25 382.5,-882.25 454.5,-882.25 454.5,-863.25 382.5,-863.25"/>
<text text-anchor="middle" x="418.5" y="-870.25" font-family="Helvetica,sans-Serif" font-size="10.00">get_var_ref</text>
</a>
</g>
</g>
<!-- Node3&#45;&gt;Node254 -->
<g id="edge23" class="edge">
<title>Node3&#45;&gt;Node254</title>
<path fill="none" stroke="midnightblue" d="M278.42,-521.3C283.4,-571.34 308.74,-802.86 356,-853.75 360.65,-858.75 366.59,-862.45 372.93,-865.18"/>
<polygon fill="midnightblue" stroke="midnightblue" points="371.82,-868.5 382.41,-868.53 374.15,-861.9 371.82,-868.5"/>
</g>
<!-- Node197 -->
<g id="node22" class="node">
<title>Node197</title>
<g id="a_node22"><a xlink:href="list_8h.html#a663527a4d757540b2177bef0db1ce5c0" target="_top" xlink:title=" ">
<polygon fill="none" stroke="black" points="377.5,-749.25 377.5,-768.25 459.5,-768.25 459.5,-749.25 377.5,-749.25"/>
<text text-anchor="middle" x="418.5" y="-756.25" font-family="Helvetica,sans-Serif" font-size="10.00">init_list_head</text>
</a>
</g>
</g>
<!-- Node3&#45;&gt;Node197 -->
<g id="edge24" class="edge">
<title>Node3&#45;&gt;Node197</title>
<path fill="none" stroke="midnightblue" d="M277.87,-521.61C279.71,-556.67 290.75,-676.54 356,-739.75 359.53,-743.16 363.65,-745.97 368.07,-748.27"/>
<polygon fill="midnightblue" stroke="midnightblue" points="366.88,-751.56 377.45,-752.32 369.66,-745.14 366.88,-751.56"/>
</g>
<!-- Node255 -->
<g id="node23" class="node">
<title>Node255</title>
<g id="a_node23"><a xlink:href="quickjs_8c.html#a2bb0a2ca3b8320f3ff778c65034fce49" target="_top" xlink:title=" ">
<polygon fill="none" stroke="red" points="359,-711.25 359,-730.25 478,-730.25 478,-711.25 359,-711.25"/>
<text text-anchor="middle" x="418.5" y="-718.25" font-family="Helvetica,sans-Serif" font-size="10.00">is_backtrace_needed</text>
</a>
</g>
</g>
<!-- Node3&#45;&gt;Node255 -->
<g id="edge25" class="edge">
<title>Node3&#45;&gt;Node255</title>
<path fill="none" stroke="midnightblue" d="M278.59,-521.26C282.63,-552.09 299.56,-650.28 356,-701.75 357.74,-703.34 359.62,-704.79 361.59,-706.13"/>
<polygon fill="midnightblue" stroke="midnightblue" points="360.32,-709.43 370.76,-711.24 363.73,-703.31 360.32,-709.43"/>
</g>
<!-- Node181 -->
<g id="node24" class="node">
<title>Node181</title>
<g id="a_node24"><a xlink:href="quickjs_8c.html#a686cf78f8b0361621ee2ba6182195c31" target="_top" xlink:title=" ">
<polygon fill="none" stroke="black" points="374.5,-597.25 374.5,-616.25 462.5,-616.25 462.5,-597.25 374.5,-597.25"/>
<text text-anchor="middle" x="418.5" y="-604.25" font-family="Helvetica,sans-Serif" font-size="10.00">is_strict_mode</text>
</a>
</g>
</g>
<!-- Node3&#45;&gt;Node181 -->
<g id="edge26" class="edge">
<title>Node3&#45;&gt;Node181</title>
<path fill="none" stroke="midnightblue" d="M284.88,-521.4C297.66,-537.45 325.47,-569.68 356,-587.75 359.62,-589.89 363.51,-591.82 367.51,-593.54"/>
<polygon fill="midnightblue" stroke="midnightblue" points="366.38,-596.85 376.97,-597.21 368.91,-590.33 366.38,-596.85"/>
</g>
<!-- Node257 -->
<g id="node25" class="node">
<title>Node257</title>
<g id="a_node25"><a xlink:href="quickjs_8c.html#ae8ff05447c0d51fe277baccf616dc7c6" target="_top" xlink:title=" ">
<polygon fill="none" stroke="red" points="519.5,-578.25 519.5,-597.25 595.5,-597.25 595.5,-578.25 519.5,-578.25"/>
<text text-anchor="middle" x="557.5" y="-585.25" font-family="Helvetica,sans-Serif" font-size="10.00">js_add_slow</text>
</a>
</g>
</g>
<!-- Node3&#45;&gt;Node257 -->
<g id="edge27" class="edge">
<title>Node3&#45;&gt;Node257</title>
<path fill="none" stroke="midnightblue" d="M320.08,-516.16C361.88,-521.31 427.02,-531.53 481,-549.75 498.79,-555.75 517.66,-565.25 532.09,-573.24"/>
<polygon fill="midnightblue" stroke="midnightblue" points="530.44,-576.34 540.87,-578.23 533.9,-570.25 530.44,-576.34"/>
</g>
<!-- Node264 -->
<g id="node26" class="node">
<title>Node264</title>
<g id="a_node26"><a xlink:href="quickjs_8c.html#a6a21784a40b8684f2e779bd460dd13b2" target="_top" xlink:title=" ">
<polygon fill="none" stroke="red" points="379.5,-483.25 379.5,-502.25 457.5,-502.25 457.5,-483.25 379.5,-483.25"/>
<text text-anchor="middle" x="418.5" y="-490.25" font-family="Helvetica,sans-Serif" font-size="10.00">JS_AddBrand</text>
</a>
</g>
</g>
<!-- Node3&#45;&gt;Node264 -->
<g id="edge29" class="edge">
<title>Node3&#45;&gt;Node264</title>
<path fill="none" stroke="midnightblue" d="M320.27,-505.94C335.7,-503.85 353.23,-501.47 369.11,-499.31"/>
<polygon fill="midnightblue" stroke="midnightblue" points="369.83,-502.75 379.27,-497.93 368.89,-495.81 369.83,-502.75"/>
</g>
<!-- Node267 -->
<g id="node27" class="node">
<title>Node267</title>
<g id="a_node27"><a xlink:href="quickjs_8c.html#a43208b0746998d2b6b9b8bd1ef8b5f99" target="_top" xlink:title=" ">
<polygon fill="none" stroke="red" points="356,-673.25 356,-692.25 481,-692.25 481,-673.25 356,-673.25"/>
<text text-anchor="middle" x="418.5" y="-680.25" font-family="Helvetica,sans-Serif" font-size="10.00">js_append_enumerate</text>
</a>
</g>
</g>
<!-- Node3&#45;&gt;Node267 -->
<g id="edge32" class="edge">
<title>Node3&#45;&gt;Node267</title>
<path fill="none" stroke="midnightblue" d="M280.11,-521.47C287.53,-547.41 311.22,-618.98 356,-658.75 360.5,-662.74 365.75,-666.11 371.24,-668.94"/>
<polygon fill="midnightblue" stroke="midnightblue" points="370.07,-672.26 380.63,-673.21 372.97,-665.88 370.07,-672.26"/>
</g>
<!-- Node98 -->
<g id="node28" class="node">
<title>Node98</title>
<g id="a_node28"><a xlink:href="quickjs_8c.html#a260bfa297ff6cb5bd18e229afaa54663" target="_top" xlink:title=" ">
<polygon fill="none" stroke="red" points="370.5,-559.25 370.5,-578.25 466.5,-578.25 466.5,-559.25 370.5,-559.25"/>
<text text-anchor="middle" x="418.5" y="-566.25" font-family="Helvetica,sans-Serif" font-size="10.00">JS_AtomToString</text>
</a>
</g>
</g>
<!-- Node3&#45;&gt;Node98 -->
<g id="edge35" class="edge">
<title>Node3&#45;&gt;Node98</title>
<path fill="none" stroke="midnightblue" d="M299.77,-521.29C315.45,-527.96 336.95,-537.03 356,-544.75 364.81,-548.32 374.38,-552.1 383.28,-555.57"/>
<polygon fill="midnightblue" stroke="midnightblue" points="382.02,-558.84 392.61,-559.2 384.55,-552.31 382.02,-558.84"/>
</g>
<!-- Node292 -->
<g id="node29" class="node">
<title>Node292</title>
<g id="a_node29"><a xlink:href="quickjs_8c.html#afa67965c1017685fc6783776d6d0d4d7" target="_top" xlink:title=" ">
<polygon fill="none" stroke="red" points="371,-445.25 371,-464.25 466,-464.25 466,-445.25 371,-445.25"/>
<text text-anchor="middle" x="418.5" y="-452.25" font-family="Helvetica,sans-Serif" font-size="10.00">JS_AtomToValue</text>
</a>
</g>
</g>
<!-- Node3&#45;&gt;Node292 -->
<g id="edge36" class="edge">
<title>Node3&#45;&gt;Node292</title>
<path fill="none" stroke="midnightblue" d="M295.24,-502.2C310.93,-494 334.59,-482.18 356,-473.75 361.6,-471.54 367.56,-469.43 373.48,-467.46"/>
<polygon fill="midnightblue" stroke="midnightblue" points="374.89,-470.68 383.35,-464.29 372.76,-464.01 374.89,-470.68"/>
</g>
<!-- Node293 -->
<g id="node30" class="node">
<title>Node293</title>
<g id="a_node30"><a xlink:href="quickjs_8c.html#a04d312757919ff6b4d79cd0c2c3e5bb2" target="_top" xlink:title=" ">
<polygon fill="none" stroke="red" points="362.5,-369.25 362.5,-388.25 474.5,-388.25 474.5,-369.25 362.5,-369.25"/>
<text text-anchor="middle" x="418.5" y="-376.25" font-family="Helvetica,sans-Serif" font-size="10.00">js_build_arguments</text>
</a>
</g>
</g>
<!-- Node3&#45;&gt;Node293 -->
<g id="edge37" class="edge">
<title>Node3&#45;&gt;Node293</title>
<path fill="none" stroke="midnightblue" d="M281.99,-502.17C292.23,-481.27 319.32,-431.18 356,-402.75 361.17,-398.74 367.1,-395.32 373.18,-392.44"/>
<polygon fill="midnightblue" stroke="midnightblue" points="374.97,-395.48 382.78,-388.33 372.21,-389.04 374.97,-395.48"/>
</g>
<!-- Node65&#45;&gt;Node4 -->
<g id="edge8" class="edge">
<title>Node65&#45;&gt;Node4</title>
<path fill="none" stroke="midnightblue" d="M454.07,-825.16C471.68,-820.27 493.28,-814.28 512.1,-809.06"/>
<polygon fill="midnightblue" stroke="midnightblue" points="513.24,-812.38 521.94,-806.33 511.37,-805.63 513.24,-812.38"/>
</g>
<!-- Node65&#45;&gt;Node66 -->
<g id="edge9" class="edge">
<title>Node65&#45;&gt;Node66</title>
<path fill="none" stroke="midnightblue" d="M454.01,-844.3C462.91,-847.06 472.4,-850.28 481,-853.75 497.97,-860.58 516.32,-869.78 530.68,-877.41"/>
<polygon fill="midnightblue" stroke="midnightblue" points="529.02,-880.49 539.49,-882.15 532.35,-874.33 529.02,-880.49"/>
</g>
<!-- Node66&#45;&gt;Node21 -->
<g id="edge10" class="edge">
<title>Node66&#45;&gt;Node21</title>
<path fill="none" stroke="midnightblue" d="M575.32,-901.49C594.29,-912.47 625.33,-930.44 647.22,-943.11"/>
<polygon fill="midnightblue" stroke="midnightblue" points="645.57,-946.2 655.98,-948.18 649.08,-940.14 645.57,-946.2"/>
</g>
<!-- Node66&#45;&gt;Node57 -->
<g id="edge11" class="edge">
<title>Node66&#45;&gt;Node57</title>
<path fill="none" stroke="midnightblue" d="M563.83,-882.02C571.63,-867.66 586.48,-839.9 598,-815.75 623.93,-761.39 651.5,-695.76 664.65,-663.93"/>
<polygon fill="midnightblue" stroke="midnightblue" points="667.96,-665.07 668.53,-654.49 661.49,-662.41 667.96,-665.07"/>
</g>
<!-- Node248&#45;&gt;Node30 -->
<g id="edge14" class="edge">
<title>Node248&#45;&gt;Node30</title>
<path fill="none" stroke="midnightblue" d="M467.97,-331.16C472.8,-328.7 477.28,-325.62 481,-321.75 554,-245.71 558.41,-107.59 557.34,-56.47"/>
<polygon fill="midnightblue" stroke="midnightblue" points="560.84,-56.31 557.03,-46.42 553.84,-56.53 560.84,-56.31"/>
</g>
<!-- Node54&#45;&gt;Node30 -->
<g id="edge18" class="edge">
<title>Node54&#45;&gt;Node30</title>
<path fill="none" stroke="midnightblue" d="M456.57,-36.75C476.59,-36.75 501.18,-36.75 520.96,-36.75"/>
<polygon fill="midnightblue" stroke="midnightblue" points="521.1,-40.25 531.1,-36.75 521.1,-33.25 521.1,-40.25"/>
</g>
<!-- Node257&#45;&gt;Node57 -->
<g id="edge28" class="edge">
<title>Node257&#45;&gt;Node57</title>
<path fill="none" stroke="midnightblue" d="M577.58,-597.29C595.83,-606.41 623.57,-620.28 644.35,-630.67"/>
<polygon fill="midnightblue" stroke="midnightblue" points="642.85,-633.83 653.36,-635.17 645.98,-627.57 642.85,-633.83"/>
</g>
<!-- Node264&#45;&gt;Node7 -->
<g id="edge30" class="edge">
<title>Node264&#45;&gt;Node7</title>
<path fill="none" stroke="midnightblue" d="M457.72,-483.2C465.62,-480.61 473.74,-477.46 481,-473.75 502.26,-462.86 523.74,-445.94 538.32,-433.36"/>
<polygon fill="midnightblue" stroke="midnightblue" points="540.87,-435.78 546.05,-426.54 536.24,-430.53 540.87,-435.78"/>
</g>
<!-- Node264&#45;&gt;Node57 -->
<g id="edge31" class="edge">
<title>Node264&#45;&gt;Node57</title>
<path fill="none" stroke="midnightblue" d="M452.47,-502.29C489.91,-514.1 551.79,-536.67 598,-568.75 622.04,-585.43 644.85,-610.57 658.75,-627.3"/>
<polygon fill="midnightblue" stroke="midnightblue" points="656.15,-629.65 665.17,-635.2 661.58,-625.23 656.15,-629.65"/>
</g>
<!-- Node267&#45;&gt;Node4 -->
<g id="edge33" class="edge">
<title>Node267&#45;&gt;Node4</title>
<path fill="none" stroke="midnightblue" d="M462.39,-692.33C468.93,-694.81 475.37,-697.9 481,-701.75 510.41,-721.85 533.91,-756.84 546.48,-778.29"/>
<polygon fill="midnightblue" stroke="midnightblue" points="543.48,-780.11 551.46,-787.08 549.57,-776.66 543.48,-780.11"/>
</g>
<!-- Node267&#45;&gt;Node57 -->
<g id="edge34" class="edge">
<title>Node267&#45;&gt;Node57</title>
<path fill="none" stroke="midnightblue" d="M481.16,-675.26C515.6,-670.88 559.26,-664.99 598,-658.75 606.4,-657.39 615.32,-655.83 623.95,-654.25"/>
<polygon fill="midnightblue" stroke="midnightblue" points="624.71,-657.67 633.9,-652.4 623.43,-650.79 624.71,-657.67"/>
</g>
<!-- Node293&#45;&gt;Node7 -->
<g id="edge38" class="edge">
<title>Node293&#45;&gt;Node7</title>
<path fill="none" stroke="midnightblue" d="M454.07,-388.34C471.68,-393.22 493.28,-399.21 512.1,-404.43"/>
<polygon fill="midnightblue" stroke="midnightblue" points="511.37,-407.86 521.94,-407.16 513.24,-401.12 511.37,-407.86"/>
</g>
<!-- Node293&#45;&gt;Node57 -->
<g id="edge39" class="edge">
<title>Node293&#45;&gt;Node57</title>
<path fill="none" stroke="midnightblue" d="M474.72,-369.83C513.45,-366.79 564.16,-369.71 598,-397.75 668.1,-455.83 673.85,-577.37 673.24,-625"/>
<polygon fill="midnightblue" stroke="midnightblue" points="669.74,-625.11 673,-635.2 676.74,-625.28 669.74,-625.11"/>
</g>
</g>
</svg>
        <g id="navigator" transform="translate(0 0)" fill="#404254">
                <rect fill="#f2f5e9" fill-opacity="0.5" stroke="#606060" stroke-width=".5" x="0" y="0" width="60" height="60"/>
                <use id="zoomplus" xlink:href="#zoomPlus" x="17" y="9" onmousedown="handleZoom(evt,'in')"/>
                <use id="zoomminus" xlink:href="#zoomMin" x="42" y="9" onmousedown="handleZoom(evt,'out')"/>
                <use id="reset" xlink:href="#resetDef" x="30" y="36" onmousedown="handleReset()"/>
                <g id="arrowUp" xlink:href="#dirArrow" transform="translate(30 24)" onmousedown="handlePan(0,-1)">
                  <use xlink:href="#rim" fill="#404040">
                        <set attributeName="fill" to="#808080" begin="arrowUp.mouseover" end="arrowUp.mouseout"/>
                  </use>
                  <path fill="none" stroke="white" stroke-width="1.5" d="M0,-3.0v7 M-2.5,-0.5L0,-3.0L2.5,-0.5"/>
                </g>
                <g id="arrowRight" xlink:href="#dirArrow" transform="rotate(90) translate(36 -43)" onmousedown="handlePan(1,0)">
                  <use xlink:href="#rim" fill="#404040">
                        <set attributeName="fill" to="#808080" begin="arrowRight.mouseover" end="arrowRight.mouseout"/>
                  </use>
                  <path fill="none" stroke="white" stroke-width="1.5" d="M0,-3.0v7 M-2.5,-0.5L0,-3.0L2.5,-0.5"/>
                </g>
                <g id="arrowDown" xlink:href="#dirArrow" transform="rotate(180) translate(-30 -48)" onmousedown="handlePan(0,1)">
                  <use xlink:href="#rim" fill="#404040">
                        <set attributeName="fill" to="#808080" begin="arrowDown.mouseover" end="arrowDown.mouseout"/>
                  </use>
                  <path fill="none" stroke="white" stroke-width="1.5" d="M0,-3.0v7 M-2.5,-0.5L0,-3.0L2.5,-0.5"/>
                </g>
                <g id="arrowLeft" xlink:href="#dirArrow" transform="rotate(270) translate(-36 17)" onmousedown="handlePan(-1,0)">
                  <use xlink:href="#rim" fill="#404040">
                        <set attributeName="fill" to="#808080" begin="arrowLeft.mouseover" end="arrowLeft.mouseout"/>
                  </use>
                  <path fill="none" stroke="white" stroke-width="1.5" d="M0,-3.0v7 M-2.5,-0.5L0,-3.0L2.5,-0.5"/>
                </g>
        </g>
        <svg viewBox="0 0 15 15" width="100%" height="30px" preserveAspectRatio="xMaxYMin meet">
         <g id="arrow_out" transform="scale(0.3 0.3)">
          <a xlink:href="quickjs_8c_a3e852026d167fa03c673f86697dd3e67_cgraph_org.svg" target="_base">
           <rect id="button" ry="5" rx="5" y="6" x="6" height="38" width="38"
                fill="#f2f5e9" fill-opacity="0.5" stroke="#606060" stroke-width="1.0"/>
           <path id="arrow"
             d="M 11.500037,31.436501 C 11.940474,20.09759 22.043105,11.32322 32.158766,21.979434 L 37.068811,17.246167 C 37.068811,17.246167 37.088388,32 37.088388,32 L 22.160133,31.978069 C 22.160133,31.978069 26.997745,27.140456 26.997745,27.140456 C 18.528582,18.264221 13.291696,25.230495 11.500037,31.436501 z"
             style="fill:#404040;"/>
          </a>
         </g>
        </svg>
</svg>
