<?xml version="1.0" encoding="UTF-8" standalone="no"?>
<!DOCTYPE svg PUBLIC "-//W3C//DTD SVG 1.1//EN"
 "http://www.w3.org/Graphics/SVG/1.1/DTD/svg11.dtd">
<!-- Generated by graphviz version 2.43.0 (0)
 -->
<!-- Title: js_object_assign Pages: 1 -->
<svg width="938pt" height="426pt"
 viewBox="0.00 0.00 938.00 426.00" xmlns="http://www.w3.org/2000/svg" xmlns:xlink="http://www.w3.org/1999/xlink">
<g id="graph0" class="graph" transform="scale(1 1) rotate(0) translate(4 422)">
<title>js_object_assign</title>
<!-- Node1 -->
<g id="node1" class="node">
<title>Node1</title>
<g id="a_node1"><a xlink:title=" ">
<polygon fill="#bfbfbf" stroke="black" points="0,-180.5 0,-199.5 97,-199.5 97,-180.5 0,-180.5"/>
<text text-anchor="middle" x="48.5" y="-187.5" font-family="Helvetica,sans-Serif" font-size="10.00">js_object_assign</text>
</a>
</g>
</g>
<!-- Node2 -->
<g id="node2" class="node">
<title>Node2</title>
<g id="a_node2"><a xlink:href="quickjs_8c.html#a3b754d750c7f3123e85f4a2e748de023" target="_top" xlink:title=" ">
<polygon fill="none" stroke="black" points="133,-199.5 133,-218.5 261,-218.5 261,-199.5 133,-199.5"/>
<text text-anchor="middle" x="197" y="-206.5" font-family="Helvetica,sans-Serif" font-size="10.00">JS_CopyDataProperties</text>
</a>
</g>
</g>
<!-- Node1&#45;&gt;Node2 -->
<g id="edge1" class="edge">
<title>Node1&#45;&gt;Node2</title>
<path fill="none" stroke="midnightblue" d="M97.06,-196.17C105.38,-197.25 114.2,-198.39 123.02,-199.53"/>
<polygon fill="midnightblue" stroke="midnightblue" points="122.58,-203.01 132.94,-200.82 123.48,-196.07 122.58,-203.01"/>
</g>
<!-- Node32 -->
<g id="node5" class="node">
<title>Node32</title>
<g id="a_node5"><a xlink:href="quickjs_8h.html#afaa20c47565bc704c6c85f3d77254e7d" target="_top" xlink:title=" ">
<polygon fill="none" stroke="red" points="846,-218.5 846,-237.5 925,-237.5 925,-218.5 846,-218.5"/>
<text text-anchor="middle" x="885.5" y="-225.5" font-family="Helvetica,sans-Serif" font-size="10.00">JS_FreeValue</text>
</a>
</g>
</g>
<!-- Node1&#45;&gt;Node32 -->
<g id="edge24" class="edge">
<title>Node1&#45;&gt;Node32</title>
<path fill="none" stroke="midnightblue" d="M58.38,-199.68C94.92,-238.4 238.73,-380 387.5,-380 387.5,-380 387.5,-380 591.5,-380 708.32,-380 824.89,-283.61 867.53,-244.35"/>
<polygon fill="midnightblue" stroke="midnightblue" points="869.92,-246.9 874.83,-237.51 865.14,-241.79 869.92,-246.9"/>
</g>
<!-- Node68 -->
<g id="node6" class="node">
<title>Node68</title>
<g id="a_node6"><a xlink:href="quickjs_8h.html#ad80a83d73e9b7d872b88fbf2943aebe9" target="_top" xlink:title=" ">
<polygon fill="none" stroke="black" points="842,-66.5 842,-85.5 929,-85.5 929,-66.5 842,-66.5"/>
<text text-anchor="middle" x="885.5" y="-73.5" font-family="Helvetica,sans-Serif" font-size="10.00">JS_IsException</text>
</a>
</g>
</g>
<!-- Node1&#45;&gt;Node68 -->
<g id="edge25" class="edge">
<title>Node1&#45;&gt;Node68</title>
<path fill="none" stroke="midnightblue" d="M58.38,-180.32C94.92,-141.6 238.73,0 387.5,0 387.5,0 387.5,0 591.5,0 689.75,0 800.76,-40.53 853.49,-62.4"/>
<polygon fill="midnightblue" stroke="midnightblue" points="852.37,-65.72 862.94,-66.37 855.09,-59.27 852.37,-65.72"/>
</g>
<!-- Node147 -->
<g id="node7" class="node">
<title>Node147</title>
<g id="a_node7"><a xlink:href="quickjs_8h.html#a4e407128a9605afb77523e49e9a627fd" target="_top" xlink:title=" ">
<polygon fill="none" stroke="black" points="841,-294.5 841,-313.5 930,-313.5 930,-294.5 841,-294.5"/>
<text text-anchor="middle" x="885.5" y="-301.5" font-family="Helvetica,sans-Serif" font-size="10.00">JS_IsUndefined</text>
</a>
</g>
</g>
<!-- Node1&#45;&gt;Node147 -->
<g id="edge27" class="edge">
<title>Node1&#45;&gt;Node147</title>
<path fill="none" stroke="midnightblue" d="M52.96,-199.58C62.19,-223.82 89.67,-288.22 133,-324 225.99,-400.77 266.92,-418 387.5,-418 387.5,-418 387.5,-418 591.5,-418 699.22,-418 814.98,-350.26 862.37,-319.21"/>
<polygon fill="midnightblue" stroke="midnightblue" points="864.53,-321.98 870.91,-313.52 860.65,-316.15 864.53,-321.98"/>
</g>
<!-- Node247 -->
<g id="node15" class="node">
<title>Node247</title>
<g id="a_node15"><a xlink:href="quickjs_8h.html#a149f24b67e745bad93573b3b4c80db4c" target="_top" xlink:title=" ">
<polygon fill="none" stroke="black" points="167.5,-123.5 167.5,-142.5 226.5,-142.5 226.5,-123.5 167.5,-123.5"/>
<text text-anchor="middle" x="197" y="-130.5" font-family="Helvetica,sans-Serif" font-size="10.00">JS_IsNull</text>
</a>
</g>
</g>
<!-- Node1&#45;&gt;Node247 -->
<g id="edge26" class="edge">
<title>Node1&#45;&gt;Node247</title>
<path fill="none" stroke="midnightblue" d="M73.59,-180.39C90.25,-173.76 112.95,-164.78 133,-157 142.13,-153.46 152.03,-149.66 161.22,-146.16"/>
<polygon fill="midnightblue" stroke="midnightblue" points="162.73,-149.33 170.83,-142.51 160.24,-142.79 162.73,-149.33"/>
</g>
<!-- Node236 -->
<g id="node16" class="node">
<title>Node236</title>
<g id="a_node16"><a xlink:href="quickjs_8c.html#a710289a14c2810467e5b448d3c28bd55" target="_top" xlink:title=" ">
<polygon fill="none" stroke="red" points="352,-28.5 352,-47.5 425,-47.5 425,-28.5 352,-28.5"/>
<text text-anchor="middle" x="388.5" y="-35.5" font-family="Helvetica,sans-Serif" font-size="10.00">JS_ToObject</text>
</a>
</g>
</g>
<!-- Node1&#45;&gt;Node236 -->
<g id="edge28" class="edge">
<title>Node1&#45;&gt;Node236</title>
<path fill="none" stroke="midnightblue" d="M97.23,-186.76C151.72,-182.16 236.5,-171.98 261,-152 294.39,-124.78 264.75,-90.56 297,-62 309.28,-51.13 325.94,-45.1 341.62,-41.78"/>
<polygon fill="midnightblue" stroke="midnightblue" points="342.49,-45.18 351.72,-39.97 341.26,-38.29 342.49,-45.18"/>
</g>
<!-- Node3 -->
<g id="node3" class="node">
<title>Node3</title>
<g id="a_node3"><a xlink:href="quickjs_8c.html#a0a8765bd4012467d9139bc24aabcb3ca" target="_top" xlink:title=" ">
<polygon fill="none" stroke="black" points="525,-123.5 525,-142.5 656,-142.5 656,-123.5 525,-123.5"/>
<text text-anchor="middle" x="590.5" y="-130.5" font-family="Helvetica,sans-Serif" font-size="10.00">JS_DefinePropertyValue</text>
</a>
</g>
</g>
<!-- Node2&#45;&gt;Node3 -->
<g id="edge2" class="edge">
<title>Node2&#45;&gt;Node3</title>
<path fill="none" stroke="midnightblue" d="M234.29,-199.39C243.59,-195.84 253.17,-191.14 261,-185 283.13,-167.66 272.1,-146.05 297,-133 376.51,-91.34 485.69,-107.21 545.64,-121.03"/>
<polygon fill="midnightblue" stroke="midnightblue" points="545,-124.47 555.54,-123.39 546.63,-117.67 545,-124.47"/>
</g>
<!-- Node2&#45;&gt;Node68 -->
<g id="edge17" class="edge">
<title>Node2&#45;&gt;Node68</title>
<path fill="none" stroke="midnightblue" d="M231.17,-199.47C241.71,-195.17 252.75,-189.17 261,-181 288.41,-153.84 265.02,-123.59 297,-102 383.12,-43.87 703.65,-61.74 831.43,-71.5"/>
<polygon fill="midnightblue" stroke="midnightblue" points="831.49,-75.02 841.74,-72.31 832.04,-68.04 831.49,-75.02"/>
</g>
<!-- Node361 -->
<g id="node8" class="node">
<title>Node361</title>
<g id="a_node8"><a xlink:href="quickjs_8c.html#adfe21c674d998ca6586b7f7400352dc4" target="_top" xlink:title=" ">
<polygon fill="none" stroke="black" points="552,-294.5 552,-313.5 629,-313.5 629,-294.5 552,-294.5"/>
<text text-anchor="middle" x="590.5" y="-301.5" font-family="Helvetica,sans-Serif" font-size="10.00">js_free_desc</text>
</a>
</g>
</g>
<!-- Node2&#45;&gt;Node361 -->
<g id="edge8" class="edge">
<title>Node2&#45;&gt;Node361</title>
<path fill="none" stroke="midnightblue" d="M202.75,-218.8C214.7,-242.17 248.58,-300.92 297,-323 382.39,-361.94 496.56,-334.91 553.72,-316.76"/>
<polygon fill="midnightblue" stroke="midnightblue" points="554.96,-320.03 563.38,-313.6 552.79,-313.38 554.96,-320.03"/>
</g>
<!-- Node358 -->
<g id="node9" class="node">
<title>Node358</title>
<g id="a_node9"><a xlink:href="quickjs_8c.html#a6b42cd922447e1eb6bfc52761895a174" target="_top" xlink:title=" ">
<polygon fill="none" stroke="red" points="535.5,-218.5 535.5,-237.5 645.5,-237.5 645.5,-218.5 535.5,-218.5"/>
<text text-anchor="middle" x="590.5" y="-225.5" font-family="Helvetica,sans-Serif" font-size="10.00">js_free_prop_enum</text>
</a>
</g>
</g>
<!-- Node2&#45;&gt;Node358 -->
<g id="edge10" class="edge">
<title>Node2&#45;&gt;Node358</title>
<path fill="none" stroke="midnightblue" d="M261.34,-212.07C333.84,-215.59 451.97,-221.33 524.97,-224.87"/>
<polygon fill="midnightblue" stroke="midnightblue" points="525.24,-228.39 535.4,-225.37 525.58,-221.39 525.24,-228.39"/>
</g>
<!-- Node272 -->
<g id="node10" class="node">
<title>Node272</title>
<g id="a_node10"><a xlink:href="quickjs_8c.html#ad13892c0a0f11781b566808876658099" target="_top" xlink:title=" ">
<polygon fill="none" stroke="red" points="516,-256.5 516,-275.5 665,-275.5 665,-256.5 516,-256.5"/>
<text text-anchor="middle" x="590.5" y="-263.5" font-family="Helvetica,sans-Serif" font-size="10.00">JS_GetOwnPropertyInternal</text>
</a>
</g>
</g>
<!-- Node2&#45;&gt;Node272 -->
<g id="edge11" class="edge">
<title>Node2&#45;&gt;Node272</title>
<path fill="none" stroke="midnightblue" d="M234.47,-218.51C253.08,-223.1 276.14,-228.38 297,-232 366.99,-244.16 447.18,-253.14 505.88,-258.8"/>
<polygon fill="midnightblue" stroke="midnightblue" points="505.56,-262.29 515.84,-259.75 506.22,-255.32 505.56,-262.29"/>
</g>
<!-- Node359 -->
<g id="node11" class="node">
<title>Node359</title>
<g id="a_node11"><a xlink:href="quickjs_8c.html#a176ac5ff56a118a0b1b2566798d28823" target="_top" xlink:title=" ">
<polygon fill="none" stroke="red" points="297,-294.5 297,-313.5 480,-313.5 480,-294.5 297,-294.5"/>
<text text-anchor="middle" x="388.5" y="-301.5" font-family="Helvetica,sans-Serif" font-size="10.00">JS_GetOwnPropertyNamesInternal</text>
</a>
</g>
</g>
<!-- Node2&#45;&gt;Node359 -->
<g id="edge12" class="edge">
<title>Node2&#45;&gt;Node359</title>
<path fill="none" stroke="midnightblue" d="M208.45,-218.5C225.67,-233.66 261.61,-263.31 297,-280 306.91,-284.67 317.87,-288.55 328.64,-291.72"/>
<polygon fill="midnightblue" stroke="midnightblue" points="327.87,-295.14 338.44,-294.44 329.74,-288.4 327.87,-295.14"/>
</g>
<!-- Node124 -->
<g id="node12" class="node">
<title>Node124</title>
<g id="a_node12"><a xlink:href="quickjs_8h.html#a89b7c8686c7eee70b86be722ee4730ad" target="_top" xlink:title=" ">
<polygon fill="none" stroke="red" points="344,-142.5 344,-161.5 433,-161.5 433,-142.5 344,-142.5"/>
<text text-anchor="middle" x="388.5" y="-149.5" font-family="Helvetica,sans-Serif" font-size="10.00">JS_GetProperty</text>
</a>
</g>
</g>
<!-- Node2&#45;&gt;Node124 -->
<g id="edge16" class="edge">
<title>Node2&#45;&gt;Node124</title>
<path fill="none" stroke="midnightblue" d="M223.15,-199.46C234.69,-195.08 248.55,-189.79 261,-185 277.02,-178.83 280.54,-175.89 297,-171 308.78,-167.5 321.61,-164.39 333.81,-161.76"/>
<polygon fill="midnightblue" stroke="midnightblue" points="334.79,-165.13 343.87,-159.66 333.36,-158.27 334.79,-165.13"/>
</g>
<!-- Node436 -->
<g id="node13" class="node">
<title>Node436</title>
<g id="a_node13"><a xlink:href="quickjs_8h.html#af763b173e78debf2075670ca2c128a30" target="_top" xlink:title=" ">
<polygon fill="none" stroke="black" points="344.5,-180.5 344.5,-199.5 432.5,-199.5 432.5,-180.5 344.5,-180.5"/>
<text text-anchor="middle" x="388.5" y="-187.5" font-family="Helvetica,sans-Serif" font-size="10.00">JS_SetProperty</text>
</a>
</g>
</g>
<!-- Node2&#45;&gt;Node436 -->
<g id="edge18" class="edge">
<title>Node2&#45;&gt;Node436</title>
<path fill="none" stroke="midnightblue" d="M261.1,-202.67C284.82,-200.3 311.52,-197.62 334.25,-195.34"/>
<polygon fill="midnightblue" stroke="midnightblue" points="334.79,-198.8 344.39,-194.32 334.09,-191.84 334.79,-198.8"/>
</g>
<!-- Node4 -->
<g id="node4" class="node">
<title>Node4</title>
<g id="a_node4"><a xlink:href="quickjs_8c.html#ab50618f1bf78e444caa6da0e3e2785d7" target="_top" xlink:title=" ">
<polygon fill="none" stroke="red" points="701,-180.5 701,-199.5 805,-199.5 805,-180.5 701,-180.5"/>
<text text-anchor="middle" x="753" y="-187.5" font-family="Helvetica,sans-Serif" font-size="10.00">JS_DefineProperty</text>
</a>
</g>
</g>
<!-- Node3&#45;&gt;Node4 -->
<g id="edge3" class="edge">
<title>Node3&#45;&gt;Node4</title>
<path fill="none" stroke="midnightblue" d="M618.36,-142.54C644.98,-151.99 685.94,-166.54 715.5,-177.04"/>
<polygon fill="midnightblue" stroke="midnightblue" points="714.45,-180.38 725.05,-180.43 716.8,-173.78 714.45,-180.38"/>
</g>
<!-- Node3&#45;&gt;Node32 -->
<g id="edge7" class="edge">
<title>Node3&#45;&gt;Node32</title>
<path fill="none" stroke="midnightblue" d="M656.2,-137.01C699.67,-141.48 757.47,-150.96 805,-171 828.24,-180.8 851.27,-198.41 866.51,-211.47"/>
<polygon fill="midnightblue" stroke="midnightblue" points="864.31,-214.2 874.13,-218.18 868.94,-208.95 864.31,-214.2"/>
</g>
<!-- Node4&#45;&gt;Node32 -->
<g id="edge4" class="edge">
<title>Node4&#45;&gt;Node32</title>
<path fill="none" stroke="midnightblue" d="M786.93,-199.59C803.62,-204.45 824.09,-210.41 841.96,-215.61"/>
<polygon fill="midnightblue" stroke="midnightblue" points="841,-218.98 851.58,-218.41 842.96,-212.26 841,-218.98"/>
</g>
<!-- Node4&#45;&gt;Node68 -->
<g id="edge5" class="edge">
<title>Node4&#45;&gt;Node68</title>
<path fill="none" stroke="midnightblue" d="M765.13,-180.28C787.47,-160.76 838.01,-116.61 865.63,-92.49"/>
<polygon fill="midnightblue" stroke="midnightblue" points="868.17,-94.91 873.4,-85.69 863.57,-89.64 868.17,-94.91"/>
</g>
<!-- Node4&#45;&gt;Node147 -->
<g id="edge6" class="edge">
<title>Node4&#45;&gt;Node147</title>
<path fill="none" stroke="midnightblue" d="M765.13,-199.72C787.47,-219.24 838.01,-263.39 865.63,-287.51"/>
<polygon fill="midnightblue" stroke="midnightblue" points="863.57,-290.36 873.4,-294.31 868.17,-285.09 863.57,-290.36"/>
</g>
<!-- Node361&#45;&gt;Node32 -->
<g id="edge9" class="edge">
<title>Node361&#45;&gt;Node32</title>
<path fill="none" stroke="midnightblue" d="M628.52,-294.44C640.19,-291.42 653.13,-288.07 665,-285 724.58,-269.56 793.24,-251.73 837.68,-240.17"/>
<polygon fill="midnightblue" stroke="midnightblue" points="838.81,-243.5 847.61,-237.59 837.05,-236.72 838.81,-243.5"/>
</g>
<!-- Node359&#45;&gt;Node361 -->
<g id="edge13" class="edge">
<title>Node359&#45;&gt;Node361</title>
<path fill="none" stroke="midnightblue" d="M480.14,-304C501.32,-304 523.06,-304 541.53,-304"/>
<polygon fill="midnightblue" stroke="midnightblue" points="541.71,-307.5 551.71,-304 541.71,-300.5 541.71,-307.5"/>
</g>
<!-- Node359&#45;&gt;Node358 -->
<g id="edge14" class="edge">
<title>Node359&#45;&gt;Node358</title>
<path fill="none" stroke="midnightblue" d="M407.95,-294.48C432.23,-282.24 476.46,-260.9 516,-247 522.92,-244.57 530.31,-242.29 537.64,-240.22"/>
<polygon fill="midnightblue" stroke="midnightblue" points="538.8,-243.53 547.54,-237.53 536.97,-236.78 538.8,-243.53"/>
</g>
<!-- Node359&#45;&gt;Node272 -->
<g id="edge15" class="edge">
<title>Node359&#45;&gt;Node272</title>
<path fill="none" stroke="midnightblue" d="M439.71,-294.46C466.93,-289.29 500.76,-282.86 529.38,-277.42"/>
<polygon fill="midnightblue" stroke="midnightblue" points="530.1,-280.85 539.27,-275.54 528.79,-273.97 530.1,-280.85"/>
</g>
<!-- Node371 -->
<g id="node14" class="node">
<title>Node371</title>
<g id="a_node14"><a xlink:href="quickjs_8c.html#ad7f03358a8088ca920ab308225c6b2e6" target="_top" xlink:title=" ">
<polygon fill="none" stroke="red" points="528,-180.5 528,-199.5 653,-199.5 653,-180.5 528,-180.5"/>
<text text-anchor="middle" x="590.5" y="-187.5" font-family="Helvetica,sans-Serif" font-size="10.00">JS_SetPropertyInternal</text>
</a>
</g>
</g>
<!-- Node436&#45;&gt;Node371 -->
<g id="edge19" class="edge">
<title>Node436&#45;&gt;Node371</title>
<path fill="none" stroke="midnightblue" d="M432.9,-190C457.66,-190 489.32,-190 517.69,-190"/>
<polygon fill="midnightblue" stroke="midnightblue" points="517.98,-193.5 527.98,-190 517.98,-186.5 517.98,-193.5"/>
</g>
<!-- Node371&#45;&gt;Node4 -->
<g id="edge20" class="edge">
<title>Node371&#45;&gt;Node4</title>
<path fill="none" stroke="midnightblue" d="M653.09,-190C665.46,-190 678.44,-190 690.79,-190"/>
<polygon fill="midnightblue" stroke="midnightblue" points="690.99,-193.5 700.99,-190 690.99,-186.5 690.99,-193.5"/>
</g>
<!-- Node371&#45;&gt;Node32 -->
<g id="edge21" class="edge">
<title>Node371&#45;&gt;Node32</title>
<path fill="none" stroke="midnightblue" d="M642.09,-199.52C660.58,-202.81 681.7,-206.33 701,-209 746.53,-215.3 798.68,-220.51 835.72,-223.87"/>
<polygon fill="midnightblue" stroke="midnightblue" points="835.47,-227.36 845.74,-224.77 836.1,-220.39 835.47,-227.36"/>
</g>
<!-- Node371&#45;&gt;Node68 -->
<g id="edge22" class="edge">
<title>Node371&#45;&gt;Node68</title>
<path fill="none" stroke="midnightblue" d="M615.98,-180.48C668.22,-160.15 790.75,-112.48 850.51,-89.22"/>
<polygon fill="midnightblue" stroke="midnightblue" points="851.84,-92.46 859.89,-85.58 849.3,-85.94 851.84,-92.46"/>
</g>
<!-- Node371&#45;&gt;Node147 -->
<g id="edge23" class="edge">
<title>Node371&#45;&gt;Node147</title>
<path fill="none" stroke="midnightblue" d="M635.17,-199.5C645.12,-202.16 655.54,-205.34 665,-209 681.87,-215.53 684.62,-220.31 701,-228 752,-251.95 812.65,-276.29 849.86,-290.76"/>
<polygon fill="midnightblue" stroke="midnightblue" points="848.66,-294.05 859.25,-294.4 851.19,-287.53 848.66,-294.05"/>
</g>
<!-- Node236&#45;&gt;Node3 -->
<g id="edge29" class="edge">
<title>Node236&#45;&gt;Node3</title>
<path fill="none" stroke="midnightblue" d="M409.78,-47.63C445.36,-64.53 519.15,-99.58 560.25,-119.11"/>
<polygon fill="midnightblue" stroke="midnightblue" points="558.93,-122.35 569.47,-123.48 561.93,-116.03 558.93,-122.35"/>
</g>
<!-- Node236&#45;&gt;Node68 -->
<g id="edge30" class="edge">
<title>Node236&#45;&gt;Node68</title>
<path fill="none" stroke="midnightblue" d="M425.19,-38.66C497.22,-40.3 665.05,-45.69 805,-62 813.7,-63.01 822.89,-64.37 831.81,-65.83"/>
<polygon fill="midnightblue" stroke="midnightblue" points="831.28,-69.29 841.73,-67.52 832.46,-62.39 831.28,-69.29"/>
</g>
</g>
</svg>
