<?xml version="1.0" encoding="UTF-8" standalone="no"?>
<!DOCTYPE svg PUBLIC "-//W3C//DTD SVG 1.1//EN"
 "http://www.w3.org/Graphics/SVG/1.1/DTD/svg11.dtd">
<!-- Generated by graphviz version 2.43.0 (0)
 -->
<!-- Title: js_promise_then_finally_func Pages: 1 -->
<!--zoomable 1120 -->
<svg id="main" version="1.1" xmlns="http://www.w3.org/2000/svg" xmlns:xlink="http://www.w3.org/1999/xlink" xml:space="preserve" onload="init(evt)">
<style type="text/css"><![CDATA[
.edge:hover path { stroke: red; }
.edge:hover polygon { stroke: red; fill: red; }
]]></style>
<script type="text/javascript"><![CDATA[
var edges = document.getElementsByTagName('g');
if (edges && edges.length) {
  for (var i=0;i<edges.length;i++) {
    if (edges[i].id.substr(0,4)=='edge') {
      edges[i].setAttribute('class','edge');
    }
  }
}
]]></script>
        <defs>
                <circle id="rim" cx="0" cy="0" r="7"/>
                <circle id="rim2" cx="0" cy="0" r="3.5"/>
                <g id="zoomPlus">
                        <use xlink:href="#rim" fill="#404040">
                                <set attributeName="fill" to="#808080" begin="zoomplus.mouseover" end="zoomplus.mouseout"/>
                        </use>
                        <path d="M-4,0h8M0,-4v8" fill="none" stroke="white" stroke-width="1.5" pointer-events="none"/>
                </g>
                <g id="zoomMin">
                        <use xlink:href="#rim" fill="#404040">
                                <set attributeName="fill" to="#808080" begin="zoomminus.mouseover" end="zoomminus.mouseout"/>
                        </use>
                        <path d="M-4,0h8" fill="none" stroke="white" stroke-width="1.5" pointer-events="none"/>
                </g>
                <g id="dirArrow">
                        <path fill="none" stroke="white" stroke-width="1.5" d="M0,-3.0v7 M-2.5,-0.5L0,-3.0L2.5,-0.5"/>
                </g>
               <g id="resetDef">
                       <use xlink:href="#rim2" fill="#404040">
                               <set attributeName="fill" to="#808080" begin="reset.mouseover" end="reset.mouseout"/>
                       </use>
               </g>
        </defs>

<script type="text/javascript">
var viewWidth = 1018;
var viewHeight = 1120;
var sectionId = 'dynsection-1771';
</script>
<script xlink:href="svgpan.js"/>
<svg id="graph" class="graph">
<g id="viewport">
<title>js_promise_then_finally_func</title>
<!-- Node1 -->
<g id="node1" class="node">
<title>Node1</title>
<g id="a_node1"><a xlink:title=" ">
<polygon fill="#bfbfbf" stroke="black" points="0,-845.5 0,-864.5 158,-864.5 158,-845.5 0,-845.5"/>
<text text-anchor="middle" x="79" y="-852.5" font-family="Helvetica,sans-Serif" font-size="10.00">js_promise_then_finally_func</text>
</a>
</g>
</g>
<!-- Node2 -->
<g id="node2" class="node">
<title>Node2</title>
<g id="a_node2"><a xlink:href="quickjs_8c.html#a1a4c02a29525d5cb2085dd8bca3af350" target="_top" xlink:title=" ">
<polygon fill="none" stroke="black" points="359,-532.5 359,-551.5 409,-551.5 409,-532.5 359,-532.5"/>
<text text-anchor="middle" x="384" y="-539.5" font-family="Helvetica,sans-Serif" font-size="10.00">JS_Call</text>
</a>
</g>
</g>
<!-- Node1&#45;&gt;Node2 -->
<g id="edge1" class="edge">
<title>Node1&#45;&gt;Node2</title>
<path fill="none" stroke="midnightblue" d="M89.4,-845.29C132.43,-800.84 310.92,-616.46 366.44,-559.11"/>
<polygon fill="midnightblue" stroke="midnightblue" points="369.27,-561.22 373.71,-551.6 364.24,-556.35 369.27,-561.22"/>
</g>
<!-- Node57 -->
<g id="node10" class="node">
<title>Node57</title>
<g id="a_node10"><a xlink:href="quickjs_8h.html#afaa20c47565bc704c6c85f3d77254e7d" target="_top" xlink:title=" ">
<polygon fill="none" stroke="red" points="931,-437.5 931,-456.5 1010,-456.5 1010,-437.5 931,-437.5"/>
<text text-anchor="middle" x="970.5" y="-444.5" font-family="Helvetica,sans-Serif" font-size="10.00">JS_FreeValue</text>
</a>
</g>
</g>
<!-- Node1&#45;&gt;Node57 -->
<g id="edge32" class="edge">
<title>Node1&#45;&gt;Node57</title>
<path fill="none" stroke="midnightblue" d="M84.27,-864.66C97.07,-892.66 137.74,-974.9 194,-1023 264.57,-1083.33 290.15,-1112 383,-1112 383,-1112 383,-1112 689,-1112 795.86,-1112 836.18,-1077.22 895,-988 953.31,-899.56 966.59,-553.29 969.02,-466.71"/>
<polygon fill="midnightblue" stroke="midnightblue" points="972.52,-466.75 969.29,-456.66 965.52,-466.57 972.52,-466.75"/>
</g>
<!-- Node75 -->
<g id="node12" class="node">
<title>Node75</title>
<g id="a_node12"><a xlink:href="quickjs_8h.html#ad80a83d73e9b7d872b88fbf2943aebe9" target="_top" xlink:title=" ">
<polygon fill="none" stroke="black" points="808,-874.5 808,-893.5 895,-893.5 895,-874.5 808,-874.5"/>
<text text-anchor="middle" x="851.5" y="-881.5" font-family="Helvetica,sans-Serif" font-size="10.00">JS_IsException</text>
</a>
</g>
</g>
<!-- Node1&#45;&gt;Node75 -->
<g id="edge38" class="edge">
<title>Node1&#45;&gt;Node75</title>
<path fill="none" stroke="midnightblue" d="M84.21,-864.57C96.57,-891.36 135.58,-967.34 194,-1000 251.4,-1032.1 275.34,-1013.22 341,-1017 532.29,-1028.02 606.28,-1103.18 772,-1007 811.83,-983.89 834.67,-931.58 844.57,-903.19"/>
<polygon fill="midnightblue" stroke="midnightblue" points="847.93,-904.19 847.74,-893.6 841.28,-901.99 847.93,-904.19"/>
</g>
<!-- Node437 -->
<g id="node23" class="node">
<title>Node437</title>
<g id="a_node23"><a xlink:href="quickjs_8c.html#ad31f7a1d61971bfacede26cef8204a91" target="_top" xlink:title=" ">
<polygon fill="none" stroke="black" points="342,-988.5 342,-1007.5 426,-1007.5 426,-988.5 342,-988.5"/>
<text text-anchor="middle" x="384" y="-995.5" font-family="Helvetica,sans-Serif" font-size="10.00">JS_InvokeFree</text>
</a>
</g>
</g>
<!-- Node1&#45;&gt;Node437 -->
<g id="edge33" class="edge">
<title>Node1&#45;&gt;Node437</title>
<path fill="none" stroke="midnightblue" d="M85.97,-864.83C100.84,-888.36 142.13,-947.87 194,-974 236.85,-995.58 291.81,-1000.41 331.41,-1000.54"/>
<polygon fill="midnightblue" stroke="midnightblue" points="331.66,-1004.04 341.63,-1000.48 331.61,-997.04 331.66,-1004.04"/>
</g>
<!-- Node383 -->
<g id="node25" class="node">
<title>Node383</title>
<g id="a_node25"><a xlink:href="quickjs_8c.html#ac048b0ff95f3f0cb7c189e87f74df753" target="_top" xlink:title=" ">
<polygon fill="none" stroke="red" points="626,-950.5 626,-969.5 750,-969.5 750,-950.5 626,-950.5"/>
<text text-anchor="middle" x="688" y="-957.5" font-family="Helvetica,sans-Serif" font-size="10.00">JS_NewCFunctionData</text>
</a>
</g>
</g>
<!-- Node1&#45;&gt;Node383 -->
<g id="edge39" class="edge">
<title>Node1&#45;&gt;Node383</title>
<path fill="none" stroke="midnightblue" d="M110.64,-864.54C159.11,-879.34 256.63,-907.88 341,-925 394.65,-935.89 408.58,-936.03 463,-942 513.91,-947.59 571.51,-952.18 615.55,-955.32"/>
<polygon fill="midnightblue" stroke="midnightblue" points="615.36,-958.82 625.59,-956.03 615.86,-951.84 615.36,-958.82"/>
</g>
<!-- Node439 -->
<g id="node26" class="node">
<title>Node439</title>
<g id="a_node26"><a xlink:href="quickjs_8c.html#ac15a82ecdea657381f26bf441ddc851f" target="_top" xlink:title=" ">
<polygon fill="none" stroke="black" points="463,-27 463,-57 568,-57 568,-27 463,-27"/>
<text text-anchor="start" x="471" y="-45" font-family="Helvetica,sans-Serif" font-size="10.00">js_promise_finally</text>
<text text-anchor="middle" x="515.5" y="-34" font-family="Helvetica,sans-Serif" font-size="10.00">_thrower</text>
</a>
</g>
</g>
<!-- Node1&#45;&gt;Node439 -->
<g id="edge43" class="edge">
<title>Node1&#45;&gt;Node439</title>
<path fill="none" stroke="midnightblue" d="M80.46,-845.05C84.19,-768.67 111.28,-275.2 194,-156 251.96,-72.47 376.91,-49.73 452.53,-43.8"/>
<polygon fill="midnightblue" stroke="midnightblue" points="453.14,-47.26 462.86,-43.07 452.64,-40.28 453.14,-47.26"/>
</g>
<!-- Node440 -->
<g id="node27" class="node">
<title>Node440</title>
<g id="a_node27"><a xlink:href="quickjs_8c.html#a0824d4a55c9b28ff731b93a2262b4948" target="_top" xlink:title=" ">
<polygon fill="none" stroke="black" points="197,-166 197,-196 302,-196 302,-166 197,-166"/>
<text text-anchor="start" x="205" y="-184" font-family="Helvetica,sans-Serif" font-size="10.00">js_promise_finally</text>
<text text-anchor="middle" x="249.5" y="-173" font-family="Helvetica,sans-Serif" font-size="10.00">_value_thunk</text>
</a>
</g>
</g>
<!-- Node1&#45;&gt;Node440 -->
<g id="edge46" class="edge">
<title>Node1&#45;&gt;Node440</title>
<path fill="none" stroke="midnightblue" d="M81.09,-845.18C87.4,-789.76 121.64,-510.9 194,-295 204.8,-262.79 222.48,-227.83 234.76,-205.23"/>
<polygon fill="midnightblue" stroke="midnightblue" points="237.89,-206.8 239.66,-196.35 231.76,-203.42 237.89,-206.8"/>
</g>
<!-- Node441 -->
<g id="node28" class="node">
<title>Node441</title>
<g id="a_node28"><a xlink:href="quickjs_8c.html#a192c7bd4fc5264ccdf89e13ed5bc0dcc" target="_top" xlink:title=" ">
<polygon fill="none" stroke="black" points="194,-304.5 194,-323.5 305,-323.5 305,-304.5 194,-304.5"/>
<text text-anchor="middle" x="249.5" y="-311.5" font-family="Helvetica,sans-Serif" font-size="10.00">js_promise_resolve</text>
</a>
</g>
</g>
<!-- Node1&#45;&gt;Node441 -->
<g id="edge48" class="edge">
<title>Node1&#45;&gt;Node441</title>
<path fill="none" stroke="midnightblue" d="M83.07,-845.15C103.09,-780.87 215.12,-421.16 242.48,-333.34"/>
<polygon fill="midnightblue" stroke="midnightblue" points="245.88,-334.2 245.51,-323.61 239.19,-332.12 245.88,-334.2"/>
</g>
<!-- Node3 -->
<g id="node3" class="node">
<title>Node3</title>
<g id="a_node3"><a xlink:href="quickjs_8c.html#ac2894ff4edcdb4e6841bcce9c76081e3" target="_top" xlink:title=" ">
<polygon fill="none" stroke="red" points="472,-532.5 472,-551.5 559,-551.5 559,-532.5 472,-532.5"/>
<text text-anchor="middle" x="515.5" y="-539.5" font-family="Helvetica,sans-Serif" font-size="10.00">JS_CallInternal</text>
</a>
</g>
</g>
<!-- Node2&#45;&gt;Node3 -->
<g id="edge2" class="edge">
<title>Node2&#45;&gt;Node3</title>
<path fill="none" stroke="midnightblue" d="M409.05,-536.61C423.93,-535.45 443.62,-535.03 461.96,-535.36"/>
<polygon fill="midnightblue" stroke="midnightblue" points="461.88,-538.86 471.96,-535.62 462.06,-531.86 461.88,-538.86"/>
</g>
<!-- Node3&#45;&gt;Node2 -->
<g id="edge20" class="edge">
<title>Node3&#45;&gt;Node2</title>
<path fill="none" stroke="midnightblue" d="M471.96,-548.38C454.83,-548.97 435.34,-548.85 419.15,-548.03"/>
<polygon fill="midnightblue" stroke="midnightblue" points="419.26,-544.53 409.05,-547.39 418.81,-551.52 419.26,-544.53"/>
</g>
<!-- Node3&#45;&gt;Node3 -->
<g id="edge21" class="edge">
<title>Node3&#45;&gt;Node3</title>
<path fill="none" stroke="midnightblue" d="M495.46,-551.76C485.72,-560.57 492.39,-570 515.5,-570 530.3,-570 538.36,-566.13 539.68,-561.03"/>
<polygon fill="midnightblue" stroke="midnightblue" points="542.81,-559.46 535.54,-551.76 536.42,-562.31 542.81,-559.46"/>
</g>
<!-- Node4 -->
<g id="node4" class="node">
<title>Node4</title>
<g id="a_node4"><a xlink:href="quickjs_8c.html#a853f0924d441ea4225488f37c8b69f9a" target="_top" xlink:title=" ">
<polygon fill="none" stroke="black" points="811.5,-532.5 811.5,-551.5 891.5,-551.5 891.5,-532.5 811.5,-532.5"/>
<text text-anchor="middle" x="851.5" y="-539.5" font-family="Helvetica,sans-Serif" font-size="10.00">__attribute__</text>
</a>
</g>
</g>
<!-- Node3&#45;&gt;Node4 -->
<g id="edge3" class="edge">
<title>Node3&#45;&gt;Node4</title>
<path fill="none" stroke="midnightblue" d="M551.98,-551.51C567.78,-555.27 586.69,-559.14 604,-561 678.24,-568.97 697.86,-569.84 772,-561 784.06,-559.56 796.95,-556.92 808.72,-554.06"/>
<polygon fill="midnightblue" stroke="midnightblue" points="809.9,-557.37 818.73,-551.51 808.18,-550.58 809.9,-557.37"/>
</g>
<!-- Node5 -->
<g id="node5" class="node">
<title>Node5</title>
<g id="a_node5"><a xlink:href="quickjs_8c.html#a877fcb7651d95b411ce70e62b7f4a1f0" target="_top" xlink:title=" ">
<polygon fill="none" stroke="black" points="625.5,-684.5 625.5,-703.5 750.5,-703.5 750.5,-684.5 625.5,-684.5"/>
<text text-anchor="middle" x="688" y="-691.5" font-family="Helvetica,sans-Serif" font-size="10.00">__JS_AtomFromUInt32</text>
</a>
</g>
</g>
<!-- Node3&#45;&gt;Node5 -->
<g id="edge4" class="edge">
<title>Node3&#45;&gt;Node5</title>
<path fill="none" stroke="midnightblue" d="M519.86,-551.52C529.07,-576.19 557.23,-642.52 604,-675 607.72,-677.58 611.74,-679.82 615.93,-681.76"/>
<polygon fill="midnightblue" stroke="midnightblue" points="614.76,-685.06 625.34,-685.54 617.36,-678.56 614.76,-685.06"/>
</g>
<!-- Node6 -->
<g id="node6" class="node">
<title>Node6</title>
<g id="a_node6"><a xlink:href="quickjs_8h.html#a9bf98b18de88b4199910a43e933eb97d" target="_top" xlink:title=" ">
<polygon fill="none" stroke="black" points="638,-646.5 638,-665.5 738,-665.5 738,-646.5 638,-646.5"/>
<text text-anchor="middle" x="688" y="-653.5" font-family="Helvetica,sans-Serif" font-size="10.00">__JS_NewFloat64</text>
</a>
</g>
</g>
<!-- Node3&#45;&gt;Node6 -->
<g id="edge5" class="edge">
<title>Node3&#45;&gt;Node6</title>
<path fill="none" stroke="midnightblue" d="M522.4,-551.57C534.89,-570.97 565.99,-614.94 604,-637 611.35,-641.27 619.59,-644.57 627.94,-647.14"/>
<polygon fill="midnightblue" stroke="midnightblue" points="627.19,-650.56 637.75,-649.82 629.03,-643.81 627.19,-650.56"/>
</g>
<!-- Node7 -->
<g id="node7" class="node">
<title>Node7</title>
<g id="a_node7"><a xlink:href="quickjs_8c.html#a74547db03bf739a52c83a326b32db997" target="_top" xlink:title=" ">
<polygon fill="none" stroke="red" points="647.5,-608.5 647.5,-627.5 728.5,-627.5 728.5,-608.5 647.5,-608.5"/>
<text text-anchor="middle" x="688" y="-615.5" font-family="Helvetica,sans-Serif" font-size="10.00">add_property</text>
</a>
</g>
</g>
<!-- Node3&#45;&gt;Node7 -->
<g id="edge6" class="edge">
<title>Node3&#45;&gt;Node7</title>
<path fill="none" stroke="midnightblue" d="M530.16,-551.62C546.89,-563.05 576.44,-582.06 604,-594 614.65,-598.61 626.43,-602.63 637.7,-605.99"/>
<polygon fill="midnightblue" stroke="midnightblue" points="636.86,-609.38 647.43,-608.77 638.78,-602.65 636.86,-609.38"/>
</g>
<!-- Node65 -->
<g id="node8" class="node">
<title>Node65</title>
<g id="a_node8"><a xlink:href="quickjs_8c.html#a4956f45ffd2849b96dc051277264f87a" target="_top" xlink:title=" ">
<polygon fill="none" stroke="red" points="647,-494.5 647,-513.5 729,-513.5 729,-494.5 647,-494.5"/>
<text text-anchor="middle" x="688" y="-501.5" font-family="Helvetica,sans-Serif" font-size="10.00">build_arg_list</text>
</a>
</g>
</g>
<!-- Node3&#45;&gt;Node65 -->
<g id="edge7" class="edge">
<title>Node3&#45;&gt;Node65</title>
<path fill="none" stroke="midnightblue" d="M559.08,-532.51C582.66,-527.25 612.11,-520.69 636.81,-515.19"/>
<polygon fill="midnightblue" stroke="midnightblue" points="637.72,-518.57 646.72,-512.98 636.19,-511.74 637.72,-518.57"/>
</g>
<!-- Node66 -->
<g id="node9" class="node">
<title>Node66</title>
<g id="a_node9"><a xlink:href="quickjs_8c.html#ac864482356b3efc2d0b0a509fcfa4c7c" target="_top" xlink:title=" ">
<polygon fill="none" stroke="red" points="813,-456.5 813,-475.5 890,-475.5 890,-456.5 813,-456.5"/>
<text text-anchor="middle" x="851.5" y="-463.5" font-family="Helvetica,sans-Serif" font-size="10.00">free_arg_list</text>
</a>
</g>
</g>
<!-- Node3&#45;&gt;Node66 -->
<g id="edge17" class="edge">
<title>Node3&#45;&gt;Node66</title>
<path fill="none" stroke="midnightblue" d="M527.15,-532.46C542.73,-519.14 573.27,-495.43 604,-485 670.16,-462.55 751.85,-460.97 802.57,-462.79"/>
<polygon fill="midnightblue" stroke="midnightblue" points="802.46,-466.29 812.6,-463.21 802.75,-459.3 802.46,-466.29"/>
</g>
<!-- Node3&#45;&gt;Node57 -->
<g id="edge23" class="edge">
<title>Node3&#45;&gt;Node57</title>
<path fill="none" stroke="midnightblue" d="M522.82,-532.47C535.6,-514.12 566.52,-474.26 604,-458 709.32,-412.29 848.25,-425.68 920.74,-437.47"/>
<polygon fill="midnightblue" stroke="midnightblue" points="920.49,-440.98 930.94,-439.19 921.66,-434.08 920.49,-440.98"/>
</g>
<!-- Node36 -->
<g id="node11" class="node">
<title>Node36</title>
<g id="a_node11"><a xlink:href="quickjs_8h.html#a775522f2d084fc8fa0fcb33f390006b4" target="_top" xlink:title=" ">
<polygon fill="none" stroke="black" points="813,-190.5 813,-209.5 890,-209.5 890,-190.5 813,-190.5"/>
<text text-anchor="middle" x="851.5" y="-197.5" font-family="Helvetica,sans-Serif" font-size="10.00">JS_DupValue</text>
</a>
</g>
</g>
<!-- Node3&#45;&gt;Node36 -->
<g id="edge22" class="edge">
<title>Node3&#45;&gt;Node36</title>
<path fill="none" stroke="midnightblue" d="M520.3,-532.2C530.16,-508.08 559.02,-445.5 604,-414 667.13,-369.79 712.83,-420.39 772,-371 819.75,-331.15 839.89,-255.99 847.08,-220.08"/>
<polygon fill="midnightblue" stroke="midnightblue" points="850.59,-220.37 848.98,-209.9 843.71,-219.09 850.59,-220.37"/>
</g>
<!-- Node3&#45;&gt;Node75 -->
<g id="edge25" class="edge">
<title>Node3&#45;&gt;Node75</title>
<path fill="none" stroke="midnightblue" d="M516.27,-551.6C515.87,-591.87 519.93,-748.67 604,-827 618.16,-840.19 729.61,-862.23 797.71,-874.68"/>
<polygon fill="midnightblue" stroke="midnightblue" points="797.37,-878.18 807.83,-876.52 798.62,-871.29 797.37,-878.18"/>
</g>
<!-- Node161 -->
<g id="node13" class="node">
<title>Node161</title>
<g id="a_node13"><a xlink:href="quickjs_8c.html#a61c8dfb5e807af1b6ff7d8ca61576dda" target="_top" xlink:title=" ">
<polygon fill="none" stroke="red" points="641,-532.5 641,-551.5 735,-551.5 735,-532.5 641,-532.5"/>
<text text-anchor="middle" x="688" y="-539.5" font-family="Helvetica,sans-Serif" font-size="10.00">build_backtrace</text>
</a>
</g>
</g>
<!-- Node3&#45;&gt;Node161 -->
<g id="edge13" class="edge">
<title>Node3&#45;&gt;Node161</title>
<path fill="none" stroke="midnightblue" d="M559.08,-542C580.74,-542 607.34,-542 630.66,-542"/>
<polygon fill="midnightblue" stroke="midnightblue" points="630.77,-545.5 640.77,-542 630.77,-538.5 630.77,-545.5"/>
</g>
<!-- Node248 -->
<g id="node14" class="node">
<title>Node248</title>
<g id="a_node14"><a xlink:href="quickjs_8c.html#a344894112559c2ba75043fd10bcfa02f" target="_top" xlink:title=" ">
<polygon fill="none" stroke="red" points="637.5,-342.5 637.5,-361.5 738.5,-361.5 738.5,-342.5 637.5,-342.5"/>
<text text-anchor="middle" x="688" y="-349.5" font-family="Helvetica,sans-Serif" font-size="10.00">close_lexical_var</text>
</a>
</g>
</g>
<!-- Node3&#45;&gt;Node248 -->
<g id="edge14" class="edge">
<title>Node3&#45;&gt;Node248</title>
<path fill="none" stroke="midnightblue" d="M518.72,-532.44C525.82,-504.03 550.71,-419.41 604,-376 610.93,-370.36 619.13,-366.04 627.63,-362.74"/>
<polygon fill="midnightblue" stroke="midnightblue" points="628.98,-365.97 637.31,-359.42 626.71,-359.35 628.98,-365.97"/>
</g>
<!-- Node249 -->
<g id="node15" class="node">
<title>Node249</title>
<g id="a_node15"><a xlink:href="quickjs_8c.html#a1782043fce951bd4f0d91c7796b31e24" target="_top" xlink:title=" ">
<polygon fill="none" stroke="red" points="644.5,-798.5 644.5,-817.5 731.5,-817.5 731.5,-798.5 644.5,-798.5"/>
<text text-anchor="middle" x="688" y="-805.5" font-family="Helvetica,sans-Serif" font-size="10.00">close_var_refs</text>
</a>
</g>
</g>
<!-- Node3&#45;&gt;Node249 -->
<g id="edge16" class="edge">
<title>Node3&#45;&gt;Node249</title>
<path fill="none" stroke="midnightblue" d="M516.78,-551.58C518.41,-588.47 529.44,-722.58 604,-789 612.45,-796.53 623.27,-801.25 634.29,-804.18"/>
<polygon fill="midnightblue" stroke="midnightblue" points="633.88,-807.67 644.4,-806.39 635.37,-800.83 633.88,-807.67"/>
</g>
<!-- Node54 -->
<g id="node16" class="node">
<title>Node54</title>
<g id="a_node16"><a xlink:href="quickjs_8c.html#a9e7b4bccf927d811b0f99b40b08c0472" target="_top" xlink:title=" ">
<polygon fill="none" stroke="red" points="650,-760.5 650,-779.5 726,-779.5 726,-760.5 650,-760.5"/>
<text text-anchor="middle" x="688" y="-767.5" font-family="Helvetica,sans-Serif" font-size="10.00">free_var_ref</text>
</a>
</g>
</g>
<!-- Node3&#45;&gt;Node54 -->
<g id="edge18" class="edge">
<title>Node3&#45;&gt;Node54</title>
<path fill="none" stroke="midnightblue" d="M517.48,-551.71C521.39,-585.11 539,-696.28 604,-751 613.99,-759.41 626.98,-764.28 639.7,-767.05"/>
<polygon fill="midnightblue" stroke="midnightblue" points="639.32,-770.54 649.78,-768.85 640.55,-763.65 639.32,-770.54"/>
</g>
<!-- Node251 -->
<g id="node17" class="node">
<title>Node251</title>
<g id="a_node17"><a xlink:href="cutils_8h.html#a7c82a3ee025fee89db5b11ff5b7691b8" target="_top" xlink:title=" ">
<polygon fill="none" stroke="black" points="661.5,-722.5 661.5,-741.5 714.5,-741.5 714.5,-722.5 661.5,-722.5"/>
<text text-anchor="middle" x="688" y="-729.5" font-family="Helvetica,sans-Serif" font-size="10.00">get_i16</text>
</a>
</g>
</g>
<!-- Node3&#45;&gt;Node251 -->
<g id="edge19" class="edge">
<title>Node3&#45;&gt;Node251</title>
<path fill="none" stroke="midnightblue" d="M518.42,-551.57C524.82,-580.8 548.21,-669.57 604,-713 617.4,-723.43 635.48,-728.32 651.34,-730.55"/>
<polygon fill="midnightblue" stroke="midnightblue" points="651.05,-734.04 661.38,-731.66 651.82,-727.08 651.05,-734.04"/>
</g>
<!-- Node68 -->
<g id="node18" class="node">
<title>Node68</title>
<g id="a_node18"><a xlink:href="quickjs_8h.html#a89b7c8686c7eee70b86be722ee4730ad" target="_top" xlink:title=" ">
<polygon fill="none" stroke="red" points="643.5,-912.5 643.5,-931.5 732.5,-931.5 732.5,-912.5 643.5,-912.5"/>
<text text-anchor="middle" x="688" y="-919.5" font-family="Helvetica,sans-Serif" font-size="10.00">JS_GetProperty</text>
</a>
</g>
</g>
<!-- Node3&#45;&gt;Node68 -->
<g id="edge24" class="edge">
<title>Node3&#45;&gt;Node68</title>
<path fill="none" stroke="midnightblue" d="M516.91,-551.51C519.11,-592.24 532.18,-754.77 604,-860 617.81,-880.24 640.43,-896.5 658.57,-907.28"/>
<polygon fill="midnightblue" stroke="midnightblue" points="657.16,-910.5 667.58,-912.41 660.63,-904.42 657.16,-910.5"/>
</g>
<!-- Node287 -->
<g id="node19" class="node">
<title>Node287</title>
<g id="a_node19"><a xlink:href="quickjs_8h.html#a3d68fe446df2d9c7d1900b16371bff5b" target="_top" xlink:title=" ">
<polygon fill="none" stroke="black" points="652.5,-266.5 652.5,-285.5 723.5,-285.5 723.5,-266.5 652.5,-266.5"/>
<text text-anchor="middle" x="688" y="-273.5" font-family="Helvetica,sans-Serif" font-size="10.00">JS_IsObject</text>
</a>
</g>
</g>
<!-- Node3&#45;&gt;Node287 -->
<g id="edge26" class="edge">
<title>Node3&#45;&gt;Node287</title>
<path fill="none" stroke="midnightblue" d="M518.5,-532.24C525.43,-500.48 550.89,-398.31 604,-333 618.52,-315.15 640.05,-300.59 657.54,-290.65"/>
<polygon fill="midnightblue" stroke="midnightblue" points="659.67,-293.47 666.78,-285.61 656.32,-287.33 659.67,-293.47"/>
</g>
<!-- Node234 -->
<g id="node20" class="node">
<title>Node234</title>
<g id="a_node20"><a xlink:href="quickjs_8c.html#a24be89a128d1cd7c0908604815b2b854" target="_top" xlink:title=" ">
<polygon fill="none" stroke="red" points="643.5,-190.5 643.5,-209.5 732.5,-209.5 732.5,-190.5 643.5,-190.5"/>
<text text-anchor="middle" x="688" y="-197.5" font-family="Helvetica,sans-Serif" font-size="10.00">js_same_value</text>
</a>
</g>
</g>
<!-- Node3&#45;&gt;Node234 -->
<g id="edge27" class="edge">
<title>Node3&#45;&gt;Node234</title>
<path fill="none" stroke="midnightblue" d="M517.78,-532.26C524.43,-483.32 556.46,-264.7 604,-219 612,-211.31 622.44,-206.5 633.2,-203.54"/>
<polygon fill="midnightblue" stroke="midnightblue" points="634.12,-206.92 643.11,-201.31 632.59,-200.09 634.12,-206.92"/>
</g>
<!-- Node208 -->
<g id="node21" class="node">
<title>Node208</title>
<g id="a_node21"><a xlink:href="quickjs_8c.html#a3ae8a83da71ef07d6e858d172d9c5a81" target="_top" xlink:title=" ">
<polygon fill="none" stroke="black" points="657.5,-0.5 657.5,-19.5 718.5,-19.5 718.5,-0.5 657.5,-0.5"/>
<text text-anchor="middle" x="688" y="-7.5" font-family="Helvetica,sans-Serif" font-size="10.00">JS_Throw</text>
</a>
</g>
</g>
<!-- Node3&#45;&gt;Node208 -->
<g id="edge29" class="edge">
<title>Node3&#45;&gt;Node208</title>
<path fill="none" stroke="midnightblue" d="M517.39,-532.37C521.83,-487.01 543.79,-290.77 604,-143 622.11,-98.55 654.65,-52.23 673.15,-27.71"/>
<polygon fill="midnightblue" stroke="midnightblue" points="675.98,-29.77 679.28,-19.7 670.42,-25.52 675.98,-29.77"/>
</g>
<!-- Node245 -->
<g id="node22" class="node">
<title>Node245</title>
<g id="a_node22"><a xlink:href="quickjs_8c.html#a726b00d108e0a0f4d958c36c2e426a64" target="_top" xlink:title=" ">
<polygon fill="none" stroke="black" points="604,-228.5 604,-247.5 772,-247.5 772,-228.5 604,-228.5"/>
<text text-anchor="middle" x="688" y="-235.5" font-family="Helvetica,sans-Serif" font-size="10.00">JS_ThrowTypeErrorNotAnObject</text>
</a>
</g>
</g>
<!-- Node3&#45;&gt;Node245 -->
<g id="edge31" class="edge">
<title>Node3&#45;&gt;Node245</title>
<path fill="none" stroke="midnightblue" d="M516.27,-532.39C515.85,-492.11 519.85,-335.24 604,-257 605.67,-255.45 607.44,-254.01 609.3,-252.68"/>
<polygon fill="midnightblue" stroke="midnightblue" points="611.1,-255.68 617.89,-247.55 607.51,-249.67 611.1,-255.68"/>
</g>
<!-- Node65&#45;&gt;Node4 -->
<g id="edge8" class="edge">
<title>Node65&#45;&gt;Node4</title>
<path fill="none" stroke="midnightblue" d="M729.13,-513.08C742.75,-516.19 758.04,-519.71 772,-523 781.52,-525.24 791.68,-527.67 801.43,-530.02"/>
<polygon fill="midnightblue" stroke="midnightblue" points="800.85,-533.48 811.39,-532.43 802.5,-526.68 800.85,-533.48"/>
</g>
<!-- Node65&#45;&gt;Node66 -->
<g id="edge9" class="edge">
<title>Node65&#45;&gt;Node66</title>
<path fill="none" stroke="midnightblue" d="M729.34,-494.51C751.64,-489.26 779.48,-482.71 802.84,-477.21"/>
<polygon fill="midnightblue" stroke="midnightblue" points="803.96,-480.55 812.89,-474.85 802.36,-473.73 803.96,-480.55"/>
</g>
<!-- Node65&#45;&gt;Node36 -->
<g id="edge11" class="edge">
<title>Node65&#45;&gt;Node36</title>
<path fill="none" stroke="midnightblue" d="M698.92,-494.33C715.84,-477.37 750.55,-440.6 772,-404 809.02,-340.83 834.83,-256.99 845.3,-219.53"/>
<polygon fill="midnightblue" stroke="midnightblue" points="848.68,-220.43 847.94,-209.86 841.93,-218.58 848.68,-220.43"/>
</g>
<!-- Node65&#45;&gt;Node75 -->
<g id="edge12" class="edge">
<title>Node65&#45;&gt;Node75</title>
<path fill="none" stroke="midnightblue" d="M729.32,-504.39C744.55,-506.59 760.88,-511.75 772,-523 820.71,-572.25 843.11,-795.4 848.92,-863.92"/>
<polygon fill="midnightblue" stroke="midnightblue" points="845.45,-864.52 849.76,-874.2 852.43,-863.95 845.45,-864.52"/>
</g>
<!-- Node66&#45;&gt;Node57 -->
<g id="edge10" class="edge">
<title>Node66&#45;&gt;Node57</title>
<path fill="none" stroke="midnightblue" d="M890.16,-459.88C899.88,-458.31 910.49,-456.58 920.68,-454.93"/>
<polygon fill="midnightblue" stroke="midnightblue" points="921.39,-458.36 930.7,-453.3 920.27,-451.45 921.39,-458.36"/>
</g>
<!-- Node248&#45;&gt;Node36 -->
<g id="edge15" class="edge">
<title>Node248&#45;&gt;Node36</title>
<path fill="none" stroke="midnightblue" d="M705.9,-342.32C723.42,-331.86 751.11,-314.12 772,-295 798.28,-270.95 823.58,-238 838.06,-217.9"/>
<polygon fill="midnightblue" stroke="midnightblue" points="840.99,-219.83 843.92,-209.64 835.28,-215.78 840.99,-219.83"/>
</g>
<!-- Node234&#45;&gt;Node36 -->
<g id="edge28" class="edge">
<title>Node234&#45;&gt;Node36</title>
<path fill="none" stroke="midnightblue" d="M732.7,-200C754.32,-200 780.45,-200 802.6,-200"/>
<polygon fill="midnightblue" stroke="midnightblue" points="802.8,-203.5 812.8,-200 802.8,-196.5 802.8,-203.5"/>
</g>
<!-- Node208&#45;&gt;Node57 -->
<g id="edge30" class="edge">
<title>Node208&#45;&gt;Node57</title>
<path fill="none" stroke="midnightblue" d="M718.77,-13.35C735.21,-16.12 755.58,-21.11 772,-30 838.08,-65.78 857.1,-81.12 895,-146 950.67,-241.31 964.96,-377.02 968.44,-427.29"/>
<polygon fill="midnightblue" stroke="midnightblue" points="964.95,-427.66 969.07,-437.42 971.94,-427.22 964.95,-427.66"/>
</g>
<!-- Node437&#45;&gt;Node57 -->
<g id="edge34" class="edge">
<title>Node437&#45;&gt;Node57</title>
<path fill="none" stroke="midnightblue" d="M416.74,-1007.53C510.62,-1033.55 787.13,-1094.01 895,-940 950.02,-861.44 965.61,-549.47 968.81,-467.06"/>
<polygon fill="midnightblue" stroke="midnightblue" points="972.32,-466.74 969.19,-456.62 965.33,-466.48 972.32,-466.74"/>
</g>
<!-- Node438 -->
<g id="node24" class="node">
<title>Node438</title>
<g id="a_node24"><a xlink:href="quickjs_8c.html#ad09ec172570d05d2166ed3069f85c7b5" target="_top" xlink:title=" ">
<polygon fill="none" stroke="red" points="484,-988.5 484,-1007.5 547,-1007.5 547,-988.5 484,-988.5"/>
<text text-anchor="middle" x="515.5" y="-995.5" font-family="Helvetica,sans-Serif" font-size="10.00">JS_Invoke</text>
</a>
</g>
</g>
<!-- Node437&#45;&gt;Node438 -->
<g id="edge35" class="edge">
<title>Node437&#45;&gt;Node438</title>
<path fill="none" stroke="midnightblue" d="M426.33,-998C441.49,-998 458.62,-998 473.73,-998"/>
<polygon fill="midnightblue" stroke="midnightblue" points="473.81,-1001.5 483.81,-998 473.81,-994.5 473.81,-1001.5"/>
</g>
<!-- Node438&#45;&gt;Node75 -->
<g id="edge37" class="edge">
<title>Node438&#45;&gt;Node75</title>
<path fill="none" stroke="midnightblue" d="M547.28,-1003.09C597.48,-1009.85 698.71,-1016.9 772,-979 804.61,-962.14 828.78,-925.19 841.16,-902.67"/>
<polygon fill="midnightblue" stroke="midnightblue" points="844.31,-904.21 845.88,-893.73 838.12,-900.94 844.31,-904.21"/>
</g>
<!-- Node438&#45;&gt;Node68 -->
<g id="edge36" class="edge">
<title>Node438&#45;&gt;Node68</title>
<path fill="none" stroke="midnightblue" d="M528.19,-988.43C544.28,-975.73 574.63,-953.46 604,-941 613.29,-937.06 623.52,-933.87 633.54,-931.31"/>
<polygon fill="midnightblue" stroke="midnightblue" points="634.52,-934.68 643.44,-928.96 632.9,-927.86 634.52,-934.68"/>
</g>
<!-- Node383&#45;&gt;Node57 -->
<g id="edge41" class="edge">
<title>Node383&#45;&gt;Node57</title>
<path fill="none" stroke="midnightblue" d="M750.23,-960.14C796.99,-956.74 859.3,-943.99 895,-903 953.12,-836.27 966.4,-545.81 968.96,-466.87"/>
<polygon fill="midnightblue" stroke="midnightblue" points="972.46,-466.91 969.26,-456.81 965.46,-466.7 972.46,-466.91"/>
</g>
<!-- Node383&#45;&gt;Node36 -->
<g id="edge40" class="edge">
<title>Node383&#45;&gt;Node36</title>
<path fill="none" stroke="midnightblue" d="M750.3,-955.48C758.6,-952.35 766.22,-947.73 772,-941 807.84,-899.24 801.33,-501.63 808,-447 818.39,-361.94 837.95,-261.57 846.42,-219.79"/>
<polygon fill="midnightblue" stroke="midnightblue" points="849.88,-220.33 848.45,-209.83 843.02,-218.93 849.88,-220.33"/>
</g>
<!-- Node383&#45;&gt;Node75 -->
<g id="edge42" class="edge">
<title>Node383&#45;&gt;Node75</title>
<path fill="none" stroke="midnightblue" d="M744.94,-950.46C754.19,-947.96 763.52,-944.85 772,-941 794.77,-930.65 817.54,-913.13 832.64,-900.24"/>
<polygon fill="midnightblue" stroke="midnightblue" points="834.98,-902.85 840.2,-893.63 830.37,-897.58 834.98,-902.85"/>
</g>
<!-- Node439&#45;&gt;Node36 -->
<g id="edge44" class="edge">
<title>Node439&#45;&gt;Node36</title>
<path fill="none" stroke="midnightblue" d="M568.12,-35.53C623.05,-31.34 710.38,-32.61 772,-72 811.93,-97.52 834.73,-151.34 844.6,-180.4"/>
<polygon fill="midnightblue" stroke="midnightblue" points="841.36,-181.76 847.76,-190.21 848.03,-179.62 841.36,-181.76"/>
</g>
<!-- Node439&#45;&gt;Node208 -->
<g id="edge45" class="edge">
<title>Node439&#45;&gt;Node208</title>
<path fill="none" stroke="midnightblue" d="M568.12,-32.31C593.56,-27.54 623.76,-21.87 647.36,-17.44"/>
<polygon fill="midnightblue" stroke="midnightblue" points="648.18,-20.85 657.36,-15.56 646.89,-13.97 648.18,-20.85"/>
</g>
<!-- Node440&#45;&gt;Node36 -->
<g id="edge47" class="edge">
<title>Node440&#45;&gt;Node36</title>
<path fill="none" stroke="midnightblue" d="M266.99,-165.89C288.26,-146.79 324.48,-115.71 341,-110 431.53,-78.73 684.81,-70.35 772,-110 804.08,-124.59 828.17,-159.48 840.73,-181.28"/>
<polygon fill="midnightblue" stroke="midnightblue" points="837.79,-183.19 845.68,-190.26 843.92,-179.81 837.79,-183.19"/>
</g>
<!-- Node441&#45;&gt;Node2 -->
<g id="edge49" class="edge">
<title>Node441&#45;&gt;Node2</title>
<path fill="none" stroke="midnightblue" d="M256.02,-323.51C276.1,-358.05 345.42,-477.34 372.27,-523.53"/>
<polygon fill="midnightblue" stroke="midnightblue" points="369.4,-525.57 377.45,-532.45 375.45,-522.05 369.4,-525.57"/>
</g>
<!-- Node441&#45;&gt;Node57 -->
<g id="edge51" class="edge">
<title>Node441&#45;&gt;Node57</title>
<path fill="none" stroke="midnightblue" d="M305.11,-314C358.49,-314 442.08,-314 514.5,-314 514.5,-314 514.5,-314 689,-314 796.9,-314 907.59,-395.34 950.71,-430.8"/>
<polygon fill="midnightblue" stroke="midnightblue" points="948.72,-433.7 958.64,-437.43 953.22,-428.33 948.72,-433.7"/>
</g>
<!-- Node441&#45;&gt;Node36 -->
<g id="edge50" class="edge">
<title>Node441&#45;&gt;Node36</title>
<path fill="none" stroke="midnightblue" d="M255.86,-304.22C268.05,-282.94 299.98,-232.22 341,-206 442.27,-141.26 484.46,-155.58 604,-143 678.26,-135.19 700.98,-119.94 772,-143 796.33,-150.9 819.42,-169.49 834.18,-183.3"/>
<polygon fill="midnightblue" stroke="midnightblue" points="831.86,-185.93 841.48,-190.39 836.74,-180.91 831.86,-185.93"/>
</g>
<!-- Node441&#45;&gt;Node75 -->
<g id="edge54" class="edge">
<title>Node441&#45;&gt;Node75</title>
<path fill="none" stroke="midnightblue" d="M252.65,-323.51C260.59,-357.54 290.5,-475.73 341,-561 431.52,-713.86 445.68,-781.41 604,-862 665.02,-893.06 745.6,-893.98 797.74,-890.24"/>
<polygon fill="midnightblue" stroke="midnightblue" points="798.08,-893.72 807.77,-889.44 797.53,-886.75 798.08,-893.72"/>
</g>
<!-- Node441&#45;&gt;Node68 -->
<g id="edge53" class="edge">
<title>Node441&#45;&gt;Node68</title>
<path fill="none" stroke="midnightblue" d="M250.43,-323.94C250.18,-394.3 252.42,-816.61 341,-898 382.27,-935.93 546.52,-931.38 633.04,-926.08"/>
<polygon fill="midnightblue" stroke="midnightblue" points="633.44,-929.56 643.19,-925.43 632.99,-922.58 633.44,-929.56"/>
</g>
<!-- Node441&#45;&gt;Node287 -->
<g id="edge55" class="edge">
<title>Node441&#45;&gt;Node287</title>
<path fill="none" stroke="midnightblue" d="M305.44,-304.74C317.15,-302.98 329.47,-301.29 341,-300 448.64,-287.96 575.84,-280.99 641.97,-277.91"/>
<polygon fill="midnightblue" stroke="midnightblue" points="642.21,-281.4 652.04,-277.45 641.89,-274.41 642.21,-281.4"/>
</g>
<!-- Node441&#45;&gt;Node234 -->
<g id="edge60" class="edge">
<title>Node441&#45;&gt;Node234</title>
<path fill="none" stroke="midnightblue" d="M266.61,-304.35C284.29,-294.15 313.77,-278.3 341,-269 441.34,-234.73 564.2,-215.25 633.23,-206.24"/>
<polygon fill="midnightblue" stroke="midnightblue" points="633.95,-209.67 643.43,-204.93 633.06,-202.73 633.95,-209.67"/>
</g>
<!-- Node441&#45;&gt;Node245 -->
<g id="edge61" class="edge">
<title>Node441&#45;&gt;Node245</title>
<path fill="none" stroke="midnightblue" d="M280,-304.42C297.56,-299 320.38,-292.43 341,-288 425.84,-269.77 523.83,-256.31 593.82,-247.97"/>
<polygon fill="midnightblue" stroke="midnightblue" points="594.42,-251.43 603.94,-246.78 593.6,-244.48 594.42,-251.43"/>
</g>
<!-- Node442 -->
<g id="node29" class="node">
<title>Node442</title>
<g id="a_node29"><a xlink:href="quickjs_8c.html#a5644dc5dba0d760dcc06cc1a79e256cc" target="_top" xlink:title=" ">
<polygon fill="none" stroke="black" points="341,-342.5 341,-361.5 427,-361.5 427,-342.5 341,-342.5"/>
<text text-anchor="middle" x="384" y="-349.5" font-family="Helvetica,sans-Serif" font-size="10.00">JS_GetOpaque</text>
</a>
</g>
</g>
<!-- Node441&#45;&gt;Node442 -->
<g id="edge52" class="edge">
<title>Node441&#45;&gt;Node442</title>
<path fill="none" stroke="midnightblue" d="M283.94,-323.59C300.88,-328.45 321.66,-334.41 339.81,-339.61"/>
<polygon fill="midnightblue" stroke="midnightblue" points="339,-343.02 349.58,-342.41 340.93,-336.29 339,-343.02"/>
</g>
<!-- Node376 -->
<g id="node30" class="node">
<title>Node376</title>
<g id="a_node30"><a xlink:href="quickjs_8c.html#a28c0ccdd26317bc38d0a693f1dffe4dc" target="_top" xlink:title=" ">
<polygon fill="none" stroke="red" points="613.5,-152.5 613.5,-171.5 762.5,-171.5 762.5,-152.5 613.5,-152.5"/>
<text text-anchor="middle" x="688" y="-159.5" font-family="Helvetica,sans-Serif" font-size="10.00">js_new_promise_capability</text>
</a>
</g>
</g>
<!-- Node441&#45;&gt;Node376 -->
<g id="edge56" class="edge">
<title>Node441&#45;&gt;Node376</title>
<path fill="none" stroke="midnightblue" d="M259.57,-304.46C274.86,-288.94 307.42,-258.33 341,-242 425.06,-201.11 530.92,-180.59 603.27,-170.66"/>
<polygon fill="midnightblue" stroke="midnightblue" points="603.8,-174.12 613.25,-169.33 602.87,-167.18 603.8,-174.12"/>
</g>
<!-- Node376&#45;&gt;Node57 -->
<g id="edge58" class="edge">
<title>Node376&#45;&gt;Node57</title>
<path fill="none" stroke="midnightblue" d="M735.56,-152.49C781.42,-145.98 850.86,-144.21 895,-181 933.69,-213.25 959.04,-371.63 966.9,-427.47"/>
<polygon fill="midnightblue" stroke="midnightblue" points="963.44,-428.04 968.27,-437.47 970.38,-427.09 963.44,-428.04"/>
</g>
<!-- Node376&#45;&gt;Node36 -->
<g id="edge57" class="edge">
<title>Node376&#45;&gt;Node36</title>
<path fill="none" stroke="midnightblue" d="M731.25,-171.56C744.32,-174.55 758.76,-177.88 772,-181 782.03,-183.36 792.77,-185.93 802.99,-188.4"/>
<polygon fill="midnightblue" stroke="midnightblue" points="802.45,-191.87 812.99,-190.82 804.09,-185.07 802.45,-191.87"/>
</g>
<!-- Node376&#45;&gt;Node75 -->
<g id="edge59" class="edge">
<title>Node376&#45;&gt;Node75</title>
<path fill="none" stroke="midnightblue" d="M760.52,-171.56C764.79,-174.11 768.69,-177.22 772,-181 827.94,-244.76 798.47,-476.72 808,-561 821.01,-675.97 840.36,-813.44 847.62,-864.05"/>
<polygon fill="midnightblue" stroke="midnightblue" points="844.2,-864.84 849.08,-874.24 851.12,-863.84 844.2,-864.84"/>
</g>
</g>
</svg>
        <g id="navigator" transform="translate(0 0)" fill="#404254">
                <rect fill="#f2f5e9" fill-opacity="0.5" stroke="#606060" stroke-width=".5" x="0" y="0" width="60" height="60"/>
                <use id="zoomplus" xlink:href="#zoomPlus" x="17" y="9" onmousedown="handleZoom(evt,'in')"/>
                <use id="zoomminus" xlink:href="#zoomMin" x="42" y="9" onmousedown="handleZoom(evt,'out')"/>
                <use id="reset" xlink:href="#resetDef" x="30" y="36" onmousedown="handleReset()"/>
                <g id="arrowUp" xlink:href="#dirArrow" transform="translate(30 24)" onmousedown="handlePan(0,-1)">
                  <use xlink:href="#rim" fill="#404040">
                        <set attributeName="fill" to="#808080" begin="arrowUp.mouseover" end="arrowUp.mouseout"/>
                  </use>
                  <path fill="none" stroke="white" stroke-width="1.5" d="M0,-3.0v7 M-2.5,-0.5L0,-3.0L2.5,-0.5"/>
                </g>
                <g id="arrowRight" xlink:href="#dirArrow" transform="rotate(90) translate(36 -43)" onmousedown="handlePan(1,0)">
                  <use xlink:href="#rim" fill="#404040">
                        <set attributeName="fill" to="#808080" begin="arrowRight.mouseover" end="arrowRight.mouseout"/>
                  </use>
                  <path fill="none" stroke="white" stroke-width="1.5" d="M0,-3.0v7 M-2.5,-0.5L0,-3.0L2.5,-0.5"/>
                </g>
                <g id="arrowDown" xlink:href="#dirArrow" transform="rotate(180) translate(-30 -48)" onmousedown="handlePan(0,1)">
                  <use xlink:href="#rim" fill="#404040">
                        <set attributeName="fill" to="#808080" begin="arrowDown.mouseover" end="arrowDown.mouseout"/>
                  </use>
                  <path fill="none" stroke="white" stroke-width="1.5" d="M0,-3.0v7 M-2.5,-0.5L0,-3.0L2.5,-0.5"/>
                </g>
                <g id="arrowLeft" xlink:href="#dirArrow" transform="rotate(270) translate(-36 17)" onmousedown="handlePan(-1,0)">
                  <use xlink:href="#rim" fill="#404040">
                        <set attributeName="fill" to="#808080" begin="arrowLeft.mouseover" end="arrowLeft.mouseout"/>
                  </use>
                  <path fill="none" stroke="white" stroke-width="1.5" d="M0,-3.0v7 M-2.5,-0.5L0,-3.0L2.5,-0.5"/>
                </g>
        </g>
        <svg viewBox="0 0 15 15" width="100%" height="30px" preserveAspectRatio="xMaxYMin meet">
         <g id="arrow_out" transform="scale(0.3 0.3)">
          <a xlink:href="quickjs_8c_a976c7217666ebb9ef04fd8cba9ba2dd2_cgraph_org.svg" target="_base">
           <rect id="button" ry="5" rx="5" y="6" x="6" height="38" width="38"
                fill="#f2f5e9" fill-opacity="0.5" stroke="#606060" stroke-width="1.0"/>
           <path id="arrow"
             d="M 11.500037,31.436501 C 11.940474,20.09759 22.043105,11.32322 32.158766,21.979434 L 37.068811,17.246167 C 37.068811,17.246167 37.088388,32 37.088388,32 L 22.160133,31.978069 C 22.160133,31.978069 26.997745,27.140456 26.997745,27.140456 C 18.528582,18.264221 13.291696,25.230495 11.500037,31.436501 z"
             style="fill:#404040;"/>
          </a>
         </g>
        </svg>
</svg>
