<?xml version="1.0" encoding="UTF-8" standalone="no"?>
<!DOCTYPE svg PUBLIC "-//W3C//DTD SVG 1.1//EN"
 "http://www.w3.org/Graphics/SVG/1.1/DTD/svg11.dtd">
<!-- Generated by graphviz version 2.43.0 (0)
 -->
<!-- Title: js_check_stack_overflow Pages: 1 -->
<svg width="829pt" height="898pt"
 viewBox="0.00 0.00 829.00 898.00" xmlns="http://www.w3.org/2000/svg" xmlns:xlink="http://www.w3.org/1999/xlink">
<g id="graph0" class="graph" transform="scale(1 1) rotate(0) translate(4 894)">
<title>js_check_stack_overflow</title>
<!-- Node1 -->
<g id="node1" class="node">
<title>Node1</title>
<g id="a_node1"><a xlink:title=" ">
<polygon fill="#bfbfbf" stroke="black" points="684,-226.5 684,-245.5 821,-245.5 821,-226.5 684,-226.5"/>
<text text-anchor="middle" x="752.5" y="-233.5" font-family="Helvetica,sans-Serif" font-size="10.00">js_check_stack_overflow</text>
</a>
</g>
</g>
<!-- Node2 -->
<g id="node2" class="node">
<title>Node2</title>
<g id="a_node2"><a xlink:href="quickjs_8c.html#ade71a22dc56e7371392393df663b28b3" target="_top" xlink:title=" ">
<polygon fill="none" stroke="black" points="338.5,-352.5 338.5,-371.5 451.5,-371.5 451.5,-352.5 338.5,-352.5"/>
<text text-anchor="middle" x="395" y="-359.5" font-family="Helvetica,sans-Serif" font-size="10.00">async_func_resume</text>
</a>
</g>
</g>
<!-- Node1&#45;&gt;Node2 -->
<g id="edge1" class="edge">
<title>Node1&#45;&gt;Node2</title>
<path fill="none" stroke="midnightblue" d="M746.31,-255.75C735.35,-292.95 705.94,-372.54 648,-405 593.72,-435.41 567.55,-423.03 508,-405 489.6,-399.43 489.59,-388.78 472,-381 463.42,-377.2 453.94,-374.07 444.67,-371.53"/>
<polygon fill="midnightblue" stroke="midnightblue" points="749.81,-256.24 749.13,-245.67 743.07,-254.36 749.81,-256.24"/>
</g>
<!-- Node21 -->
<g id="node8" class="node">
<title>Node21</title>
<g id="a_node8"><a xlink:href="quickjs_8c.html#a9e94551ddba8762d74eda5127445dbbd" target="_top" xlink:title=" ">
<polygon fill="none" stroke="black" points="524,-611.5 524,-630.5 632,-630.5 632,-611.5 524,-611.5"/>
<text text-anchor="middle" x="578" y="-618.5" font-family="Helvetica,sans-Serif" font-size="10.00">get_proxy_method</text>
</a>
</g>
</g>
<!-- Node1&#45;&gt;Node21 -->
<g id="edge7" class="edge">
<title>Node1&#45;&gt;Node21</title>
<path fill="none" stroke="midnightblue" d="M743.11,-254.73C712.28,-323.53 605.93,-560.89 583.27,-611.47"/>
<polygon fill="midnightblue" stroke="midnightblue" points="746.34,-256.07 747.24,-245.52 739.95,-253.21 746.34,-256.07"/>
</g>
<!-- Node36 -->
<g id="node22" class="node">
<title>Node36</title>
<g id="a_node22"><a xlink:href="quickjs_8c.html#a624282391413d4c5a030adbd8b77aa80" target="_top" xlink:title=" ">
<polygon fill="none" stroke="red" points="508,-358.5 508,-377.5 648,-377.5 648,-358.5 508,-358.5"/>
<text text-anchor="middle" x="578" y="-365.5" font-family="Helvetica,sans-Serif" font-size="10.00">internalize_json_property</text>
</a>
</g>
</g>
<!-- Node1&#45;&gt;Node36 -->
<g id="edge22" class="edge">
<title>Node1&#45;&gt;Node36</title>
<path fill="none" stroke="midnightblue" d="M739.85,-254.1C722.74,-279.19 688.45,-324.26 648,-349 641.64,-352.89 634.47,-356 627.22,-358.48"/>
<polygon fill="midnightblue" stroke="midnightblue" points="742.91,-255.81 745.54,-245.54 737.09,-251.93 742.91,-255.81"/>
</g>
<!-- Node47 -->
<g id="node23" class="node">
<title>Node47</title>
<g id="a_node23"><a xlink:href="quickjs_8c.html#afd4ef2d701fa0702f321925b61c57bbf" target="_top" xlink:title=" ">
<polygon fill="none" stroke="black" points="145,-264.5 145,-283.5 273,-283.5 273,-264.5 145,-264.5"/>
<text text-anchor="middle" x="209" y="-271.5" font-family="Helvetica,sans-Serif" font-size="10.00">js_call_bound_function</text>
</a>
</g>
</g>
<!-- Node1&#45;&gt;Node47 -->
<g id="edge24" class="edge">
<title>Node1&#45;&gt;Node47</title>
<path fill="none" stroke="midnightblue" d="M676.93,-246.81C667.21,-248 657.38,-249.11 648,-250 514.94,-262.62 358.47,-269.22 273.22,-272.12"/>
<polygon fill="midnightblue" stroke="midnightblue" points="677.51,-250.26 686.99,-245.53 676.63,-243.32 677.51,-250.26"/>
</g>
<!-- Node238 -->
<g id="node24" class="node">
<title>Node238</title>
<g id="a_node24"><a xlink:href="quickjs_8c.html#a3486836f2ac17a9fa315904e14858e5a" target="_top" xlink:title=" ">
<polygon fill="none" stroke="black" points="157.5,-226.5 157.5,-245.5 260.5,-245.5 260.5,-226.5 157.5,-226.5"/>
<text text-anchor="middle" x="209" y="-233.5" font-family="Helvetica,sans-Serif" font-size="10.00">js_call_c_function</text>
</a>
</g>
</g>
<!-- Node1&#45;&gt;Node238 -->
<g id="edge26" class="edge">
<title>Node1&#45;&gt;Node238</title>
<path fill="none" stroke="midnightblue" d="M673.46,-236C560.71,-236 355.39,-236 260.53,-236"/>
<polygon fill="midnightblue" stroke="midnightblue" points="673.74,-239.5 683.74,-236 673.74,-232.5 673.74,-239.5"/>
</g>
<!-- Node32 -->
<g id="node25" class="node">
<title>Node32</title>
<g id="a_node25"><a xlink:href="quickjs_8c.html#ac2894ff4edcdb4e6841bcce9c76081e3" target="_top" xlink:title=" ">
<polygon fill="none" stroke="red" points="534.5,-302.5 534.5,-321.5 621.5,-321.5 621.5,-302.5 534.5,-302.5"/>
<text text-anchor="middle" x="578" y="-309.5" font-family="Helvetica,sans-Serif" font-size="10.00">JS_CallInternal</text>
</a>
</g>
</g>
<!-- Node1&#45;&gt;Node32 -->
<g id="edge28" class="edge">
<title>Node1&#45;&gt;Node32</title>
<path fill="none" stroke="midnightblue" d="M725.44,-250.29C704.77,-261.32 674.98,-276.59 648,-288 635.5,-293.29 621.4,-298.35 609.21,-302.45"/>
<polygon fill="midnightblue" stroke="midnightblue" points="727.1,-253.37 734.25,-245.54 723.78,-247.2 727.1,-253.37"/>
</g>
<!-- Node50 -->
<g id="node26" class="node">
<title>Node50</title>
<g id="a_node26"><a xlink:href="quickjs_8c.html#ad90c33b4aae1181151bda4a98ac2ef23" target="_top" xlink:title=" ">
<polygon fill="none" stroke="red" points="523,-170.5 523,-189.5 633,-189.5 633,-170.5 523,-170.5"/>
<text text-anchor="middle" x="578" y="-177.5" font-family="Helvetica,sans-Serif" font-size="10.00">JS_FlattenIntoArray</text>
</a>
</g>
</g>
<!-- Node1&#45;&gt;Node50 -->
<g id="edge31" class="edge">
<title>Node1&#45;&gt;Node50</title>
<path fill="none" stroke="midnightblue" d="M712.04,-223.19C680.44,-212.93 636.82,-198.77 608.27,-189.5"/>
<polygon fill="midnightblue" stroke="midnightblue" points="711.25,-226.61 721.85,-226.37 713.42,-219.96 711.25,-226.61"/>
</g>
<!-- Node62 -->
<g id="node27" class="node">
<title>Node62</title>
<g id="a_node27"><a xlink:href="quickjs_8c.html#a4b8ef2bb3b35e4a5f6ed8bd837a50e7c" target="_top" xlink:title=" ">
<polygon fill="none" stroke="red" points="525.5,-132.5 525.5,-151.5 630.5,-151.5 630.5,-132.5 525.5,-132.5"/>
<text text-anchor="middle" x="578" y="-139.5" font-family="Helvetica,sans-Serif" font-size="10.00">JS_ReadObjectRec</text>
</a>
</g>
</g>
<!-- Node1&#45;&gt;Node62 -->
<g id="edge33" class="edge">
<title>Node1&#45;&gt;Node62</title>
<path fill="none" stroke="midnightblue" d="M733.26,-219.62C713.55,-202.71 680.55,-176.64 648,-161 640.16,-157.23 631.45,-154.11 622.93,-151.55"/>
<polygon fill="midnightblue" stroke="midnightblue" points="731.03,-222.31 740.86,-226.25 735.63,-217.04 731.03,-222.31"/>
</g>
<!-- Node361 -->
<g id="node28" class="node">
<title>Node361</title>
<g id="a_node28"><a xlink:href="quickjs_8c.html#aa9342f7444c1c9f8743d43aa4d7f89e3" target="_top" xlink:title=" ">
<polygon fill="none" stroke="red" points="524.5,-76.5 524.5,-95.5 631.5,-95.5 631.5,-76.5 524.5,-76.5"/>
<text text-anchor="middle" x="578" y="-83.5" font-family="Helvetica,sans-Serif" font-size="10.00">JS_WriteObjectRec</text>
</a>
</g>
</g>
<!-- Node1&#45;&gt;Node361 -->
<g id="edge34" class="edge">
<title>Node1&#45;&gt;Node361</title>
<path fill="none" stroke="midnightblue" d="M738.19,-218.03C719.85,-194.16 684.88,-151.66 648,-123 633.62,-111.82 615.39,-102.21 601.28,-95.58"/>
<polygon fill="midnightblue" stroke="midnightblue" points="735.55,-220.34 744.37,-226.21 741.13,-216.12 735.55,-220.34"/>
</g>
<!-- Node615 -->
<g id="node29" class="node">
<title>Node615</title>
<g id="a_node29"><a xlink:href="quickjs_8c.html#a7fbd31397bde22dfa2b876b945f9afb4" target="_top" xlink:title=" ">
<polygon fill="none" stroke="red" points="530,-38.5 530,-57.5 626,-57.5 626,-38.5 530,-38.5"/>
<text text-anchor="middle" x="578" y="-45.5" font-family="Helvetica,sans-Serif" font-size="10.00">json_next_token</text>
</a>
</g>
</g>
<!-- Node1&#45;&gt;Node615 -->
<g id="edge36" class="edge">
<title>Node1&#45;&gt;Node615</title>
<path fill="none" stroke="midnightblue" d="M745.07,-216.61C732.35,-181.31 700.57,-106.55 648,-67 641.55,-62.14 633.92,-58.53 626.14,-55.84"/>
<polygon fill="midnightblue" stroke="midnightblue" points="741.82,-217.92 748.41,-226.22 748.43,-215.62 741.82,-217.92"/>
</g>
<!-- Node617 -->
<g id="node30" class="node">
<title>Node617</title>
<g id="a_node30"><a xlink:href="quickjs_8c.html#a75a3798e2045f6e403c1ef467126d1fb" target="_top" xlink:title=" ">
<polygon fill="none" stroke="red" points="542.5,-0.5 542.5,-19.5 613.5,-19.5 613.5,-0.5 542.5,-0.5"/>
<text text-anchor="middle" x="578" y="-7.5" font-family="Helvetica,sans-Serif" font-size="10.00">next_token</text>
</a>
</g>
</g>
<!-- Node1&#45;&gt;Node617 -->
<g id="edge37" class="edge">
<title>Node1&#45;&gt;Node617</title>
<path fill="none" stroke="midnightblue" d="M747.41,-216.63C737.72,-175.58 709.42,-79.48 648,-29 638.3,-21.03 625.52,-16.39 613.59,-13.7"/>
<polygon fill="midnightblue" stroke="midnightblue" points="744.01,-217.46 749.62,-226.45 750.84,-215.93 744.01,-217.46"/>
</g>
<!-- Node3 -->
<g id="node3" class="node">
<title>Node3</title>
<g id="a_node3"><a xlink:href="quickjs_8c.html#a1bf6b62983e8fff99c0a5d5a9f486115" target="_top" xlink:title=" ">
<polygon fill="none" stroke="red" points="136,-352.5 136,-371.5 282,-371.5 282,-352.5 136,-352.5"/>
<text text-anchor="middle" x="209" y="-359.5" font-family="Helvetica,sans-Serif" font-size="10.00">js_async_function_resume</text>
</a>
</g>
</g>
<!-- Node2&#45;&gt;Node3 -->
<g id="edge2" class="edge">
<title>Node2&#45;&gt;Node3</title>
<path fill="none" stroke="midnightblue" d="M328.16,-362C313.25,-362 297.34,-362 282.19,-362"/>
<polygon fill="midnightblue" stroke="midnightblue" points="328.29,-365.5 338.29,-362 328.29,-358.5 328.29,-365.5"/>
</g>
<!-- Node11 -->
<g id="node4" class="node">
<title>Node11</title>
<g id="a_node4"><a xlink:href="quickjs_8c.html#ae19867da709929c072f05e90301835a4" target="_top" xlink:title=" ">
<polygon fill="none" stroke="red" points="153.5,-303 153.5,-333 264.5,-333 264.5,-303 153.5,-303"/>
<text text-anchor="start" x="161.5" y="-321" font-family="Helvetica,sans-Serif" font-size="10.00">js_async_generator</text>
<text text-anchor="middle" x="209" y="-310" font-family="Helvetica,sans-Serif" font-size="10.00">_function_call</text>
</a>
</g>
</g>
<!-- Node2&#45;&gt;Node11 -->
<g id="edge3" class="edge">
<title>Node2&#45;&gt;Node11</title>
<path fill="none" stroke="midnightblue" d="M344.21,-350.09C319.56,-344.2 289.76,-337.07 264.51,-331.03"/>
<polygon fill="midnightblue" stroke="midnightblue" points="343.53,-353.53 354.07,-352.45 345.16,-346.72 343.53,-353.53"/>
</g>
<!-- Node12 -->
<g id="node5" class="node">
<title>Node12</title>
<g id="a_node5"><a xlink:href="quickjs_8c.html#a89b019c704a2d2914bc30b30a72040b3" target="_top" xlink:title=" ">
<polygon fill="none" stroke="black" points="153.5,-429 153.5,-459 264.5,-459 264.5,-429 153.5,-429"/>
<text text-anchor="start" x="161.5" y="-447" font-family="Helvetica,sans-Serif" font-size="10.00">js_async_generator</text>
<text text-anchor="middle" x="209" y="-436" font-family="Helvetica,sans-Serif" font-size="10.00">_resume_next</text>
</a>
</g>
</g>
<!-- Node2&#45;&gt;Node12 -->
<g id="edge4" class="edge">
<title>Node2&#45;&gt;Node12</title>
<path fill="none" stroke="midnightblue" d="M330.27,-374.99C326,-376.75 321.87,-378.74 318,-381 297.91,-392.73 301.54,-406.38 282,-419 276.11,-422.8 269.57,-426.1 262.91,-428.95"/>
<polygon fill="midnightblue" stroke="midnightblue" points="331.58,-378.24 339.76,-371.51 329.17,-371.66 331.58,-378.24"/>
</g>
<!-- Node13 -->
<g id="node6" class="node">
<title>Node13</title>
<g id="a_node6"><a xlink:href="quickjs_8c.html#ac90552b1f1659acb3dae9a4c62479a30" target="_top" xlink:title=" ">
<polygon fill="none" stroke="black" points="136.5,-390.5 136.5,-409.5 281.5,-409.5 281.5,-390.5 136.5,-390.5"/>
<text text-anchor="middle" x="209" y="-397.5" font-family="Helvetica,sans-Serif" font-size="10.00">js_generator_function_call</text>
</a>
</g>
</g>
<!-- Node2&#45;&gt;Node13 -->
<g id="edge5" class="edge">
<title>Node2&#45;&gt;Node13</title>
<path fill="none" stroke="midnightblue" d="M337.44,-373.68C311.35,-379.07 280.76,-385.39 256.1,-390.48"/>
<polygon fill="midnightblue" stroke="midnightblue" points="338.48,-377.04 347.57,-371.59 337.07,-370.18 338.48,-377.04"/>
</g>
<!-- Node14 -->
<g id="node7" class="node">
<title>Node14</title>
<g id="a_node7"><a xlink:href="quickjs_8c.html#a27966451027feb455b5da12c1578771c" target="_top" xlink:title=" ">
<polygon fill="none" stroke="red" points="0,-264.5 0,-283.5 100,-283.5 100,-264.5 0,-264.5"/>
<text text-anchor="middle" x="50" y="-271.5" font-family="Helvetica,sans-Serif" font-size="10.00">JS_NewRuntime2</text>
</a>
</g>
</g>
<!-- Node13&#45;&gt;Node14 -->
<g id="edge6" class="edge">
<title>Node13&#45;&gt;Node14</title>
<path fill="none" stroke="midnightblue" d="M146.04,-386.55C142.54,-384.91 139.16,-383.07 136,-381 96.48,-355.18 67.04,-304.84 55.89,-283.71"/>
<polygon fill="midnightblue" stroke="midnightblue" points="144.97,-389.89 155.55,-390.45 147.63,-383.42 144.97,-389.89"/>
</g>
<!-- Node22 -->
<g id="node9" class="node">
<title>Node22</title>
<g id="a_node9"><a xlink:href="quickjs_8c.html#ab9f916b6a1fda4cec1a1eb6d691ed89c" target="_top" xlink:title=" ">
<polygon fill="none" stroke="red" points="169,-737.5 169,-756.5 249,-756.5 249,-737.5 169,-737.5"/>
<text text-anchor="middle" x="209" y="-744.5" font-family="Helvetica,sans-Serif" font-size="10.00">js_proxy_call</text>
</a>
</g>
</g>
<!-- Node21&#45;&gt;Node22 -->
<g id="edge8" class="edge">
<title>Node21&#45;&gt;Node22</title>
<path fill="none" stroke="midnightblue" d="M568.08,-639.89C553.03,-669.24 519.52,-724.74 472,-747 398.68,-781.34 300.65,-767.93 247.73,-756.56"/>
<polygon fill="midnightblue" stroke="midnightblue" points="571.33,-641.21 572.63,-630.69 565.06,-638.11 571.33,-641.21"/>
</g>
<!-- Node24 -->
<g id="node10" class="node">
<title>Node24</title>
<g id="a_node10"><a xlink:href="quickjs_8c.html#af97646b66d6fcb8bd19543d93baeadd7" target="_top" xlink:title=" ">
<polygon fill="none" stroke="black" points="325,-718.5 325,-737.5 465,-737.5 465,-718.5 325,-718.5"/>
<text text-anchor="middle" x="395" y="-725.5" font-family="Helvetica,sans-Serif" font-size="10.00">js_proxy_call_constructor</text>
</a>
</g>
</g>
<!-- Node21&#45;&gt;Node24 -->
<g id="edge9" class="edge">
<title>Node21&#45;&gt;Node24</title>
<path fill="none" stroke="midnightblue" d="M561.11,-638.07C541.85,-657.75 507.53,-689.74 472,-708 463.63,-712.3 454.25,-715.74 445.01,-718.46"/>
<polygon fill="midnightblue" stroke="midnightblue" points="563.78,-640.34 568.17,-630.7 558.73,-635.49 563.78,-640.34"/>
</g>
<!-- Node25 -->
<g id="node11" class="node">
<title>Node25</title>
<g id="a_node11"><a xlink:href="quickjs_8c.html#a7e5b77a4851eee6f666581d051979392" target="_top" xlink:title=" ">
<polygon fill="none" stroke="black" points="335.5,-669 335.5,-699 454.5,-699 454.5,-669 335.5,-669"/>
<text text-anchor="start" x="343.5" y="-687" font-family="Helvetica,sans-Serif" font-size="10.00">js_proxy_define_own</text>
<text text-anchor="middle" x="395" y="-676" font-family="Helvetica,sans-Serif" font-size="10.00">_property</text>
</a>
</g>
</g>
<!-- Node21&#45;&gt;Node25 -->
<g id="edge11" class="edge">
<title>Node21&#45;&gt;Node25</title>
<path fill="none" stroke="midnightblue" d="M541.7,-634.07C521.37,-641.52 495.31,-650.95 472,-659 462.55,-662.26 452.4,-665.67 442.7,-668.88"/>
<polygon fill="midnightblue" stroke="midnightblue" points="543.01,-637.32 551.18,-630.58 540.59,-630.75 543.01,-637.32"/>
</g>
<!-- Node26 -->
<g id="node12" class="node">
<title>Node26</title>
<g id="a_node12"><a xlink:href="quickjs_8c.html#acffb121a8a0ee2b735f60c1db01e79e7" target="_top" xlink:title=" ">
<polygon fill="none" stroke="black" points="325,-630.5 325,-649.5 465,-649.5 465,-630.5 325,-630.5"/>
<text text-anchor="middle" x="395" y="-637.5" font-family="Helvetica,sans-Serif" font-size="10.00">js_proxy_delete_property</text>
</a>
</g>
</g>
<!-- Node21&#45;&gt;Node26 -->
<g id="edge12" class="edge">
<title>Node21&#45;&gt;Node26</title>
<path fill="none" stroke="midnightblue" d="M513.56,-627.66C497.88,-629.31 481.01,-631.08 465.07,-632.75"/>
<polygon fill="midnightblue" stroke="midnightblue" points="514.09,-631.12 523.67,-626.6 513.36,-624.16 514.09,-631.12"/>
</g>
<!-- Node27 -->
<g id="node13" class="node">
<title>Node27</title>
<g id="a_node13"><a xlink:href="quickjs_8c.html#a45df491949e8e055e732eb13c446d47b" target="_top" xlink:title=" ">
<polygon fill="none" stroke="black" points="355.5,-592.5 355.5,-611.5 434.5,-611.5 434.5,-592.5 355.5,-592.5"/>
<text text-anchor="middle" x="395" y="-599.5" font-family="Helvetica,sans-Serif" font-size="10.00">js_proxy_get</text>
</a>
</g>
</g>
<!-- Node21&#45;&gt;Node27 -->
<g id="edge13" class="edge">
<title>Node21&#45;&gt;Node27</title>
<path fill="none" stroke="midnightblue" d="M513.41,-614.32C487.12,-611.57 457.5,-608.46 434.59,-606.05"/>
<polygon fill="midnightblue" stroke="midnightblue" points="513.36,-617.84 523.67,-615.4 514.09,-610.88 513.36,-617.84"/>
</g>
<!-- Node28 -->
<g id="node14" class="node">
<title>Node28</title>
<g id="a_node14"><a xlink:href="quickjs_8c.html#ab9c2e9c8dab72f3c057efe4ffcced332" target="_top" xlink:title=" ">
<polygon fill="none" stroke="black" points="319.5,-554.5 319.5,-573.5 470.5,-573.5 470.5,-554.5 319.5,-554.5"/>
<text text-anchor="middle" x="395" y="-561.5" font-family="Helvetica,sans-Serif" font-size="10.00">js_proxy_get_own_property</text>
</a>
</g>
</g>
<!-- Node21&#45;&gt;Node28 -->
<g id="edge14" class="edge">
<title>Node21&#45;&gt;Node28</title>
<path fill="none" stroke="midnightblue" d="M543.14,-607.75C522.71,-600 496.06,-590.34 472,-583 460.94,-579.63 448.85,-576.4 437.63,-573.59"/>
<polygon fill="midnightblue" stroke="midnightblue" points="542.04,-611.07 552.63,-611.38 544.54,-604.54 542.04,-611.07"/>
</g>
<!-- Node29 -->
<g id="node15" class="node">
<title>Node29</title>
<g id="a_node15"><a xlink:href="quickjs_8c.html#a438b354d69a8f0674195b0cdc19dd686" target="_top" xlink:title=" ">
<polygon fill="none" stroke="black" points="319.5,-505 319.5,-535 470.5,-535 470.5,-505 319.5,-505"/>
<text text-anchor="start" x="327.5" y="-523" font-family="Helvetica,sans-Serif" font-size="10.00">js_proxy_get_own_property</text>
<text text-anchor="middle" x="395" y="-512" font-family="Helvetica,sans-Serif" font-size="10.00">_names</text>
</a>
</g>
</g>
<!-- Node21&#45;&gt;Node29 -->
<g id="edge15" class="edge">
<title>Node21&#45;&gt;Node29</title>
<path fill="none" stroke="midnightblue" d="M558.34,-604.72C538.2,-587.85 504.62,-561.66 472,-545 464.7,-541.27 456.73,-537.94 448.78,-535.01"/>
<polygon fill="midnightblue" stroke="midnightblue" points="556.22,-607.52 566.1,-611.33 560.75,-602.19 556.22,-607.52"/>
</g>
<!-- Node30 -->
<g id="node16" class="node">
<title>Node30</title>
<g id="a_node16"><a xlink:href="quickjs_8c.html#adda8732f2afb3bb7bd7e5f59e3ba022d" target="_top" xlink:title=" ">
<polygon fill="none" stroke="red" points="326.5,-466.5 326.5,-485.5 463.5,-485.5 463.5,-466.5 326.5,-466.5"/>
<text text-anchor="middle" x="395" y="-473.5" font-family="Helvetica,sans-Serif" font-size="10.00">js_proxy_getPrototypeOf</text>
</a>
</g>
</g>
<!-- Node21&#45;&gt;Node30 -->
<g id="edge16" class="edge">
<title>Node21&#45;&gt;Node30</title>
<path fill="none" stroke="midnightblue" d="M566.88,-602.63C550.63,-574.89 516.01,-522.62 472,-495 465.78,-491.1 458.8,-487.99 451.66,-485.53"/>
<polygon fill="midnightblue" stroke="midnightblue" points="563.86,-604.39 571.85,-611.34 569.94,-600.92 563.86,-604.39"/>
</g>
<!-- Node394 -->
<g id="node17" class="node">
<title>Node394</title>
<g id="a_node17"><a xlink:href="quickjs_8c.html#a1bddfeab11a7cfee6bd88781073b5972" target="_top" xlink:title=" ">
<polygon fill="none" stroke="black" points="355,-428.5 355,-447.5 435,-447.5 435,-428.5 355,-428.5"/>
<text text-anchor="middle" x="395" y="-435.5" font-family="Helvetica,sans-Serif" font-size="10.00">js_proxy_has</text>
</a>
</g>
</g>
<!-- Node21&#45;&gt;Node394 -->
<g id="edge17" class="edge">
<title>Node21&#45;&gt;Node394</title>
<path fill="none" stroke="midnightblue" d="M570.15,-601.61C556.87,-566.97 524.27,-494.56 472,-457 461.29,-449.3 447.78,-444.71 435.14,-441.97"/>
<polygon fill="midnightblue" stroke="midnightblue" points="567.03,-603.27 573.78,-611.44 573.59,-600.84 567.03,-603.27"/>
</g>
<!-- Node601 -->
<g id="node18" class="node">
<title>Node601</title>
<g id="a_node18"><a xlink:href="quickjs_8c.html#a89d3c8659c2a6a62d3528b6b6794b24f" target="_top" xlink:title=" ">
<polygon fill="none" stroke="red" points="334,-390.5 334,-409.5 456,-409.5 456,-390.5 334,-390.5"/>
<text text-anchor="middle" x="395" y="-397.5" font-family="Helvetica,sans-Serif" font-size="10.00">js_proxy_isExtensible</text>
</a>
</g>
</g>
<!-- Node21&#45;&gt;Node601 -->
<g id="edge18" class="edge">
<title>Node21&#45;&gt;Node601</title>
<path fill="none" stroke="midnightblue" d="M572.57,-601.41C562.33,-560.8 533.1,-467.23 472,-419 467.09,-415.12 461.49,-412.03 455.61,-409.55"/>
<polygon fill="midnightblue" stroke="midnightblue" points="569.17,-602.26 574.92,-611.17 575.98,-600.63 569.17,-602.26"/>
</g>
<!-- Node604 -->
<g id="node19" class="node">
<title>Node604</title>
<g id="a_node19"><a xlink:href="quickjs_8c.html#a7be64afafb067c71764032c0708d7aa3" target="_top" xlink:title=" ">
<polygon fill="none" stroke="red" points="318,-870.5 318,-889.5 472,-889.5 472,-870.5 318,-870.5"/>
<text text-anchor="middle" x="395" y="-877.5" font-family="Helvetica,sans-Serif" font-size="10.00">js_proxy_preventExtensions</text>
</a>
</g>
</g>
<!-- Node21&#45;&gt;Node604 -->
<g id="edge19" class="edge">
<title>Node21&#45;&gt;Node604</title>
<path fill="none" stroke="midnightblue" d="M574.31,-640.69C566.95,-686.68 542.13,-801.73 472,-861 467.43,-864.86 462.18,-867.96 456.63,-870.44"/>
<polygon fill="midnightblue" stroke="midnightblue" points="577.81,-640.97 575.82,-630.56 570.88,-639.94 577.81,-640.97"/>
</g>
<!-- Node133 -->
<g id="node20" class="node">
<title>Node133</title>
<g id="a_node20"><a xlink:href="quickjs_8c.html#ad38b16d301e8f3661cf4c115c86511b3" target="_top" xlink:title=" ">
<polygon fill="none" stroke="black" points="356,-832.5 356,-851.5 434,-851.5 434,-832.5 356,-832.5"/>
<text text-anchor="middle" x="395" y="-839.5" font-family="Helvetica,sans-Serif" font-size="10.00">js_proxy_set</text>
</a>
</g>
</g>
<!-- Node21&#45;&gt;Node133 -->
<g id="edge20" class="edge">
<title>Node21&#45;&gt;Node133</title>
<path fill="none" stroke="midnightblue" d="M572.57,-640.59C562.33,-681.2 533.1,-774.77 472,-823 461.32,-831.43 447.39,-836.17 434.38,-838.82"/>
<polygon fill="midnightblue" stroke="midnightblue" points="575.98,-641.37 574.92,-630.83 569.17,-639.74 575.98,-641.37"/>
</g>
<!-- Node607 -->
<g id="node21" class="node">
<title>Node607</title>
<g id="a_node21"><a xlink:href="quickjs_8c.html#ae8b32777df50bb192c19840adc4d32a1" target="_top" xlink:title=" ">
<polygon fill="none" stroke="red" points="326.5,-794.5 326.5,-813.5 463.5,-813.5 463.5,-794.5 326.5,-794.5"/>
<text text-anchor="middle" x="395" y="-801.5" font-family="Helvetica,sans-Serif" font-size="10.00">js_proxy_setPrototypeOf</text>
</a>
</g>
</g>
<!-- Node21&#45;&gt;Node607 -->
<g id="edge21" class="edge">
<title>Node21&#45;&gt;Node607</title>
<path fill="none" stroke="midnightblue" d="M569.55,-639.97C555.53,-673.26 522.03,-742.24 472,-780 463.61,-786.33 453.5,-791.02 443.43,-794.49"/>
<polygon fill="midnightblue" stroke="midnightblue" points="572.88,-641.08 573.42,-630.5 566.4,-638.44 572.88,-641.08"/>
</g>
<!-- Node24&#45;&gt;Node22 -->
<g id="edge10" class="edge">
<title>Node24&#45;&gt;Node22</title>
<path fill="none" stroke="midnightblue" d="M314.96,-736.16C292.22,-738.51 268.4,-740.97 249.21,-742.95"/>
<polygon fill="midnightblue" stroke="midnightblue" points="315.37,-739.64 324.96,-735.13 314.66,-732.67 315.37,-739.64"/>
</g>
<!-- Node36&#45;&gt;Node36 -->
<g id="edge23" class="edge">
<title>Node36&#45;&gt;Node36</title>
<path fill="none" stroke="midnightblue" d="M610.56,-386.27C609.63,-391.74 598.78,-396 578,-396 547.07,-396 538.13,-386.57 551.18,-377.76"/>
<polygon fill="midnightblue" stroke="midnightblue" points="613.31,-384.09 604.82,-377.76 607.51,-388.01 613.31,-384.09"/>
</g>
<!-- Node47&#45;&gt;Node14 -->
<g id="edge25" class="edge">
<title>Node47&#45;&gt;Node14</title>
<path fill="none" stroke="midnightblue" d="M134.44,-274C122.81,-274 111.04,-274 100.15,-274"/>
<polygon fill="midnightblue" stroke="midnightblue" points="134.59,-277.5 144.59,-274 134.59,-270.5 134.59,-277.5"/>
</g>
<!-- Node238&#45;&gt;Node14 -->
<g id="edge27" class="edge">
<title>Node238&#45;&gt;Node14</title>
<path fill="none" stroke="midnightblue" d="M158.55,-247.97C136.55,-253.29 111.01,-259.48 90.33,-264.48"/>
<polygon fill="midnightblue" stroke="midnightblue" points="159.49,-251.34 168.38,-245.59 157.84,-244.54 159.49,-251.34"/>
</g>
<!-- Node32&#45;&gt;Node2 -->
<g id="edge29" class="edge">
<title>Node32&#45;&gt;Node2</title>
<path fill="none" stroke="midnightblue" d="M532.71,-324.24C501.27,-332.92 459.67,-344.41 430.65,-352.43"/>
<polygon fill="midnightblue" stroke="midnightblue" points="533.82,-327.56 542.53,-321.52 531.96,-320.81 533.82,-327.56"/>
</g>
<!-- Node32&#45;&gt;Node32 -->
<g id="edge30" class="edge">
<title>Node32&#45;&gt;Node32</title>
<path fill="none" stroke="midnightblue" d="M610.56,-330.27C609.63,-335.74 598.78,-340 578,-340 547.07,-340 538.13,-330.57 551.18,-321.76"/>
<polygon fill="midnightblue" stroke="midnightblue" points="613.31,-328.09 604.82,-321.76 607.51,-332.01 613.31,-328.09"/>
</g>
<!-- Node50&#45;&gt;Node50 -->
<g id="edge32" class="edge">
<title>Node50&#45;&gt;Node50</title>
<path fill="none" stroke="midnightblue" d="M610.56,-198.27C609.63,-203.74 598.78,-208 578,-208 547.07,-208 538.13,-198.57 551.18,-189.76"/>
<polygon fill="midnightblue" stroke="midnightblue" points="613.31,-196.09 604.82,-189.76 607.51,-200.01 613.31,-196.09"/>
</g>
<!-- Node361&#45;&gt;Node361 -->
<g id="edge35" class="edge">
<title>Node361&#45;&gt;Node361</title>
<path fill="none" stroke="midnightblue" d="M610.56,-104.27C609.63,-109.74 598.78,-114 578,-114 547.07,-114 538.13,-104.57 551.18,-95.76"/>
<polygon fill="midnightblue" stroke="midnightblue" points="613.31,-102.09 604.82,-95.76 607.51,-106.01 613.31,-102.09"/>
</g>
</g>
</svg>
