<?xml version="1.0" encoding="UTF-8" standalone="no"?>
<!DOCTYPE svg PUBLIC "-//W3C//DTD SVG 1.1//EN"
 "http://www.w3.org/Graphics/SVG/1.1/DTD/svg11.dtd">
<!-- Generated by graphviz version 2.43.0 (0)
 -->
<!-- Title: js_promise_constructor Pages: 1 -->
<svg width="838pt" height="1180pt"
 viewBox="0.00 0.00 838.00 1180.00" xmlns="http://www.w3.org/2000/svg" xmlns:xlink="http://www.w3.org/1999/xlink">
<g id="graph0" class="graph" transform="scale(1 1) rotate(0) translate(4 1176)">
<title>js_promise_constructor</title>
<!-- Node1 -->
<g id="node1" class="node">
<title>Node1</title>
<g id="a_node1"><a xlink:title=" ">
<polygon fill="#bfbfbf" stroke="black" points="0,-240.5 0,-259.5 130,-259.5 130,-240.5 0,-240.5"/>
<text text-anchor="middle" x="65" y="-247.5" font-family="Helvetica,sans-Serif" font-size="10.00">js_promise_constructor</text>
</a>
</g>
</g>
<!-- Node2 -->
<g id="node2" class="node">
<title>Node2</title>
<g id="a_node2"><a xlink:href="quickjs_8c.html#a59a7e992f228759bf0a56f0aae4f3cc3" target="_top" xlink:title=" ">
<polygon fill="none" stroke="black" points="169,-885.5 169,-904.5 259,-904.5 259,-885.5 169,-885.5"/>
<text text-anchor="middle" x="214" y="-892.5" font-family="Helvetica,sans-Serif" font-size="10.00">check_function</text>
</a>
</g>
</g>
<!-- Node1&#45;&gt;Node2 -->
<g id="edge1" class="edge">
<title>Node1&#45;&gt;Node2</title>
<path fill="none" stroke="midnightblue" d="M66.38,-259.76C69.35,-330.68 90.49,-767.26 166,-871 168.55,-874.5 171.76,-877.53 175.29,-880.13"/>
<polygon fill="midnightblue" stroke="midnightblue" points="173.64,-883.23 183.99,-885.48 177.31,-877.26 173.64,-883.23"/>
</g>
<!-- Node4 -->
<g id="node4" class="node">
<title>Node4</title>
<g id="a_node4"><a xlink:href="list_8h.html#a663527a4d757540b2177bef0db1ce5c0" target="_top" xlink:title=" ">
<polygon fill="none" stroke="black" points="478.5,-1152.5 478.5,-1171.5 560.5,-1171.5 560.5,-1152.5 478.5,-1152.5"/>
<text text-anchor="middle" x="519.5" y="-1159.5" font-family="Helvetica,sans-Serif" font-size="10.00">init_list_head</text>
</a>
</g>
</g>
<!-- Node1&#45;&gt;Node4 -->
<g id="edge3" class="edge">
<title>Node1&#45;&gt;Node4</title>
<path fill="none" stroke="midnightblue" d="M66.28,-259.58C68.46,-327.38 84.85,-734.6 166,-820 242.94,-900.97 335.45,-793.73 411,-876 488.72,-960.62 376.86,-1040.99 447,-1132 452.73,-1139.44 460.65,-1145.05 469.14,-1149.28"/>
<polygon fill="midnightblue" stroke="midnightblue" points="467.93,-1152.57 478.49,-1153.35 470.72,-1146.15 467.93,-1152.57"/>
</g>
<!-- Node5 -->
<g id="node5" class="node">
<title>Node5</title>
<g id="a_node5"><a xlink:href="quickjs_8c.html#a1a4c02a29525d5cb2085dd8bca3af350" target="_top" xlink:title=" ">
<polygon fill="none" stroke="black" points="189,-791.5 189,-810.5 239,-810.5 239,-791.5 189,-791.5"/>
<text text-anchor="middle" x="214" y="-798.5" font-family="Helvetica,sans-Serif" font-size="10.00">JS_Call</text>
</a>
</g>
</g>
<!-- Node1&#45;&gt;Node5 -->
<g id="edge4" class="edge">
<title>Node1&#45;&gt;Node5</title>
<path fill="none" stroke="midnightblue" d="M68.55,-259.56C85.68,-323.77 183.97,-692.17 207.8,-781.5"/>
<polygon fill="midnightblue" stroke="midnightblue" points="204.42,-782.41 210.38,-791.17 211.18,-780.61 204.42,-782.41"/>
</g>
<!-- Node60 -->
<g id="node13" class="node">
<title>Node60</title>
<g id="a_node13"><a xlink:href="quickjs_8h.html#afaa20c47565bc704c6c85f3d77254e7d" target="_top" xlink:title=" ">
<polygon fill="none" stroke="red" points="751,-430.5 751,-449.5 830,-449.5 830,-430.5 751,-430.5"/>
<text text-anchor="middle" x="790.5" y="-437.5" font-family="Helvetica,sans-Serif" font-size="10.00">JS_FreeValue</text>
</a>
</g>
</g>
<!-- Node1&#45;&gt;Node60 -->
<g id="edge48" class="edge">
<title>Node1&#45;&gt;Node60</title>
<path fill="none" stroke="midnightblue" d="M70.97,-240.37C83.67,-216.6 119.66,-154.49 166,-119 236.74,-64.82 264.39,-48 353.5,-48 353.5,-48 353.5,-48 520.5,-48 552.88,-48 565.74,-43.05 592,-62 682.2,-127.11 664.15,-181.06 715,-280 740.81,-330.22 768.06,-391.04 781.31,-421.18"/>
<polygon fill="midnightblue" stroke="midnightblue" points="778.17,-422.74 785.39,-430.5 784.58,-419.93 778.17,-422.74"/>
</g>
<!-- Node78 -->
<g id="node15" class="node">
<title>Node78</title>
<g id="a_node15"><a xlink:href="quickjs_8h.html#ad80a83d73e9b7d872b88fbf2943aebe9" target="_top" xlink:title=" ">
<polygon fill="none" stroke="black" points="628,-392.5 628,-411.5 715,-411.5 715,-392.5 628,-392.5"/>
<text text-anchor="middle" x="671.5" y="-399.5" font-family="Helvetica,sans-Serif" font-size="10.00">JS_IsException</text>
</a>
</g>
</g>
<!-- Node1&#45;&gt;Node78 -->
<g id="edge50" class="edge">
<title>Node1&#45;&gt;Node78</title>
<path fill="none" stroke="midnightblue" d="M77.36,-240.45C137.34,-191.19 420.88,26.77 592,-105 636.86,-139.54 661.3,-321.08 668.34,-382.02"/>
<polygon fill="midnightblue" stroke="midnightblue" points="664.89,-382.69 669.49,-392.23 671.85,-381.91 664.89,-382.69"/>
</g>
<!-- Node298 -->
<g id="node24" class="node">
<title>Node298</title>
<g id="a_node24"><a xlink:href="quickjs_8c.html#a93dbf502b17d1328c524401335f60499" target="_top" xlink:title=" ">
<polygon fill="none" stroke="red" points="298,-449.5 298,-468.5 411,-468.5 411,-449.5 298,-449.5"/>
<text text-anchor="middle" x="354.5" y="-456.5" font-family="Helvetica,sans-Serif" font-size="10.00">js_create_from_ctor</text>
</a>
</g>
</g>
<!-- Node1&#45;&gt;Node298 -->
<g id="edge32" class="edge">
<title>Node1&#45;&gt;Node298</title>
<path fill="none" stroke="midnightblue" d="M79.1,-259.52C124.56,-292.57 275.82,-402.53 332.13,-443.47"/>
<polygon fill="midnightblue" stroke="midnightblue" points="330.18,-446.37 340.32,-449.42 334.29,-440.71 330.18,-446.37"/>
</g>
<!-- Node434 -->
<g id="node26" class="node">
<title>Node434</title>
<g id="a_node26"><a xlink:href="quickjs_8c.html#a37cac335cb6abd3c24e162ad57f418f1" target="_top" xlink:title=" ">
<polygon fill="none" stroke="black" points="299,-235 299,-265 410,-265 410,-235 299,-235"/>
<text text-anchor="start" x="307" y="-253" font-family="Helvetica,sans-Serif" font-size="10.00">js_create_resolving</text>
<text text-anchor="middle" x="354.5" y="-242" font-family="Helvetica,sans-Serif" font-size="10.00">_functions</text>
</a>
</g>
</g>
<!-- Node1&#45;&gt;Node434 -->
<g id="edge40" class="edge">
<title>Node1&#45;&gt;Node434</title>
<path fill="none" stroke="midnightblue" d="M130.16,-250C177.34,-250 241.22,-250 288.58,-250"/>
<polygon fill="midnightblue" stroke="midnightblue" points="288.72,-253.5 298.72,-250 288.72,-246.5 288.72,-253.5"/>
</g>
<!-- Node279 -->
<g id="node29" class="node">
<title>Node279</title>
<g id="a_node29"><a xlink:href="quickjs_8c.html#a0ddf716409e51648f0d59e7521150d19" target="_top" xlink:title=" ">
<polygon fill="none" stroke="black" points="477.5,-114.5 477.5,-133.5 561.5,-133.5 561.5,-114.5 477.5,-114.5"/>
<text text-anchor="middle" x="519.5" y="-121.5" font-family="Helvetica,sans-Serif" font-size="10.00">JS_SetOpaque</text>
</a>
</g>
</g>
<!-- Node1&#45;&gt;Node279 -->
<g id="edge51" class="edge">
<title>Node1&#45;&gt;Node279</title>
<path fill="none" stroke="midnightblue" d="M99.34,-240.47C165.53,-221.58 318.26,-178.18 447,-143 455.19,-140.76 463.92,-138.41 472.37,-136.16"/>
<polygon fill="midnightblue" stroke="midnightblue" points="473.34,-139.52 482.1,-133.57 471.54,-132.76 473.34,-139.52"/>
</g>
<!-- Node354 -->
<g id="node30" class="node">
<title>Node354</title>
<g id="a_node30"><a xlink:href="quickjs_8c.html#a8551eaac7ef616910807cebdc515760d" target="_top" xlink:title=" ">
<polygon fill="none" stroke="black" points="166,-0.5 166,-19.5 262,-19.5 262,-0.5 166,-0.5"/>
<text text-anchor="middle" x="214" y="-7.5" font-family="Helvetica,sans-Serif" font-size="10.00">JS_GetException</text>
</a>
</g>
</g>
<!-- Node1&#45;&gt;Node354 -->
<g id="edge49" class="edge">
<title>Node1&#45;&gt;Node354</title>
<path fill="none" stroke="midnightblue" d="M68.13,-240.08C75.73,-206.86 104.4,-98.02 166,-34 169.39,-30.47 173.42,-27.37 177.66,-24.67"/>
<polygon fill="midnightblue" stroke="midnightblue" points="179.54,-27.63 186.55,-19.69 176.12,-21.53 179.54,-27.63"/>
</g>
<!-- Node3 -->
<g id="node3" class="node">
<title>Node3</title>
<g id="a_node3"><a xlink:href="quickjs_8c.html#a1ca9cdb1fa2ffc3e6506e92b200e490f" target="_top" xlink:title=" ">
<polygon fill="none" stroke="black" points="314.5,-885.5 314.5,-904.5 394.5,-904.5 394.5,-885.5 314.5,-885.5"/>
<text text-anchor="middle" x="354.5" y="-892.5" font-family="Helvetica,sans-Serif" font-size="10.00">JS_IsFunction</text>
</a>
</g>
</g>
<!-- Node2&#45;&gt;Node3 -->
<g id="edge2" class="edge">
<title>Node2&#45;&gt;Node3</title>
<path fill="none" stroke="midnightblue" d="M259.2,-895C273.47,-895 289.38,-895 304.01,-895"/>
<polygon fill="midnightblue" stroke="midnightblue" points="304.39,-898.5 314.39,-895 304.39,-891.5 304.39,-898.5"/>
</g>
<!-- Node6 -->
<g id="node6" class="node">
<title>Node6</title>
<g id="a_node6"><a xlink:href="quickjs_8c.html#ac2894ff4edcdb4e6841bcce9c76081e3" target="_top" xlink:title=" ">
<polygon fill="none" stroke="red" points="311,-791.5 311,-810.5 398,-810.5 398,-791.5 311,-791.5"/>
<text text-anchor="middle" x="354.5" y="-798.5" font-family="Helvetica,sans-Serif" font-size="10.00">JS_CallInternal</text>
</a>
</g>
</g>
<!-- Node5&#45;&gt;Node6 -->
<g id="edge5" class="edge">
<title>Node5&#45;&gt;Node6</title>
<path fill="none" stroke="midnightblue" d="M239.12,-795.73C256.11,-794.41 279.51,-793.97 300.72,-794.42"/>
<polygon fill="midnightblue" stroke="midnightblue" points="300.82,-797.93 310.92,-794.72 301.02,-790.93 300.82,-797.93"/>
</g>
<!-- Node6&#45;&gt;Node4 -->
<g id="edge23" class="edge">
<title>Node6&#45;&gt;Node4</title>
<path fill="none" stroke="midnightblue" d="M375.25,-810.64C387.65,-817.79 402.8,-828.76 411,-843 476.88,-957.48 363.52,-1035.64 447,-1138 452.65,-1144.93 460.38,-1149.87 468.67,-1153.39"/>
<polygon fill="midnightblue" stroke="midnightblue" points="467.59,-1156.72 478.19,-1156.79 469.95,-1150.13 467.59,-1156.72"/>
</g>
<!-- Node6&#45;&gt;Node5 -->
<g id="edge24" class="edge">
<title>Node6&#45;&gt;Node5</title>
<path fill="none" stroke="midnightblue" d="M310.92,-807.28C291.11,-808.01 267.88,-807.89 249.23,-806.92"/>
<polygon fill="midnightblue" stroke="midnightblue" points="249.33,-803.41 239.12,-806.27 248.88,-810.4 249.33,-803.41"/>
</g>
<!-- Node6&#45;&gt;Node6 -->
<g id="edge25" class="edge">
<title>Node6&#45;&gt;Node6</title>
<path fill="none" stroke="midnightblue" d="M332.92,-810.76C322.42,-819.57 329.62,-829 354.5,-829 370.44,-829 379.12,-825.13 380.54,-820.03"/>
<polygon fill="midnightblue" stroke="midnightblue" points="383.57,-818.25 376.08,-810.76 377.26,-821.29 383.57,-818.25"/>
</g>
<!-- Node7 -->
<g id="node7" class="node">
<title>Node7</title>
<g id="a_node7"><a xlink:href="quickjs_8c.html#a853f0924d441ea4225488f37c8b69f9a" target="_top" xlink:title=" ">
<polygon fill="none" stroke="black" points="631.5,-962.5 631.5,-981.5 711.5,-981.5 711.5,-962.5 631.5,-962.5"/>
<text text-anchor="middle" x="671.5" y="-969.5" font-family="Helvetica,sans-Serif" font-size="10.00">__attribute__</text>
</a>
</g>
</g>
<!-- Node6&#45;&gt;Node7 -->
<g id="edge6" class="edge">
<title>Node6&#45;&gt;Node7</title>
<path fill="none" stroke="midnightblue" d="M373.91,-810.5C386.21,-817.78 401.78,-828.96 411,-843 448.14,-899.6 393.77,-949.17 447,-991 497.67,-1030.82 528.01,-998.63 592,-991 604.06,-989.56 616.95,-986.92 628.72,-984.06"/>
<polygon fill="midnightblue" stroke="midnightblue" points="629.9,-987.37 638.73,-981.51 628.18,-980.58 629.9,-987.37"/>
</g>
<!-- Node8 -->
<g id="node8" class="node">
<title>Node8</title>
<g id="a_node8"><a xlink:href="quickjs_8c.html#a877fcb7651d95b411ce70e62b7f4a1f0" target="_top" xlink:title=" ">
<polygon fill="none" stroke="black" points="457,-848.5 457,-867.5 582,-867.5 582,-848.5 457,-848.5"/>
<text text-anchor="middle" x="519.5" y="-855.5" font-family="Helvetica,sans-Serif" font-size="10.00">__JS_AtomFromUInt32</text>
</a>
</g>
</g>
<!-- Node6&#45;&gt;Node8 -->
<g id="edge7" class="edge">
<title>Node6&#45;&gt;Node8</title>
<path fill="none" stroke="midnightblue" d="M376.27,-810.56C394.62,-818.79 422.24,-830.61 447,-839 454.1,-841.41 461.69,-843.71 469.17,-845.82"/>
<polygon fill="midnightblue" stroke="midnightblue" points="468.31,-849.21 478.88,-848.48 470.16,-842.46 468.31,-849.21"/>
</g>
<!-- Node9 -->
<g id="node9" class="node">
<title>Node9</title>
<g id="a_node9"><a xlink:href="quickjs_8h.html#a9bf98b18de88b4199910a43e933eb97d" target="_top" xlink:title=" ">
<polygon fill="none" stroke="black" points="469.5,-810.5 469.5,-829.5 569.5,-829.5 569.5,-810.5 469.5,-810.5"/>
<text text-anchor="middle" x="519.5" y="-817.5" font-family="Helvetica,sans-Serif" font-size="10.00">__JS_NewFloat64</text>
</a>
</g>
</g>
<!-- Node6&#45;&gt;Node9 -->
<g id="edge8" class="edge">
<title>Node6&#45;&gt;Node9</title>
<path fill="none" stroke="midnightblue" d="M398.33,-805.99C416.97,-808.16 439.12,-810.75 459.3,-813.1"/>
<polygon fill="midnightblue" stroke="midnightblue" points="458.99,-816.59 469.33,-814.27 459.8,-809.63 458.99,-816.59"/>
</g>
<!-- Node10 -->
<g id="node10" class="node">
<title>Node10</title>
<g id="a_node10"><a xlink:href="quickjs_8c.html#a74547db03bf739a52c83a326b32db997" target="_top" xlink:title=" ">
<polygon fill="none" stroke="red" points="479,-772.5 479,-791.5 560,-791.5 560,-772.5 479,-772.5"/>
<text text-anchor="middle" x="519.5" y="-779.5" font-family="Helvetica,sans-Serif" font-size="10.00">add_property</text>
</a>
</g>
</g>
<!-- Node6&#45;&gt;Node10 -->
<g id="edge9" class="edge">
<title>Node6&#45;&gt;Node10</title>
<path fill="none" stroke="midnightblue" d="M398.33,-796.01C419.92,-793.49 446.23,-790.42 468.72,-787.8"/>
<polygon fill="midnightblue" stroke="midnightblue" points="469.23,-791.27 478.76,-786.63 468.42,-784.31 469.23,-791.27"/>
</g>
<!-- Node68 -->
<g id="node11" class="node">
<title>Node68</title>
<g id="a_node11"><a xlink:href="quickjs_8c.html#a4956f45ffd2849b96dc051277264f87a" target="_top" xlink:title=" ">
<polygon fill="none" stroke="red" points="478.5,-962.5 478.5,-981.5 560.5,-981.5 560.5,-962.5 478.5,-962.5"/>
<text text-anchor="middle" x="519.5" y="-969.5" font-family="Helvetica,sans-Serif" font-size="10.00">build_arg_list</text>
</a>
</g>
</g>
<!-- Node6&#45;&gt;Node68 -->
<g id="edge10" class="edge">
<title>Node6&#45;&gt;Node68</title>
<path fill="none" stroke="midnightblue" d="M373.25,-810.62C385.41,-818.02 401.08,-829.3 411,-843 439.93,-882.96 412,-913.23 447,-948 453.08,-954.04 460.71,-958.55 468.72,-961.94"/>
<polygon fill="midnightblue" stroke="midnightblue" points="467.62,-965.26 478.21,-965.41 470.02,-958.69 467.62,-965.26"/>
</g>
<!-- Node69 -->
<g id="node12" class="node">
<title>Node69</title>
<g id="a_node12"><a xlink:href="quickjs_8c.html#ac864482356b3efc2d0b0a509fcfa4c7c" target="_top" xlink:title=" ">
<polygon fill="none" stroke="red" points="633,-1000.5 633,-1019.5 710,-1019.5 710,-1000.5 633,-1000.5"/>
<text text-anchor="middle" x="671.5" y="-1007.5" font-family="Helvetica,sans-Serif" font-size="10.00">free_arg_list</text>
</a>
</g>
</g>
<!-- Node6&#45;&gt;Node69 -->
<g id="edge20" class="edge">
<title>Node6&#45;&gt;Node69</title>
<path fill="none" stroke="midnightblue" d="M374.91,-810.53C387.33,-817.69 402.63,-828.71 411,-843 470.4,-944.43 358.41,-1027.75 447,-1105 495.57,-1147.35 533.7,-1132.46 592,-1105 625.39,-1089.28 649.42,-1051.62 661.55,-1028.72"/>
<polygon fill="midnightblue" stroke="midnightblue" points="664.75,-1030.14 666.14,-1019.64 658.5,-1026.98 664.75,-1030.14"/>
</g>
<!-- Node6&#45;&gt;Node60 -->
<g id="edge27" class="edge">
<title>Node6&#45;&gt;Node60</title>
<path fill="none" stroke="midnightblue" d="M360.45,-791.36C372.28,-769.32 404.38,-715.03 447,-687 502.85,-650.26 534.63,-681.31 592,-647 677.24,-596.02 749.82,-498.38 777.51,-458.08"/>
<polygon fill="midnightblue" stroke="midnightblue" points="780.58,-459.79 783.29,-449.55 774.78,-455.87 780.58,-459.79"/>
</g>
<!-- Node39 -->
<g id="node14" class="node">
<title>Node39</title>
<g id="a_node14"><a xlink:href="quickjs_8h.html#a775522f2d084fc8fa0fcb33f390006b4" target="_top" xlink:title=" ">
<polygon fill="none" stroke="black" points="633,-886.5 633,-905.5 710,-905.5 710,-886.5 633,-886.5"/>
<text text-anchor="middle" x="671.5" y="-893.5" font-family="Helvetica,sans-Serif" font-size="10.00">JS_DupValue</text>
</a>
</g>
</g>
<!-- Node6&#45;&gt;Node39 -->
<g id="edge26" class="edge">
<title>Node6&#45;&gt;Node39</title>
<path fill="none" stroke="midnightblue" d="M371.94,-810.56C383.93,-818.16 399.96,-829.71 411,-843 433.86,-870.52 416.57,-896.19 447,-915 507.18,-952.19 594.5,-927.03 640.14,-909.28"/>
<polygon fill="midnightblue" stroke="midnightblue" points="641.51,-912.5 649.48,-905.52 638.9,-906.01 641.51,-912.5"/>
</g>
<!-- Node6&#45;&gt;Node78 -->
<g id="edge29" class="edge">
<title>Node6&#45;&gt;Node78</title>
<path fill="none" stroke="midnightblue" d="M358.7,-791.43C367.95,-765.25 397.27,-691.9 447,-654 500.46,-613.26 542.81,-656.81 592,-611 648,-558.84 664.31,-462.82 668.85,-421.62"/>
<polygon fill="midnightblue" stroke="midnightblue" points="672.34,-421.83 669.84,-411.53 665.38,-421.14 672.34,-421.83"/>
</g>
<!-- Node163 -->
<g id="node16" class="node">
<title>Node163</title>
<g id="a_node16"><a xlink:href="quickjs_8c.html#a61c8dfb5e807af1b6ff7d8ca61576dda" target="_top" xlink:title=" ">
<polygon fill="none" stroke="red" points="472.5,-734.5 472.5,-753.5 566.5,-753.5 566.5,-734.5 472.5,-734.5"/>
<text text-anchor="middle" x="519.5" y="-741.5" font-family="Helvetica,sans-Serif" font-size="10.00">build_backtrace</text>
</a>
</g>
</g>
<!-- Node6&#45;&gt;Node163 -->
<g id="edge16" class="edge">
<title>Node6&#45;&gt;Node163</title>
<path fill="none" stroke="midnightblue" d="M376.27,-791.44C394.62,-783.21 422.24,-771.39 447,-763 454.1,-760.59 461.69,-758.29 469.17,-756.18"/>
<polygon fill="midnightblue" stroke="midnightblue" points="470.16,-759.54 478.88,-753.52 468.31,-752.79 470.16,-759.54"/>
</g>
<!-- Node249 -->
<g id="node17" class="node">
<title>Node249</title>
<g id="a_node17"><a xlink:href="quickjs_8c.html#a344894112559c2ba75043fd10bcfa02f" target="_top" xlink:title=" ">
<polygon fill="none" stroke="red" points="469,-886.5 469,-905.5 570,-905.5 570,-886.5 469,-886.5"/>
<text text-anchor="middle" x="519.5" y="-893.5" font-family="Helvetica,sans-Serif" font-size="10.00">close_lexical_var</text>
</a>
</g>
</g>
<!-- Node6&#45;&gt;Node249 -->
<g id="edge17" class="edge">
<title>Node6&#45;&gt;Node249</title>
<path fill="none" stroke="midnightblue" d="M369.05,-810.62C380.49,-818.88 397.16,-831.29 411,-843 427.8,-857.22 427.77,-866.29 447,-877 451.13,-879.3 455.55,-881.33 460.09,-883.13"/>
<polygon fill="midnightblue" stroke="midnightblue" points="458.94,-886.43 469.54,-886.48 461.28,-879.83 458.94,-886.43"/>
</g>
<!-- Node250 -->
<g id="node18" class="node">
<title>Node250</title>
<g id="a_node18"><a xlink:href="quickjs_8c.html#a1782043fce951bd4f0d91c7796b31e24" target="_top" xlink:title=" ">
<polygon fill="none" stroke="red" points="476,-696.5 476,-715.5 563,-715.5 563,-696.5 476,-696.5"/>
<text text-anchor="middle" x="519.5" y="-703.5" font-family="Helvetica,sans-Serif" font-size="10.00">close_var_refs</text>
</a>
</g>
</g>
<!-- Node6&#45;&gt;Node250 -->
<g id="edge19" class="edge">
<title>Node6&#45;&gt;Node250</title>
<path fill="none" stroke="midnightblue" d="M364.38,-791.27C379.68,-775.1 412.68,-742.71 447,-725 452.98,-721.91 459.51,-719.29 466.11,-717.08"/>
<polygon fill="midnightblue" stroke="midnightblue" points="467.24,-720.39 475.78,-714.12 465.19,-713.7 467.24,-720.39"/>
</g>
<!-- Node57 -->
<g id="node19" class="node">
<title>Node57</title>
<g id="a_node19"><a xlink:href="quickjs_8c.html#a9e7b4bccf927d811b0f99b40b08c0472" target="_top" xlink:title=" ">
<polygon fill="none" stroke="red" points="481.5,-1076.5 481.5,-1095.5 557.5,-1095.5 557.5,-1076.5 481.5,-1076.5"/>
<text text-anchor="middle" x="519.5" y="-1083.5" font-family="Helvetica,sans-Serif" font-size="10.00">free_var_ref</text>
</a>
</g>
</g>
<!-- Node6&#45;&gt;Node57 -->
<g id="edge21" class="edge">
<title>Node6&#45;&gt;Node57</title>
<path fill="none" stroke="midnightblue" d="M374.8,-810.59C387.18,-817.78 402.47,-828.81 411,-843 462.94,-929.42 379.37,-992.21 447,-1067 453.39,-1074.07 462.08,-1078.63 471.2,-1081.55"/>
<polygon fill="midnightblue" stroke="midnightblue" points="470.62,-1085.02 481.18,-1084.12 472.36,-1078.24 470.62,-1085.02"/>
</g>
<!-- Node252 -->
<g id="node20" class="node">
<title>Node252</title>
<g id="a_node20"><a xlink:href="cutils_8h.html#a7c82a3ee025fee89db5b11ff5b7691b8" target="_top" xlink:title=" ">
<polygon fill="none" stroke="black" points="493,-1038.5 493,-1057.5 546,-1057.5 546,-1038.5 493,-1038.5"/>
<text text-anchor="middle" x="519.5" y="-1045.5" font-family="Helvetica,sans-Serif" font-size="10.00">get_i16</text>
</a>
</g>
</g>
<!-- Node6&#45;&gt;Node252 -->
<g id="edge22" class="edge">
<title>Node6&#45;&gt;Node252</title>
<path fill="none" stroke="midnightblue" d="M374.36,-810.54C386.71,-817.77 402.15,-828.87 411,-843 454.54,-912.51 392.82,-962.43 447,-1024 456.08,-1034.32 469.73,-1040.21 482.68,-1043.57"/>
<polygon fill="midnightblue" stroke="midnightblue" points="482.3,-1047.07 492.81,-1045.76 483.78,-1040.22 482.3,-1047.07"/>
</g>
<!-- Node71 -->
<g id="node21" class="node">
<title>Node71</title>
<g id="a_node21"><a xlink:href="quickjs_8h.html#a89b7c8686c7eee70b86be722ee4730ad" target="_top" xlink:title=" ">
<polygon fill="none" stroke="red" points="475,-544.5 475,-563.5 564,-563.5 564,-544.5 475,-544.5"/>
<text text-anchor="middle" x="519.5" y="-551.5" font-family="Helvetica,sans-Serif" font-size="10.00">JS_GetProperty</text>
</a>
</g>
</g>
<!-- Node6&#45;&gt;Node71 -->
<g id="edge28" class="edge">
<title>Node6&#45;&gt;Node71</title>
<path fill="none" stroke="midnightblue" d="M356.35,-791.49C359.98,-756.63 377.37,-634.62 447,-573 452.23,-568.37 458.47,-564.85 465.06,-562.17"/>
<polygon fill="midnightblue" stroke="midnightblue" points="466.53,-565.37 474.87,-558.83 464.27,-558.74 466.53,-565.37"/>
</g>
<!-- Node288 -->
<g id="node22" class="node">
<title>Node288</title>
<g id="a_node22"><a xlink:href="quickjs_8h.html#a3d68fe446df2d9c7d1900b16371bff5b" target="_top" xlink:title=" ">
<polygon fill="none" stroke="black" points="484,-506.5 484,-525.5 555,-525.5 555,-506.5 484,-506.5"/>
<text text-anchor="middle" x="519.5" y="-513.5" font-family="Helvetica,sans-Serif" font-size="10.00">JS_IsObject</text>
</a>
</g>
</g>
<!-- Node6&#45;&gt;Node288 -->
<g id="edge30" class="edge">
<title>Node6&#45;&gt;Node288</title>
<path fill="none" stroke="midnightblue" d="M355.74,-791.31C357.26,-752.69 368.18,-608.37 447,-535 454.47,-528.04 464.2,-523.57 474.06,-520.72"/>
<polygon fill="midnightblue" stroke="midnightblue" points="474.98,-524.1 483.89,-518.37 473.35,-517.29 474.98,-524.1"/>
</g>
<!-- Node129 -->
<g id="node23" class="node">
<title>Node129</title>
<g id="a_node23"><a xlink:href="quickjs_8h.html#a4e407128a9605afb77523e49e9a627fd" target="_top" xlink:title=" ">
<polygon fill="none" stroke="black" points="475,-582.5 475,-601.5 564,-601.5 564,-582.5 475,-582.5"/>
<text text-anchor="middle" x="519.5" y="-589.5" font-family="Helvetica,sans-Serif" font-size="10.00">JS_IsUndefined</text>
</a>
</g>
</g>
<!-- Node6&#45;&gt;Node129 -->
<g id="edge31" class="edge">
<title>Node6&#45;&gt;Node129</title>
<path fill="none" stroke="midnightblue" d="M357.51,-791.34C364.34,-760.93 389.5,-666.19 447,-616 452.3,-611.37 458.53,-607.63 465.06,-604.6"/>
<polygon fill="midnightblue" stroke="midnightblue" points="466.82,-607.67 474.77,-600.67 464.19,-601.18 466.82,-607.67"/>
</g>
<!-- Node68&#45;&gt;Node7 -->
<g id="edge11" class="edge">
<title>Node68&#45;&gt;Node7</title>
<path fill="none" stroke="midnightblue" d="M560.7,-972C579.39,-972 601.8,-972 621.48,-972"/>
<polygon fill="midnightblue" stroke="midnightblue" points="621.49,-975.5 631.49,-972 621.49,-968.5 621.49,-975.5"/>
</g>
<!-- Node68&#45;&gt;Node69 -->
<g id="edge12" class="edge">
<title>Node68&#45;&gt;Node69</title>
<path fill="none" stroke="midnightblue" d="M558.35,-981.59C577.97,-986.56 602.12,-992.68 622.98,-997.96"/>
<polygon fill="midnightblue" stroke="midnightblue" points="622.37,-1001.42 632.92,-1000.48 624.09,-994.63 622.37,-1001.42"/>
</g>
<!-- Node68&#45;&gt;Node39 -->
<g id="edge14" class="edge">
<title>Node68&#45;&gt;Node39</title>
<path fill="none" stroke="midnightblue" d="M555.05,-962.41C567.02,-958.57 580.35,-953.69 592,-948 612.87,-937.8 634.76,-922.9 650.11,-911.66"/>
<polygon fill="midnightblue" stroke="midnightblue" points="652.4,-914.32 658.33,-905.53 648.22,-908.7 652.4,-914.32"/>
</g>
<!-- Node68&#45;&gt;Node78 -->
<g id="edge15" class="edge">
<title>Node68&#45;&gt;Node78</title>
<path fill="none" stroke="midnightblue" d="M539.35,-962.33C556.06,-952.7 579.67,-936.29 592,-915 642.12,-828.43 664.35,-506.07 669.37,-422.1"/>
<polygon fill="midnightblue" stroke="midnightblue" points="672.88,-422.07 669.96,-411.88 665.89,-421.66 672.88,-422.07"/>
</g>
<!-- Node69&#45;&gt;Node60 -->
<g id="edge13" class="edge">
<title>Node69&#45;&gt;Node60</title>
<path fill="none" stroke="midnightblue" d="M703.98,-1000.47C708.22,-997.99 712.09,-994.88 715,-991 779.76,-904.46 788.23,-547.67 789.33,-459.68"/>
<polygon fill="midnightblue" stroke="midnightblue" points="792.84,-459.54 789.44,-449.5 785.84,-459.47 792.84,-459.54"/>
</g>
<!-- Node249&#45;&gt;Node39 -->
<g id="edge18" class="edge">
<title>Node249&#45;&gt;Node39</title>
<path fill="none" stroke="midnightblue" d="M570.03,-896C586.99,-896 605.92,-896 622.74,-896"/>
<polygon fill="midnightblue" stroke="midnightblue" points="622.9,-899.5 632.9,-896 622.9,-892.5 622.9,-899.5"/>
</g>
<!-- Node298&#45;&gt;Node60 -->
<g id="edge34" class="edge">
<title>Node298&#45;&gt;Node60</title>
<path fill="none" stroke="midnightblue" d="M411.35,-456.55C496.91,-452.81 659.04,-445.71 740.37,-442.15"/>
<polygon fill="midnightblue" stroke="midnightblue" points="740.99,-445.63 750.83,-441.69 740.68,-438.63 740.99,-445.63"/>
</g>
<!-- Node298&#45;&gt;Node39 -->
<g id="edge33" class="edge">
<title>Node298&#45;&gt;Node39</title>
<path fill="none" stroke="midnightblue" d="M411.22,-460.78C472.87,-463.95 566.87,-472.73 592,-497 647.44,-550.53 665.41,-802.95 669.5,-876.09"/>
<polygon fill="midnightblue" stroke="midnightblue" points="666.01,-876.43 670.04,-886.23 673.01,-876.06 666.01,-876.43"/>
</g>
<!-- Node298&#45;&gt;Node78 -->
<g id="edge36" class="edge">
<title>Node298&#45;&gt;Node78</title>
<path fill="none" stroke="midnightblue" d="M377.24,-449.49C395.51,-441.9 422.48,-431.65 447,-426 504.51,-412.74 572.06,-406.77 617.73,-404.11"/>
<polygon fill="midnightblue" stroke="midnightblue" points="618.19,-407.59 627.98,-403.54 617.81,-400.6 618.19,-407.59"/>
</g>
<!-- Node298&#45;&gt;Node71 -->
<g id="edge35" class="edge">
<title>Node298&#45;&gt;Node71</title>
<path fill="none" stroke="midnightblue" d="M364.38,-468.73C379.68,-484.9 412.68,-517.29 447,-535 452.62,-537.9 458.72,-540.39 464.91,-542.51"/>
<polygon fill="midnightblue" stroke="midnightblue" points="464.06,-545.91 474.65,-545.56 466.15,-539.23 464.06,-545.91"/>
</g>
<!-- Node298&#45;&gt;Node288 -->
<g id="edge37" class="edge">
<title>Node298&#45;&gt;Node288</title>
<path fill="none" stroke="midnightblue" d="M381.48,-468.54C399.76,-475.22 424.83,-484.28 447,-492 457.7,-495.72 469.33,-499.67 480.05,-503.27"/>
<polygon fill="midnightblue" stroke="midnightblue" points="478.98,-506.6 489.57,-506.45 481.2,-499.96 478.98,-506.6"/>
</g>
<!-- Node298&#45;&gt;Node129 -->
<g id="edge38" class="edge">
<title>Node298&#45;&gt;Node129</title>
<path fill="none" stroke="midnightblue" d="M360.44,-468.67C372.22,-490.76 404.25,-545.17 447,-573 452.44,-576.54 458.52,-579.42 464.77,-581.77"/>
<polygon fill="midnightblue" stroke="midnightblue" points="464.08,-585.23 474.67,-585.04 466.27,-578.58 464.08,-585.23"/>
</g>
<!-- Node187 -->
<g id="node25" class="node">
<title>Node187</title>
<g id="a_node25"><a xlink:href="quickjs_8c.html#a73738c650f11459db0d7af3dcdf8316b" target="_top" xlink:title=" ">
<polygon fill="none" stroke="red" points="451.5,-354.5 451.5,-373.5 587.5,-373.5 587.5,-354.5 451.5,-354.5"/>
<text text-anchor="middle" x="519.5" y="-361.5" font-family="Helvetica,sans-Serif" font-size="10.00">JS_NewObjectProtoClass</text>
</a>
</g>
</g>
<!-- Node298&#45;&gt;Node187 -->
<g id="edge39" class="edge">
<title>Node298&#45;&gt;Node187</title>
<path fill="none" stroke="midnightblue" d="M365.4,-449.46C381.39,-434.51 414.39,-405.47 447,-388 454.97,-383.73 463.83,-380.02 472.54,-376.88"/>
<polygon fill="midnightblue" stroke="midnightblue" points="473.91,-380.11 482.24,-373.57 471.65,-373.48 473.91,-380.11"/>
</g>
<!-- Node434&#45;&gt;Node60 -->
<g id="edge42" class="edge">
<title>Node434&#45;&gt;Node60</title>
<path fill="none" stroke="midnightblue" d="M410.36,-243.66C459.8,-240.18 533.5,-240.67 592,-265 675.45,-299.71 747.57,-384.85 776.27,-422.08"/>
<polygon fill="midnightblue" stroke="midnightblue" points="773.78,-424.6 782.61,-430.45 779.36,-420.37 773.78,-424.6"/>
</g>
<!-- Node434&#45;&gt;Node39 -->
<g id="edge41" class="edge">
<title>Node434&#45;&gt;Node39</title>
<path fill="none" stroke="midnightblue" d="M376.79,-265.09C394.79,-277.27 421.62,-294.11 447,-305 508.44,-331.35 547.84,-294.81 592,-345 663.54,-426.31 669.98,-787.73 670.48,-876.34"/>
<polygon fill="midnightblue" stroke="midnightblue" points="666.98,-876.38 670.51,-886.37 673.98,-876.36 666.98,-876.38"/>
</g>
<!-- Node434&#45;&gt;Node78 -->
<g id="edge44" class="edge">
<title>Node434&#45;&gt;Node78</title>
<path fill="none" stroke="midnightblue" d="M410.19,-260.44C470.14,-272.57 561.83,-293.3 592,-312 621.51,-330.3 646.01,-363.17 659.42,-383.72"/>
<polygon fill="midnightblue" stroke="midnightblue" points="656.63,-385.86 664.93,-392.45 662.55,-382.13 656.63,-385.86"/>
</g>
<!-- Node434&#45;&gt;Node187 -->
<g id="edge45" class="edge">
<title>Node434&#45;&gt;Node187</title>
<path fill="none" stroke="midnightblue" d="M367.2,-265.2C383.21,-285.04 413.77,-319.6 447,-340 454.06,-344.33 462,-347.99 469.95,-351.04"/>
<polygon fill="midnightblue" stroke="midnightblue" points="469,-354.42 479.6,-354.47 471.34,-347.82 469,-354.42"/>
</g>
<!-- Node313 -->
<g id="node27" class="node">
<title>Node313</title>
<g id="a_node27"><a xlink:href="quickjs_8c.html#a5d963b1e3acf275363fedd4bfdd8a57f" target="_top" xlink:title=" ">
<polygon fill="none" stroke="red" points="447,-202.5 447,-221.5 592,-221.5 592,-202.5 447,-202.5"/>
<text text-anchor="middle" x="519.5" y="-209.5" font-family="Helvetica,sans-Serif" font-size="10.00">js_function_set_properties</text>
</a>
</g>
</g>
<!-- Node434&#45;&gt;Node313 -->
<g id="edge43" class="edge">
<title>Node434&#45;&gt;Node313</title>
<path fill="none" stroke="midnightblue" d="M410.23,-237.24C428.8,-232.91 449.46,-228.09 467.71,-223.84"/>
<polygon fill="midnightblue" stroke="midnightblue" points="468.63,-227.22 477.58,-221.54 467.04,-220.4 468.63,-227.22"/>
</g>
<!-- Node435 -->
<g id="node28" class="node">
<title>Node435</title>
<g id="a_node28"><a xlink:href="quickjs_8c.html#a25b8e890acb77f6194356e68e3f52ca4" target="_top" xlink:title=" ">
<polygon fill="none" stroke="red" points="452.5,-153 452.5,-183 586.5,-183 586.5,-153 452.5,-153"/>
<text text-anchor="start" x="460.5" y="-171" font-family="Helvetica,sans-Serif" font-size="10.00">js_promise_resolve</text>
<text text-anchor="middle" x="519.5" y="-160" font-family="Helvetica,sans-Serif" font-size="10.00">_function_free_resolved</text>
</a>
</g>
</g>
<!-- Node434&#45;&gt;Node435 -->
<g id="edge46" class="edge">
<title>Node434&#45;&gt;Node435</title>
<path fill="none" stroke="midnightblue" d="M376.91,-234.76C394.98,-222.38 421.85,-205.05 447,-193 451.55,-190.82 456.35,-188.73 461.21,-186.75"/>
<polygon fill="midnightblue" stroke="midnightblue" points="462.55,-189.99 470.6,-183.1 460.01,-183.47 462.55,-189.99"/>
</g>
<!-- Node434&#45;&gt;Node279 -->
<g id="edge47" class="edge">
<title>Node434&#45;&gt;Node279</title>
<path fill="none" stroke="midnightblue" d="M367.58,-234.89C390.08,-206.91 437.02,-149.28 447,-143 453.28,-139.05 460.36,-135.92 467.57,-133.43"/>
<polygon fill="midnightblue" stroke="midnightblue" points="468.87,-136.69 477.41,-130.43 466.82,-130 468.87,-136.69"/>
</g>
</g>
</svg>
