<?xml version="1.0" encoding="UTF-8" standalone="no"?>
<!DOCTYPE svg PUBLIC "-//W3C//DTD SVG 1.1//EN"
 "http://www.w3.org/Graphics/SVG/1.1/DTD/svg11.dtd">
<!-- Generated by graphviz version 2.43.0 (0)
 -->
<!-- Title: promise_reaction_job Pages: 1 -->
<svg width="784pt" height="1102pt"
 viewBox="0.00 0.00 784.00 1102.22" xmlns="http://www.w3.org/2000/svg" xmlns:xlink="http://www.w3.org/1999/xlink">
<g id="graph0" class="graph" transform="scale(1 1) rotate(0) translate(4 1098.22)">
<title>promise_reaction_job</title>
<!-- Node1 -->
<g id="node1" class="node">
<title>Node1</title>
<g id="a_node1"><a xlink:title=" ">
<polygon fill="#bfbfbf" stroke="black" points="0,-338.83 0,-357.83 122,-357.83 122,-338.83 0,-338.83"/>
<text text-anchor="middle" x="61" y="-345.83" font-family="Helvetica,sans-Serif" font-size="10.00">promise_reaction_job</text>
</a>
</g>
</g>
<!-- Node2 -->
<g id="node2" class="node">
<title>Node2</title>
<g id="a_node2"><a xlink:href="quickjs_8c.html#a1a4c02a29525d5cb2085dd8bca3af350" target="_top" xlink:title=" ">
<polygon fill="none" stroke="black" points="181,-528.83 181,-547.83 231,-547.83 231,-528.83 181,-528.83"/>
<text text-anchor="middle" x="206" y="-535.83" font-family="Helvetica,sans-Serif" font-size="10.00">JS_Call</text>
</a>
</g>
</g>
<!-- Node1&#45;&gt;Node2 -->
<g id="edge1" class="edge">
<title>Node1&#45;&gt;Node2</title>
<path fill="none" stroke="midnightblue" d="M69.29,-358.01C91.95,-388.12 161.41,-480.42 191.2,-520"/>
<polygon fill="midnightblue" stroke="midnightblue" points="188.75,-522.55 197.56,-528.44 194.34,-518.34 188.75,-522.55"/>
</g>
<!-- Node57 -->
<g id="node10" class="node">
<title>Node57</title>
<g id="a_node10"><a xlink:href="quickjs_8h.html#afaa20c47565bc704c6c85f3d77254e7d" target="_top" xlink:title=" ">
<polygon fill="none" stroke="red" points="697,-490.83 697,-509.83 776,-509.83 776,-490.83 697,-490.83"/>
<text text-anchor="middle" x="736.5" y="-497.83" font-family="Helvetica,sans-Serif" font-size="10.00">JS_FreeValue</text>
</a>
</g>
</g>
<!-- Node1&#45;&gt;Node57 -->
<g id="edge41" class="edge">
<title>Node1&#45;&gt;Node57</title>
<path fill="none" stroke="midnightblue" d="M61.84,-358.14C60.81,-435.55 57.87,-947.7 158,-1054.33 212.15,-1111.99 253.4,-1089.33 332.5,-1089.33 332.5,-1089.33 332.5,-1089.33 476.5,-1089.33 730.88,-1089.33 737.64,-623.26 736.03,-520.3"/>
<polygon fill="midnightblue" stroke="midnightblue" points="739.52,-519.99 735.82,-510.06 732.52,-520.13 739.52,-519.99"/>
</g>
<!-- Node36 -->
<g id="node11" class="node">
<title>Node36</title>
<g id="a_node11"><a xlink:href="quickjs_8h.html#a775522f2d084fc8fa0fcb33f390006b4" target="_top" xlink:title=" ">
<polygon fill="none" stroke="black" points="579,-205.83 579,-224.83 656,-224.83 656,-205.83 579,-205.83"/>
<text text-anchor="middle" x="617.5" y="-212.83" font-family="Helvetica,sans-Serif" font-size="10.00">JS_DupValue</text>
</a>
</g>
</g>
<!-- Node1&#45;&gt;Node36 -->
<g id="edge40" class="edge">
<title>Node1&#45;&gt;Node36</title>
<path fill="none" stroke="midnightblue" d="M77.66,-338.73C125.61,-309.99 275.47,-224.83 413,-196.33 467.4,-185.06 482.84,-189.75 538,-196.33 550.06,-197.77 562.95,-200.41 574.72,-203.27"/>
<polygon fill="midnightblue" stroke="midnightblue" points="574.18,-206.75 584.73,-205.82 575.9,-199.96 574.18,-206.75"/>
</g>
<!-- Node75 -->
<g id="node12" class="node">
<title>Node75</title>
<g id="a_node12"><a xlink:href="quickjs_8h.html#ad80a83d73e9b7d872b88fbf2943aebe9" target="_top" xlink:title=" ">
<polygon fill="none" stroke="black" points="574,-585.83 574,-604.83 661,-604.83 661,-585.83 574,-585.83"/>
<text text-anchor="middle" x="617.5" y="-592.83" font-family="Helvetica,sans-Serif" font-size="10.00">JS_IsException</text>
</a>
</g>
</g>
<!-- Node1&#45;&gt;Node75 -->
<g id="edge43" class="edge">
<title>Node1&#45;&gt;Node75</title>
<path fill="none" stroke="midnightblue" d="M63.57,-357.93C75.32,-426.04 156.03,-837.66 413,-983.33 461.33,-1010.73 495,-1018.5 538,-983.33 545.34,-977.33 598.34,-693.43 612.84,-615.14"/>
<polygon fill="midnightblue" stroke="midnightblue" points="616.32,-615.61 614.69,-605.14 609.43,-614.34 616.32,-615.61"/>
</g>
<!-- Node127 -->
<g id="node26" class="node">
<title>Node127</title>
<g id="a_node26"><a xlink:href="quickjs_8h.html#a4e407128a9605afb77523e49e9a627fd" target="_top" xlink:title=" ">
<polygon fill="none" stroke="black" points="431,-15.83 431,-34.83 520,-34.83 520,-15.83 431,-15.83"/>
<text text-anchor="middle" x="475.5" y="-22.83" font-family="Helvetica,sans-Serif" font-size="10.00">JS_IsUndefined</text>
</a>
</g>
</g>
<!-- Node1&#45;&gt;Node127 -->
<g id="edge44" class="edge">
<title>Node1&#45;&gt;Node127</title>
<path fill="none" stroke="midnightblue" d="M61.53,-338.55C60.06,-295.36 60.46,-120.41 158,-44.33 236.65,17.02 362.52,1.04 429.37,-13.54"/>
<polygon fill="midnightblue" stroke="midnightblue" points="428.66,-16.96 439.18,-15.76 430.2,-10.14 428.66,-16.96"/>
</g>
<!-- Node208 -->
<g id="node27" class="node">
<title>Node208</title>
<g id="a_node27"><a xlink:href="quickjs_8c.html#a3ae8a83da71ef07d6e858d172d9c5a81" target="_top" xlink:title=" ">
<polygon fill="none" stroke="black" points="445,-1041.83 445,-1060.83 506,-1060.83 506,-1041.83 445,-1041.83"/>
<text text-anchor="middle" x="475.5" y="-1048.83" font-family="Helvetica,sans-Serif" font-size="10.00">JS_Throw</text>
</a>
</g>
</g>
<!-- Node1&#45;&gt;Node208 -->
<g id="edge45" class="edge">
<title>Node1&#45;&gt;Node208</title>
<path fill="none" stroke="midnightblue" d="M61.8,-357.87C60.42,-433.17 55.28,-931.06 158,-1027.33 197.02,-1063.91 358.85,-1058.81 434.8,-1054.21"/>
<polygon fill="midnightblue" stroke="midnightblue" points="435.17,-1057.7 444.93,-1053.57 434.73,-1050.71 435.17,-1057.7"/>
</g>
<!-- Node353 -->
<g id="node29" class="node">
<title>Node353</title>
<g id="a_node29"><a xlink:href="quickjs_8c.html#a8551eaac7ef616910807cebdc515760d" target="_top" xlink:title=" ">
<polygon fill="none" stroke="black" points="158,-53.83 158,-72.83 254,-72.83 254,-53.83 158,-53.83"/>
<text text-anchor="middle" x="206" y="-60.83" font-family="Helvetica,sans-Serif" font-size="10.00">JS_GetException</text>
</a>
</g>
</g>
<!-- Node1&#45;&gt;Node353 -->
<g id="edge42" class="edge">
<title>Node1&#45;&gt;Node353</title>
<path fill="none" stroke="midnightblue" d="M63.01,-338.76C67.37,-301.82 87.68,-166.61 158,-87.33 161.09,-83.84 164.81,-80.79 168.79,-78.15"/>
<polygon fill="midnightblue" stroke="midnightblue" points="170.84,-81.01 177.76,-72.98 167.34,-74.94 170.84,-81.01"/>
</g>
<!-- Node437 -->
<g id="node30" class="node">
<title>Node437</title>
<g id="a_node30"><a xlink:href="quickjs_8c.html#a525bb5bdbab2566313d9bcd876838d9d" target="_top" xlink:title=" ">
<polygon fill="none" stroke="black" points="302,-91.83 302,-110.83 365,-110.83 365,-91.83 302,-91.83"/>
<text text-anchor="middle" x="333.5" y="-98.83" font-family="Helvetica,sans-Serif" font-size="10.00">JS_ToBool</text>
</a>
</g>
</g>
<!-- Node1&#45;&gt;Node437 -->
<g id="edge46" class="edge">
<title>Node1&#45;&gt;Node437</title>
<path fill="none" stroke="midnightblue" d="M62.88,-338.73C66.68,-303.56 84.88,-180.98 158,-125.33 196.26,-96.22 253.34,-93.81 291.7,-96.29"/>
<polygon fill="midnightblue" stroke="midnightblue" points="291.74,-99.8 301.99,-97.1 292.29,-92.82 291.74,-99.8"/>
</g>
<!-- Node3 -->
<g id="node3" class="node">
<title>Node3</title>
<g id="a_node3"><a xlink:href="quickjs_8c.html#ac2894ff4edcdb4e6841bcce9c76081e3" target="_top" xlink:title=" ">
<polygon fill="none" stroke="red" points="290,-528.83 290,-547.83 377,-547.83 377,-528.83 290,-528.83"/>
<text text-anchor="middle" x="333.5" y="-535.83" font-family="Helvetica,sans-Serif" font-size="10.00">JS_CallInternal</text>
</a>
</g>
</g>
<!-- Node2&#45;&gt;Node3 -->
<g id="edge2" class="edge">
<title>Node2&#45;&gt;Node3</title>
<path fill="none" stroke="midnightblue" d="M231.2,-532.87C244.94,-531.81 262.71,-531.4 279.53,-531.65"/>
<polygon fill="midnightblue" stroke="midnightblue" points="279.75,-535.16 289.83,-531.9 279.91,-528.16 279.75,-535.16"/>
</g>
<!-- Node3&#45;&gt;Node2 -->
<g id="edge30" class="edge">
<title>Node3&#45;&gt;Node2</title>
<path fill="none" stroke="midnightblue" d="M289.83,-544.76C274.08,-545.28 256.46,-545.17 241.53,-544.43"/>
<polygon fill="midnightblue" stroke="midnightblue" points="241.4,-540.92 231.2,-543.79 240.96,-547.9 241.4,-540.92"/>
</g>
<!-- Node3&#45;&gt;Node3 -->
<g id="edge31" class="edge">
<title>Node3&#45;&gt;Node3</title>
<path fill="none" stroke="midnightblue" d="M314.08,-548.09C304.63,-556.9 311.11,-566.33 333.5,-566.33 347.85,-566.33 355.66,-562.46 356.94,-557.36"/>
<polygon fill="midnightblue" stroke="midnightblue" points="360.11,-555.87 352.92,-548.09 353.68,-558.66 360.11,-555.87"/>
</g>
<!-- Node4 -->
<g id="node4" class="node">
<title>Node4</title>
<g id="a_node4"><a xlink:href="quickjs_8c.html#a853f0924d441ea4225488f37c8b69f9a" target="_top" xlink:title=" ">
<polygon fill="none" stroke="black" points="577.5,-547.83 577.5,-566.83 657.5,-566.83 657.5,-547.83 577.5,-547.83"/>
<text text-anchor="middle" x="617.5" y="-554.83" font-family="Helvetica,sans-Serif" font-size="10.00">__attribute__</text>
</a>
</g>
</g>
<!-- Node3&#45;&gt;Node4 -->
<g id="edge3" class="edge">
<title>Node3&#45;&gt;Node4</title>
<path fill="none" stroke="midnightblue" d="M334.72,-547.95C336.26,-605.35 347.37,-901.88 413,-956.33 455.76,-991.8 496.91,-993.72 538,-956.33 600.74,-899.25 524.55,-645.25 574,-576.33 574.77,-575.26 575.61,-574.25 576.52,-573.29"/>
<polygon fill="midnightblue" stroke="midnightblue" points="578.79,-575.96 584.46,-567.01 574.45,-570.47 578.79,-575.96"/>
</g>
<!-- Node5 -->
<g id="node5" class="node">
<title>Node5</title>
<g id="a_node5"><a xlink:href="quickjs_8c.html#a877fcb7651d95b411ce70e62b7f4a1f0" target="_top" xlink:title=" ">
<polygon fill="none" stroke="black" points="413,-699.83 413,-718.83 538,-718.83 538,-699.83 413,-699.83"/>
<text text-anchor="middle" x="475.5" y="-706.83" font-family="Helvetica,sans-Serif" font-size="10.00">__JS_AtomFromUInt32</text>
</a>
</g>
</g>
<!-- Node3&#45;&gt;Node5 -->
<g id="edge4" class="edge">
<title>Node3&#45;&gt;Node5</title>
<path fill="none" stroke="midnightblue" d="M336.75,-548.18C343.41,-575.12 365.63,-650.68 413,-690.33 415.02,-692.03 417.2,-693.57 419.48,-694.97"/>
<polygon fill="midnightblue" stroke="midnightblue" points="418.21,-698.26 428.7,-699.74 421.43,-692.04 418.21,-698.26"/>
</g>
<!-- Node6 -->
<g id="node6" class="node">
<title>Node6</title>
<g id="a_node6"><a xlink:href="quickjs_8h.html#a9bf98b18de88b4199910a43e933eb97d" target="_top" xlink:title=" ">
<polygon fill="none" stroke="black" points="425.5,-661.83 425.5,-680.83 525.5,-680.83 525.5,-661.83 425.5,-661.83"/>
<text text-anchor="middle" x="475.5" y="-668.83" font-family="Helvetica,sans-Serif" font-size="10.00">__JS_NewFloat64</text>
</a>
</g>
</g>
<!-- Node3&#45;&gt;Node6 -->
<g id="edge5" class="edge">
<title>Node3&#45;&gt;Node6</title>
<path fill="none" stroke="midnightblue" d="M338.42,-547.9C347.88,-569.76 374.08,-623.73 413,-652.33 415.66,-654.28 418.52,-656.04 421.5,-657.61"/>
<polygon fill="midnightblue" stroke="midnightblue" points="420.18,-660.86 430.73,-661.83 423.09,-654.49 420.18,-660.86"/>
</g>
<!-- Node7 -->
<g id="node7" class="node">
<title>Node7</title>
<g id="a_node7"><a xlink:href="quickjs_8c.html#a74547db03bf739a52c83a326b32db997" target="_top" xlink:title=" ">
<polygon fill="none" stroke="red" points="435,-623.83 435,-642.83 516,-642.83 516,-623.83 435,-623.83"/>
<text text-anchor="middle" x="475.5" y="-630.83" font-family="Helvetica,sans-Serif" font-size="10.00">add_property</text>
</a>
</g>
</g>
<!-- Node3&#45;&gt;Node7 -->
<g id="edge6" class="edge">
<title>Node3&#45;&gt;Node7</title>
<path fill="none" stroke="midnightblue" d="M343.25,-548.29C356.88,-563.28 384.55,-591.75 413,-609.33 419.5,-613.35 426.79,-616.9 434.01,-619.96"/>
<polygon fill="midnightblue" stroke="midnightblue" points="433.16,-623.39 443.74,-623.82 435.74,-616.88 433.16,-623.39"/>
</g>
<!-- Node65 -->
<g id="node8" class="node">
<title>Node65</title>
<g id="a_node8"><a xlink:href="quickjs_8c.html#a4956f45ffd2849b96dc051277264f87a" target="_top" xlink:title=" ">
<polygon fill="none" stroke="red" points="434.5,-471.83 434.5,-490.83 516.5,-490.83 516.5,-471.83 434.5,-471.83"/>
<text text-anchor="middle" x="475.5" y="-478.83" font-family="Helvetica,sans-Serif" font-size="10.00">build_arg_list</text>
</a>
</g>
</g>
<!-- Node3&#45;&gt;Node65 -->
<g id="edge7" class="edge">
<title>Node3&#45;&gt;Node65</title>
<path fill="none" stroke="midnightblue" d="M352.24,-528.79C367.93,-520.58 391.59,-508.77 413,-500.33 418.6,-498.13 424.56,-496.01 430.48,-494.04"/>
<polygon fill="midnightblue" stroke="midnightblue" points="431.89,-497.26 440.35,-490.88 429.76,-490.6 431.89,-497.26"/>
</g>
<!-- Node66 -->
<g id="node9" class="node">
<title>Node66</title>
<g id="a_node9"><a xlink:href="quickjs_8c.html#ac864482356b3efc2d0b0a509fcfa4c7c" target="_top" xlink:title=" ">
<polygon fill="none" stroke="red" points="579,-471.83 579,-490.83 656,-490.83 656,-471.83 579,-471.83"/>
<text text-anchor="middle" x="617.5" y="-478.83" font-family="Helvetica,sans-Serif" font-size="10.00">free_arg_list</text>
</a>
</g>
</g>
<!-- Node3&#45;&gt;Node66 -->
<g id="edge17" class="edge">
<title>Node3&#45;&gt;Node66</title>
<path fill="none" stroke="midnightblue" d="M334.27,-528.76C333.98,-492.58 338.36,-363.57 413,-310.33 458.23,-278.07 491.23,-280.34 538,-310.33 591.08,-344.37 608.74,-424.3 614.22,-461.56"/>
<polygon fill="midnightblue" stroke="midnightblue" points="610.78,-462.2 615.56,-471.66 617.72,-461.28 610.78,-462.2"/>
</g>
<!-- Node3&#45;&gt;Node57 -->
<g id="edge33" class="edge">
<title>Node3&#45;&gt;Node57</title>
<path fill="none" stroke="midnightblue" d="M335.16,-528.5C338.85,-477.07 358.68,-239.6 413,-196.33 456.11,-162 617.64,-162.31 661,-196.33 706.58,-232.09 727.92,-419.18 733.77,-480.7"/>
<polygon fill="midnightblue" stroke="midnightblue" points="730.29,-481.03 734.69,-490.66 737.26,-480.39 730.29,-481.03"/>
</g>
<!-- Node3&#45;&gt;Node36 -->
<g id="edge32" class="edge">
<title>Node3&#45;&gt;Node36</title>
<path fill="none" stroke="midnightblue" d="M334.48,-528.65C334.93,-491.32 341.59,-355.22 413,-282.33 424.42,-270.68 515.79,-243.52 572.14,-227.59"/>
<polygon fill="midnightblue" stroke="midnightblue" points="573.21,-230.93 581.89,-224.85 571.32,-224.19 573.21,-230.93"/>
</g>
<!-- Node3&#45;&gt;Node75 -->
<g id="edge34" class="edge">
<title>Node3&#45;&gt;Node75</title>
<path fill="none" stroke="midnightblue" d="M350.07,-547.95C365.45,-556.94 389.96,-569.9 413,-576.33 462.78,-590.21 521.8,-594.45 563.42,-595.52"/>
<polygon fill="midnightblue" stroke="midnightblue" points="563.54,-599.03 573.61,-595.73 563.68,-592.03 563.54,-599.03"/>
</g>
<!-- Node161 -->
<g id="node13" class="node">
<title>Node161</title>
<g id="a_node13"><a xlink:href="quickjs_8c.html#a61c8dfb5e807af1b6ff7d8ca61576dda" target="_top" xlink:title=" ">
<polygon fill="none" stroke="red" points="428.5,-509.83 428.5,-528.83 522.5,-528.83 522.5,-509.83 428.5,-509.83"/>
<text text-anchor="middle" x="475.5" y="-516.83" font-family="Helvetica,sans-Serif" font-size="10.00">build_backtrace</text>
</a>
</g>
</g>
<!-- Node3&#45;&gt;Node161 -->
<g id="edge13" class="edge">
<title>Node3&#45;&gt;Node161</title>
<path fill="none" stroke="midnightblue" d="M377.27,-532.53C390.08,-530.79 404.34,-528.85 417.9,-527.01"/>
<polygon fill="midnightblue" stroke="midnightblue" points="418.66,-530.44 428.1,-525.63 417.72,-523.5 418.66,-530.44"/>
</g>
<!-- Node248 -->
<g id="node14" class="node">
<title>Node248</title>
<g id="a_node14"><a xlink:href="quickjs_8c.html#a344894112559c2ba75043fd10bcfa02f" target="_top" xlink:title=" ">
<polygon fill="none" stroke="red" points="425,-205.83 425,-224.83 526,-224.83 526,-205.83 425,-205.83"/>
<text text-anchor="middle" x="475.5" y="-212.83" font-family="Helvetica,sans-Serif" font-size="10.00">close_lexical_var</text>
</a>
</g>
</g>
<!-- Node3&#45;&gt;Node248 -->
<g id="edge14" class="edge">
<title>Node3&#45;&gt;Node248</title>
<path fill="none" stroke="midnightblue" d="M334.09,-528.62C332.92,-487.81 333.75,-328.29 413,-239.33 416.44,-235.47 420.57,-232.23 425.05,-229.5"/>
<polygon fill="midnightblue" stroke="midnightblue" points="426.73,-232.58 434,-224.87 423.51,-226.36 426.73,-232.58"/>
</g>
<!-- Node249 -->
<g id="node15" class="node">
<title>Node249</title>
<g id="a_node15"><a xlink:href="quickjs_8c.html#a1782043fce951bd4f0d91c7796b31e24" target="_top" xlink:title=" ">
<polygon fill="none" stroke="red" points="432,-433.83 432,-452.83 519,-452.83 519,-433.83 432,-433.83"/>
<text text-anchor="middle" x="475.5" y="-440.83" font-family="Helvetica,sans-Serif" font-size="10.00">close_var_refs</text>
</a>
</g>
</g>
<!-- Node3&#45;&gt;Node249 -->
<g id="edge16" class="edge">
<title>Node3&#45;&gt;Node249</title>
<path fill="none" stroke="midnightblue" d="M341.88,-528.68C354.66,-512.62 382.47,-480.4 413,-462.33 416.62,-460.19 420.51,-458.26 424.51,-456.54"/>
<polygon fill="midnightblue" stroke="midnightblue" points="425.91,-459.75 433.97,-452.87 423.38,-453.22 425.91,-459.75"/>
</g>
<!-- Node54 -->
<g id="node16" class="node">
<title>Node54</title>
<g id="a_node16"><a xlink:href="quickjs_8c.html#a9e7b4bccf927d811b0f99b40b08c0472" target="_top" xlink:title=" ">
<polygon fill="none" stroke="red" points="437.5,-395.83 437.5,-414.83 513.5,-414.83 513.5,-395.83 437.5,-395.83"/>
<text text-anchor="middle" x="475.5" y="-402.83" font-family="Helvetica,sans-Serif" font-size="10.00">free_var_ref</text>
</a>
</g>
</g>
<!-- Node3&#45;&gt;Node54 -->
<g id="edge18" class="edge">
<title>Node3&#45;&gt;Node54</title>
<path fill="none" stroke="midnightblue" d="M338.42,-528.77C347.88,-506.9 374.08,-452.93 413,-424.33 417.5,-421.02 422.59,-418.28 427.87,-416.01"/>
<polygon fill="midnightblue" stroke="midnightblue" points="429.34,-419.2 437.48,-412.42 426.89,-412.64 429.34,-419.2"/>
</g>
<!-- Node251 -->
<g id="node17" class="node">
<title>Node251</title>
<g id="a_node17"><a xlink:href="cutils_8h.html#a7c82a3ee025fee89db5b11ff5b7691b8" target="_top" xlink:title=" ">
<polygon fill="none" stroke="black" points="449,-357.83 449,-376.83 502,-376.83 502,-357.83 449,-357.83"/>
<text text-anchor="middle" x="475.5" y="-364.83" font-family="Helvetica,sans-Serif" font-size="10.00">get_i16</text>
</a>
</g>
</g>
<!-- Node3&#45;&gt;Node251 -->
<g id="edge19" class="edge">
<title>Node3&#45;&gt;Node251</title>
<path fill="none" stroke="midnightblue" d="M336.75,-528.49C343.41,-501.54 365.63,-425.98 413,-386.33 420.43,-380.12 429.87,-375.93 439.12,-373.11"/>
<polygon fill="midnightblue" stroke="midnightblue" points="440.17,-376.46 448.97,-370.56 438.41,-369.68 440.17,-376.46"/>
</g>
<!-- Node252 -->
<g id="node18" class="node">
<title>Node252</title>
<g id="a_node18"><a xlink:href="cutils_8h.html#a288ee4e688944e23500af2ecc813c306" target="_top" xlink:title=" ">
<polygon fill="none" stroke="black" points="452,-319.83 452,-338.83 499,-338.83 499,-319.83 452,-319.83"/>
<text text-anchor="middle" x="475.5" y="-326.83" font-family="Helvetica,sans-Serif" font-size="10.00">get_i8</text>
</a>
</g>
</g>
<!-- Node3&#45;&gt;Node252 -->
<g id="edge20" class="edge">
<title>Node3&#45;&gt;Node252</title>
<path fill="none" stroke="midnightblue" d="M335.59,-528.82C339.63,-497.99 356.56,-399.79 413,-348.33 420.99,-341.05 431.72,-336.55 441.99,-333.78"/>
<polygon fill="midnightblue" stroke="midnightblue" points="442.98,-337.15 451.98,-331.55 441.45,-330.32 442.98,-337.15"/>
</g>
<!-- Node253 -->
<g id="node19" class="node">
<title>Node253</title>
<g id="a_node19"><a xlink:href="cutils_8h.html#ad587834d17e95461893d59661e5e9676" target="_top" xlink:title=" ">
<polygon fill="none" stroke="black" points="447.5,-927.83 447.5,-946.83 503.5,-946.83 503.5,-927.83 447.5,-927.83"/>
<text text-anchor="middle" x="475.5" y="-934.83" font-family="Helvetica,sans-Serif" font-size="10.00">get_u16</text>
</a>
</g>
</g>
<!-- Node3&#45;&gt;Node253 -->
<g id="edge21" class="edge">
<title>Node3&#45;&gt;Node253</title>
<path fill="none" stroke="midnightblue" d="M335.18,-547.86C339.15,-601.08 361.02,-861.11 413,-918.33 419.4,-925.38 428.35,-929.84 437.45,-932.65"/>
<polygon fill="midnightblue" stroke="midnightblue" points="436.71,-936.08 447.26,-935.11 438.41,-929.29 436.71,-936.08"/>
</g>
<!-- Node50 -->
<g id="node20" class="node">
<title>Node50</title>
<g id="a_node20"><a xlink:href="cutils_8h.html#a941262a5f72fda2ec43ae7911e97a0dc" target="_top" xlink:title=" ">
<polygon fill="none" stroke="black" points="447.5,-889.83 447.5,-908.83 503.5,-908.83 503.5,-889.83 447.5,-889.83"/>
<text text-anchor="middle" x="475.5" y="-896.83" font-family="Helvetica,sans-Serif" font-size="10.00">get_u32</text>
</a>
</g>
</g>
<!-- Node3&#45;&gt;Node50 -->
<g id="edge22" class="edge">
<title>Node3&#45;&gt;Node50</title>
<path fill="none" stroke="midnightblue" d="M335.42,-547.88C340.4,-597.92 365.74,-829.44 413,-880.33 419.48,-887.31 428.45,-891.74 437.55,-894.56"/>
<polygon fill="midnightblue" stroke="midnightblue" points="436.8,-897.98 447.35,-897.02 438.51,-891.19 436.8,-897.98"/>
</g>
<!-- Node254 -->
<g id="node21" class="node">
<title>Node254</title>
<g id="a_node21"><a xlink:href="quickjs_8c.html#a37fe43b6649456a848bd54846450b995" target="_top" xlink:title=" ">
<polygon fill="none" stroke="red" points="439.5,-851.83 439.5,-870.83 511.5,-870.83 511.5,-851.83 439.5,-851.83"/>
<text text-anchor="middle" x="475.5" y="-858.83" font-family="Helvetica,sans-Serif" font-size="10.00">get_var_ref</text>
</a>
</g>
</g>
<!-- Node3&#45;&gt;Node254 -->
<g id="edge23" class="edge">
<title>Node3&#45;&gt;Node254</title>
<path fill="none" stroke="midnightblue" d="M335.73,-548.04C341.85,-594.96 370.48,-797.77 413,-842.33 417.56,-847.11 423.28,-850.69 429.4,-853.38"/>
<polygon fill="midnightblue" stroke="midnightblue" points="428.62,-856.82 439.22,-856.9 430.99,-850.23 428.62,-856.82"/>
</g>
<!-- Node197 -->
<g id="node22" class="node">
<title>Node197</title>
<g id="a_node22"><a xlink:href="list_8h.html#a663527a4d757540b2177bef0db1ce5c0" target="_top" xlink:title=" ">
<polygon fill="none" stroke="black" points="434.5,-813.83 434.5,-832.83 516.5,-832.83 516.5,-813.83 434.5,-813.83"/>
<text text-anchor="middle" x="475.5" y="-820.83" font-family="Helvetica,sans-Serif" font-size="10.00">init_list_head</text>
</a>
</g>
</g>
<!-- Node3&#45;&gt;Node197 -->
<g id="edge24" class="edge">
<title>Node3&#45;&gt;Node197</title>
<path fill="none" stroke="midnightblue" d="M334.31,-547.9C334.07,-586.04 338.4,-728.78 413,-804.33 416.45,-807.82 420.53,-810.68 424.91,-813.01"/>
<polygon fill="midnightblue" stroke="midnightblue" points="423.69,-816.29 434.26,-817.1 426.5,-809.88 423.69,-816.29"/>
</g>
<!-- Node255 -->
<g id="node23" class="node">
<title>Node255</title>
<g id="a_node23"><a xlink:href="quickjs_8c.html#a2bb0a2ca3b8320f3ff778c65034fce49" target="_top" xlink:title=" ">
<polygon fill="none" stroke="red" points="416,-775.83 416,-794.83 535,-794.83 535,-775.83 416,-775.83"/>
<text text-anchor="middle" x="475.5" y="-782.83" font-family="Helvetica,sans-Serif" font-size="10.00">is_backtrace_needed</text>
</a>
</g>
</g>
<!-- Node3&#45;&gt;Node255 -->
<g id="edge25" class="edge">
<title>Node3&#45;&gt;Node255</title>
<path fill="none" stroke="midnightblue" d="M334.87,-548.19C336.71,-583.25 347.75,-703.13 413,-766.33 414.63,-767.91 416.39,-769.36 418.25,-770.69"/>
<polygon fill="midnightblue" stroke="midnightblue" points="416.52,-773.73 426.92,-775.77 420.06,-767.69 416.52,-773.73"/>
</g>
<!-- Node181 -->
<g id="node24" class="node">
<title>Node181</title>
<g id="a_node24"><a xlink:href="quickjs_8c.html#a686cf78f8b0361621ee2ba6182195c31" target="_top" xlink:title=" ">
<polygon fill="none" stroke="black" points="431.5,-737.83 431.5,-756.83 519.5,-756.83 519.5,-737.83 431.5,-737.83"/>
<text text-anchor="middle" x="475.5" y="-744.83" font-family="Helvetica,sans-Serif" font-size="10.00">is_strict_mode</text>
</a>
</g>
</g>
<!-- Node3&#45;&gt;Node181 -->
<g id="edge26" class="edge">
<title>Node3&#45;&gt;Node181</title>
<path fill="none" stroke="midnightblue" d="M335.59,-547.84C339.63,-578.67 356.56,-676.87 413,-728.33 415.76,-730.85 418.86,-733.04 422.14,-734.93"/>
<polygon fill="midnightblue" stroke="midnightblue" points="420.68,-738.11 431.21,-739.3 423.72,-731.81 420.68,-738.11"/>
</g>
<!-- Node257 -->
<g id="node25" class="node">
<title>Node257</title>
<g id="a_node25"><a xlink:href="quickjs_8c.html#ae8ff05447c0d51fe277baccf616dc7c6" target="_top" xlink:title=" ">
<polygon fill="none" stroke="red" points="437.5,-547.83 437.5,-566.83 513.5,-566.83 513.5,-547.83 437.5,-547.83"/>
<text text-anchor="middle" x="475.5" y="-554.83" font-family="Helvetica,sans-Serif" font-size="10.00">js_add_slow</text>
</a>
</g>
</g>
<!-- Node3&#45;&gt;Node257 -->
<g id="edge27" class="edge">
<title>Node3&#45;&gt;Node257</title>
<path fill="none" stroke="midnightblue" d="M377.27,-544.13C392.96,-546.27 410.83,-548.69 426.93,-550.87"/>
<polygon fill="midnightblue" stroke="midnightblue" points="426.83,-554.39 437.21,-552.27 427.77,-547.46 426.83,-554.39"/>
</g>
<!-- Node3&#45;&gt;Node127 -->
<g id="edge35" class="edge">
<title>Node3&#45;&gt;Node127</title>
<path fill="none" stroke="midnightblue" d="M335.33,-528.47C340.44,-469.55 368.77,-163.89 413,-82.33 422.05,-65.64 437.84,-51.16 451.16,-40.97"/>
<polygon fill="midnightblue" stroke="midnightblue" points="453.44,-43.64 459.46,-34.92 449.31,-37.98 453.44,-43.64"/>
</g>
<!-- Node3&#45;&gt;Node208 -->
<g id="edge36" class="edge">
<title>Node3&#45;&gt;Node208</title>
<path fill="none" stroke="midnightblue" d="M334.12,-547.88C332.53,-597.39 330.01,-828.69 413,-989.33 422.51,-1007.74 439.39,-1024.16 453.06,-1035.47"/>
<polygon fill="midnightblue" stroke="midnightblue" points="451.06,-1038.35 461.06,-1041.82 455.41,-1032.86 451.06,-1038.35"/>
</g>
<!-- Node224 -->
<g id="node28" class="node">
<title>Node224</title>
<g id="a_node28"><a xlink:href="quickjs_8c.html#a2bf30c9cddfe98a32535843202495069" target="_top" xlink:title=" ">
<polygon fill="none" stroke="black" points="433.5,-91.83 433.5,-110.83 517.5,-110.83 517.5,-91.83 433.5,-91.83"/>
<text text-anchor="middle" x="475.5" y="-98.83" font-family="Helvetica,sans-Serif" font-size="10.00">JS_ToBoolFree</text>
</a>
</g>
</g>
<!-- Node3&#45;&gt;Node224 -->
<g id="edge38" class="edge">
<title>Node3&#45;&gt;Node224</title>
<path fill="none" stroke="midnightblue" d="M334.56,-528.67C335.21,-484.08 342.22,-294.82 413,-163.33 422.82,-145.09 439.68,-128.66 453.26,-117.3"/>
<polygon fill="midnightblue" stroke="midnightblue" points="455.61,-119.91 461.21,-110.91 451.22,-114.45 455.61,-119.91"/>
</g>
<!-- Node65&#45;&gt;Node4 -->
<g id="edge8" class="edge">
<title>Node65&#45;&gt;Node4</title>
<path fill="none" stroke="midnightblue" d="M514.34,-490.88C522.35,-493.48 530.6,-496.63 538,-500.33 560.24,-511.46 582.94,-528.71 598.17,-541.32"/>
<polygon fill="midnightblue" stroke="midnightblue" points="595.92,-544 605.81,-547.78 600.44,-538.65 595.92,-544"/>
</g>
<!-- Node65&#45;&gt;Node66 -->
<g id="edge9" class="edge">
<title>Node65&#45;&gt;Node66</title>
<path fill="none" stroke="midnightblue" d="M516.62,-481.33C532.81,-481.33 551.63,-481.33 568.54,-481.33"/>
<polygon fill="midnightblue" stroke="midnightblue" points="568.78,-484.83 578.78,-481.33 568.78,-477.83 568.78,-484.83"/>
</g>
<!-- Node65&#45;&gt;Node36 -->
<g id="edge11" class="edge">
<title>Node65&#45;&gt;Node36</title>
<path fill="none" stroke="midnightblue" d="M516.65,-475.01C524.51,-472.2 532.13,-468.15 538,-462.33 602.49,-398.36 614.09,-281.67 616.11,-235.2"/>
<polygon fill="midnightblue" stroke="midnightblue" points="619.61,-235.08 616.44,-224.97 612.61,-234.85 619.61,-235.08"/>
</g>
<!-- Node65&#45;&gt;Node75 -->
<g id="edge12" class="edge">
<title>Node65&#45;&gt;Node75</title>
<path fill="none" stroke="midnightblue" d="M516.72,-488.5C524.39,-491.25 531.92,-495.06 538,-500.33 566.25,-524.81 547.28,-550.19 574,-576.33 575.43,-577.73 576.98,-579.04 578.62,-580.25"/>
<polygon fill="midnightblue" stroke="midnightblue" points="576.97,-583.35 587.32,-585.63 580.65,-577.4 576.97,-583.35"/>
</g>
<!-- Node66&#45;&gt;Node57 -->
<g id="edge10" class="edge">
<title>Node66&#45;&gt;Node57</title>
<path fill="none" stroke="midnightblue" d="M656.16,-487.45C665.88,-489.03 676.49,-490.75 686.68,-492.4"/>
<polygon fill="midnightblue" stroke="midnightblue" points="686.27,-495.88 696.7,-494.03 687.39,-488.97 686.27,-495.88"/>
</g>
<!-- Node248&#45;&gt;Node36 -->
<g id="edge15" class="edge">
<title>Node248&#45;&gt;Node36</title>
<path fill="none" stroke="midnightblue" d="M526.25,-215.33C540.03,-215.33 554.96,-215.33 568.62,-215.33"/>
<polygon fill="midnightblue" stroke="midnightblue" points="568.79,-218.83 578.79,-215.33 568.79,-211.83 568.79,-218.83"/>
</g>
<!-- Node257&#45;&gt;Node57 -->
<g id="edge28" class="edge">
<title>Node257&#45;&gt;Node57</title>
<path fill="none" stroke="midnightblue" d="M513.61,-549.16C559.15,-539.14 636.49,-522.12 686.78,-511.05"/>
<polygon fill="midnightblue" stroke="midnightblue" points="687.75,-514.42 696.77,-508.85 686.25,-507.59 687.75,-514.42"/>
</g>
<!-- Node257&#45;&gt;Node75 -->
<g id="edge29" class="edge">
<title>Node257&#45;&gt;Node75</title>
<path fill="none" stroke="midnightblue" d="M511.83,-566.92C529.9,-571.83 552.1,-577.85 571.39,-583.09"/>
<polygon fill="midnightblue" stroke="midnightblue" points="570.62,-586.5 581.18,-585.74 572.45,-579.75 570.62,-586.5"/>
</g>
<!-- Node208&#45;&gt;Node57 -->
<g id="edge37" class="edge">
<title>Node208&#45;&gt;Node57</title>
<path fill="none" stroke="midnightblue" d="M506.31,-1045.18C517.46,-1041.58 529.47,-1035.98 538,-1027.33 688.45,-874.84 726.06,-597.01 733.76,-520.37"/>
<polygon fill="midnightblue" stroke="midnightblue" points="737.26,-520.49 734.72,-510.2 730.29,-519.83 737.26,-520.49"/>
</g>
<!-- Node224&#45;&gt;Node57 -->
<g id="edge39" class="edge">
<title>Node224&#45;&gt;Node57</title>
<path fill="none" stroke="midnightblue" d="M517.67,-103.76C559.85,-108.52 624.3,-122.49 661,-163.33 703.98,-211.15 727.26,-415.64 733.66,-480.51"/>
<polygon fill="midnightblue" stroke="midnightblue" points="730.19,-481 734.63,-490.62 737.16,-480.33 730.19,-481"/>
</g>
<!-- Node437&#45;&gt;Node36 -->
<g id="edge47" class="edge">
<title>Node437&#45;&gt;Node36</title>
<path fill="none" stroke="midnightblue" d="M355.81,-91.78C394.83,-75.84 479.14,-48.73 538,-82.33 580.93,-106.84 602.74,-165.03 611.58,-195.67"/>
<polygon fill="midnightblue" stroke="midnightblue" points="608.28,-196.86 614.27,-205.6 615.04,-195.04 608.28,-196.86"/>
</g>
<!-- Node437&#45;&gt;Node224 -->
<g id="edge48" class="edge">
<title>Node437&#45;&gt;Node224</title>
<path fill="none" stroke="midnightblue" d="M365.22,-101.33C382.21,-101.33 403.76,-101.33 423.23,-101.33"/>
<polygon fill="midnightblue" stroke="midnightblue" points="423.49,-104.83 433.49,-101.33 423.49,-97.83 423.49,-104.83"/>
</g>
</g>
</svg>
