<?xml version="1.0" encoding="UTF-8" standalone="no"?>
<!DOCTYPE svg PUBLIC "-//W3C//DTD SVG 1.1//EN"
 "http://www.w3.org/Graphics/SVG/1.1/DTD/svg11.dtd">
<!-- Generated by graphviz version 2.43.0 (0)
 -->
<!-- Title: JS_IsInstanceOf Pages: 1 -->
<!--zoomable 1190 -->
<svg id="main" version="1.1" xmlns="http://www.w3.org/2000/svg" xmlns:xlink="http://www.w3.org/1999/xlink" xml:space="preserve" onload="init(evt)">
<style type="text/css"><![CDATA[
.edge:hover path { stroke: red; }
.edge:hover polygon { stroke: red; fill: red; }
]]></style>
<script type="text/javascript"><![CDATA[
var edges = document.getElementsByTagName('g');
if (edges && edges.length) {
  for (var i=0;i<edges.length;i++) {
    if (edges[i].id.substr(0,4)=='edge') {
      edges[i].setAttribute('class','edge');
    }
  }
}
]]></script>
        <defs>
                <circle id="rim" cx="0" cy="0" r="7"/>
                <circle id="rim2" cx="0" cy="0" r="3.5"/>
                <g id="zoomPlus">
                        <use xlink:href="#rim" fill="#404040">
                                <set attributeName="fill" to="#808080" begin="zoomplus.mouseover" end="zoomplus.mouseout"/>
                        </use>
                        <path d="M-4,0h8M0,-4v8" fill="none" stroke="white" stroke-width="1.5" pointer-events="none"/>
                </g>
                <g id="zoomMin">
                        <use xlink:href="#rim" fill="#404040">
                                <set attributeName="fill" to="#808080" begin="zoomminus.mouseover" end="zoomminus.mouseout"/>
                        </use>
                        <path d="M-4,0h8" fill="none" stroke="white" stroke-width="1.5" pointer-events="none"/>
                </g>
                <g id="dirArrow">
                        <path fill="none" stroke="white" stroke-width="1.5" d="M0,-3.0v7 M-2.5,-0.5L0,-3.0L2.5,-0.5"/>
                </g>
               <g id="resetDef">
                       <use xlink:href="#rim2" fill="#404040">
                               <set attributeName="fill" to="#808080" begin="reset.mouseover" end="reset.mouseout"/>
                       </use>
               </g>
        </defs>

<script type="text/javascript">
var viewWidth = 816;
var viewHeight = 1190;
var sectionId = 'dynsection-544';
</script>
<script xlink:href="svgpan.js"/>
<svg id="graph" class="graph">
<g id="viewport">
<title>JS_IsInstanceOf</title>
<!-- Node1 -->
<g id="node1" class="node">
<title>Node1</title>
<g id="a_node1"><a xlink:title=" ">
<polygon fill="#bfbfbf" stroke="black" points="0,-244.34 0,-263.34 92,-263.34 92,-244.34 0,-244.34"/>
<text text-anchor="middle" x="46" y="-251.34" font-family="Helvetica,sans-Serif" font-size="10.00">JS_IsInstanceOf</text>
</a>
</g>
</g>
<!-- Node2 -->
<g id="node2" class="node">
<title>Node2</title>
<g id="a_node2"><a xlink:href="quickjs_8c.html#a75f6ee5e4235a7dc99889f3d2eb2c147" target="_top" xlink:title=" ">
<polygon fill="none" stroke="black" points="128,-672.34 128,-691.34 199,-691.34 199,-672.34 128,-672.34"/>
<text text-anchor="middle" x="163.5" y="-679.34" font-family="Helvetica,sans-Serif" font-size="10.00">JS_CallFree</text>
</a>
</g>
</g>
<!-- Node1&#45;&gt;Node2 -->
<g id="edge1" class="edge">
<title>Node1&#45;&gt;Node2</title>
<path fill="none" stroke="midnightblue" d="M49.63,-263.58C64.39,-318.26 136.96,-587.19 157.23,-662.31"/>
<polygon fill="midnightblue" stroke="midnightblue" points="153.94,-663.55 159.92,-672.29 160.7,-661.73 153.94,-663.55"/>
</g>
<!-- Node75 -->
<g id="node12" class="node">
<title>Node75</title>
<g id="a_node12"><a xlink:href="quickjs_8h.html#ad80a83d73e9b7d872b88fbf2943aebe9" target="_top" xlink:title=" ">
<polygon fill="none" stroke="black" points="586,-235.34 586,-254.34 673,-254.34 673,-235.34 586,-235.34"/>
<text text-anchor="middle" x="629.5" y="-242.34" font-family="Helvetica,sans-Serif" font-size="10.00">JS_IsException</text>
</a>
</g>
</g>
<!-- Node1&#45;&gt;Node75 -->
<g id="edge42" class="edge">
<title>Node1&#45;&gt;Node75</title>
<path fill="none" stroke="midnightblue" d="M53.69,-244.2C66.77,-225.74 97.13,-184.57 128,-154.84 227.08,-59.43 269.25,-38.99 405,-16.84 459.83,-7.89 485.19,16 530,-16.84 572.86,-48.25 545.13,-81.98 566,-130.84 580.98,-165.91 603.42,-204.36 616.94,-226.44"/>
<polygon fill="midnightblue" stroke="midnightblue" points="614.06,-228.44 622.3,-235.1 620.02,-224.76 614.06,-228.44"/>
</g>
<!-- Node68 -->
<g id="node21" class="node">
<title>Node68</title>
<g id="a_node21"><a xlink:href="quickjs_8h.html#a89b7c8686c7eee70b86be722ee4730ad" target="_top" xlink:title=" ">
<polygon fill="none" stroke="black" points="423,-292.34 423,-311.34 512,-311.34 512,-292.34 423,-292.34"/>
<text text-anchor="middle" x="467.5" y="-299.34" font-family="Helvetica,sans-Serif" font-size="10.00">JS_GetProperty</text>
</a>
</g>
</g>
<!-- Node1&#45;&gt;Node68 -->
<g id="edge41" class="edge">
<title>Node1&#45;&gt;Node68</title>
<path fill="none" stroke="midnightblue" d="M92.29,-259.02C170.29,-267.94 329.59,-286.17 412.95,-295.71"/>
<polygon fill="midnightblue" stroke="midnightblue" points="412.64,-299.2 422.97,-296.86 413.43,-292.24 412.64,-299.2"/>
</g>
<!-- Node125 -->
<g id="node23" class="node">
<title>Node125</title>
<g id="a_node23"><a xlink:href="quickjs_8h.html#a149f24b67e745bad93573b3b4c80db4c" target="_top" xlink:title=" ">
<polygon fill="none" stroke="black" points="438,-254.34 438,-273.34 497,-273.34 497,-254.34 438,-254.34"/>
<text text-anchor="middle" x="467.5" y="-261.34" font-family="Helvetica,sans-Serif" font-size="10.00">JS_IsNull</text>
</a>
</g>
</g>
<!-- Node1&#45;&gt;Node125 -->
<g id="edge44" class="edge">
<title>Node1&#45;&gt;Node125</title>
<path fill="none" stroke="midnightblue" d="M92.07,-254.03C154.36,-254.41 270.23,-255.54 369,-258.84 388.4,-259.49 409.96,-260.55 427.85,-261.54"/>
<polygon fill="midnightblue" stroke="midnightblue" points="427.75,-265.04 437.93,-262.1 428.14,-258.05 427.75,-265.04"/>
</g>
<!-- Node287 -->
<g id="node24" class="node">
<title>Node287</title>
<g id="a_node24"><a xlink:href="quickjs_8h.html#a3d68fe446df2d9c7d1900b16371bff5b" target="_top" xlink:title=" ">
<polygon fill="none" stroke="black" points="432,-444.34 432,-463.34 503,-463.34 503,-444.34 432,-444.34"/>
<text text-anchor="middle" x="467.5" y="-451.34" font-family="Helvetica,sans-Serif" font-size="10.00">JS_IsObject</text>
</a>
</g>
</g>
<!-- Node1&#45;&gt;Node287 -->
<g id="edge45" class="edge">
<title>Node1&#45;&gt;Node287</title>
<path fill="none" stroke="midnightblue" d="M55.52,-263.77C69.33,-279.33 98.09,-309.57 128,-327.84 225.22,-387.22 354.93,-425.77 422.05,-443.16"/>
<polygon fill="midnightblue" stroke="midnightblue" points="421.33,-446.58 431.88,-445.67 423.06,-439.8 421.33,-446.58"/>
</g>
<!-- Node126 -->
<g id="node25" class="node">
<title>Node126</title>
<g id="a_node25"><a xlink:href="quickjs_8h.html#a4e407128a9605afb77523e49e9a627fd" target="_top" xlink:title=" ">
<polygon fill="none" stroke="black" points="423,-368.34 423,-387.34 512,-387.34 512,-368.34 423,-368.34"/>
<text text-anchor="middle" x="467.5" y="-375.34" font-family="Helvetica,sans-Serif" font-size="10.00">JS_IsUndefined</text>
</a>
</g>
</g>
<!-- Node1&#45;&gt;Node126 -->
<g id="edge46" class="edge">
<title>Node1&#45;&gt;Node126</title>
<path fill="none" stroke="midnightblue" d="M60.41,-263.44C75.98,-274.18 102.76,-291.43 128,-301.84 224.13,-341.47 344.55,-362.21 412.78,-371.52"/>
<polygon fill="midnightblue" stroke="midnightblue" points="412.49,-375.01 422.86,-372.86 413.41,-368.07 412.49,-375.01"/>
</g>
<!-- Node223 -->
<g id="node27" class="node">
<title>Node223</title>
<g id="a_node27"><a xlink:href="quickjs_8c.html#a2bf30c9cddfe98a32535843202495069" target="_top" xlink:title=" ">
<polygon fill="none" stroke="black" points="425.5,-330.34 425.5,-349.34 509.5,-349.34 509.5,-330.34 425.5,-330.34"/>
<text text-anchor="middle" x="467.5" y="-337.34" font-family="Helvetica,sans-Serif" font-size="10.00">JS_ToBoolFree</text>
</a>
</g>
</g>
<!-- Node1&#45;&gt;Node223 -->
<g id="edge58" class="edge">
<title>Node1&#45;&gt;Node223</title>
<path fill="none" stroke="midnightblue" d="M72.61,-263.46C88.4,-269.13 109.17,-276.09 128,-280.84 228.47,-306.19 348.45,-324.3 415.2,-333.33"/>
<polygon fill="midnightblue" stroke="midnightblue" points="415.07,-336.84 425.44,-334.7 416,-329.9 415.07,-336.84"/>
</g>
<!-- Node124 -->
<g id="node28" class="node">
<title>Node124</title>
<g id="a_node28"><a xlink:href="quickjs_8c.html#a1ca9cdb1fa2ffc3e6506e92b200e490f" target="_top" xlink:title=" ">
<polygon fill="none" stroke="black" points="427.5,-26.34 427.5,-45.34 507.5,-45.34 507.5,-26.34 427.5,-26.34"/>
<text text-anchor="middle" x="467.5" y="-33.34" font-family="Helvetica,sans-Serif" font-size="10.00">JS_IsFunction</text>
</a>
</g>
</g>
<!-- Node1&#45;&gt;Node124 -->
<g id="edge43" class="edge">
<title>Node1&#45;&gt;Node124</title>
<path fill="none" stroke="midnightblue" d="M60.44,-244.15C76.25,-232.93 103.47,-214.14 128,-199.84 247.16,-130.34 279.05,-116.09 405,-59.84 413.29,-56.14 422.33,-52.43 430.88,-49.07"/>
<polygon fill="midnightblue" stroke="midnightblue" points="432.17,-52.32 440.24,-45.45 429.65,-45.79 432.17,-52.32"/>
</g>
<!-- Node435 -->
<g id="node29" class="node">
<title>Node435</title>
<g id="a_node29"><a xlink:href="quickjs_8c.html#aa0b5c1a59ff4832154e2a98d7c63a4b2" target="_top" xlink:title=" ">
<polygon fill="none" stroke="black" points="235,-178.34 235,-197.34 369,-197.34 369,-178.34 235,-178.34"/>
<text text-anchor="middle" x="302" y="-185.34" font-family="Helvetica,sans-Serif" font-size="10.00">JS_OrdinaryIsInstanceOf</text>
</a>
</g>
</g>
<!-- Node1&#45;&gt;Node435 -->
<g id="edge47" class="edge">
<title>Node1&#45;&gt;Node435</title>
<path fill="none" stroke="midnightblue" d="M55.78,-244.03C70.43,-233.64 100.92,-219.85 128,-211.84 159.22,-202.6 194.39,-195.34 224.83,-190.66"/>
<polygon fill="midnightblue" stroke="midnightblue" points="225.57,-194.08 234.96,-189.17 224.55,-187.16 225.57,-194.08"/>
</g>
<!-- Node3 -->
<g id="node3" class="node">
<title>Node3</title>
<g id="a_node3"><a xlink:href="quickjs_8c.html#ac2894ff4edcdb4e6841bcce9c76081e3" target="_top" xlink:title=" ">
<polygon fill="none" stroke="red" points="258.5,-672.34 258.5,-691.34 345.5,-691.34 345.5,-672.34 258.5,-672.34"/>
<text text-anchor="middle" x="302" y="-679.34" font-family="Helvetica,sans-Serif" font-size="10.00">JS_CallInternal</text>
</a>
</g>
</g>
<!-- Node2&#45;&gt;Node3 -->
<g id="edge2" class="edge">
<title>Node2&#45;&gt;Node3</title>
<path fill="none" stroke="midnightblue" d="M199.3,-675.87C214.21,-675.11 231.96,-674.9 248.42,-675.25"/>
<polygon fill="midnightblue" stroke="midnightblue" points="248.37,-678.75 258.46,-675.53 248.57,-671.75 248.37,-678.75"/>
</g>
<!-- Node57 -->
<g id="node10" class="node">
<title>Node57</title>
<g id="a_node10"><a xlink:href="quickjs_8h.html#afaa20c47565bc704c6c85f3d77254e7d" target="_top" xlink:title=" ">
<polygon fill="none" stroke="red" points="729,-406.34 729,-425.34 808,-425.34 808,-406.34 729,-406.34"/>
<text text-anchor="middle" x="768.5" y="-413.34" font-family="Helvetica,sans-Serif" font-size="10.00">JS_FreeValue</text>
</a>
</g>
</g>
<!-- Node2&#45;&gt;Node57 -->
<g id="edge40" class="edge">
<title>Node2&#45;&gt;Node57</title>
<path fill="none" stroke="midnightblue" d="M170,-672.31C192.82,-633.85 284.52,-489.44 405,-434.84 508.67,-387.85 646.5,-397.71 718.68,-407.59"/>
<polygon fill="midnightblue" stroke="midnightblue" points="718.45,-411.09 728.84,-409.04 719.44,-404.16 718.45,-411.09"/>
</g>
<!-- Node3&#45;&gt;Node2 -->
<g id="edge23" class="edge">
<title>Node3&#45;&gt;Node2</title>
<path fill="none" stroke="midnightblue" d="M258.46,-688.14C242.86,-688.71 225.16,-688.73 209.36,-688.22"/>
<polygon fill="midnightblue" stroke="midnightblue" points="209.43,-684.72 199.3,-687.81 209.15,-691.72 209.43,-684.72"/>
</g>
<!-- Node3&#45;&gt;Node3 -->
<g id="edge24" class="edge">
<title>Node3&#45;&gt;Node3</title>
<path fill="none" stroke="midnightblue" d="M280.73,-691.59C270.38,-700.4 277.47,-709.84 302,-709.84 317.71,-709.84 326.27,-705.97 327.67,-700.87"/>
<polygon fill="midnightblue" stroke="midnightblue" points="330.72,-699.13 323.27,-691.59 324.39,-702.13 330.72,-699.13"/>
</g>
<!-- Node4 -->
<g id="node4" class="node">
<title>Node4</title>
<g id="a_node4"><a xlink:href="quickjs_8c.html#a853f0924d441ea4225488f37c8b69f9a" target="_top" xlink:title=" ">
<polygon fill="none" stroke="black" points="589.5,-1014.34 589.5,-1033.34 669.5,-1033.34 669.5,-1014.34 589.5,-1014.34"/>
<text text-anchor="middle" x="629.5" y="-1021.34" font-family="Helvetica,sans-Serif" font-size="10.00">__attribute__</text>
</a>
</g>
</g>
<!-- Node3&#45;&gt;Node4 -->
<g id="edge3" class="edge">
<title>Node3&#45;&gt;Node4</title>
<path fill="none" stroke="midnightblue" d="M304.18,-691.54C310.84,-744.48 345.53,-997.84 405,-1042.84 462.43,-1086.29 553.52,-1057.05 599.67,-1037.46"/>
<polygon fill="midnightblue" stroke="midnightblue" points="601.32,-1040.56 609.07,-1033.34 598.5,-1034.15 601.32,-1040.56"/>
</g>
<!-- Node5 -->
<g id="node5" class="node">
<title>Node5</title>
<g id="a_node5"><a xlink:href="quickjs_8c.html#a877fcb7651d95b411ce70e62b7f4a1f0" target="_top" xlink:title=" ">
<polygon fill="none" stroke="black" points="405,-824.34 405,-843.34 530,-843.34 530,-824.34 405,-824.34"/>
<text text-anchor="middle" x="467.5" y="-831.34" font-family="Helvetica,sans-Serif" font-size="10.00">__JS_AtomFromUInt32</text>
</a>
</g>
</g>
<!-- Node3&#45;&gt;Node5 -->
<g id="edge4" class="edge">
<title>Node3&#45;&gt;Node5</title>
<path fill="none" stroke="midnightblue" d="M308.33,-691.62C321.63,-715.18 358.56,-775.62 405,-809.84 410.52,-813.9 416.81,-817.38 423.22,-820.32"/>
<polygon fill="midnightblue" stroke="midnightblue" points="422.04,-823.62 432.62,-824.25 424.74,-817.16 422.04,-823.62"/>
</g>
<!-- Node6 -->
<g id="node6" class="node">
<title>Node6</title>
<g id="a_node6"><a xlink:href="quickjs_8h.html#a9bf98b18de88b4199910a43e933eb97d" target="_top" xlink:title=" ">
<polygon fill="none" stroke="black" points="417.5,-672.34 417.5,-691.34 517.5,-691.34 517.5,-672.34 417.5,-672.34"/>
<text text-anchor="middle" x="467.5" y="-679.34" font-family="Helvetica,sans-Serif" font-size="10.00">__JS_NewFloat64</text>
</a>
</g>
</g>
<!-- Node3&#45;&gt;Node6 -->
<g id="edge5" class="edge">
<title>Node3&#45;&gt;Node6</title>
<path fill="none" stroke="midnightblue" d="M345.53,-681.84C364.31,-681.84 386.71,-681.84 407.1,-681.84"/>
<polygon fill="midnightblue" stroke="midnightblue" points="407.23,-685.34 417.23,-681.84 407.23,-678.34 407.23,-685.34"/>
</g>
<!-- Node7 -->
<g id="node7" class="node">
<title>Node7</title>
<g id="a_node7"><a xlink:href="quickjs_8c.html#a74547db03bf739a52c83a326b32db997" target="_top" xlink:title=" ">
<polygon fill="none" stroke="red" points="427,-634.34 427,-653.34 508,-653.34 508,-634.34 427,-634.34"/>
<text text-anchor="middle" x="467.5" y="-641.34" font-family="Helvetica,sans-Serif" font-size="10.00">add_property</text>
</a>
</g>
</g>
<!-- Node3&#45;&gt;Node7 -->
<g id="edge6" class="edge">
<title>Node3&#45;&gt;Node7</title>
<path fill="none" stroke="midnightblue" d="M344.26,-672.25C366.34,-667.12 393.7,-660.76 416.93,-655.36"/>
<polygon fill="midnightblue" stroke="midnightblue" points="418,-658.7 426.95,-653.03 416.41,-651.88 418,-658.7"/>
</g>
<!-- Node65 -->
<g id="node8" class="node">
<title>Node65</title>
<g id="a_node8"><a xlink:href="quickjs_8c.html#a4956f45ffd2849b96dc051277264f87a" target="_top" xlink:title=" ">
<polygon fill="none" stroke="red" points="426.5,-748.34 426.5,-767.34 508.5,-767.34 508.5,-748.34 426.5,-748.34"/>
<text text-anchor="middle" x="467.5" y="-755.34" font-family="Helvetica,sans-Serif" font-size="10.00">build_arg_list</text>
</a>
</g>
</g>
<!-- Node3&#45;&gt;Node65 -->
<g id="edge7" class="edge">
<title>Node3&#45;&gt;Node65</title>
<path fill="none" stroke="midnightblue" d="M320.43,-691.4C340.54,-702.26 374.71,-720.25 405,-733.84 413.28,-737.55 422.32,-741.27 430.87,-744.62"/>
<polygon fill="midnightblue" stroke="midnightblue" points="429.64,-747.9 440.23,-748.24 432.16,-741.37 429.64,-747.9"/>
</g>
<!-- Node66 -->
<g id="node9" class="node">
<title>Node66</title>
<g id="a_node9"><a xlink:href="quickjs_8c.html#ac864482356b3efc2d0b0a509fcfa4c7c" target="_top" xlink:title=" ">
<polygon fill="none" stroke="red" points="591,-558.34 591,-577.34 668,-577.34 668,-558.34 591,-558.34"/>
<text text-anchor="middle" x="629.5" y="-565.34" font-family="Helvetica,sans-Serif" font-size="10.00">free_arg_list</text>
</a>
</g>
</g>
<!-- Node3&#45;&gt;Node66 -->
<g id="edge17" class="edge">
<title>Node3&#45;&gt;Node66</title>
<path fill="none" stroke="midnightblue" d="M309.81,-672.1C324.51,-652 361.42,-606.16 405,-586.84 461.43,-561.82 533.67,-560.5 580.5,-563.12"/>
<polygon fill="midnightblue" stroke="midnightblue" points="580.47,-566.62 590.67,-563.77 580.92,-559.64 580.47,-566.62"/>
</g>
<!-- Node3&#45;&gt;Node57 -->
<g id="edge26" class="edge">
<title>Node3&#45;&gt;Node57</title>
<path fill="none" stroke="midnightblue" d="M308.62,-672.03C322.27,-649 359.43,-590.92 405,-557.84 408.54,-555.27 643.89,-463.81 733.43,-429.05"/>
<polygon fill="midnightblue" stroke="midnightblue" points="734.81,-432.27 742.87,-425.39 732.28,-425.75 734.81,-432.27"/>
</g>
<!-- Node36 -->
<g id="node11" class="node">
<title>Node36</title>
<g id="a_node11"><a xlink:href="quickjs_8h.html#a775522f2d084fc8fa0fcb33f390006b4" target="_top" xlink:title=" ">
<polygon fill="none" stroke="black" points="730,-748.34 730,-767.34 807,-767.34 807,-748.34 730,-748.34"/>
<text text-anchor="middle" x="768.5" y="-755.34" font-family="Helvetica,sans-Serif" font-size="10.00">JS_DupValue</text>
</a>
</g>
</g>
<!-- Node3&#45;&gt;Node36 -->
<g id="edge25" class="edge">
<title>Node3&#45;&gt;Node36</title>
<path fill="none" stroke="midnightblue" d="M303.44,-691.49C305.75,-729.82 319.97,-871.96 405,-928.84 529.86,-1012.36 701.92,-833.41 752.78,-775.27"/>
<polygon fill="midnightblue" stroke="midnightblue" points="755.5,-777.48 759.39,-767.62 750.2,-772.9 755.5,-777.48"/>
</g>
<!-- Node3&#45;&gt;Node75 -->
<g id="edge33" class="edge">
<title>Node3&#45;&gt;Node75</title>
<path fill="none" stroke="midnightblue" d="M306.33,-671.99C316.44,-643.5 349.57,-560.26 405,-515.84 450.85,-479.1 486.9,-512.76 530,-472.84 593.15,-414.34 617.71,-308.44 625.46,-264.63"/>
<polygon fill="midnightblue" stroke="midnightblue" points="628.93,-265.11 627.12,-254.67 622.02,-263.96 628.93,-265.11"/>
</g>
<!-- Node160 -->
<g id="node13" class="node">
<title>Node160</title>
<g id="a_node13"><a xlink:href="quickjs_8c.html#a61c8dfb5e807af1b6ff7d8ca61576dda" target="_top" xlink:title=" ">
<polygon fill="none" stroke="red" points="420.5,-596.34 420.5,-615.34 514.5,-615.34 514.5,-596.34 420.5,-596.34"/>
<text text-anchor="middle" x="467.5" y="-603.34" font-family="Helvetica,sans-Serif" font-size="10.00">build_backtrace</text>
</a>
</g>
</g>
<!-- Node3&#45;&gt;Node160 -->
<g id="edge13" class="edge">
<title>Node3&#45;&gt;Node160</title>
<path fill="none" stroke="midnightblue" d="M317.7,-672.32C337.09,-660.07 372.55,-638.73 405,-624.84 410.33,-622.55 416.03,-620.42 421.72,-618.46"/>
<polygon fill="midnightblue" stroke="midnightblue" points="422.83,-621.78 431.24,-615.34 420.65,-615.13 422.83,-621.78"/>
</g>
<!-- Node247 -->
<g id="node14" class="node">
<title>Node247</title>
<g id="a_node14"><a xlink:href="quickjs_8c.html#a344894112559c2ba75043fd10bcfa02f" target="_top" xlink:title=" ">
<polygon fill="none" stroke="red" points="579,-786.34 579,-805.34 680,-805.34 680,-786.34 579,-786.34"/>
<text text-anchor="middle" x="629.5" y="-793.34" font-family="Helvetica,sans-Serif" font-size="10.00">close_lexical_var</text>
</a>
</g>
</g>
<!-- Node3&#45;&gt;Node247 -->
<g id="edge14" class="edge">
<title>Node3&#45;&gt;Node247</title>
<path fill="none" stroke="midnightblue" d="M309.81,-691.57C324.51,-711.67 361.42,-757.51 405,-776.84 456.8,-799.8 521.91,-802.8 568.47,-801.11"/>
<polygon fill="midnightblue" stroke="midnightblue" points="568.87,-804.6 578.71,-800.65 568.56,-797.6 568.87,-804.6"/>
</g>
<!-- Node248 -->
<g id="node15" class="node">
<title>Node248</title>
<g id="a_node15"><a xlink:href="quickjs_8c.html#a1782043fce951bd4f0d91c7796b31e24" target="_top" xlink:title=" ">
<polygon fill="none" stroke="red" points="424,-1128.34 424,-1147.34 511,-1147.34 511,-1128.34 424,-1128.34"/>
<text text-anchor="middle" x="467.5" y="-1135.34" font-family="Helvetica,sans-Serif" font-size="10.00">close_var_refs</text>
</a>
</g>
</g>
<!-- Node3&#45;&gt;Node248 -->
<g id="edge16" class="edge">
<title>Node3&#45;&gt;Node248</title>
<path fill="none" stroke="midnightblue" d="M303.97,-691.64C309.97,-750.16 343.65,-1053.01 405,-1118.84 407.79,-1121.83 411.04,-1124.36 414.57,-1126.49"/>
<polygon fill="midnightblue" stroke="midnightblue" points="413.26,-1129.75 423.78,-1131.02 416.35,-1123.47 413.26,-1129.75"/>
</g>
<!-- Node54 -->
<g id="node16" class="node">
<title>Node54</title>
<g id="a_node16"><a xlink:href="quickjs_8c.html#a9e7b4bccf927d811b0f99b40b08c0472" target="_top" xlink:title=" ">
<polygon fill="none" stroke="red" points="429.5,-1090.34 429.5,-1109.34 505.5,-1109.34 505.5,-1090.34 429.5,-1090.34"/>
<text text-anchor="middle" x="467.5" y="-1097.34" font-family="Helvetica,sans-Serif" font-size="10.00">free_var_ref</text>
</a>
</g>
</g>
<!-- Node3&#45;&gt;Node54 -->
<g id="edge18" class="edge">
<title>Node3&#45;&gt;Node54</title>
<path fill="none" stroke="midnightblue" d="M302.52,-691.56C300.67,-739.83 298.75,-956.16 405,-1075.84 409.24,-1080.62 414.56,-1084.46 420.28,-1087.53"/>
<polygon fill="midnightblue" stroke="midnightblue" points="418.95,-1090.77 429.5,-1091.77 421.87,-1084.41 418.95,-1090.77"/>
</g>
<!-- Node250 -->
<g id="node17" class="node">
<title>Node250</title>
<g id="a_node17"><a xlink:href="cutils_8h.html#a7c82a3ee025fee89db5b11ff5b7691b8" target="_top" xlink:title=" ">
<polygon fill="none" stroke="black" points="441,-1014.34 441,-1033.34 494,-1033.34 494,-1014.34 441,-1014.34"/>
<text text-anchor="middle" x="467.5" y="-1021.34" font-family="Helvetica,sans-Serif" font-size="10.00">get_i16</text>
</a>
</g>
</g>
<!-- Node3&#45;&gt;Node250 -->
<g id="edge19" class="edge">
<title>Node3&#45;&gt;Node250</title>
<path fill="none" stroke="midnightblue" d="M303,-691.36C303.55,-734.33 311.57,-911.98 405,-1004.84 412.06,-1011.85 421.65,-1016.29 431.16,-1019.09"/>
<polygon fill="midnightblue" stroke="midnightblue" points="430.38,-1022.5 440.92,-1021.45 432.03,-1015.7 430.38,-1022.5"/>
</g>
<!-- Node251 -->
<g id="node18" class="node">
<title>Node251</title>
<g id="a_node18"><a xlink:href="cutils_8h.html#a288ee4e688944e23500af2ecc813c306" target="_top" xlink:title=" ">
<polygon fill="none" stroke="black" points="444,-976.34 444,-995.34 491,-995.34 491,-976.34 444,-976.34"/>
<text text-anchor="middle" x="467.5" y="-983.34" font-family="Helvetica,sans-Serif" font-size="10.00">get_i8</text>
</a>
</g>
</g>
<!-- Node3&#45;&gt;Node251 -->
<g id="edge20" class="edge">
<title>Node3&#45;&gt;Node251</title>
<path fill="none" stroke="midnightblue" d="M303.72,-691.52C307.13,-730.81 325.08,-880.08 405,-961.84 412.83,-969.85 423.65,-975.24 434.03,-978.85"/>
<polygon fill="midnightblue" stroke="midnightblue" points="433.16,-982.24 443.74,-981.78 435.18,-975.54 433.16,-982.24"/>
</g>
<!-- Node252 -->
<g id="node19" class="node">
<title>Node252</title>
<g id="a_node19"><a xlink:href="cutils_8h.html#ad587834d17e95461893d59661e5e9676" target="_top" xlink:title=" ">
<polygon fill="none" stroke="black" points="439.5,-900.34 439.5,-919.34 495.5,-919.34 495.5,-900.34 439.5,-900.34"/>
<text text-anchor="middle" x="467.5" y="-907.34" font-family="Helvetica,sans-Serif" font-size="10.00">get_u16</text>
</a>
</g>
</g>
<!-- Node3&#45;&gt;Node252 -->
<g id="edge21" class="edge">
<title>Node3&#45;&gt;Node252</title>
<path fill="none" stroke="midnightblue" d="M304.84,-691.4C311.68,-724.32 338.76,-834.11 405,-890.84 411.97,-896.81 420.79,-900.9 429.57,-903.71"/>
<polygon fill="midnightblue" stroke="midnightblue" points="428.78,-907.12 439.35,-906.36 430.61,-900.37 428.78,-907.12"/>
</g>
<!-- Node50 -->
<g id="node20" class="node">
<title>Node50</title>
<g id="a_node20"><a xlink:href="cutils_8h.html#a941262a5f72fda2ec43ae7911e97a0dc" target="_top" xlink:title=" ">
<polygon fill="none" stroke="black" points="439.5,-862.34 439.5,-881.34 495.5,-881.34 495.5,-862.34 439.5,-862.34"/>
<text text-anchor="middle" x="467.5" y="-869.34" font-family="Helvetica,sans-Serif" font-size="10.00">get_u32</text>
</a>
</g>
</g>
<!-- Node3&#45;&gt;Node50 -->
<g id="edge22" class="edge">
<title>Node3&#45;&gt;Node50</title>
<path fill="none" stroke="midnightblue" d="M306.03,-691.65C315.55,-720.82 347.66,-807.76 405,-852.84 412.15,-858.46 420.97,-862.43 429.67,-865.22"/>
<polygon fill="midnightblue" stroke="midnightblue" points="428.78,-868.61 439.35,-867.91 430.65,-861.86 428.78,-868.61"/>
</g>
<!-- Node3&#45;&gt;Node68 -->
<g id="edge27" class="edge">
<title>Node3&#45;&gt;Node68</title>
<path fill="none" stroke="midnightblue" d="M302.63,-672.16C301.41,-625.99 302.42,-425.94 405,-320.84 407.61,-318.16 410.59,-315.86 413.8,-313.88"/>
<polygon fill="midnightblue" stroke="midnightblue" points="415.39,-317 422.73,-309.36 412.22,-310.76 415.39,-317"/>
</g>
<!-- Node69 -->
<g id="node22" class="node">
<title>Node69</title>
<g id="a_node22"><a xlink:href="quickjs_8c.html#a5762c57ae0c9937e986040c01222833a" target="_top" xlink:title=" ">
<polygon fill="none" stroke="red" points="566,-710.34 566,-729.34 693,-729.34 693,-710.34 566,-710.34"/>
<text text-anchor="middle" x="629.5" y="-717.34" font-family="Helvetica,sans-Serif" font-size="10.00">JS_GetPropertyInternal</text>
</a>
</g>
</g>
<!-- Node3&#45;&gt;Node69 -->
<g id="edge32" class="edge">
<title>Node3&#45;&gt;Node69</title>
<path fill="none" stroke="midnightblue" d="M345.53,-690.74C363.77,-694.3 385.36,-698.18 405,-700.84 455.12,-707.62 511.92,-712.41 555.71,-715.48"/>
<polygon fill="midnightblue" stroke="midnightblue" points="555.48,-718.98 565.7,-716.17 555.96,-711.99 555.48,-718.98"/>
</g>
<!-- Node3&#45;&gt;Node125 -->
<g id="edge34" class="edge">
<title>Node3&#45;&gt;Node125</title>
<path fill="none" stroke="midnightblue" d="M304.19,-672.17C311.15,-617 348.31,-342.4 405,-282.84 411.21,-276.31 419.62,-272.01 428.21,-269.18"/>
<polygon fill="midnightblue" stroke="midnightblue" points="429.15,-272.55 437.89,-266.57 427.32,-265.79 429.15,-272.55"/>
</g>
<!-- Node3&#45;&gt;Node287 -->
<g id="edge35" class="edge">
<title>Node3&#45;&gt;Node287</title>
<path fill="none" stroke="midnightblue" d="M305.17,-672.23C312.91,-640.11 342.11,-535.22 405,-477.84 410.06,-473.22 416.12,-469.45 422.42,-466.38"/>
<polygon fill="midnightblue" stroke="midnightblue" points="423.94,-469.54 431.75,-462.37 421.18,-463.1 423.94,-469.54"/>
</g>
<!-- Node3&#45;&gt;Node126 -->
<g id="edge36" class="edge">
<title>Node3&#45;&gt;Node126</title>
<path fill="none" stroke="midnightblue" d="M305.38,-672.14C314.2,-637.5 347.53,-517.5 405,-434.84 416.04,-418.95 432.19,-404.2 445.17,-393.68"/>
<polygon fill="midnightblue" stroke="midnightblue" points="447.45,-396.34 453.16,-387.42 443.13,-390.84 447.45,-396.34"/>
</g>
<!-- Node299 -->
<g id="node26" class="node">
<title>Node299</title>
<g id="a_node26"><a xlink:href="quickjs_8c.html#a246e337d6566552736209730827c0871" target="_top" xlink:title=" ">
<polygon fill="none" stroke="red" points="417,-216.34 417,-235.34 518,-235.34 518,-216.34 417,-216.34"/>
<text text-anchor="middle" x="467.5" y="-223.34" font-family="Helvetica,sans-Serif" font-size="10.00">js_poll_interrupts</text>
</a>
</g>
</g>
<!-- Node3&#45;&gt;Node299 -->
<g id="edge37" class="edge">
<title>Node3&#45;&gt;Node299</title>
<path fill="none" stroke="midnightblue" d="M303.97,-672.03C309.97,-613.51 343.65,-310.66 405,-244.84 406.23,-243.52 407.55,-242.29 408.95,-241.14"/>
<polygon fill="midnightblue" stroke="midnightblue" points="411.17,-243.87 417.62,-235.47 407.33,-238.01 411.17,-243.87"/>
</g>
<!-- Node3&#45;&gt;Node223 -->
<g id="edge38" class="edge">
<title>Node3&#45;&gt;Node223</title>
<path fill="none" stroke="midnightblue" d="M303,-672.31C303.55,-629.35 311.57,-451.69 405,-358.84 408.25,-355.6 412.04,-352.92 416.12,-350.69"/>
<polygon fill="midnightblue" stroke="midnightblue" points="417.71,-353.81 425.38,-346.5 414.83,-347.43 417.71,-353.81"/>
</g>
<!-- Node65&#45;&gt;Node4 -->
<g id="edge8" class="edge">
<title>Node65&#45;&gt;Node4</title>
<path fill="none" stroke="midnightblue" d="M481.65,-767.55C495.14,-778.04 516.07,-795.81 530,-814.84 576.13,-877.86 609.07,-965.91 622.2,-1004.46"/>
<polygon fill="midnightblue" stroke="midnightblue" points="618.88,-1005.59 625.37,-1013.96 625.52,-1003.37 618.88,-1005.59"/>
</g>
<!-- Node65&#45;&gt;Node66 -->
<g id="edge9" class="edge">
<title>Node65&#45;&gt;Node66</title>
<path fill="none" stroke="midnightblue" d="M479.98,-748.33C492.8,-737.46 513.88,-718.84 530,-700.84 564.32,-662.52 598.81,-612.76 616.44,-586.29"/>
<polygon fill="midnightblue" stroke="midnightblue" points="619.56,-587.93 622.15,-577.66 613.72,-584.07 619.56,-587.93"/>
</g>
<!-- Node65&#45;&gt;Node36 -->
<g id="edge11" class="edge">
<title>Node65&#45;&gt;Node36</title>
<path fill="none" stroke="midnightblue" d="M508.51,-757.84C563.16,-757.84 661,-757.84 719.51,-757.84"/>
<polygon fill="midnightblue" stroke="midnightblue" points="719.61,-761.34 729.61,-757.84 719.61,-754.34 719.61,-761.34"/>
</g>
<!-- Node65&#45;&gt;Node75 -->
<g id="edge12" class="edge">
<title>Node65&#45;&gt;Node75</title>
<path fill="none" stroke="midnightblue" d="M483.36,-748.15C497.59,-738.06 518.54,-720.95 530,-700.84 535.6,-691.01 606.48,-350.87 624.4,-264.58"/>
<polygon fill="midnightblue" stroke="midnightblue" points="627.88,-265.05 626.49,-254.55 621.03,-263.63 627.88,-265.05"/>
</g>
<!-- Node66&#45;&gt;Node57 -->
<g id="edge10" class="edge">
<title>Node66&#45;&gt;Node57</title>
<path fill="none" stroke="midnightblue" d="M667.49,-558.34C676.5,-554.81 685.65,-550.09 693,-543.84 728.09,-513.97 750.56,-463.19 760.88,-435.42"/>
<polygon fill="midnightblue" stroke="midnightblue" points="764.3,-436.27 764.35,-425.67 757.7,-433.92 764.3,-436.27"/>
</g>
<!-- Node247&#45;&gt;Node36 -->
<g id="edge15" class="edge">
<title>Node247&#45;&gt;Node36</title>
<path fill="none" stroke="midnightblue" d="M665.07,-786.25C682.68,-781.37 704.28,-775.37 723.1,-770.15"/>
<polygon fill="midnightblue" stroke="midnightblue" points="724.24,-773.47 732.94,-767.42 722.37,-766.72 724.24,-773.47"/>
</g>
<!-- Node68&#45;&gt;Node69 -->
<g id="edge28" class="edge">
<title>Node68&#45;&gt;Node69</title>
<path fill="none" stroke="midnightblue" d="M512.28,-308.53C519.03,-311.34 525.3,-315.29 530,-320.84 568.56,-366.35 549.12,-529.63 566,-586.84 578.68,-629.83 603.39,-676.45 617.65,-701.47"/>
<polygon fill="midnightblue" stroke="midnightblue" points="614.68,-703.33 622.72,-710.24 620.74,-699.83 614.68,-703.33"/>
</g>
<!-- Node69&#45;&gt;Node2 -->
<g id="edge29" class="edge">
<title>Node69&#45;&gt;Node2</title>
<path fill="none" stroke="midnightblue" d="M612.59,-729.37C597.74,-739.23 576.36,-756.08 566,-776.84 528.12,-852.73 592.74,-1099.76 530,-1156.84 488.91,-1194.22 452.33,-1185.93 405,-1156.84 231.97,-1050.5 178.79,-776.79 167.2,-701.35"/>
<polygon fill="midnightblue" stroke="midnightblue" points="170.64,-700.73 165.73,-691.34 163.72,-701.75 170.64,-700.73"/>
</g>
<!-- Node69&#45;&gt;Node57 -->
<g id="edge31" class="edge">
<title>Node69&#45;&gt;Node57</title>
<path fill="none" stroke="midnightblue" d="M635.14,-710.2C645.65,-688.35 671.96,-633.32 693,-586.84 717.84,-531.97 745.91,-466.58 759.4,-434.91"/>
<polygon fill="midnightblue" stroke="midnightblue" points="762.7,-436.09 763.39,-425.52 756.26,-433.35 762.7,-436.09"/>
</g>
<!-- Node69&#45;&gt;Node36 -->
<g id="edge30" class="edge">
<title>Node69&#45;&gt;Node36</title>
<path fill="none" stroke="midnightblue" d="M665.07,-729.43C682.68,-734.31 704.28,-740.3 723.1,-745.52"/>
<polygon fill="midnightblue" stroke="midnightblue" points="722.37,-748.95 732.94,-748.25 724.24,-742.21 722.37,-748.95"/>
</g>
<!-- Node223&#45;&gt;Node57 -->
<g id="edge39" class="edge">
<title>Node223&#45;&gt;Node57</title>
<path fill="none" stroke="midnightblue" d="M506.07,-349.39C560.33,-363.18 660.64,-388.68 719.98,-403.76"/>
<polygon fill="midnightblue" stroke="midnightblue" points="719.3,-407.2 729.85,-406.27 721.02,-400.41 719.3,-407.2"/>
</g>
<!-- Node435&#45;&gt;Node1 -->
<g id="edge55" class="edge">
<title>Node435&#45;&gt;Node1</title>
<path fill="none" stroke="midnightblue" d="M274.82,-197.35C240.6,-204.92 179.02,-214.74 128,-229.84 117.74,-232.87 106.99,-236.74 96.79,-240.56"/>
<polygon fill="midnightblue" stroke="midnightblue" points="95.34,-237.37 87.23,-244.18 97.82,-243.91 95.34,-237.37"/>
</g>
<!-- Node435&#45;&gt;Node57 -->
<g id="edge49" class="edge">
<title>Node435&#45;&gt;Node57</title>
<path fill="none" stroke="midnightblue" d="M312.33,-178.12C329.11,-161.34 366.22,-127.28 405,-111.84 524.18,-64.39 592.62,-12.97 693,-92.84 741.33,-131.28 760.98,-332.28 766.08,-396.26"/>
<polygon fill="midnightblue" stroke="midnightblue" points="762.59,-396.53 766.84,-406.23 769.57,-396 762.59,-396.53"/>
</g>
<!-- Node435&#45;&gt;Node36 -->
<g id="edge48" class="edge">
<title>Node435&#45;&gt;Node36</title>
<path fill="none" stroke="midnightblue" d="M336.58,-178.29C413.19,-158.81 601.34,-124.37 693,-225.84 701.82,-235.61 753.05,-642.1 765.01,-737.81"/>
<polygon fill="midnightblue" stroke="midnightblue" points="761.55,-738.4 766.26,-747.89 768.5,-737.53 761.55,-738.4"/>
</g>
<!-- Node435&#45;&gt;Node75 -->
<g id="edge53" class="edge">
<title>Node435&#45;&gt;Node75</title>
<path fill="none" stroke="midnightblue" d="M369.32,-188.44C415,-190.05 476.81,-194.62 530,-206.84 554.15,-212.39 580.25,-222.67 599.52,-231.14"/>
<polygon fill="midnightblue" stroke="midnightblue" points="598.1,-234.34 608.66,-235.25 600.97,-227.95 598.1,-234.34"/>
</g>
<!-- Node435&#45;&gt;Node68 -->
<g id="edge50" class="edge">
<title>Node435&#45;&gt;Node68</title>
<path fill="none" stroke="midnightblue" d="M310.66,-197.42C326.36,-216.45 364.16,-259.2 405,-282.84 408.7,-284.98 412.67,-286.9 416.74,-288.63"/>
<polygon fill="midnightblue" stroke="midnightblue" points="415.76,-292.01 426.35,-292.31 418.26,-285.47 415.76,-292.01"/>
</g>
<!-- Node435&#45;&gt;Node125 -->
<g id="edge56" class="edge">
<title>Node435&#45;&gt;Node125</title>
<path fill="none" stroke="midnightblue" d="M323.86,-197.45C337.02,-203.71 354.26,-212.29 369,-220.84 385.63,-230.49 387.63,-236.58 405,-244.84 412.31,-248.31 420.4,-251.34 428.26,-253.9"/>
<polygon fill="midnightblue" stroke="midnightblue" points="427.41,-257.3 437.99,-256.89 429.46,-250.61 427.41,-257.3"/>
</g>
<!-- Node435&#45;&gt;Node299 -->
<g id="edge57" class="edge">
<title>Node435&#45;&gt;Node299</title>
<path fill="none" stroke="midnightblue" d="M344.26,-197.43C365.93,-202.46 392.68,-208.68 415.63,-214.01"/>
<polygon fill="midnightblue" stroke="midnightblue" points="415.01,-217.46 425.54,-216.32 416.59,-210.64 415.01,-217.46"/>
</g>
<!-- Node435&#45;&gt;Node124 -->
<g id="edge54" class="edge">
<title>Node435&#45;&gt;Node124</title>
<path fill="none" stroke="midnightblue" d="M310.47,-178.19C332.97,-149.15 398.94,-64.3 405,-59.84 410.52,-55.77 416.81,-52.3 423.22,-49.36"/>
<polygon fill="midnightblue" stroke="midnightblue" points="424.74,-52.52 432.62,-45.43 422.04,-46.06 424.74,-52.52"/>
</g>
<!-- Node394 -->
<g id="node30" class="node">
<title>Node394</title>
<g id="a_node30"><a xlink:href="quickjs_8c.html#a7f82fd53b039b4e12f1addfa15d750ae" target="_top" xlink:title=" ">
<polygon fill="none" stroke="red" points="571.5,-102.34 571.5,-121.34 687.5,-121.34 687.5,-102.34 571.5,-102.34"/>
<text text-anchor="middle" x="629.5" y="-109.34" font-family="Helvetica,sans-Serif" font-size="10.00">JS_GetPrototypeFree</text>
</a>
</g>
</g>
<!-- Node435&#45;&gt;Node394 -->
<g id="edge51" class="edge">
<title>Node435&#45;&gt;Node394</title>
<path fill="none" stroke="midnightblue" d="M317.49,-178.29C336.64,-166.18 371.85,-145.7 405,-135.84 456.01,-120.66 516.1,-114.84 561.12,-112.72"/>
<polygon fill="midnightblue" stroke="midnightblue" points="561.51,-116.2 571.35,-112.29 561.21,-109.21 561.51,-116.2"/>
</g>
<!-- Node394&#45;&gt;Node57 -->
<g id="edge52" class="edge">
<title>Node394&#45;&gt;Node57</title>
<path fill="none" stroke="midnightblue" d="M671.96,-121.42C679.81,-124.86 687.33,-129.53 693,-135.84 761.94,-212.55 768.24,-345.98 768.01,-396.08"/>
<polygon fill="midnightblue" stroke="midnightblue" points="764.51,-396.15 767.87,-406.2 771.51,-396.25 764.51,-396.15"/>
</g>
</g>
</svg>
        <g id="navigator" transform="translate(0 0)" fill="#404254">
                <rect fill="#f2f5e9" fill-opacity="0.5" stroke="#606060" stroke-width=".5" x="0" y="0" width="60" height="60"/>
                <use id="zoomplus" xlink:href="#zoomPlus" x="17" y="9" onmousedown="handleZoom(evt,'in')"/>
                <use id="zoomminus" xlink:href="#zoomMin" x="42" y="9" onmousedown="handleZoom(evt,'out')"/>
                <use id="reset" xlink:href="#resetDef" x="30" y="36" onmousedown="handleReset()"/>
                <g id="arrowUp" xlink:href="#dirArrow" transform="translate(30 24)" onmousedown="handlePan(0,-1)">
                  <use xlink:href="#rim" fill="#404040">
                        <set attributeName="fill" to="#808080" begin="arrowUp.mouseover" end="arrowUp.mouseout"/>
                  </use>
                  <path fill="none" stroke="white" stroke-width="1.5" d="M0,-3.0v7 M-2.5,-0.5L0,-3.0L2.5,-0.5"/>
                </g>
                <g id="arrowRight" xlink:href="#dirArrow" transform="rotate(90) translate(36 -43)" onmousedown="handlePan(1,0)">
                  <use xlink:href="#rim" fill="#404040">
                        <set attributeName="fill" to="#808080" begin="arrowRight.mouseover" end="arrowRight.mouseout"/>
                  </use>
                  <path fill="none" stroke="white" stroke-width="1.5" d="M0,-3.0v7 M-2.5,-0.5L0,-3.0L2.5,-0.5"/>
                </g>
                <g id="arrowDown" xlink:href="#dirArrow" transform="rotate(180) translate(-30 -48)" onmousedown="handlePan(0,1)">
                  <use xlink:href="#rim" fill="#404040">
                        <set attributeName="fill" to="#808080" begin="arrowDown.mouseover" end="arrowDown.mouseout"/>
                  </use>
                  <path fill="none" stroke="white" stroke-width="1.5" d="M0,-3.0v7 M-2.5,-0.5L0,-3.0L2.5,-0.5"/>
                </g>
                <g id="arrowLeft" xlink:href="#dirArrow" transform="rotate(270) translate(-36 17)" onmousedown="handlePan(-1,0)">
                  <use xlink:href="#rim" fill="#404040">
                        <set attributeName="fill" to="#808080" begin="arrowLeft.mouseover" end="arrowLeft.mouseout"/>
                  </use>
                  <path fill="none" stroke="white" stroke-width="1.5" d="M0,-3.0v7 M-2.5,-0.5L0,-3.0L2.5,-0.5"/>
                </g>
        </g>
        <svg viewBox="0 0 15 15" width="100%" height="30px" preserveAspectRatio="xMaxYMin meet">
         <g id="arrow_out" transform="scale(0.3 0.3)">
          <a xlink:href="quickjs_8c_af4cd70eee97bbcab2d0f2e46cf53ccd7_cgraph_org.svg" target="_base">
           <rect id="button" ry="5" rx="5" y="6" x="6" height="38" width="38"
                fill="#f2f5e9" fill-opacity="0.5" stroke="#606060" stroke-width="1.0"/>
           <path id="arrow"
             d="M 11.500037,31.436501 C 11.940474,20.09759 22.043105,11.32322 32.158766,21.979434 L 37.068811,17.246167 C 37.068811,17.246167 37.088388,32 37.088388,32 L 22.160133,31.978069 C 22.160133,31.978069 26.997745,27.140456 26.997745,27.140456 C 18.528582,18.264221 13.291696,25.230495 11.500037,31.436501 z"
             style="fill:#404040;"/>
          </a>
         </g>
        </svg>
</svg>
