<?xml version="1.0" encoding="UTF-8" standalone="no"?>
<!DOCTYPE svg PUBLIC "-//W3C//DTD SVG 1.1//EN"
 "http://www.w3.org/Graphics/SVG/1.1/DTD/svg11.dtd">
<!-- Generated by graphviz version 2.43.0 (0)
 -->
<!-- Title: JS_SetPropertyValue Pages: 1 -->
<svg width="873pt" height="429pt"
 viewBox="0.00 0.00 873.00 429.45" xmlns="http://www.w3.org/2000/svg" xmlns:xlink="http://www.w3.org/1999/xlink">
<g id="graph0" class="graph" transform="scale(1 1) rotate(0) translate(4 425.45)">
<title>JS_SetPropertyValue</title>
<!-- Node1 -->
<g id="node1" class="node">
<title>Node1</title>
<g id="a_node1"><a xlink:title=" ">
<polygon fill="#bfbfbf" stroke="black" points="0,-249.95 0,-268.95 115,-268.95 115,-249.95 0,-249.95"/>
<text text-anchor="middle" x="57.5" y="-256.95" font-family="Helvetica,sans-Serif" font-size="10.00">JS_SetPropertyValue</text>
</a>
</g>
</g>
<!-- Node2 -->
<g id="node2" class="node">
<title>Node2</title>
<g id="a_node2"><a xlink:href="quickjs_8c.html#a014abd680db53ab89cb133345742a59c" target="_top" xlink:title=" ">
<polygon fill="none" stroke="black" points="339.5,-401.95 339.5,-420.95 419.5,-420.95 419.5,-401.95 339.5,-401.95"/>
<text text-anchor="middle" x="379.5" y="-408.95" font-family="Helvetica,sans-Serif" font-size="10.00">__attribute__</text>
</a>
</g>
</g>
<!-- Node1&#45;&gt;Node2 -->
<g id="edge1" class="edge">
<title>Node1&#45;&gt;Node2</title>
<path fill="none" stroke="midnightblue" d="M62.11,-268.95C72.01,-293.51 102.13,-359.14 151,-387.45 205.75,-419.16 280.46,-420.7 329.08,-417.34"/>
<polygon fill="midnightblue" stroke="midnightblue" points="329.65,-420.8 339.35,-416.53 329.1,-413.82 329.65,-420.8"/>
</g>
<!-- Node210 -->
<g id="node8" class="node">
<title>Node210</title>
<g id="a_node8"><a xlink:href="quickjs_8c.html#adbffd820afae76d09c641b5b911e3600" target="_top" xlink:title=" ">
<polygon fill="none" stroke="red" points="312,-325.95 312,-344.95 447,-344.95 447,-325.95 312,-325.95"/>
<text text-anchor="middle" x="379.5" y="-332.95" font-family="Helvetica,sans-Serif" font-size="10.00">add_fast_array_element</text>
</a>
</g>
</g>
<!-- Node1&#45;&gt;Node210 -->
<g id="edge7" class="edge">
<title>Node1&#45;&gt;Node210</title>
<path fill="none" stroke="midnightblue" d="M69.87,-268.95C86.48,-282.23 118.93,-305.9 151,-316.45 199.38,-332.36 256.5,-337.09 301.41,-337.85"/>
<polygon fill="midnightblue" stroke="midnightblue" points="301.63,-341.35 311.67,-337.95 301.71,-334.35 301.63,-341.35"/>
</g>
<!-- Node29 -->
<g id="node9" class="node">
<title>Node29</title>
<g id="a_node9"><a xlink:href="quickjs_8h.html#afaa20c47565bc704c6c85f3d77254e7d" target="_top" xlink:title=" ">
<polygon fill="none" stroke="red" points="487.5,-306.95 487.5,-325.95 566.5,-325.95 566.5,-306.95 487.5,-306.95"/>
<text text-anchor="middle" x="527" y="-313.95" font-family="Helvetica,sans-Serif" font-size="10.00">JS_FreeValue</text>
</a>
</g>
</g>
<!-- Node1&#45;&gt;Node29 -->
<g id="edge10" class="edge">
<title>Node1&#45;&gt;Node29</title>
<path fill="none" stroke="midnightblue" d="M65.88,-269.09C80.12,-286.85 113.3,-324.38 151,-340.45 272.15,-392.1 318.59,-383.73 447,-354.45 466.78,-349.94 487.39,-339.82 502.59,-331.16"/>
<polygon fill="midnightblue" stroke="midnightblue" points="504.47,-334.11 511.31,-326.01 500.92,-328.08 504.47,-334.11"/>
</g>
<!-- Node51 -->
<g id="node10" class="node">
<title>Node51</title>
<g id="a_node10"><a xlink:href="quickjs_8c.html#ab7fc45a99935a1c0ba50b0216d9401a9" target="_top" xlink:title=" ">
<polygon fill="none" stroke="red" points="174.5,-287.95 174.5,-306.95 252.5,-306.95 252.5,-287.95 174.5,-287.95"/>
<text text-anchor="middle" x="213.5" y="-294.95" font-family="Helvetica,sans-Serif" font-size="10.00">JS_FreeAtom</text>
</a>
</g>
</g>
<!-- Node1&#45;&gt;Node51 -->
<g id="edge9" class="edge">
<title>Node1&#45;&gt;Node51</title>
<path fill="none" stroke="midnightblue" d="M97.36,-269.04C117.74,-274.07 142.9,-280.27 164.49,-285.6"/>
<polygon fill="midnightblue" stroke="midnightblue" points="163.9,-289.06 174.45,-288.06 165.58,-282.27 163.9,-289.06"/>
</g>
<!-- Node316 -->
<g id="node11" class="node">
<title>Node316</title>
<g id="a_node11"><a xlink:href="quickjs_8c.html#ad7f03358a8088ca920ab308225c6b2e6" target="_top" xlink:title=" ">
<polygon fill="none" stroke="red" points="151,-249.95 151,-268.95 276,-268.95 276,-249.95 151,-249.95"/>
<text text-anchor="middle" x="213.5" y="-256.95" font-family="Helvetica,sans-Serif" font-size="10.00">JS_SetPropertyInternal</text>
</a>
</g>
</g>
<!-- Node1&#45;&gt;Node316 -->
<g id="edge11" class="edge">
<title>Node1&#45;&gt;Node316</title>
<path fill="none" stroke="midnightblue" d="M115.41,-252.91C123.63,-252.73 132.18,-252.67 140.65,-252.71"/>
<polygon fill="midnightblue" stroke="midnightblue" points="140.88,-256.21 150.91,-252.82 140.95,-249.21 140.88,-256.21"/>
</g>
<!-- Node226 -->
<g id="node13" class="node">
<title>Node226</title>
<g id="a_node13"><a xlink:href="quickjs_8c.html#a0ec52a675282f321a6f42aa1298a53fe" target="_top" xlink:title=" ">
<polygon fill="none" stroke="black" points="347.5,-211.95 347.5,-230.95 411.5,-230.95 411.5,-211.95 347.5,-211.95"/>
<text text-anchor="middle" x="379.5" y="-218.95" font-family="Helvetica,sans-Serif" font-size="10.00">set_value</text>
</a>
</g>
</g>
<!-- Node1&#45;&gt;Node226 -->
<g id="edge31" class="edge">
<title>Node1&#45;&gt;Node226</title>
<path fill="none" stroke="midnightblue" d="M99.76,-249.88C115.69,-246.47 134.12,-242.88 151,-240.45 215.78,-231.12 291.65,-225.92 337.35,-223.41"/>
<polygon fill="midnightblue" stroke="midnightblue" points="337.66,-226.89 347.46,-222.87 337.29,-219.9 337.66,-226.89"/>
</g>
<!-- Node193 -->
<g id="node14" class="node">
<title>Node193</title>
<g id="a_node14"><a xlink:href="quickjs_8c.html#ab1b614ef35f1cea05da0ad4927c53118" target="_top" xlink:title=" ">
<polygon fill="none" stroke="red" points="164,-173.95 164,-192.95 263,-192.95 263,-173.95 164,-173.95"/>
<text text-anchor="middle" x="213.5" y="-180.95" font-family="Helvetica,sans-Serif" font-size="10.00">JS_ToFloat64Free</text>
</a>
</g>
</g>
<!-- Node1&#45;&gt;Node193 -->
<g id="edge20" class="edge">
<title>Node1&#45;&gt;Node193</title>
<path fill="none" stroke="midnightblue" d="M73.86,-249.93C91.93,-238.95 123.03,-220.69 151,-207.45 158.97,-203.68 167.7,-200.01 176.01,-196.71"/>
<polygon fill="midnightblue" stroke="midnightblue" points="177.45,-199.91 185.52,-193.04 174.93,-193.38 177.45,-199.91"/>
</g>
<!-- Node175 -->
<g id="node15" class="node">
<title>Node175</title>
<g id="a_node15"><a xlink:href="quickjs_8c.html#a643088ab23784b7f3c6ff94c37228256" target="_top" xlink:title=" ">
<polygon fill="none" stroke="black" points="170,-135.95 170,-154.95 257,-154.95 257,-135.95 170,-135.95"/>
<text text-anchor="middle" x="213.5" y="-142.95" font-family="Helvetica,sans-Serif" font-size="10.00">JS_ToInt32Free</text>
</a>
</g>
</g>
<!-- Node1&#45;&gt;Node175 -->
<g id="edge21" class="edge">
<title>Node1&#45;&gt;Node175</title>
<path fill="none" stroke="midnightblue" d="M65.23,-249.83C79.08,-230.74 112.71,-187.88 151,-164.45 154.44,-162.34 158.13,-160.45 161.94,-158.76"/>
<polygon fill="midnightblue" stroke="midnightblue" points="163.55,-161.89 171.55,-154.95 160.97,-155.38 163.55,-161.89"/>
</g>
<!-- Node435 -->
<g id="node16" class="node">
<title>Node435</title>
<g id="a_node16"><a xlink:href="quickjs_8c.html#a4623c0fbf1417b8c089ba0f5037c5362" target="_top" xlink:title=" ">
<polygon fill="none" stroke="black" points="153.5,-97.95 153.5,-116.95 273.5,-116.95 273.5,-97.95 153.5,-97.95"/>
<text text-anchor="middle" x="213.5" y="-104.95" font-family="Helvetica,sans-Serif" font-size="10.00">JS_ToUint8ClampFree</text>
</a>
</g>
</g>
<!-- Node1&#45;&gt;Node435 -->
<g id="edge24" class="edge">
<title>Node1&#45;&gt;Node435</title>
<path fill="none" stroke="midnightblue" d="M62.51,-249.77C73.14,-225.29 104.46,-160.48 151,-126.45 153.66,-124.5 156.53,-122.75 159.51,-121.18"/>
<polygon fill="midnightblue" stroke="midnightblue" points="161.1,-124.3 168.75,-116.97 158.2,-117.93 161.1,-124.3"/>
</g>
<!-- Node151 -->
<g id="node19" class="node">
<title>Node151</title>
<g id="a_node19"><a xlink:href="quickjs_8c.html#a859d5c989a2aaecef1653b3ac279e108" target="_top" xlink:title=" ">
<polygon fill="none" stroke="red" points="627,-21.95 627,-40.95 722,-40.95 722,-21.95 627,-21.95"/>
<text text-anchor="middle" x="674.5" y="-28.95" font-family="Helvetica,sans-Serif" font-size="10.00">JS_ValueToAtom</text>
</a>
</g>
</g>
<!-- Node1&#45;&gt;Node151 -->
<g id="edge29" class="edge">
<title>Node1&#45;&gt;Node151</title>
<path fill="none" stroke="midnightblue" d="M61.4,-249.59C70.26,-221.03 99.53,-137.18 151,-88.45 208.46,-34.05 234.79,-29.76 312,-12.45 419.84,11.73 550.1,-6.28 621.1,-19.92"/>
<polygon fill="midnightblue" stroke="midnightblue" points="620.64,-23.4 631.13,-21.89 622,-16.53 620.64,-23.4"/>
</g>
<!-- Node3 -->
<g id="node3" class="node">
<title>Node3</title>
<g id="a_node3"><a xlink:href="quickjs_8c.html#a686cf78f8b0361621ee2ba6182195c31" target="_top" xlink:title=" ">
<polygon fill="none" stroke="black" points="483,-363.95 483,-382.95 571,-382.95 571,-363.95 483,-363.95"/>
<text text-anchor="middle" x="527" y="-370.95" font-family="Helvetica,sans-Serif" font-size="10.00">is_strict_mode</text>
</a>
</g>
</g>
<!-- Node2&#45;&gt;Node3 -->
<g id="edge2" class="edge">
<title>Node2&#45;&gt;Node3</title>
<path fill="none" stroke="midnightblue" d="M417.22,-401.86C436.16,-396.91 459.46,-390.83 479.63,-385.56"/>
<polygon fill="midnightblue" stroke="midnightblue" points="480.76,-388.88 489.55,-382.97 478.99,-382.11 480.76,-388.88"/>
</g>
<!-- Node4 -->
<g id="node4" class="node">
<title>Node4</title>
<g id="a_node4"><a xlink:href="quickjs_8c.html#a1b110b017211230b8b6310e853cd2b54" target="_top" xlink:title=" ">
<polygon fill="none" stroke="black" points="485,-401.95 485,-420.95 569,-420.95 569,-401.95 485,-401.95"/>
<text text-anchor="middle" x="527" y="-408.95" font-family="Helvetica,sans-Serif" font-size="10.00">JS_ThrowError</text>
</a>
</g>
</g>
<!-- Node2&#45;&gt;Node4 -->
<g id="edge3" class="edge">
<title>Node2&#45;&gt;Node4</title>
<path fill="none" stroke="midnightblue" d="M419.87,-411.45C436.77,-411.45 456.73,-411.45 474.75,-411.45"/>
<polygon fill="midnightblue" stroke="midnightblue" points="474.82,-414.95 484.82,-411.45 474.82,-407.95 474.82,-414.95"/>
</g>
<!-- Node5 -->
<g id="node5" class="node">
<title>Node5</title>
<g id="a_node5"><a xlink:href="quickjs_8c.html#a7a7b507694cc1ecc4e3b5129fed3f5f6" target="_top" xlink:title=" ">
<polygon fill="none" stroke="red" points="607,-401.95 607,-420.95 742,-420.95 742,-401.95 607,-401.95"/>
<text text-anchor="middle" x="674.5" y="-408.95" font-family="Helvetica,sans-Serif" font-size="10.00">JS_GetFunctionBytecode</text>
</a>
</g>
</g>
<!-- Node4&#45;&gt;Node5 -->
<g id="edge4" class="edge">
<title>Node4&#45;&gt;Node5</title>
<path fill="none" stroke="midnightblue" d="M569.31,-411.45C577.88,-411.45 587.18,-411.45 596.57,-411.45"/>
<polygon fill="midnightblue" stroke="midnightblue" points="596.77,-414.95 606.77,-411.45 596.77,-407.95 596.77,-414.95"/>
</g>
<!-- Node7 -->
<g id="node6" class="node">
<title>Node7</title>
<g id="a_node6"><a xlink:href="quickjs_8c.html#aeafb37b03b5560171754f8c4505b0f6b" target="_top" xlink:title=" ">
<polygon fill="none" stroke="red" points="629.5,-325.95 629.5,-344.95 719.5,-344.95 719.5,-325.95 629.5,-325.95"/>
<text text-anchor="middle" x="674.5" y="-332.95" font-family="Helvetica,sans-Serif" font-size="10.00">JS_ThrowError2</text>
</a>
</g>
</g>
<!-- Node4&#45;&gt;Node7 -->
<g id="edge5" class="edge">
<title>Node4&#45;&gt;Node7</title>
<path fill="none" stroke="midnightblue" d="M550.94,-401.77C557.48,-398.89 564.57,-395.65 571,-392.45 598.03,-379 628.14,-362 648.69,-350.08"/>
<polygon fill="midnightblue" stroke="midnightblue" points="650.54,-353.06 657.41,-345 647.01,-347.01 650.54,-353.06"/>
</g>
<!-- Node65 -->
<g id="node7" class="node">
<title>Node65</title>
<g id="a_node7"><a xlink:href="quickjs_8h.html#ad80a83d73e9b7d872b88fbf2943aebe9" target="_top" xlink:title=" ">
<polygon fill="none" stroke="black" points="778,-135.95 778,-154.95 865,-154.95 865,-135.95 778,-135.95"/>
<text text-anchor="middle" x="821.5" y="-142.95" font-family="Helvetica,sans-Serif" font-size="10.00">JS_IsException</text>
</a>
</g>
</g>
<!-- Node7&#45;&gt;Node65 -->
<g id="edge6" class="edge">
<title>Node7&#45;&gt;Node65</title>
<path fill="none" stroke="midnightblue" d="M687.72,-325.78C701.82,-314.26 725.22,-293.98 742,-273.45 771.28,-237.63 797.68,-189.97 811.13,-164.09"/>
<polygon fill="midnightblue" stroke="midnightblue" points="814.34,-165.51 815.78,-155.02 808.11,-162.32 814.34,-165.51"/>
</g>
<!-- Node210&#45;&gt;Node29 -->
<g id="edge8" class="edge">
<title>Node210&#45;&gt;Node29</title>
<path fill="none" stroke="midnightblue" d="M447.29,-326.73C457.38,-325.41 467.63,-324.07 477.25,-322.81"/>
<polygon fill="midnightblue" stroke="midnightblue" points="477.94,-326.25 487.4,-321.49 477.03,-319.31 477.94,-326.25"/>
</g>
<!-- Node316&#45;&gt;Node1 -->
<g id="edge16" class="edge">
<title>Node316&#45;&gt;Node1</title>
<path fill="none" stroke="midnightblue" d="M150.91,-266.08C142.58,-266.21 134,-266.23 125.57,-266.15"/>
<polygon fill="midnightblue" stroke="midnightblue" points="125.46,-262.65 115.41,-265.99 125.35,-269.65 125.46,-262.65"/>
</g>
<!-- Node316&#45;&gt;Node2 -->
<g id="edge12" class="edge">
<title>Node316&#45;&gt;Node2</title>
<path fill="none" stroke="midnightblue" d="M260.74,-269.03C266.27,-271.48 271.52,-274.57 276,-278.45 304.25,-302.93 289.31,-324.75 312,-354.45 324.31,-370.56 341.83,-385.35 355.8,-395.83"/>
<polygon fill="midnightblue" stroke="midnightblue" points="353.82,-398.71 363.96,-401.76 357.94,-393.05 353.82,-398.71"/>
</g>
<!-- Node316&#45;&gt;Node65 -->
<g id="edge15" class="edge">
<title>Node316&#45;&gt;Node65</title>
<path fill="none" stroke="midnightblue" d="M276.04,-257.23C323.1,-254.86 389.48,-250.04 447,-240.45 570.35,-219.87 712.68,-178.7 780.52,-157.98"/>
<polygon fill="midnightblue" stroke="midnightblue" points="781.83,-161.23 790.37,-154.95 779.78,-154.54 781.83,-161.23"/>
</g>
<!-- Node316&#45;&gt;Node210 -->
<g id="edge13" class="edge">
<title>Node316&#45;&gt;Node210</title>
<path fill="none" stroke="midnightblue" d="M254.62,-269.02C261.98,-271.55 269.41,-274.67 276,-278.45 294.83,-289.25 293.43,-300.21 312,-311.45 318.87,-315.6 326.56,-319.2 334.22,-322.26"/>
<polygon fill="midnightblue" stroke="midnightblue" points="333.24,-325.63 343.83,-325.84 335.68,-319.07 333.24,-325.63"/>
</g>
<!-- Node316&#45;&gt;Node29 -->
<g id="edge14" class="edge">
<title>Node316&#45;&gt;Node29</title>
<path fill="none" stroke="midnightblue" d="M266.64,-268.99C325.46,-279.75 420.36,-297.12 477.6,-307.59"/>
<polygon fill="midnightblue" stroke="midnightblue" points="477.02,-311.04 487.48,-309.4 478.28,-304.16 477.02,-311.04"/>
</g>
<!-- Node132 -->
<g id="node12" class="node">
<title>Node132</title>
<g id="a_node12"><a xlink:href="quickjs_8c.html#ae738291483438efefca5c9fa4d269504" target="_top" xlink:title=" ">
<polygon fill="none" stroke="red" points="329,-173.95 329,-192.95 430,-192.95 430,-173.95 329,-173.95"/>
<text text-anchor="middle" x="379.5" y="-180.95" font-family="Helvetica,sans-Serif" font-size="10.00">JS_ToNumberFree</text>
</a>
</g>
</g>
<!-- Node316&#45;&gt;Node132 -->
<g id="edge17" class="edge">
<title>Node316&#45;&gt;Node132</title>
<path fill="none" stroke="midnightblue" d="M228.44,-249.77C246.86,-237.37 280.63,-215.85 312,-202.45 317.45,-200.12 323.26,-197.99 329.11,-196.05"/>
<polygon fill="midnightblue" stroke="midnightblue" points="330.4,-199.32 338.9,-193 328.31,-192.64 330.4,-199.32"/>
</g>
<!-- Node316&#45;&gt;Node226 -->
<g id="edge18" class="edge">
<title>Node316&#45;&gt;Node226</title>
<path fill="none" stroke="midnightblue" d="M255.88,-249.86C280.9,-244.06 312.67,-236.7 337.6,-230.92"/>
<polygon fill="midnightblue" stroke="midnightblue" points="338.53,-234.3 347.48,-228.63 336.95,-227.48 338.53,-234.3"/>
</g>
<!-- Node226&#45;&gt;Node29 -->
<g id="edge19" class="edge">
<title>Node226&#45;&gt;Node29</title>
<path fill="none" stroke="midnightblue" d="M395.25,-231.08C420.52,-247.58 472.3,-281.38 502.56,-301.14"/>
<polygon fill="midnightblue" stroke="midnightblue" points="500.92,-304.25 511.21,-306.79 504.75,-298.39 500.92,-304.25"/>
</g>
<!-- Node175&#45;&gt;Node65 -->
<g id="edge22" class="edge">
<title>Node175&#45;&gt;Node65</title>
<path fill="none" stroke="midnightblue" d="M257.11,-145.45C365.12,-145.45 649.4,-145.45 767.69,-145.45"/>
<polygon fill="midnightblue" stroke="midnightblue" points="767.93,-148.95 777.93,-145.45 767.93,-141.95 767.93,-148.95"/>
</g>
<!-- Node175&#45;&gt;Node132 -->
<g id="edge23" class="edge">
<title>Node175&#45;&gt;Node132</title>
<path fill="none" stroke="midnightblue" d="M255.88,-155.04C277.62,-160.07 304.46,-166.29 327.47,-171.63"/>
<polygon fill="midnightblue" stroke="midnightblue" points="326.88,-175.08 337.41,-173.93 328.46,-168.26 326.88,-175.08"/>
</g>
<!-- Node435&#45;&gt;Node65 -->
<g id="edge25" class="edge">
<title>Node435&#45;&gt;Node65</title>
<path fill="none" stroke="midnightblue" d="M273.71,-111.16C391.83,-118.57 655.06,-135.07 767.71,-142.14"/>
<polygon fill="midnightblue" stroke="midnightblue" points="767.61,-145.64 777.81,-142.77 768.04,-138.65 767.61,-145.64"/>
</g>
<!-- Node435&#45;&gt;Node132 -->
<g id="edge26" class="edge">
<title>Node435&#45;&gt;Node132</title>
<path fill="none" stroke="midnightblue" d="M249.76,-116.96C258.46,-119.69 267.68,-122.89 276,-126.45 304.26,-138.51 334.81,-156.16 355.14,-168.61"/>
<polygon fill="midnightblue" stroke="midnightblue" points="353.37,-171.64 363.72,-173.93 357.06,-165.69 353.37,-171.64"/>
</g>
<!-- Node82 -->
<g id="node17" class="node">
<title>Node82</title>
<g id="a_node17"><a xlink:href="cutils_8h.html#a94f155fcce337a2b9d4719ed8042cbbe" target="_top" xlink:title=" ">
<polygon fill="none" stroke="black" points="351.5,-59.95 351.5,-78.95 407.5,-78.95 407.5,-59.95 351.5,-59.95"/>
<text text-anchor="middle" x="379.5" y="-66.95" font-family="Helvetica,sans-Serif" font-size="10.00">max_int</text>
</a>
</g>
</g>
<!-- Node435&#45;&gt;Node82 -->
<g id="edge27" class="edge">
<title>Node435&#45;&gt;Node82</title>
<path fill="none" stroke="midnightblue" d="M255.88,-97.86C282.07,-91.79 315.65,-84.01 341.05,-78.13"/>
<polygon fill="midnightblue" stroke="midnightblue" points="342.09,-81.48 351.04,-75.81 340.51,-74.66 342.09,-81.48"/>
</g>
<!-- Node83 -->
<g id="node18" class="node">
<title>Node83</title>
<g id="a_node18"><a xlink:href="cutils_8h.html#a29a7a26d9387c01c1b4e9fe4fff5704a" target="_top" xlink:title=" ">
<polygon fill="none" stroke="black" points="353,-21.95 353,-40.95 406,-40.95 406,-21.95 353,-21.95"/>
<text text-anchor="middle" x="379.5" y="-28.95" font-family="Helvetica,sans-Serif" font-size="10.00">min_int</text>
</a>
</g>
</g>
<!-- Node435&#45;&gt;Node83 -->
<g id="edge28" class="edge">
<title>Node435&#45;&gt;Node83</title>
<path fill="none" stroke="midnightblue" d="M228.44,-97.77C246.86,-85.37 280.63,-63.85 312,-50.45 321.77,-46.27 332.74,-42.72 342.9,-39.85"/>
<polygon fill="midnightblue" stroke="midnightblue" points="343.97,-43.18 352.72,-37.21 342.15,-36.42 343.97,-43.18"/>
</g>
<!-- Node151&#45;&gt;Node65 -->
<g id="edge30" class="edge">
<title>Node151&#45;&gt;Node65</title>
<path fill="none" stroke="midnightblue" d="M687.86,-41.17C712.8,-60.77 769.33,-105.22 799.92,-129.27"/>
<polygon fill="midnightblue" stroke="midnightblue" points="798.14,-132.32 808.17,-135.75 802.47,-126.82 798.14,-132.32"/>
</g>
</g>
</svg>
