<?xml version="1.0" encoding="UTF-8" standalone="no"?>
<!DOCTYPE svg PUBLIC "-//W3C//DTD SVG 1.1//EN"
 "http://www.w3.org/Graphics/SVG/1.1/DTD/svg11.dtd">
<!-- Generated by graphviz version 2.43.0 (0)
 -->
<!-- Title: __js_poll_interrupts Pages: 1 -->
<svg width="865pt" height="218pt"
 viewBox="0.00 0.00 865.00 218.00" xmlns="http://www.w3.org/2000/svg" xmlns:xlink="http://www.w3.org/1999/xlink">
<g id="graph0" class="graph" transform="scale(1 1) rotate(0) translate(4 214)">
<title>__js_poll_interrupts</title>
<!-- Node1 -->
<g id="node1" class="node">
<title>Node1</title>
<g id="a_node1"><a xlink:title=" ">
<polygon fill="#bfbfbf" stroke="black" points="746,-95.5 746,-114.5 857,-114.5 857,-95.5 746,-95.5"/>
<text text-anchor="middle" x="801.5" y="-102.5" font-family="Helvetica,sans-Serif" font-size="10.00">__js_poll_interrupts</text>
</a>
</g>
</g>
<!-- Node2 -->
<g id="node2" class="node">
<title>Node2</title>
<g id="a_node2"><a xlink:href="quickjs_8c.html#a246e337d6566552736209730827c0871" target="_top" xlink:title=" ">
<polygon fill="none" stroke="black" points="609,-95.5 609,-114.5 710,-114.5 710,-95.5 609,-95.5"/>
<text text-anchor="middle" x="659.5" y="-102.5" font-family="Helvetica,sans-Serif" font-size="10.00">js_poll_interrupts</text>
</a>
</g>
</g>
<!-- Node1&#45;&gt;Node2 -->
<g id="edge1" class="edge">
<title>Node1&#45;&gt;Node2</title>
<path fill="none" stroke="midnightblue" d="M735.88,-105C727.21,-105 718.44,-105 710.08,-105"/>
<polygon fill="midnightblue" stroke="midnightblue" points="735.97,-108.5 745.97,-105 735.97,-101.5 735.97,-108.5"/>
</g>
<!-- Node3 -->
<g id="node3" class="node">
<title>Node3</title>
<g id="a_node3"><a xlink:href="quickjs_8c.html#aa40a5354bee3b56e05a71244910bcc78" target="_top" xlink:title=" ">
<polygon fill="none" stroke="black" points="441,-190.5 441,-209.5 556,-209.5 556,-190.5 441,-190.5"/>
<text text-anchor="middle" x="498.5" y="-197.5" font-family="Helvetica,sans-Serif" font-size="10.00">build_for_in_iterator</text>
</a>
</g>
</g>
<!-- Node2&#45;&gt;Node3 -->
<g id="edge2" class="edge">
<title>Node2&#45;&gt;Node3</title>
<path fill="none" stroke="midnightblue" d="M642.28,-121.73C626.04,-137.64 599.71,-161.26 573,-176 562.19,-181.97 549.65,-186.75 538.03,-190.42"/>
<polygon fill="midnightblue" stroke="midnightblue" points="644.8,-124.17 649.39,-114.62 639.85,-119.22 644.8,-124.17"/>
</g>
<!-- Node5 -->
<g id="node5" class="node">
<title>Node5</title>
<g id="a_node5"><a xlink:href="quickjs_8c.html#ac2894ff4edcdb4e6841bcce9c76081e3" target="_top" xlink:title=" ">
<polygon fill="none" stroke="red" points="179,-152.5 179,-171.5 266,-171.5 266,-152.5 179,-152.5"/>
<text text-anchor="middle" x="222.5" y="-159.5" font-family="Helvetica,sans-Serif" font-size="10.00">JS_CallInternal</text>
</a>
</g>
</g>
<!-- Node2&#45;&gt;Node5 -->
<g id="edge9" class="edge">
<title>Node2&#45;&gt;Node5</title>
<path fill="none" stroke="midnightblue" d="M629.19,-118.83C613,-125.82 592.29,-133.72 573,-138 464.34,-162.12 332.44,-164.02 266.04,-163.14"/>
<polygon fill="midnightblue" stroke="midnightblue" points="630.93,-121.89 638.65,-114.63 628.09,-115.49 630.93,-121.89"/>
</g>
<!-- Node111 -->
<g id="node6" class="node">
<title>Node111</title>
<g id="a_node6"><a xlink:href="quickjs_8c.html#ad35594576a14c10812efaf958c99af8a" target="_top" xlink:title=" ">
<polygon fill="none" stroke="red" points="0,-152.5 0,-171.5 143,-171.5 143,-152.5 0,-152.5"/>
<text text-anchor="middle" x="71.5" y="-159.5" font-family="Helvetica,sans-Serif" font-size="10.00">JS_CallConstructorInternal</text>
</a>
</g>
</g>
<!-- Node2&#45;&gt;Node111 -->
<g id="edge8" class="edge">
<title>Node2&#45;&gt;Node111</title>
<path fill="none" stroke="midnightblue" d="M598.87,-107.85C508,-112.62 329.53,-123.65 179,-143 159.63,-145.49 138.42,-149.09 120.06,-152.49"/>
<polygon fill="midnightblue" stroke="midnightblue" points="599.18,-111.34 608.98,-107.33 598.81,-104.35 599.18,-111.34"/>
</g>
<!-- Node310 -->
<g id="node7" class="node">
<title>Node310</title>
<g id="a_node7"><a xlink:href="quickjs_8c.html#a26abea9136a3d8e9a861aefb51626b4e" target="_top" xlink:title=" ">
<polygon fill="none" stroke="black" points="424,-76.5 424,-95.5 573,-95.5 573,-76.5 424,-76.5"/>
<text text-anchor="middle" x="498.5" y="-83.5" font-family="Helvetica,sans-Serif" font-size="10.00">js_object___lookupGetter__</text>
</a>
</g>
</g>
<!-- Node2&#45;&gt;Node310 -->
<g id="edge10" class="edge">
<title>Node2&#45;&gt;Node310</title>
<path fill="none" stroke="midnightblue" d="M598.63,-97.85C590.28,-96.85 581.63,-95.81 573.07,-94.79"/>
<polygon fill="midnightblue" stroke="midnightblue" points="598.28,-101.33 608.63,-99.04 599.11,-94.38 598.28,-101.33"/>
</g>
<!-- Node314 -->
<g id="node8" class="node">
<title>Node314</title>
<g id="a_node8"><a xlink:href="quickjs_8c.html#a04be55d1144f71bce472514bd31f0796" target="_top" xlink:title=" ">
<polygon fill="none" stroke="black" points="432.5,-38.5 432.5,-57.5 564.5,-57.5 564.5,-38.5 432.5,-38.5"/>
<text text-anchor="middle" x="498.5" y="-45.5" font-family="Helvetica,sans-Serif" font-size="10.00">js_object_isPrototypeOf</text>
</a>
</g>
</g>
<!-- Node2&#45;&gt;Node314 -->
<g id="edge11" class="edge">
<title>Node2&#45;&gt;Node314</title>
<path fill="none" stroke="midnightblue" d="M630.43,-91.12C613.97,-83.33 592.62,-73.84 573,-67 562.92,-63.48 551.86,-60.29 541.45,-57.57"/>
<polygon fill="midnightblue" stroke="midnightblue" points="628.98,-94.3 639.51,-95.47 632.01,-87.99 628.98,-94.3"/>
</g>
<!-- Node408 -->
<g id="node9" class="node">
<title>Node408</title>
<g id="a_node9"><a xlink:href="quickjs_8c.html#aa0b5c1a59ff4832154e2a98d7c63a4b2" target="_top" xlink:title=" ">
<polygon fill="none" stroke="red" points="431.5,-0.5 431.5,-19.5 565.5,-19.5 565.5,-0.5 431.5,-0.5"/>
<text text-anchor="middle" x="498.5" y="-7.5" font-family="Helvetica,sans-Serif" font-size="10.00">JS_OrdinaryIsInstanceOf</text>
</a>
</g>
</g>
<!-- Node2&#45;&gt;Node408 -->
<g id="edge12" class="edge">
<title>Node2&#45;&gt;Node408</title>
<path fill="none" stroke="midnightblue" d="M643.74,-87.77C627.94,-70.41 601.31,-44.1 573,-29 565.79,-25.16 557.76,-22.06 549.73,-19.57"/>
<polygon fill="midnightblue" stroke="midnightblue" points="641.33,-90.32 650.58,-95.48 646.56,-85.68 641.33,-90.32"/>
</g>
<!-- Node4 -->
<g id="node4" class="node">
<title>Node4</title>
<g id="a_node4"><a xlink:href="quickjs_8c.html#a3472bcc4762be7f7de1dcf4c1e0c5ff1" target="_top" xlink:title=" ">
<polygon fill="none" stroke="black" points="302,-190.5 302,-209.5 388,-209.5 388,-190.5 302,-190.5"/>
<text text-anchor="middle" x="345" y="-197.5" font-family="Helvetica,sans-Serif" font-size="10.00">js_for_in_start</text>
</a>
</g>
</g>
<!-- Node3&#45;&gt;Node4 -->
<g id="edge3" class="edge">
<title>Node3&#45;&gt;Node4</title>
<path fill="none" stroke="midnightblue" d="M430.29,-200C415.91,-200 401.12,-200 388.01,-200"/>
<polygon fill="midnightblue" stroke="midnightblue" points="430.66,-203.5 440.66,-200 430.66,-196.5 430.66,-203.5"/>
</g>
<!-- Node4&#45;&gt;Node5 -->
<g id="edge4" class="edge">
<title>Node4&#45;&gt;Node5</title>
<path fill="none" stroke="midnightblue" d="M303.79,-187.32C287.51,-182.19 269.02,-176.36 253.9,-171.59"/>
<polygon fill="midnightblue" stroke="midnightblue" points="303,-190.74 313.59,-190.41 305.11,-184.07 303,-190.74"/>
</g>
<!-- Node5&#45;&gt;Node5 -->
<g id="edge7" class="edge">
<title>Node5&#45;&gt;Node5</title>
<path fill="none" stroke="midnightblue" d="M245.19,-181.03C243.96,-186.13 236.39,-190 222.5,-190 200.82,-190 194.55,-180.57 203.7,-171.76"/>
<polygon fill="midnightblue" stroke="midnightblue" points="248.4,-179.62 241.3,-171.76 241.94,-182.33 248.4,-179.62"/>
</g>
<!-- Node5&#45;&gt;Node111 -->
<g id="edge5" class="edge">
<title>Node5&#45;&gt;Node111</title>
<path fill="none" stroke="midnightblue" d="M168.57,-155.51C160.3,-155.3 151.64,-155.22 143.05,-155.26"/>
<polygon fill="midnightblue" stroke="midnightblue" points="168.7,-159.01 178.8,-155.83 168.92,-152.02 168.7,-159.01"/>
</g>
<!-- Node111&#45;&gt;Node5 -->
<g id="edge6" class="edge">
<title>Node111&#45;&gt;Node5</title>
<path fill="none" stroke="midnightblue" d="M153.08,-168.73C161.94,-168.67 170.68,-168.49 178.8,-168.17"/>
<polygon fill="midnightblue" stroke="midnightblue" points="153.05,-165.23 143.05,-168.74 153.06,-172.23 153.05,-165.23"/>
</g>
</g>
</svg>
