<?xml version="1.0" encoding="UTF-8" standalone="no"?>
<!DOCTYPE svg PUBLIC "-//W3C//DTD SVG 1.1//EN"
 "http://www.w3.org/Graphics/SVG/1.1/DTD/svg11.dtd">
<!-- Generated by graphviz version 2.43.0 (0)
 -->
<!-- Title: js_proxy_preventExtensions Pages: 1 -->
<svg width="917pt" height="1072pt"
 viewBox="0.00 0.00 917.00 1072.09" xmlns="http://www.w3.org/2000/svg" xmlns:xlink="http://www.w3.org/1999/xlink">
<g id="graph0" class="graph" transform="scale(1 1) rotate(0) translate(4 1068.09)">
<title>js_proxy_preventExtensions</title>
<!-- Node1 -->
<g id="node1" class="node">
<title>Node1</title>
<g id="a_node1"><a xlink:title=" ">
<polygon fill="#bfbfbf" stroke="black" points="0,-95.5 0,-114.5 154,-114.5 154,-95.5 0,-95.5"/>
<text text-anchor="middle" x="77" y="-102.5" font-family="Helvetica,sans-Serif" font-size="10.00">js_proxy_preventExtensions</text>
</a>
</g>
</g>
<!-- Node2 -->
<g id="node2" class="node">
<title>Node2</title>
<g id="a_node2"><a xlink:href="quickjs_8c.html#a9e94551ddba8762d74eda5127445dbbd" target="_top" xlink:title=" ">
<polygon fill="none" stroke="black" points="348,-893.5 348,-912.5 456,-912.5 456,-893.5 348,-893.5"/>
<text text-anchor="middle" x="402" y="-900.5" font-family="Helvetica,sans-Serif" font-size="10.00">get_proxy_method</text>
</a>
</g>
</g>
<!-- Node1&#45;&gt;Node2 -->
<g id="edge1" class="edge">
<title>Node1&#45;&gt;Node2</title>
<path fill="none" stroke="midnightblue" d="M81.85,-114.52C114.71,-195.69 347.74,-771.41 393.29,-883.95"/>
<polygon fill="midnightblue" stroke="midnightblue" points="390.1,-885.41 397.1,-893.36 396.59,-882.78 390.1,-885.41"/>
</g>
<!-- Node5 -->
<g id="node5" class="node">
<title>Node5</title>
<g id="a_node5"><a xlink:href="quickjs_8h.html#ad80a83d73e9b7d872b88fbf2943aebe9" target="_top" xlink:title=" ">
<polygon fill="none" stroke="black" points="692,-855.5 692,-874.5 779,-874.5 779,-855.5 692,-855.5"/>
<text text-anchor="middle" x="735.5" y="-862.5" font-family="Helvetica,sans-Serif" font-size="10.00">JS_IsException</text>
</a>
</g>
</g>
<!-- Node1&#45;&gt;Node5 -->
<g id="edge41" class="edge">
<title>Node1&#45;&gt;Node5</title>
<path fill="none" stroke="midnightblue" d="M78.76,-114.54C84.88,-186.17 131.76,-644.5 348,-922 433.21,-1031.35 530.32,-1112.48 641,-1029 687.5,-993.93 642.57,-949.97 677,-903 683.99,-893.47 694.14,-885.64 703.98,-879.61"/>
<polygon fill="midnightblue" stroke="midnightblue" points="705.86,-882.57 712.82,-874.59 702.4,-876.48 705.86,-882.57"/>
</g>
<!-- Node10 -->
<g id="node10" class="node">
<title>Node10</title>
<g id="a_node10"><a xlink:href="quickjs_8c.html#a75f6ee5e4235a7dc99889f3d2eb2c147" target="_top" xlink:title=" ">
<polygon fill="none" stroke="black" points="215.5,-304.5 215.5,-323.5 286.5,-323.5 286.5,-304.5 215.5,-304.5"/>
<text text-anchor="middle" x="251" y="-311.5" font-family="Helvetica,sans-Serif" font-size="10.00">JS_CallFree</text>
</a>
</g>
</g>
<!-- Node1&#45;&gt;Node10 -->
<g id="edge9" class="edge">
<title>Node1&#45;&gt;Node10</title>
<path fill="none" stroke="midnightblue" d="M85.84,-114.52C112.64,-147.1 200.93,-254.38 235.72,-296.65"/>
<polygon fill="midnightblue" stroke="midnightblue" points="233.06,-298.92 242.12,-304.42 238.46,-294.48 233.06,-298.92"/>
</g>
<!-- Node131 -->
<g id="node27" class="node">
<title>Node131</title>
<g id="a_node27"><a xlink:href="quickjs_8h.html#a4e407128a9605afb77523e49e9a627fd" target="_top" xlink:title=" ">
<polygon fill="none" stroke="black" points="522,-76.5 522,-95.5 611,-95.5 611,-76.5 522,-76.5"/>
<text text-anchor="middle" x="566.5" y="-83.5" font-family="Helvetica,sans-Serif" font-size="10.00">JS_IsUndefined</text>
</a>
</g>
</g>
<!-- Node1&#45;&gt;Node131 -->
<g id="edge43" class="edge">
<title>Node1&#45;&gt;Node131</title>
<path fill="none" stroke="midnightblue" d="M154.17,-102.03C253.5,-98.16 424.79,-91.48 511.65,-88.1"/>
<polygon fill="midnightblue" stroke="midnightblue" points="511.95,-91.59 521.81,-87.7 511.68,-84.6 511.95,-91.59"/>
</g>
<!-- Node223 -->
<g id="node28" class="node">
<title>Node223</title>
<g id="a_node28"><a xlink:href="quickjs_8c.html#a2bf30c9cddfe98a32535843202495069" target="_top" xlink:title=" ">
<polygon fill="none" stroke="black" points="524.5,-114.5 524.5,-133.5 608.5,-133.5 608.5,-114.5 524.5,-114.5"/>
<text text-anchor="middle" x="566.5" y="-121.5" font-family="Helvetica,sans-Serif" font-size="10.00">JS_ToBoolFree</text>
</a>
</g>
</g>
<!-- Node1&#45;&gt;Node223 -->
<g id="edge46" class="edge">
<title>Node1&#45;&gt;Node223</title>
<path fill="none" stroke="midnightblue" d="M154.21,-108.48C166.19,-109 178.43,-109.53 190,-110 305.87,-114.75 441.87,-119.65 514.18,-122.21"/>
<polygon fill="midnightblue" stroke="midnightblue" points="514.26,-125.71 524.38,-122.57 514.51,-118.72 514.26,-125.71"/>
</g>
<!-- Node221 -->
<g id="node29" class="node">
<title>Node221</title>
<g id="a_node29"><a xlink:href="quickjs_8c.html#a17c92ef7fbad6a6029f6aa933d669624" target="_top" xlink:title=" ">
<polygon fill="none" stroke="red" points="206,-38.5 206,-57.5 296,-57.5 296,-38.5 206,-38.5"/>
<text text-anchor="middle" x="251" y="-45.5" font-family="Helvetica,sans-Serif" font-size="10.00">JS_IsExtensible</text>
</a>
</g>
</g>
<!-- Node1&#45;&gt;Node221 -->
<g id="edge42" class="edge">
<title>Node1&#45;&gt;Node221</title>
<path fill="none" stroke="midnightblue" d="M106.79,-95.46C135.44,-85.97 179.59,-71.33 211.3,-60.83"/>
<polygon fill="midnightblue" stroke="midnightblue" points="212.73,-64.04 221.12,-57.57 210.52,-57.4 212.73,-64.04"/>
</g>
<!-- Node437 -->
<g id="node30" class="node">
<title>Node437</title>
<g id="a_node30"><a xlink:href="quickjs_8c.html#a12a827f44f5bca80c6eb2c7d890460f4" target="_top" xlink:title=" ">
<polygon fill="none" stroke="black" points="190,-0.5 190,-19.5 312,-19.5 312,-0.5 190,-0.5"/>
<text text-anchor="middle" x="251" y="-7.5" font-family="Helvetica,sans-Serif" font-size="10.00">JS_PreventExtensions</text>
</a>
</g>
</g>
<!-- Node1&#45;&gt;Node437 -->
<g id="edge44" class="edge">
<title>Node1&#45;&gt;Node437</title>
<path fill="none" stroke="midnightblue" d="M84.4,-95.28C99.78,-78.35 140.54,-45.87 181.81,-24.17"/>
<polygon fill="midnightblue" stroke="midnightblue" points="183.54,-27.21 190.89,-19.57 180.39,-20.96 183.54,-27.21"/>
</g>
<!-- Node3 -->
<g id="node3" class="node">
<title>Node3</title>
<g id="a_node3"><a xlink:href="quickjs_8c.html#af23ec7c9970ceb4671c59da7abd4b078" target="_top" xlink:title=" ">
<polygon fill="none" stroke="black" points="498,-912.5 498,-931.5 635,-931.5 635,-912.5 498,-912.5"/>
<text text-anchor="middle" x="566.5" y="-919.5" font-family="Helvetica,sans-Serif" font-size="10.00">js_check_stack_overflow</text>
</a>
</g>
</g>
<!-- Node2&#45;&gt;Node3 -->
<g id="edge2" class="edge">
<title>Node2&#45;&gt;Node3</title>
<path fill="none" stroke="midnightblue" d="M456.21,-909.22C466.31,-910.4 477.07,-911.66 487.75,-912.91"/>
<polygon fill="midnightblue" stroke="midnightblue" points="487.6,-916.42 497.94,-914.1 488.41,-909.46 487.6,-916.42"/>
</g>
<!-- Node2&#45;&gt;Node5 -->
<g id="edge4" class="edge">
<title>Node2&#45;&gt;Node5</title>
<path fill="none" stroke="midnightblue" d="M419.72,-912.58C437.13,-921.95 465.5,-935.58 492,-941 556.88,-954.27 580.17,-967.17 641,-941 662.37,-931.81 659.18,-917.96 677,-903 687,-894.61 698.91,-886.47 709.29,-879.9"/>
<polygon fill="midnightblue" stroke="midnightblue" points="711.27,-882.79 717.94,-874.55 707.59,-876.83 711.27,-882.79"/>
</g>
<!-- Node6 -->
<g id="node6" class="node">
<title>Node6</title>
<g id="a_node6"><a xlink:href="quickjs_8h.html#a149f24b67e745bad93573b3b4c80db4c" target="_top" xlink:title=" ">
<polygon fill="none" stroke="black" points="537,-874.5 537,-893.5 596,-893.5 596,-874.5 537,-874.5"/>
<text text-anchor="middle" x="566.5" y="-881.5" font-family="Helvetica,sans-Serif" font-size="10.00">JS_IsNull</text>
</a>
</g>
</g>
<!-- Node2&#45;&gt;Node6 -->
<g id="edge5" class="edge">
<title>Node2&#45;&gt;Node6</title>
<path fill="none" stroke="midnightblue" d="M456.21,-896.78C479.17,-894.09 505.54,-891.01 526.62,-888.55"/>
<polygon fill="midnightblue" stroke="midnightblue" points="527.29,-891.99 536.82,-887.35 526.48,-885.04 527.29,-891.99"/>
</g>
<!-- Node7 -->
<g id="node7" class="node">
<title>Node7</title>
<g id="a_node7"><a xlink:href="quickjs_8c.html#a8353f635fb8a20553c08db8cf38c17e0" target="_top" xlink:title=" ">
<polygon fill="none" stroke="black" points="501,-798.5 501,-817.5 632,-817.5 632,-798.5 501,-798.5"/>
<text text-anchor="middle" x="566.5" y="-805.5" font-family="Helvetica,sans-Serif" font-size="10.00">JS_ThrowStackOverflow</text>
</a>
</g>
</g>
<!-- Node2&#45;&gt;Node7 -->
<g id="edge6" class="edge">
<title>Node2&#45;&gt;Node7</title>
<path fill="none" stroke="midnightblue" d="M419.48,-893.37C447.94,-876.72 506.52,-842.48 540.19,-822.8"/>
<polygon fill="midnightblue" stroke="midnightblue" points="542.11,-825.73 548.98,-817.66 538.58,-819.68 542.11,-825.73"/>
</g>
<!-- Node9 -->
<g id="node9" class="node">
<title>Node9</title>
<g id="a_node9"><a xlink:href="quickjs_8c.html#a199d64ccbee0a90d93e1ad12745417f6" target="_top" xlink:title=" ">
<polygon fill="none" stroke="black" points="492,-989 492,-1019 641,-1019 641,-989 492,-989"/>
<text text-anchor="start" x="500" y="-1007" font-family="Helvetica,sans-Serif" font-size="10.00">JS_ThrowTypeErrorRevoked</text>
<text text-anchor="middle" x="566.5" y="-996" font-family="Helvetica,sans-Serif" font-size="10.00">Proxy</text>
</a>
</g>
</g>
<!-- Node2&#45;&gt;Node9 -->
<g id="edge8" class="edge">
<title>Node2&#45;&gt;Node9</title>
<path fill="none" stroke="midnightblue" d="M412.97,-912.56C428.73,-927.28 460.8,-955.7 492,-974 498.69,-977.92 505.98,-981.57 513.3,-984.87"/>
<polygon fill="midnightblue" stroke="midnightblue" points="511.97,-988.11 522.53,-988.87 514.75,-981.68 511.97,-988.11"/>
</g>
<!-- Node4 -->
<g id="node4" class="node">
<title>Node4</title>
<g id="a_node4"><a xlink:href="quickjs_8c.html#a36b8de436f88239e2e5515a3a423c6d9" target="_top" xlink:title=" ">
<polygon fill="none" stroke="black" points="677,-912.5 677,-931.5 794,-931.5 794,-912.5 677,-912.5"/>
<text text-anchor="middle" x="735.5" y="-919.5" font-family="Helvetica,sans-Serif" font-size="10.00">js_get_stack_pointer</text>
</a>
</g>
</g>
<!-- Node3&#45;&gt;Node4 -->
<g id="edge3" class="edge">
<title>Node3&#45;&gt;Node4</title>
<path fill="none" stroke="midnightblue" d="M635.43,-922C645.72,-922 656.34,-922 666.63,-922"/>
<polygon fill="midnightblue" stroke="midnightblue" points="666.79,-925.5 676.79,-922 666.79,-918.5 666.79,-925.5"/>
</g>
<!-- Node8 -->
<g id="node8" class="node">
<title>Node8</title>
<g id="a_node8"><a xlink:href="quickjs_8c.html#a853f0924d441ea4225488f37c8b69f9a" target="_top" xlink:title=" ">
<polygon fill="none" stroke="black" points="695.5,-760.5 695.5,-779.5 775.5,-779.5 775.5,-760.5 695.5,-760.5"/>
<text text-anchor="middle" x="735.5" y="-767.5" font-family="Helvetica,sans-Serif" font-size="10.00">__attribute__</text>
</a>
</g>
</g>
<!-- Node7&#45;&gt;Node8 -->
<g id="edge7" class="edge">
<title>Node7&#45;&gt;Node8</title>
<path fill="none" stroke="midnightblue" d="M609.64,-798.41C632.64,-793.18 661.23,-786.67 685.26,-781.21"/>
<polygon fill="midnightblue" stroke="midnightblue" points="686.27,-784.56 695.24,-778.93 684.71,-777.74 686.27,-784.56"/>
</g>
<!-- Node11 -->
<g id="node11" class="node">
<title>Node11</title>
<g id="a_node11"><a xlink:href="quickjs_8c.html#ac2894ff4edcdb4e6841bcce9c76081e3" target="_top" xlink:title=" ">
<polygon fill="none" stroke="red" points="358.5,-475.5 358.5,-494.5 445.5,-494.5 445.5,-475.5 358.5,-475.5"/>
<text text-anchor="middle" x="402" y="-482.5" font-family="Helvetica,sans-Serif" font-size="10.00">JS_CallInternal</text>
</a>
</g>
</g>
<!-- Node10&#45;&gt;Node11 -->
<g id="edge10" class="edge">
<title>Node10&#45;&gt;Node11</title>
<path fill="none" stroke="midnightblue" d="M263.69,-323.58C291.39,-351.51 360.8,-431.15 388.9,-467.22"/>
<polygon fill="midnightblue" stroke="midnightblue" points="386.27,-469.54 395.11,-475.39 391.85,-465.31 386.27,-469.54"/>
</g>
<!-- Node64 -->
<g id="node17" class="node">
<title>Node64</title>
<g id="a_node17"><a xlink:href="quickjs_8h.html#afaa20c47565bc704c6c85f3d77254e7d" target="_top" xlink:title=" ">
<polygon fill="none" stroke="red" points="830,-247.5 830,-266.5 909,-266.5 909,-247.5 830,-247.5"/>
<text text-anchor="middle" x="869.5" y="-254.5" font-family="Helvetica,sans-Serif" font-size="10.00">JS_FreeValue</text>
</a>
</g>
</g>
<!-- Node10&#45;&gt;Node64 -->
<g id="edge40" class="edge">
<title>Node10&#45;&gt;Node64</title>
<path fill="none" stroke="midnightblue" d="M264.03,-304.34C297.59,-278.1 396.07,-205.8 492,-181 621,-147.65 777.99,-212.66 840.69,-242.8"/>
<polygon fill="midnightblue" stroke="midnightblue" points="839.41,-246.07 849.93,-247.32 842.48,-239.78 839.41,-246.07"/>
</g>
<!-- Node11&#45;&gt;Node3 -->
<g id="edge32" class="edge">
<title>Node11&#45;&gt;Node3</title>
<path fill="none" stroke="midnightblue" d="M403.71,-494.78C408.06,-551.82 432.85,-841.24 492,-903 493.25,-904.31 494.58,-905.53 495.98,-906.67"/>
<polygon fill="midnightblue" stroke="midnightblue" points="494.34,-909.78 504.61,-912.38 498.2,-903.94 494.34,-909.78"/>
</g>
<!-- Node11&#45;&gt;Node5 -->
<g id="edge34" class="edge">
<title>Node11&#45;&gt;Node5</title>
<path fill="none" stroke="midnightblue" d="M404.1,-494.69C410.06,-545.45 440.15,-780.06 492,-827 519.12,-851.55 618.94,-860.27 681.74,-863.34"/>
<polygon fill="midnightblue" stroke="midnightblue" points="681.72,-866.84 691.87,-863.8 682.04,-859.85 681.72,-866.84"/>
</g>
<!-- Node11&#45;&gt;Node6 -->
<g id="edge35" class="edge">
<title>Node11&#45;&gt;Node6</title>
<path fill="none" stroke="midnightblue" d="M404.03,-494.75C409.84,-548.04 440.11,-803.63 492,-860 501.04,-869.82 514.14,-875.63 526.79,-879.07"/>
<polygon fill="midnightblue" stroke="midnightblue" points="526.22,-882.53 536.75,-881.35 527.78,-875.7 526.22,-882.53"/>
</g>
<!-- Node11&#45;&gt;Node7 -->
<g id="edge37" class="edge">
<title>Node11&#45;&gt;Node7</title>
<path fill="none" stroke="midnightblue" d="M402.66,-494.6C401.76,-536.33 403.91,-703.68 492,-789 493.49,-790.44 495.08,-791.78 496.74,-793.02"/>
<polygon fill="midnightblue" stroke="midnightblue" points="495.26,-796.22 505.62,-798.44 498.91,-790.24 495.26,-796.22"/>
</g>
<!-- Node11&#45;&gt;Node8 -->
<g id="edge11" class="edge">
<title>Node11&#45;&gt;Node8</title>
<path fill="none" stroke="midnightblue" d="M445.75,-486.77C506,-490.09 611.8,-499.21 641,-523 713.08,-581.73 729.64,-702.39 733.4,-750.03"/>
<polygon fill="midnightblue" stroke="midnightblue" points="729.93,-750.51 734.1,-760.25 736.91,-750.03 729.93,-750.51"/>
</g>
<!-- Node11&#45;&gt;Node10 -->
<g id="edge30" class="edge">
<title>Node11&#45;&gt;Node10</title>
<path fill="none" stroke="midnightblue" d="M389.29,-475.4C361.55,-447.43 292.08,-367.72 264.03,-331.7"/>
<polygon fill="midnightblue" stroke="midnightblue" points="266.67,-329.39 257.84,-323.54 261.1,-333.62 266.67,-329.39"/>
</g>
<!-- Node11&#45;&gt;Node11 -->
<g id="edge31" class="edge">
<title>Node11&#45;&gt;Node11</title>
<path fill="none" stroke="midnightblue" d="M378.88,-494.76C367.63,-503.57 375.34,-513 402,-513 419.5,-513 428.83,-508.94 430,-503.65"/>
<polygon fill="midnightblue" stroke="midnightblue" points="433,-501.84 425.12,-494.76 426.86,-505.21 433,-501.84"/>
</g>
<!-- Node12 -->
<g id="node12" class="node">
<title>Node12</title>
<g id="a_node12"><a xlink:href="quickjs_8c.html#a877fcb7651d95b411ce70e62b7f4a1f0" target="_top" xlink:title=" ">
<polygon fill="none" stroke="black" points="504,-266.5 504,-285.5 629,-285.5 629,-266.5 504,-266.5"/>
<text text-anchor="middle" x="566.5" y="-273.5" font-family="Helvetica,sans-Serif" font-size="10.00">__JS_AtomFromUInt32</text>
</a>
</g>
</g>
<!-- Node11&#45;&gt;Node12 -->
<g id="edge12" class="edge">
<title>Node11&#45;&gt;Node12</title>
<path fill="none" stroke="midnightblue" d="M404.56,-475.36C410.13,-444.11 432.02,-344.79 492,-295 494.04,-293.31 496.22,-291.76 498.49,-290.35"/>
<polygon fill="midnightblue" stroke="midnightblue" points="500.43,-293.29 507.68,-285.56 497.2,-287.08 500.43,-293.29"/>
</g>
<!-- Node13 -->
<g id="node13" class="node">
<title>Node13</title>
<g id="a_node13"><a xlink:href="quickjs_8h.html#a9bf98b18de88b4199910a43e933eb97d" target="_top" xlink:title=" ">
<polygon fill="none" stroke="black" points="516.5,-228.5 516.5,-247.5 616.5,-247.5 616.5,-228.5 516.5,-228.5"/>
<text text-anchor="middle" x="566.5" y="-235.5" font-family="Helvetica,sans-Serif" font-size="10.00">__JS_NewFloat64</text>
</a>
</g>
</g>
<!-- Node11&#45;&gt;Node13 -->
<g id="edge13" class="edge">
<title>Node11&#45;&gt;Node13</title>
<path fill="none" stroke="midnightblue" d="M403.72,-475.48C406.89,-440.59 422.71,-318.48 492,-257 496.42,-253.08 501.55,-249.95 507,-247.45"/>
<polygon fill="midnightblue" stroke="midnightblue" points="508.34,-250.68 516.41,-243.82 505.82,-244.15 508.34,-250.68"/>
</g>
<!-- Node14 -->
<g id="node14" class="node">
<title>Node14</title>
<g id="a_node14"><a xlink:href="quickjs_8c.html#a74547db03bf739a52c83a326b32db997" target="_top" xlink:title=" ">
<polygon fill="none" stroke="red" points="526,-190.5 526,-209.5 607,-209.5 607,-190.5 526,-190.5"/>
<text text-anchor="middle" x="566.5" y="-197.5" font-family="Helvetica,sans-Serif" font-size="10.00">add_property</text>
</a>
</g>
</g>
<!-- Node11&#45;&gt;Node14 -->
<g id="edge14" class="edge">
<title>Node11&#45;&gt;Node14</title>
<path fill="none" stroke="midnightblue" d="M403.13,-475.3C404.19,-436.65 413.47,-292.23 492,-219 498.65,-212.8 507.06,-208.56 515.8,-205.67"/>
<polygon fill="midnightblue" stroke="midnightblue" points="517,-208.97 525.72,-202.96 515.15,-202.22 517,-208.97"/>
</g>
<!-- Node72 -->
<g id="node15" class="node">
<title>Node72</title>
<g id="a_node15"><a xlink:href="quickjs_8c.html#a4956f45ffd2849b96dc051277264f87a" target="_top" xlink:title=" ">
<polygon fill="none" stroke="red" points="525.5,-760.5 525.5,-779.5 607.5,-779.5 607.5,-760.5 525.5,-760.5"/>
<text text-anchor="middle" x="566.5" y="-767.5" font-family="Helvetica,sans-Serif" font-size="10.00">build_arg_list</text>
</a>
</g>
</g>
<!-- Node11&#45;&gt;Node72 -->
<g id="edge15" class="edge">
<title>Node11&#45;&gt;Node72</title>
<path fill="none" stroke="midnightblue" d="M403.13,-494.7C404.19,-533.35 413.47,-677.77 492,-751 498.58,-757.14 506.89,-761.35 515.52,-764.24"/>
<polygon fill="midnightblue" stroke="midnightblue" points="514.77,-767.66 525.34,-766.95 516.63,-760.91 514.77,-767.66"/>
</g>
<!-- Node73 -->
<g id="node16" class="node">
<title>Node73</title>
<g id="a_node16"><a xlink:href="quickjs_8c.html#ac864482356b3efc2d0b0a509fcfa4c7c" target="_top" xlink:title=" ">
<polygon fill="none" stroke="red" points="697,-418.5 697,-437.5 774,-437.5 774,-418.5 697,-418.5"/>
<text text-anchor="middle" x="735.5" y="-425.5" font-family="Helvetica,sans-Serif" font-size="10.00">free_arg_list</text>
</a>
</g>
</g>
<!-- Node11&#45;&gt;Node73 -->
<g id="edge23" class="edge">
<title>Node11&#45;&gt;Node73</title>
<path fill="none" stroke="midnightblue" d="M420.81,-475.34C438.36,-466.32 466.22,-453.33 492,-447 558.24,-430.73 637.42,-427.43 686.85,-427.21"/>
<polygon fill="midnightblue" stroke="midnightblue" points="686.93,-430.71 696.93,-427.2 686.93,-423.71 686.93,-430.71"/>
</g>
<!-- Node11&#45;&gt;Node64 -->
<g id="edge33" class="edge">
<title>Node11&#45;&gt;Node64</title>
<path fill="none" stroke="midnightblue" d="M407.71,-475.3C418.98,-453.14 449.75,-398.61 492,-371 549.21,-333.61 575.44,-352.28 641,-333 709.34,-312.9 787.93,-285.73 832.56,-269.91"/>
<polygon fill="midnightblue" stroke="midnightblue" points="833.83,-273.17 842.08,-266.52 831.48,-266.58 833.83,-273.17"/>
</g>
<!-- Node165 -->
<g id="node18" class="node">
<title>Node165</title>
<g id="a_node18"><a xlink:href="quickjs_8c.html#a61c8dfb5e807af1b6ff7d8ca61576dda" target="_top" xlink:title=" ">
<polygon fill="none" stroke="red" points="519.5,-722.5 519.5,-741.5 613.5,-741.5 613.5,-722.5 519.5,-722.5"/>
<text text-anchor="middle" x="566.5" y="-729.5" font-family="Helvetica,sans-Serif" font-size="10.00">build_backtrace</text>
</a>
</g>
</g>
<!-- Node11&#45;&gt;Node165 -->
<g id="edge20" class="edge">
<title>Node11&#45;&gt;Node165</title>
<path fill="none" stroke="midnightblue" d="M403.72,-494.52C406.89,-529.41 422.71,-651.52 492,-713 497.17,-717.58 503.3,-721.09 509.78,-723.76"/>
<polygon fill="midnightblue" stroke="midnightblue" points="508.87,-727.15 519.46,-727.11 511.16,-720.53 508.87,-727.15"/>
</g>
<!-- Node247 -->
<g id="node19" class="node">
<title>Node247</title>
<g id="a_node19"><a xlink:href="quickjs_8c.html#a344894112559c2ba75043fd10bcfa02f" target="_top" xlink:title=" ">
<polygon fill="none" stroke="red" points="516,-684.5 516,-703.5 617,-703.5 617,-684.5 516,-684.5"/>
<text text-anchor="middle" x="566.5" y="-691.5" font-family="Helvetica,sans-Serif" font-size="10.00">close_lexical_var</text>
</a>
</g>
</g>
<!-- Node11&#45;&gt;Node247 -->
<g id="edge21" class="edge">
<title>Node11&#45;&gt;Node247</title>
<path fill="none" stroke="midnightblue" d="M404.56,-494.64C410.13,-525.89 432.02,-625.21 492,-675 496.31,-678.58 501.21,-681.49 506.4,-683.86"/>
<polygon fill="midnightblue" stroke="midnightblue" points="505.37,-687.22 515.96,-687.57 507.9,-680.69 505.37,-687.22"/>
</g>
<!-- Node248 -->
<g id="node20" class="node">
<title>Node248</title>
<g id="a_node20"><a xlink:href="quickjs_8c.html#a1782043fce951bd4f0d91c7796b31e24" target="_top" xlink:title=" ">
<polygon fill="none" stroke="red" points="523,-646.5 523,-665.5 610,-665.5 610,-646.5 523,-646.5"/>
<text text-anchor="middle" x="566.5" y="-653.5" font-family="Helvetica,sans-Serif" font-size="10.00">close_var_refs</text>
</a>
</g>
</g>
<!-- Node11&#45;&gt;Node248 -->
<g id="edge22" class="edge">
<title>Node11&#45;&gt;Node248</title>
<path fill="none" stroke="midnightblue" d="M405.74,-494.59C413.96,-521.54 441.01,-598.47 492,-637 498.28,-641.75 505.64,-645.32 513.23,-647.99"/>
<polygon fill="midnightblue" stroke="midnightblue" points="512.31,-651.37 522.89,-650.93 514.34,-644.67 512.31,-651.37"/>
</g>
<!-- Node61 -->
<g id="node21" class="node">
<title>Node61</title>
<g id="a_node21"><a xlink:href="quickjs_8c.html#a9e7b4bccf927d811b0f99b40b08c0472" target="_top" xlink:title=" ">
<polygon fill="none" stroke="red" points="528.5,-608.5 528.5,-627.5 604.5,-627.5 604.5,-608.5 528.5,-608.5"/>
<text text-anchor="middle" x="566.5" y="-615.5" font-family="Helvetica,sans-Serif" font-size="10.00">free_var_ref</text>
</a>
</g>
</g>
<!-- Node11&#45;&gt;Node61 -->
<g id="edge24" class="edge">
<title>Node11&#45;&gt;Node61</title>
<path fill="none" stroke="midnightblue" d="M407.71,-494.69C419,-516.83 449.8,-571.32 492,-599 499.93,-604.2 509.21,-607.98 518.46,-610.73"/>
<polygon fill="midnightblue" stroke="midnightblue" points="517.85,-614.18 528.41,-613.32 519.61,-607.41 517.85,-614.18"/>
</g>
<!-- Node250 -->
<g id="node22" class="node">
<title>Node250</title>
<g id="a_node22"><a xlink:href="cutils_8h.html#a7c82a3ee025fee89db5b11ff5b7691b8" target="_top" xlink:title=" ">
<polygon fill="none" stroke="black" points="540,-570.5 540,-589.5 593,-589.5 593,-570.5 540,-570.5"/>
<text text-anchor="middle" x="566.5" y="-577.5" font-family="Helvetica,sans-Serif" font-size="10.00">get_i16</text>
</a>
</g>
</g>
<!-- Node11&#45;&gt;Node250 -->
<g id="edge25" class="edge">
<title>Node11&#45;&gt;Node250</title>
<path fill="none" stroke="midnightblue" d="M411.33,-494.51C426,-510.64 458.12,-543.37 492,-561 503.69,-567.08 517.46,-571.31 529.91,-574.21"/>
<polygon fill="midnightblue" stroke="midnightblue" points="529.47,-577.69 539.97,-576.34 530.92,-570.85 529.47,-577.69"/>
</g>
<!-- Node251 -->
<g id="node23" class="node">
<title>Node251</title>
<g id="a_node23"><a xlink:href="cutils_8h.html#a288ee4e688944e23500af2ecc813c306" target="_top" xlink:title=" ">
<polygon fill="none" stroke="black" points="543,-532.5 543,-551.5 590,-551.5 590,-532.5 543,-532.5"/>
<text text-anchor="middle" x="566.5" y="-539.5" font-family="Helvetica,sans-Serif" font-size="10.00">get_i8</text>
</a>
</g>
</g>
<!-- Node11&#45;&gt;Node251 -->
<g id="edge26" class="edge">
<title>Node11&#45;&gt;Node251</title>
<path fill="none" stroke="midnightblue" d="M427.84,-494.51C445.64,-501.25 470.21,-510.41 492,-518 505.4,-522.67 520.27,-527.58 533.11,-531.73"/>
<polygon fill="midnightblue" stroke="midnightblue" points="532.31,-535.15 542.9,-534.88 534.46,-528.48 532.31,-535.15"/>
</g>
<!-- Node252 -->
<g id="node24" class="node">
<title>Node252</title>
<g id="a_node24"><a xlink:href="cutils_8h.html#ad587834d17e95461893d59661e5e9676" target="_top" xlink:title=" ">
<polygon fill="none" stroke="black" points="538.5,-456.5 538.5,-475.5 594.5,-475.5 594.5,-456.5 538.5,-456.5"/>
<text text-anchor="middle" x="566.5" y="-463.5" font-family="Helvetica,sans-Serif" font-size="10.00">get_u16</text>
</a>
</g>
</g>
<!-- Node11&#45;&gt;Node252 -->
<g id="edge27" class="edge">
<title>Node11&#45;&gt;Node252</title>
<path fill="none" stroke="midnightblue" d="M445.69,-480.01C471.37,-477.01 503.72,-473.22 528.34,-470.35"/>
<polygon fill="midnightblue" stroke="midnightblue" points="528.84,-473.81 538.37,-469.17 528.03,-466.86 528.84,-473.81"/>
</g>
<!-- Node57 -->
<g id="node25" class="node">
<title>Node57</title>
<g id="a_node25"><a xlink:href="cutils_8h.html#a941262a5f72fda2ec43ae7911e97a0dc" target="_top" xlink:title=" ">
<polygon fill="none" stroke="black" points="538.5,-380.5 538.5,-399.5 594.5,-399.5 594.5,-380.5 538.5,-380.5"/>
<text text-anchor="middle" x="566.5" y="-387.5" font-family="Helvetica,sans-Serif" font-size="10.00">get_u32</text>
</a>
</g>
</g>
<!-- Node11&#45;&gt;Node57 -->
<g id="edge28" class="edge">
<title>Node11&#45;&gt;Node57</title>
<path fill="none" stroke="midnightblue" d="M412.56,-475.41C428.02,-460.39 459.99,-431.26 492,-414 503.35,-407.88 516.54,-402.97 528.58,-399.23"/>
<polygon fill="midnightblue" stroke="midnightblue" points="529.76,-402.53 538.37,-396.36 527.78,-395.82 529.76,-402.53"/>
</g>
<!-- Node253 -->
<g id="node26" class="node">
<title>Node253</title>
<g id="a_node26"><a xlink:href="quickjs_8c.html#a37fe43b6649456a848bd54846450b995" target="_top" xlink:title=" ">
<polygon fill="none" stroke="red" points="530.5,-304.5 530.5,-323.5 602.5,-323.5 602.5,-304.5 530.5,-304.5"/>
<text text-anchor="middle" x="566.5" y="-311.5" font-family="Helvetica,sans-Serif" font-size="10.00">get_var_ref</text>
</a>
</g>
</g>
<!-- Node11&#45;&gt;Node253 -->
<g id="edge29" class="edge">
<title>Node11&#45;&gt;Node253</title>
<path fill="none" stroke="midnightblue" d="M406.22,-475.13C415.29,-448.81 443.63,-376.4 492,-338 500.37,-331.36 510.63,-326.53 520.81,-323.02"/>
<polygon fill="midnightblue" stroke="midnightblue" points="521.94,-326.34 530.47,-320.05 519.89,-319.64 521.94,-326.34"/>
</g>
<!-- Node11&#45;&gt;Node131 -->
<g id="edge36" class="edge">
<title>Node11&#45;&gt;Node131</title>
<path fill="none" stroke="midnightblue" d="M403.92,-475.41C409.22,-421.91 437.65,-160.6 492,-105 497.57,-99.3 504.61,-95.23 512.11,-92.35"/>
<polygon fill="midnightblue" stroke="midnightblue" points="513.31,-95.64 521.79,-89.28 511.2,-88.96 513.31,-95.64"/>
</g>
<!-- Node11&#45;&gt;Node223 -->
<g id="edge38" class="edge">
<title>Node11&#45;&gt;Node223</title>
<path fill="none" stroke="midnightblue" d="M403.68,-475.41C406.89,-435.72 423.42,-281.67 492,-181 503.93,-163.48 522.95,-148.95 538.65,-138.94"/>
<polygon fill="midnightblue" stroke="midnightblue" points="540.72,-141.78 547.43,-133.58 537.07,-135.8 540.72,-141.78"/>
</g>
<!-- Node72&#45;&gt;Node5 -->
<g id="edge19" class="edge">
<title>Node72&#45;&gt;Node5</title>
<path fill="none" stroke="midnightblue" d="M607.54,-777.05C618.73,-779.89 630.65,-783.77 641,-789 671.28,-804.29 700.72,-830.71 718.23,-848.02"/>
<polygon fill="midnightblue" stroke="midnightblue" points="715.87,-850.61 725.39,-855.26 720.85,-845.69 715.87,-850.61"/>
</g>
<!-- Node72&#45;&gt;Node8 -->
<g id="edge16" class="edge">
<title>Node72&#45;&gt;Node8</title>
<path fill="none" stroke="midnightblue" d="M607.5,-770C630.8,-770 660.38,-770 685.12,-770"/>
<polygon fill="midnightblue" stroke="midnightblue" points="685.4,-773.5 695.4,-770 685.4,-766.5 685.4,-773.5"/>
</g>
<!-- Node72&#45;&gt;Node73 -->
<g id="edge17" class="edge">
<title>Node72&#45;&gt;Node73</title>
<path fill="none" stroke="midnightblue" d="M607.87,-767.18C619.84,-764.49 632.11,-759.63 641,-751 728.74,-665.75 735.49,-503.62 735.05,-447.61"/>
<polygon fill="midnightblue" stroke="midnightblue" points="738.55,-447.55 734.88,-437.61 731.55,-447.67 738.55,-447.55"/>
</g>
<!-- Node73&#45;&gt;Node64 -->
<g id="edge18" class="edge">
<title>Node73&#45;&gt;Node64</title>
<path fill="none" stroke="midnightblue" d="M746.34,-418.31C758.18,-406.45 778.43,-385.5 794,-366 818.29,-335.57 843.15,-297.53 857.12,-275.38"/>
<polygon fill="midnightblue" stroke="midnightblue" points="860.24,-277 862.58,-266.67 854.3,-273.29 860.24,-277"/>
</g>
<!-- Node223&#45;&gt;Node64 -->
<g id="edge39" class="edge">
<title>Node223&#45;&gt;Node64</title>
<path fill="none" stroke="midnightblue" d="M608.75,-118.52C656.77,-114.25 736.8,-113.83 794,-148 828.61,-168.67 850.83,-212.39 861.35,-237.73"/>
<polygon fill="midnightblue" stroke="midnightblue" points="858.21,-239.32 865.14,-247.34 864.72,-236.75 858.21,-239.32"/>
</g>
<!-- Node437&#45;&gt;Node1 -->
<g id="edge45" class="edge">
<title>Node437&#45;&gt;Node1</title>
<path fill="none" stroke="midnightblue" d="M237.65,-19.6C225.24,-24.86 205.73,-30.37 190,-38 159.71,-52.69 128.24,-74.74 106.41,-89.73"/>
<polygon fill="midnightblue" stroke="midnightblue" points="104.25,-86.97 97.96,-95.49 108.19,-92.75 104.25,-86.97"/>
</g>
</g>
</svg>
