<?xml version="1.0" encoding="UTF-8" standalone="no"?>
<!DOCTYPE svg PUBLIC "-//W3C//DTD SVG 1.1//EN"
 "http://www.w3.org/Graphics/SVG/1.1/DTD/svg11.dtd">
<!-- Generated by graphviz version 2.43.0 (0)
 -->
<!-- Title: js_proxy_has Pages: 1 -->
<svg width="946pt" height="951pt"
 viewBox="0.00 0.00 946.00 950.72" xmlns="http://www.w3.org/2000/svg" xmlns:xlink="http://www.w3.org/1999/xlink">
<g id="graph0" class="graph" transform="scale(1 1) rotate(0) translate(4 946.72)">
<title>js_proxy_has</title>
<!-- Node1 -->
<g id="node1" class="node">
<title>Node1</title>
<g id="a_node1"><a xlink:title=" ">
<polygon fill="#bfbfbf" stroke="black" points="0,-240.96 0,-259.96 80,-259.96 80,-240.96 0,-240.96"/>
<text text-anchor="middle" x="40" y="-247.96" font-family="Helvetica,sans-Serif" font-size="10.00">js_proxy_has</text>
</a>
</g>
</g>
<!-- Node2 -->
<g id="node2" class="node">
<title>Node2</title>
<g id="a_node2"><a xlink:href="quickjs_8c.html#a9e94551ddba8762d74eda5127445dbbd" target="_top" xlink:title=" ">
<polygon fill="none" stroke="black" points="229,-791.96 229,-810.96 337,-810.96 337,-791.96 229,-791.96"/>
<text text-anchor="middle" x="283" y="-798.96" font-family="Helvetica,sans-Serif" font-size="10.00">get_proxy_method</text>
</a>
</g>
</g>
<!-- Node1&#45;&gt;Node2 -->
<g id="edge1" class="edge">
<title>Node1&#45;&gt;Node2</title>
<path fill="none" stroke="midnightblue" d="M45.18,-260.02C73.29,-324.29 234.73,-693.38 273.59,-782.23"/>
<polygon fill="midnightblue" stroke="midnightblue" points="270.49,-783.87 277.7,-791.63 276.9,-781.07 270.49,-783.87"/>
</g>
<!-- Node5 -->
<g id="node5" class="node">
<title>Node5</title>
<g id="a_node5"><a xlink:href="quickjs_8h.html#ad80a83d73e9b7d872b88fbf2943aebe9" target="_top" xlink:title=" ">
<polygon fill="none" stroke="black" points="589,-848.96 589,-867.96 676,-867.96 676,-848.96 589,-848.96"/>
<text text-anchor="middle" x="632.5" y="-855.96" font-family="Helvetica,sans-Serif" font-size="10.00">JS_IsException</text>
</a>
</g>
</g>
<!-- Node1&#45;&gt;Node5 -->
<g id="edge56" class="edge">
<title>Node1&#45;&gt;Node5</title>
<path fill="none" stroke="midnightblue" d="M41.87,-260.22C47.56,-318.86 83.78,-628.5 229,-820.46 312.64,-931.02 388.81,-965.93 522,-927.46 557.51,-917.21 592.6,-891.64 613.14,-874.67"/>
<polygon fill="midnightblue" stroke="midnightblue" points="615.65,-877.14 621.02,-868 611.13,-871.8 615.65,-877.14"/>
</g>
<!-- Node10 -->
<g id="node10" class="node">
<title>Node10</title>
<g id="a_node10"><a xlink:href="quickjs_8c.html#afa67965c1017685fc6783776d6d0d4d7" target="_top" xlink:title=" ">
<polygon fill="none" stroke="black" points="400,-316.96 400,-335.96 495,-335.96 495,-316.96 400,-316.96"/>
<text text-anchor="middle" x="447.5" y="-323.96" font-family="Helvetica,sans-Serif" font-size="10.00">JS_AtomToValue</text>
</a>
</g>
</g>
<!-- Node1&#45;&gt;Node10 -->
<g id="edge9" class="edge">
<title>Node1&#45;&gt;Node10</title>
<path fill="none" stroke="midnightblue" d="M67.45,-260.02C81.69,-264.89 99.64,-270.58 116,-274.46 210.82,-296.95 323.31,-312.3 389.58,-320.2"/>
<polygon fill="midnightblue" stroke="midnightblue" points="389.47,-323.71 399.81,-321.41 390.29,-316.76 389.47,-323.71"/>
</g>
<!-- Node38 -->
<g id="node16" class="node">
<title>Node38</title>
<g id="a_node16"><a xlink:href="quickjs_8c.html#a75f6ee5e4235a7dc99889f3d2eb2c147" target="_top" xlink:title=" ">
<polygon fill="none" stroke="black" points="119,-392.96 119,-411.96 190,-411.96 190,-392.96 119,-392.96"/>
<text text-anchor="middle" x="154.5" y="-399.96" font-family="Helvetica,sans-Serif" font-size="10.00">JS_CallFree</text>
</a>
</g>
</g>
<!-- Node1&#45;&gt;Node38 -->
<g id="edge15" class="edge">
<title>Node1&#45;&gt;Node38</title>
<path fill="none" stroke="midnightblue" d="M48.04,-259.97C66.5,-284.92 116.57,-352.57 140.47,-384.85"/>
<polygon fill="midnightblue" stroke="midnightblue" points="137.7,-387 146.47,-392.96 143.33,-382.84 137.7,-387"/>
</g>
<!-- Node86 -->
<g id="node23" class="node">
<title>Node86</title>
<g id="a_node23"><a xlink:href="quickjs_8h.html#afaa20c47565bc704c6c85f3d77254e7d" target="_top" xlink:title=" ">
<polygon fill="none" stroke="red" points="593,-126.96 593,-145.96 672,-145.96 672,-126.96 593,-126.96"/>
<text text-anchor="middle" x="632.5" y="-133.96" font-family="Helvetica,sans-Serif" font-size="10.00">JS_FreeValue</text>
</a>
</g>
</g>
<!-- Node1&#45;&gt;Node86 -->
<g id="edge53" class="edge">
<title>Node1&#45;&gt;Node86</title>
<path fill="none" stroke="midnightblue" d="M41.3,-240.7C42.91,-208.21 52.96,-103.35 116,-60.46 160.07,-30.48 119.7,60.35 522,-63.46 558.47,-74.68 593.95,-102.33 614.22,-120.19"/>
<polygon fill="midnightblue" stroke="midnightblue" points="611.93,-122.84 621.69,-126.95 616.62,-117.65 611.93,-122.84"/>
</g>
<!-- Node306 -->
<g id="node24" class="node">
<title>Node306</title>
<g id="a_node24"><a xlink:href="quickjs_8c.html#a9d6d0a9704951d01c128975e0d2213f8" target="_top" xlink:title=" ">
<polygon fill="none" stroke="red" points="402,-278.96 402,-297.96 493,-297.96 493,-278.96 402,-278.96"/>
<text text-anchor="middle" x="447.5" y="-285.96" font-family="Helvetica,sans-Serif" font-size="10.00">JS_HasProperty</text>
</a>
</g>
</g>
<!-- Node1&#45;&gt;Node306 -->
<g id="edge55" class="edge">
<title>Node1&#45;&gt;Node306</title>
<path fill="none" stroke="midnightblue" d="M80.25,-254.14C152.94,-260.95 308.67,-275.55 391.71,-283.33"/>
<polygon fill="midnightblue" stroke="midnightblue" points="391.43,-286.82 401.71,-284.26 392.08,-279.85 391.43,-286.82"/>
</g>
<!-- Node307 -->
<g id="node25" class="node">
<title>Node307</title>
<g id="a_node25"><a xlink:href="quickjs_8c.html#ad13892c0a0f11781b566808876658099" target="_top" xlink:title=" ">
<polygon fill="none" stroke="red" points="558,-240.96 558,-259.96 707,-259.96 707,-240.96 558,-240.96"/>
<text text-anchor="middle" x="632.5" y="-247.96" font-family="Helvetica,sans-Serif" font-size="10.00">JS_GetOwnPropertyInternal</text>
</a>
</g>
</g>
<!-- Node1&#45;&gt;Node307 -->
<g id="edge54" class="edge">
<title>Node1&#45;&gt;Node307</title>
<path fill="none" stroke="midnightblue" d="M80.2,-250.46C175,-250.46 418.37,-250.46 547.73,-250.46"/>
<polygon fill="midnightblue" stroke="midnightblue" points="547.99,-253.96 557.99,-250.46 547.99,-246.96 547.99,-253.96"/>
</g>
<!-- Node132 -->
<g id="node28" class="node">
<title>Node132</title>
<g id="a_node28"><a xlink:href="quickjs_8h.html#a4e407128a9605afb77523e49e9a627fd" target="_top" xlink:title=" ">
<polygon fill="none" stroke="black" points="403,-126.96 403,-145.96 492,-145.96 492,-126.96 403,-126.96"/>
<text text-anchor="middle" x="447.5" y="-133.96" font-family="Helvetica,sans-Serif" font-size="10.00">JS_IsUndefined</text>
</a>
</g>
</g>
<!-- Node1&#45;&gt;Node132 -->
<g id="edge57" class="edge">
<title>Node1&#45;&gt;Node132</title>
<path fill="none" stroke="midnightblue" d="M47.25,-240.72C58.63,-223.92 84.5,-189.8 116,-174.46 205.64,-130.8 324.68,-128.74 392.7,-132.04"/>
<polygon fill="midnightblue" stroke="midnightblue" points="392.59,-135.53 402.77,-132.58 392.97,-128.55 392.59,-135.53"/>
</g>
<!-- Node224 -->
<g id="node29" class="node">
<title>Node224</title>
<g id="a_node29"><a xlink:href="quickjs_8c.html#a2bf30c9cddfe98a32535843202495069" target="_top" xlink:title=" ">
<polygon fill="none" stroke="black" points="405.5,-164.96 405.5,-183.96 489.5,-183.96 489.5,-164.96 405.5,-164.96"/>
<text text-anchor="middle" x="447.5" y="-171.96" font-family="Helvetica,sans-Serif" font-size="10.00">JS_ToBoolFree</text>
</a>
</g>
</g>
<!-- Node1&#45;&gt;Node224 -->
<g id="edge58" class="edge">
<title>Node1&#45;&gt;Node224</title>
<path fill="none" stroke="midnightblue" d="M51.15,-240.7C64.7,-228.36 90,-207.64 116,-198.46 210.23,-165.19 328.75,-166.02 395.21,-169.99"/>
<polygon fill="midnightblue" stroke="midnightblue" points="395.22,-173.5 405.42,-170.65 395.67,-166.52 395.22,-173.5"/>
</g>
<!-- Node316 -->
<g id="node30" class="node">
<title>Node316</title>
<g id="a_node30"><a xlink:href="quickjs_8c.html#adfe21c674d998ca6586b7f7400352dc4" target="_top" xlink:title=" ">
<polygon fill="none" stroke="black" points="116,-69.96 116,-88.96 193,-88.96 193,-69.96 116,-69.96"/>
<text text-anchor="middle" x="154.5" y="-76.96" font-family="Helvetica,sans-Serif" font-size="10.00">js_free_desc</text>
</a>
</g>
</g>
<!-- Node1&#45;&gt;Node316 -->
<g id="edge51" class="edge">
<title>Node1&#45;&gt;Node316</title>
<path fill="none" stroke="midnightblue" d="M45.88,-240.77C57.06,-218.88 85.92,-164.28 116,-122.46 122.37,-113.6 130.2,-104.41 137.06,-96.8"/>
<polygon fill="midnightblue" stroke="midnightblue" points="139.8,-99 144,-89.27 134.65,-94.25 139.8,-99"/>
</g>
<!-- Node3 -->
<g id="node3" class="node">
<title>Node3</title>
<g id="a_node3"><a xlink:href="quickjs_8c.html#af23ec7c9970ceb4671c59da7abd4b078" target="_top" xlink:title=" ">
<polygon fill="none" stroke="black" points="379,-810.96 379,-829.96 516,-829.96 516,-810.96 379,-810.96"/>
<text text-anchor="middle" x="447.5" y="-817.96" font-family="Helvetica,sans-Serif" font-size="10.00">js_check_stack_overflow</text>
</a>
</g>
</g>
<!-- Node2&#45;&gt;Node3 -->
<g id="edge2" class="edge">
<title>Node2&#45;&gt;Node3</title>
<path fill="none" stroke="midnightblue" d="M337.21,-807.68C347.31,-808.86 358.07,-810.12 368.75,-811.37"/>
<polygon fill="midnightblue" stroke="midnightblue" points="368.6,-814.88 378.94,-812.56 369.41,-807.92 368.6,-814.88"/>
</g>
<!-- Node2&#45;&gt;Node5 -->
<g id="edge4" class="edge">
<title>Node2&#45;&gt;Node5</title>
<path fill="none" stroke="midnightblue" d="M301.47,-810.98C319,-820.02 347.04,-833.15 373,-839.46 442.69,-856.4 525.8,-859.61 578.6,-859.62"/>
<polygon fill="midnightblue" stroke="midnightblue" points="578.76,-863.12 588.75,-859.59 578.74,-856.12 578.76,-863.12"/>
</g>
<!-- Node6 -->
<g id="node6" class="node">
<title>Node6</title>
<g id="a_node6"><a xlink:href="quickjs_8h.html#a149f24b67e745bad93573b3b4c80db4c" target="_top" xlink:title=" ">
<polygon fill="none" stroke="black" points="418,-772.96 418,-791.96 477,-791.96 477,-772.96 418,-772.96"/>
<text text-anchor="middle" x="447.5" y="-779.96" font-family="Helvetica,sans-Serif" font-size="10.00">JS_IsNull</text>
</a>
</g>
</g>
<!-- Node2&#45;&gt;Node6 -->
<g id="edge5" class="edge">
<title>Node2&#45;&gt;Node6</title>
<path fill="none" stroke="midnightblue" d="M337.21,-795.24C360.17,-792.55 386.54,-789.47 407.62,-787.01"/>
<polygon fill="midnightblue" stroke="midnightblue" points="408.29,-790.45 417.82,-785.81 407.48,-783.5 408.29,-790.45"/>
</g>
<!-- Node7 -->
<g id="node7" class="node">
<title>Node7</title>
<g id="a_node7"><a xlink:href="quickjs_8c.html#a8353f635fb8a20553c08db8cf38c17e0" target="_top" xlink:title=" ">
<polygon fill="none" stroke="black" points="382,-620.96 382,-639.96 513,-639.96 513,-620.96 382,-620.96"/>
<text text-anchor="middle" x="447.5" y="-627.96" font-family="Helvetica,sans-Serif" font-size="10.00">JS_ThrowStackOverflow</text>
</a>
</g>
</g>
<!-- Node2&#45;&gt;Node7 -->
<g id="edge6" class="edge">
<title>Node2&#45;&gt;Node7</title>
<path fill="none" stroke="midnightblue" d="M286.74,-791.87C294.96,-764.92 322.01,-687.99 373,-649.46 375.5,-647.58 378.16,-645.88 380.94,-644.34"/>
<polygon fill="midnightblue" stroke="midnightblue" points="382.6,-647.43 390.15,-640 379.62,-641.1 382.6,-647.43"/>
</g>
<!-- Node9 -->
<g id="node9" class="node">
<title>Node9</title>
<g id="a_node9"><a xlink:href="quickjs_8c.html#a199d64ccbee0a90d93e1ad12745417f6" target="_top" xlink:title=" ">
<polygon fill="none" stroke="black" points="373,-887.46 373,-917.46 522,-917.46 522,-887.46 373,-887.46"/>
<text text-anchor="start" x="381" y="-905.46" font-family="Helvetica,sans-Serif" font-size="10.00">JS_ThrowTypeErrorRevoked</text>
<text text-anchor="middle" x="447.5" y="-894.46" font-family="Helvetica,sans-Serif" font-size="10.00">Proxy</text>
</a>
</g>
</g>
<!-- Node2&#45;&gt;Node9 -->
<g id="edge8" class="edge">
<title>Node2&#45;&gt;Node9</title>
<path fill="none" stroke="midnightblue" d="M293.97,-811.02C309.73,-825.74 341.8,-854.16 373,-872.46 379.69,-876.38 386.98,-880.03 394.3,-883.33"/>
<polygon fill="midnightblue" stroke="midnightblue" points="392.97,-886.57 403.53,-887.33 395.75,-880.15 392.97,-886.57"/>
</g>
<!-- Node4 -->
<g id="node4" class="node">
<title>Node4</title>
<g id="a_node4"><a xlink:href="quickjs_8c.html#a36b8de436f88239e2e5515a3a423c6d9" target="_top" xlink:title=" ">
<polygon fill="none" stroke="black" points="574,-810.96 574,-829.96 691,-829.96 691,-810.96 574,-810.96"/>
<text text-anchor="middle" x="632.5" y="-817.96" font-family="Helvetica,sans-Serif" font-size="10.00">js_get_stack_pointer</text>
</a>
</g>
</g>
<!-- Node3&#45;&gt;Node4 -->
<g id="edge3" class="edge">
<title>Node3&#45;&gt;Node4</title>
<path fill="none" stroke="midnightblue" d="M516.12,-820.46C531.66,-820.46 548.18,-820.46 563.72,-820.46"/>
<polygon fill="midnightblue" stroke="midnightblue" points="563.77,-823.96 573.77,-820.46 563.77,-816.96 563.77,-823.96"/>
</g>
<!-- Node8 -->
<g id="node8" class="node">
<title>Node8</title>
<g id="a_node8"><a xlink:href="quickjs_8c.html#a853f0924d441ea4225488f37c8b69f9a" target="_top" xlink:title=" ">
<polygon fill="none" stroke="black" points="592.5,-620.96 592.5,-639.96 672.5,-639.96 672.5,-620.96 592.5,-620.96"/>
<text text-anchor="middle" x="632.5" y="-627.96" font-family="Helvetica,sans-Serif" font-size="10.00">__attribute__</text>
</a>
</g>
</g>
<!-- Node7&#45;&gt;Node8 -->
<g id="edge7" class="edge">
<title>Node7&#45;&gt;Node8</title>
<path fill="none" stroke="midnightblue" d="M513.02,-630.46C535.75,-630.46 560.91,-630.46 582.18,-630.46"/>
<polygon fill="midnightblue" stroke="midnightblue" points="582.29,-633.96 592.29,-630.46 582.29,-626.96 582.29,-633.96"/>
</g>
<!-- Node11 -->
<g id="node11" class="node">
<title>Node11</title>
<g id="a_node11"><a xlink:href="quickjs_8c.html#a06ff303a11e6641cbf1f6634e6a61811" target="_top" xlink:title=" ">
<polygon fill="none" stroke="black" points="580,-316.96 580,-335.96 685,-335.96 685,-316.96 580,-316.96"/>
<text text-anchor="middle" x="632.5" y="-323.96" font-family="Helvetica,sans-Serif" font-size="10.00">__JS_AtomToValue</text>
</a>
</g>
</g>
<!-- Node10&#45;&gt;Node11 -->
<g id="edge10" class="edge">
<title>Node10&#45;&gt;Node11</title>
<path fill="none" stroke="midnightblue" d="M495.15,-326.46C517.76,-326.46 545.22,-326.46 569.56,-326.46"/>
<polygon fill="midnightblue" stroke="midnightblue" points="569.77,-329.96 579.77,-326.46 569.77,-322.96 569.77,-329.96"/>
</g>
<!-- Node12 -->
<g id="node12" class="node">
<title>Node12</title>
<g id="a_node12"><a xlink:href="quickjs_8c.html#a288254c06a39c9fca740a7abdad2834e" target="_top" xlink:title=" ">
<polygon fill="none" stroke="black" points="779,-240.96 779,-259.96 902,-259.96 902,-240.96 779,-240.96"/>
<text text-anchor="middle" x="840.5" y="-247.96" font-family="Helvetica,sans-Serif" font-size="10.00">__JS_AtomIsTaggedInt</text>
</a>
</g>
</g>
<!-- Node11&#45;&gt;Node12 -->
<g id="edge11" class="edge">
<title>Node11&#45;&gt;Node12</title>
<path fill="none" stroke="midnightblue" d="M648.47,-316.9C669,-304.2 707.4,-281.94 743,-269.46 751.25,-266.57 760.07,-264.07 768.89,-261.93"/>
<polygon fill="midnightblue" stroke="midnightblue" points="769.85,-265.3 778.82,-259.66 768.29,-258.48 769.85,-265.3"/>
</g>
<!-- Node13 -->
<g id="node13" class="node">
<title>Node13</title>
<g id="a_node13"><a xlink:href="quickjs_8c.html#a89f38938cee8077ce1fbba07946ed185" target="_top" xlink:title=" ">
<polygon fill="none" stroke="black" points="785.5,-278.96 785.5,-297.96 895.5,-297.96 895.5,-278.96 785.5,-278.96"/>
<text text-anchor="middle" x="840.5" y="-285.96" font-family="Helvetica,sans-Serif" font-size="10.00">__JS_AtomToUInt32</text>
</a>
</g>
</g>
<!-- Node11&#45;&gt;Node13 -->
<g id="edge12" class="edge">
<title>Node11&#45;&gt;Node13</title>
<path fill="none" stroke="midnightblue" d="M685.22,-316.92C713.26,-311.75 748.1,-305.32 777.58,-299.88"/>
<polygon fill="midnightblue" stroke="midnightblue" points="778.56,-303.26 787.76,-298.01 777.29,-296.38 778.56,-303.26"/>
</g>
<!-- Node14 -->
<g id="node14" class="node">
<title>Node14</title>
<g id="a_node14"><a xlink:href="quickjs_8h.html#a775522f2d084fc8fa0fcb33f390006b4" target="_top" xlink:title=" ">
<polygon fill="none" stroke="black" points="802,-392.96 802,-411.96 879,-411.96 879,-392.96 802,-392.96"/>
<text text-anchor="middle" x="840.5" y="-399.96" font-family="Helvetica,sans-Serif" font-size="10.00">JS_DupValue</text>
</a>
</g>
</g>
<!-- Node11&#45;&gt;Node14 -->
<g id="edge13" class="edge">
<title>Node11&#45;&gt;Node14</title>
<path fill="none" stroke="midnightblue" d="M648.47,-336.03C669,-348.72 707.4,-370.98 743,-383.46 758.47,-388.88 775.9,-392.91 791.65,-395.83"/>
<polygon fill="midnightblue" stroke="midnightblue" points="791.27,-399.31 801.72,-397.59 792.47,-392.42 791.27,-399.31"/>
</g>
<!-- Node15 -->
<g id="node15" class="node">
<title>Node15</title>
<g id="a_node15"><a xlink:href="quickjs_8c.html#a0ee6a3654a6016393fac5e1c108f403a" target="_top" xlink:title=" ">
<polygon fill="none" stroke="red" points="800,-563.96 800,-582.96 881,-582.96 881,-563.96 800,-563.96"/>
<text text-anchor="middle" x="840.5" y="-570.96" font-family="Helvetica,sans-Serif" font-size="10.00">JS_NewString</text>
</a>
</g>
</g>
<!-- Node11&#45;&gt;Node15 -->
<g id="edge14" class="edge">
<title>Node11&#45;&gt;Node15</title>
<path fill="none" stroke="midnightblue" d="M641.58,-336.14C672.66,-373.42 784.86,-507.95 825.05,-556.14"/>
<polygon fill="midnightblue" stroke="midnightblue" points="822.39,-558.41 831.48,-563.85 827.76,-553.92 822.39,-558.41"/>
</g>
<!-- Node39 -->
<g id="node17" class="node">
<title>Node39</title>
<g id="a_node17"><a xlink:href="quickjs_8c.html#ac2894ff4edcdb4e6841bcce9c76081e3" target="_top" xlink:title=" ">
<polygon fill="none" stroke="red" points="239.5,-449.96 239.5,-468.96 326.5,-468.96 326.5,-449.96 239.5,-449.96"/>
<text text-anchor="middle" x="283" y="-456.96" font-family="Helvetica,sans-Serif" font-size="10.00">JS_CallInternal</text>
</a>
</g>
</g>
<!-- Node38&#45;&gt;Node39 -->
<g id="edge16" class="edge">
<title>Node38&#45;&gt;Node39</title>
<path fill="none" stroke="midnightblue" d="M190.07,-411.95C212.85,-421.09 241.92,-434.5 261.21,-444.94"/>
<polygon fill="midnightblue" stroke="midnightblue" points="259.64,-448.07 270.07,-449.94 263.08,-441.97 259.64,-448.07"/>
</g>
<!-- Node38&#45;&gt;Node86 -->
<g id="edge50" class="edge">
<title>Node38&#45;&gt;Node86</title>
<path fill="none" stroke="midnightblue" d="M159.1,-392.83C175.56,-350.35 248.32,-179.15 373,-117.46 446.36,-81.17 545.95,-106.03 597.48,-123.48"/>
<polygon fill="midnightblue" stroke="midnightblue" points="596.53,-126.85 607.13,-126.85 598.84,-120.24 596.53,-126.85"/>
</g>
<!-- Node39&#45;&gt;Node3 -->
<g id="edge30" class="edge">
<title>Node39&#45;&gt;Node3</title>
<path fill="none" stroke="midnightblue" d="M285.18,-469.07C291.58,-519.37 323.5,-752.04 373,-801.46 374.43,-802.89 375.96,-804.22 377.56,-805.45"/>
<polygon fill="midnightblue" stroke="midnightblue" points="375.81,-808.49 386.14,-810.85 379.54,-802.56 375.81,-808.49"/>
</g>
<!-- Node39&#45;&gt;Node5 -->
<g id="edge42" class="edge">
<title>Node39&#45;&gt;Node5</title>
<path fill="none" stroke="midnightblue" d="M284.29,-469.13C285.96,-507.02 297.21,-646.84 373,-719.46 422.86,-767.23 469.54,-718.57 522,-763.46 550.4,-787.76 529.19,-815.65 558,-839.46 564.14,-844.54 571.48,-848.28 579.12,-851.03"/>
<polygon fill="midnightblue" stroke="midnightblue" points="578.28,-854.43 588.87,-854.01 580.33,-847.74 578.28,-854.43"/>
</g>
<!-- Node39&#45;&gt;Node6 -->
<g id="edge43" class="edge">
<title>Node39&#45;&gt;Node6</title>
<path fill="none" stroke="midnightblue" d="M283.85,-469.05C283.76,-510 288.92,-672.14 373,-758.46 382.24,-767.95 395.27,-773.68 407.8,-777.16"/>
<polygon fill="midnightblue" stroke="midnightblue" points="407.12,-780.59 417.66,-779.48 408.73,-773.78 407.12,-780.59"/>
</g>
<!-- Node39&#45;&gt;Node7 -->
<g id="edge47" class="edge">
<title>Node39&#45;&gt;Node7</title>
<path fill="none" stroke="midnightblue" d="M287.22,-469.34C296.29,-495.65 324.63,-568.06 373,-606.46 378.37,-610.72 384.52,-614.24 390.93,-617.14"/>
<polygon fill="midnightblue" stroke="midnightblue" points="389.85,-620.48 400.44,-620.96 392.46,-613.98 389.85,-620.48"/>
</g>
<!-- Node39&#45;&gt;Node8 -->
<g id="edge17" class="edge">
<title>Node39&#45;&gt;Node8</title>
<path fill="none" stroke="midnightblue" d="M288.65,-469.26C299.79,-491.62 330.31,-546.55 373,-573.46 390.6,-584.56 512.66,-608.48 582.58,-621.53"/>
<polygon fill="midnightblue" stroke="midnightblue" points="582.02,-624.98 592.5,-623.37 583.3,-618.1 582.02,-624.98"/>
</g>
<!-- Node39&#45;&gt;Node10 -->
<g id="edge27" class="edge">
<title>Node39&#45;&gt;Node10</title>
<path fill="none" stroke="midnightblue" d="M289.31,-449.74C301.36,-428.57 332.9,-377.95 373,-350.46 379.24,-346.18 386.3,-342.63 393.51,-339.68"/>
<polygon fill="midnightblue" stroke="midnightblue" points="395.21,-342.78 403.38,-336.03 392.78,-336.22 395.21,-342.78"/>
</g>
<!-- Node39&#45;&gt;Node14 -->
<g id="edge31" class="edge">
<title>Node39&#45;&gt;Node14</title>
<path fill="none" stroke="midnightblue" d="M300.72,-469.04C318.13,-478.41 346.5,-492.04 373,-497.46 519.63,-527.46 564.07,-498.86 707,-454.46 742.36,-443.48 781.73,-427.53 808.29,-416.2"/>
<polygon fill="midnightblue" stroke="midnightblue" points="810.01,-419.27 817.81,-412.1 807.24,-412.84 810.01,-419.27"/>
</g>
<!-- Node39&#45;&gt;Node38 -->
<g id="edge28" class="edge">
<title>Node39&#45;&gt;Node38</title>
<path fill="none" stroke="midnightblue" d="M247.34,-449.94C224.66,-440.83 195.75,-427.5 176.49,-417.09"/>
<polygon fill="midnightblue" stroke="midnightblue" points="178.06,-413.96 167.63,-412.11 174.63,-420.06 178.06,-413.96"/>
</g>
<!-- Node39&#45;&gt;Node39 -->
<g id="edge29" class="edge">
<title>Node39&#45;&gt;Node39</title>
<path fill="none" stroke="midnightblue" d="M263.27,-469.22C253.67,-478.03 260.25,-487.46 283,-487.46 297.57,-487.46 305.51,-483.59 306.81,-478.49"/>
<polygon fill="midnightblue" stroke="midnightblue" points="309.96,-476.96 302.73,-469.22 303.55,-479.78 309.96,-476.96"/>
</g>
<!-- Node40 -->
<g id="node18" class="node">
<title>Node40</title>
<g id="a_node18"><a xlink:href="quickjs_8c.html#a877fcb7651d95b411ce70e62b7f4a1f0" target="_top" xlink:title=" ">
<polygon fill="none" stroke="black" points="385,-544.96 385,-563.96 510,-563.96 510,-544.96 385,-544.96"/>
<text text-anchor="middle" x="447.5" y="-551.96" font-family="Helvetica,sans-Serif" font-size="10.00">__JS_AtomFromUInt32</text>
</a>
</g>
</g>
<!-- Node39&#45;&gt;Node40 -->
<g id="edge18" class="edge">
<title>Node39&#45;&gt;Node40</title>
<path fill="none" stroke="midnightblue" d="M293.56,-469.05C309.02,-484.07 340.99,-513.2 373,-530.46 381.07,-534.81 390.06,-538.55 398.92,-541.69"/>
<polygon fill="midnightblue" stroke="midnightblue" points="397.82,-545.02 408.42,-544.87 400.04,-538.38 397.82,-545.02"/>
</g>
<!-- Node41 -->
<g id="node19" class="node">
<title>Node41</title>
<g id="a_node19"><a xlink:href="quickjs_8h.html#a9bf98b18de88b4199910a43e933eb97d" target="_top" xlink:title=" ">
<polygon fill="none" stroke="black" points="397.5,-468.96 397.5,-487.96 497.5,-487.96 497.5,-468.96 397.5,-468.96"/>
<text text-anchor="middle" x="447.5" y="-475.96" font-family="Helvetica,sans-Serif" font-size="10.00">__JS_NewFloat64</text>
</a>
</g>
</g>
<!-- Node39&#45;&gt;Node41 -->
<g id="edge19" class="edge">
<title>Node39&#45;&gt;Node41</title>
<path fill="none" stroke="midnightblue" d="M326.69,-464.45C345.28,-466.63 367.36,-469.21 387.48,-471.56"/>
<polygon fill="midnightblue" stroke="midnightblue" points="387.14,-475.04 397.48,-472.73 387.95,-468.09 387.14,-475.04"/>
</g>
<!-- Node42 -->
<g id="node20" class="node">
<title>Node42</title>
<g id="a_node20"><a xlink:href="quickjs_8c.html#a74547db03bf739a52c83a326b32db997" target="_top" xlink:title=" ">
<polygon fill="none" stroke="red" points="407,-392.96 407,-411.96 488,-411.96 488,-392.96 407,-392.96"/>
<text text-anchor="middle" x="447.5" y="-399.96" font-family="Helvetica,sans-Serif" font-size="10.00">add_property</text>
</a>
</g>
</g>
<!-- Node39&#45;&gt;Node42 -->
<g id="edge20" class="edge">
<title>Node39&#45;&gt;Node42</title>
<path fill="none" stroke="midnightblue" d="M308.84,-449.95C326.64,-443.21 351.21,-434.05 373,-426.46 383.87,-422.67 395.7,-418.73 406.64,-415.16"/>
<polygon fill="midnightblue" stroke="midnightblue" points="407.94,-418.42 416.37,-412 405.78,-411.76 407.94,-418.42"/>
</g>
<!-- Node94 -->
<g id="node21" class="node">
<title>Node94</title>
<g id="a_node21"><a xlink:href="quickjs_8c.html#a4956f45ffd2849b96dc051277264f87a" target="_top" xlink:title=" ">
<polygon fill="none" stroke="red" points="406.5,-658.96 406.5,-677.96 488.5,-677.96 488.5,-658.96 406.5,-658.96"/>
<text text-anchor="middle" x="447.5" y="-665.96" font-family="Helvetica,sans-Serif" font-size="10.00">build_arg_list</text>
</a>
</g>
</g>
<!-- Node39&#45;&gt;Node94 -->
<g id="edge21" class="edge">
<title>Node39&#45;&gt;Node94</title>
<path fill="none" stroke="midnightblue" d="M285.56,-469.11C291.13,-500.35 313.02,-599.67 373,-649.46 379.71,-655.03 387.85,-658.99 396.25,-661.8"/>
<polygon fill="midnightblue" stroke="midnightblue" points="395.57,-665.24 406.14,-664.59 397.47,-658.51 395.57,-665.24"/>
</g>
<!-- Node166 -->
<g id="node22" class="node">
<title>Node166</title>
<g id="a_node22"><a xlink:href="quickjs_8c.html#a61c8dfb5e807af1b6ff7d8ca61576dda" target="_top" xlink:title=" ">
<polygon fill="none" stroke="red" points="585.5,-696.96 585.5,-715.96 679.5,-715.96 679.5,-696.96 585.5,-696.96"/>
<text text-anchor="middle" x="632.5" y="-703.96" font-family="Helvetica,sans-Serif" font-size="10.00">build_backtrace</text>
</a>
</g>
</g>
<!-- Node39&#45;&gt;Node166 -->
<g id="edge25" class="edge">
<title>Node39&#45;&gt;Node166</title>
<path fill="none" stroke="midnightblue" d="M284.37,-469.4C286.34,-505.79 298.48,-632.44 373,-687.46 432.64,-731.5 522.57,-726.72 579.11,-717.73"/>
<polygon fill="midnightblue" stroke="midnightblue" points="579.99,-721.13 589.27,-716.01 578.82,-714.22 579.99,-721.13"/>
</g>
<!-- Node39&#45;&gt;Node86 -->
<g id="edge32" class="edge">
<title>Node39&#45;&gt;Node86</title>
<path fill="none" stroke="midnightblue" d="M286.12,-449.9C293.27,-419.73 319.07,-325.24 373,-269.46 424.68,-216.02 455.92,-227.51 522,-193.46 550.05,-179.01 582.05,-162.33 604.18,-150.76"/>
<polygon fill="midnightblue" stroke="midnightblue" points="606.07,-153.72 613.31,-145.99 602.83,-147.52 606.07,-153.72"/>
</g>
<!-- Node39&#45;&gt;Node306 -->
<g id="edge33" class="edge">
<title>Node39&#45;&gt;Node306</title>
<path fill="none" stroke="midnightblue" d="M286.74,-449.87C294.96,-422.92 322.01,-345.99 373,-307.46 378.78,-303.09 385.47,-299.72 392.42,-297.13"/>
<polygon fill="midnightblue" stroke="midnightblue" points="393.53,-300.44 401.98,-294.04 391.38,-293.78 393.53,-300.44"/>
</g>
<!-- Node156 -->
<g id="node26" class="node">
<title>Node156</title>
<g id="a_node26"><a xlink:href="quickjs_8h.html#aaab426b47c95d00479b7355b1cf7f56c" target="_top" xlink:title=" ">
<polygon fill="none" stroke="black" points="790,-354.96 790,-373.96 891,-373.96 891,-354.96 790,-354.96"/>
<text text-anchor="middle" x="840.5" y="-361.96" font-family="Helvetica,sans-Serif" font-size="10.00">JS_IsUninitialized</text>
</a>
</g>
</g>
<!-- Node39&#45;&gt;Node156 -->
<g id="edge45" class="edge">
<title>Node39&#45;&gt;Node156</title>
<path fill="none" stroke="midnightblue" d="M326.6,-452.91C374.26,-445.53 453.72,-433.04 522,-421.46 612.02,-406.2 716.14,-387.26 779.91,-375.51"/>
<polygon fill="midnightblue" stroke="midnightblue" points="780.58,-378.95 789.78,-373.69 779.31,-372.06 780.58,-378.95"/>
</g>
<!-- Node163 -->
<g id="node27" class="node">
<title>Node163</title>
<g id="a_node27"><a xlink:href="quickjs_8c.html#a75ac132a3af4de01e1fadeb0bede6ee7" target="_top" xlink:title=" ">
<polygon fill="none" stroke="red" points="743,-316.96 743,-335.96 938,-335.96 938,-316.96 743,-316.96"/>
<text text-anchor="middle" x="840.5" y="-323.96" font-family="Helvetica,sans-Serif" font-size="10.00">JS_ThrowReferenceErrorUninitialized</text>
</a>
</g>
</g>
<!-- Node39&#45;&gt;Node163 -->
<g id="edge46" class="edge">
<title>Node39&#45;&gt;Node163</title>
<path fill="none" stroke="midnightblue" d="M291.86,-449.71C306.05,-432.9 337.78,-398.77 373,-383.46 510.02,-323.9 558.82,-364.51 707,-345.46 726.05,-343.01 746.61,-340.16 765.72,-337.43"/>
<polygon fill="midnightblue" stroke="midnightblue" points="766.46,-340.86 775.86,-335.97 765.47,-333.93 766.46,-340.86"/>
</g>
<!-- Node39&#45;&gt;Node132 -->
<g id="edge44" class="edge">
<title>Node39&#45;&gt;Node132</title>
<path fill="none" stroke="midnightblue" d="M286.56,-449.74C299.94,-398.98 361.74,-166.37 373,-155.46 378.66,-149.98 385.68,-146.02 393.12,-143.18"/>
<polygon fill="midnightblue" stroke="midnightblue" points="394.23,-146.5 402.7,-140.13 392.11,-139.83 394.23,-146.5"/>
</g>
<!-- Node39&#45;&gt;Node224 -->
<g id="edge48" class="edge">
<title>Node39&#45;&gt;Node224</title>
<path fill="none" stroke="midnightblue" d="M286.08,-449.73C293.43,-417.03 320.57,-309.15 373,-236.46 386.51,-217.73 406.89,-201.13 422.77,-189.83"/>
<polygon fill="midnightblue" stroke="midnightblue" points="424.8,-192.68 431.05,-184.12 420.83,-186.92 424.8,-192.68"/>
</g>
<!-- Node94&#45;&gt;Node5 -->
<g id="edge24" class="edge">
<title>Node94&#45;&gt;Node5</title>
<path fill="none" stroke="midnightblue" d="M464.52,-678.14C481.13,-688.95 506.76,-707.92 522,-730.46 550.58,-772.73 520.75,-804.6 558,-839.46 563.95,-845.03 571.32,-849.02 579.07,-851.87"/>
<polygon fill="midnightblue" stroke="midnightblue" points="578.05,-855.22 588.64,-854.8 580.11,-848.52 578.05,-855.22"/>
</g>
<!-- Node94&#45;&gt;Node8 -->
<g id="edge22" class="edge">
<title>Node94&#45;&gt;Node8</title>
<path fill="none" stroke="midnightblue" d="M488.66,-660.12C516.24,-654.4 553.01,-646.76 582.34,-640.67"/>
<polygon fill="midnightblue" stroke="midnightblue" points="583.3,-644.05 592.38,-638.59 581.87,-637.19 583.3,-644.05"/>
</g>
<!-- Node94&#45;&gt;Node14 -->
<g id="edge23" class="edge">
<title>Node94&#45;&gt;Node14</title>
<path fill="none" stroke="midnightblue" d="M488.92,-677.76C544.02,-687.94 643.16,-697.09 707,-649.46 743.19,-622.46 722.8,-594.84 743,-554.46 768.51,-503.48 806.65,-447.99 826.48,-420.29"/>
<polygon fill="midnightblue" stroke="midnightblue" points="829.44,-422.17 832.46,-412.01 823.76,-418.07 829.44,-422.17"/>
</g>
<!-- Node166&#45;&gt;Node15 -->
<g id="edge26" class="edge">
<title>Node166&#45;&gt;Node15</title>
<path fill="none" stroke="midnightblue" d="M672.02,-696.85C683.64,-693.17 696.17,-688.4 707,-682.46 753.69,-656.84 799.79,-613.84 823.35,-590.23"/>
<polygon fill="midnightblue" stroke="midnightblue" points="825.93,-592.61 830.45,-583.02 820.94,-587.7 825.93,-592.61"/>
</g>
<!-- Node306&#45;&gt;Node14 -->
<g id="edge34" class="edge">
<title>Node306&#45;&gt;Node14</title>
<path fill="none" stroke="midnightblue" d="M493.11,-279.12C548.41,-270.17 643.16,-263.7 707,-307.46 737.83,-328.59 713.51,-360.5 743,-383.46 756.72,-394.14 774.81,-399.33 791.6,-401.71"/>
<polygon fill="midnightblue" stroke="midnightblue" points="791.52,-405.22 801.84,-402.85 792.29,-398.27 791.52,-405.22"/>
</g>
<!-- Node306&#45;&gt;Node86 -->
<g id="edge35" class="edge">
<title>Node306&#45;&gt;Node86</title>
<path fill="none" stroke="midnightblue" d="M491.14,-278.88C501.76,-275.35 512.74,-270.65 522,-264.46 545.12,-249 594.34,-185.84 618.11,-154.41"/>
<polygon fill="midnightblue" stroke="midnightblue" points="621.14,-156.2 624.35,-146.1 615.54,-151.99 621.14,-156.2"/>
</g>
<!-- Node306&#45;&gt;Node307 -->
<g id="edge36" class="edge">
<title>Node306&#45;&gt;Node307</title>
<path fill="none" stroke="midnightblue" d="M493.27,-279.17C518.13,-274 549.29,-267.53 575.73,-262.04"/>
<polygon fill="midnightblue" stroke="midnightblue" points="576.53,-265.45 585.6,-259.99 575.1,-258.6 576.53,-265.45"/>
</g>
<!-- Node307&#45;&gt;Node12 -->
<g id="edge37" class="edge">
<title>Node307&#45;&gt;Node12</title>
<path fill="none" stroke="midnightblue" d="M707.29,-250.46C727.25,-250.46 748.8,-250.46 768.59,-250.46"/>
<polygon fill="midnightblue" stroke="midnightblue" points="768.77,-253.96 778.77,-250.46 768.77,-246.96 768.77,-253.96"/>
</g>
<!-- Node307&#45;&gt;Node13 -->
<g id="edge38" class="edge">
<title>Node307&#45;&gt;Node13</title>
<path fill="none" stroke="midnightblue" d="M685.22,-260C713.26,-265.17 748.1,-271.6 777.58,-277.04"/>
<polygon fill="midnightblue" stroke="midnightblue" points="777.29,-280.55 787.76,-278.92 778.56,-273.66 777.29,-280.55"/>
</g>
<!-- Node307&#45;&gt;Node14 -->
<g id="edge39" class="edge">
<title>Node307&#45;&gt;Node14</title>
<path fill="none" stroke="midnightblue" d="M684.12,-260.01C692.56,-263.44 700.63,-268.11 707,-274.46 743.14,-310.48 704.75,-349.7 743,-383.46 756.15,-395.06 774.27,-400.42 791.27,-402.66"/>
<polygon fill="midnightblue" stroke="midnightblue" points="791.35,-406.19 801.65,-403.69 792.04,-399.22 791.35,-406.19"/>
</g>
<!-- Node307&#45;&gt;Node156 -->
<g id="edge40" class="edge">
<title>Node307&#45;&gt;Node156</title>
<path fill="none" stroke="midnightblue" d="M681.46,-260.09C690.64,-263.52 699.66,-268.17 707,-274.46 733.86,-297.48 714.79,-324.11 743,-345.46 753.63,-353.51 766.76,-358.42 779.87,-361.35"/>
<polygon fill="midnightblue" stroke="midnightblue" points="779.37,-364.82 789.84,-363.22 780.66,-357.94 779.37,-364.82"/>
</g>
<!-- Node307&#45;&gt;Node163 -->
<g id="edge41" class="edge">
<title>Node307&#45;&gt;Node163</title>
<path fill="none" stroke="midnightblue" d="M673.36,-260.08C684.66,-263.7 696.68,-268.43 707,-274.46 725.74,-285.41 723.63,-297.67 743,-307.46 747.81,-309.89 752.9,-312.01 758.13,-313.86"/>
<polygon fill="midnightblue" stroke="midnightblue" points="757.07,-317.2 767.66,-316.91 759.2,-310.53 757.07,-317.2"/>
</g>
<!-- Node224&#45;&gt;Node86 -->
<g id="edge49" class="edge">
<title>Node224&#45;&gt;Node86</title>
<path fill="none" stroke="midnightblue" d="M489.57,-165.93C517.19,-160.2 553.72,-152.61 582.81,-146.57"/>
<polygon fill="midnightblue" stroke="midnightblue" points="583.68,-149.97 592.76,-144.51 582.26,-143.11 583.68,-149.97"/>
</g>
<!-- Node316&#45;&gt;Node86 -->
<g id="edge52" class="edge">
<title>Node316&#45;&gt;Node86</title>
<path fill="none" stroke="midnightblue" d="M193.07,-74.77C260.16,-67.53 404.55,-57.15 522,-84.46 553.43,-91.77 586.48,-108.97 607.95,-121.6"/>
<polygon fill="midnightblue" stroke="midnightblue" points="606.3,-124.69 616.67,-126.86 609.91,-118.7 606.3,-124.69"/>
</g>
</g>
</svg>
