<?xml version="1.0" encoding="UTF-8" standalone="no"?>
<!DOCTYPE svg PUBLIC "-//W3C//DTD SVG 1.1//EN"
 "http://www.w3.org/Graphics/SVG/1.1/DTD/svg11.dtd">
<!-- Generated by graphviz version 2.43.0 (0)
 -->
<!-- Title: js_typed_array_find Pages: 1 -->
<!--zoomable 1066 -->
<svg id="main" version="1.1" xmlns="http://www.w3.org/2000/svg" xmlns:xlink="http://www.w3.org/1999/xlink" xml:space="preserve" onload="init(evt)">
<style type="text/css"><![CDATA[
.edge:hover path { stroke: red; }
.edge:hover polygon { stroke: red; fill: red; }
]]></style>
<script type="text/javascript"><![CDATA[
var edges = document.getElementsByTagName('g');
if (edges && edges.length) {
  for (var i=0;i<edges.length;i++) {
    if (edges[i].id.substr(0,4)=='edge') {
      edges[i].setAttribute('class','edge');
    }
  }
}
]]></script>
        <defs>
                <circle id="rim" cx="0" cy="0" r="7"/>
                <circle id="rim2" cx="0" cy="0" r="3.5"/>
                <g id="zoomPlus">
                        <use xlink:href="#rim" fill="#404040">
                                <set attributeName="fill" to="#808080" begin="zoomplus.mouseover" end="zoomplus.mouseout"/>
                        </use>
                        <path d="M-4,0h8M0,-4v8" fill="none" stroke="white" stroke-width="1.5" pointer-events="none"/>
                </g>
                <g id="zoomMin">
                        <use xlink:href="#rim" fill="#404040">
                                <set attributeName="fill" to="#808080" begin="zoomminus.mouseover" end="zoomminus.mouseout"/>
                        </use>
                        <path d="M-4,0h8" fill="none" stroke="white" stroke-width="1.5" pointer-events="none"/>
                </g>
                <g id="dirArrow">
                        <path fill="none" stroke="white" stroke-width="1.5" d="M0,-3.0v7 M-2.5,-0.5L0,-3.0L2.5,-0.5"/>
                </g>
               <g id="resetDef">
                       <use xlink:href="#rim2" fill="#404040">
                               <set attributeName="fill" to="#808080" begin="reset.mouseover" end="reset.mouseout"/>
                       </use>
               </g>
        </defs>

<script type="text/javascript">
var viewWidth = 899;
var viewHeight = 1066;
var sectionId = 'dynsection-1889';
</script>
<script xlink:href="svgpan.js"/>
<svg id="graph" class="graph">
<g id="viewport">
<title>js_typed_array_find</title>
<!-- Node1 -->
<g id="node1" class="node">
<title>Node1</title>
<g id="a_node1"><a xlink:title=" ">
<polygon fill="#bfbfbf" stroke="black" points="0,-411 0,-430 112,-430 112,-411 0,-411"/>
<text text-anchor="middle" x="56" y="-418" font-family="Helvetica,sans-Serif" font-size="10.00">js_typed_array_find</text>
</a>
</g>
</g>
<!-- Node2 -->
<g id="node2" class="node">
<title>Node2</title>
<g id="a_node2"><a xlink:href="quickjs_8c.html#a59a7e992f228759bf0a56f0aae4f3cc3" target="_top" xlink:title=" ">
<polygon fill="none" stroke="black" points="158,-1038 158,-1057 248,-1057 248,-1038 158,-1038"/>
<text text-anchor="middle" x="203" y="-1045" font-family="Helvetica,sans-Serif" font-size="10.00">check_function</text>
</a>
</g>
</g>
<!-- Node1&#45;&gt;Node2 -->
<g id="edge1" class="edge">
<title>Node1&#45;&gt;Node2</title>
<path fill="none" stroke="midnightblue" d="M57.21,-430.01C58.95,-499.14 72.6,-924.56 148,-1023.5 150.77,-1027.13 154.21,-1030.23 158,-1032.86"/>
<polygon fill="midnightblue" stroke="midnightblue" points="156.33,-1035.94 166.74,-1037.92 159.84,-1029.88 156.33,-1035.94"/>
</g>
<!-- Node4 -->
<g id="node4" class="node">
<title>Node4</title>
<g id="a_node4"><a xlink:href="quickjs_8c.html#a1a4c02a29525d5cb2085dd8bca3af350" target="_top" xlink:title=" ">
<polygon fill="none" stroke="black" points="178,-563 178,-582 228,-582 228,-563 178,-563"/>
<text text-anchor="middle" x="203" y="-570" font-family="Helvetica,sans-Serif" font-size="10.00">JS_Call</text>
</a>
</g>
</g>
<!-- Node1&#45;&gt;Node4 -->
<g id="edge3" class="edge">
<title>Node1&#45;&gt;Node4</title>
<path fill="none" stroke="midnightblue" d="M66.07,-430.01C90.08,-455.17 155.51,-523.76 185.98,-555.71"/>
<polygon fill="midnightblue" stroke="midnightblue" points="183.5,-558.18 192.93,-563 188.56,-553.34 183.5,-558.18"/>
</g>
<!-- Node59 -->
<g id="node12" class="node">
<title>Node59</title>
<g id="a_node12"><a xlink:href="quickjs_8h.html#afaa20c47565bc704c6c85f3d77254e7d" target="_top" xlink:title=" ">
<polygon fill="none" stroke="red" points="789,-202 789,-221 868,-221 868,-202 789,-202"/>
<text text-anchor="middle" x="828.5" y="-209" font-family="Helvetica,sans-Serif" font-size="10.00">JS_FreeValue</text>
</a>
</g>
</g>
<!-- Node1&#45;&gt;Node59 -->
<g id="edge48" class="edge">
<title>Node1&#45;&gt;Node59</title>
<path fill="none" stroke="midnightblue" d="M57.6,-410.52C60.36,-373.93 75.06,-246.04 148,-183.5 224.47,-117.93 268.77,-135.5 369.5,-135.5 369.5,-135.5 369.5,-135.5 542,-135.5 637.89,-135.5 745.99,-176.03 797.32,-197.9"/>
<polygon fill="midnightblue" stroke="midnightblue" points="795.95,-201.12 806.52,-201.87 798.73,-194.69 795.95,-201.12"/>
</g>
<!-- Node77 -->
<g id="node14" class="node">
<title>Node77</title>
<g id="a_node14"><a xlink:href="quickjs_8h.html#ad80a83d73e9b7d872b88fbf2943aebe9" target="_top" xlink:title=" ">
<polygon fill="none" stroke="black" points="785,-477 785,-496 872,-496 872,-477 785,-477"/>
<text text-anchor="middle" x="828.5" y="-484" font-family="Helvetica,sans-Serif" font-size="10.00">JS_IsException</text>
</a>
</g>
</g>
<!-- Node1&#45;&gt;Node77 -->
<g id="edge50" class="edge">
<title>Node1&#45;&gt;Node77</title>
<path fill="none" stroke="midnightblue" d="M66.21,-410.82C101.65,-374.64 234.06,-249.5 369.5,-249.5 369.5,-249.5 369.5,-249.5 542,-249.5 625.98,-249.5 661.92,-219.33 730,-268.5 797.1,-316.96 818.84,-422.4 825.16,-466.49"/>
<polygon fill="midnightblue" stroke="midnightblue" points="821.71,-467.07 826.48,-476.53 828.65,-466.16 821.71,-467.07"/>
</g>
<!-- Node78 -->
<g id="node16" class="node">
<title>Node78</title>
<g id="a_node16"><a xlink:href="quickjs_8h.html#a2050bc428da1c65ac7eb87c3fa3b0392" target="_top" xlink:title=" ">
<polygon fill="none" stroke="black" points="790,-924 790,-943 867,-943 867,-924 790,-924"/>
<text text-anchor="middle" x="828.5" y="-931" font-family="Helvetica,sans-Serif" font-size="10.00">JS_NewInt32</text>
</a>
</g>
</g>
<!-- Node1&#45;&gt;Node78 -->
<g id="edge51" class="edge">
<title>Node1&#45;&gt;Node78</title>
<path fill="none" stroke="midnightblue" d="M57.4,-430.23C61.09,-506.81 95.73,-1009.5 369.5,-1009.5 369.5,-1009.5 369.5,-1009.5 542,-1009.5 625.98,-1009.5 650.15,-1016.51 730,-990.5 758.65,-981.17 788.03,-962.5 806.95,-949.07"/>
<polygon fill="midnightblue" stroke="midnightblue" points="809.07,-951.85 815.1,-943.14 804.96,-946.19 809.07,-951.85"/>
</g>
<!-- Node136 -->
<g id="node23" class="node">
<title>Node136</title>
<g id="a_node23"><a xlink:href="quickjs_8c.html#a90d6e607f6917d817c1e997bd2e6ed07" target="_top" xlink:title=" ">
<polygon fill="none" stroke="black" points="483,-696 483,-715 599,-715 599,-696 483,-696"/>
<text text-anchor="middle" x="541" y="-703" font-family="Helvetica,sans-Serif" font-size="10.00">JS_GetPropertyValue</text>
</a>
</g>
</g>
<!-- Node1&#45;&gt;Node136 -->
<g id="edge49" class="edge">
<title>Node1&#45;&gt;Node136</title>
<path fill="none" stroke="midnightblue" d="M59.34,-430.35C66.82,-459.6 92.93,-546.75 148,-591.5 243.01,-668.7 388.27,-693.62 472.71,-701.67"/>
<polygon fill="midnightblue" stroke="midnightblue" points="472.43,-705.16 482.7,-702.57 473.06,-698.18 472.43,-705.16"/>
</g>
<!-- Node225 -->
<g id="node26" class="node">
<title>Node225</title>
<g id="a_node26"><a xlink:href="quickjs_8c.html#a2bf30c9cddfe98a32535843202495069" target="_top" xlink:title=" ">
<polygon fill="none" stroke="black" points="499,-164 499,-183 583,-183 583,-164 499,-164"/>
<text text-anchor="middle" x="541" y="-171" font-family="Helvetica,sans-Serif" font-size="10.00">JS_ToBoolFree</text>
</a>
</g>
</g>
<!-- Node1&#45;&gt;Node225 -->
<g id="edge52" class="edge">
<title>Node1&#45;&gt;Node225</title>
<path fill="none" stroke="midnightblue" d="M58.57,-410.87C64.18,-379.69 86.35,-280.95 148,-235.5 249.91,-160.37 407.48,-161.15 488.31,-167.58"/>
<polygon fill="midnightblue" stroke="midnightblue" points="488.45,-171.1 498.72,-168.47 489.05,-164.13 488.45,-171.1"/>
</g>
<!-- Node437 -->
<g id="node27" class="node">
<title>Node437</title>
<g id="a_node27"><a xlink:href="quickjs_8c.html#add71c7e0efcb1fd14572d39e2672971d" target="_top" xlink:title=" ">
<polygon fill="none" stroke="black" points="148,-60.5 148,-90.5 258,-90.5 258,-60.5 148,-60.5"/>
<text text-anchor="start" x="156" y="-78.5" font-family="Helvetica,sans-Serif" font-size="10.00">js_typed_array_get</text>
<text text-anchor="middle" x="203" y="-67.5" font-family="Helvetica,sans-Serif" font-size="10.00">_length_internal</text>
</a>
</g>
</g>
<!-- Node1&#45;&gt;Node437 -->
<g id="edge53" class="edge">
<title>Node1&#45;&gt;Node437</title>
<path fill="none" stroke="midnightblue" d="M57.95,-410.88C62.2,-371.75 82.25,-221.78 148,-121.5 154.04,-112.29 162.45,-103.9 170.83,-96.88"/>
<polygon fill="midnightblue" stroke="midnightblue" points="173.11,-99.54 178.79,-90.6 168.77,-94.05 173.11,-99.54"/>
</g>
<!-- Node3 -->
<g id="node3" class="node">
<title>Node3</title>
<g id="a_node3"><a xlink:href="quickjs_8c.html#a1ca9cdb1fa2ffc3e6506e92b200e490f" target="_top" xlink:title=" ">
<polygon fill="none" stroke="black" points="330.5,-1038 330.5,-1057 410.5,-1057 410.5,-1038 330.5,-1038"/>
<text text-anchor="middle" x="370.5" y="-1045" font-family="Helvetica,sans-Serif" font-size="10.00">JS_IsFunction</text>
</a>
</g>
</g>
<!-- Node2&#45;&gt;Node3 -->
<g id="edge2" class="edge">
<title>Node2&#45;&gt;Node3</title>
<path fill="none" stroke="midnightblue" d="M248.35,-1047.5C270.52,-1047.5 297.41,-1047.5 320.23,-1047.5"/>
<polygon fill="midnightblue" stroke="midnightblue" points="320.39,-1051 330.39,-1047.5 320.39,-1044 320.39,-1051"/>
</g>
<!-- Node5 -->
<g id="node5" class="node">
<title>Node5</title>
<g id="a_node5"><a xlink:href="quickjs_8c.html#ac2894ff4edcdb4e6841bcce9c76081e3" target="_top" xlink:title=" ">
<polygon fill="none" stroke="red" points="327,-563 327,-582 414,-582 414,-563 327,-563"/>
<text text-anchor="middle" x="370.5" y="-570" font-family="Helvetica,sans-Serif" font-size="10.00">JS_CallInternal</text>
</a>
</g>
</g>
<!-- Node4&#45;&gt;Node5 -->
<g id="edge4" class="edge">
<title>Node4&#45;&gt;Node5</title>
<path fill="none" stroke="midnightblue" d="M228.07,-567.57C251.16,-565.78 286.82,-565.31 316.56,-566.16"/>
<polygon fill="midnightblue" stroke="midnightblue" points="316.68,-569.66 326.8,-566.51 316.93,-562.67 316.68,-569.66"/>
</g>
<!-- Node5&#45;&gt;Node4 -->
<g id="edge23" class="edge">
<title>Node5&#45;&gt;Node4</title>
<path fill="none" stroke="midnightblue" d="M326.8,-578.49C299.21,-579.62 263.79,-579.49 238.09,-578.08"/>
<polygon fill="midnightblue" stroke="midnightblue" points="238.27,-574.59 228.07,-577.43 237.82,-581.57 238.27,-574.59"/>
</g>
<!-- Node5&#45;&gt;Node5 -->
<g id="edge24" class="edge">
<title>Node5&#45;&gt;Node5</title>
<path fill="none" stroke="midnightblue" d="M344.91,-582.26C332.47,-591.07 341,-600.5 370.5,-600.5 390.32,-600.5 400.68,-596.24 401.56,-590.77"/>
<polygon fill="midnightblue" stroke="midnightblue" points="404.44,-588.77 396.09,-582.26 398.55,-592.56 404.44,-588.77"/>
</g>
<!-- Node6 -->
<g id="node6" class="node">
<title>Node6</title>
<g id="a_node6"><a xlink:href="quickjs_8c.html#a853f0924d441ea4225488f37c8b69f9a" target="_top" xlink:title=" ">
<polygon fill="none" stroke="black" points="642.5,-354 642.5,-373 722.5,-373 722.5,-354 642.5,-354"/>
<text text-anchor="middle" x="682.5" y="-361" font-family="Helvetica,sans-Serif" font-size="10.00">__attribute__</text>
</a>
</g>
</g>
<!-- Node5&#45;&gt;Node6 -->
<g id="edge5" class="edge">
<title>Node5&#45;&gt;Node6</title>
<path fill="none" stroke="midnightblue" d="M372.68,-562.79C377.74,-526.13 401.14,-395.59 483,-344.5 535.09,-311.99 610.29,-333.65 651.57,-350.02"/>
<polygon fill="midnightblue" stroke="midnightblue" points="650.48,-353.36 661.06,-353.93 653.14,-346.89 650.48,-353.36"/>
</g>
<!-- Node7 -->
<g id="node7" class="node">
<title>Node7</title>
<g id="a_node7"><a xlink:href="quickjs_8c.html#a877fcb7651d95b411ce70e62b7f4a1f0" target="_top" xlink:title=" ">
<polygon fill="none" stroke="black" points="766,-682 766,-701 891,-701 891,-682 766,-682"/>
<text text-anchor="middle" x="828.5" y="-689" font-family="Helvetica,sans-Serif" font-size="10.00">__JS_AtomFromUInt32</text>
</a>
</g>
</g>
<!-- Node5&#45;&gt;Node7 -->
<g id="edge6" class="edge">
<title>Node5&#45;&gt;Node7</title>
<path fill="none" stroke="midnightblue" d="M374.13,-582.03C383.19,-612.84 416.27,-710.05 483,-750.5 576.99,-807.48 625.49,-796.52 730,-762.5 762.63,-751.88 793.45,-725.75 811.39,-708.33"/>
<polygon fill="midnightblue" stroke="midnightblue" points="814.1,-710.57 818.69,-701.03 809.15,-705.63 814.1,-710.57"/>
</g>
<!-- Node8 -->
<g id="node8" class="node">
<title>Node8</title>
<g id="a_node8"><a xlink:href="quickjs_8h.html#a9bf98b18de88b4199910a43e933eb97d" target="_top" xlink:title=" ">
<polygon fill="none" stroke="black" points="778.5,-810 778.5,-829 878.5,-829 878.5,-810 778.5,-810"/>
<text text-anchor="middle" x="828.5" y="-817" font-family="Helvetica,sans-Serif" font-size="10.00">__JS_NewFloat64</text>
</a>
</g>
</g>
<!-- Node5&#45;&gt;Node8 -->
<g id="edge7" class="edge">
<title>Node5&#45;&gt;Node8</title>
<path fill="none" stroke="midnightblue" d="M373.29,-582.19C380.19,-616.55 408.51,-733.15 483,-783.5 568.77,-841.47 694.97,-837.76 768.44,-829.1"/>
<polygon fill="midnightblue" stroke="midnightblue" points="768.96,-832.56 778.45,-827.85 768.09,-825.62 768.96,-832.56"/>
</g>
<!-- Node9 -->
<g id="node9" class="node">
<title>Node9</title>
<g id="a_node9"><a xlink:href="quickjs_8c.html#a74547db03bf739a52c83a326b32db997" target="_top" xlink:title=" ">
<polygon fill="none" stroke="red" points="500.5,-848 500.5,-867 581.5,-867 581.5,-848 500.5,-848"/>
<text text-anchor="middle" x="541" y="-855" font-family="Helvetica,sans-Serif" font-size="10.00">add_property</text>
</a>
</g>
</g>
<!-- Node5&#45;&gt;Node9 -->
<g id="edge8" class="edge">
<title>Node5&#45;&gt;Node9</title>
<path fill="none" stroke="midnightblue" d="M372.98,-582.25C379.16,-619.87 406.32,-757.22 483,-833.5 486.9,-837.38 491.52,-840.67 496.43,-843.45"/>
<polygon fill="midnightblue" stroke="midnightblue" points="494.93,-846.62 505.45,-847.92 498.04,-840.34 494.93,-846.62"/>
</g>
<!-- Node67 -->
<g id="node10" class="node">
<title>Node67</title>
<g id="a_node10"><a xlink:href="quickjs_8c.html#a4956f45ffd2849b96dc051277264f87a" target="_top" xlink:title=" ">
<polygon fill="none" stroke="red" points="500,-392 500,-411 582,-411 582,-392 500,-392"/>
<text text-anchor="middle" x="541" y="-399" font-family="Helvetica,sans-Serif" font-size="10.00">build_arg_list</text>
</a>
</g>
</g>
<!-- Node5&#45;&gt;Node67 -->
<g id="edge9" class="edge">
<title>Node5&#45;&gt;Node67</title>
<path fill="none" stroke="midnightblue" d="M375.99,-562.7C388.76,-535.88 427.99,-460.6 483,-420.5 485.66,-418.56 488.52,-416.82 491.5,-415.24"/>
<polygon fill="midnightblue" stroke="midnightblue" points="493.08,-418.37 500.71,-411.01 490.16,-412.01 493.08,-418.37"/>
</g>
<!-- Node68 -->
<g id="node11" class="node">
<title>Node68</title>
<g id="a_node11"><a xlink:href="quickjs_8c.html#ac864482356b3efc2d0b0a509fcfa4c7c" target="_top" xlink:title=" ">
<polygon fill="none" stroke="red" points="644,-278 644,-297 721,-297 721,-278 644,-278"/>
<text text-anchor="middle" x="682.5" y="-285" font-family="Helvetica,sans-Serif" font-size="10.00">free_arg_list</text>
</a>
</g>
</g>
<!-- Node5&#45;&gt;Node68 -->
<g id="edge20" class="edge">
<title>Node5&#45;&gt;Node68</title>
<path fill="none" stroke="midnightblue" d="M372.63,-562.93C377.58,-525.47 400.97,-387.77 483,-323.5 525.88,-289.9 589.92,-283.84 633.59,-284.26"/>
<polygon fill="midnightblue" stroke="midnightblue" points="633.61,-287.76 643.68,-284.47 633.75,-280.76 633.61,-287.76"/>
</g>
<!-- Node5&#45;&gt;Node59 -->
<g id="edge27" class="edge">
<title>Node5&#45;&gt;Node59</title>
<path fill="none" stroke="midnightblue" d="M371.99,-562.81C374.64,-521.48 390.8,-358.45 483,-280.5 567.58,-208.99 705.48,-204.21 778.52,-207.47"/>
<polygon fill="midnightblue" stroke="midnightblue" points="778.64,-210.98 788.81,-208.01 779,-203.99 778.64,-210.98"/>
</g>
<!-- Node38 -->
<g id="node13" class="node">
<title>Node38</title>
<g id="a_node13"><a xlink:href="quickjs_8h.html#a775522f2d084fc8fa0fcb33f390006b4" target="_top" xlink:title=" ">
<polygon fill="none" stroke="black" points="644,-459 644,-478 721,-478 721,-459 644,-459"/>
<text text-anchor="middle" x="682.5" y="-466" font-family="Helvetica,sans-Serif" font-size="10.00">JS_DupValue</text>
</a>
</g>
</g>
<!-- Node5&#45;&gt;Node38 -->
<g id="edge25" class="edge">
<title>Node5&#45;&gt;Node38</title>
<path fill="none" stroke="midnightblue" d="M381.93,-562.89C400.61,-546.29 441.71,-512.48 483,-496.5 532.07,-477.51 592.42,-471.19 633.6,-469.19"/>
<polygon fill="midnightblue" stroke="midnightblue" points="633.8,-472.68 643.64,-468.77 633.5,-465.69 633.8,-472.68"/>
</g>
<!-- Node5&#45;&gt;Node77 -->
<g id="edge42" class="edge">
<title>Node5&#45;&gt;Node77</title>
<path fill="none" stroke="midnightblue" d="M414.36,-565.88C460.17,-558.69 534.86,-546.59 599,-534.5 659.49,-523.1 728.62,-508.33 774.85,-498.21"/>
<polygon fill="midnightblue" stroke="midnightblue" points="775.63,-501.62 784.65,-496.06 774.13,-494.78 775.63,-501.62"/>
</g>
<!-- Node162 -->
<g id="node15" class="node">
<title>Node162</title>
<g id="a_node15"><a xlink:href="quickjs_8c.html#a61c8dfb5e807af1b6ff7d8ca61576dda" target="_top" xlink:title=" ">
<polygon fill="none" stroke="red" points="635.5,-962 635.5,-981 729.5,-981 729.5,-962 635.5,-962"/>
<text text-anchor="middle" x="682.5" y="-969" font-family="Helvetica,sans-Serif" font-size="10.00">build_backtrace</text>
</a>
</g>
</g>
<!-- Node5&#45;&gt;Node162 -->
<g id="edge15" class="edge">
<title>Node5&#45;&gt;Node162</title>
<path fill="none" stroke="midnightblue" d="M372.92,-582.11C381.06,-635.71 423.44,-897.23 483,-947.5 521.92,-980.36 581.44,-983.43 625.16,-980.07"/>
<polygon fill="midnightblue" stroke="midnightblue" points="625.7,-983.54 635.35,-979.15 625.07,-976.56 625.7,-983.54"/>
</g>
<!-- Node5&#45;&gt;Node78 -->
<g id="edge43" class="edge">
<title>Node5&#45;&gt;Node78</title>
<path fill="none" stroke="midnightblue" d="M371.26,-582.25C370.71,-627.78 375,-820.92 483,-905.5 527.91,-940.67 696.12,-939.05 779.72,-935.88"/>
<polygon fill="midnightblue" stroke="midnightblue" points="780.11,-939.37 789.97,-935.47 779.83,-932.37 780.11,-939.37"/>
</g>
<!-- Node249 -->
<g id="node17" class="node">
<title>Node249</title>
<g id="a_node17"><a xlink:href="quickjs_8c.html#a344894112559c2ba75043fd10bcfa02f" target="_top" xlink:title=" ">
<polygon fill="none" stroke="red" points="490.5,-430 490.5,-449 591.5,-449 591.5,-430 490.5,-430"/>
<text text-anchor="middle" x="541" y="-437" font-family="Helvetica,sans-Serif" font-size="10.00">close_lexical_var</text>
</a>
</g>
</g>
<!-- Node5&#45;&gt;Node249 -->
<g id="edge17" class="edge">
<title>Node5&#45;&gt;Node249</title>
<path fill="none" stroke="midnightblue" d="M379.2,-562.82C396.07,-542.14 438.35,-493.16 483,-463.5 488.83,-459.63 495.38,-456.17 501.92,-453.17"/>
<polygon fill="midnightblue" stroke="midnightblue" points="503.58,-456.27 511.39,-449.11 500.82,-449.83 503.58,-456.27"/>
</g>
<!-- Node250 -->
<g id="node18" class="node">
<title>Node250</title>
<g id="a_node18"><a xlink:href="quickjs_8c.html#a1782043fce951bd4f0d91c7796b31e24" target="_top" xlink:title=" ">
<polygon fill="none" stroke="red" points="497.5,-658 497.5,-677 584.5,-677 584.5,-658 497.5,-658"/>
<text text-anchor="middle" x="541" y="-665" font-family="Helvetica,sans-Serif" font-size="10.00">close_var_refs</text>
</a>
</g>
</g>
<!-- Node5&#45;&gt;Node250 -->
<g id="edge19" class="edge">
<title>Node5&#45;&gt;Node250</title>
<path fill="none" stroke="midnightblue" d="M384.79,-582.01C405.26,-596.4 446.01,-624.11 483,-643.5 490.15,-647.25 498.03,-650.87 505.58,-654.11"/>
<polygon fill="midnightblue" stroke="midnightblue" points="504.31,-657.37 514.89,-657.99 507.01,-650.91 504.31,-657.37"/>
</g>
<!-- Node56 -->
<g id="node19" class="node">
<title>Node56</title>
<g id="a_node19"><a xlink:href="quickjs_8c.html#a9e7b4bccf927d811b0f99b40b08c0472" target="_top" xlink:title=" ">
<polygon fill="none" stroke="red" points="503,-506 503,-525 579,-525 579,-506 503,-506"/>
<text text-anchor="middle" x="541" y="-513" font-family="Helvetica,sans-Serif" font-size="10.00">free_var_ref</text>
</a>
</g>
</g>
<!-- Node5&#45;&gt;Node56 -->
<g id="edge21" class="edge">
<title>Node5&#45;&gt;Node56</title>
<path fill="none" stroke="midnightblue" d="M399.7,-562.96C427.77,-553.47 471.02,-538.83 502.08,-528.33"/>
<polygon fill="midnightblue" stroke="midnightblue" points="503.35,-531.59 511.7,-525.07 501.11,-524.96 503.35,-531.59"/>
</g>
<!-- Node252 -->
<g id="node20" class="node">
<title>Node252</title>
<g id="a_node20"><a xlink:href="cutils_8h.html#a7c82a3ee025fee89db5b11ff5b7691b8" target="_top" xlink:title=" ">
<polygon fill="none" stroke="black" points="514.5,-354 514.5,-373 567.5,-373 567.5,-354 514.5,-354"/>
<text text-anchor="middle" x="541" y="-361" font-family="Helvetica,sans-Serif" font-size="10.00">get_i16</text>
</a>
</g>
</g>
<!-- Node5&#45;&gt;Node252 -->
<g id="edge22" class="edge">
<title>Node5&#45;&gt;Node252</title>
<path fill="none" stroke="midnightblue" d="M374.38,-563C384.22,-532.18 419.41,-434.02 483,-382.5 489.27,-377.42 496.95,-373.68 504.62,-370.92"/>
<polygon fill="midnightblue" stroke="midnightblue" points="505.71,-374.25 514.23,-367.94 503.64,-367.57 505.71,-374.25"/>
</g>
<!-- Node58 -->
<g id="node21" class="node">
<title>Node58</title>
<g id="a_node21"><a xlink:href="quickjs_8c.html#ab7fc45a99935a1c0ba50b0216d9401a9" target="_top" xlink:title=" ">
<polygon fill="none" stroke="red" points="643.5,-734 643.5,-753 721.5,-753 721.5,-734 643.5,-734"/>
<text text-anchor="middle" x="682.5" y="-741" font-family="Helvetica,sans-Serif" font-size="10.00">JS_FreeAtom</text>
</a>
</g>
</g>
<!-- Node5&#45;&gt;Node58 -->
<g id="edge26" class="edge">
<title>Node5&#45;&gt;Node58</title>
<path fill="none" stroke="midnightblue" d="M375.22,-582.17C386.5,-610.02 423.24,-690.55 483,-724.5 529.02,-750.65 590.88,-752.34 633.23,-749.46"/>
<polygon fill="midnightblue" stroke="midnightblue" points="633.6,-752.94 643.29,-748.67 633.05,-745.96 633.6,-752.94"/>
</g>
<!-- Node70 -->
<g id="node22" class="node">
<title>Node70</title>
<g id="a_node22"><a xlink:href="quickjs_8h.html#a89b7c8686c7eee70b86be722ee4730ad" target="_top" xlink:title=" ">
<polygon fill="none" stroke="red" points="638,-649 638,-668 727,-668 727,-649 638,-649"/>
<text text-anchor="middle" x="682.5" y="-656" font-family="Helvetica,sans-Serif" font-size="10.00">JS_GetProperty</text>
</a>
</g>
</g>
<!-- Node5&#45;&gt;Node70 -->
<g id="edge28" class="edge">
<title>Node5&#45;&gt;Node70</title>
<path fill="none" stroke="midnightblue" d="M405.86,-582.03C462.31,-597.69 574.61,-628.85 637.04,-646.17"/>
<polygon fill="midnightblue" stroke="midnightblue" points="636.41,-649.62 646.99,-648.93 638.29,-642.88 636.41,-649.62"/>
</g>
<!-- Node5&#45;&gt;Node136 -->
<g id="edge29" class="edge">
<title>Node5&#45;&gt;Node136</title>
<path fill="none" stroke="midnightblue" d="M378.43,-582.26C394.41,-604.07 436.06,-657.13 483,-686.5 486.19,-688.5 489.62,-690.31 493.15,-691.95"/>
<polygon fill="midnightblue" stroke="midnightblue" points="492.08,-695.3 502.66,-695.9 494.76,-688.83 492.08,-695.3"/>
</g>
<!-- Node137 -->
<g id="node24" class="node">
<title>Node137</title>
<g id="a_node24"><a xlink:href="quickjs_8h.html#a88259aa0da61ac754402c64ccecee116" target="_top" xlink:title=" ">
<polygon fill="none" stroke="black" points="640,-886 640,-905 725,-905 725,-886 640,-886"/>
<text text-anchor="middle" x="682.5" y="-893" font-family="Helvetica,sans-Serif" font-size="10.00">JS_NewUint32</text>
</a>
</g>
</g>
<!-- Node5&#45;&gt;Node137 -->
<g id="edge44" class="edge">
<title>Node5&#45;&gt;Node137</title>
<path fill="none" stroke="midnightblue" d="M371.63,-582.24C372.76,-625.3 383.54,-799.73 483,-876.5 524.36,-908.42 585.93,-909.31 629.51,-904.66"/>
<polygon fill="midnightblue" stroke="midnightblue" points="630.12,-908.11 639.63,-903.45 629.28,-901.16 630.12,-908.11"/>
</g>
<!-- Node138 -->
<g id="node25" class="node">
<title>Node138</title>
<g id="a_node25"><a xlink:href="quickjs_8c.html#a859d5c989a2aaecef1653b3ac279e108" target="_top" xlink:title=" ">
<polygon fill="none" stroke="red" points="635,-592 635,-611 730,-611 730,-592 635,-592"/>
<text text-anchor="middle" x="682.5" y="-599" font-family="Helvetica,sans-Serif" font-size="10.00">JS_ValueToAtom</text>
</a>
</g>
</g>
<!-- Node5&#45;&gt;Node138 -->
<g id="edge47" class="edge">
<title>Node5&#45;&gt;Node138</title>
<path fill="none" stroke="midnightblue" d="M414.28,-576.5C469,-581.62 563.93,-590.5 624.68,-596.18"/>
<polygon fill="midnightblue" stroke="midnightblue" points="624.58,-599.69 634.86,-597.14 625.23,-592.72 624.58,-599.69"/>
</g>
<!-- Node5&#45;&gt;Node225 -->
<g id="edge45" class="edge">
<title>Node5&#45;&gt;Node225</title>
<path fill="none" stroke="midnightblue" d="M371.51,-562.97C372.09,-516.55 380.56,-311.82 483,-197.5 486.32,-193.8 490.3,-190.65 494.6,-187.97"/>
<polygon fill="midnightblue" stroke="midnightblue" points="496.56,-190.9 503.76,-183.13 493.28,-184.71 496.56,-190.9"/>
</g>
<!-- Node67&#45;&gt;Node6 -->
<g id="edge10" class="edge">
<title>Node67&#45;&gt;Node6</title>
<path fill="none" stroke="midnightblue" d="M577.2,-391.91C595.21,-387.01 617.33,-380.98 636.56,-375.74"/>
<polygon fill="midnightblue" stroke="midnightblue" points="637.58,-379.09 646.31,-373.09 635.74,-372.34 637.58,-379.09"/>
</g>
<!-- Node67&#45;&gt;Node68 -->
<g id="edge11" class="edge">
<title>Node67&#45;&gt;Node68</title>
<path fill="none" stroke="midnightblue" d="M580.13,-391.96C586.71,-389.44 593.27,-386.32 599,-382.5 607.28,-376.97 645.64,-331.1 667.01,-305.18"/>
<polygon fill="midnightblue" stroke="midnightblue" points="669.89,-307.18 673.54,-297.24 664.49,-302.74 669.89,-307.18"/>
</g>
<!-- Node67&#45;&gt;Node38 -->
<g id="edge13" class="edge">
<title>Node67&#45;&gt;Node38</title>
<path fill="none" stroke="midnightblue" d="M574.4,-411.02C582.56,-413.76 591.21,-416.98 599,-420.5 619.83,-429.91 642.16,-443.11 658.33,-453.29"/>
<polygon fill="midnightblue" stroke="midnightblue" points="656.77,-456.45 667.08,-458.88 660.54,-450.55 656.77,-456.45"/>
</g>
<!-- Node67&#45;&gt;Node77 -->
<g id="edge14" class="edge">
<title>Node67&#45;&gt;Node77</title>
<path fill="none" stroke="midnightblue" d="M582.34,-410.41C620.67,-419.2 679.74,-433.6 730,-449.5 752.05,-456.47 776.37,-465.7 795.2,-473.19"/>
<polygon fill="midnightblue" stroke="midnightblue" points="793.93,-476.45 804.51,-476.93 796.54,-469.96 793.93,-476.45"/>
</g>
<!-- Node68&#45;&gt;Node59 -->
<g id="edge12" class="edge">
<title>Node68&#45;&gt;Node59</title>
<path fill="none" stroke="midnightblue" d="M701.74,-277.87C726.62,-264.74 771.42,-241.1 800.28,-225.86"/>
<polygon fill="midnightblue" stroke="midnightblue" points="802.2,-228.81 809.41,-221.05 798.93,-222.62 802.2,-228.81"/>
</g>
<!-- Node162&#45;&gt;Node78 -->
<g id="edge16" class="edge">
<title>Node162&#45;&gt;Node78</title>
<path fill="none" stroke="midnightblue" d="M719.84,-961.91C738.58,-956.96 761.64,-950.88 781.61,-945.61"/>
<polygon fill="midnightblue" stroke="midnightblue" points="782.65,-948.96 791.42,-943.02 780.86,-942.19 782.65,-948.96"/>
</g>
<!-- Node249&#45;&gt;Node38 -->
<g id="edge18" class="edge">
<title>Node249&#45;&gt;Node38</title>
<path fill="none" stroke="midnightblue" d="M588.06,-449.08C602.77,-452.13 619.06,-455.52 633.87,-458.6"/>
<polygon fill="midnightblue" stroke="midnightblue" points="633.35,-462.06 643.85,-460.67 634.77,-455.21 633.35,-462.06"/>
</g>
<!-- Node136&#45;&gt;Node8 -->
<g id="edge30" class="edge">
<title>Node136&#45;&gt;Node8</title>
<path fill="none" stroke="midnightblue" d="M599.28,-701.68C637.92,-701.36 689.12,-705.43 730,-724.5 767.08,-741.8 798.6,-779.16 815.12,-801.52"/>
<polygon fill="midnightblue" stroke="midnightblue" points="812.4,-803.74 821.07,-809.82 818.09,-799.66 812.4,-803.74"/>
</g>
<!-- Node136&#45;&gt;Node59 -->
<g id="edge33" class="edge">
<title>Node136&#45;&gt;Node59</title>
<path fill="none" stroke="midnightblue" d="M585.27,-695.94C590.32,-693.48 595.07,-690.39 599,-686.5 633.78,-652.11 609.05,-623.96 635,-582.5 666.68,-531.89 698.16,-538.01 730,-487.5 784.95,-400.34 814.01,-278.12 823.73,-231.05"/>
<polygon fill="midnightblue" stroke="midnightblue" points="827.17,-231.72 825.7,-221.23 820.3,-230.35 827.17,-231.72"/>
</g>
<!-- Node136&#45;&gt;Node38 -->
<g id="edge31" class="edge">
<title>Node136&#45;&gt;Node38</title>
<path fill="none" stroke="midnightblue" d="M586.92,-695.85C591.46,-693.41 595.63,-690.34 599,-686.5 654.27,-623.56 589.59,-571.89 635,-501.5 639.53,-494.48 646.12,-488.5 652.93,-483.64"/>
<polygon fill="midnightblue" stroke="midnightblue" points="655.02,-486.46 661.53,-478.09 651.23,-480.58 655.02,-486.46"/>
</g>
<!-- Node136&#45;&gt;Node78 -->
<g id="edge35" class="edge">
<title>Node136&#45;&gt;Node78</title>
<path fill="none" stroke="midnightblue" d="M553.9,-715.01C597.98,-750.21 752.2,-873.37 807.54,-917.56"/>
<polygon fill="midnightblue" stroke="midnightblue" points="805.55,-920.45 815.55,-923.95 809.92,-914.98 805.55,-920.45"/>
</g>
<!-- Node136&#45;&gt;Node58 -->
<g id="edge32" class="edge">
<title>Node136&#45;&gt;Node58</title>
<path fill="none" stroke="midnightblue" d="M577.2,-715.09C595.21,-719.99 617.33,-726.02 636.56,-731.26"/>
<polygon fill="midnightblue" stroke="midnightblue" points="635.74,-734.66 646.31,-733.91 637.58,-727.91 635.74,-734.66"/>
</g>
<!-- Node136&#45;&gt;Node70 -->
<g id="edge34" class="edge">
<title>Node136&#45;&gt;Node70</title>
<path fill="none" stroke="midnightblue" d="M570.72,-695.96C579.77,-692.95 589.81,-689.59 599,-686.5 613.54,-681.61 629.5,-676.2 643.48,-671.45"/>
<polygon fill="midnightblue" stroke="midnightblue" points="644.92,-674.66 653.26,-668.13 642.66,-668.03 644.92,-674.66"/>
</g>
<!-- Node136&#45;&gt;Node137 -->
<g id="edge36" class="edge">
<title>Node136&#45;&gt;Node137</title>
<path fill="none" stroke="midnightblue" d="M545.23,-715.38C554.78,-743.24 585.35,-823.52 635,-871.5 638.74,-875.12 643.14,-878.32 647.71,-881.1"/>
<polygon fill="midnightblue" stroke="midnightblue" points="646.13,-884.23 656.58,-885.96 649.49,-878.09 646.13,-884.23"/>
</g>
<!-- Node136&#45;&gt;Node138 -->
<g id="edge39" class="edge">
<title>Node136&#45;&gt;Node138</title>
<path fill="none" stroke="midnightblue" d="M581.22,-695.89C587.48,-693.4 593.65,-690.32 599,-686.5 620.42,-671.22 616.69,-658.4 635,-639.5 642.65,-631.61 651.88,-623.77 660.09,-617.29"/>
<polygon fill="midnightblue" stroke="midnightblue" points="662.39,-619.94 668.18,-611.07 658.12,-614.39 662.39,-619.94"/>
</g>
<!-- Node137&#45;&gt;Node8 -->
<g id="edge37" class="edge">
<title>Node137&#45;&gt;Node8</title>
<path fill="none" stroke="midnightblue" d="M701.74,-885.87C726.62,-872.74 771.42,-849.1 800.28,-833.86"/>
<polygon fill="midnightblue" stroke="midnightblue" points="802.2,-836.81 809.41,-829.05 798.93,-830.62 802.2,-836.81"/>
</g>
<!-- Node137&#45;&gt;Node78 -->
<g id="edge38" class="edge">
<title>Node137&#45;&gt;Node78</title>
<path fill="none" stroke="midnightblue" d="M719.84,-905.09C738.58,-910.04 761.64,-916.12 781.61,-921.39"/>
<polygon fill="midnightblue" stroke="midnightblue" points="780.86,-924.81 791.42,-923.98 782.65,-918.04 780.86,-924.81"/>
</g>
<!-- Node138&#45;&gt;Node7 -->
<g id="edge40" class="edge">
<title>Node138&#45;&gt;Node7</title>
<path fill="none" stroke="midnightblue" d="M698.91,-611.13C724.03,-626.83 773.97,-658.04 803.68,-676.61"/>
<polygon fill="midnightblue" stroke="midnightblue" points="801.87,-679.61 812.2,-681.94 805.58,-673.67 801.87,-679.61"/>
</g>
<!-- Node138&#45;&gt;Node77 -->
<g id="edge41" class="edge">
<title>Node138&#45;&gt;Node77</title>
<path fill="none" stroke="midnightblue" d="M697.09,-591.9C706.45,-585.2 719.12,-575.99 730,-567.5 757.82,-545.81 789.02,-519.53 808.47,-502.91"/>
<polygon fill="midnightblue" stroke="midnightblue" points="810.97,-505.38 816.28,-496.21 806.41,-500.06 810.97,-505.38"/>
</g>
<!-- Node225&#45;&gt;Node59 -->
<g id="edge46" class="edge">
<title>Node225&#45;&gt;Node59</title>
<path fill="none" stroke="midnightblue" d="M583.1,-178.56C621.2,-183.29 679.46,-190.65 730,-197.5 745.85,-199.65 763.13,-202.1 778.68,-204.34"/>
<polygon fill="midnightblue" stroke="midnightblue" points="778.22,-207.81 788.61,-205.77 779.22,-200.88 778.22,-207.81"/>
</g>
<!-- Node438 -->
<g id="node28" class="node">
<title>Node438</title>
<g id="a_node28"><a xlink:href="quickjs_8c.html#af894945c3459f86096c1821a0a696934" target="_top" xlink:title=" ">
<polygon fill="none" stroke="black" points="322.5,-50 322.5,-69 418.5,-69 418.5,-50 322.5,-50"/>
<text text-anchor="middle" x="370.5" y="-57" font-family="Helvetica,sans-Serif" font-size="10.00">get_typed_array</text>
</a>
</g>
</g>
<!-- Node437&#45;&gt;Node438 -->
<g id="edge54" class="edge">
<title>Node437&#45;&gt;Node438</title>
<path fill="none" stroke="midnightblue" d="M258.19,-70.26C275.53,-68.58 294.77,-66.72 312.31,-65.03"/>
<polygon fill="midnightblue" stroke="midnightblue" points="312.8,-68.5 322.42,-64.05 312.13,-61.53 312.8,-68.5"/>
</g>
<!-- Node275 -->
<g id="node29" class="node">
<title>Node275</title>
<g id="a_node29"><a xlink:href="quickjs_8c.html#a033dd3ebd29c4eb9f0baff1dd0fec0b1" target="_top" xlink:title=" ">
<polygon fill="none" stroke="black" points="294,-0.5 294,-30.5 447,-30.5 447,-0.5 294,-0.5"/>
<text text-anchor="start" x="302" y="-18.5" font-family="Helvetica,sans-Serif" font-size="10.00">JS_ThrowTypeErrorDetached</text>
<text text-anchor="middle" x="370.5" y="-7.5" font-family="Helvetica,sans-Serif" font-size="10.00">ArrayBuffer</text>
</a>
</g>
</g>
<!-- Node437&#45;&gt;Node275 -->
<g id="edge55" class="edge">
<title>Node437&#45;&gt;Node275</title>
<path fill="none" stroke="midnightblue" d="M241.5,-60.42C257.59,-54.08 276.65,-46.74 294,-40.5 300.05,-38.32 306.4,-36.11 312.74,-33.95"/>
<polygon fill="midnightblue" stroke="midnightblue" points="314.3,-37.11 322.65,-30.6 312.06,-30.48 314.3,-37.11"/>
</g>
<!-- Node276 -->
<g id="node30" class="node">
<title>Node276</title>
<g id="a_node30"><a xlink:href="quickjs_8c.html#a869fa88a646c0a1914ec2e559b193b5c" target="_top" xlink:title=" ">
<polygon fill="none" stroke="black" points="301,-88 301,-107 440,-107 440,-88 301,-88"/>
<text text-anchor="middle" x="370.5" y="-95" font-family="Helvetica,sans-Serif" font-size="10.00">typed_array_is_detached</text>
</a>
</g>
</g>
<!-- Node437&#45;&gt;Node276 -->
<g id="edge56" class="edge">
<title>Node437&#45;&gt;Node276</title>
<path fill="none" stroke="midnightblue" d="M258.19,-82.7C268.66,-84.09 279.82,-85.58 290.88,-87.05"/>
<polygon fill="midnightblue" stroke="midnightblue" points="290.61,-90.54 300.99,-88.39 291.53,-83.61 290.61,-90.54"/>
</g>
</g>
</svg>
        <g id="navigator" transform="translate(0 0)" fill="#404254">
                <rect fill="#f2f5e9" fill-opacity="0.5" stroke="#606060" stroke-width=".5" x="0" y="0" width="60" height="60"/>
                <use id="zoomplus" xlink:href="#zoomPlus" x="17" y="9" onmousedown="handleZoom(evt,'in')"/>
                <use id="zoomminus" xlink:href="#zoomMin" x="42" y="9" onmousedown="handleZoom(evt,'out')"/>
                <use id="reset" xlink:href="#resetDef" x="30" y="36" onmousedown="handleReset()"/>
                <g id="arrowUp" xlink:href="#dirArrow" transform="translate(30 24)" onmousedown="handlePan(0,-1)">
                  <use xlink:href="#rim" fill="#404040">
                        <set attributeName="fill" to="#808080" begin="arrowUp.mouseover" end="arrowUp.mouseout"/>
                  </use>
                  <path fill="none" stroke="white" stroke-width="1.5" d="M0,-3.0v7 M-2.5,-0.5L0,-3.0L2.5,-0.5"/>
                </g>
                <g id="arrowRight" xlink:href="#dirArrow" transform="rotate(90) translate(36 -43)" onmousedown="handlePan(1,0)">
                  <use xlink:href="#rim" fill="#404040">
                        <set attributeName="fill" to="#808080" begin="arrowRight.mouseover" end="arrowRight.mouseout"/>
                  </use>
                  <path fill="none" stroke="white" stroke-width="1.5" d="M0,-3.0v7 M-2.5,-0.5L0,-3.0L2.5,-0.5"/>
                </g>
                <g id="arrowDown" xlink:href="#dirArrow" transform="rotate(180) translate(-30 -48)" onmousedown="handlePan(0,1)">
                  <use xlink:href="#rim" fill="#404040">
                        <set attributeName="fill" to="#808080" begin="arrowDown.mouseover" end="arrowDown.mouseout"/>
                  </use>
                  <path fill="none" stroke="white" stroke-width="1.5" d="M0,-3.0v7 M-2.5,-0.5L0,-3.0L2.5,-0.5"/>
                </g>
                <g id="arrowLeft" xlink:href="#dirArrow" transform="rotate(270) translate(-36 17)" onmousedown="handlePan(-1,0)">
                  <use xlink:href="#rim" fill="#404040">
                        <set attributeName="fill" to="#808080" begin="arrowLeft.mouseover" end="arrowLeft.mouseout"/>
                  </use>
                  <path fill="none" stroke="white" stroke-width="1.5" d="M0,-3.0v7 M-2.5,-0.5L0,-3.0L2.5,-0.5"/>
                </g>
        </g>
        <svg viewBox="0 0 15 15" width="100%" height="30px" preserveAspectRatio="xMaxYMin meet">
         <g id="arrow_out" transform="scale(0.3 0.3)">
          <a xlink:href="quickjs_8c_a0b8ae7efe63abc1be33d9e828d43ce8d_cgraph_org.svg" target="_base">
           <rect id="button" ry="5" rx="5" y="6" x="6" height="38" width="38"
                fill="#f2f5e9" fill-opacity="0.5" stroke="#606060" stroke-width="1.0"/>
           <path id="arrow"
             d="M 11.500037,31.436501 C 11.940474,20.09759 22.043105,11.32322 32.158766,21.979434 L 37.068811,17.246167 C 37.068811,17.246167 37.088388,32 37.088388,32 L 22.160133,31.978069 C 22.160133,31.978069 26.997745,27.140456 26.997745,27.140456 C 18.528582,18.264221 13.291696,25.230495 11.500037,31.436501 z"
             style="fill:#404040;"/>
          </a>
         </g>
        </svg>
</svg>
