<?xml version="1.0" encoding="UTF-8" standalone="no"?>
<!DOCTYPE svg PUBLIC "-//W3C//DTD SVG 1.1//EN"
 "http://www.w3.org/Graphics/SVG/1.1/DTD/svg11.dtd">
<!-- Generated by graphviz version 2.43.0 (0)
 -->
<!-- Title: js_get_stack_pointer Pages: 1 -->
<!--zoomable 757 -->
<svg id="main" version="1.1" xmlns="http://www.w3.org/2000/svg" xmlns:xlink="http://www.w3.org/1999/xlink" xml:space="preserve" onload="init(evt)">
<style type="text/css"><![CDATA[
.edge:hover path { stroke: red; }
.edge:hover polygon { stroke: red; fill: red; }
]]></style>
<script type="text/javascript"><![CDATA[
var edges = document.getElementsByTagName('g');
if (edges && edges.length) {
  for (var i=0;i<edges.length;i++) {
    if (edges[i].id.substr(0,4)=='edge') {
      edges[i].setAttribute('class','edge');
    }
  }
}
]]></script>
        <defs>
                <circle id="rim" cx="0" cy="0" r="7"/>
                <circle id="rim2" cx="0" cy="0" r="3.5"/>
                <g id="zoomPlus">
                        <use xlink:href="#rim" fill="#404040">
                                <set attributeName="fill" to="#808080" begin="zoomplus.mouseover" end="zoomplus.mouseout"/>
                        </use>
                        <path d="M-4,0h8M0,-4v8" fill="none" stroke="white" stroke-width="1.5" pointer-events="none"/>
                </g>
                <g id="zoomMin">
                        <use xlink:href="#rim" fill="#404040">
                                <set attributeName="fill" to="#808080" begin="zoomminus.mouseover" end="zoomminus.mouseout"/>
                        </use>
                        <path d="M-4,0h8" fill="none" stroke="white" stroke-width="1.5" pointer-events="none"/>
                </g>
                <g id="dirArrow">
                        <path fill="none" stroke="white" stroke-width="1.5" d="M0,-3.0v7 M-2.5,-0.5L0,-3.0L2.5,-0.5"/>
                </g>
               <g id="resetDef">
                       <use xlink:href="#rim2" fill="#404040">
                               <set attributeName="fill" to="#808080" begin="reset.mouseover" end="reset.mouseout"/>
                       </use>
               </g>
        </defs>

<script type="text/javascript">
var viewWidth = 982;
var viewHeight = 757;
var sectionId = 'dynsection-165';
</script>
<script xlink:href="svgpan.js"/>
<svg id="graph" class="graph">
<g id="viewport">
<title>js_get_stack_pointer</title>
<!-- Node1 -->
<g id="node1" class="node">
<title>Node1</title>
<g id="a_node1"><a xlink:title=" ">
<polygon fill="#bfbfbf" stroke="black" points="857,-117.01 857,-136.01 974,-136.01 974,-117.01 857,-117.01"/>
<text text-anchor="middle" x="915.5" y="-124.01" font-family="Helvetica,sans-Serif" font-size="10.00">js_get_stack_pointer</text>
</a>
</g>
</g>
<!-- Node2 -->
<g id="node2" class="node">
<title>Node2</title>
<g id="a_node2"><a xlink:href="quickjs_8c.html#af23ec7c9970ceb4671c59da7abd4b078" target="_top" xlink:title=" ">
<polygon fill="none" stroke="black" points="684,-230.01 684,-249.01 821,-249.01 821,-230.01 684,-230.01"/>
<text text-anchor="middle" x="752.5" y="-237.01" font-family="Helvetica,sans-Serif" font-size="10.00">js_check_stack_overflow</text>
</a>
</g>
</g>
<!-- Node1&#45;&gt;Node2 -->
<g id="edge1" class="edge">
<title>Node1&#45;&gt;Node2</title>
<path fill="none" stroke="midnightblue" d="M892.48,-141.97C858.7,-165.68 795.08,-210.33 767.19,-229.9"/>
<polygon fill="midnightblue" stroke="midnightblue" points="894.6,-144.76 900.77,-136.15 890.58,-139.03 894.6,-144.76"/>
</g>
<!-- Node626 -->
<g id="node30" class="node">
<title>Node626</title>
<g id="a_node30"><a xlink:href="quickjs_8c.html#acc46b60ebaafcded5d2021783ecc34e3" target="_top" xlink:title=" ">
<polygon fill="none" stroke="black" points="697.5,-98.01 697.5,-117.01 807.5,-117.01 807.5,-98.01 697.5,-98.01"/>
<text text-anchor="middle" x="752.5" y="-105.01" font-family="Helvetica,sans-Serif" font-size="10.00">JS_UpdateStackTop</text>
</a>
</g>
</g>
<!-- Node1&#45;&gt;Node626 -->
<g id="edge37" class="edge">
<title>Node1&#45;&gt;Node626</title>
<path fill="none" stroke="midnightblue" d="M846.52,-118.49C833.5,-116.96 820.04,-115.37 807.54,-113.89"/>
<polygon fill="midnightblue" stroke="midnightblue" points="846.49,-122.01 856.83,-119.71 847.31,-115.06 846.49,-122.01"/>
</g>
<!-- Node3 -->
<g id="node3" class="node">
<title>Node3</title>
<g id="a_node3"><a xlink:href="quickjs_8c.html#ade71a22dc56e7371392393df663b28b3" target="_top" xlink:title=" ">
<polygon fill="none" stroke="black" points="338.5,-287.01 338.5,-306.01 451.5,-306.01 451.5,-287.01 338.5,-287.01"/>
<text text-anchor="middle" x="395" y="-294.01" font-family="Helvetica,sans-Serif" font-size="10.00">async_func_resume</text>
</a>
</g>
</g>
<!-- Node2&#45;&gt;Node3 -->
<g id="edge2" class="edge">
<title>Node2&#45;&gt;Node3</title>
<path fill="none" stroke="midnightblue" d="M744.92,-258.98C732.29,-292.85 701.08,-361.65 648,-389.51 592.91,-418.43 560.75,-422.51 508,-389.51 476.99,-370.12 500.4,-338.55 472,-315.51 466.08,-310.72 459.12,-307.11 451.85,-304.4"/>
<polygon fill="midnightblue" stroke="midnightblue" points="748.31,-259.91 748.37,-249.31 741.72,-257.55 748.31,-259.91"/>
</g>
<!-- Node22 -->
<g id="node9" class="node">
<title>Node22</title>
<g id="a_node9"><a xlink:href="quickjs_8c.html#a9e94551ddba8762d74eda5127445dbbd" target="_top" xlink:title=" ">
<polygon fill="none" stroke="red" points="524,-495.01 524,-514.01 632,-514.01 632,-495.01 524,-495.01"/>
<text text-anchor="middle" x="578" y="-502.01" font-family="Helvetica,sans-Serif" font-size="10.00">get_proxy_method</text>
</a>
</g>
</g>
<!-- Node2&#45;&gt;Node22 -->
<g id="edge8" class="edge">
<title>Node2&#45;&gt;Node22</title>
<path fill="none" stroke="midnightblue" d="M742.38,-258.21C725.54,-292.1 687.63,-365.46 648,-422.51 628.68,-450.32 601.96,-480.04 588.12,-494.89"/>
<polygon fill="midnightblue" stroke="midnightblue" points="745.63,-259.54 746.91,-249.02 739.35,-256.44 745.63,-259.54"/>
</g>
<!-- Node37 -->
<g id="node21" class="node">
<title>Node37</title>
<g id="a_node21"><a xlink:href="quickjs_8c.html#a624282391413d4c5a030adbd8b77aa80" target="_top" xlink:title=" ">
<polygon fill="none" stroke="red" points="508,-343.01 508,-362.01 648,-362.01 648,-343.01 508,-343.01"/>
<text text-anchor="middle" x="578" y="-350.01" font-family="Helvetica,sans-Serif" font-size="10.00">internalize_json_property</text>
</a>
</g>
</g>
<!-- Node2&#45;&gt;Node37 -->
<g id="edge21" class="edge">
<title>Node2&#45;&gt;Node37</title>
<path fill="none" stroke="midnightblue" d="M737,-256.96C718.48,-278.13 684.45,-313.46 648,-333.51 641.03,-337.35 633.24,-340.45 625.46,-342.95"/>
<polygon fill="midnightblue" stroke="midnightblue" points="739.89,-258.97 743.73,-249.09 734.57,-254.41 739.89,-258.97"/>
</g>
<!-- Node48 -->
<g id="node22" class="node">
<title>Node48</title>
<g id="a_node22"><a xlink:href="quickjs_8c.html#afd4ef2d701fa0702f321925b61c57bbf" target="_top" xlink:title=" ">
<polygon fill="none" stroke="black" points="145,-211.01 145,-230.01 273,-230.01 273,-211.01 145,-211.01"/>
<text text-anchor="middle" x="209" y="-218.01" font-family="Helvetica,sans-Serif" font-size="10.00">js_call_bound_function</text>
</a>
</g>
</g>
<!-- Node2&#45;&gt;Node48 -->
<g id="edge23" class="edge">
<title>Node2&#45;&gt;Node48</title>
<path fill="none" stroke="midnightblue" d="M673.78,-241.36C586.94,-242.78 442.22,-243.25 318,-234.51 303.48,-233.49 287.92,-231.82 273.27,-229.98"/>
<polygon fill="midnightblue" stroke="midnightblue" points="673.88,-244.86 683.82,-241.19 673.76,-237.86 673.88,-244.86"/>
</g>
<!-- Node239 -->
<g id="node23" class="node">
<title>Node239</title>
<g id="a_node23"><a xlink:href="quickjs_8c.html#a3486836f2ac17a9fa315904e14858e5a" target="_top" xlink:title=" ">
<polygon fill="none" stroke="black" points="157.5,-173.01 157.5,-192.01 260.5,-192.01 260.5,-173.01 157.5,-173.01"/>
<text text-anchor="middle" x="209" y="-180.01" font-family="Helvetica,sans-Serif" font-size="10.00">js_call_c_function</text>
</a>
</g>
</g>
<!-- Node2&#45;&gt;Node239 -->
<g id="edge25" class="edge">
<title>Node2&#45;&gt;Node239</title>
<path fill="none" stroke="midnightblue" d="M673.46,-231.3C560.71,-219.43 355.39,-197.82 260.53,-187.83"/>
<polygon fill="midnightblue" stroke="midnightblue" points="673.43,-234.81 683.74,-232.38 674.16,-227.85 673.43,-234.81"/>
</g>
<!-- Node33 -->
<g id="node24" class="node">
<title>Node33</title>
<g id="a_node24"><a xlink:href="quickjs_8c.html#ac2894ff4edcdb4e6841bcce9c76081e3" target="_top" xlink:title=" ">
<polygon fill="none" stroke="red" points="534.5,-287.01 534.5,-306.01 621.5,-306.01 621.5,-287.01 534.5,-287.01"/>
<text text-anchor="middle" x="578" y="-294.01" font-family="Helvetica,sans-Serif" font-size="10.00">JS_CallInternal</text>
</a>
</g>
</g>
<!-- Node2&#45;&gt;Node33 -->
<g id="edge27" class="edge">
<title>Node2&#45;&gt;Node33</title>
<path fill="none" stroke="midnightblue" d="M712.79,-252.31C681.02,-262.8 636.73,-277.44 607.97,-286.94"/>
<polygon fill="midnightblue" stroke="midnightblue" points="714.23,-255.52 722.63,-249.05 712.03,-248.87 714.23,-255.52"/>
</g>
<!-- Node51 -->
<g id="node25" class="node">
<title>Node51</title>
<g id="a_node25"><a xlink:href="quickjs_8c.html#ad90c33b4aae1181151bda4a98ac2ef23" target="_top" xlink:title=" ">
<polygon fill="none" stroke="red" points="523,-155.01 523,-174.01 633,-174.01 633,-155.01 523,-155.01"/>
<text text-anchor="middle" x="578" y="-162.01" font-family="Helvetica,sans-Serif" font-size="10.00">JS_FlattenIntoArray</text>
</a>
</g>
</g>
<!-- Node2&#45;&gt;Node51 -->
<g id="edge30" class="edge">
<title>Node2&#45;&gt;Node51</title>
<path fill="none" stroke="midnightblue" d="M719.72,-225.7C685.27,-210.72 631.21,-187.22 601.11,-174.13"/>
<polygon fill="midnightblue" stroke="midnightblue" points="718.74,-229.08 729.3,-229.86 721.53,-222.67 718.74,-229.08"/>
</g>
<!-- Node63 -->
<g id="node26" class="node">
<title>Node63</title>
<g id="a_node26"><a xlink:href="quickjs_8c.html#a4b8ef2bb3b35e4a5f6ed8bd837a50e7c" target="_top" xlink:title=" ">
<polygon fill="none" stroke="red" points="525.5,-117.01 525.5,-136.01 630.5,-136.01 630.5,-117.01 525.5,-117.01"/>
<text text-anchor="middle" x="578" y="-124.01" font-family="Helvetica,sans-Serif" font-size="10.00">JS_ReadObjectRec</text>
</a>
</g>
</g>
<!-- Node2&#45;&gt;Node63 -->
<g id="edge32" class="edge">
<title>Node2&#45;&gt;Node63</title>
<path fill="none" stroke="midnightblue" d="M737,-222.07C718.48,-200.9 684.45,-165.57 648,-145.51 641.03,-141.68 633.24,-138.58 625.46,-136.08"/>
<polygon fill="midnightblue" stroke="midnightblue" points="734.57,-224.61 743.73,-229.93 739.89,-220.06 734.57,-224.61"/>
</g>
<!-- Node362 -->
<g id="node27" class="node">
<title>Node362</title>
<g id="a_node27"><a xlink:href="quickjs_8c.html#aa9342f7444c1c9f8743d43aa4d7f89e3" target="_top" xlink:title=" ">
<polygon fill="none" stroke="red" points="524.5,-61.01 524.5,-80.01 631.5,-80.01 631.5,-61.01 524.5,-61.01"/>
<text text-anchor="middle" x="578" y="-68.01" font-family="Helvetica,sans-Serif" font-size="10.00">JS_WriteObjectRec</text>
</a>
</g>
</g>
<!-- Node2&#45;&gt;Node362 -->
<g id="edge33" class="edge">
<title>Node2&#45;&gt;Node362</title>
<path fill="none" stroke="midnightblue" d="M740.61,-221.16C723.61,-193.71 688.48,-141.54 648,-107.51 634.27,-95.97 616.35,-86.49 602.22,-80.02"/>
<polygon fill="midnightblue" stroke="midnightblue" points="737.66,-223.05 745.85,-229.77 743.64,-219.41 737.66,-223.05"/>
</g>
<!-- Node616 -->
<g id="node28" class="node">
<title>Node616</title>
<g id="a_node28"><a xlink:href="quickjs_8c.html#a7fbd31397bde22dfa2b876b945f9afb4" target="_top" xlink:title=" ">
<polygon fill="none" stroke="red" points="530,-23.01 530,-42.01 626,-42.01 626,-23.01 530,-23.01"/>
<text text-anchor="middle" x="578" y="-30.01" font-family="Helvetica,sans-Serif" font-size="10.00">json_next_token</text>
</a>
</g>
</g>
<!-- Node2&#45;&gt;Node616 -->
<g id="edge35" class="edge">
<title>Node2&#45;&gt;Node616</title>
<path fill="none" stroke="midnightblue" d="M739.96,-221.36C726.08,-199.28 702.37,-160.71 684,-126.51 666.5,-93.94 676.37,-75.22 648,-51.51 641.71,-46.26 634.07,-42.45 626.21,-39.69"/>
<polygon fill="midnightblue" stroke="midnightblue" points="737.12,-223.42 745.42,-230.01 743.04,-219.69 737.12,-223.42"/>
</g>
<!-- Node618 -->
<g id="node29" class="node">
<title>Node618</title>
<g id="a_node29"><a xlink:href="quickjs_8c.html#a75a3798e2045f6e403c1ef467126d1fb" target="_top" xlink:title=" ">
<polygon fill="none" stroke="red" points="542.5,-533.01 542.5,-552.01 613.5,-552.01 613.5,-533.01 542.5,-533.01"/>
<text text-anchor="middle" x="578" y="-540.01" font-family="Helvetica,sans-Serif" font-size="10.00">next_token</text>
</a>
</g>
</g>
<!-- Node2&#45;&gt;Node618 -->
<g id="edge36" class="edge">
<title>Node2&#45;&gt;Node618</title>
<path fill="none" stroke="midnightblue" d="M750.32,-259.1C746.13,-310.46 727.62,-450.08 648,-523.51 638.68,-532.11 625.84,-536.87 613.75,-539.49"/>
<polygon fill="midnightblue" stroke="midnightblue" points="753.81,-259.26 751.04,-249.03 746.83,-258.76 753.81,-259.26"/>
</g>
<!-- Node4 -->
<g id="node4" class="node">
<title>Node4</title>
<g id="a_node4"><a xlink:href="quickjs_8c.html#a1bf6b62983e8fff99c0a5d5a9f486115" target="_top" xlink:title=" ">
<polygon fill="none" stroke="red" points="136,-249.01 136,-268.01 282,-268.01 282,-249.01 136,-249.01"/>
<text text-anchor="middle" x="209" y="-256.01" font-family="Helvetica,sans-Serif" font-size="10.00">js_async_function_resume</text>
</a>
</g>
</g>
<!-- Node3&#45;&gt;Node4 -->
<g id="edge3" class="edge">
<title>Node3&#45;&gt;Node4</title>
<path fill="none" stroke="midnightblue" d="M337.44,-284.83C311.35,-279.44 280.76,-273.13 256.1,-268.03"/>
<polygon fill="midnightblue" stroke="midnightblue" points="337.07,-288.33 347.57,-286.92 338.48,-281.47 337.07,-288.33"/>
</g>
<!-- Node12 -->
<g id="node5" class="node">
<title>Node12</title>
<g id="a_node5"><a xlink:href="quickjs_8c.html#ae19867da709929c072f05e90301835a4" target="_top" xlink:title=" ">
<polygon fill="none" stroke="red" points="153.5,-374.51 153.5,-404.51 264.5,-404.51 264.5,-374.51 153.5,-374.51"/>
<text text-anchor="start" x="161.5" y="-392.51" font-family="Helvetica,sans-Serif" font-size="10.00">js_async_generator</text>
<text text-anchor="middle" x="209" y="-381.51" font-family="Helvetica,sans-Serif" font-size="10.00">_function_call</text>
</a>
</g>
</g>
<!-- Node3&#45;&gt;Node12 -->
<g id="edge4" class="edge">
<title>Node3&#45;&gt;Node12</title>
<path fill="none" stroke="midnightblue" d="M328.63,-309.56C324.91,-311.3 321.33,-313.28 318,-315.51 295.56,-330.57 303.74,-348.47 282,-364.51 276.78,-368.36 270.92,-371.66 264.86,-374.46"/>
<polygon fill="midnightblue" stroke="midnightblue" points="330.17,-312.71 338.11,-305.69 327.53,-306.23 330.17,-312.71"/>
</g>
<!-- Node13 -->
<g id="node6" class="node">
<title>Node13</title>
<g id="a_node6"><a xlink:href="quickjs_8c.html#a89b019c704a2d2914bc30b30a72040b3" target="_top" xlink:title=" ">
<polygon fill="none" stroke="black" points="153.5,-325.51 153.5,-355.51 264.5,-355.51 264.5,-325.51 153.5,-325.51"/>
<text text-anchor="start" x="161.5" y="-343.51" font-family="Helvetica,sans-Serif" font-size="10.00">js_async_generator</text>
<text text-anchor="middle" x="209" y="-332.51" font-family="Helvetica,sans-Serif" font-size="10.00">_resume_next</text>
</a>
</g>
</g>
<!-- Node3&#45;&gt;Node13 -->
<g id="edge5" class="edge">
<title>Node3&#45;&gt;Node13</title>
<path fill="none" stroke="midnightblue" d="M344.21,-308.42C319.56,-314.31 289.76,-321.44 264.51,-327.48"/>
<polygon fill="midnightblue" stroke="midnightblue" points="345.16,-311.79 354.07,-306.06 343.53,-304.98 345.16,-311.79"/>
</g>
<!-- Node14 -->
<g id="node7" class="node">
<title>Node14</title>
<g id="a_node7"><a xlink:href="quickjs_8c.html#ac90552b1f1659acb3dae9a4c62479a30" target="_top" xlink:title=" ">
<polygon fill="none" stroke="black" points="136.5,-287.01 136.5,-306.01 281.5,-306.01 281.5,-287.01 136.5,-287.01"/>
<text text-anchor="middle" x="209" y="-294.01" font-family="Helvetica,sans-Serif" font-size="10.00">js_generator_function_call</text>
</a>
</g>
</g>
<!-- Node3&#45;&gt;Node14 -->
<g id="edge6" class="edge">
<title>Node3&#45;&gt;Node14</title>
<path fill="none" stroke="midnightblue" d="M328.03,-296.51C312.94,-296.51 296.83,-296.51 281.52,-296.51"/>
<polygon fill="midnightblue" stroke="midnightblue" points="328.29,-300.01 338.29,-296.51 328.29,-293.01 328.29,-300.01"/>
</g>
<!-- Node15 -->
<g id="node8" class="node">
<title>Node15</title>
<g id="a_node8"><a xlink:href="quickjs_8c.html#a27966451027feb455b5da12c1578771c" target="_top" xlink:title=" ">
<polygon fill="none" stroke="red" points="0,-192.01 0,-211.01 100,-211.01 100,-192.01 0,-192.01"/>
<text text-anchor="middle" x="50" y="-199.01" font-family="Helvetica,sans-Serif" font-size="10.00">JS_NewRuntime2</text>
</a>
</g>
</g>
<!-- Node14&#45;&gt;Node15 -->
<g id="edge7" class="edge">
<title>Node14&#45;&gt;Node15</title>
<path fill="none" stroke="midnightblue" d="M149.48,-283.63C144.81,-281.83 140.26,-279.81 136,-277.51 103.23,-259.88 72.75,-227.16 58.87,-211.02"/>
<polygon fill="midnightblue" stroke="midnightblue" points="148.57,-287.02 159.16,-286.98 150.86,-280.4 148.57,-287.02"/>
</g>
<!-- Node23 -->
<g id="node10" class="node">
<title>Node23</title>
<g id="a_node10"><a xlink:href="quickjs_8c.html#ab9f916b6a1fda4cec1a1eb6d691ed89c" target="_top" xlink:title=" ">
<polygon fill="none" stroke="red" points="169,-558.01 169,-577.01 249,-577.01 249,-558.01 169,-558.01"/>
<text text-anchor="middle" x="209" y="-565.01" font-family="Helvetica,sans-Serif" font-size="10.00">js_proxy_call</text>
</a>
</g>
</g>
<!-- Node22&#45;&gt;Node23 -->
<g id="edge9" class="edge">
<title>Node22&#45;&gt;Node23</title>
<path fill="none" stroke="midnightblue" d="M518.02,-517.99C514.53,-519.63 511.15,-521.46 508,-523.51 486.82,-537.29 494.83,-556.69 472,-567.51 398.63,-602.28 300.2,-588.57 247.32,-577.07"/>
<polygon fill="midnightblue" stroke="midnightblue" points="519.58,-521.14 527.5,-514.1 516.92,-514.66 519.58,-521.14"/>
</g>
<!-- Node25 -->
<g id="node11" class="node">
<title>Node25</title>
<g id="a_node11"><a xlink:href="quickjs_8c.html#af97646b66d6fcb8bd19543d93baeadd7" target="_top" xlink:title=" ">
<polygon fill="none" stroke="black" points="325,-539.01 325,-558.01 465,-558.01 465,-539.01 325,-539.01"/>
<text text-anchor="middle" x="395" y="-546.01" font-family="Helvetica,sans-Serif" font-size="10.00">js_proxy_call_constructor</text>
</a>
</g>
</g>
<!-- Node22&#45;&gt;Node25 -->
<g id="edge10" class="edge">
<title>Node22&#45;&gt;Node25</title>
<path fill="none" stroke="midnightblue" d="M527.76,-516.48C498.67,-523.56 462.34,-532.39 435.2,-538.99"/>
<polygon fill="midnightblue" stroke="midnightblue" points="528.84,-519.82 537.73,-514.06 527.18,-513.02 528.84,-519.82"/>
</g>
<!-- Node26 -->
<g id="node12" class="node">
<title>Node26</title>
<g id="a_node12"><a xlink:href="quickjs_8c.html#a7e5b77a4851eee6f666581d051979392" target="_top" xlink:title=" ">
<polygon fill="none" stroke="black" points="335.5,-489.51 335.5,-519.51 454.5,-519.51 454.5,-489.51 335.5,-489.51"/>
<text text-anchor="start" x="343.5" y="-507.51" font-family="Helvetica,sans-Serif" font-size="10.00">js_proxy_define_own</text>
<text text-anchor="middle" x="395" y="-496.51" font-family="Helvetica,sans-Serif" font-size="10.00">_property</text>
</a>
</g>
</g>
<!-- Node22&#45;&gt;Node26 -->
<g id="edge12" class="edge">
<title>Node22&#45;&gt;Node26</title>
<path fill="none" stroke="midnightblue" d="M513.54,-504.51C494.39,-504.51 473.46,-504.51 454.64,-504.51"/>
<polygon fill="midnightblue" stroke="midnightblue" points="513.67,-508.01 523.67,-504.51 513.67,-501.01 513.67,-508.01"/>
</g>
<!-- Node27 -->
<g id="node13" class="node">
<title>Node27</title>
<g id="a_node13"><a xlink:href="quickjs_8c.html#acffb121a8a0ee2b735f60c1db01e79e7" target="_top" xlink:title=" ">
<polygon fill="none" stroke="black" points="325,-451.01 325,-470.01 465,-470.01 465,-451.01 325,-451.01"/>
<text text-anchor="middle" x="395" y="-458.01" font-family="Helvetica,sans-Serif" font-size="10.00">js_proxy_delete_property</text>
</a>
</g>
</g>
<!-- Node22&#45;&gt;Node27 -->
<g id="edge13" class="edge">
<title>Node22&#45;&gt;Node27</title>
<path fill="none" stroke="midnightblue" d="M527.76,-492.54C498.67,-485.47 462.34,-476.64 435.2,-470.04"/>
<polygon fill="midnightblue" stroke="midnightblue" points="527.18,-496.01 537.73,-494.97 528.84,-489.2 527.18,-496.01"/>
</g>
<!-- Node28 -->
<g id="node14" class="node">
<title>Node28</title>
<g id="a_node14"><a xlink:href="quickjs_8c.html#a45df491949e8e055e732eb13c446d47b" target="_top" xlink:title=" ">
<polygon fill="none" stroke="black" points="355.5,-413.01 355.5,-432.01 434.5,-432.01 434.5,-413.01 355.5,-413.01"/>
<text text-anchor="middle" x="395" y="-420.01" font-family="Helvetica,sans-Serif" font-size="10.00">js_proxy_get</text>
</a>
</g>
</g>
<!-- Node22&#45;&gt;Node28 -->
<g id="edge14" class="edge">
<title>Node22&#45;&gt;Node28</title>
<path fill="none" stroke="midnightblue" d="M555.45,-488.97C534.9,-474.8 502.62,-454.2 472,-441.51 460.19,-436.62 446.8,-432.76 434.59,-429.83"/>
<polygon fill="midnightblue" stroke="midnightblue" points="553.56,-491.92 563.76,-494.8 557.58,-486.19 553.56,-491.92"/>
</g>
<!-- Node29 -->
<g id="node15" class="node">
<title>Node29</title>
<g id="a_node15"><a xlink:href="quickjs_8c.html#ab9c2e9c8dab72f3c057efe4ffcced332" target="_top" xlink:title=" ">
<polygon fill="none" stroke="black" points="319.5,-375.01 319.5,-394.01 470.5,-394.01 470.5,-375.01 319.5,-375.01"/>
<text text-anchor="middle" x="395" y="-382.01" font-family="Helvetica,sans-Serif" font-size="10.00">js_proxy_get_own_property</text>
</a>
</g>
</g>
<!-- Node22&#45;&gt;Node29 -->
<g id="edge15" class="edge">
<title>Node22&#45;&gt;Node29</title>
<path fill="none" stroke="midnightblue" d="M563.41,-486.59C545.14,-463.79 510.49,-424.81 472,-403.51 464.98,-399.63 457.16,-396.52 449.28,-394.05"/>
<polygon fill="midnightblue" stroke="midnightblue" points="560.87,-489.02 569.79,-494.74 566.38,-484.71 560.87,-489.02"/>
</g>
<!-- Node30 -->
<g id="node16" class="node">
<title>Node30</title>
<g id="a_node16"><a xlink:href="quickjs_8c.html#a438b354d69a8f0674195b0cdc19dd686" target="_top" xlink:title=" ">
<polygon fill="none" stroke="black" points="319.5,-325.51 319.5,-355.51 470.5,-355.51 470.5,-325.51 319.5,-325.51"/>
<text text-anchor="start" x="327.5" y="-343.51" font-family="Helvetica,sans-Serif" font-size="10.00">js_proxy_get_own_property</text>
<text text-anchor="middle" x="395" y="-332.51" font-family="Helvetica,sans-Serif" font-size="10.00">_names</text>
</a>
</g>
</g>
<!-- Node22&#45;&gt;Node30 -->
<g id="edge16" class="edge">
<title>Node22&#45;&gt;Node30</title>
<path fill="none" stroke="midnightblue" d="M561.2,-487.16C546.72,-470.94 525.02,-445.79 508,-422.51 490.31,-398.33 495.62,-383.95 472,-365.51 467.07,-361.67 461.53,-358.4 455.74,-355.63"/>
<polygon fill="midnightblue" stroke="midnightblue" points="558.76,-489.68 568.05,-494.77 563.96,-485 558.76,-489.68"/>
</g>
<!-- Node31 -->
<g id="node17" class="node">
<title>Node31</title>
<g id="a_node17"><a xlink:href="quickjs_8c.html#adda8732f2afb3bb7bd7e5f59e3ba022d" target="_top" xlink:title=" ">
<polygon fill="none" stroke="red" points="326.5,-729.01 326.5,-748.01 463.5,-748.01 463.5,-729.01 326.5,-729.01"/>
<text text-anchor="middle" x="395" y="-736.01" font-family="Helvetica,sans-Serif" font-size="10.00">js_proxy_getPrototypeOf</text>
</a>
</g>
</g>
<!-- Node22&#45;&gt;Node31 -->
<g id="edge17" class="edge">
<title>Node22&#45;&gt;Node31</title>
<path fill="none" stroke="midnightblue" d="M514.78,-517.55C512.33,-519.3 510.05,-521.28 508,-523.51 448.16,-588.81 532.61,-654.94 472,-719.51 468.46,-723.28 464.3,-726.35 459.78,-728.84"/>
<polygon fill="midnightblue" stroke="midnightblue" points="516.78,-520.43 523.7,-512.41 513.29,-514.37 516.78,-520.43"/>
</g>
<!-- Node395 -->
<g id="node18" class="node">
<title>Node395</title>
<g id="a_node18"><a xlink:href="quickjs_8c.html#a1bddfeab11a7cfee6bd88781073b5972" target="_top" xlink:title=" ">
<polygon fill="none" stroke="black" points="355,-691.01 355,-710.01 435,-710.01 435,-691.01 355,-691.01"/>
<text text-anchor="middle" x="395" y="-698.01" font-family="Helvetica,sans-Serif" font-size="10.00">js_proxy_has</text>
</a>
</g>
</g>
<!-- Node22&#45;&gt;Node395 -->
<g id="edge18" class="edge">
<title>Node22&#45;&gt;Node395</title>
<path fill="none" stroke="midnightblue" d="M514.9,-517.65C512.41,-519.38 510.09,-521.32 508,-523.51 458.22,-575.57 522.39,-630.06 472,-681.51 462.39,-691.33 448.53,-696.36 435.28,-698.85"/>
<polygon fill="midnightblue" stroke="midnightblue" points="516.9,-520.54 523.89,-512.58 513.46,-514.45 516.9,-520.54"/>
</g>
<!-- Node602 -->
<g id="node19" class="node">
<title>Node602</title>
<g id="a_node19"><a xlink:href="quickjs_8c.html#a89d3c8659c2a6a62d3528b6b6794b24f" target="_top" xlink:title=" ">
<polygon fill="none" stroke="red" points="334,-653.01 334,-672.01 456,-672.01 456,-653.01 334,-653.01"/>
<text text-anchor="middle" x="395" y="-660.01" font-family="Helvetica,sans-Serif" font-size="10.00">js_proxy_isExtensible</text>
</a>
</g>
</g>
<!-- Node22&#45;&gt;Node602 -->
<g id="edge19" class="edge">
<title>Node22&#45;&gt;Node602</title>
<path fill="none" stroke="midnightblue" d="M514.93,-517.93C512.45,-519.58 510.12,-521.44 508,-523.51 468.18,-562.44 512.28,-605.07 472,-643.51 467.38,-647.93 461.89,-651.36 456.01,-654.03"/>
<polygon fill="midnightblue" stroke="midnightblue" points="516.76,-520.91 523.84,-513.03 513.39,-514.78 516.76,-520.91"/>
</g>
<!-- Node605 -->
<g id="node20" class="node">
<title>Node605</title>
<g id="a_node20"><a xlink:href="quickjs_8c.html#a7be64afafb067c71764032c0708d7aa3" target="_top" xlink:title=" ">
<polygon fill="none" stroke="red" points="318,-615.01 318,-634.01 472,-634.01 472,-615.01 318,-615.01"/>
<text text-anchor="middle" x="395" y="-622.01" font-family="Helvetica,sans-Serif" font-size="10.00">js_proxy_preventExtensions</text>
</a>
</g>
</g>
<!-- Node22&#45;&gt;Node605 -->
<g id="edge20" class="edge">
<title>Node22&#45;&gt;Node605</title>
<path fill="none" stroke="midnightblue" d="M514.5,-518.81C512.21,-520.23 510.04,-521.8 508,-523.51 479.13,-547.88 500.41,-575.61 472,-600.51 464.82,-606.81 455.99,-611.45 446.92,-614.88"/>
<polygon fill="midnightblue" stroke="midnightblue" points="516.49,-521.72 523.74,-513.99 513.26,-515.51 516.49,-521.72"/>
</g>
<!-- Node25&#45;&gt;Node23 -->
<g id="edge11" class="edge">
<title>Node25&#45;&gt;Node23</title>
<path fill="none" stroke="midnightblue" d="M314.96,-556.68C292.22,-559.02 268.4,-561.48 249.21,-563.46"/>
<polygon fill="midnightblue" stroke="midnightblue" points="315.37,-560.15 324.96,-555.64 314.66,-553.19 315.37,-560.15"/>
</g>
<!-- Node37&#45;&gt;Node37 -->
<g id="edge22" class="edge">
<title>Node37&#45;&gt;Node37</title>
<path fill="none" stroke="midnightblue" d="M610.56,-370.79C609.63,-376.25 598.78,-380.51 578,-380.51 547.07,-380.51 538.13,-371.08 551.18,-362.27"/>
<polygon fill="midnightblue" stroke="midnightblue" points="613.31,-368.61 604.82,-362.27 607.51,-372.52 613.31,-368.61"/>
</g>
<!-- Node48&#45;&gt;Node15 -->
<g id="edge24" class="edge">
<title>Node48&#45;&gt;Node15</title>
<path fill="none" stroke="midnightblue" d="M134.44,-211.61C122.81,-210.2 111.04,-208.78 100.15,-207.46"/>
<polygon fill="midnightblue" stroke="midnightblue" points="134.25,-215.11 144.59,-212.84 135.09,-208.16 134.25,-215.11"/>
</g>
<!-- Node239&#45;&gt;Node15 -->
<g id="edge26" class="edge">
<title>Node239&#45;&gt;Node15</title>
<path fill="none" stroke="midnightblue" d="M147.35,-189.85C131.71,-191.75 115.08,-193.76 100.11,-195.57"/>
<polygon fill="midnightblue" stroke="midnightblue" points="147.95,-193.31 157.46,-188.63 147.11,-186.36 147.95,-193.31"/>
</g>
<!-- Node33&#45;&gt;Node3 -->
<g id="edge28" class="edge">
<title>Node33&#45;&gt;Node3</title>
<path fill="none" stroke="midnightblue" d="M523.95,-296.51C501.21,-296.51 474.64,-296.51 451.62,-296.51"/>
<polygon fill="midnightblue" stroke="midnightblue" points="524.11,-300.01 534.11,-296.51 524.11,-293.01 524.11,-300.01"/>
</g>
<!-- Node33&#45;&gt;Node33 -->
<g id="edge29" class="edge">
<title>Node33&#45;&gt;Node33</title>
<path fill="none" stroke="midnightblue" d="M610.56,-314.79C609.63,-320.25 598.78,-324.51 578,-324.51 547.07,-324.51 538.13,-315.08 551.18,-306.27"/>
<polygon fill="midnightblue" stroke="midnightblue" points="613.31,-312.61 604.82,-306.27 607.51,-316.52 613.31,-312.61"/>
</g>
<!-- Node51&#45;&gt;Node51 -->
<g id="edge31" class="edge">
<title>Node51&#45;&gt;Node51</title>
<path fill="none" stroke="midnightblue" d="M610.56,-182.79C609.63,-188.25 598.78,-192.51 578,-192.51 547.07,-192.51 538.13,-183.08 551.18,-174.27"/>
<polygon fill="midnightblue" stroke="midnightblue" points="613.31,-180.61 604.82,-174.27 607.51,-184.52 613.31,-180.61"/>
</g>
<!-- Node362&#45;&gt;Node362 -->
<g id="edge34" class="edge">
<title>Node362&#45;&gt;Node362</title>
<path fill="none" stroke="midnightblue" d="M610.56,-88.79C609.63,-94.25 598.78,-98.51 578,-98.51 547.07,-98.51 538.13,-89.08 551.18,-80.27"/>
<polygon fill="midnightblue" stroke="midnightblue" points="613.31,-86.61 604.82,-80.27 607.51,-90.52 613.31,-86.61"/>
</g>
<!-- Node626&#45;&gt;Node15 -->
<g id="edge38" class="edge">
<title>Node626&#45;&gt;Node15</title>
<path fill="none" stroke="midnightblue" d="M738.81,-89.76C721.36,-67.04 687.58,-28.8 648,-13.51 589.96,8.91 569.08,-1.66 508,-13.51 325.66,-48.89 124.88,-158.89 67.26,-191.99"/>
<polygon fill="midnightblue" stroke="midnightblue" points="736.09,-91.96 744.87,-97.89 741.71,-87.78 736.09,-91.96"/>
</g>
</g>
</svg>
        <g id="navigator" transform="translate(0 0)" fill="#404254">
                <rect fill="#f2f5e9" fill-opacity="0.5" stroke="#606060" stroke-width=".5" x="0" y="0" width="60" height="60"/>
                <use id="zoomplus" xlink:href="#zoomPlus" x="17" y="9" onmousedown="handleZoom(evt,'in')"/>
                <use id="zoomminus" xlink:href="#zoomMin" x="42" y="9" onmousedown="handleZoom(evt,'out')"/>
                <use id="reset" xlink:href="#resetDef" x="30" y="36" onmousedown="handleReset()"/>
                <g id="arrowUp" xlink:href="#dirArrow" transform="translate(30 24)" onmousedown="handlePan(0,-1)">
                  <use xlink:href="#rim" fill="#404040">
                        <set attributeName="fill" to="#808080" begin="arrowUp.mouseover" end="arrowUp.mouseout"/>
                  </use>
                  <path fill="none" stroke="white" stroke-width="1.5" d="M0,-3.0v7 M-2.5,-0.5L0,-3.0L2.5,-0.5"/>
                </g>
                <g id="arrowRight" xlink:href="#dirArrow" transform="rotate(90) translate(36 -43)" onmousedown="handlePan(1,0)">
                  <use xlink:href="#rim" fill="#404040">
                        <set attributeName="fill" to="#808080" begin="arrowRight.mouseover" end="arrowRight.mouseout"/>
                  </use>
                  <path fill="none" stroke="white" stroke-width="1.5" d="M0,-3.0v7 M-2.5,-0.5L0,-3.0L2.5,-0.5"/>
                </g>
                <g id="arrowDown" xlink:href="#dirArrow" transform="rotate(180) translate(-30 -48)" onmousedown="handlePan(0,1)">
                  <use xlink:href="#rim" fill="#404040">
                        <set attributeName="fill" to="#808080" begin="arrowDown.mouseover" end="arrowDown.mouseout"/>
                  </use>
                  <path fill="none" stroke="white" stroke-width="1.5" d="M0,-3.0v7 M-2.5,-0.5L0,-3.0L2.5,-0.5"/>
                </g>
                <g id="arrowLeft" xlink:href="#dirArrow" transform="rotate(270) translate(-36 17)" onmousedown="handlePan(-1,0)">
                  <use xlink:href="#rim" fill="#404040">
                        <set attributeName="fill" to="#808080" begin="arrowLeft.mouseover" end="arrowLeft.mouseout"/>
                  </use>
                  <path fill="none" stroke="white" stroke-width="1.5" d="M0,-3.0v7 M-2.5,-0.5L0,-3.0L2.5,-0.5"/>
                </g>
        </g>
        <svg viewBox="0 0 15 15" width="100%" height="30px" preserveAspectRatio="xMaxYMin meet">
         <g id="arrow_out" transform="scale(0.3 0.3)">
          <a xlink:href="quickjs_8c_a36b8de436f88239e2e5515a3a423c6d9_icgraph_org.svg" target="_base">
           <rect id="button" ry="5" rx="5" y="6" x="6" height="38" width="38"
                fill="#f2f5e9" fill-opacity="0.5" stroke="#606060" stroke-width="1.0"/>
           <path id="arrow"
             d="M 11.500037,31.436501 C 11.940474,20.09759 22.043105,11.32322 32.158766,21.979434 L 37.068811,17.246167 C 37.068811,17.246167 37.088388,32 37.088388,32 L 22.160133,31.978069 C 22.160133,31.978069 26.997745,27.140456 26.997745,27.140456 C 18.528582,18.264221 13.291696,25.230495 11.500037,31.436501 z"
             style="fill:#404040;"/>
          </a>
         </g>
        </svg>
</svg>
