<?xml version="1.0" encoding="UTF-8" standalone="no"?>
<!DOCTYPE svg PUBLIC "-//W3C//DTD SVG 1.1//EN"
 "http://www.w3.org/Graphics/SVG/1.1/DTD/svg11.dtd">
<!-- Generated by graphviz version 2.43.0 (0)
 -->
<!-- Title: call_handler Pages: 1 -->
<!--zoomable 1055 -->
<svg id="main" version="1.1" xmlns="http://www.w3.org/2000/svg" xmlns:xlink="http://www.w3.org/1999/xlink" xml:space="preserve" onload="init(evt)">
<style type="text/css"><![CDATA[
.edge:hover path { stroke: red; }
.edge:hover polygon { stroke: red; fill: red; }
]]></style>
<script type="text/javascript"><![CDATA[
var edges = document.getElementsByTagName('g');
if (edges && edges.length) {
  for (var i=0;i<edges.length;i++) {
    if (edges[i].id.substr(0,4)=='edge') {
      edges[i].setAttribute('class','edge');
    }
  }
}
]]></script>
        <defs>
                <circle id="rim" cx="0" cy="0" r="7"/>
                <circle id="rim2" cx="0" cy="0" r="3.5"/>
                <g id="zoomPlus">
                        <use xlink:href="#rim" fill="#404040">
                                <set attributeName="fill" to="#808080" begin="zoomplus.mouseover" end="zoomplus.mouseout"/>
                        </use>
                        <path d="M-4,0h8M0,-4v8" fill="none" stroke="white" stroke-width="1.5" pointer-events="none"/>
                </g>
                <g id="zoomMin">
                        <use xlink:href="#rim" fill="#404040">
                                <set attributeName="fill" to="#808080" begin="zoomminus.mouseover" end="zoomminus.mouseout"/>
                        </use>
                        <path d="M-4,0h8" fill="none" stroke="white" stroke-width="1.5" pointer-events="none"/>
                </g>
                <g id="dirArrow">
                        <path fill="none" stroke="white" stroke-width="1.5" d="M0,-3.0v7 M-2.5,-0.5L0,-3.0L2.5,-0.5"/>
                </g>
               <g id="resetDef">
                       <use xlink:href="#rim2" fill="#404040">
                               <set attributeName="fill" to="#808080" begin="reset.mouseover" end="reset.mouseout"/>
                       </use>
               </g>
        </defs>

<script type="text/javascript">
var viewWidth = 718;
var viewHeight = 1055;
var sectionId = 'dynsection-85';
</script>
<script xlink:href="svgpan.js"/>
<svg id="graph" class="graph">
<g id="viewport">
<title>call_handler</title>
<!-- Node1 -->
<g id="node1" class="node">
<title>Node1</title>
<g id="a_node1"><a xlink:title=" ">
<polygon fill="#bfbfbf" stroke="black" points="0,-946.58 0,-965.58 76,-965.58 76,-946.58 0,-946.58"/>
<text text-anchor="middle" x="38" y="-953.58" font-family="Helvetica,sans-Serif" font-size="10.00">call_handler</text>
</a>
</g>
</g>
<!-- Node2 -->
<g id="node2" class="node">
<title>Node2</title>
<g id="a_node2"><a xlink:href="quickjs_8c.html#a1a4c02a29525d5cb2085dd8bca3af350" target="_top" xlink:title=" ">
<polygon fill="none" stroke="black" points="112,-490.58 112,-509.58 162,-509.58 162,-490.58 112,-490.58"/>
<text text-anchor="middle" x="137" y="-497.58" font-family="Helvetica,sans-Serif" font-size="10.00">JS_Call</text>
</a>
</g>
</g>
<!-- Node1&#45;&gt;Node2 -->
<g id="edge1" class="edge">
<title>Node1&#45;&gt;Node2</title>
<path fill="none" stroke="midnightblue" d="M41.03,-946.55C53.03,-890.11 114.9,-599.28 131.75,-520.04"/>
<polygon fill="midnightblue" stroke="midnightblue" points="135.25,-520.44 133.9,-509.94 128.4,-518.99 135.25,-520.44"/>
</g>
<!-- Node57 -->
<g id="node10" class="node">
<title>Node57</title>
<g id="a_node10"><a xlink:href="quickjs_8h.html#afaa20c47565bc704c6c85f3d77254e7d" target="_top" xlink:title=" ">
<polygon fill="none" stroke="red" points="631,-661.58 631,-680.58 710,-680.58 710,-661.58 631,-661.58"/>
<text text-anchor="middle" x="670.5" y="-668.58" font-family="Helvetica,sans-Serif" font-size="10.00">JS_FreeValue</text>
</a>
</g>
</g>
<!-- Node1&#45;&gt;Node57 -->
<g id="edge46" class="edge">
<title>Node1&#45;&gt;Node57</title>
<path fill="none" stroke="midnightblue" d="M53.45,-965.7C85.61,-986.15 166.1,-1032.08 240.5,-1032.08 240.5,-1032.08 240.5,-1032.08 384.5,-1032.08 478.44,-1032.08 524.57,-1075.24 595,-1013.08 643.99,-969.83 663.25,-757.84 668.15,-691.18"/>
<polygon fill="midnightblue" stroke="midnightblue" points="671.67,-691.03 668.89,-680.81 664.69,-690.54 671.67,-691.03"/>
</g>
<!-- Node36 -->
<g id="node11" class="node">
<title>Node36</title>
<g id="a_node11"><a xlink:href="quickjs_8h.html#a775522f2d084fc8fa0fcb33f390006b4" target="_top" xlink:title=" ">
<polygon fill="none" stroke="black" points="500,-338.58 500,-357.58 577,-357.58 577,-338.58 500,-338.58"/>
<text text-anchor="middle" x="538.5" y="-345.58" font-family="Helvetica,sans-Serif" font-size="10.00">JS_DupValue</text>
</a>
</g>
</g>
<!-- Node1&#45;&gt;Node36 -->
<g id="edge45" class="edge">
<title>Node1&#45;&gt;Node36</title>
<path fill="none" stroke="midnightblue" d="M39.49,-946.49C42.22,-896.69 57.52,-662.9 112,-481.08 175.99,-267.52 133.37,-145.48 321,-25.08 367.76,4.93 403.98,11.26 446,-25.08 487.96,-61.36 461.03,-220.73 482,-272.08 491.09,-294.33 508.06,-316.11 520.85,-330.61"/>
<polygon fill="midnightblue" stroke="midnightblue" points="518.49,-333.21 527.81,-338.25 523.67,-328.5 518.49,-333.21"/>
</g>
<!-- Node75 -->
<g id="node12" class="node">
<title>Node75</title>
<g id="a_node12"><a xlink:href="quickjs_8h.html#ad80a83d73e9b7d872b88fbf2943aebe9" target="_top" xlink:title=" ">
<polygon fill="none" stroke="black" points="495,-528.58 495,-547.58 582,-547.58 582,-528.58 495,-528.58"/>
<text text-anchor="middle" x="538.5" y="-535.58" font-family="Helvetica,sans-Serif" font-size="10.00">JS_IsException</text>
</a>
</g>
</g>
<!-- Node1&#45;&gt;Node75 -->
<g id="edge47" class="edge">
<title>Node1&#45;&gt;Node75</title>
<path fill="none" stroke="midnightblue" d="M76.06,-960.17C166.23,-969.26 393.52,-986.59 446,-937.08 501.59,-884.64 449.56,-664.27 482,-595.08 489.62,-578.82 503.82,-564.38 515.94,-554.09"/>
<polygon fill="midnightblue" stroke="midnightblue" points="518.31,-556.68 523.9,-547.67 513.92,-551.23 518.31,-556.68"/>
</g>
<!-- Node437 -->
<g id="node28" class="node">
<title>Node437</title>
<g id="a_node28"><a xlink:href="quickjs-libc_8c.html#a82bb7888d024e97e430d98653e97a7bc" target="_top" xlink:title=" ">
<polygon fill="none" stroke="black" points="330,-984.58 330,-1003.58 437,-1003.58 437,-984.58 330,-984.58"/>
<text text-anchor="middle" x="383.5" y="-991.58" font-family="Helvetica,sans-Serif" font-size="10.00">js_std_dump_error</text>
</a>
</g>
</g>
<!-- Node1&#45;&gt;Node437 -->
<g id="edge48" class="edge">
<title>Node1&#45;&gt;Node437</title>
<path fill="none" stroke="midnightblue" d="M76.02,-963.93C87.51,-966.16 100.24,-968.43 112,-970.08 182.84,-979.99 264.73,-986.58 319.68,-990.31"/>
<polygon fill="midnightblue" stroke="midnightblue" points="319.75,-993.82 329.96,-990.99 320.21,-986.84 319.75,-993.82"/>
</g>
<!-- Node3 -->
<g id="node3" class="node">
<title>Node3</title>
<g id="a_node3"><a xlink:href="quickjs_8c.html#ac2894ff4edcdb4e6841bcce9c76081e3" target="_top" xlink:title=" ">
<polygon fill="none" stroke="red" points="198,-490.58 198,-509.58 285,-509.58 285,-490.58 198,-490.58"/>
<text text-anchor="middle" x="241.5" y="-497.58" font-family="Helvetica,sans-Serif" font-size="10.00">JS_CallInternal</text>
</a>
</g>
</g>
<!-- Node2&#45;&gt;Node3 -->
<g id="edge2" class="edge">
<title>Node2&#45;&gt;Node3</title>
<path fill="none" stroke="midnightblue" d="M162.03,-494.26C169.77,-493.67 178.68,-493.36 187.65,-493.33"/>
<polygon fill="midnightblue" stroke="midnightblue" points="187.72,-496.83 197.74,-493.41 187.77,-489.83 187.72,-496.83"/>
</g>
<!-- Node3&#45;&gt;Node2 -->
<g id="edge40" class="edge">
<title>Node3&#45;&gt;Node2</title>
<path fill="none" stroke="midnightblue" d="M197.74,-506.74C189.16,-506.91 180.26,-506.82 172.03,-506.48"/>
<polygon fill="midnightblue" stroke="midnightblue" points="172.22,-502.98 162.03,-505.9 171.81,-509.97 172.22,-502.98"/>
</g>
<!-- Node3&#45;&gt;Node3 -->
<g id="edge41" class="edge">
<title>Node3&#45;&gt;Node3</title>
<path fill="none" stroke="midnightblue" d="M225.47,-509.83C217.67,-518.64 223.02,-528.08 241.5,-528.08 253.05,-528.08 259.47,-524.39 260.76,-519.48"/>
<polygon fill="midnightblue" stroke="midnightblue" points="264.02,-518.21 257.53,-509.83 257.39,-520.43 264.02,-518.21"/>
</g>
<!-- Node4 -->
<g id="node4" class="node">
<title>Node4</title>
<g id="a_node4"><a xlink:href="quickjs_8c.html#a853f0924d441ea4225488f37c8b69f9a" target="_top" xlink:title=" ">
<polygon fill="none" stroke="black" points="498.5,-604.58 498.5,-623.58 578.5,-623.58 578.5,-604.58 498.5,-604.58"/>
<text text-anchor="middle" x="538.5" y="-611.58" font-family="Helvetica,sans-Serif" font-size="10.00">__attribute__</text>
</a>
</g>
</g>
<!-- Node3&#45;&gt;Node4 -->
<g id="edge3" class="edge">
<title>Node3&#45;&gt;Node4</title>
<path fill="none" stroke="midnightblue" d="M247.14,-509.76C257.32,-529.78 283.69,-575.47 321,-595.08 373.17,-622.49 442.27,-623.53 488.22,-620.17"/>
<polygon fill="midnightblue" stroke="midnightblue" points="488.55,-623.65 498.23,-619.34 487.98,-616.68 488.55,-623.65"/>
</g>
<!-- Node5 -->
<g id="node5" class="node">
<title>Node5</title>
<g id="a_node5"><a xlink:href="quickjs_8c.html#a877fcb7651d95b411ce70e62b7f4a1f0" target="_top" xlink:title=" ">
<polygon fill="none" stroke="black" points="321,-186.58 321,-205.58 446,-205.58 446,-186.58 321,-186.58"/>
<text text-anchor="middle" x="383.5" y="-193.58" font-family="Helvetica,sans-Serif" font-size="10.00">__JS_AtomFromUInt32</text>
</a>
</g>
</g>
<!-- Node3&#45;&gt;Node5 -->
<g id="edge4" class="edge">
<title>Node3&#45;&gt;Node5</title>
<path fill="none" stroke="midnightblue" d="M242.3,-490.44C242.02,-451.36 246.1,-302.77 321,-220.08 324.47,-216.25 328.63,-213.02 333.12,-210.31"/>
<polygon fill="midnightblue" stroke="midnightblue" points="334.79,-213.38 342.08,-205.69 331.59,-207.16 334.79,-213.38"/>
</g>
<!-- Node6 -->
<g id="node6" class="node">
<title>Node6</title>
<g id="a_node6"><a xlink:href="quickjs_8h.html#a9bf98b18de88b4199910a43e933eb97d" target="_top" xlink:title=" ">
<polygon fill="none" stroke="black" points="333.5,-148.58 333.5,-167.58 433.5,-167.58 433.5,-148.58 333.5,-148.58"/>
<text text-anchor="middle" x="383.5" y="-155.58" font-family="Helvetica,sans-Serif" font-size="10.00">__JS_NewFloat64</text>
</a>
</g>
</g>
<!-- Node3&#45;&gt;Node6 -->
<g id="edge5" class="edge">
<title>Node3&#45;&gt;Node6</title>
<path fill="none" stroke="midnightblue" d="M243.57,-490.42C249.11,-441.85 276.12,-224.79 321,-177.08 322.38,-175.61 323.87,-174.26 325.44,-173.01"/>
<polygon fill="midnightblue" stroke="midnightblue" points="327.4,-175.91 333.95,-167.59 323.64,-170.01 327.4,-175.91"/>
</g>
<!-- Node7 -->
<g id="node7" class="node">
<title>Node7</title>
<g id="a_node7"><a xlink:href="quickjs_8c.html#a74547db03bf739a52c83a326b32db997" target="_top" xlink:title=" ">
<polygon fill="none" stroke="red" points="498,-243.58 498,-262.58 579,-262.58 579,-243.58 498,-243.58"/>
<text text-anchor="middle" x="538.5" y="-250.58" font-family="Helvetica,sans-Serif" font-size="10.00">add_property</text>
</a>
</g>
</g>
<!-- Node3&#45;&gt;Node7 -->
<g id="edge6" class="edge">
<title>Node3&#45;&gt;Node7</title>
<path fill="none" stroke="midnightblue" d="M241.99,-490.52C240.55,-452.57 240.92,-311.65 321,-253.08 373.15,-214.93 452.87,-228.01 499.63,-240.72"/>
<polygon fill="midnightblue" stroke="midnightblue" points="498.79,-244.12 509.37,-243.5 500.71,-237.39 498.79,-244.12"/>
</g>
<!-- Node65 -->
<g id="node8" class="node">
<title>Node65</title>
<g id="a_node8"><a xlink:href="quickjs_8c.html#a4956f45ffd2849b96dc051277264f87a" target="_top" xlink:title=" ">
<polygon fill="none" stroke="red" points="342.5,-566.58 342.5,-585.58 424.5,-585.58 424.5,-566.58 342.5,-566.58"/>
<text text-anchor="middle" x="383.5" y="-573.58" font-family="Helvetica,sans-Serif" font-size="10.00">build_arg_list</text>
</a>
</g>
</g>
<!-- Node3&#45;&gt;Node65 -->
<g id="edge7" class="edge">
<title>Node3&#45;&gt;Node65</title>
<path fill="none" stroke="midnightblue" d="M253.19,-509.63C267.64,-522.1 294.64,-543.89 321,-557.08 325.39,-559.27 330.09,-561.28 334.85,-563.09"/>
<polygon fill="midnightblue" stroke="midnightblue" points="334.06,-566.52 344.66,-566.53 336.39,-559.91 334.06,-566.52"/>
</g>
<!-- Node66 -->
<g id="node9" class="node">
<title>Node66</title>
<g id="a_node9"><a xlink:href="quickjs_8c.html#ac864482356b3efc2d0b0a509fcfa4c7c" target="_top" xlink:title=" ">
<polygon fill="none" stroke="red" points="500,-642.58 500,-661.58 577,-661.58 577,-642.58 500,-642.58"/>
<text text-anchor="middle" x="538.5" y="-649.58" font-family="Helvetica,sans-Serif" font-size="10.00">free_arg_list</text>
</a>
</g>
</g>
<!-- Node3&#45;&gt;Node66 -->
<g id="edge17" class="edge">
<title>Node3&#45;&gt;Node66</title>
<path fill="none" stroke="midnightblue" d="M245.54,-509.71C253.56,-533.37 277.7,-594.42 321,-622.08 371.84,-654.55 443.03,-658.26 489.69,-656.41"/>
<polygon fill="midnightblue" stroke="midnightblue" points="490.02,-659.9 499.83,-655.9 489.67,-652.9 490.02,-659.9"/>
</g>
<!-- Node3&#45;&gt;Node57 -->
<g id="edge43" class="edge">
<title>Node3&#45;&gt;Node57</title>
<path fill="none" stroke="midnightblue" d="M244.23,-509.6C249.75,-537.03 269.73,-616.56 321,-652.08 412.04,-715.13 550.71,-697.84 622.6,-682.78"/>
<polygon fill="midnightblue" stroke="midnightblue" points="623.68,-686.13 632.71,-680.59 622.2,-679.29 623.68,-686.13"/>
</g>
<!-- Node3&#45;&gt;Node36 -->
<g id="edge42" class="edge">
<title>Node3&#45;&gt;Node36</title>
<path fill="none" stroke="midnightblue" d="M243.44,-490.4C246.98,-460.07 262.43,-366.64 321,-329.08 378.43,-292.25 462.75,-316.93 507.31,-334.6"/>
<polygon fill="midnightblue" stroke="midnightblue" points="506.13,-337.9 516.71,-338.46 508.79,-331.42 506.13,-337.9"/>
</g>
<!-- Node3&#45;&gt;Node75 -->
<g id="edge44" class="edge">
<title>Node3&#45;&gt;Node75</title>
<path fill="none" stroke="midnightblue" d="M251.52,-490.46C265.07,-476.82 292.17,-452.44 321,-443.08 373.84,-425.92 394.88,-421.34 446,-443.08 482.67,-458.67 511.77,-496.96 526.64,-519.89"/>
<polygon fill="midnightblue" stroke="midnightblue" points="523.69,-521.77 531.96,-528.39 529.62,-518.06 523.69,-521.77"/>
</g>
<!-- Node161 -->
<g id="node13" class="node">
<title>Node161</title>
<g id="a_node13"><a xlink:href="quickjs_8c.html#a61c8dfb5e807af1b6ff7d8ca61576dda" target="_top" xlink:title=" ">
<polygon fill="none" stroke="red" points="336.5,-110.58 336.5,-129.58 430.5,-129.58 430.5,-110.58 336.5,-110.58"/>
<text text-anchor="middle" x="383.5" y="-117.58" font-family="Helvetica,sans-Serif" font-size="10.00">build_backtrace</text>
</a>
</g>
</g>
<!-- Node3&#45;&gt;Node161 -->
<g id="edge13" class="edge">
<title>Node3&#45;&gt;Node161</title>
<path fill="none" stroke="midnightblue" d="M243.31,-490.34C247.81,-438.28 271.45,-193.06 321,-139.08 322.98,-136.92 325.21,-135 327.6,-133.3"/>
<polygon fill="midnightblue" stroke="midnightblue" points="329.36,-136.32 336.29,-128.31 325.88,-130.25 329.36,-136.32"/>
</g>
<!-- Node248 -->
<g id="node14" class="node">
<title>Node248</title>
<g id="a_node14"><a xlink:href="quickjs_8c.html#a344894112559c2ba75043fd10bcfa02f" target="_top" xlink:title=" ">
<polygon fill="none" stroke="red" points="333,-262.58 333,-281.58 434,-281.58 434,-262.58 333,-262.58"/>
<text text-anchor="middle" x="383.5" y="-269.58" font-family="Helvetica,sans-Serif" font-size="10.00">close_lexical_var</text>
</a>
</g>
</g>
<!-- Node3&#45;&gt;Node248 -->
<g id="edge14" class="edge">
<title>Node3&#45;&gt;Node248</title>
<path fill="none" stroke="midnightblue" d="M243.47,-490.51C247.2,-458.49 263.44,-353.91 321,-296.08 324.89,-292.17 329.49,-288.88 334.4,-286.12"/>
<polygon fill="midnightblue" stroke="midnightblue" points="336.02,-289.22 343.48,-281.7 332.95,-282.93 336.02,-289.22"/>
</g>
<!-- Node249 -->
<g id="node15" class="node">
<title>Node249</title>
<g id="a_node15"><a xlink:href="quickjs_8c.html#a1782043fce951bd4f0d91c7796b31e24" target="_top" xlink:title=" ">
<polygon fill="none" stroke="red" points="340,-72.58 340,-91.58 427,-91.58 427,-72.58 340,-72.58"/>
<text text-anchor="middle" x="383.5" y="-79.58" font-family="Helvetica,sans-Serif" font-size="10.00">close_var_refs</text>
</a>
</g>
</g>
<!-- Node3&#45;&gt;Node249 -->
<g id="edge16" class="edge">
<title>Node3&#45;&gt;Node249</title>
<path fill="none" stroke="midnightblue" d="M243.08,-490.43C246.6,-435.41 266.69,-161.43 321,-101.08 323.86,-97.9 327.24,-95.25 330.91,-93.03"/>
<polygon fill="midnightblue" stroke="midnightblue" points="332.49,-96.16 339.94,-88.63 329.41,-89.87 332.49,-96.16"/>
</g>
<!-- Node54 -->
<g id="node16" class="node">
<title>Node54</title>
<g id="a_node16"><a xlink:href="quickjs_8c.html#a9e7b4bccf927d811b0f99b40b08c0472" target="_top" xlink:title=" ">
<polygon fill="none" stroke="red" points="345.5,-34.58 345.5,-53.58 421.5,-53.58 421.5,-34.58 345.5,-34.58"/>
<text text-anchor="middle" x="383.5" y="-41.58" font-family="Helvetica,sans-Serif" font-size="10.00">free_var_ref</text>
</a>
</g>
</g>
<!-- Node3&#45;&gt;Node54 -->
<g id="edge18" class="edge">
<title>Node3&#45;&gt;Node54</title>
<path fill="none" stroke="midnightblue" d="M242.91,-490.3C245.56,-431.91 262,-129.75 321,-63.08 325.03,-58.52 330.13,-55.04 335.66,-52.39"/>
<polygon fill="midnightblue" stroke="midnightblue" points="337.21,-55.54 345.26,-48.66 334.68,-49.02 337.21,-55.54"/>
</g>
<!-- Node251 -->
<g id="node17" class="node">
<title>Node251</title>
<g id="a_node17"><a xlink:href="cutils_8h.html#a7c82a3ee025fee89db5b11ff5b7691b8" target="_top" xlink:title=" ">
<polygon fill="none" stroke="black" points="357,-908.58 357,-927.58 410,-927.58 410,-908.58 357,-908.58"/>
<text text-anchor="middle" x="383.5" y="-915.58" font-family="Helvetica,sans-Serif" font-size="10.00">get_i16</text>
</a>
</g>
</g>
<!-- Node3&#45;&gt;Node251 -->
<g id="edge19" class="edge">
<title>Node3&#45;&gt;Node251</title>
<path fill="none" stroke="midnightblue" d="M243.08,-509.72C246.6,-564.75 266.69,-838.72 321,-899.08 327.71,-906.54 337.28,-911.1 346.88,-913.88"/>
<polygon fill="midnightblue" stroke="midnightblue" points="346.24,-917.33 356.78,-916.18 347.83,-910.51 346.24,-917.33"/>
</g>
<!-- Node252 -->
<g id="node18" class="node">
<title>Node252</title>
<g id="a_node18"><a xlink:href="cutils_8h.html#a288ee4e688944e23500af2ecc813c306" target="_top" xlink:title=" ">
<polygon fill="none" stroke="black" points="360,-870.58 360,-889.58 407,-889.58 407,-870.58 360,-870.58"/>
<text text-anchor="middle" x="383.5" y="-877.58" font-family="Helvetica,sans-Serif" font-size="10.00">get_i8</text>
</a>
</g>
</g>
<!-- Node3&#45;&gt;Node252 -->
<g id="edge20" class="edge">
<title>Node3&#45;&gt;Node252</title>
<path fill="none" stroke="midnightblue" d="M243.31,-509.81C247.81,-561.87 271.45,-807.09 321,-861.08 328.5,-869.25 339.43,-873.94 350.01,-876.62"/>
<polygon fill="midnightblue" stroke="midnightblue" points="349.42,-880.07 359.91,-878.62 350.8,-873.21 349.42,-880.07"/>
</g>
<!-- Node253 -->
<g id="node19" class="node">
<title>Node253</title>
<g id="a_node19"><a xlink:href="cutils_8h.html#ad587834d17e95461893d59661e5e9676" target="_top" xlink:title=" ">
<polygon fill="none" stroke="black" points="355.5,-832.58 355.5,-851.58 411.5,-851.58 411.5,-832.58 355.5,-832.58"/>
<text text-anchor="middle" x="383.5" y="-839.58" font-family="Helvetica,sans-Serif" font-size="10.00">get_u16</text>
</a>
</g>
</g>
<!-- Node3&#45;&gt;Node253 -->
<g id="edge21" class="edge">
<title>Node3&#45;&gt;Node253</title>
<path fill="none" stroke="midnightblue" d="M243.57,-509.74C249.11,-558.3 276.12,-775.37 321,-823.08 327.52,-830.01 336.51,-834.43 345.61,-837.25"/>
<polygon fill="midnightblue" stroke="midnightblue" points="344.86,-840.67 355.41,-839.72 346.56,-833.88 344.86,-840.67"/>
</g>
<!-- Node50 -->
<g id="node20" class="node">
<title>Node50</title>
<g id="a_node20"><a xlink:href="cutils_8h.html#a941262a5f72fda2ec43ae7911e97a0dc" target="_top" xlink:title=" ">
<polygon fill="none" stroke="black" points="355.5,-794.58 355.5,-813.58 411.5,-813.58 411.5,-794.58 355.5,-794.58"/>
<text text-anchor="middle" x="383.5" y="-801.58" font-family="Helvetica,sans-Serif" font-size="10.00">get_u32</text>
</a>
</g>
</g>
<!-- Node3&#45;&gt;Node50 -->
<g id="edge22" class="edge">
<title>Node3&#45;&gt;Node50</title>
<path fill="none" stroke="midnightblue" d="M242.08,-509.76C240.9,-549.72 241.87,-703.46 321,-785.08 327.57,-791.85 336.5,-796.23 345.51,-799.04"/>
<polygon fill="midnightblue" stroke="midnightblue" points="344.67,-802.44 355.22,-801.53 346.4,-795.66 344.67,-802.44"/>
</g>
<!-- Node254 -->
<g id="node21" class="node">
<title>Node254</title>
<g id="a_node21"><a xlink:href="quickjs_8c.html#a37fe43b6649456a848bd54846450b995" target="_top" xlink:title=" ">
<polygon fill="none" stroke="red" points="347.5,-756.58 347.5,-775.58 419.5,-775.58 419.5,-756.58 347.5,-756.58"/>
<text text-anchor="middle" x="383.5" y="-763.58" font-family="Helvetica,sans-Serif" font-size="10.00">get_var_ref</text>
</a>
</g>
</g>
<!-- Node3&#45;&gt;Node254 -->
<g id="edge23" class="edge">
<title>Node3&#45;&gt;Node254</title>
<path fill="none" stroke="midnightblue" d="M242.56,-509.72C243.33,-546.26 251.04,-677.68 321,-747.08 325.69,-751.73 331.48,-755.24 337.63,-757.9"/>
<polygon fill="midnightblue" stroke="midnightblue" points="336.87,-761.34 347.47,-761.41 339.22,-754.75 336.87,-761.34"/>
</g>
<!-- Node197 -->
<g id="node22" class="node">
<title>Node197</title>
<g id="a_node22"><a xlink:href="list_8h.html#a663527a4d757540b2177bef0db1ce5c0" target="_top" xlink:title=" ">
<polygon fill="none" stroke="black" points="342.5,-718.58 342.5,-737.58 424.5,-737.58 424.5,-718.58 342.5,-718.58"/>
<text text-anchor="middle" x="383.5" y="-725.58" font-family="Helvetica,sans-Serif" font-size="10.00">init_list_head</text>
</a>
</g>
</g>
<!-- Node3&#45;&gt;Node197 -->
<g id="edge24" class="edge">
<title>Node3&#45;&gt;Node197</title>
<path fill="none" stroke="midnightblue" d="M243.47,-509.65C247.2,-541.67 263.44,-646.25 321,-704.08 324.89,-707.99 329.49,-711.27 334.4,-714.04"/>
<polygon fill="midnightblue" stroke="midnightblue" points="332.95,-717.22 343.48,-718.46 336.02,-710.93 332.95,-717.22"/>
</g>
<!-- Node255 -->
<g id="node23" class="node">
<title>Node255</title>
<g id="a_node23"><a xlink:href="quickjs_8c.html#a2bb0a2ca3b8320f3ff778c65034fce49" target="_top" xlink:title=" ">
<polygon fill="none" stroke="red" points="324,-452.58 324,-471.58 443,-471.58 443,-452.58 324,-452.58"/>
<text text-anchor="middle" x="383.5" y="-459.58" font-family="Helvetica,sans-Serif" font-size="10.00">is_backtrace_needed</text>
</a>
</g>
</g>
<!-- Node3&#45;&gt;Node255 -->
<g id="edge25" class="edge">
<title>Node3&#45;&gt;Node255</title>
<path fill="none" stroke="midnightblue" d="M277.83,-490.49C295.9,-485.58 318.1,-479.56 337.39,-474.32"/>
<polygon fill="midnightblue" stroke="midnightblue" points="338.45,-477.66 347.18,-471.66 336.62,-470.9 338.45,-477.66"/>
</g>
<!-- Node181 -->
<g id="node24" class="node">
<title>Node181</title>
<g id="a_node24"><a xlink:href="quickjs_8c.html#a686cf78f8b0361621ee2ba6182195c31" target="_top" xlink:title=" ">
<polygon fill="none" stroke="black" points="339.5,-338.58 339.5,-357.58 427.5,-357.58 427.5,-338.58 339.5,-338.58"/>
<text text-anchor="middle" x="383.5" y="-345.58" font-family="Helvetica,sans-Serif" font-size="10.00">is_strict_mode</text>
</a>
</g>
</g>
<!-- Node3&#45;&gt;Node181 -->
<g id="edge26" class="edge">
<title>Node3&#45;&gt;Node181</title>
<path fill="none" stroke="midnightblue" d="M245.47,-490.4C253.48,-465.94 277.87,-401.15 321,-367.08 323.8,-364.86 326.87,-362.9 330.08,-361.17"/>
<polygon fill="midnightblue" stroke="midnightblue" points="331.81,-364.23 339.44,-356.87 328.89,-357.87 331.81,-364.23"/>
</g>
<!-- Node257 -->
<g id="node25" class="node">
<title>Node257</title>
<g id="a_node25"><a xlink:href="quickjs_8c.html#ae8ff05447c0d51fe277baccf616dc7c6" target="_top" xlink:title=" ">
<polygon fill="none" stroke="red" points="345.5,-490.58 345.5,-509.58 421.5,-509.58 421.5,-490.58 345.5,-490.58"/>
<text text-anchor="middle" x="383.5" y="-497.58" font-family="Helvetica,sans-Serif" font-size="10.00">js_add_slow</text>
</a>
</g>
</g>
<!-- Node3&#45;&gt;Node257 -->
<g id="edge27" class="edge">
<title>Node3&#45;&gt;Node257</title>
<path fill="none" stroke="midnightblue" d="M285.27,-500.08C300.96,-500.08 318.83,-500.08 334.93,-500.08"/>
<polygon fill="midnightblue" stroke="midnightblue" points="335.21,-503.58 345.21,-500.08 335.21,-496.58 335.21,-503.58"/>
</g>
<!-- Node264 -->
<g id="node26" class="node">
<title>Node264</title>
<g id="a_node26"><a xlink:href="quickjs_8c.html#a6a21784a40b8684f2e779bd460dd13b2" target="_top" xlink:title=" ">
<polygon fill="none" stroke="red" points="344.5,-376.58 344.5,-395.58 422.5,-395.58 422.5,-376.58 344.5,-376.58"/>
<text text-anchor="middle" x="383.5" y="-383.58" font-family="Helvetica,sans-Serif" font-size="10.00">JS_AddBrand</text>
</a>
</g>
</g>
<!-- Node3&#45;&gt;Node264 -->
<g id="edge30" class="edge">
<title>Node3&#45;&gt;Node264</title>
<path fill="none" stroke="midnightblue" d="M248.66,-490.31C260.56,-472.15 288.44,-432.97 321,-410.08 326.73,-406.05 333.23,-402.57 339.81,-399.62"/>
<polygon fill="midnightblue" stroke="midnightblue" points="341.51,-402.71 349.42,-395.66 338.84,-396.23 341.51,-402.71"/>
</g>
<!-- Node267 -->
<g id="node27" class="node">
<title>Node267</title>
<g id="a_node27"><a xlink:href="quickjs_8c.html#a43208b0746998d2b6b9b8bd1ef8b5f99" target="_top" xlink:title=" ">
<polygon fill="none" stroke="red" points="321,-528.58 321,-547.58 446,-547.58 446,-528.58 321,-528.58"/>
<text text-anchor="middle" x="383.5" y="-535.58" font-family="Helvetica,sans-Serif" font-size="10.00">js_append_enumerate</text>
</a>
</g>
</g>
<!-- Node3&#45;&gt;Node267 -->
<g id="edge35" class="edge">
<title>Node3&#45;&gt;Node267</title>
<path fill="none" stroke="midnightblue" d="M277.83,-509.67C295.9,-514.57 318.1,-520.6 337.39,-525.83"/>
<polygon fill="midnightblue" stroke="midnightblue" points="336.62,-529.25 347.18,-528.49 338.45,-522.49 336.62,-529.25"/>
</g>
<!-- Node65&#45;&gt;Node4 -->
<g id="edge8" class="edge">
<title>Node65&#45;&gt;Node4</title>
<path fill="none" stroke="midnightblue" d="M423.11,-585.67C443.21,-590.66 467.98,-596.81 489.32,-602.11"/>
<polygon fill="midnightblue" stroke="midnightblue" points="488.62,-605.54 499.17,-604.56 490.31,-598.75 488.62,-605.54"/>
</g>
<!-- Node65&#45;&gt;Node66 -->
<g id="edge9" class="edge">
<title>Node65&#45;&gt;Node66</title>
<path fill="none" stroke="midnightblue" d="M398.88,-585.71C417.48,-597.89 451.16,-618.95 482,-633.08 486.63,-635.2 491.56,-637.21 496.51,-639.08"/>
<polygon fill="midnightblue" stroke="midnightblue" points="495.36,-642.39 505.96,-642.5 497.74,-635.81 495.36,-642.39"/>
</g>
<!-- Node65&#45;&gt;Node36 -->
<g id="edge11" class="edge">
<title>Node65&#45;&gt;Node36</title>
<path fill="none" stroke="midnightblue" d="M424.52,-569.16C432.3,-566.39 439.92,-562.51 446,-557.08 504.33,-504.99 527.11,-408.93 534.48,-367.71"/>
<polygon fill="midnightblue" stroke="midnightblue" points="537.97,-368.06 536.17,-357.62 531.07,-366.9 537.97,-368.06"/>
</g>
<!-- Node65&#45;&gt;Node75 -->
<g id="edge12" class="edge">
<title>Node65&#45;&gt;Node75</title>
<path fill="none" stroke="midnightblue" d="M423.11,-566.49C443.21,-561.5 467.98,-555.34 489.32,-550.04"/>
<polygon fill="midnightblue" stroke="midnightblue" points="490.31,-553.4 499.17,-547.6 488.62,-546.61 490.31,-553.4"/>
</g>
<!-- Node66&#45;&gt;Node57 -->
<g id="edge10" class="edge">
<title>Node66&#45;&gt;Node57</title>
<path fill="none" stroke="midnightblue" d="M577.1,-657.57C590.62,-659.55 606.07,-661.81 620.42,-663.9"/>
<polygon fill="midnightblue" stroke="midnightblue" points="620.23,-667.41 630.63,-665.4 621.24,-660.49 620.23,-667.41"/>
</g>
<!-- Node248&#45;&gt;Node36 -->
<g id="edge15" class="edge">
<title>Node248&#45;&gt;Node36</title>
<path fill="none" stroke="midnightblue" d="M411.5,-281.65C422.37,-285.75 434.93,-290.8 446,-296.08 469.6,-307.32 495.4,-322.23 513.57,-333.21"/>
<polygon fill="midnightblue" stroke="midnightblue" points="511.96,-336.33 522.32,-338.55 515.61,-330.35 511.96,-336.33"/>
</g>
<!-- Node257&#45;&gt;Node57 -->
<g id="edge28" class="edge">
<title>Node257&#45;&gt;Node57</title>
<path fill="none" stroke="midnightblue" d="M421.61,-493.21C466.75,-486.99 543.3,-483.52 595,-519.08 640.68,-550.5 659.5,-618.17 666.23,-651.59"/>
<polygon fill="midnightblue" stroke="midnightblue" points="662.81,-652.31 668.07,-661.51 669.69,-651.03 662.81,-652.31"/>
</g>
<!-- Node257&#45;&gt;Node75 -->
<g id="edge29" class="edge">
<title>Node257&#45;&gt;Node75</title>
<path fill="none" stroke="midnightblue" d="M421.54,-509.28C441.94,-514.34 467.49,-520.69 489.42,-526.14"/>
<polygon fill="midnightblue" stroke="midnightblue" points="488.66,-529.55 499.21,-528.57 490.34,-522.76 488.66,-529.55"/>
</g>
<!-- Node264&#45;&gt;Node7 -->
<g id="edge31" class="edge">
<title>Node264&#45;&gt;Node7</title>
<path fill="none" stroke="midnightblue" d="M422.54,-378.19C430.7,-375.47 438.98,-371.85 446,-367.08 465.51,-353.82 504.93,-299.71 525.06,-271.06"/>
<polygon fill="midnightblue" stroke="midnightblue" points="528.01,-272.95 530.87,-262.74 522.27,-268.94 528.01,-272.95"/>
</g>
<!-- Node264&#45;&gt;Node57 -->
<g id="edge33" class="edge">
<title>Node264&#45;&gt;Node57</title>
<path fill="none" stroke="midnightblue" d="M422.63,-394.85C469.16,-407.38 547.48,-434.69 595,-485.08 640.85,-533.7 659.84,-614.1 666.46,-651.2"/>
<polygon fill="midnightblue" stroke="midnightblue" points="663.04,-651.95 668.14,-661.24 669.95,-650.8 663.04,-651.95"/>
</g>
<!-- Node264&#45;&gt;Node36 -->
<g id="edge32" class="edge">
<title>Node264&#45;&gt;Node36</title>
<path fill="none" stroke="midnightblue" d="M422.71,-376.59C443.04,-371.54 468.22,-365.28 489.82,-359.92"/>
<polygon fill="midnightblue" stroke="midnightblue" points="490.91,-363.25 499.77,-357.45 489.22,-356.46 490.91,-363.25"/>
</g>
<!-- Node264&#45;&gt;Node75 -->
<g id="edge34" class="edge">
<title>Node264&#45;&gt;Node75</title>
<path fill="none" stroke="midnightblue" d="M419.23,-395.64C428.51,-399.22 438.13,-403.95 446,-410.08 484.98,-440.4 514.54,-491.74 528.54,-519.28"/>
<polygon fill="midnightblue" stroke="midnightblue" points="525.42,-520.85 532.99,-528.27 531.69,-517.75 525.42,-520.85"/>
</g>
<!-- Node267&#45;&gt;Node4 -->
<g id="edge36" class="edge">
<title>Node267&#45;&gt;Node4</title>
<path fill="none" stroke="midnightblue" d="M424.62,-547.65C431.98,-550.18 439.41,-553.3 446,-557.08 464.83,-567.88 463.79,-578.27 482,-590.08 487.92,-593.91 494.55,-597.39 501.12,-600.43"/>
<polygon fill="midnightblue" stroke="midnightblue" points="500.04,-603.77 510.6,-604.56 502.84,-597.36 500.04,-603.77"/>
</g>
<!-- Node267&#45;&gt;Node57 -->
<g id="edge38" class="edge">
<title>Node267&#45;&gt;Node57</title>
<path fill="none" stroke="midnightblue" d="M430.87,-547.65C484.01,-559.13 567.31,-578.86 595,-595.08 620.52,-610.03 643.26,-636 656.71,-653.36"/>
<polygon fill="midnightblue" stroke="midnightblue" points="654.06,-655.66 662.87,-661.56 659.66,-651.46 654.06,-655.66"/>
</g>
<!-- Node267&#45;&gt;Node36 -->
<g id="edge37" class="edge">
<title>Node267&#45;&gt;Node36</title>
<path fill="none" stroke="midnightblue" d="M429.93,-528.56C435.71,-526.09 441.26,-522.99 446,-519.08 495.46,-478.29 521.96,-403.59 532.3,-367.98"/>
<polygon fill="midnightblue" stroke="midnightblue" points="535.8,-368.45 535.09,-357.88 529.05,-366.58 535.8,-368.45"/>
</g>
<!-- Node267&#45;&gt;Node75 -->
<g id="edge39" class="edge">
<title>Node267&#45;&gt;Node75</title>
<path fill="none" stroke="midnightblue" d="M446.29,-538.08C458.99,-538.08 472.25,-538.08 484.6,-538.08"/>
<polygon fill="midnightblue" stroke="midnightblue" points="484.73,-541.58 494.73,-538.08 484.73,-534.58 484.73,-541.58"/>
</g>
<!-- Node437&#45;&gt;Node57 -->
<g id="edge49" class="edge">
<title>Node437&#45;&gt;Node57</title>
<path fill="none" stroke="midnightblue" d="M418.82,-984.53C428.2,-980.93 437.97,-976.18 446,-970.08 501.21,-928.07 620.38,-747.22 657.93,-689.12"/>
<polygon fill="midnightblue" stroke="midnightblue" points="660.94,-690.91 663.41,-680.61 655.05,-687.12 660.94,-690.91"/>
</g>
<!-- Node353 -->
<g id="node29" class="node">
<title>Node353</title>
<g id="a_node29"><a xlink:href="quickjs_8c.html#a8551eaac7ef616910807cebdc515760d" target="_top" xlink:title=" ">
<polygon fill="none" stroke="black" points="490.5,-946.58 490.5,-965.58 586.5,-965.58 586.5,-946.58 490.5,-946.58"/>
<text text-anchor="middle" x="538.5" y="-953.58" font-family="Helvetica,sans-Serif" font-size="10.00">JS_GetException</text>
</a>
</g>
</g>
<!-- Node437&#45;&gt;Node353 -->
<g id="edge50" class="edge">
<title>Node437&#45;&gt;Node353</title>
<path fill="none" stroke="midnightblue" d="M423.11,-984.49C443.21,-979.5 467.98,-973.34 489.32,-968.04"/>
<polygon fill="midnightblue" stroke="midnightblue" points="490.31,-971.4 499.17,-965.6 488.62,-964.61 490.31,-971.4"/>
</g>
<!-- Node438 -->
<g id="node30" class="node">
<title>Node438</title>
<g id="a_node30"><a xlink:href="quickjs-libc_8c.html#a410cd5dce0fb0e6a978ed313963f3962" target="_top" xlink:title=" ">
<polygon fill="none" stroke="red" points="482,-984.58 482,-1003.58 595,-1003.58 595,-984.58 482,-984.58"/>
<text text-anchor="middle" x="538.5" y="-991.58" font-family="Helvetica,sans-Serif" font-size="10.00">js_std_dump_error1</text>
</a>
</g>
</g>
<!-- Node437&#45;&gt;Node438 -->
<g id="edge51" class="edge">
<title>Node437&#45;&gt;Node438</title>
<path fill="none" stroke="midnightblue" d="M437.15,-994.08C448.32,-994.08 460.24,-994.08 471.82,-994.08"/>
<polygon fill="midnightblue" stroke="midnightblue" points="471.88,-997.58 481.88,-994.08 471.88,-990.58 471.88,-997.58"/>
</g>
<!-- Node438&#45;&gt;Node57 -->
<g id="edge52" class="edge">
<title>Node438&#45;&gt;Node57</title>
<path fill="none" stroke="midnightblue" d="M582.25,-984.56C587.01,-982.09 591.43,-978.99 595,-975.08 633.92,-932.5 659.53,-751.44 667.13,-690.89"/>
<polygon fill="midnightblue" stroke="midnightblue" points="670.63,-691.11 668.38,-680.76 663.68,-690.25 670.63,-691.11"/>
</g>
</g>
</svg>
        <g id="navigator" transform="translate(0 0)" fill="#404254">
                <rect fill="#f2f5e9" fill-opacity="0.5" stroke="#606060" stroke-width=".5" x="0" y="0" width="60" height="60"/>
                <use id="zoomplus" xlink:href="#zoomPlus" x="17" y="9" onmousedown="handleZoom(evt,'in')"/>
                <use id="zoomminus" xlink:href="#zoomMin" x="42" y="9" onmousedown="handleZoom(evt,'out')"/>
                <use id="reset" xlink:href="#resetDef" x="30" y="36" onmousedown="handleReset()"/>
                <g id="arrowUp" xlink:href="#dirArrow" transform="translate(30 24)" onmousedown="handlePan(0,-1)">
                  <use xlink:href="#rim" fill="#404040">
                        <set attributeName="fill" to="#808080" begin="arrowUp.mouseover" end="arrowUp.mouseout"/>
                  </use>
                  <path fill="none" stroke="white" stroke-width="1.5" d="M0,-3.0v7 M-2.5,-0.5L0,-3.0L2.5,-0.5"/>
                </g>
                <g id="arrowRight" xlink:href="#dirArrow" transform="rotate(90) translate(36 -43)" onmousedown="handlePan(1,0)">
                  <use xlink:href="#rim" fill="#404040">
                        <set attributeName="fill" to="#808080" begin="arrowRight.mouseover" end="arrowRight.mouseout"/>
                  </use>
                  <path fill="none" stroke="white" stroke-width="1.5" d="M0,-3.0v7 M-2.5,-0.5L0,-3.0L2.5,-0.5"/>
                </g>
                <g id="arrowDown" xlink:href="#dirArrow" transform="rotate(180) translate(-30 -48)" onmousedown="handlePan(0,1)">
                  <use xlink:href="#rim" fill="#404040">
                        <set attributeName="fill" to="#808080" begin="arrowDown.mouseover" end="arrowDown.mouseout"/>
                  </use>
                  <path fill="none" stroke="white" stroke-width="1.5" d="M0,-3.0v7 M-2.5,-0.5L0,-3.0L2.5,-0.5"/>
                </g>
                <g id="arrowLeft" xlink:href="#dirArrow" transform="rotate(270) translate(-36 17)" onmousedown="handlePan(-1,0)">
                  <use xlink:href="#rim" fill="#404040">
                        <set attributeName="fill" to="#808080" begin="arrowLeft.mouseover" end="arrowLeft.mouseout"/>
                  </use>
                  <path fill="none" stroke="white" stroke-width="1.5" d="M0,-3.0v7 M-2.5,-0.5L0,-3.0L2.5,-0.5"/>
                </g>
        </g>
        <svg viewBox="0 0 15 15" width="100%" height="30px" preserveAspectRatio="xMaxYMin meet">
         <g id="arrow_out" transform="scale(0.3 0.3)">
          <a xlink:href="quickjs-libc_8c_abb1cbe3fdf905e81f603a3a0bfce475a_cgraph_org.svg" target="_base">
           <rect id="button" ry="5" rx="5" y="6" x="6" height="38" width="38"
                fill="#f2f5e9" fill-opacity="0.5" stroke="#606060" stroke-width="1.0"/>
           <path id="arrow"
             d="M 11.500037,31.436501 C 11.940474,20.09759 22.043105,11.32322 32.158766,21.979434 L 37.068811,17.246167 C 37.068811,17.246167 37.088388,32 37.088388,32 L 22.160133,31.978069 C 22.160133,31.978069 26.997745,27.140456 26.997745,27.140456 C 18.528582,18.264221 13.291696,25.230495 11.500037,31.436501 z"
             style="fill:#404040;"/>
          </a>
         </g>
        </svg>
</svg>
