<?xml version="1.0" encoding="UTF-8" standalone="no"?>
<!DOCTYPE svg PUBLIC "-//W3C//DTD SVG 1.1//EN"
 "http://www.w3.org/Graphics/SVG/1.1/DTD/svg11.dtd">
<!-- Generated by graphviz version 2.43.0 (0)
 -->
<!-- Title: JS_OrdinaryIsInstanceOf Pages: 1 -->
<svg width="1183pt" height="778pt"
 viewBox="0.00 0.00 1183.00 777.85" xmlns="http://www.w3.org/2000/svg" xmlns:xlink="http://www.w3.org/1999/xlink">
<g id="graph0" class="graph" transform="scale(1 1) rotate(0) translate(4 773.85)">
<title>JS_OrdinaryIsInstanceOf</title>
<!-- Node1 -->
<g id="node1" class="node">
<title>Node1</title>
<g id="a_node1"><a xlink:title=" ">
<polygon fill="#bfbfbf" stroke="black" points="0,-215.5 0,-234.5 134,-234.5 134,-215.5 0,-215.5"/>
<text text-anchor="middle" x="67" y="-222.5" font-family="Helvetica,sans-Serif" font-size="10.00">JS_OrdinaryIsInstanceOf</text>
</a>
</g>
</g>
<!-- Node2 -->
<g id="node2" class="node">
<title>Node2</title>
<g id="a_node2"><a xlink:href="quickjs_8h.html#a775522f2d084fc8fa0fcb33f390006b4" target="_top" xlink:title=" ">
<polygon fill="none" stroke="black" points="654,-658.5 654,-677.5 731,-677.5 731,-658.5 654,-658.5"/>
<text text-anchor="middle" x="692.5" y="-665.5" font-family="Helvetica,sans-Serif" font-size="10.00">JS_DupValue</text>
</a>
</g>
</g>
<!-- Node1&#45;&gt;Node2 -->
<g id="edge1" class="edge">
<title>Node1&#45;&gt;Node2</title>
<path fill="none" stroke="midnightblue" d="M75.31,-234.57C91.25,-255.12 130.87,-304.49 170,-340 342.94,-496.94 380.96,-555.58 595,-649 610.15,-655.61 627.64,-659.94 643.53,-662.77"/>
<polygon fill="midnightblue" stroke="midnightblue" points="643.27,-666.27 653.71,-664.42 644.39,-659.36 643.27,-666.27"/>
</g>
<!-- Node3 -->
<g id="node3" class="node">
<title>Node3</title>
<g id="a_node3"><a xlink:href="quickjs_8h.html#afaa20c47565bc704c6c85f3d77254e7d" target="_top" xlink:title=" ">
<polygon fill="none" stroke="black" points="830,-620.5 830,-639.5 909,-639.5 909,-620.5 830,-620.5"/>
<text text-anchor="middle" x="869.5" y="-627.5" font-family="Helvetica,sans-Serif" font-size="10.00">JS_FreeValue</text>
</a>
</g>
</g>
<!-- Node1&#45;&gt;Node3 -->
<g id="edge2" class="edge">
<title>Node1&#45;&gt;Node3</title>
<path fill="none" stroke="midnightblue" d="M68.84,-234.61C75.31,-302.4 123.4,-706 350.5,-706 350.5,-706 350.5,-706 496.5,-706 627.22,-706 667.04,-731.37 790,-687 813.79,-678.41 836.69,-660.28 851.55,-646.76"/>
<polygon fill="midnightblue" stroke="midnightblue" points="854.05,-649.22 858.93,-639.82 849.25,-644.12 854.05,-649.22"/>
</g>
<!-- Node41 -->
<g id="node6" class="node">
<title>Node41</title>
<g id="a_node6"><a xlink:href="quickjs_8h.html#a89b7c8686c7eee70b86be722ee4730ad" target="_top" xlink:title=" ">
<polygon fill="none" stroke="black" points="307,-392.5 307,-411.5 396,-411.5 396,-392.5 307,-392.5"/>
<text text-anchor="middle" x="351.5" y="-399.5" font-family="Helvetica,sans-Serif" font-size="10.00">JS_GetProperty</text>
</a>
</g>
</g>
<!-- Node1&#45;&gt;Node41 -->
<g id="edge5" class="edge">
<title>Node1&#45;&gt;Node41</title>
<path fill="none" stroke="midnightblue" d="M82.34,-234.65C119.16,-259.31 220.21,-326.35 307,-378 312.32,-381.16 318.07,-384.44 323.6,-387.52"/>
<polygon fill="midnightblue" stroke="midnightblue" points="322.12,-390.7 332.57,-392.45 325.5,-384.57 322.12,-390.7"/>
</g>
<!-- Node50 -->
<g id="node12" class="node">
<title>Node50</title>
<g id="a_node12"><a xlink:href="quickjs_8h.html#ad80a83d73e9b7d872b88fbf2943aebe9" target="_top" xlink:title=" ">
<polygon fill="none" stroke="black" points="826,-95.5 826,-114.5 913,-114.5 913,-95.5 826,-95.5"/>
<text text-anchor="middle" x="869.5" y="-102.5" font-family="Helvetica,sans-Serif" font-size="10.00">JS_IsException</text>
</a>
</g>
</g>
<!-- Node1&#45;&gt;Node50 -->
<g id="edge28" class="edge">
<title>Node1&#45;&gt;Node50</title>
<path fill="none" stroke="midnightblue" d="M75.63,-215.48C106.06,-178.72 223.17,-48 350.5,-48 350.5,-48 350.5,-48 496.5,-48 614.51,-48 751.17,-76.37 821.43,-93.08"/>
<polygon fill="midnightblue" stroke="midnightblue" points="820.76,-96.52 831.3,-95.46 822.4,-89.72 820.76,-96.52"/>
</g>
<!-- Node390 -->
<g id="node22" class="node">
<title>Node390</title>
<g id="a_node22"><a xlink:href="quickjs_8c.html#a7f82fd53b039b4e12f1addfa15d750ae" target="_top" xlink:title=" ">
<polygon fill="none" stroke="red" points="437.5,-734.5 437.5,-753.5 553.5,-753.5 553.5,-734.5 437.5,-734.5"/>
<text text-anchor="middle" x="495.5" y="-741.5" font-family="Helvetica,sans-Serif" font-size="10.00">JS_GetPrototypeFree</text>
</a>
</g>
</g>
<!-- Node1&#45;&gt;Node390 -->
<g id="edge26" class="edge">
<title>Node1&#45;&gt;Node390</title>
<path fill="none" stroke="midnightblue" d="M68.46,-234.64C71.7,-297.83 93.2,-652.54 170,-720 247.71,-788.26 380.26,-771.15 449.45,-755.88"/>
<polygon fill="midnightblue" stroke="midnightblue" points="450.63,-759.2 459.59,-753.55 449.06,-752.37 450.63,-759.2"/>
</g>
<!-- Node211 -->
<g id="node23" class="node">
<title>Node211</title>
<g id="a_node23"><a xlink:href="quickjs_8c.html#a1ca9cdb1fa2ffc3e6506e92b200e490f" target="_top" xlink:title=" ">
<polygon fill="none" stroke="black" points="311.5,-177.5 311.5,-196.5 391.5,-196.5 391.5,-177.5 311.5,-177.5"/>
<text text-anchor="middle" x="351.5" y="-184.5" font-family="Helvetica,sans-Serif" font-size="10.00">JS_IsFunction</text>
</a>
</g>
</g>
<!-- Node1&#45;&gt;Node211 -->
<g id="edge29" class="edge">
<title>Node1&#45;&gt;Node211</title>
<path fill="none" stroke="midnightblue" d="M114.84,-215.47C132.13,-212.17 151.91,-208.63 170,-206 214.13,-199.58 264.63,-194.45 300.98,-191.15"/>
<polygon fill="midnightblue" stroke="midnightblue" points="301.66,-194.6 311.31,-190.22 301.03,-187.63 301.66,-194.6"/>
</g>
<!-- Node419 -->
<g id="node24" class="node">
<title>Node419</title>
<g id="a_node24"><a xlink:href="quickjs_8c.html#af4cd70eee97bbcab2d0f2e46cf53ccd7" target="_top" xlink:title=" ">
<polygon fill="none" stroke="red" points="174.5,-215.5 174.5,-234.5 266.5,-234.5 266.5,-215.5 174.5,-215.5"/>
<text text-anchor="middle" x="220.5" y="-222.5" font-family="Helvetica,sans-Serif" font-size="10.00">JS_IsInstanceOf</text>
</a>
</g>
</g>
<!-- Node1&#45;&gt;Node419 -->
<g id="edge30" class="edge">
<title>Node1&#45;&gt;Node419</title>
<path fill="none" stroke="midnightblue" d="M134.01,-218.3C144.07,-218.2 154.36,-218.25 164.17,-218.47"/>
<polygon fill="midnightblue" stroke="midnightblue" points="164.07,-221.97 174.17,-218.76 164.27,-214.97 164.07,-221.97"/>
</g>
<!-- Node206 -->
<g id="node25" class="node">
<title>Node206</title>
<g id="a_node25"><a xlink:href="quickjs_8h.html#a149f24b67e745bad93573b3b4c80db4c" target="_top" xlink:title=" ">
<polygon fill="none" stroke="black" points="322,-139.5 322,-158.5 381,-158.5 381,-139.5 322,-139.5"/>
<text text-anchor="middle" x="351.5" y="-146.5" font-family="Helvetica,sans-Serif" font-size="10.00">JS_IsNull</text>
</a>
</g>
</g>
<!-- Node1&#45;&gt;Node206 -->
<g id="edge37" class="edge">
<title>Node1&#45;&gt;Node206</title>
<path fill="none" stroke="midnightblue" d="M94.63,-215.36C115.09,-208.15 144.13,-198.3 170,-191 218.54,-177.3 275.31,-164.63 312.04,-156.86"/>
<polygon fill="midnightblue" stroke="midnightblue" points="312.77,-160.28 321.84,-154.81 311.34,-153.43 312.77,-160.28"/>
</g>
<!-- Node293 -->
<g id="node26" class="node">
<title>Node293</title>
<g id="a_node26"><a xlink:href="quickjs_8c.html#a246e337d6566552736209730827c0871" target="_top" xlink:title=" ">
<polygon fill="none" stroke="red" points="170,-0.5 170,-19.5 271,-19.5 271,-0.5 170,-0.5"/>
<text text-anchor="middle" x="220.5" y="-7.5" font-family="Helvetica,sans-Serif" font-size="10.00">js_poll_interrupts</text>
</a>
</g>
</g>
<!-- Node1&#45;&gt;Node293 -->
<g id="edge38" class="edge">
<title>Node1&#45;&gt;Node293</title>
<path fill="none" stroke="midnightblue" d="M70.78,-215.34C80,-184.87 112.29,-89.5 170,-34 173.82,-30.33 178.3,-27.12 182.99,-24.35"/>
<polygon fill="midnightblue" stroke="midnightblue" points="184.9,-27.3 192.12,-19.55 181.64,-21.1 184.9,-27.3"/>
</g>
<!-- Node4 -->
<g id="node4" class="node">
<title>Node4</title>
<g id="a_node4"><a xlink:href="quickjs_8c.html#aa059f309c30fd5166d16c82a97973146" target="_top" xlink:title=" ">
<polygon fill="none" stroke="black" points="949,-620.5 949,-639.5 1038,-639.5 1038,-620.5 949,-620.5"/>
<text text-anchor="middle" x="993.5" y="-627.5" font-family="Helvetica,sans-Serif" font-size="10.00">__JS_FreeValue</text>
</a>
</g>
</g>
<!-- Node3&#45;&gt;Node4 -->
<g id="edge3" class="edge">
<title>Node3&#45;&gt;Node4</title>
<path fill="none" stroke="midnightblue" d="M909.1,-630C918.43,-630 928.56,-630 938.45,-630"/>
<polygon fill="midnightblue" stroke="midnightblue" points="938.63,-633.5 948.63,-630 938.63,-626.5 938.63,-633.5"/>
</g>
<!-- Node5 -->
<g id="node5" class="node">
<title>Node5</title>
<g id="a_node5"><a xlink:href="quickjs_8c.html#ab1ea3fad7d138be12144a38be4d36423" target="_top" xlink:title=" ">
<polygon fill="none" stroke="red" points="1074,-620.5 1074,-639.5 1175,-639.5 1175,-620.5 1074,-620.5"/>
<text text-anchor="middle" x="1124.5" y="-627.5" font-family="Helvetica,sans-Serif" font-size="10.00">__JS_FreeValueRT</text>
</a>
</g>
</g>
<!-- Node4&#45;&gt;Node5 -->
<g id="edge4" class="edge">
<title>Node4&#45;&gt;Node5</title>
<path fill="none" stroke="midnightblue" d="M1038.17,-630C1046.28,-630 1054.88,-630 1063.37,-630"/>
<polygon fill="midnightblue" stroke="midnightblue" points="1063.65,-633.5 1073.65,-630 1063.65,-626.5 1063.65,-633.5"/>
</g>
<!-- Node42 -->
<g id="node7" class="node">
<title>Node42</title>
<g id="a_node7"><a xlink:href="quickjs_8c.html#a5762c57ae0c9937e986040c01222833a" target="_top" xlink:title=" ">
<polygon fill="none" stroke="black" points="432,-354.5 432,-373.5 559,-373.5 559,-354.5 432,-354.5"/>
<text text-anchor="middle" x="495.5" y="-361.5" font-family="Helvetica,sans-Serif" font-size="10.00">JS_GetPropertyInternal</text>
</a>
</g>
</g>
<!-- Node41&#45;&gt;Node42 -->
<g id="edge6" class="edge">
<title>Node41&#45;&gt;Node42</title>
<path fill="none" stroke="midnightblue" d="M388.33,-392.41C406.66,-387.51 429.18,-381.48 448.75,-376.24"/>
<polygon fill="midnightblue" stroke="midnightblue" points="449.92,-379.55 458.68,-373.59 448.11,-372.79 449.92,-379.55"/>
</g>
<!-- Node42&#45;&gt;Node2 -->
<g id="edge17" class="edge">
<title>Node42&#45;&gt;Node2</title>
<path fill="none" stroke="midnightblue" d="M499.96,-373.51C509.54,-399.89 537.14,-476.2 559,-540 575.54,-588.26 556.75,-615.24 595,-649 608.15,-660.6 626.27,-665.95 643.27,-668.2"/>
<polygon fill="midnightblue" stroke="midnightblue" points="643.35,-671.73 653.65,-669.23 644.04,-664.76 643.35,-671.73"/>
</g>
<!-- Node42&#45;&gt;Node3 -->
<g id="edge18" class="edge">
<title>Node42&#45;&gt;Node3</title>
<path fill="none" stroke="midnightblue" d="M538.93,-373.58C546.53,-377.02 553.7,-381.68 559,-388 612.85,-452.16 535.78,-513.76 595,-573 657.43,-635.44 703.74,-592.17 790,-611 799.97,-613.18 810.61,-615.65 820.74,-618.08"/>
<polygon fill="midnightblue" stroke="midnightblue" points="820.11,-621.52 830.65,-620.47 821.75,-614.72 820.11,-621.52"/>
</g>
<!-- Node43 -->
<g id="node8" class="node">
<title>Node43</title>
<g id="a_node8"><a xlink:href="quickjs_8c.html#a288254c06a39c9fca740a7abdad2834e" target="_top" xlink:title=" ">
<polygon fill="none" stroke="black" points="631,-506.5 631,-525.5 754,-525.5 754,-506.5 631,-506.5"/>
<text text-anchor="middle" x="692.5" y="-513.5" font-family="Helvetica,sans-Serif" font-size="10.00">__JS_AtomIsTaggedInt</text>
</a>
</g>
</g>
<!-- Node42&#45;&gt;Node43 -->
<g id="edge7" class="edge">
<title>Node42&#45;&gt;Node43</title>
<path fill="none" stroke="midnightblue" d="M537.03,-373.57C545.13,-377.02 552.98,-381.69 559,-388 594.21,-424.92 556.75,-463.24 595,-497 602.49,-503.61 611.59,-508.19 621.19,-511.33"/>
<polygon fill="midnightblue" stroke="midnightblue" points="620.33,-514.72 630.9,-514 622.19,-507.97 620.33,-514.72"/>
</g>
<!-- Node44 -->
<g id="node9" class="node">
<title>Node44</title>
<g id="a_node9"><a xlink:href="quickjs_8c.html#a89f38938cee8077ce1fbba07946ed185" target="_top" xlink:title=" ">
<polygon fill="none" stroke="black" points="637.5,-468.5 637.5,-487.5 747.5,-487.5 747.5,-468.5 637.5,-468.5"/>
<text text-anchor="middle" x="692.5" y="-475.5" font-family="Helvetica,sans-Serif" font-size="10.00">__JS_AtomToUInt32</text>
</a>
</g>
</g>
<!-- Node42&#45;&gt;Node44 -->
<g id="edge8" class="edge">
<title>Node42&#45;&gt;Node44</title>
<path fill="none" stroke="midnightblue" d="M534.71,-373.6C543.4,-377.09 552.1,-381.77 559,-388 585.27,-411.7 566.79,-437.65 595,-459 604.47,-466.17 615.91,-470.84 627.56,-473.85"/>
<polygon fill="midnightblue" stroke="midnightblue" points="626.83,-477.27 637.35,-476 628.33,-470.44 626.83,-477.27"/>
</g>
<!-- Node45 -->
<g id="node10" class="node">
<title>Node45</title>
<g id="a_node10"><a xlink:href="quickjs_8c.html#a06b76f5124fd985e35f4c652fd018d6d" target="_top" xlink:title=" ">
<polygon fill="none" stroke="red" points="639,-430.5 639,-449.5 746,-449.5 746,-430.5 639,-430.5"/>
<text text-anchor="middle" x="692.5" y="-437.5" font-family="Helvetica,sans-Serif" font-size="10.00">find_own_property</text>
</a>
</g>
</g>
<!-- Node42&#45;&gt;Node45 -->
<g id="edge9" class="edge">
<title>Node42&#45;&gt;Node45</title>
<path fill="none" stroke="midnightblue" d="M528.11,-373.52C538.35,-377.28 549.51,-382.13 559,-388 577.46,-399.42 575.63,-411.21 595,-421 605.37,-426.24 617.05,-430.04 628.61,-432.79"/>
<polygon fill="midnightblue" stroke="midnightblue" points="628.18,-436.28 638.69,-434.95 629.65,-429.44 628.18,-436.28"/>
</g>
<!-- Node46 -->
<g id="node11" class="node">
<title>Node46</title>
<g id="a_node11"><a xlink:href="quickjs_8c.html#add3eea1f6d626963ade3c28a1fd563d1" target="_top" xlink:title=" ">
<polygon fill="none" stroke="red" points="625.5,-544.5 625.5,-563.5 759.5,-563.5 759.5,-544.5 625.5,-544.5"/>
<text text-anchor="middle" x="692.5" y="-551.5" font-family="Helvetica,sans-Serif" font-size="10.00">JS_AtomIsNumericIndex</text>
</a>
</g>
</g>
<!-- Node42&#45;&gt;Node46 -->
<g id="edge10" class="edge">
<title>Node42&#45;&gt;Node46</title>
<path fill="none" stroke="midnightblue" d="M538.38,-373.64C546.1,-377.07 553.47,-381.72 559,-388 603.46,-438.47 546.36,-488.54 595,-535 600.97,-540.7 608.12,-544.93 615.81,-548.03"/>
<polygon fill="midnightblue" stroke="midnightblue" points="614.8,-551.39 625.39,-551.29 617.05,-544.76 614.8,-551.39"/>
</g>
<!-- Node194 -->
<g id="node13" class="node">
<title>Node194</title>
<g id="a_node13"><a xlink:href="quickjs_8c.html#a8aac7988cf0c6f3c2b629a6662fd7ec8" target="_top" xlink:title=" ">
<polygon fill="none" stroke="red" points="637.5,-114.5 637.5,-133.5 747.5,-133.5 747.5,-114.5 637.5,-114.5"/>
<text text-anchor="middle" x="692.5" y="-121.5" font-family="Helvetica,sans-Serif" font-size="10.00">JS_AutoInitProperty</text>
</a>
</g>
</g>
<!-- Node42&#45;&gt;Node194 -->
<g id="edge13" class="edge">
<title>Node42&#45;&gt;Node194</title>
<path fill="none" stroke="midnightblue" d="M497.7,-354.13C502.51,-319.1 523.72,-199.82 595,-143 604.34,-135.56 615.77,-130.76 627.46,-127.73"/>
<polygon fill="midnightblue" stroke="midnightblue" points="628.28,-131.13 637.3,-125.57 626.79,-124.29 628.28,-131.13"/>
</g>
<!-- Node102 -->
<g id="node14" class="node">
<title>Node102</title>
<g id="a_node14"><a xlink:href="quickjs_8c.html#a75f6ee5e4235a7dc99889f3d2eb2c147" target="_top" xlink:title=" ">
<polygon fill="none" stroke="red" points="657,-620.5 657,-639.5 728,-639.5 728,-620.5 657,-620.5"/>
<text text-anchor="middle" x="692.5" y="-627.5" font-family="Helvetica,sans-Serif" font-size="10.00">JS_CallFree</text>
</a>
</g>
</g>
<!-- Node42&#45;&gt;Node102 -->
<g id="edge15" class="edge">
<title>Node42&#45;&gt;Node102</title>
<path fill="none" stroke="midnightblue" d="M539.4,-373.61C546.86,-377.04 553.86,-381.69 559,-388 621.05,-464.12 528.4,-533.84 595,-606 608.14,-620.24 628.3,-626.6 646.81,-629.26"/>
<polygon fill="midnightblue" stroke="midnightblue" points="646.53,-632.76 656.86,-630.39 647.31,-625.8 646.53,-632.76"/>
</g>
<!-- Node126 -->
<g id="node15" class="node">
<title>Node126</title>
<g id="a_node15"><a xlink:href="quickjs_8c.html#aeb97957655d979e9fe56c955da2b2d4b" target="_top" xlink:title=" ">
<polygon fill="none" stroke="red" points="631.5,-392.5 631.5,-411.5 753.5,-411.5 753.5,-392.5 631.5,-392.5"/>
<text text-anchor="middle" x="692.5" y="-399.5" font-family="Helvetica,sans-Serif" font-size="10.00">JS_GetPropertyUint32</text>
</a>
</g>
</g>
<!-- Node42&#45;&gt;Node126 -->
<g id="edge19" class="edge">
<title>Node42&#45;&gt;Node126</title>
<path fill="none" stroke="midnightblue" d="M545.46,-373.54C571.88,-378.69 604.69,-385.08 632.52,-390.51"/>
<polygon fill="midnightblue" stroke="midnightblue" points="632.04,-393.98 642.52,-392.46 633.38,-387.11 632.04,-393.98"/>
</g>
<!-- Node226 -->
<g id="node16" class="node">
<title>Node226</title>
<g id="a_node16"><a xlink:href="quickjs_8c.html#a93550bf785e919d0881399712c54cb34" target="_top" xlink:title=" ">
<polygon fill="none" stroke="black" points="622.5,-354.5 622.5,-373.5 762.5,-373.5 762.5,-354.5 622.5,-354.5"/>
<text text-anchor="middle" x="692.5" y="-361.5" font-family="Helvetica,sans-Serif" font-size="10.00">JS_GetPrototypePrimitive</text>
</a>
</g>
</g>
<!-- Node42&#45;&gt;Node226 -->
<g id="edge20" class="edge">
<title>Node42&#45;&gt;Node226</title>
<path fill="none" stroke="midnightblue" d="M559,-364C575.86,-364 594.32,-364 611.97,-364"/>
<polygon fill="midnightblue" stroke="midnightblue" points="612.25,-367.5 622.25,-364 612.25,-360.5 612.25,-367.5"/>
</g>
<!-- Node302 -->
<g id="node17" class="node">
<title>Node302</title>
<g id="a_node17"><a xlink:href="quickjs_8h.html#aaab426b47c95d00479b7355b1cf7f56c" target="_top" xlink:title=" ">
<polygon fill="none" stroke="black" points="642,-316.5 642,-335.5 743,-335.5 743,-316.5 642,-316.5"/>
<text text-anchor="middle" x="692.5" y="-323.5" font-family="Helvetica,sans-Serif" font-size="10.00">JS_IsUninitialized</text>
</a>
</g>
</g>
<!-- Node42&#45;&gt;Node302 -->
<g id="edge21" class="edge">
<title>Node42&#45;&gt;Node302</title>
<path fill="none" stroke="midnightblue" d="M545.46,-354.46C571.88,-349.31 604.69,-342.92 632.52,-337.49"/>
<polygon fill="midnightblue" stroke="midnightblue" points="633.38,-340.89 642.52,-335.54 632.04,-334.02 633.38,-340.89"/>
</g>
<!-- Node434 -->
<g id="node18" class="node">
<title>Node434</title>
<g id="a_node18"><a xlink:href="quickjs_8c.html#a077ffa6455c0d7831bd4547542b5f2f7" target="_top" xlink:title=" ">
<polygon fill="none" stroke="red" points="637.5,-278.5 637.5,-297.5 747.5,-297.5 747.5,-278.5 637.5,-278.5"/>
<text text-anchor="middle" x="692.5" y="-285.5" font-family="Helvetica,sans-Serif" font-size="10.00">js_new_string_char</text>
</a>
</g>
</g>
<!-- Node42&#45;&gt;Node434 -->
<g id="edge22" class="edge">
<title>Node42&#45;&gt;Node434</title>
<path fill="none" stroke="midnightblue" d="M509.81,-354.36C528.1,-341.59 562.45,-319.23 595,-307 605.22,-303.16 616.35,-300.05 627.3,-297.55"/>
<polygon fill="midnightblue" stroke="midnightblue" points="628.23,-300.93 637.28,-295.42 626.77,-294.09 628.23,-300.93"/>
</g>
<!-- Node51 -->
<g id="node19" class="node">
<title>Node51</title>
<g id="a_node19"><a xlink:href="quickjs_8h.html#a2050bc428da1c65ac7eb87c3fa3b0392" target="_top" xlink:title=" ">
<polygon fill="none" stroke="black" points="654,-240.5 654,-259.5 731,-259.5 731,-240.5 654,-240.5"/>
<text text-anchor="middle" x="692.5" y="-247.5" font-family="Helvetica,sans-Serif" font-size="10.00">JS_NewInt32</text>
</a>
</g>
</g>
<!-- Node42&#45;&gt;Node51 -->
<g id="edge23" class="edge">
<title>Node42&#45;&gt;Node51</title>
<path fill="none" stroke="midnightblue" d="M503.39,-354.34C517.91,-334.78 553.71,-290.54 595,-269 609.78,-261.29 627.32,-256.7 643.36,-253.97"/>
<polygon fill="midnightblue" stroke="midnightblue" points="644.28,-257.37 653.65,-252.43 643.24,-250.45 644.28,-257.37"/>
</g>
<!-- Node227 -->
<g id="node20" class="node">
<title>Node227</title>
<g id="a_node20"><a xlink:href="quickjs_8c.html#ab8d0b87c9eed4eb6c054b6f4e1731554" target="_top" xlink:title=" ">
<polygon fill="none" stroke="red" points="617,-191 617,-221 768,-221 768,-191 617,-191"/>
<text text-anchor="start" x="625" y="-209" font-family="Helvetica,sans-Serif" font-size="10.00">JS_ThrowReferenceErrorNot</text>
<text text-anchor="middle" x="692.5" y="-198" font-family="Helvetica,sans-Serif" font-size="10.00">Defined</text>
</a>
</g>
</g>
<!-- Node42&#45;&gt;Node227 -->
<g id="edge24" class="edge">
<title>Node42&#45;&gt;Node227</title>
<path fill="none" stroke="midnightblue" d="M500.86,-354.19C512.38,-329.41 546.17,-263.94 595,-231 598.82,-228.43 602.88,-226.12 607.1,-224.05"/>
<polygon fill="midnightblue" stroke="midnightblue" points="608.81,-227.12 616.55,-219.88 605.99,-220.71 608.81,-227.12"/>
</g>
<!-- Node303 -->
<g id="node21" class="node">
<title>Node303</title>
<g id="a_node21"><a xlink:href="quickjs_8c.html#a75ac132a3af4de01e1fadeb0bede6ee7" target="_top" xlink:title=" ">
<polygon fill="none" stroke="red" points="595,-152.5 595,-171.5 790,-171.5 790,-152.5 595,-152.5"/>
<text text-anchor="middle" x="692.5" y="-159.5" font-family="Helvetica,sans-Serif" font-size="10.00">JS_ThrowReferenceErrorUninitialized</text>
</a>
</g>
</g>
<!-- Node42&#45;&gt;Node303 -->
<g id="edge25" class="edge">
<title>Node42&#45;&gt;Node303</title>
<path fill="none" stroke="midnightblue" d="M498.67,-354.11C506.04,-323.02 533.16,-226.63 595,-181 597.38,-179.24 599.89,-177.63 602.48,-176.17"/>
<polygon fill="midnightblue" stroke="midnightblue" points="604.18,-179.23 611.63,-171.69 601.11,-172.94 604.18,-179.23"/>
</g>
<!-- Node46&#45;&gt;Node3 -->
<g id="edge11" class="edge">
<title>Node46&#45;&gt;Node3</title>
<path fill="none" stroke="midnightblue" d="M745.66,-563.54C760.35,-567.14 776.09,-571.88 790,-578 811.39,-587.41 833.37,-602.52 848.61,-614.04"/>
<polygon fill="midnightblue" stroke="midnightblue" points="846.7,-616.98 856.75,-620.33 850.98,-611.45 846.7,-616.98"/>
</g>
<!-- Node46&#45;&gt;Node50 -->
<g id="edge12" class="edge">
<title>Node46&#45;&gt;Node50</title>
<path fill="none" stroke="midnightblue" d="M759.5,-551.82C770.9,-548.64 781.73,-543.39 790,-535 848.54,-475.64 864.42,-201.42 867.74,-124.88"/>
<polygon fill="midnightblue" stroke="midnightblue" points="871.25,-124.85 868.16,-114.72 864.25,-124.56 871.25,-124.85"/>
</g>
<!-- Node194&#45;&gt;Node50 -->
<g id="edge14" class="edge">
<title>Node194&#45;&gt;Node50</title>
<path fill="none" stroke="midnightblue" d="M747.91,-118.09C769.47,-115.75 794.17,-113.07 815.57,-110.75"/>
<polygon fill="midnightblue" stroke="midnightblue" points="816.23,-114.2 825.79,-109.64 815.47,-107.24 816.23,-114.2"/>
</g>
<!-- Node102&#45;&gt;Node3 -->
<g id="edge16" class="edge">
<title>Node102&#45;&gt;Node3</title>
<path fill="none" stroke="midnightblue" d="M728.07,-630C754.16,-630 790.29,-630 819.37,-630"/>
<polygon fill="midnightblue" stroke="midnightblue" points="819.73,-633.5 829.73,-630 819.73,-626.5 819.73,-633.5"/>
</g>
<!-- Node390&#45;&gt;Node3 -->
<g id="edge27" class="edge">
<title>Node390&#45;&gt;Node3</title>
<path fill="none" stroke="midnightblue" d="M553.69,-751.55C615.45,-757.01 715.04,-757.85 790,-720 821.3,-704.2 845.5,-670 858.32,-648.61"/>
<polygon fill="midnightblue" stroke="midnightblue" points="861.44,-650.2 863.4,-639.79 855.38,-646.71 861.44,-650.2"/>
</g>
<!-- Node419&#45;&gt;Node1 -->
<g id="edge36" class="edge">
<title>Node419&#45;&gt;Node1</title>
<path fill="none" stroke="midnightblue" d="M174.17,-231.24C164.7,-231.58 154.47,-231.74 144.23,-231.75"/>
<polygon fill="midnightblue" stroke="midnightblue" points="144.03,-228.25 134.01,-231.7 143.99,-235.25 144.03,-228.25"/>
</g>
<!-- Node419&#45;&gt;Node41 -->
<g id="edge32" class="edge">
<title>Node419&#45;&gt;Node41</title>
<path fill="none" stroke="midnightblue" d="M224.79,-234.79C234,-260.96 262.34,-333.58 307,-378 310.49,-381.47 314.58,-384.58 318.83,-387.32"/>
<polygon fill="midnightblue" stroke="midnightblue" points="317.24,-390.45 327.64,-392.44 320.75,-384.39 317.24,-390.45"/>
</g>
<!-- Node419&#45;&gt;Node50 -->
<g id="edge33" class="edge">
<title>Node419&#45;&gt;Node50</title>
<path fill="none" stroke="midnightblue" d="M266.85,-224.52C302.59,-223.08 353.35,-218.68 396,-206 491.07,-177.73 498.54,-128.08 595,-105 669.99,-87.06 759.9,-91.88 815.62,-97.8"/>
<polygon fill="midnightblue" stroke="midnightblue" points="815.29,-101.29 825.61,-98.92 816.06,-94.33 815.29,-101.29"/>
</g>
<!-- Node419&#45;&gt;Node102 -->
<g id="edge31" class="edge">
<title>Node419&#45;&gt;Node102</title>
<path fill="none" stroke="midnightblue" d="M232.23,-234.51C259.71,-258.9 334.77,-325.82 396,-383 469.51,-451.65 497.99,-460.03 559,-540 579.27,-566.56 568.55,-585.58 595,-606 609.73,-617.38 629.18,-623.43 646.75,-626.62"/>
<polygon fill="midnightblue" stroke="midnightblue" points="646.41,-630.11 656.83,-628.19 647.49,-623.2 646.41,-630.11"/>
</g>
<!-- Node419&#45;&gt;Node211 -->
<g id="edge34" class="edge">
<title>Node419&#45;&gt;Node211</title>
<path fill="none" stroke="midnightblue" d="M254.05,-215.41C270.4,-210.6 290.41,-204.7 307.96,-199.53"/>
<polygon fill="midnightblue" stroke="midnightblue" points="309.35,-202.77 317.96,-196.59 307.38,-196.05 309.35,-202.77"/>
</g>
<!-- Node419&#45;&gt;Node206 -->
<g id="edge35" class="edge">
<title>Node419&#45;&gt;Node206</title>
<path fill="none" stroke="midnightblue" d="M234.38,-215.37C250.73,-203.38 280.07,-182.71 307,-168 310.3,-166.2 313.81,-164.43 317.35,-162.75"/>
<polygon fill="midnightblue" stroke="midnightblue" points="319,-165.84 326.66,-158.51 316.11,-159.47 319,-165.84"/>
</g>
</g>
</svg>
