<?xml version="1.0" encoding="UTF-8" standalone="no"?>
<!DOCTYPE svg PUBLIC "-//W3C//DTD SVG 1.1//EN"
 "http://www.w3.org/Graphics/SVG/1.1/DTD/svg11.dtd">
<!-- Generated by graphviz version 2.43.0 (0)
 -->
<!-- Title: update_stack_limit Pages: 1 -->
<svg width="535pt" height="66pt"
 viewBox="0.00 0.00 535.00 66.00" xmlns="http://www.w3.org/2000/svg" xmlns:xlink="http://www.w3.org/1999/xlink">
<g id="graph0" class="graph" transform="scale(1 1) rotate(0) translate(4 62)">
<title>update_stack_limit</title>
<!-- Node1 -->
<g id="node1" class="node">
<title>Node1</title>
<g id="a_node1"><a xlink:title=" ">
<polygon fill="#bfbfbf" stroke="black" points="417,-19.5 417,-38.5 527,-38.5 527,-19.5 417,-19.5"/>
<text text-anchor="middle" x="472" y="-26.5" font-family="Helvetica,sans-Serif" font-size="10.00">update_stack_limit</text>
</a>
</g>
</g>
<!-- Node2 -->
<g id="node2" class="node">
<title>Node2</title>
<g id="a_node2"><a xlink:href="quickjs_8c.html#a881fbf0e59f7abcabc4f6e6e6a3d2ca1" target="_top" xlink:title=" ">
<polygon fill="none" stroke="black" points="266,-38.5 266,-57.5 381,-57.5 381,-38.5 266,-38.5"/>
<text text-anchor="middle" x="323.5" y="-45.5" font-family="Helvetica,sans-Serif" font-size="10.00">JS_SetMaxStackSize</text>
</a>
</g>
</g>
<!-- Node1&#45;&gt;Node2 -->
<g id="edge1" class="edge">
<title>Node1&#45;&gt;Node2</title>
<path fill="none" stroke="midnightblue" d="M406.69,-37.34C398.25,-38.43 389.66,-39.55 381.36,-40.63"/>
<polygon fill="midnightblue" stroke="midnightblue" points="407.4,-40.78 416.87,-36.02 406.5,-33.84 407.4,-40.78"/>
</g>
<!-- Node3 -->
<g id="node3" class="node">
<title>Node3</title>
<g id="a_node3"><a xlink:href="quickjs_8c.html#acc46b60ebaafcded5d2021783ecc34e3" target="_top" xlink:title=" ">
<polygon fill="none" stroke="black" points="268.5,-0.5 268.5,-19.5 378.5,-19.5 378.5,-0.5 268.5,-0.5"/>
<text text-anchor="middle" x="323.5" y="-7.5" font-family="Helvetica,sans-Serif" font-size="10.00">JS_UpdateStackTop</text>
</a>
</g>
</g>
<!-- Node1&#45;&gt;Node3 -->
<g id="edge2" class="edge">
<title>Node1&#45;&gt;Node3</title>
<path fill="none" stroke="midnightblue" d="M406.86,-20.68C397.53,-19.47 388.01,-18.24 378.9,-17.06"/>
<polygon fill="midnightblue" stroke="midnightblue" points="406.5,-24.16 416.87,-21.98 407.4,-17.22 406.5,-24.16"/>
</g>
<!-- Node4 -->
<g id="node4" class="node">
<title>Node4</title>
<g id="a_node4"><a xlink:href="quickjs_8c.html#a27966451027feb455b5da12c1578771c" target="_top" xlink:title=" ">
<polygon fill="none" stroke="black" points="130,-0.5 130,-19.5 230,-19.5 230,-0.5 130,-0.5"/>
<text text-anchor="middle" x="180" y="-7.5" font-family="Helvetica,sans-Serif" font-size="10.00">JS_NewRuntime2</text>
</a>
</g>
</g>
<!-- Node3&#45;&gt;Node4 -->
<g id="edge3" class="edge">
<title>Node3&#45;&gt;Node4</title>
<path fill="none" stroke="midnightblue" d="M258.14,-10C248.79,-10 239.28,-10 230.29,-10"/>
<polygon fill="midnightblue" stroke="midnightblue" points="258.2,-13.5 268.2,-10 258.2,-6.5 258.2,-13.5"/>
</g>
<!-- Node5 -->
<g id="node5" class="node">
<title>Node5</title>
<g id="a_node5"><a xlink:href="quickjs_8c.html#afc1ca27a266094085ebb43e2eea0dda2" target="_top" xlink:title=" ">
<polygon fill="none" stroke="red" points="0,-0.5 0,-19.5 94,-19.5 94,-0.5 0,-0.5"/>
<text text-anchor="middle" x="47" y="-7.5" font-family="Helvetica,sans-Serif" font-size="10.00">JS_NewRuntime</text>
</a>
</g>
</g>
<!-- Node4&#45;&gt;Node5 -->
<g id="edge4" class="edge">
<title>Node4&#45;&gt;Node5</title>
<path fill="none" stroke="midnightblue" d="M119.63,-10C111.16,-10 102.56,-10 94.39,-10"/>
<polygon fill="midnightblue" stroke="midnightblue" points="119.85,-13.5 129.85,-10 119.85,-6.5 119.85,-13.5"/>
</g>
</g>
</svg>
