<?xml version="1.0" encoding="UTF-8" standalone="no"?>
<!DOCTYPE svg PUBLIC "-//W3C//DTD SVG 1.1//EN"
 "http://www.w3.org/Graphics/SVG/1.1/DTD/svg11.dtd">
<!-- Generated by graphviz version 2.43.0 (0)
 -->
<!-- Title: JS_NewRuntime2 Pages: 1 -->
<svg width="626pt" height="724pt"
 viewBox="0.00 0.00 626.00 724.00" xmlns="http://www.w3.org/2000/svg" xmlns:xlink="http://www.w3.org/1999/xlink">
<g id="graph0" class="graph" transform="scale(1 1) rotate(0) translate(4 720)">
<title>JS_NewRuntime2</title>
<!-- Node1 -->
<g id="node1" class="node">
<title>Node1</title>
<g id="a_node1"><a xlink:title=" ">
<polygon fill="#bfbfbf" stroke="black" points="0,-202.5 0,-221.5 100,-221.5 100,-202.5 0,-202.5"/>
<text text-anchor="middle" x="50" y="-209.5" font-family="Helvetica,sans-Serif" font-size="10.00">JS_NewRuntime2</text>
</a>
</g>
</g>
<!-- Node2 -->
<g id="node2" class="node">
<title>Node2</title>
<g id="a_node2"><a xlink:href="quickjs_8c.html#a4883d074a00e989747e68453c718c862" target="_top" xlink:title=" ">
<polygon fill="none" stroke="black" points="161,-639.5 161,-658.5 256,-658.5 256,-639.5 161,-639.5"/>
<text text-anchor="middle" x="208.5" y="-646.5" font-family="Helvetica,sans-Serif" font-size="10.00">init_class_range</text>
</a>
</g>
</g>
<!-- Node1&#45;&gt;Node2 -->
<g id="edge1" class="edge">
<title>Node1&#45;&gt;Node2</title>
<path fill="none" stroke="midnightblue" d="M51.98,-221.72C56.47,-263.48 77.48,-431.09 136,-554 150.31,-584.06 174.97,-613.96 191.26,-631.96"/>
<polygon fill="midnightblue" stroke="midnightblue" points="188.73,-634.38 198.09,-639.35 193.88,-629.63 188.73,-634.38"/>
</g>
<!-- Node7 -->
<g id="node4" class="node">
<title>Node7</title>
<g id="a_node4"><a xlink:href="list_8h.html#a663527a4d757540b2177bef0db1ce5c0" target="_top" xlink:title=" ">
<polygon fill="none" stroke="black" points="508.5,-411.5 508.5,-430.5 590.5,-430.5 590.5,-411.5 508.5,-411.5"/>
<text text-anchor="middle" x="549.5" y="-418.5" font-family="Helvetica,sans-Serif" font-size="10.00">init_list_head</text>
</a>
</g>
</g>
<!-- Node1&#45;&gt;Node7 -->
<g id="edge3" class="edge">
<title>Node1&#45;&gt;Node7</title>
<path fill="none" stroke="midnightblue" d="M57.94,-221.71C71.27,-239.79 102.17,-278.96 136,-303 248.96,-383.27 415.59,-409.19 498.23,-417.36"/>
<polygon fill="midnightblue" stroke="midnightblue" points="498.08,-420.87 508.36,-418.32 498.73,-413.9 498.08,-420.87"/>
</g>
<!-- Node8 -->
<g id="node5" class="node">
<title>Node8</title>
<g id="a_node5"><a xlink:href="quickjs_8c.html#a1aca23241f0d5313e2eaefa3aabeeb4b" target="_top" xlink:title=" ">
<polygon fill="none" stroke="black" points="161,-164.5 161,-183.5 256,-183.5 256,-164.5 161,-164.5"/>
<text text-anchor="middle" x="208.5" y="-171.5" font-family="Helvetica,sans-Serif" font-size="10.00">init_shape_hash</text>
</a>
</g>
</g>
<!-- Node1&#45;&gt;Node8 -->
<g id="edge4" class="edge">
<title>Node1&#45;&gt;Node8</title>
<path fill="none" stroke="midnightblue" d="M90.49,-202.41C111.14,-197.4 136.61,-191.21 158.51,-185.89"/>
<polygon fill="midnightblue" stroke="midnightblue" points="159.4,-189.28 168.29,-183.52 157.75,-182.48 159.4,-189.28"/>
</g>
<!-- Node9 -->
<g id="node6" class="node">
<title>Node9</title>
<g id="a_node6"><a xlink:href="quickjs_8c.html#a621d5d7548657b7462a29bea78b5a1e4" target="_top" xlink:title=" ">
<polygon fill="none" stroke="black" points="143.5,-126.5 143.5,-145.5 273.5,-145.5 273.5,-126.5 143.5,-126.5"/>
<text text-anchor="middle" x="208.5" y="-133.5" font-family="Helvetica,sans-Serif" font-size="10.00">js_c_function_data_call</text>
</a>
</g>
</g>
<!-- Node1&#45;&gt;Node9 -->
<g id="edge5" class="edge">
<title>Node1&#45;&gt;Node9</title>
<path fill="none" stroke="midnightblue" d="M62.64,-202.34C78.36,-189.75 107.68,-167.83 136,-155 141.32,-152.59 147.01,-150.44 152.77,-148.52"/>
<polygon fill="midnightblue" stroke="midnightblue" points="153.94,-151.83 162.46,-145.53 151.88,-145.14 153.94,-151.83"/>
</g>
<!-- Node10 -->
<g id="node7" class="node">
<title>Node10</title>
<g id="a_node7"><a xlink:href="quickjs_8c.html#afd4ef2d701fa0702f321925b61c57bbf" target="_top" xlink:title=" ">
<polygon fill="none" stroke="black" points="317,-316.5 317,-335.5 445,-335.5 445,-316.5 317,-316.5"/>
<text text-anchor="middle" x="381" y="-323.5" font-family="Helvetica,sans-Serif" font-size="10.00">js_call_bound_function</text>
</a>
</g>
</g>
<!-- Node1&#45;&gt;Node10 -->
<g id="edge6" class="edge">
<title>Node1&#45;&gt;Node10</title>
<path fill="none" stroke="midnightblue" d="M62.31,-221.57C77.9,-234.27 107.32,-256.53 136,-269 190.87,-292.85 257.2,-307.53 306.85,-316"/>
<polygon fill="midnightblue" stroke="midnightblue" points="306.42,-319.48 316.86,-317.67 307.57,-312.57 306.42,-319.48"/>
</g>
<!-- Node443 -->
<g id="node13" class="node">
<title>Node443</title>
<g id="a_node13"><a xlink:href="quickjs_8c.html#a3486836f2ac17a9fa315904e14858e5a" target="_top" xlink:title=" ">
<polygon fill="none" stroke="black" points="157,-202.5 157,-221.5 260,-221.5 260,-202.5 157,-202.5"/>
<text text-anchor="middle" x="208.5" y="-209.5" font-family="Helvetica,sans-Serif" font-size="10.00">js_call_c_function</text>
</a>
</g>
</g>
<!-- Node1&#45;&gt;Node443 -->
<g id="edge12" class="edge">
<title>Node1&#45;&gt;Node443</title>
<path fill="none" stroke="midnightblue" d="M100.09,-212C114.94,-212 131.43,-212 146.94,-212"/>
<polygon fill="midnightblue" stroke="midnightblue" points="146.97,-215.5 156.97,-212 146.97,-208.5 146.97,-215.5"/>
</g>
<!-- Node445 -->
<g id="node18" class="node">
<title>Node445</title>
<g id="a_node18"><a xlink:href="quickjs_8c.html#ad80a65b72c3a346d8a0047858a5f0b13" target="_top" xlink:title=" ">
<polygon fill="none" stroke="black" points="162,-525.5 162,-544.5 255,-544.5 255,-525.5 162,-525.5"/>
<text text-anchor="middle" x="208.5" y="-532.5" font-family="Helvetica,sans-Serif" font-size="10.00">JS_FreeRuntime</text>
</a>
</g>
</g>
<!-- Node1&#45;&gt;Node445 -->
<g id="edge20" class="edge">
<title>Node1&#45;&gt;Node445</title>
<path fill="none" stroke="midnightblue" d="M54.42,-221.57C65.1,-251.14 99.31,-343.4 136,-416 154.73,-453.06 180.63,-494.13 195.57,-517.03"/>
<polygon fill="midnightblue" stroke="midnightblue" points="192.65,-518.97 201.07,-525.4 198.5,-515.12 192.65,-518.97"/>
</g>
<!-- Node446 -->
<g id="node25" class="node">
<title>Node446</title>
<g id="a_node25"><a xlink:href="quickjs_8c.html#ac90552b1f1659acb3dae9a4c62479a30" target="_top" xlink:title=" ">
<polygon fill="none" stroke="red" points="136,-240.5 136,-259.5 281,-259.5 281,-240.5 136,-240.5"/>
<text text-anchor="middle" x="208.5" y="-247.5" font-family="Helvetica,sans-Serif" font-size="10.00">js_generator_function_call</text>
</a>
</g>
</g>
<!-- Node1&#45;&gt;Node446 -->
<g id="edge28" class="edge">
<title>Node1&#45;&gt;Node446</title>
<path fill="none" stroke="midnightblue" d="M90.49,-221.59C111.14,-226.6 136.61,-232.79 158.51,-238.11"/>
<polygon fill="midnightblue" stroke="midnightblue" points="157.75,-241.52 168.29,-240.48 159.4,-234.72 157.75,-241.52"/>
</g>
<!-- Node451 -->
<g id="node28" class="node">
<title>Node451</title>
<g id="a_node28"><a xlink:href="quickjs_8c.html#a2469c0e8a95a75d5835ec98ea967085f" target="_top" xlink:title=" ">
<polygon fill="none" stroke="red" points="169.5,-88.5 169.5,-107.5 247.5,-107.5 247.5,-88.5 169.5,-88.5"/>
<text text-anchor="middle" x="208.5" y="-95.5" font-family="Helvetica,sans-Serif" font-size="10.00">JS_InitAtoms</text>
</a>
</g>
</g>
<!-- Node1&#45;&gt;Node451 -->
<g id="edge35" class="edge">
<title>Node1&#45;&gt;Node451</title>
<path fill="none" stroke="midnightblue" d="M56.91,-202.23C69.15,-182.88 99.22,-139.57 136,-117 143.24,-112.56 151.51,-109.14 159.79,-106.52"/>
<polygon fill="midnightblue" stroke="midnightblue" points="160.79,-109.88 169.47,-103.79 158.89,-103.14 160.79,-109.88"/>
</g>
<!-- Node453 -->
<g id="node29" class="node">
<title>Node453</title>
<g id="a_node29"><a xlink:href="quickjs_8c.html#a13dc07fcd82cf239eb10a991e6be507d" target="_top" xlink:title=" ">
<polygon fill="none" stroke="black" points="146,-39 146,-69 271,-69 271,-39 146,-39"/>
<text text-anchor="start" x="154" y="-57" font-family="Helvetica,sans-Serif" font-size="10.00">js_malloc_usable_size</text>
<text text-anchor="middle" x="208.5" y="-46" font-family="Helvetica,sans-Serif" font-size="10.00">_unknown</text>
</a>
</g>
</g>
<!-- Node1&#45;&gt;Node453 -->
<g id="edge36" class="edge">
<title>Node1&#45;&gt;Node453</title>
<path fill="none" stroke="midnightblue" d="M54.53,-202.42C63.94,-178.17 91.94,-113.85 136,-79 138.27,-77.2 140.68,-75.53 143.19,-73.97"/>
<polygon fill="midnightblue" stroke="midnightblue" points="144.96,-77 152.04,-69.11 141.59,-70.86 144.96,-77"/>
</g>
<!-- Node454 -->
<g id="node30" class="node">
<title>Node454</title>
<g id="a_node30"><a xlink:href="quickjs_8c.html#acc46b60ebaafcded5d2021783ecc34e3" target="_top" xlink:title=" ">
<polygon fill="none" stroke="red" points="153.5,-0.5 153.5,-19.5 263.5,-19.5 263.5,-0.5 153.5,-0.5"/>
<text text-anchor="middle" x="208.5" y="-7.5" font-family="Helvetica,sans-Serif" font-size="10.00">JS_UpdateStackTop</text>
</a>
</g>
</g>
<!-- Node1&#45;&gt;Node454 -->
<g id="edge37" class="edge">
<title>Node1&#45;&gt;Node454</title>
<path fill="none" stroke="midnightblue" d="M52.55,-202.3C57.95,-171.79 78.83,-76.95 136,-29 138.56,-26.85 141.34,-24.95 144.26,-23.26"/>
<polygon fill="midnightblue" stroke="midnightblue" points="145.95,-26.32 153.4,-18.79 142.88,-20.03 145.95,-26.32"/>
</g>
<!-- Node3 -->
<g id="node3" class="node">
<title>Node3</title>
<g id="a_node3"><a xlink:href="quickjs_8c.html#ab515cd66efd3e476d2c22d6a55f13194" target="_top" xlink:title=" ">
<polygon fill="none" stroke="red" points="338.5,-696.5 338.5,-715.5 423.5,-715.5 423.5,-696.5 338.5,-696.5"/>
<text text-anchor="middle" x="381" y="-703.5" font-family="Helvetica,sans-Serif" font-size="10.00">JS_NewClass1</text>
</a>
</g>
</g>
<!-- Node2&#45;&gt;Node3 -->
<g id="edge2" class="edge">
<title>Node2&#45;&gt;Node3</title>
<path fill="none" stroke="midnightblue" d="M235.45,-658.56C257.15,-666.46 288.97,-677.82 317,-687 323.57,-689.15 330.54,-691.34 337.37,-693.44"/>
<polygon fill="midnightblue" stroke="midnightblue" points="336.63,-696.87 347.21,-696.43 338.66,-690.17 336.63,-696.87"/>
</g>
<!-- Node11 -->
<g id="node8" class="node">
<title>Node11</title>
<g id="a_node8"><a xlink:href="quickjs_8c.html#a1a4c02a29525d5cb2085dd8bca3af350" target="_top" xlink:title=" ">
<polygon fill="none" stroke="red" points="524.5,-297.5 524.5,-316.5 574.5,-316.5 574.5,-297.5 524.5,-297.5"/>
<text text-anchor="middle" x="549.5" y="-304.5" font-family="Helvetica,sans-Serif" font-size="10.00">JS_Call</text>
</a>
</g>
</g>
<!-- Node10&#45;&gt;Node11 -->
<g id="edge7" class="edge">
<title>Node10&#45;&gt;Node11</title>
<path fill="none" stroke="midnightblue" d="M445.42,-318.76C468.79,-316.1 494.37,-313.18 514.21,-310.91"/>
<polygon fill="midnightblue" stroke="midnightblue" points="514.76,-314.37 524.3,-309.76 513.97,-307.42 514.76,-314.37"/>
</g>
<!-- Node407 -->
<g id="node9" class="node">
<title>Node407</title>
<g id="a_node9"><a xlink:href="quickjs_8c.html#a03d5edf3e8bb18809d6675e5c08bac26" target="_top" xlink:title=" ">
<polygon fill="none" stroke="red" points="493.5,-373.5 493.5,-392.5 605.5,-392.5 605.5,-373.5 493.5,-373.5"/>
<text text-anchor="middle" x="549.5" y="-380.5" font-family="Helvetica,sans-Serif" font-size="10.00">JS_CallConstructor2</text>
</a>
</g>
</g>
<!-- Node10&#45;&gt;Node407 -->
<g id="edge8" class="edge">
<title>Node10&#45;&gt;Node407</title>
<path fill="none" stroke="midnightblue" d="M418.07,-335.57C426.99,-338.3 436.44,-341.49 445,-345 461.74,-351.87 464.2,-357.29 481,-364 486.86,-366.34 493.12,-368.51 499.37,-370.49"/>
<polygon fill="midnightblue" stroke="midnightblue" points="498.54,-373.9 509.13,-373.43 500.56,-367.19 498.54,-373.9"/>
</g>
<!-- Node226 -->
<g id="node10" class="node">
<title>Node226</title>
<g id="a_node10"><a xlink:href="quickjs_8c.html#af23ec7c9970ceb4671c59da7abd4b078" target="_top" xlink:title=" ">
<polygon fill="none" stroke="red" points="481,-259.5 481,-278.5 618,-278.5 618,-259.5 481,-259.5"/>
<text text-anchor="middle" x="549.5" y="-266.5" font-family="Helvetica,sans-Serif" font-size="10.00">js_check_stack_overflow</text>
</a>
</g>
</g>
<!-- Node10&#45;&gt;Node226 -->
<g id="edge9" class="edge">
<title>Node10&#45;&gt;Node226</title>
<path fill="none" stroke="midnightblue" d="M407.15,-316.46C418.69,-312.08 432.55,-306.79 445,-302 461.02,-295.83 464.72,-293.44 481,-288 487.91,-285.69 495.27,-283.42 502.5,-281.31"/>
<polygon fill="midnightblue" stroke="midnightblue" points="503.57,-284.64 512.22,-278.52 501.64,-277.91 503.57,-284.64"/>
</g>
<!-- Node240 -->
<g id="node11" class="node">
<title>Node240</title>
<g id="a_node11"><a xlink:href="quickjs_8c.html#a24be89a128d1cd7c0908604815b2b854" target="_top" xlink:title=" ">
<polygon fill="none" stroke="red" points="505,-335.5 505,-354.5 594,-354.5 594,-335.5 505,-335.5"/>
<text text-anchor="middle" x="549.5" y="-342.5" font-family="Helvetica,sans-Serif" font-size="10.00">js_same_value</text>
</a>
</g>
</g>
<!-- Node10&#45;&gt;Node240 -->
<g id="edge10" class="edge">
<title>Node10&#45;&gt;Node240</title>
<path fill="none" stroke="midnightblue" d="M445.42,-333.24C461.71,-335.1 479.06,-337.08 494.8,-338.87"/>
<polygon fill="midnightblue" stroke="midnightblue" points="494.55,-342.37 504.88,-340.02 495.34,-335.41 494.55,-342.37"/>
</g>
<!-- Node228 -->
<g id="node12" class="node">
<title>Node228</title>
<g id="a_node12"><a xlink:href="quickjs_8c.html#a8353f635fb8a20553c08db8cf38c17e0" target="_top" xlink:title=" ">
<polygon fill="none" stroke="red" points="484,-221.5 484,-240.5 615,-240.5 615,-221.5 484,-221.5"/>
<text text-anchor="middle" x="549.5" y="-228.5" font-family="Helvetica,sans-Serif" font-size="10.00">JS_ThrowStackOverflow</text>
</a>
</g>
</g>
<!-- Node10&#45;&gt;Node228 -->
<g id="edge11" class="edge">
<title>Node10&#45;&gt;Node228</title>
<path fill="none" stroke="midnightblue" d="M391.8,-316.37C408.65,-300.34 444.77,-268.15 481,-250 485.58,-247.71 490.47,-245.65 495.45,-243.83"/>
<polygon fill="midnightblue" stroke="midnightblue" points="496.73,-247.09 505.09,-240.58 494.5,-240.45 496.73,-247.09"/>
</g>
<!-- Node443&#45;&gt;Node226 -->
<g id="edge13" class="edge">
<title>Node443&#45;&gt;Node226</title>
<path fill="none" stroke="midnightblue" d="M259.78,-221.56C267.18,-224.03 274.49,-227.13 281,-231 301,-242.88 295.63,-259.81 317,-269 374.74,-293.83 448.32,-288.33 496.84,-280.28"/>
<polygon fill="midnightblue" stroke="midnightblue" points="497.56,-283.71 506.8,-278.54 496.35,-276.82 497.56,-283.71"/>
</g>
<!-- Node443&#45;&gt;Node228 -->
<g id="edge18" class="edge">
<title>Node443&#45;&gt;Node228</title>
<path fill="none" stroke="midnightblue" d="M260.25,-214.84C316.79,-218.01 408.77,-223.17 473.59,-226.8"/>
<polygon fill="midnightblue" stroke="midnightblue" points="473.57,-230.31 483.75,-227.37 473.96,-223.32 473.57,-230.31"/>
</g>
<!-- Node444 -->
<g id="node14" class="node">
<title>Node444</title>
<g id="a_node14"><a xlink:href="quickjs_8c.html#a7346b86113acd072c9cfc8d238c4ff7c" target="_top" xlink:title=" ">
<polygon fill="none" stroke="red" points="330,-115 330,-145 432,-145 432,-115 330,-115"/>
<text text-anchor="start" x="338" y="-133" font-family="Helvetica,sans-Serif" font-size="10.00">js_create_iterator</text>
<text text-anchor="middle" x="381" y="-122" font-family="Helvetica,sans-Serif" font-size="10.00">_result</text>
</a>
</g>
</g>
<!-- Node443&#45;&gt;Node444 -->
<g id="edge14" class="edge">
<title>Node443&#45;&gt;Node444</title>
<path fill="none" stroke="midnightblue" d="M258.42,-202.39C266.22,-199.91 274.01,-196.82 281,-193 300.04,-182.58 299,-172.13 317,-160 322.53,-156.27 328.6,-152.75 334.72,-149.54"/>
<polygon fill="midnightblue" stroke="midnightblue" points="336.3,-152.66 343.67,-145.04 333.16,-146.4 336.3,-152.66"/>
</g>
<!-- Node82 -->
<g id="node15" class="node">
<title>Node82</title>
<g id="a_node15"><a xlink:href="quickjs_8h.html#ad80a83d73e9b7d872b88fbf2943aebe9" target="_top" xlink:title=" ">
<polygon fill="none" stroke="black" points="506,-120.5 506,-139.5 593,-139.5 593,-120.5 506,-120.5"/>
<text text-anchor="middle" x="549.5" y="-127.5" font-family="Helvetica,sans-Serif" font-size="10.00">JS_IsException</text>
</a>
</g>
</g>
<!-- Node443&#45;&gt;Node82 -->
<g id="edge16" class="edge">
<title>Node443&#45;&gt;Node82</title>
<path fill="none" stroke="midnightblue" d="M260.15,-204.86C267.74,-202.08 275.02,-198.26 281,-193 312.74,-165.1 281.92,-128.55 317,-105 379.67,-62.93 474.07,-95.53 520.58,-116.25"/>
<polygon fill="midnightblue" stroke="midnightblue" points="519.2,-119.47 529.75,-120.47 522.12,-113.11 519.2,-119.47"/>
</g>
<!-- Node94 -->
<g id="node16" class="node">
<title>Node94</title>
<g id="a_node16"><a xlink:href="quickjs_8h.html#ae91f44bd7249613050c18c7133702c67" target="_top" xlink:title=" ">
<polygon fill="none" stroke="red" points="336.5,-38.5 336.5,-57.5 425.5,-57.5 425.5,-38.5 336.5,-38.5"/>
<text text-anchor="middle" x="381" y="-45.5" font-family="Helvetica,sans-Serif" font-size="10.00">JS_NewFloat64</text>
</a>
</g>
</g>
<!-- Node443&#45;&gt;Node94 -->
<g id="edge17" class="edge">
<title>Node443&#45;&gt;Node94</title>
<path fill="none" stroke="midnightblue" d="M260.24,-205.5C267.92,-202.65 275.19,-198.64 281,-193 321.25,-153.91 278.84,-113.13 317,-72 320.59,-68.13 324.87,-64.88 329.49,-62.15"/>
<polygon fill="midnightblue" stroke="midnightblue" points="331.33,-65.14 338.68,-57.52 328.18,-58.89 331.33,-65.14"/>
</g>
<!-- Node236 -->
<g id="node17" class="node">
<title>Node236</title>
<g id="a_node17"><a xlink:href="quickjs_8c.html#a8cc9386cd04cfa067d0c6bf588c6bb58" target="_top" xlink:title=" ">
<polygon fill="none" stroke="red" points="342,-0.5 342,-19.5 420,-19.5 420,-0.5 342,-0.5"/>
<text text-anchor="middle" x="381" y="-7.5" font-family="Helvetica,sans-Serif" font-size="10.00">JS_ToFloat64</text>
</a>
</g>
</g>
<!-- Node443&#45;&gt;Node236 -->
<g id="edge19" class="edge">
<title>Node443&#45;&gt;Node236</title>
<path fill="none" stroke="midnightblue" d="M260.24,-205.99C268,-203.09 275.32,-198.94 281,-193 332.6,-139.09 266.3,-83.75 317,-29 321.18,-24.49 326.38,-21.04 332,-18.39"/>
<polygon fill="midnightblue" stroke="midnightblue" points="333.64,-21.51 341.73,-14.67 331.14,-14.98 333.64,-21.51"/>
</g>
<!-- Node444&#45;&gt;Node82 -->
<g id="edge15" class="edge">
<title>Node444&#45;&gt;Node82</title>
<path fill="none" stroke="midnightblue" d="M432.41,-130C452.47,-130 475.56,-130 495.84,-130"/>
<polygon fill="midnightblue" stroke="midnightblue" points="495.85,-133.5 505.85,-130 495.85,-126.5 495.85,-133.5"/>
</g>
<!-- Node445&#45;&gt;Node7 -->
<g id="edge22" class="edge">
<title>Node445&#45;&gt;Node7</title>
<path fill="none" stroke="midnightblue" d="M219.52,-525.47C237.48,-509 277.03,-475.39 317,-459 376.16,-434.75 449.81,-425.95 497.94,-422.77"/>
<polygon fill="midnightblue" stroke="midnightblue" points="498.34,-426.26 508.11,-422.16 497.92,-419.27 498.34,-426.26"/>
</g>
<!-- Node164 -->
<g id="node19" class="node">
<title>Node164</title>
<g id="a_node19"><a xlink:href="quickjs_8c.html#ac3bdf708c1dc092fd52508b5d29bd0ce" target="_top" xlink:title=" ">
<polygon fill="none" stroke="black" points="341,-468.5 341,-487.5 421,-487.5 421,-468.5 341,-468.5"/>
<text text-anchor="middle" x="381" y="-475.5" font-family="Helvetica,sans-Serif" font-size="10.00">atom_is_free</text>
</a>
</g>
</g>
<!-- Node445&#45;&gt;Node164 -->
<g id="edge21" class="edge">
<title>Node445&#45;&gt;Node164</title>
<path fill="none" stroke="midnightblue" d="M235.45,-525.44C257.15,-517.54 288.97,-506.18 317,-497 323.57,-494.85 330.54,-492.66 337.37,-490.56"/>
<polygon fill="midnightblue" stroke="midnightblue" points="338.66,-493.83 347.21,-487.57 336.63,-487.13 338.66,-493.83"/>
</g>
<!-- Node30 -->
<g id="node20" class="node">
<title>Node30</title>
<g id="a_node20"><a xlink:href="quickjs_8c.html#a69e19dda8a93d613203e0baa06f0ed8d" target="_top" xlink:title=" ">
<polygon fill="none" stroke="black" points="350,-658.5 350,-677.5 412,-677.5 412,-658.5 350,-658.5"/>
<text text-anchor="middle" x="381" y="-665.5" font-family="Helvetica,sans-Serif" font-size="10.00">js_free_rt</text>
</a>
</g>
</g>
<!-- Node445&#45;&gt;Node30 -->
<g id="edge23" class="edge">
<title>Node445&#45;&gt;Node30</title>
<path fill="none" stroke="midnightblue" d="M215.81,-544.54C230.75,-566.37 270.49,-620.24 317,-649 324.05,-653.36 332.16,-656.77 340.16,-659.42"/>
<polygon fill="midnightblue" stroke="midnightblue" points="339.21,-662.79 349.79,-662.3 341.21,-656.09 339.21,-662.79"/>
</g>
<!-- Node47 -->
<g id="node21" class="node">
<title>Node47</title>
<g id="a_node21"><a xlink:href="quickjs_8c.html#a5a0aca30abbb4d4ae86746541bf4cbc7" target="_top" xlink:title=" ">
<polygon fill="none" stroke="red" points="336,-620.5 336,-639.5 426,-639.5 426,-620.5 336,-620.5"/>
<text text-anchor="middle" x="381" y="-627.5" font-family="Helvetica,sans-Serif" font-size="10.00">JS_FreeAtomRT</text>
</a>
</g>
</g>
<!-- Node445&#45;&gt;Node47 -->
<g id="edge24" class="edge">
<title>Node445&#45;&gt;Node47</title>
<path fill="none" stroke="midnightblue" d="M220.35,-544.5C238.93,-560.34 278.59,-592.25 317,-611 321.63,-613.26 326.58,-615.31 331.6,-617.16"/>
<polygon fill="midnightblue" stroke="midnightblue" points="330.67,-620.54 341.27,-620.47 332.94,-613.92 330.67,-620.54"/>
</g>
<!-- Node51 -->
<g id="node22" class="node">
<title>Node51</title>
<g id="a_node22"><a xlink:href="quickjs_8h.html#ab8db583fa5e7c2b1935854a42859daed" target="_top" xlink:title=" ">
<polygon fill="none" stroke="red" points="335.5,-582.5 335.5,-601.5 426.5,-601.5 426.5,-582.5 335.5,-582.5"/>
<text text-anchor="middle" x="381" y="-589.5" font-family="Helvetica,sans-Serif" font-size="10.00">JS_FreeValueRT</text>
</a>
</g>
</g>
<!-- Node445&#45;&gt;Node51 -->
<g id="edge25" class="edge">
<title>Node445&#45;&gt;Node51</title>
<path fill="none" stroke="midnightblue" d="M235.45,-544.56C257.15,-552.46 288.97,-563.82 317,-573 323.57,-575.15 330.54,-577.34 337.37,-579.44"/>
<polygon fill="midnightblue" stroke="midnightblue" points="336.63,-582.87 347.21,-582.43 338.66,-576.17 336.63,-582.87"/>
</g>
<!-- Node201 -->
<g id="node23" class="node">
<title>Node201</title>
<g id="a_node23"><a xlink:href="quickjs_8c.html#aeeea589ee4cec4bbc3145210f4cf6e42" target="_top" xlink:title=" ">
<polygon fill="none" stroke="red" points="349,-544.5 349,-563.5 413,-563.5 413,-544.5 349,-544.5"/>
<text text-anchor="middle" x="381" y="-551.5" font-family="Helvetica,sans-Serif" font-size="10.00">JS_RunGC</text>
</a>
</g>
</g>
<!-- Node445&#45;&gt;Node201 -->
<g id="edge26" class="edge">
<title>Node445&#45;&gt;Node201</title>
<path fill="none" stroke="midnightblue" d="M255.19,-540.09C281.2,-542.99 313.52,-546.59 338.75,-549.4"/>
<polygon fill="midnightblue" stroke="midnightblue" points="338.42,-552.89 348.75,-550.52 339.2,-545.93 338.42,-552.89"/>
</g>
<!-- Node442 -->
<g id="node24" class="node">
<title>Node442</title>
<g id="a_node24"><a xlink:href="list_8h.html#acc8877b883e77ef12325dd5bfa4be0d3" target="_top" xlink:title=" ">
<polygon fill="none" stroke="black" points="347,-506.5 347,-525.5 415,-525.5 415,-506.5 347,-506.5"/>
<text text-anchor="middle" x="381" y="-513.5" font-family="Helvetica,sans-Serif" font-size="10.00">list_empty</text>
</a>
</g>
</g>
<!-- Node445&#45;&gt;Node442 -->
<g id="edge27" class="edge">
<title>Node445&#45;&gt;Node442</title>
<path fill="none" stroke="midnightblue" d="M255.19,-529.91C280.48,-527.09 311.74,-523.61 336.64,-520.83"/>
<polygon fill="midnightblue" stroke="midnightblue" points="337.34,-524.28 346.89,-519.69 336.57,-517.32 337.34,-524.28"/>
</g>
<!-- Node446&#45;&gt;Node82 -->
<g id="edge34" class="edge">
<title>Node446&#45;&gt;Node82</title>
<path fill="none" stroke="midnightblue" d="M248.3,-240.46C258.96,-237.62 270.48,-234.37 281,-231 367.19,-203.35 466.31,-163.85 516.22,-143.41"/>
<polygon fill="midnightblue" stroke="midnightblue" points="517.6,-146.62 525.52,-139.58 514.94,-140.15 517.6,-146.62"/>
</g>
<!-- Node447 -->
<g id="node26" class="node">
<title>Node447</title>
<g id="a_node26"><a xlink:href="quickjs_8c.html#a4bd986b91b68c6aa485f57c6142acccb" target="_top" xlink:title=" ">
<polygon fill="none" stroke="red" points="335,-354.5 335,-373.5 427,-373.5 427,-354.5 335,-354.5"/>
<text text-anchor="middle" x="381" y="-361.5" font-family="Helvetica,sans-Serif" font-size="10.00">async_func_init</text>
</a>
</g>
</g>
<!-- Node446&#45;&gt;Node447 -->
<g id="edge29" class="edge">
<title>Node446&#45;&gt;Node447</title>
<path fill="none" stroke="midnightblue" d="M217.68,-259.58C234.41,-278.61 274.57,-321.36 317,-345 320.92,-347.19 325.13,-349.15 329.43,-350.9"/>
<polygon fill="midnightblue" stroke="midnightblue" points="328.36,-354.24 338.95,-354.43 330.79,-347.67 328.36,-354.24"/>
</g>
<!-- Node448 -->
<g id="node27" class="node">
<title>Node448</title>
<g id="a_node27"><a xlink:href="quickjs_8c.html#ade71a22dc56e7371392393df663b28b3" target="_top" xlink:title=" ">
<polygon fill="none" stroke="red" points="324.5,-240.5 324.5,-259.5 437.5,-259.5 437.5,-240.5 324.5,-240.5"/>
<text text-anchor="middle" x="381" y="-247.5" font-family="Helvetica,sans-Serif" font-size="10.00">async_func_resume</text>
</a>
</g>
</g>
<!-- Node446&#45;&gt;Node448 -->
<g id="edge31" class="edge">
<title>Node446&#45;&gt;Node448</title>
<path fill="none" stroke="midnightblue" d="M281.31,-250C292.21,-250 303.41,-250 314.17,-250"/>
<polygon fill="midnightblue" stroke="midnightblue" points="314.33,-253.5 324.33,-250 314.33,-246.5 314.33,-253.5"/>
</g>
<!-- Node447&#45;&gt;Node7 -->
<g id="edge30" class="edge">
<title>Node447&#45;&gt;Node7</title>
<path fill="none" stroke="midnightblue" d="M407.15,-373.54C418.69,-377.92 432.55,-383.21 445,-388 461.02,-394.17 464.72,-396.56 481,-402 487.91,-404.31 495.27,-406.58 502.5,-408.69"/>
<polygon fill="midnightblue" stroke="midnightblue" points="501.64,-412.09 512.22,-411.48 503.57,-405.36 501.64,-412.09"/>
</g>
<!-- Node448&#45;&gt;Node226 -->
<g id="edge32" class="edge">
<title>Node448&#45;&gt;Node226</title>
<path fill="none" stroke="midnightblue" d="M437.91,-256.38C448.47,-257.58 459.69,-258.87 470.78,-260.13"/>
<polygon fill="midnightblue" stroke="midnightblue" points="470.57,-263.63 480.9,-261.29 471.36,-256.67 470.57,-263.63"/>
</g>
<!-- Node448&#45;&gt;Node228 -->
<g id="edge33" class="edge">
<title>Node448&#45;&gt;Node228</title>
<path fill="none" stroke="midnightblue" d="M437.91,-243.62C449.42,-242.31 461.72,-240.9 473.78,-239.53"/>
<polygon fill="midnightblue" stroke="midnightblue" points="474.29,-242.99 483.83,-238.38 473.49,-236.04 474.29,-242.99"/>
</g>
</g>
</svg>
