<?xml version="1.0" encoding="UTF-8" standalone="no"?>
<!DOCTYPE svg PUBLIC "-//W3C//DTD SVG 1.1//EN"
 "http://www.w3.org/Graphics/SVG/1.1/DTD/svg11.dtd">
<!-- Generated by graphviz version 2.43.0 (0)
 -->
<!-- Title: JS_UpdateStackTop Pages: 1 -->
<svg width="271pt" height="66pt"
 viewBox="0.00 0.00 271.00 66.00" xmlns="http://www.w3.org/2000/svg" xmlns:xlink="http://www.w3.org/1999/xlink">
<g id="graph0" class="graph" transform="scale(1 1) rotate(0) translate(4 62)">
<title>JS_UpdateStackTop</title>
<!-- Node1 -->
<g id="node1" class="node">
<title>Node1</title>
<g id="a_node1"><a xlink:title=" ">
<polygon fill="#bfbfbf" stroke="black" points="0,-19.5 0,-38.5 110,-38.5 110,-19.5 0,-19.5"/>
<text text-anchor="middle" x="55" y="-26.5" font-family="Helvetica,sans-Serif" font-size="10.00">JS_UpdateStackTop</text>
</a>
</g>
</g>
<!-- Node2 -->
<g id="node2" class="node">
<title>Node2</title>
<g id="a_node2"><a xlink:href="quickjs_8c.html#a36b8de436f88239e2e5515a3a423c6d9" target="_top" xlink:title=" ">
<polygon fill="none" stroke="black" points="146,-38.5 146,-57.5 263,-57.5 263,-38.5 146,-38.5"/>
<text text-anchor="middle" x="204.5" y="-45.5" font-family="Helvetica,sans-Serif" font-size="10.00">js_get_stack_pointer</text>
</a>
</g>
</g>
<!-- Node1&#45;&gt;Node2 -->
<g id="edge1" class="edge">
<title>Node1&#45;&gt;Node2</title>
<path fill="none" stroke="midnightblue" d="M110.09,-35.97C118.48,-37.05 127.24,-38.18 135.88,-39.29"/>
<polygon fill="midnightblue" stroke="midnightblue" points="135.58,-42.78 145.95,-40.59 136.48,-35.84 135.58,-42.78"/>
</g>
<!-- Node3 -->
<g id="node3" class="node">
<title>Node3</title>
<g id="a_node3"><a xlink:href="quickjs_8c.html#a68ef66f3d58e31c7f5eb0519e898a6a8" target="_top" xlink:title=" ">
<polygon fill="none" stroke="black" points="149.5,-0.5 149.5,-19.5 259.5,-19.5 259.5,-0.5 149.5,-0.5"/>
<text text-anchor="middle" x="204.5" y="-7.5" font-family="Helvetica,sans-Serif" font-size="10.00">update_stack_limit</text>
</a>
</g>
</g>
<!-- Node1&#45;&gt;Node3 -->
<g id="edge2" class="edge">
<title>Node1&#45;&gt;Node3</title>
<path fill="none" stroke="midnightblue" d="M110.09,-22.03C119.61,-20.81 129.6,-19.52 139.36,-18.26"/>
<polygon fill="midnightblue" stroke="midnightblue" points="139.95,-21.72 149.42,-16.97 139.06,-14.77 139.95,-21.72"/>
</g>
</g>
</svg>
