<?xml version="1.0" encoding="UTF-8" standalone="no"?>
<!DOCTYPE svg PUBLIC "-//W3C//DTD SVG 1.1//EN"
 "http://www.w3.org/Graphics/SVG/1.1/DTD/svg11.dtd">
<!-- Generated by graphviz version 2.43.0 (0)
 -->
<!-- Title: js_proxy_isExtensible Pages: 1 -->
<!--zoomable 1040 -->
<svg id="main" version="1.1" xmlns="http://www.w3.org/2000/svg" xmlns:xlink="http://www.w3.org/1999/xlink" xml:space="preserve" onload="init(evt)">
<style type="text/css"><![CDATA[
.edge:hover path { stroke: red; }
.edge:hover polygon { stroke: red; fill: red; }
]]></style>
<script type="text/javascript"><![CDATA[
var edges = document.getElementsByTagName('g');
if (edges && edges.length) {
  for (var i=0;i<edges.length;i++) {
    if (edges[i].id.substr(0,4)=='edge') {
      edges[i].setAttribute('class','edge');
    }
  }
}
]]></script>
        <defs>
                <circle id="rim" cx="0" cy="0" r="7"/>
                <circle id="rim2" cx="0" cy="0" r="3.5"/>
                <g id="zoomPlus">
                        <use xlink:href="#rim" fill="#404040">
                                <set attributeName="fill" to="#808080" begin="zoomplus.mouseover" end="zoomplus.mouseout"/>
                        </use>
                        <path d="M-4,0h8M0,-4v8" fill="none" stroke="white" stroke-width="1.5" pointer-events="none"/>
                </g>
                <g id="zoomMin">
                        <use xlink:href="#rim" fill="#404040">
                                <set attributeName="fill" to="#808080" begin="zoomminus.mouseover" end="zoomminus.mouseout"/>
                        </use>
                        <path d="M-4,0h8" fill="none" stroke="white" stroke-width="1.5" pointer-events="none"/>
                </g>
                <g id="dirArrow">
                        <path fill="none" stroke="white" stroke-width="1.5" d="M0,-3.0v7 M-2.5,-0.5L0,-3.0L2.5,-0.5"/>
                </g>
               <g id="resetDef">
                       <use xlink:href="#rim2" fill="#404040">
                               <set attributeName="fill" to="#808080" begin="reset.mouseover" end="reset.mouseout"/>
                       </use>
               </g>
        </defs>

<script type="text/javascript">
var viewWidth = 853;
var viewHeight = 1040;
var sectionId = 'dynsection-45';
</script>
<script xlink:href="svgpan.js"/>
<svg id="graph" class="graph">
<g id="viewport">
<title>js_proxy_isExtensible</title>
<!-- Node1 -->
<g id="node1" class="node">
<title>Node1</title>
<g id="a_node1"><a xlink:title=" ">
<polygon fill="#bfbfbf" stroke="black" points="0,-76.5 0,-95.5 122,-95.5 122,-76.5 0,-76.5"/>
<text text-anchor="middle" x="61" y="-83.5" font-family="Helvetica,sans-Serif" font-size="10.00">js_proxy_isExtensible</text>
</a>
</g>
</g>
<!-- Node2 -->
<g id="node2" class="node">
<title>Node2</title>
<g id="a_node2"><a xlink:href="quickjs_8c.html#a9e94551ddba8762d74eda5127445dbbd" target="_top" xlink:title=" ">
<polygon fill="none" stroke="black" points="284,-931.5 284,-950.5 392,-950.5 392,-931.5 284,-931.5"/>
<text text-anchor="middle" x="338" y="-938.5" font-family="Helvetica,sans-Serif" font-size="10.00">get_proxy_method</text>
</a>
</g>
</g>
<!-- Node1&#45;&gt;Node2 -->
<g id="edge1" class="edge">
<title>Node1&#45;&gt;Node2</title>
<path fill="none" stroke="midnightblue" d="M62.41,-95.69C66.25,-184.48 97.2,-855.08 158,-917 187.34,-946.88 234.79,-952.12 273.47,-950.29"/>
<polygon fill="midnightblue" stroke="midnightblue" points="273.85,-953.77 283.61,-949.64 273.4,-946.78 273.85,-953.77"/>
</g>
<!-- Node5 -->
<g id="node5" class="node">
<title>Node5</title>
<g id="a_node5"><a xlink:href="quickjs_8h.html#ad80a83d73e9b7d872b88fbf2943aebe9" target="_top" xlink:title=" ">
<polygon fill="none" stroke="black" points="628,-836.5 628,-855.5 715,-855.5 715,-836.5 628,-836.5"/>
<text text-anchor="middle" x="671.5" y="-843.5" font-family="Helvetica,sans-Serif" font-size="10.00">JS_IsException</text>
</a>
</g>
</g>
<!-- Node1&#45;&gt;Node5 -->
<g id="edge42" class="edge">
<title>Node1&#45;&gt;Node5</title>
<path fill="none" stroke="midnightblue" d="M62.76,-95.81C69.33,-173.42 124.05,-690.22 428,-884 496.92,-927.94 598.68,-884.71 645.39,-860.27"/>
<polygon fill="midnightblue" stroke="midnightblue" points="647.08,-863.33 654.23,-855.52 643.77,-857.16 647.08,-863.33"/>
</g>
<!-- Node10 -->
<g id="node10" class="node">
<title>Node10</title>
<g id="a_node10"><a xlink:href="quickjs_8c.html#a75f6ee5e4235a7dc99889f3d2eb2c147" target="_top" xlink:title=" ">
<polygon fill="none" stroke="black" points="167.5,-275.5 167.5,-294.5 238.5,-294.5 238.5,-275.5 167.5,-275.5"/>
<text text-anchor="middle" x="203" y="-282.5" font-family="Helvetica,sans-Serif" font-size="10.00">JS_CallFree</text>
</a>
</g>
</g>
<!-- Node1&#45;&gt;Node10 -->
<g id="edge9" class="edge">
<title>Node1&#45;&gt;Node10</title>
<path fill="none" stroke="midnightblue" d="M68.75,-95.6C90.79,-126.92 160.85,-226.5 189.55,-267.3"/>
<polygon fill="midnightblue" stroke="midnightblue" points="186.7,-269.33 195.32,-275.5 192.42,-265.31 186.7,-269.33"/>
</g>
<!-- Node131 -->
<g id="node28" class="node">
<title>Node131</title>
<g id="a_node28"><a xlink:href="quickjs_8h.html#a4e407128a9605afb77523e49e9a627fd" target="_top" xlink:title=" ">
<polygon fill="none" stroke="black" points="458,-95.5 458,-114.5 547,-114.5 547,-95.5 458,-95.5"/>
<text text-anchor="middle" x="502.5" y="-102.5" font-family="Helvetica,sans-Serif" font-size="10.00">JS_IsUndefined</text>
</a>
</g>
</g>
<!-- Node1&#45;&gt;Node131 -->
<g id="edge45" class="edge">
<title>Node1&#45;&gt;Node131</title>
<path fill="none" stroke="midnightblue" d="M122.19,-88.6C208.31,-92.33 365.37,-99.12 447.77,-102.68"/>
<polygon fill="midnightblue" stroke="midnightblue" points="447.78,-106.18 457.93,-103.12 448.09,-99.19 447.78,-106.18"/>
</g>
<!-- Node290 -->
<g id="node29" class="node">
<title>Node290</title>
<g id="a_node29"><a xlink:href="quickjs_8c.html#a2bf30c9cddfe98a32535843202495069" target="_top" xlink:title=" ">
<polygon fill="none" stroke="black" points="460.5,-19.5 460.5,-38.5 544.5,-38.5 544.5,-19.5 460.5,-19.5"/>
<text text-anchor="middle" x="502.5" y="-26.5" font-family="Helvetica,sans-Serif" font-size="10.00">JS_ToBoolFree</text>
</a>
</g>
</g>
<!-- Node1&#45;&gt;Node290 -->
<g id="edge46" class="edge">
<title>Node1&#45;&gt;Node290</title>
<path fill="none" stroke="midnightblue" d="M122.19,-78.19C209.21,-66.91 368.67,-46.23 450.34,-35.64"/>
<polygon fill="midnightblue" stroke="midnightblue" points="450.91,-39.09 460.38,-34.33 450.01,-32.15 450.91,-39.09"/>
</g>
<!-- Node221 -->
<g id="node30" class="node">
<title>Node221</title>
<g id="a_node30"><a xlink:href="quickjs_8c.html#a17c92ef7fbad6a6029f6aa933d669624" target="_top" xlink:title=" ">
<polygon fill="none" stroke="black" points="158,-0.5 158,-19.5 248,-19.5 248,-0.5 158,-0.5"/>
<text text-anchor="middle" x="203" y="-7.5" font-family="Helvetica,sans-Serif" font-size="10.00">JS_IsExtensible</text>
</a>
</g>
</g>
<!-- Node1&#45;&gt;Node221 -->
<g id="edge43" class="edge">
<title>Node1&#45;&gt;Node221</title>
<path fill="none" stroke="midnightblue" d="M72.99,-76.19C92.56,-62.67 134.28,-39.29 165,-24.05"/>
<polygon fill="midnightblue" stroke="midnightblue" points="166.69,-27.12 174.15,-19.6 163.62,-20.83 166.69,-27.12"/>
</g>
<!-- Node3 -->
<g id="node3" class="node">
<title>Node3</title>
<g id="a_node3"><a xlink:href="quickjs_8c.html#af23ec7c9970ceb4671c59da7abd4b078" target="_top" xlink:title=" ">
<polygon fill="none" stroke="black" points="434,-931.5 434,-950.5 571,-950.5 571,-931.5 434,-931.5"/>
<text text-anchor="middle" x="502.5" y="-938.5" font-family="Helvetica,sans-Serif" font-size="10.00">js_check_stack_overflow</text>
</a>
</g>
</g>
<!-- Node2&#45;&gt;Node3 -->
<g id="edge2" class="edge">
<title>Node2&#45;&gt;Node3</title>
<path fill="none" stroke="midnightblue" d="M392.21,-941C402.31,-941 413.07,-941 423.75,-941"/>
<polygon fill="midnightblue" stroke="midnightblue" points="423.94,-944.5 433.94,-941 423.94,-937.5 423.94,-944.5"/>
</g>
<!-- Node2&#45;&gt;Node5 -->
<g id="edge4" class="edge">
<title>Node2&#45;&gt;Node5</title>
<path fill="none" stroke="midnightblue" d="M347.37,-950.76C361.86,-966.8 393.41,-998.16 428,-1010 490.65,-1031.44 522.02,-1046.91 577,-1010 612.08,-986.45 592.08,-958.71 613,-922 625.19,-900.61 642.64,-878.41 655.11,-863.57"/>
<polygon fill="midnightblue" stroke="midnightblue" points="657.96,-865.62 661.8,-855.74 652.64,-861.07 657.96,-865.62"/>
</g>
<!-- Node6 -->
<g id="node6" class="node">
<title>Node6</title>
<g id="a_node6"><a xlink:href="quickjs_8h.html#a149f24b67e745bad93573b3b4c80db4c" target="_top" xlink:title=" ">
<polygon fill="none" stroke="black" points="473,-817.5 473,-836.5 532,-836.5 532,-817.5 473,-817.5"/>
<text text-anchor="middle" x="502.5" y="-824.5" font-family="Helvetica,sans-Serif" font-size="10.00">JS_IsNull</text>
</a>
</g>
</g>
<!-- Node2&#45;&gt;Node6 -->
<g id="edge5" class="edge">
<title>Node2&#45;&gt;Node6</title>
<path fill="none" stroke="midnightblue" d="M345.3,-931.22C358.3,-911.84 390.1,-868.49 428,-846 438.52,-839.76 451.07,-835.55 462.8,-832.71"/>
<polygon fill="midnightblue" stroke="midnightblue" points="463.78,-836.08 472.83,-830.56 462.31,-829.24 463.78,-836.08"/>
</g>
<!-- Node7 -->
<g id="node7" class="node">
<title>Node7</title>
<g id="a_node7"><a xlink:href="quickjs_8c.html#a8353f635fb8a20553c08db8cf38c17e0" target="_top" xlink:title=" ">
<polygon fill="none" stroke="black" points="437,-855.5 437,-874.5 568,-874.5 568,-855.5 437,-855.5"/>
<text text-anchor="middle" x="502.5" y="-862.5" font-family="Helvetica,sans-Serif" font-size="10.00">JS_ThrowStackOverflow</text>
</a>
</g>
</g>
<!-- Node2&#45;&gt;Node7 -->
<g id="edge6" class="edge">
<title>Node2&#45;&gt;Node7</title>
<path fill="none" stroke="midnightblue" d="M359.58,-931.37C387.91,-918.13 439.09,-894.19 471.63,-878.97"/>
<polygon fill="midnightblue" stroke="midnightblue" points="473.51,-881.95 481.09,-874.55 470.55,-875.61 473.51,-881.95"/>
</g>
<!-- Node9 -->
<g id="node9" class="node">
<title>Node9</title>
<g id="a_node9"><a xlink:href="quickjs_8c.html#a199d64ccbee0a90d93e1ad12745417f6" target="_top" xlink:title=" ">
<polygon fill="none" stroke="black" points="428,-970 428,-1000 577,-1000 577,-970 428,-970"/>
<text text-anchor="start" x="436" y="-988" font-family="Helvetica,sans-Serif" font-size="10.00">JS_ThrowTypeErrorRevoked</text>
<text text-anchor="middle" x="502.5" y="-977" font-family="Helvetica,sans-Serif" font-size="10.00">Proxy</text>
</a>
</g>
</g>
<!-- Node2&#45;&gt;Node9 -->
<g id="edge8" class="edge">
<title>Node2&#45;&gt;Node9</title>
<path fill="none" stroke="midnightblue" d="M374.26,-950.55C392.31,-955.43 414.88,-961.55 435.97,-967.26"/>
<polygon fill="midnightblue" stroke="midnightblue" points="435.29,-970.7 445.86,-969.93 437.12,-963.94 435.29,-970.7"/>
</g>
<!-- Node4 -->
<g id="node4" class="node">
<title>Node4</title>
<g id="a_node4"><a xlink:href="quickjs_8c.html#a36b8de436f88239e2e5515a3a423c6d9" target="_top" xlink:title=" ">
<polygon fill="none" stroke="black" points="613,-931.5 613,-950.5 730,-950.5 730,-931.5 613,-931.5"/>
<text text-anchor="middle" x="671.5" y="-938.5" font-family="Helvetica,sans-Serif" font-size="10.00">js_get_stack_pointer</text>
</a>
</g>
</g>
<!-- Node3&#45;&gt;Node4 -->
<g id="edge3" class="edge">
<title>Node3&#45;&gt;Node4</title>
<path fill="none" stroke="midnightblue" d="M571.43,-941C581.72,-941 592.34,-941 602.63,-941"/>
<polygon fill="midnightblue" stroke="midnightblue" points="602.79,-944.5 612.79,-941 602.79,-937.5 602.79,-944.5"/>
</g>
<!-- Node8 -->
<g id="node8" class="node">
<title>Node8</title>
<g id="a_node8"><a xlink:href="quickjs_8c.html#a853f0924d441ea4225488f37c8b69f9a" target="_top" xlink:title=" ">
<polygon fill="none" stroke="black" points="631.5,-741.5 631.5,-760.5 711.5,-760.5 711.5,-741.5 631.5,-741.5"/>
<text text-anchor="middle" x="671.5" y="-748.5" font-family="Helvetica,sans-Serif" font-size="10.00">__attribute__</text>
</a>
</g>
</g>
<!-- Node7&#45;&gt;Node8 -->
<g id="edge7" class="edge">
<title>Node7&#45;&gt;Node8</title>
<path fill="none" stroke="midnightblue" d="M555.12,-855.46C562.73,-852.99 570.26,-849.89 577,-846 611.2,-826.27 641.35,-790.64 657.65,-769.07"/>
<polygon fill="midnightblue" stroke="midnightblue" points="660.65,-770.9 663.76,-760.77 655.01,-766.75 660.65,-770.9"/>
</g>
<!-- Node11 -->
<g id="node11" class="node">
<title>Node11</title>
<g id="a_node11"><a xlink:href="quickjs_8c.html#ac2894ff4edcdb4e6841bcce9c76081e3" target="_top" xlink:title=" ">
<polygon fill="none" stroke="red" points="294.5,-437.5 294.5,-456.5 381.5,-456.5 381.5,-437.5 294.5,-437.5"/>
<text text-anchor="middle" x="338" y="-444.5" font-family="Helvetica,sans-Serif" font-size="10.00">JS_CallInternal</text>
</a>
</g>
</g>
<!-- Node10&#45;&gt;Node11 -->
<g id="edge10" class="edge">
<title>Node10&#45;&gt;Node11</title>
<path fill="none" stroke="midnightblue" d="M215.34,-294.83C240.48,-321.76 300.66,-395.06 325.73,-429.31"/>
<polygon fill="midnightblue" stroke="midnightblue" points="322.91,-431.38 331.56,-437.49 328.61,-427.32 322.91,-431.38"/>
</g>
<!-- Node64 -->
<g id="node17" class="node">
<title>Node64</title>
<g id="a_node17"><a xlink:href="quickjs_8h.html#afaa20c47565bc704c6c85f3d77254e7d" target="_top" xlink:title=" ">
<polygon fill="none" stroke="red" points="766,-285.5 766,-304.5 845,-304.5 845,-285.5 766,-285.5"/>
<text text-anchor="middle" x="805.5" y="-292.5" font-family="Helvetica,sans-Serif" font-size="10.00">JS_FreeValue</text>
</a>
</g>
</g>
<!-- Node10&#45;&gt;Node64 -->
<g id="edge41" class="edge">
<title>Node10&#45;&gt;Node64</title>
<path fill="none" stroke="midnightblue" d="M210.67,-275.34C234.9,-241.2 322.48,-126.1 428,-86 489.9,-62.47 515.3,-61.96 577,-86 678.5,-125.54 762.14,-233.89 792.37,-276.98"/>
<polygon fill="midnightblue" stroke="midnightblue" points="789.59,-279.11 798.15,-285.36 795.35,-275.14 789.59,-279.11"/>
</g>
<!-- Node11&#45;&gt;Node3 -->
<g id="edge33" class="edge">
<title>Node11&#45;&gt;Node3</title>
<path fill="none" stroke="midnightblue" d="M338.6,-456.81C337,-506.58 335.23,-734.72 428,-884 439.11,-901.89 457.98,-916.34 473.81,-926.22"/>
<polygon fill="midnightblue" stroke="midnightblue" points="472.32,-929.4 482.7,-931.5 475.89,-923.38 472.32,-929.4"/>
</g>
<!-- Node11&#45;&gt;Node5 -->
<g id="edge35" class="edge">
<title>Node11&#45;&gt;Node5</title>
<path fill="none" stroke="midnightblue" d="M338.62,-456.59C337.51,-499.06 338.77,-672.08 428,-763 476.45,-812.37 511.78,-784.95 577,-808 597.91,-815.39 621,-824.76 639,-832.35"/>
<polygon fill="midnightblue" stroke="midnightblue" points="637.86,-835.66 648.43,-836.35 640.6,-829.22 637.86,-835.66"/>
</g>
<!-- Node11&#45;&gt;Node6 -->
<g id="edge36" class="edge">
<title>Node11&#45;&gt;Node6</title>
<path fill="none" stroke="midnightblue" d="M340.14,-456.6C346.43,-507.94 378.38,-749.75 428,-803 437.1,-812.76 450.21,-818.56 462.86,-822.01"/>
<polygon fill="midnightblue" stroke="midnightblue" points="462.28,-825.46 472.81,-824.29 463.85,-818.64 462.28,-825.46"/>
</g>
<!-- Node11&#45;&gt;Node7 -->
<g id="edge38" class="edge">
<title>Node11&#45;&gt;Node7</title>
<path fill="none" stroke="midnightblue" d="M339.81,-456.7C344.64,-512.01 371.26,-787.33 428,-846 429.26,-847.3 430.6,-848.52 432,-849.66"/>
<polygon fill="midnightblue" stroke="midnightblue" points="430.37,-852.78 440.65,-855.34 434.21,-846.93 430.37,-852.78"/>
</g>
<!-- Node11&#45;&gt;Node8 -->
<g id="edge11" class="edge">
<title>Node11&#45;&gt;Node8</title>
<path fill="none" stroke="midnightblue" d="M338.54,-456.67C337.17,-497.89 337.82,-660.09 428,-732 482.59,-775.53 567.83,-770.76 621.34,-761.92"/>
<polygon fill="midnightblue" stroke="midnightblue" points="622.04,-765.35 631.28,-760.17 620.83,-758.45 622.04,-765.35"/>
</g>
<!-- Node11&#45;&gt;Node10 -->
<g id="edge31" class="edge">
<title>Node11&#45;&gt;Node10</title>
<path fill="none" stroke="midnightblue" d="M325.89,-437.41C301.01,-410.82 241.01,-337.76 215.64,-303.2"/>
<polygon fill="midnightblue" stroke="midnightblue" points="218.38,-301.01 209.71,-294.91 212.68,-305.08 218.38,-301.01"/>
</g>
<!-- Node11&#45;&gt;Node11 -->
<g id="edge32" class="edge">
<title>Node11&#45;&gt;Node11</title>
<path fill="none" stroke="midnightblue" d="M317.35,-456.76C307.3,-465.57 314.18,-475 338,-475 353.26,-475 361.57,-471.13 362.93,-466.03"/>
<polygon fill="midnightblue" stroke="midnightblue" points="366.02,-464.37 358.65,-456.76 359.66,-467.3 366.02,-464.37"/>
</g>
<!-- Node12 -->
<g id="node12" class="node">
<title>Node12</title>
<g id="a_node12"><a xlink:href="quickjs_8c.html#a877fcb7651d95b411ce70e62b7f4a1f0" target="_top" xlink:title=" ">
<polygon fill="none" stroke="black" points="440,-703.5 440,-722.5 565,-722.5 565,-703.5 440,-703.5"/>
<text text-anchor="middle" x="502.5" y="-710.5" font-family="Helvetica,sans-Serif" font-size="10.00">__JS_AtomFromUInt32</text>
</a>
</g>
</g>
<!-- Node11&#45;&gt;Node12 -->
<g id="edge12" class="edge">
<title>Node11&#45;&gt;Node12</title>
<path fill="none" stroke="midnightblue" d="M339.4,-456.52C341.48,-493.2 354.05,-626.61 428,-694 429.7,-695.55 431.51,-696.98 433.41,-698.29"/>
<polygon fill="midnightblue" stroke="midnightblue" points="431.81,-701.41 442.22,-703.36 435.3,-695.34 431.81,-701.41"/>
</g>
<!-- Node13 -->
<g id="node13" class="node">
<title>Node13</title>
<g id="a_node13"><a xlink:href="quickjs_8h.html#a9bf98b18de88b4199910a43e933eb97d" target="_top" xlink:title=" ">
<polygon fill="none" stroke="black" points="452.5,-665.5 452.5,-684.5 552.5,-684.5 552.5,-665.5 452.5,-665.5"/>
<text text-anchor="middle" x="502.5" y="-672.5" font-family="Helvetica,sans-Serif" font-size="10.00">__JS_NewFloat64</text>
</a>
</g>
</g>
<!-- Node11&#45;&gt;Node13 -->
<g id="edge13" class="edge">
<title>Node11&#45;&gt;Node13</title>
<path fill="none" stroke="midnightblue" d="M340.11,-456.64C344.46,-489.85 363.43,-600.44 428,-656 432.31,-659.71 437.25,-662.7 442.49,-665.13"/>
<polygon fill="midnightblue" stroke="midnightblue" points="441.59,-668.53 452.17,-668.89 444.12,-662.01 441.59,-668.53"/>
</g>
<!-- Node14 -->
<g id="node14" class="node">
<title>Node14</title>
<g id="a_node14"><a xlink:href="quickjs_8c.html#a74547db03bf739a52c83a326b32db997" target="_top" xlink:title=" ">
<polygon fill="none" stroke="red" points="462,-627.5 462,-646.5 543,-646.5 543,-627.5 462,-627.5"/>
<text text-anchor="middle" x="502.5" y="-634.5" font-family="Helvetica,sans-Serif" font-size="10.00">add_property</text>
</a>
</g>
</g>
<!-- Node11&#45;&gt;Node14 -->
<g id="edge14" class="edge">
<title>Node11&#45;&gt;Node14</title>
<path fill="none" stroke="midnightblue" d="M341.06,-456.5C347.88,-485.55 372.47,-573.83 428,-618 434.97,-623.54 443.38,-627.48 451.99,-630.28"/>
<polygon fill="midnightblue" stroke="midnightblue" points="451.15,-633.68 461.72,-632.98 453.02,-626.94 451.15,-633.68"/>
</g>
<!-- Node72 -->
<g id="node15" class="node">
<title>Node72</title>
<g id="a_node15"><a xlink:href="quickjs_8c.html#a4956f45ffd2849b96dc051277264f87a" target="_top" xlink:title=" ">
<polygon fill="none" stroke="red" points="461.5,-589.5 461.5,-608.5 543.5,-608.5 543.5,-589.5 461.5,-589.5"/>
<text text-anchor="middle" x="502.5" y="-596.5" font-family="Helvetica,sans-Serif" font-size="10.00">build_arg_list</text>
</a>
</g>
</g>
<!-- Node11&#45;&gt;Node72 -->
<g id="edge15" class="edge">
<title>Node11&#45;&gt;Node72</title>
<path fill="none" stroke="midnightblue" d="M343.04,-456.62C353.48,-480.33 383.69,-542.05 428,-575 435.12,-580.3 443.47,-584.46 451.93,-587.72"/>
<polygon fill="midnightblue" stroke="midnightblue" points="450.88,-591.06 461.48,-591.03 453.17,-584.44 450.88,-591.06"/>
</g>
<!-- Node73 -->
<g id="node16" class="node">
<title>Node73</title>
<g id="a_node16"><a xlink:href="quickjs_8c.html#ac864482356b3efc2d0b0a509fcfa4c7c" target="_top" xlink:title=" ">
<polygon fill="none" stroke="red" points="633,-551.5 633,-570.5 710,-570.5 710,-551.5 633,-551.5"/>
<text text-anchor="middle" x="671.5" y="-558.5" font-family="Helvetica,sans-Serif" font-size="10.00">free_arg_list</text>
</a>
</g>
</g>
<!-- Node11&#45;&gt;Node73 -->
<g id="edge23" class="edge">
<title>Node11&#45;&gt;Node73</title>
<path fill="none" stroke="midnightblue" d="M345.16,-456.75C357.93,-475.99 389.32,-518.56 428,-537 490.35,-566.72 571.79,-568.29 622.62,-565.53"/>
<polygon fill="midnightblue" stroke="midnightblue" points="622.91,-569.02 632.68,-564.91 622.48,-562.04 622.91,-569.02"/>
</g>
<!-- Node11&#45;&gt;Node64 -->
<g id="edge34" class="edge">
<title>Node11&#45;&gt;Node64</title>
<path fill="none" stroke="midnightblue" d="M349.49,-456.63C365.18,-470.31 396.3,-494.72 428,-504 491.55,-522.61 515.3,-528.04 577,-504 678.5,-464.46 762.14,-356.11 792.37,-313.02"/>
<polygon fill="midnightblue" stroke="midnightblue" points="795.35,-314.86 798.15,-304.64 789.59,-310.89 795.35,-314.86"/>
</g>
<!-- Node165 -->
<g id="node18" class="node">
<title>Node165</title>
<g id="a_node18"><a xlink:href="quickjs_8c.html#a61c8dfb5e807af1b6ff7d8ca61576dda" target="_top" xlink:title=" ">
<polygon fill="none" stroke="red" points="455.5,-475.5 455.5,-494.5 549.5,-494.5 549.5,-475.5 455.5,-475.5"/>
<text text-anchor="middle" x="502.5" y="-482.5" font-family="Helvetica,sans-Serif" font-size="10.00">build_backtrace</text>
</a>
</g>
</g>
<!-- Node11&#45;&gt;Node165 -->
<g id="edge20" class="edge">
<title>Node11&#45;&gt;Node165</title>
<path fill="none" stroke="midnightblue" d="M380.01,-456.59C401.55,-461.63 428.13,-467.84 450.94,-473.18"/>
<polygon fill="midnightblue" stroke="midnightblue" points="450.25,-476.61 460.79,-475.48 451.85,-469.79 450.25,-476.61"/>
</g>
<!-- Node245 -->
<g id="node19" class="node">
<title>Node245</title>
<g id="a_node19"><a xlink:href="quickjs_8c.html#a344894112559c2ba75043fd10bcfa02f" target="_top" xlink:title=" ">
<polygon fill="none" stroke="red" points="452,-437.5 452,-456.5 553,-456.5 553,-437.5 452,-437.5"/>
<text text-anchor="middle" x="502.5" y="-444.5" font-family="Helvetica,sans-Serif" font-size="10.00">close_lexical_var</text>
</a>
</g>
</g>
<!-- Node11&#45;&gt;Node245 -->
<g id="edge21" class="edge">
<title>Node11&#45;&gt;Node245</title>
<path fill="none" stroke="midnightblue" d="M381.69,-447C400.03,-447 421.78,-447 441.68,-447"/>
<polygon fill="midnightblue" stroke="midnightblue" points="441.89,-450.5 451.89,-447 441.89,-443.5 441.89,-450.5"/>
</g>
<!-- Node246 -->
<g id="node20" class="node">
<title>Node246</title>
<g id="a_node20"><a xlink:href="quickjs_8c.html#a1782043fce951bd4f0d91c7796b31e24" target="_top" xlink:title=" ">
<polygon fill="none" stroke="red" points="459,-399.5 459,-418.5 546,-418.5 546,-399.5 459,-399.5"/>
<text text-anchor="middle" x="502.5" y="-406.5" font-family="Helvetica,sans-Serif" font-size="10.00">close_var_refs</text>
</a>
</g>
</g>
<!-- Node11&#45;&gt;Node246 -->
<g id="edge22" class="edge">
<title>Node11&#45;&gt;Node246</title>
<path fill="none" stroke="midnightblue" d="M380.01,-437.41C401.55,-432.37 428.13,-426.16 450.94,-420.82"/>
<polygon fill="midnightblue" stroke="midnightblue" points="451.85,-424.21 460.79,-418.52 450.25,-417.39 451.85,-424.21"/>
</g>
<!-- Node61 -->
<g id="node21" class="node">
<title>Node61</title>
<g id="a_node21"><a xlink:href="quickjs_8c.html#a9e7b4bccf927d811b0f99b40b08c0472" target="_top" xlink:title=" ">
<polygon fill="none" stroke="red" points="464.5,-361.5 464.5,-380.5 540.5,-380.5 540.5,-361.5 464.5,-361.5"/>
<text text-anchor="middle" x="502.5" y="-368.5" font-family="Helvetica,sans-Serif" font-size="10.00">free_var_ref</text>
</a>
</g>
</g>
<!-- Node11&#45;&gt;Node61 -->
<g id="edge24" class="edge">
<title>Node11&#45;&gt;Node61</title>
<path fill="none" stroke="midnightblue" d="M351.25,-437.35C367.79,-424.76 398.57,-402.84 428,-390 436.43,-386.32 445.72,-383.24 454.78,-380.7"/>
<polygon fill="midnightblue" stroke="midnightblue" points="455.69,-384.08 464.47,-378.15 453.91,-377.31 455.69,-384.08"/>
</g>
<!-- Node248 -->
<g id="node22" class="node">
<title>Node248</title>
<g id="a_node22"><a xlink:href="cutils_8h.html#a7c82a3ee025fee89db5b11ff5b7691b8" target="_top" xlink:title=" ">
<polygon fill="none" stroke="black" points="476,-323.5 476,-342.5 529,-342.5 529,-323.5 476,-323.5"/>
<text text-anchor="middle" x="502.5" y="-330.5" font-family="Helvetica,sans-Serif" font-size="10.00">get_i16</text>
</a>
</g>
</g>
<!-- Node11&#45;&gt;Node248 -->
<g id="edge25" class="edge">
<title>Node11&#45;&gt;Node248</title>
<path fill="none" stroke="midnightblue" d="M345.3,-437.22C358.3,-417.84 390.1,-374.49 428,-352 439.42,-345.22 453.24,-340.84 465.8,-338.01"/>
<polygon fill="midnightblue" stroke="midnightblue" points="466.85,-341.37 475.98,-335.98 465.49,-334.5 466.85,-341.37"/>
</g>
<!-- Node249 -->
<g id="node23" class="node">
<title>Node249</title>
<g id="a_node23"><a xlink:href="cutils_8h.html#a288ee4e688944e23500af2ecc813c306" target="_top" xlink:title=" ">
<polygon fill="none" stroke="black" points="479,-285.5 479,-304.5 526,-304.5 526,-285.5 479,-285.5"/>
<text text-anchor="middle" x="502.5" y="-292.5" font-family="Helvetica,sans-Serif" font-size="10.00">get_i8</text>
</a>
</g>
</g>
<!-- Node11&#45;&gt;Node249 -->
<g id="edge26" class="edge">
<title>Node11&#45;&gt;Node249</title>
<path fill="none" stroke="midnightblue" d="M342.66,-437.19C352.42,-412.42 381.55,-346.95 428,-314 439.91,-305.55 455.27,-300.86 468.87,-298.25"/>
<polygon fill="midnightblue" stroke="midnightblue" points="469.53,-301.69 478.84,-296.64 468.41,-294.78 469.53,-301.69"/>
</g>
<!-- Node250 -->
<g id="node24" class="node">
<title>Node250</title>
<g id="a_node24"><a xlink:href="cutils_8h.html#ad587834d17e95461893d59661e5e9676" target="_top" xlink:title=" ">
<polygon fill="none" stroke="black" points="474.5,-247.5 474.5,-266.5 530.5,-266.5 530.5,-247.5 474.5,-247.5"/>
<text text-anchor="middle" x="502.5" y="-254.5" font-family="Helvetica,sans-Serif" font-size="10.00">get_u16</text>
</a>
</g>
</g>
<!-- Node11&#45;&gt;Node250 -->
<g id="edge27" class="edge">
<title>Node11&#45;&gt;Node250</title>
<path fill="none" stroke="midnightblue" d="M341.06,-437.5C347.88,-408.45 372.47,-320.17 428,-276 438.23,-267.86 451.58,-263.18 464.08,-260.49"/>
<polygon fill="midnightblue" stroke="midnightblue" points="465.07,-263.87 474.3,-258.67 463.84,-256.98 465.07,-263.87"/>
</g>
<!-- Node57 -->
<g id="node25" class="node">
<title>Node57</title>
<g id="a_node25"><a xlink:href="cutils_8h.html#a941262a5f72fda2ec43ae7911e97a0dc" target="_top" xlink:title=" ">
<polygon fill="none" stroke="black" points="474.5,-209.5 474.5,-228.5 530.5,-228.5 530.5,-209.5 474.5,-209.5"/>
<text text-anchor="middle" x="502.5" y="-216.5" font-family="Helvetica,sans-Serif" font-size="10.00">get_u32</text>
</a>
</g>
</g>
<!-- Node11&#45;&gt;Node57 -->
<g id="edge28" class="edge">
<title>Node11&#45;&gt;Node57</title>
<path fill="none" stroke="midnightblue" d="M340.11,-437.36C344.46,-404.15 363.43,-293.56 428,-238 438.09,-229.32 451.66,-224.53 464.39,-221.91"/>
<polygon fill="midnightblue" stroke="midnightblue" points="465.06,-225.35 474.34,-220.25 463.9,-218.45 465.06,-225.35"/>
</g>
<!-- Node251 -->
<g id="node26" class="node">
<title>Node251</title>
<g id="a_node26"><a xlink:href="quickjs_8c.html#a37fe43b6649456a848bd54846450b995" target="_top" xlink:title=" ">
<polygon fill="none" stroke="red" points="466.5,-171.5 466.5,-190.5 538.5,-190.5 538.5,-171.5 466.5,-171.5"/>
<text text-anchor="middle" x="502.5" y="-178.5" font-family="Helvetica,sans-Serif" font-size="10.00">get_var_ref</text>
</a>
</g>
</g>
<!-- Node11&#45;&gt;Node251 -->
<g id="edge29" class="edge">
<title>Node11&#45;&gt;Node251</title>
<path fill="none" stroke="midnightblue" d="M339.4,-437.48C341.48,-400.8 354.05,-267.39 428,-200 435.9,-192.8 446.17,-188.26 456.51,-185.41"/>
<polygon fill="midnightblue" stroke="midnightblue" points="457.41,-188.79 466.38,-183.16 455.85,-181.97 457.41,-188.79"/>
</g>
<!-- Node201 -->
<g id="node27" class="node">
<title>Node201</title>
<g id="a_node27"><a xlink:href="list_8h.html#a663527a4d757540b2177bef0db1ce5c0" target="_top" xlink:title=" ">
<polygon fill="none" stroke="black" points="461.5,-133.5 461.5,-152.5 543.5,-152.5 543.5,-133.5 461.5,-133.5"/>
<text text-anchor="middle" x="502.5" y="-140.5" font-family="Helvetica,sans-Serif" font-size="10.00">init_list_head</text>
</a>
</g>
</g>
<!-- Node11&#45;&gt;Node201 -->
<g id="edge30" class="edge">
<title>Node11&#45;&gt;Node201</title>
<path fill="none" stroke="midnightblue" d="M338.88,-437.45C338.93,-397.39 344.63,-241.32 428,-162 434.52,-155.8 442.79,-151.55 451.42,-148.66"/>
<polygon fill="midnightblue" stroke="midnightblue" points="452.53,-151.98 461.23,-145.94 450.66,-145.24 452.53,-151.98"/>
</g>
<!-- Node11&#45;&gt;Node131 -->
<g id="edge37" class="edge">
<title>Node11&#45;&gt;Node131</title>
<path fill="none" stroke="midnightblue" d="M340.36,-437.29C347.36,-388.46 380.95,-170.31 428,-124 433.68,-118.41 440.78,-114.4 448.31,-111.54"/>
<polygon fill="midnightblue" stroke="midnightblue" points="449.51,-114.83 458,-108.49 447.41,-108.15 449.51,-114.83"/>
</g>
<!-- Node11&#45;&gt;Node290 -->
<g id="edge39" class="edge">
<title>Node11&#45;&gt;Node290</title>
<path fill="none" stroke="midnightblue" d="M339.12,-437.47C340.12,-393.53 349.01,-207.5 428,-86 439.48,-68.34 458.33,-53.89 474.07,-43.95"/>
<polygon fill="midnightblue" stroke="midnightblue" points="476.14,-46.79 482.9,-38.63 472.53,-40.79 476.14,-46.79"/>
</g>
<!-- Node72&#45;&gt;Node5 -->
<g id="edge19" class="edge">
<title>Node72&#45;&gt;Node5</title>
<path fill="none" stroke="midnightblue" d="M543.75,-601.48C555.86,-604.13 568.24,-609.06 577,-618 625.59,-667.59 583.42,-707.19 613,-770 623.37,-792.02 640.81,-813.83 653.77,-828.4"/>
<polygon fill="midnightblue" stroke="midnightblue" points="651.47,-831.07 660.8,-836.09 656.64,-826.35 651.47,-831.07"/>
</g>
<!-- Node72&#45;&gt;Node8 -->
<g id="edge16" class="edge">
<title>Node72&#45;&gt;Node8</title>
<path fill="none" stroke="midnightblue" d="M543.83,-604.09C555.27,-606.9 567.25,-611.25 577,-618 619.37,-647.33 648.86,-702.48 662.29,-731.69"/>
<polygon fill="midnightblue" stroke="midnightblue" points="659.25,-733.47 666.51,-741.19 665.65,-730.63 659.25,-733.47"/>
</g>
<!-- Node72&#45;&gt;Node73 -->
<g id="edge17" class="edge">
<title>Node72&#45;&gt;Node73</title>
<path fill="none" stroke="midnightblue" d="M543.5,-589.9C567.33,-584.48 597.72,-577.56 622.8,-571.85"/>
<polygon fill="midnightblue" stroke="midnightblue" points="623.86,-575.2 632.83,-569.57 622.3,-568.38 623.86,-575.2"/>
</g>
<!-- Node73&#45;&gt;Node64 -->
<g id="edge18" class="edge">
<title>Node73&#45;&gt;Node64</title>
<path fill="none" stroke="midnightblue" d="M709.01,-551.39C716.78,-547.92 724.33,-543.25 730,-537 789.25,-471.72 801.39,-360.21 803.87,-314.96"/>
<polygon fill="midnightblue" stroke="midnightblue" points="807.38,-314.87 804.32,-304.72 800.38,-314.56 807.38,-314.87"/>
</g>
<!-- Node290&#45;&gt;Node64 -->
<g id="edge40" class="edge">
<title>Node290&#45;&gt;Node64</title>
<path fill="none" stroke="midnightblue" d="M544.57,-20.96C594.28,-13.75 677.8,-10.02 730,-53 798.81,-109.66 805.36,-228.4 805.1,-275.32"/>
<polygon fill="midnightblue" stroke="midnightblue" points="801.6,-275.33 804.93,-285.38 808.6,-275.45 801.6,-275.33"/>
</g>
<!-- Node221&#45;&gt;Node1 -->
<g id="edge44" class="edge">
<title>Node221&#45;&gt;Node1</title>
<path fill="none" stroke="midnightblue" d="M191.2,-19.68C171.67,-33.21 129.67,-56.75 98.83,-72.03"/>
<polygon fill="midnightblue" stroke="midnightblue" points="97.12,-68.97 89.66,-76.49 100.18,-75.27 97.12,-68.97"/>
</g>
</g>
</svg>
        <g id="navigator" transform="translate(0 0)" fill="#404254">
                <rect fill="#f2f5e9" fill-opacity="0.5" stroke="#606060" stroke-width=".5" x="0" y="0" width="60" height="60"/>
                <use id="zoomplus" xlink:href="#zoomPlus" x="17" y="9" onmousedown="handleZoom(evt,'in')"/>
                <use id="zoomminus" xlink:href="#zoomMin" x="42" y="9" onmousedown="handleZoom(evt,'out')"/>
                <use id="reset" xlink:href="#resetDef" x="30" y="36" onmousedown="handleReset()"/>
                <g id="arrowUp" xlink:href="#dirArrow" transform="translate(30 24)" onmousedown="handlePan(0,-1)">
                  <use xlink:href="#rim" fill="#404040">
                        <set attributeName="fill" to="#808080" begin="arrowUp.mouseover" end="arrowUp.mouseout"/>
                  </use>
                  <path fill="none" stroke="white" stroke-width="1.5" d="M0,-3.0v7 M-2.5,-0.5L0,-3.0L2.5,-0.5"/>
                </g>
                <g id="arrowRight" xlink:href="#dirArrow" transform="rotate(90) translate(36 -43)" onmousedown="handlePan(1,0)">
                  <use xlink:href="#rim" fill="#404040">
                        <set attributeName="fill" to="#808080" begin="arrowRight.mouseover" end="arrowRight.mouseout"/>
                  </use>
                  <path fill="none" stroke="white" stroke-width="1.5" d="M0,-3.0v7 M-2.5,-0.5L0,-3.0L2.5,-0.5"/>
                </g>
                <g id="arrowDown" xlink:href="#dirArrow" transform="rotate(180) translate(-30 -48)" onmousedown="handlePan(0,1)">
                  <use xlink:href="#rim" fill="#404040">
                        <set attributeName="fill" to="#808080" begin="arrowDown.mouseover" end="arrowDown.mouseout"/>
                  </use>
                  <path fill="none" stroke="white" stroke-width="1.5" d="M0,-3.0v7 M-2.5,-0.5L0,-3.0L2.5,-0.5"/>
                </g>
                <g id="arrowLeft" xlink:href="#dirArrow" transform="rotate(270) translate(-36 17)" onmousedown="handlePan(-1,0)">
                  <use xlink:href="#rim" fill="#404040">
                        <set attributeName="fill" to="#808080" begin="arrowLeft.mouseover" end="arrowLeft.mouseout"/>
                  </use>
                  <path fill="none" stroke="white" stroke-width="1.5" d="M0,-3.0v7 M-2.5,-0.5L0,-3.0L2.5,-0.5"/>
                </g>
        </g>
        <svg viewBox="0 0 15 15" width="100%" height="30px" preserveAspectRatio="xMaxYMin meet">
         <g id="arrow_out" transform="scale(0.3 0.3)">
          <a xlink:href="quickjs_8c_a89d3c8659c2a6a62d3528b6b6794b24f_cgraph_org.svg" target="_base">
           <rect id="button" ry="5" rx="5" y="6" x="6" height="38" width="38"
                fill="#f2f5e9" fill-opacity="0.5" stroke="#606060" stroke-width="1.0"/>
           <path id="arrow"
             d="M 11.500037,31.436501 C 11.940474,20.09759 22.043105,11.32322 32.158766,21.979434 L 37.068811,17.246167 C 37.068811,17.246167 37.088388,32 37.088388,32 L 22.160133,31.978069 C 22.160133,31.978069 26.997745,27.140456 26.997745,27.140456 C 18.528582,18.264221 13.291696,25.230495 11.500037,31.436501 z"
             style="fill:#404040;"/>
          </a>
         </g>
        </svg>
</svg>
