<?xml version="1.0" encoding="UTF-8" standalone="no"?>
<!DOCTYPE svg PUBLIC "-//W3C//DTD SVG 1.1//EN"
 "http://www.w3.org/Graphics/SVG/1.1/DTD/svg11.dtd">
<!-- Generated by graphviz version 2.43.0 (0)
 -->
<!-- Title: js_proxy_set Pages: 1 -->
<svg width="1062pt" height="1130pt"
 viewBox="0.00 0.00 1062.00 1129.75" xmlns="http://www.w3.org/2000/svg" xmlns:xlink="http://www.w3.org/1999/xlink">
<g id="graph0" class="graph" transform="scale(1 1) rotate(0) translate(4 1125.75)">
<title>js_proxy_set</title>
<!-- Node1 -->
<g id="node1" class="node">
<title>Node1</title>
<g id="a_node1"><a xlink:title=" ">
<polygon fill="#bfbfbf" stroke="black" points="0,-491.79 0,-510.79 78,-510.79 78,-491.79 0,-491.79"/>
<text text-anchor="middle" x="39" y="-498.79" font-family="Helvetica,sans-Serif" font-size="10.00">js_proxy_set</text>
</a>
</g>
</g>
<!-- Node2 -->
<g id="node2" class="node">
<title>Node2</title>
<g id="a_node2"><a xlink:href="quickjs_8c.html#a9e94551ddba8762d74eda5127445dbbd" target="_top" xlink:title=" ">
<polygon fill="none" stroke="black" points="227,-966.79 227,-985.79 335,-985.79 335,-966.79 227,-966.79"/>
<text text-anchor="middle" x="281" y="-973.79" font-family="Helvetica,sans-Serif" font-size="10.00">get_proxy_method</text>
</a>
</g>
</g>
<!-- Node1&#45;&gt;Node2 -->
<g id="edge1" class="edge">
<title>Node1&#45;&gt;Node2</title>
<path fill="none" stroke="midnightblue" d="M40.28,-511C42.13,-568.91 54.51,-868.6 114,-933.29 139.86,-961.42 181.51,-972.15 216.62,-975.86"/>
<polygon fill="midnightblue" stroke="midnightblue" points="216.53,-979.37 226.8,-976.77 217.15,-972.4 216.53,-979.37"/>
</g>
<!-- Node5 -->
<g id="node5" class="node">
<title>Node5</title>
<g id="a_node5"><a xlink:href="quickjs_8h.html#ad80a83d73e9b7d872b88fbf2943aebe9" target="_top" xlink:title=" ">
<polygon fill="none" stroke="black" points="800,-1010.79 800,-1029.79 887,-1029.79 887,-1010.79 800,-1010.79"/>
<text text-anchor="middle" x="843.5" y="-1017.79" font-family="Helvetica,sans-Serif" font-size="10.00">JS_IsException</text>
</a>
</g>
</g>
<!-- Node1&#45;&gt;Node5 -->
<g id="edge67" class="edge">
<title>Node1&#45;&gt;Node5</title>
<path fill="none" stroke="midnightblue" d="M40.68,-510.96C44.98,-570.05 69.58,-882.75 114,-966.29 161.39,-1055.42 179.06,-1121.29 280,-1121.29 280,-1121.29 280,-1121.29 446.5,-1121.29 564.32,-1121.29 597.57,-1127.53 710,-1092.29 751.61,-1079.26 795.16,-1052.71 820.51,-1035.75"/>
<polygon fill="midnightblue" stroke="midnightblue" points="822.7,-1038.5 828.99,-1029.98 818.76,-1032.71 822.7,-1038.5"/>
</g>
<!-- Node10 -->
<g id="node10" class="node">
<title>Node10</title>
<g id="a_node10"><a xlink:href="quickjs_8c.html#a686cf78f8b0361621ee2ba6182195c31" target="_top" xlink:title=" ">
<polygon fill="none" stroke="black" points="799.5,-339.79 799.5,-358.79 887.5,-358.79 887.5,-339.79 799.5,-339.79"/>
<text text-anchor="middle" x="843.5" y="-346.79" font-family="Helvetica,sans-Serif" font-size="10.00">is_strict_mode</text>
</a>
</g>
</g>
<!-- Node1&#45;&gt;Node10 -->
<g id="edge9" class="edge">
<title>Node1&#45;&gt;Node10</title>
<path fill="none" stroke="midnightblue" d="M47.75,-491.65C60.33,-476.52 86.55,-446.98 114,-428.29 159.4,-397.39 175.23,-396.64 227,-378.29 430.14,-306.31 494.78,-323.96 710,-335.29 736.17,-336.67 765.14,-339.57 789.29,-342.38"/>
<polygon fill="midnightblue" stroke="midnightblue" points="788.98,-345.87 799.33,-343.57 789.81,-338.92 788.98,-345.87"/>
</g>
<!-- Node11 -->
<g id="node11" class="node">
<title>Node11</title>
<g id="a_node11"><a xlink:href="quickjs_8c.html#afa67965c1017685fc6783776d6d0d4d7" target="_top" xlink:title=" ">
<polygon fill="none" stroke="black" points="398,-909.79 398,-928.79 493,-928.79 493,-909.79 398,-909.79"/>
<text text-anchor="middle" x="445.5" y="-916.79" font-family="Helvetica,sans-Serif" font-size="10.00">JS_AtomToValue</text>
</a>
</g>
</g>
<!-- Node1&#45;&gt;Node11 -->
<g id="edge10" class="edge">
<title>Node1&#45;&gt;Node11</title>
<path fill="none" stroke="midnightblue" d="M40.29,-511.01C42.14,-566.43 54.29,-841.99 114,-895.29 153.09,-930.19 303.88,-927.58 387.62,-923.17"/>
<polygon fill="midnightblue" stroke="midnightblue" points="387.94,-926.65 397.73,-922.61 387.56,-919.66 387.94,-926.65"/>
</g>
<!-- Node15 -->
<g id="node15" class="node">
<title>Node15</title>
<g id="a_node15"><a xlink:href="quickjs_8h.html#a775522f2d084fc8fa0fcb33f390006b4" target="_top" xlink:title=" ">
<polygon fill="none" stroke="black" points="977,-681.79 977,-700.79 1054,-700.79 1054,-681.79 977,-681.79"/>
<text text-anchor="middle" x="1015.5" y="-688.79" font-family="Helvetica,sans-Serif" font-size="10.00">JS_DupValue</text>
</a>
</g>
</g>
<!-- Node1&#45;&gt;Node15 -->
<g id="edge62" class="edge">
<title>Node1&#45;&gt;Node15</title>
<path fill="none" stroke="midnightblue" d="M40.04,-491.48C40.5,-430.11 46.15,-99.67 114,-32.29 166.94,20.28 205.39,-7.29 280,-7.29 280,-7.29 280,-7.29 634,-7.29 782.7,-7.29 851.33,-21.68 941,-140.29 1006.16,-226.5 1013.56,-583.54 1014.4,-671.6"/>
<polygon fill="midnightblue" stroke="midnightblue" points="1010.9,-671.81 1014.47,-681.78 1017.9,-671.76 1010.9,-671.81"/>
</g>
<!-- Node39 -->
<g id="node17" class="node">
<title>Node39</title>
<g id="a_node17"><a xlink:href="quickjs_8c.html#a75f6ee5e4235a7dc99889f3d2eb2c147" target="_top" xlink:title=" ">
<polygon fill="none" stroke="black" points="117,-529.79 117,-548.79 188,-548.79 188,-529.79 117,-529.79"/>
<text text-anchor="middle" x="152.5" y="-536.79" font-family="Helvetica,sans-Serif" font-size="10.00">JS_CallFree</text>
</a>
</g>
</g>
<!-- Node1&#45;&gt;Node39 -->
<g id="edge16" class="edge">
<title>Node1&#45;&gt;Node39</title>
<path fill="none" stroke="midnightblue" d="M68.14,-510.88C82,-515.61 98.92,-521.37 113.88,-526.47"/>
<polygon fill="midnightblue" stroke="midnightblue" points="112.78,-529.8 123.37,-529.71 115.04,-523.17 112.78,-529.8"/>
</g>
<!-- Node87 -->
<g id="node20" class="node">
<title>Node87</title>
<g id="a_node20"><a xlink:href="quickjs_8h.html#afaa20c47565bc704c6c85f3d77254e7d" target="_top" xlink:title=" ">
<polygon fill="none" stroke="red" points="804,-149.79 804,-168.79 883,-168.79 883,-149.79 804,-149.79"/>
<text text-anchor="middle" x="843.5" y="-156.79" font-family="Helvetica,sans-Serif" font-size="10.00">JS_FreeValue</text>
</a>
</g>
</g>
<!-- Node1&#45;&gt;Node87 -->
<g id="edge65" class="edge">
<title>Node1&#45;&gt;Node87</title>
<path fill="none" stroke="midnightblue" d="M40.13,-491.74C41.11,-433.38 49.35,-125.56 114,-64.29 167.9,-13.22 205.74,-45.29 280,-45.29 280,-45.29 280,-45.29 446.5,-45.29 589.45,-45.29 750.49,-114.74 814.3,-145.23"/>
<polygon fill="midnightblue" stroke="midnightblue" points="813.16,-148.57 823.69,-149.77 816.21,-142.27 813.16,-148.57"/>
</g>
<!-- Node133 -->
<g id="node21" class="node">
<title>Node133</title>
<g id="a_node21"><a xlink:href="quickjs_8h.html#a4e407128a9605afb77523e49e9a627fd" target="_top" xlink:title=" ">
<polygon fill="none" stroke="black" points="799,-472.79 799,-491.79 888,-491.79 888,-472.79 799,-472.79"/>
<text text-anchor="middle" x="843.5" y="-479.79" font-family="Helvetica,sans-Serif" font-size="10.00">JS_IsUndefined</text>
</a>
</g>
</g>
<!-- Node1&#45;&gt;Node133 -->
<g id="edge68" class="edge">
<title>Node1&#45;&gt;Node133</title>
<path fill="none" stroke="midnightblue" d="M57.99,-491.78C106.72,-466.59 245.95,-398.38 371,-373.29 518.74,-343.65 568.73,-315.88 710,-368.29 762.15,-387.64 807.54,-437.72 829.12,-464.61"/>
<polygon fill="midnightblue" stroke="midnightblue" points="826.58,-467.04 835.5,-472.76 832.1,-462.73 826.58,-467.04"/>
</g>
<!-- Node234 -->
<g id="node22" class="node">
<title>Node234</title>
<g id="a_node22"><a xlink:href="quickjs_8c.html#a24be89a128d1cd7c0908604815b2b854" target="_top" xlink:title=" ">
<polygon fill="none" stroke="red" points="799,-833.79 799,-852.79 888,-852.79 888,-833.79 799,-833.79"/>
<text text-anchor="middle" x="843.5" y="-840.79" font-family="Helvetica,sans-Serif" font-size="10.00">js_same_value</text>
</a>
</g>
</g>
<!-- Node1&#45;&gt;Node234 -->
<g id="edge69" class="edge">
<title>Node1&#45;&gt;Node234</title>
<path fill="none" stroke="midnightblue" d="M41.21,-511.07C49.16,-570.55 99.36,-881.29 280,-881.29 280,-881.29 280,-881.29 446.5,-881.29 569.36,-881.29 712.68,-862.95 788.7,-851.75"/>
<polygon fill="midnightblue" stroke="midnightblue" points="789.6,-855.16 798.98,-850.22 788.57,-848.23 789.6,-855.16"/>
</g>
<!-- Node429 -->
<g id="node25" class="node">
<title>Node429</title>
<g id="a_node25"><a xlink:href="quickjs_8c.html#a3d5eeb3c1fed80d35e4e9e14b9cb15b8" target="_top" xlink:title=" ">
<polygon fill="none" stroke="red" points="383,-491.79 383,-510.79 508,-510.79 508,-491.79 383,-491.79"/>
<text text-anchor="middle" x="445.5" y="-498.79" font-family="Helvetica,sans-Serif" font-size="10.00">JS_SetPropertyGeneric</text>
</a>
</g>
</g>
<!-- Node1&#45;&gt;Node429 -->
<g id="edge70" class="edge">
<title>Node1&#45;&gt;Node429</title>
<path fill="none" stroke="midnightblue" d="M78.05,-501.29C145.33,-501.29 286.3,-501.29 372.45,-501.29"/>
<polygon fill="midnightblue" stroke="midnightblue" points="372.67,-504.79 382.67,-501.29 372.67,-497.79 372.67,-504.79"/>
</g>
<!-- Node307 -->
<g id="node26" class="node">
<title>Node307</title>
<g id="a_node26"><a xlink:href="quickjs_8c.html#ad13892c0a0f11781b566808876658099" target="_top" xlink:title=" ">
<polygon fill="none" stroke="red" points="558.5,-681.79 558.5,-700.79 707.5,-700.79 707.5,-681.79 558.5,-681.79"/>
<text text-anchor="middle" x="633" y="-688.79" font-family="Helvetica,sans-Serif" font-size="10.00">JS_GetOwnPropertyInternal</text>
</a>
</g>
</g>
<!-- Node1&#45;&gt;Node307 -->
<g id="edge66" class="edge">
<title>Node1&#45;&gt;Node307</title>
<path fill="none" stroke="midnightblue" d="M49.65,-510.85C62.99,-523.53 88.35,-545.78 114,-558.29 257.9,-628.49 442.97,-664.46 548.45,-680.47"/>
<polygon fill="midnightblue" stroke="midnightblue" points="548,-683.94 558.41,-681.96 549.03,-677.02 548,-683.94"/>
</g>
<!-- Node224 -->
<g id="node29" class="node">
<title>Node224</title>
<g id="a_node29"><a xlink:href="quickjs_8c.html#a2bf30c9cddfe98a32535843202495069" target="_top" xlink:title=" ">
<polygon fill="none" stroke="black" points="403.5,-111.79 403.5,-130.79 487.5,-130.79 487.5,-111.79 403.5,-111.79"/>
<text text-anchor="middle" x="445.5" y="-118.79" font-family="Helvetica,sans-Serif" font-size="10.00">JS_ToBoolFree</text>
</a>
</g>
</g>
<!-- Node1&#45;&gt;Node224 -->
<g id="edge71" class="edge">
<title>Node1&#45;&gt;Node224</title>
<path fill="none" stroke="midnightblue" d="M40.5,-491.5C43.39,-439.13 59.74,-192.81 114,-145.29 154.31,-110 310.96,-113.36 393.29,-117.81"/>
<polygon fill="midnightblue" stroke="midnightblue" points="393.24,-121.31 403.43,-118.39 393.64,-114.33 393.24,-121.31"/>
</g>
<!-- Node316 -->
<g id="node30" class="node">
<title>Node316</title>
<g id="a_node30"><a xlink:href="quickjs_8c.html#adfe21c674d998ca6586b7f7400352dc4" target="_top" xlink:title=" ">
<polygon fill="none" stroke="black" points="114,-73.79 114,-92.79 191,-92.79 191,-73.79 114,-73.79"/>
<text text-anchor="middle" x="152.5" y="-80.79" font-family="Helvetica,sans-Serif" font-size="10.00">js_free_desc</text>
</a>
</g>
</g>
<!-- Node1&#45;&gt;Node316 -->
<g id="edge63" class="edge">
<title>Node1&#45;&gt;Node316</title>
<path fill="none" stroke="midnightblue" d="M40.78,-491.63C45.28,-437.65 69.33,-173.5 114,-107.29 116.11,-104.16 118.79,-101.35 121.73,-98.85"/>
<polygon fill="midnightblue" stroke="midnightblue" points="123.86,-101.64 129.95,-92.97 119.78,-95.95 123.86,-101.64"/>
</g>
<!-- Node3 -->
<g id="node3" class="node">
<title>Node3</title>
<g id="a_node3"><a xlink:href="quickjs_8c.html#af23ec7c9970ceb4671c59da7abd4b078" target="_top" xlink:title=" ">
<polygon fill="none" stroke="black" points="377,-947.79 377,-966.79 514,-966.79 514,-947.79 377,-947.79"/>
<text text-anchor="middle" x="445.5" y="-954.79" font-family="Helvetica,sans-Serif" font-size="10.00">js_check_stack_overflow</text>
</a>
</g>
</g>
<!-- Node2&#45;&gt;Node3 -->
<g id="edge2" class="edge">
<title>Node2&#45;&gt;Node3</title>
<path fill="none" stroke="midnightblue" d="M335.21,-970.07C345.31,-968.89 356.07,-967.63 366.75,-966.39"/>
<polygon fill="midnightblue" stroke="midnightblue" points="367.41,-969.83 376.94,-965.19 366.6,-962.88 367.41,-969.83"/>
</g>
<!-- Node2&#45;&gt;Node5 -->
<g id="edge4" class="edge">
<title>Node2&#45;&gt;Node5</title>
<path fill="none" stroke="midnightblue" d="M287.88,-985.86C300.36,-1005.12 331.61,-1048.11 371,-1064.29 525.24,-1127.67 731.04,-1063 809.89,-1033.4"/>
<polygon fill="midnightblue" stroke="midnightblue" points="811.2,-1036.65 819.29,-1029.81 808.7,-1030.11 811.2,-1036.65"/>
</g>
<!-- Node6 -->
<g id="node6" class="node">
<title>Node6</title>
<g id="a_node6"><a xlink:href="quickjs_8h.html#a149f24b67e745bad93573b3b4c80db4c" target="_top" xlink:title=" ">
<polygon fill="none" stroke="black" points="603.5,-795.79 603.5,-814.79 662.5,-814.79 662.5,-795.79 603.5,-795.79"/>
<text text-anchor="middle" x="633" y="-802.79" font-family="Helvetica,sans-Serif" font-size="10.00">JS_IsNull</text>
</a>
</g>
</g>
<!-- Node2&#45;&gt;Node6 -->
<g id="edge5" class="edge">
<title>Node2&#45;&gt;Node6</title>
<path fill="none" stroke="midnightblue" d="M308.64,-985.88C356.61,-1001.28 458.26,-1025.12 520,-976.29 574.45,-933.23 507.22,-873.69 556,-824.29 565.75,-814.42 579.79,-809.4 593.16,-806.93"/>
<polygon fill="midnightblue" stroke="midnightblue" points="593.77,-810.38 603.17,-805.51 592.78,-803.45 593.77,-810.38"/>
</g>
<!-- Node7 -->
<g id="node7" class="node">
<title>Node7</title>
<g id="a_node7"><a xlink:href="quickjs_8c.html#a8353f635fb8a20553c08db8cf38c17e0" target="_top" xlink:title=" ">
<polygon fill="none" stroke="black" points="380,-833.79 380,-852.79 511,-852.79 511,-833.79 380,-833.79"/>
<text text-anchor="middle" x="445.5" y="-840.79" font-family="Helvetica,sans-Serif" font-size="10.00">JS_ThrowStackOverflow</text>
</a>
</g>
</g>
<!-- Node2&#45;&gt;Node7 -->
<g id="edge6" class="edge">
<title>Node2&#45;&gt;Node7</title>
<path fill="none" stroke="midnightblue" d="M292.82,-966.77C309.44,-952.2 342.32,-923.64 371,-900.29 388.59,-885.98 409,-870.22 423.84,-858.9"/>
<polygon fill="midnightblue" stroke="midnightblue" points="426.03,-861.64 431.87,-852.8 421.79,-856.06 426.03,-861.64"/>
</g>
<!-- Node9 -->
<g id="node9" class="node">
<title>Node9</title>
<g id="a_node9"><a xlink:href="quickjs_8c.html#a199d64ccbee0a90d93e1ad12745417f6" target="_top" xlink:title=" ">
<polygon fill="none" stroke="black" points="371,-1024.29 371,-1054.29 520,-1054.29 520,-1024.29 371,-1024.29"/>
<text text-anchor="start" x="379" y="-1042.29" font-family="Helvetica,sans-Serif" font-size="10.00">JS_ThrowTypeErrorRevoked</text>
<text text-anchor="middle" x="445.5" y="-1031.29" font-family="Helvetica,sans-Serif" font-size="10.00">Proxy</text>
</a>
</g>
</g>
<!-- Node2&#45;&gt;Node9 -->
<g id="edge8" class="edge">
<title>Node2&#45;&gt;Node9</title>
<path fill="none" stroke="midnightblue" d="M306.68,-985.86C330.29,-995.02 366.56,-1009.08 395.96,-1020.48"/>
<polygon fill="midnightblue" stroke="midnightblue" points="395.05,-1023.88 405.64,-1024.23 397.58,-1017.35 395.05,-1023.88"/>
</g>
<!-- Node4 -->
<g id="node4" class="node">
<title>Node4</title>
<g id="a_node4"><a xlink:href="quickjs_8c.html#a36b8de436f88239e2e5515a3a423c6d9" target="_top" xlink:title=" ">
<polygon fill="none" stroke="black" points="574.5,-985.79 574.5,-1004.79 691.5,-1004.79 691.5,-985.79 574.5,-985.79"/>
<text text-anchor="middle" x="633" y="-992.79" font-family="Helvetica,sans-Serif" font-size="10.00">js_get_stack_pointer</text>
</a>
</g>
</g>
<!-- Node3&#45;&gt;Node4 -->
<g id="edge3" class="edge">
<title>Node3&#45;&gt;Node4</title>
<path fill="none" stroke="midnightblue" d="M493.31,-966.88C518.34,-972.01 549.34,-978.36 575.68,-983.76"/>
<polygon fill="midnightblue" stroke="midnightblue" points="575.03,-987.2 585.53,-985.77 576.43,-980.34 575.03,-987.2"/>
</g>
<!-- Node8 -->
<g id="node8" class="node">
<title>Node8</title>
<g id="a_node8"><a xlink:href="quickjs_8c.html#a853f0924d441ea4225488f37c8b69f9a" target="_top" xlink:title=" ">
<polygon fill="none" stroke="black" points="593,-833.79 593,-852.79 673,-852.79 673,-833.79 593,-833.79"/>
<text text-anchor="middle" x="633" y="-840.79" font-family="Helvetica,sans-Serif" font-size="10.00">__attribute__</text>
</a>
</g>
</g>
<!-- Node7&#45;&gt;Node8 -->
<g id="edge7" class="edge">
<title>Node7&#45;&gt;Node8</title>
<path fill="none" stroke="midnightblue" d="M511.12,-843.29C534.59,-843.29 560.71,-843.29 582.65,-843.29"/>
<polygon fill="midnightblue" stroke="midnightblue" points="582.73,-846.79 592.73,-843.29 582.73,-839.79 582.73,-846.79"/>
</g>
<!-- Node12 -->
<g id="node12" class="node">
<title>Node12</title>
<g id="a_node12"><a xlink:href="quickjs_8c.html#a06ff303a11e6641cbf1f6634e6a61811" target="_top" xlink:title=" ">
<polygon fill="none" stroke="black" points="580.5,-909.79 580.5,-928.79 685.5,-928.79 685.5,-909.79 580.5,-909.79"/>
<text text-anchor="middle" x="633" y="-916.79" font-family="Helvetica,sans-Serif" font-size="10.00">__JS_AtomToValue</text>
</a>
</g>
</g>
<!-- Node11&#45;&gt;Node12 -->
<g id="edge11" class="edge">
<title>Node11&#45;&gt;Node12</title>
<path fill="none" stroke="midnightblue" d="M493.31,-919.29C516.61,-919.29 545.08,-919.29 570.16,-919.29"/>
<polygon fill="midnightblue" stroke="midnightblue" points="570.3,-922.79 580.3,-919.29 570.3,-915.79 570.3,-922.79"/>
</g>
<!-- Node13 -->
<g id="node13" class="node">
<title>Node13</title>
<g id="a_node13"><a xlink:href="quickjs_8c.html#a288254c06a39c9fca740a7abdad2834e" target="_top" xlink:title=" ">
<polygon fill="none" stroke="black" points="782,-719.79 782,-738.79 905,-738.79 905,-719.79 782,-719.79"/>
<text text-anchor="middle" x="843.5" y="-726.79" font-family="Helvetica,sans-Serif" font-size="10.00">__JS_AtomIsTaggedInt</text>
</a>
</g>
</g>
<!-- Node12&#45;&gt;Node13 -->
<g id="edge12" class="edge">
<title>Node12&#45;&gt;Node13</title>
<path fill="none" stroke="midnightblue" d="M651.32,-909.69C668.11,-899.67 693.41,-882.61 710,-862.29 733.64,-833.35 720.8,-813.9 746,-786.29 763.33,-767.31 788.46,-752.74 808.74,-743.09"/>
<polygon fill="midnightblue" stroke="midnightblue" points="810.31,-746.22 817.95,-738.87 807.4,-739.85 810.31,-746.22"/>
</g>
<!-- Node14 -->
<g id="node14" class="node">
<title>Node14</title>
<g id="a_node14"><a xlink:href="quickjs_8c.html#a89f38938cee8077ce1fbba07946ed185" target="_top" xlink:title=" ">
<polygon fill="none" stroke="black" points="788.5,-795.79 788.5,-814.79 898.5,-814.79 898.5,-795.79 788.5,-795.79"/>
<text text-anchor="middle" x="843.5" y="-802.79" font-family="Helvetica,sans-Serif" font-size="10.00">__JS_AtomToUInt32</text>
</a>
</g>
</g>
<!-- Node12&#45;&gt;Node14 -->
<g id="edge13" class="edge">
<title>Node12&#45;&gt;Node14</title>
<path fill="none" stroke="midnightblue" d="M648.28,-909.67C663.98,-898.85 689.68,-880.4 710,-862.29 727.37,-846.82 725.62,-835.52 746,-824.29 755.95,-818.82 767.24,-814.9 778.51,-812.11"/>
<polygon fill="midnightblue" stroke="midnightblue" points="779.36,-815.5 788.37,-809.93 777.85,-808.67 779.36,-815.5"/>
</g>
<!-- Node12&#45;&gt;Node15 -->
<g id="edge14" class="edge">
<title>Node12&#45;&gt;Node15</title>
<path fill="none" stroke="midnightblue" d="M685.73,-910.33C771.92,-895.3 936.01,-866.28 941,-862.29 989.29,-823.7 1006.45,-747.3 1012.04,-711.15"/>
<polygon fill="midnightblue" stroke="midnightblue" points="1015.55,-711.31 1013.48,-700.92 1008.62,-710.34 1015.55,-711.31"/>
</g>
<!-- Node16 -->
<g id="node16" class="node">
<title>Node16</title>
<g id="a_node16"><a xlink:href="quickjs_8c.html#a0ee6a3654a6016393fac5e1c108f403a" target="_top" xlink:title=" ">
<polygon fill="none" stroke="red" points="803,-909.79 803,-928.79 884,-928.79 884,-909.79 803,-909.79"/>
<text text-anchor="middle" x="843.5" y="-916.79" font-family="Helvetica,sans-Serif" font-size="10.00">JS_NewString</text>
</a>
</g>
</g>
<!-- Node12&#45;&gt;Node16 -->
<g id="edge15" class="edge">
<title>Node12&#45;&gt;Node16</title>
<path fill="none" stroke="midnightblue" d="M685.54,-919.29C718.29,-919.29 760.47,-919.29 792.85,-919.29"/>
<polygon fill="midnightblue" stroke="midnightblue" points="792.99,-922.79 802.99,-919.29 792.99,-915.79 792.99,-922.79"/>
</g>
<!-- Node40 -->
<g id="node18" class="node">
<title>Node40</title>
<g id="a_node18"><a xlink:href="quickjs_8c.html#ac2894ff4edcdb4e6841bcce9c76081e3" target="_top" xlink:title=" ">
<polygon fill="none" stroke="red" points="237.5,-529.79 237.5,-548.79 324.5,-548.79 324.5,-529.79 237.5,-529.79"/>
<text text-anchor="middle" x="281" y="-536.79" font-family="Helvetica,sans-Serif" font-size="10.00">JS_CallInternal</text>
</a>
</g>
</g>
<!-- Node39&#45;&gt;Node40 -->
<g id="edge17" class="edge">
<title>Node39&#45;&gt;Node40</title>
<path fill="none" stroke="midnightblue" d="M188.07,-533.2C200.07,-532.61 213.83,-532.42 226.98,-532.62"/>
<polygon fill="midnightblue" stroke="midnightblue" points="227.27,-536.13 237.35,-532.87 227.44,-529.13 227.27,-536.13"/>
</g>
<!-- Node39&#45;&gt;Node87 -->
<g id="edge61" class="edge">
<title>Node39&#45;&gt;Node87</title>
<path fill="none" stroke="midnightblue" d="M157.93,-529.55C177.03,-488.66 256.53,-329.4 371,-249.29 502.32,-157.39 702.47,-152.78 793.89,-156.17"/>
<polygon fill="midnightblue" stroke="midnightblue" points="793.83,-159.67 803.97,-156.6 794.12,-152.68 793.83,-159.67"/>
</g>
<!-- Node40&#45;&gt;Node3 -->
<g id="edge23" class="edge">
<title>Node40&#45;&gt;Node3</title>
<path fill="none" stroke="midnightblue" d="M282.81,-548.99C287.64,-604.31 314.26,-879.62 371,-938.29 372.26,-939.6 373.6,-940.82 375,-941.95"/>
<polygon fill="midnightblue" stroke="midnightblue" points="373.37,-945.07 383.65,-947.64 377.21,-939.22 373.37,-945.07"/>
</g>
<!-- Node40&#45;&gt;Node5 -->
<g id="edge35" class="edge">
<title>Node40&#45;&gt;Node5</title>
<path fill="none" stroke="midnightblue" d="M282.82,-548.82C286.36,-583.81 303.29,-706.52 371,-772.29 421.31,-821.16 471.15,-773.96 520,-824.29 557,-862.42 517.25,-901.94 556,-938.29 607.42,-986.52 642.27,-956.73 710,-976.29 742.83,-985.78 779.69,-998.16 806.18,-1007.38"/>
<polygon fill="midnightblue" stroke="midnightblue" points="805.2,-1010.74 815.79,-1010.74 807.51,-1004.13 805.2,-1010.74"/>
</g>
<!-- Node40&#45;&gt;Node6 -->
<g id="edge36" class="edge">
<title>Node40&#45;&gt;Node6</title>
<path fill="none" stroke="midnightblue" d="M286.84,-549.04C298.61,-571.99 330.75,-630.29 371,-667.29 427.29,-719.04 456.56,-710.61 520,-753.29 536.82,-764.61 538.05,-771.87 556,-781.29 567.7,-787.44 581.24,-792.33 593.63,-796.06"/>
<polygon fill="midnightblue" stroke="midnightblue" points="592.68,-799.43 603.25,-798.8 594.59,-792.7 592.68,-799.43"/>
</g>
<!-- Node40&#45;&gt;Node7 -->
<g id="edge57" class="edge">
<title>Node40&#45;&gt;Node7</title>
<path fill="none" stroke="midnightblue" d="M282.08,-548.81C282.92,-588.06 291.42,-739.09 371,-819.29 374.9,-823.23 379.45,-826.51 384.34,-829.26"/>
<polygon fill="midnightblue" stroke="midnightblue" points="382.92,-832.46 393.45,-833.65 385.96,-826.16 382.92,-832.46"/>
</g>
<!-- Node40&#45;&gt;Node8 -->
<g id="edge18" class="edge">
<title>Node40&#45;&gt;Node8</title>
<path fill="none" stroke="midnightblue" d="M284.19,-549.14C291.36,-579.3 316.89,-671.56 371,-724.29 423,-774.97 459.36,-751.37 520,-791.29 538.13,-803.23 536.88,-814.01 556,-824.29 564.27,-828.74 573.6,-832.17 582.83,-834.81"/>
<polygon fill="midnightblue" stroke="midnightblue" points="582.18,-838.26 592.74,-837.37 583.94,-831.48 582.18,-838.26"/>
</g>
<!-- Node40&#45;&gt;Node10 -->
<g id="edge19" class="edge">
<title>Node40&#45;&gt;Node10</title>
<path fill="none" stroke="midnightblue" d="M283.79,-529.56C289.83,-499.89 312.44,-410.4 371,-373.29 439.08,-330.16 680.8,-339.13 789.21,-345.61"/>
<polygon fill="midnightblue" stroke="midnightblue" points="789.08,-349.11 799.28,-346.23 789.51,-342.12 789.08,-349.11"/>
</g>
<!-- Node40&#45;&gt;Node11 -->
<g id="edge20" class="edge">
<title>Node40&#45;&gt;Node11</title>
<path fill="none" stroke="midnightblue" d="M282.47,-548.92C284.92,-590.15 298.99,-754.76 371,-862.29 382.79,-879.9 401.81,-894.44 417.55,-904.42"/>
<polygon fill="midnightblue" stroke="midnightblue" points="415.99,-907.57 426.35,-909.77 419.62,-901.59 415.99,-907.57"/>
</g>
<!-- Node40&#45;&gt;Node15 -->
<g id="edge33" class="edge">
<title>Node40&#45;&gt;Node15</title>
<path fill="none" stroke="midnightblue" d="M282.86,-529.56C286.39,-496.15 303,-385.67 371,-340.29 476.38,-269.97 842.89,-250.15 941,-330.29 994.61,-374.09 1010.11,-601.95 1013.62,-671.27"/>
<polygon fill="midnightblue" stroke="midnightblue" points="1010.14,-671.82 1014.11,-681.64 1017.13,-671.49 1010.14,-671.82"/>
</g>
<!-- Node40&#45;&gt;Node39 -->
<g id="edge21" class="edge">
<title>Node40&#45;&gt;Node39</title>
<path fill="none" stroke="midnightblue" d="M237.35,-545.72C224.82,-546.13 211.07,-546.15 198.41,-545.79"/>
<polygon fill="midnightblue" stroke="midnightblue" points="198.19,-542.28 188.07,-545.39 197.92,-549.27 198.19,-542.28"/>
</g>
<!-- Node40&#45;&gt;Node40 -->
<g id="edge22" class="edge">
<title>Node40&#45;&gt;Node40</title>
<path fill="none" stroke="midnightblue" d="M261.27,-549.05C251.67,-557.86 258.25,-567.29 281,-567.29 295.57,-567.29 303.51,-563.42 304.81,-558.32"/>
<polygon fill="midnightblue" stroke="midnightblue" points="307.96,-556.79 300.73,-549.05 301.55,-559.61 307.96,-556.79"/>
</g>
<!-- Node185 -->
<g id="node19" class="node">
<title>Node185</title>
<g id="a_node19"><a xlink:href="quickjs_8c.html#ab50618f1bf78e444caa6da0e3e2785d7" target="_top" xlink:title=" ">
<polygon fill="none" stroke="red" points="581,-719.79 581,-738.79 685,-738.79 685,-719.79 581,-719.79"/>
<text text-anchor="middle" x="633" y="-726.79" font-family="Helvetica,sans-Serif" font-size="10.00">JS_DefineProperty</text>
</a>
</g>
</g>
<!-- Node40&#45;&gt;Node185 -->
<g id="edge24" class="edge">
<title>Node40&#45;&gt;Node185</title>
<path fill="none" stroke="midnightblue" d="M296.28,-548.95C313.45,-560.25 343.39,-578.96 371,-591.29 434.52,-619.68 467.08,-594.12 520,-639.29 546.91,-662.27 528.34,-688.23 556,-710.29 560.63,-713.99 565.89,-716.98 571.42,-719.39"/>
<polygon fill="midnightblue" stroke="midnightblue" points="570.34,-722.72 580.94,-722.93 572.79,-716.16 570.34,-722.72"/>
</g>
<!-- Node40&#45;&gt;Node87 -->
<g id="edge34" class="edge">
<title>Node40&#45;&gt;Node87</title>
<path fill="none" stroke="midnightblue" d="M282.55,-529.79C285.16,-493.75 299.37,-364.23 371,-297.29 379.07,-289.75 683.08,-203.98 798.59,-171.58"/>
<polygon fill="midnightblue" stroke="midnightblue" points="799.83,-174.87 808.52,-168.8 797.94,-168.13 799.83,-174.87"/>
</g>
<!-- Node40&#45;&gt;Node133 -->
<g id="edge38" class="edge">
<title>Node40&#45;&gt;Node133</title>
<path fill="none" stroke="midnightblue" d="M288.72,-529.63C301.99,-511.43 333.56,-472.46 371,-456.29 521.28,-391.4 723.97,-443.55 805.89,-469.65"/>
<polygon fill="midnightblue" stroke="midnightblue" points="804.91,-473.01 815.5,-472.77 807.07,-466.35 804.91,-473.01"/>
</g>
<!-- Node40&#45;&gt;Node234 -->
<g id="edge40" class="edge">
<title>Node40&#45;&gt;Node234</title>
<path fill="none" stroke="midnightblue" d="M288.62,-548.84C301.97,-567.34 334.01,-608.1 371,-629.29 430.3,-663.27 467.78,-623.21 520,-667.29 550.1,-692.71 525.8,-723 556,-748.29 610.04,-793.56 649.07,-750.83 710,-786.29 730.11,-798 725.62,-813.07 746,-824.29 759,-831.46 774.3,-835.94 788.84,-838.75"/>
<polygon fill="midnightblue" stroke="midnightblue" points="788.3,-842.21 798.75,-840.44 789.48,-835.31 788.3,-842.21"/>
</g>
<!-- Node288 -->
<g id="node23" class="node">
<title>Node288</title>
<g id="a_node23"><a xlink:href="quickjs_8h.html#a3d68fe446df2d9c7d1900b16371bff5b" target="_top" xlink:title=" ">
<polygon fill="none" stroke="black" points="597.5,-453.79 597.5,-472.79 668.5,-472.79 668.5,-453.79 597.5,-453.79"/>
<text text-anchor="middle" x="633" y="-460.79" font-family="Helvetica,sans-Serif" font-size="10.00">JS_IsObject</text>
</a>
</g>
</g>
<!-- Node40&#45;&gt;Node288 -->
<g id="edge37" class="edge">
<title>Node40&#45;&gt;Node288</title>
<path fill="none" stroke="midnightblue" d="M292.85,-529.74C308.74,-516.4 339.84,-492.66 371,-482.29 443.75,-458.09 534,-457.54 587.06,-459.98"/>
<polygon fill="midnightblue" stroke="midnightblue" points="587,-463.48 597.17,-460.5 587.36,-456.49 587,-463.48"/>
</g>
<!-- Node157 -->
<g id="node24" class="node">
<title>Node157</title>
<g id="a_node24"><a xlink:href="quickjs_8h.html#aaab426b47c95d00479b7355b1cf7f56c" target="_top" xlink:title=" ">
<polygon fill="none" stroke="black" points="793,-643.79 793,-662.79 894,-662.79 894,-643.79 793,-643.79"/>
<text text-anchor="middle" x="843.5" y="-650.79" font-family="Helvetica,sans-Serif" font-size="10.00">JS_IsUninitialized</text>
</a>
</g>
</g>
<!-- Node40&#45;&gt;Node157 -->
<g id="edge39" class="edge">
<title>Node40&#45;&gt;Node157</title>
<path fill="none" stroke="midnightblue" d="M314.82,-548.8C331.55,-553.48 352.28,-559.02 371,-563.29 436.69,-578.3 458.81,-563.09 520,-591.29 538.66,-599.9 537.05,-612.36 556,-620.29 629.79,-651.18 723.05,-656.37 782.75,-655.9"/>
<polygon fill="midnightblue" stroke="midnightblue" points="782.82,-659.4 792.77,-655.77 782.72,-652.4 782.82,-659.4"/>
</g>
<!-- Node40&#45;&gt;Node429 -->
<g id="edge41" class="edge">
<title>Node40&#45;&gt;Node429</title>
<path fill="none" stroke="midnightblue" d="M323.01,-529.71C344.55,-524.67 371.13,-518.45 393.94,-513.12"/>
<polygon fill="midnightblue" stroke="midnightblue" points="394.85,-516.5 403.79,-510.81 393.25,-509.68 394.85,-516.5"/>
</g>
<!-- Node164 -->
<g id="node27" class="node">
<title>Node164</title>
<g id="a_node27"><a xlink:href="quickjs_8c.html#a75ac132a3af4de01e1fadeb0bede6ee7" target="_top" xlink:title=" ">
<polygon fill="none" stroke="red" points="746,-605.79 746,-624.79 941,-624.79 941,-605.79 746,-605.79"/>
<text text-anchor="middle" x="843.5" y="-612.79" font-family="Helvetica,sans-Serif" font-size="10.00">JS_ThrowReferenceErrorUninitialized</text>
</a>
</g>
</g>
<!-- Node40&#45;&gt;Node164 -->
<g id="edge56" class="edge">
<title>Node40&#45;&gt;Node164</title>
<path fill="none" stroke="midnightblue" d="M324.51,-536.65C373.46,-535.15 455.42,-537.44 520,-563.29 538.82,-570.83 537.12,-583.92 556,-591.29 612.68,-613.43 680.35,-619.93 735.69,-620.66"/>
<polygon fill="midnightblue" stroke="midnightblue" points="735.85,-624.16 745.87,-620.73 735.9,-617.16 735.85,-624.16"/>
</g>
<!-- Node220 -->
<g id="node28" class="node">
<title>Node220</title>
<g id="a_node28"><a xlink:href="quickjs_8c.html#adba489eac6c2332de312326782457940" target="_top" xlink:title=" ">
<polygon fill="none" stroke="black" points="556,-377.79 556,-396.79 710,-396.79 710,-377.79 556,-377.79"/>
<text text-anchor="middle" x="633" y="-384.79" font-family="Helvetica,sans-Serif" font-size="10.00">JS_ThrowTypeErrorReadOnly</text>
</a>
</g>
</g>
<!-- Node40&#45;&gt;Node220 -->
<g id="edge58" class="edge">
<title>Node40&#45;&gt;Node220</title>
<path fill="none" stroke="midnightblue" d="M285.35,-529.77C294.55,-505.14 322.82,-439.36 371,-411.29 423.36,-380.79 491.87,-375.53 545.56,-377.5"/>
<polygon fill="midnightblue" stroke="midnightblue" points="545.6,-381.01 555.75,-377.97 545.92,-374.02 545.6,-381.01"/>
</g>
<!-- Node40&#45;&gt;Node224 -->
<g id="edge59" class="edge">
<title>Node40&#45;&gt;Node224</title>
<path fill="none" stroke="midnightblue" d="M284.45,-529.39C293.65,-492.76 327.84,-361.78 371,-259.29 389.68,-214.93 417.75,-165.81 433.24,-139.81"/>
<polygon fill="midnightblue" stroke="midnightblue" points="436.36,-141.41 438.51,-131.03 430.36,-137.8 436.36,-141.41"/>
</g>
<!-- Node185&#45;&gt;Node5 -->
<g id="edge29" class="edge">
<title>Node185&#45;&gt;Node5</title>
<path fill="none" stroke="midnightblue" d="M653.61,-738.93C671.09,-748.53 695.99,-764.91 710,-786.29 748.04,-844.37 709.74,-879.09 746,-938.29 763.66,-967.13 794.93,-990.92 817.09,-1005.31"/>
<polygon fill="midnightblue" stroke="midnightblue" points="815.34,-1008.35 825.67,-1010.72 819.07,-1002.42 815.34,-1008.35"/>
</g>
<!-- Node185&#45;&gt;Node13 -->
<g id="edge25" class="edge">
<title>Node185&#45;&gt;Node13</title>
<path fill="none" stroke="midnightblue" d="M685,-729.29C710.99,-729.29 743.01,-729.29 771.37,-729.29"/>
<polygon fill="midnightblue" stroke="midnightblue" points="771.64,-732.79 781.64,-729.29 771.64,-725.79 771.64,-732.79"/>
</g>
<!-- Node185&#45;&gt;Node14 -->
<g id="edge26" class="edge">
<title>Node185&#45;&gt;Node14</title>
<path fill="none" stroke="midnightblue" d="M673.34,-738.82C685.46,-742.51 698.61,-747.31 710,-753.29 727.95,-762.72 727.77,-772.43 746,-781.29 756.15,-786.23 767.4,-790.2 778.54,-793.39"/>
<polygon fill="midnightblue" stroke="midnightblue" points="777.7,-796.79 788.27,-796 779.51,-790.03 777.7,-796.79"/>
</g>
<!-- Node185&#45;&gt;Node15 -->
<g id="edge27" class="edge">
<title>Node185&#45;&gt;Node15</title>
<path fill="none" stroke="midnightblue" d="M665.11,-738.86C721.75,-754.63 844.75,-781.24 941,-748.29 963.99,-740.43 985.34,-722.12 999.05,-708.36"/>
<polygon fill="midnightblue" stroke="midnightblue" points="1001.8,-710.54 1006.18,-700.89 996.74,-705.7 1001.8,-710.54"/>
</g>
<!-- Node185&#45;&gt;Node87 -->
<g id="edge28" class="edge">
<title>Node185&#45;&gt;Node87</title>
<path fill="none" stroke="midnightblue" d="M685.06,-725.59C694.57,-722.6 703.53,-717.82 710,-710.29 765.3,-645.98 720.6,-411.22 746,-330.29 764.96,-269.87 807.23,-207.09 828.98,-177.19"/>
<polygon fill="midnightblue" stroke="midnightblue" points="831.9,-179.13 835.03,-169.01 826.27,-174.98 831.9,-179.13"/>
</g>
<!-- Node185&#45;&gt;Node133 -->
<g id="edge30" class="edge">
<title>Node185&#45;&gt;Node133</title>
<path fill="none" stroke="midnightblue" d="M685.08,-724.11C694.24,-721.2 703.07,-716.82 710,-710.29 748.7,-673.89 720.33,-642.82 746,-596.29 767.33,-557.64 802.97,-519.98 824.45,-499.09"/>
<polygon fill="midnightblue" stroke="midnightblue" points="827.12,-501.37 831.93,-491.93 822.28,-496.32 827.12,-501.37"/>
</g>
<!-- Node185&#45;&gt;Node234 -->
<g id="edge31" class="edge">
<title>Node185&#45;&gt;Node234</title>
<path fill="none" stroke="midnightblue" d="M683.97,-738.82C693.33,-742.26 702.51,-746.94 710,-753.29 736.98,-776.19 717.79,-802.94 746,-824.29 758.17,-833.51 773.6,-838.6 788.54,-841.33"/>
<polygon fill="midnightblue" stroke="midnightblue" points="788.34,-844.84 798.75,-842.87 789.38,-837.92 788.34,-844.84"/>
</g>
<!-- Node234&#45;&gt;Node15 -->
<g id="edge32" class="edge">
<title>Node234&#45;&gt;Node15</title>
<path fill="none" stroke="midnightblue" d="M888.05,-842.6C905.87,-840.43 925.82,-835.36 941,-824.29 979.93,-795.9 1000.73,-740.31 1009.45,-710.79"/>
<polygon fill="midnightblue" stroke="midnightblue" points="1012.9,-711.44 1012.21,-700.87 1006.16,-709.56 1012.9,-711.44"/>
</g>
<!-- Node429&#45;&gt;Node6 -->
<g id="edge51" class="edge">
<title>Node429&#45;&gt;Node6</title>
<path fill="none" stroke="midnightblue" d="M450.44,-510.94C468.07,-554.05 539.64,-727.74 556,-748.29 569.65,-765.45 589.62,-780.15 605.66,-790.33"/>
<polygon fill="midnightblue" stroke="midnightblue" points="604.21,-793.55 614.57,-795.78 607.87,-787.58 604.21,-793.55"/>
</g>
<!-- Node429&#45;&gt;Node15 -->
<g id="edge43" class="edge">
<title>Node429&#45;&gt;Node15</title>
<path fill="none" stroke="midnightblue" d="M476.95,-510.9C498.79,-517.55 529.01,-526.25 556,-532.29 725.27,-570.2 792.09,-507.33 941,-596.29 971.43,-614.47 993.85,-650.39 1005.49,-672.48"/>
<polygon fill="midnightblue" stroke="midnightblue" points="1002.43,-674.19 1010.06,-681.54 1008.68,-671.04 1002.43,-674.19"/>
</g>
<!-- Node429&#45;&gt;Node185 -->
<g id="edge42" class="edge">
<title>Node429&#45;&gt;Node185</title>
<path fill="none" stroke="midnightblue" d="M455.13,-510.82C470.16,-527.85 501.32,-565.11 520,-601.29 543.4,-646.63 518.61,-675.58 556,-710.29 560.47,-714.44 565.7,-717.72 571.3,-720.31"/>
<polygon fill="midnightblue" stroke="midnightblue" points="570.4,-723.71 580.99,-724.04 572.91,-717.18 570.4,-723.71"/>
</g>
<!-- Node429&#45;&gt;Node87 -->
<g id="edge44" class="edge">
<title>Node429&#45;&gt;Node87</title>
<path fill="none" stroke="midnightblue" d="M508.1,-504.95C576.35,-507.64 680.66,-507.26 710,-482.29 762.87,-437.3 720.69,-394.94 746,-330.29 769.1,-271.29 809.53,-207.82 829.95,-177.47"/>
<polygon fill="midnightblue" stroke="midnightblue" points="833.09,-179.07 835.82,-168.83 827.31,-175.13 833.09,-179.07"/>
</g>
<!-- Node429&#45;&gt;Node133 -->
<g id="edge53" class="edge">
<title>Node429&#45;&gt;Node133</title>
<path fill="none" stroke="midnightblue" d="M508.04,-510.56C523.65,-512.52 540.41,-514.3 556,-515.29 624.31,-519.64 642.06,-523.63 710,-515.29 741.89,-511.38 777.14,-502.37 803.26,-494.74"/>
<polygon fill="midnightblue" stroke="midnightblue" points="804.57,-498.01 813.16,-491.8 802.57,-491.3 804.57,-498.01"/>
</g>
<!-- Node429&#45;&gt;Node288 -->
<g id="edge52" class="edge">
<title>Node429&#45;&gt;Node288</title>
<path fill="none" stroke="midnightblue" d="M493.31,-491.71C522.08,-485.81 558.75,-478.3 587.15,-472.48"/>
<polygon fill="midnightblue" stroke="midnightblue" points="588.12,-475.86 597.21,-470.42 586.71,-469 588.12,-475.86"/>
</g>
<!-- Node429&#45;&gt;Node307 -->
<g id="edge45" class="edge">
<title>Node429&#45;&gt;Node307</title>
<path fill="none" stroke="midnightblue" d="M455.95,-510.98C485.59,-541.34 576.98,-634.94 615.07,-673.95"/>
<polygon fill="midnightblue" stroke="midnightblue" points="612.85,-676.69 622.34,-681.4 617.86,-671.8 612.85,-676.69"/>
</g>
<!-- Node429&#45;&gt;Node220 -->
<g id="edge54" class="edge">
<title>Node429&#45;&gt;Node220</title>
<path fill="none" stroke="midnightblue" d="M462,-491.77C494.32,-471.91 569.15,-425.92 607.85,-402.14"/>
<polygon fill="midnightblue" stroke="midnightblue" points="609.73,-405.09 616.42,-396.87 606.06,-399.13 609.73,-405.09"/>
</g>
<!-- Node307&#45;&gt;Node13 -->
<g id="edge46" class="edge">
<title>Node307&#45;&gt;Node13</title>
<path fill="none" stroke="midnightblue" d="M686.34,-700.83C714.85,-706.03 750.3,-712.49 780.22,-717.94"/>
<polygon fill="midnightblue" stroke="midnightblue" points="779.67,-721.4 790.13,-719.75 780.92,-714.51 779.67,-721.4"/>
</g>
<!-- Node307&#45;&gt;Node14 -->
<g id="edge47" class="edge">
<title>Node307&#45;&gt;Node14</title>
<path fill="none" stroke="midnightblue" d="M688.24,-700.8C695.83,-703.27 703.31,-706.38 710,-710.29 730.09,-722.03 727.81,-733.79 746,-748.29 767.15,-765.15 793.78,-780.51 813.7,-791.02"/>
<polygon fill="midnightblue" stroke="midnightblue" points="812.13,-794.15 822.62,-795.64 815.35,-787.93 812.13,-794.15"/>
</g>
<!-- Node307&#45;&gt;Node15 -->
<g id="edge48" class="edge">
<title>Node307&#45;&gt;Node15</title>
<path fill="none" stroke="midnightblue" d="M707.82,-691.29C784.18,-691.29 901.2,-691.29 966.4,-691.29"/>
<polygon fill="midnightblue" stroke="midnightblue" points="966.79,-694.79 976.79,-691.29 966.79,-687.79 966.79,-694.79"/>
</g>
<!-- Node307&#45;&gt;Node157 -->
<g id="edge49" class="edge">
<title>Node307&#45;&gt;Node157</title>
<path fill="none" stroke="midnightblue" d="M686.34,-681.75C715.61,-676.42 752.19,-669.75 782.6,-664.21"/>
<polygon fill="midnightblue" stroke="midnightblue" points="783.44,-667.62 792.65,-662.38 782.18,-660.73 783.44,-667.62"/>
</g>
<!-- Node307&#45;&gt;Node164 -->
<g id="edge50" class="edge">
<title>Node307&#45;&gt;Node164</title>
<path fill="none" stroke="midnightblue" d="M649.34,-681.75C670.38,-669.07 709.7,-646.83 746,-634.29 753.95,-631.55 762.41,-629.16 770.89,-627.09"/>
<polygon fill="midnightblue" stroke="midnightblue" points="771.86,-630.45 780.82,-624.8 770.29,-623.63 771.86,-630.45"/>
</g>
<!-- Node220&#45;&gt;Node10 -->
<g id="edge55" class="edge">
<title>Node220&#45;&gt;Node10</title>
<path fill="none" stroke="midnightblue" d="M686.34,-377.75C717.8,-372.02 757.72,-364.75 789.33,-358.99"/>
<polygon fill="midnightblue" stroke="midnightblue" points="790.07,-362.41 799.28,-357.17 788.81,-355.52 790.07,-362.41"/>
</g>
<!-- Node224&#45;&gt;Node87 -->
<g id="edge60" class="edge">
<title>Node224&#45;&gt;Node87</title>
<path fill="none" stroke="midnightblue" d="M487.59,-124.85C539.45,-129.39 631.37,-137.56 710,-145.29 737.82,-148.03 768.9,-151.3 793.97,-154"/>
<polygon fill="midnightblue" stroke="midnightblue" points="793.64,-157.48 803.96,-155.07 794.39,-150.52 793.64,-157.48"/>
</g>
<!-- Node316&#45;&gt;Node87 -->
<g id="edge64" class="edge">
<title>Node316&#45;&gt;Node87</title>
<path fill="none" stroke="midnightblue" d="M191.31,-83.56C281.73,-84.78 517.29,-91.45 710,-127.29 739.47,-132.78 772.22,-140.67 797.79,-147.24"/>
<polygon fill="midnightblue" stroke="midnightblue" points="797.01,-150.66 807.57,-149.78 798.77,-143.88 797.01,-150.66"/>
</g>
</g>
</svg>
