<?xml version="1.0" encoding="UTF-8" standalone="no"?>
<!DOCTYPE svg PUBLIC "-//W3C//DTD SVG 1.1//EN"
 "http://www.w3.org/Graphics/SVG/1.1/DTD/svg11.dtd">
<!-- Generated by graphviz version 2.43.0 (0)
 -->
<!-- Title: JS_ToPrimitiveFree Pages: 1 -->
<svg width="837pt" height="1016pt"
 viewBox="0.00 0.00 837.00 1016.00" xmlns="http://www.w3.org/2000/svg" xmlns:xlink="http://www.w3.org/1999/xlink">
<g id="graph0" class="graph" transform="scale(1 1) rotate(0) translate(4 1012)">
<title>JS_ToPrimitiveFree</title>
<!-- Node1 -->
<g id="node1" class="node">
<title>Node1</title>
<g id="a_node1"><a xlink:title=" ">
<polygon fill="#bfbfbf" stroke="black" points="0,-228.5 0,-247.5 107,-247.5 107,-228.5 0,-228.5"/>
<text text-anchor="middle" x="53.5" y="-235.5" font-family="Helvetica,sans-Serif" font-size="10.00">JS_ToPrimitiveFree</text>
</a>
</g>
</g>
<!-- Node2 -->
<g id="node2" class="node">
<title>Node2</title>
<g id="a_node2"><a xlink:href="quickjs_8c.html#a260bfa297ff6cb5bd18e229afaa54663" target="_top" xlink:title=" ">
<polygon fill="none" stroke="black" points="396.5,-988.5 396.5,-1007.5 492.5,-1007.5 492.5,-988.5 396.5,-988.5"/>
<text text-anchor="middle" x="444.5" y="-995.5" font-family="Helvetica,sans-Serif" font-size="10.00">JS_AtomToString</text>
</a>
</g>
</g>
<!-- Node1&#45;&gt;Node2 -->
<g id="edge1" class="edge">
<title>Node1&#45;&gt;Node2</title>
<path fill="none" stroke="midnightblue" d="M54.91,-247.59C57.33,-297.37 72.15,-530.57 143,-704 204.24,-853.9 239.4,-902.28 382,-979 386.04,-981.17 390.36,-983.14 394.78,-984.91"/>
<polygon fill="midnightblue" stroke="midnightblue" points="393.92,-988.32 404.51,-988.46 396.32,-981.74 393.92,-988.32"/>
</g>
<!-- Node30 -->
<g id="node8" class="node">
<title>Node30</title>
<g id="a_node8"><a xlink:href="quickjs_8c.html#a75f6ee5e4235a7dc99889f3d2eb2c147" target="_top" xlink:title=" ">
<polygon fill="none" stroke="black" points="147.5,-513.5 147.5,-532.5 218.5,-532.5 218.5,-513.5 147.5,-513.5"/>
<text text-anchor="middle" x="183" y="-520.5" font-family="Helvetica,sans-Serif" font-size="10.00">JS_CallFree</text>
</a>
</g>
</g>
<!-- Node1&#45;&gt;Node30 -->
<g id="edge7" class="edge">
<title>Node1&#45;&gt;Node30</title>
<path fill="none" stroke="midnightblue" d="M58.89,-247.81C77.32,-289.01 148.64,-448.43 173.44,-503.87"/>
<polygon fill="midnightblue" stroke="midnightblue" points="170.35,-505.53 177.63,-513.23 176.74,-502.67 170.35,-505.53"/>
</g>
<!-- Node78 -->
<g id="node16" class="node">
<title>Node78</title>
<g id="a_node16"><a xlink:href="quickjs_8h.html#afaa20c47565bc704c6c85f3d77254e7d" target="_top" xlink:title=" ">
<polygon fill="none" stroke="red" points="728,-342.5 728,-361.5 807,-361.5 807,-342.5 728,-342.5"/>
<text text-anchor="middle" x="767.5" y="-349.5" font-family="Helvetica,sans-Serif" font-size="10.00">JS_FreeValue</text>
</a>
</g>
</g>
<!-- Node1&#45;&gt;Node78 -->
<g id="edge48" class="edge">
<title>Node1&#45;&gt;Node78</title>
<path fill="none" stroke="midnightblue" d="M60.38,-228.32C84.73,-189.6 181.94,-48 301.5,-48 301.5,-48 301.5,-48 445.5,-48 551.28,-48 592.75,-54.74 670,-127 731.83,-184.84 755.87,-288.9 763.49,-332.23"/>
<polygon fill="midnightblue" stroke="midnightblue" points="760.07,-333.02 765.15,-342.31 766.98,-331.88 760.07,-333.02"/>
</g>
<!-- Node95 -->
<g id="node17" class="node">
<title>Node95</title>
<g id="a_node17"><a xlink:href="quickjs_8h.html#ad80a83d73e9b7d872b88fbf2943aebe9" target="_top" xlink:title=" ">
<polygon fill="none" stroke="black" points="563,-228.5 563,-247.5 650,-247.5 650,-228.5 563,-228.5"/>
<text text-anchor="middle" x="606.5" y="-235.5" font-family="Helvetica,sans-Serif" font-size="10.00">JS_IsException</text>
</a>
</g>
</g>
<!-- Node1&#45;&gt;Node95 -->
<g id="edge50" class="edge">
<title>Node1&#45;&gt;Node95</title>
<path fill="none" stroke="midnightblue" d="M69.91,-228.5C128.73,-193.5 343.98,-77.2 507,-143 545.34,-158.48 577.07,-196.81 593.46,-219.78"/>
<polygon fill="midnightblue" stroke="midnightblue" points="590.78,-222.05 599.34,-228.29 596.54,-218.07 590.78,-222.05"/>
</g>
<!-- Node89 -->
<g id="node26" class="node">
<title>Node89</title>
<g id="a_node26"><a xlink:href="quickjs_8h.html#a89b7c8686c7eee70b86be722ee4730ad" target="_top" xlink:title=" ">
<polygon fill="none" stroke="black" points="400,-950.5 400,-969.5 489,-969.5 489,-950.5 400,-950.5"/>
<text text-anchor="middle" x="444.5" y="-957.5" font-family="Helvetica,sans-Serif" font-size="10.00">JS_GetProperty</text>
</a>
</g>
</g>
<!-- Node1&#45;&gt;Node89 -->
<g id="edge49" class="edge">
<title>Node1&#45;&gt;Node89</title>
<path fill="none" stroke="midnightblue" d="M55.52,-247.72C62.21,-307.48 104.57,-629.14 259,-826 302.55,-881.51 374.87,-924.67 414.81,-945.78"/>
<polygon fill="midnightblue" stroke="midnightblue" points="413.27,-948.92 423.76,-950.42 416.5,-942.71 413.27,-948.92"/>
</g>
<!-- Node218 -->
<g id="node28" class="node">
<title>Node218</title>
<g id="a_node28"><a xlink:href="quickjs_8h.html#a149f24b67e745bad93573b3b4c80db4c" target="_top" xlink:title=" ">
<polygon fill="none" stroke="black" points="415,-190.5 415,-209.5 474,-209.5 474,-190.5 415,-190.5"/>
<text text-anchor="middle" x="444.5" y="-197.5" font-family="Helvetica,sans-Serif" font-size="10.00">JS_IsNull</text>
</a>
</g>
</g>
<!-- Node1&#45;&gt;Node218 -->
<g id="edge52" class="edge">
<title>Node1&#45;&gt;Node218</title>
<path fill="none" stroke="midnightblue" d="M107.25,-234.62C165.71,-230.65 262.74,-223.4 346,-214 365.46,-211.8 387.02,-208.77 404.91,-206.09"/>
<polygon fill="midnightblue" stroke="midnightblue" points="405.61,-209.52 414.97,-204.56 404.56,-202.6 405.61,-209.52"/>
</g>
<!-- Node126 -->
<g id="node29" class="node">
<title>Node126</title>
<g id="a_node29"><a xlink:href="quickjs_8h.html#a4e407128a9605afb77523e49e9a627fd" target="_top" xlink:title=" ">
<polygon fill="none" stroke="black" points="400,-152.5 400,-171.5 489,-171.5 489,-152.5 400,-152.5"/>
<text text-anchor="middle" x="444.5" y="-159.5" font-family="Helvetica,sans-Serif" font-size="10.00">JS_IsUndefined</text>
</a>
</g>
</g>
<!-- Node1&#45;&gt;Node126 -->
<g id="edge53" class="edge">
<title>Node1&#45;&gt;Node126</title>
<path fill="none" stroke="midnightblue" d="M103.37,-228.45C176.61,-214.14 314.29,-187.24 390.09,-172.44"/>
<polygon fill="midnightblue" stroke="midnightblue" points="390.77,-175.87 399.91,-170.52 389.43,-169 390.77,-175.87"/>
</g>
<!-- Node222 -->
<g id="node30" class="node">
<title>Node222</title>
<g id="a_node30"><a xlink:href="quickjs_8c.html#a1ca9cdb1fa2ffc3e6506e92b200e490f" target="_top" xlink:title=" ">
<polygon fill="none" stroke="black" points="143,-0.5 143,-19.5 223,-19.5 223,-0.5 143,-0.5"/>
<text text-anchor="middle" x="183" y="-7.5" font-family="Helvetica,sans-Serif" font-size="10.00">JS_IsFunction</text>
</a>
</g>
</g>
<!-- Node1&#45;&gt;Node222 -->
<g id="edge51" class="edge">
<title>Node1&#45;&gt;Node222</title>
<path fill="none" stroke="midnightblue" d="M56.49,-228.37C63.4,-197.04 88.88,-96.42 143,-34 145.81,-30.76 149.17,-27.81 152.73,-25.19"/>
<polygon fill="midnightblue" stroke="midnightblue" points="154.74,-28.05 161.2,-19.65 150.91,-22.19 154.74,-28.05"/>
</g>
<!-- Node3 -->
<g id="node3" class="node">
<title>Node3</title>
<g id="a_node3"><a xlink:href="quickjs_8c.html#a06ff303a11e6641cbf1f6634e6a61811" target="_top" xlink:title=" ">
<polygon fill="none" stroke="black" points="554,-907.5 554,-926.5 659,-926.5 659,-907.5 554,-907.5"/>
<text text-anchor="middle" x="606.5" y="-914.5" font-family="Helvetica,sans-Serif" font-size="10.00">__JS_AtomToValue</text>
</a>
</g>
</g>
<!-- Node2&#45;&gt;Node3 -->
<g id="edge2" class="edge">
<title>Node2&#45;&gt;Node3</title>
<path fill="none" stroke="midnightblue" d="M481.86,-988.5C490.28,-985.82 499.08,-982.64 507,-979 535.21,-966.04 565.05,-946.3 584.39,-932.59"/>
<polygon fill="midnightblue" stroke="midnightblue" points="586.67,-935.26 592.74,-926.58 582.58,-929.58 586.67,-935.26"/>
</g>
<!-- Node4 -->
<g id="node4" class="node">
<title>Node4</title>
<g id="a_node4"><a xlink:href="quickjs_8c.html#a288254c06a39c9fca740a7abdad2834e" target="_top" xlink:title=" ">
<polygon fill="none" stroke="black" points="706,-869.5 706,-888.5 829,-888.5 829,-869.5 706,-869.5"/>
<text text-anchor="middle" x="767.5" y="-876.5" font-family="Helvetica,sans-Serif" font-size="10.00">__JS_AtomIsTaggedInt</text>
</a>
</g>
</g>
<!-- Node3&#45;&gt;Node4 -->
<g id="edge3" class="edge">
<title>Node3&#45;&gt;Node4</title>
<path fill="none" stroke="midnightblue" d="M647.62,-907.41C668.6,-902.4 694.48,-896.21 716.73,-890.89"/>
<polygon fill="midnightblue" stroke="midnightblue" points="717.75,-894.25 726.67,-888.52 716.13,-887.44 717.75,-894.25"/>
</g>
<!-- Node5 -->
<g id="node5" class="node">
<title>Node5</title>
<g id="a_node5"><a xlink:href="quickjs_8c.html#a89f38938cee8077ce1fbba07946ed185" target="_top" xlink:title=" ">
<polygon fill="none" stroke="black" points="712.5,-907.5 712.5,-926.5 822.5,-926.5 822.5,-907.5 712.5,-907.5"/>
<text text-anchor="middle" x="767.5" y="-914.5" font-family="Helvetica,sans-Serif" font-size="10.00">__JS_AtomToUInt32</text>
</a>
</g>
</g>
<!-- Node3&#45;&gt;Node5 -->
<g id="edge4" class="edge">
<title>Node3&#45;&gt;Node5</title>
<path fill="none" stroke="midnightblue" d="M659.12,-917C672.84,-917 687.83,-917 702.13,-917"/>
<polygon fill="midnightblue" stroke="midnightblue" points="702.4,-920.5 712.4,-917 702.4,-913.5 702.4,-920.5"/>
</g>
<!-- Node6 -->
<g id="node6" class="node">
<title>Node6</title>
<g id="a_node6"><a xlink:href="quickjs_8h.html#a775522f2d084fc8fa0fcb33f390006b4" target="_top" xlink:title=" ">
<polygon fill="none" stroke="black" points="729,-608.5 729,-627.5 806,-627.5 806,-608.5 729,-608.5"/>
<text text-anchor="middle" x="767.5" y="-615.5" font-family="Helvetica,sans-Serif" font-size="10.00">JS_DupValue</text>
</a>
</g>
</g>
<!-- Node3&#45;&gt;Node6 -->
<g id="edge5" class="edge">
<title>Node3&#45;&gt;Node6</title>
<path fill="none" stroke="midnightblue" d="M656.16,-907.39C661.24,-904.93 666,-901.86 670,-898 679.91,-888.45 740.76,-698.95 760.4,-637.24"/>
<polygon fill="midnightblue" stroke="midnightblue" points="763.78,-638.17 763.47,-627.58 757.11,-636.05 763.78,-638.17"/>
</g>
<!-- Node7 -->
<g id="node7" class="node">
<title>Node7</title>
<g id="a_node7"><a xlink:href="quickjs_8c.html#a0ee6a3654a6016393fac5e1c108f403a" target="_top" xlink:title=" ">
<polygon fill="none" stroke="red" points="727,-822.5 727,-841.5 808,-841.5 808,-822.5 727,-822.5"/>
<text text-anchor="middle" x="767.5" y="-829.5" font-family="Helvetica,sans-Serif" font-size="10.00">JS_NewString</text>
</a>
</g>
</g>
<!-- Node3&#45;&gt;Node7 -->
<g id="edge6" class="edge">
<title>Node3&#45;&gt;Node7</title>
<path fill="none" stroke="midnightblue" d="M649.82,-907.41C656.83,-904.91 663.83,-901.82 670,-898 689.79,-885.77 687.11,-873.57 706,-860 713.58,-854.55 722.39,-849.76 730.9,-845.75"/>
<polygon fill="midnightblue" stroke="midnightblue" points="732.59,-848.83 740.3,-841.56 729.74,-842.43 732.59,-848.83"/>
</g>
<!-- Node31 -->
<g id="node9" class="node">
<title>Node31</title>
<g id="a_node9"><a xlink:href="quickjs_8c.html#ac2894ff4edcdb4e6841bcce9c76081e3" target="_top" xlink:title=" ">
<polygon fill="none" stroke="red" points="259,-513.5 259,-532.5 346,-532.5 346,-513.5 259,-513.5"/>
<text text-anchor="middle" x="302.5" y="-520.5" font-family="Helvetica,sans-Serif" font-size="10.00">JS_CallInternal</text>
</a>
</g>
</g>
<!-- Node30&#45;&gt;Node31 -->
<g id="edge8" class="edge">
<title>Node30&#45;&gt;Node31</title>
<path fill="none" stroke="midnightblue" d="M218.62,-516.78C228.06,-516.34 238.51,-516.17 248.72,-516.28"/>
<polygon fill="midnightblue" stroke="midnightblue" points="248.73,-519.78 258.8,-516.48 248.87,-512.78 248.73,-519.78"/>
</g>
<!-- Node30&#45;&gt;Node78 -->
<g id="edge47" class="edge">
<title>Node30&#45;&gt;Node78</title>
<path fill="none" stroke="midnightblue" d="M185.44,-513.18C193.41,-462.64 237.3,-230.77 382,-143 495.19,-74.35 567.88,-134.76 670,-219 709.98,-251.98 741.82,-305.14 756.93,-333.22"/>
<polygon fill="midnightblue" stroke="midnightblue" points="753.98,-335.13 761.73,-342.35 760.18,-331.87 753.98,-335.13"/>
</g>
<!-- Node31&#45;&gt;Node1 -->
<g id="edge46" class="edge">
<title>Node31&#45;&gt;Node1</title>
<path fill="none" stroke="midnightblue" d="M293.03,-513.23C257.03,-471.69 116.36,-309.37 69.66,-255.49"/>
<polygon fill="midnightblue" stroke="midnightblue" points="72.2,-253.07 63,-247.81 66.91,-257.66 72.2,-253.07"/>
</g>
<!-- Node31&#45;&gt;Node2 -->
<g id="edge30" class="edge">
<title>Node31&#45;&gt;Node2</title>
<path fill="none" stroke="midnightblue" d="M303.83,-532.81C306.06,-592.73 320.63,-909.14 382,-979 383.74,-980.98 385.69,-982.76 387.78,-984.36"/>
<polygon fill="midnightblue" stroke="midnightblue" points="386.13,-987.45 396.49,-989.65 389.76,-981.47 386.13,-987.45"/>
</g>
<!-- Node31&#45;&gt;Node6 -->
<g id="edge33" class="edge">
<title>Node31&#45;&gt;Node6</title>
<path fill="none" stroke="midnightblue" d="M319.5,-532.67C335,-541.66 359.41,-554.86 382,-563 497.95,-604.75 644.31,-614.92 718.57,-617.32"/>
<polygon fill="midnightblue" stroke="midnightblue" points="718.89,-620.83 728.99,-617.62 719.09,-613.84 718.89,-620.83"/>
</g>
<!-- Node31&#45;&gt;Node30 -->
<g id="edge31" class="edge">
<title>Node31&#45;&gt;Node30</title>
<path fill="none" stroke="midnightblue" d="M258.8,-529.52C249,-529.81 238.55,-529.83 228.66,-529.57"/>
<polygon fill="midnightblue" stroke="midnightblue" points="228.74,-526.07 218.62,-529.22 228.49,-533.07 228.74,-526.07"/>
</g>
<!-- Node31&#45;&gt;Node31 -->
<g id="edge32" class="edge">
<title>Node31&#45;&gt;Node31</title>
<path fill="none" stroke="midnightblue" d="M284.31,-532.76C275.46,-541.57 281.53,-551 302.5,-551 315.94,-551 323.25,-547.13 324.45,-542.03"/>
<polygon fill="midnightblue" stroke="midnightblue" points="327.69,-540.71 320.69,-532.76 321.2,-543.34 327.69,-540.71"/>
</g>
<!-- Node9 -->
<g id="node10" class="node">
<title>Node9</title>
<g id="a_node10"><a xlink:href="quickjs_8c.html#a853f0924d441ea4225488f37c8b69f9a" target="_top" xlink:title=" ">
<polygon fill="none" stroke="black" points="566.5,-513.5 566.5,-532.5 646.5,-532.5 646.5,-513.5 566.5,-513.5"/>
<text text-anchor="middle" x="606.5" y="-520.5" font-family="Helvetica,sans-Serif" font-size="10.00">__attribute__</text>
</a>
</g>
</g>
<!-- Node31&#45;&gt;Node9 -->
<g id="edge9" class="edge">
<title>Node31&#45;&gt;Node9</title>
<path fill="none" stroke="midnightblue" d="M346.13,-523C401.5,-523 497.96,-523 556.35,-523"/>
<polygon fill="midnightblue" stroke="midnightblue" points="556.44,-526.5 566.44,-523 556.44,-519.5 556.44,-526.5"/>
</g>
<!-- Node32 -->
<g id="node11" class="node">
<title>Node32</title>
<g id="a_node11"><a xlink:href="quickjs_8c.html#a877fcb7651d95b411ce70e62b7f4a1f0" target="_top" xlink:title=" ">
<polygon fill="none" stroke="black" points="382,-304.5 382,-323.5 507,-323.5 507,-304.5 382,-304.5"/>
<text text-anchor="middle" x="444.5" y="-311.5" font-family="Helvetica,sans-Serif" font-size="10.00">__JS_AtomFromUInt32</text>
</a>
</g>
</g>
<!-- Node31&#45;&gt;Node32 -->
<g id="edge10" class="edge">
<title>Node31&#45;&gt;Node32</title>
<path fill="none" stroke="midnightblue" d="M304.89,-513.48C309.75,-483.46 328.69,-389.78 382,-338 386.06,-334.06 390.84,-330.74 395.91,-327.96"/>
<polygon fill="midnightblue" stroke="midnightblue" points="397.75,-330.97 405.27,-323.51 394.74,-324.65 397.75,-330.97"/>
</g>
<!-- Node33 -->
<g id="node12" class="node">
<title>Node33</title>
<g id="a_node12"><a xlink:href="quickjs_8h.html#a9bf98b18de88b4199910a43e933eb97d" target="_top" xlink:title=" ">
<polygon fill="none" stroke="black" points="394.5,-266.5 394.5,-285.5 494.5,-285.5 494.5,-266.5 394.5,-266.5"/>
<text text-anchor="middle" x="444.5" y="-273.5" font-family="Helvetica,sans-Serif" font-size="10.00">__JS_NewFloat64</text>
</a>
</g>
</g>
<!-- Node31&#45;&gt;Node33 -->
<g id="edge11" class="edge">
<title>Node31&#45;&gt;Node33</title>
<path fill="none" stroke="midnightblue" d="M303.87,-513.14C305.71,-478.08 316.75,-358.2 382,-295 383.63,-293.42 385.39,-291.97 387.25,-290.64"/>
<polygon fill="midnightblue" stroke="midnightblue" points="389.06,-293.64 395.92,-285.56 385.52,-287.6 389.06,-293.64"/>
</g>
<!-- Node34 -->
<g id="node13" class="node">
<title>Node34</title>
<g id="a_node13"><a xlink:href="quickjs_8c.html#a74547db03bf739a52c83a326b32db997" target="_top" xlink:title=" ">
<polygon fill="none" stroke="red" points="404,-836.5 404,-855.5 485,-855.5 485,-836.5 404,-836.5"/>
<text text-anchor="middle" x="444.5" y="-843.5" font-family="Helvetica,sans-Serif" font-size="10.00">add_property</text>
</a>
</g>
</g>
<!-- Node31&#45;&gt;Node34 -->
<g id="edge12" class="edge">
<title>Node31&#45;&gt;Node34</title>
<path fill="none" stroke="midnightblue" d="M303.09,-532.71C301.92,-573.52 302.75,-733.04 382,-822 385.67,-826.12 390.13,-829.54 394.96,-832.37"/>
<polygon fill="midnightblue" stroke="midnightblue" points="393.45,-835.53 403.95,-836.87 396.58,-829.27 393.45,-835.53"/>
</g>
<!-- Node86 -->
<g id="node14" class="node">
<title>Node86</title>
<g id="a_node14"><a xlink:href="quickjs_8c.html#a4956f45ffd2849b96dc051277264f87a" target="_top" xlink:title=" ">
<polygon fill="none" stroke="red" points="403.5,-418.5 403.5,-437.5 485.5,-437.5 485.5,-418.5 403.5,-418.5"/>
<text text-anchor="middle" x="444.5" y="-425.5" font-family="Helvetica,sans-Serif" font-size="10.00">build_arg_list</text>
</a>
</g>
</g>
<!-- Node31&#45;&gt;Node86 -->
<g id="edge13" class="edge">
<title>Node31&#45;&gt;Node86</title>
<path fill="none" stroke="midnightblue" d="M310.88,-513.35C323.66,-497.29 351.47,-465.07 382,-447 385.68,-444.82 389.63,-442.87 393.69,-441.13"/>
<polygon fill="midnightblue" stroke="midnightblue" points="395.22,-444.29 403.29,-437.43 392.7,-437.76 395.22,-444.29"/>
</g>
<!-- Node87 -->
<g id="node15" class="node">
<title>Node87</title>
<g id="a_node15"><a xlink:href="quickjs_8c.html#ac864482356b3efc2d0b0a509fcfa4c7c" target="_top" xlink:title=" ">
<polygon fill="none" stroke="red" points="568,-380.5 568,-399.5 645,-399.5 645,-380.5 568,-380.5"/>
<text text-anchor="middle" x="606.5" y="-387.5" font-family="Helvetica,sans-Serif" font-size="10.00">free_arg_list</text>
</a>
</g>
</g>
<!-- Node31&#45;&gt;Node87 -->
<g id="edge24" class="edge">
<title>Node31&#45;&gt;Node87</title>
<path fill="none" stroke="midnightblue" d="M306.9,-513.18C315.42,-490.27 340.03,-433.38 382,-409 435.96,-377.65 509.94,-378.11 557.73,-382.83"/>
<polygon fill="midnightblue" stroke="midnightblue" points="557.49,-386.32 567.81,-383.93 558.25,-379.36 557.49,-386.32"/>
</g>
<!-- Node31&#45;&gt;Node78 -->
<g id="edge34" class="edge">
<title>Node31&#45;&gt;Node78</title>
<path fill="none" stroke="midnightblue" d="M305.32,-513.26C311,-485.98 331.14,-408.7 382,-376 436.24,-341.13 626.9,-345.17 717.71,-349.29"/>
<polygon fill="midnightblue" stroke="midnightblue" points="717.6,-352.79 727.75,-349.77 717.93,-345.8 717.6,-352.79"/>
</g>
<!-- Node31&#45;&gt;Node95 -->
<g id="edge43" class="edge">
<title>Node31&#45;&gt;Node95</title>
<path fill="none" stroke="midnightblue" d="M304.87,-513.46C311.32,-469.97 340.12,-291.17 382,-257 429.57,-218.19 503.3,-219.98 552.94,-227.07"/>
<polygon fill="midnightblue" stroke="midnightblue" points="552.42,-230.53 562.84,-228.6 553.49,-223.62 552.42,-230.53"/>
</g>
<!-- Node157 -->
<g id="node18" class="node">
<title>Node157</title>
<g id="a_node18"><a xlink:href="quickjs_8c.html#a61c8dfb5e807af1b6ff7d8ca61576dda" target="_top" xlink:title=" ">
<polygon fill="none" stroke="red" points="559.5,-803.5 559.5,-822.5 653.5,-822.5 653.5,-803.5 559.5,-803.5"/>
<text text-anchor="middle" x="606.5" y="-810.5" font-family="Helvetica,sans-Serif" font-size="10.00">build_backtrace</text>
</a>
</g>
</g>
<!-- Node31&#45;&gt;Node157 -->
<g id="edge19" class="edge">
<title>Node31&#45;&gt;Node157</title>
<path fill="none" stroke="midnightblue" d="M304.89,-532.52C311.42,-575.91 340.5,-754.37 382,-789 428.11,-827.48 499.56,-828.37 549.21,-822.96"/>
<polygon fill="midnightblue" stroke="midnightblue" points="549.64,-826.43 559.14,-821.76 548.8,-819.48 549.64,-826.43"/>
</g>
<!-- Node246 -->
<g id="node19" class="node">
<title>Node246</title>
<g id="a_node19"><a xlink:href="quickjs_8c.html#a344894112559c2ba75043fd10bcfa02f" target="_top" xlink:title=" ">
<polygon fill="none" stroke="red" points="556,-570.5 556,-589.5 657,-589.5 657,-570.5 556,-570.5"/>
<text text-anchor="middle" x="606.5" y="-577.5" font-family="Helvetica,sans-Serif" font-size="10.00">close_lexical_var</text>
</a>
</g>
</g>
<!-- Node31&#45;&gt;Node246 -->
<g id="edge21" class="edge">
<title>Node31&#45;&gt;Node246</title>
<path fill="none" stroke="midnightblue" d="M346.13,-531.05C398.31,-540.89 486.98,-557.63 545.9,-568.75"/>
<polygon fill="midnightblue" stroke="midnightblue" points="545.34,-572.21 555.81,-570.62 546.63,-565.33 545.34,-572.21"/>
</g>
<!-- Node247 -->
<g id="node20" class="node">
<title>Node247</title>
<g id="a_node20"><a xlink:href="quickjs_8c.html#a1782043fce951bd4f0d91c7796b31e24" target="_top" xlink:title=" ">
<polygon fill="none" stroke="red" points="401,-760.5 401,-779.5 488,-779.5 488,-760.5 401,-760.5"/>
<text text-anchor="middle" x="444.5" y="-767.5" font-family="Helvetica,sans-Serif" font-size="10.00">close_var_refs</text>
</a>
</g>
</g>
<!-- Node31&#45;&gt;Node247 -->
<g id="edge23" class="edge">
<title>Node31&#45;&gt;Node247</title>
<path fill="none" stroke="midnightblue" d="M303.87,-532.86C305.71,-567.92 316.75,-687.8 382,-751 384.9,-753.81 388.2,-756.2 391.74,-758.24"/>
<polygon fill="midnightblue" stroke="midnightblue" points="390.38,-761.47 400.91,-762.62 393.39,-755.15 390.38,-761.47"/>
</g>
<!-- Node75 -->
<g id="node21" class="node">
<title>Node75</title>
<g id="a_node21"><a xlink:href="quickjs_8c.html#a9e7b4bccf927d811b0f99b40b08c0472" target="_top" xlink:title=" ">
<polygon fill="none" stroke="red" points="406.5,-722.5 406.5,-741.5 482.5,-741.5 482.5,-722.5 406.5,-722.5"/>
<text text-anchor="middle" x="444.5" y="-729.5" font-family="Helvetica,sans-Serif" font-size="10.00">free_var_ref</text>
</a>
</g>
</g>
<!-- Node31&#45;&gt;Node75 -->
<g id="edge25" class="edge">
<title>Node31&#45;&gt;Node75</title>
<path fill="none" stroke="midnightblue" d="M304.59,-532.51C308.63,-563.34 325.56,-661.54 382,-713 386.34,-716.96 391.48,-720.09 396.93,-722.57"/>
<polygon fill="midnightblue" stroke="midnightblue" points="395.68,-725.84 406.27,-726.16 398.19,-719.3 395.68,-725.84"/>
</g>
<!-- Node249 -->
<g id="node22" class="node">
<title>Node249</title>
<g id="a_node22"><a xlink:href="cutils_8h.html#a7c82a3ee025fee89db5b11ff5b7691b8" target="_top" xlink:title=" ">
<polygon fill="none" stroke="black" points="418,-684.5 418,-703.5 471,-703.5 471,-684.5 418,-684.5"/>
<text text-anchor="middle" x="444.5" y="-691.5" font-family="Helvetica,sans-Serif" font-size="10.00">get_i16</text>
</a>
</g>
</g>
<!-- Node31&#45;&gt;Node249 -->
<g id="edge26" class="edge">
<title>Node31&#45;&gt;Node249</title>
<path fill="none" stroke="midnightblue" d="M305.75,-532.85C312.41,-559.79 334.63,-635.35 382,-675 389.43,-681.22 398.87,-685.4 408.12,-688.22"/>
<polygon fill="midnightblue" stroke="midnightblue" points="407.41,-691.65 417.97,-690.77 409.17,-684.87 407.41,-691.65"/>
</g>
<!-- Node250 -->
<g id="node23" class="node">
<title>Node250</title>
<g id="a_node23"><a xlink:href="cutils_8h.html#a288ee4e688944e23500af2ecc813c306" target="_top" xlink:title=" ">
<polygon fill="none" stroke="black" points="421,-646.5 421,-665.5 468,-665.5 468,-646.5 421,-646.5"/>
<text text-anchor="middle" x="444.5" y="-653.5" font-family="Helvetica,sans-Serif" font-size="10.00">get_i8</text>
</a>
</g>
</g>
<!-- Node31&#45;&gt;Node250 -->
<g id="edge27" class="edge">
<title>Node31&#45;&gt;Node250</title>
<path fill="none" stroke="midnightblue" d="M307.99,-532.58C318.23,-553.48 345.32,-603.57 382,-632 390.56,-638.64 401.18,-643.64 411.17,-647.32"/>
<polygon fill="midnightblue" stroke="midnightblue" points="410.27,-650.71 420.86,-650.56 412.49,-644.07 410.27,-650.71"/>
</g>
<!-- Node251 -->
<g id="node24" class="node">
<title>Node251</title>
<g id="a_node24"><a xlink:href="cutils_8h.html#ad587834d17e95461893d59661e5e9676" target="_top" xlink:title=" ">
<polygon fill="none" stroke="black" points="416.5,-494.5 416.5,-513.5 472.5,-513.5 472.5,-494.5 416.5,-494.5"/>
<text text-anchor="middle" x="444.5" y="-501.5" font-family="Helvetica,sans-Serif" font-size="10.00">get_u16</text>
</a>
</g>
</g>
<!-- Node31&#45;&gt;Node251 -->
<g id="edge28" class="edge">
<title>Node31&#45;&gt;Node251</title>
<path fill="none" stroke="midnightblue" d="M346.27,-517.2C365.45,-514.59 387.86,-511.55 406.33,-509.04"/>
<polygon fill="midnightblue" stroke="midnightblue" points="406.97,-512.49 416.41,-507.68 406.03,-505.55 406.97,-512.49"/>
</g>
<!-- Node71 -->
<g id="node25" class="node">
<title>Node71</title>
<g id="a_node25"><a xlink:href="cutils_8h.html#a941262a5f72fda2ec43ae7911e97a0dc" target="_top" xlink:title=" ">
<polygon fill="none" stroke="black" points="416.5,-456.5 416.5,-475.5 472.5,-475.5 472.5,-456.5 416.5,-456.5"/>
<text text-anchor="middle" x="444.5" y="-463.5" font-family="Helvetica,sans-Serif" font-size="10.00">get_u32</text>
</a>
</g>
</g>
<!-- Node31&#45;&gt;Node71 -->
<g id="edge29" class="edge">
<title>Node31&#45;&gt;Node71</title>
<path fill="none" stroke="midnightblue" d="M321.24,-513.46C336.93,-505.25 360.59,-493.43 382,-485 389.84,-481.91 398.39,-479 406.55,-476.42"/>
<polygon fill="midnightblue" stroke="midnightblue" points="407.71,-479.73 416.25,-473.45 405.67,-473.03 407.71,-479.73"/>
</g>
<!-- Node31&#45;&gt;Node89 -->
<g id="edge35" class="edge">
<title>Node31&#45;&gt;Node89</title>
<path fill="none" stroke="midnightblue" d="M303.56,-532.66C304.21,-577.25 311.22,-766.52 382,-898 391.82,-916.24 408.68,-932.67 422.26,-944.03"/>
<polygon fill="midnightblue" stroke="midnightblue" points="420.22,-946.88 430.21,-950.42 424.61,-941.42 420.22,-946.88"/>
</g>
<!-- Node90 -->
<g id="node27" class="node">
<title>Node90</title>
<g id="a_node27"><a xlink:href="quickjs_8c.html#a5762c57ae0c9937e986040c01222833a" target="_top" xlink:title=" ">
<polygon fill="none" stroke="red" points="543,-869.5 543,-888.5 670,-888.5 670,-869.5 543,-869.5"/>
<text text-anchor="middle" x="606.5" y="-876.5" font-family="Helvetica,sans-Serif" font-size="10.00">JS_GetPropertyInternal</text>
</a>
</g>
</g>
<!-- Node31&#45;&gt;Node90 -->
<g id="edge42" class="edge">
<title>Node31&#45;&gt;Node90</title>
<path fill="none" stroke="midnightblue" d="M304.21,-532.77C308.15,-583.89 329.06,-820.06 382,-865 431.08,-906.66 510.18,-900.29 559.93,-890.58"/>
<polygon fill="midnightblue" stroke="midnightblue" points="560.69,-894 569.77,-888.55 559.27,-887.15 560.69,-894"/>
</g>
<!-- Node31&#45;&gt;Node218 -->
<g id="edge44" class="edge">
<title>Node31&#45;&gt;Node218</title>
<path fill="none" stroke="midnightblue" d="M303.09,-513.29C301.92,-472.48 302.75,-312.96 382,-224 388.15,-217.1 396.53,-212.16 405.12,-208.64"/>
<polygon fill="midnightblue" stroke="midnightblue" points="406.53,-211.85 414.8,-205.23 404.21,-205.25 406.53,-211.85"/>
</g>
<!-- Node31&#45;&gt;Node126 -->
<g id="edge45" class="edge">
<title>Node31&#45;&gt;Node126</title>
<path fill="none" stroke="midnightblue" d="M304.42,-513.45C309.4,-463.41 334.74,-231.89 382,-181 384.59,-178.22 387.57,-175.84 390.8,-173.8"/>
<polygon fill="midnightblue" stroke="midnightblue" points="392.51,-176.86 399.82,-169.19 389.33,-170.62 392.51,-176.86"/>
</g>
<!-- Node86&#45;&gt;Node6 -->
<g id="edge17" class="edge">
<title>Node86&#45;&gt;Node6</title>
<path fill="none" stroke="midnightblue" d="M485.81,-434.71C533.21,-444.1 612.7,-464.6 670,-504 707.89,-530.06 739.6,-574.72 755.5,-599.71"/>
<polygon fill="midnightblue" stroke="midnightblue" points="752.55,-601.59 760.8,-608.24 758.5,-597.9 752.55,-601.59"/>
</g>
<!-- Node86&#45;&gt;Node9 -->
<g id="edge14" class="edge">
<title>Node86&#45;&gt;Node9</title>
<path fill="none" stroke="midnightblue" d="M484.07,-437.6C491.87,-440.17 499.86,-443.3 507,-447 538.23,-463.2 569.6,-489.55 588.28,-506.58"/>
<polygon fill="midnightblue" stroke="midnightblue" points="585.99,-509.23 595.7,-513.47 590.75,-504.1 585.99,-509.23"/>
</g>
<!-- Node86&#45;&gt;Node87 -->
<g id="edge15" class="edge">
<title>Node86&#45;&gt;Node87</title>
<path fill="none" stroke="midnightblue" d="M485.87,-418.41C507.81,-413.2 535.06,-406.73 558.01,-401.28"/>
<polygon fill="midnightblue" stroke="midnightblue" points="558.97,-404.65 567.89,-398.93 557.35,-397.84 558.97,-404.65"/>
</g>
<!-- Node86&#45;&gt;Node95 -->
<g id="edge18" class="edge">
<title>Node86&#45;&gt;Node95</title>
<path fill="none" stroke="midnightblue" d="M453.65,-418.32C479.11,-388.09 557.39,-295.14 590.48,-255.84"/>
<polygon fill="midnightblue" stroke="midnightblue" points="593.41,-257.8 597.17,-247.89 588.05,-253.29 593.41,-257.8"/>
</g>
<!-- Node87&#45;&gt;Node78 -->
<g id="edge16" class="edge">
<title>Node87&#45;&gt;Node78</title>
<path fill="none" stroke="midnightblue" d="M645.18,-380.99C667.04,-375.77 694.79,-369.14 718.23,-363.54"/>
<polygon fill="midnightblue" stroke="midnightblue" points="719.07,-366.93 727.99,-361.2 717.45,-360.13 719.07,-366.93"/>
</g>
<!-- Node157&#45;&gt;Node7 -->
<g id="edge20" class="edge">
<title>Node157&#45;&gt;Node7</title>
<path fill="none" stroke="midnightblue" d="M653.92,-818.55C673.59,-820.9 696.55,-823.64 716.58,-826.03"/>
<polygon fill="midnightblue" stroke="midnightblue" points="716.41,-829.54 726.76,-827.25 717.24,-822.59 716.41,-829.54"/>
</g>
<!-- Node246&#45;&gt;Node6 -->
<g id="edge22" class="edge">
<title>Node246&#45;&gt;Node6</title>
<path fill="none" stroke="midnightblue" d="M647.62,-589.59C669.34,-594.78 696.3,-601.22 719.06,-606.66"/>
<polygon fill="midnightblue" stroke="midnightblue" points="718.31,-610.08 728.85,-609 719.94,-603.27 718.31,-610.08"/>
</g>
<!-- Node89&#45;&gt;Node90 -->
<g id="edge36" class="edge">
<title>Node89&#45;&gt;Node90</title>
<path fill="none" stroke="midnightblue" d="M477.79,-950.44C487.62,-946.74 498.16,-941.95 507,-936 526.3,-923.01 523.21,-910.23 543,-898 546.38,-895.91 550,-894.04 553.73,-892.36"/>
<polygon fill="midnightblue" stroke="midnightblue" points="555.2,-895.55 563.18,-888.59 552.6,-889.05 555.2,-895.55"/>
</g>
<!-- Node90&#45;&gt;Node4 -->
<g id="edge37" class="edge">
<title>Node90&#45;&gt;Node4</title>
<path fill="none" stroke="midnightblue" d="M670.34,-879C678.67,-879 687.26,-879 695.71,-879"/>
<polygon fill="midnightblue" stroke="midnightblue" points="695.93,-882.5 705.93,-879 695.93,-875.5 695.93,-882.5"/>
</g>
<!-- Node90&#45;&gt;Node5 -->
<g id="edge38" class="edge">
<title>Node90&#45;&gt;Node5</title>
<path fill="none" stroke="midnightblue" d="M647.62,-888.59C668.6,-893.6 694.48,-899.79 716.73,-905.11"/>
<polygon fill="midnightblue" stroke="midnightblue" points="716.13,-908.56 726.67,-907.48 717.75,-901.75 716.13,-908.56"/>
</g>
<!-- Node90&#45;&gt;Node6 -->
<g id="edge40" class="edge">
<title>Node90&#45;&gt;Node6</title>
<path fill="none" stroke="midnightblue" d="M624.78,-869.34C638.52,-860.95 657.45,-847.69 670,-832 719.81,-769.75 749.84,-677.69 761.24,-637.72"/>
<polygon fill="midnightblue" stroke="midnightblue" points="764.66,-638.46 763.96,-627.89 757.92,-636.59 764.66,-638.46"/>
</g>
<!-- Node90&#45;&gt;Node30 -->
<g id="edge39" class="edge">
<title>Node90&#45;&gt;Node30</title>
<path fill="none" stroke="midnightblue" d="M558.86,-888.51C502.24,-899 410.76,-912.27 382,-895 247.39,-814.16 199.32,-607.42 187.3,-542.68"/>
<polygon fill="midnightblue" stroke="midnightblue" points="190.7,-541.85 185.51,-532.62 183.81,-543.08 190.7,-541.85"/>
</g>
<!-- Node90&#45;&gt;Node78 -->
<g id="edge41" class="edge">
<title>Node90&#45;&gt;Node78</title>
<path fill="none" stroke="midnightblue" d="M627.45,-869.35C641.69,-861.37 660.02,-848.66 670,-832 723.84,-742.11 685.52,-701.76 706,-599 723.03,-513.55 749.76,-413.05 761.11,-371.49"/>
<polygon fill="midnightblue" stroke="midnightblue" points="764.5,-372.38 763.77,-361.81 757.75,-370.53 764.5,-372.38"/>
</g>
</g>
</svg>
