<?xml version="1.0" encoding="UTF-8" standalone="no"?>
<!DOCTYPE svg PUBLIC "-//W3C//DTD SVG 1.1//EN"
 "http://www.w3.org/Graphics/SVG/1.1/DTD/svg11.dtd">
<!-- Generated by graphviz version 2.43.0 (0)
 -->
<!-- Title: js_link_module Pages: 1 -->
<svg width="809pt" height="1073pt"
 viewBox="0.00 0.00 809.00 1072.56" xmlns="http://www.w3.org/2000/svg" xmlns:xlink="http://www.w3.org/1999/xlink">
<g id="graph0" class="graph" transform="scale(1 1) rotate(0) translate(4 1068.56)">
<title>js_link_module</title>
<!-- Node1 -->
<g id="node1" class="node">
<title>Node1</title>
<g id="a_node1"><a xlink:title=" ">
<polygon fill="#bfbfbf" stroke="black" points="0,-145 0,-164 90,-164 90,-145 0,-145"/>
<text text-anchor="middle" x="45" y="-152" font-family="Helvetica,sans-Serif" font-size="10.00">js_link_module</text>
</a>
</g>
</g>
<!-- Node1&#45;&gt;Node1 -->
<g id="edge42" class="edge">
<title>Node1&#45;&gt;Node1</title>
<path fill="none" stroke="midnightblue" d="M22.19,-164.26C11.09,-173.07 18.7,-182.5 45,-182.5 62.26,-182.5 71.47,-178.44 72.63,-173.15"/>
<polygon fill="midnightblue" stroke="midnightblue" points="75.65,-171.39 67.81,-164.26 69.49,-174.72 75.65,-171.39"/>
</g>
<!-- Node2 -->
<g id="node2" class="node">
<title>Node2</title>
<g id="a_node2"><a xlink:href="quickjs_8c.html#a1a4c02a29525d5cb2085dd8bca3af350" target="_top" xlink:title=" ">
<polygon fill="none" stroke="black" points="169,-525 169,-544 219,-544 219,-525 169,-525"/>
<text text-anchor="middle" x="194" y="-532" font-family="Helvetica,sans-Serif" font-size="10.00">JS_Call</text>
</a>
</g>
</g>
<!-- Node1&#45;&gt;Node2 -->
<g id="edge1" class="edge">
<title>Node1&#45;&gt;Node2</title>
<path fill="none" stroke="midnightblue" d="M49.78,-164.28C69.32,-214.78 158.94,-446.44 185.54,-515.2"/>
<polygon fill="midnightblue" stroke="midnightblue" points="182.37,-516.73 189.24,-524.79 188.9,-514.2 182.37,-516.73"/>
</g>
<!-- Node57 -->
<g id="node10" class="node">
<title>Node57</title>
<g id="a_node10"><a xlink:href="quickjs_8h.html#afaa20c47565bc704c6c85f3d77254e7d" target="_top" xlink:title=" ">
<polygon fill="none" stroke="red" points="722,-183 722,-202 801,-202 801,-183 722,-183"/>
<text text-anchor="middle" x="761.5" y="-190" font-family="Helvetica,sans-Serif" font-size="10.00">JS_FreeValue</text>
</a>
</g>
</g>
<!-- Node1&#45;&gt;Node57 -->
<g id="edge36" class="edge">
<title>Node1&#45;&gt;Node57</title>
<path fill="none" stroke="midnightblue" d="M76.18,-144.96C130.27,-128.73 247.57,-97.5 349,-97.5 349,-97.5 349,-97.5 501.5,-97.5 593.39,-97.5 693.01,-150.86 737.17,-177.6"/>
<polygon fill="midnightblue" stroke="midnightblue" points="735.38,-180.6 745.73,-182.87 739.05,-174.64 735.38,-180.6"/>
</g>
<!-- Node75 -->
<g id="node12" class="node">
<title>Node75</title>
<g id="a_node12"><a xlink:href="quickjs_8h.html#ad80a83d73e9b7d872b88fbf2943aebe9" target="_top" xlink:title=" ">
<polygon fill="none" stroke="black" points="599,-981 599,-1000 686,-1000 686,-981 599,-981"/>
<text text-anchor="middle" x="642.5" y="-988" font-family="Helvetica,sans-Serif" font-size="10.00">JS_IsException</text>
</a>
</g>
</g>
<!-- Node1&#45;&gt;Node75 -->
<g id="edge41" class="edge">
<title>Node1&#45;&gt;Node75</title>
<path fill="none" stroke="midnightblue" d="M46.05,-164.32C46.64,-219.72 53.21,-498.27 126,-709.5 176.07,-854.81 174.18,-918.45 298,-1009.5 393.53,-1079.75 449.15,-1073.68 563,-1040.5 585.56,-1033.92 607.83,-1018.68 622.85,-1006.74"/>
<polygon fill="midnightblue" stroke="midnightblue" points="625.32,-1009.24 630.81,-1000.18 620.86,-1003.84 625.32,-1009.24"/>
</g>
<!-- Node227 -->
<g id="node26" class="node">
<title>Node227</title>
<g id="a_node26"><a xlink:href="quickjs_8c.html#a0ec52a675282f321a6f42aa1298a53fe" target="_top" xlink:title=" ">
<polygon fill="none" stroke="black" points="468.5,-164 468.5,-183 532.5,-183 532.5,-164 468.5,-164"/>
<text text-anchor="middle" x="500.5" y="-171" font-family="Helvetica,sans-Serif" font-size="10.00">set_value</text>
</a>
</g>
</g>
<!-- Node1&#45;&gt;Node227 -->
<g id="edge46" class="edge">
<title>Node1&#45;&gt;Node227</title>
<path fill="none" stroke="midnightblue" d="M90.01,-156.78C101.71,-157.36 114.33,-157.97 126,-158.5 246.55,-163.93 389.04,-169.39 457.99,-171.97"/>
<polygon fill="midnightblue" stroke="midnightblue" points="457.89,-175.46 468.01,-172.34 458.15,-168.47 457.89,-175.46"/>
</g>
<!-- Node360 -->
<g id="node27" class="node">
<title>Node360</title>
<g id="a_node27"><a xlink:href="quickjs_8c.html#a66b74f17c8f724e92b6d7e3856e12b1e" target="_top" xlink:title=" ">
<polygon fill="none" stroke="red" points="132,-50 132,-69 256,-69 256,-50 132,-50"/>
<text text-anchor="middle" x="194" y="-57" font-family="Helvetica,sans-Serif" font-size="10.00">js_create_module_var</text>
</a>
</g>
</g>
<!-- Node1&#45;&gt;Node360 -->
<g id="edge35" class="edge">
<title>Node1&#45;&gt;Node360</title>
<path fill="none" stroke="midnightblue" d="M54.45,-144.94C68.14,-129.98 96.6,-100.92 126,-83.5 133.1,-79.29 141.06,-75.64 148.95,-72.55"/>
<polygon fill="midnightblue" stroke="midnightblue" points="150.29,-75.79 158.47,-69.06 147.88,-69.22 150.29,-75.79"/>
</g>
<!-- Node339 -->
<g id="node28" class="node">
<title>Node339</title>
<g id="a_node28"><a xlink:href="quickjs_8c.html#a2f5aeb4e31e2001c555335ae5172165b" target="_top" xlink:title=" ">
<polygon fill="none" stroke="red" points="298,-981 298,-1000 402,-1000 402,-981 298,-981"/>
<text text-anchor="middle" x="350" y="-988" font-family="Helvetica,sans-Serif" font-size="10.00">js_get_module_ns</text>
</a>
</g>
</g>
<!-- Node1&#45;&gt;Node339 -->
<g id="edge37" class="edge">
<title>Node1&#45;&gt;Node339</title>
<path fill="none" stroke="midnightblue" d="M46.94,-164.03C51.55,-208.92 73.76,-403.37 126,-553.5 185.66,-724.95 300.55,-913.83 337.36,-972.27"/>
<polygon fill="midnightblue" stroke="midnightblue" points="334.45,-974.21 342.75,-980.79 340.36,-970.47 334.45,-974.21"/>
</g>
<!-- Node347 -->
<g id="node29" class="node">
<title>Node347</title>
<g id="a_node29"><a xlink:href="quickjs_8c.html#a844d3c1554247d20a0cab7287e45173a" target="_top" xlink:title=" ">
<polygon fill="none" stroke="red" points="298.5,-126 298.5,-145 401.5,-145 401.5,-126 298.5,-126"/>
<text text-anchor="middle" x="350" y="-133" font-family="Helvetica,sans-Serif" font-size="10.00">js_resolve_export</text>
</a>
</g>
</g>
<!-- Node1&#45;&gt;Node347 -->
<g id="edge43" class="edge">
<title>Node1&#45;&gt;Node347</title>
<path fill="none" stroke="midnightblue" d="M90.06,-151.74C142.24,-148.47 229.45,-143 288.08,-139.32"/>
<polygon fill="midnightblue" stroke="midnightblue" points="288.55,-142.8 298.31,-138.68 288.11,-135.81 288.55,-142.8"/>
</g>
<!-- Node352 -->
<g id="node30" class="node">
<title>Node352</title>
<g id="a_node30"><a xlink:href="quickjs_8c.html#a0c56d4991dacd4cd61dddec1afa2703c" target="_top" xlink:title=" ">
<polygon fill="none" stroke="red" points="126,-0.5 126,-30.5 262,-30.5 262,-0.5 126,-0.5"/>
<text text-anchor="start" x="134" y="-18.5" font-family="Helvetica,sans-Serif" font-size="10.00">js_resolve_export_throw</text>
<text text-anchor="middle" x="194" y="-7.5" font-family="Helvetica,sans-Serif" font-size="10.00">_error</text>
</a>
</g>
</g>
<!-- Node1&#45;&gt;Node352 -->
<g id="edge45" class="edge">
<title>Node1&#45;&gt;Node352</title>
<path fill="none" stroke="midnightblue" d="M50.32,-144.77C60.43,-123.02 87.74,-70.07 126,-40.5 128.3,-38.72 130.74,-37.06 133.28,-35.5"/>
<polygon fill="midnightblue" stroke="midnightblue" points="135.11,-38.5 142.21,-30.64 131.75,-32.35 135.11,-38.5"/>
</g>
<!-- Node3 -->
<g id="node3" class="node">
<title>Node3</title>
<g id="a_node3"><a xlink:href="quickjs_8c.html#ac2894ff4edcdb4e6841bcce9c76081e3" target="_top" xlink:title=" ">
<polygon fill="none" stroke="red" points="306.5,-525 306.5,-544 393.5,-544 393.5,-525 306.5,-525"/>
<text text-anchor="middle" x="350" y="-532" font-family="Helvetica,sans-Serif" font-size="10.00">JS_CallInternal</text>
</a>
</g>
</g>
<!-- Node2&#45;&gt;Node3 -->
<g id="edge2" class="edge">
<title>Node2&#45;&gt;Node3</title>
<path fill="none" stroke="midnightblue" d="M219.06,-529.44C239.6,-527.84 269.88,-527.38 296.04,-528.05"/>
<polygon fill="midnightblue" stroke="midnightblue" points="296.1,-531.55 306.2,-528.38 296.32,-524.56 296.1,-531.55"/>
</g>
<!-- Node3&#45;&gt;Node2 -->
<g id="edge26" class="edge">
<title>Node3&#45;&gt;Node2</title>
<path fill="none" stroke="midnightblue" d="M306.2,-540.62C281.93,-541.58 251.96,-541.44 229.25,-540.22"/>
<polygon fill="midnightblue" stroke="midnightblue" points="229.27,-536.72 219.06,-539.56 228.81,-543.7 229.27,-536.72"/>
</g>
<!-- Node3&#45;&gt;Node3 -->
<g id="edge27" class="edge">
<title>Node3&#45;&gt;Node3</title>
<path fill="none" stroke="midnightblue" d="M326.88,-544.26C315.63,-553.07 323.34,-562.5 350,-562.5 367.5,-562.5 376.83,-558.44 378,-553.15"/>
<polygon fill="midnightblue" stroke="midnightblue" points="381,-551.34 373.12,-544.26 374.86,-554.71 381,-551.34"/>
</g>
<!-- Node4 -->
<g id="node4" class="node">
<title>Node4</title>
<g id="a_node4"><a xlink:href="quickjs_8c.html#a853f0924d441ea4225488f37c8b69f9a" target="_top" xlink:title=" ">
<polygon fill="none" stroke="black" points="602.5,-430 602.5,-449 682.5,-449 682.5,-430 602.5,-430"/>
<text text-anchor="middle" x="642.5" y="-437" font-family="Helvetica,sans-Serif" font-size="10.00">__attribute__</text>
</a>
</g>
</g>
<!-- Node3&#45;&gt;Node4 -->
<g id="edge3" class="edge">
<title>Node3&#45;&gt;Node4</title>
<path fill="none" stroke="midnightblue" d="M351.14,-524.89C352.24,-488.57 361.59,-359.13 438,-306.5 483.75,-274.99 514.75,-278.95 563,-306.5 605.93,-331.01 627.74,-389.19 636.58,-419.84"/>
<polygon fill="midnightblue" stroke="midnightblue" points="633.28,-421.03 639.27,-429.77 640.04,-419.2 633.28,-421.03"/>
</g>
<!-- Node5 -->
<g id="node5" class="node">
<title>Node5</title>
<g id="a_node5"><a xlink:href="quickjs_8c.html#a877fcb7651d95b411ce70e62b7f4a1f0" target="_top" xlink:title=" ">
<polygon fill="none" stroke="black" points="438,-240 438,-259 563,-259 563,-240 438,-240"/>
<text text-anchor="middle" x="500.5" y="-247" font-family="Helvetica,sans-Serif" font-size="10.00">__JS_AtomFromUInt32</text>
</a>
</g>
</g>
<!-- Node3&#45;&gt;Node5 -->
<g id="edge4" class="edge">
<title>Node3&#45;&gt;Node5</title>
<path fill="none" stroke="midnightblue" d="M351.38,-524.99C353.38,-487.67 365.59,-349.65 438,-273.5 441.66,-269.65 446,-266.41 450.67,-263.69"/>
<polygon fill="midnightblue" stroke="midnightblue" points="452.57,-266.65 459.95,-259.05 449.44,-260.39 452.57,-266.65"/>
</g>
<!-- Node6 -->
<g id="node6" class="node">
<title>Node6</title>
<g id="a_node6"><a xlink:href="quickjs_8h.html#a9bf98b18de88b4199910a43e933eb97d" target="_top" xlink:title=" ">
<polygon fill="none" stroke="black" points="450.5,-848 450.5,-867 550.5,-867 550.5,-848 450.5,-848"/>
<text text-anchor="middle" x="500.5" y="-855" font-family="Helvetica,sans-Serif" font-size="10.00">__JS_NewFloat64</text>
</a>
</g>
</g>
<!-- Node3&#45;&gt;Node6 -->
<g id="edge5" class="edge">
<title>Node3&#45;&gt;Node6</title>
<path fill="none" stroke="midnightblue" d="M350.69,-544.27C349.91,-586.02 352.54,-751.23 438,-838.5 439.44,-839.97 440.98,-841.32 442.62,-842.57"/>
<polygon fill="midnightblue" stroke="midnightblue" points="441.06,-845.72 451.41,-848 444.74,-839.77 441.06,-845.72"/>
</g>
<!-- Node7 -->
<g id="node7" class="node">
<title>Node7</title>
<g id="a_node7"><a xlink:href="quickjs_8c.html#a74547db03bf739a52c83a326b32db997" target="_top" xlink:title=" ">
<polygon fill="none" stroke="red" points="460,-810 460,-829 541,-829 541,-810 460,-810"/>
<text text-anchor="middle" x="500.5" y="-817" font-family="Helvetica,sans-Serif" font-size="10.00">add_property</text>
</a>
</g>
</g>
<!-- Node3&#45;&gt;Node7 -->
<g id="edge6" class="edge">
<title>Node3&#45;&gt;Node7</title>
<path fill="none" stroke="midnightblue" d="M351.15,-544.09C352.27,-582.32 361.62,-725.37 438,-800.5 441.55,-803.99 445.72,-806.84 450.2,-809.17"/>
<polygon fill="midnightblue" stroke="midnightblue" points="449.13,-812.52 459.7,-813.25 451.9,-806.09 449.13,-812.52"/>
</g>
<!-- Node65 -->
<g id="node8" class="node">
<title>Node65</title>
<g id="a_node8"><a xlink:href="quickjs_8c.html#a4956f45ffd2849b96dc051277264f87a" target="_top" xlink:title=" ">
<polygon fill="none" stroke="red" points="459.5,-696 459.5,-715 541.5,-715 541.5,-696 459.5,-696"/>
<text text-anchor="middle" x="500.5" y="-703" font-family="Helvetica,sans-Serif" font-size="10.00">build_arg_list</text>
</a>
</g>
</g>
<!-- Node3&#45;&gt;Node65 -->
<g id="edge7" class="edge">
<title>Node3&#45;&gt;Node65</title>
<path fill="none" stroke="midnightblue" d="M353.82,-544.36C362.06,-571.33 388.64,-646.96 438,-686.5 441.58,-689.37 445.59,-691.8 449.81,-693.87"/>
<polygon fill="midnightblue" stroke="midnightblue" points="448.69,-697.2 459.27,-697.84 451.4,-690.75 448.69,-697.2"/>
</g>
<!-- Node66 -->
<g id="node9" class="node">
<title>Node66</title>
<g id="a_node9"><a xlink:href="quickjs_8c.html#ac864482356b3efc2d0b0a509fcfa4c7c" target="_top" xlink:title=" ">
<polygon fill="none" stroke="red" points="604,-696 604,-715 681,-715 681,-696 604,-696"/>
<text text-anchor="middle" x="642.5" y="-703" font-family="Helvetica,sans-Serif" font-size="10.00">free_arg_list</text>
</a>
</g>
</g>
<!-- Node3&#45;&gt;Node66 -->
<g id="edge17" class="edge">
<title>Node3&#45;&gt;Node66</title>
<path fill="none" stroke="midnightblue" d="M351.88,-544C356.82,-594.8 382.74,-833.54 438,-876.5 481.86,-910.6 516.23,-906.49 563,-876.5 616.08,-842.46 633.74,-762.53 639.22,-725.27"/>
<polygon fill="midnightblue" stroke="midnightblue" points="642.72,-725.55 640.56,-715.17 635.78,-724.63 642.72,-725.55"/>
</g>
<!-- Node3&#45;&gt;Node57 -->
<g id="edge30" class="edge">
<title>Node3&#45;&gt;Node57</title>
<path fill="none" stroke="midnightblue" d="M352.31,-524.92C358.98,-477.76 390.64,-270.77 438,-230.5 448.3,-221.74 624.38,-204.76 711.91,-196.81"/>
<polygon fill="midnightblue" stroke="midnightblue" points="712.23,-200.29 721.87,-195.91 711.6,-193.32 712.23,-200.29"/>
</g>
<!-- Node36 -->
<g id="node11" class="node">
<title>Node36</title>
<g id="a_node11"><a xlink:href="quickjs_8h.html#a775522f2d084fc8fa0fcb33f390006b4" target="_top" xlink:title=" ">
<polygon fill="none" stroke="black" points="604,-639 604,-658 681,-658 681,-639 604,-639"/>
<text text-anchor="middle" x="642.5" y="-646" font-family="Helvetica,sans-Serif" font-size="10.00">JS_DupValue</text>
</a>
</g>
</g>
<!-- Node3&#45;&gt;Node36 -->
<g id="edge28" class="edge">
<title>Node3&#45;&gt;Node36</title>
<path fill="none" stroke="midnightblue" d="M358.97,-544.26C373.06,-560.78 404.07,-594.06 438,-610.5 487.6,-634.54 550.8,-643.41 593.51,-646.67"/>
<polygon fill="midnightblue" stroke="midnightblue" points="593.42,-650.17 603.64,-647.36 593.9,-643.18 593.42,-650.17"/>
</g>
<!-- Node3&#45;&gt;Node75 -->
<g id="edge31" class="edge">
<title>Node3&#45;&gt;Node75</title>
<path fill="none" stroke="midnightblue" d="M352.06,-544.02C358.03,-596.02 388.93,-845.55 438,-902.5 477.06,-947.83 508.26,-928.34 563,-952.5 579.93,-959.97 598.59,-968.97 613.47,-976.34"/>
<polygon fill="midnightblue" stroke="midnightblue" points="612.13,-979.58 622.64,-980.91 615.25,-973.32 612.13,-979.58"/>
</g>
<!-- Node161 -->
<g id="node13" class="node">
<title>Node161</title>
<g id="a_node13"><a xlink:href="quickjs_8c.html#a61c8dfb5e807af1b6ff7d8ca61576dda" target="_top" xlink:title=" ">
<polygon fill="none" stroke="red" points="453.5,-772 453.5,-791 547.5,-791 547.5,-772 453.5,-772"/>
<text text-anchor="middle" x="500.5" y="-779" font-family="Helvetica,sans-Serif" font-size="10.00">build_backtrace</text>
</a>
</g>
</g>
<!-- Node3&#45;&gt;Node161 -->
<g id="edge13" class="edge">
<title>Node3&#45;&gt;Node161</title>
<path fill="none" stroke="midnightblue" d="M351.77,-544.39C355.05,-579.52 370.92,-699.63 438,-762.5 439.93,-764.31 442.02,-765.94 444.24,-767.42"/>
<polygon fill="midnightblue" stroke="midnightblue" points="442.83,-770.64 453.28,-772.39 446.2,-764.5 442.83,-770.64"/>
</g>
<!-- Node248 -->
<g id="node14" class="node">
<title>Node248</title>
<g id="a_node14"><a xlink:href="quickjs_8c.html#a344894112559c2ba75043fd10bcfa02f" target="_top" xlink:title=" ">
<polygon fill="none" stroke="red" points="450,-468 450,-487 551,-487 551,-468 450,-468"/>
<text text-anchor="middle" x="500.5" y="-475" font-family="Helvetica,sans-Serif" font-size="10.00">close_lexical_var</text>
</a>
</g>
</g>
<!-- Node3&#45;&gt;Node248 -->
<g id="edge14" class="edge">
<title>Node3&#45;&gt;Node248</title>
<path fill="none" stroke="midnightblue" d="M371.13,-524.94C388.59,-516.83 414.67,-505.17 438,-496.5 443.91,-494.3 450.21,-492.15 456.43,-490.13"/>
<polygon fill="midnightblue" stroke="midnightblue" points="457.6,-493.43 466.08,-487.08 455.49,-486.76 457.6,-493.43"/>
</g>
<!-- Node249 -->
<g id="node15" class="node">
<title>Node249</title>
<g id="a_node15"><a xlink:href="quickjs_8c.html#a1782043fce951bd4f0d91c7796b31e24" target="_top" xlink:title=" ">
<polygon fill="none" stroke="red" points="457,-734 457,-753 544,-753 544,-734 457,-734"/>
<text text-anchor="middle" x="500.5" y="-741" font-family="Helvetica,sans-Serif" font-size="10.00">close_var_refs</text>
</a>
</g>
</g>
<!-- Node3&#45;&gt;Node249 -->
<g id="edge16" class="edge">
<title>Node3&#45;&gt;Node249</title>
<path fill="none" stroke="midnightblue" d="M352.55,-544.03C358.06,-574.92 379.66,-673.28 438,-724.5 440.99,-727.12 444.33,-729.38 447.87,-731.33"/>
<polygon fill="midnightblue" stroke="midnightblue" points="446.45,-734.53 457,-735.56 449.39,-728.18 446.45,-734.53"/>
</g>
<!-- Node54 -->
<g id="node16" class="node">
<title>Node54</title>
<g id="a_node16"><a xlink:href="quickjs_8c.html#a9e7b4bccf927d811b0f99b40b08c0472" target="_top" xlink:title=" ">
<polygon fill="none" stroke="red" points="462.5,-430 462.5,-449 538.5,-449 538.5,-430 462.5,-430"/>
<text text-anchor="middle" x="500.5" y="-437" font-family="Helvetica,sans-Serif" font-size="10.00">free_var_ref</text>
</a>
</g>
</g>
<!-- Node3&#45;&gt;Node54 -->
<g id="edge18" class="edge">
<title>Node3&#45;&gt;Node54</title>
<path fill="none" stroke="midnightblue" d="M359.42,-524.89C373.92,-508.9 405.25,-476.77 438,-458.5 442.58,-455.95 447.55,-453.69 452.6,-451.71"/>
<polygon fill="midnightblue" stroke="midnightblue" points="454.12,-454.88 462.37,-448.23 451.77,-448.29 454.12,-454.88"/>
</g>
<!-- Node251 -->
<g id="node17" class="node">
<title>Node251</title>
<g id="a_node17"><a xlink:href="cutils_8h.html#a7c82a3ee025fee89db5b11ff5b7691b8" target="_top" xlink:title=" ">
<polygon fill="none" stroke="black" points="474,-658 474,-677 527,-677 527,-658 474,-658"/>
<text text-anchor="middle" x="500.5" y="-665" font-family="Helvetica,sans-Serif" font-size="10.00">get_i16</text>
</a>
</g>
</g>
<!-- Node3&#45;&gt;Node251 -->
<g id="edge19" class="edge">
<title>Node3&#45;&gt;Node251</title>
<path fill="none" stroke="midnightblue" d="M356.25,-544.06C368.15,-564.91 399.2,-614.93 438,-643.5 445.79,-649.24 455.14,-653.8 464.16,-657.34"/>
<polygon fill="midnightblue" stroke="midnightblue" points="463.15,-660.7 473.74,-660.79 465.52,-654.11 463.15,-660.7"/>
</g>
<!-- Node252 -->
<g id="node18" class="node">
<title>Node252</title>
<g id="a_node18"><a xlink:href="cutils_8h.html#a288ee4e688944e23500af2ecc813c306" target="_top" xlink:title=" ">
<polygon fill="none" stroke="black" points="477,-582 477,-601 524,-601 524,-582 477,-582"/>
<text text-anchor="middle" x="500.5" y="-589" font-family="Helvetica,sans-Serif" font-size="10.00">get_i8</text>
</a>
</g>
</g>
<!-- Node3&#45;&gt;Node252 -->
<g id="edge20" class="edge">
<title>Node3&#45;&gt;Node252</title>
<path fill="none" stroke="midnightblue" d="M371.13,-544.06C388.59,-552.17 414.67,-563.83 438,-572.5 447.31,-575.96 457.56,-579.31 466.99,-582.2"/>
<polygon fill="midnightblue" stroke="midnightblue" points="466.22,-585.62 476.8,-585.15 468.23,-578.92 466.22,-585.62"/>
</g>
<!-- Node253 -->
<g id="node19" class="node">
<title>Node253</title>
<g id="a_node19"><a xlink:href="cutils_8h.html#ad587834d17e95461893d59661e5e9676" target="_top" xlink:title=" ">
<polygon fill="none" stroke="black" points="472.5,-544 472.5,-563 528.5,-563 528.5,-544 472.5,-544"/>
<text text-anchor="middle" x="500.5" y="-551" font-family="Helvetica,sans-Serif" font-size="10.00">get_u16</text>
</a>
</g>
</g>
<!-- Node3&#45;&gt;Node253 -->
<g id="edge21" class="edge">
<title>Node3&#45;&gt;Node253</title>
<path fill="none" stroke="midnightblue" d="M393.55,-539.94C415.26,-542.72 441.41,-546.07 462.3,-548.74"/>
<polygon fill="midnightblue" stroke="midnightblue" points="462.02,-552.23 472.39,-550.03 462.91,-545.29 462.02,-552.23"/>
</g>
<!-- Node50 -->
<g id="node20" class="node">
<title>Node50</title>
<g id="a_node20"><a xlink:href="cutils_8h.html#a941262a5f72fda2ec43ae7911e97a0dc" target="_top" xlink:title=" ">
<polygon fill="none" stroke="black" points="472.5,-506 472.5,-525 528.5,-525 528.5,-506 472.5,-506"/>
<text text-anchor="middle" x="500.5" y="-513" font-family="Helvetica,sans-Serif" font-size="10.00">get_u32</text>
</a>
</g>
</g>
<!-- Node3&#45;&gt;Node50 -->
<g id="edge22" class="edge">
<title>Node3&#45;&gt;Node50</title>
<path fill="none" stroke="midnightblue" d="M393.55,-529.06C415.26,-526.28 441.41,-522.93 462.3,-520.26"/>
<polygon fill="midnightblue" stroke="midnightblue" points="462.91,-523.71 472.39,-518.97 462.02,-516.77 462.91,-523.71"/>
</g>
<!-- Node254 -->
<g id="node21" class="node">
<title>Node254</title>
<g id="a_node21"><a xlink:href="quickjs_8c.html#a37fe43b6649456a848bd54846450b995" target="_top" xlink:title=" ">
<polygon fill="none" stroke="red" points="464.5,-392 464.5,-411 536.5,-411 536.5,-392 464.5,-392"/>
<text text-anchor="middle" x="500.5" y="-399" font-family="Helvetica,sans-Serif" font-size="10.00">get_var_ref</text>
</a>
</g>
</g>
<!-- Node3&#45;&gt;Node254 -->
<g id="edge23" class="edge">
<title>Node3&#45;&gt;Node254</title>
<path fill="none" stroke="midnightblue" d="M355.64,-524.94C366.73,-503.08 396.96,-449.14 438,-420.5 442.99,-417.02 448.64,-414.16 454.44,-411.81"/>
<polygon fill="midnightblue" stroke="midnightblue" points="456.01,-414.97 464.26,-408.33 453.67,-408.37 456.01,-414.97"/>
</g>
<!-- Node197 -->
<g id="node22" class="node">
<title>Node197</title>
<g id="a_node22"><a xlink:href="list_8h.html#a663527a4d757540b2177bef0db1ce5c0" target="_top" xlink:title=" ">
<polygon fill="none" stroke="black" points="459.5,-354 459.5,-373 541.5,-373 541.5,-354 459.5,-354"/>
<text text-anchor="middle" x="500.5" y="-361" font-family="Helvetica,sans-Serif" font-size="10.00">init_list_head</text>
</a>
</g>
</g>
<!-- Node3&#45;&gt;Node197 -->
<g id="edge24" class="edge">
<title>Node3&#45;&gt;Node197</title>
<path fill="none" stroke="midnightblue" d="M353.82,-524.64C362.06,-497.67 388.64,-422.04 438,-382.5 441.58,-379.63 445.59,-377.2 449.81,-375.13"/>
<polygon fill="midnightblue" stroke="midnightblue" points="451.4,-378.25 459.27,-371.16 448.69,-371.8 451.4,-378.25"/>
</g>
<!-- Node255 -->
<g id="node23" class="node">
<title>Node255</title>
<g id="a_node23"><a xlink:href="quickjs_8c.html#a2bb0a2ca3b8320f3ff778c65034fce49" target="_top" xlink:title=" ">
<polygon fill="none" stroke="red" points="441,-316 441,-335 560,-335 560,-316 441,-316"/>
<text text-anchor="middle" x="500.5" y="-323" font-family="Helvetica,sans-Serif" font-size="10.00">is_backtrace_needed</text>
</a>
</g>
</g>
<!-- Node3&#45;&gt;Node255 -->
<g id="edge25" class="edge">
<title>Node3&#45;&gt;Node255</title>
<path fill="none" stroke="midnightblue" d="M352.55,-524.97C358.06,-494.08 379.66,-395.72 438,-344.5 439.95,-342.79 442.05,-341.23 444.25,-339.82"/>
<polygon fill="midnightblue" stroke="midnightblue" points="446.05,-342.83 453.21,-335.02 442.74,-336.66 446.05,-342.83"/>
</g>
<!-- Node56 -->
<g id="node24" class="node">
<title>Node56</title>
<g id="a_node24"><a xlink:href="quickjs_8c.html#ab7fc45a99935a1c0ba50b0216d9401a9" target="_top" xlink:title=" ">
<polygon fill="none" stroke="red" points="461.5,-126 461.5,-145 539.5,-145 539.5,-126 461.5,-126"/>
<text text-anchor="middle" x="500.5" y="-133" font-family="Helvetica,sans-Serif" font-size="10.00">JS_FreeAtom</text>
</a>
</g>
</g>
<!-- Node3&#45;&gt;Node56 -->
<g id="edge29" class="edge">
<title>Node3&#45;&gt;Node56</title>
<path fill="none" stroke="midnightblue" d="M351.91,-524.96C357.14,-471.69 385.17,-211.42 438,-154.5 441.85,-150.35 446.58,-147.1 451.69,-144.56"/>
<polygon fill="midnightblue" stroke="midnightblue" points="453.26,-147.7 461.21,-140.7 450.62,-141.22 453.26,-147.7"/>
</g>
<!-- Node127 -->
<g id="node25" class="node">
<title>Node127</title>
<g id="a_node25"><a xlink:href="quickjs_8h.html#a4e407128a9605afb77523e49e9a627fd" target="_top" xlink:title=" ">
<polygon fill="none" stroke="black" points="456,-962 456,-981 545,-981 545,-962 456,-962"/>
<text text-anchor="middle" x="500.5" y="-969" font-family="Helvetica,sans-Serif" font-size="10.00">JS_IsUndefined</text>
</a>
</g>
</g>
<!-- Node3&#45;&gt;Node127 -->
<g id="edge32" class="edge">
<title>Node3&#45;&gt;Node127</title>
<path fill="none" stroke="midnightblue" d="M351.79,-544.06C356.59,-599.85 383.39,-883.08 438,-947.5 441.17,-951.24 444.99,-954.4 449.17,-957.06"/>
<polygon fill="midnightblue" stroke="midnightblue" points="447.66,-960.23 458.13,-961.88 450.98,-954.06 447.66,-960.23"/>
</g>
<!-- Node3&#45;&gt;Node227 -->
<g id="edge33" class="edge">
<title>Node3&#45;&gt;Node227</title>
<path fill="none" stroke="midnightblue" d="M350.53,-524.77C348.93,-480.83 348.17,-298.75 438,-197.5 443.57,-191.22 450.99,-186.57 458.73,-183.13"/>
<polygon fill="midnightblue" stroke="midnightblue" points="460.15,-186.34 468.25,-179.51 457.66,-179.8 460.15,-186.34"/>
</g>
<!-- Node65&#45;&gt;Node4 -->
<g id="edge8" class="edge">
<title>Node65&#45;&gt;Node4</title>
<path fill="none" stroke="midnightblue" d="M541.65,-699.18C549.51,-696.37 557.13,-692.32 563,-686.5 596.11,-653.66 627.07,-512.05 637.65,-459.36"/>
<polygon fill="midnightblue" stroke="midnightblue" points="641.14,-459.76 639.64,-449.27 634.27,-458.4 641.14,-459.76"/>
</g>
<!-- Node65&#45;&gt;Node66 -->
<g id="edge9" class="edge">
<title>Node65&#45;&gt;Node66</title>
<path fill="none" stroke="midnightblue" d="M541.62,-705.5C557.81,-705.5 576.63,-705.5 593.54,-705.5"/>
<polygon fill="midnightblue" stroke="midnightblue" points="593.78,-709 603.78,-705.5 593.78,-702 593.78,-709"/>
</g>
<!-- Node65&#45;&gt;Node36 -->
<g id="edge11" class="edge">
<title>Node65&#45;&gt;Node36</title>
<path fill="none" stroke="midnightblue" d="M535.65,-695.95C544.64,-693.17 554.27,-689.94 563,-686.5 580.57,-679.58 599.64,-670.39 614.59,-662.78"/>
<polygon fill="midnightblue" stroke="midnightblue" points="616.48,-665.74 623.76,-658.04 613.27,-659.52 616.48,-665.74"/>
</g>
<!-- Node65&#45;&gt;Node75 -->
<g id="edge12" class="edge">
<title>Node65&#45;&gt;Node75</title>
<path fill="none" stroke="midnightblue" d="M541.74,-711.73C549.6,-714.55 557.19,-718.62 563,-724.5 632.06,-794.44 640.9,-921.98 641.64,-970.78"/>
<polygon fill="midnightblue" stroke="midnightblue" points="638.14,-970.95 641.69,-980.93 645.14,-970.91 638.14,-970.95"/>
</g>
<!-- Node66&#45;&gt;Node57 -->
<g id="edge10" class="edge">
<title>Node66&#45;&gt;Node57</title>
<path fill="none" stroke="midnightblue" d="M658.94,-695.77C668.31,-689.01 679.66,-679.15 686,-667.5 730.02,-586.61 753.5,-292.29 759.15,-212.54"/>
<polygon fill="midnightblue" stroke="midnightblue" points="762.65,-212.61 759.85,-202.39 755.67,-212.12 762.65,-212.61"/>
</g>
<!-- Node248&#45;&gt;Node36 -->
<g id="edge15" class="edge">
<title>Node248&#45;&gt;Node36</title>
<path fill="none" stroke="midnightblue" d="M547.3,-487.09C552.96,-489.54 558.37,-492.63 563,-496.5 605.38,-531.97 627.62,-596.17 636.61,-628.61"/>
<polygon fill="midnightblue" stroke="midnightblue" points="633.33,-629.87 639.25,-638.65 640.1,-628.09 633.33,-629.87"/>
</g>
<!-- Node227&#45;&gt;Node57 -->
<g id="edge34" class="edge">
<title>Node227&#45;&gt;Node57</title>
<path fill="none" stroke="midnightblue" d="M532.74,-175.79C577.27,-179.06 659.39,-185.08 711.9,-188.93"/>
<polygon fill="midnightblue" stroke="midnightblue" points="711.76,-192.43 721.99,-189.67 712.27,-185.45 711.76,-192.43"/>
</g>
<!-- Node339&#45;&gt;Node36 -->
<g id="edge38" class="edge">
<title>Node339&#45;&gt;Node36</title>
<path fill="none" stroke="midnightblue" d="M376.63,-1000.11C420.71,-1014.8 511.14,-1036.58 563,-990.5 613.85,-945.31 567.61,-746.85 599,-686.5 603.4,-678.04 610.5,-670.57 617.65,-664.54"/>
<polygon fill="midnightblue" stroke="midnightblue" points="620.15,-667.04 625.91,-658.15 615.86,-661.5 620.15,-667.04"/>
</g>
<!-- Node339&#45;&gt;Node75 -->
<g id="edge39" class="edge">
<title>Node339&#45;&gt;Node75</title>
<path fill="none" stroke="midnightblue" d="M370.11,-1000.06C387.36,-1008.13 413.69,-1019.04 438,-1023.5 492.65,-1033.52 508.54,-1034.48 563,-1023.5 581.19,-1019.83 600.41,-1011.83 615.28,-1004.62"/>
<polygon fill="midnightblue" stroke="midnightblue" points="617.01,-1007.67 624.37,-1000.06 613.86,-1001.42 617.01,-1007.67"/>
</g>
<!-- Node339&#45;&gt;Node127 -->
<g id="edge40" class="edge">
<title>Node339&#45;&gt;Node127</title>
<path fill="none" stroke="midnightblue" d="M402.11,-983.96C416.15,-982.16 431.42,-980.21 445.61,-978.39"/>
<polygon fill="midnightblue" stroke="midnightblue" points="446.25,-981.84 455.72,-977.1 445.36,-974.9 446.25,-981.84"/>
</g>
<!-- Node347&#45;&gt;Node56 -->
<g id="edge44" class="edge">
<title>Node347&#45;&gt;Node56</title>
<path fill="none" stroke="midnightblue" d="M401.69,-135.5C417.68,-135.5 435.3,-135.5 451.12,-135.5"/>
<polygon fill="midnightblue" stroke="midnightblue" points="451.23,-139 461.23,-135.5 451.23,-132 451.23,-139"/>
</g>
</g>
</svg>
