<?xml version="1.0" encoding="UTF-8" standalone="no"?>
<!DOCTYPE svg PUBLIC "-//W3C//DTD SVG 1.1//EN"
 "http://www.w3.org/Graphics/SVG/1.1/DTD/svg11.dtd">
<!-- Generated by graphviz version 2.43.0 (0)
 -->
<!-- Title: js_json_check Pages: 1 -->
<svg width="877pt" height="1141pt"
 viewBox="0.00 0.00 877.00 1140.68" xmlns="http://www.w3.org/2000/svg" xmlns:xlink="http://www.w3.org/1999/xlink">
<g id="graph0" class="graph" transform="scale(1 1) rotate(0) translate(4 1136.68)">
<title>js_json_check</title>
<!-- Node1 -->
<g id="node1" class="node">
<title>Node1</title>
<g id="a_node1"><a xlink:title=" ">
<polygon fill="#bfbfbf" stroke="black" points="0,-247.5 0,-266.5 84,-266.5 84,-247.5 0,-247.5"/>
<text text-anchor="middle" x="42" y="-254.5" font-family="Helvetica,sans-Serif" font-size="10.00">js_json_check</text>
</a>
</g>
</g>
<!-- Node2 -->
<g id="node2" class="node">
<title>Node2</title>
<g id="a_node2"><a xlink:href="quickjs_8c.html#a1a4c02a29525d5cb2085dd8bca3af350" target="_top" xlink:title=" ">
<polygon fill="none" stroke="black" points="135,-589.5 135,-608.5 185,-608.5 185,-589.5 135,-589.5"/>
<text text-anchor="middle" x="160" y="-596.5" font-family="Helvetica,sans-Serif" font-size="10.00">JS_Call</text>
</a>
</g>
</g>
<!-- Node1&#45;&gt;Node2 -->
<g id="edge1" class="edge">
<title>Node1&#45;&gt;Node2</title>
<path fill="none" stroke="midnightblue" d="M46.22,-266.5C61.96,-312.91 130.85,-516 152.48,-579.77"/>
<polygon fill="midnightblue" stroke="midnightblue" points="149.21,-581.03 155.74,-589.38 155.84,-578.79 149.21,-581.03"/>
</g>
<!-- Node57 -->
<g id="node10" class="node">
<title>Node57</title>
<g id="a_node10"><a xlink:href="quickjs_8h.html#afaa20c47565bc704c6c85f3d77254e7d" target="_top" xlink:title=" ">
<polygon fill="none" stroke="red" points="790,-741.5 790,-760.5 869,-760.5 869,-741.5 790,-741.5"/>
<text text-anchor="middle" x="829.5" y="-748.5" font-family="Helvetica,sans-Serif" font-size="10.00">JS_FreeValue</text>
</a>
</g>
</g>
<!-- Node1&#45;&gt;Node57 -->
<g id="edge43" class="edge">
<title>Node1&#45;&gt;Node57</title>
<path fill="none" stroke="midnightblue" d="M47.65,-247.48C68.37,-206.59 156.6,-48 278.5,-48 278.5,-48 278.5,-48 584.5,-48 704.79,-48 705.66,-148.85 754,-259 828.99,-429.88 830.47,-662.67 829.1,-731.24"/>
<polygon fill="midnightblue" stroke="midnightblue" points="825.6,-731.36 828.85,-741.45 832.6,-731.53 825.6,-731.36"/>
</g>
<!-- Node75 -->
<g id="node11" class="node">
<title>Node75</title>
<g id="a_node11"><a xlink:href="quickjs_8h.html#ad80a83d73e9b7d872b88fbf2943aebe9" target="_top" xlink:title=" ">
<polygon fill="none" stroke="black" points="540,-399.5 540,-418.5 627,-418.5 627,-399.5 540,-399.5"/>
<text text-anchor="middle" x="583.5" y="-406.5" font-family="Helvetica,sans-Serif" font-size="10.00">JS_IsException</text>
</a>
</g>
</g>
<!-- Node1&#45;&gt;Node75 -->
<g id="edge45" class="edge">
<title>Node1&#45;&gt;Node75</title>
<path fill="none" stroke="midnightblue" d="M84.01,-256.65C179.68,-256.44 414.79,-259.66 484,-295 525.93,-316.41 557.6,-364.07 572.7,-390.49"/>
<polygon fill="midnightblue" stroke="midnightblue" points="569.76,-392.41 577.66,-399.47 575.89,-389.02 569.76,-392.41"/>
</g>
<!-- Node124 -->
<g id="node25" class="node">
<title>Node124</title>
<g id="a_node25"><a xlink:href="quickjs_8c.html#a75f6ee5e4235a7dc99889f3d2eb2c147" target="_top" xlink:title=" ">
<polygon fill="none" stroke="black" points="683,-1073.5 683,-1092.5 754,-1092.5 754,-1073.5 683,-1073.5"/>
<text text-anchor="middle" x="718.5" y="-1080.5" font-family="Helvetica,sans-Serif" font-size="10.00">JS_CallFree</text>
</a>
</g>
</g>
<!-- Node1&#45;&gt;Node124 -->
<g id="edge42" class="edge">
<title>Node1&#45;&gt;Node124</title>
<path fill="none" stroke="midnightblue" d="M43.42,-266.51C47.88,-361.12 89.93,-1130 278.5,-1130 278.5,-1130 278.5,-1130 422.5,-1130 522.47,-1130 550.14,-1140.74 647,-1116 662.91,-1111.94 679.6,-1104.3 692.74,-1097.39"/>
<polygon fill="midnightblue" stroke="midnightblue" points="694.52,-1100.41 701.63,-1092.55 691.17,-1094.26 694.52,-1100.41"/>
</g>
<!-- Node68 -->
<g id="node26" class="node">
<title>Node68</title>
<g id="a_node26"><a xlink:href="quickjs_8h.html#a89b7c8686c7eee70b86be722ee4730ad" target="_top" xlink:title=" ">
<polygon fill="none" stroke="black" points="377,-1026.5 377,-1045.5 466,-1045.5 466,-1026.5 377,-1026.5"/>
<text text-anchor="middle" x="421.5" y="-1033.5" font-family="Helvetica,sans-Serif" font-size="10.00">JS_GetProperty</text>
</a>
</g>
</g>
<!-- Node1&#45;&gt;Node68 -->
<g id="edge44" class="edge">
<title>Node1&#45;&gt;Node68</title>
<path fill="none" stroke="midnightblue" d="M43.87,-266.53C47.99,-309 67.55,-484.72 120,-618 195.7,-810.35 196.38,-889.38 359,-1017 361.64,-1019.07 364.5,-1020.92 367.5,-1022.56"/>
<polygon fill="midnightblue" stroke="midnightblue" points="366.29,-1025.86 376.83,-1026.92 369.25,-1019.51 366.29,-1025.86"/>
</g>
<!-- Node287 -->
<g id="node28" class="node">
<title>Node287</title>
<g id="a_node28"><a xlink:href="quickjs_8h.html#a3d68fe446df2d9c7d1900b16371bff5b" target="_top" xlink:title=" ">
<polygon fill="none" stroke="black" points="386,-114.5 386,-133.5 457,-133.5 457,-114.5 386,-114.5"/>
<text text-anchor="middle" x="421.5" y="-121.5" font-family="Helvetica,sans-Serif" font-size="10.00">JS_IsObject</text>
</a>
</g>
</g>
<!-- Node1&#45;&gt;Node287 -->
<g id="edge47" class="edge">
<title>Node1&#45;&gt;Node287</title>
<path fill="none" stroke="midnightblue" d="M70.15,-247.43C136.73,-223.98 308.16,-163.58 383.76,-136.94"/>
<polygon fill="midnightblue" stroke="midnightblue" points="385.08,-140.19 393.34,-133.57 382.75,-133.59 385.08,-140.19"/>
</g>
<!-- Node127 -->
<g id="node29" class="node">
<title>Node127</title>
<g id="a_node29"><a xlink:href="quickjs_8h.html#a4e407128a9605afb77523e49e9a627fd" target="_top" xlink:title=" ">
<polygon fill="none" stroke="black" points="377,-76.5 377,-95.5 466,-95.5 466,-76.5 377,-76.5"/>
<text text-anchor="middle" x="421.5" y="-83.5" font-family="Helvetica,sans-Serif" font-size="10.00">JS_IsUndefined</text>
</a>
</g>
</g>
<!-- Node1&#45;&gt;Node127 -->
<g id="edge48" class="edge">
<title>Node1&#45;&gt;Node127</title>
<path fill="none" stroke="midnightblue" d="M53.25,-247.39C67.38,-234.54 94.04,-211.68 120,-197 204.15,-149.41 312.57,-115.27 373.5,-98.26"/>
<polygon fill="midnightblue" stroke="midnightblue" points="374.51,-101.61 383.22,-95.58 372.65,-94.86 374.51,-101.61"/>
</g>
<!-- Node125 -->
<g id="node30" class="node">
<title>Node125</title>
<g id="a_node30"><a xlink:href="quickjs_8c.html#a1ca9cdb1fa2ffc3e6506e92b200e490f" target="_top" xlink:title=" ">
<polygon fill="none" stroke="black" points="120,-0.5 120,-19.5 200,-19.5 200,-0.5 120,-0.5"/>
<text text-anchor="middle" x="160" y="-7.5" font-family="Helvetica,sans-Serif" font-size="10.00">JS_IsFunction</text>
</a>
</g>
</g>
<!-- Node1&#45;&gt;Node125 -->
<g id="edge46" class="edge">
<title>Node1&#45;&gt;Node125</title>
<path fill="none" stroke="midnightblue" d="M44,-247.42C47.89,-214.33 64.66,-103.02 120,-34 122.56,-30.81 125.66,-27.94 128.98,-25.38"/>
<polygon fill="midnightblue" stroke="midnightblue" points="131.16,-28.13 137.53,-19.66 127.27,-22.31 131.16,-28.13"/>
</g>
<!-- Node3 -->
<g id="node3" class="node">
<title>Node3</title>
<g id="a_node3"><a xlink:href="quickjs_8c.html#ac2894ff4edcdb4e6841bcce9c76081e3" target="_top" xlink:title=" ">
<polygon fill="none" stroke="red" points="236,-589.5 236,-608.5 323,-608.5 323,-589.5 236,-589.5"/>
<text text-anchor="middle" x="279.5" y="-596.5" font-family="Helvetica,sans-Serif" font-size="10.00">JS_CallInternal</text>
</a>
</g>
</g>
<!-- Node2&#45;&gt;Node3 -->
<g id="edge2" class="edge">
<title>Node2&#45;&gt;Node3</title>
<path fill="none" stroke="midnightblue" d="M185.06,-593.43C196.84,-592.52 211.52,-592.13 225.72,-592.28"/>
<polygon fill="midnightblue" stroke="midnightblue" points="225.87,-595.78 235.93,-592.48 226,-588.79 225.87,-595.78"/>
</g>
<!-- Node3&#45;&gt;Node2 -->
<g id="edge28" class="edge">
<title>Node3&#45;&gt;Node2</title>
<path fill="none" stroke="midnightblue" d="M235.93,-605.52C222.56,-605.91 207.96,-605.81 195.24,-605.2"/>
<polygon fill="midnightblue" stroke="midnightblue" points="195.26,-601.69 185.06,-604.57 194.83,-608.68 195.26,-601.69"/>
</g>
<!-- Node3&#45;&gt;Node3 -->
<g id="edge32" class="edge">
<title>Node3&#45;&gt;Node3</title>
<path fill="none" stroke="midnightblue" d="M261.31,-608.76C252.46,-617.57 258.53,-627 279.5,-627 292.94,-627 300.25,-623.13 301.45,-618.03"/>
<polygon fill="midnightblue" stroke="midnightblue" points="304.69,-616.71 297.69,-608.76 298.2,-619.34 304.69,-616.71"/>
</g>
<!-- Node4 -->
<g id="node4" class="node">
<title>Node4</title>
<g id="a_node4"><a xlink:href="quickjs_8c.html#a853f0924d441ea4225488f37c8b69f9a" target="_top" xlink:title=" ">
<polygon fill="none" stroke="black" points="543.5,-228.5 543.5,-247.5 623.5,-247.5 623.5,-228.5 543.5,-228.5"/>
<text text-anchor="middle" x="583.5" y="-235.5" font-family="Helvetica,sans-Serif" font-size="10.00">__attribute__</text>
</a>
</g>
</g>
<!-- Node3&#45;&gt;Node4 -->
<g id="edge3" class="edge">
<title>Node3&#45;&gt;Node4</title>
<path fill="none" stroke="midnightblue" d="M280.92,-589.2C283.5,-534.51 299.06,-267.82 359,-219 384.85,-197.95 476.1,-213.55 533.7,-226.2"/>
<polygon fill="midnightblue" stroke="midnightblue" points="533.17,-229.67 543.69,-228.44 534.7,-222.84 533.17,-229.67"/>
</g>
<!-- Node5 -->
<g id="node5" class="node">
<title>Node5</title>
<g id="a_node5"><a xlink:href="quickjs_8c.html#a877fcb7651d95b411ce70e62b7f4a1f0" target="_top" xlink:title=" ">
<polygon fill="none" stroke="black" points="359,-380.5 359,-399.5 484,-399.5 484,-380.5 359,-380.5"/>
<text text-anchor="middle" x="421.5" y="-387.5" font-family="Helvetica,sans-Serif" font-size="10.00">__JS_AtomFromUInt32</text>
</a>
</g>
</g>
<!-- Node3&#45;&gt;Node5 -->
<g id="edge4" class="edge">
<title>Node3&#45;&gt;Node5</title>
<path fill="none" stroke="midnightblue" d="M281.59,-589.49C285.63,-558.66 302.56,-460.46 359,-409 360.74,-407.41 362.62,-405.95 364.59,-404.62"/>
<polygon fill="midnightblue" stroke="midnightblue" points="366.73,-407.43 373.76,-399.51 363.32,-401.32 366.73,-407.43"/>
</g>
<!-- Node6 -->
<g id="node6" class="node">
<title>Node6</title>
<g id="a_node6"><a xlink:href="quickjs_8h.html#a9bf98b18de88b4199910a43e933eb97d" target="_top" xlink:title=" ">
<polygon fill="none" stroke="black" points="371.5,-342.5 371.5,-361.5 471.5,-361.5 471.5,-342.5 371.5,-342.5"/>
<text text-anchor="middle" x="421.5" y="-349.5" font-family="Helvetica,sans-Serif" font-size="10.00">__JS_NewFloat64</text>
</a>
</g>
</g>
<!-- Node3&#45;&gt;Node6 -->
<g id="edge5" class="edge">
<title>Node3&#45;&gt;Node6</title>
<path fill="none" stroke="midnightblue" d="M280.87,-589.14C282.71,-554.08 293.75,-434.2 359,-371 360.63,-369.42 362.39,-367.97 364.25,-366.64"/>
<polygon fill="midnightblue" stroke="midnightblue" points="366.06,-369.64 372.92,-361.56 362.52,-363.6 366.06,-369.64"/>
</g>
<!-- Node7 -->
<g id="node7" class="node">
<title>Node7</title>
<g id="a_node7"><a xlink:href="quickjs_8c.html#a74547db03bf739a52c83a326b32db997" target="_top" xlink:title=" ">
<polygon fill="none" stroke="red" points="381,-304.5 381,-323.5 462,-323.5 462,-304.5 381,-304.5"/>
<text text-anchor="middle" x="421.5" y="-311.5" font-family="Helvetica,sans-Serif" font-size="10.00">add_property</text>
</a>
</g>
</g>
<!-- Node3&#45;&gt;Node7 -->
<g id="edge6" class="edge">
<title>Node3&#45;&gt;Node7</title>
<path fill="none" stroke="midnightblue" d="M280.31,-589.43C280.07,-551.29 284.4,-408.55 359,-333 362.64,-329.32 366.97,-326.35 371.63,-323.95"/>
<polygon fill="midnightblue" stroke="midnightblue" points="373.06,-327.14 380.89,-320.01 370.32,-320.7 373.06,-327.14"/>
</g>
<!-- Node65 -->
<g id="node8" class="node">
<title>Node65</title>
<g id="a_node8"><a xlink:href="quickjs_8c.html#a4956f45ffd2849b96dc051277264f87a" target="_top" xlink:title=" ">
<polygon fill="none" stroke="red" points="380.5,-228.5 380.5,-247.5 462.5,-247.5 462.5,-228.5 380.5,-228.5"/>
<text text-anchor="middle" x="421.5" y="-235.5" font-family="Helvetica,sans-Serif" font-size="10.00">build_arg_list</text>
</a>
</g>
</g>
<!-- Node3&#45;&gt;Node65 -->
<g id="edge7" class="edge">
<title>Node3&#45;&gt;Node65</title>
<path fill="none" stroke="midnightblue" d="M281.04,-589.31C283.62,-549.84 297.27,-398.45 359,-295 368.79,-278.59 384.71,-264.03 397.9,-253.73"/>
<polygon fill="midnightblue" stroke="midnightblue" points="400.17,-256.39 406.08,-247.6 395.97,-250.79 400.17,-256.39"/>
</g>
<!-- Node66 -->
<g id="node9" class="node">
<title>Node66</title>
<g id="a_node9"><a xlink:href="quickjs_8c.html#ac864482356b3efc2d0b0a509fcfa4c7c" target="_top" xlink:title=" ">
<polygon fill="none" stroke="red" points="545,-190.5 545,-209.5 622,-209.5 622,-190.5 545,-190.5"/>
<text text-anchor="middle" x="583.5" y="-197.5" font-family="Helvetica,sans-Serif" font-size="10.00">free_arg_list</text>
</a>
</g>
</g>
<!-- Node3&#45;&gt;Node66 -->
<g id="edge15" class="edge">
<title>Node3&#45;&gt;Node66</title>
<path fill="none" stroke="midnightblue" d="M280.86,-589.2C283.1,-533.31 297.31,-255.57 359,-204 410.84,-160.66 495.55,-174.43 544.44,-187.66"/>
<polygon fill="midnightblue" stroke="midnightblue" points="543.73,-191.1 554.3,-190.46 545.64,-184.37 543.73,-191.1"/>
</g>
<!-- Node3&#45;&gt;Node57 -->
<g id="edge33" class="edge">
<title>Node3&#45;&gt;Node57</title>
<path fill="none" stroke="midnightblue" d="M282.06,-608.78C287.12,-636.91 305.98,-718.15 359,-751 428.07,-793.8 674.29,-769.94 779.87,-757.28"/>
<polygon fill="midnightblue" stroke="midnightblue" points="780.43,-760.74 789.93,-756.06 779.58,-753.79 780.43,-760.74"/>
</g>
<!-- Node3&#45;&gt;Node75 -->
<g id="edge39" class="edge">
<title>Node3&#45;&gt;Node75</title>
<path fill="none" stroke="midnightblue" d="M298.23,-589.43C313.91,-581.21 337.57,-569.39 359,-561 413.07,-539.84 435.32,-554.66 484,-523 523.08,-497.58 555.49,-452.3 571.57,-427.13"/>
<polygon fill="midnightblue" stroke="midnightblue" points="574.6,-428.89 576.92,-418.56 568.66,-425.19 574.6,-428.89"/>
</g>
<!-- Node161 -->
<g id="node12" class="node">
<title>Node161</title>
<g id="a_node12"><a xlink:href="quickjs_8c.html#a61c8dfb5e807af1b6ff7d8ca61576dda" target="_top" xlink:title=" ">
<polygon fill="none" stroke="red" points="374.5,-988.5 374.5,-1007.5 468.5,-1007.5 468.5,-988.5 374.5,-988.5"/>
<text text-anchor="middle" x="421.5" y="-995.5" font-family="Helvetica,sans-Serif" font-size="10.00">build_backtrace</text>
</a>
</g>
</g>
<!-- Node3&#45;&gt;Node161 -->
<g id="edge12" class="edge">
<title>Node3&#45;&gt;Node161</title>
<path fill="none" stroke="midnightblue" d="M282.23,-608.75C292.53,-666.78 345.92,-964.6 359,-979 360.97,-981.17 363.19,-983.1 365.57,-984.8"/>
<polygon fill="midnightblue" stroke="midnightblue" points="363.84,-987.84 374.25,-989.81 367.34,-981.78 363.84,-987.84"/>
</g>
<!-- Node248 -->
<g id="node13" class="node">
<title>Node248</title>
<g id="a_node13"><a xlink:href="quickjs_8c.html#a344894112559c2ba75043fd10bcfa02f" target="_top" xlink:title=" ">
<polygon fill="none" stroke="red" points="371,-950.5 371,-969.5 472,-969.5 472,-950.5 371,-950.5"/>
<text text-anchor="middle" x="421.5" y="-957.5" font-family="Helvetica,sans-Serif" font-size="10.00">close_lexical_var</text>
</a>
</g>
</g>
<!-- Node3&#45;&gt;Node248 -->
<g id="edge13" class="edge">
<title>Node3&#45;&gt;Node248</title>
<path fill="none" stroke="midnightblue" d="M282.14,-608.76C291.18,-661.95 335.27,-915.44 359,-941 360.23,-942.32 361.55,-943.55 362.94,-944.7"/>
<polygon fill="midnightblue" stroke="midnightblue" points="361.32,-947.83 371.6,-950.38 365.16,-941.97 361.32,-947.83"/>
</g>
<!-- Node249 -->
<g id="node14" class="node">
<title>Node249</title>
<g id="a_node14"><a xlink:href="quickjs_8c.html#a1782043fce951bd4f0d91c7796b31e24" target="_top" xlink:title=" ">
<polygon fill="none" stroke="red" points="378,-912.5 378,-931.5 465,-931.5 465,-912.5 378,-912.5"/>
<text text-anchor="middle" x="421.5" y="-919.5" font-family="Helvetica,sans-Serif" font-size="10.00">close_var_refs</text>
</a>
</g>
</g>
<!-- Node3&#45;&gt;Node249 -->
<g id="edge14" class="edge">
<title>Node3&#45;&gt;Node249</title>
<path fill="none" stroke="midnightblue" d="M281.73,-608.71C287.85,-655.63 316.48,-858.44 359,-903 361.83,-905.96 365.1,-908.47 368.65,-910.58"/>
<polygon fill="midnightblue" stroke="midnightblue" points="367.36,-913.85 377.88,-915.08 370.43,-907.56 367.36,-913.85"/>
</g>
<!-- Node54 -->
<g id="node15" class="node">
<title>Node54</title>
<g id="a_node15"><a xlink:href="quickjs_8c.html#a9e7b4bccf927d811b0f99b40b08c0472" target="_top" xlink:title=" ">
<polygon fill="none" stroke="red" points="383.5,-874.5 383.5,-893.5 459.5,-893.5 459.5,-874.5 383.5,-874.5"/>
<text text-anchor="middle" x="421.5" y="-881.5" font-family="Helvetica,sans-Serif" font-size="10.00">free_var_ref</text>
</a>
</g>
</g>
<!-- Node3&#45;&gt;Node54 -->
<g id="edge16" class="edge">
<title>Node3&#45;&gt;Node54</title>
<path fill="none" stroke="midnightblue" d="M280.54,-608.75C281.2,-646.36 288.55,-783.68 359,-860 363.29,-864.64 368.58,-868.4 374.24,-871.43"/>
<polygon fill="midnightblue" stroke="midnightblue" points="372.82,-874.63 383.36,-875.64 375.75,-868.27 372.82,-874.63"/>
</g>
<!-- Node251 -->
<g id="node16" class="node">
<title>Node251</title>
<g id="a_node16"><a xlink:href="cutils_8h.html#a7c82a3ee025fee89db5b11ff5b7691b8" target="_top" xlink:title=" ">
<polygon fill="none" stroke="black" points="395,-798.5 395,-817.5 448,-817.5 448,-798.5 395,-798.5"/>
<text text-anchor="middle" x="421.5" y="-805.5" font-family="Helvetica,sans-Serif" font-size="10.00">get_i16</text>
</a>
</g>
</g>
<!-- Node3&#45;&gt;Node251 -->
<g id="edge17" class="edge">
<title>Node3&#45;&gt;Node251</title>
<path fill="none" stroke="midnightblue" d="M281.89,-608.52C286.75,-638.54 305.69,-732.22 359,-784 366.26,-791.05 375.83,-796.1 385.26,-799.68"/>
<polygon fill="midnightblue" stroke="midnightblue" points="384.32,-803.05 394.92,-802.9 386.54,-796.41 384.32,-803.05"/>
</g>
<!-- Node252 -->
<g id="node17" class="node">
<title>Node252</title>
<g id="a_node17"><a xlink:href="cutils_8h.html#a288ee4e688944e23500af2ecc813c306" target="_top" xlink:title=" ">
<polygon fill="none" stroke="black" points="398,-684.5 398,-703.5 445,-703.5 445,-684.5 398,-684.5"/>
<text text-anchor="middle" x="421.5" y="-691.5" font-family="Helvetica,sans-Serif" font-size="10.00">get_i8</text>
</a>
</g>
</g>
<!-- Node3&#45;&gt;Node252 -->
<g id="edge18" class="edge">
<title>Node3&#45;&gt;Node252</title>
<path fill="none" stroke="midnightblue" d="M287.88,-608.65C300.66,-624.71 328.47,-656.93 359,-675 367.85,-680.24 378.29,-684.17 388.02,-687.05"/>
<polygon fill="midnightblue" stroke="midnightblue" points="387.25,-690.47 397.82,-689.68 389.07,-683.71 387.25,-690.47"/>
</g>
<!-- Node253 -->
<g id="node18" class="node">
<title>Node253</title>
<g id="a_node18"><a xlink:href="cutils_8h.html#ad587834d17e95461893d59661e5e9676" target="_top" xlink:title=" ">
<polygon fill="none" stroke="black" points="393.5,-646.5 393.5,-665.5 449.5,-665.5 449.5,-646.5 393.5,-646.5"/>
<text text-anchor="middle" x="421.5" y="-653.5" font-family="Helvetica,sans-Serif" font-size="10.00">get_u16</text>
</a>
</g>
</g>
<!-- Node3&#45;&gt;Node253 -->
<g id="edge19" class="edge">
<title>Node3&#45;&gt;Node253</title>
<path fill="none" stroke="midnightblue" d="M298.24,-608.54C313.93,-616.75 337.59,-628.57 359,-637 366.84,-640.09 375.39,-643 383.55,-645.58"/>
<polygon fill="midnightblue" stroke="midnightblue" points="382.67,-648.97 393.25,-648.55 384.71,-642.27 382.67,-648.97"/>
</g>
<!-- Node50 -->
<g id="node19" class="node">
<title>Node50</title>
<g id="a_node19"><a xlink:href="cutils_8h.html#a941262a5f72fda2ec43ae7911e97a0dc" target="_top" xlink:title=" ">
<polygon fill="none" stroke="black" points="393.5,-608.5 393.5,-627.5 449.5,-627.5 449.5,-608.5 393.5,-608.5"/>
<text text-anchor="middle" x="421.5" y="-615.5" font-family="Helvetica,sans-Serif" font-size="10.00">get_u32</text>
</a>
</g>
</g>
<!-- Node3&#45;&gt;Node50 -->
<g id="edge20" class="edge">
<title>Node3&#45;&gt;Node50</title>
<path fill="none" stroke="midnightblue" d="M323.27,-604.8C342.45,-607.41 364.86,-610.45 383.33,-612.96"/>
<polygon fill="midnightblue" stroke="midnightblue" points="383.03,-616.45 393.41,-614.32 383.97,-609.51 383.03,-616.45"/>
</g>
<!-- Node254 -->
<g id="node20" class="node">
<title>Node254</title>
<g id="a_node20"><a xlink:href="quickjs_8c.html#a37fe43b6649456a848bd54846450b995" target="_top" xlink:title=" ">
<polygon fill="none" stroke="red" points="385.5,-570.5 385.5,-589.5 457.5,-589.5 457.5,-570.5 385.5,-570.5"/>
<text text-anchor="middle" x="421.5" y="-577.5" font-family="Helvetica,sans-Serif" font-size="10.00">get_var_ref</text>
</a>
</g>
</g>
<!-- Node3&#45;&gt;Node254 -->
<g id="edge21" class="edge">
<title>Node3&#45;&gt;Node254</title>
<path fill="none" stroke="midnightblue" d="M323.27,-593.2C339.65,-590.97 358.39,-588.43 375.01,-586.17"/>
<polygon fill="midnightblue" stroke="midnightblue" points="375.61,-589.62 385.05,-584.81 374.67,-582.69 375.61,-589.62"/>
</g>
<!-- Node197 -->
<g id="node21" class="node">
<title>Node197</title>
<g id="a_node21"><a xlink:href="list_8h.html#a663527a4d757540b2177bef0db1ce5c0" target="_top" xlink:title=" ">
<polygon fill="none" stroke="black" points="380.5,-494.5 380.5,-513.5 462.5,-513.5 462.5,-494.5 380.5,-494.5"/>
<text text-anchor="middle" x="421.5" y="-501.5" font-family="Helvetica,sans-Serif" font-size="10.00">init_list_head</text>
</a>
</g>
</g>
<!-- Node3&#45;&gt;Node197 -->
<g id="edge22" class="edge">
<title>Node3&#45;&gt;Node197</title>
<path fill="none" stroke="midnightblue" d="M289.25,-589.04C302.88,-574.05 330.55,-545.59 359,-528 365.5,-523.98 372.79,-520.43 380.01,-517.37"/>
<polygon fill="midnightblue" stroke="midnightblue" points="381.74,-520.45 389.74,-513.51 379.16,-513.94 381.74,-520.45"/>
</g>
<!-- Node255 -->
<g id="node22" class="node">
<title>Node255</title>
<g id="a_node22"><a xlink:href="quickjs_8c.html#a2bb0a2ca3b8320f3ff778c65034fce49" target="_top" xlink:title=" ">
<polygon fill="none" stroke="red" points="362,-456.5 362,-475.5 481,-475.5 481,-456.5 362,-456.5"/>
<text text-anchor="middle" x="421.5" y="-463.5" font-family="Helvetica,sans-Serif" font-size="10.00">is_backtrace_needed</text>
</a>
</g>
</g>
<!-- Node3&#45;&gt;Node255 -->
<g id="edge23" class="edge">
<title>Node3&#45;&gt;Node255</title>
<path fill="none" stroke="midnightblue" d="M284.42,-589.44C293.88,-567.57 320.08,-513.6 359,-485 361.66,-483.05 364.52,-481.29 367.5,-479.72"/>
<polygon fill="midnightblue" stroke="midnightblue" points="369.09,-482.84 376.73,-475.5 366.18,-476.47 369.09,-482.84"/>
</g>
<!-- Node181 -->
<g id="node23" class="node">
<title>Node181</title>
<g id="a_node23"><a xlink:href="quickjs_8c.html#a686cf78f8b0361621ee2ba6182195c31" target="_top" xlink:title=" ">
<polygon fill="none" stroke="black" points="377.5,-418.5 377.5,-437.5 465.5,-437.5 465.5,-418.5 377.5,-418.5"/>
<text text-anchor="middle" x="421.5" y="-425.5" font-family="Helvetica,sans-Serif" font-size="10.00">is_strict_mode</text>
</a>
</g>
</g>
<!-- Node3&#45;&gt;Node181 -->
<g id="edge24" class="edge">
<title>Node3&#45;&gt;Node181</title>
<path fill="none" stroke="midnightblue" d="M282.75,-589.15C289.41,-562.21 311.63,-486.65 359,-447 361.74,-444.71 364.75,-442.69 367.93,-440.92"/>
<polygon fill="midnightblue" stroke="midnightblue" points="369.68,-443.96 377.23,-436.54 366.69,-437.63 369.68,-443.96"/>
</g>
<!-- Node257 -->
<g id="node24" class="node">
<title>Node257</title>
<g id="a_node24"><a xlink:href="quickjs_8c.html#ae8ff05447c0d51fe277baccf616dc7c6" target="_top" xlink:title=" ">
<polygon fill="none" stroke="red" points="383.5,-722.5 383.5,-741.5 459.5,-741.5 459.5,-722.5 383.5,-722.5"/>
<text text-anchor="middle" x="421.5" y="-729.5" font-family="Helvetica,sans-Serif" font-size="10.00">js_add_slow</text>
</a>
</g>
</g>
<!-- Node3&#45;&gt;Node257 -->
<g id="edge25" class="edge">
<title>Node3&#45;&gt;Node257</title>
<path fill="none" stroke="midnightblue" d="M284.42,-608.56C293.88,-630.43 320.08,-684.4 359,-713 363.5,-716.31 368.59,-719.05 373.87,-721.32"/>
<polygon fill="midnightblue" stroke="midnightblue" points="372.89,-724.69 383.48,-724.91 375.34,-718.13 372.89,-724.69"/>
</g>
<!-- Node3&#45;&gt;Node124 -->
<g id="edge29" class="edge">
<title>Node3&#45;&gt;Node124</title>
<path fill="none" stroke="midnightblue" d="M280.67,-608.52C281.85,-668.05 291.02,-984.04 359,-1046 445.48,-1124.83 597.5,-1103.23 672.74,-1089.55"/>
<polygon fill="midnightblue" stroke="midnightblue" points="673.63,-1092.94 682.83,-1087.68 672.36,-1086.06 673.63,-1092.94"/>
</g>
<!-- Node3&#45;&gt;Node68 -->
<g id="edge34" class="edge">
<title>Node3&#45;&gt;Node68</title>
<path fill="none" stroke="midnightblue" d="M282.27,-608.82C293.59,-671.48 355.43,-1013 359,-1017 361.57,-1019.88 364.56,-1022.33 367.82,-1024.41"/>
<polygon fill="midnightblue" stroke="midnightblue" points="366.46,-1027.65 376.96,-1029.1 369.66,-1021.42 366.46,-1027.65"/>
</g>
<!-- Node69 -->
<g id="node27" class="node">
<title>Node69</title>
<g id="a_node27"><a xlink:href="quickjs_8c.html#a5762c57ae0c9937e986040c01222833a" target="_top" xlink:title=" ">
<polygon fill="none" stroke="red" points="520,-969.5 520,-988.5 647,-988.5 647,-969.5 520,-969.5"/>
<text text-anchor="middle" x="583.5" y="-976.5" font-family="Helvetica,sans-Serif" font-size="10.00">JS_GetPropertyInternal</text>
</a>
</g>
</g>
<!-- Node3&#45;&gt;Node69 -->
<g id="edge38" class="edge">
<title>Node3&#45;&gt;Node69</title>
<path fill="none" stroke="midnightblue" d="M280.86,-608.87C282.67,-643.97 293.6,-763.95 359,-827 400.8,-867.3 435.32,-833.34 484,-865 523.08,-890.42 555.49,-935.7 571.57,-960.87"/>
<polygon fill="midnightblue" stroke="midnightblue" points="568.66,-962.81 576.92,-969.44 574.6,-959.11 568.66,-962.81"/>
</g>
<!-- Node3&#45;&gt;Node287 -->
<g id="edge40" class="edge">
<title>Node3&#45;&gt;Node287</title>
<path fill="none" stroke="midnightblue" d="M280.92,-589.36C283.66,-530.44 300.76,-219.21 359,-148 363.69,-142.27 369.93,-137.9 376.64,-134.57"/>
<polygon fill="midnightblue" stroke="midnightblue" points="378.11,-137.75 385.98,-130.65 375.4,-131.29 378.11,-137.75"/>
</g>
<!-- Node3&#45;&gt;Node127 -->
<g id="edge41" class="edge">
<title>Node3&#45;&gt;Node127</title>
<path fill="none" stroke="midnightblue" d="M280.69,-589.2C282.11,-526.47 292.86,-181.27 359,-105 361.53,-102.08 364.49,-99.61 367.73,-97.51"/>
<polygon fill="midnightblue" stroke="midnightblue" points="369.57,-100.5 376.83,-92.78 366.34,-94.29 369.57,-100.5"/>
</g>
<!-- Node65&#45;&gt;Node4 -->
<g id="edge8" class="edge">
<title>Node65&#45;&gt;Node4</title>
<path fill="none" stroke="midnightblue" d="M462.87,-238C484.23,-238 510.62,-238 533.18,-238"/>
<polygon fill="midnightblue" stroke="midnightblue" points="533.24,-241.5 543.24,-238 533.24,-234.5 533.24,-241.5"/>
</g>
<!-- Node65&#45;&gt;Node66 -->
<g id="edge9" class="edge">
<title>Node65&#45;&gt;Node66</title>
<path fill="none" stroke="midnightblue" d="M462.87,-228.41C484.81,-223.2 512.06,-216.73 535.01,-211.28"/>
<polygon fill="midnightblue" stroke="midnightblue" points="535.97,-214.65 544.89,-208.93 534.35,-207.84 535.97,-214.65"/>
</g>
<!-- Node65&#45;&gt;Node75 -->
<g id="edge11" class="edge">
<title>Node65&#45;&gt;Node75</title>
<path fill="none" stroke="midnightblue" d="M457.67,-247.53C466.85,-251.1 476.31,-255.83 484,-262 528.56,-297.76 560.36,-359.14 574.42,-390.05"/>
<polygon fill="midnightblue" stroke="midnightblue" points="571.26,-391.55 578.51,-399.28 577.66,-388.72 571.26,-391.55"/>
</g>
<!-- Node66&#45;&gt;Node57 -->
<g id="edge10" class="edge">
<title>Node66&#45;&gt;Node57</title>
<path fill="none" stroke="midnightblue" d="M622.28,-205.34C631.28,-208.16 640.23,-212.46 647,-219 801.15,-368.05 824.39,-653.14 827.89,-730.96"/>
<polygon fill="midnightblue" stroke="midnightblue" points="824.4,-731.4 828.28,-741.25 831.39,-731.13 824.4,-731.4"/>
</g>
<!-- Node257&#45;&gt;Node57 -->
<g id="edge26" class="edge">
<title>Node257&#45;&gt;Node57</title>
<path fill="none" stroke="midnightblue" d="M459.61,-733.74C533.19,-737.18 697.59,-744.87 779.77,-748.72"/>
<polygon fill="midnightblue" stroke="midnightblue" points="779.7,-752.22 789.85,-749.19 780.03,-745.23 779.7,-752.22"/>
</g>
<!-- Node257&#45;&gt;Node75 -->
<g id="edge27" class="edge">
<title>Node257&#45;&gt;Node75</title>
<path fill="none" stroke="midnightblue" d="M459.75,-726.62C468.61,-723.8 477.4,-719.51 484,-713 566.06,-632.06 579.8,-482.28 582.07,-428.7"/>
<polygon fill="midnightblue" stroke="midnightblue" points="585.57,-428.63 582.4,-418.52 578.57,-428.4 585.57,-428.63"/>
</g>
<!-- Node124&#45;&gt;Node3 -->
<g id="edge30" class="edge">
<title>Node124&#45;&gt;Node3</title>
<path fill="none" stroke="midnightblue" d="M698.04,-1092.59C638.48,-1113.85 456.81,-1153.16 359,-1064 292.65,-1003.52 282.32,-701.06 280.77,-619.26"/>
<polygon fill="midnightblue" stroke="midnightblue" points="284.26,-618.79 280.6,-608.85 277.26,-618.9 284.26,-618.79"/>
</g>
<!-- Node124&#45;&gt;Node57 -->
<g id="edge31" class="edge">
<title>Node124&#45;&gt;Node57</title>
<path fill="none" stroke="midnightblue" d="M722.64,-1073.42C737.59,-1027.89 801.6,-832.93 822.13,-770.39"/>
<polygon fill="midnightblue" stroke="midnightblue" points="825.55,-771.21 825.34,-760.62 818.9,-769.03 825.55,-771.21"/>
</g>
<!-- Node68&#45;&gt;Node69 -->
<g id="edge35" class="edge">
<title>Node68&#45;&gt;Node69</title>
<path fill="none" stroke="midnightblue" d="M454.87,-1026.45C464.31,-1023.55 474.6,-1020.26 484,-1017 506.12,-1009.33 530.69,-999.85 549.76,-992.28"/>
<polygon fill="midnightblue" stroke="midnightblue" points="551.19,-995.47 559.18,-988.52 548.6,-988.97 551.19,-995.47"/>
</g>
<!-- Node69&#45;&gt;Node57 -->
<g id="edge37" class="edge">
<title>Node69&#45;&gt;Node57</title>
<path fill="none" stroke="midnightblue" d="M594.67,-969.49C632.19,-934.44 763.07,-812.14 810.86,-767.49"/>
<polygon fill="midnightblue" stroke="midnightblue" points="813.37,-769.93 818.28,-760.55 808.59,-764.82 813.37,-769.93"/>
</g>
<!-- Node69&#45;&gt;Node124 -->
<g id="edge36" class="edge">
<title>Node69&#45;&gt;Node124</title>
<path fill="none" stroke="midnightblue" d="M596.77,-988.6C619.74,-1006.55 669.39,-1045.38 697.33,-1067.23"/>
<polygon fill="midnightblue" stroke="midnightblue" points="695.22,-1070.02 705.26,-1073.43 699.53,-1064.51 695.22,-1070.02"/>
</g>
</g>
</svg>
