<?xml version="1.0" encoding="UTF-8" standalone="no"?>
<!DOCTYPE svg PUBLIC "-//W3C//DTD SVG 1.1//EN"
 "http://www.w3.org/Graphics/SVG/1.1/DTD/svg11.dtd">
<!-- Generated by graphviz version 2.43.0 (0)
 -->
<!-- Title: string_get Pages: 1 -->
<!--zoomable 923 -->
<svg id="main" version="1.1" xmlns="http://www.w3.org/2000/svg" xmlns:xlink="http://www.w3.org/1999/xlink" xml:space="preserve" onload="init(evt)">
<style type="text/css"><![CDATA[
.edge:hover path { stroke: red; }
.edge:hover polygon { stroke: red; fill: red; }
]]></style>
<script type="text/javascript"><![CDATA[
var edges = document.getElementsByTagName('g');
if (edges && edges.length) {
  for (var i=0;i<edges.length;i++) {
    if (edges[i].id.substr(0,4)=='edge') {
      edges[i].setAttribute('class','edge');
    }
  }
}
]]></script>
        <defs>
                <circle id="rim" cx="0" cy="0" r="7"/>
                <circle id="rim2" cx="0" cy="0" r="3.5"/>
                <g id="zoomPlus">
                        <use xlink:href="#rim" fill="#404040">
                                <set attributeName="fill" to="#808080" begin="zoomplus.mouseover" end="zoomplus.mouseout"/>
                        </use>
                        <path d="M-4,0h8M0,-4v8" fill="none" stroke="white" stroke-width="1.5" pointer-events="none"/>
                </g>
                <g id="zoomMin">
                        <use xlink:href="#rim" fill="#404040">
                                <set attributeName="fill" to="#808080" begin="zoomminus.mouseover" end="zoomminus.mouseout"/>
                        </use>
                        <path d="M-4,0h8" fill="none" stroke="white" stroke-width="1.5" pointer-events="none"/>
                </g>
                <g id="dirArrow">
                        <path fill="none" stroke="white" stroke-width="1.5" d="M0,-3.0v7 M-2.5,-0.5L0,-3.0L2.5,-0.5"/>
                </g>
               <g id="resetDef">
                       <use xlink:href="#rim2" fill="#404040">
                               <set attributeName="fill" to="#808080" begin="reset.mouseover" end="reset.mouseout"/>
                       </use>
               </g>
        </defs>

<script type="text/javascript">
var viewWidth = 595;
var viewHeight = 923;
var sectionId = 'dynsection-327';
</script>
<script xlink:href="svgpan.js"/>
<svg id="graph" class="graph">
<g id="viewport">
<title>string_get</title>
<!-- Node1 -->
<g id="node1" class="node">
<title>Node1</title>
<g id="a_node1"><a xlink:title=" ">
<polygon fill="#bfbfbf" stroke="black" points="522,-442.77 522,-461.77 587,-461.77 587,-442.77 522,-442.77"/>
<text text-anchor="middle" x="554.5" y="-449.77" font-family="Helvetica,sans-Serif" font-size="10.00">string_get</text>
</a>
</g>
</g>
<!-- Node2 -->
<g id="node2" class="node">
<title>Node2</title>
<g id="a_node2"><a xlink:href="quickjs_8c.html#a7a64dc8a6c1daf2e734e3a4f7013b660" target="_top" xlink:title=" ">
<polygon fill="none" stroke="black" points="374.5,-290.77 374.5,-309.77 448.5,-309.77 448.5,-290.77 374.5,-290.77"/>
<text text-anchor="middle" x="411.5" y="-297.77" font-family="Helvetica,sans-Serif" font-size="10.00">find_abbrev</text>
</a>
</g>
</g>
<!-- Node1&#45;&gt;Node2 -->
<g id="edge1" class="edge">
<title>Node1&#45;&gt;Node2</title>
<path fill="none" stroke="midnightblue" d="M549.02,-432.65C541.31,-403.43 522.69,-348.76 486,-319.27 475.42,-310.77 461.45,-306.03 448.54,-303.41"/>
<polygon fill="midnightblue" stroke="midnightblue" points="545.66,-433.63 551.46,-442.5 552.45,-431.95 545.66,-433.63"/>
</g>
<!-- Node4 -->
<g id="node4" class="node">
<title>Node4</title>
<g id="a_node4"><a xlink:href="quickjs_8c.html#ac2ddbbd09d32a6d9a4b7530d7f68c6f0" target="_top" xlink:title=" ">
<polygon fill="none" stroke="red" points="16,-157.77 16,-176.77 102,-176.77 102,-157.77 16,-157.77"/>
<text text-anchor="middle" x="59" y="-164.77" font-family="Helvetica,sans-Serif" font-size="10.00">js_Date_parse</text>
</a>
</g>
</g>
<!-- Node1&#45;&gt;Node4 -->
<g id="edge6" class="edge">
<title>Node1&#45;&gt;Node4</title>
<path fill="none" stroke="midnightblue" d="M551.98,-432.48C546.97,-372.88 528.75,-197.19 486,-163.27 427.7,-117.02 197.79,-145.96 102.12,-160.46"/>
<polygon fill="midnightblue" stroke="midnightblue" points="548.5,-432.8 552.79,-442.48 555.48,-432.23 548.5,-432.8"/>
</g>
<!-- Node11 -->
<g id="node5" class="node">
<title>Node11</title>
<g id="a_node5"><a xlink:href="quickjs_8c.html#a8a7c186e12bc42411f459e3ebb1ba8d4" target="_top" xlink:title=" ">
<polygon fill="none" stroke="black" points="190,-834.77 190,-853.77 265,-853.77 265,-834.77 190,-834.77"/>
<text text-anchor="middle" x="227.5" y="-841.77" font-family="Helvetica,sans-Serif" font-size="10.00">hex_decode</text>
</a>
</g>
</g>
<!-- Node1&#45;&gt;Node11 -->
<g id="edge4" class="edge">
<title>Node1&#45;&gt;Node11</title>
<path fill="none" stroke="midnightblue" d="M552.99,-471.9C550.71,-541.85 539.18,-777.43 486,-825.27 424.85,-880.29 319.06,-866.2 264.05,-853.8"/>
<polygon fill="midnightblue" stroke="midnightblue" points="556.49,-471.91 553.28,-461.81 549.49,-471.71 556.49,-471.91"/>
</g>
<!-- Node12 -->
<g id="node6" class="node">
<title>Node12</title>
<g id="a_node6"><a xlink:href="quickjs_8c.html#a7357f73356c16b9df497ae29e866fe6e" target="_top" xlink:title=" ">
<polygon fill="none" stroke="black" points="0,-853.77 0,-872.77 118,-872.77 118,-853.77 0,-853.77"/>
<text text-anchor="middle" x="59" y="-860.77" font-family="Helvetica,sans-Serif" font-size="10.00">js_global_decodeURI</text>
</a>
</g>
</g>
<!-- Node1&#45;&gt;Node12 -->
<g id="edge7" class="edge">
<title>Node1&#45;&gt;Node12</title>
<path fill="none" stroke="midnightblue" d="M553.37,-472.25C552.44,-546.79 544.95,-806.93 486,-858.27 369.01,-960.16 157.75,-898.45 85.23,-872.82"/>
<polygon fill="midnightblue" stroke="midnightblue" points="556.88,-471.98 553.47,-461.95 549.88,-471.91 556.88,-471.98"/>
</g>
<!-- Node13 -->
<g id="node7" class="node">
<title>Node13</title>
<g id="a_node7"><a xlink:href="quickjs_8c.html#a975ad6644d33f58847309ee2127f6888" target="_top" xlink:title=" ">
<polygon fill="none" stroke="black" points="352.5,-720.77 352.5,-739.77 470.5,-739.77 470.5,-720.77 352.5,-720.77"/>
<text text-anchor="middle" x="411.5" y="-727.77" font-family="Helvetica,sans-Serif" font-size="10.00">js_global_encodeURI</text>
</a>
</g>
</g>
<!-- Node1&#45;&gt;Node13 -->
<g id="edge8" class="edge">
<title>Node1&#45;&gt;Node13</title>
<path fill="none" stroke="midnightblue" d="M550.95,-472.06C543.53,-526.54 520.31,-677.03 486,-711.27 481.62,-715.65 476.36,-719.06 470.71,-721.71"/>
<polygon fill="midnightblue" stroke="midnightblue" points="554.44,-472.34 552.29,-461.96 547.5,-471.42 554.44,-472.34"/>
</g>
<!-- Node14 -->
<g id="node8" class="node">
<title>Node14</title>
<g id="a_node8"><a xlink:href="quickjs_8c.html#a4f415ac7df75855ee66c234d78cf62cb" target="_top" xlink:title=" ">
<polygon fill="none" stroke="black" points="361.5,-682.77 361.5,-701.77 461.5,-701.77 461.5,-682.77 361.5,-682.77"/>
<text text-anchor="middle" x="411.5" y="-689.77" font-family="Helvetica,sans-Serif" font-size="10.00">js_global_escape</text>
</a>
</g>
</g>
<!-- Node1&#45;&gt;Node14 -->
<g id="edge9" class="edge">
<title>Node1&#45;&gt;Node14</title>
<path fill="none" stroke="midnightblue" d="M553.53,-471.92C552.48,-514.94 543.72,-618.01 486,-673.27 479.24,-679.75 470.58,-684.09 461.59,-686.99"/>
<polygon fill="midnightblue" stroke="midnightblue" points="557.03,-471.95 553.66,-461.91 550.03,-471.86 557.03,-471.95"/>
</g>
<!-- Node15 -->
<g id="node9" class="node">
<title>Node15</title>
<g id="a_node9"><a xlink:href="quickjs_8c.html#a8d2de44d89a149d734ef71d432d5c801" target="_top" xlink:title=" ">
<polygon fill="none" stroke="black" points="171.5,-777.77 171.5,-796.77 283.5,-796.77 283.5,-777.77 171.5,-777.77"/>
<text text-anchor="middle" x="227.5" y="-784.77" font-family="Helvetica,sans-Serif" font-size="10.00">js_global_unescape</text>
</a>
</g>
</g>
<!-- Node1&#45;&gt;Node15 -->
<g id="edge10" class="edge">
<title>Node1&#45;&gt;Node15</title>
<path fill="none" stroke="midnightblue" d="M551.87,-471.94C546.49,-531.97 527.19,-711.14 486,-749.27 457.4,-775.75 350.43,-783.8 283.69,-786.23"/>
<polygon fill="midnightblue" stroke="midnightblue" points="555.37,-472.15 552.74,-461.88 548.39,-471.54 555.37,-472.15"/>
</g>
<!-- Node16 -->
<g id="node10" class="node">
<title>Node16</title>
<g id="a_node10"><a xlink:href="quickjs_8c.html#a32ee6be61757664e4eea552e5508ad6e" target="_top" xlink:title=" ">
<polygon fill="none" stroke="black" points="350.5,-606.77 350.5,-625.77 472.5,-625.77 472.5,-606.77 350.5,-606.77"/>
<text text-anchor="middle" x="411.5" y="-613.77" font-family="Helvetica,sans-Serif" font-size="10.00">js_regexp_get_source</text>
</a>
</g>
</g>
<!-- Node1&#45;&gt;Node16 -->
<g id="edge11" class="edge">
<title>Node1&#45;&gt;Node16</title>
<path fill="none" stroke="midnightblue" d="M549.29,-471.77C541.79,-501.9 523.27,-559.68 486,-592.27 478.72,-598.64 469.73,-603.32 460.55,-606.76"/>
<polygon fill="midnightblue" stroke="midnightblue" points="552.7,-472.56 551.57,-462.02 545.88,-470.96 552.7,-472.56"/>
</g>
<!-- Node17 -->
<g id="node11" class="node">
<title>Node17</title>
<g id="a_node11"><a xlink:href="quickjs_8c.html#adb4d2990e6bf3f99633512ad2054b47a" target="_top" xlink:title=" ">
<polygon fill="none" stroke="black" points="337,-644.77 337,-663.77 486,-663.77 486,-644.77 337,-644.77"/>
<text text-anchor="middle" x="411.5" y="-651.77" font-family="Helvetica,sans-Serif" font-size="10.00">js_string___GetSubstitution</text>
</a>
</g>
</g>
<!-- Node1&#45;&gt;Node17 -->
<g id="edge12" class="edge">
<title>Node1&#45;&gt;Node17</title>
<path fill="none" stroke="midnightblue" d="M552.06,-472.09C548.23,-509.66 534.48,-591.43 486,-635.27 481.7,-639.16 476.7,-642.28 471.38,-644.77"/>
<polygon fill="midnightblue" stroke="midnightblue" points="555.56,-472.2 552.95,-461.93 548.59,-471.59 555.56,-472.2"/>
</g>
<!-- Node20 -->
<g id="node14" class="node">
<title>Node20</title>
<g id="a_node14"><a xlink:href="quickjs_8c.html#a82cb999c219dbe6148c7df47ad6bb262" target="_top" xlink:title=" ">
<polygon fill="none" stroke="black" points="350,-530.77 350,-549.77 473,-549.77 473,-530.77 350,-530.77"/>
<text text-anchor="middle" x="411.5" y="-537.77" font-family="Helvetica,sans-Serif" font-size="10.00">js_string_CreateHTML</text>
</a>
</g>
</g>
<!-- Node1&#45;&gt;Node20 -->
<g id="edge15" class="edge">
<title>Node1&#45;&gt;Node20</title>
<path fill="none" stroke="midnightblue" d="M540.48,-470.31C528.18,-486.06 508.31,-508.36 486,-521.27 479.27,-525.17 471.74,-528.28 464.13,-530.76"/>
<polygon fill="midnightblue" stroke="midnightblue" points="543.59,-472 546.82,-461.91 538,-467.79 543.59,-472"/>
</g>
<!-- Node21 -->
<g id="node15" class="node">
<title>Node21</title>
<g id="a_node15"><a xlink:href="quickjs_8c.html#a1fdb56277638da2aef63b9be0c12895f" target="_top" xlink:title=" ">
<polygon fill="none" stroke="black" points="352,-481.27 352,-511.27 471,-511.27 471,-481.27 352,-481.27"/>
<text text-anchor="start" x="360" y="-499.27" font-family="Helvetica,sans-Serif" font-size="10.00">js_string_define_own</text>
<text text-anchor="middle" x="411.5" y="-488.27" font-family="Helvetica,sans-Serif" font-size="10.00">_property</text>
</a>
</g>
</g>
<!-- Node1&#45;&gt;Node21 -->
<g id="edge16" class="edge">
<title>Node1&#45;&gt;Node21</title>
<path fill="none" stroke="midnightblue" d="M513.13,-464.87C496.8,-469.97 477.82,-475.89 460.78,-481.21"/>
<polygon fill="midnightblue" stroke="midnightblue" points="514.4,-468.14 522.91,-461.82 512.32,-461.46 514.4,-468.14"/>
</g>
<!-- Node22 -->
<g id="node16" class="node">
<title>Node22</title>
<g id="a_node16"><a xlink:href="quickjs_8c.html#afe038ef522a8c7c8862cfe18a0c0a785" target="_top" xlink:title=" ">
<polygon fill="none" stroke="black" points="371,-442.77 371,-461.77 452,-461.77 452,-442.77 371,-442.77"/>
<text text-anchor="middle" x="411.5" y="-449.77" font-family="Helvetica,sans-Serif" font-size="10.00">js_string_pad</text>
</a>
</g>
</g>
<!-- Node1&#45;&gt;Node22 -->
<g id="edge17" class="edge">
<title>Node1&#45;&gt;Node22</title>
<path fill="none" stroke="midnightblue" d="M511.76,-452.27C492.9,-452.27 470.71,-452.27 452.11,-452.27"/>
<polygon fill="midnightblue" stroke="midnightblue" points="511.86,-455.77 521.86,-452.27 511.86,-448.77 511.86,-455.77"/>
</g>
<!-- Node23 -->
<g id="node17" class="node">
<title>Node23</title>
<g id="a_node17"><a xlink:href="quickjs_8c.html#a0f6f437eaf0cabf7d3e31f8306ed7e02" target="_top" xlink:title=" ">
<polygon fill="none" stroke="black" points="364,-404.77 364,-423.77 459,-423.77 459,-404.77 364,-404.77"/>
<text text-anchor="middle" x="411.5" y="-411.77" font-family="Helvetica,sans-Serif" font-size="10.00">js_string_repeat</text>
</a>
</g>
</g>
<!-- Node1&#45;&gt;Node23 -->
<g id="edge18" class="edge">
<title>Node1&#45;&gt;Node23</title>
<path fill="none" stroke="midnightblue" d="M512.08,-440.47C503.47,-438.05 494.45,-435.55 486,-433.27 474.29,-430.11 461.51,-426.77 449.93,-423.79"/>
<polygon fill="midnightblue" stroke="midnightblue" points="511.37,-443.9 521.95,-443.24 513.27,-437.16 511.37,-443.9"/>
</g>
<!-- Node24 -->
<g id="node18" class="node">
<title>Node24</title>
<g id="a_node18"><a xlink:href="quickjs_8c.html#a62d4bd99d0b9e8200b220818902e5f0d" target="_top" xlink:title=" ">
<polygon fill="none" stroke="black" points="370,-366.77 370,-385.77 453,-385.77 453,-366.77 370,-366.77"/>
<text text-anchor="middle" x="411.5" y="-373.77" font-family="Helvetica,sans-Serif" font-size="10.00">js_string_trim</text>
</a>
</g>
</g>
<!-- Node1&#45;&gt;Node24 -->
<g id="edge19" class="edge">
<title>Node1&#45;&gt;Node24</title>
<path fill="none" stroke="midnightblue" d="M537.77,-435.38C524.98,-422.59 505.86,-405.54 486,-395.27 475.93,-390.07 464.33,-386.22 453.37,-383.4"/>
<polygon fill="midnightblue" stroke="midnightblue" points="535.39,-437.95 544.87,-442.69 540.42,-433.07 535.39,-437.95"/>
</g>
<!-- Node25 -->
<g id="node19" class="node">
<title>Node25</title>
<g id="a_node19"><a xlink:href="quickjs_8c.html#a33f864515daeb5fe5612be71c5a60870" target="_top" xlink:title=" ">
<polygon fill="none" stroke="black" points="376,-328.77 376,-347.77 447,-347.77 447,-328.77 376,-328.77"/>
<text text-anchor="middle" x="411.5" y="-335.77" font-family="Helvetica,sans-Serif" font-size="10.00">string_cmp</text>
</a>
</g>
</g>
<!-- Node1&#45;&gt;Node25 -->
<g id="edge20" class="edge">
<title>Node1&#45;&gt;Node25</title>
<path fill="none" stroke="midnightblue" d="M545.21,-433.61C534.61,-411.94 514.2,-376.69 486,-357.27 474.6,-349.43 460.19,-344.82 447.15,-342.12"/>
<polygon fill="midnightblue" stroke="midnightblue" points="542.09,-435.2 549.5,-442.77 548.42,-432.23 542.09,-435.2"/>
</g>
<!-- Node28 -->
<g id="node22" class="node">
<title>Node28</title>
<g id="a_node22"><a xlink:href="quickjs_8c.html#a66a97bf569ad46f27c410b7f92ad8a98" target="_top" xlink:title=" ">
<polygon fill="none" stroke="black" points="184.5,-568.77 184.5,-587.77 270.5,-587.77 270.5,-568.77 184.5,-568.77"/>
<text text-anchor="middle" x="227.5" y="-575.77" font-family="Helvetica,sans-Serif" font-size="10.00">string_indexof</text>
</a>
</g>
</g>
<!-- Node1&#45;&gt;Node28 -->
<g id="edge38" class="edge">
<title>Node1&#45;&gt;Node28</title>
<path fill="none" stroke="midnightblue" d="M547.53,-471.31C538.59,-496.32 519.12,-539.39 486,-559.27 419.33,-599.32 324.75,-593.81 270.72,-586.1"/>
<polygon fill="midnightblue" stroke="midnightblue" points="550.86,-472.42 550.73,-461.82 544.22,-470.18 550.86,-472.42"/>
</g>
<!-- Node30 -->
<g id="node24" class="node">
<title>Node30</title>
<g id="a_node24"><a xlink:href="quickjs_8c.html#a4502faf013a4f94c09e686fbddbda07a" target="_top" xlink:title=" ">
<polygon fill="none" stroke="black" points="362.5,-214.77 362.5,-233.77 460.5,-233.77 460.5,-214.77 362.5,-214.77"/>
<text text-anchor="middle" x="411.5" y="-221.77" font-family="Helvetica,sans-Serif" font-size="10.00">string_get_digits</text>
</a>
</g>
</g>
<!-- Node1&#45;&gt;Node30 -->
<g id="edge26" class="edge">
<title>Node1&#45;&gt;Node30</title>
<path fill="none" stroke="midnightblue" d="M553.12,-432.57C551.22,-391.21 540.79,-294.9 486,-243.27 479,-236.68 470.01,-232.3 460.74,-229.41"/>
<polygon fill="midnightblue" stroke="midnightblue" points="549.63,-432.82 553.46,-442.7 556.62,-432.59 549.63,-432.82"/>
</g>
<!-- Node31 -->
<g id="node25" class="node">
<title>Node31</title>
<g id="a_node25"><a xlink:href="quickjs_8c.html#a2f179461e54402c919fc78c4e76b0a21" target="_top" xlink:title=" ">
<polygon fill="none" stroke="black" points="160,-176.77 160,-195.77 295,-195.77 295,-176.77 160,-176.77"/>
<text text-anchor="middle" x="227.5" y="-183.77" font-family="Helvetica,sans-Serif" font-size="10.00">string_get_signed_digits</text>
</a>
</g>
</g>
<!-- Node1&#45;&gt;Node31 -->
<g id="edge37" class="edge">
<title>Node1&#45;&gt;Node31</title>
<path fill="none" stroke="midnightblue" d="M551.01,-432.39C543.89,-379.01 521.65,-234.63 486,-205.27 423.71,-153.99 321.71,-165.43 266.64,-176.74"/>
<polygon fill="midnightblue" stroke="midnightblue" points="547.58,-433.12 552.33,-442.59 554.52,-432.22 547.58,-433.12"/>
</g>
<!-- Node32 -->
<g id="node26" class="node">
<title>Node32</title>
<g id="a_node26"><a xlink:href="quickjs_8c.html#aad89e5b8f768e4b139b29de1bf2ff244" target="_top" xlink:title=" ">
<polygon fill="none" stroke="black" points="164.5,-89.27 164.5,-119.27 290.5,-119.27 290.5,-89.27 164.5,-89.27"/>
<text text-anchor="start" x="172.5" y="-107.27" font-family="Helvetica,sans-Serif" font-size="10.00">string_get_fixed_width</text>
<text text-anchor="middle" x="227.5" y="-96.27" font-family="Helvetica,sans-Serif" font-size="10.00">_digits</text>
</a>
</g>
</g>
<!-- Node1&#45;&gt;Node32 -->
<g id="edge30" class="edge">
<title>Node1&#45;&gt;Node32</title>
<path fill="none" stroke="midnightblue" d="M552.23,-432.42C547.77,-369.29 530.58,-174.88 486,-134.27 433.68,-86.61 348.48,-86.19 290.53,-92.95"/>
<polygon fill="midnightblue" stroke="midnightblue" points="548.75,-432.88 552.92,-442.62 555.74,-432.4 548.75,-432.88"/>
</g>
<!-- Node33 -->
<g id="node27" class="node">
<title>Node33</title>
<g id="a_node27"><a xlink:href="quickjs_8c.html#a4c6ca4ab4c034e7c2423ce5b974f5a46" target="_top" xlink:title=" ">
<polygon fill="none" stroke="black" points="367,-796.77 367,-815.77 456,-815.77 456,-796.77 367,-796.77"/>
<text text-anchor="middle" x="411.5" y="-803.77" font-family="Helvetica,sans-Serif" font-size="10.00">string_get_hex</text>
</a>
</g>
</g>
<!-- Node1&#45;&gt;Node33 -->
<g id="edge32" class="edge">
<title>Node1&#45;&gt;Node33</title>
<path fill="none" stroke="midnightblue" d="M552.02,-472.08C546.87,-536.04 527.69,-735.55 486,-782.27 478.23,-790.99 467.25,-796.55 456.14,-800.1"/>
<polygon fill="midnightblue" stroke="midnightblue" points="555.54,-472.03 552.82,-461.79 548.56,-471.49 555.54,-472.03"/>
</g>
<!-- Node34 -->
<g id="node28" class="node">
<title>Node34</title>
<g id="a_node28"><a xlink:href="quickjs_8c.html#a16df88d4a6f77ed4e8a79875a8b074a6" target="_top" xlink:title=" ">
<polygon fill="none" stroke="black" points="161.5,-50.77 161.5,-69.77 293.5,-69.77 293.5,-50.77 161.5,-50.77"/>
<text text-anchor="middle" x="227.5" y="-57.77" font-family="Helvetica,sans-Serif" font-size="10.00">string_get_milliseconds</text>
</a>
</g>
</g>
<!-- Node1&#45;&gt;Node34 -->
<g id="edge35" class="edge">
<title>Node1&#45;&gt;Node34</title>
<path fill="none" stroke="midnightblue" d="M552.85,-432.18C550.15,-362.62 537.43,-133.66 486,-86.27 427.68,-32.54 327.38,-40.54 270.7,-50.69"/>
<polygon fill="midnightblue" stroke="midnightblue" points="549.36,-432.72 553.22,-442.59 556.36,-432.47 549.36,-432.72"/>
</g>
<!-- Node35 -->
<g id="node29" class="node">
<title>Node35</title>
<g id="a_node29"><a xlink:href="quickjs_8c.html#a156d960178dceb45d82581c53cd7f81b" target="_top" xlink:title=" ">
<polygon fill="none" stroke="black" points="161.5,-12.77 161.5,-31.77 293.5,-31.77 293.5,-12.77 161.5,-12.77"/>
<text text-anchor="middle" x="227.5" y="-19.77" font-family="Helvetica,sans-Serif" font-size="10.00">string_skip_non_spaces</text>
</a>
</g>
</g>
<!-- Node1&#45;&gt;Node35 -->
<g id="edge39" class="edge">
<title>Node1&#45;&gt;Node35</title>
<path fill="none" stroke="midnightblue" d="M553.35,-432.08C552.34,-356.75 544.6,-93.69 486,-40.27 424.73,15.57 317.54,0.1 262.79,-12.77"/>
<polygon fill="midnightblue" stroke="midnightblue" points="549.86,-432.54 553.46,-442.5 556.85,-432.46 549.86,-432.54"/>
</g>
<!-- Node36 -->
<g id="node30" class="node">
<title>Node36</title>
<g id="a_node30"><a xlink:href="quickjs_8c.html#ae8bb4fb34fa1e849bdfd7a108a1f346e" target="_top" xlink:title=" ">
<polygon fill="none" stroke="black" points="357,-252.77 357,-271.77 466,-271.77 466,-252.77 357,-252.77"/>
<text text-anchor="middle" x="411.5" y="-259.77" font-family="Helvetica,sans-Serif" font-size="10.00">string_skip_spaces</text>
</a>
</g>
</g>
<!-- Node1&#45;&gt;Node36 -->
<g id="edge41" class="edge">
<title>Node1&#45;&gt;Node36</title>
<path fill="none" stroke="midnightblue" d="M551.44,-432.27C546.67,-396.49 531.53,-321.52 486,-281.27 480.27,-276.21 473.37,-272.47 466.11,-269.7"/>
<polygon fill="midnightblue" stroke="midnightblue" points="547.99,-432.9 552.65,-442.41 554.94,-432.07 547.99,-432.9"/>
</g>
<!-- Node3 -->
<g id="node3" class="node">
<title>Node3</title>
<g id="a_node3"><a xlink:href="quickjs_8c.html#a3f727a5b0254dc65d6cb61d7b4812b9b" target="_top" xlink:title=" ">
<polygon fill="none" stroke="black" points="176.5,-290.77 176.5,-309.77 278.5,-309.77 278.5,-290.77 176.5,-290.77"/>
<text text-anchor="middle" x="227.5" y="-297.77" font-family="Helvetica,sans-Serif" font-size="10.00">string_get_month</text>
</a>
</g>
</g>
<!-- Node2&#45;&gt;Node3 -->
<g id="edge2" class="edge">
<title>Node2&#45;&gt;Node3</title>
<path fill="none" stroke="midnightblue" d="M364.08,-300.27C337.95,-300.27 305.32,-300.27 278.62,-300.27"/>
<polygon fill="midnightblue" stroke="midnightblue" points="364.11,-303.77 374.11,-300.27 364.11,-296.77 364.11,-303.77"/>
</g>
<!-- Node3&#45;&gt;Node4 -->
<g id="edge3" class="edge">
<title>Node3&#45;&gt;Node4</title>
<path fill="none" stroke="midnightblue" d="M175.35,-287.25C167.87,-284.25 160.51,-280.63 154,-276.27 112.66,-248.63 78.79,-198.1 65.76,-176.97"/>
<polygon fill="midnightblue" stroke="midnightblue" points="174.24,-290.56 184.83,-290.71 176.64,-283.99 174.24,-290.56"/>
</g>
<!-- Node11&#45;&gt;Node12 -->
<g id="edge5" class="edge">
<title>Node11&#45;&gt;Node12</title>
<path fill="none" stroke="midnightblue" d="M179.96,-849.59C160.76,-851.78 138.3,-854.34 118.05,-856.65"/>
<polygon fill="midnightblue" stroke="midnightblue" points="180.42,-853.05 189.96,-848.44 179.63,-846.1 180.42,-853.05"/>
</g>
<!-- Node18 -->
<g id="node12" class="node">
<title>Node18</title>
<g id="a_node12"><a xlink:href="quickjs_8c.html#a6a77bcdb9f7f18c13c108c99a198708b" target="_top" xlink:title=" ">
<polygon fill="none" stroke="black" points="154,-606.77 154,-625.77 301,-625.77 301,-606.77 154,-606.77"/>
<text text-anchor="middle" x="227.5" y="-613.77" font-family="Helvetica,sans-Serif" font-size="10.00">js_regexp_Symbol_replace</text>
</a>
</g>
</g>
<!-- Node17&#45;&gt;Node18 -->
<g id="edge13" class="edge">
<title>Node17&#45;&gt;Node18</title>
<path fill="none" stroke="midnightblue" d="M354.55,-642.59C328.74,-637.2 298.49,-630.89 274.1,-625.79"/>
<polygon fill="midnightblue" stroke="midnightblue" points="354.07,-646.07 364.57,-644.69 355.5,-639.22 354.07,-646.07"/>
</g>
<!-- Node19 -->
<g id="node13" class="node">
<title>Node19</title>
<g id="a_node13"><a xlink:href="quickjs_8c.html#aed1bf9ce4b9e3a82388679dd6ec7635b" target="_top" xlink:title=" ">
<polygon fill="none" stroke="black" points="9.5,-625.77 9.5,-644.77 108.5,-644.77 108.5,-625.77 9.5,-625.77"/>
<text text-anchor="middle" x="59" y="-632.77" font-family="Helvetica,sans-Serif" font-size="10.00">js_string_replace</text>
</a>
</g>
</g>
<!-- Node17&#45;&gt;Node19 -->
<g id="edge14" class="edge">
<title>Node17&#45;&gt;Node19</title>
<path fill="none" stroke="midnightblue" d="M326.32,-649.71C258.21,-646.02 164.69,-640.95 108.51,-637.9"/>
<polygon fill="midnightblue" stroke="midnightblue" points="326.42,-653.22 336.6,-650.27 326.8,-646.23 326.42,-653.22"/>
</g>
<!-- Node26 -->
<g id="node20" class="node">
<title>Node26</title>
<g id="a_node20"><a xlink:href="quickjs_8c.html#a507292e60d4d33781303b635d3f42fd1" target="_top" xlink:title=" ">
<polygon fill="none" stroke="black" points="175.5,-366.77 175.5,-385.77 279.5,-385.77 279.5,-366.77 175.5,-366.77"/>
<text text-anchor="middle" x="227.5" y="-373.77" font-family="Helvetica,sans-Serif" font-size="10.00">js_string_includes</text>
</a>
</g>
</g>
<!-- Node25&#45;&gt;Node26 -->
<g id="edge21" class="edge">
<title>Node25&#45;&gt;Node26</title>
<path fill="none" stroke="midnightblue" d="M365.94,-347.58C338.03,-353.4 302.15,-360.9 274.05,-366.76"/>
<polygon fill="midnightblue" stroke="midnightblue" points="366.77,-350.98 375.84,-345.51 365.33,-344.13 366.77,-350.98"/>
</g>
<!-- Node27 -->
<g id="node21" class="node">
<title>Node27</title>
<g id="a_node21"><a xlink:href="quickjs_8c.html#a7e93a76184ec9bc88adb834f83f679d8" target="_top" xlink:title=" ">
<polygon fill="none" stroke="black" points="177,-328.77 177,-347.77 278,-347.77 278,-328.77 177,-328.77"/>
<text text-anchor="middle" x="227.5" y="-335.77" font-family="Helvetica,sans-Serif" font-size="10.00">js_string_indexOf</text>
</a>
</g>
</g>
<!-- Node25&#45;&gt;Node27 -->
<g id="edge22" class="edge">
<title>Node25&#45;&gt;Node27</title>
<path fill="none" stroke="midnightblue" d="M365.68,-338.27C339.15,-338.27 305.5,-338.27 278.16,-338.27"/>
<polygon fill="midnightblue" stroke="midnightblue" points="365.84,-341.77 375.84,-338.27 365.84,-334.77 365.84,-341.77"/>
</g>
<!-- Node25&#45;&gt;Node28 -->
<g id="edge23" class="edge">
<title>Node25&#45;&gt;Node28</title>
<path fill="none" stroke="midnightblue" d="M366.05,-343.31C355.7,-346.14 345.29,-350.52 337,-357.27 265.09,-415.86 237.13,-533.92 230.28,-568.53"/>
<polygon fill="midnightblue" stroke="midnightblue" points="366.94,-346.7 375.9,-341.04 365.37,-339.88 366.94,-346.7"/>
</g>
<!-- Node28&#45;&gt;Node19 -->
<g id="edge24" class="edge">
<title>Node28&#45;&gt;Node19</title>
<path fill="none" stroke="midnightblue" d="M176.49,-590.48C168.91,-592.59 161.21,-594.88 154,-597.27 128.6,-605.7 100.23,-617.51 81.36,-625.73"/>
<polygon fill="midnightblue" stroke="midnightblue" points="177.6,-593.81 186.34,-587.82 175.78,-587.05 177.6,-593.81"/>
</g>
<!-- Node29 -->
<g id="node23" class="node">
<title>Node29</title>
<g id="a_node23"><a xlink:href="quickjs_8c.html#a99f359a90bf2aa7902ec554d726d4fda" target="_top" xlink:title=" ">
<polygon fill="none" stroke="black" points="17,-568.77 17,-587.77 101,-587.77 101,-568.77 17,-568.77"/>
<text text-anchor="middle" x="59" y="-575.77" font-family="Helvetica,sans-Serif" font-size="10.00">js_string_split</text>
</a>
</g>
</g>
<!-- Node28&#45;&gt;Node29 -->
<g id="edge25" class="edge">
<title>Node28&#45;&gt;Node29</title>
<path fill="none" stroke="midnightblue" d="M174.3,-578.27C150.71,-578.27 123.24,-578.27 101.14,-578.27"/>
<polygon fill="midnightblue" stroke="midnightblue" points="174.49,-581.77 184.49,-578.27 174.48,-574.77 174.49,-581.77"/>
</g>
<!-- Node30&#45;&gt;Node4 -->
<g id="edge27" class="edge">
<title>Node30&#45;&gt;Node4</title>
<path fill="none" stroke="midnightblue" d="M351.95,-225.06C299.45,-224.56 220.66,-220.81 154,-205.27 126.91,-198.96 97.46,-185.96 78.87,-176.94"/>
<polygon fill="midnightblue" stroke="midnightblue" points="352.06,-228.56 362.08,-225.12 352.11,-221.56 352.06,-228.56"/>
</g>
<!-- Node30&#45;&gt;Node31 -->
<g id="edge28" class="edge">
<title>Node30&#45;&gt;Node31</title>
<path fill="none" stroke="midnightblue" d="M354.55,-212.59C328.74,-207.2 298.49,-200.89 274.1,-195.79"/>
<polygon fill="midnightblue" stroke="midnightblue" points="354.07,-216.07 364.57,-214.69 355.5,-209.22 354.07,-216.07"/>
</g>
<!-- Node31&#45;&gt;Node4 -->
<g id="edge29" class="edge">
<title>Node31&#45;&gt;Node4</title>
<path fill="none" stroke="midnightblue" d="M149.67,-177.51C133.39,-175.65 116.78,-173.75 102.35,-172.11"/>
<polygon fill="midnightblue" stroke="midnightblue" points="149.41,-181 159.74,-178.66 150.2,-174.04 149.41,-181"/>
</g>
<!-- Node32&#45;&gt;Node4 -->
<g id="edge31" class="edge">
<title>Node32&#45;&gt;Node4</title>
<path fill="none" stroke="midnightblue" d="M177.13,-122.95C147.06,-134.33 109.87,-148.4 85.57,-157.6"/>
<polygon fill="midnightblue" stroke="midnightblue" points="178.5,-126.18 186.62,-119.36 176.03,-119.63 178.5,-126.18"/>
</g>
<!-- Node33&#45;&gt;Node11 -->
<g id="edge33" class="edge">
<title>Node33&#45;&gt;Node11</title>
<path fill="none" stroke="midnightblue" d="M356.78,-817.49C327.32,-823.64 291.56,-831.11 265.29,-836.59"/>
<polygon fill="midnightblue" stroke="midnightblue" points="357.83,-820.85 366.91,-815.38 356.4,-813.99 357.83,-820.85"/>
</g>
<!-- Node33&#45;&gt;Node15 -->
<g id="edge34" class="edge">
<title>Node33&#45;&gt;Node15</title>
<path fill="none" stroke="midnightblue" d="M356.65,-800.65C333.7,-798.26 306.94,-795.46 283.82,-793.05"/>
<polygon fill="midnightblue" stroke="midnightblue" points="356.6,-804.17 366.91,-801.72 357.32,-797.2 356.6,-804.17"/>
</g>
<!-- Node34&#45;&gt;Node4 -->
<g id="edge36" class="edge">
<title>Node34&#45;&gt;Node4</title>
<path fill="none" stroke="midnightblue" d="M166.71,-73.35C162.3,-75.09 158.02,-77.06 154,-79.27 116.23,-100.12 81.98,-139.55 67.41,-157.7"/>
<polygon fill="midnightblue" stroke="midnightblue" points="168.23,-76.52 176.48,-69.88 165.89,-69.92 168.23,-76.52"/>
</g>
<!-- Node35&#45;&gt;Node4 -->
<g id="edge40" class="edge">
<title>Node35&#45;&gt;Node4</title>
<path fill="none" stroke="midnightblue" d="M163.36,-35.91C160.09,-37.51 156.95,-39.29 154,-41.27 107.83,-72.39 75.55,-133.93 64.35,-157.64"/>
<polygon fill="midnightblue" stroke="midnightblue" points="164.99,-39.03 172.82,-31.9 162.25,-32.58 164.99,-39.03"/>
</g>
<!-- Node36&#45;&gt;Node3 -->
<g id="edge43" class="edge">
<title>Node36&#45;&gt;Node3</title>
<path fill="none" stroke="midnightblue" d="M354.55,-273.96C328.74,-279.34 298.49,-285.66 274.1,-290.75"/>
<polygon fill="midnightblue" stroke="midnightblue" points="355.5,-277.33 364.57,-271.86 354.07,-270.48 355.5,-277.33"/>
</g>
<!-- Node36&#45;&gt;Node4 -->
<g id="edge42" class="edge">
<title>Node36&#45;&gt;Node4</title>
<path fill="none" stroke="midnightblue" d="M346.46,-262C293.38,-259.92 216.74,-252.57 154,-229.27 120.83,-216.96 87.57,-191.06 70.94,-176.95"/>
<polygon fill="midnightblue" stroke="midnightblue" points="346.64,-265.51 356.75,-262.35 346.88,-258.52 346.64,-265.51"/>
</g>
</g>
</svg>
        <g id="navigator" transform="translate(0 0)" fill="#404254">
                <rect fill="#f2f5e9" fill-opacity="0.5" stroke="#606060" stroke-width=".5" x="0" y="0" width="60" height="60"/>
                <use id="zoomplus" xlink:href="#zoomPlus" x="17" y="9" onmousedown="handleZoom(evt,'in')"/>
                <use id="zoomminus" xlink:href="#zoomMin" x="42" y="9" onmousedown="handleZoom(evt,'out')"/>
                <use id="reset" xlink:href="#resetDef" x="30" y="36" onmousedown="handleReset()"/>
                <g id="arrowUp" xlink:href="#dirArrow" transform="translate(30 24)" onmousedown="handlePan(0,-1)">
                  <use xlink:href="#rim" fill="#404040">
                        <set attributeName="fill" to="#808080" begin="arrowUp.mouseover" end="arrowUp.mouseout"/>
                  </use>
                  <path fill="none" stroke="white" stroke-width="1.5" d="M0,-3.0v7 M-2.5,-0.5L0,-3.0L2.5,-0.5"/>
                </g>
                <g id="arrowRight" xlink:href="#dirArrow" transform="rotate(90) translate(36 -43)" onmousedown="handlePan(1,0)">
                  <use xlink:href="#rim" fill="#404040">
                        <set attributeName="fill" to="#808080" begin="arrowRight.mouseover" end="arrowRight.mouseout"/>
                  </use>
                  <path fill="none" stroke="white" stroke-width="1.5" d="M0,-3.0v7 M-2.5,-0.5L0,-3.0L2.5,-0.5"/>
                </g>
                <g id="arrowDown" xlink:href="#dirArrow" transform="rotate(180) translate(-30 -48)" onmousedown="handlePan(0,1)">
                  <use xlink:href="#rim" fill="#404040">
                        <set attributeName="fill" to="#808080" begin="arrowDown.mouseover" end="arrowDown.mouseout"/>
                  </use>
                  <path fill="none" stroke="white" stroke-width="1.5" d="M0,-3.0v7 M-2.5,-0.5L0,-3.0L2.5,-0.5"/>
                </g>
                <g id="arrowLeft" xlink:href="#dirArrow" transform="rotate(270) translate(-36 17)" onmousedown="handlePan(-1,0)">
                  <use xlink:href="#rim" fill="#404040">
                        <set attributeName="fill" to="#808080" begin="arrowLeft.mouseover" end="arrowLeft.mouseout"/>
                  </use>
                  <path fill="none" stroke="white" stroke-width="1.5" d="M0,-3.0v7 M-2.5,-0.5L0,-3.0L2.5,-0.5"/>
                </g>
        </g>
        <svg viewBox="0 0 15 15" width="100%" height="30px" preserveAspectRatio="xMaxYMin meet">
         <g id="arrow_out" transform="scale(0.3 0.3)">
          <a xlink:href="quickjs_8c_a80398f847e2e83c2613b638719bf6fda_icgraph_org.svg" target="_base">
           <rect id="button" ry="5" rx="5" y="6" x="6" height="38" width="38"
                fill="#f2f5e9" fill-opacity="0.5" stroke="#606060" stroke-width="1.0"/>
           <path id="arrow"
             d="M 11.500037,31.436501 C 11.940474,20.09759 22.043105,11.32322 32.158766,21.979434 L 37.068811,17.246167 C 37.068811,17.246167 37.088388,32 37.088388,32 L 22.160133,31.978069 C 22.160133,31.978069 26.997745,27.140456 26.997745,27.140456 C 18.528582,18.264221 13.291696,25.230495 11.500037,31.436501 z"
             style="fill:#404040;"/>
          </a>
         </g>
        </svg>
</svg>
