<?xml version="1.0" encoding="UTF-8" standalone="no"?>
<!DOCTYPE svg PUBLIC "-//W3C//DTD SVG 1.1//EN"
 "http://www.w3.org/Graphics/SVG/1.1/DTD/svg11.dtd">
<!-- Generated by graphviz version 2.43.0 (0)
 -->
<!-- Title: JS_SetPropertyInt64 Pages: 1 -->
<!--zoomable 515 -->
<svg id="main" version="1.1" xmlns="http://www.w3.org/2000/svg" xmlns:xlink="http://www.w3.org/1999/xlink" xml:space="preserve" onload="init(evt)">
<style type="text/css"><![CDATA[
.edge:hover path { stroke: red; }
.edge:hover polygon { stroke: red; fill: red; }
]]></style>
<script type="text/javascript"><![CDATA[
var edges = document.getElementsByTagName('g');
if (edges && edges.length) {
  for (var i=0;i<edges.length;i++) {
    if (edges[i].id.substr(0,4)=='edge') {
      edges[i].setAttribute('class','edge');
    }
  }
}
]]></script>
        <defs>
                <circle id="rim" cx="0" cy="0" r="7"/>
                <circle id="rim2" cx="0" cy="0" r="3.5"/>
                <g id="zoomPlus">
                        <use xlink:href="#rim" fill="#404040">
                                <set attributeName="fill" to="#808080" begin="zoomplus.mouseover" end="zoomplus.mouseout"/>
                        </use>
                        <path d="M-4,0h8M0,-4v8" fill="none" stroke="white" stroke-width="1.5" pointer-events="none"/>
                </g>
                <g id="zoomMin">
                        <use xlink:href="#rim" fill="#404040">
                                <set attributeName="fill" to="#808080" begin="zoomminus.mouseover" end="zoomminus.mouseout"/>
                        </use>
                        <path d="M-4,0h8" fill="none" stroke="white" stroke-width="1.5" pointer-events="none"/>
                </g>
                <g id="dirArrow">
                        <path fill="none" stroke="white" stroke-width="1.5" d="M0,-3.0v7 M-2.5,-0.5L0,-3.0L2.5,-0.5"/>
                </g>
               <g id="resetDef">
                       <use xlink:href="#rim2" fill="#404040">
                               <set attributeName="fill" to="#808080" begin="reset.mouseover" end="reset.mouseout"/>
                       </use>
               </g>
        </defs>

<script type="text/javascript">
var viewWidth = 1397;
var viewHeight = 515;
var sectionId = 'dynsection-607';
</script>
<script xlink:href="svgpan.js"/>
<svg id="graph" class="graph">
<g id="viewport">
<title>JS_SetPropertyInt64</title>
<!-- Node1 -->
<g id="node1" class="node">
<title>Node1</title>
<g id="a_node1"><a xlink:title=" ">
<polygon fill="#bfbfbf" stroke="black" points="0,-380.5 0,-399.5 113,-399.5 113,-380.5 0,-380.5"/>
<text text-anchor="middle" x="56.5" y="-387.5" font-family="Helvetica,sans-Serif" font-size="10.00">JS_SetPropertyInt64</text>
</a>
</g>
</g>
<!-- Node2 -->
<g id="node2" class="node">
<title>Node2</title>
<g id="a_node2"><a xlink:href="quickjs_8c.html#ab7fc45a99935a1c0ba50b0216d9401a9" target="_top" xlink:title=" ">
<polygon fill="none" stroke="black" points="766.5,-418.5 766.5,-437.5 844.5,-437.5 844.5,-418.5 766.5,-418.5"/>
<text text-anchor="middle" x="805.5" y="-425.5" font-family="Helvetica,sans-Serif" font-size="10.00">JS_FreeAtom</text>
</a>
</g>
</g>
<!-- Node1&#45;&gt;Node2 -->
<g id="edge1" class="edge">
<title>Node1&#45;&gt;Node2</title>
<path fill="none" stroke="midnightblue" d="M70.27,-399.52C108.3,-426.92 225.03,-504 334.5,-504 334.5,-504 334.5,-504 497.5,-504 601.38,-504 632.64,-516.22 730,-480 751.5,-472 772.62,-456.31 786.85,-444.24"/>
<polygon fill="midnightblue" stroke="midnightblue" points="789.17,-446.86 794.38,-437.64 784.55,-441.6 789.17,-446.86"/>
</g>
<!-- Node8 -->
<g id="node8" class="node">
<title>Node8</title>
<g id="a_node8"><a xlink:href="quickjs_8h.html#afaa20c47565bc704c6c85f3d77254e7d" target="_top" xlink:title=" ">
<polygon fill="none" stroke="black" points="766,-342.5 766,-361.5 845,-361.5 845,-342.5 766,-342.5"/>
<text text-anchor="middle" x="805.5" y="-349.5" font-family="Helvetica,sans-Serif" font-size="10.00">JS_FreeValue</text>
</a>
</g>
</g>
<!-- Node1&#45;&gt;Node8 -->
<g id="edge7" class="edge">
<title>Node1&#45;&gt;Node8</title>
<path fill="none" stroke="midnightblue" d="M113.18,-395.29C205.74,-403.36 397.14,-417.03 559,-409 635.28,-405.22 656.94,-414.27 730,-392 748.55,-386.35 767.78,-375.88 782.06,-367.07"/>
<polygon fill="midnightblue" stroke="midnightblue" points="784.12,-369.91 790.68,-361.59 780.36,-364.01 784.12,-369.91"/>
</g>
<!-- Node40 -->
<g id="node11" class="node">
<title>Node40</title>
<g id="a_node11"><a xlink:href="quickjs_8c.html#aa641af3a921335927dab07dc83285917" target="_top" xlink:title=" ">
<polygon fill="none" stroke="black" points="283.5,-114.5 283.5,-133.5 387.5,-133.5 387.5,-114.5 283.5,-114.5"/>
<text text-anchor="middle" x="335.5" y="-121.5" font-family="Helvetica,sans-Serif" font-size="10.00">JS_NewAtomInt64</text>
</a>
</g>
</g>
<!-- Node1&#45;&gt;Node40 -->
<g id="edge12" class="edge">
<title>Node1&#45;&gt;Node40</title>
<path fill="none" stroke="midnightblue" d="M67.69,-380.22C109.01,-340.54 264.41,-191.3 316.99,-140.81"/>
<polygon fill="midnightblue" stroke="midnightblue" points="319.72,-143.04 324.51,-133.59 314.88,-137.99 319.72,-143.04"/>
</g>
<!-- Node80 -->
<g id="node24" class="node">
<title>Node80</title>
<g id="a_node24"><a xlink:href="quickjs_8h.html#a2050bc428da1c65ac7eb87c3fa3b0392" target="_top" xlink:title=" ">
<polygon fill="none" stroke="black" points="767,-228.5 767,-247.5 844,-247.5 844,-228.5 767,-228.5"/>
<text text-anchor="middle" x="805.5" y="-235.5" font-family="Helvetica,sans-Serif" font-size="10.00">JS_NewInt32</text>
</a>
</g>
</g>
<!-- Node1&#45;&gt;Node80 -->
<g id="edge31" class="edge">
<title>Node1&#45;&gt;Node80</title>
<path fill="none" stroke="midnightblue" d="M59.43,-380.22C71.81,-320.75 145.5,-10 334.5,-10 334.5,-10 334.5,-10 497.5,-10 603.89,-10 648.64,1.55 730,-67 777.15,-106.73 795.37,-181.95 801.62,-217.89"/>
<polygon fill="midnightblue" stroke="midnightblue" points="798.21,-218.76 803.25,-228.09 805.13,-217.66 798.21,-218.76"/>
</g>
<!-- Node81 -->
<g id="node25" class="node">
<title>Node81</title>
<g id="a_node25"><a xlink:href="quickjs_8h.html#af763b173e78debf2075670ca2c128a30" target="_top" xlink:title=" ">
<polygon fill="none" stroke="black" points="149,-342.5 149,-361.5 237,-361.5 237,-342.5 149,-342.5"/>
<text text-anchor="middle" x="193" y="-349.5" font-family="Helvetica,sans-Serif" font-size="10.00">JS_SetProperty</text>
</a>
</g>
</g>
<!-- Node1&#45;&gt;Node81 -->
<g id="edge32" class="edge">
<title>Node1&#45;&gt;Node81</title>
<path fill="none" stroke="midnightblue" d="M91.44,-380.41C108.72,-375.53 129.93,-369.54 148.41,-364.32"/>
<polygon fill="midnightblue" stroke="midnightblue" points="149.4,-367.67 158.07,-361.59 147.5,-360.94 149.4,-367.67"/>
</g>
<!-- Node236 -->
<g id="node29" class="node">
<title>Node236</title>
<g id="a_node29"><a xlink:href="quickjs_8c.html#aee75cc1546e19479e3ccda58f3b50a96" target="_top" xlink:title=" ">
<polygon fill="none" stroke="red" points="439,-380.5 439,-399.5 554,-399.5 554,-380.5 439,-380.5"/>
<text text-anchor="middle" x="496.5" y="-387.5" font-family="Helvetica,sans-Serif" font-size="10.00">JS_SetPropertyValue</text>
</a>
</g>
</g>
<!-- Node1&#45;&gt;Node236 -->
<g id="edge50" class="edge">
<title>Node1&#45;&gt;Node236</title>
<path fill="none" stroke="midnightblue" d="M113.42,-390C193.97,-390 342.45,-390 428.68,-390"/>
<polygon fill="midnightblue" stroke="midnightblue" points="428.88,-393.5 438.88,-390 428.88,-386.5 428.88,-393.5"/>
</g>
<!-- Node3 -->
<g id="node3" class="node">
<title>Node3</title>
<g id="a_node3"><a xlink:href="quickjs_8c.html#a7f6796ee7a195631366f57c713a33f65" target="_top" xlink:title=" ">
<polygon fill="none" stroke="black" points="1009,-380.5 1009,-399.5 1113,-399.5 1113,-380.5 1009,-380.5"/>
<text text-anchor="middle" x="1061" y="-387.5" font-family="Helvetica,sans-Serif" font-size="10.00">__JS_AtomIsConst</text>
</a>
</g>
</g>
<!-- Node2&#45;&gt;Node3 -->
<g id="edge2" class="edge">
<title>Node2&#45;&gt;Node3</title>
<path fill="none" stroke="midnightblue" d="M839.65,-418.46C852.48,-415.05 867.34,-411.45 881,-409 919.91,-402.01 964.08,-397.29 998.81,-394.3"/>
<polygon fill="midnightblue" stroke="midnightblue" points="999.13,-397.79 1008.8,-393.47 998.54,-390.81 999.13,-397.79"/>
</g>
<!-- Node4 -->
<g id="node4" class="node">
<title>Node4</title>
<g id="a_node4"><a xlink:href="quickjs_8c.html#a0bbd9e3ecd55e3ea6c9d44bfda382095" target="_top" xlink:title=" ">
<polygon fill="none" stroke="black" points="881,-418.5 881,-437.5 970,-437.5 970,-418.5 881,-418.5"/>
<text text-anchor="middle" x="925.5" y="-425.5" font-family="Helvetica,sans-Serif" font-size="10.00">__JS_FreeAtom</text>
</a>
</g>
</g>
<!-- Node2&#45;&gt;Node4 -->
<g id="edge3" class="edge">
<title>Node2&#45;&gt;Node4</title>
<path fill="none" stroke="midnightblue" d="M844.81,-428C853.03,-428 861.87,-428 870.56,-428"/>
<polygon fill="midnightblue" stroke="midnightblue" points="870.65,-431.5 880.65,-428 870.65,-424.5 870.65,-431.5"/>
</g>
<!-- Node5 -->
<g id="node5" class="node">
<title>Node5</title>
<g id="a_node5"><a xlink:href="quickjs_8c.html#a58c8965dad50b15b75918a09f3d9dc7c" target="_top" xlink:title=" ">
<polygon fill="none" stroke="black" points="1155.5,-266.5 1155.5,-285.5 1262.5,-285.5 1262.5,-266.5 1155.5,-266.5"/>
<text text-anchor="middle" x="1209" y="-273.5" font-family="Helvetica,sans-Serif" font-size="10.00">JS_FreeAtomStruct</text>
</a>
</g>
</g>
<!-- Node4&#45;&gt;Node5 -->
<g id="edge4" class="edge">
<title>Node4&#45;&gt;Node5</title>
<path fill="none" stroke="midnightblue" d="M970.32,-433.56C1010.92,-436.52 1071.57,-435.2 1116,-409 1160.78,-382.59 1188.91,-324.8 1201.05,-294.85"/>
<polygon fill="midnightblue" stroke="midnightblue" points="1204.32,-296.1 1204.68,-285.51 1197.8,-293.56 1204.32,-296.1"/>
</g>
<!-- Node6 -->
<g id="node6" class="node">
<title>Node6</title>
<g id="a_node6"><a xlink:href="quickjs_8c.html#aba70a7ff210dcedf19125863f2b12d4e" target="_top" xlink:title=" ">
<polygon fill="none" stroke="black" points="1302,-247.5 1302,-266.5 1389,-266.5 1389,-247.5 1302,-247.5"/>
<text text-anchor="middle" x="1345.5" y="-254.5" font-family="Helvetica,sans-Serif" font-size="10.00">atom_set_free</text>
</a>
</g>
</g>
<!-- Node5&#45;&gt;Node6 -->
<g id="edge5" class="edge">
<title>Node5&#45;&gt;Node6</title>
<path fill="none" stroke="midnightblue" d="M1262.77,-268.55C1272.28,-267.2 1282.2,-265.8 1291.71,-264.46"/>
<polygon fill="midnightblue" stroke="midnightblue" points="1292.43,-267.89 1301.84,-263.03 1291.45,-260.96 1292.43,-267.89"/>
</g>
<!-- Node7 -->
<g id="node7" class="node">
<title>Node7</title>
<g id="a_node7"><a xlink:href="quickjs_8c.html#a69e19dda8a93d613203e0baa06f0ed8d" target="_top" xlink:title=" ">
<polygon fill="none" stroke="black" points="1314.5,-190.5 1314.5,-209.5 1376.5,-209.5 1376.5,-190.5 1314.5,-190.5"/>
<text text-anchor="middle" x="1345.5" y="-197.5" font-family="Helvetica,sans-Serif" font-size="10.00">js_free_rt</text>
</a>
</g>
</g>
<!-- Node5&#45;&gt;Node7 -->
<g id="edge6" class="edge">
<title>Node5&#45;&gt;Node7</title>
<path fill="none" stroke="midnightblue" d="M1234.99,-266.42C1244.84,-262.36 1256.13,-257.33 1266,-252 1286.2,-241.09 1307.86,-226.51 1323.3,-215.56"/>
<polygon fill="midnightblue" stroke="midnightblue" points="1325.54,-218.26 1331.62,-209.58 1321.45,-212.58 1325.54,-218.26"/>
</g>
<!-- Node9 -->
<g id="node9" class="node">
<title>Node9</title>
<g id="a_node9"><a xlink:href="quickjs_8c.html#aa059f309c30fd5166d16c82a97973146" target="_top" xlink:title=" ">
<polygon fill="none" stroke="black" points="881,-342.5 881,-361.5 970,-361.5 970,-342.5 881,-342.5"/>
<text text-anchor="middle" x="925.5" y="-349.5" font-family="Helvetica,sans-Serif" font-size="10.00">__JS_FreeValue</text>
</a>
</g>
</g>
<!-- Node8&#45;&gt;Node9 -->
<g id="edge8" class="edge">
<title>Node8&#45;&gt;Node9</title>
<path fill="none" stroke="midnightblue" d="M845.14,-352C853.35,-352 862.16,-352 870.82,-352"/>
<polygon fill="midnightblue" stroke="midnightblue" points="870.87,-355.5 880.87,-352 870.87,-348.5 870.87,-355.5"/>
</g>
<!-- Node10 -->
<g id="node10" class="node">
<title>Node10</title>
<g id="a_node10"><a xlink:href="quickjs_8c.html#ab1ea3fad7d138be12144a38be4d36423" target="_top" xlink:title=" ">
<polygon fill="none" stroke="red" points="1010.5,-342.5 1010.5,-361.5 1111.5,-361.5 1111.5,-342.5 1010.5,-342.5"/>
<text text-anchor="middle" x="1061" y="-349.5" font-family="Helvetica,sans-Serif" font-size="10.00">__JS_FreeValueRT</text>
</a>
</g>
</g>
<!-- Node9&#45;&gt;Node10 -->
<g id="edge9" class="edge">
<title>Node9&#45;&gt;Node10</title>
<path fill="none" stroke="midnightblue" d="M970.21,-352C979.69,-352 989.88,-352 999.87,-352"/>
<polygon fill="midnightblue" stroke="midnightblue" points="1000.17,-355.5 1010.17,-352 1000.17,-348.5 1000.17,-355.5"/>
</g>
<!-- Node10&#45;&gt;Node5 -->
<g id="edge11" class="edge">
<title>Node10&#45;&gt;Node5</title>
<path fill="none" stroke="midnightblue" d="M1092.74,-342.48C1100.47,-339.73 1108.65,-336.52 1116,-333 1140.97,-321.05 1167.67,-303.97 1185.83,-291.63"/>
<polygon fill="midnightblue" stroke="midnightblue" points="1188.25,-294.22 1194.5,-285.66 1184.28,-288.45 1188.25,-294.22"/>
</g>
<!-- Node10&#45;&gt;Node7 -->
<g id="edge10" class="edge">
<title>Node10&#45;&gt;Node7</title>
<path fill="none" stroke="midnightblue" d="M1101.26,-342.41C1106.6,-339.94 1111.72,-336.86 1116,-333 1143.77,-307.98 1123.61,-281.31 1152,-257 1174.92,-237.37 1254.93,-218.21 1304.29,-207.87"/>
<polygon fill="midnightblue" stroke="midnightblue" points="1305.24,-211.25 1314.33,-205.8 1303.83,-204.4 1305.24,-211.25"/>
</g>
<!-- Node41 -->
<g id="node12" class="node">
<title>Node41</title>
<g id="a_node12"><a xlink:href="quickjs_8c.html#a877fcb7651d95b411ce70e62b7f4a1f0" target="_top" xlink:title=" ">
<polygon fill="none" stroke="black" points="434,-38.5 434,-57.5 559,-57.5 559,-38.5 434,-38.5"/>
<text text-anchor="middle" x="496.5" y="-45.5" font-family="Helvetica,sans-Serif" font-size="10.00">__JS_AtomFromUInt32</text>
</a>
</g>
</g>
<!-- Node40&#45;&gt;Node41 -->
<g id="edge13" class="edge">
<title>Node40&#45;&gt;Node41</title>
<path fill="none" stroke="midnightblue" d="M350.49,-114.43C368.95,-102.13 402.77,-80.73 434,-67 439.05,-64.78 444.44,-62.71 449.85,-60.81"/>
<polygon fill="midnightblue" stroke="midnightblue" points="451.16,-64.07 459.54,-57.59 448.95,-57.42 451.16,-64.07"/>
</g>
<!-- Node42 -->
<g id="node13" class="node">
<title>Node42</title>
<g id="a_node13"><a xlink:href="quickjs_8c.html#acd08798ec15cc37c60d2e7d70007c6a8" target="_top" xlink:title=" ">
<polygon fill="none" stroke="black" points="881,-152.5 881,-171.5 970,-171.5 970,-152.5 881,-152.5"/>
<text text-anchor="middle" x="925.5" y="-159.5" font-family="Helvetica,sans-Serif" font-size="10.00">__JS_NewAtom</text>
</a>
</g>
</g>
<!-- Node40&#45;&gt;Node42 -->
<g id="edge14" class="edge">
<title>Node40&#45;&gt;Node42</title>
<path fill="none" stroke="midnightblue" d="M387.65,-127.31C498.06,-134.44 757.83,-151.23 870.64,-158.52"/>
<polygon fill="midnightblue" stroke="midnightblue" points="870.56,-162.02 880.77,-159.17 871.01,-155.04 870.56,-162.02"/>
</g>
<!-- Node54 -->
<g id="node21" class="node">
<title>Node54</title>
<g id="a_node21"><a xlink:href="quickjs_8h.html#ad80a83d73e9b7d872b88fbf2943aebe9" target="_top" xlink:title=" ">
<polygon fill="none" stroke="black" points="453,-152.5 453,-171.5 540,-171.5 540,-152.5 453,-152.5"/>
<text text-anchor="middle" x="496.5" y="-159.5" font-family="Helvetica,sans-Serif" font-size="10.00">JS_IsException</text>
</a>
</g>
</g>
<!-- Node40&#45;&gt;Node54 -->
<g id="edge28" class="edge">
<title>Node40&#45;&gt;Node54</title>
<path fill="none" stroke="midnightblue" d="M376.62,-133.59C397.6,-138.6 423.48,-144.79 445.73,-150.11"/>
<polygon fill="midnightblue" stroke="midnightblue" points="445.13,-153.56 455.67,-152.48 446.75,-146.75 445.13,-153.56"/>
</g>
<!-- Node55 -->
<g id="node22" class="node">
<title>Node55</title>
<g id="a_node22"><a xlink:href="quickjs_8c.html#a0ee6a3654a6016393fac5e1c108f403a" target="_top" xlink:title=" ">
<polygon fill="none" stroke="black" points="456,-76.5 456,-95.5 537,-95.5 537,-76.5 456,-76.5"/>
<text text-anchor="middle" x="496.5" y="-83.5" font-family="Helvetica,sans-Serif" font-size="10.00">JS_NewString</text>
</a>
</g>
</g>
<!-- Node40&#45;&gt;Node55 -->
<g id="edge29" class="edge">
<title>Node40&#45;&gt;Node55</title>
<path fill="none" stroke="midnightblue" d="M376.62,-114.41C397.68,-109.38 423.68,-103.16 445.98,-97.83"/>
<polygon fill="midnightblue" stroke="midnightblue" points="447.03,-101.18 455.94,-95.45 445.4,-94.37 447.03,-101.18"/>
</g>
<!-- Node42&#45;&gt;Node3 -->
<g id="edge15" class="edge">
<title>Node42&#45;&gt;Node3</title>
<path fill="none" stroke="midnightblue" d="M927.37,-171.88C930.78,-204.92 946.24,-312.73 1006,-371 1007.62,-372.58 1009.38,-374.03 1011.24,-375.35"/>
<polygon fill="midnightblue" stroke="midnightblue" points="1009.52,-378.41 1019.92,-380.44 1013.06,-372.37 1009.52,-378.41"/>
</g>
<!-- Node42&#45;&gt;Node6 -->
<g id="edge17" class="edge">
<title>Node42&#45;&gt;Node6</title>
<path fill="none" stroke="midnightblue" d="M970.2,-163.64C1008.88,-165.74 1066.69,-170.46 1116,-181 1187.5,-196.28 1267.94,-226.15 1311.75,-243.54"/>
<polygon fill="midnightblue" stroke="midnightblue" points="1310.71,-246.9 1321.29,-247.37 1313.31,-240.4 1310.71,-246.9"/>
</g>
<!-- Node42&#45;&gt;Node7 -->
<g id="edge19" class="edge">
<title>Node42&#45;&gt;Node7</title>
<path fill="none" stroke="midnightblue" d="M964.69,-152.45C1028.62,-138.2 1160.66,-116.27 1266,-148 1289.03,-154.94 1311.52,-171.07 1326.48,-183.55"/>
<polygon fill="midnightblue" stroke="midnightblue" points="1324.51,-186.47 1334.36,-190.37 1329.09,-181.18 1324.51,-186.47"/>
</g>
<!-- Node43 -->
<g id="node14" class="node">
<title>Node43</title>
<g id="a_node14"><a xlink:href="quickjs_8c.html#ad7824788e3ed6ecfd045f02398647753" target="_top" xlink:title=" ">
<polygon fill="none" stroke="black" points="1017,-38.5 1017,-57.5 1105,-57.5 1105,-38.5 1017,-38.5"/>
<text text-anchor="middle" x="1061" y="-45.5" font-family="Helvetica,sans-Serif" font-size="10.00">atom_get_free</text>
</a>
</g>
</g>
<!-- Node42&#45;&gt;Node43 -->
<g id="edge16" class="edge">
<title>Node42&#45;&gt;Node43</title>
<path fill="none" stroke="midnightblue" d="M932.87,-152.38C945.14,-134.46 973.72,-95.67 1006,-72 1011.21,-68.18 1017.13,-64.78 1023.09,-61.84"/>
<polygon fill="midnightblue" stroke="midnightblue" points="1024.76,-64.92 1032.39,-57.58 1021.84,-58.56 1024.76,-64.92"/>
</g>
<!-- Node44 -->
<g id="node15" class="node">
<title>Node44</title>
<g id="a_node15"><a xlink:href="quickjs_8c.html#a745328cb78cc898a3e105bc7bd7aee38" target="_top" xlink:title=" ">
<polygon fill="none" stroke="red" points="1024.5,-0.5 1024.5,-19.5 1097.5,-19.5 1097.5,-0.5 1024.5,-0.5"/>
<text text-anchor="middle" x="1061" y="-7.5" font-family="Helvetica,sans-Serif" font-size="10.00">hash_string</text>
</a>
</g>
</g>
<!-- Node42&#45;&gt;Node44 -->
<g id="edge18" class="edge">
<title>Node42&#45;&gt;Node44</title>
<path fill="none" stroke="midnightblue" d="M929.62,-152.42C938.01,-128.19 963.3,-63.9 1006,-29 1008.86,-26.66 1012.03,-24.6 1015.36,-22.79"/>
<polygon fill="midnightblue" stroke="midnightblue" points="1016.86,-25.95 1024.44,-18.54 1013.89,-19.61 1016.86,-25.95"/>
</g>
<!-- Node47 -->
<g id="node16" class="node">
<title>Node47</title>
<g id="a_node16"><a xlink:href="quickjs_8c.html#aa506aaf9df272c0e9e541bbf0138b483" target="_top" xlink:title=" ">
<polygon fill="none" stroke="black" points="1019.5,-190.5 1019.5,-209.5 1102.5,-209.5 1102.5,-190.5 1019.5,-190.5"/>
<text text-anchor="middle" x="1061" y="-197.5" font-family="Helvetica,sans-Serif" font-size="10.00">js_free_string</text>
</a>
</g>
</g>
<!-- Node42&#45;&gt;Node47 -->
<g id="edge20" class="edge">
<title>Node42&#45;&gt;Node47</title>
<path fill="none" stroke="midnightblue" d="M960.19,-171.59C977.26,-176.45 998.2,-182.41 1016.48,-187.61"/>
<polygon fill="midnightblue" stroke="midnightblue" points="1015.75,-191.04 1026.32,-190.41 1017.66,-184.31 1015.75,-191.04"/>
</g>
<!-- Node48 -->
<g id="node17" class="node">
<title>Node48</title>
<g id="a_node17"><a xlink:href="quickjs_8c.html#ab7f82c24ed28f06191bf5a51f78bb710" target="_top" xlink:title=" ">
<polygon fill="none" stroke="black" points="1006.5,-304.5 1006.5,-323.5 1115.5,-323.5 1115.5,-304.5 1006.5,-304.5"/>
<text text-anchor="middle" x="1061" y="-311.5" font-family="Helvetica,sans-Serif" font-size="10.00">js_get_atom_index</text>
</a>
</g>
</g>
<!-- Node42&#45;&gt;Node48 -->
<g id="edge23" class="edge">
<title>Node42&#45;&gt;Node48</title>
<path fill="none" stroke="midnightblue" d="M929.62,-171.58C938.01,-195.81 963.3,-260.1 1006,-295 1008.05,-296.68 1010.27,-298.21 1012.58,-299.62"/>
<polygon fill="midnightblue" stroke="midnightblue" points="1011.41,-302.95 1021.91,-304.4 1014.61,-296.72 1011.41,-302.95"/>
</g>
<!-- Node49 -->
<g id="node18" class="node">
<title>Node49</title>
<g id="a_node18"><a xlink:href="quickjs_8c.html#ac8b63cf5ecd077231532b9ad543aad23" target="_top" xlink:title=" ">
<polygon fill="none" stroke="black" points="1152,-76.5 1152,-95.5 1266,-95.5 1266,-76.5 1152,-76.5"/>
<text text-anchor="middle" x="1209" y="-83.5" font-family="Helvetica,sans-Serif" font-size="10.00">JS_ResizeAtomHash</text>
</a>
</g>
</g>
<!-- Node42&#45;&gt;Node49 -->
<g id="edge24" class="edge">
<title>Node42&#45;&gt;Node49</title>
<path fill="none" stroke="midnightblue" d="M937.44,-152.43C952,-140.3 979.03,-119.81 1006,-110 1049.6,-94.15 1101.65,-88.24 1141.99,-86.25"/>
<polygon fill="midnightblue" stroke="midnightblue" points="1142.14,-89.75 1151.98,-85.83 1141.84,-82.76 1142.14,-89.75"/>
</g>
<!-- Node50 -->
<g id="node19" class="node">
<title>Node50</title>
<g id="a_node19"><a xlink:href="quickjs_8c.html#aa3b85ecf2f1fbd87cb38b78548286017" target="_top" xlink:title=" ">
<polygon fill="none" stroke="red" points="1006,-266.5 1006,-285.5 1116,-285.5 1116,-266.5 1006,-266.5"/>
<text text-anchor="middle" x="1061" y="-273.5" font-family="Helvetica,sans-Serif" font-size="10.00">js_string_memcmp</text>
</a>
</g>
</g>
<!-- Node42&#45;&gt;Node50 -->
<g id="edge26" class="edge">
<title>Node42&#45;&gt;Node50</title>
<path fill="none" stroke="midnightblue" d="M932.02,-171.54C943.45,-190.49 971.53,-233.11 1006,-257 1008.74,-258.9 1011.68,-260.62 1014.73,-262.19"/>
<polygon fill="midnightblue" stroke="midnightblue" points="1013.55,-265.5 1024.11,-266.43 1016.44,-259.12 1013.55,-265.5"/>
</g>
<!-- Node53 -->
<g id="node20" class="node">
<title>Node53</title>
<g id="a_node20"><a xlink:href="cutils_8h.html#a94f155fcce337a2b9d4719ed8042cbbe" target="_top" xlink:title=" ">
<polygon fill="none" stroke="black" points="1033,-228.5 1033,-247.5 1089,-247.5 1089,-228.5 1033,-228.5"/>
<text text-anchor="middle" x="1061" y="-235.5" font-family="Helvetica,sans-Serif" font-size="10.00">max_int</text>
</a>
</g>
</g>
<!-- Node42&#45;&gt;Node53 -->
<g id="edge27" class="edge">
<title>Node42&#45;&gt;Node53</title>
<path fill="none" stroke="midnightblue" d="M937.68,-171.6C952.48,-183.92 979.79,-205.35 1006,-219 1011.36,-221.79 1017.23,-224.33 1023.06,-226.58"/>
<polygon fill="midnightblue" stroke="midnightblue" points="1022.13,-229.97 1032.73,-230.08 1024.51,-223.39 1022.13,-229.97"/>
</g>
<!-- Node47&#45;&gt;Node5 -->
<g id="edge22" class="edge">
<title>Node47&#45;&gt;Node5</title>
<path fill="none" stroke="midnightblue" d="M1092.74,-209.52C1100.47,-212.27 1108.65,-215.48 1116,-219 1140.97,-230.95 1167.67,-248.03 1185.83,-260.37"/>
<polygon fill="midnightblue" stroke="midnightblue" points="1184.28,-263.55 1194.5,-266.34 1188.25,-257.78 1184.28,-263.55"/>
</g>
<!-- Node47&#45;&gt;Node7 -->
<g id="edge21" class="edge">
<title>Node47&#45;&gt;Node7</title>
<path fill="none" stroke="midnightblue" d="M1102.78,-200C1156.49,-200 1250.41,-200 1303.99,-200"/>
<polygon fill="midnightblue" stroke="midnightblue" points="1304.15,-203.5 1314.15,-200 1304.15,-196.5 1304.15,-203.5"/>
</g>
<!-- Node49&#45;&gt;Node7 -->
<g id="edge25" class="edge">
<title>Node49&#45;&gt;Node7</title>
<path fill="none" stroke="midnightblue" d="M1238.95,-95.52C1248.07,-99.26 1257.88,-104.09 1266,-110 1293.78,-130.22 1318.5,-161.99 1332.47,-181.87"/>
<polygon fill="midnightblue" stroke="midnightblue" points="1329.73,-184.06 1338.27,-190.33 1335.5,-180.1 1329.73,-184.06"/>
</g>
<!-- Node56 -->
<g id="node23" class="node">
<title>Node56</title>
<g id="a_node23"><a xlink:href="quickjs_8c.html#ac34cc554aab1e98c45a7f845fff64385" target="_top" xlink:title=" ">
<polygon fill="none" stroke="red" points="613.5,-76.5 613.5,-95.5 711.5,-95.5 711.5,-76.5 613.5,-76.5"/>
<text text-anchor="middle" x="662.5" y="-83.5" font-family="Helvetica,sans-Serif" font-size="10.00">JS_NewStringLen</text>
</a>
</g>
</g>
<!-- Node55&#45;&gt;Node56 -->
<g id="edge30" class="edge">
<title>Node55&#45;&gt;Node56</title>
<path fill="none" stroke="midnightblue" d="M537.2,-86C557,-86 581.34,-86 603.22,-86"/>
<polygon fill="midnightblue" stroke="midnightblue" points="603.4,-89.5 613.4,-86 603.4,-82.5 603.4,-89.5"/>
</g>
<!-- Node82 -->
<g id="node26" class="node">
<title>Node82</title>
<g id="a_node26"><a xlink:href="quickjs_8c.html#ad7f03358a8088ca920ab308225c6b2e6" target="_top" xlink:title=" ">
<polygon fill="none" stroke="red" points="273,-304.5 273,-323.5 398,-323.5 398,-304.5 273,-304.5"/>
<text text-anchor="middle" x="335.5" y="-311.5" font-family="Helvetica,sans-Serif" font-size="10.00">JS_SetPropertyInternal</text>
</a>
</g>
</g>
<!-- Node81&#45;&gt;Node82 -->
<g id="edge33" class="edge">
<title>Node81&#45;&gt;Node82</title>
<path fill="none" stroke="midnightblue" d="M229.45,-342.41C247.59,-337.51 269.87,-331.48 289.23,-326.24"/>
<polygon fill="midnightblue" stroke="midnightblue" points="290.32,-329.58 299.06,-323.59 288.49,-322.82 290.32,-329.58"/>
</g>
<!-- Node82&#45;&gt;Node8 -->
<g id="edge38" class="edge">
<title>Node82&#45;&gt;Node8</title>
<path fill="none" stroke="midnightblue" d="M354.48,-304.48C412.31,-275.23 597.48,-192.51 730,-257 762.51,-272.82 785.03,-310.44 796.26,-333.31"/>
<polygon fill="midnightblue" stroke="midnightblue" points="793.1,-334.8 800.51,-342.38 799.44,-331.84 793.1,-334.8"/>
</g>
<!-- Node82&#45;&gt;Node54 -->
<g id="edge39" class="edge">
<title>Node82&#45;&gt;Node54</title>
<path fill="none" stroke="midnightblue" d="M341.48,-304.2C353.94,-280.62 388.72,-220.14 434,-186 439.41,-181.92 445.6,-178.45 451.93,-175.51"/>
<polygon fill="midnightblue" stroke="midnightblue" points="453.36,-178.71 461.21,-171.6 450.64,-172.26 453.36,-178.71"/>
</g>
<!-- Node82&#45;&gt;Node80 -->
<g id="edge40" class="edge">
<title>Node82&#45;&gt;Node80</title>
<path fill="none" stroke="midnightblue" d="M363.97,-304.48C383.36,-298.03 410.04,-289.67 434,-284 548.08,-257.01 685.88,-245.2 756.96,-240.59"/>
<polygon fill="midnightblue" stroke="midnightblue" points="757.19,-244.08 766.95,-239.96 756.75,-237.09 757.19,-244.08"/>
</g>
<!-- Node83 -->
<g id="node27" class="node">
<title>Node83</title>
<g id="a_node27"><a xlink:href="quickjs_8c.html#a014abd680db53ab89cb133345742a59c" target="_top" xlink:title=" ">
<polygon fill="none" stroke="red" points="622.5,-304.5 622.5,-323.5 702.5,-323.5 702.5,-304.5 622.5,-304.5"/>
<text text-anchor="middle" x="662.5" y="-311.5" font-family="Helvetica,sans-Serif" font-size="10.00">__attribute__</text>
</a>
</g>
</g>
<!-- Node82&#45;&gt;Node83 -->
<g id="edge34" class="edge">
<title>Node82&#45;&gt;Node83</title>
<path fill="none" stroke="midnightblue" d="M398.01,-314C460.03,-314 554.57,-314 611.94,-314"/>
<polygon fill="midnightblue" stroke="midnightblue" points="612.21,-317.5 622.21,-314 612.21,-310.5 612.21,-317.5"/>
</g>
<!-- Node213 -->
<g id="node28" class="node">
<title>Node213</title>
<g id="a_node28"><a xlink:href="quickjs_8c.html#adbffd820afae76d09c641b5b911e3600" target="_top" xlink:title=" ">
<polygon fill="none" stroke="red" points="595,-266.5 595,-285.5 730,-285.5 730,-266.5 595,-266.5"/>
<text text-anchor="middle" x="662.5" y="-273.5" font-family="Helvetica,sans-Serif" font-size="10.00">add_fast_array_element</text>
</a>
</g>
</g>
<!-- Node82&#45;&gt;Node213 -->
<g id="edge35" class="edge">
<title>Node82&#45;&gt;Node213</title>
<path fill="none" stroke="midnightblue" d="M398.01,-306.81C451.05,-300.61 527.86,-291.63 584.88,-284.96"/>
<polygon fill="midnightblue" stroke="midnightblue" points="585.4,-288.42 594.93,-283.78 584.59,-281.47 585.4,-288.42"/>
</g>
<!-- Node82&#45;&gt;Node236 -->
<g id="edge41" class="edge">
<title>Node82&#45;&gt;Node236</title>
<path fill="none" stroke="midnightblue" d="M366.77,-323.57C385.79,-332.93 410.99,-346.42 434,-357 448.13,-363.5 464.57,-369.85 476.89,-375.73"/>
<polygon fill="midnightblue" stroke="midnightblue" points="475.28,-378.84 485.77,-380.33 478.5,-372.62 475.28,-378.84"/>
</g>
<!-- Node229 -->
<g id="node30" class="node">
<title>Node229</title>
<g id="a_node30"><a xlink:href="quickjs_8c.html#a0ec52a675282f321a6f42aa1298a53fe" target="_top" xlink:title=" ">
<polygon fill="none" stroke="black" points="630.5,-342.5 630.5,-361.5 694.5,-361.5 694.5,-342.5 630.5,-342.5"/>
<text text-anchor="middle" x="662.5" y="-349.5" font-family="Helvetica,sans-Serif" font-size="10.00">set_value</text>
</a>
</g>
</g>
<!-- Node82&#45;&gt;Node229 -->
<g id="edge49" class="edge">
<title>Node82&#45;&gt;Node229</title>
<path fill="none" stroke="midnightblue" d="M398.09,-323.2C409.99,-324.88 422.38,-326.55 434,-328 498.9,-336.08 574.44,-343.7 620.08,-348.1"/>
<polygon fill="midnightblue" stroke="midnightblue" points="619.89,-351.6 630.18,-349.07 620.56,-344.63 619.89,-351.6"/>
</g>
<!-- Node213&#45;&gt;Node8 -->
<g id="edge36" class="edge">
<title>Node213&#45;&gt;Node8</title>
<path fill="none" stroke="midnightblue" d="M705.91,-285.54C714.12,-288.09 722.49,-291.23 730,-295 751.17,-305.64 772.33,-322.59 786.66,-335.24"/>
<polygon fill="midnightblue" stroke="midnightblue" points="784.5,-338 794.26,-342.12 789.19,-332.81 784.5,-338"/>
</g>
<!-- Node213&#45;&gt;Node80 -->
<g id="edge37" class="edge">
<title>Node213&#45;&gt;Node80</title>
<path fill="none" stroke="midnightblue" d="M699.08,-266.41C717.28,-261.51 739.64,-255.48 759.07,-250.24"/>
<polygon fill="midnightblue" stroke="midnightblue" points="760.19,-253.57 768.93,-247.59 758.36,-246.81 760.19,-253.57"/>
</g>
<!-- Node236&#45;&gt;Node2 -->
<g id="edge44" class="edge">
<title>Node236&#45;&gt;Node2</title>
<path fill="none" stroke="midnightblue" d="M554.17,-398.42C567.55,-400.33 581.77,-402.29 595,-404 650.18,-411.12 713.67,-418.24 756.17,-422.86"/>
<polygon fill="midnightblue" stroke="midnightblue" points="755.91,-426.35 766.23,-423.95 756.67,-419.39 755.91,-426.35"/>
</g>
<!-- Node236&#45;&gt;Node8 -->
<g id="edge45" class="edge">
<title>Node236&#45;&gt;Node8</title>
<path fill="none" stroke="midnightblue" d="M554.21,-388.03C601.48,-385.75 670.48,-380.95 730,-371 740.58,-369.23 751.85,-366.7 762.34,-364.06"/>
<polygon fill="midnightblue" stroke="midnightblue" points="763.32,-367.43 772.11,-361.52 761.56,-360.65 763.32,-367.43"/>
</g>
<!-- Node236&#45;&gt;Node82 -->
<g id="edge46" class="edge">
<title>Node236&#45;&gt;Node82</title>
<path fill="none" stroke="midnightblue" d="M446.6,-380.49C442.31,-378.72 438.06,-376.87 434,-375 404.64,-361.5 371.71,-343.25 352.61,-329.79"/>
<polygon fill="midnightblue" stroke="midnightblue" points="354.52,-326.84 344.43,-323.6 350.3,-332.42 354.52,-326.84"/>
</g>
<!-- Node236&#45;&gt;Node83 -->
<g id="edge42" class="edge">
<title>Node236&#45;&gt;Node83</title>
<path fill="none" stroke="midnightblue" d="M511.44,-380.33C529.86,-367.92 563.63,-346.4 595,-333 600.52,-330.64 606.41,-328.48 612.33,-326.53"/>
<polygon fill="midnightblue" stroke="midnightblue" points="613.74,-329.76 622.25,-323.45 611.66,-323.08 613.74,-329.76"/>
</g>
<!-- Node236&#45;&gt;Node213 -->
<g id="edge43" class="edge">
<title>Node236&#45;&gt;Node213</title>
<path fill="none" stroke="midnightblue" d="M504.68,-380.33C519.43,-361.14 555.13,-318.11 595,-295 598.84,-292.77 602.97,-290.79 607.2,-289.03"/>
<polygon fill="midnightblue" stroke="midnightblue" points="608.46,-292.3 616.61,-285.53 606.02,-285.74 608.46,-292.3"/>
</g>
<!-- Node236&#45;&gt;Node229 -->
<g id="edge47" class="edge">
<title>Node236&#45;&gt;Node229</title>
<path fill="none" stroke="midnightblue" d="M538.88,-380.41C563.9,-374.61 595.67,-367.25 620.6,-361.48"/>
<polygon fill="midnightblue" stroke="midnightblue" points="621.53,-364.85 630.48,-359.19 619.95,-358.03 621.53,-364.85"/>
</g>
<!-- Node229&#45;&gt;Node8 -->
<g id="edge48" class="edge">
<title>Node229&#45;&gt;Node8</title>
<path fill="none" stroke="midnightblue" d="M694.79,-352C712.62,-352 735.35,-352 755.49,-352"/>
<polygon fill="midnightblue" stroke="midnightblue" points="755.74,-355.5 765.74,-352 755.74,-348.5 755.74,-355.5"/>
</g>
</g>
</svg>
        <g id="navigator" transform="translate(0 0)" fill="#404254">
                <rect fill="#f2f5e9" fill-opacity="0.5" stroke="#606060" stroke-width=".5" x="0" y="0" width="60" height="60"/>
                <use id="zoomplus" xlink:href="#zoomPlus" x="17" y="9" onmousedown="handleZoom(evt,'in')"/>
                <use id="zoomminus" xlink:href="#zoomMin" x="42" y="9" onmousedown="handleZoom(evt,'out')"/>
                <use id="reset" xlink:href="#resetDef" x="30" y="36" onmousedown="handleReset()"/>
                <g id="arrowUp" xlink:href="#dirArrow" transform="translate(30 24)" onmousedown="handlePan(0,-1)">
                  <use xlink:href="#rim" fill="#404040">
                        <set attributeName="fill" to="#808080" begin="arrowUp.mouseover" end="arrowUp.mouseout"/>
                  </use>
                  <path fill="none" stroke="white" stroke-width="1.5" d="M0,-3.0v7 M-2.5,-0.5L0,-3.0L2.5,-0.5"/>
                </g>
                <g id="arrowRight" xlink:href="#dirArrow" transform="rotate(90) translate(36 -43)" onmousedown="handlePan(1,0)">
                  <use xlink:href="#rim" fill="#404040">
                        <set attributeName="fill" to="#808080" begin="arrowRight.mouseover" end="arrowRight.mouseout"/>
                  </use>
                  <path fill="none" stroke="white" stroke-width="1.5" d="M0,-3.0v7 M-2.5,-0.5L0,-3.0L2.5,-0.5"/>
                </g>
                <g id="arrowDown" xlink:href="#dirArrow" transform="rotate(180) translate(-30 -48)" onmousedown="handlePan(0,1)">
                  <use xlink:href="#rim" fill="#404040">
                        <set attributeName="fill" to="#808080" begin="arrowDown.mouseover" end="arrowDown.mouseout"/>
                  </use>
                  <path fill="none" stroke="white" stroke-width="1.5" d="M0,-3.0v7 M-2.5,-0.5L0,-3.0L2.5,-0.5"/>
                </g>
                <g id="arrowLeft" xlink:href="#dirArrow" transform="rotate(270) translate(-36 17)" onmousedown="handlePan(-1,0)">
                  <use xlink:href="#rim" fill="#404040">
                        <set attributeName="fill" to="#808080" begin="arrowLeft.mouseover" end="arrowLeft.mouseout"/>
                  </use>
                  <path fill="none" stroke="white" stroke-width="1.5" d="M0,-3.0v7 M-2.5,-0.5L0,-3.0L2.5,-0.5"/>
                </g>
        </g>
        <svg viewBox="0 0 15 15" width="100%" height="30px" preserveAspectRatio="xMaxYMin meet">
         <g id="arrow_out" transform="scale(0.3 0.3)">
          <a xlink:href="quickjs_8c_a51b06daa618640e531fe808770553b96_cgraph_org.svg" target="_base">
           <rect id="button" ry="5" rx="5" y="6" x="6" height="38" width="38"
                fill="#f2f5e9" fill-opacity="0.5" stroke="#606060" stroke-width="1.0"/>
           <path id="arrow"
             d="M 11.500037,31.436501 C 11.940474,20.09759 22.043105,11.32322 32.158766,21.979434 L 37.068811,17.246167 C 37.068811,17.246167 37.088388,32 37.088388,32 L 22.160133,31.978069 C 22.160133,31.978069 26.997745,27.140456 26.997745,27.140456 C 18.528582,18.264221 13.291696,25.230495 11.500037,31.436501 z"
             style="fill:#404040;"/>
          </a>
         </g>
        </svg>
</svg>
