<?xml version="1.0" encoding="UTF-8" standalone="no"?>
<!DOCTYPE svg PUBLIC "-//W3C//DTD SVG 1.1//EN"
 "http://www.w3.org/Graphics/SVG/1.1/DTD/svg11.dtd">
<!-- Generated by graphviz version 2.43.0 (0)
 -->
<!-- Title: js_reflect_set Pages: 1 -->
<!--zoomable 646 -->
<svg id="main" version="1.1" xmlns="http://www.w3.org/2000/svg" xmlns:xlink="http://www.w3.org/1999/xlink" xml:space="preserve" onload="init(evt)">
<style type="text/css"><![CDATA[
.edge:hover path { stroke: red; }
.edge:hover polygon { stroke: red; fill: red; }
]]></style>
<script type="text/javascript"><![CDATA[
var edges = document.getElementsByTagName('g');
if (edges && edges.length) {
  for (var i=0;i<edges.length;i++) {
    if (edges[i].id.substr(0,4)=='edge') {
      edges[i].setAttribute('class','edge');
    }
  }
}
]]></script>
        <defs>
                <circle id="rim" cx="0" cy="0" r="7"/>
                <circle id="rim2" cx="0" cy="0" r="3.5"/>
                <g id="zoomPlus">
                        <use xlink:href="#rim" fill="#404040">
                                <set attributeName="fill" to="#808080" begin="zoomplus.mouseover" end="zoomplus.mouseout"/>
                        </use>
                        <path d="M-4,0h8M0,-4v8" fill="none" stroke="white" stroke-width="1.5" pointer-events="none"/>
                </g>
                <g id="zoomMin">
                        <use xlink:href="#rim" fill="#404040">
                                <set attributeName="fill" to="#808080" begin="zoomminus.mouseover" end="zoomminus.mouseout"/>
                        </use>
                        <path d="M-4,0h8" fill="none" stroke="white" stroke-width="1.5" pointer-events="none"/>
                </g>
                <g id="dirArrow">
                        <path fill="none" stroke="white" stroke-width="1.5" d="M0,-3.0v7 M-2.5,-0.5L0,-3.0L2.5,-0.5"/>
                </g>
               <g id="resetDef">
                       <use xlink:href="#rim2" fill="#404040">
                               <set attributeName="fill" to="#808080" begin="reset.mouseover" end="reset.mouseout"/>
                       </use>
               </g>
        </defs>

<script type="text/javascript">
var viewWidth = 920;
var viewHeight = 646;
var sectionId = 'dynsection-1670';
</script>
<script xlink:href="svgpan.js"/>
<svg id="graph" class="graph">
<g id="viewport">
<title>js_reflect_set</title>
<!-- Node1 -->
<g id="node1" class="node">
<title>Node1</title>
<g id="a_node1"><a xlink:title=" ">
<polygon fill="#bfbfbf" stroke="black" points="0,-95.5 0,-114.5 81,-114.5 81,-95.5 0,-95.5"/>
<text text-anchor="middle" x="40.5" y="-102.5" font-family="Helvetica,sans-Serif" font-size="10.00">js_reflect_set</text>
</a>
</g>
</g>
<!-- Node2 -->
<g id="node2" class="node">
<title>Node2</title>
<g id="a_node2"><a xlink:href="quickjs_8h.html#a775522f2d084fc8fa0fcb33f390006b4" target="_top" xlink:title=" ">
<polygon fill="none" stroke="black" points="672.5,-524.5 672.5,-543.5 749.5,-543.5 749.5,-524.5 672.5,-524.5"/>
<text text-anchor="middle" x="711" y="-531.5" font-family="Helvetica,sans-Serif" font-size="10.00">JS_DupValue</text>
</a>
</g>
</g>
<!-- Node1&#45;&gt;Node2 -->
<g id="edge1" class="edge">
<title>Node1&#45;&gt;Node2</title>
<path fill="none" stroke="midnightblue" d="M42.27,-114.8C47.55,-174.79 84.45,-493.01 278,-594 404.14,-659.82 461.11,-641.78 598,-603 634.31,-592.71 670.41,-566.96 691.44,-549.99"/>
<polygon fill="midnightblue" stroke="midnightblue" points="693.76,-552.61 699.24,-543.54 689.3,-547.22 693.76,-552.61"/>
</g>
<!-- Node3 -->
<g id="node3" class="node">
<title>Node3</title>
<g id="a_node3"><a xlink:href="quickjs_8c.html#ab7fc45a99935a1c0ba50b0216d9401a9" target="_top" xlink:title=" ">
<polygon fill="none" stroke="black" points="140.5,-76.5 140.5,-95.5 218.5,-95.5 218.5,-76.5 140.5,-76.5"/>
<text text-anchor="middle" x="179.5" y="-83.5" font-family="Helvetica,sans-Serif" font-size="10.00">JS_FreeAtom</text>
</a>
</g>
</g>
<!-- Node1&#45;&gt;Node3 -->
<g id="edge2" class="edge">
<title>Node1&#45;&gt;Node3</title>
<path fill="none" stroke="midnightblue" d="M81.13,-99.5C96.43,-97.38 114.08,-94.93 130.11,-92.71"/>
<polygon fill="midnightblue" stroke="midnightblue" points="130.95,-96.13 140.38,-91.29 129.99,-89.19 130.95,-96.13"/>
</g>
<!-- Node9 -->
<g id="node7" class="node">
<title>Node9</title>
<g id="a_node7"><a xlink:href="quickjs_8h.html#a93abffa925714e249a6aa2f4ae7900f6" target="_top" xlink:title=" ">
<polygon fill="none" stroke="black" points="142.5,-38.5 142.5,-57.5 216.5,-57.5 216.5,-38.5 142.5,-38.5"/>
<text text-anchor="middle" x="179.5" y="-45.5" font-family="Helvetica,sans-Serif" font-size="10.00">JS_NewBool</text>
</a>
</g>
</g>
<!-- Node1&#45;&gt;Node9 -->
<g id="edge6" class="edge">
<title>Node1&#45;&gt;Node9</title>
<path fill="none" stroke="midnightblue" d="M58.51,-95.41C73.57,-87.17 96.31,-75.33 117,-67 122.51,-64.78 128.39,-62.66 134.24,-60.7"/>
<polygon fill="midnightblue" stroke="midnightblue" points="135.55,-63.96 143.99,-57.55 133.4,-57.29 135.55,-63.96"/>
</g>
<!-- Node10 -->
<g id="node8" class="node">
<title>Node10</title>
<g id="a_node8"><a xlink:href="quickjs_8c.html#a3d5eeb3c1fed80d35e4e9e14b9cb15b8" target="_top" xlink:title=" ">
<polygon fill="none" stroke="black" points="117,-361.5 117,-380.5 242,-380.5 242,-361.5 117,-361.5"/>
<text text-anchor="middle" x="179.5" y="-368.5" font-family="Helvetica,sans-Serif" font-size="10.00">JS_SetPropertyGeneric</text>
</a>
</g>
</g>
<!-- Node1&#45;&gt;Node10 -->
<g id="edge7" class="edge">
<title>Node1&#45;&gt;Node10</title>
<path fill="none" stroke="midnightblue" d="M46.54,-114.78C66.72,-153.97 141.95,-300.03 168.85,-352.27"/>
<polygon fill="midnightblue" stroke="midnightblue" points="165.87,-354.12 173.56,-361.41 172.09,-350.92 165.87,-354.12"/>
</g>
<!-- Node200 -->
<g id="node18" class="node">
<title>Node200</title>
<g id="a_node18"><a xlink:href="quickjs_8c.html#a726b00d108e0a0f4d958c36c2e426a64" target="_top" xlink:title=" ">
<polygon fill="none" stroke="black" points="430,-171.5 430,-190.5 598,-190.5 598,-171.5 430,-171.5"/>
<text text-anchor="middle" x="514" y="-178.5" font-family="Helvetica,sans-Serif" font-size="10.00">JS_ThrowTypeErrorNotAnObject</text>
</a>
</g>
</g>
<!-- Node1&#45;&gt;Node200 -->
<g id="edge37" class="edge">
<title>Node1&#45;&gt;Node200</title>
<path fill="none" stroke="midnightblue" d="M81.29,-111.41C161.57,-124.35 343.77,-153.72 443.9,-169.86"/>
<polygon fill="midnightblue" stroke="midnightblue" points="443.49,-173.34 453.92,-171.48 444.6,-166.43 443.49,-173.34"/>
</g>
<!-- Node153 -->
<g id="node23" class="node">
<title>Node153</title>
<g id="a_node23"><a xlink:href="quickjs_8c.html#a859d5c989a2aaecef1653b3ac279e108" target="_top" xlink:title=" ">
<polygon fill="none" stroke="red" points="132,-0.5 132,-19.5 227,-19.5 227,-0.5 132,-0.5"/>
<text text-anchor="middle" x="179.5" y="-7.5" font-family="Helvetica,sans-Serif" font-size="10.00">JS_ValueToAtom</text>
</a>
</g>
</g>
<!-- Node1&#45;&gt;Node153 -->
<g id="edge38" class="edge">
<title>Node1&#45;&gt;Node153</title>
<path fill="none" stroke="midnightblue" d="M48.51,-95.34C60.67,-79.26 87.24,-47.01 117,-29 120.45,-26.91 124.15,-25.03 127.96,-23.35"/>
<polygon fill="midnightblue" stroke="midnightblue" points="129.57,-26.48 137.58,-19.55 127,-19.97 129.57,-26.48"/>
</g>
<!-- Node4 -->
<g id="node4" class="node">
<title>Node4</title>
<g id="a_node4"><a xlink:href="quickjs_8c.html#a7f6796ee7a195631366f57c713a33f65" target="_top" xlink:title=" ">
<polygon fill="none" stroke="black" points="284,-76.5 284,-95.5 388,-95.5 388,-76.5 284,-76.5"/>
<text text-anchor="middle" x="336" y="-83.5" font-family="Helvetica,sans-Serif" font-size="10.00">__JS_AtomIsConst</text>
</a>
</g>
</g>
<!-- Node3&#45;&gt;Node4 -->
<g id="edge3" class="edge">
<title>Node3&#45;&gt;Node4</title>
<path fill="none" stroke="midnightblue" d="M218.69,-86C235.28,-86 255.13,-86 273.69,-86"/>
<polygon fill="midnightblue" stroke="midnightblue" points="273.84,-89.5 283.84,-86 273.84,-82.5 273.84,-89.5"/>
</g>
<!-- Node5 -->
<g id="node5" class="node">
<title>Node5</title>
<g id="a_node5"><a xlink:href="quickjs_8c.html#a0bbd9e3ecd55e3ea6c9d44bfda382095" target="_top" xlink:title=" ">
<polygon fill="none" stroke="black" points="291.5,-38.5 291.5,-57.5 380.5,-57.5 380.5,-38.5 291.5,-38.5"/>
<text text-anchor="middle" x="336" y="-45.5" font-family="Helvetica,sans-Serif" font-size="10.00">__JS_FreeAtom</text>
</a>
</g>
</g>
<!-- Node3&#45;&gt;Node5 -->
<g id="edge4" class="edge">
<title>Node3&#45;&gt;Node5</title>
<path fill="none" stroke="midnightblue" d="M218.69,-76.61C239.15,-71.58 264.57,-65.32 286.42,-59.95"/>
<polygon fill="midnightblue" stroke="midnightblue" points="287.3,-63.34 296.18,-57.55 285.63,-56.54 287.3,-63.34"/>
</g>
<!-- Node6 -->
<g id="node6" class="node">
<title>Node6</title>
<g id="a_node6"><a xlink:href="quickjs_8c.html#a58c8965dad50b15b75918a09f3d9dc7c" target="_top" xlink:title=" ">
<polygon fill="none" stroke="red" points="460.5,-38.5 460.5,-57.5 567.5,-57.5 567.5,-38.5 460.5,-38.5"/>
<text text-anchor="middle" x="514" y="-45.5" font-family="Helvetica,sans-Serif" font-size="10.00">JS_FreeAtomStruct</text>
</a>
</g>
</g>
<!-- Node5&#45;&gt;Node6 -->
<g id="edge5" class="edge">
<title>Node5&#45;&gt;Node6</title>
<path fill="none" stroke="midnightblue" d="M380.51,-48C401.52,-48 427.13,-48 450.21,-48"/>
<polygon fill="midnightblue" stroke="midnightblue" points="450.27,-51.5 460.27,-48 450.27,-44.5 450.27,-51.5"/>
</g>
<!-- Node10&#45;&gt;Node2 -->
<g id="edge27" class="edge">
<title>Node10&#45;&gt;Node2</title>
<path fill="none" stroke="midnightblue" d="M182.35,-380.74C188.9,-412.22 214.1,-511.81 278,-556 395.18,-637.04 457.71,-599.87 598,-575 627.3,-569.8 659.01,-557.52 681.18,-547.74"/>
<polygon fill="midnightblue" stroke="midnightblue" points="682.68,-550.9 690.36,-543.6 679.8,-544.52 682.68,-550.9"/>
</g>
<!-- Node11 -->
<g id="node9" class="node">
<title>Node11</title>
<g id="a_node9"><a xlink:href="quickjs_8c.html#a014abd680db53ab89cb133345742a59c" target="_top" xlink:title=" ">
<polygon fill="none" stroke="black" points="671,-228.5 671,-247.5 751,-247.5 751,-228.5 671,-228.5"/>
<text text-anchor="middle" x="711" y="-235.5" font-family="Helvetica,sans-Serif" font-size="10.00">__attribute__</text>
</a>
</g>
</g>
<!-- Node10&#45;&gt;Node11 -->
<g id="edge8" class="edge">
<title>Node10&#45;&gt;Node11</title>
<path fill="none" stroke="midnightblue" d="M186.27,-361.24C199.91,-338.81 236.15,-282.76 278,-247 336.84,-196.71 355.1,-181.52 430,-162 502.25,-143.17 526.63,-140.07 598,-162 635.71,-173.59 672.12,-202.66 692.73,-221.3"/>
<polygon fill="midnightblue" stroke="midnightblue" points="690.59,-224.1 700.3,-228.34 695.36,-218.97 690.59,-224.1"/>
</g>
<!-- Node237 -->
<g id="node12" class="node">
<title>Node237</title>
<g id="a_node12"><a xlink:href="quickjs_8c.html#a3fb71f8d31b557ebebec82476999408a" target="_top" xlink:title=" ">
<polygon fill="none" stroke="red" points="302,-399.5 302,-418.5 370,-418.5 370,-399.5 302,-399.5"/>
<text text-anchor="middle" x="336" y="-406.5" font-family="Helvetica,sans-Serif" font-size="10.00">call_setter</text>
</a>
</g>
</g>
<!-- Node10&#45;&gt;Node237 -->
<g id="edge11" class="edge">
<title>Node10&#45;&gt;Node237</title>
<path fill="none" stroke="midnightblue" d="M219.49,-380.59C241.6,-386.03 269.31,-392.84 292.05,-398.44"/>
<polygon fill="midnightblue" stroke="midnightblue" points="291.24,-401.84 301.78,-400.83 292.91,-395.04 291.24,-401.84"/>
</g>
<!-- Node37 -->
<g id="node13" class="node">
<title>Node37</title>
<g id="a_node13"><a xlink:href="quickjs_8h.html#afaa20c47565bc704c6c85f3d77254e7d" target="_top" xlink:title=" ">
<polygon fill="none" stroke="red" points="474.5,-361.5 474.5,-380.5 553.5,-380.5 553.5,-361.5 474.5,-361.5"/>
<text text-anchor="middle" x="514" y="-368.5" font-family="Helvetica,sans-Serif" font-size="10.00">JS_FreeValue</text>
</a>
</g>
</g>
<!-- Node10&#45;&gt;Node37 -->
<g id="edge28" class="edge">
<title>Node10&#45;&gt;Node37</title>
<path fill="none" stroke="midnightblue" d="M242.26,-371C306.4,-371 405.42,-371 464.26,-371"/>
<polygon fill="midnightblue" stroke="midnightblue" points="464.41,-374.5 474.41,-371 464.41,-367.5 464.41,-374.5"/>
</g>
<!-- Node211 -->
<g id="node14" class="node">
<title>Node211</title>
<g id="a_node14"><a xlink:href="quickjs_8c.html#ad5565bb5cfd5321f181573257f3b0c91" target="_top" xlink:title=" ">
<polygon fill="none" stroke="red" points="462,-285.5 462,-304.5 566,-304.5 566,-285.5 462,-285.5"/>
<text text-anchor="middle" x="514" y="-292.5" font-family="Helvetica,sans-Serif" font-size="10.00">JS_CreateProperty</text>
</a>
</g>
</g>
<!-- Node10&#45;&gt;Node211 -->
<g id="edge15" class="edge">
<title>Node10&#45;&gt;Node211</title>
<path fill="none" stroke="midnightblue" d="M186.57,-361.29C200.03,-340.82 234.65,-293.63 278,-276 308.42,-263.63 393.04,-274.23 451.96,-283.87"/>
<polygon fill="midnightblue" stroke="midnightblue" points="451.47,-287.34 461.91,-285.53 452.62,-280.43 451.47,-287.34"/>
</g>
<!-- Node214 -->
<g id="node15" class="node">
<title>Node214</title>
<g id="a_node15"><a xlink:href="quickjs_8c.html#adba489eac6c2332de312326782457940" target="_top" xlink:title=" ">
<polygon fill="none" stroke="black" points="634,-266.5 634,-285.5 788,-285.5 788,-266.5 634,-266.5"/>
<text text-anchor="middle" x="711" y="-273.5" font-family="Helvetica,sans-Serif" font-size="10.00">JS_ThrowTypeErrorReadOnly</text>
</a>
</g>
</g>
<!-- Node10&#45;&gt;Node214 -->
<g id="edge36" class="edge">
<title>Node10&#45;&gt;Node214</title>
<path fill="none" stroke="midnightblue" d="M185.72,-361.31C198.2,-339.32 232.17,-285.99 278,-266 337.79,-239.93 515.68,-253.89 623.64,-265.53"/>
<polygon fill="midnightblue" stroke="midnightblue" points="623.54,-269.04 633.86,-266.64 624.3,-262.08 623.54,-269.04"/>
</g>
<!-- Node207 -->
<g id="node16" class="node">
<title>Node207</title>
<g id="a_node16"><a xlink:href="quickjs_8c.html#ab50618f1bf78e444caa6da0e3e2785d7" target="_top" xlink:title=" ">
<polygon fill="none" stroke="red" points="284,-285.5 284,-304.5 388,-304.5 388,-285.5 284,-285.5"/>
<text text-anchor="middle" x="336" y="-292.5" font-family="Helvetica,sans-Serif" font-size="10.00">JS_DefineProperty</text>
</a>
</g>
</g>
<!-- Node10&#45;&gt;Node207 -->
<g id="edge20" class="edge">
<title>Node10&#45;&gt;Node207</title>
<path fill="none" stroke="midnightblue" d="M194.86,-361.32C213.44,-349.11 247.1,-328 278,-314 282.75,-311.85 287.81,-309.81 292.89,-307.93"/>
<polygon fill="midnightblue" stroke="midnightblue" points="294.33,-311.14 302.6,-304.51 292,-304.53 294.33,-311.14"/>
</g>
<!-- Node146 -->
<g id="node17" class="node">
<title>Node146</title>
<g id="a_node17"><a xlink:href="quickjs_8h.html#a4e407128a9605afb77523e49e9a627fd" target="_top" xlink:title=" ">
<polygon fill="none" stroke="black" points="469.5,-456.5 469.5,-475.5 558.5,-475.5 558.5,-456.5 469.5,-456.5"/>
<text text-anchor="middle" x="514" y="-463.5" font-family="Helvetica,sans-Serif" font-size="10.00">JS_IsUndefined</text>
</a>
</g>
</g>
<!-- Node10&#45;&gt;Node146 -->
<g id="edge35" class="edge">
<title>Node10&#45;&gt;Node146</title>
<path fill="none" stroke="midnightblue" d="M184.04,-380.81C194.02,-406.78 225.14,-477.21 278,-504 347.2,-539.07 441.28,-502.27 486.54,-480.15"/>
<polygon fill="midnightblue" stroke="midnightblue" points="488.32,-483.17 495.68,-475.55 485.18,-476.92 488.32,-483.17"/>
</g>
<!-- Node305 -->
<g id="node19" class="node">
<title>Node305</title>
<g id="a_node19"><a xlink:href="quickjs_8c.html#ad13892c0a0f11781b566808876658099" target="_top" xlink:title=" ">
<polygon fill="none" stroke="red" points="439.5,-546.5 439.5,-565.5 588.5,-565.5 588.5,-546.5 439.5,-546.5"/>
<text text-anchor="middle" x="514" y="-553.5" font-family="Helvetica,sans-Serif" font-size="10.00">JS_GetOwnPropertyInternal</text>
</a>
</g>
</g>
<!-- Node10&#45;&gt;Node305 -->
<g id="edge29" class="edge">
<title>Node10&#45;&gt;Node305</title>
<path fill="none" stroke="midnightblue" d="M183.39,-380.66C192.27,-408.51 222.01,-489.21 278,-525 322.59,-553.5 381.69,-561.19 429.46,-561.79"/>
<polygon fill="midnightblue" stroke="midnightblue" points="429.46,-565.29 439.47,-561.81 429.48,-558.29 429.46,-565.29"/>
</g>
<!-- Node392 -->
<g id="node20" class="node">
<title>Node392</title>
<g id="a_node20"><a xlink:href="quickjs_8c.html#a7f82fd53b039b4e12f1addfa15d750ae" target="_top" xlink:title=" ">
<polygon fill="none" stroke="red" points="278,-323.5 278,-342.5 394,-342.5 394,-323.5 278,-323.5"/>
<text text-anchor="middle" x="336" y="-330.5" font-family="Helvetica,sans-Serif" font-size="10.00">JS_GetPrototypeFree</text>
</a>
</g>
</g>
<!-- Node10&#45;&gt;Node392 -->
<g id="edge31" class="edge">
<title>Node10&#45;&gt;Node392</title>
<path fill="none" stroke="midnightblue" d="M219.49,-361.41C239.78,-356.42 264.79,-350.27 286.35,-344.97"/>
<polygon fill="midnightblue" stroke="midnightblue" points="287.42,-348.31 296.29,-342.52 285.75,-341.51 287.42,-348.31"/>
</g>
<!-- Node221 -->
<g id="node21" class="node">
<title>Node221</title>
<g id="a_node21"><a xlink:href="quickjs_8h.html#a149f24b67e745bad93573b3b4c80db4c" target="_top" xlink:title=" ">
<polygon fill="none" stroke="black" points="306.5,-475.5 306.5,-494.5 365.5,-494.5 365.5,-475.5 306.5,-475.5"/>
<text text-anchor="middle" x="336" y="-482.5" font-family="Helvetica,sans-Serif" font-size="10.00">JS_IsNull</text>
</a>
</g>
</g>
<!-- Node10&#45;&gt;Node221 -->
<g id="edge33" class="edge">
<title>Node10&#45;&gt;Node221</title>
<path fill="none" stroke="midnightblue" d="M187.77,-380.53C202.67,-399.45 238.64,-442.03 278,-466 283.81,-469.54 290.35,-472.5 296.88,-474.96"/>
<polygon fill="midnightblue" stroke="midnightblue" points="295.75,-478.28 306.35,-478.21 298.02,-471.65 295.75,-478.28"/>
</g>
<!-- Node284 -->
<g id="node22" class="node">
<title>Node284</title>
<g id="a_node22"><a xlink:href="quickjs_8h.html#a3d68fe446df2d9c7d1900b16371bff5b" target="_top" xlink:title=" ">
<polygon fill="none" stroke="black" points="300.5,-437.5 300.5,-456.5 371.5,-456.5 371.5,-437.5 300.5,-437.5"/>
<text text-anchor="middle" x="336" y="-444.5" font-family="Helvetica,sans-Serif" font-size="10.00">JS_IsObject</text>
</a>
</g>
</g>
<!-- Node10&#45;&gt;Node284 -->
<g id="edge34" class="edge">
<title>Node10&#45;&gt;Node284</title>
<path fill="none" stroke="midnightblue" d="M194.86,-380.68C213.44,-392.89 247.1,-414 278,-428 282.75,-430.15 287.81,-432.19 292.89,-434.07"/>
<polygon fill="midnightblue" stroke="midnightblue" points="292,-437.47 302.6,-437.49 294.33,-430.86 292,-437.47"/>
</g>
<!-- Node12 -->
<g id="node10" class="node">
<title>Node12</title>
<g id="a_node10"><a xlink:href="quickjs_8c.html#a686cf78f8b0361621ee2ba6182195c31" target="_top" xlink:title=" ">
<polygon fill="none" stroke="black" points="824,-266.5 824,-285.5 912,-285.5 912,-266.5 824,-266.5"/>
<text text-anchor="middle" x="868" y="-273.5" font-family="Helvetica,sans-Serif" font-size="10.00">is_strict_mode</text>
</a>
</g>
</g>
<!-- Node11&#45;&gt;Node12 -->
<g id="edge9" class="edge">
<title>Node11&#45;&gt;Node12</title>
<path fill="none" stroke="midnightblue" d="M751.11,-247.59C771.47,-252.58 796.57,-258.73 818.19,-264.03"/>
<polygon fill="midnightblue" stroke="midnightblue" points="817.62,-267.5 828.17,-266.48 819.29,-260.7 817.62,-267.5"/>
</g>
<!-- Node13 -->
<g id="node11" class="node">
<title>Node13</title>
<g id="a_node11"><a xlink:href="quickjs_8c.html#a1b110b017211230b8b6310e853cd2b54" target="_top" xlink:title=" ">
<polygon fill="none" stroke="red" points="826,-228.5 826,-247.5 910,-247.5 910,-228.5 826,-228.5"/>
<text text-anchor="middle" x="868" y="-235.5" font-family="Helvetica,sans-Serif" font-size="10.00">JS_ThrowError</text>
</a>
</g>
</g>
<!-- Node11&#45;&gt;Node13 -->
<g id="edge10" class="edge">
<title>Node11&#45;&gt;Node13</title>
<path fill="none" stroke="midnightblue" d="M751.11,-238C770.69,-238 794.64,-238 815.67,-238"/>
<polygon fill="midnightblue" stroke="midnightblue" points="815.73,-241.5 825.73,-238 815.73,-234.5 815.73,-241.5"/>
</g>
<!-- Node237&#45;&gt;Node2 -->
<g id="edge13" class="edge">
<title>Node237&#45;&gt;Node2</title>
<path fill="none" stroke="midnightblue" d="M370.28,-415.89C378.59,-418.69 387.1,-422.6 394,-428 417.59,-446.48 405.11,-468.32 430,-485 500.39,-532.17 602.31,-538.11 661.8,-536.9"/>
<polygon fill="midnightblue" stroke="midnightblue" points="662.14,-540.4 672.04,-536.62 661.95,-533.4 662.14,-540.4"/>
</g>
<!-- Node237&#45;&gt;Node12 -->
<g id="edge12" class="edge">
<title>Node237&#45;&gt;Node12</title>
<path fill="none" stroke="midnightblue" d="M370.08,-410.02C420.15,-410.81 517.84,-409.34 598,-390 691.64,-367.41 794.39,-315.59 841.2,-290.35"/>
<polygon fill="midnightblue" stroke="midnightblue" points="842.95,-293.39 850.06,-285.53 839.6,-287.24 842.95,-293.39"/>
</g>
<!-- Node237&#45;&gt;Node37 -->
<g id="edge14" class="edge">
<title>Node237&#45;&gt;Node37</title>
<path fill="none" stroke="midnightblue" d="M370.1,-401.85C396.67,-396.12 434.36,-387.98 464.36,-381.5"/>
<polygon fill="midnightblue" stroke="midnightblue" points="465.18,-384.91 474.21,-379.37 463.7,-378.06 465.18,-384.91"/>
</g>
<!-- Node211&#45;&gt;Node2 -->
<g id="edge17" class="edge">
<title>Node211&#45;&gt;Node2</title>
<path fill="none" stroke="midnightblue" d="M566.02,-302.79C577.42,-306.33 588.83,-311.49 598,-319 662.57,-371.86 694.31,-471.82 705.33,-514.2"/>
<polygon fill="midnightblue" stroke="midnightblue" points="701.99,-515.25 707.8,-524.11 708.78,-513.56 701.99,-515.25"/>
</g>
<!-- Node211&#45;&gt;Node11 -->
<g id="edge16" class="edge">
<title>Node211&#45;&gt;Node11</title>
<path fill="none" stroke="midnightblue" d="M543.22,-285.43C567.23,-277.41 602.71,-265.9 634,-257 642.65,-254.54 651.9,-252.08 660.87,-249.79"/>
<polygon fill="midnightblue" stroke="midnightblue" points="661.98,-253.12 670.82,-247.29 660.27,-246.33 661.98,-253.12"/>
</g>
<!-- Node211&#45;&gt;Node214 -->
<g id="edge18" class="edge">
<title>Node211&#45;&gt;Node214</title>
<path fill="none" stroke="midnightblue" d="M566.23,-290.01C583.82,-288.29 604.02,-286.33 623.61,-284.42"/>
<polygon fill="midnightblue" stroke="midnightblue" points="624.17,-287.88 633.78,-283.43 623.49,-280.91 624.17,-287.88"/>
</g>
<!-- Node214&#45;&gt;Node12 -->
<g id="edge19" class="edge">
<title>Node214&#45;&gt;Node12</title>
<path fill="none" stroke="midnightblue" d="M788.14,-276C796.75,-276 805.39,-276 813.62,-276"/>
<polygon fill="midnightblue" stroke="midnightblue" points="813.8,-279.5 823.8,-276 813.8,-272.5 813.8,-279.5"/>
</g>
<!-- Node207&#45;&gt;Node2 -->
<g id="edge23" class="edge">
<title>Node207&#45;&gt;Node2</title>
<path fill="none" stroke="midnightblue" d="M382.7,-304.51C456.35,-319.89 593.58,-348.86 598,-352 656.66,-393.62 690.7,-476.58 703.78,-514.39"/>
<polygon fill="midnightblue" stroke="midnightblue" points="700.56,-515.81 707.04,-524.19 707.2,-513.6 700.56,-515.81"/>
</g>
<!-- Node207&#45;&gt;Node11 -->
<g id="edge21" class="edge">
<title>Node207&#45;&gt;Node11</title>
<path fill="none" stroke="midnightblue" d="M380.88,-285.41C396.36,-282.19 413.92,-278.73 430,-276 510.59,-262.31 604.89,-250.35 660.92,-243.66"/>
<polygon fill="midnightblue" stroke="midnightblue" points="661.4,-247.12 670.92,-242.47 660.58,-240.17 661.4,-247.12"/>
</g>
<!-- Node207&#45;&gt;Node37 -->
<g id="edge24" class="edge">
<title>Node207&#45;&gt;Node37</title>
<path fill="none" stroke="midnightblue" d="M373.28,-304.54C380.39,-307.11 387.62,-310.24 394,-314 412.71,-325.01 411.08,-336.37 430,-347 440.63,-352.97 452.87,-357.57 464.63,-361.06"/>
<polygon fill="midnightblue" stroke="midnightblue" points="463.78,-364.46 474.35,-363.74 465.64,-357.71 463.78,-364.46"/>
</g>
<!-- Node207&#45;&gt;Node211 -->
<g id="edge22" class="edge">
<title>Node207&#45;&gt;Node211</title>
<path fill="none" stroke="midnightblue" d="M388.38,-295C408.17,-295 430.97,-295 451.61,-295"/>
<polygon fill="midnightblue" stroke="midnightblue" points="451.86,-298.5 461.86,-295 451.86,-291.5 451.86,-298.5"/>
</g>
<!-- Node207&#45;&gt;Node146 -->
<g id="edge25" class="edge">
<title>Node207&#45;&gt;Node146</title>
<path fill="none" stroke="midnightblue" d="M379.01,-304.58C384.44,-307.04 389.63,-310.13 394,-314 421.97,-338.79 407.8,-359.93 430,-390 447.55,-413.78 473.34,-435.99 491.5,-450.18"/>
<polygon fill="midnightblue" stroke="midnightblue" points="489.66,-453.18 499.73,-456.48 493.91,-447.62 489.66,-453.18"/>
</g>
<!-- Node207&#45;&gt;Node200 -->
<g id="edge26" class="edge">
<title>Node207&#45;&gt;Node200</title>
<path fill="none" stroke="midnightblue" d="M344.31,-285.28C358.67,-266.86 392.48,-226.74 430,-205 437.91,-200.42 446.76,-196.65 455.65,-193.58"/>
<polygon fill="midnightblue" stroke="midnightblue" points="456.81,-196.89 465.27,-190.51 454.68,-190.22 456.81,-196.89"/>
</g>
<!-- Node305&#45;&gt;Node2 -->
<g id="edge30" class="edge">
<title>Node305&#45;&gt;Node2</title>
<path fill="none" stroke="midnightblue" d="M588.72,-547.68C613.3,-544.91 640.03,-541.89 662.12,-539.4"/>
<polygon fill="midnightblue" stroke="midnightblue" points="662.7,-542.86 672.24,-538.26 661.91,-535.9 662.7,-542.86"/>
</g>
<!-- Node392&#45;&gt;Node37 -->
<g id="edge32" class="edge">
<title>Node392&#45;&gt;Node37</title>
<path fill="none" stroke="midnightblue" d="M381.41,-342.59C406.67,-348.04 438.35,-354.88 464.29,-360.48"/>
<polygon fill="midnightblue" stroke="midnightblue" points="463.77,-363.95 474.29,-362.64 465.25,-357.11 463.77,-363.95"/>
</g>
</g>
</svg>
        <g id="navigator" transform="translate(0 0)" fill="#404254">
                <rect fill="#f2f5e9" fill-opacity="0.5" stroke="#606060" stroke-width=".5" x="0" y="0" width="60" height="60"/>
                <use id="zoomplus" xlink:href="#zoomPlus" x="17" y="9" onmousedown="handleZoom(evt,'in')"/>
                <use id="zoomminus" xlink:href="#zoomMin" x="42" y="9" onmousedown="handleZoom(evt,'out')"/>
                <use id="reset" xlink:href="#resetDef" x="30" y="36" onmousedown="handleReset()"/>
                <g id="arrowUp" xlink:href="#dirArrow" transform="translate(30 24)" onmousedown="handlePan(0,-1)">
                  <use xlink:href="#rim" fill="#404040">
                        <set attributeName="fill" to="#808080" begin="arrowUp.mouseover" end="arrowUp.mouseout"/>
                  </use>
                  <path fill="none" stroke="white" stroke-width="1.5" d="M0,-3.0v7 M-2.5,-0.5L0,-3.0L2.5,-0.5"/>
                </g>
                <g id="arrowRight" xlink:href="#dirArrow" transform="rotate(90) translate(36 -43)" onmousedown="handlePan(1,0)">
                  <use xlink:href="#rim" fill="#404040">
                        <set attributeName="fill" to="#808080" begin="arrowRight.mouseover" end="arrowRight.mouseout"/>
                  </use>
                  <path fill="none" stroke="white" stroke-width="1.5" d="M0,-3.0v7 M-2.5,-0.5L0,-3.0L2.5,-0.5"/>
                </g>
                <g id="arrowDown" xlink:href="#dirArrow" transform="rotate(180) translate(-30 -48)" onmousedown="handlePan(0,1)">
                  <use xlink:href="#rim" fill="#404040">
                        <set attributeName="fill" to="#808080" begin="arrowDown.mouseover" end="arrowDown.mouseout"/>
                  </use>
                  <path fill="none" stroke="white" stroke-width="1.5" d="M0,-3.0v7 M-2.5,-0.5L0,-3.0L2.5,-0.5"/>
                </g>
                <g id="arrowLeft" xlink:href="#dirArrow" transform="rotate(270) translate(-36 17)" onmousedown="handlePan(-1,0)">
                  <use xlink:href="#rim" fill="#404040">
                        <set attributeName="fill" to="#808080" begin="arrowLeft.mouseover" end="arrowLeft.mouseout"/>
                  </use>
                  <path fill="none" stroke="white" stroke-width="1.5" d="M0,-3.0v7 M-2.5,-0.5L0,-3.0L2.5,-0.5"/>
                </g>
        </g>
        <svg viewBox="0 0 15 15" width="100%" height="30px" preserveAspectRatio="xMaxYMin meet">
         <g id="arrow_out" transform="scale(0.3 0.3)">
          <a xlink:href="quickjs_8c_af047bcc4352c7d76f5e85bb5985bcd97_cgraph_org.svg" target="_base">
           <rect id="button" ry="5" rx="5" y="6" x="6" height="38" width="38"
                fill="#f2f5e9" fill-opacity="0.5" stroke="#606060" stroke-width="1.0"/>
           <path id="arrow"
             d="M 11.500037,31.436501 C 11.940474,20.09759 22.043105,11.32322 32.158766,21.979434 L 37.068811,17.246167 C 37.068811,17.246167 37.088388,32 37.088388,32 L 22.160133,31.978069 C 22.160133,31.978069 26.997745,27.140456 26.997745,27.140456 C 18.528582,18.264221 13.291696,25.230495 11.500037,31.436501 z"
             style="fill:#404040;"/>
          </a>
         </g>
        </svg>
</svg>
