<?xml version="1.0" encoding="UTF-8" standalone="no"?>
<!DOCTYPE svg PUBLIC "-//W3C//DTD SVG 1.1//EN"
 "http://www.w3.org/Graphics/SVG/1.1/DTD/svg11.dtd">
<!-- Generated by graphviz version 2.43.0 (0)
 -->
<!-- Title: js_array_every Pages: 1 -->
<!--zoomable 1134 -->
<svg id="main" version="1.1" xmlns="http://www.w3.org/2000/svg" xmlns:xlink="http://www.w3.org/1999/xlink" xml:space="preserve" onload="init(evt)">
<style type="text/css"><![CDATA[
.edge:hover path { stroke: red; }
.edge:hover polygon { stroke: red; fill: red; }
]]></style>
<script type="text/javascript"><![CDATA[
var edges = document.getElementsByTagName('g');
if (edges && edges.length) {
  for (var i=0;i<edges.length;i++) {
    if (edges[i].id.substr(0,4)=='edge') {
      edges[i].setAttribute('class','edge');
    }
  }
}
]]></script>
        <defs>
                <circle id="rim" cx="0" cy="0" r="7"/>
                <circle id="rim2" cx="0" cy="0" r="3.5"/>
                <g id="zoomPlus">
                        <use xlink:href="#rim" fill="#404040">
                                <set attributeName="fill" to="#808080" begin="zoomplus.mouseover" end="zoomplus.mouseout"/>
                        </use>
                        <path d="M-4,0h8M0,-4v8" fill="none" stroke="white" stroke-width="1.5" pointer-events="none"/>
                </g>
                <g id="zoomMin">
                        <use xlink:href="#rim" fill="#404040">
                                <set attributeName="fill" to="#808080" begin="zoomminus.mouseover" end="zoomminus.mouseout"/>
                        </use>
                        <path d="M-4,0h8" fill="none" stroke="white" stroke-width="1.5" pointer-events="none"/>
                </g>
                <g id="dirArrow">
                        <path fill="none" stroke="white" stroke-width="1.5" d="M0,-3.0v7 M-2.5,-0.5L0,-3.0L2.5,-0.5"/>
                </g>
               <g id="resetDef">
                       <use xlink:href="#rim2" fill="#404040">
                               <set attributeName="fill" to="#808080" begin="reset.mouseover" end="reset.mouseout"/>
                       </use>
               </g>
        </defs>

<script type="text/javascript">
var viewWidth = 588;
var viewHeight = 1134;
var sectionId = 'dynsection-1491';
</script>
<script xlink:href="svgpan.js"/>
<svg id="graph" class="graph">
<g id="viewport">
<title>js_array_every</title>
<!-- Node1 -->
<g id="node1" class="node">
<title>Node1</title>
<g id="a_node1"><a xlink:title=" ">
<polygon fill="#bfbfbf" stroke="black" points="0,-373 0,-392 89,-392 89,-373 0,-373"/>
<text text-anchor="middle" x="44.5" y="-380" font-family="Helvetica,sans-Serif" font-size="10.00">js_array_every</text>
</a>
</g>
</g>
<!-- Node2 -->
<g id="node2" class="node">
<title>Node2</title>
<g id="a_node2"><a xlink:href="quickjs_8c.html#af98c0c68d51e36b9779a0bb215c3a923" target="_top" xlink:title=" ">
<polygon fill="none" stroke="black" points="325,-904 325,-923 448,-923 448,-904 325,-904"/>
<text text-anchor="middle" x="386.5" y="-911" font-family="Helvetica,sans-Serif" font-size="10.00">check_exception_free</text>
</a>
</g>
</g>
<!-- Node1&#45;&gt;Node2 -->
<g id="edge1" class="edge">
<title>Node1&#45;&gt;Node2</title>
<path fill="none" stroke="midnightblue" d="M45.66,-392.26C46.78,-434.86 55.58,-607.62 125,-724.5 183.03,-822.21 216.11,-840.31 316,-894.5 320.18,-896.77 324.65,-898.78 329.23,-900.56"/>
<polygon fill="midnightblue" stroke="midnightblue" points="328.14,-903.89 338.73,-903.91 330.46,-897.29 328.14,-903.89"/>
</g>
<!-- Node3 -->
<g id="node3" class="node">
<title>Node3</title>
<g id="a_node3"><a xlink:href="quickjs_8h.html#afaa20c47565bc704c6c85f3d77254e7d" target="_top" xlink:title=" ">
<polygon fill="none" stroke="red" points="497,-986 497,-1005 576,-1005 576,-986 497,-986"/>
<text text-anchor="middle" x="536.5" y="-993" font-family="Helvetica,sans-Serif" font-size="10.00">JS_FreeValue</text>
</a>
</g>
</g>
<!-- Node1&#45;&gt;Node3 -->
<g id="edge26" class="edge">
<title>Node1&#45;&gt;Node3</title>
<path fill="none" stroke="midnightblue" d="M45.89,-392.31C49.13,-471.82 72.9,-1009.19 125,-1055.5 180.19,-1104.56 386.55,-1063.64 457,-1041.5 478.29,-1034.81 499.99,-1021.49 515.16,-1010.9"/>
<polygon fill="midnightblue" stroke="midnightblue" points="517.22,-1013.74 523.29,-1005.05 513.13,-1008.06 517.22,-1013.74"/>
</g>
<!-- Node41 -->
<g id="node4" class="node">
<title>Node41</title>
<g id="a_node4"><a xlink:href="quickjs_8h.html#ad80a83d73e9b7d872b88fbf2943aebe9" target="_top" xlink:title=" ">
<polygon fill="none" stroke="black" points="493,-544 493,-563 580,-563 580,-544 493,-544"/>
<text text-anchor="middle" x="536.5" y="-551" font-family="Helvetica,sans-Serif" font-size="10.00">JS_IsException</text>
</a>
</g>
</g>
<!-- Node1&#45;&gt;Node41 -->
<g id="edge36" class="edge">
<title>Node1&#45;&gt;Node41</title>
<path fill="none" stroke="midnightblue" d="M49.17,-392.02C58.29,-414.27 84.21,-469.83 125,-496.5 235.85,-568.98 399.52,-566.7 482.74,-559.7"/>
<polygon fill="midnightblue" stroke="midnightblue" points="483.08,-563.18 492.73,-558.8 482.46,-556.21 483.08,-563.18"/>
</g>
<!-- Node42 -->
<g id="node5" class="node">
<title>Node42</title>
<g id="a_node5"><a xlink:href="quickjs_8c.html#a59a7e992f228759bf0a56f0aae4f3cc3" target="_top" xlink:title=" ">
<polygon fill="none" stroke="black" points="157.5,-126 157.5,-145 247.5,-145 247.5,-126 157.5,-126"/>
<text text-anchor="middle" x="202.5" y="-133" font-family="Helvetica,sans-Serif" font-size="10.00">check_function</text>
</a>
</g>
</g>
<!-- Node1&#45;&gt;Node42 -->
<g id="edge4" class="edge">
<title>Node1&#45;&gt;Node42</title>
<path fill="none" stroke="midnightblue" d="M45.77,-372.99C47.3,-338.12 57.47,-216.08 125,-154.5 131.4,-148.67 139.3,-144.56 147.58,-141.67"/>
<polygon fill="midnightblue" stroke="midnightblue" points="148.77,-144.97 157.4,-138.82 146.82,-138.25 148.77,-144.97"/>
</g>
<!-- Node44 -->
<g id="node7" class="node">
<title>Node44</title>
<g id="a_node7"><a xlink:href="quickjs_8c.html#a3b818b1ca9d2d4aaa9b55b1cc54c1bc4" target="_top" xlink:title=" ">
<polygon fill="none" stroke="red" points="139,-696 139,-715 266,-715 266,-696 139,-696"/>
<text text-anchor="middle" x="202.5" y="-703" font-family="Helvetica,sans-Serif" font-size="10.00">JS_ArraySpeciesCreate</text>
</a>
</g>
</g>
<!-- Node1&#45;&gt;Node44 -->
<g id="edge6" class="edge">
<title>Node1&#45;&gt;Node44</title>
<path fill="none" stroke="midnightblue" d="M49.3,-392.28C60.2,-420.11 92.82,-501.9 125,-567.5 146.5,-611.33 175.14,-661.02 190.56,-687.17"/>
<polygon fill="midnightblue" stroke="midnightblue" points="187.67,-689.16 195.78,-695.97 193.69,-685.59 187.67,-689.16"/>
</g>
<!-- Node47 -->
<g id="node9" class="node">
<title>Node47</title>
<g id="a_node9"><a xlink:href="quickjs_8h.html#a775522f2d084fc8fa0fcb33f390006b4" target="_top" xlink:title=" ">
<polygon fill="none" stroke="black" points="498,-354 498,-373 575,-373 575,-354 498,-354"/>
<text text-anchor="middle" x="536.5" y="-361" font-family="Helvetica,sans-Serif" font-size="10.00">JS_DupValue</text>
</a>
</g>
</g>
<!-- Node1&#45;&gt;Node47 -->
<g id="edge25" class="edge">
<title>Node1&#45;&gt;Node47</title>
<path fill="none" stroke="midnightblue" d="M89.42,-380.8C181.23,-377.24 392.82,-369.03 487.81,-365.35"/>
<polygon fill="midnightblue" stroke="midnightblue" points="488.13,-368.84 497.99,-364.95 487.86,-361.84 488.13,-368.84"/>
</g>
<!-- Node286 -->
<g id="node17" class="node">
<title>Node286</title>
<g id="a_node17"><a xlink:href="quickjs_8c.html#a1a4c02a29525d5cb2085dd8bca3af350" target="_top" xlink:title=" ">
<polygon fill="none" stroke="red" points="177.5,-88 177.5,-107 227.5,-107 227.5,-88 177.5,-88"/>
<text text-anchor="middle" x="202.5" y="-95" font-family="Helvetica,sans-Serif" font-size="10.00">JS_Call</text>
</a>
</g>
</g>
<!-- Node1&#45;&gt;Node286 -->
<g id="edge21" class="edge">
<title>Node1&#45;&gt;Node286</title>
<path fill="none" stroke="midnightblue" d="M45.23,-372.81C44.69,-334.19 48.11,-189.86 125,-116.5 136.15,-105.86 152.31,-100.9 166.9,-98.69"/>
<polygon fill="midnightblue" stroke="midnightblue" points="167.61,-102.13 177.15,-97.52 166.82,-95.18 167.61,-102.13"/>
</g>
<!-- Node443 -->
<g id="node18" class="node">
<title>Node443</title>
<g id="a_node18"><a xlink:href="quickjs_8c.html#a57a83f0615206965524d78bf89bbf777" target="_top" xlink:title=" ">
<polygon fill="none" stroke="red" points="125,-164 125,-183 280,-183 280,-164 125,-164"/>
<text text-anchor="middle" x="202.5" y="-171" font-family="Helvetica,sans-Serif" font-size="10.00">JS_DefinePropertyValueInt64</text>
</a>
</g>
</g>
<!-- Node1&#45;&gt;Node443 -->
<g id="edge22" class="edge">
<title>Node1&#45;&gt;Node443</title>
<path fill="none" stroke="midnightblue" d="M46.8,-372.82C51.4,-342.34 69.74,-247.4 125,-197.5 129.5,-193.44 134.68,-190.06 140.19,-187.26"/>
<polygon fill="midnightblue" stroke="midnightblue" points="141.96,-190.3 149.69,-183.06 139.13,-183.9 141.96,-190.3"/>
</g>
<!-- Node271 -->
<g id="node19" class="node">
<title>Node271</title>
<g id="a_node19"><a xlink:href="quickjs_8h.html#a6acbc709e59969eac6775f9b253b438f" target="_top" xlink:title=" ">
<polygon fill="none" stroke="red" points="348,-164 348,-183 425,-183 425,-164 348,-164"/>
<text text-anchor="middle" x="386.5" y="-171" font-family="Helvetica,sans-Serif" font-size="10.00">JS_NewInt64</text>
</a>
</g>
</g>
<!-- Node1&#45;&gt;Node271 -->
<g id="edge39" class="edge">
<title>Node1&#45;&gt;Node271</title>
<path fill="none" stroke="midnightblue" d="M47.79,-372.81C54.56,-346.32 77.12,-272.23 125,-235.5 141.85,-222.57 267.41,-196.5 337.87,-182.65"/>
<polygon fill="midnightblue" stroke="midnightblue" points="338.71,-186.05 347.85,-180.69 337.37,-179.18 338.71,-186.05"/>
</g>
<!-- Node59 -->
<g id="node20" class="node">
<title>Node59</title>
<g id="a_node20"><a xlink:href="quickjs_8h.html#a2050bc428da1c65ac7eb87c3fa3b0392" target="_top" xlink:title=" ">
<polygon fill="none" stroke="black" points="498,-240 498,-259 575,-259 575,-240 498,-240"/>
<text text-anchor="middle" x="536.5" y="-247" font-family="Helvetica,sans-Serif" font-size="10.00">JS_NewInt32</text>
</a>
</g>
</g>
<!-- Node1&#45;&gt;Node59 -->
<g id="edge38" class="edge">
<title>Node1&#45;&gt;Node59</title>
<path fill="none" stroke="midnightblue" d="M48.84,-372.98C57.38,-350.22 82.43,-292.73 125,-268.5 185.58,-234.01 392.89,-241.11 487.6,-246.4"/>
<polygon fill="midnightblue" stroke="midnightblue" points="487.58,-249.9 497.76,-246.98 487.98,-242.91 487.58,-249.9"/>
</g>
<!-- Node444 -->
<g id="node21" class="node">
<title>Node444</title>
<g id="a_node21"><a xlink:href="quickjs_8c.html#a5f848f76409193212a44e6221e430919" target="_top" xlink:title=" ">
<polygon fill="none" stroke="red" points="155.5,-430 155.5,-449 249.5,-449 249.5,-430 155.5,-430"/>
<text text-anchor="middle" x="202.5" y="-437" font-family="Helvetica,sans-Serif" font-size="10.00">js_get_length64</text>
</a>
</g>
</g>
<!-- Node1&#45;&gt;Node444 -->
<g id="edge27" class="edge">
<title>Node1&#45;&gt;Node444</title>
<path fill="none" stroke="midnightblue" d="M63.05,-392.16C78.88,-400.56 102.97,-412.59 125,-420.5 131.91,-422.98 139.28,-425.25 146.61,-427.3"/>
<polygon fill="midnightblue" stroke="midnightblue" points="145.98,-430.76 156.55,-429.95 147.79,-423.99 145.98,-430.76"/>
</g>
<!-- Node448 -->
<g id="node22" class="node">
<title>Node448</title>
<g id="a_node22"><a xlink:href="quickjs_8c.html#a7bb763b31e1c40a04aa0c1d5db0f1191" target="_top" xlink:title=" ">
<polygon fill="none" stroke="red" points="145.5,-278 145.5,-297 259.5,-297 259.5,-278 145.5,-278"/>
<text text-anchor="middle" x="202.5" y="-285" font-family="Helvetica,sans-Serif" font-size="10.00">JS_GetPropertyInt64</text>
</a>
</g>
</g>
<!-- Node1&#45;&gt;Node448 -->
<g id="edge30" class="edge">
<title>Node1&#45;&gt;Node448</title>
<path fill="none" stroke="midnightblue" d="M53.8,-372.8C67.28,-357.64 95.39,-328.31 125,-311.5 132.83,-307.06 141.58,-303.32 150.29,-300.23"/>
<polygon fill="midnightblue" stroke="midnightblue" points="151.66,-303.46 160.06,-297 149.47,-296.82 151.66,-303.46"/>
</g>
<!-- Node450 -->
<g id="node23" class="node">
<title>Node450</title>
<g id="a_node23"><a xlink:href="quickjs_8c.html#ad09ec172570d05d2166ed3069f85c7b5" target="_top" xlink:title=" ">
<polygon fill="none" stroke="red" points="171,-468 171,-487 234,-487 234,-468 171,-468"/>
<text text-anchor="middle" x="202.5" y="-475" font-family="Helvetica,sans-Serif" font-size="10.00">JS_Invoke</text>
</a>
</g>
</g>
<!-- Node1&#45;&gt;Node450 -->
<g id="edge33" class="edge">
<title>Node1&#45;&gt;Node450</title>
<path fill="none" stroke="midnightblue" d="M52.69,-392.07C65.42,-408.32 93.55,-441.19 125,-458.5 135.96,-464.53 148.84,-468.68 160.88,-471.52"/>
<polygon fill="midnightblue" stroke="midnightblue" points="160.23,-474.96 170.74,-473.61 161.68,-468.11 160.23,-474.96"/>
</g>
<!-- Node272 -->
<g id="node24" class="node">
<title>Node272</title>
<g id="a_node24"><a xlink:href="quickjs_8c.html#ad4ba09e4c7ab9f28c144182e1aacf1f6" target="_top" xlink:title=" ">
<polygon fill="none" stroke="red" points="163,-50 163,-69 242,-69 242,-50 163,-50"/>
<text text-anchor="middle" x="202.5" y="-57" font-family="Helvetica,sans-Serif" font-size="10.00">JS_NewArray</text>
</a>
</g>
</g>
<!-- Node1&#45;&gt;Node272 -->
<g id="edge37" class="edge">
<title>Node1&#45;&gt;Node272</title>
<path fill="none" stroke="midnightblue" d="M46.71,-372.74C52.76,-325.58 81.14,-121.82 125,-78.5 132.6,-70.99 142.68,-66.3 153.01,-63.4"/>
<polygon fill="midnightblue" stroke="midnightblue" points="153.96,-66.77 162.93,-61.13 152.4,-59.95 153.96,-66.77"/>
</g>
<!-- Node229 -->
<g id="node25" class="node">
<title>Node229</title>
<g id="a_node25"><a xlink:href="quickjs_8c.html#aee75cc1546e19479e3ccda58f3b50a96" target="_top" xlink:title=" ">
<polygon fill="none" stroke="red" points="145,-1027 145,-1046 260,-1046 260,-1027 145,-1027"/>
<text text-anchor="middle" x="202.5" y="-1034" font-family="Helvetica,sans-Serif" font-size="10.00">JS_SetPropertyValue</text>
</a>
</g>
</g>
<!-- Node1&#45;&gt;Node229 -->
<g id="edge40" class="edge">
<title>Node1&#45;&gt;Node229</title>
<path fill="none" stroke="midnightblue" d="M46.15,-392.34C50.61,-458.62 78.04,-840.25 125,-945.5 138.35,-975.41 164.54,-1003.21 182.53,-1020.02"/>
<polygon fill="midnightblue" stroke="midnightblue" points="180.39,-1022.8 190.14,-1026.94 185.09,-1017.62 180.39,-1022.8"/>
</g>
<!-- Node217 -->
<g id="node26" class="node">
<title>Node217</title>
<g id="a_node26"><a xlink:href="quickjs_8c.html#a2bf30c9cddfe98a32535843202495069" target="_top" xlink:title=" ">
<polygon fill="none" stroke="black" points="160.5,-1106 160.5,-1125 244.5,-1125 244.5,-1106 160.5,-1106"/>
<text text-anchor="middle" x="202.5" y="-1113" font-family="Helvetica,sans-Serif" font-size="10.00">JS_ToBoolFree</text>
</a>
</g>
</g>
<!-- Node1&#45;&gt;Node217 -->
<g id="edge42" class="edge">
<title>Node1&#45;&gt;Node217</title>
<path fill="none" stroke="midnightblue" d="M45.95,-392.18C49.82,-473.07 78.23,-1034.74 125,-1091.5 131.57,-1099.48 140.77,-1104.84 150.51,-1108.45"/>
<polygon fill="midnightblue" stroke="midnightblue" points="149.77,-1111.88 160.36,-1111.49 151.84,-1105.19 149.77,-1111.88"/>
</g>
<!-- Node278 -->
<g id="node27" class="node">
<title>Node278</title>
<g id="a_node27"><a xlink:href="quickjs_8c.html#a710289a14c2810467e5b448d3c28bd55" target="_top" xlink:title=" ">
<polygon fill="none" stroke="red" points="350,-316 350,-335 423,-335 423,-316 350,-316"/>
<text text-anchor="middle" x="386.5" y="-323" font-family="Helvetica,sans-Serif" font-size="10.00">JS_ToObject</text>
</a>
</g>
</g>
<!-- Node1&#45;&gt;Node278 -->
<g id="edge44" class="edge">
<title>Node1&#45;&gt;Node278</title>
<path fill="none" stroke="midnightblue" d="M63.91,-372.98C79.69,-365.29 103.24,-354.89 125,-349.5 198.78,-331.24 287.41,-326.6 339.96,-325.57"/>
<polygon fill="midnightblue" stroke="midnightblue" points="340.03,-329.07 349.97,-325.41 339.91,-322.07 340.03,-329.07"/>
</g>
<!-- Node451 -->
<g id="node28" class="node">
<title>Node451</title>
<g id="a_node28"><a xlink:href="quickjs_8c.html#a14674e74168715dc5a3a391910982e5d" target="_top" xlink:title=" ">
<polygon fill="none" stroke="red" points="138.5,-392 138.5,-411 266.5,-411 266.5,-392 138.5,-392"/>
<text text-anchor="middle" x="202.5" y="-399" font-family="Helvetica,sans-Serif" font-size="10.00">JS_TryGetPropertyInt64</text>
</a>
</g>
</g>
<!-- Node1&#45;&gt;Node451 -->
<g id="edge48" class="edge">
<title>Node1&#45;&gt;Node451</title>
<path fill="none" stroke="midnightblue" d="M89.37,-387.84C101.51,-389.32 115.02,-390.97 128.34,-392.59"/>
<polygon fill="midnightblue" stroke="midnightblue" points="128.11,-396.09 138.46,-393.82 128.96,-389.14 128.11,-396.09"/>
</g>
<!-- Node452 -->
<g id="node29" class="node">
<title>Node452</title>
<g id="a_node29"><a xlink:href="quickjs_8c.html#ae5a8e884ec4a3364f63ebfeae6b08bdc" target="_top" xlink:title=" ">
<polygon fill="none" stroke="red" points="316,-980.5 316,-1010.5 457,-1010.5 457,-980.5 316,-980.5"/>
<text text-anchor="start" x="324" y="-998.5" font-family="Helvetica,sans-Serif" font-size="10.00">js_typed_array___species</text>
<text text-anchor="middle" x="386.5" y="-987.5" font-family="Helvetica,sans-Serif" font-size="10.00">Create</text>
</a>
</g>
</g>
<!-- Node1&#45;&gt;Node452 -->
<g id="edge52" class="edge">
<title>Node1&#45;&gt;Node452</title>
<path fill="none" stroke="midnightblue" d="M46.37,-392.21C51.6,-448.94 80.08,-737.41 125,-812.5 174.15,-894.66 276.07,-949.43 336.83,-976.25"/>
<polygon fill="midnightblue" stroke="midnightblue" points="335.65,-979.55 346.22,-980.31 338.43,-973.13 335.65,-979.55"/>
</g>
<!-- Node467 -->
<g id="node30" class="node">
<title>Node467</title>
<g id="a_node30"><a xlink:href="quickjs_8c.html#add71c7e0efcb1fd14572d39e2672971d" target="_top" xlink:title=" ">
<polygon fill="none" stroke="red" points="147.5,-0.5 147.5,-30.5 257.5,-30.5 257.5,-0.5 147.5,-0.5"/>
<text text-anchor="start" x="155.5" y="-18.5" font-family="Helvetica,sans-Serif" font-size="10.00">js_typed_array_get</text>
<text text-anchor="middle" x="202.5" y="-7.5" font-family="Helvetica,sans-Serif" font-size="10.00">_length_internal</text>
</a>
</g>
</g>
<!-- Node1&#45;&gt;Node467 -->
<g id="edge55" class="edge">
<title>Node1&#45;&gt;Node467</title>
<path fill="none" stroke="midnightblue" d="M46.46,-372.96C51.67,-322.99 78.06,-91.74 125,-40.5 128.78,-36.38 133.24,-32.94 138.08,-30.06"/>
<polygon fill="midnightblue" stroke="midnightblue" points="139.81,-33.11 147.15,-25.47 136.64,-26.86 139.81,-33.11"/>
</g>
<!-- Node2&#45;&gt;Node3 -->
<g id="edge2" class="edge">
<title>Node2&#45;&gt;Node3</title>
<path fill="none" stroke="midnightblue" d="M421.95,-923.1C433.41,-926.89 446.04,-931.73 457,-937.5 479.14,-949.15 501.86,-966.66 517.12,-979.39"/>
<polygon fill="midnightblue" stroke="midnightblue" points="514.89,-982.09 524.78,-985.9 519.43,-976.76 514.89,-982.09"/>
</g>
<!-- Node2&#45;&gt;Node41 -->
<g id="edge3" class="edge">
<title>Node2&#45;&gt;Node41</title>
<path fill="none" stroke="midnightblue" d="M444.04,-903.99C448.84,-901.49 453.27,-898.38 457,-894.5 502.25,-847.38 526.88,-638.72 533.59,-573.23"/>
<polygon fill="midnightblue" stroke="midnightblue" points="537.1,-573.35 534.61,-563.05 530.13,-572.66 537.1,-573.35"/>
</g>
<!-- Node43 -->
<g id="node6" class="node">
<title>Node43</title>
<g id="a_node6"><a xlink:href="quickjs_8c.html#a1ca9cdb1fa2ffc3e6506e92b200e490f" target="_top" xlink:title=" ">
<polygon fill="none" stroke="black" points="346.5,-126 346.5,-145 426.5,-145 426.5,-126 346.5,-126"/>
<text text-anchor="middle" x="386.5" y="-133" font-family="Helvetica,sans-Serif" font-size="10.00">JS_IsFunction</text>
</a>
</g>
</g>
<!-- Node42&#45;&gt;Node43 -->
<g id="edge5" class="edge">
<title>Node42&#45;&gt;Node43</title>
<path fill="none" stroke="midnightblue" d="M247.56,-135.5C274.33,-135.5 308.57,-135.5 336.23,-135.5"/>
<polygon fill="midnightblue" stroke="midnightblue" points="336.49,-139 346.49,-135.5 336.49,-132 336.49,-139"/>
</g>
<!-- Node44&#45;&gt;Node3 -->
<g id="edge12" class="edge">
<title>Node44&#45;&gt;Node3</title>
<path fill="none" stroke="midnightblue" d="M205.41,-715.47C212.74,-750.88 242.4,-871.73 316,-932.5 366.14,-973.9 394.57,-953.33 457,-971.5 469.4,-975.11 482.86,-979.17 495.07,-982.91"/>
<polygon fill="midnightblue" stroke="midnightblue" points="494.4,-986.37 504.99,-985.96 496.46,-979.68 494.4,-986.37"/>
</g>
<!-- Node44&#45;&gt;Node41 -->
<g id="edge18" class="edge">
<title>Node44&#45;&gt;Node41</title>
<path fill="none" stroke="midnightblue" d="M212.08,-695.79C229.63,-676.54 271.73,-633.42 316,-610.5 344.8,-595.59 427.44,-576.26 482.69,-564.38"/>
<polygon fill="midnightblue" stroke="midnightblue" points="483.62,-567.76 492.67,-562.25 482.16,-560.92 483.62,-567.76"/>
</g>
<!-- Node45 -->
<g id="node8" class="node">
<title>Node45</title>
<g id="a_node8"><a xlink:href="quickjs_8c.html#a68c7842d6b1ef577bc4625aec4ede310" target="_top" xlink:title=" ">
<polygon fill="none" stroke="red" points="328.5,-658 328.5,-677 444.5,-677 444.5,-658 328.5,-658"/>
<text text-anchor="middle" x="386.5" y="-665" font-family="Helvetica,sans-Serif" font-size="10.00">js_array_constructor</text>
</a>
</g>
</g>
<!-- Node44&#45;&gt;Node45 -->
<g id="edge7" class="edge">
<title>Node44&#45;&gt;Node45</title>
<path fill="none" stroke="midnightblue" d="M249.43,-695.91C273.88,-690.81 304.13,-684.49 329.9,-679.11"/>
<polygon fill="midnightblue" stroke="midnightblue" points="330.83,-682.49 339.9,-677.02 329.4,-675.64 330.83,-682.49"/>
</g>
<!-- Node377 -->
<g id="node10" class="node">
<title>Node377</title>
<g id="a_node10"><a xlink:href="quickjs_8c.html#a28704096ee67c5b0ab1bd60ce050e36a" target="_top" xlink:title=" ">
<polygon fill="none" stroke="red" points="333.5,-866 333.5,-885 439.5,-885 439.5,-866 333.5,-866"/>
<text text-anchor="middle" x="386.5" y="-873" font-family="Helvetica,sans-Serif" font-size="10.00">JS_CallConstructor</text>
</a>
</g>
</g>
<!-- Node44&#45;&gt;Node377 -->
<g id="edge11" class="edge">
<title>Node44&#45;&gt;Node377</title>
<path fill="none" stroke="midnightblue" d="M210.12,-715.12C232,-746.82 301.48,-846.6 316,-856.5 318.93,-858.5 322.06,-860.29 325.32,-861.89"/>
<polygon fill="midnightblue" stroke="midnightblue" points="324.19,-865.21 334.76,-865.92 326.94,-858.77 324.19,-865.21"/>
</g>
<!-- Node48 -->
<g id="node11" class="node">
<title>Node48</title>
<g id="a_node11"><a xlink:href="quickjs_8c.html#a83e9d1851a3e2cd176944272b583143c" target="_top" xlink:title=" ">
<polygon fill="none" stroke="red" points="326,-810 326,-829 447,-829 447,-810 326,-810"/>
<text text-anchor="middle" x="386.5" y="-817" font-family="Helvetica,sans-Serif" font-size="10.00">JS_GetFunctionRealm</text>
</a>
</g>
</g>
<!-- Node44&#45;&gt;Node48 -->
<g id="edge13" class="edge">
<title>Node44&#45;&gt;Node48</title>
<path fill="none" stroke="midnightblue" d="M212.1,-715.16C229.7,-734.32 271.88,-777.3 316,-800.5 320.34,-802.78 324.98,-804.81 329.72,-806.61"/>
<polygon fill="midnightblue" stroke="midnightblue" points="328.96,-810.05 339.55,-809.99 331.23,-803.43 328.96,-810.05"/>
</g>
<!-- Node50 -->
<g id="node12" class="node">
<title>Node50</title>
<g id="a_node12"><a xlink:href="quickjs_8h.html#a89b7c8686c7eee70b86be722ee4730ad" target="_top" xlink:title=" ">
<polygon fill="none" stroke="red" points="342,-468 342,-487 431,-487 431,-468 342,-468"/>
<text text-anchor="middle" x="386.5" y="-475" font-family="Helvetica,sans-Serif" font-size="10.00">JS_GetProperty</text>
</a>
</g>
</g>
<!-- Node44&#45;&gt;Node50 -->
<g id="edge15" class="edge">
<title>Node44&#45;&gt;Node50</title>
<path fill="none" stroke="midnightblue" d="M211.09,-695.99C238.84,-661.23 335.08,-540.66 371.44,-495.11"/>
<polygon fill="midnightblue" stroke="midnightblue" points="374.38,-497.05 377.88,-487.05 368.9,-492.68 374.38,-497.05"/>
</g>
<!-- Node441 -->
<g id="node13" class="node">
<title>Node441</title>
<g id="a_node13"><a xlink:href="quickjs_8c.html#a1fc2c29e89230a9792fd36ae50b270e4" target="_top" xlink:title=" ">
<polygon fill="none" stroke="red" points="354,-772 354,-791 419,-791 419,-772 354,-772"/>
<text text-anchor="middle" x="386.5" y="-779" font-family="Helvetica,sans-Serif" font-size="10.00">JS_IsArray</text>
</a>
</g>
</g>
<!-- Node44&#45;&gt;Node441 -->
<g id="edge16" class="edge">
<title>Node44&#45;&gt;Node441</title>
<path fill="none" stroke="midnightblue" d="M219.79,-715.08C241.25,-727.39 280.45,-748.8 316,-762.5 324.91,-765.94 334.7,-769.01 344.03,-771.64"/>
<polygon fill="midnightblue" stroke="midnightblue" points="343.36,-775.08 353.93,-774.31 345.19,-768.33 343.36,-775.08"/>
</g>
<!-- Node417 -->
<g id="node14" class="node">
<title>Node417</title>
<g id="a_node14"><a xlink:href="quickjs_8c.html#afa39b15865cb50fc2383e76e33b2de1a" target="_top" xlink:title=" ">
<polygon fill="none" stroke="black" points="339,-734 339,-753 434,-753 434,-734 339,-734"/>
<text text-anchor="middle" x="386.5" y="-741" font-family="Helvetica,sans-Serif" font-size="10.00">JS_IsConstructor</text>
</a>
</g>
</g>
<!-- Node44&#45;&gt;Node417 -->
<g id="edge17" class="edge">
<title>Node44&#45;&gt;Node417</title>
<path fill="none" stroke="midnightblue" d="M249.43,-715.09C273.88,-720.19 304.13,-726.51 329.9,-731.89"/>
<polygon fill="midnightblue" stroke="midnightblue" points="329.4,-735.36 339.9,-733.98 330.83,-728.51 329.4,-735.36"/>
</g>
<!-- Node214 -->
<g id="node15" class="node">
<title>Node214</title>
<g id="a_node15"><a xlink:href="quickjs_8h.html#a149f24b67e745bad93573b3b4c80db4c" target="_top" xlink:title=" ">
<polygon fill="none" stroke="black" points="357,-696 357,-715 416,-715 416,-696 357,-696"/>
<text text-anchor="middle" x="386.5" y="-703" font-family="Helvetica,sans-Serif" font-size="10.00">JS_IsNull</text>
</a>
</g>
</g>
<!-- Node44&#45;&gt;Node214 -->
<g id="edge19" class="edge">
<title>Node44&#45;&gt;Node214</title>
<path fill="none" stroke="midnightblue" d="M266.13,-705.5C292.88,-705.5 323.27,-705.5 346.69,-705.5"/>
<polygon fill="midnightblue" stroke="midnightblue" points="346.92,-709 356.92,-705.5 346.92,-702 346.92,-709"/>
</g>
<!-- Node287 -->
<g id="node16" class="node">
<title>Node287</title>
<g id="a_node16"><a xlink:href="quickjs_8h.html#a3d68fe446df2d9c7d1900b16371bff5b" target="_top" xlink:title=" ">
<polygon fill="none" stroke="black" points="351,-620 351,-639 422,-639 422,-620 351,-620"/>
<text text-anchor="middle" x="386.5" y="-627" font-family="Helvetica,sans-Serif" font-size="10.00">JS_IsObject</text>
</a>
</g>
</g>
<!-- Node44&#45;&gt;Node287 -->
<g id="edge20" class="edge">
<title>Node44&#45;&gt;Node287</title>
<path fill="none" stroke="midnightblue" d="M219.79,-695.92C241.25,-683.61 280.45,-662.2 316,-648.5 323.97,-645.43 332.63,-642.64 341.05,-640.21"/>
<polygon fill="midnightblue" stroke="midnightblue" points="342.06,-643.56 350.77,-637.52 340.19,-636.82 342.06,-643.56"/>
</g>
<!-- Node45&#45;&gt;Node3 -->
<g id="edge9" class="edge">
<title>Node45&#45;&gt;Node3</title>
<path fill="none" stroke="midnightblue" d="M443.95,-677.1C448.77,-679.58 453.23,-682.66 457,-686.5 498.26,-728.52 525.17,-914.17 533.07,-975.65"/>
<polygon fill="midnightblue" stroke="midnightblue" points="529.64,-976.43 534.36,-985.92 536.59,-975.56 529.64,-976.43"/>
</g>
<!-- Node45&#45;&gt;Node41 -->
<g id="edge10" class="edge">
<title>Node45&#45;&gt;Node41</title>
<path fill="none" stroke="midnightblue" d="M437.34,-657.92C444.24,-655.46 451.01,-652.37 457,-648.5 487.39,-628.87 511.88,-593.72 525.01,-572.12"/>
<polygon fill="midnightblue" stroke="midnightblue" points="528.17,-573.65 530.22,-563.26 522.14,-570.1 528.17,-573.65"/>
</g>
<!-- Node45&#45;&gt;Node47 -->
<g id="edge8" class="edge">
<title>Node45&#45;&gt;Node47</title>
<path fill="none" stroke="midnightblue" d="M443.53,-657.99C448.49,-655.5 453.1,-652.39 457,-648.5 466.72,-638.8 515.11,-445.91 530.67,-383.09"/>
<polygon fill="midnightblue" stroke="midnightblue" points="534.1,-383.8 533.1,-373.25 527.31,-382.12 534.1,-383.8"/>
</g>
<!-- Node48&#45;&gt;Node48 -->
<g id="edge14" class="edge">
<title>Node48&#45;&gt;Node48</title>
<path fill="none" stroke="midnightblue" d="M363.38,-829.26C352.13,-838.07 359.84,-847.5 386.5,-847.5 404,-847.5 413.33,-843.44 414.5,-838.15"/>
<polygon fill="midnightblue" stroke="midnightblue" points="417.5,-836.34 409.62,-829.26 411.36,-839.71 417.5,-836.34"/>
</g>
<!-- Node443&#45;&gt;Node271 -->
<g id="edge23" class="edge">
<title>Node443&#45;&gt;Node271</title>
<path fill="none" stroke="midnightblue" d="M280.16,-173.5C299.65,-173.5 320.04,-173.5 337.63,-173.5"/>
<polygon fill="midnightblue" stroke="midnightblue" points="337.64,-177 347.64,-173.5 337.64,-170 337.64,-177"/>
</g>
<!-- Node271&#45;&gt;Node59 -->
<g id="edge24" class="edge">
<title>Node271&#45;&gt;Node59</title>
<path fill="none" stroke="midnightblue" d="M420.72,-183.08C432.45,-186.95 445.55,-191.85 457,-197.5 477.71,-207.73 499.47,-222.5 514.81,-233.69"/>
<polygon fill="midnightblue" stroke="midnightblue" points="512.93,-236.66 523.05,-239.8 517.1,-231.03 512.93,-236.66"/>
</g>
<!-- Node444&#45;&gt;Node41 -->
<g id="edge29" class="edge">
<title>Node444&#45;&gt;Node41</title>
<path fill="none" stroke="midnightblue" d="M249.9,-432.56C303.08,-426.88 391.34,-424.53 457,-458.5 489.61,-475.37 513.77,-512.31 526.16,-534.83"/>
<polygon fill="midnightblue" stroke="midnightblue" points="523.12,-536.56 530.88,-543.77 529.31,-533.3 523.12,-536.56"/>
</g>
<!-- Node444&#45;&gt;Node50 -->
<g id="edge28" class="edge">
<title>Node444&#45;&gt;Node50</title>
<path fill="none" stroke="midnightblue" d="M249.43,-449.09C274.43,-454.31 305.52,-460.8 331.66,-466.26"/>
<polygon fill="midnightblue" stroke="midnightblue" points="331.28,-469.75 341.78,-468.37 332.71,-462.9 331.28,-469.75"/>
</g>
<!-- Node448&#45;&gt;Node50 -->
<g id="edge31" class="edge">
<title>Node448&#45;&gt;Node50</title>
<path fill="none" stroke="midnightblue" d="M212.78,-297.18C241.86,-327.54 331.52,-421.15 368.89,-460.16"/>
<polygon fill="midnightblue" stroke="midnightblue" points="366.58,-462.81 376.02,-467.61 371.63,-457.97 366.58,-462.81"/>
</g>
<!-- Node448&#45;&gt;Node59 -->
<g id="edge32" class="edge">
<title>Node448&#45;&gt;Node59</title>
<path fill="none" stroke="midnightblue" d="M259.56,-280.36C277.58,-278.11 297.62,-275.65 316,-273.5 375.17,-266.58 443.38,-259.22 487.86,-254.5"/>
<polygon fill="midnightblue" stroke="midnightblue" points="488.23,-257.98 497.81,-253.45 487.49,-251.02 488.23,-257.98"/>
</g>
<!-- Node450&#45;&gt;Node41 -->
<g id="edge35" class="edge">
<title>Node450&#45;&gt;Node41</title>
<path fill="none" stroke="midnightblue" d="M234.14,-484.51C291.13,-497.56 413.99,-525.69 483.97,-541.7"/>
<polygon fill="midnightblue" stroke="midnightblue" points="483.36,-545.16 493.89,-543.98 484.93,-538.33 483.36,-545.16"/>
</g>
<!-- Node450&#45;&gt;Node50 -->
<g id="edge34" class="edge">
<title>Node450&#45;&gt;Node50</title>
<path fill="none" stroke="midnightblue" d="M234.37,-477.5C261,-477.5 300.07,-477.5 331.81,-477.5"/>
<polygon fill="midnightblue" stroke="midnightblue" points="331.83,-481 341.83,-477.5 331.83,-474 331.83,-481"/>
</g>
<!-- Node229&#45;&gt;Node3 -->
<g id="edge41" class="edge">
<title>Node229&#45;&gt;Node3</title>
<path fill="none" stroke="midnightblue" d="M260.12,-1036.88C311.82,-1036.29 390.15,-1033.06 457,-1020.5 471.82,-1017.72 487.74,-1012.99 501.35,-1008.38"/>
<polygon fill="midnightblue" stroke="midnightblue" points="502.51,-1011.69 510.8,-1005.09 500.21,-1005.08 502.51,-1011.69"/>
</g>
<!-- Node217&#45;&gt;Node3 -->
<g id="edge43" class="edge">
<title>Node217&#45;&gt;Node3</title>
<path fill="none" stroke="midnightblue" d="M244.88,-1120.92C297.47,-1125.79 389.52,-1127.48 457,-1091.5 489.6,-1074.12 513.77,-1036.9 526.16,-1014.25"/>
<polygon fill="midnightblue" stroke="midnightblue" points="529.33,-1015.75 530.88,-1005.27 523.13,-1012.49 529.33,-1015.75"/>
</g>
<!-- Node278&#45;&gt;Node41 -->
<g id="edge46" class="edge">
<title>Node278&#45;&gt;Node41</title>
<path fill="none" stroke="midnightblue" d="M401.27,-335.13C416.48,-346.32 440.93,-366 457,-387.5 492.68,-435.21 518.1,-501.72 529.22,-534.16"/>
<polygon fill="midnightblue" stroke="midnightblue" points="525.95,-535.41 532.44,-543.78 532.59,-533.19 525.95,-535.41"/>
</g>
<!-- Node278&#45;&gt;Node47 -->
<g id="edge45" class="edge">
<title>Node278&#45;&gt;Node47</title>
<path fill="none" stroke="midnightblue" d="M423.33,-334.7C442.97,-339.74 467.56,-346.06 488.7,-351.48"/>
<polygon fill="midnightblue" stroke="midnightblue" points="487.9,-354.89 498.46,-353.99 489.64,-348.11 487.9,-354.89"/>
</g>
<!-- Node278&#45;&gt;Node59 -->
<g id="edge47" class="edge">
<title>Node278&#45;&gt;Node59</title>
<path fill="none" stroke="midnightblue" d="M420.72,-315.92C432.45,-312.05 445.55,-307.15 457,-301.5 477.71,-291.27 499.47,-276.5 514.81,-265.31"/>
<polygon fill="midnightblue" stroke="midnightblue" points="517.1,-267.97 523.05,-259.2 512.93,-262.34 517.1,-267.97"/>
</g>
<!-- Node451&#45;&gt;Node41 -->
<g id="edge50" class="edge">
<title>Node451&#45;&gt;Node41</title>
<path fill="none" stroke="midnightblue" d="M266.52,-392.58C321.04,-388.15 399.89,-389.89 457,-425.5 497.21,-450.57 519.9,-504.58 529.67,-533.78"/>
<polygon fill="midnightblue" stroke="midnightblue" points="526.44,-535.17 532.79,-543.65 533.11,-533.06 526.44,-535.17"/>
</g>
<!-- Node451&#45;&gt;Node50 -->
<g id="edge49" class="edge">
<title>Node451&#45;&gt;Node50</title>
<path fill="none" stroke="midnightblue" d="M249.8,-411.01C259.9,-413.63 270.43,-416.79 280,-420.5 309.46,-431.91 341.07,-449.82 361.92,-462.52"/>
<polygon fill="midnightblue" stroke="midnightblue" points="360.36,-465.66 370.7,-467.94 364.03,-459.71 360.36,-465.66"/>
</g>
<!-- Node451&#45;&gt;Node59 -->
<g id="edge51" class="edge">
<title>Node451&#45;&gt;Node59</title>
<path fill="none" stroke="midnightblue" d="M211.76,-392C229.07,-372.73 271.23,-328.99 316,-306.5 373.51,-277.61 394.86,-290.25 457,-273.5 469.81,-270.05 483.69,-265.93 496.16,-262.09"/>
<polygon fill="midnightblue" stroke="midnightblue" points="497.31,-265.4 505.81,-259.09 495.23,-258.72 497.31,-265.4"/>
</g>
<!-- Node452&#45;&gt;Node3 -->
<g id="edge53" class="edge">
<title>Node452&#45;&gt;Node3</title>
<path fill="none" stroke="midnightblue" d="M457.17,-995.5C467.19,-995.5 477.31,-995.5 486.81,-995.5"/>
<polygon fill="midnightblue" stroke="midnightblue" points="486.83,-999 496.83,-995.5 486.83,-992 486.83,-999"/>
</g>
<!-- Node452&#45;&gt;Node41 -->
<g id="edge54" class="edge">
<title>Node452&#45;&gt;Node41</title>
<path fill="none" stroke="midnightblue" d="M410.74,-980.37C426.24,-969.04 445.77,-952.15 457,-932.5 527.34,-809.45 535.06,-631.86 535.6,-573.16"/>
<polygon fill="midnightblue" stroke="midnightblue" points="539.1,-573.06 535.63,-563.05 532.1,-573.04 539.1,-573.06"/>
</g>
</g>
</svg>
        <g id="navigator" transform="translate(0 0)" fill="#404254">
                <rect fill="#f2f5e9" fill-opacity="0.5" stroke="#606060" stroke-width=".5" x="0" y="0" width="60" height="60"/>
                <use id="zoomplus" xlink:href="#zoomPlus" x="17" y="9" onmousedown="handleZoom(evt,'in')"/>
                <use id="zoomminus" xlink:href="#zoomMin" x="42" y="9" onmousedown="handleZoom(evt,'out')"/>
                <use id="reset" xlink:href="#resetDef" x="30" y="36" onmousedown="handleReset()"/>
                <g id="arrowUp" xlink:href="#dirArrow" transform="translate(30 24)" onmousedown="handlePan(0,-1)">
                  <use xlink:href="#rim" fill="#404040">
                        <set attributeName="fill" to="#808080" begin="arrowUp.mouseover" end="arrowUp.mouseout"/>
                  </use>
                  <path fill="none" stroke="white" stroke-width="1.5" d="M0,-3.0v7 M-2.5,-0.5L0,-3.0L2.5,-0.5"/>
                </g>
                <g id="arrowRight" xlink:href="#dirArrow" transform="rotate(90) translate(36 -43)" onmousedown="handlePan(1,0)">
                  <use xlink:href="#rim" fill="#404040">
                        <set attributeName="fill" to="#808080" begin="arrowRight.mouseover" end="arrowRight.mouseout"/>
                  </use>
                  <path fill="none" stroke="white" stroke-width="1.5" d="M0,-3.0v7 M-2.5,-0.5L0,-3.0L2.5,-0.5"/>
                </g>
                <g id="arrowDown" xlink:href="#dirArrow" transform="rotate(180) translate(-30 -48)" onmousedown="handlePan(0,1)">
                  <use xlink:href="#rim" fill="#404040">
                        <set attributeName="fill" to="#808080" begin="arrowDown.mouseover" end="arrowDown.mouseout"/>
                  </use>
                  <path fill="none" stroke="white" stroke-width="1.5" d="M0,-3.0v7 M-2.5,-0.5L0,-3.0L2.5,-0.5"/>
                </g>
                <g id="arrowLeft" xlink:href="#dirArrow" transform="rotate(270) translate(-36 17)" onmousedown="handlePan(-1,0)">
                  <use xlink:href="#rim" fill="#404040">
                        <set attributeName="fill" to="#808080" begin="arrowLeft.mouseover" end="arrowLeft.mouseout"/>
                  </use>
                  <path fill="none" stroke="white" stroke-width="1.5" d="M0,-3.0v7 M-2.5,-0.5L0,-3.0L2.5,-0.5"/>
                </g>
        </g>
        <svg viewBox="0 0 15 15" width="100%" height="30px" preserveAspectRatio="xMaxYMin meet">
         <g id="arrow_out" transform="scale(0.3 0.3)">
          <a xlink:href="quickjs_8c_aa0bbf08a7e91459c68a312fba7016c6d_cgraph_org.svg" target="_base">
           <rect id="button" ry="5" rx="5" y="6" x="6" height="38" width="38"
                fill="#f2f5e9" fill-opacity="0.5" stroke="#606060" stroke-width="1.0"/>
           <path id="arrow"
             d="M 11.500037,31.436501 C 11.940474,20.09759 22.043105,11.32322 32.158766,21.979434 L 37.068811,17.246167 C 37.068811,17.246167 37.088388,32 37.088388,32 L 22.160133,31.978069 C 22.160133,31.978069 26.997745,27.140456 26.997745,27.140456 C 18.528582,18.264221 13.291696,25.230495 11.500037,31.436501 z"
             style="fill:#404040;"/>
          </a>
         </g>
        </svg>
</svg>
