<?xml version="1.0" encoding="UTF-8" standalone="no"?>
<!DOCTYPE svg PUBLIC "-//W3C//DTD SVG 1.1//EN"
 "http://www.w3.org/Graphics/SVG/1.1/DTD/svg11.dtd">
<!-- Generated by graphviz version 2.43.0 (0)
 -->
<!-- Title: JS_IsInstanceOf Pages: 1 -->
<svg width="816pt" height="1231pt"
 viewBox="0.00 0.00 816.00 1230.83" xmlns="http://www.w3.org/2000/svg" xmlns:xlink="http://www.w3.org/1999/xlink">
<g id="graph0" class="graph" transform="scale(1 1) rotate(0) translate(4 1226.83)">
<title>JS_IsInstanceOf</title>
<!-- Node1 -->
<g id="node1" class="node">
<title>Node1</title>
<g id="a_node1"><a xlink:title=" ">
<polygon fill="#bfbfbf" stroke="black" points="0,-286.76 0,-305.76 92,-305.76 92,-286.76 0,-286.76"/>
<text text-anchor="middle" x="46" y="-293.76" font-family="Helvetica,sans-Serif" font-size="10.00">JS_IsInstanceOf</text>
</a>
</g>
</g>
<!-- Node2 -->
<g id="node2" class="node">
<title>Node2</title>
<g id="a_node2"><a xlink:href="quickjs_8c.html#a75f6ee5e4235a7dc99889f3d2eb2c147" target="_top" xlink:title=" ">
<polygon fill="none" stroke="black" points="128,-685.76 128,-704.76 199,-704.76 199,-685.76 128,-685.76"/>
<text text-anchor="middle" x="163.5" y="-692.76" font-family="Helvetica,sans-Serif" font-size="10.00">JS_CallFree</text>
</a>
</g>
</g>
<!-- Node1&#45;&gt;Node2 -->
<g id="edge1" class="edge">
<title>Node1&#45;&gt;Node2</title>
<path fill="none" stroke="midnightblue" d="M49.86,-306.13C65.02,-358.52 136.25,-604.57 156.88,-675.86"/>
<polygon fill="midnightblue" stroke="midnightblue" points="153.6,-677.11 159.74,-685.74 160.33,-675.17 153.6,-677.11"/>
</g>
<!-- Node75 -->
<g id="node12" class="node">
<title>Node75</title>
<g id="a_node12"><a xlink:href="quickjs_8h.html#ad80a83d73e9b7d872b88fbf2943aebe9" target="_top" xlink:title=" ">
<polygon fill="none" stroke="black" points="586,-305.76 586,-324.76 673,-324.76 673,-305.76 586,-305.76"/>
<text text-anchor="middle" x="629.5" y="-312.76" font-family="Helvetica,sans-Serif" font-size="10.00">JS_IsException</text>
</a>
</g>
</g>
<!-- Node1&#45;&gt;Node75 -->
<g id="edge43" class="edge">
<title>Node1&#45;&gt;Node75</title>
<path fill="none" stroke="midnightblue" d="M50.53,-286.57C59.89,-261.94 87.43,-195.97 128,-154.26 256.77,-21.9 378.44,56.23 530,-49.26 613.42,-107.33 626.35,-244.66 628.23,-295.71"/>
<polygon fill="midnightblue" stroke="midnightblue" points="624.74,-295.83 628.5,-305.74 631.73,-295.65 624.74,-295.83"/>
</g>
<!-- Node68 -->
<g id="node22" class="node">
<title>Node68</title>
<g id="a_node22"><a xlink:href="quickjs_8h.html#a89b7c8686c7eee70b86be722ee4730ad" target="_top" xlink:title=" ">
<polygon fill="none" stroke="black" points="423,-286.76 423,-305.76 512,-305.76 512,-286.76 423,-286.76"/>
<text text-anchor="middle" x="467.5" y="-293.76" font-family="Helvetica,sans-Serif" font-size="10.00">JS_GetProperty</text>
</a>
</g>
</g>
<!-- Node1&#45;&gt;Node68 -->
<g id="edge42" class="edge">
<title>Node1&#45;&gt;Node68</title>
<path fill="none" stroke="midnightblue" d="M92.29,-296.26C170.29,-296.26 329.59,-296.26 412.95,-296.26"/>
<polygon fill="midnightblue" stroke="midnightblue" points="412.97,-299.76 422.97,-296.26 412.97,-292.76 412.97,-299.76"/>
</g>
<!-- Node125 -->
<g id="node24" class="node">
<title>Node125</title>
<g id="a_node24"><a xlink:href="quickjs_8h.html#a149f24b67e745bad93573b3b4c80db4c" target="_top" xlink:title=" ">
<polygon fill="none" stroke="black" points="438,-210.76 438,-229.76 497,-229.76 497,-210.76 438,-210.76"/>
<text text-anchor="middle" x="467.5" y="-217.76" font-family="Helvetica,sans-Serif" font-size="10.00">JS_IsNull</text>
</a>
</g>
</g>
<!-- Node1&#45;&gt;Node125 -->
<g id="edge45" class="edge">
<title>Node1&#45;&gt;Node125</title>
<path fill="none" stroke="midnightblue" d="M92.29,-288.06C175.32,-273.01 350.49,-241.28 428.1,-227.22"/>
<polygon fill="midnightblue" stroke="midnightblue" points="428.73,-230.66 437.94,-225.44 427.48,-223.77 428.73,-230.66"/>
</g>
<!-- Node287 -->
<g id="node25" class="node">
<title>Node287</title>
<g id="a_node25"><a xlink:href="quickjs_8h.html#a3d68fe446df2d9c7d1900b16371bff5b" target="_top" xlink:title=" ">
<polygon fill="none" stroke="black" points="432,-400.76 432,-419.76 503,-419.76 503,-400.76 432,-400.76"/>
<text text-anchor="middle" x="467.5" y="-407.76" font-family="Helvetica,sans-Serif" font-size="10.00">JS_IsObject</text>
</a>
</g>
</g>
<!-- Node1&#45;&gt;Node287 -->
<g id="edge46" class="edge">
<title>Node1&#45;&gt;Node287</title>
<path fill="none" stroke="midnightblue" d="M67.3,-305.85C83.48,-313.22 106.85,-323.3 128,-330.26 231.18,-364.21 356.48,-389.95 421.88,-402.25"/>
<polygon fill="midnightblue" stroke="midnightblue" points="421.37,-405.72 431.85,-404.11 422.66,-398.84 421.37,-405.72"/>
</g>
<!-- Node126 -->
<g id="node26" class="node">
<title>Node126</title>
<g id="a_node26"><a xlink:href="quickjs_8h.html#a4e407128a9605afb77523e49e9a627fd" target="_top" xlink:title=" ">
<polygon fill="none" stroke="black" points="423,-362.76 423,-381.76 512,-381.76 512,-362.76 423,-362.76"/>
<text text-anchor="middle" x="467.5" y="-369.76" font-family="Helvetica,sans-Serif" font-size="10.00">JS_IsUndefined</text>
</a>
</g>
</g>
<!-- Node1&#45;&gt;Node126 -->
<g id="edge47" class="edge">
<title>Node1&#45;&gt;Node126</title>
<path fill="none" stroke="midnightblue" d="M92.29,-304.47C170.29,-318.6 329.59,-347.46 412.95,-362.56"/>
<polygon fill="midnightblue" stroke="midnightblue" points="412.51,-366.04 422.97,-364.38 413.76,-359.15 412.51,-366.04"/>
</g>
<!-- Node223 -->
<g id="node28" class="node">
<title>Node223</title>
<g id="a_node28"><a xlink:href="quickjs_8c.html#a2bf30c9cddfe98a32535843202495069" target="_top" xlink:title=" ">
<polygon fill="none" stroke="black" points="425.5,-1198.76 425.5,-1217.76 509.5,-1217.76 509.5,-1198.76 425.5,-1198.76"/>
<text text-anchor="middle" x="467.5" y="-1205.76" font-family="Helvetica,sans-Serif" font-size="10.00">JS_ToBoolFree</text>
</a>
</g>
</g>
<!-- Node1&#45;&gt;Node223 -->
<g id="edge56" class="edge">
<title>Node1&#45;&gt;Node223</title>
<path fill="none" stroke="midnightblue" d="M47.51,-305.84C52.42,-393.7 94.06,-1059.37 235,-1184.26 283.9,-1227.6 363.4,-1225.76 415.33,-1218.53"/>
<polygon fill="midnightblue" stroke="midnightblue" points="415.96,-1221.97 425.33,-1217.02 414.92,-1215.05 415.96,-1221.97"/>
</g>
<!-- Node124 -->
<g id="node29" class="node">
<title>Node124</title>
<g id="a_node29"><a xlink:href="quickjs_8c.html#a1ca9cdb1fa2ffc3e6506e92b200e490f" target="_top" xlink:title=" ">
<polygon fill="none" stroke="black" points="427.5,-58.76 427.5,-77.76 507.5,-77.76 507.5,-58.76 427.5,-58.76"/>
<text text-anchor="middle" x="467.5" y="-65.76" font-family="Helvetica,sans-Serif" font-size="10.00">JS_IsFunction</text>
</a>
</g>
</g>
<!-- Node1&#45;&gt;Node124 -->
<g id="edge44" class="edge">
<title>Node1&#45;&gt;Node124</title>
<path fill="none" stroke="midnightblue" d="M52.65,-286.5C64.35,-267.1 93.05,-223.39 128,-198.26 219.34,-132.59 348.11,-95.25 417.55,-78.7"/>
<polygon fill="midnightblue" stroke="midnightblue" points="418.41,-82.09 427.35,-76.4 416.81,-75.27 418.41,-82.09"/>
</g>
<!-- Node424 -->
<g id="node30" class="node">
<title>Node424</title>
<g id="a_node30"><a xlink:href="quickjs_8c.html#aa0b5c1a59ff4832154e2a98d7c63a4b2" target="_top" xlink:title=" ">
<polygon fill="none" stroke="red" points="235,-177.76 235,-196.76 369,-196.76 369,-177.76 235,-177.76"/>
<text text-anchor="middle" x="302" y="-184.76" font-family="Helvetica,sans-Serif" font-size="10.00">JS_OrdinaryIsInstanceOf</text>
</a>
</g>
</g>
<!-- Node1&#45;&gt;Node424 -->
<g id="edge48" class="edge">
<title>Node1&#45;&gt;Node424</title>
<path fill="none" stroke="midnightblue" d="M54.89,-286.76C68.26,-271.32 96.96,-240.95 128,-225.26 157.84,-210.18 193.54,-201.06 224.74,-195.55"/>
<polygon fill="midnightblue" stroke="midnightblue" points="225.41,-198.98 234.7,-193.88 224.26,-192.08 225.41,-198.98"/>
</g>
<!-- Node3 -->
<g id="node3" class="node">
<title>Node3</title>
<g id="a_node3"><a xlink:href="quickjs_8c.html#ac2894ff4edcdb4e6841bcce9c76081e3" target="_top" xlink:title=" ">
<polygon fill="none" stroke="red" points="258.5,-685.76 258.5,-704.76 345.5,-704.76 345.5,-685.76 258.5,-685.76"/>
<text text-anchor="middle" x="302" y="-692.76" font-family="Helvetica,sans-Serif" font-size="10.00">JS_CallInternal</text>
</a>
</g>
</g>
<!-- Node2&#45;&gt;Node3 -->
<g id="edge2" class="edge">
<title>Node2&#45;&gt;Node3</title>
<path fill="none" stroke="midnightblue" d="M199.3,-689.29C214.21,-688.54 231.96,-688.33 248.42,-688.67"/>
<polygon fill="midnightblue" stroke="midnightblue" points="248.37,-692.17 258.46,-688.96 248.57,-685.18 248.37,-692.17"/>
</g>
<!-- Node57 -->
<g id="node10" class="node">
<title>Node57</title>
<g id="a_node10"><a xlink:href="quickjs_8h.html#afaa20c47565bc704c6c85f3d77254e7d" target="_top" xlink:title=" ">
<polygon fill="none" stroke="red" points="729,-894.76 729,-913.76 808,-913.76 808,-894.76 729,-894.76"/>
<text text-anchor="middle" x="768.5" y="-901.76" font-family="Helvetica,sans-Serif" font-size="10.00">JS_FreeValue</text>
</a>
</g>
</g>
<!-- Node2&#45;&gt;Node57 -->
<g id="edge41" class="edge">
<title>Node2&#45;&gt;Node57</title>
<path fill="none" stroke="midnightblue" d="M166.08,-704.88C175.68,-759.91 231.77,-1036.08 405,-1139.26 518.36,-1206.78 599.11,-1159.96 693,-1067.26 734.58,-1026.21 755.24,-957.69 763.3,-924.08"/>
<polygon fill="midnightblue" stroke="midnightblue" points="766.77,-924.63 765.57,-914.11 759.94,-923.08 766.77,-924.63"/>
</g>
<!-- Node3&#45;&gt;Node2 -->
<g id="edge24" class="edge">
<title>Node3&#45;&gt;Node2</title>
<path fill="none" stroke="midnightblue" d="M258.46,-701.57C242.86,-702.13 225.16,-702.16 209.36,-701.65"/>
<polygon fill="midnightblue" stroke="midnightblue" points="209.43,-698.15 199.3,-701.23 209.15,-705.14 209.43,-698.15"/>
</g>
<!-- Node3&#45;&gt;Node3 -->
<g id="edge25" class="edge">
<title>Node3&#45;&gt;Node3</title>
<path fill="none" stroke="midnightblue" d="M280.73,-705.02C270.38,-713.83 277.47,-723.26 302,-723.26 317.71,-723.26 326.27,-719.39 327.67,-714.29"/>
<polygon fill="midnightblue" stroke="midnightblue" points="330.72,-712.55 323.27,-705.02 324.39,-715.55 330.72,-712.55"/>
</g>
<!-- Node4 -->
<g id="node4" class="node">
<title>Node4</title>
<g id="a_node4"><a xlink:href="quickjs_8c.html#a853f0924d441ea4225488f37c8b69f9a" target="_top" xlink:title=" ">
<polygon fill="none" stroke="black" points="589.5,-704.76 589.5,-723.76 669.5,-723.76 669.5,-704.76 589.5,-704.76"/>
<text text-anchor="middle" x="629.5" y="-711.76" font-family="Helvetica,sans-Serif" font-size="10.00">__attribute__</text>
</a>
</g>
</g>
<!-- Node3&#45;&gt;Node4 -->
<g id="edge3" class="edge">
<title>Node3&#45;&gt;Node4</title>
<path fill="none" stroke="midnightblue" d="M345.55,-697.75C405.79,-701.26 515.65,-707.68 579.31,-711.39"/>
<polygon fill="midnightblue" stroke="midnightblue" points="579.31,-714.9 589.49,-711.99 579.72,-707.91 579.31,-714.9"/>
</g>
<!-- Node5 -->
<g id="node5" class="node">
<title>Node5</title>
<g id="a_node5"><a xlink:href="quickjs_8c.html#a877fcb7651d95b411ce70e62b7f4a1f0" target="_top" xlink:title=" ">
<polygon fill="none" stroke="black" points="405,-1084.76 405,-1103.76 530,-1103.76 530,-1084.76 405,-1084.76"/>
<text text-anchor="middle" x="467.5" y="-1091.76" font-family="Helvetica,sans-Serif" font-size="10.00">__JS_AtomFromUInt32</text>
</a>
</g>
</g>
<!-- Node3&#45;&gt;Node5 -->
<g id="edge4" class="edge">
<title>Node3&#45;&gt;Node5</title>
<path fill="none" stroke="midnightblue" d="M304.3,-704.82C311.77,-758.18 350.62,-1018.81 405,-1075.26 406.4,-1076.71 407.9,-1078.05 409.49,-1079.29"/>
<polygon fill="midnightblue" stroke="midnightblue" points="407.72,-1082.31 418.05,-1084.67 411.44,-1076.38 407.72,-1082.31"/>
</g>
<!-- Node6 -->
<g id="node6" class="node">
<title>Node6</title>
<g id="a_node6"><a xlink:href="quickjs_8h.html#a9bf98b18de88b4199910a43e933eb97d" target="_top" xlink:title=" ">
<polygon fill="none" stroke="black" points="417.5,-1046.76 417.5,-1065.76 517.5,-1065.76 517.5,-1046.76 417.5,-1046.76"/>
<text text-anchor="middle" x="467.5" y="-1053.76" font-family="Helvetica,sans-Serif" font-size="10.00">__JS_NewFloat64</text>
</a>
</g>
</g>
<!-- Node3&#45;&gt;Node6 -->
<g id="edge5" class="edge">
<title>Node3&#45;&gt;Node6</title>
<path fill="none" stroke="midnightblue" d="M302.81,-705.03C302.47,-749.93 307.13,-938.42 405,-1037.26 406.44,-1038.72 408,-1040.07 409.64,-1041.31"/>
<polygon fill="midnightblue" stroke="midnightblue" points="408.1,-1044.47 418.45,-1046.72 411.76,-1038.51 408.1,-1044.47"/>
</g>
<!-- Node7 -->
<g id="node7" class="node">
<title>Node7</title>
<g id="a_node7"><a xlink:href="quickjs_8c.html#a74547db03bf739a52c83a326b32db997" target="_top" xlink:title=" ">
<polygon fill="none" stroke="red" points="427,-1008.76 427,-1027.76 508,-1027.76 508,-1008.76 427,-1008.76"/>
<text text-anchor="middle" x="467.5" y="-1015.76" font-family="Helvetica,sans-Serif" font-size="10.00">add_property</text>
</a>
</g>
</g>
<!-- Node3&#45;&gt;Node7 -->
<g id="edge6" class="edge">
<title>Node3&#45;&gt;Node7</title>
<path fill="none" stroke="midnightblue" d="M303.22,-704.79C304.7,-746.23 316.17,-912.54 405,-999.26 408.56,-1002.74 412.74,-1005.58 417.22,-1007.9"/>
<polygon fill="midnightblue" stroke="midnightblue" points="416.17,-1011.26 426.74,-1011.98 418.92,-1004.82 416.17,-1011.26"/>
</g>
<!-- Node65 -->
<g id="node8" class="node">
<title>Node65</title>
<g id="a_node8"><a xlink:href="quickjs_8c.html#a4956f45ffd2849b96dc051277264f87a" target="_top" xlink:title=" ">
<polygon fill="none" stroke="red" points="426.5,-590.76 426.5,-609.76 508.5,-609.76 508.5,-590.76 426.5,-590.76"/>
<text text-anchor="middle" x="467.5" y="-597.76" font-family="Helvetica,sans-Serif" font-size="10.00">build_arg_list</text>
</a>
</g>
</g>
<!-- Node3&#45;&gt;Node65 -->
<g id="edge7" class="edge">
<title>Node3&#45;&gt;Node65</title>
<path fill="none" stroke="midnightblue" d="M313.21,-685.75C330.73,-669.9 368.18,-637.96 405,-619.26 409.32,-617.07 413.94,-615.07 418.63,-613.27"/>
<polygon fill="midnightblue" stroke="midnightblue" points="420.04,-616.48 428.3,-609.85 417.71,-609.89 420.04,-616.48"/>
</g>
<!-- Node66 -->
<g id="node9" class="node">
<title>Node66</title>
<g id="a_node9"><a xlink:href="quickjs_8c.html#ac864482356b3efc2d0b0a509fcfa4c7c" target="_top" xlink:title=" ">
<polygon fill="none" stroke="red" points="591,-666.76 591,-685.76 668,-685.76 668,-666.76 591,-666.76"/>
<text text-anchor="middle" x="629.5" y="-673.76" font-family="Helvetica,sans-Serif" font-size="10.00">free_arg_list</text>
</a>
</g>
</g>
<!-- Node3&#45;&gt;Node66 -->
<g id="edge17" class="edge">
<title>Node3&#45;&gt;Node66</title>
<path fill="none" stroke="midnightblue" d="M345.55,-692.78C406.28,-689.23 517.44,-682.75 580.85,-679.04"/>
<polygon fill="midnightblue" stroke="midnightblue" points="581.2,-682.53 590.98,-678.45 580.8,-675.54 581.2,-682.53"/>
</g>
<!-- Node3&#45;&gt;Node57 -->
<g id="edge27" class="edge">
<title>Node3&#45;&gt;Node57</title>
<path fill="none" stroke="midnightblue" d="M303.79,-704.92C308.7,-762.51 337.15,-1059.98 405,-1113.26 530.23,-1211.61 706.76,-988.33 754.94,-922.08"/>
<polygon fill="midnightblue" stroke="midnightblue" points="757.88,-923.99 760.87,-913.83 752.19,-919.91 757.88,-923.99"/>
</g>
<!-- Node36 -->
<g id="node11" class="node">
<title>Node36</title>
<g id="a_node11"><a xlink:href="quickjs_8h.html#a775522f2d084fc8fa0fcb33f390006b4" target="_top" xlink:title=" ">
<polygon fill="none" stroke="black" points="730,-514.76 730,-533.76 807,-533.76 807,-514.76 730,-514.76"/>
<text text-anchor="middle" x="768.5" y="-521.76" font-family="Helvetica,sans-Serif" font-size="10.00">JS_DupValue</text>
</a>
</g>
</g>
<!-- Node3&#45;&gt;Node36 -->
<g id="edge26" class="edge">
<title>Node3&#45;&gt;Node36</title>
<path fill="none" stroke="midnightblue" d="M306.39,-685.6C316.46,-658.53 349.01,-581.93 405,-550.26 505.11,-493.65 646.45,-504.47 719.54,-515.41"/>
<polygon fill="midnightblue" stroke="midnightblue" points="719.4,-518.93 729.82,-517.01 720.48,-512.01 719.4,-518.93"/>
</g>
<!-- Node3&#45;&gt;Node75 -->
<g id="edge34" class="edge">
<title>Node3&#45;&gt;Node75</title>
<path fill="none" stroke="midnightblue" d="M304.65,-685.69C310.99,-651.67 336.99,-535.28 405,-473.26 448.52,-433.58 481.33,-462.44 530,-429.26 568.33,-403.13 600.82,-358.5 617.17,-333.54"/>
<polygon fill="midnightblue" stroke="midnightblue" points="620.19,-335.32 622.63,-325.01 614.29,-331.55 620.19,-335.32"/>
</g>
<!-- Node160 -->
<g id="node13" class="node">
<title>Node160</title>
<g id="a_node13"><a xlink:href="quickjs_8c.html#a61c8dfb5e807af1b6ff7d8ca61576dda" target="_top" xlink:title=" ">
<polygon fill="none" stroke="red" points="420.5,-970.76 420.5,-989.76 514.5,-989.76 514.5,-970.76 420.5,-970.76"/>
<text text-anchor="middle" x="467.5" y="-977.76" font-family="Helvetica,sans-Serif" font-size="10.00">build_backtrace</text>
</a>
</g>
</g>
<!-- Node3&#45;&gt;Node160 -->
<g id="edge13" class="edge">
<title>Node3&#45;&gt;Node160</title>
<path fill="none" stroke="midnightblue" d="M303.75,-704.89C307.24,-743.26 325.36,-886.75 405,-961.26 406.93,-963.07 409.02,-964.7 411.24,-966.18"/>
<polygon fill="midnightblue" stroke="midnightblue" points="409.84,-969.4 420.29,-971.14 413.2,-963.26 409.84,-969.4"/>
</g>
<!-- Node247 -->
<g id="node14" class="node">
<title>Node247</title>
<g id="a_node14"><a xlink:href="quickjs_8c.html#a344894112559c2ba75043fd10bcfa02f" target="_top" xlink:title=" ">
<polygon fill="none" stroke="red" points="579,-552.76 579,-571.76 680,-571.76 680,-552.76 579,-552.76"/>
<text text-anchor="middle" x="629.5" y="-559.76" font-family="Helvetica,sans-Serif" font-size="10.00">close_lexical_var</text>
</a>
</g>
</g>
<!-- Node3&#45;&gt;Node247 -->
<g id="edge14" class="edge">
<title>Node3&#45;&gt;Node247</title>
<path fill="none" stroke="midnightblue" d="M308.1,-685.72C320.89,-662.91 356.76,-605.33 405,-581.26 455.97,-555.83 521.65,-553.26 568.6,-555.72"/>
<polygon fill="midnightblue" stroke="midnightblue" points="568.43,-559.22 578.62,-556.34 568.86,-552.23 568.43,-559.22"/>
</g>
<!-- Node248 -->
<g id="node15" class="node">
<title>Node248</title>
<g id="a_node15"><a xlink:href="quickjs_8c.html#a1782043fce951bd4f0d91c7796b31e24" target="_top" xlink:title=" ">
<polygon fill="none" stroke="red" points="424,-932.76 424,-951.76 511,-951.76 511,-932.76 424,-932.76"/>
<text text-anchor="middle" x="467.5" y="-939.76" font-family="Helvetica,sans-Serif" font-size="10.00">close_var_refs</text>
</a>
</g>
</g>
<!-- Node3&#45;&gt;Node248 -->
<g id="edge16" class="edge">
<title>Node3&#45;&gt;Node248</title>
<path fill="none" stroke="midnightblue" d="M304.48,-705.18C310.25,-740.43 334.56,-860.87 405,-923.26 407.97,-925.9 411.31,-928.17 414.84,-930.12"/>
<polygon fill="midnightblue" stroke="midnightblue" points="413.42,-933.32 423.96,-934.36 416.37,-926.97 413.42,-933.32"/>
</g>
<!-- Node54 -->
<g id="node16" class="node">
<title>Node54</title>
<g id="a_node16"><a xlink:href="quickjs_8c.html#a9e7b4bccf927d811b0f99b40b08c0472" target="_top" xlink:title=" ">
<polygon fill="none" stroke="red" points="429.5,-894.76 429.5,-913.76 505.5,-913.76 505.5,-894.76 429.5,-894.76"/>
<text text-anchor="middle" x="467.5" y="-901.76" font-family="Helvetica,sans-Serif" font-size="10.00">free_var_ref</text>
</a>
</g>
</g>
<!-- Node3&#45;&gt;Node54 -->
<g id="edge18" class="edge">
<title>Node3&#45;&gt;Node54</title>
<path fill="none" stroke="midnightblue" d="M305.34,-704.81C313.43,-735.78 343.15,-834.33 405,-885.26 409.37,-888.86 414.41,-891.78 419.7,-894.14"/>
<polygon fill="midnightblue" stroke="midnightblue" points="418.78,-897.54 429.37,-897.83 421.27,-891 418.78,-897.54"/>
</g>
<!-- Node250 -->
<g id="node17" class="node">
<title>Node250</title>
<g id="a_node17"><a xlink:href="cutils_8h.html#a7c82a3ee025fee89db5b11ff5b7691b8" target="_top" xlink:title=" ">
<polygon fill="none" stroke="black" points="441,-856.76 441,-875.76 494,-875.76 494,-856.76 441,-856.76"/>
<text text-anchor="middle" x="467.5" y="-863.76" font-family="Helvetica,sans-Serif" font-size="10.00">get_i16</text>
</a>
</g>
</g>
<!-- Node3&#45;&gt;Node250 -->
<g id="edge19" class="edge">
<title>Node3&#45;&gt;Node250</title>
<path fill="none" stroke="midnightblue" d="M306.82,-705.13C317.78,-732.12 351.97,-807.8 405,-847.26 412.64,-852.95 422,-856.95 431.1,-859.76"/>
<polygon fill="midnightblue" stroke="midnightblue" points="430.2,-863.15 440.77,-862.37 432.03,-856.39 430.2,-863.15"/>
</g>
<!-- Node251 -->
<g id="node18" class="node">
<title>Node251</title>
<g id="a_node18"><a xlink:href="cutils_8h.html#a288ee4e688944e23500af2ecc813c306" target="_top" xlink:title=" ">
<polygon fill="none" stroke="black" points="444,-818.76 444,-837.76 491,-837.76 491,-818.76 444,-818.76"/>
<text text-anchor="middle" x="467.5" y="-825.76" font-family="Helvetica,sans-Serif" font-size="10.00">get_i8</text>
</a>
</g>
</g>
<!-- Node3&#45;&gt;Node251 -->
<g id="edge20" class="edge">
<title>Node3&#45;&gt;Node251</title>
<path fill="none" stroke="midnightblue" d="M308.88,-704.8C322.81,-726.6 360.07,-780.44 405,-809.26 413.73,-814.86 424.21,-818.9 434.02,-821.77"/>
<polygon fill="midnightblue" stroke="midnightblue" points="433.35,-825.21 443.91,-824.35 435.12,-818.44 433.35,-825.21"/>
</g>
<!-- Node252 -->
<g id="node19" class="node">
<title>Node252</title>
<g id="a_node19"><a xlink:href="cutils_8h.html#ad587834d17e95461893d59661e5e9676" target="_top" xlink:title=" ">
<polygon fill="none" stroke="black" points="439.5,-780.76 439.5,-799.76 495.5,-799.76 495.5,-780.76 439.5,-780.76"/>
<text text-anchor="middle" x="467.5" y="-787.76" font-family="Helvetica,sans-Serif" font-size="10.00">get_u16</text>
</a>
</g>
</g>
<!-- Node3&#45;&gt;Node252 -->
<g id="edge21" class="edge">
<title>Node3&#45;&gt;Node252</title>
<path fill="none" stroke="midnightblue" d="M313.21,-704.77C330.73,-720.63 368.18,-752.56 405,-771.26 412.73,-775.19 421.43,-778.48 429.8,-781.17"/>
<polygon fill="midnightblue" stroke="midnightblue" points="428.81,-784.52 439.39,-784.03 430.81,-777.82 428.81,-784.52"/>
</g>
<!-- Node50 -->
<g id="node20" class="node">
<title>Node50</title>
<g id="a_node20"><a xlink:href="cutils_8h.html#a941262a5f72fda2ec43ae7911e97a0dc" target="_top" xlink:title=" ">
<polygon fill="none" stroke="black" points="439.5,-742.76 439.5,-761.76 495.5,-761.76 495.5,-742.76 439.5,-742.76"/>
<text text-anchor="middle" x="467.5" y="-749.76" font-family="Helvetica,sans-Serif" font-size="10.00">get_u32</text>
</a>
</g>
</g>
<!-- Node3&#45;&gt;Node50 -->
<g id="edge22" class="edge">
<title>Node3&#45;&gt;Node50</title>
<path fill="none" stroke="midnightblue" d="M330.37,-704.8C357.56,-714.28 399.46,-728.89 429.59,-739.39"/>
<polygon fill="midnightblue" stroke="midnightblue" points="428.72,-742.8 439.32,-742.79 431.03,-736.19 428.72,-742.8"/>
</g>
<!-- Node253 -->
<g id="node21" class="node">
<title>Node253</title>
<g id="a_node21"><a xlink:href="quickjs_8c.html#a37fe43b6649456a848bd54846450b995" target="_top" xlink:title=" ">
<polygon fill="none" stroke="red" points="431.5,-628.76 431.5,-647.76 503.5,-647.76 503.5,-628.76 431.5,-628.76"/>
<text text-anchor="middle" x="467.5" y="-635.76" font-family="Helvetica,sans-Serif" font-size="10.00">get_var_ref</text>
</a>
</g>
</g>
<!-- Node3&#45;&gt;Node253 -->
<g id="edge23" class="edge">
<title>Node3&#45;&gt;Node253</title>
<path fill="none" stroke="midnightblue" d="M330.37,-685.72C357.48,-676.27 399.21,-661.72 429.32,-651.23"/>
<polygon fill="midnightblue" stroke="midnightblue" points="430.75,-654.43 439.04,-647.83 428.45,-647.82 430.75,-654.43"/>
</g>
<!-- Node3&#45;&gt;Node68 -->
<g id="edge28" class="edge">
<title>Node3&#45;&gt;Node68</title>
<path fill="none" stroke="midnightblue" d="M304.01,-685.53C308.78,-643.02 332,-470.58 405,-353.26 415.16,-336.94 431.2,-322.29 444.36,-311.93"/>
<polygon fill="midnightblue" stroke="midnightblue" points="446.64,-314.59 452.49,-305.76 442.41,-309.01 446.64,-314.59"/>
</g>
<!-- Node69 -->
<g id="node23" class="node">
<title>Node69</title>
<g id="a_node23"><a xlink:href="quickjs_8c.html#a5762c57ae0c9937e986040c01222833a" target="_top" xlink:title=" ">
<polygon fill="none" stroke="red" points="566,-476.76 566,-495.76 693,-495.76 693,-476.76 566,-476.76"/>
<text text-anchor="middle" x="629.5" y="-483.76" font-family="Helvetica,sans-Serif" font-size="10.00">JS_GetPropertyInternal</text>
</a>
</g>
</g>
<!-- Node3&#45;&gt;Node69 -->
<g id="edge33" class="edge">
<title>Node3&#45;&gt;Node69</title>
<path fill="none" stroke="midnightblue" d="M305.06,-685.47C312.28,-653.8 339.65,-553.73 405,-510.26 449.05,-480.97 509.11,-475.97 555.88,-477.75"/>
<polygon fill="midnightblue" stroke="midnightblue" points="555.79,-481.25 565.95,-478.24 556.13,-474.25 555.79,-481.25"/>
</g>
<!-- Node3&#45;&gt;Node125 -->
<g id="edge35" class="edge">
<title>Node3&#45;&gt;Node125</title>
<path fill="none" stroke="midnightblue" d="M303.87,-685.43C309.4,-625.36 341.3,-308.25 405,-239.26 411.11,-232.64 419.48,-228.31 428.07,-225.47"/>
<polygon fill="midnightblue" stroke="midnightblue" points="429.01,-228.85 437.76,-222.87 427.19,-222.09 429.01,-228.85"/>
</g>
<!-- Node3&#45;&gt;Node287 -->
<g id="edge36" class="edge">
<title>Node3&#45;&gt;Node287</title>
<path fill="none" stroke="midnightblue" d="M303.99,-685.72C308.38,-648.3 329.3,-509.93 405,-434.26 409.96,-429.31 416.05,-425.35 422.46,-422.2"/>
<polygon fill="midnightblue" stroke="midnightblue" points="424.16,-425.28 431.98,-418.13 421.41,-418.84 424.16,-425.28"/>
</g>
<!-- Node3&#45;&gt;Node126 -->
<g id="edge37" class="edge">
<title>Node3&#45;&gt;Node126</title>
<path fill="none" stroke="midnightblue" d="M303.22,-685.73C304.7,-644.3 316.17,-477.98 405,-391.26 407.68,-388.65 410.7,-386.4 413.95,-384.45"/>
<polygon fill="midnightblue" stroke="midnightblue" points="415.53,-387.57 422.93,-379.99 412.42,-381.3 415.53,-387.57"/>
</g>
<!-- Node299 -->
<g id="node27" class="node">
<title>Node299</title>
<g id="a_node27"><a xlink:href="quickjs_8c.html#a246e337d6566552736209730827c0871" target="_top" xlink:title=" ">
<polygon fill="none" stroke="red" points="417,-248.76 417,-267.76 518,-267.76 518,-248.76 417,-248.76"/>
<text text-anchor="middle" x="467.5" y="-255.76" font-family="Helvetica,sans-Serif" font-size="10.00">js_poll_interrupts</text>
</a>
</g>
</g>
<!-- Node3&#45;&gt;Node299 -->
<g id="edge38" class="edge">
<title>Node3&#45;&gt;Node299</title>
<path fill="none" stroke="midnightblue" d="M304.08,-685.51C310.55,-628.62 345.99,-339.95 405,-277.26 406.38,-275.8 407.87,-274.45 409.44,-273.2"/>
<polygon fill="midnightblue" stroke="midnightblue" points="411.4,-276.1 417.96,-267.77 407.64,-270.19 411.4,-276.1"/>
</g>
<!-- Node3&#45;&gt;Node223 -->
<g id="edge39" class="edge">
<title>Node3&#45;&gt;Node223</title>
<path fill="none" stroke="midnightblue" d="M303.24,-704.83C304.88,-754.44 317.14,-986.16 405,-1146.26 414.97,-1164.42 431.81,-1180.86 445.36,-1192.24"/>
<polygon fill="midnightblue" stroke="midnightblue" points="443.3,-1195.08 453.27,-1198.64 447.7,-1189.63 443.3,-1195.08"/>
</g>
<!-- Node65&#45;&gt;Node4 -->
<g id="edge8" class="edge">
<title>Node65&#45;&gt;Node4</title>
<path fill="none" stroke="midnightblue" d="M508.72,-607.43C516.39,-610.19 523.92,-613.99 530,-619.26 558.25,-643.74 537.7,-670.85 566,-695.26 570.03,-698.74 574.68,-701.58 579.59,-703.9"/>
<polygon fill="midnightblue" stroke="midnightblue" points="578.67,-707.3 589.26,-707.75 581.27,-700.8 578.67,-707.3"/>
</g>
<!-- Node65&#45;&gt;Node66 -->
<g id="edge9" class="edge">
<title>Node65&#45;&gt;Node66</title>
<path fill="none" stroke="midnightblue" d="M504.12,-609.78C512.73,-612.48 521.81,-615.68 530,-619.26 557.19,-631.15 586.39,-648.71 605.87,-661.2"/>
<polygon fill="midnightblue" stroke="midnightblue" points="604.06,-664.19 614.35,-666.7 607.87,-658.32 604.06,-664.19"/>
</g>
<!-- Node65&#45;&gt;Node36 -->
<g id="edge11" class="edge">
<title>Node65&#45;&gt;Node36</title>
<path fill="none" stroke="midnightblue" d="M508.53,-603.49C554.64,-605.73 631.89,-604.88 693,-581.26 715.6,-572.53 737.1,-554.69 751.14,-541.28"/>
<polygon fill="midnightblue" stroke="midnightblue" points="753.85,-543.52 758.5,-534 748.93,-538.55 753.85,-543.52"/>
</g>
<!-- Node65&#45;&gt;Node75 -->
<g id="edge12" class="edge">
<title>Node65&#45;&gt;Node75</title>
<path fill="none" stroke="midnightblue" d="M474.01,-590.45C497.18,-549.17 587.01,-389.17 617.95,-334.05"/>
<polygon fill="midnightblue" stroke="midnightblue" points="621.17,-335.46 623.02,-325.03 615.07,-332.04 621.17,-335.46"/>
</g>
<!-- Node66&#45;&gt;Node57 -->
<g id="edge10" class="edge">
<title>Node66&#45;&gt;Node57</title>
<path fill="none" stroke="midnightblue" d="M668.22,-681.67C677.22,-684.48 686.19,-688.77 693,-695.26 748.04,-747.75 762.49,-843.59 766.23,-884.7"/>
<polygon fill="midnightblue" stroke="midnightblue" points="762.75,-885.06 767.02,-894.76 769.72,-884.51 762.75,-885.06"/>
</g>
<!-- Node247&#45;&gt;Node36 -->
<g id="edge15" class="edge">
<title>Node247&#45;&gt;Node36</title>
<path fill="none" stroke="midnightblue" d="M665.07,-552.67C682.68,-547.79 704.28,-541.8 723.1,-536.58"/>
<polygon fill="midnightblue" stroke="midnightblue" points="724.24,-539.89 732.94,-533.85 722.37,-533.15 724.24,-539.89"/>
</g>
<!-- Node68&#45;&gt;Node69 -->
<g id="edge29" class="edge">
<title>Node68&#45;&gt;Node69</title>
<path fill="none" stroke="midnightblue" d="M504.54,-305.77C513.51,-309.31 522.66,-314.03 530,-320.26 578.42,-361.35 609.13,-432.56 621.81,-466.79"/>
<polygon fill="midnightblue" stroke="midnightblue" points="618.63,-468.29 625.3,-476.52 625.22,-465.93 618.63,-468.29"/>
</g>
<!-- Node69&#45;&gt;Node2 -->
<g id="edge30" class="edge">
<title>Node69&#45;&gt;Node2</title>
<path fill="none" stroke="midnightblue" d="M624.89,-476.45C614.74,-450.47 583.12,-380.02 530,-353.26 480.38,-328.27 454.3,-327.66 405,-353.26 267.36,-424.74 191.94,-615.15 170.76,-676.17"/>
<polygon fill="midnightblue" stroke="midnightblue" points="167.42,-675.11 167.53,-685.7 174.05,-677.35 167.42,-675.11"/>
</g>
<!-- Node69&#45;&gt;Node57 -->
<g id="edge32" class="edge">
<title>Node69&#45;&gt;Node57</title>
<path fill="none" stroke="midnightblue" d="M645.64,-495.87C660.14,-505.9 681.45,-522.97 693,-543.26 759.34,-659.81 766.99,-827.46 767.58,-884.44"/>
<polygon fill="midnightblue" stroke="midnightblue" points="764.08,-884.6 767.62,-894.59 771.08,-884.58 764.08,-884.6"/>
</g>
<!-- Node69&#45;&gt;Node36 -->
<g id="edge31" class="edge">
<title>Node69&#45;&gt;Node36</title>
<path fill="none" stroke="midnightblue" d="M665.07,-495.85C682.68,-500.73 704.28,-506.73 723.1,-511.95"/>
<polygon fill="midnightblue" stroke="midnightblue" points="722.37,-515.38 732.94,-514.68 724.24,-508.63 722.37,-515.38"/>
</g>
<!-- Node223&#45;&gt;Node57 -->
<g id="edge40" class="edge">
<title>Node223&#45;&gt;Node57</title>
<path fill="none" stroke="midnightblue" d="M509.92,-1216.57C559.52,-1223.96 642.26,-1227.76 693,-1184.26 733.28,-1149.74 757.76,-982.01 765.13,-924.03"/>
<polygon fill="midnightblue" stroke="midnightblue" points="768.62,-924.32 766.38,-913.97 761.68,-923.46 768.62,-924.32"/>
</g>
<!-- Node424&#45;&gt;Node57 -->
<g id="edge50" class="edge">
<title>Node424&#45;&gt;Node57</title>
<path fill="none" stroke="midnightblue" d="M335.58,-177.74C380.58,-166.25 463.73,-151.06 530,-173.26 616.06,-202.09 647.66,-217.64 693,-296.26 708.12,-322.49 755.29,-783.16 765.53,-884.61"/>
<polygon fill="midnightblue" stroke="midnightblue" points="762.06,-885.09 766.54,-894.69 769.02,-884.39 762.06,-885.09"/>
</g>
<!-- Node424&#45;&gt;Node36 -->
<g id="edge49" class="edge">
<title>Node424&#45;&gt;Node36</title>
<path fill="none" stroke="midnightblue" d="M315.29,-177.61C333.59,-163.91 369.66,-139.47 405,-130.26 528.87,-98 594.44,-48.59 693,-130.26 751.51,-178.75 764.41,-431.09 766.94,-504.32"/>
<polygon fill="midnightblue" stroke="midnightblue" points="763.44,-504.59 767.26,-514.48 770.44,-504.37 763.44,-504.59"/>
</g>
<!-- Node424&#45;&gt;Node75 -->
<g id="edge52" class="edge">
<title>Node424&#45;&gt;Node75</title>
<path fill="none" stroke="midnightblue" d="M369.07,-178.24C416.32,-174.81 480.11,-176.55 530,-201.26 572.19,-222.16 603.75,-270.03 618.77,-296.61"/>
<polygon fill="midnightblue" stroke="midnightblue" points="615.84,-298.55 623.7,-305.66 621.98,-295.2 615.84,-298.55"/>
</g>
<!-- Node424&#45;&gt;Node68 -->
<g id="edge51" class="edge">
<title>Node424&#45;&gt;Node68</title>
<path fill="none" stroke="midnightblue" d="M311.27,-196.88C327.46,-215.13 365.25,-254.96 405,-277.26 408.89,-279.44 413.06,-281.41 417.33,-283.17"/>
<polygon fill="midnightblue" stroke="midnightblue" points="416.17,-286.47 426.76,-286.7 418.62,-279.91 416.17,-286.47"/>
</g>
<!-- Node424&#45;&gt;Node125 -->
<g id="edge54" class="edge">
<title>Node424&#45;&gt;Node125</title>
<path fill="none" stroke="midnightblue" d="M350.29,-196.81C374.94,-201.78 404.7,-207.79 427.93,-212.48"/>
<polygon fill="midnightblue" stroke="midnightblue" points="427.29,-215.92 437.78,-214.47 428.67,-209.06 427.29,-215.92"/>
</g>
<!-- Node424&#45;&gt;Node299 -->
<g id="edge55" class="edge">
<title>Node424&#45;&gt;Node299</title>
<path fill="none" stroke="midnightblue" d="M319.55,-196.82C339.39,-208.01 373.87,-226.63 405,-239.26 410.51,-241.5 416.38,-243.62 422.23,-245.59"/>
<polygon fill="midnightblue" stroke="midnightblue" points="421.39,-249 431.98,-248.74 423.54,-242.33 421.39,-249"/>
</g>
<!-- Node424&#45;&gt;Node124 -->
<g id="edge53" class="edge">
<title>Node424&#45;&gt;Node124</title>
<path fill="none" stroke="midnightblue" d="M312.97,-177.57C336.56,-154.7 394.6,-98.8 405,-92.26 411.41,-88.24 418.6,-84.69 425.74,-81.65"/>
<polygon fill="midnightblue" stroke="midnightblue" points="427.38,-84.76 435.38,-77.81 424.79,-78.26 427.38,-84.76"/>
</g>
</g>
</svg>
