<?xml version="1.0" encoding="UTF-8" standalone="no"?>
<!DOCTYPE svg PUBLIC "-//W3C//DTD SVG 1.1//EN"
 "http://www.w3.org/Graphics/SVG/1.1/DTD/svg11.dtd">
<!-- Generated by graphviz version 2.43.0 (0)
 -->
<!-- Title: JS_Invoke Pages: 1 -->
<svg width="865pt" height="1156pt"
 viewBox="0.00 0.00 865.00 1155.52" xmlns="http://www.w3.org/2000/svg" xmlns:xlink="http://www.w3.org/1999/xlink">
<g id="graph0" class="graph" transform="scale(1 1) rotate(0) translate(4 1151.52)">
<title>JS_Invoke</title>
<!-- Node1 -->
<g id="node1" class="node">
<title>Node1</title>
<g id="a_node1"><a xlink:title=" ">
<polygon fill="#bfbfbf" stroke="black" points="0,-796.02 0,-815.02 63,-815.02 63,-796.02 0,-796.02"/>
<text text-anchor="middle" x="31.5" y="-803.02" font-family="Helvetica,sans-Serif" font-size="10.00">JS_Invoke</text>
</a>
</g>
</g>
<!-- Node2 -->
<g id="node2" class="node">
<title>Node2</title>
<g id="a_node2"><a xlink:href="quickjs_8c.html#a75f6ee5e4235a7dc99889f3d2eb2c147" target="_top" xlink:title=" ">
<polygon fill="none" stroke="black" points="99,-796.02 99,-815.02 170,-815.02 170,-796.02 99,-796.02"/>
<text text-anchor="middle" x="134.5" y="-803.02" font-family="Helvetica,sans-Serif" font-size="10.00">JS_CallFree</text>
</a>
</g>
</g>
<!-- Node1&#45;&gt;Node2 -->
<g id="edge1" class="edge">
<title>Node1&#45;&gt;Node2</title>
<path fill="none" stroke="midnightblue" d="M63.08,-805.52C71.17,-805.52 80.08,-805.52 88.76,-805.52"/>
<polygon fill="midnightblue" stroke="midnightblue" points="88.78,-809.02 98.78,-805.52 88.78,-802.02 88.78,-809.02"/>
</g>
<!-- Node75 -->
<g id="node11" class="node">
<title>Node75</title>
<g id="a_node11"><a xlink:href="quickjs_8h.html#ad80a83d73e9b7d872b88fbf2943aebe9" target="_top" xlink:title=" ">
<polygon fill="none" stroke="black" points="491,-625.02 491,-644.02 578,-644.02 578,-625.02 491,-625.02"/>
<text text-anchor="middle" x="534.5" y="-632.02" font-family="Helvetica,sans-Serif" font-size="10.00">JS_IsException</text>
</a>
</g>
</g>
<!-- Node1&#45;&gt;Node75 -->
<g id="edge50" class="edge">
<title>Node1&#45;&gt;Node75</title>
<path fill="none" stroke="midnightblue" d="M32.92,-795.58C36.6,-723.15 69.63,-274.63 329,-102.52 375.29,-71.8 411.91,-66.26 454,-102.52 493.81,-136.83 525.08,-522.16 532.05,-614.65"/>
<polygon fill="midnightblue" stroke="midnightblue" points="528.56,-614.94 532.79,-624.65 535.54,-614.42 528.56,-614.94"/>
</g>
<!-- Node68 -->
<g id="node27" class="node">
<title>Node68</title>
<g id="a_node27"><a xlink:href="quickjs_8h.html#a89b7c8686c7eee70b86be722ee4730ad" target="_top" xlink:title=" ">
<polygon fill="none" stroke="black" points="490,-853.02 490,-872.02 579,-872.02 579,-853.02 490,-853.02"/>
<text text-anchor="middle" x="534.5" y="-860.02" font-family="Helvetica,sans-Serif" font-size="10.00">JS_GetProperty</text>
</a>
</g>
</g>
<!-- Node1&#45;&gt;Node68 -->
<g id="edge49" class="edge">
<title>Node1&#45;&gt;Node68</title>
<path fill="none" stroke="midnightblue" d="M43.9,-815.16C81.5,-846.24 206.16,-943.64 329,-976.52 382.67,-990.89 408.28,-1008.09 454,-976.52 491.16,-950.87 458.87,-914.23 490,-881.52 491.36,-880.09 492.85,-878.76 494.43,-877.52"/>
<polygon fill="midnightblue" stroke="midnightblue" points="496.38,-880.43 502.93,-872.1 492.62,-874.53 496.38,-880.43"/>
</g>
<!-- Node3 -->
<g id="node3" class="node">
<title>Node3</title>
<g id="a_node3"><a xlink:href="quickjs_8c.html#ac2894ff4edcdb4e6841bcce9c76081e3" target="_top" xlink:title=" ">
<polygon fill="none" stroke="red" points="206,-568.02 206,-587.02 293,-587.02 293,-568.02 206,-568.02"/>
<text text-anchor="middle" x="249.5" y="-575.02" font-family="Helvetica,sans-Serif" font-size="10.00">JS_CallInternal</text>
</a>
</g>
</g>
<!-- Node2&#45;&gt;Node3 -->
<g id="edge2" class="edge">
<title>Node2&#45;&gt;Node3</title>
<path fill="none" stroke="midnightblue" d="M139.01,-795.9C153.89,-760.9 212.26,-642.57 237.15,-596.16"/>
<polygon fill="midnightblue" stroke="midnightblue" points="240.34,-597.62 242.06,-587.17 234.2,-594.27 240.34,-597.62"/>
</g>
<!-- Node57 -->
<g id="node10" class="node">
<title>Node57</title>
<g id="a_node10"><a xlink:href="quickjs_8h.html#afaa20c47565bc704c6c85f3d77254e7d" target="_top" xlink:title=" ">
<polygon fill="none" stroke="red" points="778,-853.02 778,-872.02 857,-872.02 857,-853.02 778,-853.02"/>
<text text-anchor="middle" x="817.5" y="-860.02" font-family="Helvetica,sans-Serif" font-size="10.00">JS_FreeValue</text>
</a>
</g>
</g>
<!-- Node2&#45;&gt;Node57 -->
<g id="edge48" class="edge">
<title>Node2&#45;&gt;Node57</title>
<path fill="none" stroke="midnightblue" d="M137.5,-815.02C149.76,-870.26 219.79,-1147.52 390.5,-1147.52 390.5,-1147.52 390.5,-1147.52 535.5,-1147.52 685.24,-1147.52 782,-945.56 808.87,-881.66"/>
<polygon fill="midnightblue" stroke="midnightblue" points="812.14,-882.91 812.7,-872.33 805.67,-880.25 812.14,-882.91"/>
</g>
<!-- Node3&#45;&gt;Node2 -->
<g id="edge42" class="edge">
<title>Node3&#45;&gt;Node2</title>
<path fill="none" stroke="midnightblue" d="M244.9,-587.36C229.85,-622.67 171.6,-740.76 146.79,-786.99"/>
<polygon fill="midnightblue" stroke="midnightblue" points="143.62,-785.49 141.9,-795.95 149.76,-788.85 143.62,-785.49"/>
</g>
<!-- Node3&#45;&gt;Node3 -->
<g id="edge43" class="edge">
<title>Node3&#45;&gt;Node3</title>
<path fill="none" stroke="midnightblue" d="M231.93,-587.28C223.38,-596.09 229.24,-605.52 249.5,-605.52 262.16,-605.52 269.2,-601.84 270.61,-596.92"/>
<polygon fill="midnightblue" stroke="midnightblue" points="273.8,-595.46 267.07,-587.28 267.23,-597.87 273.8,-595.46"/>
</g>
<!-- Node4 -->
<g id="node4" class="node">
<title>Node4</title>
<g id="a_node4"><a xlink:href="quickjs_8c.html#a853f0924d441ea4225488f37c8b69f9a" target="_top" xlink:title=" ">
<polygon fill="none" stroke="black" points="494.5,-796.02 494.5,-815.02 574.5,-815.02 574.5,-796.02 494.5,-796.02"/>
<text text-anchor="middle" x="534.5" y="-803.02" font-family="Helvetica,sans-Serif" font-size="10.00">__attribute__</text>
</a>
</g>
</g>
<!-- Node3&#45;&gt;Node4 -->
<g id="edge3" class="edge">
<title>Node3&#45;&gt;Node4</title>
<path fill="none" stroke="midnightblue" d="M250.91,-587.22C252.88,-620.58 264.25,-731.26 329,-781.52 373.01,-815.69 439.23,-817.15 484.31,-813.06"/>
<polygon fill="midnightblue" stroke="midnightblue" points="484.85,-816.52 494.44,-812.02 484.13,-809.56 484.85,-816.52"/>
</g>
<!-- Node5 -->
<g id="node5" class="node">
<title>Node5</title>
<g id="a_node5"><a xlink:href="quickjs_8c.html#a877fcb7651d95b411ce70e62b7f4a1f0" target="_top" xlink:title=" ">
<polygon fill="none" stroke="black" points="329,-530.02 329,-549.02 454,-549.02 454,-530.02 329,-530.02"/>
<text text-anchor="middle" x="391.5" y="-537.02" font-family="Helvetica,sans-Serif" font-size="10.00">__JS_AtomFromUInt32</text>
</a>
</g>
</g>
<!-- Node3&#45;&gt;Node5 -->
<g id="edge4" class="edge">
<title>Node3&#45;&gt;Node5</title>
<path fill="none" stroke="midnightblue" d="M285.83,-567.93C303.9,-563.03 326.1,-557 345.39,-551.76"/>
<polygon fill="midnightblue" stroke="midnightblue" points="346.45,-555.1 355.18,-549.11 344.62,-548.35 346.45,-555.1"/>
</g>
<!-- Node6 -->
<g id="node6" class="node">
<title>Node6</title>
<g id="a_node6"><a xlink:href="quickjs_8h.html#a9bf98b18de88b4199910a43e933eb97d" target="_top" xlink:title=" ">
<polygon fill="none" stroke="black" points="341.5,-492.02 341.5,-511.02 441.5,-511.02 441.5,-492.02 341.5,-492.02"/>
<text text-anchor="middle" x="391.5" y="-499.02" font-family="Helvetica,sans-Serif" font-size="10.00">__JS_NewFloat64</text>
</a>
</g>
</g>
<!-- Node3&#45;&gt;Node6 -->
<g id="edge5" class="edge">
<title>Node3&#45;&gt;Node6</title>
<path fill="none" stroke="midnightblue" d="M261.19,-567.97C275.64,-555.5 302.64,-533.71 329,-520.52 333.39,-518.32 338.09,-516.32 342.85,-514.51"/>
<polygon fill="midnightblue" stroke="midnightblue" points="344.39,-517.68 352.66,-511.07 342.06,-511.08 344.39,-517.68"/>
</g>
<!-- Node7 -->
<g id="node7" class="node">
<title>Node7</title>
<g id="a_node7"><a xlink:href="quickjs_8c.html#a74547db03bf739a52c83a326b32db997" target="_top" xlink:title=" ">
<polygon fill="none" stroke="red" points="494,-17.02 494,-36.02 575,-36.02 575,-17.02 494,-17.02"/>
<text text-anchor="middle" x="534.5" y="-24.02" font-family="Helvetica,sans-Serif" font-size="10.00">add_property</text>
</a>
</g>
</g>
<!-- Node3&#45;&gt;Node7 -->
<g id="edge6" class="edge">
<title>Node3&#45;&gt;Node7</title>
<path fill="none" stroke="midnightblue" d="M250.25,-567.65C248.74,-499.62 243.61,-100.61 329,-26.52 375.5,13.82 452.82,-0.48 497.88,-13.92"/>
<polygon fill="midnightblue" stroke="midnightblue" points="496.94,-17.29 507.53,-16.93 499.02,-10.61 496.94,-17.29"/>
</g>
<!-- Node65 -->
<g id="node8" class="node">
<title>Node65</title>
<g id="a_node8"><a xlink:href="quickjs_8c.html#a4956f45ffd2849b96dc051277264f87a" target="_top" xlink:title=" ">
<polygon fill="none" stroke="red" points="350.5,-834.02 350.5,-853.02 432.5,-853.02 432.5,-834.02 350.5,-834.02"/>
<text text-anchor="middle" x="391.5" y="-841.02" font-family="Helvetica,sans-Serif" font-size="10.00">build_arg_list</text>
</a>
</g>
</g>
<!-- Node3&#45;&gt;Node65 -->
<g id="edge7" class="edge">
<title>Node3&#45;&gt;Node65</title>
<path fill="none" stroke="midnightblue" d="M250.81,-587.3C252.46,-623.24 262.93,-749.48 329,-819.52 332.64,-823.38 336.98,-826.63 341.64,-829.36"/>
<polygon fill="midnightblue" stroke="midnightblue" points="340.4,-832.66 350.91,-834.01 343.54,-826.4 340.4,-832.66"/>
</g>
<!-- Node66 -->
<g id="node9" class="node">
<title>Node66</title>
<g id="a_node9"><a xlink:href="quickjs_8c.html#ac864482356b3efc2d0b0a509fcfa4c7c" target="_top" xlink:title=" ">
<polygon fill="none" stroke="red" points="496,-891.02 496,-910.02 573,-910.02 573,-891.02 496,-891.02"/>
<text text-anchor="middle" x="534.5" y="-898.02" font-family="Helvetica,sans-Serif" font-size="10.00">free_arg_list</text>
</a>
</g>
</g>
<!-- Node3&#45;&gt;Node66 -->
<g id="edge15" class="edge">
<title>Node3&#45;&gt;Node66</title>
<path fill="none" stroke="midnightblue" d="M250.81,-587.07C252.84,-642.75 266.16,-924.84 329,-976.52 371.91,-1011.81 402.44,-997.2 454,-976.52 483.09,-964.85 507.56,-936.9 521.37,-918.35"/>
<polygon fill="midnightblue" stroke="midnightblue" points="524.3,-920.27 527.27,-910.11 518.61,-916.2 524.3,-920.27"/>
</g>
<!-- Node3&#45;&gt;Node57 -->
<g id="edge44" class="edge">
<title>Node3&#45;&gt;Node57</title>
<path fill="none" stroke="midnightblue" d="M250.7,-587.26C252.13,-645.33 262.67,-945.37 329,-1000.52 476.56,-1123.21 726.67,-936.56 797.38,-878.71"/>
<polygon fill="midnightblue" stroke="midnightblue" points="799.97,-881.1 805.44,-872.03 795.51,-875.71 799.97,-881.1"/>
</g>
<!-- Node3&#45;&gt;Node75 -->
<g id="edge47" class="edge">
<title>Node3&#45;&gt;Node75</title>
<path fill="none" stroke="midnightblue" d="M288.34,-587.11C301.21,-590.26 315.7,-593.68 329,-596.52 380.38,-607.5 439.42,-618.28 480.81,-625.53"/>
<polygon fill="midnightblue" stroke="midnightblue" points="480.22,-628.98 490.67,-627.25 481.42,-622.09 480.22,-628.98"/>
</g>
<!-- Node160 -->
<g id="node12" class="node">
<title>Node160</title>
<g id="a_node12"><a xlink:href="quickjs_8c.html#a61c8dfb5e807af1b6ff7d8ca61576dda" target="_top" xlink:title=" ">
<polygon fill="none" stroke="red" points="344.5,-454.02 344.5,-473.02 438.5,-473.02 438.5,-454.02 344.5,-454.02"/>
<text text-anchor="middle" x="391.5" y="-461.02" font-family="Helvetica,sans-Serif" font-size="10.00">build_backtrace</text>
</a>
</g>
</g>
<!-- Node3&#45;&gt;Node160 -->
<g id="edge12" class="edge">
<title>Node3&#45;&gt;Node160</title>
<path fill="none" stroke="midnightblue" d="M255.84,-567.86C266.93,-548.7 294.33,-505.73 329,-482.52 332.06,-480.47 335.35,-478.64 338.76,-476.99"/>
<polygon fill="midnightblue" stroke="midnightblue" points="340.15,-480.2 347.99,-473.08 337.42,-473.76 340.15,-480.2"/>
</g>
<!-- Node247 -->
<g id="node13" class="node">
<title>Node247</title>
<g id="a_node13"><a xlink:href="quickjs_8c.html#a344894112559c2ba75043fd10bcfa02f" target="_top" xlink:title=" ">
<polygon fill="none" stroke="red" points="341,-416.02 341,-435.02 442,-435.02 442,-416.02 341,-416.02"/>
<text text-anchor="middle" x="391.5" y="-423.02" font-family="Helvetica,sans-Serif" font-size="10.00">close_lexical_var</text>
</a>
</g>
</g>
<!-- Node3&#45;&gt;Node247 -->
<g id="edge13" class="edge">
<title>Node3&#45;&gt;Node247</title>
<path fill="none" stroke="midnightblue" d="M253.47,-567.85C261.48,-543.38 285.87,-478.59 329,-444.52 331.3,-442.7 333.78,-441.06 336.37,-439.57"/>
<polygon fill="midnightblue" stroke="midnightblue" points="338.09,-442.62 345.53,-435.09 335.01,-436.34 338.09,-442.62"/>
</g>
<!-- Node248 -->
<g id="node14" class="node">
<title>Node248</title>
<g id="a_node14"><a xlink:href="quickjs_8c.html#a1782043fce951bd4f0d91c7796b31e24" target="_top" xlink:title=" ">
<polygon fill="none" stroke="red" points="348,-378.02 348,-397.02 435,-397.02 435,-378.02 348,-378.02"/>
<text text-anchor="middle" x="391.5" y="-385.02" font-family="Helvetica,sans-Serif" font-size="10.00">close_var_refs</text>
</a>
</g>
</g>
<!-- Node3&#45;&gt;Node248 -->
<g id="edge14" class="edge">
<title>Node3&#45;&gt;Node248</title>
<path fill="none" stroke="midnightblue" d="M252.12,-567.74C257.46,-538.67 277.18,-451.97 329,-406.52 331.86,-404.02 335.04,-401.84 338.41,-399.95"/>
<polygon fill="midnightblue" stroke="midnightblue" points="340.12,-403.02 347.68,-395.59 337.14,-396.68 340.12,-403.02"/>
</g>
<!-- Node54 -->
<g id="node15" class="node">
<title>Node54</title>
<g id="a_node15"><a xlink:href="quickjs_8c.html#a9e7b4bccf927d811b0f99b40b08c0472" target="_top" xlink:title=" ">
<polygon fill="none" stroke="red" points="353.5,-340.02 353.5,-359.02 429.5,-359.02 429.5,-340.02 353.5,-340.02"/>
<text text-anchor="middle" x="391.5" y="-347.02" font-family="Helvetica,sans-Serif" font-size="10.00">free_var_ref</text>
</a>
</g>
</g>
<!-- Node3&#45;&gt;Node54 -->
<g id="edge16" class="edge">
<title>Node3&#45;&gt;Node54</title>
<path fill="none" stroke="midnightblue" d="M251.19,-568.01C254.07,-535.25 268.06,-425.93 329,-368.52 333.33,-364.45 338.51,-361.24 344,-358.73"/>
<polygon fill="midnightblue" stroke="midnightblue" points="345.36,-361.96 353.45,-355.11 342.86,-355.42 345.36,-361.96"/>
</g>
<!-- Node250 -->
<g id="node16" class="node">
<title>Node250</title>
<g id="a_node16"><a xlink:href="cutils_8h.html#a7c82a3ee025fee89db5b11ff5b7691b8" target="_top" xlink:title=" ">
<polygon fill="none" stroke="black" points="365,-302.02 365,-321.02 418,-321.02 418,-302.02 365,-302.02"/>
<text text-anchor="middle" x="391.5" y="-309.02" font-family="Helvetica,sans-Serif" font-size="10.00">get_i16</text>
</a>
</g>
</g>
<!-- Node3&#45;&gt;Node250 -->
<g id="edge17" class="edge">
<title>Node3&#45;&gt;Node250</title>
<path fill="none" stroke="midnightblue" d="M250.56,-567.88C251.33,-531.34 259.04,-399.92 329,-330.52 336.07,-323.51 345.66,-319.08 355.17,-316.28"/>
<polygon fill="midnightblue" stroke="midnightblue" points="356.04,-319.67 364.93,-313.91 354.39,-312.87 356.04,-319.67"/>
</g>
<!-- Node251 -->
<g id="node17" class="node">
<title>Node251</title>
<g id="a_node17"><a xlink:href="cutils_8h.html#a288ee4e688944e23500af2ecc813c306" target="_top" xlink:title=" ">
<polygon fill="none" stroke="black" points="368,-264.02 368,-283.02 415,-283.02 415,-264.02 368,-264.02"/>
<text text-anchor="middle" x="391.5" y="-271.02" font-family="Helvetica,sans-Serif" font-size="10.00">get_i8</text>
</a>
</g>
</g>
<!-- Node3&#45;&gt;Node251 -->
<g id="edge18" class="edge">
<title>Node3&#45;&gt;Node251</title>
<path fill="none" stroke="midnightblue" d="M250.08,-567.83C248.9,-527.88 249.87,-374.13 329,-292.52 336.66,-284.62 347.54,-279.98 358.01,-277.27"/>
<polygon fill="midnightblue" stroke="midnightblue" points="358.75,-280.69 367.82,-275.22 357.31,-273.84 358.75,-280.69"/>
</g>
<!-- Node252 -->
<g id="node18" class="node">
<title>Node252</title>
<g id="a_node18"><a xlink:href="cutils_8h.html#ad587834d17e95461893d59661e5e9676" target="_top" xlink:title=" ">
<polygon fill="none" stroke="black" points="363.5,-226.02 363.5,-245.02 419.5,-245.02 419.5,-226.02 363.5,-226.02"/>
<text text-anchor="middle" x="391.5" y="-233.02" font-family="Helvetica,sans-Serif" font-size="10.00">get_u16</text>
</a>
</g>
</g>
<!-- Node3&#45;&gt;Node252 -->
<g id="edge19" class="edge">
<title>Node3&#45;&gt;Node252</title>
<path fill="none" stroke="midnightblue" d="M251.57,-567.86C257.11,-519.3 284.12,-302.23 329,-254.52 335.52,-247.59 344.51,-243.16 353.61,-240.35"/>
<polygon fill="midnightblue" stroke="midnightblue" points="354.56,-243.72 363.41,-237.88 352.86,-236.93 354.56,-243.72"/>
</g>
<!-- Node50 -->
<g id="node19" class="node">
<title>Node50</title>
<g id="a_node19"><a xlink:href="cutils_8h.html#a941262a5f72fda2ec43ae7911e97a0dc" target="_top" xlink:title=" ">
<polygon fill="none" stroke="black" points="363.5,-188.02 363.5,-207.02 419.5,-207.02 419.5,-188.02 363.5,-188.02"/>
<text text-anchor="middle" x="391.5" y="-195.02" font-family="Helvetica,sans-Serif" font-size="10.00">get_u32</text>
</a>
</g>
</g>
<!-- Node3&#45;&gt;Node50 -->
<g id="edge20" class="edge">
<title>Node3&#45;&gt;Node50</title>
<path fill="none" stroke="midnightblue" d="M251.31,-567.79C255.81,-515.73 279.45,-270.5 329,-216.52 335.44,-209.51 344.4,-205.06 353.5,-202.24"/>
<polygon fill="midnightblue" stroke="midnightblue" points="354.45,-205.61 363.3,-199.78 352.75,-198.82 354.45,-205.61"/>
</g>
<!-- Node253 -->
<g id="node20" class="node">
<title>Node253</title>
<g id="a_node20"><a xlink:href="quickjs_8c.html#a37fe43b6649456a848bd54846450b995" target="_top" xlink:title=" ">
<polygon fill="none" stroke="red" points="355.5,-150.02 355.5,-169.02 427.5,-169.02 427.5,-150.02 355.5,-150.02"/>
<text text-anchor="middle" x="391.5" y="-157.02" font-family="Helvetica,sans-Serif" font-size="10.00">get_var_ref</text>
</a>
</g>
</g>
<!-- Node3&#45;&gt;Node253 -->
<g id="edge21" class="edge">
<title>Node3&#45;&gt;Node253</title>
<path fill="none" stroke="midnightblue" d="M251.08,-567.88C254.6,-512.85 274.69,-238.87 329,-178.52 333.57,-173.44 339.47,-169.71 345.79,-166.96"/>
<polygon fill="midnightblue" stroke="midnightblue" points="347.01,-170.24 355.27,-163.6 344.67,-163.64 347.01,-170.24"/>
</g>
<!-- Node196 -->
<g id="node21" class="node">
<title>Node196</title>
<g id="a_node21"><a xlink:href="list_8h.html#a663527a4d757540b2177bef0db1ce5c0" target="_top" xlink:title=" ">
<polygon fill="none" stroke="black" points="350.5,-112.02 350.5,-131.02 432.5,-131.02 432.5,-112.02 350.5,-112.02"/>
<text text-anchor="middle" x="391.5" y="-119.02" font-family="Helvetica,sans-Serif" font-size="10.00">init_list_head</text>
</a>
</g>
</g>
<!-- Node3&#45;&gt;Node196 -->
<g id="edge22" class="edge">
<title>Node3&#45;&gt;Node196</title>
<path fill="none" stroke="midnightblue" d="M250.91,-567.74C253.56,-509.36 270,-207.19 329,-140.52 332.43,-136.65 336.63,-133.55 341.21,-131.08"/>
<polygon fill="midnightblue" stroke="midnightblue" points="342.64,-134.28 350.39,-127.06 339.83,-127.87 342.64,-134.28"/>
</g>
<!-- Node254 -->
<g id="node22" class="node">
<title>Node254</title>
<g id="a_node22"><a xlink:href="quickjs_8c.html#a2bb0a2ca3b8320f3ff778c65034fce49" target="_top" xlink:title=" ">
<polygon fill="none" stroke="red" points="332,-948.02 332,-967.02 451,-967.02 451,-948.02 332,-948.02"/>
<text text-anchor="middle" x="391.5" y="-955.02" font-family="Helvetica,sans-Serif" font-size="10.00">is_backtrace_needed</text>
</a>
</g>
</g>
<!-- Node3&#45;&gt;Node254 -->
<g id="edge23" class="edge">
<title>Node3&#45;&gt;Node254</title>
<path fill="none" stroke="midnightblue" d="M251.31,-587.25C255.81,-639.32 279.45,-884.54 329,-938.52 330.22,-939.85 331.53,-941.09 332.92,-942.24"/>
<polygon fill="midnightblue" stroke="midnightblue" points="331.29,-945.36 341.56,-947.94 335.14,-939.51 331.29,-945.36"/>
</g>
<!-- Node180 -->
<g id="node23" class="node">
<title>Node180</title>
<g id="a_node23"><a xlink:href="quickjs_8c.html#a686cf78f8b0361621ee2ba6182195c31" target="_top" xlink:title=" ">
<polygon fill="none" stroke="black" points="347.5,-910.02 347.5,-929.02 435.5,-929.02 435.5,-910.02 347.5,-910.02"/>
<text text-anchor="middle" x="391.5" y="-917.02" font-family="Helvetica,sans-Serif" font-size="10.00">is_strict_mode</text>
</a>
</g>
</g>
<!-- Node3&#45;&gt;Node180 -->
<g id="edge24" class="edge">
<title>Node3&#45;&gt;Node180</title>
<path fill="none" stroke="midnightblue" d="M251.69,-587.29C257.76,-635.43 286.52,-847.12 329,-895.52 332.28,-899.25 336.21,-902.41 340.48,-905.08"/>
<polygon fill="midnightblue" stroke="midnightblue" points="339.13,-908.33 349.61,-909.9 342.4,-902.14 339.13,-908.33"/>
</g>
<!-- Node256 -->
<g id="node24" class="node">
<title>Node256</title>
<g id="a_node24"><a xlink:href="quickjs_8c.html#ae8ff05447c0d51fe277baccf616dc7c6" target="_top" xlink:title=" ">
<polygon fill="none" stroke="red" points="353.5,-682.02 353.5,-701.02 429.5,-701.02 429.5,-682.02 353.5,-682.02"/>
<text text-anchor="middle" x="391.5" y="-689.02" font-family="Helvetica,sans-Serif" font-size="10.00">js_add_slow</text>
</a>
</g>
</g>
<!-- Node3&#45;&gt;Node256 -->
<g id="edge25" class="edge">
<title>Node3&#45;&gt;Node256</title>
<path fill="none" stroke="midnightblue" d="M255.84,-587.18C266.93,-606.34 294.33,-649.31 329,-672.52 333.59,-675.59 338.69,-678.18 343.94,-680.37"/>
<polygon fill="midnightblue" stroke="midnightblue" points="342.88,-683.71 353.48,-683.88 345.3,-677.14 342.88,-683.71"/>
</g>
<!-- Node263 -->
<g id="node25" class="node">
<title>Node263</title>
<g id="a_node25"><a xlink:href="quickjs_8c.html#a6a21784a40b8684f2e779bd460dd13b2" target="_top" xlink:title=" ">
<polygon fill="none" stroke="red" points="352.5,-36.02 352.5,-55.02 430.5,-55.02 430.5,-36.02 352.5,-36.02"/>
<text text-anchor="middle" x="391.5" y="-43.02" font-family="Helvetica,sans-Serif" font-size="10.00">JS_AddBrand</text>
</a>
</g>
</g>
<!-- Node3&#45;&gt;Node263 -->
<g id="edge28" class="edge">
<title>Node3&#45;&gt;Node263</title>
<path fill="none" stroke="midnightblue" d="M251.26,-567.64C256.03,-507.26 283.16,-187.72 329,-102.52 338,-85.8 353.79,-71.32 367.12,-61.14"/>
<polygon fill="midnightblue" stroke="midnightblue" points="369.4,-63.81 375.43,-55.09 365.28,-58.15 369.4,-63.81"/>
</g>
<!-- Node266 -->
<g id="node26" class="node">
<title>Node266</title>
<g id="a_node26"><a xlink:href="quickjs_8c.html#a43208b0746998d2b6b9b8bd1ef8b5f99" target="_top" xlink:title=" ">
<polygon fill="none" stroke="red" points="329,-720.02 329,-739.02 454,-739.02 454,-720.02 329,-720.02"/>
<text text-anchor="middle" x="391.5" y="-727.02" font-family="Helvetica,sans-Serif" font-size="10.00">js_append_enumerate</text>
</a>
</g>
</g>
<!-- Node3&#45;&gt;Node266 -->
<g id="edge32" class="edge">
<title>Node3&#45;&gt;Node266</title>
<path fill="none" stroke="midnightblue" d="M253.47,-587.2C261.48,-611.66 285.87,-676.45 329,-710.52 331.3,-712.34 333.78,-713.98 336.37,-715.47"/>
<polygon fill="midnightblue" stroke="midnightblue" points="335.01,-718.71 345.53,-719.95 338.09,-712.42 335.01,-718.71"/>
</g>
<!-- Node3&#45;&gt;Node68 -->
<g id="edge45" class="edge">
<title>Node3&#45;&gt;Node68</title>
<path fill="none" stroke="midnightblue" d="M251.62,-587.2C257.12,-633.03 282.97,-827.46 329,-862.52 376.95,-899.05 451.24,-887.13 495.85,-874.95"/>
<polygon fill="midnightblue" stroke="midnightblue" points="497.06,-878.25 505.71,-872.13 495.13,-871.52 497.06,-878.25"/>
</g>
<!-- Node69 -->
<g id="node28" class="node">
<title>Node69</title>
<g id="a_node28"><a xlink:href="quickjs_8c.html#a5762c57ae0c9937e986040c01222833a" target="_top" xlink:title=" ">
<polygon fill="none" stroke="red" points="615,-853.02 615,-872.02 742,-872.02 742,-853.02 615,-853.02"/>
<text text-anchor="middle" x="678.5" y="-860.02" font-family="Helvetica,sans-Serif" font-size="10.00">JS_GetPropertyInternal</text>
</a>
</g>
</g>
<!-- Node3&#45;&gt;Node69 -->
<g id="edge46" class="edge">
<title>Node3&#45;&gt;Node69</title>
<path fill="none" stroke="midnightblue" d="M251.76,-587.25C256.15,-616.93 273.69,-706.85 329,-748.52 418.77,-816.15 475.66,-742.34 579,-786.52 611.55,-800.44 642.8,-827.69 661.07,-845.49"/>
<polygon fill="midnightblue" stroke="midnightblue" points="658.96,-848.33 668.5,-852.93 663.91,-843.38 658.96,-848.33"/>
</g>
<!-- Node98 -->
<g id="node29" class="node">
<title>Node98</title>
<g id="a_node29"><a xlink:href="quickjs_8c.html#a260bfa297ff6cb5bd18e229afaa54663" target="_top" xlink:title=" ">
<polygon fill="none" stroke="red" points="343.5,-644.02 343.5,-663.02 439.5,-663.02 439.5,-644.02 343.5,-644.02"/>
<text text-anchor="middle" x="391.5" y="-651.02" font-family="Helvetica,sans-Serif" font-size="10.00">JS_AtomToString</text>
</a>
</g>
</g>
<!-- Node3&#45;&gt;Node98 -->
<g id="edge40" class="edge">
<title>Node3&#45;&gt;Node98</title>
<path fill="none" stroke="midnightblue" d="M263.04,-587.05C278.12,-598.21 304.48,-616.8 329,-629.52 336.52,-633.42 344.83,-637.07 352.84,-640.29"/>
<polygon fill="midnightblue" stroke="midnightblue" points="351.8,-643.64 362.39,-643.99 354.33,-637.12 351.8,-643.64"/>
</g>
<!-- Node292 -->
<g id="node30" class="node">
<title>Node292</title>
<g id="a_node30"><a xlink:href="quickjs_8c.html#afa67965c1017685fc6783776d6d0d4d7" target="_top" xlink:title=" ">
<polygon fill="none" stroke="red" points="344,-568.02 344,-587.02 439,-587.02 439,-568.02 344,-568.02"/>
<text text-anchor="middle" x="391.5" y="-575.02" font-family="Helvetica,sans-Serif" font-size="10.00">JS_AtomToValue</text>
</a>
</g>
</g>
<!-- Node3&#45;&gt;Node292 -->
<g id="edge41" class="edge">
<title>Node3&#45;&gt;Node292</title>
<path fill="none" stroke="midnightblue" d="M293.27,-577.52C305.95,-577.52 320.05,-577.52 333.49,-577.52"/>
<polygon fill="midnightblue" stroke="midnightblue" points="333.61,-581.02 343.61,-577.52 333.61,-574.02 333.61,-581.02"/>
</g>
<!-- Node65&#45;&gt;Node4 -->
<g id="edge8" class="edge">
<title>Node65&#45;&gt;Node4</title>
<path fill="none" stroke="midnightblue" d="M428.08,-833.93C446.28,-829.03 468.64,-823 488.07,-817.76"/>
<polygon fill="midnightblue" stroke="midnightblue" points="489.19,-821.09 497.93,-815.11 487.36,-814.33 489.19,-821.09"/>
</g>
<!-- Node65&#45;&gt;Node66 -->
<g id="edge9" class="edge">
<title>Node65&#45;&gt;Node66</title>
<path fill="none" stroke="midnightblue" d="M416.1,-853.06C439.18,-862.39 474.53,-876.68 500.41,-887.15"/>
<polygon fill="midnightblue" stroke="midnightblue" points="499.24,-890.45 509.82,-890.95 501.86,-883.96 499.24,-890.45"/>
</g>
<!-- Node65&#45;&gt;Node75 -->
<g id="edge11" class="edge">
<title>Node65&#45;&gt;Node75</title>
<path fill="none" stroke="midnightblue" d="M398.92,-834C420.81,-801.56 492.67,-695.04 521.44,-652.4"/>
<polygon fill="midnightblue" stroke="midnightblue" points="524.35,-654.35 527.04,-644.1 518.54,-650.43 524.35,-654.35"/>
</g>
<!-- Node66&#45;&gt;Node57 -->
<g id="edge10" class="edge">
<title>Node66&#45;&gt;Node57</title>
<path fill="none" stroke="midnightblue" d="M573.04,-898.85C614.6,-896.59 683.46,-891.61 742,-881.52 752.47,-879.72 763.62,-877.2 774.03,-874.58"/>
<polygon fill="midnightblue" stroke="midnightblue" points="774.93,-877.97 783.73,-872.07 773.18,-871.19 774.93,-877.97"/>
</g>
<!-- Node256&#45;&gt;Node57 -->
<g id="edge26" class="edge">
<title>Node256&#45;&gt;Node57</title>
<path fill="none" stroke="midnightblue" d="M429.63,-690.5C497.18,-690.36 642.4,-698.17 742,-761.52 773.71,-781.69 796.51,-820.53 808.01,-843.72"/>
<polygon fill="midnightblue" stroke="midnightblue" points="804.91,-845.35 812.37,-852.88 811.23,-842.35 804.91,-845.35"/>
</g>
<!-- Node256&#45;&gt;Node75 -->
<g id="edge27" class="edge">
<title>Node256&#45;&gt;Node75</title>
<path fill="none" stroke="midnightblue" d="M426.64,-681.95C435.63,-679.16 445.26,-675.94 454,-672.52 471.76,-665.57 491.08,-656.38 506.23,-648.78"/>
<polygon fill="midnightblue" stroke="midnightblue" points="508.2,-651.7 515.52,-644.05 505.02,-645.46 508.2,-651.7"/>
</g>
<!-- Node263&#45;&gt;Node7 -->
<g id="edge29" class="edge">
<title>Node263&#45;&gt;Node7</title>
<path fill="none" stroke="midnightblue" d="M430.66,-40.38C447.02,-38.17 466.35,-35.57 483.81,-33.22"/>
<polygon fill="midnightblue" stroke="midnightblue" points="484.39,-36.67 493.84,-31.87 483.46,-29.73 484.39,-36.67"/>
</g>
<!-- Node263&#45;&gt;Node57 -->
<g id="edge30" class="edge">
<title>Node263&#45;&gt;Node57</title>
<path fill="none" stroke="midnightblue" d="M430.29,-55.03C438.83,-58.52 447.34,-63.22 454,-69.52 703.25,-305.03 795.23,-744.68 813.1,-842.78"/>
<polygon fill="midnightblue" stroke="midnightblue" points="809.69,-843.56 814.88,-852.79 816.58,-842.33 809.69,-843.56"/>
</g>
<!-- Node263&#45;&gt;Node75 -->
<g id="edge31" class="edge">
<title>Node263&#45;&gt;Node75</title>
<path fill="none" stroke="midnightblue" d="M430.74,-53.35C439.59,-56.89 448.12,-62.04 454,-69.52 490.88,-116.4 481.71,-276.45 490,-335.52 504.79,-440.86 523.44,-566.92 530.56,-614.78"/>
<polygon fill="midnightblue" stroke="midnightblue" points="527.14,-615.6 532.08,-624.97 534.07,-614.57 527.14,-615.6"/>
</g>
<!-- Node266&#45;&gt;Node4 -->
<g id="edge33" class="edge">
<title>Node266&#45;&gt;Node4</title>
<path fill="none" stroke="midnightblue" d="M410.36,-739.15C434.73,-752.28 478.59,-775.92 506.85,-791.16"/>
<polygon fill="midnightblue" stroke="midnightblue" points="505.32,-794.31 515.79,-795.97 508.65,-788.15 505.32,-794.31"/>
</g>
<!-- Node266&#45;&gt;Node57 -->
<g id="edge34" class="edge">
<title>Node266&#45;&gt;Node57</title>
<path fill="none" stroke="midnightblue" d="M454.34,-732.78C491.11,-735.87 538.36,-741.87 579,-753.52 660.29,-776.82 749.12,-823.98 791.41,-847.9"/>
<polygon fill="midnightblue" stroke="midnightblue" points="789.76,-850.99 800.18,-852.91 793.23,-844.91 789.76,-850.99"/>
</g>
<!-- Node266&#45;&gt;Node75 -->
<g id="edge39" class="edge">
<title>Node266&#45;&gt;Node75</title>
<path fill="none" stroke="midnightblue" d="M433.01,-719.95C440.26,-717.42 447.54,-714.31 454,-710.52 480.22,-695.12 504.58,-669.47 519.25,-652.28"/>
<polygon fill="midnightblue" stroke="midnightblue" points="522.3,-654.09 526,-644.17 516.91,-649.62 522.3,-654.09"/>
</g>
<!-- Node266&#45;&gt;Node68 -->
<g id="edge35" class="edge">
<title>Node266&#45;&gt;Node68</title>
<path fill="none" stroke="midnightblue" d="M402.02,-739.14C419.28,-756.49 457,-794.07 490,-824.52 497.9,-831.81 506.82,-839.66 514.51,-846.32"/>
<polygon fill="midnightblue" stroke="midnightblue" points="512.4,-849.13 522.27,-853 516.97,-843.83 512.4,-849.13"/>
</g>
<!-- Node68&#45;&gt;Node69 -->
<g id="edge36" class="edge">
<title>Node68&#45;&gt;Node69</title>
<path fill="none" stroke="midnightblue" d="M579.26,-862.52C587.35,-862.52 595.98,-862.52 604.66,-862.52"/>
<polygon fill="midnightblue" stroke="midnightblue" points="604.83,-866.02 614.83,-862.52 604.83,-859.02 604.83,-866.02"/>
</g>
<!-- Node69&#45;&gt;Node2 -->
<g id="edge37" class="edge">
<title>Node69&#45;&gt;Node2</title>
<path fill="none" stroke="midnightblue" d="M667.75,-872.12C626.5,-911.5 462.36,-1056.06 329,-1000.52 240.96,-963.85 172.39,-865.49 146.6,-824.19"/>
<polygon fill="midnightblue" stroke="midnightblue" points="149.44,-822.12 141.23,-815.41 143.46,-825.77 149.44,-822.12"/>
</g>
<!-- Node69&#45;&gt;Node57 -->
<g id="edge38" class="edge">
<title>Node69&#45;&gt;Node57</title>
<path fill="none" stroke="midnightblue" d="M742.39,-862.52C750.89,-862.52 759.52,-862.52 767.73,-862.52"/>
<polygon fill="midnightblue" stroke="midnightblue" points="767.86,-866.02 777.86,-862.52 767.86,-859.02 767.86,-866.02"/>
</g>
</g>
</svg>
