<?xml version="1.0" encoding="UTF-8" standalone="no"?>
<!DOCTYPE svg PUBLIC "-//W3C//DTD SVG 1.1//EN"
 "http://www.w3.org/Graphics/SVG/1.1/DTD/svg11.dtd">
<!-- Generated by graphviz version 2.43.0 (0)
 -->
<!-- Title: js_call_bound_function Pages: 1 -->
<!--zoomable 978 -->
<svg id="main" version="1.1" xmlns="http://www.w3.org/2000/svg" xmlns:xlink="http://www.w3.org/1999/xlink" xml:space="preserve" onload="init(evt)">
<style type="text/css"><![CDATA[
.edge:hover path { stroke: red; }
.edge:hover polygon { stroke: red; fill: red; }
]]></style>
<script type="text/javascript"><![CDATA[
var edges = document.getElementsByTagName('g');
if (edges && edges.length) {
  for (var i=0;i<edges.length;i++) {
    if (edges[i].id.substr(0,4)=='edge') {
      edges[i].setAttribute('class','edge');
    }
  }
}
]]></script>
        <defs>
                <circle id="rim" cx="0" cy="0" r="7"/>
                <circle id="rim2" cx="0" cy="0" r="3.5"/>
                <g id="zoomPlus">
                        <use xlink:href="#rim" fill="#404040">
                                <set attributeName="fill" to="#808080" begin="zoomplus.mouseover" end="zoomplus.mouseout"/>
                        </use>
                        <path d="M-4,0h8M0,-4v8" fill="none" stroke="white" stroke-width="1.5" pointer-events="none"/>
                </g>
                <g id="zoomMin">
                        <use xlink:href="#rim" fill="#404040">
                                <set attributeName="fill" to="#808080" begin="zoomminus.mouseover" end="zoomminus.mouseout"/>
                        </use>
                        <path d="M-4,0h8" fill="none" stroke="white" stroke-width="1.5" pointer-events="none"/>
                </g>
                <g id="dirArrow">
                        <path fill="none" stroke="white" stroke-width="1.5" d="M0,-3.0v7 M-2.5,-0.5L0,-3.0L2.5,-0.5"/>
                </g>
               <g id="resetDef">
                       <use xlink:href="#rim2" fill="#404040">
                               <set attributeName="fill" to="#808080" begin="reset.mouseover" end="reset.mouseout"/>
                       </use>
               </g>
        </defs>

<script type="text/javascript">
var viewWidth = 666;
var viewHeight = 978;
var sectionId = 'dynsection-11';
</script>
<script xlink:href="svgpan.js"/>
<svg id="graph" class="graph">
<g id="viewport">
<title>js_call_bound_function</title>
<!-- Node1 -->
<g id="node1" class="node">
<title>Node1</title>
<g id="a_node1"><a xlink:title=" ">
<polygon fill="#bfbfbf" stroke="black" points="0,-76.5 0,-95.5 128,-95.5 128,-76.5 0,-76.5"/>
<text text-anchor="middle" x="64" y="-83.5" font-family="Helvetica,sans-Serif" font-size="10.00">js_call_bound_function</text>
</a>
</g>
</g>
<!-- Node2 -->
<g id="node2" class="node">
<title>Node2</title>
<g id="a_node2"><a xlink:href="quickjs_8c.html#a1a4c02a29525d5cb2085dd8bca3af350" target="_top" xlink:title=" ">
<polygon fill="none" stroke="black" points="164,-437.5 164,-456.5 214,-456.5 214,-437.5 164,-437.5"/>
<text text-anchor="middle" x="189" y="-444.5" font-family="Helvetica,sans-Serif" font-size="10.00">JS_Call</text>
</a>
</g>
</g>
<!-- Node1&#45;&gt;Node2 -->
<g id="edge1" class="edge">
<title>Node1&#45;&gt;Node2</title>
<path fill="none" stroke="midnightblue" d="M68.29,-95.66C84.83,-144.2 158.98,-361.82 181.5,-427.91"/>
<polygon fill="midnightblue" stroke="midnightblue" points="178.22,-429.15 184.76,-437.48 184.84,-426.89 178.22,-429.15"/>
</g>
<!-- Node220 -->
<g id="node27" class="node">
<title>Node220</title>
<g id="a_node27"><a xlink:href="quickjs_8c.html#af23ec7c9970ceb4671c59da7abd4b078" target="_top" xlink:title=" ">
<polygon fill="none" stroke="red" points="401,-0.5 401,-19.5 538,-19.5 538,-0.5 401,-0.5"/>
<text text-anchor="middle" x="469.5" y="-7.5" font-family="Helvetica,sans-Serif" font-size="10.00">js_check_stack_overflow</text>
</a>
</g>
</g>
<!-- Node1&#45;&gt;Node220 -->
<g id="edge44" class="edge">
<title>Node1&#45;&gt;Node220</title>
<path fill="none" stroke="midnightblue" d="M90,-76.43C125.15,-63.41 191.45,-40.43 250,-29 296.09,-20 348.48,-15.26 390.41,-12.77"/>
<polygon fill="midnightblue" stroke="midnightblue" points="390.77,-16.25 400.56,-12.2 390.38,-9.27 390.77,-16.25"/>
</g>
<!-- Node234 -->
<g id="node28" class="node">
<title>Node234</title>
<g id="a_node28"><a xlink:href="quickjs_8c.html#a24be89a128d1cd7c0908604815b2b854" target="_top" xlink:title=" ">
<polygon fill="none" stroke="red" points="425,-76.5 425,-95.5 514,-95.5 514,-76.5 425,-76.5"/>
<text text-anchor="middle" x="469.5" y="-83.5" font-family="Helvetica,sans-Serif" font-size="10.00">js_same_value</text>
</a>
</g>
</g>
<!-- Node1&#45;&gt;Node234 -->
<g id="edge45" class="edge">
<title>Node1&#45;&gt;Node234</title>
<path fill="none" stroke="midnightblue" d="M128.05,-86C206.9,-86 340.55,-86 414.77,-86"/>
<polygon fill="midnightblue" stroke="midnightblue" points="414.84,-89.5 424.84,-86 414.84,-82.5 414.84,-89.5"/>
</g>
<!-- Node222 -->
<g id="node29" class="node">
<title>Node222</title>
<g id="a_node29"><a xlink:href="quickjs_8c.html#a8353f635fb8a20553c08db8cf38c17e0" target="_top" xlink:title=" ">
<polygon fill="none" stroke="black" points="404,-950.5 404,-969.5 535,-969.5 535,-950.5 404,-950.5"/>
<text text-anchor="middle" x="469.5" y="-957.5" font-family="Helvetica,sans-Serif" font-size="10.00">JS_ThrowStackOverflow</text>
</a>
</g>
</g>
<!-- Node1&#45;&gt;Node222 -->
<g id="edge46" class="edge">
<title>Node1&#45;&gt;Node222</title>
<path fill="none" stroke="midnightblue" d="M66.72,-95.63C74.69,-139.36 109.94,-323.18 164,-466 245.48,-681.26 231.81,-768.76 398,-928 406.1,-935.76 416.41,-941.86 426.63,-946.56"/>
<polygon fill="midnightblue" stroke="midnightblue" points="425.35,-949.82 435.92,-950.49 428.08,-943.37 425.35,-949.82"/>
</g>
<!-- Node401 -->
<g id="node30" class="node">
<title>Node401</title>
<g id="a_node30"><a xlink:href="quickjs_8c.html#a03d5edf3e8bb18809d6675e5c08bac26" target="_top" xlink:title=" ">
<polygon fill="none" stroke="black" points="250,-38.5 250,-57.5 362,-57.5 362,-38.5 250,-38.5"/>
<text text-anchor="middle" x="306" y="-45.5" font-family="Helvetica,sans-Serif" font-size="10.00">JS_CallConstructor2</text>
</a>
</g>
</g>
<!-- Node1&#45;&gt;Node401 -->
<g id="edge42" class="edge">
<title>Node1&#45;&gt;Node401</title>
<path fill="none" stroke="midnightblue" d="M125.25,-76.46C160.01,-70.96 203.74,-64.03 239.36,-58.39"/>
<polygon fill="midnightblue" stroke="midnightblue" points="240.33,-61.78 249.66,-56.76 239.23,-54.87 240.33,-61.78"/>
</g>
<!-- Node3 -->
<g id="node3" class="node">
<title>Node3</title>
<g id="a_node3"><a xlink:href="quickjs_8c.html#ac2894ff4edcdb4e6841bcce9c76081e3" target="_top" xlink:title=" ">
<polygon fill="none" stroke="red" points="262.5,-437.5 262.5,-456.5 349.5,-456.5 349.5,-437.5 262.5,-437.5"/>
<text text-anchor="middle" x="306" y="-444.5" font-family="Helvetica,sans-Serif" font-size="10.00">JS_CallInternal</text>
</a>
</g>
</g>
<!-- Node2&#45;&gt;Node3 -->
<g id="edge2" class="edge">
<title>Node2&#45;&gt;Node3</title>
<path fill="none" stroke="midnightblue" d="M214.11,-441.39C225.23,-440.53 238.91,-440.16 252.25,-440.27"/>
<polygon fill="midnightblue" stroke="midnightblue" points="252.27,-443.77 262.33,-440.45 252.4,-436.77 252.27,-443.77"/>
</g>
<!-- Node3&#45;&gt;Node2 -->
<g id="edge32" class="edge">
<title>Node3&#45;&gt;Node2</title>
<path fill="none" stroke="midnightblue" d="M262.33,-453.55C249.74,-453.9 236.13,-453.79 224.15,-453.23"/>
<polygon fill="midnightblue" stroke="midnightblue" points="224.3,-449.73 214.11,-452.61 223.88,-456.72 224.3,-449.73"/>
</g>
<!-- Node3&#45;&gt;Node3 -->
<g id="edge35" class="edge">
<title>Node3&#45;&gt;Node3</title>
<path fill="none" stroke="midnightblue" d="M288.12,-456.76C279.42,-465.57 285.38,-475 306,-475 318.89,-475 326.05,-471.31 327.48,-466.4"/>
<polygon fill="midnightblue" stroke="midnightblue" points="330.66,-464.9 323.88,-456.76 324.1,-467.35 330.66,-464.9"/>
</g>
<!-- Node4 -->
<g id="node4" class="node">
<title>Node4</title>
<g id="a_node4"><a xlink:href="quickjs_8c.html#a853f0924d441ea4225488f37c8b69f9a" target="_top" xlink:title=" ">
<polygon fill="none" stroke="black" points="577.5,-836.5 577.5,-855.5 657.5,-855.5 657.5,-836.5 577.5,-836.5"/>
<text text-anchor="middle" x="617.5" y="-843.5" font-family="Helvetica,sans-Serif" font-size="10.00">__attribute__</text>
</a>
</g>
</g>
<!-- Node3&#45;&gt;Node4 -->
<g id="edge3" class="edge">
<title>Node3&#45;&gt;Node4</title>
<path fill="none" stroke="midnightblue" d="M309.03,-456.8C316.32,-491.98 341.78,-615.18 362,-717 370.2,-758.29 365.53,-876.21 398,-903 447.02,-943.45 480.74,-923.19 541,-903 564.43,-895.15 586.4,-876.83 600.53,-863.07"/>
<polygon fill="midnightblue" stroke="midnightblue" points="603.37,-865.18 607.9,-855.6 598.38,-860.26 603.37,-865.18"/>
</g>
<!-- Node5 -->
<g id="node5" class="node">
<title>Node5</title>
<g id="a_node5"><a xlink:href="quickjs_8c.html#a877fcb7651d95b411ce70e62b7f4a1f0" target="_top" xlink:title=" ">
<polygon fill="none" stroke="black" points="407,-342.5 407,-361.5 532,-361.5 532,-342.5 407,-342.5"/>
<text text-anchor="middle" x="469.5" y="-349.5" font-family="Helvetica,sans-Serif" font-size="10.00">__JS_AtomFromUInt32</text>
</a>
</g>
</g>
<!-- Node3&#45;&gt;Node5 -->
<g id="edge4" class="edge">
<title>Node3&#45;&gt;Node5</title>
<path fill="none" stroke="midnightblue" d="M315.83,-437.28C331.03,-421.13 363.85,-388.76 398,-371 402.34,-368.74 406.97,-366.73 411.71,-364.95"/>
<polygon fill="midnightblue" stroke="midnightblue" points="413.2,-368.14 421.53,-361.6 410.94,-361.52 413.2,-368.14"/>
</g>
<!-- Node6 -->
<g id="node6" class="node">
<title>Node6</title>
<g id="a_node6"><a xlink:href="quickjs_8h.html#a9bf98b18de88b4199910a43e933eb97d" target="_top" xlink:title=" ">
<polygon fill="none" stroke="black" points="419.5,-304.5 419.5,-323.5 519.5,-323.5 519.5,-304.5 419.5,-304.5"/>
<text text-anchor="middle" x="469.5" y="-311.5" font-family="Helvetica,sans-Serif" font-size="10.00">__JS_NewFloat64</text>
</a>
</g>
</g>
<!-- Node3&#45;&gt;Node6 -->
<g id="edge5" class="edge">
<title>Node3&#45;&gt;Node6</title>
<path fill="none" stroke="midnightblue" d="M311.9,-437.34C323.61,-415.27 355.43,-360.9 398,-333 401.74,-330.55 405.79,-328.41 409.98,-326.55"/>
<polygon fill="midnightblue" stroke="midnightblue" points="411.31,-329.79 419.36,-322.9 408.77,-323.27 411.31,-329.79"/>
</g>
<!-- Node7 -->
<g id="node7" class="node">
<title>Node7</title>
<g id="a_node7"><a xlink:href="quickjs_8c.html#a74547db03bf739a52c83a326b32db997" target="_top" xlink:title=" ">
<polygon fill="none" stroke="red" points="577,-247.5 577,-266.5 658,-266.5 658,-247.5 577,-247.5"/>
<text text-anchor="middle" x="617.5" y="-254.5" font-family="Helvetica,sans-Serif" font-size="10.00">add_property</text>
</a>
</g>
</g>
<!-- Node3&#45;&gt;Node7 -->
<g id="edge6" class="edge">
<title>Node3&#45;&gt;Node7</title>
<path fill="none" stroke="midnightblue" d="M308.35,-437.3C315.23,-389.56 347.96,-180.26 398,-143 448.98,-105.05 485.01,-112.93 541,-143 578.48,-163.13 600.48,-210.94 610.31,-237.82"/>
<polygon fill="midnightblue" stroke="midnightblue" points="607.01,-238.99 613.59,-247.3 613.63,-236.7 607.01,-238.99"/>
</g>
<!-- Node65 -->
<g id="node8" class="node">
<title>Node65</title>
<g id="a_node8"><a xlink:href="quickjs_8c.html#a4956f45ffd2849b96dc051277264f87a" target="_top" xlink:title=" ">
<polygon fill="none" stroke="red" points="428.5,-532.5 428.5,-551.5 510.5,-551.5 510.5,-532.5 428.5,-532.5"/>
<text text-anchor="middle" x="469.5" y="-539.5" font-family="Helvetica,sans-Serif" font-size="10.00">build_arg_list</text>
</a>
</g>
</g>
<!-- Node3&#45;&gt;Node65 -->
<g id="edge7" class="edge">
<title>Node3&#45;&gt;Node65</title>
<path fill="none" stroke="midnightblue" d="M316.85,-456.53C332.74,-471.46 365.56,-500.47 398,-518 405.85,-522.24 414.59,-525.94 423.18,-529.08"/>
<polygon fill="midnightblue" stroke="midnightblue" points="422.15,-532.43 432.74,-532.39 424.44,-525.81 422.15,-532.43"/>
</g>
<!-- Node66 -->
<g id="node9" class="node">
<title>Node66</title>
<g id="a_node9"><a xlink:href="quickjs_8c.html#ac864482356b3efc2d0b0a509fcfa4c7c" target="_top" xlink:title=" ">
<polygon fill="none" stroke="red" points="579,-627.5 579,-646.5 656,-646.5 656,-627.5 579,-627.5"/>
<text text-anchor="middle" x="617.5" y="-634.5" font-family="Helvetica,sans-Serif" font-size="10.00">free_arg_list</text>
</a>
</g>
</g>
<!-- Node3&#45;&gt;Node66 -->
<g id="edge15" class="edge">
<title>Node3&#45;&gt;Node66</title>
<path fill="none" stroke="midnightblue" d="M306.72,-456.77C306.17,-496.92 310.05,-650.13 398,-713 449.7,-749.96 482.32,-737.42 541,-713 569.06,-701.32 592.06,-673.59 605.02,-655.06"/>
<polygon fill="midnightblue" stroke="midnightblue" points="608.05,-656.83 610.71,-646.57 602.24,-652.93 608.05,-656.83"/>
</g>
<!-- Node36 -->
<g id="node10" class="node">
<title>Node36</title>
<g id="a_node10"><a xlink:href="quickjs_8h.html#a775522f2d084fc8fa0fcb33f390006b4" target="_top" xlink:title=" ">
<polygon fill="none" stroke="black" points="579,-456.5 579,-475.5 656,-475.5 656,-456.5 579,-456.5"/>
<text text-anchor="middle" x="617.5" y="-463.5" font-family="Helvetica,sans-Serif" font-size="10.00">JS_DupValue</text>
</a>
</g>
</g>
<!-- Node3&#45;&gt;Node36 -->
<g id="edge37" class="edge">
<title>Node3&#45;&gt;Node36</title>
<path fill="none" stroke="midnightblue" d="M324.13,-456.58C341.95,-465.95 370.97,-479.58 398,-485 460.32,-497.49 477.93,-492.81 541,-485 552.5,-483.57 564.77,-480.97 576,-478.14"/>
<polygon fill="midnightblue" stroke="midnightblue" points="577.2,-481.45 585.97,-475.51 575.41,-474.68 577.2,-481.45"/>
</g>
<!-- Node161 -->
<g id="node11" class="node">
<title>Node161</title>
<g id="a_node11"><a xlink:href="quickjs_8c.html#a61c8dfb5e807af1b6ff7d8ca61576dda" target="_top" xlink:title=" ">
<polygon fill="none" stroke="red" points="422.5,-266.5 422.5,-285.5 516.5,-285.5 516.5,-266.5 422.5,-266.5"/>
<text text-anchor="middle" x="469.5" y="-273.5" font-family="Helvetica,sans-Serif" font-size="10.00">build_backtrace</text>
</a>
</g>
</g>
<!-- Node3&#45;&gt;Node161 -->
<g id="edge11" class="edge">
<title>Node3&#45;&gt;Node161</title>
<path fill="none" stroke="midnightblue" d="M309.89,-437.43C318.52,-410.54 346.72,-333.76 398,-295 402.42,-291.66 407.39,-288.9 412.6,-286.63"/>
<polygon fill="midnightblue" stroke="midnightblue" points="414.01,-289.84 422.14,-283.04 411.55,-283.28 414.01,-289.84"/>
</g>
<!-- Node248 -->
<g id="node12" class="node">
<title>Node248</title>
<g id="a_node12"><a xlink:href="quickjs_8c.html#a344894112559c2ba75043fd10bcfa02f" target="_top" xlink:title=" ">
<polygon fill="none" stroke="red" points="419,-418.5 419,-437.5 520,-437.5 520,-418.5 419,-418.5"/>
<text text-anchor="middle" x="469.5" y="-425.5" font-family="Helvetica,sans-Serif" font-size="10.00">close_lexical_var</text>
</a>
</g>
</g>
<!-- Node3&#45;&gt;Node248 -->
<g id="edge12" class="edge">
<title>Node3&#45;&gt;Node248</title>
<path fill="none" stroke="midnightblue" d="M349.86,-441.96C367.92,-439.83 389.25,-437.32 408.82,-435.02"/>
<polygon fill="midnightblue" stroke="midnightblue" points="409.34,-438.48 418.86,-433.84 408.52,-431.53 409.34,-438.48"/>
</g>
<!-- Node249 -->
<g id="node13" class="node">
<title>Node249</title>
<g id="a_node13"><a xlink:href="quickjs_8c.html#a1782043fce951bd4f0d91c7796b31e24" target="_top" xlink:title=" ">
<polygon fill="none" stroke="red" points="426,-228.5 426,-247.5 513,-247.5 513,-228.5 426,-228.5"/>
<text text-anchor="middle" x="469.5" y="-235.5" font-family="Helvetica,sans-Serif" font-size="10.00">close_var_refs</text>
</a>
</g>
</g>
<!-- Node3&#45;&gt;Node249 -->
<g id="edge14" class="edge">
<title>Node3&#45;&gt;Node249</title>
<path fill="none" stroke="midnightblue" d="M308.68,-437.38C314.66,-406.19 337.82,-307.04 398,-257 403.3,-252.59 409.54,-249.19 416.07,-246.58"/>
<polygon fill="midnightblue" stroke="midnightblue" points="417.43,-249.82 425.78,-243.29 415.18,-243.19 417.43,-249.82"/>
</g>
<!-- Node54 -->
<g id="node14" class="node">
<title>Node54</title>
<g id="a_node14"><a xlink:href="quickjs_8c.html#a9e7b4bccf927d811b0f99b40b08c0472" target="_top" xlink:title=" ">
<polygon fill="none" stroke="red" points="431.5,-190.5 431.5,-209.5 507.5,-209.5 507.5,-190.5 431.5,-190.5"/>
<text text-anchor="middle" x="469.5" y="-197.5" font-family="Helvetica,sans-Serif" font-size="10.00">free_var_ref</text>
</a>
</g>
</g>
<!-- Node3&#45;&gt;Node54 -->
<g id="edge16" class="edge">
<title>Node3&#45;&gt;Node54</title>
<path fill="none" stroke="midnightblue" d="M307.88,-437.02C311.56,-401.55 328.91,-280.48 398,-219 404.67,-213.06 413.02,-208.95 421.6,-206.12"/>
<polygon fill="midnightblue" stroke="midnightblue" points="422.62,-209.47 431.33,-203.42 420.75,-202.72 422.62,-209.47"/>
</g>
<!-- Node251 -->
<g id="node15" class="node">
<title>Node251</title>
<g id="a_node15"><a xlink:href="cutils_8h.html#a7c82a3ee025fee89db5b11ff5b7691b8" target="_top" xlink:title=" ">
<polygon fill="none" stroke="black" points="443,-152.5 443,-171.5 496,-171.5 496,-152.5 443,-152.5"/>
<text text-anchor="middle" x="469.5" y="-159.5" font-family="Helvetica,sans-Serif" font-size="10.00">get_i16</text>
</a>
</g>
</g>
<!-- Node3&#45;&gt;Node251 -->
<g id="edge17" class="edge">
<title>Node3&#45;&gt;Node251</title>
<path fill="none" stroke="midnightblue" d="M307.23,-437.32C308.69,-398.74 319.42,-254.53 398,-181 407.4,-172.2 420.44,-167.4 432.75,-164.8"/>
<polygon fill="midnightblue" stroke="midnightblue" points="433.54,-168.21 442.82,-163.09 432.38,-161.31 433.54,-168.21"/>
</g>
<!-- Node252 -->
<g id="node16" class="node">
<title>Node252</title>
<g id="a_node16"><a xlink:href="cutils_8h.html#a288ee4e688944e23500af2ecc813c306" target="_top" xlink:title=" ">
<polygon fill="none" stroke="black" points="446,-874.5 446,-893.5 493,-893.5 493,-874.5 446,-874.5"/>
<text text-anchor="middle" x="469.5" y="-881.5" font-family="Helvetica,sans-Serif" font-size="10.00">get_i8</text>
</a>
</g>
</g>
<!-- Node3&#45;&gt;Node252 -->
<g id="edge18" class="edge">
<title>Node3&#45;&gt;Node252</title>
<path fill="none" stroke="midnightblue" d="M308.97,-456.72C321.57,-518.78 390.56,-857.18 398,-865 407.75,-875.24 422.39,-880.16 435.81,-882.46"/>
<polygon fill="midnightblue" stroke="midnightblue" points="435.36,-885.93 445.73,-883.75 436.26,-878.99 435.36,-885.93"/>
</g>
<!-- Node253 -->
<g id="node17" class="node">
<title>Node253</title>
<g id="a_node17"><a xlink:href="cutils_8h.html#ad587834d17e95461893d59661e5e9676" target="_top" xlink:title=" ">
<polygon fill="none" stroke="black" points="441.5,-836.5 441.5,-855.5 497.5,-855.5 497.5,-836.5 441.5,-836.5"/>
<text text-anchor="middle" x="469.5" y="-843.5" font-family="Helvetica,sans-Serif" font-size="10.00">get_u16</text>
</a>
</g>
</g>
<!-- Node3&#45;&gt;Node253 -->
<g id="edge19" class="edge">
<title>Node3&#45;&gt;Node253</title>
<path fill="none" stroke="midnightblue" d="M309.04,-456.76C321.24,-514.85 384.35,-812.96 398,-827 406.77,-836.02 419.33,-840.9 431.43,-843.5"/>
<polygon fill="midnightblue" stroke="midnightblue" points="430.94,-846.96 441.39,-845.18 432.11,-840.06 430.94,-846.96"/>
</g>
<!-- Node50 -->
<g id="node18" class="node">
<title>Node50</title>
<g id="a_node18"><a xlink:href="cutils_8h.html#a941262a5f72fda2ec43ae7911e97a0dc" target="_top" xlink:title=" ">
<polygon fill="none" stroke="black" points="441.5,-798.5 441.5,-817.5 497.5,-817.5 497.5,-798.5 441.5,-798.5"/>
<text text-anchor="middle" x="469.5" y="-805.5" font-family="Helvetica,sans-Serif" font-size="10.00">get_u32</text>
</a>
</g>
</g>
<!-- Node3&#45;&gt;Node50 -->
<g id="edge20" class="edge">
<title>Node3&#45;&gt;Node50</title>
<path fill="none" stroke="midnightblue" d="M308.99,-456.78C319.94,-510.08 373.17,-764.09 398,-789 406.88,-797.91 419.47,-802.76 431.55,-805.37"/>
<polygon fill="midnightblue" stroke="midnightblue" points="431.05,-808.84 441.49,-807.07 432.23,-801.94 431.05,-808.84"/>
</g>
<!-- Node254 -->
<g id="node19" class="node">
<title>Node254</title>
<g id="a_node19"><a xlink:href="quickjs_8c.html#a37fe43b6649456a848bd54846450b995" target="_top" xlink:title=" ">
<polygon fill="none" stroke="red" points="433.5,-684.5 433.5,-703.5 505.5,-703.5 505.5,-684.5 433.5,-684.5"/>
<text text-anchor="middle" x="469.5" y="-691.5" font-family="Helvetica,sans-Serif" font-size="10.00">get_var_ref</text>
</a>
</g>
</g>
<!-- Node3&#45;&gt;Node254 -->
<g id="edge21" class="edge">
<title>Node3&#45;&gt;Node254</title>
<path fill="none" stroke="midnightblue" d="M307.88,-456.98C311.56,-492.45 328.91,-613.52 398,-675 405.09,-681.31 414.07,-685.56 423.22,-688.4"/>
<polygon fill="midnightblue" stroke="midnightblue" points="422.59,-691.85 433.14,-690.98 424.34,-685.08 422.59,-691.85"/>
</g>
<!-- Node197 -->
<g id="node20" class="node">
<title>Node197</title>
<g id="a_node20"><a xlink:href="list_8h.html#a663527a4d757540b2177bef0db1ce5c0" target="_top" xlink:title=" ">
<polygon fill="none" stroke="black" points="428.5,-646.5 428.5,-665.5 510.5,-665.5 510.5,-646.5 428.5,-646.5"/>
<text text-anchor="middle" x="469.5" y="-653.5" font-family="Helvetica,sans-Serif" font-size="10.00">init_list_head</text>
</a>
</g>
</g>
<!-- Node3&#45;&gt;Node197 -->
<g id="edge22" class="edge">
<title>Node3&#45;&gt;Node197</title>
<path fill="none" stroke="midnightblue" d="M308.68,-456.62C314.66,-487.81 337.82,-586.96 398,-637 404.03,-642.01 411.26,-645.72 418.77,-648.44"/>
<polygon fill="midnightblue" stroke="midnightblue" points="417.76,-651.8 428.35,-651.41 419.83,-645.11 417.76,-651.8"/>
</g>
<!-- Node255 -->
<g id="node21" class="node">
<title>Node255</title>
<g id="a_node21"><a xlink:href="quickjs_8c.html#a2bb0a2ca3b8320f3ff778c65034fce49" target="_top" xlink:title=" ">
<polygon fill="none" stroke="red" points="410,-608.5 410,-627.5 529,-627.5 529,-608.5 410,-608.5"/>
<text text-anchor="middle" x="469.5" y="-615.5" font-family="Helvetica,sans-Serif" font-size="10.00">is_backtrace_needed</text>
</a>
</g>
</g>
<!-- Node3&#45;&gt;Node255 -->
<g id="edge23" class="edge">
<title>Node3&#45;&gt;Node255</title>
<path fill="none" stroke="midnightblue" d="M309.89,-456.57C318.52,-483.46 346.72,-560.24 398,-599 400.5,-600.89 403.17,-602.59 405.96,-604.12"/>
<polygon fill="midnightblue" stroke="midnightblue" points="404.66,-607.38 415.2,-608.46 407.64,-601.04 404.66,-607.38"/>
</g>
<!-- Node181 -->
<g id="node22" class="node">
<title>Node181</title>
<g id="a_node22"><a xlink:href="quickjs_8c.html#a686cf78f8b0361621ee2ba6182195c31" target="_top" xlink:title=" ">
<polygon fill="none" stroke="black" points="425.5,-570.5 425.5,-589.5 513.5,-589.5 513.5,-570.5 425.5,-570.5"/>
<text text-anchor="middle" x="469.5" y="-577.5" font-family="Helvetica,sans-Serif" font-size="10.00">is_strict_mode</text>
</a>
</g>
</g>
<!-- Node3&#45;&gt;Node181 -->
<g id="edge24" class="edge">
<title>Node3&#45;&gt;Node181</title>
<path fill="none" stroke="midnightblue" d="M311.9,-456.66C323.61,-478.73 355.43,-533.1 398,-561 403.36,-564.51 409.35,-567.38 415.51,-569.71"/>
<polygon fill="midnightblue" stroke="midnightblue" points="414.68,-573.13 425.27,-572.97 416.89,-566.49 414.68,-573.13"/>
</g>
<!-- Node257 -->
<g id="node23" class="node">
<title>Node257</title>
<g id="a_node23"><a xlink:href="quickjs_8c.html#ae8ff05447c0d51fe277baccf616dc7c6" target="_top" xlink:title=" ">
<polygon fill="none" stroke="red" points="431.5,-456.5 431.5,-475.5 507.5,-475.5 507.5,-456.5 431.5,-456.5"/>
<text text-anchor="middle" x="469.5" y="-463.5" font-family="Helvetica,sans-Serif" font-size="10.00">js_add_slow</text>
</a>
</g>
</g>
<!-- Node3&#45;&gt;Node257 -->
<g id="edge25" class="edge">
<title>Node3&#45;&gt;Node257</title>
<path fill="none" stroke="midnightblue" d="M349.86,-452.04C371.9,-454.63 398.81,-457.8 421.43,-460.46"/>
<polygon fill="midnightblue" stroke="midnightblue" points="421.15,-463.95 431.49,-461.65 421.96,-457 421.15,-463.95"/>
</g>
<!-- Node264 -->
<g id="node24" class="node">
<title>Node264</title>
<g id="a_node24"><a xlink:href="quickjs_8c.html#a6a21784a40b8684f2e779bd460dd13b2" target="_top" xlink:title=" ">
<polygon fill="none" stroke="red" points="430.5,-380.5 430.5,-399.5 508.5,-399.5 508.5,-380.5 430.5,-380.5"/>
<text text-anchor="middle" x="469.5" y="-387.5" font-family="Helvetica,sans-Serif" font-size="10.00">JS_AddBrand</text>
</a>
</g>
</g>
<!-- Node3&#45;&gt;Node264 -->
<g id="edge26" class="edge">
<title>Node3&#45;&gt;Node264</title>
<path fill="none" stroke="midnightblue" d="M327.66,-437.45C345.91,-429.24 373.38,-417.42 398,-409 405.17,-406.55 412.84,-404.2 420.38,-402.05"/>
<polygon fill="midnightblue" stroke="midnightblue" points="421.47,-405.38 430.17,-399.34 419.6,-398.64 421.47,-405.38"/>
</g>
<!-- Node267 -->
<g id="node25" class="node">
<title>Node267</title>
<g id="a_node25"><a xlink:href="quickjs_8c.html#a43208b0746998d2b6b9b8bd1ef8b5f99" target="_top" xlink:title=" ">
<polygon fill="none" stroke="red" points="407,-760.5 407,-779.5 532,-779.5 532,-760.5 407,-760.5"/>
<text text-anchor="middle" x="469.5" y="-767.5" font-family="Helvetica,sans-Serif" font-size="10.00">js_append_enumerate</text>
</a>
</g>
</g>
<!-- Node3&#45;&gt;Node267 -->
<g id="edge29" class="edge">
<title>Node3&#45;&gt;Node267</title>
<path fill="none" stroke="midnightblue" d="M306.95,-456.56C307.28,-497.43 314.04,-659.25 398,-746 401.82,-749.95 406.32,-753.25 411.16,-756"/>
<polygon fill="midnightblue" stroke="midnightblue" points="409.65,-759.16 420.17,-760.4 412.72,-752.87 409.65,-759.16"/>
</g>
<!-- Node296 -->
<g id="node26" class="node">
<title>Node296</title>
<g id="a_node26"><a xlink:href="quickjs_8c.html#ad35594576a14c10812efaf958c99af8a" target="_top" xlink:title=" ">
<polygon fill="none" stroke="red" points="398,-38.5 398,-57.5 541,-57.5 541,-38.5 398,-38.5"/>
<text text-anchor="middle" x="469.5" y="-45.5" font-family="Helvetica,sans-Serif" font-size="10.00">JS_CallConstructorInternal</text>
</a>
</g>
</g>
<!-- Node3&#45;&gt;Node296 -->
<g id="edge33" class="edge">
<title>Node3&#45;&gt;Node296</title>
<path fill="none" stroke="midnightblue" d="M307.77,-437.15C312.64,-384.09 340.6,-136.11 391.6,-65.75"/>
<polygon fill="midnightblue" stroke="midnightblue" points="394.57,-67.66 398.27,-57.73 389.18,-63.18 394.57,-67.66"/>
</g>
<!-- Node3&#45;&gt;Node220 -->
<g id="edge36" class="edge">
<title>Node3&#45;&gt;Node220</title>
<path fill="none" stroke="midnightblue" d="M307.77,-437.23C312.47,-380.22 338.97,-90.99 398,-29 399.26,-27.67 400.61,-26.44 402.02,-25.29"/>
<polygon fill="midnightblue" stroke="midnightblue" points="404.32,-27.96 410.77,-19.55 400.48,-22.11 404.32,-27.96"/>
</g>
<!-- Node3&#45;&gt;Node234 -->
<g id="edge38" class="edge">
<title>Node3&#45;&gt;Node234</title>
<path fill="none" stroke="midnightblue" d="M306.57,-437.46C305.12,-393.59 304.94,-209.25 398,-110 402.81,-104.87 408.77,-100.83 415.16,-97.66"/>
<polygon fill="midnightblue" stroke="midnightblue" points="416.9,-100.72 424.75,-93.6 414.18,-94.27 416.9,-100.72"/>
</g>
<!-- Node3&#45;&gt;Node222 -->
<g id="edge40" class="edge">
<title>Node3&#45;&gt;Node222</title>
<path fill="none" stroke="midnightblue" d="M309.13,-456.78C316.76,-491.89 343.22,-614.91 362,-717 379.85,-814.01 334.24,-860.73 398,-936 401.18,-939.75 404.96,-942.91 409.11,-945.59"/>
<polygon fill="midnightblue" stroke="midnightblue" points="407.58,-948.74 418.04,-950.4 410.9,-942.58 407.58,-948.74"/>
</g>
<!-- Node65&#45;&gt;Node4 -->
<g id="edge8" class="edge">
<title>Node65&#45;&gt;Node4</title>
<path fill="none" stroke="midnightblue" d="M510.83,-545.41C521.85,-548.17 532.95,-552.92 541,-561 560.25,-580.34 599.81,-765.18 612.49,-826.41"/>
<polygon fill="midnightblue" stroke="midnightblue" points="609.09,-827.25 614.54,-836.34 615.95,-825.84 609.09,-827.25"/>
</g>
<!-- Node65&#45;&gt;Node66 -->
<g id="edge9" class="edge">
<title>Node65&#45;&gt;Node66</title>
<path fill="none" stroke="midnightblue" d="M510.74,-548.97C521.04,-551.77 531.79,-555.65 541,-561 566.75,-575.95 589.82,-601.92 603.49,-619.29"/>
<polygon fill="midnightblue" stroke="midnightblue" points="600.9,-621.66 609.75,-627.48 606.46,-617.41 600.9,-621.66"/>
</g>
<!-- Node65&#45;&gt;Node36 -->
<g id="edge10" class="edge">
<title>Node65&#45;&gt;Node36</title>
<path fill="none" stroke="midnightblue" d="M504.62,-532.48C516.43,-528.64 529.56,-523.75 541,-518 561.02,-507.94 581.85,-493.22 596.55,-482.01"/>
<polygon fill="midnightblue" stroke="midnightblue" points="599.11,-484.45 604.85,-475.55 594.81,-478.93 599.11,-484.45"/>
</g>
<!-- Node248&#45;&gt;Node36 -->
<g id="edge13" class="edge">
<title>Node248&#45;&gt;Node36</title>
<path fill="none" stroke="midnightblue" d="M507.34,-437.59C526.35,-442.54 549.73,-448.62 569.97,-453.89"/>
<polygon fill="midnightblue" stroke="midnightblue" points="569.36,-457.35 579.92,-456.48 571.13,-450.57 569.36,-457.35"/>
</g>
<!-- Node264&#45;&gt;Node7 -->
<g id="edge27" class="edge">
<title>Node264&#45;&gt;Node7</title>
<path fill="none" stroke="midnightblue" d="M508.58,-384.99C519.77,-382.19 531.54,-377.82 541,-371 575.02,-346.48 598.04,-301.51 609.04,-276"/>
<polygon fill="midnightblue" stroke="midnightblue" points="612.32,-277.24 612.9,-266.66 605.85,-274.57 612.32,-277.24"/>
</g>
<!-- Node264&#45;&gt;Node36 -->
<g id="edge28" class="edge">
<title>Node264&#45;&gt;Node36</title>
<path fill="none" stroke="midnightblue" d="M508.79,-397.47C519.52,-400.32 530.98,-404.1 541,-409 562.46,-419.5 583.91,-436.47 598.43,-449.17"/>
<polygon fill="midnightblue" stroke="midnightblue" points="596.34,-452 606.12,-456.07 601.02,-446.79 596.34,-452"/>
</g>
<!-- Node267&#45;&gt;Node4 -->
<g id="edge30" class="edge">
<title>Node267&#45;&gt;Node4</title>
<path fill="none" stroke="midnightblue" d="M516.19,-779.56C524.65,-782.1 533.26,-785.21 541,-789 562.46,-799.5 583.91,-816.47 598.43,-829.17"/>
<polygon fill="midnightblue" stroke="midnightblue" points="596.34,-832 606.12,-836.07 601.02,-826.79 596.34,-832"/>
</g>
<!-- Node267&#45;&gt;Node36 -->
<g id="edge31" class="edge">
<title>Node267&#45;&gt;Node36</title>
<path fill="none" stroke="midnightblue" d="M487.47,-760.4C503.49,-750.49 527.09,-733.61 541,-713 554.14,-693.53 596.36,-540.42 611.25,-485.51"/>
<polygon fill="midnightblue" stroke="midnightblue" points="614.68,-486.2 613.91,-475.64 607.93,-484.38 614.68,-486.2"/>
</g>
<!-- Node296&#45;&gt;Node3 -->
<g id="edge34" class="edge">
<title>Node296&#45;&gt;Node3</title>
<path fill="none" stroke="midnightblue" d="M437.5,-57.54C423.69,-60.57 408.25,-65.46 398,-76 347.5,-127.95 317.92,-357.77 309.5,-427.24"/>
<polygon fill="midnightblue" stroke="midnightblue" points="306.02,-426.94 308.3,-437.29 312.97,-427.78 306.02,-426.94"/>
</g>
<!-- Node234&#45;&gt;Node36 -->
<g id="edge39" class="edge">
<title>Node234&#45;&gt;Node36</title>
<path fill="none" stroke="midnightblue" d="M488.08,-95.59C504.33,-105.37 527.87,-122.07 541,-143 549.3,-156.23 597.74,-378.96 612.34,-446.64"/>
<polygon fill="midnightblue" stroke="midnightblue" points="608.92,-447.41 614.45,-456.45 615.77,-445.93 608.92,-447.41"/>
</g>
<!-- Node222&#45;&gt;Node4 -->
<g id="edge41" class="edge">
<title>Node222&#45;&gt;Node4</title>
<path fill="none" stroke="midnightblue" d="M510.71,-950.49C521.11,-946.94 531.93,-942.21 541,-936 569.04,-916.8 592.56,-884.47 605.57,-864.23"/>
<polygon fill="midnightblue" stroke="midnightblue" points="608.61,-865.97 610.93,-855.63 602.67,-862.26 608.61,-865.97"/>
</g>
<!-- Node401&#45;&gt;Node296 -->
<g id="edge43" class="edge">
<title>Node401&#45;&gt;Node296</title>
<path fill="none" stroke="midnightblue" d="M362.13,-48C370.4,-48 379.08,-48 387.75,-48"/>
<polygon fill="midnightblue" stroke="midnightblue" points="387.92,-51.5 397.92,-48 387.92,-44.5 387.92,-51.5"/>
</g>
</g>
</svg>
        <g id="navigator" transform="translate(0 0)" fill="#404254">
                <rect fill="#f2f5e9" fill-opacity="0.5" stroke="#606060" stroke-width=".5" x="0" y="0" width="60" height="60"/>
                <use id="zoomplus" xlink:href="#zoomPlus" x="17" y="9" onmousedown="handleZoom(evt,'in')"/>
                <use id="zoomminus" xlink:href="#zoomMin" x="42" y="9" onmousedown="handleZoom(evt,'out')"/>
                <use id="reset" xlink:href="#resetDef" x="30" y="36" onmousedown="handleReset()"/>
                <g id="arrowUp" xlink:href="#dirArrow" transform="translate(30 24)" onmousedown="handlePan(0,-1)">
                  <use xlink:href="#rim" fill="#404040">
                        <set attributeName="fill" to="#808080" begin="arrowUp.mouseover" end="arrowUp.mouseout"/>
                  </use>
                  <path fill="none" stroke="white" stroke-width="1.5" d="M0,-3.0v7 M-2.5,-0.5L0,-3.0L2.5,-0.5"/>
                </g>
                <g id="arrowRight" xlink:href="#dirArrow" transform="rotate(90) translate(36 -43)" onmousedown="handlePan(1,0)">
                  <use xlink:href="#rim" fill="#404040">
                        <set attributeName="fill" to="#808080" begin="arrowRight.mouseover" end="arrowRight.mouseout"/>
                  </use>
                  <path fill="none" stroke="white" stroke-width="1.5" d="M0,-3.0v7 M-2.5,-0.5L0,-3.0L2.5,-0.5"/>
                </g>
                <g id="arrowDown" xlink:href="#dirArrow" transform="rotate(180) translate(-30 -48)" onmousedown="handlePan(0,1)">
                  <use xlink:href="#rim" fill="#404040">
                        <set attributeName="fill" to="#808080" begin="arrowDown.mouseover" end="arrowDown.mouseout"/>
                  </use>
                  <path fill="none" stroke="white" stroke-width="1.5" d="M0,-3.0v7 M-2.5,-0.5L0,-3.0L2.5,-0.5"/>
                </g>
                <g id="arrowLeft" xlink:href="#dirArrow" transform="rotate(270) translate(-36 17)" onmousedown="handlePan(-1,0)">
                  <use xlink:href="#rim" fill="#404040">
                        <set attributeName="fill" to="#808080" begin="arrowLeft.mouseover" end="arrowLeft.mouseout"/>
                  </use>
                  <path fill="none" stroke="white" stroke-width="1.5" d="M0,-3.0v7 M-2.5,-0.5L0,-3.0L2.5,-0.5"/>
                </g>
        </g>
        <svg viewBox="0 0 15 15" width="100%" height="30px" preserveAspectRatio="xMaxYMin meet">
         <g id="arrow_out" transform="scale(0.3 0.3)">
          <a xlink:href="quickjs_8c_afd4ef2d701fa0702f321925b61c57bbf_cgraph_org.svg" target="_base">
           <rect id="button" ry="5" rx="5" y="6" x="6" height="38" width="38"
                fill="#f2f5e9" fill-opacity="0.5" stroke="#606060" stroke-width="1.0"/>
           <path id="arrow"
             d="M 11.500037,31.436501 C 11.940474,20.09759 22.043105,11.32322 32.158766,21.979434 L 37.068811,17.246167 C 37.068811,17.246167 37.088388,32 37.088388,32 L 22.160133,31.978069 C 22.160133,31.978069 26.997745,27.140456 26.997745,27.140456 C 18.528582,18.264221 13.291696,25.230495 11.500037,31.436501 z"
             style="fill:#404040;"/>
          </a>
         </g>
        </svg>
</svg>
