<?xml version="1.0" encoding="UTF-8" standalone="no"?>
<!DOCTYPE svg PUBLIC "-//W3C//DTD SVG 1.1//EN"
 "http://www.w3.org/Graphics/SVG/1.1/DTD/svg11.dtd">
<!-- Generated by graphviz version 2.43.0 (0)
 -->
<!-- Title: __attribute__ Pages: 1 -->
<svg width="572pt" height="948pt"
 viewBox="0.00 0.00 572.00 948.00" xmlns="http://www.w3.org/2000/svg" xmlns:xlink="http://www.w3.org/1999/xlink">
<g id="graph0" class="graph" transform="scale(1 1) rotate(0) translate(4 944)">
<title>__attribute__</title>
<!-- Node1 -->
<g id="node1" class="node">
<title>Node1</title>
<g id="a_node1"><a xlink:title=" ">
<polygon fill="#bfbfbf" stroke="black" points="484,-402.5 484,-421.5 564,-421.5 564,-402.5 484,-402.5"/>
<text text-anchor="middle" x="524" y="-409.5" font-family="Helvetica,sans-Serif" font-size="10.00">__attribute__</text>
</a>
</g>
</g>
<!-- Node2 -->
<g id="node2" class="node">
<title>Node2</title>
<g id="a_node2"><a xlink:href="quickjs_8c.html#a9d376a5d1dfcd4a3a0c901bb62e2ff96" target="_top" xlink:title=" ">
<polygon fill="none" stroke="black" points="327,-630.5 327,-649.5 438,-649.5 438,-630.5 327,-630.5"/>
<text text-anchor="middle" x="382.5" y="-637.5" font-family="Helvetica,sans-Serif" font-size="10.00">__js_poll_interrupts</text>
</a>
</g>
</g>
<!-- Node1&#45;&gt;Node2 -->
<g id="edge1" class="edge">
<title>Node1&#45;&gt;Node2</title>
<path fill="none" stroke="midnightblue" d="M521.18,-431.67C516.45,-471.76 500.22,-563.57 448,-616 441.68,-622.35 433.52,-627.04 425.15,-630.49"/>
<polygon fill="midnightblue" stroke="midnightblue" points="524.67,-431.91 522.25,-421.6 517.71,-431.17 524.67,-431.91"/>
</g>
<!-- Node6 -->
<g id="node4" class="node">
<title>Node6</title>
<g id="a_node4"><a xlink:href="quickjs_8c.html#ac2894ff4edcdb4e6841bcce9c76081e3" target="_top" xlink:title=" ">
<polygon fill="none" stroke="red" points="12,-554.5 12,-573.5 99,-573.5 99,-554.5 12,-554.5"/>
<text text-anchor="middle" x="55.5" y="-561.5" font-family="Helvetica,sans-Serif" font-size="10.00">JS_CallInternal</text>
</a>
</g>
</g>
<!-- Node1&#45;&gt;Node6 -->
<g id="edge25" class="edge">
<title>Node1&#45;&gt;Node6</title>
<path fill="none" stroke="midnightblue" d="M520.37,-431.94C514.52,-467.43 496.85,-540.9 448,-574 331.49,-652.95 147.43,-597.68 81.23,-573.64"/>
<polygon fill="midnightblue" stroke="midnightblue" points="523.86,-432.26 521.88,-421.86 516.94,-431.23 523.86,-432.26"/>
</g>
<!-- Node616 -->
<g id="node5" class="node">
<title>Node616</title>
<g id="a_node5"><a xlink:href="quickjs_8c.html#aff573513d994f4e9ad7b0430c03ddc3d" target="_top" xlink:title=" ">
<polygon fill="none" stroke="black" points="354.5,-736.5 354.5,-755.5 410.5,-755.5 410.5,-736.5 354.5,-736.5"/>
<text text-anchor="middle" x="382.5" y="-743.5" font-family="Helvetica,sans-Serif" font-size="10.00">add_arg</text>
</a>
</g>
</g>
<!-- Node1&#45;&gt;Node616 -->
<g id="edge5" class="edge">
<title>Node1&#45;&gt;Node616</title>
<path fill="none" stroke="midnightblue" d="M520.87,-431.8C513.82,-493.94 489.25,-683.52 448,-727 438.36,-737.16 423.58,-741.97 410.61,-744.22"/>
<polygon fill="midnightblue" stroke="midnightblue" points="524.36,-432.07 521.99,-421.74 517.41,-431.3 524.36,-432.07"/>
</g>
<!-- Node617 -->
<g id="node7" class="node">
<title>Node617</title>
<g id="a_node7"><a xlink:href="quickjs_8c.html#a9f64fb61a20cee1cad0eb2680624e341" target="_top" xlink:title=" ">
<polygon fill="none" stroke="black" points="334.5,-857.5 334.5,-876.5 430.5,-876.5 430.5,-857.5 334.5,-857.5"/>
<text text-anchor="middle" x="382.5" y="-864.5" font-family="Helvetica,sans-Serif" font-size="10.00">add_closure_var</text>
</a>
</g>
</g>
<!-- Node1&#45;&gt;Node617 -->
<g id="edge7" class="edge">
<title>Node1&#45;&gt;Node617</title>
<path fill="none" stroke="midnightblue" d="M523.22,-432.12C523.05,-492.23 516.54,-674.32 448,-803 435.69,-826.11 412.22,-846.16 397.25,-857.4"/>
<polygon fill="midnightblue" stroke="midnightblue" points="526.72,-431.76 523.18,-421.77 519.72,-431.79 526.72,-431.76"/>
</g>
<!-- Node623 -->
<g id="node9" class="node">
<title>Node623</title>
<g id="a_node9"><a xlink:href="quickjs_8c.html#ab2e0855c4317f8e3b05c0a091bc43a29" target="_top" xlink:title=" ">
<polygon fill="none" stroke="red" points="354.5,-774.5 354.5,-793.5 410.5,-793.5 410.5,-774.5 354.5,-774.5"/>
<text text-anchor="middle" x="382.5" y="-781.5" font-family="Helvetica,sans-Serif" font-size="10.00">add_var</text>
</a>
</g>
</g>
<!-- Node1&#45;&gt;Node623 -->
<g id="edge10" class="edge">
<title>Node1&#45;&gt;Node623</title>
<path fill="none" stroke="midnightblue" d="M521.45,-431.52C515.76,-498.17 493.97,-715.34 448,-765 438.48,-775.28 423.72,-780.1 410.71,-782.31"/>
<polygon fill="midnightblue" stroke="midnightblue" points="524.94,-431.78 522.27,-421.53 517.96,-431.2 524.94,-431.78"/>
</g>
<!-- Node354 -->
<g id="node15" class="node">
<title>Node354</title>
<g id="a_node15"><a xlink:href="quickjs_8c.html#a4956f45ffd2849b96dc051277264f87a" target="_top" xlink:title=" ">
<polygon fill="none" stroke="red" points="173,-554.5 173,-573.5 255,-573.5 255,-554.5 173,-554.5"/>
<text text-anchor="middle" x="214" y="-561.5" font-family="Helvetica,sans-Serif" font-size="10.00">build_arg_list</text>
</a>
</g>
</g>
<!-- Node1&#45;&gt;Node354 -->
<g id="edge20" class="edge">
<title>Node1&#45;&gt;Node354</title>
<path fill="none" stroke="midnightblue" d="M518.34,-431.23C509.93,-461.28 489.16,-518.65 448,-545 389.38,-582.52 304.73,-578.3 255.24,-571.42"/>
<polygon fill="midnightblue" stroke="midnightblue" points="521.74,-432.06 520.89,-421.5 514.97,-430.29 521.74,-432.06"/>
</g>
<!-- Node633 -->
<g id="node16" class="node">
<title>Node633</title>
<g id="a_node16"><a xlink:href="quickjs_8c.html#a8cdae63a2cea1f6df8105adc6e2d03d0" target="_top" xlink:title=" ">
<polygon fill="none" stroke="red" points="156,-461.5 156,-480.5 272,-480.5 272,-461.5 156,-461.5"/>
<text text-anchor="middle" x="214" y="-468.5" font-family="Helvetica,sans-Serif" font-size="10.00">compute_stack_size</text>
</a>
</g>
</g>
<!-- Node1&#45;&gt;Node633 -->
<g id="edge22" class="edge">
<title>Node1&#45;&gt;Node633</title>
<path fill="none" stroke="midnightblue" d="M473.75,-412.66C431.62,-414.15 369.62,-418.52 317,-431 287.2,-438.07 254.54,-452.07 234.4,-461.48"/>
<polygon fill="midnightblue" stroke="midnightblue" points="473.86,-416.16 483.75,-412.35 473.64,-409.17 473.86,-416.16"/>
</g>
<!-- Node71 -->
<g id="node17" class="node">
<title>Node71</title>
<g id="a_node17"><a xlink:href="quickjs_8c.html#a43208b0746998d2b6b9b8bd1ef8b5f99" target="_top" xlink:title=" ">
<polygon fill="none" stroke="black" points="151.5,-361.5 151.5,-380.5 276.5,-380.5 276.5,-361.5 151.5,-361.5"/>
<text text-anchor="middle" x="214" y="-368.5" font-family="Helvetica,sans-Serif" font-size="10.00">js_append_enumerate</text>
</a>
</g>
</g>
<!-- Node1&#45;&gt;Node71 -->
<g id="edge23" class="edge">
<title>Node1&#45;&gt;Node71</title>
<path fill="none" stroke="midnightblue" d="M522.84,-392.22C521.28,-349.15 510.8,-247.19 448,-203 400.38,-169.5 367.74,-174.45 317,-203 253.66,-238.64 225.11,-331.28 217.31,-361.39"/>
<polygon fill="midnightblue" stroke="midnightblue" points="519.34,-392.36 523.07,-402.28 526.34,-392.2 519.34,-392.36"/>
</g>
<!-- Node634 -->
<g id="node18" class="node">
<title>Node634</title>
<g id="a_node18"><a xlink:href="quickjs_8c.html#aa864584f81729321ec9d527d6362c633" target="_top" xlink:title=" ">
<polygon fill="none" stroke="red" points="333,-478.5 333,-497.5 432,-497.5 432,-478.5 333,-478.5"/>
<text text-anchor="middle" x="382.5" y="-485.5" font-family="Helvetica,sans-Serif" font-size="10.00">JS_ConcatString1</text>
</a>
</g>
</g>
<!-- Node1&#45;&gt;Node634 -->
<g id="edge26" class="edge">
<title>Node1&#45;&gt;Node634</title>
<path fill="none" stroke="midnightblue" d="M505,-428.7C490.55,-441.33 469.23,-458.27 448,-469 440.6,-472.74 432.35,-475.87 424.28,-478.43"/>
<polygon fill="midnightblue" stroke="midnightblue" points="507.54,-431.12 512.66,-421.85 502.87,-425.91 507.54,-431.12"/>
</g>
<!-- Node635 -->
<g id="node19" class="node">
<title>Node635</title>
<g id="a_node19"><a xlink:href="quickjs_8c.html#ac34cc554aab1e98c45a7f845fff64385" target="_top" xlink:title=" ">
<polygon fill="none" stroke="red" points="333.5,-440.5 333.5,-459.5 431.5,-459.5 431.5,-440.5 333.5,-440.5"/>
<text text-anchor="middle" x="382.5" y="-447.5" font-family="Helvetica,sans-Serif" font-size="10.00">JS_NewStringLen</text>
</a>
</g>
</g>
<!-- Node1&#45;&gt;Node635 -->
<g id="edge27" class="edge">
<title>Node1&#45;&gt;Node635</title>
<path fill="none" stroke="midnightblue" d="M478.04,-424.25C458.82,-429.48 436.7,-435.51 418.69,-440.41"/>
<polygon fill="midnightblue" stroke="midnightblue" points="479.07,-427.59 487.8,-421.59 477.23,-420.84 479.07,-427.59"/>
</g>
<!-- Node201 -->
<g id="node20" class="node">
<title>Node201</title>
<g id="a_node20"><a xlink:href="quickjs_8c.html#a26be546cf89c4580ba9020e8fc43a759" target="_top" xlink:title=" ">
<polygon fill="none" stroke="red" points="319,-669 319,-699 446,-699 446,-669 319,-669"/>
<text text-anchor="start" x="327" y="-687" font-family="Helvetica,sans-Serif" font-size="10.00">js_parse_destructuring</text>
<text text-anchor="middle" x="382.5" y="-676" font-family="Helvetica,sans-Serif" font-size="10.00">_element</text>
</a>
</g>
</g>
<!-- Node1&#45;&gt;Node201 -->
<g id="edge28" class="edge">
<title>Node1&#45;&gt;Node201</title>
<path fill="none" stroke="midnightblue" d="M522.58,-432.18C520.56,-478.39 509.25,-592.97 448,-659 444.41,-662.87 440.14,-666.15 435.54,-668.93"/>
<polygon fill="midnightblue" stroke="midnightblue" points="526.09,-432.09 522.93,-421.98 519.09,-431.85 526.09,-432.09"/>
</g>
<!-- Node140 -->
<g id="node21" class="node">
<title>Node140</title>
<g id="a_node21"><a xlink:href="quickjs_8c.html#a9eb2d90f27f684820f9de13189502b7c" target="_top" xlink:title=" ">
<polygon fill="none" stroke="red" points="336.5,-364.5 336.5,-383.5 428.5,-383.5 428.5,-364.5 336.5,-364.5"/>
<text text-anchor="middle" x="382.5" y="-371.5" font-family="Helvetica,sans-Serif" font-size="10.00">js_regexp_exec</text>
</a>
</g>
</g>
<!-- Node1&#45;&gt;Node140 -->
<g id="edge31" class="edge">
<title>Node1&#45;&gt;Node140</title>
<path fill="none" stroke="midnightblue" d="M478.04,-399.75C458.82,-394.52 436.7,-388.49 418.69,-383.59"/>
<polygon fill="midnightblue" stroke="midnightblue" points="477.23,-403.16 487.8,-402.41 479.07,-396.41 477.23,-403.16"/>
</g>
<!-- Node147 -->
<g id="node22" class="node">
<title>Node147</title>
<g id="a_node22"><a xlink:href="quickjs_8c.html#a14fa3c10f581e1cd38b349913f47fb43" target="_top" xlink:title=" ">
<polygon fill="none" stroke="red" points="332.5,-326.5 332.5,-345.5 432.5,-345.5 432.5,-326.5 332.5,-326.5"/>
<text text-anchor="middle" x="382.5" y="-333.5" font-family="Helvetica,sans-Serif" font-size="10.00">JS_RegExpDelete</text>
</a>
</g>
</g>
<!-- Node1&#45;&gt;Node147 -->
<g id="edge32" class="edge">
<title>Node1&#45;&gt;Node147</title>
<path fill="none" stroke="midnightblue" d="M505,-395.3C490.55,-382.67 469.23,-365.73 448,-355 440.6,-351.26 432.35,-348.13 424.28,-345.57"/>
<polygon fill="midnightblue" stroke="midnightblue" points="502.87,-398.09 512.66,-402.15 507.54,-392.88 502.87,-398.09"/>
</g>
<!-- Node510 -->
<g id="node23" class="node">
<title>Node510</title>
<g id="a_node23"><a xlink:href="quickjs_8c.html#afe038ef522a8c7c8862cfe18a0c0a785" target="_top" xlink:title=" ">
<polygon fill="none" stroke="black" points="342,-288.5 342,-307.5 423,-307.5 423,-288.5 342,-288.5"/>
<text text-anchor="middle" x="382.5" y="-295.5" font-family="Helvetica,sans-Serif" font-size="10.00">js_string_pad</text>
</a>
</g>
</g>
<!-- Node1&#45;&gt;Node510 -->
<g id="edge33" class="edge">
<title>Node1&#45;&gt;Node510</title>
<path fill="none" stroke="midnightblue" d="M513.12,-393.47C500.71,-371.96 477.44,-336.9 448,-317 440.55,-311.97 431.75,-308.24 423.08,-305.49"/>
<polygon fill="midnightblue" stroke="midnightblue" points="510.11,-395.27 518.04,-402.3 516.23,-391.86 510.11,-395.27"/>
</g>
<!-- Node521 -->
<g id="node24" class="node">
<title>Node521</title>
<g id="a_node24"><a xlink:href="quickjs_8c.html#a0f6f437eaf0cabf7d3e31f8306ed7e02" target="_top" xlink:title=" ">
<polygon fill="none" stroke="black" points="335,-250.5 335,-269.5 430,-269.5 430,-250.5 335,-250.5"/>
<text text-anchor="middle" x="382.5" y="-257.5" font-family="Helvetica,sans-Serif" font-size="10.00">js_string_repeat</text>
</a>
</g>
</g>
<!-- Node1&#45;&gt;Node521 -->
<g id="edge34" class="edge">
<title>Node1&#45;&gt;Node521</title>
<path fill="none" stroke="midnightblue" d="M517.25,-392.51C507.68,-363.45 485.71,-309 448,-279 442.7,-274.79 436.49,-271.51 430.06,-268.95"/>
<polygon fill="midnightblue" stroke="midnightblue" points="513.99,-393.8 520.32,-402.3 520.67,-391.71 513.99,-393.8"/>
</g>
<!-- Node692 -->
<g id="node25" class="node">
<title>Node692</title>
<g id="a_node25"><a xlink:href="quickjs_8c.html#a344d6c0e45d9bf3861fd9269724045a2" target="_top" xlink:title=" ">
<polygon fill="none" stroke="red" points="317.5,-212.5 317.5,-231.5 447.5,-231.5 447.5,-212.5 317.5,-212.5"/>
<text text-anchor="middle" x="382.5" y="-219.5" font-family="Helvetica,sans-Serif" font-size="10.00">JS_ThrowOutOfMemory</text>
</a>
</g>
</g>
<!-- Node1&#45;&gt;Node692 -->
<g id="edge35" class="edge">
<title>Node1&#45;&gt;Node692</title>
<path fill="none" stroke="midnightblue" d="M519.87,-392.1C513.23,-356.49 494.32,-281.79 448,-241 443.62,-237.14 438.49,-234.07 433.07,-231.62"/>
<polygon fill="midnightblue" stroke="midnightblue" points="516.47,-392.94 521.62,-402.2 523.36,-391.75 516.47,-392.94"/>
</g>
<!-- Node762 -->
<g id="node26" class="node">
<title>Node762</title>
<g id="a_node26"><a xlink:href="quickjs_8c.html#a8353f635fb8a20553c08db8cf38c17e0" target="_top" xlink:title=" ">
<polygon fill="none" stroke="red" points="317,-136.5 317,-155.5 448,-155.5 448,-136.5 317,-136.5"/>
<text text-anchor="middle" x="382.5" y="-143.5" font-family="Helvetica,sans-Serif" font-size="10.00">JS_ThrowStackOverflow</text>
</a>
</g>
</g>
<!-- Node1&#45;&gt;Node762 -->
<g id="edge36" class="edge">
<title>Node1&#45;&gt;Node762</title>
<path fill="none" stroke="midnightblue" d="M522.51,-392.16C520.34,-346.75 508.74,-234.22 448,-170 442.01,-163.66 434.19,-158.99 426.07,-155.54"/>
<polygon fill="midnightblue" stroke="midnightblue" points="519.02,-392.33 522.89,-402.19 526.01,-392.07 519.02,-392.33"/>
</g>
<!-- Node358 -->
<g id="node27" class="node">
<title>Node358</title>
<g id="a_node27"><a xlink:href="quickjs_8c.html#aa9342f7444c1c9f8743d43aa4d7f89e3" target="_top" xlink:title=" ">
<polygon fill="none" stroke="red" points="160.5,-87.5 160.5,-106.5 267.5,-106.5 267.5,-87.5 160.5,-87.5"/>
<text text-anchor="middle" x="214" y="-94.5" font-family="Helvetica,sans-Serif" font-size="10.00">JS_WriteObjectRec</text>
</a>
</g>
</g>
<!-- Node1&#45;&gt;Node358 -->
<g id="edge40" class="edge">
<title>Node1&#45;&gt;Node358</title>
<path fill="none" stroke="midnightblue" d="M521.85,-392.41C517.5,-325.6 499.54,-108.54 448,-67 383.06,-14.66 273.19,-65.09 231.61,-87.49"/>
<polygon fill="midnightblue" stroke="midnightblue" points="518.36,-392.67 522.48,-402.43 525.35,-392.24 518.36,-392.67"/>
</g>
<!-- Node764 -->
<g id="node28" class="node">
<title>Node764</title>
<g id="a_node28"><a xlink:href="structqjs_1_1js__traits_3_01std_1_1shared__ptr_3_01T_01_4_01_4.html#af3558afeef079826c58411353c8ccce0" target="_top" xlink:title="Register class in QuickJS context.">
<polygon fill="none" stroke="red" points="325.5,-76.5 325.5,-117.5 439.5,-117.5 439.5,-76.5 325.5,-76.5"/>
<text text-anchor="start" x="333.5" y="-105.5" font-family="Helvetica,sans-Serif" font-size="10.00">qjs::js_traits&lt; std</text>
<text text-anchor="start" x="333.5" y="-94.5" font-family="Helvetica,sans-Serif" font-size="10.00">::shared_ptr&lt; T &gt; &gt;</text>
<text text-anchor="middle" x="382.5" y="-83.5" font-family="Helvetica,sans-Serif" font-size="10.00">::register_class</text>
</a>
</g>
</g>
<!-- Node1&#45;&gt;Node764 -->
<g id="edge41" class="edge">
<title>Node1&#45;&gt;Node764</title>
<path fill="none" stroke="midnightblue" d="M523.27,-392.18C522.9,-341.86 515.29,-207.48 448,-127 445.07,-123.49 441.64,-120.38 437.91,-117.6"/>
<polygon fill="midnightblue" stroke="midnightblue" points="519.77,-392.33 523.24,-402.34 526.77,-392.35 519.77,-392.33"/>
</g>
<!-- Node760 -->
<g id="node29" class="node">
<title>Node760</title>
<g id="a_node29"><a xlink:href="quickjs_8c.html#ae45b122556638f15e903dc36708dbe20" target="_top" xlink:title=" ">
<polygon fill="none" stroke="black" points="352,-516.5 352,-535.5 413,-535.5 413,-516.5 352,-516.5"/>
<text text-anchor="middle" x="382.5" y="-523.5" font-family="Helvetica,sans-Serif" font-size="10.00">ss_check</text>
</a>
</g>
</g>
<!-- Node1&#45;&gt;Node760 -->
<g id="edge42" class="edge">
<title>Node1&#45;&gt;Node760</title>
<path fill="none" stroke="midnightblue" d="M513.12,-430.53C500.71,-452.04 477.44,-487.1 448,-507 437.65,-514 424.69,-518.46 413.1,-521.29"/>
<polygon fill="midnightblue" stroke="midnightblue" points="516.23,-432.14 518.04,-421.7 510.11,-428.73 516.23,-432.14"/>
</g>
<!-- Node765 -->
<g id="node30" class="node">
<title>Node765</title>
<g id="a_node30"><a xlink:href="quickjs_8c.html#a317ccdca83843c76330ace89fb055b56" target="_top" xlink:title=" ">
<polygon fill="none" stroke="red" points="324.5,-0.5 324.5,-19.5 440.5,-19.5 440.5,-0.5 324.5,-0.5"/>
<text text-anchor="middle" x="382.5" y="-7.5" font-family="Helvetica,sans-Serif" font-size="10.00">string_buffer_realloc</text>
</a>
</g>
</g>
<!-- Node1&#45;&gt;Node765 -->
<g id="edge44" class="edge">
<title>Node1&#45;&gt;Node765</title>
<path fill="none" stroke="midnightblue" d="M521.58,-392.13C516.21,-322.28 495.04,-89.26 448,-34 442.58,-27.63 435.3,-22.95 427.58,-19.51"/>
<polygon fill="midnightblue" stroke="midnightblue" points="518.1,-392.51 522.33,-402.22 525.08,-391.99 518.1,-392.51"/>
</g>
<!-- Node3 -->
<g id="node3" class="node">
<title>Node3</title>
<g id="a_node3"><a xlink:href="quickjs_8c.html#a246e337d6566552736209730827c0871" target="_top" xlink:title=" ">
<polygon fill="none" stroke="red" points="163.5,-630.5 163.5,-649.5 264.5,-649.5 264.5,-630.5 163.5,-630.5"/>
<text text-anchor="middle" x="214" y="-637.5" font-family="Helvetica,sans-Serif" font-size="10.00">js_poll_interrupts</text>
</a>
</g>
</g>
<!-- Node2&#45;&gt;Node3 -->
<g id="edge2" class="edge">
<title>Node2&#45;&gt;Node3</title>
<path fill="none" stroke="midnightblue" d="M316.9,-640C299.52,-640 281,-640 264.58,-640"/>
<polygon fill="midnightblue" stroke="midnightblue" points="316.98,-643.5 326.98,-640 316.98,-636.5 316.98,-643.5"/>
</g>
<!-- Node3&#45;&gt;Node6 -->
<g id="edge3" class="edge">
<title>Node3&#45;&gt;Node6</title>
<path fill="none" stroke="midnightblue" d="M173.85,-627.03C164.9,-623.72 155.53,-619.96 147,-616 119.39,-603.17 89.05,-584.78 71.44,-573.66"/>
<polygon fill="midnightblue" stroke="midnightblue" points="172.72,-630.34 183.32,-630.43 175.09,-623.76 172.72,-630.34"/>
</g>
<!-- Node6&#45;&gt;Node6 -->
<g id="edge4" class="edge">
<title>Node6&#45;&gt;Node6</title>
<path fill="none" stroke="midnightblue" d="M84.99,-582.65C83.76,-587.94 73.93,-592 55.5,-592 27.42,-592 19.3,-582.57 31.15,-573.76"/>
<polygon fill="midnightblue" stroke="midnightblue" points="87.89,-580.66 79.85,-573.76 81.82,-584.17 87.89,-580.66"/>
</g>
<!-- Node192 -->
<g id="node6" class="node">
<title>Node192</title>
<g id="a_node6"><a xlink:href="quickjs_8c.html#acc9eb677cab8dfcf45f59381f8a19601" target="_top" xlink:title=" ">
<polygon fill="none" stroke="red" points="147,-674.5 147,-693.5 281,-693.5 281,-674.5 147,-674.5"/>
<text text-anchor="middle" x="214" y="-681.5" font-family="Helvetica,sans-Serif" font-size="10.00">js_parse_function_decl2</text>
</a>
</g>
</g>
<!-- Node616&#45;&gt;Node192 -->
<g id="edge6" class="edge">
<title>Node616&#45;&gt;Node192</title>
<path fill="none" stroke="midnightblue" d="M344.72,-737.24C335.47,-734.48 325.7,-731.07 317,-727 299.58,-718.86 298.45,-711.09 281,-703 273,-699.29 264.1,-696.14 255.51,-693.53"/>
<polygon fill="midnightblue" stroke="midnightblue" points="343.9,-740.65 354.48,-739.98 345.8,-733.91 343.9,-740.65"/>
</g>
<!-- Node618 -->
<g id="node8" class="node">
<title>Node618</title>
<g id="a_node8"><a xlink:href="quickjs_8c.html#a4671a759c33274b073d0578ac62261e0" target="_top" xlink:title=" ">
<polygon fill="none" stroke="red" points="164,-902.5 164,-921.5 264,-921.5 264,-902.5 164,-902.5"/>
<text text-anchor="middle" x="214" y="-909.5" font-family="Helvetica,sans-Serif" font-size="10.00">get_closure_var2</text>
</a>
</g>
</g>
<!-- Node617&#45;&gt;Node618 -->
<g id="edge8" class="edge">
<title>Node617&#45;&gt;Node618</title>
<path fill="none" stroke="midnightblue" d="M336.19,-879.25C309.14,-886.56 275.3,-895.7 250.26,-902.47"/>
<polygon fill="midnightblue" stroke="midnightblue" points="337.45,-882.53 346.19,-876.54 335.62,-875.77 337.45,-882.53"/>
</g>
<!-- Node618&#45;&gt;Node618 -->
<g id="edge9" class="edge">
<title>Node618&#45;&gt;Node618</title>
<path fill="none" stroke="midnightblue" d="M243.49,-930.65C242.26,-935.94 232.43,-940 214,-940 185.92,-940 177.8,-930.57 189.65,-921.76"/>
<polygon fill="midnightblue" stroke="midnightblue" points="246.39,-928.66 238.35,-921.76 240.32,-932.17 246.39,-928.66"/>
</g>
<!-- Node623&#45;&gt;Node192 -->
<g id="edge19" class="edge">
<title>Node623&#45;&gt;Node192</title>
<path fill="none" stroke="midnightblue" d="M344.42,-778.2C334.79,-775.39 324.91,-771.21 317,-765 291.94,-745.32 306.12,-722.6 281,-703 276.02,-699.11 270.27,-696.02 264.29,-693.56"/>
<polygon fill="midnightblue" stroke="midnightblue" points="343.73,-781.64 354.28,-780.67 345.43,-774.85 343.73,-781.64"/>
</g>
<!-- Node624 -->
<g id="node10" class="node">
<title>Node624</title>
<g id="a_node10"><a xlink:href="quickjs_8c.html#a2bfa1a7eb92eca442a25cf6726a0b19d" target="_top" xlink:title=" ">
<polygon fill="none" stroke="black" points="157.5,-712.5 157.5,-731.5 270.5,-731.5 270.5,-712.5 157.5,-712.5"/>
<text text-anchor="middle" x="214" y="-719.5" font-family="Helvetica,sans-Serif" font-size="10.00">add_arguments_arg</text>
</a>
</g>
</g>
<!-- Node623&#45;&gt;Node624 -->
<g id="edge11" class="edge">
<title>Node623&#45;&gt;Node624</title>
<path fill="none" stroke="midnightblue" d="M344.72,-775.24C335.47,-772.48 325.7,-769.07 317,-765 299.58,-756.86 298.45,-749.09 281,-741 273,-737.29 264.1,-734.14 255.51,-731.53"/>
<polygon fill="midnightblue" stroke="midnightblue" points="343.9,-778.65 354.48,-777.98 345.8,-771.91 343.9,-778.65"/>
</g>
<!-- Node620 -->
<g id="node11" class="node">
<title>Node620</title>
<g id="a_node11"><a xlink:href="quickjs_8c.html#a3d84c0bab25b37dbac0b6f3aa7b93e59" target="_top" xlink:title=" ">
<polygon fill="none" stroke="red" points="0,-807.5 0,-826.5 111,-826.5 111,-807.5 0,-807.5"/>
<text text-anchor="middle" x="55.5" y="-814.5" font-family="Helvetica,sans-Serif" font-size="10.00">add_eval_variables</text>
</a>
</g>
</g>
<!-- Node623&#45;&gt;Node620 -->
<g id="edge15" class="edge">
<title>Node623&#45;&gt;Node620</title>
<path fill="none" stroke="midnightblue" d="M365.04,-800.61C346.49,-818.04 314.52,-844.35 281,-855 224.24,-873.03 205.38,-866.76 147,-855 120.1,-849.58 91.24,-835.95 73.53,-826.58"/>
<polygon fill="midnightblue" stroke="midnightblue" points="367.6,-803 372.36,-793.53 362.74,-797.97 367.6,-803"/>
</g>
<!-- Node625 -->
<g id="node12" class="node">
<title>Node625</title>
<g id="a_node12"><a xlink:href="quickjs_8c.html#a868100a32a3062ab6365985bb5c02b7d" target="_top" xlink:title=" ">
<polygon fill="none" stroke="red" points="157.5,-826.5 157.5,-845.5 270.5,-845.5 270.5,-826.5 157.5,-826.5"/>
<text text-anchor="middle" x="214" y="-833.5" font-family="Helvetica,sans-Serif" font-size="10.00">add_arguments_var</text>
</a>
</g>
</g>
<!-- Node623&#45;&gt;Node625 -->
<g id="edge13" class="edge">
<title>Node623&#45;&gt;Node625</title>
<path fill="none" stroke="midnightblue" d="M344.55,-796.49C325.6,-802.81 302.13,-810.49 281,-817 270.63,-820.19 259.29,-823.52 248.99,-826.48"/>
<polygon fill="midnightblue" stroke="midnightblue" points="345.91,-799.73 354.29,-793.24 343.69,-793.09 345.91,-799.73"/>
</g>
<!-- Node626 -->
<g id="node13" class="node">
<title>Node626</title>
<g id="a_node13"><a xlink:href="quickjs_8c.html#afe834031fad358f2fbd7d71cfe8ac19c" target="_top" xlink:title=" ">
<polygon fill="none" stroke="red" points="173,-788.5 173,-807.5 255,-807.5 255,-788.5 173,-788.5"/>
<text text-anchor="middle" x="214" y="-795.5" font-family="Helvetica,sans-Serif" font-size="10.00">add_func_var</text>
</a>
</g>
</g>
<!-- Node623&#45;&gt;Node626 -->
<g id="edge16" class="edge">
<title>Node623&#45;&gt;Node626</title>
<path fill="none" stroke="midnightblue" d="M344.36,-787.12C317.88,-789.35 282.32,-792.34 255.18,-794.62"/>
<polygon fill="midnightblue" stroke="midnightblue" points="344.71,-790.61 354.38,-786.28 344.12,-783.63 344.71,-790.61"/>
</g>
<!-- Node627 -->
<g id="node14" class="node">
<title>Node627</title>
<g id="a_node14"><a xlink:href="quickjs_8c.html#a9a006fc2eb9bbbc399c396d7a1e8d18b" target="_top" xlink:title=" ">
<polygon fill="none" stroke="red" points="169.5,-750.5 169.5,-769.5 258.5,-769.5 258.5,-750.5 169.5,-750.5"/>
<text text-anchor="middle" x="214" y="-757.5" font-family="Helvetica,sans-Serif" font-size="10.00">add_scope_var</text>
</a>
</g>
</g>
<!-- Node623&#45;&gt;Node627 -->
<g id="edge18" class="edge">
<title>Node623&#45;&gt;Node627</title>
<path fill="none" stroke="midnightblue" d="M344.42,-778.65C319.06,-775 285.36,-770.14 258.7,-766.3"/>
<polygon fill="midnightblue" stroke="midnightblue" points="343.98,-782.13 354.38,-780.09 344.98,-775.2 343.98,-782.13"/>
</g>
<!-- Node624&#45;&gt;Node620 -->
<g id="edge12" class="edge">
<title>Node624&#45;&gt;Node620</title>
<path fill="none" stroke="midnightblue" d="M160.45,-734.91C155.8,-736.71 151.25,-738.74 147,-741 113.14,-759.04 80.46,-791.28 65.3,-807.34"/>
<polygon fill="midnightblue" stroke="midnightblue" points="161.81,-738.15 170.07,-731.52 159.48,-731.55 161.81,-738.15"/>
</g>
<!-- Node625&#45;&gt;Node620 -->
<g id="edge14" class="edge">
<title>Node625&#45;&gt;Node620</title>
<path fill="none" stroke="midnightblue" d="M147.38,-828.03C135.32,-826.57 122.84,-825.05 111.15,-823.63"/>
<polygon fill="midnightblue" stroke="midnightblue" points="147.03,-831.52 157.38,-829.25 147.88,-824.57 147.03,-831.52"/>
</g>
<!-- Node626&#45;&gt;Node620 -->
<g id="edge17" class="edge">
<title>Node626&#45;&gt;Node620</title>
<path fill="none" stroke="midnightblue" d="M162.72,-804.1C146.26,-806.1 127.89,-808.33 111.12,-810.37"/>
<polygon fill="midnightblue" stroke="midnightblue" points="163.19,-807.57 172.7,-802.89 162.35,-800.62 163.19,-807.57"/>
</g>
<!-- Node354&#45;&gt;Node6 -->
<g id="edge21" class="edge">
<title>Node354&#45;&gt;Node6</title>
<path fill="none" stroke="midnightblue" d="M162.6,-564C142.13,-564 118.74,-564 99.13,-564"/>
<polygon fill="midnightblue" stroke="midnightblue" points="162.7,-567.5 172.7,-564 162.7,-560.5 162.7,-567.5"/>
</g>
<!-- Node71&#45;&gt;Node6 -->
<g id="edge24" class="edge">
<title>Node71&#45;&gt;Node6</title>
<path fill="none" stroke="midnightblue" d="M198.41,-388.87C185.02,-405.27 164.65,-430.25 147,-452 116.28,-489.85 79.85,-535.02 64.23,-554.4"/>
<polygon fill="midnightblue" stroke="midnightblue" points="201.45,-390.67 205.06,-380.71 196.03,-386.25 201.45,-390.67"/>
</g>
<!-- Node201&#45;&gt;Node192 -->
<g id="edge30" class="edge">
<title>Node201&#45;&gt;Node192</title>
<path fill="none" stroke="midnightblue" d="M308.39,-684C299.31,-684 290.06,-684 281.09,-684"/>
<polygon fill="midnightblue" stroke="midnightblue" points="308.55,-687.5 318.55,-684 308.55,-680.5 308.55,-687.5"/>
</g>
<!-- Node201&#45;&gt;Node201 -->
<g id="edge29" class="edge">
<title>Node201&#45;&gt;Node201</title>
<path fill="none" stroke="midnightblue" d="M407.38,-709.46C404.29,-714.18 396,-717.5 382.5,-717.5 360.35,-717.5 352.22,-708.56 358.1,-699.16"/>
<polygon fill="midnightblue" stroke="midnightblue" points="410.86,-708.99 406.9,-699.16 403.87,-709.31 410.86,-708.99"/>
</g>
<!-- Node762&#45;&gt;Node6 -->
<g id="edge37" class="edge">
<title>Node762&#45;&gt;Node6</title>
<path fill="none" stroke="midnightblue" d="M346.28,-159.55C336.4,-164.1 325.92,-169.65 317,-176 228.43,-239.11 207.12,-261.38 147,-352 99.88,-423.03 68.52,-522.62 59.31,-554.08"/>
<polygon fill="midnightblue" stroke="midnightblue" points="347.75,-162.73 355.51,-155.51 344.95,-156.32 347.75,-162.73"/>
</g>
<!-- Node762&#45;&gt;Node358 -->
<g id="edge38" class="edge">
<title>Node762&#45;&gt;Node358</title>
<path fill="none" stroke="midnightblue" d="M339.3,-133.58C310.76,-125.18 273.64,-114.26 247.42,-106.54"/>
<polygon fill="midnightblue" stroke="midnightblue" points="338.42,-136.97 349,-136.44 340.4,-130.26 338.42,-136.97"/>
</g>
<!-- Node358&#45;&gt;Node358 -->
<g id="edge39" class="edge">
<title>Node358&#45;&gt;Node358</title>
<path fill="none" stroke="midnightblue" d="M243.49,-115.65C242.26,-120.94 232.43,-125 214,-125 185.92,-125 177.8,-115.57 189.65,-106.76"/>
<polygon fill="midnightblue" stroke="midnightblue" points="246.39,-113.66 238.35,-106.76 240.32,-117.17 246.39,-113.66"/>
</g>
<!-- Node760&#45;&gt;Node633 -->
<g id="edge43" class="edge">
<title>Node760&#45;&gt;Node633</title>
<path fill="none" stroke="midnightblue" d="M342.01,-514.73C333.72,-512.26 325.05,-509.61 317,-507 290.91,-498.56 261.41,-488.04 240.86,-480.55"/>
<polygon fill="midnightblue" stroke="midnightblue" points="341.28,-518.16 351.86,-517.62 343.25,-511.44 341.28,-518.16"/>
</g>
</g>
</svg>
