<?xml version="1.0" encoding="UTF-8" standalone="no"?>
<!DOCTYPE svg PUBLIC "-//W3C//DTD SVG 1.1//EN"
 "http://www.w3.org/Graphics/SVG/1.1/DTD/svg11.dtd">
<!-- Generated by graphviz version 2.43.0 (0)
 -->
<!-- Title: js_proxy_getPrototypeOf Pages: 1 -->
<!--zoomable 1057 -->
<svg id="main" version="1.1" xmlns="http://www.w3.org/2000/svg" xmlns:xlink="http://www.w3.org/1999/xlink" xml:space="preserve" onload="init(evt)">
<style type="text/css"><![CDATA[
.edge:hover path { stroke: red; }
.edge:hover polygon { stroke: red; fill: red; }
]]></style>
<script type="text/javascript"><![CDATA[
var edges = document.getElementsByTagName('g');
if (edges && edges.length) {
  for (var i=0;i<edges.length;i++) {
    if (edges[i].id.substr(0,4)=='edge') {
      edges[i].setAttribute('class','edge');
    }
  }
}
]]></script>
        <defs>
                <circle id="rim" cx="0" cy="0" r="7"/>
                <circle id="rim2" cx="0" cy="0" r="3.5"/>
                <g id="zoomPlus">
                        <use xlink:href="#rim" fill="#404040">
                                <set attributeName="fill" to="#808080" begin="zoomplus.mouseover" end="zoomplus.mouseout"/>
                        </use>
                        <path d="M-4,0h8M0,-4v8" fill="none" stroke="white" stroke-width="1.5" pointer-events="none"/>
                </g>
                <g id="zoomMin">
                        <use xlink:href="#rim" fill="#404040">
                                <set attributeName="fill" to="#808080" begin="zoomminus.mouseover" end="zoomminus.mouseout"/>
                        </use>
                        <path d="M-4,0h8" fill="none" stroke="white" stroke-width="1.5" pointer-events="none"/>
                </g>
                <g id="dirArrow">
                        <path fill="none" stroke="white" stroke-width="1.5" d="M0,-3.0v7 M-2.5,-0.5L0,-3.0L2.5,-0.5"/>
                </g>
               <g id="resetDef">
                       <use xlink:href="#rim2" fill="#404040">
                               <set attributeName="fill" to="#808080" begin="reset.mouseover" end="reset.mouseout"/>
                       </use>
               </g>
        </defs>

<script type="text/javascript">
var viewWidth = 868;
var viewHeight = 1057;
var sectionId = 'dynsection-41';
</script>
<script xlink:href="svgpan.js"/>
<svg id="graph" class="graph">
<g id="viewport">
<title>js_proxy_getPrototypeOf</title>
<!-- Node1 -->
<g id="node1" class="node">
<title>Node1</title>
<g id="a_node1"><a xlink:title=" ">
<polygon fill="#bfbfbf" stroke="black" points="0,-123.5 0,-142.5 137,-142.5 137,-123.5 0,-123.5"/>
<text text-anchor="middle" x="68.5" y="-130.5" font-family="Helvetica,sans-Serif" font-size="10.00">js_proxy_getPrototypeOf</text>
</a>
</g>
</g>
<!-- Node2 -->
<g id="node2" class="node">
<title>Node2</title>
<g id="a_node2"><a xlink:href="quickjs_8c.html#a9e94551ddba8762d74eda5127445dbbd" target="_top" xlink:title=" ">
<polygon fill="none" stroke="black" points="299,-893.5 299,-912.5 407,-912.5 407,-893.5 299,-893.5"/>
<text text-anchor="middle" x="353" y="-900.5" font-family="Helvetica,sans-Serif" font-size="10.00">get_proxy_method</text>
</a>
</g>
</g>
<!-- Node1&#45;&gt;Node2 -->
<g id="edge1" class="edge">
<title>Node1&#45;&gt;Node2</title>
<path fill="none" stroke="midnightblue" d="M71.37,-142.55C80.14,-186.71 119.1,-375.26 173,-523 225.47,-666.82 312.26,-830.31 341.79,-884.49"/>
<polygon fill="midnightblue" stroke="midnightblue" points="338.75,-886.21 346.62,-893.3 344.89,-882.85 338.75,-886.21"/>
</g>
<!-- Node5 -->
<g id="node5" class="node">
<title>Node5</title>
<g id="a_node5"><a xlink:href="quickjs_8h.html#ad80a83d73e9b7d872b88fbf2943aebe9" target="_top" xlink:title=" ">
<polygon fill="none" stroke="black" points="643,-950.5 643,-969.5 730,-969.5 730,-950.5 643,-950.5"/>
<text text-anchor="middle" x="686.5" y="-957.5" font-family="Helvetica,sans-Serif" font-size="10.00">JS_IsException</text>
</a>
</g>
</g>
<!-- Node1&#45;&gt;Node5 -->
<g id="edge47" class="edge">
<title>Node1&#45;&gt;Node5</title>
<path fill="none" stroke="midnightblue" d="M69.66,-142.77C71.31,-214.14 89.94,-659.93 299,-922 348.72,-984.33 367.3,-1003.95 443,-1029 505.87,-1049.8 533.61,-1060.25 592,-1029 617.43,-1015.39 604.51,-991.74 628,-975 629.67,-973.81 631.43,-972.71 633.25,-971.71"/>
<polygon fill="midnightblue" stroke="midnightblue" points="635.13,-974.69 642.77,-967.35 632.22,-968.33 635.13,-974.69"/>
</g>
<!-- Node10 -->
<g id="node10" class="node">
<title>Node10</title>
<g id="a_node10"><a xlink:href="quickjs_8c.html#a75f6ee5e4235a7dc99889f3d2eb2c147" target="_top" xlink:title=" ">
<polygon fill="none" stroke="black" points="182.5,-494.5 182.5,-513.5 253.5,-513.5 253.5,-494.5 182.5,-494.5"/>
<text text-anchor="middle" x="218" y="-501.5" font-family="Helvetica,sans-Serif" font-size="10.00">JS_CallFree</text>
</a>
</g>
</g>
<!-- Node1&#45;&gt;Node10 -->
<g id="edge9" class="edge">
<title>Node1&#45;&gt;Node10</title>
<path fill="none" stroke="midnightblue" d="M73.29,-142.54C92.85,-191.74 182.43,-417.04 209.33,-484.72"/>
<polygon fill="midnightblue" stroke="midnightblue" points="206.15,-486.18 213.09,-494.18 212.65,-483.59 206.15,-486.18"/>
</g>
<!-- Node64 -->
<g id="node17" class="node">
<title>Node64</title>
<g id="a_node17"><a xlink:href="quickjs_8h.html#afaa20c47565bc704c6c85f3d77254e7d" target="_top" xlink:title=" ">
<polygon fill="none" stroke="red" points="781,-266.5 781,-285.5 860,-285.5 860,-266.5 781,-266.5"/>
<text text-anchor="middle" x="820.5" y="-273.5" font-family="Helvetica,sans-Serif" font-size="10.00">JS_FreeValue</text>
</a>
</g>
</g>
<!-- Node1&#45;&gt;Node64 -->
<g id="edge45" class="edge">
<title>Node1&#45;&gt;Node64</title>
<path fill="none" stroke="midnightblue" d="M87.77,-123.41C131.89,-101.18 248.29,-48 352,-48 352,-48 352,-48 518.5,-48 633.27,-48 663.04,-91.67 745,-172 771.94,-198.41 795.93,-235.56 809.02,-257.57"/>
<polygon fill="midnightblue" stroke="midnightblue" points="806.03,-259.39 814.09,-266.26 812.08,-255.86 806.03,-259.39"/>
</g>
<!-- Node395 -->
<g id="node28" class="node">
<title>Node395</title>
<g id="a_node28"><a xlink:href="quickjs_8c.html#ad56da91bca3e6259b73d5148126b5099" target="_top" xlink:title=" ">
<polygon fill="none" stroke="red" points="470,-114.5 470,-133.5 565,-133.5 565,-114.5 470,-114.5"/>
<text text-anchor="middle" x="517.5" y="-121.5" font-family="Helvetica,sans-Serif" font-size="10.00">JS_GetPrototype</text>
</a>
</g>
</g>
<!-- Node1&#45;&gt;Node395 -->
<g id="edge46" class="edge">
<title>Node1&#45;&gt;Node395</title>
<path fill="none" stroke="midnightblue" d="M137.39,-126.62C225.45,-122.42 377.51,-119.47 459.74,-120.46"/>
<polygon fill="midnightblue" stroke="midnightblue" points="459.85,-123.97 469.9,-120.61 459.95,-116.97 459.85,-123.97"/>
</g>
<!-- Node131 -->
<g id="node29" class="node">
<title>Node131</title>
<g id="a_node29"><a xlink:href="quickjs_8h.html#a4e407128a9605afb77523e49e9a627fd" target="_top" xlink:title=" ">
<polygon fill="none" stroke="black" points="473,-76.5 473,-95.5 562,-95.5 562,-76.5 473,-76.5"/>
<text text-anchor="middle" x="517.5" y="-83.5" font-family="Helvetica,sans-Serif" font-size="10.00">JS_IsUndefined</text>
</a>
</g>
</g>
<!-- Node1&#45;&gt;Node131 -->
<g id="edge49" class="edge">
<title>Node1&#45;&gt;Node131</title>
<path fill="none" stroke="midnightblue" d="M137.39,-125.86C226.51,-116.49 381.16,-100.23 462.67,-91.66"/>
<polygon fill="midnightblue" stroke="midnightblue" points="463.13,-95.13 472.71,-90.6 462.4,-88.17 463.13,-95.13"/>
</g>
<!-- Node221 -->
<g id="node30" class="node">
<title>Node221</title>
<g id="a_node30"><a xlink:href="quickjs_8c.html#a17c92ef7fbad6a6029f6aa933d669624" target="_top" xlink:title=" ">
<polygon fill="none" stroke="red" points="173,-0.5 173,-19.5 263,-19.5 263,-0.5 173,-0.5"/>
<text text-anchor="middle" x="218" y="-7.5" font-family="Helvetica,sans-Serif" font-size="10.00">JS_IsExtensible</text>
</a>
</g>
</g>
<!-- Node1&#45;&gt;Node221 -->
<g id="edge48" class="edge">
<title>Node1&#45;&gt;Node221</title>
<path fill="none" stroke="midnightblue" d="M77.92,-123.4C94.7,-104.64 134.06,-62.47 173,-34 177.57,-30.66 182.65,-27.47 187.69,-24.57"/>
<polygon fill="midnightblue" stroke="midnightblue" points="189.52,-27.56 196.61,-19.69 186.16,-21.42 189.52,-27.56"/>
</g>
<!-- Node3 -->
<g id="node3" class="node">
<title>Node3</title>
<g id="a_node3"><a xlink:href="quickjs_8c.html#af23ec7c9970ceb4671c59da7abd4b078" target="_top" xlink:title=" ">
<polygon fill="none" stroke="black" points="449,-912.5 449,-931.5 586,-931.5 586,-912.5 449,-912.5"/>
<text text-anchor="middle" x="517.5" y="-919.5" font-family="Helvetica,sans-Serif" font-size="10.00">js_check_stack_overflow</text>
</a>
</g>
</g>
<!-- Node2&#45;&gt;Node3 -->
<g id="edge2" class="edge">
<title>Node2&#45;&gt;Node3</title>
<path fill="none" stroke="midnightblue" d="M407.21,-909.22C417.31,-910.4 428.07,-911.66 438.75,-912.91"/>
<polygon fill="midnightblue" stroke="midnightblue" points="438.6,-916.42 448.94,-914.1 439.41,-909.46 438.6,-916.42"/>
</g>
<!-- Node2&#45;&gt;Node5 -->
<g id="edge4" class="edge">
<title>Node2&#45;&gt;Node5</title>
<path fill="none" stroke="midnightblue" d="M371.81,-912.66C389.36,-921.68 417.22,-934.67 443,-941 506.94,-956.71 582.94,-960.33 632.6,-960.76"/>
<polygon fill="midnightblue" stroke="midnightblue" points="632.77,-964.26 642.78,-960.81 632.8,-957.26 632.77,-964.26"/>
</g>
<!-- Node6 -->
<g id="node6" class="node">
<title>Node6</title>
<g id="a_node6"><a xlink:href="quickjs_8h.html#a149f24b67e745bad93573b3b4c80db4c" target="_top" xlink:title=" ">
<polygon fill="none" stroke="black" points="488,-874.5 488,-893.5 547,-893.5 547,-874.5 488,-874.5"/>
<text text-anchor="middle" x="517.5" y="-881.5" font-family="Helvetica,sans-Serif" font-size="10.00">JS_IsNull</text>
</a>
</g>
</g>
<!-- Node2&#45;&gt;Node6 -->
<g id="edge5" class="edge">
<title>Node2&#45;&gt;Node6</title>
<path fill="none" stroke="midnightblue" d="M407.21,-896.78C430.17,-894.09 456.54,-891.01 477.62,-888.55"/>
<polygon fill="midnightblue" stroke="midnightblue" points="478.29,-891.99 487.82,-887.35 477.48,-885.04 478.29,-891.99"/>
</g>
<!-- Node7 -->
<g id="node7" class="node">
<title>Node7</title>
<g id="a_node7"><a xlink:href="quickjs_8c.html#a8353f635fb8a20553c08db8cf38c17e0" target="_top" xlink:title=" ">
<polygon fill="none" stroke="black" points="452,-798.5 452,-817.5 583,-817.5 583,-798.5 452,-798.5"/>
<text text-anchor="middle" x="517.5" y="-805.5" font-family="Helvetica,sans-Serif" font-size="10.00">JS_ThrowStackOverflow</text>
</a>
</g>
</g>
<!-- Node2&#45;&gt;Node7 -->
<g id="edge6" class="edge">
<title>Node2&#45;&gt;Node7</title>
<path fill="none" stroke="midnightblue" d="M370.48,-893.37C398.94,-876.72 457.52,-842.48 491.19,-822.8"/>
<polygon fill="midnightblue" stroke="midnightblue" points="493.11,-825.73 499.98,-817.66 489.58,-819.68 493.11,-825.73"/>
</g>
<!-- Node9 -->
<g id="node9" class="node">
<title>Node9</title>
<g id="a_node9"><a xlink:href="quickjs_8c.html#a199d64ccbee0a90d93e1ad12745417f6" target="_top" xlink:title=" ">
<polygon fill="none" stroke="black" points="443,-989 443,-1019 592,-1019 592,-989 443,-989"/>
<text text-anchor="start" x="451" y="-1007" font-family="Helvetica,sans-Serif" font-size="10.00">JS_ThrowTypeErrorRevoked</text>
<text text-anchor="middle" x="517.5" y="-996" font-family="Helvetica,sans-Serif" font-size="10.00">Proxy</text>
</a>
</g>
</g>
<!-- Node2&#45;&gt;Node9 -->
<g id="edge8" class="edge">
<title>Node2&#45;&gt;Node9</title>
<path fill="none" stroke="midnightblue" d="M363.97,-912.56C379.73,-927.28 411.8,-955.7 443,-974 449.69,-977.92 456.98,-981.57 464.3,-984.87"/>
<polygon fill="midnightblue" stroke="midnightblue" points="462.97,-988.11 473.53,-988.87 465.75,-981.68 462.97,-988.11"/>
</g>
<!-- Node4 -->
<g id="node4" class="node">
<title>Node4</title>
<g id="a_node4"><a xlink:href="quickjs_8c.html#a36b8de436f88239e2e5515a3a423c6d9" target="_top" xlink:title=" ">
<polygon fill="none" stroke="black" points="628,-912.5 628,-931.5 745,-931.5 745,-912.5 628,-912.5"/>
<text text-anchor="middle" x="686.5" y="-919.5" font-family="Helvetica,sans-Serif" font-size="10.00">js_get_stack_pointer</text>
</a>
</g>
</g>
<!-- Node3&#45;&gt;Node4 -->
<g id="edge3" class="edge">
<title>Node3&#45;&gt;Node4</title>
<path fill="none" stroke="midnightblue" d="M586.43,-922C596.72,-922 607.34,-922 617.63,-922"/>
<polygon fill="midnightblue" stroke="midnightblue" points="617.79,-925.5 627.79,-922 617.79,-918.5 617.79,-925.5"/>
</g>
<!-- Node8 -->
<g id="node8" class="node">
<title>Node8</title>
<g id="a_node8"><a xlink:href="quickjs_8c.html#a853f0924d441ea4225488f37c8b69f9a" target="_top" xlink:title=" ">
<polygon fill="none" stroke="black" points="646.5,-760.5 646.5,-779.5 726.5,-779.5 726.5,-760.5 646.5,-760.5"/>
<text text-anchor="middle" x="686.5" y="-767.5" font-family="Helvetica,sans-Serif" font-size="10.00">__attribute__</text>
</a>
</g>
</g>
<!-- Node7&#45;&gt;Node8 -->
<g id="edge7" class="edge">
<title>Node7&#45;&gt;Node8</title>
<path fill="none" stroke="midnightblue" d="M560.64,-798.41C583.64,-793.18 612.23,-786.67 636.26,-781.21"/>
<polygon fill="midnightblue" stroke="midnightblue" points="637.27,-784.56 646.24,-778.93 635.71,-777.74 637.27,-784.56"/>
</g>
<!-- Node11 -->
<g id="node11" class="node">
<title>Node11</title>
<g id="a_node11"><a xlink:href="quickjs_8c.html#ac2894ff4edcdb4e6841bcce9c76081e3" target="_top" xlink:title=" ">
<polygon fill="none" stroke="red" points="309.5,-494.5 309.5,-513.5 396.5,-513.5 396.5,-494.5 309.5,-494.5"/>
<text text-anchor="middle" x="353" y="-501.5" font-family="Helvetica,sans-Serif" font-size="10.00">JS_CallInternal</text>
</a>
</g>
</g>
<!-- Node10&#45;&gt;Node11 -->
<g id="edge10" class="edge">
<title>Node10&#45;&gt;Node11</title>
<path fill="none" stroke="midnightblue" d="M253.6,-497.99C267.48,-497.29 283.79,-497.09 299.1,-497.38"/>
<polygon fill="midnightblue" stroke="midnightblue" points="299.41,-500.89 309.5,-497.66 299.6,-493.89 299.41,-500.89"/>
</g>
<!-- Node10&#45;&gt;Node64 -->
<g id="edge44" class="edge">
<title>Node10&#45;&gt;Node64</title>
<path fill="none" stroke="midnightblue" d="M219.91,-513.83C225.25,-569.98 253.83,-850.03 299,-922 372.69,-1039.43 455.09,-1050.8 592,-1029 662.65,-1017.75 700,-1034.62 745,-979 789.22,-924.34 813.97,-404.26 818.67,-295.77"/>
<polygon fill="midnightblue" stroke="midnightblue" points="822.18,-295.74 819.11,-285.6 815.18,-295.44 822.18,-295.74"/>
</g>
<!-- Node11&#45;&gt;Node3 -->
<g id="edge34" class="edge">
<title>Node11&#45;&gt;Node3</title>
<path fill="none" stroke="midnightblue" d="M354.81,-513.7C359.64,-569.01 386.26,-844.33 443,-903 444.26,-904.3 445.6,-905.52 447,-906.66"/>
<polygon fill="midnightblue" stroke="midnightblue" points="445.37,-909.78 455.65,-912.34 449.21,-903.93 445.37,-909.78"/>
</g>
<!-- Node11&#45;&gt;Node5 -->
<g id="edge40" class="edge">
<title>Node11&#45;&gt;Node5</title>
<path fill="none" stroke="midnightblue" d="M355.35,-513.72C362.34,-562.56 395.87,-780.77 443,-827 491.79,-874.86 539.25,-821.55 592,-865 620.85,-888.76 599.99,-916.25 628,-941 629.93,-942.71 632.02,-944.26 634.21,-945.67"/>
<polygon fill="midnightblue" stroke="midnightblue" points="632.66,-948.81 643.13,-950.47 635.98,-942.65 632.66,-948.81"/>
</g>
<!-- Node11&#45;&gt;Node6 -->
<g id="edge41" class="edge">
<title>Node11&#45;&gt;Node6</title>
<path fill="none" stroke="midnightblue" d="M355.14,-513.6C361.43,-564.94 393.38,-806.75 443,-860 452.1,-869.76 465.21,-875.56 477.86,-879.01"/>
<polygon fill="midnightblue" stroke="midnightblue" points="477.28,-882.46 487.81,-881.29 478.85,-875.64 477.28,-882.46"/>
</g>
<!-- Node11&#45;&gt;Node7 -->
<g id="edge43" class="edge">
<title>Node11&#45;&gt;Node7</title>
<path fill="none" stroke="midnightblue" d="M354.08,-513.52C354.92,-552.77 363.42,-703.8 443,-784 446.9,-787.93 451.45,-791.22 456.34,-793.97"/>
<polygon fill="midnightblue" stroke="midnightblue" points="454.92,-797.17 465.45,-798.36 457.96,-790.86 454.92,-797.17"/>
</g>
<!-- Node11&#45;&gt;Node8 -->
<g id="edge11" class="edge">
<title>Node11&#45;&gt;Node8</title>
<path fill="none" stroke="midnightblue" d="M354.05,-513.67C354.85,-551.48 363.27,-690.19 443,-751 498.36,-793.22 583,-788.94 636.24,-780.54"/>
<polygon fill="midnightblue" stroke="midnightblue" points="636.85,-783.99 646.13,-778.88 635.68,-777.09 636.85,-783.99"/>
</g>
<!-- Node11&#45;&gt;Node10 -->
<g id="edge32" class="edge">
<title>Node11&#45;&gt;Node10</title>
<path fill="none" stroke="midnightblue" d="M309.5,-510.34C294.98,-510.86 278.69,-510.88 263.98,-510.43"/>
<polygon fill="midnightblue" stroke="midnightblue" points="263.73,-506.91 253.6,-510.01 263.45,-513.91 263.73,-506.91"/>
</g>
<!-- Node11&#45;&gt;Node11 -->
<g id="edge33" class="edge">
<title>Node11&#45;&gt;Node11</title>
<path fill="none" stroke="midnightblue" d="M332.35,-513.76C322.3,-522.57 329.18,-532 353,-532 368.26,-532 376.57,-528.13 377.93,-523.03"/>
<polygon fill="midnightblue" stroke="midnightblue" points="381.02,-521.37 373.65,-513.76 374.66,-524.3 381.02,-521.37"/>
</g>
<!-- Node12 -->
<g id="node12" class="node">
<title>Node12</title>
<g id="a_node12"><a xlink:href="quickjs_8c.html#a877fcb7651d95b411ce70e62b7f4a1f0" target="_top" xlink:title=" ">
<polygon fill="none" stroke="black" points="455,-304.5 455,-323.5 580,-323.5 580,-304.5 455,-304.5"/>
<text text-anchor="middle" x="517.5" y="-311.5" font-family="Helvetica,sans-Serif" font-size="10.00">__JS_AtomFromUInt32</text>
</a>
</g>
</g>
<!-- Node11&#45;&gt;Node12 -->
<g id="edge12" class="edge">
<title>Node11&#45;&gt;Node12</title>
<path fill="none" stroke="midnightblue" d="M356.06,-494.5C362.88,-465.45 387.47,-377.17 443,-333 445.27,-331.19 447.7,-329.56 450.23,-328.07"/>
<polygon fill="midnightblue" stroke="midnightblue" points="451.82,-331.19 459.22,-323.6 448.7,-324.92 451.82,-331.19"/>
</g>
<!-- Node13 -->
<g id="node13" class="node">
<title>Node13</title>
<g id="a_node13"><a xlink:href="quickjs_8h.html#a9bf98b18de88b4199910a43e933eb97d" target="_top" xlink:title=" ">
<polygon fill="none" stroke="black" points="467.5,-266.5 467.5,-285.5 567.5,-285.5 567.5,-266.5 467.5,-266.5"/>
<text text-anchor="middle" x="517.5" y="-273.5" font-family="Helvetica,sans-Serif" font-size="10.00">__JS_NewFloat64</text>
</a>
</g>
</g>
<!-- Node11&#45;&gt;Node13 -->
<g id="edge13" class="edge">
<title>Node11&#45;&gt;Node13</title>
<path fill="none" stroke="midnightblue" d="M355.11,-494.36C359.46,-461.15 378.43,-350.56 443,-295 447.31,-291.29 452.25,-288.3 457.49,-285.87"/>
<polygon fill="midnightblue" stroke="midnightblue" points="459.12,-288.99 467.17,-282.11 456.59,-282.47 459.12,-288.99"/>
</g>
<!-- Node14 -->
<g id="node14" class="node">
<title>Node14</title>
<g id="a_node14"><a xlink:href="quickjs_8c.html#a74547db03bf739a52c83a326b32db997" target="_top" xlink:title=" ">
<polygon fill="none" stroke="red" points="477,-228.5 477,-247.5 558,-247.5 558,-228.5 477,-228.5"/>
<text text-anchor="middle" x="517.5" y="-235.5" font-family="Helvetica,sans-Serif" font-size="10.00">add_property</text>
</a>
</g>
</g>
<!-- Node11&#45;&gt;Node14 -->
<g id="edge14" class="edge">
<title>Node11&#45;&gt;Node14</title>
<path fill="none" stroke="midnightblue" d="M354.4,-494.48C356.48,-457.8 369.05,-324.39 443,-257 449.72,-250.87 458.17,-246.67 466.91,-243.8"/>
<polygon fill="midnightblue" stroke="midnightblue" points="468.11,-247.1 476.83,-241.09 466.27,-240.34 468.11,-247.1"/>
</g>
<!-- Node72 -->
<g id="node15" class="node">
<title>Node72</title>
<g id="a_node15"><a xlink:href="quickjs_8c.html#a4956f45ffd2849b96dc051277264f87a" target="_top" xlink:title=" ">
<polygon fill="none" stroke="red" points="476.5,-494.5 476.5,-513.5 558.5,-513.5 558.5,-494.5 476.5,-494.5"/>
<text text-anchor="middle" x="517.5" y="-501.5" font-family="Helvetica,sans-Serif" font-size="10.00">build_arg_list</text>
</a>
</g>
</g>
<!-- Node11&#45;&gt;Node72 -->
<g id="edge15" class="edge">
<title>Node11&#45;&gt;Node72</title>
<path fill="none" stroke="midnightblue" d="M396.69,-504C417.96,-504 443.82,-504 466.06,-504"/>
<polygon fill="midnightblue" stroke="midnightblue" points="466.32,-507.5 476.32,-504 466.32,-500.5 466.32,-507.5"/>
</g>
<!-- Node73 -->
<g id="node16" class="node">
<title>Node73</title>
<g id="a_node16"><a xlink:href="quickjs_8c.html#ac864482356b3efc2d0b0a509fcfa4c7c" target="_top" xlink:title=" ">
<polygon fill="none" stroke="red" points="648,-380.5 648,-399.5 725,-399.5 725,-380.5 648,-380.5"/>
<text text-anchor="middle" x="686.5" y="-387.5" font-family="Helvetica,sans-Serif" font-size="10.00">free_arg_list</text>
</a>
</g>
</g>
<!-- Node11&#45;&gt;Node73 -->
<g id="edge25" class="edge">
<title>Node11&#45;&gt;Node73</title>
<path fill="none" stroke="midnightblue" d="M359.61,-494.26C371.8,-474.15 402.87,-428.29 443,-409 505.14,-379.13 586.64,-379.63 637.54,-383.91"/>
<polygon fill="midnightblue" stroke="midnightblue" points="637.33,-387.41 647.61,-384.84 637.97,-380.44 637.33,-387.41"/>
</g>
<!-- Node11&#45;&gt;Node64 -->
<g id="edge36" class="edge">
<title>Node11&#45;&gt;Node64</title>
<path fill="none" stroke="midnightblue" d="M355.2,-494.38C361.46,-446.04 391.97,-230.51 443,-192 555.12,-107.39 736.24,-217.8 798.04,-260.47"/>
<polygon fill="midnightblue" stroke="midnightblue" points="796.39,-263.59 806.59,-266.47 800.41,-257.86 796.39,-263.59"/>
</g>
<!-- Node43 -->
<g id="node18" class="node">
<title>Node43</title>
<g id="a_node18"><a xlink:href="quickjs_8h.html#a775522f2d084fc8fa0fcb33f390006b4" target="_top" xlink:title=" ">
<polygon fill="none" stroke="black" points="648,-266.5 648,-285.5 725,-285.5 725,-266.5 648,-266.5"/>
<text text-anchor="middle" x="686.5" y="-273.5" font-family="Helvetica,sans-Serif" font-size="10.00">JS_DupValue</text>
</a>
</g>
</g>
<!-- Node11&#45;&gt;Node43 -->
<g id="edge35" class="edge">
<title>Node11&#45;&gt;Node43</title>
<path fill="none" stroke="midnightblue" d="M355.48,-494.3C362.72,-448.39 395.92,-253.62 443,-219 496.35,-179.77 528.24,-201.1 592,-219 620.31,-226.95 648.55,-246.1 666.46,-260.02"/>
<polygon fill="midnightblue" stroke="midnightblue" points="664.39,-262.84 674.38,-266.36 668.76,-257.38 664.39,-262.84"/>
</g>
<!-- Node165 -->
<g id="node19" class="node">
<title>Node165</title>
<g id="a_node19"><a xlink:href="quickjs_8c.html#a61c8dfb5e807af1b6ff7d8ca61576dda" target="_top" xlink:title=" ">
<polygon fill="none" stroke="red" points="470.5,-722.5 470.5,-741.5 564.5,-741.5 564.5,-722.5 470.5,-722.5"/>
<text text-anchor="middle" x="517.5" y="-729.5" font-family="Helvetica,sans-Serif" font-size="10.00">build_backtrace</text>
</a>
</g>
</g>
<!-- Node11&#45;&gt;Node165 -->
<g id="edge21" class="edge">
<title>Node11&#45;&gt;Node165</title>
<path fill="none" stroke="midnightblue" d="M355.11,-513.64C359.46,-546.85 378.43,-657.44 443,-713 448.17,-717.45 454.25,-720.87 460.66,-723.51"/>
<polygon fill="midnightblue" stroke="midnightblue" points="459.64,-726.86 470.23,-726.83 461.93,-720.24 459.64,-726.86"/>
</g>
<!-- Node247 -->
<g id="node20" class="node">
<title>Node247</title>
<g id="a_node20"><a xlink:href="quickjs_8c.html#a344894112559c2ba75043fd10bcfa02f" target="_top" xlink:title=" ">
<polygon fill="none" stroke="red" points="467,-342.5 467,-361.5 568,-361.5 568,-342.5 467,-342.5"/>
<text text-anchor="middle" x="517.5" y="-349.5" font-family="Helvetica,sans-Serif" font-size="10.00">close_lexical_var</text>
</a>
</g>
</g>
<!-- Node11&#45;&gt;Node247 -->
<g id="edge22" class="edge">
<title>Node11&#45;&gt;Node247</title>
<path fill="none" stroke="midnightblue" d="M358.04,-494.38C368.48,-470.67 398.69,-408.95 443,-376 448.78,-371.7 455.36,-368.16 462.15,-365.23"/>
<polygon fill="midnightblue" stroke="midnightblue" points="463.44,-368.49 471.5,-361.61 460.91,-361.96 463.44,-368.49"/>
</g>
<!-- Node248 -->
<g id="node21" class="node">
<title>Node248</title>
<g id="a_node21"><a xlink:href="quickjs_8c.html#a1782043fce951bd4f0d91c7796b31e24" target="_top" xlink:title=" ">
<polygon fill="none" stroke="red" points="474,-684.5 474,-703.5 561,-703.5 561,-684.5 474,-684.5"/>
<text text-anchor="middle" x="517.5" y="-691.5" font-family="Helvetica,sans-Serif" font-size="10.00">close_var_refs</text>
</a>
</g>
</g>
<!-- Node11&#45;&gt;Node248 -->
<g id="edge24" class="edge">
<title>Node11&#45;&gt;Node248</title>
<path fill="none" stroke="midnightblue" d="M356.06,-513.5C362.88,-542.55 387.47,-630.83 443,-675 449.16,-679.9 456.46,-683.55 464.01,-686.27"/>
<polygon fill="midnightblue" stroke="midnightblue" points="463.08,-689.64 473.66,-689.23 465.13,-682.95 463.08,-689.64"/>
</g>
<!-- Node61 -->
<g id="node22" class="node">
<title>Node61</title>
<g id="a_node22"><a xlink:href="quickjs_8c.html#a9e7b4bccf927d811b0f99b40b08c0472" target="_top" xlink:title=" ">
<polygon fill="none" stroke="red" points="479.5,-646.5 479.5,-665.5 555.5,-665.5 555.5,-646.5 479.5,-646.5"/>
<text text-anchor="middle" x="517.5" y="-653.5" font-family="Helvetica,sans-Serif" font-size="10.00">free_var_ref</text>
</a>
</g>
</g>
<!-- Node11&#45;&gt;Node61 -->
<g id="edge26" class="edge">
<title>Node11&#45;&gt;Node61</title>
<path fill="none" stroke="midnightblue" d="M357.66,-513.81C367.42,-538.58 396.55,-604.05 443,-637 450.9,-642.6 460.32,-646.56 469.73,-649.34"/>
<polygon fill="midnightblue" stroke="midnightblue" points="468.93,-652.75 479.48,-651.85 470.67,-645.97 468.93,-652.75"/>
</g>
<!-- Node250 -->
<g id="node23" class="node">
<title>Node250</title>
<g id="a_node23"><a xlink:href="cutils_8h.html#a7c82a3ee025fee89db5b11ff5b7691b8" target="_top" xlink:title=" ">
<polygon fill="none" stroke="black" points="491,-608.5 491,-627.5 544,-627.5 544,-608.5 491,-608.5"/>
<text text-anchor="middle" x="517.5" y="-615.5" font-family="Helvetica,sans-Serif" font-size="10.00">get_i16</text>
</a>
</g>
</g>
<!-- Node11&#45;&gt;Node250 -->
<g id="edge27" class="edge">
<title>Node11&#45;&gt;Node250</title>
<path fill="none" stroke="midnightblue" d="M360.3,-513.78C373.3,-533.16 405.1,-576.51 443,-599 454.42,-605.78 468.24,-610.16 480.8,-612.99"/>
<polygon fill="midnightblue" stroke="midnightblue" points="480.49,-616.5 490.98,-615.02 481.85,-609.63 480.49,-616.5"/>
</g>
<!-- Node251 -->
<g id="node24" class="node">
<title>Node251</title>
<g id="a_node24"><a xlink:href="cutils_8h.html#a288ee4e688944e23500af2ecc813c306" target="_top" xlink:title=" ">
<polygon fill="none" stroke="black" points="494,-570.5 494,-589.5 541,-589.5 541,-570.5 494,-570.5"/>
<text text-anchor="middle" x="517.5" y="-577.5" font-family="Helvetica,sans-Serif" font-size="10.00">get_i8</text>
</a>
</g>
</g>
<!-- Node11&#45;&gt;Node251 -->
<g id="edge28" class="edge">
<title>Node11&#45;&gt;Node251</title>
<path fill="none" stroke="midnightblue" d="M366.25,-513.65C382.79,-526.24 413.57,-548.16 443,-561 455.87,-566.61 470.75,-570.84 483.75,-573.87"/>
<polygon fill="midnightblue" stroke="midnightblue" points="483.18,-577.33 493.69,-576.05 484.67,-570.49 483.18,-577.33"/>
</g>
<!-- Node252 -->
<g id="node25" class="node">
<title>Node252</title>
<g id="a_node25"><a xlink:href="cutils_8h.html#ad587834d17e95461893d59661e5e9676" target="_top" xlink:title=" ">
<polygon fill="none" stroke="black" points="489.5,-532.5 489.5,-551.5 545.5,-551.5 545.5,-532.5 489.5,-532.5"/>
<text text-anchor="middle" x="517.5" y="-539.5" font-family="Helvetica,sans-Serif" font-size="10.00">get_u16</text>
</a>
</g>
</g>
<!-- Node11&#45;&gt;Node252 -->
<g id="edge29" class="edge">
<title>Node11&#45;&gt;Node252</title>
<path fill="none" stroke="midnightblue" d="M395.01,-513.59C420.95,-519.66 454.23,-527.44 479.39,-533.32"/>
<polygon fill="midnightblue" stroke="midnightblue" points="478.76,-536.77 489.29,-535.64 480.35,-529.95 478.76,-536.77"/>
</g>
<!-- Node57 -->
<g id="node26" class="node">
<title>Node57</title>
<g id="a_node26"><a xlink:href="cutils_8h.html#a941262a5f72fda2ec43ae7911e97a0dc" target="_top" xlink:title=" ">
<polygon fill="none" stroke="black" points="489.5,-456.5 489.5,-475.5 545.5,-475.5 545.5,-456.5 489.5,-456.5"/>
<text text-anchor="middle" x="517.5" y="-463.5" font-family="Helvetica,sans-Serif" font-size="10.00">get_u32</text>
</a>
</g>
</g>
<!-- Node11&#45;&gt;Node57 -->
<g id="edge30" class="edge">
<title>Node11&#45;&gt;Node57</title>
<path fill="none" stroke="midnightblue" d="M395.01,-494.41C420.95,-488.34 454.23,-480.56 479.39,-474.68"/>
<polygon fill="midnightblue" stroke="midnightblue" points="480.35,-478.05 489.29,-472.36 478.76,-471.23 480.35,-478.05"/>
</g>
<!-- Node253 -->
<g id="node27" class="node">
<title>Node253</title>
<g id="a_node27"><a xlink:href="quickjs_8c.html#a37fe43b6649456a848bd54846450b995" target="_top" xlink:title=" ">
<polygon fill="none" stroke="red" points="481.5,-418.5 481.5,-437.5 553.5,-437.5 553.5,-418.5 481.5,-418.5"/>
<text text-anchor="middle" x="517.5" y="-425.5" font-family="Helvetica,sans-Serif" font-size="10.00">get_var_ref</text>
</a>
</g>
</g>
<!-- Node11&#45;&gt;Node253 -->
<g id="edge31" class="edge">
<title>Node11&#45;&gt;Node253</title>
<path fill="none" stroke="midnightblue" d="M366.25,-494.35C382.79,-481.76 413.57,-459.84 443,-447 451.97,-443.09 461.91,-439.85 471.51,-437.22"/>
<polygon fill="midnightblue" stroke="midnightblue" points="472.53,-440.57 481.34,-434.7 470.79,-433.79 472.53,-440.57"/>
</g>
<!-- Node11&#45;&gt;Node395 -->
<g id="edge37" class="edge">
<title>Node11&#45;&gt;Node395</title>
<path fill="none" stroke="midnightblue" d="M355.14,-494.4C361.43,-443.06 393.38,-201.25 443,-148 447.8,-142.85 453.71,-138.81 460.08,-135.63"/>
<polygon fill="midnightblue" stroke="midnightblue" points="461.82,-138.69 469.66,-131.56 459.09,-132.25 461.82,-138.69"/>
</g>
<!-- Node11&#45;&gt;Node131 -->
<g id="edge42" class="edge">
<title>Node11&#45;&gt;Node131</title>
<path fill="none" stroke="midnightblue" d="M354.81,-494.3C359.64,-438.99 386.26,-163.67 443,-105 448.54,-99.27 455.56,-95.19 463.06,-92.29"/>
<polygon fill="midnightblue" stroke="midnightblue" points="464.26,-95.59 472.74,-89.23 462.15,-88.91 464.26,-95.59"/>
</g>
<!-- Node72&#45;&gt;Node5 -->
<g id="edge20" class="edge">
<title>Node72&#45;&gt;Node5</title>
<path fill="none" stroke="midnightblue" d="M558.79,-505.59C571.19,-508.15 583.75,-513.24 592,-523 652.2,-594.2 570.19,-867.85 628,-941 629.83,-943.32 631.96,-945.36 634.29,-947.15"/>
<polygon fill="midnightblue" stroke="midnightblue" points="632.51,-950.16 642.87,-952.35 636.13,-944.17 632.51,-950.16"/>
</g>
<!-- Node72&#45;&gt;Node8 -->
<g id="edge16" class="edge">
<title>Node72&#45;&gt;Node8</title>
<path fill="none" stroke="midnightblue" d="M558.85,-507.35C570.68,-510.07 582.87,-514.82 592,-523 661.23,-585.07 679.45,-703.78 684.03,-750.46"/>
<polygon fill="midnightblue" stroke="midnightblue" points="680.55,-750.81 684.91,-760.47 687.52,-750.2 680.55,-750.81"/>
</g>
<!-- Node72&#45;&gt;Node73 -->
<g id="edge17" class="edge">
<title>Node72&#45;&gt;Node73</title>
<path fill="none" stroke="midnightblue" d="M558.55,-497.77C569.86,-494.94 581.84,-490.86 592,-485 626.2,-465.27 656.35,-429.64 672.65,-408.07"/>
<polygon fill="midnightblue" stroke="midnightblue" points="675.65,-409.9 678.76,-399.77 670.01,-405.75 675.65,-409.9"/>
</g>
<!-- Node72&#45;&gt;Node43 -->
<g id="edge19" class="edge">
<title>Node72&#45;&gt;Node43</title>
<path fill="none" stroke="midnightblue" d="M558.75,-501.05C570.71,-498.35 583.01,-493.53 592,-485 630.55,-448.44 606.09,-419.4 628,-371 640.79,-342.75 660.2,-312.5 672.87,-293.92"/>
<polygon fill="midnightblue" stroke="midnightblue" points="675.84,-295.77 678.65,-285.56 670.08,-291.79 675.84,-295.77"/>
</g>
<!-- Node73&#45;&gt;Node64 -->
<g id="edge18" class="edge">
<title>Node73&#45;&gt;Node64</title>
<path fill="none" stroke="midnightblue" d="M698.75,-380.28C721.35,-360.76 772.48,-316.61 800.41,-292.49"/>
<polygon fill="midnightblue" stroke="midnightblue" points="802.99,-294.88 808.27,-285.69 798.42,-289.58 802.99,-294.88"/>
</g>
<!-- Node247&#45;&gt;Node43 -->
<g id="edge23" class="edge">
<title>Node247&#45;&gt;Node43</title>
<path fill="none" stroke="midnightblue" d="M564.28,-342.39C573.62,-339.82 583.26,-336.7 592,-333 618.33,-321.86 645.99,-304.14 664.34,-291.41"/>
<polygon fill="midnightblue" stroke="midnightblue" points="666.39,-294.24 672.54,-285.62 662.36,-288.52 666.39,-294.24"/>
</g>
<!-- Node395&#45;&gt;Node1 -->
<g id="edge39" class="edge">
<title>Node395&#45;&gt;Node1</title>
<path fill="none" stroke="midnightblue" d="M469.9,-129.26C393.5,-133.68 240.78,-137.07 147.61,-136.7"/>
<polygon fill="midnightblue" stroke="midnightblue" points="147.41,-133.2 137.39,-136.64 147.37,-140.2 147.41,-133.2"/>
</g>
<!-- Node395&#45;&gt;Node43 -->
<g id="edge38" class="edge">
<title>Node395&#45;&gt;Node43</title>
<path fill="none" stroke="midnightblue" d="M530.41,-133.65C545.12,-145.65 570.8,-166.89 592,-186 619.53,-210.81 650.29,-240.9 668.76,-259.24"/>
<polygon fill="midnightblue" stroke="midnightblue" points="666.32,-261.75 675.87,-266.33 671.26,-256.79 666.32,-261.75"/>
</g>
</g>
</svg>
        <g id="navigator" transform="translate(0 0)" fill="#404254">
                <rect fill="#f2f5e9" fill-opacity="0.5" stroke="#606060" stroke-width=".5" x="0" y="0" width="60" height="60"/>
                <use id="zoomplus" xlink:href="#zoomPlus" x="17" y="9" onmousedown="handleZoom(evt,'in')"/>
                <use id="zoomminus" xlink:href="#zoomMin" x="42" y="9" onmousedown="handleZoom(evt,'out')"/>
                <use id="reset" xlink:href="#resetDef" x="30" y="36" onmousedown="handleReset()"/>
                <g id="arrowUp" xlink:href="#dirArrow" transform="translate(30 24)" onmousedown="handlePan(0,-1)">
                  <use xlink:href="#rim" fill="#404040">
                        <set attributeName="fill" to="#808080" begin="arrowUp.mouseover" end="arrowUp.mouseout"/>
                  </use>
                  <path fill="none" stroke="white" stroke-width="1.5" d="M0,-3.0v7 M-2.5,-0.5L0,-3.0L2.5,-0.5"/>
                </g>
                <g id="arrowRight" xlink:href="#dirArrow" transform="rotate(90) translate(36 -43)" onmousedown="handlePan(1,0)">
                  <use xlink:href="#rim" fill="#404040">
                        <set attributeName="fill" to="#808080" begin="arrowRight.mouseover" end="arrowRight.mouseout"/>
                  </use>
                  <path fill="none" stroke="white" stroke-width="1.5" d="M0,-3.0v7 M-2.5,-0.5L0,-3.0L2.5,-0.5"/>
                </g>
                <g id="arrowDown" xlink:href="#dirArrow" transform="rotate(180) translate(-30 -48)" onmousedown="handlePan(0,1)">
                  <use xlink:href="#rim" fill="#404040">
                        <set attributeName="fill" to="#808080" begin="arrowDown.mouseover" end="arrowDown.mouseout"/>
                  </use>
                  <path fill="none" stroke="white" stroke-width="1.5" d="M0,-3.0v7 M-2.5,-0.5L0,-3.0L2.5,-0.5"/>
                </g>
                <g id="arrowLeft" xlink:href="#dirArrow" transform="rotate(270) translate(-36 17)" onmousedown="handlePan(-1,0)">
                  <use xlink:href="#rim" fill="#404040">
                        <set attributeName="fill" to="#808080" begin="arrowLeft.mouseover" end="arrowLeft.mouseout"/>
                  </use>
                  <path fill="none" stroke="white" stroke-width="1.5" d="M0,-3.0v7 M-2.5,-0.5L0,-3.0L2.5,-0.5"/>
                </g>
        </g>
        <svg viewBox="0 0 15 15" width="100%" height="30px" preserveAspectRatio="xMaxYMin meet">
         <g id="arrow_out" transform="scale(0.3 0.3)">
          <a xlink:href="quickjs_8c_adda8732f2afb3bb7bd7e5f59e3ba022d_cgraph_org.svg" target="_base">
           <rect id="button" ry="5" rx="5" y="6" x="6" height="38" width="38"
                fill="#f2f5e9" fill-opacity="0.5" stroke="#606060" stroke-width="1.0"/>
           <path id="arrow"
             d="M 11.500037,31.436501 C 11.940474,20.09759 22.043105,11.32322 32.158766,21.979434 L 37.068811,17.246167 C 37.068811,17.246167 37.088388,32 37.088388,32 L 22.160133,31.978069 C 22.160133,31.978069 26.997745,27.140456 26.997745,27.140456 C 18.528582,18.264221 13.291696,25.230495 11.500037,31.436501 z"
             style="fill:#404040;"/>
          </a>
         </g>
        </svg>
</svg>
