<?xml version="1.0" encoding="UTF-8" standalone="no"?>
<!DOCTYPE svg PUBLIC "-//W3C//DTD SVG 1.1//EN"
 "http://www.w3.org/Graphics/SVG/1.1/DTD/svg11.dtd">
<!-- Generated by graphviz version 2.43.0 (0)
 -->
<!-- Title: JS_CallConstructor Pages: 1 -->
<!--zoomable 1097 -->
<svg id="main" version="1.1" xmlns="http://www.w3.org/2000/svg" xmlns:xlink="http://www.w3.org/1999/xlink" xml:space="preserve" onload="init(evt)">
<style type="text/css"><![CDATA[
.edge:hover path { stroke: red; }
.edge:hover polygon { stroke: red; fill: red; }
]]></style>
<script type="text/javascript"><![CDATA[
var edges = document.getElementsByTagName('g');
if (edges && edges.length) {
  for (var i=0;i<edges.length;i++) {
    if (edges[i].id.substr(0,4)=='edge') {
      edges[i].setAttribute('class','edge');
    }
  }
}
]]></script>
        <defs>
                <circle id="rim" cx="0" cy="0" r="7"/>
                <circle id="rim2" cx="0" cy="0" r="3.5"/>
                <g id="zoomPlus">
                        <use xlink:href="#rim" fill="#404040">
                                <set attributeName="fill" to="#808080" begin="zoomplus.mouseover" end="zoomplus.mouseout"/>
                        </use>
                        <path d="M-4,0h8M0,-4v8" fill="none" stroke="white" stroke-width="1.5" pointer-events="none"/>
                </g>
                <g id="zoomMin">
                        <use xlink:href="#rim" fill="#404040">
                                <set attributeName="fill" to="#808080" begin="zoomminus.mouseover" end="zoomminus.mouseout"/>
                        </use>
                        <path d="M-4,0h8" fill="none" stroke="white" stroke-width="1.5" pointer-events="none"/>
                </g>
                <g id="dirArrow">
                        <path fill="none" stroke="white" stroke-width="1.5" d="M0,-3.0v7 M-2.5,-0.5L0,-3.0L2.5,-0.5"/>
                </g>
               <g id="resetDef">
                       <use xlink:href="#rim2" fill="#404040">
                               <set attributeName="fill" to="#808080" begin="reset.mouseover" end="reset.mouseout"/>
                       </use>
               </g>
        </defs>

<script type="text/javascript">
var viewWidth = 815;
var viewHeight = 1097;
var sectionId = 'dynsection-860';
</script>
<script xlink:href="svgpan.js"/>
<svg id="graph" class="graph">
<g id="viewport">
<title>JS_CallConstructor</title>
<!-- Node1 -->
<g id="node1" class="node">
<title>Node1</title>
<g id="a_node1"><a xlink:title=" ">
<polygon fill="#bfbfbf" stroke="black" points="0,-741.5 0,-760.5 106,-760.5 106,-741.5 0,-741.5"/>
<text text-anchor="middle" x="53" y="-748.5" font-family="Helvetica,sans-Serif" font-size="10.00">JS_CallConstructor</text>
</a>
</g>
</g>
<!-- Node2 -->
<g id="node2" class="node">
<title>Node2</title>
<g id="a_node2"><a xlink:href="quickjs_8c.html#ad35594576a14c10812efaf958c99af8a" target="_top" xlink:title=" ">
<polygon fill="none" stroke="black" points="142,-741.5 142,-760.5 285,-760.5 285,-741.5 142,-741.5"/>
<text text-anchor="middle" x="213.5" y="-748.5" font-family="Helvetica,sans-Serif" font-size="10.00">JS_CallConstructorInternal</text>
</a>
</g>
</g>
<!-- Node1&#45;&gt;Node2 -->
<g id="edge1" class="edge">
<title>Node1&#45;&gt;Node2</title>
<path fill="none" stroke="midnightblue" d="M106.34,-751C114.5,-751 123.1,-751 131.73,-751"/>
<polygon fill="midnightblue" stroke="midnightblue" points="131.83,-754.5 141.83,-751 131.83,-747.5 131.83,-754.5"/>
</g>
<!-- Node3 -->
<g id="node3" class="node">
<title>Node3</title>
<g id="a_node3"><a xlink:href="quickjs_8c.html#ac2894ff4edcdb4e6841bcce9c76081e3" target="_top" xlink:title=" ">
<polygon fill="none" stroke="red" points="321,-513.5 321,-532.5 408,-532.5 408,-513.5 321,-513.5"/>
<text text-anchor="middle" x="364.5" y="-520.5" font-family="Helvetica,sans-Serif" font-size="10.00">JS_CallInternal</text>
</a>
</g>
</g>
<!-- Node2&#45;&gt;Node3 -->
<g id="edge2" class="edge">
<title>Node2&#45;&gt;Node3</title>
<path fill="none" stroke="midnightblue" d="M219.12,-741.38C238.88,-706.16 316.68,-586.55 349.15,-540.77"/>
<polygon fill="midnightblue" stroke="midnightblue" points="352,-542.8 355.01,-532.65 346.32,-538.71 352,-542.8"/>
</g>
<!-- Node57 -->
<g id="node10" class="node">
<title>Node57</title>
<g id="a_node10"><a xlink:href="quickjs_8h.html#afaa20c47565bc704c6c85f3d77254e7d" target="_top" xlink:title=" ">
<polygon fill="none" stroke="red" points="728,-722.5 728,-741.5 807,-741.5 807,-722.5 728,-722.5"/>
<text text-anchor="middle" x="767.5" y="-729.5" font-family="Helvetica,sans-Serif" font-size="10.00">JS_FreeValue</text>
</a>
</g>
</g>
<!-- Node2&#45;&gt;Node57 -->
<g id="edge46" class="edge">
<title>Node2&#45;&gt;Node57</title>
<path fill="none" stroke="midnightblue" d="M214.7,-760.76C216.13,-802.36 227.71,-966.16 321,-1040 407.58,-1108.53 466.55,-1096.2 569,-1055 699.03,-1002.71 749.47,-813.44 762.69,-751.66"/>
<polygon fill="midnightblue" stroke="midnightblue" points="766.16,-752.17 764.74,-741.67 759.3,-750.76 766.16,-752.17"/>
</g>
<!-- Node75 -->
<g id="node11" class="node">
<title>Node75</title>
<g id="a_node11"><a xlink:href="quickjs_8h.html#ad80a83d73e9b7d872b88fbf2943aebe9" target="_top" xlink:title=" ">
<polygon fill="none" stroke="black" points="605,-760.5 605,-779.5 692,-779.5 692,-760.5 605,-760.5"/>
<text text-anchor="middle" x="648.5" y="-767.5" font-family="Helvetica,sans-Serif" font-size="10.00">JS_IsException</text>
</a>
</g>
</g>
<!-- Node2&#45;&gt;Node75 -->
<g id="edge47" class="edge">
<title>Node2&#45;&gt;Node75</title>
<path fill="none" stroke="midnightblue" d="M220.22,-760.72C242.78,-797.98 330.03,-932.01 444,-979 495.36,-1000.18 524.06,-1011.67 569,-979 610.95,-948.5 586.66,-916.51 605,-868 615.56,-840.06 629.65,-808.49 638.66,-788.91"/>
<polygon fill="midnightblue" stroke="midnightblue" points="641.94,-790.16 642.97,-779.61 635.59,-787.21 641.94,-790.16"/>
</g>
<!-- Node393 -->
<g id="node29" class="node">
<title>Node393</title>
<g id="a_node29"><a xlink:href="quickjs_8c.html#a246e337d6566552736209730827c0871" target="_top" xlink:title=" ">
<polygon fill="none" stroke="red" points="456,-0.5 456,-19.5 557,-19.5 557,-0.5 456,-0.5"/>
<text text-anchor="middle" x="506.5" y="-7.5" font-family="Helvetica,sans-Serif" font-size="10.00">js_poll_interrupts</text>
</a>
</g>
</g>
<!-- Node2&#45;&gt;Node393 -->
<g id="edge48" class="edge">
<title>Node2&#45;&gt;Node393</title>
<path fill="none" stroke="midnightblue" d="M214.45,-741.17C214.65,-671.3 225.02,-246.21 444,-29 445.46,-27.55 447.02,-26.22 448.67,-24.98"/>
<polygon fill="midnightblue" stroke="midnightblue" points="450.79,-27.79 457.52,-19.61 447.16,-21.81 450.79,-27.79"/>
</g>
<!-- Node374 -->
<g id="node30" class="node">
<title>Node374</title>
<g id="a_node30"><a xlink:href="quickjs_8c.html#a93dbf502b17d1328c524401335f60499" target="_top" xlink:title=" ">
<polygon fill="none" stroke="red" points="450,-1026.5 450,-1045.5 563,-1045.5 563,-1026.5 450,-1026.5"/>
<text text-anchor="middle" x="506.5" y="-1033.5" font-family="Helvetica,sans-Serif" font-size="10.00">js_create_from_ctor</text>
</a>
</g>
</g>
<!-- Node2&#45;&gt;Node374 -->
<g id="edge43" class="edge">
<title>Node2&#45;&gt;Node374</title>
<path fill="none" stroke="midnightblue" d="M215.12,-760.6C218.2,-799.44 235.32,-946 321,-1012 354.36,-1037.69 401.58,-1043.44 439.9,-1042.9"/>
<polygon fill="midnightblue" stroke="midnightblue" points="440.05,-1046.4 449.94,-1042.61 439.85,-1039.4 440.05,-1046.4"/>
</g>
<!-- Node3&#45;&gt;Node2 -->
<g id="edge38" class="edge">
<title>Node3&#45;&gt;Node2</title>
<path fill="none" stroke="midnightblue" d="M358.75,-532.84C338.82,-568.29 261.45,-687.23 228.98,-733.05"/>
<polygon fill="midnightblue" stroke="midnightblue" points="225.95,-731.27 222.94,-741.43 231.62,-735.36 225.95,-731.27"/>
</g>
<!-- Node3&#45;&gt;Node3 -->
<g id="edge39" class="edge">
<title>Node3&#45;&gt;Node3</title>
<path fill="none" stroke="midnightblue" d="M342.61,-532.76C331.97,-541.57 339.26,-551 364.5,-551 381.06,-551 389.9,-546.94 391.01,-541.65"/>
<polygon fill="midnightblue" stroke="midnightblue" points="394.1,-540.02 386.39,-532.76 387.89,-543.24 394.1,-540.02"/>
</g>
<!-- Node4 -->
<g id="node4" class="node">
<title>Node4</title>
<g id="a_node4"><a xlink:href="quickjs_8c.html#a853f0924d441ea4225488f37c8b69f9a" target="_top" xlink:title=" ">
<polygon fill="none" stroke="black" points="608.5,-608.5 608.5,-627.5 688.5,-627.5 688.5,-608.5 608.5,-608.5"/>
<text text-anchor="middle" x="648.5" y="-615.5" font-family="Helvetica,sans-Serif" font-size="10.00">__attribute__</text>
</a>
</g>
</g>
<!-- Node3&#45;&gt;Node4 -->
<g id="edge3" class="edge">
<title>Node3&#45;&gt;Node4</title>
<path fill="none" stroke="midnightblue" d="M371.93,-532.55C383.88,-549.37 411.26,-583.94 444,-599 492.99,-621.54 555.53,-624.01 598.27,-622.3"/>
<polygon fill="midnightblue" stroke="midnightblue" points="598.6,-625.79 608.42,-621.8 598.26,-618.8 598.6,-625.79"/>
</g>
<!-- Node5 -->
<g id="node5" class="node">
<title>Node5</title>
<g id="a_node5"><a xlink:href="quickjs_8c.html#a877fcb7651d95b411ce70e62b7f4a1f0" target="_top" xlink:title=" ">
<polygon fill="none" stroke="black" points="444,-304.5 444,-323.5 569,-323.5 569,-304.5 444,-304.5"/>
<text text-anchor="middle" x="506.5" y="-311.5" font-family="Helvetica,sans-Serif" font-size="10.00">__JS_AtomFromUInt32</text>
</a>
</g>
</g>
<!-- Node3&#45;&gt;Node5 -->
<g id="edge4" class="edge">
<title>Node3&#45;&gt;Node5</title>
<path fill="none" stroke="midnightblue" d="M366.89,-513.48C371.75,-483.46 390.69,-389.78 444,-338 448.06,-334.06 452.84,-330.74 457.91,-327.96"/>
<polygon fill="midnightblue" stroke="midnightblue" points="459.75,-330.97 467.27,-323.51 456.74,-324.65 459.75,-330.97"/>
</g>
<!-- Node6 -->
<g id="node6" class="node">
<title>Node6</title>
<g id="a_node6"><a xlink:href="quickjs_8h.html#a9bf98b18de88b4199910a43e933eb97d" target="_top" xlink:title=" ">
<polygon fill="none" stroke="black" points="456.5,-266.5 456.5,-285.5 556.5,-285.5 556.5,-266.5 456.5,-266.5"/>
<text text-anchor="middle" x="506.5" y="-273.5" font-family="Helvetica,sans-Serif" font-size="10.00">__JS_NewFloat64</text>
</a>
</g>
</g>
<!-- Node3&#45;&gt;Node6 -->
<g id="edge5" class="edge">
<title>Node3&#45;&gt;Node6</title>
<path fill="none" stroke="midnightblue" d="M365.87,-513.14C367.71,-478.08 378.75,-358.2 444,-295 445.63,-293.42 447.39,-291.97 449.25,-290.64"/>
<polygon fill="midnightblue" stroke="midnightblue" points="451.06,-293.64 457.92,-285.56 447.52,-287.6 451.06,-293.64"/>
</g>
<!-- Node7 -->
<g id="node7" class="node">
<title>Node7</title>
<g id="a_node7"><a xlink:href="quickjs_8c.html#a74547db03bf739a52c83a326b32db997" target="_top" xlink:title=" ">
<polygon fill="none" stroke="red" points="608,-380.5 608,-399.5 689,-399.5 689,-380.5 608,-380.5"/>
<text text-anchor="middle" x="648.5" y="-387.5" font-family="Helvetica,sans-Serif" font-size="10.00">add_property</text>
</a>
</g>
</g>
<!-- Node3&#45;&gt;Node7 -->
<g id="edge6" class="edge">
<title>Node3&#45;&gt;Node7</title>
<path fill="none" stroke="midnightblue" d="M367.68,-513.13C374.05,-486.98 395.35,-415.99 444,-388 493.9,-359.29 562.72,-367.94 606.16,-378.02"/>
<polygon fill="midnightblue" stroke="midnightblue" points="605.55,-381.47 616.09,-380.45 607.21,-374.67 605.55,-381.47"/>
</g>
<!-- Node65 -->
<g id="node8" class="node">
<title>Node65</title>
<g id="a_node8"><a xlink:href="quickjs_8c.html#a4956f45ffd2849b96dc051277264f87a" target="_top" xlink:title=" ">
<polygon fill="none" stroke="red" points="465.5,-570.5 465.5,-589.5 547.5,-589.5 547.5,-570.5 465.5,-570.5"/>
<text text-anchor="middle" x="506.5" y="-577.5" font-family="Helvetica,sans-Serif" font-size="10.00">build_arg_list</text>
</a>
</g>
</g>
<!-- Node3&#45;&gt;Node65 -->
<g id="edge7" class="edge">
<title>Node3&#45;&gt;Node65</title>
<path fill="none" stroke="midnightblue" d="M383.24,-532.54C398.93,-540.75 422.59,-552.57 444,-561 449.6,-563.2 455.56,-565.32 461.48,-567.29"/>
<polygon fill="midnightblue" stroke="midnightblue" points="460.76,-570.73 471.35,-570.45 462.89,-564.07 460.76,-570.73"/>
</g>
<!-- Node66 -->
<g id="node9" class="node">
<title>Node66</title>
<g id="a_node9"><a xlink:href="quickjs_8c.html#ac864482356b3efc2d0b0a509fcfa4c7c" target="_top" xlink:title=" ">
<polygon fill="none" stroke="red" points="610,-456.5 610,-475.5 687,-475.5 687,-456.5 610,-456.5"/>
<text text-anchor="middle" x="648.5" y="-463.5" font-family="Helvetica,sans-Serif" font-size="10.00">free_arg_list</text>
</a>
</g>
</g>
<!-- Node3&#45;&gt;Node66 -->
<g id="edge15" class="edge">
<title>Node3&#45;&gt;Node66</title>
<path fill="none" stroke="midnightblue" d="M368.65,-513.28C376.76,-490.08 400.82,-431.69 444,-409 493.18,-383.15 516.16,-391.84 569,-409 593.33,-416.9 616.42,-435.49 631.18,-449.3"/>
<polygon fill="midnightblue" stroke="midnightblue" points="628.86,-451.93 638.48,-456.39 633.74,-446.91 628.86,-451.93"/>
</g>
<!-- Node3&#45;&gt;Node57 -->
<g id="edge40" class="edge">
<title>Node3&#45;&gt;Node57</title>
<path fill="none" stroke="midnightblue" d="M406.01,-513.46C473.91,-500.06 611.19,-484.45 692,-554 740.78,-595.99 758.3,-675.21 764.01,-712.13"/>
<polygon fill="midnightblue" stroke="midnightblue" points="760.56,-712.73 765.42,-722.14 767.49,-711.75 760.56,-712.73"/>
</g>
<!-- Node3&#45;&gt;Node75 -->
<g id="edge41" class="edge">
<title>Node3&#45;&gt;Node75</title>
<path fill="none" stroke="midnightblue" d="M365.43,-532.85C365.77,-568.92 372.25,-694.6 444,-751 486.32,-784.26 549.93,-784.78 594.75,-779.67"/>
<polygon fill="midnightblue" stroke="midnightblue" points="595.38,-783.12 604.86,-778.39 594.5,-776.18 595.38,-783.12"/>
</g>
<!-- Node161 -->
<g id="node12" class="node">
<title>Node161</title>
<g id="a_node12"><a xlink:href="quickjs_8c.html#a61c8dfb5e807af1b6ff7d8ca61576dda" target="_top" xlink:title=" ">
<polygon fill="none" stroke="red" points="459.5,-228.5 459.5,-247.5 553.5,-247.5 553.5,-228.5 459.5,-228.5"/>
<text text-anchor="middle" x="506.5" y="-235.5" font-family="Helvetica,sans-Serif" font-size="10.00">build_backtrace</text>
</a>
</g>
</g>
<!-- Node3&#45;&gt;Node161 -->
<g id="edge12" class="edge">
<title>Node3&#45;&gt;Node161</title>
<path fill="none" stroke="midnightblue" d="M365.31,-513.43C365.07,-475.29 369.4,-332.55 444,-257 445.89,-255.09 447.97,-253.37 450.18,-251.82"/>
<polygon fill="midnightblue" stroke="midnightblue" points="452.31,-254.63 459.28,-246.66 448.86,-248.54 452.31,-254.63"/>
</g>
<!-- Node248 -->
<g id="node13" class="node">
<title>Node248</title>
<g id="a_node13"><a xlink:href="quickjs_8c.html#a344894112559c2ba75043fd10bcfa02f" target="_top" xlink:title=" ">
<polygon fill="none" stroke="red" points="456,-190.5 456,-209.5 557,-209.5 557,-190.5 456,-190.5"/>
<text text-anchor="middle" x="506.5" y="-197.5" font-family="Helvetica,sans-Serif" font-size="10.00">close_lexical_var</text>
</a>
</g>
</g>
<!-- Node3&#45;&gt;Node248 -->
<g id="edge13" class="edge">
<title>Node3&#45;&gt;Node248</title>
<path fill="none" stroke="midnightblue" d="M366.73,-513.29C372.85,-466.37 401.48,-263.56 444,-219 445.39,-217.54 446.89,-216.2 448.47,-214.96"/>
<polygon fill="midnightblue" stroke="midnightblue" points="450.43,-217.86 457.01,-209.56 446.69,-211.94 450.43,-217.86"/>
</g>
<!-- Node249 -->
<g id="node14" class="node">
<title>Node249</title>
<g id="a_node14"><a xlink:href="quickjs_8c.html#a1782043fce951bd4f0d91c7796b31e24" target="_top" xlink:title=" ">
<polygon fill="none" stroke="red" points="463,-152.5 463,-171.5 550,-171.5 550,-152.5 463,-152.5"/>
<text text-anchor="middle" x="506.5" y="-159.5" font-family="Helvetica,sans-Serif" font-size="10.00">close_var_refs</text>
</a>
</g>
</g>
<!-- Node3&#45;&gt;Node249 -->
<g id="edge14" class="edge">
<title>Node3&#45;&gt;Node249</title>
<path fill="none" stroke="midnightblue" d="M366.42,-513.45C371.4,-463.41 396.74,-231.89 444,-181 446.79,-178 450.03,-175.47 453.56,-173.33"/>
<polygon fill="midnightblue" stroke="midnightblue" points="455.34,-176.36 462.76,-168.81 452.25,-170.08 455.34,-176.36"/>
</g>
<!-- Node54 -->
<g id="node15" class="node">
<title>Node54</title>
<g id="a_node15"><a xlink:href="quickjs_8c.html#a9e7b4bccf927d811b0f99b40b08c0472" target="_top" xlink:title=" ">
<polygon fill="none" stroke="red" points="468.5,-114.5 468.5,-133.5 544.5,-133.5 544.5,-114.5 468.5,-114.5"/>
<text text-anchor="middle" x="506.5" y="-121.5" font-family="Helvetica,sans-Serif" font-size="10.00">free_var_ref</text>
</a>
</g>
</g>
<!-- Node3&#45;&gt;Node54 -->
<g id="edge16" class="edge">
<title>Node3&#45;&gt;Node54</title>
<path fill="none" stroke="midnightblue" d="M366.9,-513.3C375.16,-456.79 417.9,-171.73 444,-143 448.09,-138.5 453.23,-135.05 458.77,-132.41"/>
<polygon fill="midnightblue" stroke="midnightblue" points="460.32,-135.57 468.39,-128.7 457.8,-129.04 460.32,-135.57"/>
</g>
<!-- Node251 -->
<g id="node16" class="node">
<title>Node251</title>
<g id="a_node16"><a xlink:href="cutils_8h.html#a7c82a3ee025fee89db5b11ff5b7691b8" target="_top" xlink:title=" ">
<polygon fill="none" stroke="black" points="480,-76.5 480,-95.5 533,-95.5 533,-76.5 480,-76.5"/>
<text text-anchor="middle" x="506.5" y="-83.5" font-family="Helvetica,sans-Serif" font-size="10.00">get_i16</text>
</a>
</g>
</g>
<!-- Node3&#45;&gt;Node251 -->
<g id="edge17" class="edge">
<title>Node3&#45;&gt;Node251</title>
<path fill="none" stroke="midnightblue" d="M367,-513.48C376.63,-452.72 429.72,-121.01 444,-105 450.68,-97.51 460.24,-92.94 469.84,-90.16"/>
<polygon fill="midnightblue" stroke="midnightblue" points="470.79,-93.53 479.74,-87.86 469.21,-86.71 470.79,-93.53"/>
</g>
<!-- Node252 -->
<g id="node17" class="node">
<title>Node252</title>
<g id="a_node17"><a xlink:href="cutils_8h.html#a288ee4e688944e23500af2ecc813c306" target="_top" xlink:title=" ">
<polygon fill="none" stroke="black" points="483,-38.5 483,-57.5 530,-57.5 530,-38.5 483,-38.5"/>
<text text-anchor="middle" x="506.5" y="-45.5" font-family="Helvetica,sans-Serif" font-size="10.00">get_i8</text>
</a>
</g>
</g>
<!-- Node3&#45;&gt;Node252 -->
<g id="edge18" class="edge">
<title>Node3&#45;&gt;Node252</title>
<path fill="none" stroke="midnightblue" d="M367.03,-513.26C377.33,-447.91 436.26,-75.81 444,-67 451.32,-58.67 462.21,-53.94 472.8,-51.27"/>
<polygon fill="midnightblue" stroke="midnightblue" points="473.61,-54.68 482.74,-49.3 472.25,-47.81 473.61,-54.68"/>
</g>
<!-- Node253 -->
<g id="node18" class="node">
<title>Node253</title>
<g id="a_node18"><a xlink:href="cutils_8h.html#ad587834d17e95461893d59661e5e9676" target="_top" xlink:title=" ">
<polygon fill="none" stroke="black" points="478.5,-950.5 478.5,-969.5 534.5,-969.5 534.5,-950.5 478.5,-950.5"/>
<text text-anchor="middle" x="506.5" y="-957.5" font-family="Helvetica,sans-Serif" font-size="10.00">get_u16</text>
</a>
</g>
</g>
<!-- Node3&#45;&gt;Node253 -->
<g id="edge19" class="edge">
<title>Node3&#45;&gt;Node253</title>
<path fill="none" stroke="midnightblue" d="M366,-532.73C369.07,-589.47 387.35,-877.5 444,-941 450.39,-948.17 459.42,-952.66 468.6,-955.47"/>
<polygon fill="midnightblue" stroke="midnightblue" points="467.95,-958.92 478.49,-957.91 469.62,-952.12 467.95,-958.92"/>
</g>
<!-- Node50 -->
<g id="node19" class="node">
<title>Node50</title>
<g id="a_node19"><a xlink:href="cutils_8h.html#a941262a5f72fda2ec43ae7911e97a0dc" target="_top" xlink:title=" ">
<polygon fill="none" stroke="black" points="478.5,-912.5 478.5,-931.5 534.5,-931.5 534.5,-912.5 478.5,-912.5"/>
<text text-anchor="middle" x="506.5" y="-919.5" font-family="Helvetica,sans-Serif" font-size="10.00">get_u32</text>
</a>
</g>
</g>
<!-- Node3&#45;&gt;Node50 -->
<g id="edge20" class="edge">
<title>Node3&#45;&gt;Node50</title>
<path fill="none" stroke="midnightblue" d="M366.18,-532.53C370.15,-585.75 392.02,-845.78 444,-903 450.4,-910.05 459.35,-914.51 468.45,-917.32"/>
<polygon fill="midnightblue" stroke="midnightblue" points="467.71,-920.75 478.26,-919.78 469.41,-913.96 467.71,-920.75"/>
</g>
<!-- Node254 -->
<g id="node20" class="node">
<title>Node254</title>
<g id="a_node20"><a xlink:href="quickjs_8c.html#a37fe43b6649456a848bd54846450b995" target="_top" xlink:title=" ">
<polygon fill="none" stroke="red" points="470.5,-874.5 470.5,-893.5 542.5,-893.5 542.5,-874.5 470.5,-874.5"/>
<text text-anchor="middle" x="506.5" y="-881.5" font-family="Helvetica,sans-Serif" font-size="10.00">get_var_ref</text>
</a>
</g>
</g>
<!-- Node3&#45;&gt;Node254 -->
<g id="edge21" class="edge">
<title>Node3&#45;&gt;Node254</title>
<path fill="none" stroke="midnightblue" d="M366.42,-532.55C371.4,-582.59 396.74,-814.11 444,-865 448.65,-870.01 454.59,-873.71 460.93,-876.44"/>
<polygon fill="midnightblue" stroke="midnightblue" points="459.82,-879.76 470.41,-879.78 462.15,-873.15 459.82,-879.76"/>
</g>
<!-- Node197 -->
<g id="node21" class="node">
<title>Node197</title>
<g id="a_node21"><a xlink:href="list_8h.html#a663527a4d757540b2177bef0db1ce5c0" target="_top" xlink:title=" ">
<polygon fill="none" stroke="black" points="465.5,-798.5 465.5,-817.5 547.5,-817.5 547.5,-798.5 465.5,-798.5"/>
<text text-anchor="middle" x="506.5" y="-805.5" font-family="Helvetica,sans-Serif" font-size="10.00">init_list_head</text>
</a>
</g>
</g>
<!-- Node3&#45;&gt;Node197 -->
<g id="edge22" class="edge">
<title>Node3&#45;&gt;Node197</title>
<path fill="none" stroke="midnightblue" d="M365.54,-532.75C366.2,-570.36 373.55,-707.68 444,-784 447.55,-787.85 451.8,-791.09 456.37,-793.81"/>
<polygon fill="midnightblue" stroke="midnightblue" points="454.99,-797.03 465.49,-798.45 458.16,-790.79 454.99,-797.03"/>
</g>
<!-- Node255 -->
<g id="node22" class="node">
<title>Node255</title>
<g id="a_node22"><a xlink:href="quickjs_8c.html#a2bb0a2ca3b8320f3ff778c65034fce49" target="_top" xlink:title=" ">
<polygon fill="none" stroke="red" points="447,-684.5 447,-703.5 566,-703.5 566,-684.5 447,-684.5"/>
<text text-anchor="middle" x="506.5" y="-691.5" font-family="Helvetica,sans-Serif" font-size="10.00">is_backtrace_needed</text>
</a>
</g>
</g>
<!-- Node3&#45;&gt;Node255 -->
<g id="edge23" class="edge">
<title>Node3&#45;&gt;Node255</title>
<path fill="none" stroke="midnightblue" d="M367.75,-532.85C374.41,-559.79 396.63,-635.35 444,-675 446.02,-676.69 448.2,-678.24 450.48,-679.64"/>
<polygon fill="midnightblue" stroke="midnightblue" points="449.21,-682.93 459.7,-684.41 452.43,-676.71 449.21,-682.93"/>
</g>
<!-- Node181 -->
<g id="node23" class="node">
<title>Node181</title>
<g id="a_node23"><a xlink:href="quickjs_8c.html#a686cf78f8b0361621ee2ba6182195c31" target="_top" xlink:title=" ">
<polygon fill="none" stroke="black" points="462.5,-646.5 462.5,-665.5 550.5,-665.5 550.5,-646.5 462.5,-646.5"/>
<text text-anchor="middle" x="506.5" y="-653.5" font-family="Helvetica,sans-Serif" font-size="10.00">is_strict_mode</text>
</a>
</g>
</g>
<!-- Node3&#45;&gt;Node181 -->
<g id="edge24" class="edge">
<title>Node3&#45;&gt;Node181</title>
<path fill="none" stroke="midnightblue" d="M369.99,-532.58C380.23,-553.48 407.32,-603.57 444,-632 449.17,-636.01 455.1,-639.42 461.18,-642.31"/>
<polygon fill="midnightblue" stroke="midnightblue" points="460.21,-645.7 470.78,-646.42 462.97,-639.27 460.21,-645.7"/>
</g>
<!-- Node257 -->
<g id="node24" class="node">
<title>Node257</title>
<g id="a_node24"><a xlink:href="quickjs_8c.html#ae8ff05447c0d51fe277baccf616dc7c6" target="_top" xlink:title=" ">
<polygon fill="none" stroke="red" points="468.5,-836.5 468.5,-855.5 544.5,-855.5 544.5,-836.5 468.5,-836.5"/>
<text text-anchor="middle" x="506.5" y="-843.5" font-family="Helvetica,sans-Serif" font-size="10.00">js_add_slow</text>
</a>
</g>
</g>
<!-- Node3&#45;&gt;Node257 -->
<g id="edge25" class="edge">
<title>Node3&#45;&gt;Node257</title>
<path fill="none" stroke="midnightblue" d="M366.73,-532.71C372.85,-579.63 401.48,-782.44 444,-827 448.15,-831.35 453.27,-834.71 458.78,-837.31"/>
<polygon fill="midnightblue" stroke="midnightblue" points="457.71,-840.65 468.29,-840.99 460.23,-834.12 457.71,-840.65"/>
</g>
<!-- Node264 -->
<g id="node25" class="node">
<title>Node264</title>
<g id="a_node25"><a xlink:href="quickjs_8c.html#a6a21784a40b8684f2e779bd460dd13b2" target="_top" xlink:title=" ">
<polygon fill="none" stroke="red" points="467.5,-532.5 467.5,-551.5 545.5,-551.5 545.5,-532.5 467.5,-532.5"/>
<text text-anchor="middle" x="506.5" y="-539.5" font-family="Helvetica,sans-Serif" font-size="10.00">JS_AddBrand</text>
</a>
</g>
</g>
<!-- Node3&#45;&gt;Node264 -->
<g id="edge28" class="edge">
<title>Node3&#45;&gt;Node264</title>
<path fill="none" stroke="midnightblue" d="M408.27,-528.8C423.7,-530.9 441.23,-533.28 457.11,-535.43"/>
<polygon fill="midnightblue" stroke="midnightblue" points="456.89,-538.94 467.27,-536.81 457.83,-532 456.89,-538.94"/>
</g>
<!-- Node267 -->
<g id="node26" class="node">
<title>Node267</title>
<g id="a_node26"><a xlink:href="quickjs_8c.html#a43208b0746998d2b6b9b8bd1ef8b5f99" target="_top" xlink:title=" ">
<polygon fill="none" stroke="red" points="444,-722.5 444,-741.5 569,-741.5 569,-722.5 444,-722.5"/>
<text text-anchor="middle" x="506.5" y="-729.5" font-family="Helvetica,sans-Serif" font-size="10.00">js_append_enumerate</text>
</a>
</g>
</g>
<!-- Node3&#45;&gt;Node267 -->
<g id="edge32" class="edge">
<title>Node3&#45;&gt;Node267</title>
<path fill="none" stroke="midnightblue" d="M366.59,-532.51C370.63,-563.34 387.56,-661.54 444,-713 445.74,-714.59 447.62,-716.05 449.59,-717.38"/>
<polygon fill="midnightblue" stroke="midnightblue" points="448.32,-720.68 458.76,-722.49 451.73,-714.57 448.32,-720.68"/>
</g>
<!-- Node98 -->
<g id="node27" class="node">
<title>Node98</title>
<g id="a_node27"><a xlink:href="quickjs_8c.html#a260bfa297ff6cb5bd18e229afaa54663" target="_top" xlink:title=" ">
<polygon fill="none" stroke="red" points="458.5,-456.5 458.5,-475.5 554.5,-475.5 554.5,-456.5 458.5,-456.5"/>
<text text-anchor="middle" x="506.5" y="-463.5" font-family="Helvetica,sans-Serif" font-size="10.00">JS_AtomToString</text>
</a>
</g>
</g>
<!-- Node3&#45;&gt;Node98 -->
<g id="edge36" class="edge">
<title>Node3&#45;&gt;Node98</title>
<path fill="none" stroke="midnightblue" d="M387.77,-513.46C403.45,-506.78 424.95,-497.72 444,-490 452.81,-486.43 462.38,-482.65 471.28,-479.17"/>
<polygon fill="midnightblue" stroke="midnightblue" points="472.55,-482.43 480.61,-475.55 470.02,-475.91 472.55,-482.43"/>
</g>
<!-- Node293 -->
<g id="node28" class="node">
<title>Node293</title>
<g id="a_node28"><a xlink:href="quickjs_8c.html#afa67965c1017685fc6783776d6d0d4d7" target="_top" xlink:title=" ">
<polygon fill="none" stroke="red" points="459,-418.5 459,-437.5 554,-437.5 554,-418.5 459,-418.5"/>
<text text-anchor="middle" x="506.5" y="-425.5" font-family="Helvetica,sans-Serif" font-size="10.00">JS_AtomToValue</text>
</a>
</g>
</g>
<!-- Node3&#45;&gt;Node293 -->
<g id="edge37" class="edge">
<title>Node3&#45;&gt;Node293</title>
<path fill="none" stroke="midnightblue" d="M372.88,-513.35C385.66,-497.29 413.47,-465.07 444,-447 447.62,-444.85 451.51,-442.93 455.51,-441.21"/>
<polygon fill="midnightblue" stroke="midnightblue" points="456.91,-444.42 464.97,-437.54 454.38,-437.89 456.91,-444.42"/>
</g>
<!-- Node3&#45;&gt;Node393 -->
<g id="edge42" class="edge">
<title>Node3&#45;&gt;Node393</title>
<path fill="none" stroke="midnightblue" d="M367.05,-513.16C377.96,-443.71 442.96,-30.2 444,-29 445.16,-27.66 446.41,-26.42 447.73,-25.27"/>
<polygon fill="midnightblue" stroke="midnightblue" points="449.79,-28.1 456.04,-19.54 445.82,-22.33 449.79,-28.1"/>
</g>
<!-- Node65&#45;&gt;Node4 -->
<g id="edge8" class="edge">
<title>Node65&#45;&gt;Node4</title>
<path fill="none" stroke="midnightblue" d="M542.83,-589.59C560.9,-594.49 583.1,-600.52 602.39,-605.76"/>
<polygon fill="midnightblue" stroke="midnightblue" points="601.62,-609.17 612.18,-608.41 603.45,-602.42 601.62,-609.17"/>
</g>
<!-- Node65&#45;&gt;Node66 -->
<g id="edge9" class="edge">
<title>Node65&#45;&gt;Node66</title>
<path fill="none" stroke="midnightblue" d="M547.75,-571.26C555.17,-568.65 562.59,-565.29 569,-561 599.06,-540.87 623.66,-505.88 636.9,-484.45"/>
<polygon fill="midnightblue" stroke="midnightblue" points="640.03,-486.04 642.16,-475.66 634.02,-482.44 640.03,-486.04"/>
</g>
<!-- Node65&#45;&gt;Node75 -->
<g id="edge11" class="edge">
<title>Node65&#45;&gt;Node75</title>
<path fill="none" stroke="midnightblue" d="M519.82,-589.59C532.99,-600.25 554.02,-618.41 569,-637 599.13,-674.4 625.53,-724.57 638.67,-751.34"/>
<polygon fill="midnightblue" stroke="midnightblue" points="635.53,-752.89 643.03,-760.37 641.83,-749.85 635.53,-752.89"/>
</g>
<!-- Node66&#45;&gt;Node57 -->
<g id="edge10" class="edge">
<title>Node66&#45;&gt;Node57</title>
<path fill="none" stroke="midnightblue" d="M673.9,-475.69C680.55,-479.33 687.22,-484.06 692,-490 747.02,-558.36 761.53,-667.26 765.26,-711.91"/>
<polygon fill="midnightblue" stroke="midnightblue" points="761.78,-712.32 766,-722.04 768.76,-711.81 761.78,-712.32"/>
</g>
<!-- Node257&#45;&gt;Node57 -->
<g id="edge26" class="edge">
<title>Node257&#45;&gt;Node57</title>
<path fill="none" stroke="midnightblue" d="M544.69,-838.58C583.05,-830.01 643.89,-813.83 692,-789 713.05,-778.14 734.23,-761.22 748.6,-748.63"/>
<polygon fill="midnightblue" stroke="midnightblue" points="751.11,-751.08 756.22,-741.8 746.43,-745.87 751.11,-751.08"/>
</g>
<!-- Node257&#45;&gt;Node75 -->
<g id="edge27" class="edge">
<title>Node257&#45;&gt;Node75</title>
<path fill="none" stroke="midnightblue" d="M544.69,-836.66C552.9,-834.02 561.4,-830.8 569,-827 591.24,-815.87 613.94,-798.62 629.17,-786.01"/>
<polygon fill="midnightblue" stroke="midnightblue" points="631.44,-788.68 636.81,-779.55 626.92,-783.33 631.44,-788.68"/>
</g>
<!-- Node264&#45;&gt;Node7 -->
<g id="edge29" class="edge">
<title>Node264&#45;&gt;Node7</title>
<path fill="none" stroke="midnightblue" d="M518.81,-532.33C531.47,-521.32 552.4,-502.57 569,-485 593.34,-459.24 619.04,-427.05 634.16,-407.53"/>
<polygon fill="midnightblue" stroke="midnightblue" points="636.99,-409.58 640.32,-399.52 631.45,-405.31 636.99,-409.58"/>
</g>
<!-- Node264&#45;&gt;Node57 -->
<g id="edge30" class="edge">
<title>Node264&#45;&gt;Node57</title>
<path fill="none" stroke="midnightblue" d="M545.66,-545.45C585.94,-550.84 649.38,-564.54 692,-599 729.41,-629.25 751.26,-683.6 760.78,-712.57"/>
<polygon fill="midnightblue" stroke="midnightblue" points="757.5,-713.83 763.83,-722.33 764.19,-711.74 757.5,-713.83"/>
</g>
<!-- Node264&#45;&gt;Node75 -->
<g id="edge31" class="edge">
<title>Node264&#45;&gt;Node75</title>
<path fill="none" stroke="midnightblue" d="M545.51,-547.9C554.05,-550.72 562.49,-554.87 569,-561 583.52,-574.68 625.48,-701.59 641.33,-750.71"/>
<polygon fill="midnightblue" stroke="midnightblue" points="638.07,-751.99 644.46,-760.44 644.73,-749.85 638.07,-751.99"/>
</g>
<!-- Node267&#45;&gt;Node4 -->
<g id="edge33" class="edge">
<title>Node267&#45;&gt;Node4</title>
<path fill="none" stroke="midnightblue" d="M550.01,-722.44C556.67,-719.96 563.24,-716.85 569,-713 599.06,-692.87 623.66,-657.88 636.9,-636.45"/>
<polygon fill="midnightblue" stroke="midnightblue" points="640.03,-638.04 642.16,-627.66 634.02,-634.44 640.03,-638.04"/>
</g>
<!-- Node267&#45;&gt;Node57 -->
<g id="edge34" class="edge">
<title>Node267&#45;&gt;Node57</title>
<path fill="none" stroke="midnightblue" d="M569.21,-732C614.68,-732 675.69,-732 717.77,-732"/>
<polygon fill="midnightblue" stroke="midnightblue" points="717.77,-735.5 727.77,-732 717.77,-728.5 717.77,-735.5"/>
</g>
<!-- Node267&#45;&gt;Node75 -->
<g id="edge35" class="edge">
<title>Node267&#45;&gt;Node75</title>
<path fill="none" stroke="midnightblue" d="M542.83,-741.59C560.9,-746.49 583.1,-752.52 602.39,-757.76"/>
<polygon fill="midnightblue" stroke="midnightblue" points="601.62,-761.17 612.18,-760.41 603.45,-754.42 601.62,-761.17"/>
</g>
<!-- Node374&#45;&gt;Node57 -->
<g id="edge44" class="edge">
<title>Node374&#45;&gt;Node57</title>
<path fill="none" stroke="midnightblue" d="M542.25,-1026.47C551.53,-1022.89 561.15,-1018.15 569,-1012 665.64,-936.33 734.79,-800.76 757.99,-750.99"/>
<polygon fill="midnightblue" stroke="midnightblue" points="761.25,-752.27 762.24,-741.73 754.89,-749.36 761.25,-752.27"/>
</g>
<!-- Node374&#45;&gt;Node75 -->
<g id="edge45" class="edge">
<title>Node374&#45;&gt;Node75</title>
<path fill="none" stroke="midnightblue" d="M547.09,-1026.49C555.17,-1023.03 563.02,-1018.34 569,-1012 600.41,-978.7 632.42,-840.66 643.47,-789.33"/>
<polygon fill="midnightblue" stroke="midnightblue" points="646.9,-790.02 645.55,-779.51 640.05,-788.57 646.9,-790.02"/>
</g>
</g>
</svg>
        <g id="navigator" transform="translate(0 0)" fill="#404254">
                <rect fill="#f2f5e9" fill-opacity="0.5" stroke="#606060" stroke-width=".5" x="0" y="0" width="60" height="60"/>
                <use id="zoomplus" xlink:href="#zoomPlus" x="17" y="9" onmousedown="handleZoom(evt,'in')"/>
                <use id="zoomminus" xlink:href="#zoomMin" x="42" y="9" onmousedown="handleZoom(evt,'out')"/>
                <use id="reset" xlink:href="#resetDef" x="30" y="36" onmousedown="handleReset()"/>
                <g id="arrowUp" xlink:href="#dirArrow" transform="translate(30 24)" onmousedown="handlePan(0,-1)">
                  <use xlink:href="#rim" fill="#404040">
                        <set attributeName="fill" to="#808080" begin="arrowUp.mouseover" end="arrowUp.mouseout"/>
                  </use>
                  <path fill="none" stroke="white" stroke-width="1.5" d="M0,-3.0v7 M-2.5,-0.5L0,-3.0L2.5,-0.5"/>
                </g>
                <g id="arrowRight" xlink:href="#dirArrow" transform="rotate(90) translate(36 -43)" onmousedown="handlePan(1,0)">
                  <use xlink:href="#rim" fill="#404040">
                        <set attributeName="fill" to="#808080" begin="arrowRight.mouseover" end="arrowRight.mouseout"/>
                  </use>
                  <path fill="none" stroke="white" stroke-width="1.5" d="M0,-3.0v7 M-2.5,-0.5L0,-3.0L2.5,-0.5"/>
                </g>
                <g id="arrowDown" xlink:href="#dirArrow" transform="rotate(180) translate(-30 -48)" onmousedown="handlePan(0,1)">
                  <use xlink:href="#rim" fill="#404040">
                        <set attributeName="fill" to="#808080" begin="arrowDown.mouseover" end="arrowDown.mouseout"/>
                  </use>
                  <path fill="none" stroke="white" stroke-width="1.5" d="M0,-3.0v7 M-2.5,-0.5L0,-3.0L2.5,-0.5"/>
                </g>
                <g id="arrowLeft" xlink:href="#dirArrow" transform="rotate(270) translate(-36 17)" onmousedown="handlePan(-1,0)">
                  <use xlink:href="#rim" fill="#404040">
                        <set attributeName="fill" to="#808080" begin="arrowLeft.mouseover" end="arrowLeft.mouseout"/>
                  </use>
                  <path fill="none" stroke="white" stroke-width="1.5" d="M0,-3.0v7 M-2.5,-0.5L0,-3.0L2.5,-0.5"/>
                </g>
        </g>
        <svg viewBox="0 0 15 15" width="100%" height="30px" preserveAspectRatio="xMaxYMin meet">
         <g id="arrow_out" transform="scale(0.3 0.3)">
          <a xlink:href="quickjs_8c_a28704096ee67c5b0ab1bd60ce050e36a_cgraph_org.svg" target="_base">
           <rect id="button" ry="5" rx="5" y="6" x="6" height="38" width="38"
                fill="#f2f5e9" fill-opacity="0.5" stroke="#606060" stroke-width="1.0"/>
           <path id="arrow"
             d="M 11.500037,31.436501 C 11.940474,20.09759 22.043105,11.32322 32.158766,21.979434 L 37.068811,17.246167 C 37.068811,17.246167 37.088388,32 37.088388,32 L 22.160133,31.978069 C 22.160133,31.978069 26.997745,27.140456 26.997745,27.140456 C 18.528582,18.264221 13.291696,25.230495 11.500037,31.436501 z"
             style="fill:#404040;"/>
          </a>
         </g>
        </svg>
</svg>
