<?xml version="1.0" encoding="UTF-8" standalone="no"?>
<!DOCTYPE svg PUBLIC "-//W3C//DTD SVG 1.1//EN"
 "http://www.w3.org/Graphics/SVG/1.1/DTD/svg11.dtd">
<!-- Generated by graphviz version 2.43.0 (0)
 -->
<!-- Title: js_reflect_apply Pages: 1 -->
<!--zoomable 256 -->
<svg id="main" version="1.1" xmlns="http://www.w3.org/2000/svg" xmlns:xlink="http://www.w3.org/1999/xlink" xml:space="preserve" onload="init(evt)">
<style type="text/css"><![CDATA[
.edge:hover path { stroke: red; }
.edge:hover polygon { stroke: red; fill: red; }
]]></style>
<script type="text/javascript"><![CDATA[
var edges = document.getElementsByTagName('g');
if (edges && edges.length) {
  for (var i=0;i<edges.length;i++) {
    if (edges[i].id.substr(0,4)=='edge') {
      edges[i].setAttribute('class','edge');
    }
  }
}
]]></script>
        <defs>
                <circle id="rim" cx="0" cy="0" r="7"/>
                <circle id="rim2" cx="0" cy="0" r="3.5"/>
                <g id="zoomPlus">
                        <use xlink:href="#rim" fill="#404040">
                                <set attributeName="fill" to="#808080" begin="zoomplus.mouseover" end="zoomplus.mouseout"/>
                        </use>
                        <path d="M-4,0h8M0,-4v8" fill="none" stroke="white" stroke-width="1.5" pointer-events="none"/>
                </g>
                <g id="zoomMin">
                        <use xlink:href="#rim" fill="#404040">
                                <set attributeName="fill" to="#808080" begin="zoomminus.mouseover" end="zoomminus.mouseout"/>
                        </use>
                        <path d="M-4,0h8" fill="none" stroke="white" stroke-width="1.5" pointer-events="none"/>
                </g>
                <g id="dirArrow">
                        <path fill="none" stroke="white" stroke-width="1.5" d="M0,-3.0v7 M-2.5,-0.5L0,-3.0L2.5,-0.5"/>
                </g>
               <g id="resetDef">
                       <use xlink:href="#rim2" fill="#404040">
                               <set attributeName="fill" to="#808080" begin="reset.mouseover" end="reset.mouseout"/>
                       </use>
               </g>
        </defs>

<script type="text/javascript">
var viewWidth = 689;
var viewHeight = 256;
var sectionId = 'dynsection-1665';
</script>
<script xlink:href="svgpan.js"/>
<svg id="graph" class="graph">
<g id="viewport">
<title>js_reflect_apply</title>
<!-- Node1 -->
<g id="node1" class="node">
<title>Node1</title>
<g id="a_node1"><a xlink:title=" ">
<polygon fill="#bfbfbf" stroke="black" points="0,-85.5 0,-104.5 93,-104.5 93,-85.5 0,-85.5"/>
<text text-anchor="middle" x="46.5" y="-92.5" font-family="Helvetica,sans-Serif" font-size="10.00">js_reflect_apply</text>
</a>
</g>
</g>
<!-- Node2 -->
<g id="node2" class="node">
<title>Node2</title>
<g id="a_node2"><a xlink:href="quickjs_8c.html#a8d4b24969540aff427939eeda47f451d" target="_top" xlink:title=" ">
<polygon fill="none" stroke="black" points="129,-104.5 129,-123.5 231,-123.5 231,-104.5 129,-104.5"/>
<text text-anchor="middle" x="180" y="-111.5" font-family="Helvetica,sans-Serif" font-size="10.00">js_function_apply</text>
</a>
</g>
</g>
<!-- Node1&#45;&gt;Node2 -->
<g id="edge1" class="edge">
<title>Node1&#45;&gt;Node2</title>
<path fill="none" stroke="midnightblue" d="M93.12,-101.59C101.44,-102.79 110.23,-104.06 118.9,-105.32"/>
<polygon fill="midnightblue" stroke="midnightblue" points="118.57,-108.8 128.97,-106.77 119.57,-101.88 118.57,-108.8"/>
</g>
<!-- Node91 -->
<g id="node14" class="node">
<title>Node91</title>
<g id="a_node14"><a xlink:href="cutils_8h.html#a94f155fcce337a2b9d4719ed8042cbbe" target="_top" xlink:title=" ">
<polygon fill="none" stroke="black" points="152,-66.5 152,-85.5 208,-85.5 208,-66.5 152,-66.5"/>
<text text-anchor="middle" x="180" y="-73.5" font-family="Helvetica,sans-Serif" font-size="10.00">max_int</text>
</a>
</g>
</g>
<!-- Node1&#45;&gt;Node91 -->
<g id="edge16" class="edge">
<title>Node1&#45;&gt;Node91</title>
<path fill="none" stroke="midnightblue" d="M93.12,-88.41C109.03,-86.11 126.69,-83.56 141.83,-81.37"/>
<polygon fill="midnightblue" stroke="midnightblue" points="142.46,-84.82 151.86,-79.92 141.46,-77.89 142.46,-84.82"/>
</g>
<!-- Node3 -->
<g id="node3" class="node">
<title>Node3</title>
<g id="a_node3"><a xlink:href="quickjs_8c.html#a4956f45ffd2849b96dc051277264f87a" target="_top" xlink:title=" ">
<polygon fill="none" stroke="black" points="282,-142.5 282,-161.5 364,-161.5 364,-142.5 282,-142.5"/>
<text text-anchor="middle" x="323" y="-149.5" font-family="Helvetica,sans-Serif" font-size="10.00">build_arg_list</text>
</a>
</g>
</g>
<!-- Node2&#45;&gt;Node3 -->
<g id="edge2" class="edge">
<title>Node2&#45;&gt;Node3</title>
<path fill="none" stroke="midnightblue" d="M216.58,-123.59C234.78,-128.49 257.14,-134.52 276.57,-139.76"/>
<polygon fill="midnightblue" stroke="midnightblue" points="275.86,-143.19 286.43,-142.41 277.69,-136.43 275.86,-143.19"/>
</g>
<!-- Node5 -->
<g id="node5" class="node">
<title>Node5</title>
<g id="a_node5"><a xlink:href="quickjs_8c.html#ac864482356b3efc2d0b0a509fcfa4c7c" target="_top" xlink:title=" ">
<polygon fill="none" stroke="red" points="448,-228.5 448,-247.5 525,-247.5 525,-228.5 448,-228.5"/>
<text text-anchor="middle" x="486.5" y="-235.5" font-family="Helvetica,sans-Serif" font-size="10.00">free_arg_list</text>
</a>
</g>
</g>
<!-- Node2&#45;&gt;Node5 -->
<g id="edge11" class="edge">
<title>Node2&#45;&gt;Node5</title>
<path fill="none" stroke="midnightblue" d="M193.18,-123.63C209.29,-135.99 238.93,-157.46 267,-171 329.28,-201.05 348.71,-199.33 415,-219 422.78,-221.31 431.07,-223.65 439.13,-225.86"/>
<polygon fill="midnightblue" stroke="midnightblue" points="438.24,-229.25 448.81,-228.49 440.08,-222.49 438.24,-229.25"/>
</g>
<!-- Node373 -->
<g id="node10" class="node">
<title>Node373</title>
<g id="a_node10"><a xlink:href="quickjs_8c.html#a59a7e992f228759bf0a56f0aae4f3cc3" target="_top" xlink:title=" ">
<polygon fill="none" stroke="red" points="278,-104.5 278,-123.5 368,-123.5 368,-104.5 278,-104.5"/>
<text text-anchor="middle" x="323" y="-111.5" font-family="Helvetica,sans-Serif" font-size="10.00">check_function</text>
</a>
</g>
</g>
<!-- Node2&#45;&gt;Node373 -->
<g id="edge10" class="edge">
<title>Node2&#45;&gt;Node373</title>
<path fill="none" stroke="midnightblue" d="M231.11,-114C242.86,-114 255.44,-114 267.39,-114"/>
<polygon fill="midnightblue" stroke="midnightblue" points="267.68,-117.5 277.68,-114 267.68,-110.5 267.68,-117.5"/>
</g>
<!-- Node280 -->
<g id="node11" class="node">
<title>Node280</title>
<g id="a_node11"><a xlink:href="quickjs_8c.html#a1a4c02a29525d5cb2085dd8bca3af350" target="_top" xlink:title=" ">
<polygon fill="none" stroke="red" points="298,-66.5 298,-85.5 348,-85.5 348,-66.5 298,-66.5"/>
<text text-anchor="middle" x="323" y="-73.5" font-family="Helvetica,sans-Serif" font-size="10.00">JS_Call</text>
</a>
</g>
</g>
<!-- Node2&#45;&gt;Node280 -->
<g id="edge12" class="edge">
<title>Node2&#45;&gt;Node280</title>
<path fill="none" stroke="midnightblue" d="M216.58,-104.41C238.55,-98.49 266.58,-90.94 288.21,-85.11"/>
<polygon fill="midnightblue" stroke="midnightblue" points="289.22,-88.46 297.96,-82.48 287.4,-81.7 289.22,-88.46"/>
</g>
<!-- Node436 -->
<g id="node12" class="node">
<title>Node436</title>
<g id="a_node12"><a xlink:href="quickjs_8c.html#a03d5edf3e8bb18809d6675e5c08bac26" target="_top" xlink:title=" ">
<polygon fill="none" stroke="black" points="267,-19.5 267,-38.5 379,-38.5 379,-19.5 267,-19.5"/>
<text text-anchor="middle" x="323" y="-26.5" font-family="Helvetica,sans-Serif" font-size="10.00">JS_CallConstructor2</text>
</a>
</g>
</g>
<!-- Node2&#45;&gt;Node436 -->
<g id="edge13" class="edge">
<title>Node2&#45;&gt;Node436</title>
<path fill="none" stroke="midnightblue" d="M212.74,-104.41C219.05,-101.83 225.44,-98.71 231,-95 250.36,-82.1 248.36,-70.92 267,-57 274.03,-51.75 282.2,-46.99 290.05,-42.94"/>
<polygon fill="midnightblue" stroke="midnightblue" points="291.6,-46.08 299.04,-38.54 288.52,-39.8 291.6,-46.08"/>
</g>
<!-- Node4 -->
<g id="node4" class="node">
<title>Node4</title>
<g id="a_node4"><a xlink:href="quickjs_8c.html#a853f0924d441ea4225488f37c8b69f9a" target="_top" xlink:title=" ">
<polygon fill="none" stroke="black" points="446.5,-190.5 446.5,-209.5 526.5,-209.5 526.5,-190.5 446.5,-190.5"/>
<text text-anchor="middle" x="486.5" y="-197.5" font-family="Helvetica,sans-Serif" font-size="10.00">__attribute__</text>
</a>
</g>
</g>
<!-- Node3&#45;&gt;Node4 -->
<g id="edge3" class="edge">
<title>Node3&#45;&gt;Node4</title>
<path fill="none" stroke="midnightblue" d="M352.99,-161.61C370.82,-167.42 394.16,-174.87 415,-181 422.78,-183.29 431.08,-185.62 439.14,-187.83"/>
<polygon fill="midnightblue" stroke="midnightblue" points="438.25,-191.21 448.82,-190.45 440.09,-184.46 438.25,-191.21"/>
</g>
<!-- Node3&#45;&gt;Node5 -->
<g id="edge4" class="edge">
<title>Node3&#45;&gt;Node5</title>
<path fill="none" stroke="midnightblue" d="M334.35,-161.67C350.41,-176.18 382.83,-203.5 415,-219 422.31,-222.52 430.37,-225.47 438.34,-227.91"/>
<polygon fill="midnightblue" stroke="midnightblue" points="437.4,-231.28 447.98,-230.64 439.31,-224.55 437.4,-231.28"/>
</g>
<!-- Node44 -->
<g id="node6" class="node">
<title>Node44</title>
<g id="a_node6"><a xlink:href="quickjs_8h.html#a775522f2d084fc8fa0fcb33f390006b4" target="_top" xlink:title=" ">
<polygon fill="none" stroke="black" points="448,-152.5 448,-171.5 525,-171.5 525,-152.5 448,-152.5"/>
<text text-anchor="middle" x="486.5" y="-159.5" font-family="Helvetica,sans-Serif" font-size="10.00">JS_DupValue</text>
</a>
</g>
</g>
<!-- Node3&#45;&gt;Node44 -->
<g id="edge5" class="edge">
<title>Node3&#45;&gt;Node44</title>
<path fill="none" stroke="midnightblue" d="M364.34,-154.5C386.64,-155.88 414.48,-157.6 437.84,-159.05"/>
<polygon fill="midnightblue" stroke="midnightblue" points="437.69,-162.55 447.89,-159.67 438.13,-155.56 437.69,-162.55"/>
</g>
<!-- Node45 -->
<g id="node7" class="node">
<title>Node45</title>
<g id="a_node7"><a xlink:href="quickjs_8c.html#a718e904644ebc55548a5bdbd44f3adb9" target="_top" xlink:title=" ">
<polygon fill="none" stroke="red" points="439.5,-114.5 439.5,-133.5 533.5,-133.5 533.5,-114.5 439.5,-114.5"/>
<text text-anchor="middle" x="486.5" y="-121.5" font-family="Helvetica,sans-Serif" font-size="10.00">js_get_length32</text>
</a>
</g>
</g>
<!-- Node3&#45;&gt;Node45 -->
<g id="edge6" class="edge">
<title>Node3&#45;&gt;Node45</title>
<path fill="none" stroke="midnightblue" d="M364.34,-145.01C384.02,-141.59 408.01,-137.43 429.44,-133.72"/>
<polygon fill="midnightblue" stroke="midnightblue" points="430.14,-137.15 439.4,-131.99 428.95,-130.25 430.14,-137.15"/>
</g>
<!-- Node55 -->
<g id="node8" class="node">
<title>Node55</title>
<g id="a_node8"><a xlink:href="quickjs_8h.html#ad80a83d73e9b7d872b88fbf2943aebe9" target="_top" xlink:title=" ">
<polygon fill="none" stroke="black" points="594,-76.5 594,-95.5 681,-95.5 681,-76.5 594,-76.5"/>
<text text-anchor="middle" x="637.5" y="-83.5" font-family="Helvetica,sans-Serif" font-size="10.00">JS_IsException</text>
</a>
</g>
</g>
<!-- Node3&#45;&gt;Node55 -->
<g id="edge9" class="edge">
<title>Node3&#45;&gt;Node55</title>
<path fill="none" stroke="midnightblue" d="M357.33,-142.46C364.66,-139.82 372.25,-136.66 379,-133 396.82,-123.34 396.13,-112.39 415,-105 469.63,-83.6 537.47,-80.92 583.58,-82.27"/>
<polygon fill="midnightblue" stroke="midnightblue" points="583.54,-85.77 593.66,-82.64 583.79,-78.77 583.54,-85.77"/>
</g>
<!-- Node265 -->
<g id="node9" class="node">
<title>Node265</title>
<g id="a_node9"><a xlink:href="quickjs_8c.html#aeb97957655d979e9fe56c955da2b2d4b" target="_top" xlink:title=" ">
<polygon fill="none" stroke="red" points="425.5,-38.5 425.5,-57.5 547.5,-57.5 547.5,-38.5 425.5,-38.5"/>
<text text-anchor="middle" x="486.5" y="-45.5" font-family="Helvetica,sans-Serif" font-size="10.00">JS_GetPropertyUint32</text>
</a>
</g>
</g>
<!-- Node3&#45;&gt;Node265 -->
<g id="edge8" class="edge">
<title>Node3&#45;&gt;Node265</title>
<path fill="none" stroke="midnightblue" d="M363.1,-142.39C368.79,-139.92 374.31,-136.84 379,-133 403.38,-113.08 390.58,-91.87 415,-72 420.07,-67.88 425.88,-64.45 431.95,-61.6"/>
<polygon fill="midnightblue" stroke="midnightblue" points="433.73,-64.65 441.63,-57.58 431.05,-58.18 433.73,-64.65"/>
</g>
<!-- Node45&#45;&gt;Node55 -->
<g id="edge7" class="edge">
<title>Node45&#45;&gt;Node55</title>
<path fill="none" stroke="midnightblue" d="M525.1,-114.41C544.58,-109.44 568.57,-103.32 589.3,-98.04"/>
<polygon fill="midnightblue" stroke="midnightblue" points="590.35,-101.38 599.17,-95.52 588.62,-94.6 590.35,-101.38"/>
</g>
<!-- Node290 -->
<g id="node13" class="node">
<title>Node290</title>
<g id="a_node13"><a xlink:href="quickjs_8c.html#ad35594576a14c10812efaf958c99af8a" target="_top" xlink:title=" ">
<polygon fill="none" stroke="red" points="415,-0.5 415,-19.5 558,-19.5 558,-0.5 415,-0.5"/>
<text text-anchor="middle" x="486.5" y="-7.5" font-family="Helvetica,sans-Serif" font-size="10.00">JS_CallConstructorInternal</text>
</a>
</g>
</g>
<!-- Node436&#45;&gt;Node290 -->
<g id="edge14" class="edge">
<title>Node436&#45;&gt;Node290</title>
<path fill="none" stroke="midnightblue" d="M379.13,-22.51C387.4,-21.54 396.08,-20.52 404.75,-19.5"/>
<polygon fill="midnightblue" stroke="midnightblue" points="405.39,-22.95 414.92,-18.3 404.57,-16 405.39,-22.95"/>
</g>
<!-- Node290&#45;&gt;Node55 -->
<g id="edge15" class="edge">
<title>Node290&#45;&gt;Node55</title>
<path fill="none" stroke="midnightblue" d="M532.76,-19.57C541.35,-22.11 550.11,-25.23 558,-29 580.44,-39.72 603.11,-57.04 618.28,-69.77"/>
<polygon fill="midnightblue" stroke="midnightblue" points="616.02,-72.45 625.88,-76.31 620.58,-67.14 616.02,-72.45"/>
</g>
</g>
</svg>
        <g id="navigator" transform="translate(0 0)" fill="#404254">
                <rect fill="#f2f5e9" fill-opacity="0.5" stroke="#606060" stroke-width=".5" x="0" y="0" width="60" height="60"/>
                <use id="zoomplus" xlink:href="#zoomPlus" x="17" y="9" onmousedown="handleZoom(evt,'in')"/>
                <use id="zoomminus" xlink:href="#zoomMin" x="42" y="9" onmousedown="handleZoom(evt,'out')"/>
                <use id="reset" xlink:href="#resetDef" x="30" y="36" onmousedown="handleReset()"/>
                <g id="arrowUp" xlink:href="#dirArrow" transform="translate(30 24)" onmousedown="handlePan(0,-1)">
                  <use xlink:href="#rim" fill="#404040">
                        <set attributeName="fill" to="#808080" begin="arrowUp.mouseover" end="arrowUp.mouseout"/>
                  </use>
                  <path fill="none" stroke="white" stroke-width="1.5" d="M0,-3.0v7 M-2.5,-0.5L0,-3.0L2.5,-0.5"/>
                </g>
                <g id="arrowRight" xlink:href="#dirArrow" transform="rotate(90) translate(36 -43)" onmousedown="handlePan(1,0)">
                  <use xlink:href="#rim" fill="#404040">
                        <set attributeName="fill" to="#808080" begin="arrowRight.mouseover" end="arrowRight.mouseout"/>
                  </use>
                  <path fill="none" stroke="white" stroke-width="1.5" d="M0,-3.0v7 M-2.5,-0.5L0,-3.0L2.5,-0.5"/>
                </g>
                <g id="arrowDown" xlink:href="#dirArrow" transform="rotate(180) translate(-30 -48)" onmousedown="handlePan(0,1)">
                  <use xlink:href="#rim" fill="#404040">
                        <set attributeName="fill" to="#808080" begin="arrowDown.mouseover" end="arrowDown.mouseout"/>
                  </use>
                  <path fill="none" stroke="white" stroke-width="1.5" d="M0,-3.0v7 M-2.5,-0.5L0,-3.0L2.5,-0.5"/>
                </g>
                <g id="arrowLeft" xlink:href="#dirArrow" transform="rotate(270) translate(-36 17)" onmousedown="handlePan(-1,0)">
                  <use xlink:href="#rim" fill="#404040">
                        <set attributeName="fill" to="#808080" begin="arrowLeft.mouseover" end="arrowLeft.mouseout"/>
                  </use>
                  <path fill="none" stroke="white" stroke-width="1.5" d="M0,-3.0v7 M-2.5,-0.5L0,-3.0L2.5,-0.5"/>
                </g>
        </g>
        <svg viewBox="0 0 15 15" width="100%" height="30px" preserveAspectRatio="xMaxYMin meet">
         <g id="arrow_out" transform="scale(0.3 0.3)">
          <a xlink:href="quickjs_8c_a710202e2f99e7c52937df93b912a857b_cgraph_org.svg" target="_base">
           <rect id="button" ry="5" rx="5" y="6" x="6" height="38" width="38"
                fill="#f2f5e9" fill-opacity="0.5" stroke="#606060" stroke-width="1.0"/>
           <path id="arrow"
             d="M 11.500037,31.436501 C 11.940474,20.09759 22.043105,11.32322 32.158766,21.979434 L 37.068811,17.246167 C 37.068811,17.246167 37.088388,32 37.088388,32 L 22.160133,31.978069 C 22.160133,31.978069 26.997745,27.140456 26.997745,27.140456 C 18.528582,18.264221 13.291696,25.230495 11.500037,31.436501 z"
             style="fill:#404040;"/>
          </a>
         </g>
        </svg>
</svg>
