<?xml version="1.0" encoding="UTF-8" standalone="no"?>
<!DOCTYPE svg PUBLIC "-//W3C//DTD SVG 1.1//EN"
 "http://www.w3.org/Graphics/SVG/1.1/DTD/svg11.dtd">
<!-- Generated by graphviz version 2.43.0 (0)
 -->
<!-- Title: js_proxy_getPrototypeOf Pages: 1 -->
<!--zoomable 302 -->
<svg id="main" version="1.1" xmlns="http://www.w3.org/2000/svg" xmlns:xlink="http://www.w3.org/1999/xlink" xml:space="preserve" onload="init(evt)">
<style type="text/css"><![CDATA[
.edge:hover path { stroke: red; }
.edge:hover polygon { stroke: red; fill: red; }
]]></style>
<script type="text/javascript"><![CDATA[
var edges = document.getElementsByTagName('g');
if (edges && edges.length) {
  for (var i=0;i<edges.length;i++) {
    if (edges[i].id.substr(0,4)=='edge') {
      edges[i].setAttribute('class','edge');
    }
  }
}
]]></script>
        <defs>
                <circle id="rim" cx="0" cy="0" r="7"/>
                <circle id="rim2" cx="0" cy="0" r="3.5"/>
                <g id="zoomPlus">
                        <use xlink:href="#rim" fill="#404040">
                                <set attributeName="fill" to="#808080" begin="zoomplus.mouseover" end="zoomplus.mouseout"/>
                        </use>
                        <path d="M-4,0h8M0,-4v8" fill="none" stroke="white" stroke-width="1.5" pointer-events="none"/>
                </g>
                <g id="zoomMin">
                        <use xlink:href="#rim" fill="#404040">
                                <set attributeName="fill" to="#808080" begin="zoomminus.mouseover" end="zoomminus.mouseout"/>
                        </use>
                        <path d="M-4,0h8" fill="none" stroke="white" stroke-width="1.5" pointer-events="none"/>
                </g>
                <g id="dirArrow">
                        <path fill="none" stroke="white" stroke-width="1.5" d="M0,-3.0v7 M-2.5,-0.5L0,-3.0L2.5,-0.5"/>
                </g>
               <g id="resetDef">
                       <use xlink:href="#rim2" fill="#404040">
                               <set attributeName="fill" to="#808080" begin="reset.mouseover" end="reset.mouseout"/>
                       </use>
               </g>
        </defs>

<script type="text/javascript">
var viewWidth = 1112;
var viewHeight = 302;
var sectionId = 'dynsection-42';
</script>
<script xlink:href="svgpan.js"/>
<svg id="graph" class="graph">
<g id="viewport">
<title>js_proxy_getPrototypeOf</title>
<!-- Node1 -->
<g id="node1" class="node">
<title>Node1</title>
<g id="a_node1"><a xlink:title=" ">
<polygon fill="#bfbfbf" stroke="black" points="967,-104.1 967,-123.1 1104,-123.1 1104,-104.1 967,-104.1"/>
<text text-anchor="middle" x="1035.5" y="-111.1" font-family="Helvetica,sans-Serif" font-size="10.00">js_proxy_getPrototypeOf</text>
</a>
</g>
</g>
<!-- Node2 -->
<g id="node2" class="node">
<title>Node2</title>
<g id="a_node2"><a xlink:href="quickjs_8c.html#ad56da91bca3e6259b73d5148126b5099" target="_top" xlink:title=" ">
<polygon fill="none" stroke="black" points="836,-104.1 836,-123.1 931,-123.1 931,-104.1 836,-104.1"/>
<text text-anchor="middle" x="883.5" y="-111.1" font-family="Helvetica,sans-Serif" font-size="10.00">JS_GetPrototype</text>
</a>
</g>
</g>
<!-- Node1&#45;&gt;Node2 -->
<g id="edge1" class="edge">
<title>Node1&#45;&gt;Node2</title>
<path fill="none" stroke="midnightblue" d="M956.69,-106.85C947.94,-106.88 939.24,-107.03 931.06,-107.3"/>
<polygon fill="midnightblue" stroke="midnightblue" points="956.95,-110.36 966.96,-106.88 956.97,-103.36 956.95,-110.36"/>
</g>
<!-- Node2&#45;&gt;Node1 -->
<g id="edge22" class="edge">
<title>Node2&#45;&gt;Node1</title>
<path fill="none" stroke="midnightblue" d="M941.15,-120.17C949.58,-120.34 958.34,-120.39 966.96,-120.32"/>
<polygon fill="midnightblue" stroke="midnightblue" points="941.15,-116.67 931.06,-119.9 940.97,-123.66 941.15,-116.67"/>
</g>
<!-- Node3 -->
<g id="node3" class="node">
<title>Node3</title>
<g id="a_node3"><a xlink:href="quickjs_8c.html#ac2894ff4edcdb4e6841bcce9c76081e3" target="_top" xlink:title=" ">
<polygon fill="none" stroke="black" points="352,-171.1 352,-190.1 439,-190.1 439,-171.1 352,-171.1"/>
<text text-anchor="middle" x="395.5" y="-178.1" font-family="Helvetica,sans-Serif" font-size="10.00">JS_CallInternal</text>
</a>
</g>
</g>
<!-- Node2&#45;&gt;Node3 -->
<g id="edge2" class="edge">
<title>Node2&#45;&gt;Node3</title>
<path fill="none" stroke="midnightblue" d="M825.91,-102.8C728.93,-85.4 535.58,-55.88 475,-84.6 436.48,-102.86 410.59,-150.3 400.83,-170.86"/>
<polygon fill="midnightblue" stroke="midnightblue" points="825.37,-106.26 835.83,-104.6 826.62,-99.37 825.37,-106.26"/>
</g>
<!-- Node605 -->
<g id="node8" class="node">
<title>Node605</title>
<g id="a_node8"><a xlink:href="quickjs_8c.html#ae8b32777df50bb192c19840adc4d32a1" target="_top" xlink:title=" ">
<polygon fill="none" stroke="red" points="0,-132.1 0,-151.1 137,-151.1 137,-132.1 0,-132.1"/>
<text text-anchor="middle" x="68.5" y="-139.1" font-family="Helvetica,sans-Serif" font-size="10.00">js_proxy_setPrototypeOf</text>
</a>
</g>
</g>
<!-- Node2&#45;&gt;Node605 -->
<g id="edge23" class="edge">
<title>Node2&#45;&gt;Node605</title>
<path fill="none" stroke="midnightblue" d="M871.16,-95.45C857.21,-74.93 831.48,-42.46 800,-27.6 699.43,19.88 661.71,-8.6 550.5,-8.6 550.5,-8.6 550.5,-8.6 394.5,-8.6 264.03,-8.6 124.58,-101.54 82.34,-132.04"/>
<polygon fill="midnightblue" stroke="midnightblue" points="868.31,-97.48 876.71,-103.93 874.16,-93.64 868.31,-97.48"/>
</g>
<!-- Node611 -->
<g id="node9" class="node">
<title>Node611</title>
<g id="a_node9"><a xlink:href="quickjs_8c.html#a7f82fd53b039b4e12f1addfa15d750ae" target="_top" xlink:title=" ">
<polygon fill="none" stroke="black" points="672,-132.1 672,-151.1 788,-151.1 788,-132.1 672,-132.1"/>
<text text-anchor="middle" x="730" y="-139.1" font-family="Helvetica,sans-Serif" font-size="10.00">JS_GetPrototypeFree</text>
</a>
</g>
</g>
<!-- Node2&#45;&gt;Node611 -->
<g id="edge13" class="edge">
<title>Node2&#45;&gt;Node611</title>
<path fill="none" stroke="midnightblue" d="M825.7,-124.1C811.54,-126.72 796.44,-129.51 782.55,-132.07"/>
<polygon fill="midnightblue" stroke="midnightblue" points="826.61,-127.49 835.81,-122.23 825.34,-120.61 826.61,-127.49"/>
</g>
<!-- Node312 -->
<g id="node15" class="node">
<title>Node312</title>
<g id="a_node15"><a xlink:href="quickjs_8c.html#a0b46bf41453514070c7c0d722b107546" target="_top" xlink:title=" ">
<polygon fill="none" stroke="black" points="663.5,-37.1 663.5,-56.1 796.5,-56.1 796.5,-37.1 663.5,-37.1"/>
<text text-anchor="middle" x="730" y="-44.1" font-family="Helvetica,sans-Serif" font-size="10.00">js_object_get___proto__</text>
</a>
</g>
</g>
<!-- Node2&#45;&gt;Node312 -->
<g id="edge20" class="edge">
<title>Node2&#45;&gt;Node312</title>
<path fill="none" stroke="midnightblue" d="M856.99,-99.07C840.92,-90.23 819.59,-79.06 800,-70.6 787.66,-65.27 773.71,-60.24 761.59,-56.17"/>
<polygon fill="midnightblue" stroke="midnightblue" points="855.35,-102.16 865.79,-103.97 858.75,-96.05 855.35,-102.16"/>
</g>
<!-- Node612 -->
<g id="node16" class="node">
<title>Node612</title>
<g id="a_node16"><a xlink:href="quickjs_8c.html#ad3ae6750957868bc31ebfcb116b4df9c" target="_top" xlink:title=" ">
<polygon fill="none" stroke="black" points="660,-170.1 660,-189.1 800,-189.1 800,-170.1 660,-170.1"/>
<text text-anchor="middle" x="730" y="-177.1" font-family="Helvetica,sans-Serif" font-size="10.00">js_object_getPrototypeOf</text>
</a>
</g>
</g>
<!-- Node2&#45;&gt;Node612 -->
<g id="edge21" class="edge">
<title>Node2&#45;&gt;Node612</title>
<path fill="none" stroke="midnightblue" d="M859.44,-128.81C843.32,-138.92 821,-151.89 800,-160.6 791.28,-164.22 781.65,-167.36 772.43,-170"/>
<polygon fill="midnightblue" stroke="midnightblue" points="861.62,-131.58 868.16,-123.24 857.85,-125.68 861.62,-131.58"/>
</g>
<!-- Node3&#45;&gt;Node3 -->
<g id="edge12" class="edge">
<title>Node3&#45;&gt;Node3</title>
<path fill="none" stroke="midnightblue" d="M423.5,-199.25C422.33,-204.54 413,-208.6 395.5,-208.6 368.84,-208.6 361.13,-199.17 372.38,-190.36"/>
<polygon fill="midnightblue" stroke="midnightblue" points="426.5,-197.44 418.62,-190.36 420.36,-200.81 426.5,-197.44"/>
</g>
<!-- Node4 -->
<g id="node4" class="node">
<title>Node4</title>
<g id="a_node4"><a xlink:href="quickjs_8c.html#ade71a22dc56e7371392393df663b28b3" target="_top" xlink:title=" ">
<polygon fill="none" stroke="red" points="188,-133.1 188,-152.1 301,-152.1 301,-133.1 188,-133.1"/>
<text text-anchor="middle" x="244.5" y="-140.1" font-family="Helvetica,sans-Serif" font-size="10.00">async_func_resume</text>
</a>
</g>
</g>
<!-- Node3&#45;&gt;Node4 -->
<g id="edge3" class="edge">
<title>Node3&#45;&gt;Node4</title>
<path fill="none" stroke="midnightblue" d="M347.01,-168.49C326.26,-163.2 302.27,-157.08 282.83,-152.12"/>
<polygon fill="midnightblue" stroke="midnightblue" points="346.35,-171.93 356.9,-171.01 348.08,-165.15 346.35,-171.93"/>
</g>
<!-- Node23 -->
<g id="node5" class="node">
<title>Node23</title>
<g id="a_node5"><a xlink:href="quickjs_8c.html#a1a4c02a29525d5cb2085dd8bca3af350" target="_top" xlink:title=" ">
<polygon fill="none" stroke="red" points="219.5,-95.1 219.5,-114.1 269.5,-114.1 269.5,-95.1 219.5,-95.1"/>
<text text-anchor="middle" x="244.5" y="-102.1" font-family="Helvetica,sans-Serif" font-size="10.00">JS_Call</text>
</a>
</g>
</g>
<!-- Node3&#45;&gt;Node23 -->
<g id="edge4" class="edge">
<title>Node3&#45;&gt;Node23</title>
<path fill="none" stroke="midnightblue" d="M382.3,-163.1C367.59,-147.72 341.65,-126.85 316,-114.6 301.36,-107.61 283.73,-102.86 269.77,-100.98"/>
<polygon fill="midnightblue" stroke="midnightblue" points="380,-165.79 389.24,-170.99 385.26,-161.17 380,-165.79"/>
</g>
<!-- Node109 -->
<g id="node6" class="node">
<title>Node109</title>
<g id="a_node6"><a xlink:href="quickjs_8c.html#ad35594576a14c10812efaf958c99af8a" target="_top" xlink:title=" ">
<polygon fill="none" stroke="red" points="173,-171.1 173,-190.1 316,-190.1 316,-171.1 173,-171.1"/>
<text text-anchor="middle" x="244.5" y="-178.1" font-family="Helvetica,sans-Serif" font-size="10.00">JS_CallConstructorInternal</text>
</a>
</g>
</g>
<!-- Node3&#45;&gt;Node109 -->
<g id="edge6" class="edge">
<title>Node3&#45;&gt;Node109</title>
<path fill="none" stroke="midnightblue" d="M341.57,-174.11C333.3,-173.91 324.64,-173.82 316.05,-173.86"/>
<polygon fill="midnightblue" stroke="midnightblue" points="341.7,-177.61 351.8,-174.43 341.92,-170.62 341.7,-177.61"/>
</g>
<!-- Node123 -->
<g id="node7" class="node">
<title>Node123</title>
<g id="a_node7"><a xlink:href="quickjs_8c.html#a75f6ee5e4235a7dc99889f3d2eb2c147" target="_top" xlink:title=" ">
<polygon fill="none" stroke="red" points="209,-209.1 209,-228.1 280,-228.1 280,-209.1 209,-209.1"/>
<text text-anchor="middle" x="244.5" y="-216.1" font-family="Helvetica,sans-Serif" font-size="10.00">JS_CallFree</text>
</a>
</g>
</g>
<!-- Node3&#45;&gt;Node123 -->
<g id="edge8" class="edge">
<title>Node3&#45;&gt;Node123</title>
<path fill="none" stroke="midnightblue" d="M341.78,-187.56C315,-193.72 284.11,-202.2 264.7,-209"/>
<polygon fill="midnightblue" stroke="midnightblue" points="342.81,-190.92 351.8,-185.32 341.28,-184.08 342.81,-190.92"/>
</g>
<!-- Node23&#45;&gt;Node3 -->
<g id="edge5" class="edge">
<title>Node23&#45;&gt;Node3</title>
<path fill="none" stroke="midnightblue" d="M271.25,-117.17C284.97,-121.19 301.87,-125.85 316,-132.6 338.04,-143.13 360.29,-160.02 375.45,-171.05"/>
<polygon fill="midnightblue" stroke="midnightblue" points="272.07,-113.76 261.48,-114.19 270.03,-120.45 272.07,-113.76"/>
</g>
<!-- Node109&#45;&gt;Node3 -->
<g id="edge7" class="edge">
<title>Node109&#45;&gt;Node3</title>
<path fill="none" stroke="midnightblue" d="M326.08,-187.33C334.94,-187.27 343.68,-187.09 351.8,-186.77"/>
<polygon fill="midnightblue" stroke="midnightblue" points="326.05,-183.83 316.05,-187.34 326.06,-190.83 326.05,-183.83"/>
</g>
<!-- Node123&#45;&gt;Node1 -->
<g id="edge10" class="edge">
<title>Node123&#45;&gt;Node1</title>
<path fill="none" stroke="midnightblue" d="M277.7,-232.05C332.36,-253.64 447.23,-293.6 548.5,-293.6 731,-293.6 731,-293.6 731,-293.6 865.77,-293.6 993.05,-160.67 1026.18,-123.28"/>
<polygon fill="midnightblue" stroke="midnightblue" points="278.8,-228.72 268.21,-228.25 276.19,-235.22 278.8,-228.72"/>
</g>
<!-- Node123&#45;&gt;Node3 -->
<g id="edge9" class="edge">
<title>Node123&#45;&gt;Node3</title>
<path fill="none" stroke="midnightblue" d="M290.36,-213.41C318.74,-207.18 353.98,-197.68 375.33,-190.19"/>
<polygon fill="midnightblue" stroke="midnightblue" points="289.31,-210.06 280.25,-215.55 290.76,-216.9 289.31,-210.06"/>
</g>
<!-- Node123&#45;&gt;Node605 -->
<g id="edge11" class="edge">
<title>Node123&#45;&gt;Node605</title>
<path fill="none" stroke="midnightblue" d="M199.12,-208.44C190.33,-205.93 181.27,-202.97 173,-199.6 139.62,-186 103.51,-163.89 84,-151.26"/>
<polygon fill="midnightblue" stroke="midnightblue" points="198.3,-211.84 208.87,-211.09 200.14,-205.09 198.3,-211.84"/>
</g>
<!-- Node129 -->
<g id="node10" class="node">
<title>Node129</title>
<g id="a_node10"><a xlink:href="quickjs_8c.html#aa40a5354bee3b56e05a71244910bcc78" target="_top" xlink:title=" ">
<polygon fill="none" stroke="red" points="492,-132.1 492,-151.1 607,-151.1 607,-132.1 492,-132.1"/>
<text text-anchor="middle" x="549.5" y="-139.1" font-family="Helvetica,sans-Serif" font-size="10.00">build_for_in_iterator</text>
</a>
</g>
</g>
<!-- Node611&#45;&gt;Node129 -->
<g id="edge14" class="edge">
<title>Node611&#45;&gt;Node129</title>
<path fill="none" stroke="midnightblue" d="M661.22,-141.6C643.42,-141.6 624.4,-141.6 607.24,-141.6"/>
<polygon fill="midnightblue" stroke="midnightblue" points="661.54,-145.1 671.54,-141.6 661.54,-138.1 661.54,-145.1"/>
</g>
<!-- Node310 -->
<g id="node11" class="node">
<title>Node310</title>
<g id="a_node11"><a xlink:href="quickjs_8c.html#a26abea9136a3d8e9a861aefb51626b4e" target="_top" xlink:title=" ">
<polygon fill="none" stroke="black" points="475,-94.1 475,-113.1 624,-113.1 624,-94.1 475,-94.1"/>
<text text-anchor="middle" x="549.5" y="-101.1" font-family="Helvetica,sans-Serif" font-size="10.00">js_object___lookupGetter__</text>
</a>
</g>
</g>
<!-- Node611&#45;&gt;Node310 -->
<g id="edge15" class="edge">
<title>Node611&#45;&gt;Node310</title>
<path fill="none" stroke="midnightblue" d="M674.13,-129.92C648.82,-124.53 619.15,-118.21 595.22,-113.12"/>
<polygon fill="midnightblue" stroke="midnightblue" points="673.45,-133.35 683.96,-132.01 674.9,-126.51 673.45,-133.35"/>
</g>
<!-- Node314 -->
<g id="node12" class="node">
<title>Node314</title>
<g id="a_node12"><a xlink:href="quickjs_8c.html#a04be55d1144f71bce472514bd31f0796" target="_top" xlink:title=" ">
<polygon fill="none" stroke="black" points="483.5,-208.1 483.5,-227.1 615.5,-227.1 615.5,-208.1 483.5,-208.1"/>
<text text-anchor="middle" x="549.5" y="-215.1" font-family="Helvetica,sans-Serif" font-size="10.00">js_object_isPrototypeOf</text>
</a>
</g>
</g>
<!-- Node611&#45;&gt;Node314 -->
<g id="edge16" class="edge">
<title>Node611&#45;&gt;Node314</title>
<path fill="none" stroke="midnightblue" d="M671.41,-154.82C667.44,-156.52 663.6,-158.44 660,-160.6 640.05,-172.57 644.04,-186.79 624,-198.6 617.41,-202.48 610.04,-205.58 602.57,-208.05"/>
<polygon fill="midnightblue" stroke="midnightblue" points="672.75,-158.05 680.83,-151.21 670.24,-151.52 672.75,-158.05"/>
</g>
<!-- Node408 -->
<g id="node13" class="node">
<title>Node408</title>
<g id="a_node13"><a xlink:href="quickjs_8c.html#aa0b5c1a59ff4832154e2a98d7c63a4b2" target="_top" xlink:title=" ">
<polygon fill="none" stroke="red" points="482.5,-170.1 482.5,-189.1 616.5,-189.1 616.5,-170.1 482.5,-170.1"/>
<text text-anchor="middle" x="549.5" y="-177.1" font-family="Helvetica,sans-Serif" font-size="10.00">JS_OrdinaryIsInstanceOf</text>
</a>
</g>
</g>
<!-- Node611&#45;&gt;Node408 -->
<g id="edge17" class="edge">
<title>Node611&#45;&gt;Node408</title>
<path fill="none" stroke="midnightblue" d="M674.13,-153.28C648.82,-158.67 619.15,-164.99 595.22,-170.08"/>
<polygon fill="midnightblue" stroke="midnightblue" points="674.9,-156.69 683.96,-151.19 673.45,-149.85 674.9,-156.69"/>
</g>
<!-- Node125 -->
<g id="node14" class="node">
<title>Node125</title>
<g id="a_node14"><a xlink:href="quickjs_8c.html#a3d5eeb3c1fed80d35e4e9e14b9cb15b8" target="_top" xlink:title=" ">
<polygon fill="none" stroke="red" points="487,-246.1 487,-265.1 612,-265.1 612,-246.1 487,-246.1"/>
<text text-anchor="middle" x="549.5" y="-253.1" font-family="Helvetica,sans-Serif" font-size="10.00">JS_SetPropertyGeneric</text>
</a>
</g>
</g>
<!-- Node611&#45;&gt;Node125 -->
<g id="edge18" class="edge">
<title>Node611&#45;&gt;Node125</title>
<path fill="none" stroke="midnightblue" d="M666.37,-156C664.13,-157.39 662,-158.92 660,-160.6 631.38,-184.64 652.81,-212.79 624,-236.6 619.33,-240.46 613.96,-243.55 608.3,-246.02"/>
<polygon fill="midnightblue" stroke="midnightblue" points="668.18,-159 675.41,-151.25 664.93,-152.8 668.18,-159"/>
</g>
<!-- Node125&#45;&gt;Node3 -->
<g id="edge19" class="edge">
<title>Node125&#45;&gt;Node3</title>
<path fill="none" stroke="midnightblue" d="M491,-242.94C485.49,-241.07 480.08,-238.97 475,-236.6 448.45,-224.22 421.51,-202.6 407.13,-190.15"/>
<polygon fill="midnightblue" stroke="midnightblue" points="490.36,-246.4 500.94,-246.04 492.44,-239.72 490.36,-246.4"/>
</g>
</g>
</svg>
        <g id="navigator" transform="translate(0 0)" fill="#404254">
                <rect fill="#f2f5e9" fill-opacity="0.5" stroke="#606060" stroke-width=".5" x="0" y="0" width="60" height="60"/>
                <use id="zoomplus" xlink:href="#zoomPlus" x="17" y="9" onmousedown="handleZoom(evt,'in')"/>
                <use id="zoomminus" xlink:href="#zoomMin" x="42" y="9" onmousedown="handleZoom(evt,'out')"/>
                <use id="reset" xlink:href="#resetDef" x="30" y="36" onmousedown="handleReset()"/>
                <g id="arrowUp" xlink:href="#dirArrow" transform="translate(30 24)" onmousedown="handlePan(0,-1)">
                  <use xlink:href="#rim" fill="#404040">
                        <set attributeName="fill" to="#808080" begin="arrowUp.mouseover" end="arrowUp.mouseout"/>
                  </use>
                  <path fill="none" stroke="white" stroke-width="1.5" d="M0,-3.0v7 M-2.5,-0.5L0,-3.0L2.5,-0.5"/>
                </g>
                <g id="arrowRight" xlink:href="#dirArrow" transform="rotate(90) translate(36 -43)" onmousedown="handlePan(1,0)">
                  <use xlink:href="#rim" fill="#404040">
                        <set attributeName="fill" to="#808080" begin="arrowRight.mouseover" end="arrowRight.mouseout"/>
                  </use>
                  <path fill="none" stroke="white" stroke-width="1.5" d="M0,-3.0v7 M-2.5,-0.5L0,-3.0L2.5,-0.5"/>
                </g>
                <g id="arrowDown" xlink:href="#dirArrow" transform="rotate(180) translate(-30 -48)" onmousedown="handlePan(0,1)">
                  <use xlink:href="#rim" fill="#404040">
                        <set attributeName="fill" to="#808080" begin="arrowDown.mouseover" end="arrowDown.mouseout"/>
                  </use>
                  <path fill="none" stroke="white" stroke-width="1.5" d="M0,-3.0v7 M-2.5,-0.5L0,-3.0L2.5,-0.5"/>
                </g>
                <g id="arrowLeft" xlink:href="#dirArrow" transform="rotate(270) translate(-36 17)" onmousedown="handlePan(-1,0)">
                  <use xlink:href="#rim" fill="#404040">
                        <set attributeName="fill" to="#808080" begin="arrowLeft.mouseover" end="arrowLeft.mouseout"/>
                  </use>
                  <path fill="none" stroke="white" stroke-width="1.5" d="M0,-3.0v7 M-2.5,-0.5L0,-3.0L2.5,-0.5"/>
                </g>
        </g>
        <svg viewBox="0 0 15 15" width="100%" height="30px" preserveAspectRatio="xMaxYMin meet">
         <g id="arrow_out" transform="scale(0.3 0.3)">
          <a xlink:href="quickjs_8c_adda8732f2afb3bb7bd7e5f59e3ba022d_icgraph_org.svg" target="_base">
           <rect id="button" ry="5" rx="5" y="6" x="6" height="38" width="38"
                fill="#f2f5e9" fill-opacity="0.5" stroke="#606060" stroke-width="1.0"/>
           <path id="arrow"
             d="M 11.500037,31.436501 C 11.940474,20.09759 22.043105,11.32322 32.158766,21.979434 L 37.068811,17.246167 C 37.068811,17.246167 37.088388,32 37.088388,32 L 22.160133,31.978069 C 22.160133,31.978069 26.997745,27.140456 26.997745,27.140456 C 18.528582,18.264221 13.291696,25.230495 11.500037,31.436501 z"
             style="fill:#404040;"/>
          </a>
         </g>
        </svg>
</svg>
