<?xml version="1.0" encoding="UTF-8" standalone="no"?>
<!DOCTYPE svg PUBLIC "-//W3C//DTD SVG 1.1//EN"
 "http://www.w3.org/Graphics/SVG/1.1/DTD/svg11.dtd">
<!-- Generated by graphviz version 2.43.0 (0)
 -->
<!-- Title: js_promise_resolve_thenable_job Pages: 1 -->
<svg width="773pt" height="1056pt"
 viewBox="0.00 0.00 773.00 1056.00" xmlns="http://www.w3.org/2000/svg" xmlns:xlink="http://www.w3.org/1999/xlink">
<g id="graph0" class="graph" transform="scale(1 1) rotate(0) translate(4 1052)">
<title>js_promise_resolve_thenable_job</title>
<!-- Node1 -->
<g id="node1" class="node">
<title>Node1</title>
<g id="a_node1"><a xlink:title=" ">
<polygon fill="#bfbfbf" stroke="black" points="0,-875 0,-905 111,-905 111,-875 0,-875"/>
<text text-anchor="start" x="8" y="-893" font-family="Helvetica,sans-Serif" font-size="10.00">js_promise_resolve</text>
<text text-anchor="middle" x="55.5" y="-882" font-family="Helvetica,sans-Serif" font-size="10.00">_thenable_job</text>
</a>
</g>
</g>
<!-- Node2 -->
<g id="node2" class="node">
<title>Node2</title>
<g id="a_node2"><a xlink:href="quickjs_8c.html#a1a4c02a29525d5cb2085dd8bca3af350" target="_top" xlink:title=" ">
<polygon fill="none" stroke="black" points="170,-668.5 170,-687.5 220,-687.5 220,-668.5 170,-668.5"/>
<text text-anchor="middle" x="195" y="-675.5" font-family="Helvetica,sans-Serif" font-size="10.00">JS_Call</text>
</a>
</g>
</g>
<!-- Node1&#45;&gt;Node2 -->
<g id="edge1" class="edge">
<title>Node1&#45;&gt;Node2</title>
<path fill="none" stroke="midnightblue" d="M66.39,-874.75C91.07,-836.7 155.3,-737.66 182.05,-696.43"/>
<polygon fill="midnightblue" stroke="midnightblue" points="185.07,-698.2 187.58,-687.91 179.2,-694.39 185.07,-698.2"/>
</g>
<!-- Node57 -->
<g id="node10" class="node">
<title>Node57</title>
<g id="a_node10"><a xlink:href="quickjs_8h.html#afaa20c47565bc704c6c85f3d77254e7d" target="_top" xlink:title=" ">
<polygon fill="none" stroke="red" points="686,-842.5 686,-861.5 765,-861.5 765,-842.5 686,-842.5"/>
<text text-anchor="middle" x="725.5" y="-849.5" font-family="Helvetica,sans-Serif" font-size="10.00">JS_FreeValue</text>
</a>
</g>
</g>
<!-- Node1&#45;&gt;Node57 -->
<g id="edge50" class="edge">
<title>Node1&#45;&gt;Node57</title>
<path fill="none" stroke="midnightblue" d="M69.72,-905.15C105.79,-944.7 210.62,-1048 321.5,-1048 321.5,-1048 321.5,-1048 465.5,-1048 582.6,-1048 680.14,-919.04 712.81,-870.33"/>
<polygon fill="midnightblue" stroke="midnightblue" points="715.9,-872 718.46,-861.72 710.05,-868.16 715.9,-872"/>
</g>
<!-- Node75 -->
<g id="node12" class="node">
<title>Node75</title>
<g id="a_node12"><a xlink:href="quickjs_8h.html#ad80a83d73e9b7d872b88fbf2943aebe9" target="_top" xlink:title=" ">
<polygon fill="none" stroke="black" points="563,-804.5 563,-823.5 650,-823.5 650,-804.5 563,-804.5"/>
<text text-anchor="middle" x="606.5" y="-811.5" font-family="Helvetica,sans-Serif" font-size="10.00">JS_IsException</text>
</a>
</g>
</g>
<!-- Node1&#45;&gt;Node75 -->
<g id="edge52" class="edge">
<title>Node1&#45;&gt;Node75</title>
<path fill="none" stroke="midnightblue" d="M82.62,-905.08C159.41,-947.22 387.82,-1056.56 527,-953 571.67,-919.76 526.25,-874.83 563,-833 564.14,-831.71 565.38,-830.5 566.7,-829.36"/>
<polygon fill="midnightblue" stroke="midnightblue" points="568.69,-832.24 574.97,-823.71 564.74,-826.47 568.69,-832.24"/>
</g>
<!-- Node380 -->
<g id="node29" class="node">
<title>Node380</title>
<g id="a_node29"><a xlink:href="quickjs_8c.html#a37cac335cb6abd3c24e162ad57f418f1" target="_top" xlink:title=" ">
<polygon fill="none" stroke="red" points="409,-875 409,-905 520,-905 520,-875 409,-875"/>
<text text-anchor="start" x="417" y="-893" font-family="Helvetica,sans-Serif" font-size="10.00">js_create_resolving</text>
<text text-anchor="middle" x="464.5" y="-882" font-family="Helvetica,sans-Serif" font-size="10.00">_functions</text>
</a>
</g>
</g>
<!-- Node1&#45;&gt;Node380 -->
<g id="edge46" class="edge">
<title>Node1&#45;&gt;Node380</title>
<path fill="none" stroke="midnightblue" d="M111.39,-890C185.94,-890 318.99,-890 398.46,-890"/>
<polygon fill="midnightblue" stroke="midnightblue" points="398.83,-893.5 408.83,-890 398.83,-886.5 398.83,-893.5"/>
</g>
<!-- Node353 -->
<g id="node30" class="node">
<title>Node353</title>
<g id="a_node30"><a xlink:href="quickjs_8c.html#a8551eaac7ef616910807cebdc515760d" target="_top" xlink:title=" ">
<polygon fill="none" stroke="black" points="147,-630.5 147,-649.5 243,-649.5 243,-630.5 147,-630.5"/>
<text text-anchor="middle" x="195" y="-637.5" font-family="Helvetica,sans-Serif" font-size="10.00">JS_GetException</text>
</a>
</g>
</g>
<!-- Node1&#45;&gt;Node353 -->
<g id="edge51" class="edge">
<title>Node1&#45;&gt;Node353</title>
<path fill="none" stroke="midnightblue" d="M58.29,-874.82C63.82,-834.3 84.3,-722.38 147,-659 148.44,-657.55 150,-656.2 151.66,-654.95"/>
<polygon fill="midnightblue" stroke="midnightblue" points="153.84,-657.72 160.55,-649.51 150.19,-651.75 153.84,-657.72"/>
</g>
<!-- Node3 -->
<g id="node3" class="node">
<title>Node3</title>
<g id="a_node3"><a xlink:href="quickjs_8c.html#ac2894ff4edcdb4e6841bcce9c76081e3" target="_top" xlink:title=" ">
<polygon fill="none" stroke="red" points="279,-494.5 279,-513.5 366,-513.5 366,-494.5 279,-494.5"/>
<text text-anchor="middle" x="322.5" y="-501.5" font-family="Helvetica,sans-Serif" font-size="10.00">JS_CallInternal</text>
</a>
</g>
</g>
<!-- Node2&#45;&gt;Node3 -->
<g id="edge2" class="edge">
<title>Node2&#45;&gt;Node3</title>
<path fill="none" stroke="midnightblue" d="M208.5,-668.33C218.81,-663.92 233.28,-658.93 243,-650 282.14,-614.04 304.59,-554.14 314.79,-523.23"/>
<polygon fill="midnightblue" stroke="midnightblue" points="318.15,-524.19 317.89,-513.6 311.49,-522.05 318.15,-524.19"/>
</g>
<!-- Node3&#45;&gt;Node2 -->
<g id="edge41" class="edge">
<title>Node3&#45;&gt;Node2</title>
<path fill="none" stroke="midnightblue" d="M320.03,-513.73C314.3,-542.39 291.42,-623.51 243,-668 239.13,-671.56 234.51,-674.49 229.69,-676.78"/>
<polygon fill="midnightblue" stroke="midnightblue" points="228.42,-673.52 220.35,-680.39 230.94,-680.05 228.42,-673.52"/>
</g>
<!-- Node3&#45;&gt;Node3 -->
<g id="edge42" class="edge">
<title>Node3&#45;&gt;Node3</title>
<path fill="none" stroke="midnightblue" d="M303.08,-513.76C293.63,-522.57 300.11,-532 322.5,-532 336.85,-532 344.66,-528.13 345.94,-523.03"/>
<polygon fill="midnightblue" stroke="midnightblue" points="349.11,-521.54 341.92,-513.76 342.68,-524.32 349.11,-521.54"/>
</g>
<!-- Node4 -->
<g id="node4" class="node">
<title>Node4</title>
<g id="a_node4"><a xlink:href="quickjs_8c.html#a853f0924d441ea4225488f37c8b69f9a" target="_top" xlink:title=" ">
<polygon fill="none" stroke="black" points="566.5,-722.5 566.5,-741.5 646.5,-741.5 646.5,-722.5 566.5,-722.5"/>
<text text-anchor="middle" x="606.5" y="-729.5" font-family="Helvetica,sans-Serif" font-size="10.00">__attribute__</text>
</a>
</g>
</g>
<!-- Node3&#45;&gt;Node4 -->
<g id="edge3" class="edge">
<title>Node3&#45;&gt;Node4</title>
<path fill="none" stroke="midnightblue" d="M323.76,-513.52C325.23,-547.27 335.16,-661.94 402,-713 445.82,-746.47 511.42,-746.31 556.22,-741.01"/>
<polygon fill="midnightblue" stroke="midnightblue" points="556.83,-744.46 566.29,-739.69 555.92,-737.52 556.83,-744.46"/>
</g>
<!-- Node5 -->
<g id="node5" class="node">
<title>Node5</title>
<g id="a_node5"><a xlink:href="quickjs_8c.html#a877fcb7651d95b411ce70e62b7f4a1f0" target="_top" xlink:title=" ">
<polygon fill="none" stroke="black" points="402,-380.5 402,-399.5 527,-399.5 527,-380.5 402,-380.5"/>
<text text-anchor="middle" x="464.5" y="-387.5" font-family="Helvetica,sans-Serif" font-size="10.00">__JS_AtomFromUInt32</text>
</a>
</g>
</g>
<!-- Node3&#45;&gt;Node5 -->
<g id="edge4" class="edge">
<title>Node3&#45;&gt;Node5</title>
<path fill="none" stroke="midnightblue" d="M329.66,-494.23C341.56,-476.07 369.44,-436.9 402,-414 407.73,-409.97 414.23,-406.5 420.81,-403.54"/>
<polygon fill="midnightblue" stroke="midnightblue" points="422.51,-406.63 430.42,-399.58 419.84,-400.16 422.51,-406.63"/>
</g>
<!-- Node6 -->
<g id="node6" class="node">
<title>Node6</title>
<g id="a_node6"><a xlink:href="quickjs_8h.html#a9bf98b18de88b4199910a43e933eb97d" target="_top" xlink:title=" ">
<polygon fill="none" stroke="black" points="414.5,-342.5 414.5,-361.5 514.5,-361.5 514.5,-342.5 414.5,-342.5"/>
<text text-anchor="middle" x="464.5" y="-349.5" font-family="Helvetica,sans-Serif" font-size="10.00">__JS_NewFloat64</text>
</a>
</g>
</g>
<!-- Node3&#45;&gt;Node6 -->
<g id="edge5" class="edge">
<title>Node3&#45;&gt;Node6</title>
<path fill="none" stroke="midnightblue" d="M326.47,-494.32C334.48,-469.86 358.87,-405.07 402,-371 404.3,-369.18 406.78,-367.54 409.37,-366.05"/>
<polygon fill="midnightblue" stroke="midnightblue" points="411.09,-369.1 418.53,-361.57 408.01,-362.82 411.09,-369.1"/>
</g>
<!-- Node7 -->
<g id="node7" class="node">
<title>Node7</title>
<g id="a_node7"><a xlink:href="quickjs_8c.html#a74547db03bf739a52c83a326b32db997" target="_top" xlink:title=" ">
<polygon fill="none" stroke="red" points="566,-475.5 566,-494.5 647,-494.5 647,-475.5 566,-475.5"/>
<text text-anchor="middle" x="606.5" y="-482.5" font-family="Helvetica,sans-Serif" font-size="10.00">add_property</text>
</a>
</g>
</g>
<!-- Node3&#45;&gt;Node7 -->
<g id="edge6" class="edge">
<title>Node3&#45;&gt;Node7</title>
<path fill="none" stroke="midnightblue" d="M355.27,-494.49C369.43,-490.73 386.41,-486.86 402,-485 454.23,-478.77 514.54,-479.79 555.86,-481.73"/>
<polygon fill="midnightblue" stroke="midnightblue" points="555.78,-485.23 565.94,-482.24 556.13,-478.24 555.78,-485.23"/>
</g>
<!-- Node65 -->
<g id="node8" class="node">
<title>Node65</title>
<g id="a_node8"><a xlink:href="quickjs_8c.html#a4956f45ffd2849b96dc051277264f87a" target="_top" xlink:title=" ">
<polygon fill="none" stroke="red" points="423.5,-760.5 423.5,-779.5 505.5,-779.5 505.5,-760.5 423.5,-760.5"/>
<text text-anchor="middle" x="464.5" y="-767.5" font-family="Helvetica,sans-Serif" font-size="10.00">build_arg_list</text>
</a>
</g>
</g>
<!-- Node3&#45;&gt;Node65 -->
<g id="edge7" class="edge">
<title>Node3&#45;&gt;Node65</title>
<path fill="none" stroke="midnightblue" d="M323.81,-513.78C325.46,-549.72 335.93,-675.96 402,-746 405.64,-749.86 409.98,-753.11 414.64,-755.84"/>
<polygon fill="midnightblue" stroke="midnightblue" points="413.4,-759.14 423.91,-760.49 416.54,-752.88 413.4,-759.14"/>
</g>
<!-- Node66 -->
<g id="node9" class="node">
<title>Node66</title>
<g id="a_node9"><a xlink:href="quickjs_8c.html#ac864482356b3efc2d0b0a509fcfa4c7c" target="_top" xlink:title=" ">
<polygon fill="none" stroke="red" points="568,-842.5 568,-861.5 645,-861.5 645,-842.5 568,-842.5"/>
<text text-anchor="middle" x="606.5" y="-849.5" font-family="Helvetica,sans-Serif" font-size="10.00">free_arg_list</text>
</a>
</g>
</g>
<!-- Node3&#45;&gt;Node66 -->
<g id="edge17" class="edge">
<title>Node3&#45;&gt;Node66</title>
<path fill="none" stroke="midnightblue" d="M323.59,-513.54C324.35,-573.17 331.72,-893.94 402,-953 444.53,-988.74 477.1,-977.42 527,-953 561.91,-935.92 585.77,-894.99 597.38,-870.81"/>
<polygon fill="midnightblue" stroke="midnightblue" points="600.62,-872.13 601.6,-861.58 594.26,-869.22 600.62,-872.13"/>
</g>
<!-- Node3&#45;&gt;Node57 -->
<g id="edge44" class="edge">
<title>Node3&#45;&gt;Node57</title>
<path fill="none" stroke="midnightblue" d="M340.48,-494.39C393.25,-465.95 556.48,-388.8 650,-466 707.34,-513.33 721.04,-759.68 723.85,-832.01"/>
<polygon fill="midnightblue" stroke="midnightblue" points="720.37,-832.54 724.22,-842.41 727.36,-832.29 720.37,-832.54"/>
</g>
<!-- Node36 -->
<g id="node11" class="node">
<title>Node36</title>
<g id="a_node11"><a xlink:href="quickjs_8h.html#a775522f2d084fc8fa0fcb33f390006b4" target="_top" xlink:title=" ">
<polygon fill="none" stroke="black" points="568,-627.5 568,-646.5 645,-646.5 645,-627.5 568,-627.5"/>
<text text-anchor="middle" x="606.5" y="-634.5" font-family="Helvetica,sans-Serif" font-size="10.00">JS_DupValue</text>
</a>
</g>
</g>
<!-- Node3&#45;&gt;Node36 -->
<g id="edge43" class="edge">
<title>Node3&#45;&gt;Node36</title>
<path fill="none" stroke="midnightblue" d="M361.5,-513.57C416.31,-527.52 512.56,-552.71 527,-561 553.2,-576.04 577.18,-601.78 591.56,-619.08"/>
<polygon fill="midnightblue" stroke="midnightblue" points="589.16,-621.68 598.17,-627.26 594.61,-617.28 589.16,-621.68"/>
</g>
<!-- Node3&#45;&gt;Node75 -->
<g id="edge45" class="edge">
<title>Node3&#45;&gt;Node75</title>
<path fill="none" stroke="midnightblue" d="M324.28,-513.61C328.51,-562.88 350.39,-786.43 402,-827 451.96,-866.28 531.92,-844.08 575.24,-827.3"/>
<polygon fill="midnightblue" stroke="midnightblue" points="576.69,-830.49 584.66,-823.52 574.08,-824 576.69,-830.49"/>
</g>
<!-- Node161 -->
<g id="node13" class="node">
<title>Node161</title>
<g id="a_node13"><a xlink:href="quickjs_8c.html#a61c8dfb5e807af1b6ff7d8ca61576dda" target="_top" xlink:title=" ">
<polygon fill="none" stroke="red" points="417.5,-304.5 417.5,-323.5 511.5,-323.5 511.5,-304.5 417.5,-304.5"/>
<text text-anchor="middle" x="464.5" y="-311.5" font-family="Helvetica,sans-Serif" font-size="10.00">build_backtrace</text>
</a>
</g>
</g>
<!-- Node3&#45;&gt;Node161 -->
<g id="edge13" class="edge">
<title>Node3&#45;&gt;Node161</title>
<path fill="none" stroke="midnightblue" d="M325.12,-494.22C330.46,-465.15 350.18,-378.45 402,-333 403.95,-331.29 406.05,-329.74 408.26,-328.32"/>
<polygon fill="midnightblue" stroke="midnightblue" points="410.05,-331.33 417.22,-323.53 406.75,-325.16 410.05,-331.33"/>
</g>
<!-- Node248 -->
<g id="node14" class="node">
<title>Node248</title>
<g id="a_node14"><a xlink:href="quickjs_8c.html#a344894112559c2ba75043fd10bcfa02f" target="_top" xlink:title=" ">
<polygon fill="none" stroke="red" points="414,-608.5 414,-627.5 515,-627.5 515,-608.5 414,-608.5"/>
<text text-anchor="middle" x="464.5" y="-615.5" font-family="Helvetica,sans-Serif" font-size="10.00">close_lexical_var</text>
</a>
</g>
</g>
<!-- Node3&#45;&gt;Node248 -->
<g id="edge14" class="edge">
<title>Node3&#45;&gt;Node248</title>
<path fill="none" stroke="midnightblue" d="M328.84,-513.66C339.93,-532.82 367.33,-575.79 402,-599 405.06,-601.05 408.35,-602.88 411.76,-604.53"/>
<polygon fill="midnightblue" stroke="midnightblue" points="410.42,-607.76 420.99,-608.44 413.15,-601.32 410.42,-607.76"/>
</g>
<!-- Node249 -->
<g id="node15" class="node">
<title>Node249</title>
<g id="a_node15"><a xlink:href="quickjs_8c.html#a1782043fce951bd4f0d91c7796b31e24" target="_top" xlink:title=" ">
<polygon fill="none" stroke="red" points="421,-266.5 421,-285.5 508,-285.5 508,-266.5 421,-266.5"/>
<text text-anchor="middle" x="464.5" y="-273.5" font-family="Helvetica,sans-Serif" font-size="10.00">close_var_refs</text>
</a>
</g>
</g>
<!-- Node3&#45;&gt;Node249 -->
<g id="edge16" class="edge">
<title>Node3&#45;&gt;Node249</title>
<path fill="none" stroke="midnightblue" d="M324.19,-494.49C327.07,-461.73 341.06,-352.41 402,-295 404.89,-292.28 408.17,-289.94 411.66,-287.94"/>
<polygon fill="midnightblue" stroke="midnightblue" points="413.19,-291.09 420.71,-283.63 410.18,-284.77 413.19,-291.09"/>
</g>
<!-- Node54 -->
<g id="node16" class="node">
<title>Node54</title>
<g id="a_node16"><a xlink:href="quickjs_8c.html#a9e7b4bccf927d811b0f99b40b08c0472" target="_top" xlink:title=" ">
<polygon fill="none" stroke="red" points="426.5,-228.5 426.5,-247.5 502.5,-247.5 502.5,-228.5 426.5,-228.5"/>
<text text-anchor="middle" x="464.5" y="-235.5" font-family="Helvetica,sans-Serif" font-size="10.00">free_var_ref</text>
</a>
</g>
</g>
<!-- Node3&#45;&gt;Node54 -->
<g id="edge18" class="edge">
<title>Node3&#45;&gt;Node54</title>
<path fill="none" stroke="midnightblue" d="M323.56,-494.36C324.33,-457.82 332.04,-326.4 402,-257 406.22,-252.82 411.34,-249.55 416.8,-247"/>
<polygon fill="midnightblue" stroke="midnightblue" points="418.16,-250.23 426.22,-243.35 415.63,-243.7 418.16,-250.23"/>
</g>
<!-- Node251 -->
<g id="node17" class="node">
<title>Node251</title>
<g id="a_node17"><a xlink:href="cutils_8h.html#a7c82a3ee025fee89db5b11ff5b7691b8" target="_top" xlink:title=" ">
<polygon fill="none" stroke="black" points="438,-190.5 438,-209.5 491,-209.5 491,-190.5 438,-190.5"/>
<text text-anchor="middle" x="464.5" y="-197.5" font-family="Helvetica,sans-Serif" font-size="10.00">get_i16</text>
</a>
</g>
</g>
<!-- Node3&#45;&gt;Node251 -->
<g id="edge19" class="edge">
<title>Node3&#45;&gt;Node251</title>
<path fill="none" stroke="midnightblue" d="M323.08,-494.31C321.9,-454.36 322.87,-300.61 402,-219 408.93,-211.85 418.48,-207.38 427.99,-204.59"/>
<polygon fill="midnightblue" stroke="midnightblue" points="428.87,-207.97 437.77,-202.24 427.23,-201.17 428.87,-207.97"/>
</g>
<!-- Node252 -->
<g id="node18" class="node">
<title>Node252</title>
<g id="a_node18"><a xlink:href="cutils_8h.html#a288ee4e688944e23500af2ecc813c306" target="_top" xlink:title=" ">
<polygon fill="none" stroke="black" points="441,-152.5 441,-171.5 488,-171.5 488,-152.5 441,-152.5"/>
<text text-anchor="middle" x="464.5" y="-159.5" font-family="Helvetica,sans-Serif" font-size="10.00">get_i8</text>
</a>
</g>
</g>
<!-- Node3&#45;&gt;Node252 -->
<g id="edge20" class="edge">
<title>Node3&#45;&gt;Node252</title>
<path fill="none" stroke="midnightblue" d="M324.57,-494.34C330.11,-445.77 357.12,-228.71 402,-181 409.54,-172.98 420.39,-168.32 430.88,-165.62"/>
<polygon fill="midnightblue" stroke="midnightblue" points="431.62,-169.04 440.7,-163.59 430.2,-162.19 431.62,-169.04"/>
</g>
<!-- Node253 -->
<g id="node19" class="node">
<title>Node253</title>
<g id="a_node19"><a xlink:href="cutils_8h.html#ad587834d17e95461893d59661e5e9676" target="_top" xlink:title=" ">
<polygon fill="none" stroke="black" points="436.5,-114.5 436.5,-133.5 492.5,-133.5 492.5,-114.5 436.5,-114.5"/>
<text text-anchor="middle" x="464.5" y="-121.5" font-family="Helvetica,sans-Serif" font-size="10.00">get_u16</text>
</a>
</g>
</g>
<!-- Node3&#45;&gt;Node253 -->
<g id="edge21" class="edge">
<title>Node3&#45;&gt;Node253</title>
<path fill="none" stroke="midnightblue" d="M324.31,-494.27C328.81,-442.21 352.45,-196.98 402,-143 408.44,-135.99 417.4,-131.54 426.5,-128.72"/>
<polygon fill="midnightblue" stroke="midnightblue" points="427.45,-132.09 436.3,-126.26 425.75,-125.3 427.45,-132.09"/>
</g>
<!-- Node50 -->
<g id="node20" class="node">
<title>Node50</title>
<g id="a_node20"><a xlink:href="cutils_8h.html#a941262a5f72fda2ec43ae7911e97a0dc" target="_top" xlink:title=" ">
<polygon fill="none" stroke="black" points="436.5,-76.5 436.5,-95.5 492.5,-95.5 492.5,-76.5 436.5,-76.5"/>
<text text-anchor="middle" x="464.5" y="-83.5" font-family="Helvetica,sans-Serif" font-size="10.00">get_u32</text>
</a>
</g>
</g>
<!-- Node3&#45;&gt;Node50 -->
<g id="edge22" class="edge">
<title>Node3&#45;&gt;Node50</title>
<path fill="none" stroke="midnightblue" d="M324.08,-494.36C327.6,-439.33 347.69,-165.35 402,-105 408.37,-97.92 417.31,-93.45 426.4,-90.64"/>
<polygon fill="midnightblue" stroke="midnightblue" points="427.36,-94 436.22,-88.19 425.67,-87.21 427.36,-94"/>
</g>
<!-- Node254 -->
<g id="node21" class="node">
<title>Node254</title>
<g id="a_node21"><a xlink:href="quickjs_8c.html#a37fe43b6649456a848bd54846450b995" target="_top" xlink:title=" ">
<polygon fill="none" stroke="red" points="428.5,-38.5 428.5,-57.5 500.5,-57.5 500.5,-38.5 428.5,-38.5"/>
<text text-anchor="middle" x="464.5" y="-45.5" font-family="Helvetica,sans-Serif" font-size="10.00">get_var_ref</text>
</a>
</g>
</g>
<!-- Node3&#45;&gt;Node254 -->
<g id="edge23" class="edge">
<title>Node3&#45;&gt;Node254</title>
<path fill="none" stroke="midnightblue" d="M323.91,-494.22C326.56,-435.84 343,-133.67 402,-67 406.53,-61.88 412.4,-58.13 418.72,-55.37"/>
<polygon fill="midnightblue" stroke="midnightblue" points="419.93,-58.66 428.19,-52.01 417.59,-52.06 419.93,-58.66"/>
</g>
<!-- Node197 -->
<g id="node22" class="node">
<title>Node197</title>
<g id="a_node22"><a xlink:href="list_8h.html#a663527a4d757540b2177bef0db1ce5c0" target="_top" xlink:title=" ">
<polygon fill="none" stroke="black" points="423.5,-0.5 423.5,-19.5 505.5,-19.5 505.5,-0.5 423.5,-0.5"/>
<text text-anchor="middle" x="464.5" y="-7.5" font-family="Helvetica,sans-Serif" font-size="10.00">init_list_head</text>
</a>
</g>
</g>
<!-- Node3&#45;&gt;Node197 -->
<g id="edge24" class="edge">
<title>Node3&#45;&gt;Node197</title>
<path fill="none" stroke="midnightblue" d="M323.76,-494.18C325.58,-432.81 338.25,-102.05 402,-29 405.4,-25.1 409.59,-21.99 414.16,-19.51"/>
<polygon fill="midnightblue" stroke="midnightblue" points="415.58,-22.71 423.32,-15.48 412.76,-16.3 415.58,-22.71"/>
</g>
<!-- Node255 -->
<g id="node23" class="node">
<title>Node255</title>
<g id="a_node23"><a xlink:href="quickjs_8c.html#a2bb0a2ca3b8320f3ff778c65034fce49" target="_top" xlink:title=" ">
<polygon fill="none" stroke="red" points="405,-798.5 405,-817.5 524,-817.5 524,-798.5 405,-798.5"/>
<text text-anchor="middle" x="464.5" y="-805.5" font-family="Helvetica,sans-Serif" font-size="10.00">is_backtrace_needed</text>
</a>
</g>
</g>
<!-- Node3&#45;&gt;Node255 -->
<g id="edge25" class="edge">
<title>Node3&#45;&gt;Node255</title>
<path fill="none" stroke="midnightblue" d="M323.08,-513.69C321.9,-553.64 322.87,-707.39 402,-789 403.4,-790.44 404.91,-791.78 406.5,-793.01"/>
<polygon fill="midnightblue" stroke="midnightblue" points="404.74,-796.04 415.07,-798.38 408.45,-790.11 404.74,-796.04"/>
</g>
<!-- Node181 -->
<g id="node24" class="node">
<title>Node181</title>
<g id="a_node24"><a xlink:href="quickjs_8c.html#a686cf78f8b0361621ee2ba6182195c31" target="_top" xlink:title=" ">
<polygon fill="none" stroke="black" points="420.5,-646.5 420.5,-665.5 508.5,-665.5 508.5,-646.5 420.5,-646.5"/>
<text text-anchor="middle" x="464.5" y="-653.5" font-family="Helvetica,sans-Serif" font-size="10.00">is_strict_mode</text>
</a>
</g>
</g>
<!-- Node3&#45;&gt;Node181 -->
<g id="edge26" class="edge">
<title>Node3&#45;&gt;Node181</title>
<path fill="none" stroke="midnightblue" d="M326.47,-513.68C334.48,-538.14 358.87,-602.93 402,-637 404.8,-639.21 407.87,-641.17 411.08,-642.9"/>
<polygon fill="midnightblue" stroke="midnightblue" points="409.89,-646.21 420.44,-647.2 412.81,-639.85 409.89,-646.21"/>
</g>
<!-- Node257 -->
<g id="node25" class="node">
<title>Node257</title>
<g id="a_node25"><a xlink:href="quickjs_8c.html#ae8ff05447c0d51fe277baccf616dc7c6" target="_top" xlink:title=" ">
<polygon fill="none" stroke="red" points="426.5,-924.5 426.5,-943.5 502.5,-943.5 502.5,-924.5 426.5,-924.5"/>
<text text-anchor="middle" x="464.5" y="-931.5" font-family="Helvetica,sans-Serif" font-size="10.00">js_add_slow</text>
</a>
</g>
</g>
<!-- Node3&#45;&gt;Node257 -->
<g id="edge27" class="edge">
<title>Node3&#45;&gt;Node257</title>
<path fill="none" stroke="midnightblue" d="M324.02,-513.56C327.24,-569.37 346.17,-852.61 402,-915 406.06,-919.53 411.17,-923 416.71,-925.65"/>
<polygon fill="midnightblue" stroke="midnightblue" points="415.73,-929.02 426.32,-929.37 418.26,-922.49 415.73,-929.02"/>
</g>
<!-- Node264 -->
<g id="node26" class="node">
<title>Node264</title>
<g id="a_node26"><a xlink:href="quickjs_8c.html#a6a21784a40b8684f2e779bd460dd13b2" target="_top" xlink:title=" ">
<polygon fill="none" stroke="red" points="425.5,-494.5 425.5,-513.5 503.5,-513.5 503.5,-494.5 425.5,-494.5"/>
<text text-anchor="middle" x="464.5" y="-501.5" font-family="Helvetica,sans-Serif" font-size="10.00">JS_AddBrand</text>
</a>
</g>
</g>
<!-- Node3&#45;&gt;Node264 -->
<g id="edge30" class="edge">
<title>Node3&#45;&gt;Node264</title>
<path fill="none" stroke="midnightblue" d="M366.27,-504C381.7,-504 399.23,-504 415.11,-504"/>
<polygon fill="midnightblue" stroke="midnightblue" points="415.27,-507.5 425.27,-504 415.27,-500.5 415.27,-507.5"/>
</g>
<!-- Node267 -->
<g id="node27" class="node">
<title>Node267</title>
<g id="a_node27"><a xlink:href="quickjs_8c.html#a43208b0746998d2b6b9b8bd1ef8b5f99" target="_top" xlink:title=" ">
<polygon fill="none" stroke="red" points="402,-684.5 402,-703.5 527,-703.5 527,-684.5 402,-684.5"/>
<text text-anchor="middle" x="464.5" y="-691.5" font-family="Helvetica,sans-Serif" font-size="10.00">js_append_enumerate</text>
</a>
</g>
</g>
<!-- Node3&#45;&gt;Node267 -->
<g id="edge35" class="edge">
<title>Node3&#45;&gt;Node267</title>
<path fill="none" stroke="midnightblue" d="M325.12,-513.78C330.46,-542.85 350.18,-629.55 402,-675 403.95,-676.71 406.05,-678.26 408.26,-679.68"/>
<polygon fill="midnightblue" stroke="midnightblue" points="406.75,-682.84 417.22,-684.47 410.05,-676.67 406.75,-682.84"/>
</g>
<!-- Node98 -->
<g id="node28" class="node">
<title>Node98</title>
<g id="a_node28"><a xlink:href="quickjs_8c.html#a260bfa297ff6cb5bd18e229afaa54663" target="_top" xlink:title=" ">
<polygon fill="none" stroke="red" points="416.5,-570.5 416.5,-589.5 512.5,-589.5 512.5,-570.5 416.5,-570.5"/>
<text text-anchor="middle" x="464.5" y="-577.5" font-family="Helvetica,sans-Serif" font-size="10.00">JS_AtomToString</text>
</a>
</g>
</g>
<!-- Node3&#45;&gt;Node98 -->
<g id="edge40" class="edge">
<title>Node3&#45;&gt;Node98</title>
<path fill="none" stroke="midnightblue" d="M336.04,-513.53C351.12,-524.69 377.48,-543.28 402,-556 409.52,-559.9 417.83,-563.55 425.84,-566.77"/>
<polygon fill="midnightblue" stroke="midnightblue" points="424.8,-570.12 435.39,-570.47 427.33,-563.59 424.8,-570.12"/>
</g>
<!-- Node65&#45;&gt;Node4 -->
<g id="edge8" class="edge">
<title>Node65&#45;&gt;Node4</title>
<path fill="none" stroke="midnightblue" d="M500.83,-760.41C518.9,-755.51 541.1,-749.48 560.39,-744.24"/>
<polygon fill="midnightblue" stroke="midnightblue" points="561.45,-747.58 570.18,-741.59 559.62,-740.83 561.45,-747.58"/>
</g>
<!-- Node65&#45;&gt;Node66 -->
<g id="edge9" class="edge">
<title>Node65&#45;&gt;Node66</title>
<path fill="none" stroke="midnightblue" d="M505.76,-778.71C513.19,-781.33 520.6,-784.69 527,-789 547.96,-803.11 542.93,-817.65 563,-833 565.08,-834.59 567.31,-836.08 569.63,-837.47"/>
<polygon fill="midnightblue" stroke="midnightblue" points="568.33,-840.75 578.8,-842.35 571.62,-834.57 568.33,-840.75"/>
</g>
<!-- Node65&#45;&gt;Node36 -->
<g id="edge11" class="edge">
<title>Node65&#45;&gt;Node36</title>
<path fill="none" stroke="midnightblue" d="M476.01,-760.39C488.31,-749.11 509.24,-729.82 527,-713 548.11,-693 572.08,-669.71 587.92,-654.23"/>
<polygon fill="midnightblue" stroke="midnightblue" points="590.71,-656.4 595.41,-646.91 585.81,-651.4 590.71,-656.4"/>
</g>
<!-- Node65&#45;&gt;Node75 -->
<g id="edge12" class="edge">
<title>Node65&#45;&gt;Node75</title>
<path fill="none" stroke="midnightblue" d="M496.49,-779.52C506.26,-782.53 517.08,-785.89 527,-789 539.71,-792.99 553.55,-797.38 566.03,-801.36"/>
<polygon fill="midnightblue" stroke="midnightblue" points="565.11,-804.74 575.7,-804.44 567.24,-798.07 565.11,-804.74"/>
</g>
<!-- Node66&#45;&gt;Node57 -->
<g id="edge10" class="edge">
<title>Node66&#45;&gt;Node57</title>
<path fill="none" stroke="midnightblue" d="M645.16,-852C654.88,-852 665.49,-852 675.68,-852"/>
<polygon fill="midnightblue" stroke="midnightblue" points="675.7,-855.5 685.7,-852 675.7,-848.5 675.7,-855.5"/>
</g>
<!-- Node248&#45;&gt;Node36 -->
<g id="edge15" class="edge">
<title>Node248&#45;&gt;Node36</title>
<path fill="none" stroke="midnightblue" d="M515.25,-624.75C529.03,-626.62 543.96,-628.65 557.62,-630.5"/>
<polygon fill="midnightblue" stroke="midnightblue" points="557.41,-634.01 567.79,-631.88 558.35,-627.07 557.41,-634.01"/>
</g>
<!-- Node257&#45;&gt;Node57 -->
<g id="edge28" class="edge">
<title>Node257&#45;&gt;Node57</title>
<path fill="none" stroke="midnightblue" d="M502.67,-927.82C540.48,-920.92 600.4,-908.27 650,-890 667.05,-883.72 685.23,-874.5 699.36,-866.72"/>
<polygon fill="midnightblue" stroke="midnightblue" points="701.44,-869.56 708.44,-861.61 698.01,-863.46 701.44,-869.56"/>
</g>
<!-- Node257&#45;&gt;Node75 -->
<g id="edge29" class="edge">
<title>Node257&#45;&gt;Node75</title>
<path fill="none" stroke="midnightblue" d="M502.64,-928.05C511.39,-925.24 520.16,-921.1 527,-915 556.7,-888.51 534.95,-861.24 563,-833 564.41,-831.58 565.94,-830.26 567.57,-829.03"/>
<polygon fill="midnightblue" stroke="midnightblue" points="569.61,-831.88 576.23,-823.61 565.9,-825.94 569.61,-831.88"/>
</g>
<!-- Node264&#45;&gt;Node7 -->
<g id="edge31" class="edge">
<title>Node264&#45;&gt;Node7</title>
<path fill="none" stroke="midnightblue" d="M503.76,-498.81C519.71,-496.64 538.46,-494.1 555.49,-491.79"/>
<polygon fill="midnightblue" stroke="midnightblue" points="556.39,-495.2 565.83,-490.38 555.45,-488.26 556.39,-495.2"/>
</g>
<!-- Node264&#45;&gt;Node57 -->
<g id="edge33" class="edge">
<title>Node264&#45;&gt;Node57</title>
<path fill="none" stroke="midnightblue" d="M503.77,-512.76C511.67,-515.24 519.77,-518.3 527,-522 588.71,-553.64 610.38,-561.09 650,-618 698.3,-687.38 716.47,-789.66 722.21,-832.26"/>
<polygon fill="midnightblue" stroke="midnightblue" points="718.74,-832.7 723.47,-842.18 725.68,-831.82 718.74,-832.7"/>
</g>
<!-- Node264&#45;&gt;Node36 -->
<g id="edge32" class="edge">
<title>Node264&#45;&gt;Node36</title>
<path fill="none" stroke="midnightblue" d="M500.22,-513.58C509.49,-517.16 519.12,-521.89 527,-528 559.09,-552.88 583.85,-594.34 596.4,-618.32"/>
<polygon fill="midnightblue" stroke="midnightblue" points="593.37,-620.09 601.01,-627.42 599.61,-616.92 593.37,-620.09"/>
</g>
<!-- Node264&#45;&gt;Node75 -->
<g id="edge34" class="edge">
<title>Node264&#45;&gt;Node75</title>
<path fill="none" stroke="midnightblue" d="M480.47,-513.63C494.78,-523.66 515.8,-540.75 527,-561 568.6,-636.21 530.29,-671.52 563,-751 569.87,-767.69 581.53,-784.53 590.9,-796.6"/>
<polygon fill="midnightblue" stroke="midnightblue" points="588.23,-798.86 597.22,-804.47 593.69,-794.48 588.23,-798.86"/>
</g>
<!-- Node267&#45;&gt;Node4 -->
<g id="edge36" class="edge">
<title>Node267&#45;&gt;Node4</title>
<path fill="none" stroke="midnightblue" d="M500.83,-703.59C518.9,-708.49 541.1,-714.52 560.39,-719.76"/>
<polygon fill="midnightblue" stroke="midnightblue" points="559.62,-723.17 570.18,-722.41 561.45,-716.42 559.62,-723.17"/>
</g>
<!-- Node267&#45;&gt;Node57 -->
<g id="edge38" class="edge">
<title>Node267&#45;&gt;Node57</title>
<path fill="none" stroke="midnightblue" d="M527.28,-686.44C565.66,-684.92 614.3,-689.06 650,-713 691.92,-741.11 712.1,-800.82 720.11,-832.04"/>
<polygon fill="midnightblue" stroke="midnightblue" points="716.8,-833.23 722.53,-842.14 723.61,-831.6 716.8,-833.23"/>
</g>
<!-- Node267&#45;&gt;Node36 -->
<g id="edge37" class="edge">
<title>Node267&#45;&gt;Node36</title>
<path fill="none" stroke="midnightblue" d="M499.65,-684.45C508.64,-681.67 518.27,-678.44 527,-675 544.57,-668.08 563.64,-658.89 578.59,-651.28"/>
<polygon fill="midnightblue" stroke="midnightblue" points="580.48,-654.24 587.76,-646.54 577.27,-648.02 580.48,-654.24"/>
</g>
<!-- Node267&#45;&gt;Node75 -->
<g id="edge39" class="edge">
<title>Node267&#45;&gt;Node75</title>
<path fill="none" stroke="midnightblue" d="M476.96,-703.82C500.97,-724.4 556.79,-772.25 586.35,-797.58"/>
<polygon fill="midnightblue" stroke="midnightblue" points="584.41,-800.53 594.28,-804.38 588.96,-795.21 584.41,-800.53"/>
</g>
<!-- Node380&#45;&gt;Node57 -->
<g id="edge48" class="edge">
<title>Node380&#45;&gt;Node57</title>
<path fill="none" stroke="midnightblue" d="M520.29,-886.48C557.15,-883.59 606.73,-878.7 650,-871 660.25,-869.18 671.17,-866.7 681.4,-864.14"/>
<polygon fill="midnightblue" stroke="midnightblue" points="682.54,-867.46 691.35,-861.57 680.79,-860.68 682.54,-867.46"/>
</g>
<!-- Node380&#45;&gt;Node36 -->
<g id="edge47" class="edge">
<title>Node380&#45;&gt;Node36</title>
<path fill="none" stroke="midnightblue" d="M484.31,-874.97C497.9,-863.21 515.77,-845.75 527,-827 554.3,-781.42 541.92,-761.77 563,-713 571.85,-692.51 584.63,-670.37 593.86,-655.31"/>
<polygon fill="midnightblue" stroke="midnightblue" points="597.02,-656.85 599.34,-646.51 591.08,-653.15 597.02,-656.85"/>
</g>
<!-- Node380&#45;&gt;Node75 -->
<g id="edge49" class="edge">
<title>Node380&#45;&gt;Node75</title>
<path fill="none" stroke="midnightblue" d="M499.31,-874.93C508.48,-870.46 518.28,-865.33 527,-860 544.06,-849.57 545.76,-843.14 563,-833 566.02,-831.22 569.23,-829.51 572.49,-827.88"/>
<polygon fill="midnightblue" stroke="midnightblue" points="574.1,-830.98 581.65,-823.54 571.11,-824.65 574.1,-830.98"/>
</g>
</g>
</svg>
