<?xml version="1.0" encoding="UTF-8" standalone="no"?>
<!DOCTYPE svg PUBLIC "-//W3C//DTD SVG 1.1//EN"
 "http://www.w3.org/Graphics/SVG/1.1/DTD/svg11.dtd">
<!-- Generated by graphviz version 2.43.0 (0)
 -->
<!-- Title: js_typed_array_join Pages: 1 -->
<svg width="865pt" height="686pt"
 viewBox="0.00 0.00 865.00 686.00" xmlns="http://www.w3.org/2000/svg" xmlns:xlink="http://www.w3.org/1999/xlink">
<g id="graph0" class="graph" transform="scale(1 1) rotate(0) translate(4 682)">
<title>js_typed_array_join</title>
<!-- Node1 -->
<g id="node1" class="node">
<title>Node1</title>
<g id="a_node1"><a xlink:title=" ">
<polygon fill="#bfbfbf" stroke="black" points="0,-259.5 0,-278.5 112,-278.5 112,-259.5 0,-259.5"/>
<text text-anchor="middle" x="56" y="-266.5" font-family="Helvetica,sans-Serif" font-size="10.00">js_typed_array_join</text>
</a>
</g>
</g>
<!-- Node2 -->
<g id="node2" class="node">
<title>Node2</title>
<g id="a_node2"><a xlink:href="quickjs_8h.html#afaa20c47565bc704c6c85f3d77254e7d" target="_top" xlink:title=" ">
<polygon fill="none" stroke="black" points="500,-430.5 500,-449.5 579,-449.5 579,-430.5 500,-430.5"/>
<text text-anchor="middle" x="539.5" y="-437.5" font-family="Helvetica,sans-Serif" font-size="10.00">JS_FreeValue</text>
</a>
</g>
</g>
<!-- Node1&#45;&gt;Node2 -->
<g id="edge1" class="edge">
<title>Node1&#45;&gt;Node2</title>
<path fill="none" stroke="midnightblue" d="M57.08,-278.58C57.95,-316.69 66.74,-458.41 148,-521 202.81,-563.21 398.14,-567.9 459,-535 484.7,-521.11 476.1,-502.28 495,-480 502.02,-471.73 510.66,-463.46 518.39,-456.61"/>
<polygon fill="midnightblue" stroke="midnightblue" points="521,-458.98 526.29,-449.8 516.43,-453.68 521,-458.98"/>
</g>
<!-- Node40 -->
<g id="node5" class="node">
<title>Node40</title>
<g id="a_node5"><a xlink:href="quickjs_8c.html#aeb97957655d979e9fe56c955da2b2d4b" target="_top" xlink:title=" ">
<polygon fill="none" stroke="black" points="148,-582.5 148,-601.5 270,-601.5 270,-582.5 148,-582.5"/>
<text text-anchor="middle" x="209" y="-589.5" font-family="Helvetica,sans-Serif" font-size="10.00">JS_GetPropertyUint32</text>
</a>
</g>
</g>
<!-- Node1&#45;&gt;Node40 -->
<g id="edge4" class="edge">
<title>Node1&#45;&gt;Node40</title>
<path fill="none" stroke="midnightblue" d="M57.08,-278.73C57.92,-319.58 66.52,-479.28 148,-568 151.51,-571.83 155.72,-575.05 160.25,-577.77"/>
<polygon fill="midnightblue" stroke="midnightblue" points="158.78,-580.95 169.28,-582.4 161.98,-574.73 158.78,-580.95"/>
</g>
<!-- Node52 -->
<g id="node13" class="node">
<title>Node52</title>
<g id="a_node13"><a xlink:href="quickjs_8h.html#ad80a83d73e9b7d872b88fbf2943aebe9" target="_top" xlink:title=" ">
<polygon fill="none" stroke="black" points="339,-278.5 339,-297.5 426,-297.5 426,-278.5 339,-278.5"/>
<text text-anchor="middle" x="382.5" y="-285.5" font-family="Helvetica,sans-Serif" font-size="10.00">JS_IsException</text>
</a>
</g>
</g>
<!-- Node1&#45;&gt;Node52 -->
<g id="edge16" class="edge">
<title>Node1&#45;&gt;Node52</title>
<path fill="none" stroke="midnightblue" d="M112.05,-272.22C172.43,-275.76 268.68,-281.39 328.31,-284.89"/>
<polygon fill="midnightblue" stroke="midnightblue" points="328.46,-288.4 338.64,-285.49 328.87,-281.41 328.46,-288.4"/>
</g>
<!-- Node193 -->
<g id="node14" class="node">
<title>Node193</title>
<g id="a_node14"><a xlink:href="quickjs_8h.html#a149f24b67e745bad93573b3b4c80db4c" target="_top" xlink:title=" ">
<polygon fill="none" stroke="black" points="353,-506.5 353,-525.5 412,-525.5 412,-506.5 353,-506.5"/>
<text text-anchor="middle" x="382.5" y="-513.5" font-family="Helvetica,sans-Serif" font-size="10.00">JS_IsNull</text>
</a>
</g>
</g>
<!-- Node1&#45;&gt;Node193 -->
<g id="edge17" class="edge">
<title>Node1&#45;&gt;Node193</title>
<path fill="none" stroke="midnightblue" d="M57.67,-278.51C60.66,-313.34 76.1,-434.7 148,-489 204.7,-531.82 292.29,-528.88 342.52,-522.62"/>
<polygon fill="midnightblue" stroke="midnightblue" points="343.2,-526.06 352.64,-521.25 342.26,-519.13 343.2,-526.06"/>
</g>
<!-- Node196 -->
<g id="node15" class="node">
<title>Node196</title>
<g id="a_node15"><a xlink:href="quickjs_8h.html#a4e407128a9605afb77523e49e9a627fd" target="_top" xlink:title=" ">
<polygon fill="none" stroke="black" points="338,-468.5 338,-487.5 427,-487.5 427,-468.5 338,-468.5"/>
<text text-anchor="middle" x="382.5" y="-475.5" font-family="Helvetica,sans-Serif" font-size="10.00">JS_IsUndefined</text>
</a>
</g>
</g>
<!-- Node1&#45;&gt;Node196 -->
<g id="edge18" class="edge">
<title>Node1&#45;&gt;Node196</title>
<path fill="none" stroke="midnightblue" d="M58.27,-278.63C63.06,-310.71 83.22,-414.43 148,-459 200.66,-495.24 276.68,-494.14 327.52,-487.89"/>
<polygon fill="midnightblue" stroke="midnightblue" points="328.2,-491.33 337.65,-486.54 327.27,-484.39 328.2,-491.33"/>
</g>
<!-- Node437 -->
<g id="node16" class="node">
<title>Node437</title>
<g id="a_node16"><a xlink:href="quickjs_8c.html#aec0d90811584e89016b62543155169d8" target="_top" xlink:title=" ">
<polygon fill="none" stroke="black" points="148,-430.5 148,-449.5 270,-449.5 270,-430.5 148,-430.5"/>
<text text-anchor="middle" x="209" y="-437.5" font-family="Helvetica,sans-Serif" font-size="10.00">JS_ToLocaleStringFree</text>
</a>
</g>
</g>
<!-- Node1&#45;&gt;Node437 -->
<g id="edge19" class="edge">
<title>Node1&#45;&gt;Node437</title>
<path fill="none" stroke="midnightblue" d="M65.55,-278.68C90.16,-306.55 161.37,-387.2 192.8,-422.78"/>
<polygon fill="midnightblue" stroke="midnightblue" points="190.3,-425.24 199.54,-430.42 195.55,-420.61 190.3,-425.24"/>
</g>
<!-- Node75 -->
<g id="node19" class="node">
<title>Node75</title>
<g id="a_node19"><a xlink:href="quickjs_8c.html#a7bcb8e1a20cbc8374a5f9ba4a2088cec" target="_top" xlink:title=" ">
<polygon fill="none" stroke="red" points="504.5,-297.5 504.5,-316.5 574.5,-316.5 574.5,-297.5 504.5,-297.5"/>
<text text-anchor="middle" x="539.5" y="-304.5" font-family="Helvetica,sans-Serif" font-size="10.00">JS_ToString</text>
</a>
</g>
</g>
<!-- Node1&#45;&gt;Node75 -->
<g id="edge27" class="edge">
<title>Node1&#45;&gt;Node75</title>
<path fill="none" stroke="midnightblue" d="M80.74,-259.42C144.6,-235.17 324.32,-176.98 459,-231 488.09,-242.67 512.56,-270.62 526.37,-289.17"/>
<polygon fill="midnightblue" stroke="midnightblue" points="523.61,-291.32 532.27,-297.42 529.3,-287.25 523.61,-291.32"/>
</g>
<!-- Node440 -->
<g id="node20" class="node">
<title>Node440</title>
<g id="a_node20"><a xlink:href="quickjs_8c.html#add71c7e0efcb1fd14572d39e2672971d" target="_top" xlink:title=" ">
<polygon fill="none" stroke="black" points="154,-153 154,-183 264,-183 264,-153 154,-153"/>
<text text-anchor="start" x="162" y="-171" font-family="Helvetica,sans-Serif" font-size="10.00">js_typed_array_get</text>
<text text-anchor="middle" x="209" y="-160" font-family="Helvetica,sans-Serif" font-size="10.00">_length_internal</text>
</a>
</g>
</g>
<!-- Node1&#45;&gt;Node440 -->
<g id="edge28" class="edge">
<title>Node1&#45;&gt;Node440</title>
<path fill="none" stroke="midnightblue" d="M67.96,-259.27C84.54,-244.84 117.33,-217.36 148,-198 153.69,-194.41 159.87,-190.91 166.02,-187.64"/>
<polygon fill="midnightblue" stroke="midnightblue" points="167.68,-190.73 174.97,-183.04 164.47,-184.51 167.68,-190.73"/>
</g>
<!-- Node328 -->
<g id="node24" class="node">
<title>Node328</title>
<g id="a_node24"><a xlink:href="quickjs_8c.html#a6887ef15fd884e05ddf04ec291b5f3d2" target="_top" xlink:title=" ">
<polygon fill="none" stroke="red" points="324.5,-240.5 324.5,-259.5 440.5,-259.5 440.5,-240.5 324.5,-240.5"/>
<text text-anchor="middle" x="382.5" y="-247.5" font-family="Helvetica,sans-Serif" font-size="10.00">string_buffer_concat</text>
</a>
</g>
</g>
<!-- Node1&#45;&gt;Node328 -->
<g id="edge32" class="edge">
<title>Node1&#45;&gt;Node328</title>
<path fill="none" stroke="midnightblue" d="M112.05,-265.78C167.86,-262.51 254.3,-257.45 314.16,-253.94"/>
<polygon fill="midnightblue" stroke="midnightblue" points="314.49,-257.43 324.27,-253.35 314.08,-250.44 314.49,-257.43"/>
</g>
<!-- Node442 -->
<g id="node25" class="node">
<title>Node442</title>
<g id="a_node25"><a xlink:href="quickjs_8c.html#ac91bb65d1f12eadbcc97cecf2860350b" target="_top" xlink:title=" ">
<polygon fill="none" stroke="black" points="151,-317 151,-347 267,-347 267,-317 151,-317"/>
<text text-anchor="start" x="159" y="-335" font-family="Helvetica,sans-Serif" font-size="10.00">string_buffer_concat</text>
<text text-anchor="middle" x="209" y="-324" font-family="Helvetica,sans-Serif" font-size="10.00">_value_free</text>
</a>
</g>
</g>
<!-- Node1&#45;&gt;Node442 -->
<g id="edge33" class="edge">
<title>Node1&#45;&gt;Node442</title>
<path fill="none" stroke="midnightblue" d="M79.93,-278.57C101.78,-287.68 135.28,-301.66 162.54,-313.03"/>
<polygon fill="midnightblue" stroke="midnightblue" points="161.32,-316.31 171.89,-316.93 164.01,-309.85 161.32,-316.31"/>
</g>
<!-- Node82 -->
<g id="node27" class="node">
<title>Node82</title>
<g id="a_node27"><a xlink:href="quickjs_8c.html#accfc3d1dcaa88c88402cb245ccaf4fdb" target="_top" xlink:title=" ">
<polygon fill="none" stroke="red" points="158.5,-114.5 158.5,-133.5 259.5,-133.5 259.5,-114.5 158.5,-114.5"/>
<text text-anchor="middle" x="209" y="-121.5" font-family="Helvetica,sans-Serif" font-size="10.00">string_buffer_end</text>
</a>
</g>
</g>
<!-- Node1&#45;&gt;Node82 -->
<g id="edge39" class="edge">
<title>Node1&#45;&gt;Node82</title>
<path fill="none" stroke="midnightblue" d="M61.43,-259.28C72.57,-235.92 104.02,-176.18 148,-144 151.25,-141.62 154.79,-139.52 158.49,-137.66"/>
<polygon fill="midnightblue" stroke="midnightblue" points="160.15,-140.75 167.89,-133.5 157.33,-134.34 160.15,-140.75"/>
</g>
<!-- Node83 -->
<g id="node28" class="node">
<title>Node83</title>
<g id="a_node28"><a xlink:href="quickjs_8c.html#a266b4993a59d9e34537386e62b9f3d4f" target="_top" xlink:title=" ">
<polygon fill="none" stroke="red" points="157.5,-76.5 157.5,-95.5 260.5,-95.5 260.5,-76.5 157.5,-76.5"/>
<text text-anchor="middle" x="209" y="-83.5" font-family="Helvetica,sans-Serif" font-size="10.00">string_buffer_free</text>
</a>
</g>
</g>
<!-- Node1&#45;&gt;Node83 -->
<g id="edge40" class="edge">
<title>Node1&#45;&gt;Node83</title>
<path fill="none" stroke="midnightblue" d="M59.63,-259.21C67.74,-230.91 95.06,-148.29 148,-105 150.15,-103.24 152.46,-101.65 154.88,-100.2"/>
<polygon fill="midnightblue" stroke="midnightblue" points="156.68,-103.21 164.03,-95.58 153.53,-96.96 156.68,-103.21"/>
</g>
<!-- Node84 -->
<g id="node29" class="node">
<title>Node84</title>
<g id="a_node29"><a xlink:href="quickjs_8c.html#a9c11961b0adafedd064b294612d0c2f3" target="_top" xlink:title=" ">
<polygon fill="none" stroke="red" points="159.5,-38.5 159.5,-57.5 258.5,-57.5 258.5,-38.5 159.5,-38.5"/>
<text text-anchor="middle" x="209" y="-45.5" font-family="Helvetica,sans-Serif" font-size="10.00">string_buffer_init</text>
</a>
</g>
</g>
<!-- Node1&#45;&gt;Node84 -->
<g id="edge41" class="edge">
<title>Node1&#45;&gt;Node84</title>
<path fill="none" stroke="midnightblue" d="M58.5,-259.35C64.02,-227.09 86.22,-121.97 148,-67 149.76,-65.44 151.64,-64 153.63,-62.68"/>
<polygon fill="midnightblue" stroke="midnightblue" points="155.74,-65.52 162.81,-57.63 152.36,-59.38 155.74,-65.52"/>
</g>
<!-- Node92 -->
<g id="node30" class="node">
<title>Node92</title>
<g id="a_node30"><a xlink:href="quickjs_8c.html#a874fcee73f61cc997ec1d10cc6711554" target="_top" xlink:title=" ">
<polygon fill="none" stroke="red" points="154,-0.5 154,-19.5 264,-19.5 264,-0.5 154,-0.5"/>
<text text-anchor="middle" x="209" y="-7.5" font-family="Helvetica,sans-Serif" font-size="10.00">string_buffer_putc8</text>
</a>
</g>
</g>
<!-- Node1&#45;&gt;Node92 -->
<g id="edge42" class="edge">
<title>Node1&#45;&gt;Node92</title>
<path fill="none" stroke="midnightblue" d="M57.75,-259.12C61.06,-222.85 77.42,-95.75 148,-29 149.68,-27.41 151.49,-25.96 153.39,-24.63"/>
<polygon fill="midnightblue" stroke="midnightblue" points="155.35,-27.54 162.29,-19.53 151.87,-21.47 155.35,-27.54"/>
</g>
<!-- Node3 -->
<g id="node3" class="node">
<title>Node3</title>
<g id="a_node3"><a xlink:href="quickjs_8c.html#aa059f309c30fd5166d16c82a97973146" target="_top" xlink:title=" ">
<polygon fill="none" stroke="black" points="625.5,-430.5 625.5,-449.5 714.5,-449.5 714.5,-430.5 625.5,-430.5"/>
<text text-anchor="middle" x="670" y="-437.5" font-family="Helvetica,sans-Serif" font-size="10.00">__JS_FreeValue</text>
</a>
</g>
</g>
<!-- Node2&#45;&gt;Node3 -->
<g id="edge2" class="edge">
<title>Node2&#45;&gt;Node3</title>
<path fill="none" stroke="midnightblue" d="M579.05,-440C590.37,-440 602.97,-440 615.06,-440"/>
<polygon fill="midnightblue" stroke="midnightblue" points="615.06,-443.5 625.06,-440 615.06,-436.5 615.06,-443.5"/>
</g>
<!-- Node4 -->
<g id="node4" class="node">
<title>Node4</title>
<g id="a_node4"><a xlink:href="quickjs_8c.html#ab1ea3fad7d138be12144a38be4d36423" target="_top" xlink:title=" ">
<polygon fill="none" stroke="red" points="756,-430.5 756,-449.5 857,-449.5 857,-430.5 756,-430.5"/>
<text text-anchor="middle" x="806.5" y="-437.5" font-family="Helvetica,sans-Serif" font-size="10.00">__JS_FreeValueRT</text>
</a>
</g>
</g>
<!-- Node3&#45;&gt;Node4 -->
<g id="edge3" class="edge">
<title>Node3&#45;&gt;Node4</title>
<path fill="none" stroke="midnightblue" d="M714.67,-440C724.56,-440 735.24,-440 745.67,-440"/>
<polygon fill="midnightblue" stroke="midnightblue" points="745.99,-443.5 755.99,-440 745.99,-436.5 745.99,-443.5"/>
</g>
<!-- Node41 -->
<g id="node6" class="node">
<title>Node41</title>
<g id="a_node6"><a xlink:href="quickjs_8c.html#a90d6e607f6917d817c1e997bd2e6ed07" target="_top" xlink:title=" ">
<polygon fill="none" stroke="red" points="324.5,-582.5 324.5,-601.5 440.5,-601.5 440.5,-582.5 324.5,-582.5"/>
<text text-anchor="middle" x="382.5" y="-589.5" font-family="Helvetica,sans-Serif" font-size="10.00">JS_GetPropertyValue</text>
</a>
</g>
</g>
<!-- Node40&#45;&gt;Node41 -->
<g id="edge5" class="edge">
<title>Node40&#45;&gt;Node41</title>
<path fill="none" stroke="midnightblue" d="M270.46,-592C284.59,-592 299.72,-592 314.12,-592"/>
<polygon fill="midnightblue" stroke="midnightblue" points="314.45,-595.5 324.45,-592 314.45,-588.5 314.45,-595.5"/>
</g>
<!-- Node199 -->
<g id="node12" class="node">
<title>Node199</title>
<g id="a_node12"><a xlink:href="quickjs_8h.html#a88259aa0da61ac754402c64ccecee116" target="_top" xlink:title=" ">
<polygon fill="none" stroke="black" points="497,-658.5 497,-677.5 582,-677.5 582,-658.5 497,-658.5"/>
<text text-anchor="middle" x="539.5" y="-665.5" font-family="Helvetica,sans-Serif" font-size="10.00">JS_NewUint32</text>
</a>
</g>
</g>
<!-- Node40&#45;&gt;Node199 -->
<g id="edge15" class="edge">
<title>Node40&#45;&gt;Node199</title>
<path fill="none" stroke="midnightblue" d="M251.27,-601.55C311.22,-615.42 422.31,-641.12 487.37,-656.17"/>
<polygon fill="midnightblue" stroke="midnightblue" points="486.87,-659.65 497.4,-658.49 488.44,-652.83 486.87,-659.65"/>
</g>
<!-- Node41&#45;&gt;Node2 -->
<g id="edge9" class="edge">
<title>Node41&#45;&gt;Node2</title>
<path fill="none" stroke="midnightblue" d="M435.79,-582.43C444.33,-579 452.5,-574.34 459,-568 494.02,-533.86 463.49,-501.41 495,-464 497.81,-460.66 501.21,-457.7 504.86,-455.11"/>
<polygon fill="midnightblue" stroke="midnightblue" points="506.97,-457.92 513.66,-449.7 503.31,-451.96 506.97,-457.92"/>
</g>
<!-- Node42 -->
<g id="node7" class="node">
<title>Node42</title>
<g id="a_node7"><a xlink:href="quickjs_8h.html#a9bf98b18de88b4199910a43e933eb97d" target="_top" xlink:title=" ">
<polygon fill="none" stroke="black" points="620,-639.5 620,-658.5 720,-658.5 720,-639.5 620,-639.5"/>
<text text-anchor="middle" x="670" y="-646.5" font-family="Helvetica,sans-Serif" font-size="10.00">__JS_NewFloat64</text>
</a>
</g>
</g>
<!-- Node41&#45;&gt;Node42 -->
<g id="edge6" class="edge">
<title>Node41&#45;&gt;Node42</title>
<path fill="none" stroke="midnightblue" d="M431.29,-601.54C480.8,-611.43 558.2,-626.88 611.14,-637.45"/>
<polygon fill="midnightblue" stroke="midnightblue" points="610.57,-640.9 621.06,-639.43 611.94,-634.04 610.57,-640.9"/>
</g>
<!-- Node43 -->
<g id="node8" class="node">
<title>Node43</title>
<g id="a_node8"><a xlink:href="quickjs_8h.html#a775522f2d084fc8fa0fcb33f390006b4" target="_top" xlink:title=" ">
<polygon fill="none" stroke="black" points="501,-582.5 501,-601.5 578,-601.5 578,-582.5 501,-582.5"/>
<text text-anchor="middle" x="539.5" y="-589.5" font-family="Helvetica,sans-Serif" font-size="10.00">JS_DupValue</text>
</a>
</g>
</g>
<!-- Node41&#45;&gt;Node43 -->
<g id="edge7" class="edge">
<title>Node41&#45;&gt;Node43</title>
<path fill="none" stroke="midnightblue" d="M440.78,-592C457.19,-592 474.9,-592 490.68,-592"/>
<polygon fill="midnightblue" stroke="midnightblue" points="490.74,-595.5 500.74,-592 490.74,-588.5 490.74,-595.5"/>
</g>
<!-- Node24 -->
<g id="node9" class="node">
<title>Node24</title>
<g id="a_node9"><a xlink:href="quickjs_8c.html#ab7fc45a99935a1c0ba50b0216d9401a9" target="_top" xlink:title=" ">
<polygon fill="none" stroke="red" points="500.5,-544.5 500.5,-563.5 578.5,-563.5 578.5,-544.5 500.5,-544.5"/>
<text text-anchor="middle" x="539.5" y="-551.5" font-family="Helvetica,sans-Serif" font-size="10.00">JS_FreeAtom</text>
</a>
</g>
</g>
<!-- Node41&#45;&gt;Node24 -->
<g id="edge8" class="edge">
<title>Node41&#45;&gt;Node24</title>
<path fill="none" stroke="midnightblue" d="M422.61,-582.41C443.3,-577.34 468.87,-571.07 490.72,-565.71"/>
<polygon fill="midnightblue" stroke="midnightblue" points="491.59,-569.1 500.47,-563.32 489.93,-562.31 491.59,-569.1"/>
</g>
<!-- Node44 -->
<g id="node10" class="node">
<title>Node44</title>
<g id="a_node10"><a xlink:href="quickjs_8h.html#a89b7c8686c7eee70b86be722ee4730ad" target="_top" xlink:title=" ">
<polygon fill="none" stroke="red" points="495,-506.5 495,-525.5 584,-525.5 584,-506.5 495,-506.5"/>
<text text-anchor="middle" x="539.5" y="-513.5" font-family="Helvetica,sans-Serif" font-size="10.00">JS_GetProperty</text>
</a>
</g>
</g>
<!-- Node41&#45;&gt;Node44 -->
<g id="edge10" class="edge">
<title>Node41&#45;&gt;Node44</title>
<path fill="none" stroke="midnightblue" d="M424.84,-582.39C436.33,-578.8 448.53,-574.06 459,-568 477.78,-557.12 476.81,-546.84 495,-535 497.61,-533.3 500.4,-531.69 503.25,-530.18"/>
<polygon fill="midnightblue" stroke="midnightblue" points="505,-533.22 512.47,-525.7 501.94,-526.92 505,-533.22"/>
</g>
<!-- Node53 -->
<g id="node11" class="node">
<title>Node53</title>
<g id="a_node11"><a xlink:href="quickjs_8h.html#a2050bc428da1c65ac7eb87c3fa3b0392" target="_top" xlink:title=" ">
<polygon fill="none" stroke="black" points="631.5,-544.5 631.5,-563.5 708.5,-563.5 708.5,-544.5 631.5,-544.5"/>
<text text-anchor="middle" x="670" y="-551.5" font-family="Helvetica,sans-Serif" font-size="10.00">JS_NewInt32</text>
</a>
</g>
</g>
<!-- Node41&#45;&gt;Node53 -->
<g id="edge11" class="edge">
<title>Node41&#45;&gt;Node53</title>
<path fill="none" stroke="midnightblue" d="M433.14,-582.42C442.44,-578.99 451.56,-574.33 459,-568 485.95,-545.08 464.85,-515.52 495,-497 528.71,-476.3 546.16,-485.49 584,-497 610.06,-504.93 635.38,-523.8 651.51,-537.66"/>
<polygon fill="midnightblue" stroke="midnightblue" points="649.26,-540.35 659.06,-544.37 653.91,-535.11 649.26,-540.35"/>
</g>
<!-- Node41&#45;&gt;Node199 -->
<g id="edge12" class="edge">
<title>Node41&#45;&gt;Node199</title>
<path fill="none" stroke="midnightblue" d="M403.13,-601.63C430.15,-614.87 478.97,-638.81 510.01,-654.03"/>
<polygon fill="midnightblue" stroke="midnightblue" points="508.51,-657.19 519.03,-658.45 511.59,-650.91 508.51,-657.19"/>
</g>
<!-- Node199&#45;&gt;Node42 -->
<g id="edge13" class="edge">
<title>Node199&#45;&gt;Node42</title>
<path fill="none" stroke="midnightblue" d="M582.22,-661.83C591.05,-660.53 600.52,-659.13 609.85,-657.75"/>
<polygon fill="midnightblue" stroke="midnightblue" points="610.5,-661.19 619.88,-656.26 609.48,-654.26 610.5,-661.19"/>
</g>
<!-- Node199&#45;&gt;Node53 -->
<g id="edge14" class="edge">
<title>Node199&#45;&gt;Node53</title>
<path fill="none" stroke="midnightblue" d="M551.46,-658.28C573.46,-638.76 623.23,-594.61 650.41,-570.49"/>
<polygon fill="midnightblue" stroke="midnightblue" points="652.91,-572.95 658.07,-563.69 648.27,-567.71 652.91,-572.95"/>
</g>
<!-- Node437&#45;&gt;Node193 -->
<g id="edge22" class="edge">
<title>Node437&#45;&gt;Node193</title>
<path fill="none" stroke="midnightblue" d="M223.33,-449.62C241.3,-462.18 274.64,-484.07 306,-497 317.71,-501.83 330.97,-505.67 343.08,-508.6"/>
<polygon fill="midnightblue" stroke="midnightblue" points="342.38,-512.03 352.91,-510.85 343.94,-505.21 342.38,-512.03"/>
</g>
<!-- Node437&#45;&gt;Node196 -->
<g id="edge23" class="edge">
<title>Node437&#45;&gt;Node196</title>
<path fill="none" stroke="midnightblue" d="M253.28,-449.59C276.11,-454.65 304.32,-460.9 328.46,-466.25"/>
<polygon fill="midnightblue" stroke="midnightblue" points="328.01,-469.73 338.53,-468.48 329.53,-462.9 328.01,-469.73"/>
</g>
<!-- Node438 -->
<g id="node17" class="node">
<title>Node438</title>
<g id="a_node17"><a xlink:href="quickjs_8c.html#ad31f7a1d61971bfacede26cef8204a91" target="_top" xlink:title=" ">
<polygon fill="none" stroke="red" points="340.5,-430.5 340.5,-449.5 424.5,-449.5 424.5,-430.5 340.5,-430.5"/>
<text text-anchor="middle" x="382.5" y="-437.5" font-family="Helvetica,sans-Serif" font-size="10.00">JS_InvokeFree</text>
</a>
</g>
</g>
<!-- Node437&#45;&gt;Node438 -->
<g id="edge20" class="edge">
<title>Node437&#45;&gt;Node438</title>
<path fill="none" stroke="midnightblue" d="M270.46,-440C289.99,-440 311.44,-440 330.24,-440"/>
<polygon fill="midnightblue" stroke="midnightblue" points="330.38,-443.5 340.38,-440 330.38,-436.5 330.38,-443.5"/>
</g>
<!-- Node256 -->
<g id="node18" class="node">
<title>Node256</title>
<g id="a_node18"><a xlink:href="quickjs_8c.html#a38cad713b74c445668210ea8614bfb65" target="_top" xlink:title=" ">
<polygon fill="none" stroke="black" points="337,-392.5 337,-411.5 428,-411.5 428,-392.5 337,-392.5"/>
<text text-anchor="middle" x="382.5" y="-399.5" font-family="Helvetica,sans-Serif" font-size="10.00">JS_ToStringFree</text>
</a>
</g>
</g>
<!-- Node437&#45;&gt;Node256 -->
<g id="edge24" class="edge">
<title>Node437&#45;&gt;Node256</title>
<path fill="none" stroke="midnightblue" d="M253.28,-430.41C276.11,-425.35 304.32,-419.1 328.46,-413.75"/>
<polygon fill="midnightblue" stroke="midnightblue" points="329.53,-417.1 338.53,-411.52 328.01,-410.27 329.53,-417.1"/>
</g>
<!-- Node438&#45;&gt;Node2 -->
<g id="edge21" class="edge">
<title>Node438&#45;&gt;Node2</title>
<path fill="none" stroke="midnightblue" d="M424.63,-440C444.58,-440 468.68,-440 489.57,-440"/>
<polygon fill="midnightblue" stroke="midnightblue" points="489.85,-443.5 499.85,-440 489.85,-436.5 489.85,-443.5"/>
</g>
<!-- Node256&#45;&gt;Node2 -->
<g id="edge25" class="edge">
<title>Node256&#45;&gt;Node2</title>
<path fill="none" stroke="midnightblue" d="M422.61,-411.59C443.05,-416.6 468.26,-422.78 489.94,-428.09"/>
<polygon fill="midnightblue" stroke="midnightblue" points="489.39,-431.56 499.94,-430.55 491.06,-424.77 489.39,-431.56"/>
</g>
<!-- Node256&#45;&gt;Node75 -->
<g id="edge26" class="edge">
<title>Node256&#45;&gt;Node75</title>
<path fill="none" stroke="midnightblue" d="M399.22,-392.37C426.25,-375.8 481.77,-341.77 513.95,-322.05"/>
<polygon fill="midnightblue" stroke="midnightblue" points="516.05,-324.87 522.74,-316.66 512.39,-318.9 516.05,-324.87"/>
</g>
<!-- Node441 -->
<g id="node21" class="node">
<title>Node441</title>
<g id="a_node21"><a xlink:href="quickjs_8c.html#af894945c3459f86096c1821a0a696934" target="_top" xlink:title=" ">
<polygon fill="none" stroke="black" points="334.5,-164.5 334.5,-183.5 430.5,-183.5 430.5,-164.5 334.5,-164.5"/>
<text text-anchor="middle" x="382.5" y="-171.5" font-family="Helvetica,sans-Serif" font-size="10.00">get_typed_array</text>
</a>
</g>
</g>
<!-- Node440&#45;&gt;Node441 -->
<g id="edge29" class="edge">
<title>Node440&#45;&gt;Node441</title>
<path fill="none" stroke="midnightblue" d="M264.26,-169.9C283.31,-170.56 304.77,-171.32 324.07,-171.99"/>
<polygon fill="midnightblue" stroke="midnightblue" points="324.12,-175.49 334.24,-172.35 324.37,-168.5 324.12,-175.49"/>
</g>
<!-- Node267 -->
<g id="node22" class="node">
<title>Node267</title>
<g id="a_node22"><a xlink:href="quickjs_8c.html#a033dd3ebd29c4eb9f0baff1dd0fec0b1" target="_top" xlink:title=" ">
<polygon fill="none" stroke="black" points="306,-115 306,-145 459,-145 459,-115 306,-115"/>
<text text-anchor="start" x="314" y="-133" font-family="Helvetica,sans-Serif" font-size="10.00">JS_ThrowTypeErrorDetached</text>
<text text-anchor="middle" x="382.5" y="-122" font-family="Helvetica,sans-Serif" font-size="10.00">ArrayBuffer</text>
</a>
</g>
</g>
<!-- Node440&#45;&gt;Node267 -->
<g id="edge30" class="edge">
<title>Node440&#45;&gt;Node267</title>
<path fill="none" stroke="midnightblue" d="M264.26,-155.98C276.78,-153.2 290.33,-150.2 303.62,-147.26"/>
<polygon fill="midnightblue" stroke="midnightblue" points="304.71,-150.6 313.72,-145.02 303.2,-143.76 304.71,-150.6"/>
</g>
<!-- Node268 -->
<g id="node23" class="node">
<title>Node268</title>
<g id="a_node23"><a xlink:href="quickjs_8c.html#a869fa88a646c0a1914ec2e559b193b5c" target="_top" xlink:title=" ">
<polygon fill="none" stroke="black" points="313,-76.5 313,-95.5 452,-95.5 452,-76.5 313,-76.5"/>
<text text-anchor="middle" x="382.5" y="-83.5" font-family="Helvetica,sans-Serif" font-size="10.00">typed_array_is_detached</text>
</a>
</g>
</g>
<!-- Node440&#45;&gt;Node268 -->
<g id="edge31" class="edge">
<title>Node440&#45;&gt;Node268</title>
<path fill="none" stroke="midnightblue" d="M252.49,-152.94C258.58,-150.03 264.61,-146.72 270,-143 289.15,-129.79 285.92,-116.75 306,-105 309.84,-102.75 313.95,-100.77 318.19,-99.01"/>
<polygon fill="midnightblue" stroke="midnightblue" points="319.44,-102.28 327.62,-95.54 317.02,-95.71 319.44,-102.28"/>
</g>
<!-- Node442&#45;&gt;Node2 -->
<g id="edge34" class="edge">
<title>Node442&#45;&gt;Node2</title>
<path fill="none" stroke="midnightblue" d="M267.12,-340.86C329.56,-351.04 425.24,-368.24 459,-383 482.11,-393.1 505.16,-410.66 520.44,-423.63"/>
<polygon fill="midnightblue" stroke="midnightblue" points="518.25,-426.36 528.09,-430.29 522.84,-421.08 518.25,-426.36"/>
</g>
<!-- Node442&#45;&gt;Node52 -->
<g id="edge35" class="edge">
<title>Node442&#45;&gt;Node52</title>
<path fill="none" stroke="midnightblue" d="M267.09,-317.05C279.89,-313.72 293.4,-310.23 306,-307 314.94,-304.71 324.49,-302.29 333.68,-299.97"/>
<polygon fill="midnightblue" stroke="midnightblue" points="334.62,-303.34 343.46,-297.51 332.91,-296.56 334.62,-303.34"/>
</g>
<!-- Node442&#45;&gt;Node256 -->
<g id="edge36" class="edge">
<title>Node442&#45;&gt;Node256</title>
<path fill="none" stroke="midnightblue" d="M238.94,-347.17C257.75,-356.7 282.98,-368.88 306,-378 316.38,-382.11 327.76,-386.03 338.47,-389.46"/>
<polygon fill="midnightblue" stroke="midnightblue" points="337.48,-392.82 348.07,-392.47 339.58,-386.14 337.48,-392.82"/>
</g>
<!-- Node442&#45;&gt;Node328 -->
<g id="edge37" class="edge">
<title>Node442&#45;&gt;Node328</title>
<path fill="none" stroke="midnightblue" d="M228.75,-316.94C247.35,-302.69 277.16,-281.66 306,-269 311.47,-266.6 317.3,-264.46 323.21,-262.56"/>
<polygon fill="midnightblue" stroke="midnightblue" points="324.58,-265.81 333.17,-259.6 322.58,-259.1 324.58,-265.81"/>
</g>
<!-- Node90 -->
<g id="node26" class="node">
<title>Node90</title>
<g id="a_node26"><a xlink:href="quickjs_8c.html#a85744d3012cd123d2c7d27ef7a4e7ddf" target="_top" xlink:title=" ">
<polygon fill="none" stroke="red" points="319,-316.5 319,-335.5 446,-335.5 446,-316.5 319,-316.5"/>
<text text-anchor="middle" x="382.5" y="-323.5" font-family="Helvetica,sans-Serif" font-size="10.00">string_buffer_set_error</text>
</a>
</g>
</g>
<!-- Node442&#45;&gt;Node90 -->
<g id="edge38" class="edge">
<title>Node442&#45;&gt;Node90</title>
<path fill="none" stroke="midnightblue" d="M267.11,-330C280.44,-329.54 294.81,-329.03 308.72,-328.55"/>
<polygon fill="midnightblue" stroke="midnightblue" points="308.87,-332.04 318.74,-328.2 308.62,-325.05 308.87,-332.04"/>
</g>
</g>
</svg>
