<?xml version="1.0" encoding="UTF-8" standalone="no"?>
<!DOCTYPE svg PUBLIC "-//W3C//DTD SVG 1.1//EN"
 "http://www.w3.org/Graphics/SVG/1.1/DTD/svg11.dtd">
<!-- Generated by graphviz version 2.43.0 (0)
 -->
<!-- Title: js_array_flatten Pages: 1 -->
<!--zoomable 1060 -->
<svg id="main" version="1.1" xmlns="http://www.w3.org/2000/svg" xmlns:xlink="http://www.w3.org/1999/xlink" xml:space="preserve" onload="init(evt)">
<style type="text/css"><![CDATA[
.edge:hover path { stroke: red; }
.edge:hover polygon { stroke: red; fill: red; }
]]></style>
<script type="text/javascript"><![CDATA[
var edges = document.getElementsByTagName('g');
if (edges && edges.length) {
  for (var i=0;i<edges.length;i++) {
    if (edges[i].id.substr(0,4)=='edge') {
      edges[i].setAttribute('class','edge');
    }
  }
}
]]></script>
        <defs>
                <circle id="rim" cx="0" cy="0" r="7"/>
                <circle id="rim2" cx="0" cy="0" r="3.5"/>
                <g id="zoomPlus">
                        <use xlink:href="#rim" fill="#404040">
                                <set attributeName="fill" to="#808080" begin="zoomplus.mouseover" end="zoomplus.mouseout"/>
                        </use>
                        <path d="M-4,0h8M0,-4v8" fill="none" stroke="white" stroke-width="1.5" pointer-events="none"/>
                </g>
                <g id="zoomMin">
                        <use xlink:href="#rim" fill="#404040">
                                <set attributeName="fill" to="#808080" begin="zoomminus.mouseover" end="zoomminus.mouseout"/>
                        </use>
                        <path d="M-4,0h8" fill="none" stroke="white" stroke-width="1.5" pointer-events="none"/>
                </g>
                <g id="dirArrow">
                        <path fill="none" stroke="white" stroke-width="1.5" d="M0,-3.0v7 M-2.5,-0.5L0,-3.0L2.5,-0.5"/>
                </g>
               <g id="resetDef">
                       <use xlink:href="#rim2" fill="#404040">
                               <set attributeName="fill" to="#808080" begin="reset.mouseover" end="reset.mouseout"/>
                       </use>
               </g>
        </defs>

<script type="text/javascript">
var viewWidth = 700;
var viewHeight = 1060;
var sectionId = 'dynsection-1510';
</script>
<script xlink:href="svgpan.js"/>
<svg id="graph" class="graph">
<g id="viewport">
<title>js_array_flatten</title>
<!-- Node1 -->
<g id="node1" class="node">
<title>Node1</title>
<g id="a_node1"><a xlink:title=" ">
<polygon fill="#bfbfbf" stroke="black" points="0,-520.8 0,-539.8 92,-539.8 92,-520.8 0,-520.8"/>
<text text-anchor="middle" x="46" y="-527.8" font-family="Helvetica,sans-Serif" font-size="10.00">js_array_flatten</text>
</a>
</g>
</g>
<!-- Node2 -->
<g id="node2" class="node">
<title>Node2</title>
<g id="a_node2"><a xlink:href="quickjs_8c.html#a59a7e992f228759bf0a56f0aae4f3cc3" target="_top" xlink:title=" ">
<polygon fill="none" stroke="black" points="146.5,-1032.8 146.5,-1051.8 236.5,-1051.8 236.5,-1032.8 146.5,-1032.8"/>
<text text-anchor="middle" x="191.5" y="-1039.8" font-family="Helvetica,sans-Serif" font-size="10.00">check_function</text>
</a>
</g>
</g>
<!-- Node1&#45;&gt;Node2 -->
<g id="edge1" class="edge">
<title>Node1&#45;&gt;Node2</title>
<path fill="none" stroke="midnightblue" d="M47.33,-539.93C49.6,-601.58 64.89,-940.95 128,-1018.3 131.05,-1022.05 134.76,-1025.21 138.84,-1027.88"/>
<polygon fill="midnightblue" stroke="midnightblue" points="137.16,-1030.95 147.61,-1032.69 140.53,-1024.81 137.16,-1030.95"/>
</g>
<!-- Node4 -->
<g id="node4" class="node">
<title>Node4</title>
<g id="a_node4"><a xlink:href="quickjs_8c.html#a3b818b1ca9d2d4aaa9b55b1cc54c1bc4" target="_top" xlink:title=" ">
<polygon fill="none" stroke="black" points="128,-634.8 128,-653.8 255,-653.8 255,-634.8 128,-634.8"/>
<text text-anchor="middle" x="191.5" y="-641.8" font-family="Helvetica,sans-Serif" font-size="10.00">JS_ArraySpeciesCreate</text>
</a>
</g>
</g>
<!-- Node1&#45;&gt;Node4 -->
<g id="edge3" class="edge">
<title>Node1&#45;&gt;Node4</title>
<path fill="none" stroke="midnightblue" d="M59.23,-540.02C83.91,-559.63 139.86,-604.08 170.14,-628.13"/>
<polygon fill="midnightblue" stroke="midnightblue" points="168.29,-631.13 178.3,-634.61 172.64,-625.65 168.29,-631.13"/>
</g>
<!-- Node8 -->
<g id="node7" class="node">
<title>Node8</title>
<g id="a_node7"><a xlink:href="quickjs_8h.html#afaa20c47565bc704c6c85f3d77254e7d" target="_top" xlink:title=" ">
<polygon fill="none" stroke="red" points="613,-596.8 613,-615.8 692,-615.8 692,-596.8 613,-596.8"/>
<text text-anchor="middle" x="652.5" y="-603.8" font-family="Helvetica,sans-Serif" font-size="10.00">JS_FreeValue</text>
</a>
</g>
</g>
<!-- Node1&#45;&gt;Node8 -->
<g id="edge43" class="edge">
<title>Node1&#45;&gt;Node8</title>
<path fill="none" stroke="midnightblue" d="M47.43,-540.13C50.16,-597.47 66.9,-888.22 128,-947.3 180.74,-998.3 217.87,-967.51 291,-973.3 359.67,-978.75 386.57,-1008.14 446,-973.3 581.21,-894.05 634.14,-689.75 647.73,-625.76"/>
<polygon fill="midnightblue" stroke="midnightblue" points="651.19,-626.31 649.76,-615.81 644.33,-624.91 651.19,-626.31"/>
</g>
<!-- Node57 -->
<g id="node8" class="node">
<title>Node57</title>
<g id="a_node8"><a xlink:href="quickjs_8h.html#ad80a83d73e9b7d872b88fbf2943aebe9" target="_top" xlink:title=" ">
<polygon fill="none" stroke="black" points="486,-501.8 486,-520.8 573,-520.8 573,-501.8 486,-501.8"/>
<text text-anchor="middle" x="529.5" y="-508.8" font-family="Helvetica,sans-Serif" font-size="10.00">JS_IsException</text>
</a>
</g>
</g>
<!-- Node1&#45;&gt;Node57 -->
<g id="edge45" class="edge">
<title>Node1&#45;&gt;Node57</title>
<path fill="none" stroke="midnightblue" d="M92.34,-524.99C141.27,-519.54 221.53,-511.43 291,-508.3 359.82,-505.21 377.12,-507.05 446,-508.3 455.57,-508.48 465.77,-508.77 475.6,-509.09"/>
<polygon fill="midnightblue" stroke="midnightblue" points="475.57,-512.6 485.69,-509.45 475.82,-505.6 475.57,-512.6"/>
</g>
<!-- Node215 -->
<g id="node16" class="node">
<title>Node215</title>
<g id="a_node16"><a xlink:href="quickjs_8h.html#a4e407128a9605afb77523e49e9a627fd" target="_top" xlink:title=" ">
<polygon fill="none" stroke="black" points="324,-368.8 324,-387.8 413,-387.8 413,-368.8 324,-368.8"/>
<text text-anchor="middle" x="368.5" y="-375.8" font-family="Helvetica,sans-Serif" font-size="10.00">JS_IsUndefined</text>
</a>
</g>
</g>
<!-- Node1&#45;&gt;Node215 -->
<g id="edge46" class="edge">
<title>Node1&#45;&gt;Node215</title>
<path fill="none" stroke="midnightblue" d="M61.14,-520.63C97.55,-496.19 198.17,-431.43 291,-397.3 298.32,-394.61 306.16,-392.18 313.94,-390.02"/>
<polygon fill="midnightblue" stroke="midnightblue" points="314.94,-393.38 323.71,-387.44 313.15,-386.61 314.94,-393.38"/>
</g>
<!-- Node442 -->
<g id="node18" class="node">
<title>Node442</title>
<g id="a_node18"><a xlink:href="quickjs_8c.html#ad90c33b4aae1181151bda4a98ac2ef23" target="_top" xlink:title=" ">
<polygon fill="none" stroke="black" points="136.5,-235.8 136.5,-254.8 246.5,-254.8 246.5,-235.8 136.5,-235.8"/>
<text text-anchor="middle" x="191.5" y="-242.8" font-family="Helvetica,sans-Serif" font-size="10.00">JS_FlattenIntoArray</text>
</a>
</g>
</g>
<!-- Node1&#45;&gt;Node442 -->
<g id="edge21" class="edge">
<title>Node1&#45;&gt;Node442</title>
<path fill="none" stroke="midnightblue" d="M50.19,-520.64C59.93,-491.63 90.89,-403.17 128,-335.3 142.45,-308.87 162.95,-280.69 176.47,-263.05"/>
<polygon fill="midnightblue" stroke="midnightblue" points="179.47,-264.89 182.84,-254.85 173.95,-260.6 179.47,-264.89"/>
</g>
<!-- Node58 -->
<g id="node23" class="node">
<title>Node58</title>
<g id="a_node23"><a xlink:href="quickjs_8h.html#a2050bc428da1c65ac7eb87c3fa3b0392" target="_top" xlink:title=" ">
<polygon fill="none" stroke="black" points="614,-121.8 614,-140.8 691,-140.8 691,-121.8 614,-121.8"/>
<text text-anchor="middle" x="652.5" y="-128.8" font-family="Helvetica,sans-Serif" font-size="10.00">JS_NewInt32</text>
</a>
</g>
</g>
<!-- Node1&#45;&gt;Node58 -->
<g id="edge47" class="edge">
<title>Node1&#45;&gt;Node58</title>
<path fill="none" stroke="midnightblue" d="M47.58,-520.67C51.91,-458.91 84.95,-117.91 291,-17.3 414.46,42.98 577.02,-71.52 632.21,-115.29"/>
<polygon fill="midnightblue" stroke="midnightblue" points="630.15,-118.12 640.13,-121.67 634.54,-112.67 630.15,-118.12"/>
</g>
<!-- Node444 -->
<g id="node24" class="node">
<title>Node444</title>
<g id="a_node24"><a xlink:href="quickjs_8c.html#a5f848f76409193212a44e6221e430919" target="_top" xlink:title=" ">
<polygon fill="none" stroke="black" points="321.5,-292.8 321.5,-311.8 415.5,-311.8 415.5,-292.8 321.5,-292.8"/>
<text text-anchor="middle" x="368.5" y="-299.8" font-family="Helvetica,sans-Serif" font-size="10.00">js_get_length64</text>
</a>
</g>
</g>
<!-- Node1&#45;&gt;Node444 -->
<g id="edge44" class="edge">
<title>Node1&#45;&gt;Node444</title>
<path fill="none" stroke="midnightblue" d="M51.26,-520.58C61.47,-498.27 89.37,-442.86 128,-410.3 186.04,-361.39 269.82,-330.43 321.35,-314.75"/>
<polygon fill="midnightblue" stroke="midnightblue" points="322.63,-318.03 331.21,-311.82 320.63,-311.32 322.63,-318.03"/>
</g>
<!-- Node450 -->
<g id="node28" class="node">
<title>Node450</title>
<g id="a_node28"><a xlink:href="quickjs_8c.html#ad698ea01233894f912303776fe3c08c8" target="_top" xlink:title=" ">
<polygon fill="none" stroke="black" points="150.5,-918.8 150.5,-937.8 232.5,-937.8 232.5,-918.8 150.5,-918.8"/>
<text text-anchor="middle" x="191.5" y="-925.8" font-family="Helvetica,sans-Serif" font-size="10.00">JS_ToInt32Sat</text>
</a>
</g>
</g>
<!-- Node1&#45;&gt;Node450 -->
<g id="edge48" class="edge">
<title>Node1&#45;&gt;Node450</title>
<path fill="none" stroke="midnightblue" d="M50.55,-540.14C69.39,-592.4 157.86,-837.78 183.51,-908.92"/>
<polygon fill="midnightblue" stroke="midnightblue" points="180.26,-910.23 186.95,-918.45 186.85,-907.86 180.26,-910.23"/>
</g>
<!-- Node277 -->
<g id="node30" class="node">
<title>Node277</title>
<g id="a_node30"><a xlink:href="quickjs_8c.html#a710289a14c2810467e5b448d3c28bd55" target="_top" xlink:title=" ">
<polygon fill="none" stroke="red" points="332,-558.8 332,-577.8 405,-577.8 405,-558.8 332,-558.8"/>
<text text-anchor="middle" x="368.5" y="-565.8" font-family="Helvetica,sans-Serif" font-size="10.00">JS_ToObject</text>
</a>
</g>
</g>
<!-- Node1&#45;&gt;Node277 -->
<g id="edge52" class="edge">
<title>Node1&#45;&gt;Node277</title>
<path fill="none" stroke="midnightblue" d="M92.24,-535.67C153.08,-542.88 260.67,-555.64 321.77,-562.88"/>
<polygon fill="midnightblue" stroke="midnightblue" points="321.54,-566.38 331.88,-564.08 322.37,-559.43 321.54,-566.38"/>
</g>
<!-- Node3 -->
<g id="node3" class="node">
<title>Node3</title>
<g id="a_node3"><a xlink:href="quickjs_8c.html#a1ca9cdb1fa2ffc3e6506e92b200e490f" target="_top" xlink:title=" ">
<polygon fill="none" stroke="black" points="328.5,-1032.8 328.5,-1051.8 408.5,-1051.8 408.5,-1032.8 328.5,-1032.8"/>
<text text-anchor="middle" x="368.5" y="-1039.8" font-family="Helvetica,sans-Serif" font-size="10.00">JS_IsFunction</text>
</a>
</g>
</g>
<!-- Node2&#45;&gt;Node3 -->
<g id="edge2" class="edge">
<title>Node2&#45;&gt;Node3</title>
<path fill="none" stroke="midnightblue" d="M236.66,-1042.3C261.49,-1042.3 292.55,-1042.3 318.17,-1042.3"/>
<polygon fill="midnightblue" stroke="midnightblue" points="318.42,-1045.8 328.42,-1042.3 318.42,-1038.8 318.42,-1045.8"/>
</g>
<!-- Node5 -->
<g id="node5" class="node">
<title>Node5</title>
<g id="a_node5"><a xlink:href="quickjs_8c.html#a68c7842d6b1ef577bc4625aec4ede310" target="_top" xlink:title=" ">
<polygon fill="none" stroke="red" points="310.5,-596.8 310.5,-615.8 426.5,-615.8 426.5,-596.8 310.5,-596.8"/>
<text text-anchor="middle" x="368.5" y="-603.8" font-family="Helvetica,sans-Serif" font-size="10.00">js_array_constructor</text>
</a>
</g>
</g>
<!-- Node4&#45;&gt;Node5 -->
<g id="edge4" class="edge">
<title>Node4&#45;&gt;Node5</title>
<path fill="none" stroke="midnightblue" d="M236.66,-634.71C260.07,-629.63 289.01,-623.35 313.71,-617.98"/>
<polygon fill="midnightblue" stroke="midnightblue" points="314.63,-621.37 323.66,-615.82 313.14,-614.53 314.63,-621.37"/>
</g>
<!-- Node4&#45;&gt;Node8 -->
<g id="edge9" class="edge">
<title>Node4&#45;&gt;Node8</title>
<path fill="none" stroke="midnightblue" d="M198.66,-654.01C212.31,-674.5 247.38,-721.7 291,-739.3 354.88,-765.09 377.8,-749 446,-739.3 506.02,-730.77 526.76,-735.23 577,-701.3 606.37,-681.47 629.45,-646.38 641.73,-624.85"/>
<polygon fill="midnightblue" stroke="midnightblue" points="644.84,-626.47 646.6,-616.02 638.7,-623.09 644.84,-626.47"/>
</g>
<!-- Node4&#45;&gt;Node57 -->
<g id="edge15" class="edge">
<title>Node4&#45;&gt;Node57</title>
<path fill="none" stroke="midnightblue" d="M199.33,-634.52C213.73,-614.74 249.34,-570.1 291,-549.3 349.6,-520.05 425.54,-512.38 475.58,-510.83"/>
<polygon fill="midnightblue" stroke="midnightblue" points="475.94,-514.32 485.85,-510.58 475.77,-507.32 475.94,-514.32"/>
</g>
<!-- Node376 -->
<g id="node9" class="node">
<title>Node376</title>
<g id="a_node9"><a xlink:href="quickjs_8c.html#a28704096ee67c5b0ab1bd60ce050e36a" target="_top" xlink:title=" ">
<polygon fill="none" stroke="red" points="315.5,-634.8 315.5,-653.8 421.5,-653.8 421.5,-634.8 315.5,-634.8"/>
<text text-anchor="middle" x="368.5" y="-641.8" font-family="Helvetica,sans-Serif" font-size="10.00">JS_CallConstructor</text>
</a>
</g>
</g>
<!-- Node4&#45;&gt;Node376 -->
<g id="edge8" class="edge">
<title>Node4&#45;&gt;Node376</title>
<path fill="none" stroke="midnightblue" d="M255.18,-644.3C271.36,-644.3 288.76,-644.3 304.92,-644.3"/>
<polygon fill="midnightblue" stroke="midnightblue" points="305.34,-647.8 315.34,-644.3 305.34,-640.8 305.34,-647.8"/>
</g>
<!-- Node46 -->
<g id="node10" class="node">
<title>Node46</title>
<g id="a_node10"><a xlink:href="quickjs_8c.html#a83e9d1851a3e2cd176944272b583143c" target="_top" xlink:title=" ">
<polygon fill="none" stroke="red" points="308,-862.8 308,-881.8 429,-881.8 429,-862.8 308,-862.8"/>
<text text-anchor="middle" x="368.5" y="-869.8" font-family="Helvetica,sans-Serif" font-size="10.00">JS_GetFunctionRealm</text>
</a>
</g>
</g>
<!-- Node4&#45;&gt;Node46 -->
<g id="edge10" class="edge">
<title>Node4&#45;&gt;Node46</title>
<path fill="none" stroke="midnightblue" d="M194.06,-653.99C199.94,-687.34 224.01,-798.36 291,-853.3 293.41,-855.28 295.99,-857.05 298.71,-858.65"/>
<polygon fill="midnightblue" stroke="midnightblue" points="297.22,-861.82 307.73,-863.15 300.34,-855.55 297.22,-861.82"/>
</g>
<!-- Node48 -->
<g id="node11" class="node">
<title>Node48</title>
<g id="a_node11"><a xlink:href="quickjs_8h.html#a89b7c8686c7eee70b86be722ee4730ad" target="_top" xlink:title=" ">
<polygon fill="none" stroke="red" points="485,-330.8 485,-349.8 574,-349.8 574,-330.8 485,-330.8"/>
<text text-anchor="middle" x="529.5" y="-337.8" font-family="Helvetica,sans-Serif" font-size="10.00">JS_GetProperty</text>
</a>
</g>
</g>
<!-- Node4&#45;&gt;Node48 -->
<g id="edge12" class="edge">
<title>Node4&#45;&gt;Node48</title>
<path fill="none" stroke="midnightblue" d="M197.19,-634.8C209.5,-610.71 244.99,-546.44 291,-508.3 349.63,-459.71 385.29,-481.26 446,-435.3 475.3,-413.12 501.72,-379.07 516.39,-358.32"/>
<polygon fill="midnightblue" stroke="midnightblue" points="519.46,-360.04 522.27,-349.82 513.71,-356.05 519.46,-360.04"/>
</g>
<!-- Node440 -->
<g id="node12" class="node">
<title>Node440</title>
<g id="a_node12"><a xlink:href="quickjs_8c.html#a1fc2c29e89230a9792fd36ae50b270e4" target="_top" xlink:title=" ">
<polygon fill="none" stroke="red" points="336,-406.8 336,-425.8 401,-425.8 401,-406.8 336,-406.8"/>
<text text-anchor="middle" x="368.5" y="-413.8" font-family="Helvetica,sans-Serif" font-size="10.00">JS_IsArray</text>
</a>
</g>
</g>
<!-- Node4&#45;&gt;Node440 -->
<g id="edge13" class="edge">
<title>Node4&#45;&gt;Node440</title>
<path fill="none" stroke="midnightblue" d="M194.35,-634.54C201.03,-601.9 227.01,-495.58 291,-440.3 300.89,-431.76 313.82,-426.25 326.22,-422.71"/>
<polygon fill="midnightblue" stroke="midnightblue" points="327.14,-426.09 335.99,-420.26 325.44,-419.3 327.14,-426.09"/>
</g>
<!-- Node416 -->
<g id="node13" class="node">
<title>Node416</title>
<g id="a_node13"><a xlink:href="quickjs_8c.html#afa39b15865cb50fc2383e76e33b2de1a" target="_top" xlink:title=" ">
<polygon fill="none" stroke="black" points="321,-824.8 321,-843.8 416,-843.8 416,-824.8 321,-824.8"/>
<text text-anchor="middle" x="368.5" y="-831.8" font-family="Helvetica,sans-Serif" font-size="10.00">JS_IsConstructor</text>
</a>
</g>
</g>
<!-- Node4&#45;&gt;Node416 -->
<g id="edge14" class="edge">
<title>Node4&#45;&gt;Node416</title>
<path fill="none" stroke="midnightblue" d="M195.09,-653.85C203.51,-683.01 233,-771.59 291,-815.3 296.94,-819.78 303.8,-823.21 310.92,-825.84"/>
<polygon fill="midnightblue" stroke="midnightblue" points="310.15,-829.26 320.74,-828.95 312.26,-822.59 310.15,-829.26"/>
</g>
<!-- Node213 -->
<g id="node14" class="node">
<title>Node213</title>
<g id="a_node14"><a xlink:href="quickjs_8h.html#a149f24b67e745bad93573b3b4c80db4c" target="_top" xlink:title=" ">
<polygon fill="none" stroke="black" points="339,-786.8 339,-805.8 398,-805.8 398,-786.8 339,-786.8"/>
<text text-anchor="middle" x="368.5" y="-793.8" font-family="Helvetica,sans-Serif" font-size="10.00">JS_IsNull</text>
</a>
</g>
</g>
<!-- Node4&#45;&gt;Node213 -->
<g id="edge16" class="edge">
<title>Node4&#45;&gt;Node213</title>
<path fill="none" stroke="midnightblue" d="M197.24,-653.95C209.4,-677.72 244.1,-739.56 291,-772.3 302.17,-780.1 315.97,-785.44 328.77,-789.07"/>
<polygon fill="midnightblue" stroke="midnightblue" points="328.19,-792.53 338.75,-791.62 329.93,-785.75 328.19,-792.53"/>
</g>
<!-- Node286 -->
<g id="node15" class="node">
<title>Node286</title>
<g id="a_node15"><a xlink:href="quickjs_8h.html#a3d68fe446df2d9c7d1900b16371bff5b" target="_top" xlink:title=" ">
<polygon fill="none" stroke="black" points="333,-672.8 333,-691.8 404,-691.8 404,-672.8 333,-672.8"/>
<text text-anchor="middle" x="368.5" y="-679.8" font-family="Helvetica,sans-Serif" font-size="10.00">JS_IsObject</text>
</a>
</g>
</g>
<!-- Node4&#45;&gt;Node286 -->
<g id="edge17" class="edge">
<title>Node4&#45;&gt;Node286</title>
<path fill="none" stroke="midnightblue" d="M236.66,-653.89C262.94,-659.6 296.2,-666.82 322.61,-672.56"/>
<polygon fill="midnightblue" stroke="midnightblue" points="322.21,-676.05 332.73,-674.75 323.7,-669.21 322.21,-676.05"/>
</g>
<!-- Node4&#45;&gt;Node215 -->
<g id="edge18" class="edge">
<title>Node4&#45;&gt;Node215</title>
<path fill="none" stroke="midnightblue" d="M193.28,-634.73C196.81,-597.89 214.64,-463.92 291,-397.3 297.52,-391.61 305.49,-387.57 313.79,-384.72"/>
<polygon fill="midnightblue" stroke="midnightblue" points="314.99,-388.02 323.63,-381.88 313.05,-381.29 314.99,-388.02"/>
</g>
<!-- Node226 -->
<g id="node17" class="node">
<title>Node226</title>
<g id="a_node17"><a xlink:href="quickjs_8c.html#a24be89a128d1cd7c0908604815b2b854" target="_top" xlink:title=" ">
<polygon fill="none" stroke="red" points="324,-710.8 324,-729.8 413,-729.8 413,-710.8 324,-710.8"/>
<text text-anchor="middle" x="368.5" y="-717.8" font-family="Helvetica,sans-Serif" font-size="10.00">js_same_value</text>
</a>
</g>
</g>
<!-- Node4&#45;&gt;Node226 -->
<g id="edge19" class="edge">
<title>Node4&#45;&gt;Node226</title>
<path fill="none" stroke="midnightblue" d="M206.22,-653.92C224.68,-666.47 258.94,-688.35 291,-701.3 298.32,-704.26 306.22,-706.85 314.07,-709.08"/>
<polygon fill="midnightblue" stroke="midnightblue" points="313.37,-712.52 323.94,-711.73 315.18,-705.76 313.37,-712.52"/>
</g>
<!-- Node7 -->
<g id="node6" class="node">
<title>Node7</title>
<g id="a_node6"><a xlink:href="quickjs_8h.html#a775522f2d084fc8fa0fcb33f390006b4" target="_top" xlink:title=" ">
<polygon fill="none" stroke="black" points="491,-672.8 491,-691.8 568,-691.8 568,-672.8 491,-672.8"/>
<text text-anchor="middle" x="529.5" y="-679.8" font-family="Helvetica,sans-Serif" font-size="10.00">JS_DupValue</text>
</a>
</g>
</g>
<!-- Node5&#45;&gt;Node7 -->
<g id="edge5" class="edge">
<title>Node5&#45;&gt;Node7</title>
<path fill="none" stroke="midnightblue" d="M419.36,-615.91C428.42,-618.43 437.64,-621.53 446,-625.3 469.56,-635.94 493.55,-653.42 509.54,-666.22"/>
<polygon fill="midnightblue" stroke="midnightblue" points="507.59,-669.15 517.55,-672.78 512.03,-663.73 507.59,-669.15"/>
</g>
<!-- Node5&#45;&gt;Node8 -->
<g id="edge6" class="edge">
<title>Node5&#45;&gt;Node8</title>
<path fill="none" stroke="midnightblue" d="M426.57,-606.3C478.25,-606.3 553.6,-606.3 602.59,-606.3"/>
<polygon fill="midnightblue" stroke="midnightblue" points="602.62,-609.8 612.62,-606.3 602.62,-602.8 602.62,-609.8"/>
</g>
<!-- Node5&#45;&gt;Node57 -->
<g id="edge7" class="edge">
<title>Node5&#45;&gt;Node57</title>
<path fill="none" stroke="midnightblue" d="M422.65,-596.79C430.73,-594.31 438.77,-591.2 446,-587.3 473.7,-572.39 499.3,-546.03 514.41,-528.61"/>
<polygon fill="midnightblue" stroke="midnightblue" points="517.17,-530.77 520.95,-520.87 511.83,-526.25 517.17,-530.77"/>
</g>
<!-- Node46&#45;&gt;Node46 -->
<g id="edge11" class="edge">
<title>Node46&#45;&gt;Node46</title>
<path fill="none" stroke="midnightblue" d="M343.84,-882.06C331.84,-890.87 340.06,-900.3 368.5,-900.3 387.61,-900.3 397.59,-896.04 398.44,-890.58"/>
<polygon fill="midnightblue" stroke="midnightblue" points="401.4,-888.72 393.16,-882.06 395.45,-892.4 401.4,-888.72"/>
</g>
<!-- Node226&#45;&gt;Node7 -->
<g id="edge20" class="edge">
<title>Node226&#45;&gt;Node7</title>
<path fill="none" stroke="midnightblue" d="M409.62,-710.71C431.34,-705.52 458.3,-699.08 481.06,-693.64"/>
<polygon fill="midnightblue" stroke="midnightblue" points="481.94,-697.03 490.85,-691.3 480.31,-690.22 481.94,-697.03"/>
</g>
<!-- Node442&#45;&gt;Node8 -->
<g id="edge28" class="edge">
<title>Node442&#45;&gt;Node8</title>
<path fill="none" stroke="midnightblue" d="M227.27,-235.76C303.36,-217.23 485.16,-186.2 577,-283.3 619.25,-327.98 642.88,-523.14 649.53,-586.42"/>
<polygon fill="midnightblue" stroke="midnightblue" points="646.08,-587.04 650.58,-596.63 653.04,-586.33 646.08,-587.04"/>
</g>
<!-- Node442&#45;&gt;Node57 -->
<g id="edge35" class="edge">
<title>Node442&#45;&gt;Node57</title>
<path fill="none" stroke="midnightblue" d="M201.91,-254.81C218.44,-270.96 254.41,-303.69 291,-321.3 354.9,-352.08 389.84,-315.99 446,-359.3 490.64,-393.74 514.18,-459.43 523.56,-492.01"/>
<polygon fill="midnightblue" stroke="midnightblue" points="520.19,-492.97 526.2,-501.69 526.94,-491.12 520.19,-492.97"/>
</g>
<!-- Node442&#45;&gt;Node440 -->
<g id="edge34" class="edge">
<title>Node442&#45;&gt;Node440</title>
<path fill="none" stroke="midnightblue" d="M195.83,-254.93C205.7,-281.98 237.5,-359.14 291,-397.3 301.18,-404.57 313.85,-409.07 325.92,-411.85"/>
<polygon fill="midnightblue" stroke="midnightblue" points="325.37,-415.31 335.86,-413.81 326.72,-408.44 325.37,-415.31"/>
</g>
<!-- Node442&#45;&gt;Node215 -->
<g id="edge36" class="edge">
<title>Node442&#45;&gt;Node215</title>
<path fill="none" stroke="midnightblue" d="M198.62,-255.04C212.45,-276.24 248.27,-326.91 291,-354.3 298.08,-358.84 306.07,-362.57 314.15,-365.62"/>
<polygon fill="midnightblue" stroke="midnightblue" points="313.04,-368.94 323.64,-368.9 315.33,-362.33 313.04,-368.94"/>
</g>
<!-- Node442&#45;&gt;Node442 -->
<g id="edge27" class="edge">
<title>Node442&#45;&gt;Node442</title>
<path fill="none" stroke="midnightblue" d="M169.31,-255.06C158.51,-263.87 165.91,-273.3 191.5,-273.3 208.3,-273.3 217.26,-269.24 218.38,-263.96"/>
<polygon fill="midnightblue" stroke="midnightblue" points="221.45,-262.28 213.69,-255.06 215.26,-265.54 221.45,-262.28"/>
</g>
<!-- Node285 -->
<g id="node19" class="node">
<title>Node285</title>
<g id="a_node19"><a xlink:href="quickjs_8c.html#a1a4c02a29525d5cb2085dd8bca3af350" target="_top" xlink:title=" ">
<polygon fill="none" stroke="red" points="343.5,-26.8 343.5,-45.8 393.5,-45.8 393.5,-26.8 343.5,-26.8"/>
<text text-anchor="middle" x="368.5" y="-33.8" font-family="Helvetica,sans-Serif" font-size="10.00">JS_Call</text>
</a>
</g>
</g>
<!-- Node442&#45;&gt;Node285 -->
<g id="edge22" class="edge">
<title>Node442&#45;&gt;Node285</title>
<path fill="none" stroke="midnightblue" d="M194.54,-235.62C201.69,-204.23 228.58,-104.55 291,-55.3 302.93,-45.89 318.9,-41.07 333.17,-38.63"/>
<polygon fill="midnightblue" stroke="midnightblue" points="333.75,-42.08 343.17,-37.24 332.79,-35.15 333.75,-42.08"/>
</g>
<!-- Node211 -->
<g id="node20" class="node">
<title>Node211</title>
<g id="a_node20"><a xlink:href="quickjs_8c.html#af23ec7c9970ceb4671c59da7abd4b078" target="_top" xlink:title=" ">
<polygon fill="none" stroke="red" points="300,-178.8 300,-197.8 437,-197.8 437,-178.8 300,-178.8"/>
<text text-anchor="middle" x="368.5" y="-185.8" font-family="Helvetica,sans-Serif" font-size="10.00">js_check_stack_overflow</text>
</a>
</g>
</g>
<!-- Node442&#45;&gt;Node211 -->
<g id="edge23" class="edge">
<title>Node442&#45;&gt;Node211</title>
<path fill="none" stroke="midnightblue" d="M220.47,-235.77C240.16,-229.1 267.15,-220.04 291,-212.3 302.57,-208.55 315.16,-204.56 326.72,-200.94"/>
<polygon fill="midnightblue" stroke="midnightblue" points="328.06,-204.19 336.56,-197.86 325.97,-197.5 328.06,-204.19"/>
</g>
<!-- Node443 -->
<g id="node21" class="node">
<title>Node443</title>
<g id="a_node21"><a xlink:href="quickjs_8c.html#a57a83f0615206965524d78bf89bbf777" target="_top" xlink:title=" ">
<polygon fill="none" stroke="red" points="291,-64.8 291,-83.8 446,-83.8 446,-64.8 291,-64.8"/>
<text text-anchor="middle" x="368.5" y="-71.8" font-family="Helvetica,sans-Serif" font-size="10.00">JS_DefinePropertyValueInt64</text>
</a>
</g>
</g>
<!-- Node442&#45;&gt;Node443 -->
<g id="edge24" class="edge">
<title>Node442&#45;&gt;Node443</title>
<path fill="none" stroke="midnightblue" d="M196.19,-235.77C206.79,-209.7 239.83,-136.58 291,-98.3 296.82,-93.95 303.46,-90.37 310.33,-87.43"/>
<polygon fill="midnightblue" stroke="midnightblue" points="311.7,-90.66 319.79,-83.82 309.2,-84.12 311.7,-90.66"/>
</g>
<!-- Node270 -->
<g id="node22" class="node">
<title>Node270</title>
<g id="a_node22"><a xlink:href="quickjs_8h.html#a6acbc709e59969eac6775f9b253b438f" target="_top" xlink:title=" ">
<polygon fill="none" stroke="red" points="491,-102.8 491,-121.8 568,-121.8 568,-102.8 491,-102.8"/>
<text text-anchor="middle" x="529.5" y="-109.8" font-family="Helvetica,sans-Serif" font-size="10.00">JS_NewInt64</text>
</a>
</g>
</g>
<!-- Node442&#45;&gt;Node270 -->
<g id="edge37" class="edge">
<title>Node442&#45;&gt;Node270</title>
<path fill="none" stroke="midnightblue" d="M197.33,-235.75C209.45,-212.92 243.64,-155.3 291,-131.3 350.94,-100.93 430.44,-101.45 480.54,-105.89"/>
<polygon fill="midnightblue" stroke="midnightblue" points="480.48,-109.4 490.77,-106.89 481.16,-102.44 480.48,-109.4"/>
</g>
<!-- Node442&#45;&gt;Node444 -->
<g id="edge29" class="edge">
<title>Node442&#45;&gt;Node444</title>
<path fill="none" stroke="midnightblue" d="M214.91,-254.87C234.69,-263.09 264.43,-274.92 291,-283.3 298.79,-285.76 307.11,-288.11 315.29,-290.26"/>
<polygon fill="midnightblue" stroke="midnightblue" points="314.59,-293.7 325.15,-292.79 316.33,-286.92 314.59,-293.7"/>
</g>
<!-- Node214 -->
<g id="node26" class="node">
<title>Node214</title>
<g id="a_node26"><a xlink:href="quickjs_8c.html#a8353f635fb8a20553c08db8cf38c17e0" target="_top" xlink:title=" ">
<polygon fill="none" stroke="red" points="303,-140.8 303,-159.8 434,-159.8 434,-140.8 303,-140.8"/>
<text text-anchor="middle" x="368.5" y="-147.8" font-family="Helvetica,sans-Serif" font-size="10.00">JS_ThrowStackOverflow</text>
</a>
</g>
</g>
<!-- Node442&#45;&gt;Node214 -->
<g id="edge38" class="edge">
<title>Node442&#45;&gt;Node214</title>
<path fill="none" stroke="midnightblue" d="M202.18,-235.55C218.84,-219.33 254.64,-186.88 291,-169.3 295.93,-166.92 301.18,-164.82 306.54,-162.97"/>
<polygon fill="midnightblue" stroke="midnightblue" points="307.78,-166.25 316.26,-159.9 305.67,-159.57 307.78,-166.25"/>
</g>
<!-- Node448 -->
<g id="node27" class="node">
<title>Node448</title>
<g id="a_node27"><a xlink:href="quickjs_8c.html#a14674e74168715dc5a3a391910982e5d" target="_top" xlink:title=" ">
<polygon fill="none" stroke="red" points="304.5,-254.8 304.5,-273.8 432.5,-273.8 432.5,-254.8 304.5,-254.8"/>
<text text-anchor="middle" x="368.5" y="-261.8" font-family="Helvetica,sans-Serif" font-size="10.00">JS_TryGetPropertyInt64</text>
</a>
</g>
</g>
<!-- Node442&#45;&gt;Node448 -->
<g id="edge39" class="edge">
<title>Node442&#45;&gt;Node448</title>
<path fill="none" stroke="midnightblue" d="M246.91,-251.21C261.81,-252.83 278.21,-254.61 293.98,-256.32"/>
<polygon fill="midnightblue" stroke="midnightblue" points="293.92,-259.84 304.24,-257.44 294.67,-252.88 293.92,-259.84"/>
</g>
<!-- Node443&#45;&gt;Node270 -->
<g id="edge25" class="edge">
<title>Node443&#45;&gt;Node270</title>
<path fill="none" stroke="midnightblue" d="M409.62,-83.89C431.34,-89.08 458.3,-95.53 481.06,-100.96"/>
<polygon fill="midnightblue" stroke="midnightblue" points="480.31,-104.39 490.85,-103.31 481.94,-97.58 480.31,-104.39"/>
</g>
<!-- Node270&#45;&gt;Node58 -->
<g id="edge26" class="edge">
<title>Node270&#45;&gt;Node58</title>
<path fill="none" stroke="midnightblue" d="M568.12,-118.21C579.39,-119.98 591.9,-121.94 603.73,-123.8"/>
<polygon fill="midnightblue" stroke="midnightblue" points="603.48,-127.31 613.9,-125.4 604.57,-120.39 603.48,-127.31"/>
</g>
<!-- Node444&#45;&gt;Node57 -->
<g id="edge31" class="edge">
<title>Node444&#45;&gt;Node57</title>
<path fill="none" stroke="midnightblue" d="M415.67,-309.97C426.56,-313.52 437.48,-318.71 446,-326.3 496.69,-371.45 517.84,-453.7 525.18,-491.43"/>
<polygon fill="midnightblue" stroke="midnightblue" points="521.8,-492.4 527.03,-501.62 528.69,-491.15 521.8,-492.4"/>
</g>
<!-- Node444&#45;&gt;Node48 -->
<g id="edge30" class="edge">
<title>Node444&#45;&gt;Node48</title>
<path fill="none" stroke="midnightblue" d="M409.62,-311.89C430.6,-316.91 456.48,-323.09 478.73,-328.41"/>
<polygon fill="midnightblue" stroke="midnightblue" points="478.13,-331.86 488.67,-330.78 479.75,-325.05 478.13,-331.86"/>
</g>
<!-- Node445 -->
<g id="node25" class="node">
<title>Node445</title>
<g id="a_node25"><a xlink:href="quickjs_8c.html#a07acd485a57197356906928a788a0644" target="_top" xlink:title=" ">
<polygon fill="none" stroke="red" points="482,-292.8 482,-311.8 577,-311.8 577,-292.8 482,-292.8"/>
<text text-anchor="middle" x="529.5" y="-299.8" font-family="Helvetica,sans-Serif" font-size="10.00">JS_ToLengthFree</text>
</a>
</g>
</g>
<!-- Node444&#45;&gt;Node445 -->
<g id="edge32" class="edge">
<title>Node444&#45;&gt;Node445</title>
<path fill="none" stroke="midnightblue" d="M415.92,-302.3C433.31,-302.3 453.29,-302.3 471.53,-302.3"/>
<polygon fill="midnightblue" stroke="midnightblue" points="471.75,-305.8 481.75,-302.3 471.75,-298.8 471.75,-305.8"/>
</g>
<!-- Node445&#45;&gt;Node8 -->
<g id="edge33" class="edge">
<title>Node445&#45;&gt;Node8</title>
<path fill="none" stroke="midnightblue" d="M564.94,-311.99C569.46,-314.44 573.67,-317.5 577,-321.3 646.08,-400.18 652.3,-535.52 652.03,-586.29"/>
<polygon fill="midnightblue" stroke="midnightblue" points="648.53,-586.5 651.88,-596.55 655.53,-586.6 648.53,-586.5"/>
</g>
<!-- Node448&#45;&gt;Node57 -->
<g id="edge41" class="edge">
<title>Node448&#45;&gt;Node57</title>
<path fill="none" stroke="midnightblue" d="M431.55,-273.87C436.8,-276.36 441.73,-279.46 446,-283.3 462.27,-297.97 506.64,-439.58 522.65,-491.95"/>
<polygon fill="midnightblue" stroke="midnightblue" points="519.35,-493.15 525.61,-501.7 526.05,-491.11 519.35,-493.15"/>
</g>
<!-- Node448&#45;&gt;Node48 -->
<g id="edge40" class="edge">
<title>Node448&#45;&gt;Node48</title>
<path fill="none" stroke="midnightblue" d="M424.5,-273.91C432,-276.36 439.38,-279.44 446,-283.3 466.1,-295.02 462.8,-308.16 482,-321.3 484.58,-323.07 487.35,-324.71 490.2,-326.23"/>
<polygon fill="midnightblue" stroke="midnightblue" points="488.95,-329.52 499.49,-330.68 491.98,-323.2 488.95,-329.52"/>
</g>
<!-- Node448&#45;&gt;Node58 -->
<g id="edge42" class="edge">
<title>Node448&#45;&gt;Node58</title>
<path fill="none" stroke="midnightblue" d="M389.78,-254.74C438.85,-231.6 564.15,-172.5 621.74,-145.34"/>
<polygon fill="midnightblue" stroke="midnightblue" points="623.47,-148.39 631.02,-140.96 620.49,-142.06 623.47,-148.39"/>
</g>
<!-- Node450&#45;&gt;Node7 -->
<g id="edge49" class="edge">
<title>Node450&#45;&gt;Node7</title>
<path fill="none" stroke="midnightblue" d="M212.68,-937.84C259.03,-958.19 374.56,-999.89 446,-947.3 486.75,-917.31 516.17,-758.16 525.42,-701.97"/>
<polygon fill="midnightblue" stroke="midnightblue" points="528.9,-702.33 527.04,-691.9 521.99,-701.21 528.9,-702.33"/>
</g>
<!-- Node451 -->
<g id="node29" class="node">
<title>Node451</title>
<g id="a_node29"><a xlink:href="quickjs_8c.html#a419bec82cb80e98e08626a9a5212ec4c" target="_top" xlink:title=" ">
<polygon fill="none" stroke="red" points="317,-918.8 317,-937.8 420,-937.8 420,-918.8 317,-918.8"/>
<text text-anchor="middle" x="368.5" y="-925.8" font-family="Helvetica,sans-Serif" font-size="10.00">JS_ToInt32SatFree</text>
</a>
</g>
</g>
<!-- Node450&#45;&gt;Node451 -->
<g id="edge50" class="edge">
<title>Node450&#45;&gt;Node451</title>
<path fill="none" stroke="midnightblue" d="M232.65,-928.3C254.55,-928.3 282.11,-928.3 306.59,-928.3"/>
<polygon fill="midnightblue" stroke="midnightblue" points="306.88,-931.8 316.88,-928.3 306.88,-924.8 306.88,-931.8"/>
</g>
<!-- Node451&#45;&gt;Node57 -->
<g id="edge51" class="edge">
<title>Node451&#45;&gt;Node57</title>
<path fill="none" stroke="midnightblue" d="M420.21,-924.53C429.94,-921.56 439.2,-916.81 446,-909.3 483.1,-868.37 469.88,-717.21 482,-663.3 492.89,-614.84 511.46,-559.38 521.52,-530.72"/>
<polygon fill="midnightblue" stroke="midnightblue" points="524.88,-531.72 524.93,-521.12 518.28,-529.38 524.88,-531.72"/>
</g>
<!-- Node277&#45;&gt;Node7 -->
<g id="edge53" class="edge">
<title>Node277&#45;&gt;Node7</title>
<path fill="none" stroke="midnightblue" d="M405.16,-572.5C418.68,-575.25 433.75,-579.8 446,-587.3 477.8,-606.78 503.88,-642.54 517.72,-664.19"/>
<polygon fill="midnightblue" stroke="midnightblue" points="514.8,-666.12 523.05,-672.78 520.75,-662.44 514.8,-666.12"/>
</g>
<!-- Node277&#45;&gt;Node57 -->
<g id="edge54" class="edge">
<title>Node277&#45;&gt;Node57</title>
<path fill="none" stroke="midnightblue" d="M401.69,-558.8C415.42,-554.6 431.58,-549.44 446,-544.3 462.81,-538.32 481.27,-531 496.46,-524.78"/>
<polygon fill="midnightblue" stroke="midnightblue" points="498.01,-527.93 505.92,-520.88 495.34,-521.46 498.01,-527.93"/>
</g>
<!-- Node277&#45;&gt;Node58 -->
<g id="edge55" class="edge">
<title>Node277&#45;&gt;Node58</title>
<path fill="none" stroke="midnightblue" d="M405.04,-572.89C451.31,-576.69 531.6,-575.54 577,-530.3 631.49,-476.01 647.22,-224.13 650.67,-151.16"/>
<polygon fill="midnightblue" stroke="midnightblue" points="654.18,-151.19 651.13,-141.04 647.18,-150.88 654.18,-151.19"/>
</g>
</g>
</svg>
        <g id="navigator" transform="translate(0 0)" fill="#404254">
                <rect fill="#f2f5e9" fill-opacity="0.5" stroke="#606060" stroke-width=".5" x="0" y="0" width="60" height="60"/>
                <use id="zoomplus" xlink:href="#zoomPlus" x="17" y="9" onmousedown="handleZoom(evt,'in')"/>
                <use id="zoomminus" xlink:href="#zoomMin" x="42" y="9" onmousedown="handleZoom(evt,'out')"/>
                <use id="reset" xlink:href="#resetDef" x="30" y="36" onmousedown="handleReset()"/>
                <g id="arrowUp" xlink:href="#dirArrow" transform="translate(30 24)" onmousedown="handlePan(0,-1)">
                  <use xlink:href="#rim" fill="#404040">
                        <set attributeName="fill" to="#808080" begin="arrowUp.mouseover" end="arrowUp.mouseout"/>
                  </use>
                  <path fill="none" stroke="white" stroke-width="1.5" d="M0,-3.0v7 M-2.5,-0.5L0,-3.0L2.5,-0.5"/>
                </g>
                <g id="arrowRight" xlink:href="#dirArrow" transform="rotate(90) translate(36 -43)" onmousedown="handlePan(1,0)">
                  <use xlink:href="#rim" fill="#404040">
                        <set attributeName="fill" to="#808080" begin="arrowRight.mouseover" end="arrowRight.mouseout"/>
                  </use>
                  <path fill="none" stroke="white" stroke-width="1.5" d="M0,-3.0v7 M-2.5,-0.5L0,-3.0L2.5,-0.5"/>
                </g>
                <g id="arrowDown" xlink:href="#dirArrow" transform="rotate(180) translate(-30 -48)" onmousedown="handlePan(0,1)">
                  <use xlink:href="#rim" fill="#404040">
                        <set attributeName="fill" to="#808080" begin="arrowDown.mouseover" end="arrowDown.mouseout"/>
                  </use>
                  <path fill="none" stroke="white" stroke-width="1.5" d="M0,-3.0v7 M-2.5,-0.5L0,-3.0L2.5,-0.5"/>
                </g>
                <g id="arrowLeft" xlink:href="#dirArrow" transform="rotate(270) translate(-36 17)" onmousedown="handlePan(-1,0)">
                  <use xlink:href="#rim" fill="#404040">
                        <set attributeName="fill" to="#808080" begin="arrowLeft.mouseover" end="arrowLeft.mouseout"/>
                  </use>
                  <path fill="none" stroke="white" stroke-width="1.5" d="M0,-3.0v7 M-2.5,-0.5L0,-3.0L2.5,-0.5"/>
                </g>
        </g>
        <svg viewBox="0 0 15 15" width="100%" height="30px" preserveAspectRatio="xMaxYMin meet">
         <g id="arrow_out" transform="scale(0.3 0.3)">
          <a xlink:href="quickjs_8c_a12e173fe76ae1141ef47318f9d0cbea7_cgraph_org.svg" target="_base">
           <rect id="button" ry="5" rx="5" y="6" x="6" height="38" width="38"
                fill="#f2f5e9" fill-opacity="0.5" stroke="#606060" stroke-width="1.0"/>
           <path id="arrow"
             d="M 11.500037,31.436501 C 11.940474,20.09759 22.043105,11.32322 32.158766,21.979434 L 37.068811,17.246167 C 37.068811,17.246167 37.088388,32 37.088388,32 L 22.160133,31.978069 C 22.160133,31.978069 26.997745,27.140456 26.997745,27.140456 C 18.528582,18.264221 13.291696,25.230495 11.500037,31.436501 z"
             style="fill:#404040;"/>
          </a>
         </g>
        </svg>
</svg>
