<?xml version="1.0" encoding="UTF-8" standalone="no"?>
<!DOCTYPE svg PUBLIC "-//W3C//DTD SVG 1.1//EN"
 "http://www.w3.org/Graphics/SVG/1.1/DTD/svg11.dtd">
<!-- Generated by graphviz version 2.43.0 (0)
 -->
<!-- Title: js_free_desc Pages: 1 -->
<svg width="991pt" height="690pt"
 viewBox="0.00 0.00 991.00 689.50" xmlns="http://www.w3.org/2000/svg" xmlns:xlink="http://www.w3.org/1999/xlink">
<g id="graph0" class="graph" transform="scale(1 1) rotate(0) translate(4 685.5)">
<title>js_free_desc</title>
<!-- Node1 -->
<g id="node1" class="node">
<title>Node1</title>
<g id="a_node1"><a xlink:title=" ">
<polygon fill="#bfbfbf" stroke="black" points="906,-297.5 906,-316.5 983,-316.5 983,-297.5 906,-297.5"/>
<text text-anchor="middle" x="944.5" y="-304.5" font-family="Helvetica,sans-Serif" font-size="10.00">js_free_desc</text>
</a>
</g>
</g>
<!-- Node2 -->
<g id="node2" class="node">
<title>Node2</title>
<g id="a_node2"><a xlink:href="quickjs_8c.html#a3b754d750c7f3123e85f4a2e748de023" target="_top" xlink:title=" ">
<polygon fill="none" stroke="black" points="511,-430.5 511,-449.5 639,-449.5 639,-430.5 511,-430.5"/>
<text text-anchor="middle" x="575" y="-437.5" font-family="Helvetica,sans-Serif" font-size="10.00">JS_CopyDataProperties</text>
</a>
</g>
</g>
<!-- Node1&#45;&gt;Node2 -->
<g id="edge1" class="edge">
<title>Node1&#45;&gt;Node2</title>
<path fill="none" stroke="midnightblue" d="M936.59,-326.39C926.38,-351.86 904.64,-395.72 870,-416 798.07,-458.1 698.77,-456.37 635.98,-449.52"/>
<polygon fill="midnightblue" stroke="midnightblue" points="939.98,-327.31 940.26,-316.72 933.44,-324.83 939.98,-327.31"/>
</g>
<!-- Node226 -->
<g id="node8" class="node">
<title>Node226</title>
<g id="a_node8"><a xlink:href="quickjs_8c.html#a7e5b77a4851eee6f666581d051979392" target="_top" xlink:title=" ">
<polygon fill="none" stroke="black" points="16,-651 16,-681 135,-681 135,-651 16,-651"/>
<text text-anchor="start" x="24" y="-669" font-family="Helvetica,sans-Serif" font-size="10.00">js_proxy_define_own</text>
<text text-anchor="middle" x="75.5" y="-658" font-family="Helvetica,sans-Serif" font-size="10.00">_property</text>
</a>
</g>
</g>
<!-- Node1&#45;&gt;Node226 -->
<g id="edge32" class="edge">
<title>Node1&#45;&gt;Node226</title>
<path fill="none" stroke="midnightblue" d="M941.53,-326.79C935,-388.07 912.13,-572.95 870,-613 773.65,-704.58 708.93,-668 576,-668 576,-668 576,-668 413.5,-668 315.94,-668 202.49,-667.15 135.25,-666.56"/>
<polygon fill="midnightblue" stroke="midnightblue" points="945.04,-326.86 942.58,-316.56 938.07,-326.14 945.04,-326.86"/>
</g>
<!-- Node305 -->
<g id="node9" class="node">
<title>Node305</title>
<g id="a_node9"><a xlink:href="quickjs_8c.html#acffb121a8a0ee2b735f60c1db01e79e7" target="_top" xlink:title=" ">
<polygon fill="none" stroke="black" points="5.5,-608.5 5.5,-627.5 145.5,-627.5 145.5,-608.5 5.5,-608.5"/>
<text text-anchor="middle" x="75.5" y="-615.5" font-family="Helvetica,sans-Serif" font-size="10.00">js_proxy_delete_property</text>
</a>
</g>
</g>
<!-- Node1&#45;&gt;Node305 -->
<g id="edge33" class="edge">
<title>Node1&#45;&gt;Node305</title>
<path fill="none" stroke="midnightblue" d="M944.2,-326.78C944.75,-375.11 939.05,-499.97 870,-565 772.58,-656.75 709.82,-630 576,-630 576,-630 576,-630 413.5,-630 320.71,-630 213.63,-625.4 145.53,-621.9"/>
<polygon fill="midnightblue" stroke="midnightblue" points="947.7,-326.62 943.97,-316.7 940.7,-326.78 947.7,-326.62"/>
</g>
<!-- Node393 -->
<g id="node10" class="node">
<title>Node393</title>
<g id="a_node10"><a xlink:href="quickjs_8c.html#a45df491949e8e055e732eb13c446d47b" target="_top" xlink:title=" ">
<polygon fill="none" stroke="black" points="36,-562.5 36,-581.5 115,-581.5 115,-562.5 36,-562.5"/>
<text text-anchor="middle" x="75.5" y="-569.5" font-family="Helvetica,sans-Serif" font-size="10.00">js_proxy_get</text>
</a>
</g>
</g>
<!-- Node1&#45;&gt;Node393 -->
<g id="edge34" class="edge">
<title>Node1&#45;&gt;Node393</title>
<path fill="none" stroke="midnightblue" d="M942.23,-326.78C938.54,-367.42 924.29,-460.74 870,-511 770.55,-603.08 711.54,-592 576,-592 576,-592 576,-592 413.5,-592 305.22,-592 177.71,-581.58 115.12,-575.79"/>
<polygon fill="midnightblue" stroke="midnightblue" points="945.72,-327.03 943.02,-316.79 938.74,-326.49 945.72,-327.03"/>
</g>
<!-- Node388 -->
<g id="node11" class="node">
<title>Node388</title>
<g id="a_node11"><a xlink:href="quickjs_8c.html#ab9c2e9c8dab72f3c057efe4ffcced332" target="_top" xlink:title=" ">
<polygon fill="none" stroke="black" points="0,-508.5 0,-527.5 151,-527.5 151,-508.5 0,-508.5"/>
<text text-anchor="middle" x="75.5" y="-515.5" font-family="Helvetica,sans-Serif" font-size="10.00">js_proxy_get_own_property</text>
</a>
</g>
</g>
<!-- Node1&#45;&gt;Node388 -->
<g id="edge35" class="edge">
<title>Node1&#45;&gt;Node388</title>
<path fill="none" stroke="midnightblue" d="M938.33,-326.52C929.36,-356.7 908.14,-414.67 870,-448 765.41,-539.4 714.9,-554 576,-554 576,-554 576,-554 413.5,-554 313.62,-554 198.02,-538.17 131.47,-527.51"/>
<polygon fill="midnightblue" stroke="midnightblue" points="941.74,-327.33 941.08,-316.75 935,-325.43 941.74,-327.33"/>
</g>
<!-- Node353 -->
<g id="node12" class="node">
<title>Node353</title>
<g id="a_node12"><a xlink:href="quickjs_8c.html#a438b354d69a8f0674195b0cdc19dd686" target="_top" xlink:title=" ">
<polygon fill="none" stroke="black" points="0,-311 0,-341 151,-341 151,-311 0,-311"/>
<text text-anchor="start" x="8" y="-329" font-family="Helvetica,sans-Serif" font-size="10.00">js_proxy_get_own_property</text>
<text text-anchor="middle" x="75.5" y="-318" font-family="Helvetica,sans-Serif" font-size="10.00">_names</text>
</a>
</g>
</g>
<!-- Node1&#45;&gt;Node353 -->
<g id="edge36" class="edge">
<title>Node1&#45;&gt;Node353</title>
<path fill="none" stroke="midnightblue" d="M923.84,-291.26C909.68,-280.76 889.68,-267.53 870,-260 746.34,-212.69 708.4,-212 576,-212 576,-212 576,-212 413.5,-212 291.52,-212 157.17,-279.85 102.14,-310.86"/>
<polygon fill="midnightblue" stroke="midnightblue" points="921.77,-294.09 931.84,-297.38 926.02,-288.53 921.77,-294.09"/>
</g>
<!-- Node390 -->
<g id="node13" class="node">
<title>Node390</title>
<g id="a_node13"><a xlink:href="quickjs_8c.html#a1bddfeab11a7cfee6bd88781073b5972" target="_top" xlink:title=" ">
<polygon fill="none" stroke="black" points="35.5,-416.5 35.5,-435.5 115.5,-435.5 115.5,-416.5 35.5,-416.5"/>
<text text-anchor="middle" x="75.5" y="-423.5" font-family="Helvetica,sans-Serif" font-size="10.00">js_proxy_has</text>
</a>
</g>
</g>
<!-- Node1&#45;&gt;Node390 -->
<g id="edge37" class="edge">
<title>Node1&#45;&gt;Node390</title>
<path fill="none" stroke="midnightblue" d="M929.62,-324.35C916.19,-339.69 894.34,-361.12 870,-371 779.68,-407.66 748.44,-380.33 651,-383 651,-383 187,-383 187,-383 153.21,-389.34 116.48,-405.71 95.03,-416.32"/>
<polygon fill="midnightblue" stroke="midnightblue" points="932.41,-326.46 936.17,-316.56 927.05,-321.96 932.41,-326.46"/>
</g>
<!-- Node126 -->
<g id="node14" class="node">
<title>Node126</title>
<g id="a_node14"><a xlink:href="quickjs_8c.html#ad38b16d301e8f3661cf4c115c86511b3" target="_top" xlink:title=" ">
<polygon fill="none" stroke="black" points="36.5,-218.5 36.5,-237.5 114.5,-237.5 114.5,-218.5 36.5,-218.5"/>
<text text-anchor="middle" x="75.5" y="-225.5" font-family="Helvetica,sans-Serif" font-size="10.00">js_proxy_set</text>
</a>
</g>
</g>
<!-- Node1&#45;&gt;Node126 -->
<g id="edge38" class="edge">
<title>Node1&#45;&gt;Node126</title>
<path fill="none" stroke="midnightblue" d="M934.83,-288.12C923.42,-265.63 901.1,-228.86 870,-211 755.79,-145.42 707.7,-174 576,-174 576,-174 576,-174 413.5,-174 302.4,-174 173.26,-202.97 112.11,-218.47"/>
<polygon fill="midnightblue" stroke="midnightblue" points="931.79,-289.86 939.3,-297.33 938.09,-286.81 931.79,-289.86"/>
</g>
<!-- Node164 -->
<g id="node16" class="node">
<title>Node164</title>
<g id="a_node16"><a xlink:href="quickjs_8c.html#af40540b5f7e973f44e4e89d87938bfc6" target="_top" xlink:title=" ">
<polygon fill="none" stroke="red" points="714.5,-126.5 714.5,-145.5 842.5,-145.5 842.5,-126.5 714.5,-126.5"/>
<text text-anchor="middle" x="778.5" y="-133.5" font-family="Helvetica,sans-Serif" font-size="10.00">JS_DefinePropertyDesc</text>
</a>
</g>
</g>
<!-- Node1&#45;&gt;Node164 -->
<g id="edge19" class="edge">
<title>Node1&#45;&gt;Node164</title>
<path fill="none" stroke="midnightblue" d="M939.26,-287.58C931.32,-255.96 911.17,-193.51 870,-160 862.06,-153.54 852.54,-148.8 842.71,-145.33"/>
<polygon fill="midnightblue" stroke="midnightblue" points="935.87,-288.46 941.57,-297.39 942.68,-286.85 935.87,-288.46"/>
</g>
<!-- Node247 -->
<g id="node17" class="node">
<title>Node247</title>
<g id="a_node17"><a xlink:href="quickjs_8c.html#a79c9d633e8f9d5fd70546406b9e6f176" target="_top" xlink:title=" ">
<polygon fill="none" stroke="red" points="499,-354.5 499,-373.5 651,-373.5 651,-354.5 499,-354.5"/>
<text text-anchor="middle" x="575" y="-361.5" font-family="Helvetica,sans-Serif" font-size="10.00">JS_GetOwnPropertyNames2</text>
</a>
</g>
</g>
<!-- Node1&#45;&gt;Node247 -->
<g id="edge20" class="edge">
<title>Node1&#45;&gt;Node247</title>
<path fill="none" stroke="midnightblue" d="M920.42,-322.08C906.43,-330.4 887.88,-340.03 870,-345 797.55,-365.12 711.37,-368.4 651.11,-367.54"/>
<polygon fill="midnightblue" stroke="midnightblue" points="922.64,-324.83 929.32,-316.6 918.97,-318.87 922.64,-324.83"/>
</g>
<!-- Node380 -->
<g id="node18" class="node">
<title>Node380</title>
<g id="a_node18"><a xlink:href="quickjs_8c.html#a176ac5ff56a118a0b1b2566798d28823" target="_top" xlink:title=" ">
<polygon fill="none" stroke="red" points="687,-316.5 687,-335.5 870,-335.5 870,-316.5 687,-316.5"/>
<text text-anchor="middle" x="778.5" y="-323.5" font-family="Helvetica,sans-Serif" font-size="10.00">JS_GetOwnPropertyNamesInternal</text>
</a>
</g>
</g>
<!-- Node1&#45;&gt;Node380 -->
<g id="edge21" class="edge">
<title>Node1&#45;&gt;Node380</title>
<path fill="none" stroke="midnightblue" d="M895.9,-312.51C885.15,-313.76 873.44,-315.12 861.73,-316.47"/>
<polygon fill="midnightblue" stroke="midnightblue" points="896.34,-315.99 905.88,-311.36 895.54,-309.03 896.34,-315.99"/>
</g>
<!-- Node382 -->
<g id="node19" class="node">
<title>Node382</title>
<g id="a_node19"><a xlink:href="quickjs_8c.html#a43a4ecde0329def8ff22e9341c7b109d" target="_top" xlink:title=" ">
<polygon fill="none" stroke="black" points="521.5,-278.5 521.5,-297.5 628.5,-297.5 628.5,-278.5 521.5,-278.5"/>
<text text-anchor="middle" x="575" y="-285.5" font-family="Helvetica,sans-Serif" font-size="10.00">js_object_isSealed</text>
</a>
</g>
</g>
<!-- Node1&#45;&gt;Node382 -->
<g id="edge29" class="edge">
<title>Node1&#45;&gt;Node382</title>
<path fill="none" stroke="midnightblue" d="M895.76,-304.53C826.87,-300.97 700.03,-294.41 628.55,-290.72"/>
<polygon fill="midnightblue" stroke="midnightblue" points="895.73,-308.03 905.9,-305.06 896.09,-301.04 895.73,-308.03"/>
</g>
<!-- Node321 -->
<g id="node20" class="node">
<title>Node321</title>
<g id="a_node20"><a xlink:href="quickjs_8c.html#a3b1f61e0c2e39eb52d8b1c5c8713873e" target="_top" xlink:title=" ">
<polygon fill="none" stroke="red" points="532,-240.5 532,-259.5 618,-259.5 618,-240.5 532,-240.5"/>
<text text-anchor="middle" x="575" y="-247.5" font-family="Helvetica,sans-Serif" font-size="10.00">js_object_seal</text>
</a>
</g>
</g>
<!-- Node1&#45;&gt;Node321 -->
<g id="edge31" class="edge">
<title>Node1&#45;&gt;Node321</title>
<path fill="none" stroke="midnightblue" d="M895.92,-296.09C887.32,-294.28 878.41,-292.5 870,-291 780.71,-275.08 675.23,-261.67 618.03,-254.84"/>
<polygon fill="midnightblue" stroke="midnightblue" points="895.33,-299.54 905.84,-298.23 896.8,-292.7 895.33,-299.54"/>
</g>
<!-- Node308 -->
<g id="node21" class="node">
<title>Node308</title>
<g id="a_node21"><a xlink:href="quickjs_8c.html#a26abea9136a3d8e9a861aefb51626b4e" target="_top" xlink:title=" ">
<polygon fill="none" stroke="black" points="704,-88.5 704,-107.5 853,-107.5 853,-88.5 704,-88.5"/>
<text text-anchor="middle" x="778.5" y="-95.5" font-family="Helvetica,sans-Serif" font-size="10.00">js_object___lookupGetter__</text>
</a>
</g>
</g>
<!-- Node1&#45;&gt;Node308 -->
<g id="edge27" class="edge">
<title>Node1&#45;&gt;Node308</title>
<path fill="none" stroke="midnightblue" d="M941.91,-287.25C937.66,-248.32 922.5,-161.61 870,-117 864.98,-112.74 859.25,-109.35 853.17,-106.68"/>
<polygon fill="midnightblue" stroke="midnightblue" points="938.43,-287.67 942.87,-297.29 945.4,-287 938.43,-287.67"/>
</g>
<!-- Node283 -->
<g id="node22" class="node">
<title>Node283</title>
<g id="a_node22"><a xlink:href="quickjs_8c.html#a5f75fb513884286c86db6863663f262a" target="_top" xlink:title=" ">
<polygon fill="none" stroke="red" points="706.5,-39 706.5,-69 850.5,-69 850.5,-39 706.5,-39"/>
<text text-anchor="start" x="714.5" y="-57" font-family="Helvetica,sans-Serif" font-size="10.00">js_object_getOwnProperty</text>
<text text-anchor="middle" x="778.5" y="-46" font-family="Helvetica,sans-Serif" font-size="10.00">Descriptor</text>
</a>
</g>
</g>
<!-- Node1&#45;&gt;Node283 -->
<g id="edge28" class="edge">
<title>Node1&#45;&gt;Node283</title>
<path fill="none" stroke="midnightblue" d="M943.1,-287.06C941.09,-242.94 929.93,-136.45 870,-79 864.47,-73.7 857.92,-69.5 850.91,-66.18"/>
<polygon fill="midnightblue" stroke="midnightblue" points="939.6,-287.21 943.44,-297.09 946.6,-286.97 939.6,-287.21"/>
</g>
<!-- Node314 -->
<g id="node23" class="node">
<title>Node314</title>
<g id="a_node23"><a xlink:href="quickjs_8c.html#acc70b8dea6a26f839c651835b7104c92" target="_top" xlink:title=" ">
<polygon fill="none" stroke="black" points="692,-0.5 692,-19.5 865,-19.5 865,-0.5 692,-0.5"/>
<text text-anchor="middle" x="778.5" y="-7.5" font-family="Helvetica,sans-Serif" font-size="10.00">js_object_propertyIsEnumerable</text>
</a>
</g>
</g>
<!-- Node1&#45;&gt;Node314 -->
<g id="edge30" class="edge">
<title>Node1&#45;&gt;Node314</title>
<path fill="none" stroke="midnightblue" d="M940.97,-287.2C933.24,-229.82 908.1,-65.18 870,-29 866.04,-25.24 861.54,-22.15 856.71,-19.6"/>
<polygon fill="midnightblue" stroke="midnightblue" points="937.54,-288 942.32,-297.46 944.49,-287.09 937.54,-288"/>
</g>
<!-- Node3 -->
<g id="node3" class="node">
<title>Node3</title>
<g id="a_node3"><a xlink:href="quickjs_8c.html#ac2894ff4edcdb4e6841bcce9c76081e3" target="_top" xlink:title=" ">
<polygon fill="none" stroke="black" points="371,-430.5 371,-449.5 458,-449.5 458,-430.5 371,-430.5"/>
<text text-anchor="middle" x="414.5" y="-437.5" font-family="Helvetica,sans-Serif" font-size="10.00">JS_CallInternal</text>
</a>
</g>
</g>
<!-- Node2&#45;&gt;Node3 -->
<g id="edge2" class="edge">
<title>Node2&#45;&gt;Node3</title>
<path fill="none" stroke="midnightblue" d="M500.48,-440C486.07,-440 471.41,-440 458.42,-440"/>
<polygon fill="midnightblue" stroke="midnightblue" points="500.9,-443.5 510.9,-440 500.9,-436.5 500.9,-443.5"/>
</g>
<!-- Node309 -->
<g id="node15" class="node">
<title>Node309</title>
<g id="a_node15"><a xlink:href="quickjs_8c.html#ae69502aeeec991fb0bf5a9657aaa7453" target="_top" xlink:title=" ">
<polygon fill="none" stroke="black" points="366,-392.5 366,-411.5 463,-411.5 463,-392.5 366,-392.5"/>
<text text-anchor="middle" x="414.5" y="-399.5" font-family="Helvetica,sans-Serif" font-size="10.00">js_object_assign</text>
</a>
</g>
</g>
<!-- Node2&#45;&gt;Node309 -->
<g id="edge18" class="edge">
<title>Node2&#45;&gt;Node309</title>
<path fill="none" stroke="midnightblue" d="M524.08,-428.03C501.87,-422.71 476.08,-416.52 455.21,-411.52"/>
<polygon fill="midnightblue" stroke="midnightblue" points="523.46,-431.48 534,-430.41 525.1,-424.68 523.46,-431.48"/>
</g>
<!-- Node3&#45;&gt;Node3 -->
<g id="edge17" class="edge">
<title>Node3&#45;&gt;Node3</title>
<path fill="none" stroke="midnightblue" d="M443.62,-458.65C442.4,-463.94 432.7,-468 414.5,-468 386.77,-468 378.76,-458.57 390.46,-449.76"/>
<polygon fill="midnightblue" stroke="midnightblue" points="446.54,-456.71 438.54,-449.76 440.46,-460.18 446.54,-456.71"/>
</g>
<!-- Node4 -->
<g id="node4" class="node">
<title>Node4</title>
<g id="a_node4"><a xlink:href="quickjs_8c.html#ade71a22dc56e7371392393df663b28b3" target="_top" xlink:title=" ">
<polygon fill="none" stroke="red" points="202,-468.5 202,-487.5 315,-487.5 315,-468.5 202,-468.5"/>
<text text-anchor="middle" x="258.5" y="-475.5" font-family="Helvetica,sans-Serif" font-size="10.00">async_func_resume</text>
</a>
</g>
</g>
<!-- Node3&#45;&gt;Node4 -->
<g id="edge3" class="edge">
<title>Node3&#45;&gt;Node4</title>
<path fill="none" stroke="midnightblue" d="M364.71,-452.04C343.19,-457.35 318.27,-463.5 298.08,-468.48"/>
<polygon fill="midnightblue" stroke="midnightblue" points="365.77,-455.38 374.64,-449.59 364.09,-448.59 365.77,-455.38"/>
</g>
<!-- Node23 -->
<g id="node5" class="node">
<title>Node23</title>
<g id="a_node5"><a xlink:href="quickjs_8c.html#a1a4c02a29525d5cb2085dd8bca3af350" target="_top" xlink:title=" ">
<polygon fill="none" stroke="red" points="233.5,-430.5 233.5,-449.5 283.5,-449.5 283.5,-430.5 233.5,-430.5"/>
<text text-anchor="middle" x="258.5" y="-437.5" font-family="Helvetica,sans-Serif" font-size="10.00">JS_Call</text>
</a>
</g>
</g>
<!-- Node3&#45;&gt;Node23 -->
<g id="edge4" class="edge">
<title>Node3&#45;&gt;Node23</title>
<path fill="none" stroke="midnightblue" d="M360.43,-433.55C334.28,-432.88 304.03,-433.34 283.51,-434.94"/>
<polygon fill="midnightblue" stroke="midnightblue" points="360.49,-437.05 370.6,-433.88 360.72,-430.06 360.49,-437.05"/>
</g>
<!-- Node109 -->
<g id="node6" class="node">
<title>Node109</title>
<g id="a_node6"><a xlink:href="quickjs_8c.html#ad35594576a14c10812efaf958c99af8a" target="_top" xlink:title=" ">
<polygon fill="none" stroke="red" points="187,-392.5 187,-411.5 330,-411.5 330,-392.5 187,-392.5"/>
<text text-anchor="middle" x="258.5" y="-399.5" font-family="Helvetica,sans-Serif" font-size="10.00">JS_CallConstructorInternal</text>
</a>
</g>
</g>
<!-- Node3&#45;&gt;Node109 -->
<g id="edge6" class="edge">
<title>Node3&#45;&gt;Node109</title>
<path fill="none" stroke="midnightblue" d="M383.98,-427.27C367.31,-422.09 345.76,-416.36 325.29,-411.55"/>
<polygon fill="midnightblue" stroke="midnightblue" points="383.09,-430.66 393.68,-430.41 385.25,-424 383.09,-430.66"/>
</g>
<!-- Node123 -->
<g id="node7" class="node">
<title>Node123</title>
<g id="a_node7"><a xlink:href="quickjs_8c.html#a75f6ee5e4235a7dc99889f3d2eb2c147" target="_top" xlink:title=" ">
<polygon fill="none" stroke="red" points="223,-506.5 223,-525.5 294,-525.5 294,-506.5 223,-506.5"/>
<text text-anchor="middle" x="258.5" y="-513.5" font-family="Helvetica,sans-Serif" font-size="10.00">JS_CallFree</text>
</a>
</g>
</g>
<!-- Node3&#45;&gt;Node123 -->
<g id="edge8" class="edge">
<title>Node3&#45;&gt;Node123</title>
<path fill="none" stroke="midnightblue" d="M384.19,-455.55C368.8,-466.04 349.2,-479.17 330,-488 311.92,-496.32 289.5,-501.58 274.86,-506.48"/>
<polygon fill="midnightblue" stroke="midnightblue" points="386.43,-458.25 392.72,-449.72 382.49,-452.47 386.43,-458.25"/>
</g>
<!-- Node23&#45;&gt;Node3 -->
<g id="edge5" class="edge">
<title>Node23&#45;&gt;Node3</title>
<path fill="none" stroke="midnightblue" d="M293.69,-445.72C316.38,-446.94 346.32,-447.08 370.6,-446.12"/>
<polygon fill="midnightblue" stroke="midnightblue" points="293.72,-442.22 283.51,-445.06 293.27,-449.2 293.72,-442.22"/>
</g>
<!-- Node109&#45;&gt;Node3 -->
<g id="edge7" class="edge">
<title>Node109&#45;&gt;Node3</title>
<path fill="none" stroke="midnightblue" d="M288.85,-414.68C311.98,-421.87 344.55,-430.13 370.6,-435.54"/>
<polygon fill="midnightblue" stroke="midnightblue" points="289.85,-411.32 279.26,-411.57 287.69,-417.98 289.85,-411.32"/>
</g>
<!-- Node123&#45;&gt;Node3 -->
<g id="edge9" class="edge">
<title>Node123&#45;&gt;Node3</title>
<path fill="none" stroke="midnightblue" d="M303.85,-515.29C312.71,-512.92 321.8,-509.77 330,-506 361.89,-491.33 394.92,-464.79 407.84,-449.59"/>
<polygon fill="midnightblue" stroke="midnightblue" points="302.93,-511.92 294.02,-517.65 304.56,-518.72 302.93,-511.92"/>
</g>
<!-- Node123&#45;&gt;Node226 -->
<g id="edge10" class="edge">
<title>Node123&#45;&gt;Node226</title>
<path fill="none" stroke="midnightblue" d="M245.8,-534.07C228.13,-560.09 192.26,-608.15 151,-637 143.15,-642.49 134.12,-647.12 125.12,-650.97"/>
<polygon fill="midnightblue" stroke="midnightblue" points="248.84,-535.82 251.47,-525.56 243.01,-531.94 248.84,-535.82"/>
</g>
<!-- Node123&#45;&gt;Node305 -->
<g id="edge11" class="edge">
<title>Node123&#45;&gt;Node305</title>
<path fill="none" stroke="midnightblue" d="M238.06,-532.1C217.45,-548.57 183.46,-574.08 151,-591 137.58,-598 121.94,-603.97 108.46,-608.5"/>
<polygon fill="midnightblue" stroke="midnightblue" points="240.46,-534.66 246.03,-525.64 236.05,-529.22 240.46,-534.66"/>
</g>
<!-- Node123&#45;&gt;Node393 -->
<g id="edge12" class="edge">
<title>Node123&#45;&gt;Node393</title>
<path fill="none" stroke="midnightblue" d="M216.53,-528.68C183.33,-538.95 137.29,-553.19 107.21,-562.5"/>
<polygon fill="midnightblue" stroke="midnightblue" points="217.87,-531.93 226.38,-525.63 215.8,-525.24 217.87,-531.93"/>
</g>
<!-- Node123&#45;&gt;Node388 -->
<g id="edge13" class="edge">
<title>Node123&#45;&gt;Node388</title>
<path fill="none" stroke="midnightblue" d="M212.39,-516.5C193.83,-516.7 171.83,-516.95 151,-517.18"/>
<polygon fill="midnightblue" stroke="midnightblue" points="212.64,-520 222.6,-516.39 212.56,-513 212.64,-520"/>
</g>
<!-- Node123&#45;&gt;Node353 -->
<g id="edge14" class="edge">
<title>Node123&#45;&gt;Node353</title>
<path fill="none" stroke="midnightblue" d="M213.07,-510.66C203.62,-507.81 194.31,-503.5 187,-497 154.8,-468.37 173.96,-443.45 151,-407 134.81,-381.29 109.99,-356.27 93.51,-341"/>
<polygon fill="midnightblue" stroke="midnightblue" points="212.32,-514.08 222.87,-513.12 214.03,-507.29 212.32,-514.08"/>
</g>
<!-- Node123&#45;&gt;Node390 -->
<g id="edge15" class="edge">
<title>Node123&#45;&gt;Node390</title>
<path fill="none" stroke="midnightblue" d="M212.96,-506.23C204.18,-503.69 195.17,-500.62 187,-497 148.64,-480 108.34,-450.76 88.7,-435.66"/>
<polygon fill="midnightblue" stroke="midnightblue" points="212.14,-509.63 222.7,-508.88 213.97,-502.88 212.14,-509.63"/>
</g>
<!-- Node123&#45;&gt;Node126 -->
<g id="edge16" class="edge">
<title>Node123&#45;&gt;Node126</title>
<path fill="none" stroke="midnightblue" d="M213.19,-512.01C203.39,-509.14 193.89,-504.48 187,-497 126.98,-431.87 192.57,-379.2 151,-301 136.38,-273.5 107.78,-250 90.58,-237.54"/>
<polygon fill="midnightblue" stroke="midnightblue" points="212.46,-515.43 222.99,-514.32 214.06,-508.62 212.46,-515.43"/>
</g>
<!-- Node380&#45;&gt;Node2 -->
<g id="edge22" class="edge">
<title>Node380&#45;&gt;Node2</title>
<path fill="none" stroke="midnightblue" d="M751.9,-340.48C710.1,-364.13 628.27,-410.43 592.93,-430.42"/>
<polygon fill="midnightblue" stroke="midnightblue" points="753.69,-343.49 760.67,-335.52 750.24,-337.4 753.69,-343.49"/>
</g>
<!-- Node380&#45;&gt;Node353 -->
<g id="edge26" class="edge">
<title>Node380&#45;&gt;Node353</title>
<path fill="none" stroke="midnightblue" d="M676.89,-326C534.53,-326 277.59,-326 151.05,-326"/>
<polygon fill="midnightblue" stroke="midnightblue" points="676.93,-329.5 686.93,-326 676.93,-322.5 676.93,-329.5"/>
</g>
<!-- Node380&#45;&gt;Node247 -->
<g id="edge23" class="edge">
<title>Node380&#45;&gt;Node247</title>
<path fill="none" stroke="midnightblue" d="M716.95,-337.42C688.12,-342.86 654.04,-349.28 626.61,-354.46"/>
<polygon fill="midnightblue" stroke="midnightblue" points="717.73,-340.83 726.91,-335.54 716.44,-333.95 717.73,-340.83"/>
</g>
<!-- Node380&#45;&gt;Node382 -->
<g id="edge24" class="edge">
<title>Node380&#45;&gt;Node382</title>
<path fill="none" stroke="midnightblue" d="M716.95,-314.58C688.12,-309.14 654.04,-302.72 626.61,-297.54"/>
<polygon fill="midnightblue" stroke="midnightblue" points="716.44,-318.05 726.91,-316.46 717.73,-311.17 716.44,-318.05"/>
</g>
<!-- Node380&#45;&gt;Node321 -->
<g id="edge25" class="edge">
<title>Node380&#45;&gt;Node321</title>
<path fill="none" stroke="midnightblue" d="M750.08,-311.96C724.83,-299.43 686.09,-281.24 651,-269 640.47,-265.33 628.89,-262.04 618.04,-259.27"/>
<polygon fill="midnightblue" stroke="midnightblue" points="748.55,-315.1 759.06,-316.45 751.68,-308.84 748.55,-315.1"/>
</g>
</g>
</svg>
