<?xml version="1.0" encoding="UTF-8" standalone="no"?>
<!DOCTYPE svg PUBLIC "-//W3C//DTD SVG 1.1//EN"
 "http://www.w3.org/Graphics/SVG/1.1/DTD/svg11.dtd">
<!-- Generated by graphviz version 2.43.0 (0)
 -->
<!-- Title: JS_Call Pages: 1 -->
<svg width="535pt" height="1054pt"
 viewBox="0.00 0.00 535.00 1053.72" xmlns="http://www.w3.org/2000/svg" xmlns:xlink="http://www.w3.org/1999/xlink">
<g id="graph0" class="graph" transform="scale(1 1) rotate(0) translate(4 1049.72)">
<title>JS_Call</title>
<!-- Node1 -->
<g id="node1" class="node">
<title>Node1</title>
<g id="a_node1"><a xlink:title=" ">
<polygon fill="#bfbfbf" stroke="black" points="0,-475.5 0,-494.5 50,-494.5 50,-475.5 0,-475.5"/>
<text text-anchor="middle" x="25" y="-482.5" font-family="Helvetica,sans-Serif" font-size="10.00">JS_Call</text>
</a>
</g>
</g>
<!-- Node2 -->
<g id="node2" class="node">
<title>Node2</title>
<g id="a_node2"><a xlink:href="quickjs_8c.html#ac2894ff4edcdb4e6841bcce9c76081e3" target="_top" xlink:title=" ">
<polygon fill="none" stroke="red" points="86,-475.5 86,-494.5 173,-494.5 173,-475.5 86,-475.5"/>
<text text-anchor="middle" x="129.5" y="-482.5" font-family="Helvetica,sans-Serif" font-size="10.00">JS_CallInternal</text>
</a>
</g>
</g>
<!-- Node1&#45;&gt;Node2 -->
<g id="edge1" class="edge">
<title>Node1&#45;&gt;Node2</title>
<path fill="none" stroke="midnightblue" d="M50.03,-479.18C57.77,-478.59 66.68,-478.29 75.65,-478.25"/>
<polygon fill="midnightblue" stroke="midnightblue" points="75.72,-481.75 85.74,-478.33 75.77,-474.75 75.72,-481.75"/>
</g>
<!-- Node2&#45;&gt;Node1 -->
<g id="edge37" class="edge">
<title>Node2&#45;&gt;Node1</title>
<path fill="none" stroke="midnightblue" d="M85.74,-491.67C77.16,-491.84 68.26,-491.75 60.03,-491.4"/>
<polygon fill="midnightblue" stroke="midnightblue" points="60.22,-487.9 50.03,-490.82 59.81,-494.89 60.22,-487.9"/>
</g>
<!-- Node2&#45;&gt;Node2 -->
<g id="edge42" class="edge">
<title>Node2&#45;&gt;Node2</title>
<path fill="none" stroke="midnightblue" d="M113.47,-494.76C105.67,-503.57 111.02,-513 129.5,-513 141.05,-513 147.47,-509.31 148.76,-504.4"/>
<polygon fill="midnightblue" stroke="midnightblue" points="152.02,-503.13 145.53,-494.76 145.39,-505.35 152.02,-503.13"/>
</g>
<!-- Node3 -->
<g id="node3" class="node">
<title>Node3</title>
<g id="a_node3"><a xlink:href="quickjs_8c.html#a853f0924d441ea4225488f37c8b69f9a" target="_top" xlink:title=" ">
<polygon fill="none" stroke="black" points="424.5,-988.5 424.5,-1007.5 504.5,-1007.5 504.5,-988.5 424.5,-988.5"/>
<text text-anchor="middle" x="464.5" y="-995.5" font-family="Helvetica,sans-Serif" font-size="10.00">__attribute__</text>
</a>
</g>
</g>
<!-- Node2&#45;&gt;Node3 -->
<g id="edge2" class="edge">
<title>Node2&#45;&gt;Node3</title>
<path fill="none" stroke="midnightblue" d="M130.31,-494.53C129.2,-560.24 126.32,-945.62 209,-1017 273.12,-1072.35 383.4,-1034.43 435.14,-1011.68"/>
<polygon fill="midnightblue" stroke="midnightblue" points="436.72,-1014.81 444.39,-1007.5 433.84,-1008.43 436.72,-1014.81"/>
</g>
<!-- Node4 -->
<g id="node4" class="node">
<title>Node4</title>
<g id="a_node4"><a xlink:href="quickjs_8c.html#a877fcb7651d95b411ce70e62b7f4a1f0" target="_top" xlink:title=" ">
<polygon fill="none" stroke="black" points="402,-741.5 402,-760.5 527,-760.5 527,-741.5 402,-741.5"/>
<text text-anchor="middle" x="464.5" y="-748.5" font-family="Helvetica,sans-Serif" font-size="10.00">__JS_AtomFromUInt32</text>
</a>
</g>
</g>
<!-- Node2&#45;&gt;Node4 -->
<g id="edge3" class="edge">
<title>Node2&#45;&gt;Node4</title>
<path fill="none" stroke="midnightblue" d="M131.16,-494.83C134.85,-546.26 154.68,-783.73 209,-827 263.58,-870.47 300.01,-849.68 366,-827 399.77,-815.39 430.83,-786.77 448.43,-768.15"/>
<polygon fill="midnightblue" stroke="midnightblue" points="451.15,-770.37 455.33,-760.63 445.99,-765.64 451.15,-770.37"/>
</g>
<!-- Node5 -->
<g id="node5" class="node">
<title>Node5</title>
<g id="a_node5"><a xlink:href="quickjs_8h.html#a9bf98b18de88b4199910a43e933eb97d" target="_top" xlink:title=" ">
<polygon fill="none" stroke="black" points="237.5,-950.5 237.5,-969.5 337.5,-969.5 337.5,-950.5 237.5,-950.5"/>
<text text-anchor="middle" x="287.5" y="-957.5" font-family="Helvetica,sans-Serif" font-size="10.00">__JS_NewFloat64</text>
</a>
</g>
</g>
<!-- Node2&#45;&gt;Node5 -->
<g id="edge4" class="edge">
<title>Node2&#45;&gt;Node5</title>
<path fill="none" stroke="midnightblue" d="M130.78,-494.86C132.67,-555.09 145.59,-872.99 209,-941 214.13,-946.5 220.57,-950.53 227.54,-953.45"/>
<polygon fill="midnightblue" stroke="midnightblue" points="226.69,-956.86 237.29,-956.79 228.96,-950.24 226.69,-956.86"/>
</g>
<!-- Node6 -->
<g id="node6" class="node">
<title>Node6</title>
<g id="a_node6"><a xlink:href="quickjs_8c.html#a74547db03bf739a52c83a326b32db997" target="_top" xlink:title=" ">
<polygon fill="none" stroke="red" points="424,-209.5 424,-228.5 505,-228.5 505,-209.5 424,-209.5"/>
<text text-anchor="middle" x="464.5" y="-216.5" font-family="Helvetica,sans-Serif" font-size="10.00">add_property</text>
</a>
</g>
</g>
<!-- Node2&#45;&gt;Node6 -->
<g id="edge5" class="edge">
<title>Node2&#45;&gt;Node6</title>
<path fill="none" stroke="midnightblue" d="M131.16,-475.17C134.85,-423.74 154.68,-186.27 209,-143 263.58,-99.53 300.01,-120.32 366,-143 399.77,-154.61 430.83,-183.23 448.43,-201.85"/>
<polygon fill="midnightblue" stroke="midnightblue" points="445.99,-204.36 455.33,-209.37 451.15,-199.63 445.99,-204.36"/>
</g>
<!-- Node64 -->
<g id="node7" class="node">
<title>Node64</title>
<g id="a_node7"><a xlink:href="quickjs_8c.html#a4956f45ffd2849b96dc051277264f87a" target="_top" xlink:title=" ">
<polygon fill="none" stroke="red" points="246.5,-912.5 246.5,-931.5 328.5,-931.5 328.5,-912.5 246.5,-912.5"/>
<text text-anchor="middle" x="287.5" y="-919.5" font-family="Helvetica,sans-Serif" font-size="10.00">build_arg_list</text>
</a>
</g>
</g>
<!-- Node2&#45;&gt;Node64 -->
<g id="edge6" class="edge">
<title>Node2&#45;&gt;Node64</title>
<path fill="none" stroke="midnightblue" d="M131.01,-494.61C134.2,-550.68 152.96,-835.27 209,-898 216.33,-906.2 226.4,-911.63 236.85,-915.22"/>
<polygon fill="midnightblue" stroke="midnightblue" points="235.92,-918.6 246.5,-918.03 237.87,-911.87 235.92,-918.6"/>
</g>
<!-- Node65 -->
<g id="node8" class="node">
<title>Node65</title>
<g id="a_node8"><a xlink:href="quickjs_8c.html#ac864482356b3efc2d0b0a509fcfa4c7c" target="_top" xlink:title=" ">
<polygon fill="none" stroke="red" points="426,-893.5 426,-912.5 503,-912.5 503,-893.5 426,-893.5"/>
<text text-anchor="middle" x="464.5" y="-900.5" font-family="Helvetica,sans-Serif" font-size="10.00">free_arg_list</text>
</a>
</g>
</g>
<!-- Node2&#45;&gt;Node65 -->
<g id="edge12" class="edge">
<title>Node2&#45;&gt;Node65</title>
<path fill="none" stroke="midnightblue" d="M131.16,-494.67C134.94,-547.47 155.68,-800.54 209,-853 237.68,-881.22 350.32,-894.4 415.73,-899.79"/>
<polygon fill="midnightblue" stroke="midnightblue" points="415.56,-903.29 425.81,-900.59 416.12,-896.31 415.56,-903.29"/>
</g>
<!-- Node160 -->
<g id="node9" class="node">
<title>Node160</title>
<g id="a_node9"><a xlink:href="quickjs_8c.html#a61c8dfb5e807af1b6ff7d8ca61576dda" target="_top" xlink:title=" ">
<polygon fill="none" stroke="red" points="240.5,-798.5 240.5,-817.5 334.5,-817.5 334.5,-798.5 240.5,-798.5"/>
<text text-anchor="middle" x="287.5" y="-805.5" font-family="Helvetica,sans-Serif" font-size="10.00">build_backtrace</text>
</a>
</g>
</g>
<!-- Node2&#45;&gt;Node160 -->
<g id="edge9" class="edge">
<title>Node2&#45;&gt;Node160</title>
<path fill="none" stroke="midnightblue" d="M131.68,-494.76C137.55,-541.93 165.18,-745.71 209,-789 214.96,-794.88 222.42,-799.05 230.34,-801.98"/>
<polygon fill="midnightblue" stroke="midnightblue" points="229.59,-805.4 240.17,-804.97 231.63,-798.71 229.59,-805.4"/>
</g>
<!-- Node247 -->
<g id="node10" class="node">
<title>Node247</title>
<g id="a_node10"><a xlink:href="quickjs_8c.html#a344894112559c2ba75043fd10bcfa02f" target="_top" xlink:title=" ">
<polygon fill="none" stroke="red" points="237,-760.5 237,-779.5 338,-779.5 338,-760.5 237,-760.5"/>
<text text-anchor="middle" x="287.5" y="-767.5" font-family="Helvetica,sans-Serif" font-size="10.00">close_lexical_var</text>
</a>
</g>
</g>
<!-- Node2&#45;&gt;Node247 -->
<g id="edge10" class="edge">
<title>Node2&#45;&gt;Node247</title>
<path fill="none" stroke="midnightblue" d="M130.18,-494.7C129.46,-533.33 132.2,-677.69 209,-751 214.12,-755.88 220.28,-759.58 226.86,-762.36"/>
<polygon fill="midnightblue" stroke="midnightblue" points="226.14,-765.81 236.73,-765.81 228.45,-759.2 226.14,-765.81"/>
</g>
<!-- Node248 -->
<g id="node11" class="node">
<title>Node248</title>
<g id="a_node11"><a xlink:href="quickjs_8c.html#a1782043fce951bd4f0d91c7796b31e24" target="_top" xlink:title=" ">
<polygon fill="none" stroke="red" points="244,-722.5 244,-741.5 331,-741.5 331,-722.5 244,-722.5"/>
<text text-anchor="middle" x="287.5" y="-729.5" font-family="Helvetica,sans-Serif" font-size="10.00">close_var_refs</text>
</a>
</g>
</g>
<!-- Node2&#45;&gt;Node248 -->
<g id="edge11" class="edge">
<title>Node2&#45;&gt;Node248</title>
<path fill="none" stroke="midnightblue" d="M130.94,-494.65C133.04,-528.95 144.83,-646.23 209,-708 216,-714.74 224.87,-719.59 234.07,-723.08"/>
<polygon fill="midnightblue" stroke="midnightblue" points="233.14,-726.46 243.73,-726.25 235.32,-719.81 233.14,-726.46"/>
</g>
<!-- Node53 -->
<g id="node12" class="node">
<title>Node53</title>
<g id="a_node12"><a xlink:href="quickjs_8c.html#a9e7b4bccf927d811b0f99b40b08c0472" target="_top" xlink:title=" ">
<polygon fill="none" stroke="red" points="426.5,-608.5 426.5,-627.5 502.5,-627.5 502.5,-608.5 426.5,-608.5"/>
<text text-anchor="middle" x="464.5" y="-615.5" font-family="Helvetica,sans-Serif" font-size="10.00">free_var_ref</text>
</a>
</g>
</g>
<!-- Node2&#45;&gt;Node53 -->
<g id="edge13" class="edge">
<title>Node2&#45;&gt;Node53</title>
<path fill="none" stroke="midnightblue" d="M130.99,-494.78C133.2,-527.32 145.22,-632.34 209,-675 267,-713.79 298.65,-693.24 366,-675 395.41,-667.03 425.04,-647.74 443.79,-633.8"/>
<polygon fill="midnightblue" stroke="midnightblue" points="446.01,-636.5 451.83,-627.65 441.76,-630.94 446.01,-636.5"/>
</g>
<!-- Node250 -->
<g id="node13" class="node">
<title>Node250</title>
<g id="a_node13"><a xlink:href="cutils_8h.html#a7c82a3ee025fee89db5b11ff5b7691b8" target="_top" xlink:title=" ">
<polygon fill="none" stroke="black" points="261,-646.5 261,-665.5 314,-665.5 314,-646.5 261,-646.5"/>
<text text-anchor="middle" x="287.5" y="-653.5" font-family="Helvetica,sans-Serif" font-size="10.00">get_i16</text>
</a>
</g>
</g>
<!-- Node2&#45;&gt;Node250 -->
<g id="edge14" class="edge">
<title>Node2&#45;&gt;Node250</title>
<path fill="none" stroke="midnightblue" d="M132.54,-494.6C138.77,-521.58 160.24,-598.59 209,-637 220.82,-646.31 236.57,-651.14 250.77,-653.62"/>
<polygon fill="midnightblue" stroke="midnightblue" points="250.38,-657.1 260.77,-655.04 251.36,-650.17 250.38,-657.1"/>
</g>
<!-- Node251 -->
<g id="node14" class="node">
<title>Node251</title>
<g id="a_node14"><a xlink:href="cutils_8h.html#a288ee4e688944e23500af2ecc813c306" target="_top" xlink:title=" ">
<polygon fill="none" stroke="black" points="264,-608.5 264,-627.5 311,-627.5 311,-608.5 264,-608.5"/>
<text text-anchor="middle" x="287.5" y="-615.5" font-family="Helvetica,sans-Serif" font-size="10.00">get_i8</text>
</a>
</g>
</g>
<!-- Node2&#45;&gt;Node251 -->
<g id="edge15" class="edge">
<title>Node2&#45;&gt;Node251</title>
<path fill="none" stroke="midnightblue" d="M134.31,-494.73C143.53,-516.93 169.25,-571.56 209,-599 222.03,-607.99 238.87,-612.74 253.52,-615.25"/>
<polygon fill="midnightblue" stroke="midnightblue" points="253.32,-618.75 263.71,-616.7 254.31,-611.82 253.32,-618.75"/>
</g>
<!-- Node252 -->
<g id="node15" class="node">
<title>Node252</title>
<g id="a_node15"><a xlink:href="cutils_8h.html#ad587834d17e95461893d59661e5e9676" target="_top" xlink:title=" ">
<polygon fill="none" stroke="black" points="259.5,-570.5 259.5,-589.5 315.5,-589.5 315.5,-570.5 259.5,-570.5"/>
<text text-anchor="middle" x="287.5" y="-577.5" font-family="Helvetica,sans-Serif" font-size="10.00">get_u16</text>
</a>
</g>
</g>
<!-- Node2&#45;&gt;Node252 -->
<g id="edge16" class="edge">
<title>Node2&#45;&gt;Node252</title>
<path fill="none" stroke="midnightblue" d="M137.57,-494.59C150.08,-510.85 177.79,-543.75 209,-561 221.37,-567.83 236.18,-572.24 249.53,-575.06"/>
<polygon fill="midnightblue" stroke="midnightblue" points="248.91,-578.51 259.39,-576.93 250.22,-571.63 248.91,-578.51"/>
</g>
<!-- Node49 -->
<g id="node16" class="node">
<title>Node49</title>
<g id="a_node16"><a xlink:href="cutils_8h.html#a941262a5f72fda2ec43ae7911e97a0dc" target="_top" xlink:title=" ">
<polygon fill="none" stroke="black" points="259.5,-532.5 259.5,-551.5 315.5,-551.5 315.5,-532.5 259.5,-532.5"/>
<text text-anchor="middle" x="287.5" y="-539.5" font-family="Helvetica,sans-Serif" font-size="10.00">get_u32</text>
</a>
</g>
</g>
<!-- Node2&#45;&gt;Node49 -->
<g id="edge17" class="edge">
<title>Node2&#45;&gt;Node49</title>
<path fill="none" stroke="midnightblue" d="M147.51,-494.53C163.11,-502.95 187.06,-515.1 209,-523 221.86,-527.63 236.31,-531.51 249.22,-534.54"/>
<polygon fill="midnightblue" stroke="midnightblue" points="248.66,-538 259.19,-536.77 250.2,-531.17 248.66,-538"/>
</g>
<!-- Node253 -->
<g id="node17" class="node">
<title>Node253</title>
<g id="a_node17"><a xlink:href="quickjs_8c.html#a37fe43b6649456a848bd54846450b995" target="_top" xlink:title=" ">
<polygon fill="none" stroke="red" points="428.5,-399.5 428.5,-418.5 500.5,-418.5 500.5,-399.5 428.5,-399.5"/>
<text text-anchor="middle" x="464.5" y="-406.5" font-family="Helvetica,sans-Serif" font-size="10.00">get_var_ref</text>
</a>
</g>
</g>
<!-- Node2&#45;&gt;Node253 -->
<g id="edge18" class="edge">
<title>Node2&#45;&gt;Node253</title>
<path fill="none" stroke="midnightblue" d="M132.03,-475.18C137.03,-446.94 155.73,-365.44 209,-333 268.6,-296.7 300.01,-310.32 366,-333 399.77,-344.61 430.83,-373.23 448.43,-391.85"/>
<polygon fill="midnightblue" stroke="midnightblue" points="445.99,-394.36 455.33,-399.37 451.15,-389.63 445.99,-394.36"/>
</g>
<!-- Node196 -->
<g id="node18" class="node">
<title>Node196</title>
<g id="a_node18"><a xlink:href="list_8h.html#a663527a4d757540b2177bef0db1ce5c0" target="_top" xlink:title=" ">
<polygon fill="none" stroke="black" points="246.5,-456.5 246.5,-475.5 328.5,-475.5 328.5,-456.5 246.5,-456.5"/>
<text text-anchor="middle" x="287.5" y="-463.5" font-family="Helvetica,sans-Serif" font-size="10.00">init_list_head</text>
</a>
</g>
</g>
<!-- Node2&#45;&gt;Node196 -->
<g id="edge19" class="edge">
<title>Node2&#45;&gt;Node196</title>
<path fill="none" stroke="midnightblue" d="M173.13,-479.81C192.65,-477.43 215.93,-474.6 236.3,-472.11"/>
<polygon fill="midnightblue" stroke="midnightblue" points="236.84,-475.57 246.34,-470.89 235.99,-468.63 236.84,-475.57"/>
</g>
<!-- Node254 -->
<g id="node19" class="node">
<title>Node254</title>
<g id="a_node19"><a xlink:href="quickjs_8c.html#a2bb0a2ca3b8320f3ff778c65034fce49" target="_top" xlink:title=" ">
<polygon fill="none" stroke="red" points="228,-418.5 228,-437.5 347,-437.5 347,-418.5 228,-418.5"/>
<text text-anchor="middle" x="287.5" y="-425.5" font-family="Helvetica,sans-Serif" font-size="10.00">is_backtrace_needed</text>
</a>
</g>
</g>
<!-- Node2&#45;&gt;Node254 -->
<g id="edge20" class="edge">
<title>Node2&#45;&gt;Node254</title>
<path fill="none" stroke="midnightblue" d="M147.51,-475.47C163.11,-467.05 187.06,-454.9 209,-447 215.9,-444.52 223.26,-442.25 230.6,-440.21"/>
<polygon fill="midnightblue" stroke="midnightblue" points="231.77,-443.52 240.54,-437.58 229.97,-436.75 231.77,-443.52"/>
</g>
<!-- Node180 -->
<g id="node20" class="node">
<title>Node180</title>
<g id="a_node20"><a xlink:href="quickjs_8c.html#a686cf78f8b0361621ee2ba6182195c31" target="_top" xlink:title=" ">
<polygon fill="none" stroke="black" points="243.5,-380.5 243.5,-399.5 331.5,-399.5 331.5,-380.5 243.5,-380.5"/>
<text text-anchor="middle" x="287.5" y="-387.5" font-family="Helvetica,sans-Serif" font-size="10.00">is_strict_mode</text>
</a>
</g>
</g>
<!-- Node2&#45;&gt;Node180 -->
<g id="edge21" class="edge">
<title>Node2&#45;&gt;Node180</title>
<path fill="none" stroke="midnightblue" d="M137.57,-475.41C150.08,-459.15 177.79,-426.25 209,-409 216.49,-404.86 224.89,-401.61 233.31,-399.06"/>
<polygon fill="midnightblue" stroke="midnightblue" points="234.43,-402.39 243.16,-396.39 232.59,-395.63 234.43,-402.39"/>
</g>
<!-- Node256 -->
<g id="node21" class="node">
<title>Node256</title>
<g id="a_node21"><a xlink:href="quickjs_8c.html#ae8ff05447c0d51fe277baccf616dc7c6" target="_top" xlink:title=" ">
<polygon fill="none" stroke="red" points="249.5,-342.5 249.5,-361.5 325.5,-361.5 325.5,-342.5 249.5,-342.5"/>
<text text-anchor="middle" x="287.5" y="-349.5" font-family="Helvetica,sans-Serif" font-size="10.00">js_add_slow</text>
</a>
</g>
</g>
<!-- Node2&#45;&gt;Node256 -->
<g id="edge22" class="edge">
<title>Node2&#45;&gt;Node256</title>
<path fill="none" stroke="midnightblue" d="M134.31,-475.27C143.53,-453.07 169.25,-398.44 209,-371 217.9,-364.86 228.58,-360.7 239.12,-357.88"/>
<polygon fill="midnightblue" stroke="midnightblue" points="240.17,-361.22 249.13,-355.56 238.59,-354.4 240.17,-361.22"/>
</g>
<!-- Node263 -->
<g id="node22" class="node">
<title>Node263</title>
<g id="a_node22"><a xlink:href="quickjs_8c.html#a6a21784a40b8684f2e779bd460dd13b2" target="_top" xlink:title=" ">
<polygon fill="none" stroke="red" points="248.5,-152.5 248.5,-171.5 326.5,-171.5 326.5,-152.5 248.5,-152.5"/>
<text text-anchor="middle" x="287.5" y="-159.5" font-family="Helvetica,sans-Serif" font-size="10.00">JS_AddBrand</text>
</a>
</g>
</g>
<!-- Node2&#45;&gt;Node263 -->
<g id="edge23" class="edge">
<title>Node2&#45;&gt;Node263</title>
<path fill="none" stroke="midnightblue" d="M131.68,-475.24C137.55,-428.07 165.18,-224.29 209,-181 216.92,-173.17 227.51,-168.39 238.31,-165.51"/>
<polygon fill="midnightblue" stroke="midnightblue" points="239.19,-168.9 248.22,-163.36 237.71,-162.06 239.19,-168.9"/>
</g>
<!-- Node266 -->
<g id="node23" class="node">
<title>Node266</title>
<g id="a_node23"><a xlink:href="quickjs_8c.html#a43208b0746998d2b6b9b8bd1ef8b5f99" target="_top" xlink:title=" ">
<polygon fill="none" stroke="red" points="225,-988.5 225,-1007.5 350,-1007.5 350,-988.5 225,-988.5"/>
<text text-anchor="middle" x="287.5" y="-995.5" font-family="Helvetica,sans-Serif" font-size="10.00">js_append_enumerate</text>
</a>
</g>
</g>
<!-- Node2&#45;&gt;Node266 -->
<g id="edge25" class="edge">
<title>Node2&#45;&gt;Node266</title>
<path fill="none" stroke="midnightblue" d="M130.63,-494.85C131.7,-557.9 140.63,-904.72 209,-979 211.07,-981.25 213.35,-983.25 215.8,-985.03"/>
<polygon fill="midnightblue" stroke="midnightblue" points="214.3,-988.2 224.69,-990.27 217.86,-982.17 214.3,-988.2"/>
</g>
<!-- Node97 -->
<g id="node24" class="node">
<title>Node97</title>
<g id="a_node24"><a xlink:href="quickjs_8c.html#a260bfa297ff6cb5bd18e229afaa54663" target="_top" xlink:title=" ">
<polygon fill="none" stroke="red" points="239.5,-228.5 239.5,-247.5 335.5,-247.5 335.5,-228.5 239.5,-228.5"/>
<text text-anchor="middle" x="287.5" y="-235.5" font-family="Helvetica,sans-Serif" font-size="10.00">JS_AtomToString</text>
</a>
</g>
</g>
<!-- Node2&#45;&gt;Node97 -->
<g id="edge27" class="edge">
<title>Node2&#45;&gt;Node97</title>
<path fill="none" stroke="midnightblue" d="M130.72,-475.49C132.06,-440.6 141.59,-318.53 209,-257 214.9,-251.62 222.07,-247.69 229.65,-244.85"/>
<polygon fill="midnightblue" stroke="midnightblue" points="230.9,-248.12 239.39,-241.79 228.8,-241.44 230.9,-248.12"/>
</g>
<!-- Node291 -->
<g id="node25" class="node">
<title>Node291</title>
<g id="a_node25"><a xlink:href="quickjs_8c.html#afa67965c1017685fc6783776d6d0d4d7" target="_top" xlink:title=" ">
<polygon fill="none" stroke="red" points="240,-190.5 240,-209.5 335,-209.5 335,-190.5 240,-190.5"/>
<text text-anchor="middle" x="287.5" y="-197.5" font-family="Helvetica,sans-Serif" font-size="10.00">JS_AtomToValue</text>
</a>
</g>
</g>
<!-- Node2&#45;&gt;Node291 -->
<g id="edge28" class="edge">
<title>Node2&#45;&gt;Node291</title>
<path fill="none" stroke="midnightblue" d="M130.18,-475.3C129.46,-436.67 132.2,-292.31 209,-219 214.98,-213.29 222.39,-209.21 230.24,-206.31"/>
<polygon fill="midnightblue" stroke="midnightblue" points="231.42,-209.6 239.96,-203.32 229.37,-202.91 231.42,-209.6"/>
</g>
<!-- Node292 -->
<g id="node26" class="node">
<title>Node292</title>
<g id="a_node26"><a xlink:href="quickjs_8c.html#a04d312757919ff6b4d79cd0c2c3e5bb2" target="_top" xlink:title=" ">
<polygon fill="none" stroke="red" points="231.5,-266.5 231.5,-285.5 343.5,-285.5 343.5,-266.5 231.5,-266.5"/>
<text text-anchor="middle" x="287.5" y="-273.5" font-family="Helvetica,sans-Serif" font-size="10.00">js_build_arguments</text>
</a>
</g>
</g>
<!-- Node2&#45;&gt;Node292 -->
<g id="edge29" class="edge">
<title>Node2&#45;&gt;Node292</title>
<path fill="none" stroke="midnightblue" d="M131.73,-475.31C136.13,-444.81 153.87,-349.83 209,-300 213.49,-295.95 218.65,-292.58 224.13,-289.78"/>
<polygon fill="midnightblue" stroke="midnightblue" points="225.87,-292.83 233.6,-285.58 223.03,-286.43 225.87,-292.83"/>
</g>
<!-- Node293 -->
<g id="node27" class="node">
<title>Node293</title>
<g id="a_node27"><a xlink:href="quickjs_8c.html#a1c459034f2971c4abc3a8d6d4693ef5f" target="_top" xlink:title=" ">
<polygon fill="none" stroke="red" points="209,-494.5 209,-513.5 366,-513.5 366,-494.5 209,-494.5"/>
<text text-anchor="middle" x="287.5" y="-501.5" font-family="Helvetica,sans-Serif" font-size="10.00">js_build_mapped_arguments</text>
</a>
</g>
</g>
<!-- Node2&#45;&gt;Node293 -->
<g id="edge31" class="edge">
<title>Node2&#45;&gt;Node293</title>
<path fill="none" stroke="midnightblue" d="M173.13,-490.19C181.19,-491.17 189.89,-492.23 198.76,-493.31"/>
<polygon fill="midnightblue" stroke="midnightblue" points="198.48,-496.81 208.83,-494.54 199.33,-489.86 198.48,-496.81"/>
</g>
<!-- Node294 -->
<g id="node28" class="node">
<title>Node294</title>
<g id="a_node28"><a xlink:href="quickjs_8c.html#a72f4829a5b32f5445fe3f2a59efeb8ea" target="_top" xlink:title=" ">
<polygon fill="none" stroke="red" points="248.5,-76.5 248.5,-95.5 326.5,-95.5 326.5,-76.5 248.5,-76.5"/>
<text text-anchor="middle" x="287.5" y="-83.5" font-family="Helvetica,sans-Serif" font-size="10.00">js_build_rest</text>
</a>
</g>
</g>
<!-- Node2&#45;&gt;Node294 -->
<g id="edge36" class="edge">
<title>Node2&#45;&gt;Node294</title>
<path fill="none" stroke="midnightblue" d="M131.22,-475.25C135.37,-421.95 157.74,-166.32 209,-110 216.77,-101.46 227.52,-95.93 238.53,-92.35"/>
<polygon fill="midnightblue" stroke="midnightblue" points="239.5,-95.72 248.21,-89.69 237.64,-88.97 239.5,-95.72"/>
</g>
<!-- Node295 -->
<g id="node29" class="node">
<title>Node295</title>
<g id="a_node29"><a xlink:href="quickjs_8c.html#ad35594576a14c10812efaf958c99af8a" target="_top" xlink:title=" ">
<polygon fill="none" stroke="red" points="216,-38.5 216,-57.5 359,-57.5 359,-38.5 216,-38.5"/>
<text text-anchor="middle" x="287.5" y="-45.5" font-family="Helvetica,sans-Serif" font-size="10.00">JS_CallConstructorInternal</text>
</a>
</g>
</g>
<!-- Node2&#45;&gt;Node295 -->
<g id="edge38" class="edge">
<title>Node2&#45;&gt;Node295</title>
<path fill="none" stroke="midnightblue" d="M130.84,-475.16C133.19,-418.81 148.6,-141.13 209.08,-60.11"/>
<polygon fill="midnightblue" stroke="midnightblue" points="212.1,-61.96 215.87,-52.06 206.75,-57.45 212.1,-61.96"/>
</g>
<!-- Node123 -->
<g id="node30" class="node">
<title>Node123</title>
<g id="a_node30"><a xlink:href="quickjs_8c.html#a75f6ee5e4235a7dc99889f3d2eb2c147" target="_top" xlink:title=" ">
<polygon fill="none" stroke="red" points="252,-0.5 252,-19.5 323,-19.5 323,-0.5 252,-0.5"/>
<text text-anchor="middle" x="287.5" y="-7.5" font-family="Helvetica,sans-Serif" font-size="10.00">JS_CallFree</text>
</a>
</g>
</g>
<!-- Node2&#45;&gt;Node123 -->
<g id="edge40" class="edge">
<title>Node2&#45;&gt;Node123</title>
<path fill="none" stroke="midnightblue" d="M130.71,-475.27C132.34,-414.19 144.77,-88.89 209,-20 217.49,-10.9 229.56,-5.84 241.66,-3.51"/>
<polygon fill="midnightblue" stroke="midnightblue" points="242.31,-6.95 251.75,-2.15 241.38,-0.01 242.31,-6.95"/>
</g>
<!-- Node64&#45;&gt;Node3 -->
<g id="edge7" class="edge">
<title>Node64&#45;&gt;Node3</title>
<path fill="none" stroke="midnightblue" d="M328.62,-929.51C340.85,-932.42 354.19,-936.22 366,-941 393.46,-952.12 422.46,-969.96 441.63,-982.73"/>
<polygon fill="midnightblue" stroke="midnightblue" points="439.7,-985.65 449.95,-988.36 443.63,-979.85 439.7,-985.65"/>
</g>
<!-- Node64&#45;&gt;Node65 -->
<g id="edge8" class="edge">
<title>Node64&#45;&gt;Node65</title>
<path fill="none" stroke="midnightblue" d="M328.65,-917.64C354.6,-914.82 388.5,-911.14 415.82,-908.18"/>
<polygon fill="midnightblue" stroke="midnightblue" points="416.37,-911.64 425.93,-907.08 415.61,-904.68 416.37,-911.64"/>
</g>
<!-- Node263&#45;&gt;Node6 -->
<g id="edge24" class="edge">
<title>Node263&#45;&gt;Node6</title>
<path fill="none" stroke="midnightblue" d="M326.62,-170.29C339.25,-173.32 353.32,-176.99 366,-181 388.42,-188.08 413.1,-197.72 432.01,-205.51"/>
<polygon fill="midnightblue" stroke="midnightblue" points="430.76,-208.78 441.34,-209.4 433.45,-202.32 430.76,-208.78"/>
</g>
<!-- Node266&#45;&gt;Node3 -->
<g id="edge26" class="edge">
<title>Node266&#45;&gt;Node3</title>
<path fill="none" stroke="midnightblue" d="M350.2,-998C371.23,-998 394.45,-998 414.36,-998"/>
<polygon fill="midnightblue" stroke="midnightblue" points="414.45,-1001.5 424.45,-998 414.45,-994.5 414.45,-1001.5"/>
</g>
<!-- Node292&#45;&gt;Node6 -->
<g id="edge30" class="edge">
<title>Node292&#45;&gt;Node6</title>
<path fill="none" stroke="midnightblue" d="M331.82,-266.44C343.03,-263.68 355.04,-260.46 366,-257 388.42,-249.92 413.1,-240.28 432.01,-232.49"/>
<polygon fill="midnightblue" stroke="midnightblue" points="433.45,-235.68 441.34,-228.6 430.76,-229.22 433.45,-235.68"/>
</g>
<!-- Node293&#45;&gt;Node4 -->
<g id="edge32" class="edge">
<title>Node293&#45;&gt;Node4</title>
<path fill="none" stroke="midnightblue" d="M352.28,-513.66C357.28,-516.14 361.96,-519.21 366,-523 404.78,-559.32 381.29,-588.07 402,-637 416.81,-672 438.87,-710.47 452.15,-732.57"/>
<polygon fill="midnightblue" stroke="midnightblue" points="449.23,-734.52 457.42,-741.25 455.22,-730.88 449.23,-734.52"/>
</g>
<!-- Node293&#45;&gt;Node6 -->
<g id="edge33" class="edge">
<title>Node293&#45;&gt;Node6</title>
<path fill="none" stroke="midnightblue" d="M351.72,-494.32C356.9,-491.85 361.77,-488.79 366,-485 368.45,-482.81 434.73,-298.97 456.59,-238.23"/>
<polygon fill="midnightblue" stroke="midnightblue" points="459.93,-239.28 460.02,-228.69 453.34,-236.92 459.93,-239.28"/>
</g>
<!-- Node293&#45;&gt;Node53 -->
<g id="edge34" class="edge">
<title>Node293&#45;&gt;Node53</title>
<path fill="none" stroke="midnightblue" d="M343.26,-513.52C351.15,-516 358.97,-519.1 366,-523 401.6,-542.75 433.44,-578.94 450.46,-600.5"/>
<polygon fill="midnightblue" stroke="midnightblue" points="447.74,-602.71 456.62,-608.49 453.29,-598.44 447.74,-602.71"/>
</g>
<!-- Node293&#45;&gt;Node253 -->
<g id="edge35" class="edge">
<title>Node293&#45;&gt;Node253</title>
<path fill="none" stroke="midnightblue" d="M340.43,-494.49C349.19,-491.99 358.02,-488.87 366,-485 397.49,-469.74 428.41,-443.09 446.72,-425.75"/>
<polygon fill="midnightblue" stroke="midnightblue" points="449.45,-427.98 454.2,-418.51 444.58,-422.95 449.45,-427.98"/>
</g>
<!-- Node295&#45;&gt;Node2 -->
<g id="edge39" class="edge">
<title>Node295&#45;&gt;Node2</title>
<path fill="none" stroke="midnightblue" d="M247.05,-57.56C233.27,-60.54 218.81,-65.64 209,-76 154.31,-133.77 136.07,-390.42 131.67,-464.87"/>
<polygon fill="midnightblue" stroke="midnightblue" points="128.15,-465.01 131.08,-475.19 135.14,-465.41 128.15,-465.01"/>
</g>
<!-- Node123&#45;&gt;Node2 -->
<g id="edge41" class="edge">
<title>Node123&#45;&gt;Node2</title>
<path fill="none" stroke="midnightblue" d="M251.75,-18.52C236.61,-21.33 219.86,-26.35 209,-38 149.47,-101.85 134.44,-385.96 131.26,-464.81"/>
<polygon fill="midnightblue" stroke="midnightblue" points="127.74,-465.14 130.86,-475.27 134.74,-465.41 127.74,-465.14"/>
</g>
</g>
</svg>
