<?xml version="1.0" encoding="UTF-8" standalone="no"?>
<!DOCTYPE svg PUBLIC "-//W3C//DTD SVG 1.1//EN"
 "http://www.w3.org/Graphics/SVG/1.1/DTD/svg11.dtd">
<!-- Generated by graphviz version 2.43.0 (0)
 -->
<!-- Title: string_get_fixed_width_digits Pages: 1 -->
<svg width="552pt" height="39pt"
 viewBox="0.00 0.00 552.00 39.00" xmlns="http://www.w3.org/2000/svg" xmlns:xlink="http://www.w3.org/1999/xlink">
<g id="graph0" class="graph" transform="scale(1 1) rotate(0) translate(4 35)">
<title>string_get_fixed_width_digits</title>
<!-- Node1 -->
<g id="node1" class="node">
<title>Node1</title>
<g id="a_node1"><a xlink:title=" ">
<polygon fill="#bfbfbf" stroke="black" points="418,-0.5 418,-30.5 544,-30.5 544,-0.5 418,-0.5"/>
<text text-anchor="start" x="426" y="-18.5" font-family="Helvetica,sans-Serif" font-size="10.00">string_get_fixed_width</text>
<text text-anchor="middle" x="481" y="-7.5" font-family="Helvetica,sans-Serif" font-size="10.00">_digits</text>
</a>
</g>
</g>
<!-- Node2 -->
<g id="node2" class="node">
<title>Node2</title>
<g id="a_node2"><a xlink:href="quickjs_8c.html#ac2ddbbd09d32a6d9a4b7530d7f68c6f0" target="_top" xlink:title=" ">
<polygon fill="none" stroke="black" points="296,-6 296,-25 382,-25 382,-6 296,-6"/>
<text text-anchor="middle" x="339" y="-13" font-family="Helvetica,sans-Serif" font-size="10.00">js_Date_parse</text>
</a>
</g>
</g>
<!-- Node1&#45;&gt;Node2 -->
<g id="edge1" class="edge">
<title>Node1&#45;&gt;Node2</title>
<path fill="none" stroke="midnightblue" d="M407.63,-15.5C398.98,-15.5 390.38,-15.5 382.35,-15.5"/>
<polygon fill="midnightblue" stroke="midnightblue" points="407.78,-19 417.78,-15.5 407.78,-12 407.78,-19"/>
</g>
<!-- Node3 -->
<g id="node3" class="node">
<title>Node3</title>
<g id="a_node3"><a xlink:href="quickjs_8c.html#a7e4e02ec8849f3beaf28dc0613bb4016" target="_top" xlink:title=" ">
<polygon fill="none" stroke="black" points="148,-6 148,-25 260,-25 260,-6 148,-6"/>
<text text-anchor="middle" x="204" y="-13" font-family="Helvetica,sans-Serif" font-size="10.00">js_date_constructor</text>
</a>
</g>
</g>
<!-- Node2&#45;&gt;Node3 -->
<g id="edge2" class="edge">
<title>Node2&#45;&gt;Node3</title>
<path fill="none" stroke="midnightblue" d="M285.92,-15.5C277.56,-15.5 268.88,-15.5 260.44,-15.5"/>
<polygon fill="midnightblue" stroke="midnightblue" points="285.92,-19 295.92,-15.5 285.92,-12 285.92,-19"/>
</g>
<!-- Node4 -->
<g id="node4" class="node">
<title>Node4</title>
<g id="a_node4"><a xlink:href="quickjs_8c.html#a8ecbf5799518b7bfc3fefd47c7a0dd4e" target="_top" xlink:title=" ">
<polygon fill="none" stroke="red" points="0,-6 0,-25 112,-25 112,-6 0,-6"/>
<text text-anchor="middle" x="56" y="-13" font-family="Helvetica,sans-Serif" font-size="10.00">JS_AddIntrinsicDate</text>
</a>
</g>
</g>
<!-- Node3&#45;&gt;Node4 -->
<g id="edge3" class="edge">
<title>Node3&#45;&gt;Node4</title>
<path fill="none" stroke="midnightblue" d="M137.59,-15.5C129.14,-15.5 120.54,-15.5 112.27,-15.5"/>
<polygon fill="midnightblue" stroke="midnightblue" points="137.8,-19 147.8,-15.5 137.8,-12 137.8,-19"/>
</g>
</g>
</svg>
