<?xml version="1.0" encoding="UTF-8" standalone="no"?>
<!DOCTYPE svg PUBLIC "-//W3C//DTD SVG 1.1//EN"
 "http://www.w3.org/Graphics/SVG/1.1/DTD/svg11.dtd">
<!-- Generated by graphviz version 2.43.0 (0)
 -->
<!-- Title: JS_IteratorNext2 Pages: 1 -->
<!--zoomable 1082 -->
<svg id="main" version="1.1" xmlns="http://www.w3.org/2000/svg" xmlns:xlink="http://www.w3.org/1999/xlink" xml:space="preserve" onload="init(evt)">
<style type="text/css"><![CDATA[
.edge:hover path { stroke: red; }
.edge:hover polygon { stroke: red; fill: red; }
]]></style>
<script type="text/javascript"><![CDATA[
var edges = document.getElementsByTagName('g');
if (edges && edges.length) {
  for (var i=0;i<edges.length;i++) {
    if (edges[i].id.substr(0,4)=='edge') {
      edges[i].setAttribute('class','edge');
    }
  }
}
]]></script>
        <defs>
                <circle id="rim" cx="0" cy="0" r="7"/>
                <circle id="rim2" cx="0" cy="0" r="3.5"/>
                <g id="zoomPlus">
                        <use xlink:href="#rim" fill="#404040">
                                <set attributeName="fill" to="#808080" begin="zoomplus.mouseover" end="zoomplus.mouseout"/>
                        </use>
                        <path d="M-4,0h8M0,-4v8" fill="none" stroke="white" stroke-width="1.5" pointer-events="none"/>
                </g>
                <g id="zoomMin">
                        <use xlink:href="#rim" fill="#404040">
                                <set attributeName="fill" to="#808080" begin="zoomminus.mouseover" end="zoomminus.mouseout"/>
                        </use>
                        <path d="M-4,0h8" fill="none" stroke="white" stroke-width="1.5" pointer-events="none"/>
                </g>
                <g id="dirArrow">
                        <path fill="none" stroke="white" stroke-width="1.5" d="M0,-3.0v7 M-2.5,-0.5L0,-3.0L2.5,-0.5"/>
                </g>
               <g id="resetDef">
                       <use xlink:href="#rim2" fill="#404040">
                               <set attributeName="fill" to="#808080" begin="reset.mouseover" end="reset.mouseout"/>
                       </use>
               </g>
        </defs>

<script type="text/javascript">
var viewWidth = 712;
var viewHeight = 1082;
var sectionId = 'dynsection-817';
</script>
<script xlink:href="svgpan.js"/>
<svg id="graph" class="graph">
<g id="viewport">
<title>JS_IteratorNext2</title>
<!-- Node1 -->
<g id="node1" class="node">
<title>Node1</title>
<g id="a_node1"><a xlink:title=" ">
<polygon fill="#bfbfbf" stroke="black" points="0,-646.5 0,-665.5 96,-665.5 96,-646.5 0,-646.5"/>
<text text-anchor="middle" x="48" y="-653.5" font-family="Helvetica,sans-Serif" font-size="10.00">JS_IteratorNext2</text>
</a>
</g>
</g>
<!-- Node2 -->
<g id="node2" class="node">
<title>Node2</title>
<g id="a_node2"><a xlink:href="quickjs_8c.html#a1a4c02a29525d5cb2085dd8bca3af350" target="_top" xlink:title=" ">
<polygon fill="none" stroke="black" points="132,-513.5 132,-532.5 182,-532.5 182,-513.5 132,-513.5"/>
<text text-anchor="middle" x="157" y="-520.5" font-family="Helvetica,sans-Serif" font-size="10.00">JS_Call</text>
</a>
</g>
</g>
<!-- Node1&#45;&gt;Node2 -->
<g id="edge1" class="edge">
<title>Node1&#45;&gt;Node2</title>
<path fill="none" stroke="midnightblue" d="M56.7,-646.43C74.5,-624.3 118.76,-569.29 141.7,-540.77"/>
<polygon fill="midnightblue" stroke="midnightblue" points="144.54,-542.82 148.09,-532.84 139.09,-538.43 144.54,-542.82"/>
</g>
<!-- Node57 -->
<g id="node10" class="node">
<title>Node57</title>
<g id="a_node10"><a xlink:href="quickjs_8h.html#afaa20c47565bc704c6c85f3d77254e7d" target="_top" xlink:title=" ">
<polygon fill="none" stroke="red" points="625,-874.5 625,-893.5 704,-893.5 704,-874.5 625,-874.5"/>
<text text-anchor="middle" x="664.5" y="-881.5" font-family="Helvetica,sans-Serif" font-size="10.00">JS_FreeValue</text>
</a>
</g>
</g>
<!-- Node1&#45;&gt;Node57 -->
<g id="edge47" class="edge">
<title>Node1&#45;&gt;Node57</title>
<path fill="none" stroke="midnightblue" d="M49.23,-665.52C51.25,-727.74 71,-1074 260.5,-1074 260.5,-1074 260.5,-1074 404.5,-1074 490.46,-1074 522.2,-1070.1 589,-1016 626.17,-985.89 648.12,-931.99 657.72,-903.26"/>
<polygon fill="midnightblue" stroke="midnightblue" points="661.1,-904.18 660.8,-893.59 654.43,-902.05 661.1,-904.18"/>
</g>
<!-- Node75 -->
<g id="node11" class="node">
<title>Node75</title>
<g id="a_node11"><a xlink:href="quickjs_8h.html#ad80a83d73e9b7d872b88fbf2943aebe9" target="_top" xlink:title=" ">
<polygon fill="none" stroke="black" points="502,-798.5 502,-817.5 589,-817.5 589,-798.5 502,-798.5"/>
<text text-anchor="middle" x="545.5" y="-805.5" font-family="Helvetica,sans-Serif" font-size="10.00">JS_IsException</text>
</a>
</g>
</g>
<!-- Node1&#45;&gt;Node75 -->
<g id="edge48" class="edge">
<title>Node1&#45;&gt;Node75</title>
<path fill="none" stroke="midnightblue" d="M65.43,-665.54C108.81,-690.2 230.63,-756.25 341,-786 390.98,-799.47 449.96,-804.73 491.52,-806.77"/>
<polygon fill="midnightblue" stroke="midnightblue" points="491.55,-810.27 501.7,-807.22 491.86,-803.28 491.55,-810.27"/>
</g>
<!-- Node287 -->
<g id="node30" class="node">
<title>Node287</title>
<g id="a_node30"><a xlink:href="quickjs_8h.html#a3d68fe446df2d9c7d1900b16371bff5b" target="_top" xlink:title=" ">
<polygon fill="none" stroke="black" points="368,-0.5 368,-19.5 439,-19.5 439,-0.5 368,-0.5"/>
<text text-anchor="middle" x="403.5" y="-7.5" font-family="Helvetica,sans-Serif" font-size="10.00">JS_IsObject</text>
</a>
</g>
</g>
<!-- Node1&#45;&gt;Node287 -->
<g id="edge49" class="edge">
<title>Node1&#45;&gt;Node287</title>
<path fill="none" stroke="midnightblue" d="M50.54,-646.18C61.23,-581.44 130.16,-212.92 341,-29 345.92,-24.71 351.79,-21.39 357.93,-18.82"/>
<polygon fill="midnightblue" stroke="midnightblue" points="359.44,-22 367.7,-15.36 357.1,-15.4 359.44,-22"/>
</g>
<!-- Node3 -->
<g id="node3" class="node">
<title>Node3</title>
<g id="a_node3"><a xlink:href="quickjs_8c.html#ac2894ff4edcdb4e6841bcce9c76081e3" target="_top" xlink:title=" ">
<polygon fill="none" stroke="red" points="218,-513.5 218,-532.5 305,-532.5 305,-513.5 218,-513.5"/>
<text text-anchor="middle" x="261.5" y="-520.5" font-family="Helvetica,sans-Serif" font-size="10.00">JS_CallInternal</text>
</a>
</g>
</g>
<!-- Node2&#45;&gt;Node3 -->
<g id="edge2" class="edge">
<title>Node2&#45;&gt;Node3</title>
<path fill="none" stroke="midnightblue" d="M182.03,-517.18C189.77,-516.59 198.68,-516.29 207.65,-516.25"/>
<polygon fill="midnightblue" stroke="midnightblue" points="207.72,-519.75 217.74,-516.33 207.77,-512.75 207.72,-519.75"/>
</g>
<!-- Node3&#45;&gt;Node2 -->
<g id="edge42" class="edge">
<title>Node3&#45;&gt;Node2</title>
<path fill="none" stroke="midnightblue" d="M217.74,-529.67C209.16,-529.84 200.26,-529.75 192.03,-529.4"/>
<polygon fill="midnightblue" stroke="midnightblue" points="192.22,-525.9 182.03,-528.82 191.81,-532.89 192.22,-525.9"/>
</g>
<!-- Node3&#45;&gt;Node3 -->
<g id="edge43" class="edge">
<title>Node3&#45;&gt;Node3</title>
<path fill="none" stroke="midnightblue" d="M245.47,-532.76C237.67,-541.57 243.02,-551 261.5,-551 273.05,-551 279.47,-547.31 280.76,-542.4"/>
<polygon fill="midnightblue" stroke="midnightblue" points="284.02,-541.13 277.53,-532.76 277.39,-543.35 284.02,-541.13"/>
</g>
<!-- Node4 -->
<g id="node4" class="node">
<title>Node4</title>
<g id="a_node4"><a xlink:href="quickjs_8c.html#a853f0924d441ea4225488f37c8b69f9a" target="_top" xlink:title=" ">
<polygon fill="none" stroke="black" points="505.5,-950.5 505.5,-969.5 585.5,-969.5 585.5,-950.5 505.5,-950.5"/>
<text text-anchor="middle" x="545.5" y="-957.5" font-family="Helvetica,sans-Serif" font-size="10.00">__attribute__</text>
</a>
</g>
</g>
<!-- Node3&#45;&gt;Node4 -->
<g id="edge3" class="edge">
<title>Node3&#45;&gt;Node4</title>
<path fill="none" stroke="midnightblue" d="M262.56,-532.69C263.17,-593.23 269.74,-918.96 341,-979 390.72,-1020.89 473.52,-993.08 516.57,-973.89"/>
<polygon fill="midnightblue" stroke="midnightblue" points="518.26,-976.96 525.87,-969.6 515.33,-970.61 518.26,-976.96"/>
</g>
<!-- Node5 -->
<g id="node5" class="node">
<title>Node5</title>
<g id="a_node5"><a xlink:href="quickjs_8c.html#a877fcb7651d95b411ce70e62b7f4a1f0" target="_top" xlink:title=" ">
<polygon fill="none" stroke="black" points="341,-608.5 341,-627.5 466,-627.5 466,-608.5 341,-608.5"/>
<text text-anchor="middle" x="403.5" y="-615.5" font-family="Helvetica,sans-Serif" font-size="10.00">__JS_AtomFromUInt32</text>
</a>
</g>
</g>
<!-- Node3&#45;&gt;Node5 -->
<g id="edge4" class="edge">
<title>Node3&#45;&gt;Node5</title>
<path fill="none" stroke="midnightblue" d="M269.88,-532.65C282.66,-548.71 310.47,-580.93 341,-599 344.62,-601.15 348.51,-603.07 352.51,-604.79"/>
<polygon fill="midnightblue" stroke="midnightblue" points="351.38,-608.11 361.97,-608.46 353.91,-601.58 351.38,-608.11"/>
</g>
<!-- Node6 -->
<g id="node6" class="node">
<title>Node6</title>
<g id="a_node6"><a xlink:href="quickjs_8h.html#a9bf98b18de88b4199910a43e933eb97d" target="_top" xlink:title=" ">
<polygon fill="none" stroke="black" points="353.5,-570.5 353.5,-589.5 453.5,-589.5 453.5,-570.5 353.5,-570.5"/>
<text text-anchor="middle" x="403.5" y="-577.5" font-family="Helvetica,sans-Serif" font-size="10.00">__JS_NewFloat64</text>
</a>
</g>
</g>
<!-- Node3&#45;&gt;Node6 -->
<g id="edge5" class="edge">
<title>Node3&#45;&gt;Node6</title>
<path fill="none" stroke="midnightblue" d="M280.24,-532.54C295.93,-540.75 319.59,-552.57 341,-561 346.6,-563.2 352.56,-565.32 358.48,-567.29"/>
<polygon fill="midnightblue" stroke="midnightblue" points="357.76,-570.73 368.35,-570.45 359.89,-564.07 357.76,-570.73"/>
</g>
<!-- Node7 -->
<g id="node7" class="node">
<title>Node7</title>
<g id="a_node7"><a xlink:href="quickjs_8c.html#a74547db03bf739a52c83a326b32db997" target="_top" xlink:title=" ">
<polygon fill="none" stroke="red" points="505,-684.5 505,-703.5 586,-703.5 586,-684.5 505,-684.5"/>
<text text-anchor="middle" x="545.5" y="-691.5" font-family="Helvetica,sans-Serif" font-size="10.00">add_property</text>
</a>
</g>
</g>
<!-- Node3&#45;&gt;Node7 -->
<g id="edge6" class="edge">
<title>Node3&#45;&gt;Node7</title>
<path fill="none" stroke="midnightblue" d="M266.37,-532.64C275.72,-554.66 301.7,-608.92 341,-637 353.67,-646.06 439.07,-668.18 495.13,-682.05"/>
<polygon fill="midnightblue" stroke="midnightblue" points="494.35,-685.46 504.89,-684.45 496.02,-678.66 494.35,-685.46"/>
</g>
<!-- Node65 -->
<g id="node8" class="node">
<title>Node65</title>
<g id="a_node8"><a xlink:href="quickjs_8c.html#a4956f45ffd2849b96dc051277264f87a" target="_top" xlink:title=" ">
<polygon fill="none" stroke="red" points="362.5,-950.5 362.5,-969.5 444.5,-969.5 444.5,-950.5 362.5,-950.5"/>
<text text-anchor="middle" x="403.5" y="-957.5" font-family="Helvetica,sans-Serif" font-size="10.00">build_arg_list</text>
</a>
</g>
</g>
<!-- Node3&#45;&gt;Node65 -->
<g id="edge7" class="edge">
<title>Node3&#45;&gt;Node65</title>
<path fill="none" stroke="midnightblue" d="M263.08,-532.55C266.65,-588.29 287.24,-871.3 341,-936 344.39,-940.08 348.57,-943.47 353.14,-946.29"/>
<polygon fill="midnightblue" stroke="midnightblue" points="351.81,-949.54 362.3,-951.03 355.02,-943.32 351.81,-949.54"/>
</g>
<!-- Node66 -->
<g id="node9" class="node">
<title>Node66</title>
<g id="a_node9"><a xlink:href="quickjs_8c.html#ac864482356b3efc2d0b0a509fcfa4c7c" target="_top" xlink:title=" ">
<polygon fill="none" stroke="red" points="507,-912.5 507,-931.5 584,-931.5 584,-912.5 507,-912.5"/>
<text text-anchor="middle" x="545.5" y="-919.5" font-family="Helvetica,sans-Serif" font-size="10.00">free_arg_list</text>
</a>
</g>
</g>
<!-- Node3&#45;&gt;Node66 -->
<g id="edge15" class="edge">
<title>Node3&#45;&gt;Node66</title>
<path fill="none" stroke="midnightblue" d="M263,-532.72C265.99,-586.93 283.4,-851.44 341,-903 382.91,-940.51 450.94,-938.85 496.68,-932.15"/>
<polygon fill="midnightblue" stroke="midnightblue" points="497.33,-935.59 506.65,-930.56 496.22,-928.68 497.33,-935.59"/>
</g>
<!-- Node3&#45;&gt;Node57 -->
<g id="edge44" class="edge">
<title>Node3&#45;&gt;Node57</title>
<path fill="none" stroke="midnightblue" d="M262.47,-532.78C262.52,-595.41 266.2,-939.44 341,-1003 425.39,-1074.71 494.55,-1036.81 589,-979 619.39,-960.4 642.26,-924.62 654.21,-902.67"/>
<polygon fill="midnightblue" stroke="midnightblue" points="657.38,-904.16 658.92,-893.68 651.18,-900.91 657.38,-904.16"/>
</g>
<!-- Node3&#45;&gt;Node75 -->
<g id="edge45" class="edge">
<title>Node3&#45;&gt;Node75</title>
<path fill="none" stroke="midnightblue" d="M262.81,-532.92C264.46,-568.19 274.91,-688.67 341,-751 362.75,-771.52 439.3,-789.01 492.05,-799.02"/>
<polygon fill="midnightblue" stroke="midnightblue" points="491.46,-802.47 501.93,-800.86 492.74,-795.59 491.46,-802.47"/>
</g>
<!-- Node161 -->
<g id="node12" class="node">
<title>Node161</title>
<g id="a_node12"><a xlink:href="quickjs_8c.html#a61c8dfb5e807af1b6ff7d8ca61576dda" target="_top" xlink:title=" ">
<polygon fill="none" stroke="red" points="356.5,-532.5 356.5,-551.5 450.5,-551.5 450.5,-532.5 356.5,-532.5"/>
<text text-anchor="middle" x="403.5" y="-539.5" font-family="Helvetica,sans-Serif" font-size="10.00">build_backtrace</text>
</a>
</g>
</g>
<!-- Node3&#45;&gt;Node161 -->
<g id="edge12" class="edge">
<title>Node3&#45;&gt;Node161</title>
<path fill="none" stroke="midnightblue" d="M305.27,-528.8C318.08,-530.54 332.34,-532.48 345.9,-534.32"/>
<polygon fill="midnightblue" stroke="midnightblue" points="345.72,-537.83 356.1,-535.7 346.66,-530.89 345.72,-537.83"/>
</g>
<!-- Node248 -->
<g id="node13" class="node">
<title>Node248</title>
<g id="a_node13"><a xlink:href="quickjs_8c.html#a344894112559c2ba75043fd10bcfa02f" target="_top" xlink:title=" ">
<polygon fill="none" stroke="red" points="353,-494.5 353,-513.5 454,-513.5 454,-494.5 353,-494.5"/>
<text text-anchor="middle" x="403.5" y="-501.5" font-family="Helvetica,sans-Serif" font-size="10.00">close_lexical_var</text>
</a>
</g>
</g>
<!-- Node3&#45;&gt;Node248 -->
<g id="edge13" class="edge">
<title>Node3&#45;&gt;Node248</title>
<path fill="none" stroke="midnightblue" d="M305.27,-517.2C317.07,-515.59 330.09,-513.83 342.67,-512.12"/>
<polygon fill="midnightblue" stroke="midnightblue" points="343.19,-515.58 352.63,-510.77 342.25,-508.64 343.19,-515.58"/>
</g>
<!-- Node249 -->
<g id="node14" class="node">
<title>Node249</title>
<g id="a_node14"><a xlink:href="quickjs_8c.html#a1782043fce951bd4f0d91c7796b31e24" target="_top" xlink:title=" ">
<polygon fill="none" stroke="red" points="360,-456.5 360,-475.5 447,-475.5 447,-456.5 360,-456.5"/>
<text text-anchor="middle" x="403.5" y="-463.5" font-family="Helvetica,sans-Serif" font-size="10.00">close_var_refs</text>
</a>
</g>
</g>
<!-- Node3&#45;&gt;Node249 -->
<g id="edge14" class="edge">
<title>Node3&#45;&gt;Node249</title>
<path fill="none" stroke="midnightblue" d="M280.24,-513.46C295.93,-505.25 319.59,-493.43 341,-485 346.6,-482.8 352.56,-480.68 358.48,-478.71"/>
<polygon fill="midnightblue" stroke="midnightblue" points="359.89,-481.93 368.35,-475.55 357.76,-475.27 359.89,-481.93"/>
</g>
<!-- Node54 -->
<g id="node15" class="node">
<title>Node54</title>
<g id="a_node15"><a xlink:href="quickjs_8c.html#a9e7b4bccf927d811b0f99b40b08c0472" target="_top" xlink:title=" ">
<polygon fill="none" stroke="red" points="365.5,-418.5 365.5,-437.5 441.5,-437.5 441.5,-418.5 365.5,-418.5"/>
<text text-anchor="middle" x="403.5" y="-425.5" font-family="Helvetica,sans-Serif" font-size="10.00">free_var_ref</text>
</a>
</g>
</g>
<!-- Node3&#45;&gt;Node54 -->
<g id="edge16" class="edge">
<title>Node3&#45;&gt;Node54</title>
<path fill="none" stroke="midnightblue" d="M269.88,-513.35C282.66,-497.29 310.47,-465.07 341,-447 345.51,-444.33 350.44,-442 355.47,-439.97"/>
<polygon fill="midnightblue" stroke="midnightblue" points="357,-443.15 365.21,-436.45 354.61,-436.56 357,-443.15"/>
</g>
<!-- Node251 -->
<g id="node16" class="node">
<title>Node251</title>
<g id="a_node16"><a xlink:href="cutils_8h.html#a7c82a3ee025fee89db5b11ff5b7691b8" target="_top" xlink:title=" ">
<polygon fill="none" stroke="black" points="377,-380.5 377,-399.5 430,-399.5 430,-380.5 377,-380.5"/>
<text text-anchor="middle" x="403.5" y="-387.5" font-family="Helvetica,sans-Serif" font-size="10.00">get_i16</text>
</a>
</g>
</g>
<!-- Node3&#45;&gt;Node251 -->
<g id="edge17" class="edge">
<title>Node3&#45;&gt;Node251</title>
<path fill="none" stroke="midnightblue" d="M266.42,-513.44C275.88,-491.57 302.08,-437.6 341,-409 348.67,-403.36 358.05,-399.37 367.14,-396.56"/>
<polygon fill="midnightblue" stroke="midnightblue" points="368.07,-399.93 376.81,-393.95 366.24,-393.18 368.07,-399.93"/>
</g>
<!-- Node252 -->
<g id="node17" class="node">
<title>Node252</title>
<g id="a_node17"><a xlink:href="cutils_8h.html#a288ee4e688944e23500af2ecc813c306" target="_top" xlink:title=" ">
<polygon fill="none" stroke="black" points="380,-342.5 380,-361.5 427,-361.5 427,-342.5 380,-342.5"/>
<text text-anchor="middle" x="403.5" y="-349.5" font-family="Helvetica,sans-Serif" font-size="10.00">get_i8</text>
</a>
</g>
</g>
<!-- Node3&#45;&gt;Node252 -->
<g id="edge18" class="edge">
<title>Node3&#45;&gt;Node252</title>
<path fill="none" stroke="midnightblue" d="M264.75,-513.15C271.41,-486.21 293.63,-410.65 341,-371 349.23,-364.11 359.93,-359.72 370.1,-356.92"/>
<polygon fill="midnightblue" stroke="midnightblue" points="371.03,-360.3 379.98,-354.61 369.44,-353.48 371.03,-360.3"/>
</g>
<!-- Node253 -->
<g id="node18" class="node">
<title>Node253</title>
<g id="a_node18"><a xlink:href="cutils_8h.html#ad587834d17e95461893d59661e5e9676" target="_top" xlink:title=" ">
<polygon fill="none" stroke="black" points="375.5,-304.5 375.5,-323.5 431.5,-323.5 431.5,-304.5 375.5,-304.5"/>
<text text-anchor="middle" x="403.5" y="-311.5" font-family="Helvetica,sans-Serif" font-size="10.00">get_u16</text>
</a>
</g>
</g>
<!-- Node3&#45;&gt;Node253 -->
<g id="edge19" class="edge">
<title>Node3&#45;&gt;Node253</title>
<path fill="none" stroke="midnightblue" d="M263.59,-513.49C267.63,-482.66 284.56,-384.46 341,-333 347.84,-326.76 356.69,-322.57 365.54,-319.76"/>
<polygon fill="midnightblue" stroke="midnightblue" points="366.65,-323.08 375.41,-317.13 364.85,-316.32 366.65,-323.08"/>
</g>
<!-- Node50 -->
<g id="node19" class="node">
<title>Node50</title>
<g id="a_node19"><a xlink:href="cutils_8h.html#a941262a5f72fda2ec43ae7911e97a0dc" target="_top" xlink:title=" ">
<polygon fill="none" stroke="black" points="375.5,-266.5 375.5,-285.5 431.5,-285.5 431.5,-266.5 375.5,-266.5"/>
<text text-anchor="middle" x="403.5" y="-273.5" font-family="Helvetica,sans-Serif" font-size="10.00">get_u32</text>
</a>
</g>
</g>
<!-- Node3&#45;&gt;Node50 -->
<g id="edge20" class="edge">
<title>Node3&#45;&gt;Node50</title>
<path fill="none" stroke="midnightblue" d="M262.87,-513.14C264.71,-478.08 275.75,-358.2 341,-295 347.78,-288.43 356.78,-284.13 365.8,-281.32"/>
<polygon fill="midnightblue" stroke="midnightblue" points="366.68,-284.7 375.48,-278.81 364.92,-277.93 366.68,-284.7"/>
</g>
<!-- Node254 -->
<g id="node20" class="node">
<title>Node254</title>
<g id="a_node20"><a xlink:href="quickjs_8c.html#a37fe43b6649456a848bd54846450b995" target="_top" xlink:title=" ">
<polygon fill="none" stroke="red" points="367.5,-228.5 367.5,-247.5 439.5,-247.5 439.5,-228.5 367.5,-228.5"/>
<text text-anchor="middle" x="403.5" y="-235.5" font-family="Helvetica,sans-Serif" font-size="10.00">get_var_ref</text>
</a>
</g>
</g>
<!-- Node3&#45;&gt;Node254 -->
<g id="edge21" class="edge">
<title>Node3&#45;&gt;Node254</title>
<path fill="none" stroke="midnightblue" d="M262.31,-513.43C262.07,-475.29 266.4,-332.55 341,-257 345.64,-252.3 351.41,-248.76 357.54,-246.09"/>
<polygon fill="midnightblue" stroke="midnightblue" points="359.14,-249.24 367.37,-242.58 356.78,-242.65 359.14,-249.24"/>
</g>
<!-- Node197 -->
<g id="node21" class="node">
<title>Node197</title>
<g id="a_node21"><a xlink:href="list_8h.html#a663527a4d757540b2177bef0db1ce5c0" target="_top" xlink:title=" ">
<polygon fill="none" stroke="black" points="362.5,-190.5 362.5,-209.5 444.5,-209.5 444.5,-190.5 362.5,-190.5"/>
<text text-anchor="middle" x="403.5" y="-197.5" font-family="Helvetica,sans-Serif" font-size="10.00">init_list_head</text>
</a>
</g>
</g>
<!-- Node3&#45;&gt;Node197 -->
<g id="edge22" class="edge">
<title>Node3&#45;&gt;Node197</title>
<path fill="none" stroke="midnightblue" d="M263.73,-513.29C269.85,-466.37 298.48,-263.56 341,-219 344.44,-215.4 348.54,-212.48 352.97,-210.1"/>
<polygon fill="midnightblue" stroke="midnightblue" points="354.66,-213.18 362.42,-205.97 351.86,-206.77 354.66,-213.18"/>
</g>
<!-- Node255 -->
<g id="node22" class="node">
<title>Node255</title>
<g id="a_node22"><a xlink:href="quickjs_8c.html#a2bb0a2ca3b8320f3ff778c65034fce49" target="_top" xlink:title=" ">
<polygon fill="none" stroke="red" points="344,-152.5 344,-171.5 463,-171.5 463,-152.5 344,-152.5"/>
<text text-anchor="middle" x="403.5" y="-159.5" font-family="Helvetica,sans-Serif" font-size="10.00">is_backtrace_needed</text>
</a>
</g>
</g>
<!-- Node3&#45;&gt;Node255 -->
<g id="edge23" class="edge">
<title>Node3&#45;&gt;Node255</title>
<path fill="none" stroke="midnightblue" d="M263.42,-513.45C268.4,-463.41 293.74,-231.89 341,-181 342.23,-179.68 343.55,-178.45 344.94,-177.3"/>
<polygon fill="midnightblue" stroke="midnightblue" points="347.16,-180.03 353.6,-171.62 343.32,-174.17 347.16,-180.03"/>
</g>
<!-- Node181 -->
<g id="node23" class="node">
<title>Node181</title>
<g id="a_node23"><a xlink:href="quickjs_8c.html#a686cf78f8b0361621ee2ba6182195c31" target="_top" xlink:title=" ">
<polygon fill="none" stroke="black" points="359.5,-114.5 359.5,-133.5 447.5,-133.5 447.5,-114.5 359.5,-114.5"/>
<text text-anchor="middle" x="403.5" y="-121.5" font-family="Helvetica,sans-Serif" font-size="10.00">is_strict_mode</text>
</a>
</g>
</g>
<!-- Node3&#45;&gt;Node181 -->
<g id="edge24" class="edge">
<title>Node3&#45;&gt;Node181</title>
<path fill="none" stroke="midnightblue" d="M263.9,-513.3C272.16,-456.79 314.9,-171.73 341,-143 343.71,-140.01 346.88,-137.49 350.33,-135.36"/>
<polygon fill="midnightblue" stroke="midnightblue" points="351.98,-138.45 359.35,-130.84 348.84,-132.19 351.98,-138.45"/>
</g>
<!-- Node257 -->
<g id="node24" class="node">
<title>Node257</title>
<g id="a_node24"><a xlink:href="quickjs_8c.html#ae8ff05447c0d51fe277baccf616dc7c6" target="_top" xlink:title=" ">
<polygon fill="none" stroke="red" points="365.5,-836.5 365.5,-855.5 441.5,-855.5 441.5,-836.5 365.5,-836.5"/>
<text text-anchor="middle" x="403.5" y="-843.5" font-family="Helvetica,sans-Serif" font-size="10.00">js_add_slow</text>
</a>
</g>
</g>
<!-- Node3&#45;&gt;Node257 -->
<g id="edge25" class="edge">
<title>Node3&#45;&gt;Node257</title>
<path fill="none" stroke="midnightblue" d="M263.69,-532.69C268.42,-568.42 288.25,-695.35 341,-784 351.66,-801.91 368.6,-818.46 382.01,-829.95"/>
<polygon fill="midnightblue" stroke="midnightblue" points="379.88,-832.73 389.81,-836.42 384.35,-827.34 379.88,-832.73"/>
</g>
<!-- Node264 -->
<g id="node25" class="node">
<title>Node264</title>
<g id="a_node25"><a xlink:href="quickjs_8c.html#a6a21784a40b8684f2e779bd460dd13b2" target="_top" xlink:title=" ">
<polygon fill="none" stroke="red" points="364.5,-722.5 364.5,-741.5 442.5,-741.5 442.5,-722.5 364.5,-722.5"/>
<text text-anchor="middle" x="403.5" y="-729.5" font-family="Helvetica,sans-Serif" font-size="10.00">JS_AddBrand</text>
</a>
</g>
</g>
<!-- Node3&#45;&gt;Node264 -->
<g id="edge28" class="edge">
<title>Node3&#45;&gt;Node264</title>
<path fill="none" stroke="midnightblue" d="M263.59,-532.51C267.63,-563.34 284.56,-661.54 341,-713 345.08,-716.72 349.87,-719.71 354.95,-722.11"/>
<polygon fill="midnightblue" stroke="midnightblue" points="353.73,-725.39 364.31,-725.84 356.32,-718.89 353.73,-725.39"/>
</g>
<!-- Node267 -->
<g id="node26" class="node">
<title>Node267</title>
<g id="a_node26"><a xlink:href="quickjs_8c.html#a43208b0746998d2b6b9b8bd1ef8b5f99" target="_top" xlink:title=" ">
<polygon fill="none" stroke="red" points="341,-874.5 341,-893.5 466,-893.5 466,-874.5 341,-874.5"/>
<text text-anchor="middle" x="403.5" y="-881.5" font-family="Helvetica,sans-Serif" font-size="10.00">js_append_enumerate</text>
</a>
</g>
</g>
<!-- Node3&#45;&gt;Node267 -->
<g id="edge32" class="edge">
<title>Node3&#45;&gt;Node267</title>
<path fill="none" stroke="midnightblue" d="M263.42,-532.55C268.4,-582.59 293.74,-814.11 341,-865 342.23,-866.32 343.55,-867.55 344.94,-868.7"/>
<polygon fill="midnightblue" stroke="midnightblue" points="343.32,-871.83 353.6,-874.38 347.16,-865.97 343.32,-871.83"/>
</g>
<!-- Node98 -->
<g id="node27" class="node">
<title>Node98</title>
<g id="a_node27"><a xlink:href="quickjs_8c.html#a260bfa297ff6cb5bd18e229afaa54663" target="_top" xlink:title=" ">
<polygon fill="none" stroke="red" points="355.5,-76.5 355.5,-95.5 451.5,-95.5 451.5,-76.5 355.5,-76.5"/>
<text text-anchor="middle" x="403.5" y="-83.5" font-family="Helvetica,sans-Serif" font-size="10.00">JS_AtomToString</text>
</a>
</g>
</g>
<!-- Node3&#45;&gt;Node98 -->
<g id="edge36" class="edge">
<title>Node3&#45;&gt;Node98</title>
<path fill="none" stroke="midnightblue" d="M264,-513.48C273.63,-452.72 326.72,-121.01 341,-105 342.72,-103.07 344.64,-101.33 346.7,-99.76"/>
<polygon fill="midnightblue" stroke="midnightblue" points="348.53,-102.75 355.25,-94.56 344.89,-96.77 348.53,-102.75"/>
</g>
<!-- Node291 -->
<g id="node28" class="node">
<title>Node291</title>
<g id="a_node28"><a xlink:href="quickjs_8c.html#afa67965c1017685fc6783776d6d0d4d7" target="_top" xlink:title=" ">
<polygon fill="none" stroke="red" points="356,-38.5 356,-57.5 451,-57.5 451,-38.5 356,-38.5"/>
<text text-anchor="middle" x="403.5" y="-45.5" font-family="Helvetica,sans-Serif" font-size="10.00">JS_AtomToValue</text>
</a>
</g>
</g>
<!-- Node3&#45;&gt;Node291 -->
<g id="edge37" class="edge">
<title>Node3&#45;&gt;Node291</title>
<path fill="none" stroke="midnightblue" d="M264.03,-513.26C274.33,-447.91 333.26,-75.81 341,-67 342.77,-64.98 344.76,-63.17 346.9,-61.55"/>
<polygon fill="midnightblue" stroke="midnightblue" points="349.03,-64.36 355.8,-56.21 345.42,-58.36 349.03,-64.36"/>
</g>
<!-- Node292 -->
<g id="node29" class="node">
<title>Node292</title>
<g id="a_node29"><a xlink:href="quickjs_8c.html#a04d312757919ff6b4d79cd0c2c3e5bb2" target="_top" xlink:title=" ">
<polygon fill="none" stroke="red" points="347.5,-684.5 347.5,-703.5 459.5,-703.5 459.5,-684.5 347.5,-684.5"/>
<text text-anchor="middle" x="403.5" y="-691.5" font-family="Helvetica,sans-Serif" font-size="10.00">js_build_arguments</text>
</a>
</g>
</g>
<!-- Node3&#45;&gt;Node292 -->
<g id="edge38" class="edge">
<title>Node3&#45;&gt;Node292</title>
<path fill="none" stroke="midnightblue" d="M265.11,-532.72C272.53,-558.66 296.22,-630.23 341,-670 345.5,-674 350.75,-677.37 356.24,-680.19"/>
<polygon fill="midnightblue" stroke="midnightblue" points="355.07,-683.51 365.63,-684.46 357.97,-677.14 355.07,-683.51"/>
</g>
<!-- Node3&#45;&gt;Node287 -->
<g id="edge46" class="edge">
<title>Node3&#45;&gt;Node287</title>
<path fill="none" stroke="midnightblue" d="M264.05,-513.16C274.96,-443.71 339.96,-30.2 341,-29 345.57,-23.72 351.58,-19.89 358.05,-17.11"/>
<polygon fill="midnightblue" stroke="midnightblue" points="359.43,-20.34 367.73,-13.75 357.14,-13.72 359.43,-20.34"/>
</g>
<!-- Node65&#45;&gt;Node4 -->
<g id="edge8" class="edge">
<title>Node65&#45;&gt;Node4</title>
<path fill="none" stroke="midnightblue" d="M444.62,-960C460.41,-960 478.7,-960 495.28,-960"/>
<polygon fill="midnightblue" stroke="midnightblue" points="495.34,-963.5 505.34,-960 495.34,-956.5 495.34,-963.5"/>
</g>
<!-- Node65&#45;&gt;Node66 -->
<g id="edge9" class="edge">
<title>Node65&#45;&gt;Node66</title>
<path fill="none" stroke="midnightblue" d="M439.83,-950.41C457.9,-945.51 480.1,-939.48 499.39,-934.24"/>
<polygon fill="midnightblue" stroke="midnightblue" points="500.45,-937.58 509.18,-931.59 498.62,-930.83 500.45,-937.58"/>
</g>
<!-- Node65&#45;&gt;Node75 -->
<g id="edge11" class="edge">
<title>Node65&#45;&gt;Node75</title>
<path fill="none" stroke="midnightblue" d="M415.81,-950.33C428.47,-939.32 449.4,-920.57 466,-903 490.34,-877.24 516.04,-845.05 531.16,-825.53"/>
<polygon fill="midnightblue" stroke="midnightblue" points="533.99,-827.58 537.32,-817.52 528.45,-823.31 533.99,-827.58"/>
</g>
<!-- Node66&#45;&gt;Node57 -->
<g id="edge10" class="edge">
<title>Node66&#45;&gt;Node57</title>
<path fill="none" stroke="midnightblue" d="M576.02,-912.41C590.71,-907.64 608.66,-901.81 624.47,-896.68"/>
<polygon fill="midnightblue" stroke="midnightblue" points="625.56,-900 633.99,-893.59 623.39,-893.35 625.56,-900"/>
</g>
<!-- Node257&#45;&gt;Node57 -->
<g id="edge26" class="edge">
<title>Node257&#45;&gt;Node57</title>
<path fill="none" stroke="midnightblue" d="M441.61,-851.44C487.15,-858.13 564.49,-869.47 614.78,-876.85"/>
<polygon fill="midnightblue" stroke="midnightblue" points="614.37,-880.33 624.77,-878.32 615.38,-873.4 614.37,-880.33"/>
</g>
<!-- Node257&#45;&gt;Node75 -->
<g id="edge27" class="edge">
<title>Node257&#45;&gt;Node75</title>
<path fill="none" stroke="midnightblue" d="M439.83,-836.41C457.9,-831.51 480.1,-825.48 499.39,-820.24"/>
<polygon fill="midnightblue" stroke="midnightblue" points="500.45,-823.58 509.18,-817.59 498.62,-816.83 500.45,-823.58"/>
</g>
<!-- Node264&#45;&gt;Node7 -->
<g id="edge29" class="edge">
<title>Node264&#45;&gt;Node7</title>
<path fill="none" stroke="midnightblue" d="M439.83,-722.41C457.9,-717.51 480.1,-711.48 499.39,-706.24"/>
<polygon fill="midnightblue" stroke="midnightblue" points="500.45,-709.58 509.18,-703.59 498.62,-702.83 500.45,-709.58"/>
</g>
<!-- Node264&#45;&gt;Node57 -->
<g id="edge30" class="edge">
<title>Node264&#45;&gt;Node57</title>
<path fill="none" stroke="midnightblue" d="M442.76,-736.96C482.26,-743.57 544.26,-758.21 589,-789 618.2,-809.09 641.33,-844.09 653.67,-865.54"/>
<polygon fill="midnightblue" stroke="midnightblue" points="650.64,-867.3 658.56,-874.34 656.76,-863.89 650.64,-867.3"/>
</g>
<!-- Node264&#45;&gt;Node75 -->
<g id="edge31" class="edge">
<title>Node264&#45;&gt;Node75</title>
<path fill="none" stroke="midnightblue" d="M434.08,-741.57C444.47,-745.44 456.03,-750.34 466,-756 483.63,-766.01 485.13,-772.76 502,-784 506.76,-787.17 511.97,-790.34 517.05,-793.28"/>
<polygon fill="midnightblue" stroke="midnightblue" points="515.52,-796.44 525.95,-798.3 518.95,-790.34 515.52,-796.44"/>
</g>
<!-- Node267&#45;&gt;Node4 -->
<g id="edge33" class="edge">
<title>Node267&#45;&gt;Node4</title>
<path fill="none" stroke="midnightblue" d="M419.75,-893.61C438.69,-905.39 472.18,-925.67 502,-941 505.36,-942.73 508.91,-944.46 512.47,-946.13"/>
<polygon fill="midnightblue" stroke="midnightblue" points="511.24,-949.42 521.79,-950.39 514.15,-943.05 511.24,-949.42"/>
</g>
<!-- Node267&#45;&gt;Node57 -->
<g id="edge34" class="edge">
<title>Node267&#45;&gt;Node57</title>
<path fill="none" stroke="midnightblue" d="M466.21,-884C511.68,-884 572.69,-884 614.77,-884"/>
<polygon fill="midnightblue" stroke="midnightblue" points="614.77,-887.5 624.77,-884 614.77,-880.5 614.77,-887.5"/>
</g>
<!-- Node267&#45;&gt;Node75 -->
<g id="edge35" class="edge">
<title>Node267&#45;&gt;Node75</title>
<path fill="none" stroke="midnightblue" d="M442.34,-874.45C450.35,-871.85 458.6,-868.7 466,-865 488.24,-853.87 510.94,-836.62 526.17,-824.01"/>
<polygon fill="midnightblue" stroke="midnightblue" points="528.44,-826.68 533.81,-817.55 523.92,-821.33 528.44,-826.68"/>
</g>
<!-- Node292&#45;&gt;Node7 -->
<g id="edge39" class="edge">
<title>Node292&#45;&gt;Node7</title>
<path fill="none" stroke="midnightblue" d="M459.83,-694C471.3,-694 483.32,-694 494.58,-694"/>
<polygon fill="midnightblue" stroke="midnightblue" points="494.67,-697.5 504.67,-694 494.67,-690.5 494.67,-697.5"/>
</g>
<!-- Node292&#45;&gt;Node57 -->
<g id="edge40" class="edge">
<title>Node292&#45;&gt;Node57</title>
<path fill="none" stroke="midnightblue" d="M453.22,-703.54C500.5,-713.58 568.08,-730.21 589,-747 627.74,-778.09 649.22,-834.98 658.28,-864.73"/>
<polygon fill="midnightblue" stroke="midnightblue" points="654.92,-865.72 661.06,-874.36 661.65,-863.78 654.92,-865.72"/>
</g>
<!-- Node292&#45;&gt;Node75 -->
<g id="edge41" class="edge">
<title>Node292&#45;&gt;Node75</title>
<path fill="none" stroke="midnightblue" d="M447.01,-703.56C453.67,-706.04 460.24,-709.15 466,-713 481.91,-723.65 513.96,-765.86 531.79,-790.28"/>
<polygon fill="midnightblue" stroke="midnightblue" points="528.96,-792.34 537.66,-798.39 534.63,-788.23 528.96,-792.34"/>
</g>
</g>
</svg>
        <g id="navigator" transform="translate(0 0)" fill="#404254">
                <rect fill="#f2f5e9" fill-opacity="0.5" stroke="#606060" stroke-width=".5" x="0" y="0" width="60" height="60"/>
                <use id="zoomplus" xlink:href="#zoomPlus" x="17" y="9" onmousedown="handleZoom(evt,'in')"/>
                <use id="zoomminus" xlink:href="#zoomMin" x="42" y="9" onmousedown="handleZoom(evt,'out')"/>
                <use id="reset" xlink:href="#resetDef" x="30" y="36" onmousedown="handleReset()"/>
                <g id="arrowUp" xlink:href="#dirArrow" transform="translate(30 24)" onmousedown="handlePan(0,-1)">
                  <use xlink:href="#rim" fill="#404040">
                        <set attributeName="fill" to="#808080" begin="arrowUp.mouseover" end="arrowUp.mouseout"/>
                  </use>
                  <path fill="none" stroke="white" stroke-width="1.5" d="M0,-3.0v7 M-2.5,-0.5L0,-3.0L2.5,-0.5"/>
                </g>
                <g id="arrowRight" xlink:href="#dirArrow" transform="rotate(90) translate(36 -43)" onmousedown="handlePan(1,0)">
                  <use xlink:href="#rim" fill="#404040">
                        <set attributeName="fill" to="#808080" begin="arrowRight.mouseover" end="arrowRight.mouseout"/>
                  </use>
                  <path fill="none" stroke="white" stroke-width="1.5" d="M0,-3.0v7 M-2.5,-0.5L0,-3.0L2.5,-0.5"/>
                </g>
                <g id="arrowDown" xlink:href="#dirArrow" transform="rotate(180) translate(-30 -48)" onmousedown="handlePan(0,1)">
                  <use xlink:href="#rim" fill="#404040">
                        <set attributeName="fill" to="#808080" begin="arrowDown.mouseover" end="arrowDown.mouseout"/>
                  </use>
                  <path fill="none" stroke="white" stroke-width="1.5" d="M0,-3.0v7 M-2.5,-0.5L0,-3.0L2.5,-0.5"/>
                </g>
                <g id="arrowLeft" xlink:href="#dirArrow" transform="rotate(270) translate(-36 17)" onmousedown="handlePan(-1,0)">
                  <use xlink:href="#rim" fill="#404040">
                        <set attributeName="fill" to="#808080" begin="arrowLeft.mouseover" end="arrowLeft.mouseout"/>
                  </use>
                  <path fill="none" stroke="white" stroke-width="1.5" d="M0,-3.0v7 M-2.5,-0.5L0,-3.0L2.5,-0.5"/>
                </g>
        </g>
        <svg viewBox="0 0 15 15" width="100%" height="30px" preserveAspectRatio="xMaxYMin meet">
         <g id="arrow_out" transform="scale(0.3 0.3)">
          <a xlink:href="quickjs_8c_ad6303fbd3add4afa0cb64b0aa6d431ce_cgraph_org.svg" target="_base">
           <rect id="button" ry="5" rx="5" y="6" x="6" height="38" width="38"
                fill="#f2f5e9" fill-opacity="0.5" stroke="#606060" stroke-width="1.0"/>
           <path id="arrow"
             d="M 11.500037,31.436501 C 11.940474,20.09759 22.043105,11.32322 32.158766,21.979434 L 37.068811,17.246167 C 37.068811,17.246167 37.088388,32 37.088388,32 L 22.160133,31.978069 C 22.160133,31.978069 26.997745,27.140456 26.997745,27.140456 C 18.528582,18.264221 13.291696,25.230495 11.500037,31.436501 z"
             style="fill:#404040;"/>
          </a>
         </g>
        </svg>
</svg>
