<?xml version="1.0" encoding="UTF-8" standalone="no"?>
<!DOCTYPE svg PUBLIC "-//W3C//DTD SVG 1.1//EN"
 "http://www.w3.org/Graphics/SVG/1.1/DTD/svg11.dtd">
<!-- Generated by graphviz version 2.43.0 (0)
 -->
<!-- Title: js_for_in_start Pages: 1 -->
<svg width="1059pt" height="626pt"
 viewBox="0.00 0.00 1059.00 626.00" xmlns="http://www.w3.org/2000/svg" xmlns:xlink="http://www.w3.org/1999/xlink">
<g id="graph0" class="graph" transform="scale(1 1) rotate(0) translate(4 622)">
<title>js_for_in_start</title>
<!-- Node1 -->
<g id="node1" class="node">
<title>Node1</title>
<g id="a_node1"><a xlink:title=" ">
<polygon fill="#bfbfbf" stroke="black" points="0,-456.5 0,-475.5 86,-475.5 86,-456.5 0,-456.5"/>
<text text-anchor="middle" x="43" y="-463.5" font-family="Helvetica,sans-Serif" font-size="10.00">js_for_in_start</text>
</a>
</g>
</g>
<!-- Node2 -->
<g id="node2" class="node">
<title>Node2</title>
<g id="a_node2"><a xlink:href="quickjs_8c.html#aa40a5354bee3b56e05a71244910bcc78" target="_top" xlink:title=" ">
<polygon fill="none" stroke="black" points="122,-304.5 122,-323.5 237,-323.5 237,-304.5 122,-304.5"/>
<text text-anchor="middle" x="179.5" y="-311.5" font-family="Helvetica,sans-Serif" font-size="10.00">build_for_in_iterator</text>
</a>
</g>
</g>
<!-- Node1&#45;&gt;Node2 -->
<g id="edge1" class="edge">
<title>Node1&#45;&gt;Node2</title>
<path fill="none" stroke="midnightblue" d="M52.41,-456.49C74.59,-431.43 134.86,-363.32 163.28,-331.2"/>
<polygon fill="midnightblue" stroke="midnightblue" points="166.08,-333.31 170.09,-323.5 160.84,-328.67 166.08,-333.31"/>
</g>
<!-- Node68 -->
<g id="node8" class="node">
<title>Node68</title>
<g id="a_node8"><a xlink:href="quickjs_8h.html#ad80a83d73e9b7d872b88fbf2943aebe9" target="_top" xlink:title=" ">
<polygon fill="none" stroke="black" points="960.5,-532.5 960.5,-551.5 1047.5,-551.5 1047.5,-532.5 960.5,-532.5"/>
<text text-anchor="middle" x="1004" y="-539.5" font-family="Helvetica,sans-Serif" font-size="10.00">JS_IsException</text>
</a>
</g>
</g>
<!-- Node1&#45;&gt;Node68 -->
<g id="edge36" class="edge">
<title>Node1&#45;&gt;Node68</title>
<path fill="none" stroke="midnightblue" d="M54.71,-475.51C93.32,-508.78 230.21,-618 363.5,-618 363.5,-618 363.5,-618 704.5,-618 802.19,-618 827.78,-609.23 921,-580 940.34,-573.94 961.04,-564.31 976.81,-556.27"/>
<polygon fill="midnightblue" stroke="midnightblue" points="978.68,-559.24 985.93,-551.51 975.45,-553.03 978.68,-559.24"/>
</g>
<!-- Node3 -->
<g id="node3" class="node">
<title>Node3</title>
<g id="a_node3"><a xlink:href="quickjs_8c.html#a643df594b75933007bcdbb071b5ea8c5" target="_top" xlink:title=" ">
<polygon fill="none" stroke="black" points="957,-114.5 957,-133.5 1051,-133.5 1051,-114.5 957,-114.5"/>
<text text-anchor="middle" x="1004" y="-121.5" font-family="Helvetica,sans-Serif" font-size="10.00">get_shape_prop</text>
</a>
</g>
</g>
<!-- Node2&#45;&gt;Node3 -->
<g id="edge2" class="edge">
<title>Node2&#45;&gt;Node3</title>
<path fill="none" stroke="midnightblue" d="M181.13,-304.15C184.01,-268.09 199.2,-142.37 273,-85 369.67,-9.85 423.56,-48 546,-48 546,-48 546,-48 704.5,-48 804.68,-48 918.09,-88.7 971.72,-110.53"/>
<polygon fill="midnightblue" stroke="midnightblue" points="970.44,-113.79 981.02,-114.37 973.12,-107.32 970.44,-113.79"/>
</g>
<!-- Node4 -->
<g id="node4" class="node">
<title>Node4</title>
<g id="a_node4"><a xlink:href="quickjs_8c.html#a0a8765bd4012467d9139bc24aabcb3ca" target="_top" xlink:title=" ">
<polygon fill="none" stroke="black" points="638,-304.5 638,-323.5 769,-323.5 769,-304.5 638,-304.5"/>
<text text-anchor="middle" x="703.5" y="-311.5" font-family="Helvetica,sans-Serif" font-size="10.00">JS_DefinePropertyValue</text>
</a>
</g>
</g>
<!-- Node2&#45;&gt;Node4 -->
<g id="edge3" class="edge">
<title>Node2&#45;&gt;Node4</title>
<path fill="none" stroke="midnightblue" d="M237.36,-314C332.1,-314 522.27,-314 627.74,-314"/>
<polygon fill="midnightblue" stroke="midnightblue" points="627.99,-317.5 637.99,-314 627.99,-310.5 627.99,-317.5"/>
</g>
<!-- Node31 -->
<g id="node6" class="node">
<title>Node31</title>
<g id="a_node6"><a xlink:href="quickjs_8h.html#a775522f2d084fc8fa0fcb33f390006b4" target="_top" xlink:title=" ">
<polygon fill="none" stroke="black" points="965.5,-399.5 965.5,-418.5 1042.5,-418.5 1042.5,-399.5 965.5,-399.5"/>
<text text-anchor="middle" x="1004" y="-406.5" font-family="Helvetica,sans-Serif" font-size="10.00">JS_DupValue</text>
</a>
</g>
</g>
<!-- Node2&#45;&gt;Node31 -->
<g id="edge10" class="edge">
<title>Node2&#45;&gt;Node31</title>
<path fill="none" stroke="midnightblue" d="M182.34,-323.56C188.66,-353.54 212.56,-446.07 273,-485 375.25,-550.86 424.37,-504 546,-504 546,-504 546,-504 704.5,-504 809.49,-504 925.89,-449.97 976.78,-423.4"/>
<polygon fill="midnightblue" stroke="midnightblue" points="978.59,-426.41 985.78,-418.63 975.31,-420.22 978.59,-426.41"/>
</g>
<!-- Node32 -->
<g id="node7" class="node">
<title>Node32</title>
<g id="a_node7"><a xlink:href="quickjs_8h.html#afaa20c47565bc704c6c85f3d77254e7d" target="_top" xlink:title=" ">
<polygon fill="none" stroke="red" points="964.5,-247.5 964.5,-266.5 1043.5,-266.5 1043.5,-247.5 964.5,-247.5"/>
<text text-anchor="middle" x="1004" y="-254.5" font-family="Helvetica,sans-Serif" font-size="10.00">JS_FreeValue</text>
</a>
</g>
</g>
<!-- Node2&#45;&gt;Node32 -->
<g id="edge14" class="edge">
<title>Node2&#45;&gt;Node32</title>
<path fill="none" stroke="midnightblue" d="M237.2,-306.67C346.69,-292.98 595.01,-264.16 805,-256 855.87,-254.02 914.16,-254.67 954.25,-255.56"/>
<polygon fill="midnightblue" stroke="midnightblue" points="954.2,-259.06 964.28,-255.8 954.37,-252.07 954.2,-259.06"/>
</g>
<!-- Node2&#45;&gt;Node68 -->
<g id="edge21" class="edge">
<title>Node2&#45;&gt;Node68</title>
<path fill="none" stroke="midnightblue" d="M180.68,-323.71C181.98,-361.64 192.26,-500.76 273,-561 370.49,-633.73 424.37,-580 546,-580 546,-580 546,-580 704.5,-580 791.17,-580 890.87,-564.04 950.31,-552.81"/>
<polygon fill="midnightblue" stroke="midnightblue" points="951.05,-556.23 960.21,-550.91 949.73,-549.35 951.05,-556.23"/>
</g>
<!-- Node53 -->
<g id="node9" class="node">
<title>Node53</title>
<g id="a_node9"><a xlink:href="quickjs_8c.html#a80e54dcf9ac687d4ccc2f90273565f30" target="_top" xlink:title=" ">
<polygon fill="none" stroke="red" points="678.5,-190.5 678.5,-209.5 728.5,-209.5 728.5,-190.5 678.5,-190.5"/>
<text text-anchor="middle" x="703.5" y="-197.5" font-family="Helvetica,sans-Serif" font-size="10.00">js_free</text>
</a>
</g>
</g>
<!-- Node2&#45;&gt;Node53 -->
<g id="edge11" class="edge">
<title>Node2&#45;&gt;Node53</title>
<path fill="none" stroke="midnightblue" d="M193.83,-304.32C211.15,-292.27 242.76,-272.06 273,-262 412.93,-215.47 456.38,-242.26 602,-219 624.15,-215.46 648.9,-210.79 668.3,-206.96"/>
<polygon fill="midnightblue" stroke="midnightblue" points="669.07,-210.38 678.2,-205 667.71,-203.51 669.07,-210.38"/>
</g>
<!-- Node282 -->
<g id="node10" class="node">
<title>Node282</title>
<g id="a_node10"><a xlink:href="quickjs_8c.html#a6b42cd922447e1eb6bfc52761895a174" target="_top" xlink:title=" ">
<polygon fill="none" stroke="red" points="492,-190.5 492,-209.5 602,-209.5 602,-190.5 492,-190.5"/>
<text text-anchor="middle" x="547" y="-197.5" font-family="Helvetica,sans-Serif" font-size="10.00">js_free_prop_enum</text>
</a>
</g>
</g>
<!-- Node2&#45;&gt;Node282 -->
<g id="edge12" class="edge">
<title>Node2&#45;&gt;Node282</title>
<path fill="none" stroke="midnightblue" d="M186.99,-304.21C200.4,-284.89 233.28,-242.2 273,-224 339.41,-193.57 424.35,-191.01 481.72,-193.83"/>
<polygon fill="midnightblue" stroke="midnightblue" points="481.56,-197.33 491.74,-194.39 481.95,-190.34 481.56,-197.33"/>
</g>
<!-- Node283 -->
<g id="node11" class="node">
<title>Node283</title>
<g id="a_node11"><a xlink:href="quickjs_8c.html#a176ac5ff56a118a0b1b2566798d28823" target="_top" xlink:title=" ">
<polygon fill="none" stroke="red" points="273,-152.5 273,-171.5 456,-171.5 456,-152.5 273,-152.5"/>
<text text-anchor="middle" x="364.5" y="-159.5" font-family="Helvetica,sans-Serif" font-size="10.00">JS_GetOwnPropertyNamesInternal</text>
</a>
</g>
</g>
<!-- Node2&#45;&gt;Node283 -->
<g id="edge15" class="edge">
<title>Node2&#45;&gt;Node283</title>
<path fill="none" stroke="midnightblue" d="M184.69,-304.22C195.54,-280.15 226.9,-217.68 273,-186 279.5,-181.53 286.79,-177.9 294.33,-174.94"/>
<polygon fill="midnightblue" stroke="midnightblue" points="295.71,-178.16 303.98,-171.54 293.38,-171.56 295.71,-178.16"/>
</g>
<!-- Node411 -->
<g id="node12" class="node">
<title>Node411</title>
<g id="a_node12"><a xlink:href="quickjs_8c.html#a7f82fd53b039b4e12f1addfa15d750ae" target="_top" xlink:title=" ">
<polygon fill="none" stroke="red" points="805,-152.5 805,-171.5 921,-171.5 921,-152.5 805,-152.5"/>
<text text-anchor="middle" x="863" y="-159.5" font-family="Helvetica,sans-Serif" font-size="10.00">JS_GetPrototypeFree</text>
</a>
</g>
</g>
<!-- Node2&#45;&gt;Node411 -->
<g id="edge19" class="edge">
<title>Node2&#45;&gt;Node411</title>
<path fill="none" stroke="midnightblue" d="M182.23,-304.26C188.22,-273.74 211.24,-179.81 273,-143 456.34,-33.73 732.01,-115.17 827.78,-149.06"/>
<polygon fill="midnightblue" stroke="midnightblue" points="826.66,-152.38 837.26,-152.47 829.03,-145.79 826.66,-152.38"/>
</g>
<!-- Node247 -->
<g id="node13" class="node">
<title>Node247</title>
<g id="a_node13"><a xlink:href="quickjs_8h.html#a149f24b67e745bad93573b3b4c80db4c" target="_top" xlink:title=" ">
<polygon fill="none" stroke="black" points="335,-0.5 335,-19.5 394,-19.5 394,-0.5 335,-0.5"/>
<text text-anchor="middle" x="364.5" y="-7.5" font-family="Helvetica,sans-Serif" font-size="10.00">JS_IsNull</text>
</a>
</g>
</g>
<!-- Node2&#45;&gt;Node247 -->
<g id="edge22" class="edge">
<title>Node2&#45;&gt;Node247</title>
<path fill="none" stroke="midnightblue" d="M180.59,-304.35C181.5,-264.57 190.45,-111.75 273,-34 286.85,-20.96 306.95,-14.82 324.69,-12.01"/>
<polygon fill="midnightblue" stroke="midnightblue" points="325.33,-15.45 334.8,-10.71 324.43,-8.51 325.33,-15.45"/>
</g>
<!-- Node228 -->
<g id="node14" class="node">
<title>Node228</title>
<g id="a_node14"><a xlink:href="quickjs_8c.html#a73738c650f11459db0d7af3dcdf8316b" target="_top" xlink:title=" ">
<polygon fill="none" stroke="red" points="296.5,-532.5 296.5,-551.5 432.5,-551.5 432.5,-532.5 296.5,-532.5"/>
<text text-anchor="middle" x="364.5" y="-539.5" font-family="Helvetica,sans-Serif" font-size="10.00">JS_NewObjectProtoClass</text>
</a>
</g>
</g>
<!-- Node2&#45;&gt;Node228 -->
<g id="edge23" class="edge">
<title>Node2&#45;&gt;Node228</title>
<path fill="none" stroke="midnightblue" d="M181.95,-323.87C187.31,-356.81 209.17,-464 273,-518 277.89,-522.13 283.41,-525.56 289.26,-528.41"/>
<polygon fill="midnightblue" stroke="midnightblue" points="288.11,-531.72 298.68,-532.41 290.85,-525.28 288.11,-531.72"/>
</g>
<!-- Node262 -->
<g id="node15" class="node">
<title>Node262</title>
<g id="a_node15"><a xlink:href="quickjs_8c.html#a246e337d6566552736209730827c0871" target="_top" xlink:title=" ">
<polygon fill="none" stroke="red" points="314,-456.5 314,-475.5 415,-475.5 415,-456.5 314,-456.5"/>
<text text-anchor="middle" x="364.5" y="-463.5" font-family="Helvetica,sans-Serif" font-size="10.00">js_poll_interrupts</text>
</a>
</g>
</g>
<!-- Node2&#45;&gt;Node262 -->
<g id="edge24" class="edge">
<title>Node2&#45;&gt;Node262</title>
<path fill="none" stroke="midnightblue" d="M184.69,-323.78C195.54,-347.85 226.9,-410.32 273,-442 282.33,-448.41 293.27,-453.11 304.26,-456.55"/>
<polygon fill="midnightblue" stroke="midnightblue" points="303.33,-459.92 313.9,-459.27 305.22,-453.18 303.33,-459.92"/>
</g>
<!-- Node290 -->
<g id="node16" class="node">
<title>Node290</title>
<g id="a_node16"><a xlink:href="quickjs_8c.html#ad7f03358a8088ca920ab308225c6b2e6" target="_top" xlink:title=" ">
<polygon fill="none" stroke="red" points="641,-418.5 641,-437.5 766,-437.5 766,-418.5 641,-418.5"/>
<text text-anchor="middle" x="703.5" y="-425.5" font-family="Helvetica,sans-Serif" font-size="10.00">JS_SetPropertyInternal</text>
</a>
</g>
</g>
<!-- Node2&#45;&gt;Node290 -->
<g id="edge25" class="edge">
<title>Node2&#45;&gt;Node290</title>
<path fill="none" stroke="midnightblue" d="M192.57,-323.56C209.51,-336.45 241.78,-359.17 273,-371 392.94,-416.42 543.63,-426.62 630.91,-428.37"/>
<polygon fill="midnightblue" stroke="midnightblue" points="630.91,-431.87 640.97,-428.54 631.03,-424.87 630.91,-431.87"/>
</g>
<!-- Node435 -->
<g id="node17" class="node">
<title>Node435</title>
<g id="a_node17"><a xlink:href="quickjs_8c.html#a52eca58bf20fca588e38da7f83f3fca9" target="_top" xlink:title=" ">
<polygon fill="none" stroke="black" points="317.5,-342.5 317.5,-361.5 411.5,-361.5 411.5,-342.5 317.5,-342.5"/>
<text text-anchor="middle" x="364.5" y="-349.5" font-family="Helvetica,sans-Serif" font-size="10.00">JS_ToObjectFree</text>
</a>
</g>
</g>
<!-- Node2&#45;&gt;Node435 -->
<g id="edge30" class="edge">
<title>Node2&#45;&gt;Node435</title>
<path fill="none" stroke="midnightblue" d="M226.68,-323.59C251.26,-328.69 281.69,-335.01 307.6,-340.39"/>
<polygon fill="midnightblue" stroke="midnightblue" points="307.15,-343.87 317.65,-342.48 308.57,-337.02 307.15,-343.87"/>
</g>
<!-- Node5 -->
<g id="node5" class="node">
<title>Node5</title>
<g id="a_node5"><a xlink:href="quickjs_8c.html#ab50618f1bf78e444caa6da0e3e2785d7" target="_top" xlink:title=" ">
<polygon fill="none" stroke="red" points="811,-304.5 811,-323.5 915,-323.5 915,-304.5 811,-304.5"/>
<text text-anchor="middle" x="863" y="-311.5" font-family="Helvetica,sans-Serif" font-size="10.00">JS_DefineProperty</text>
</a>
</g>
</g>
<!-- Node4&#45;&gt;Node5 -->
<g id="edge4" class="edge">
<title>Node4&#45;&gt;Node5</title>
<path fill="none" stroke="midnightblue" d="M769.02,-314C779.46,-314 790.26,-314 800.63,-314"/>
<polygon fill="midnightblue" stroke="midnightblue" points="800.83,-317.5 810.83,-314 800.83,-310.5 800.83,-317.5"/>
</g>
<!-- Node4&#45;&gt;Node32 -->
<g id="edge9" class="edge">
<title>Node4&#45;&gt;Node32</title>
<path fill="none" stroke="midnightblue" d="M754.46,-304.46C810.08,-293.84 899.38,-276.79 954.43,-266.27"/>
<polygon fill="midnightblue" stroke="midnightblue" points="955.13,-269.7 964.3,-264.39 953.82,-262.83 955.13,-269.7"/>
</g>
<!-- Node5&#45;&gt;Node3 -->
<g id="edge5" class="edge">
<title>Node5&#45;&gt;Node3</title>
<path fill="none" stroke="midnightblue" d="M871.08,-304.32C893.11,-274.21 960.63,-181.92 989.59,-142.34"/>
<polygon fill="midnightblue" stroke="midnightblue" points="992.68,-144.03 995.76,-133.89 987.03,-139.9 992.68,-144.03"/>
</g>
<!-- Node5&#45;&gt;Node31 -->
<g id="edge6" class="edge">
<title>Node5&#45;&gt;Node31</title>
<path fill="none" stroke="midnightblue" d="M878.09,-323.63C902.24,-340.13 951.7,-373.94 980.61,-393.7"/>
<polygon fill="midnightblue" stroke="midnightblue" points="978.64,-396.59 988.87,-399.34 982.59,-390.81 978.64,-396.59"/>
</g>
<!-- Node5&#45;&gt;Node32 -->
<g id="edge7" class="edge">
<title>Node5&#45;&gt;Node32</title>
<path fill="none" stroke="midnightblue" d="M887.27,-304.46C910.02,-295.13 944.87,-280.84 970.38,-270.38"/>
<polygon fill="midnightblue" stroke="midnightblue" points="971.73,-273.6 979.66,-266.57 969.08,-267.13 971.73,-273.6"/>
</g>
<!-- Node5&#45;&gt;Node68 -->
<g id="edge8" class="edge">
<title>Node5&#45;&gt;Node68</title>
<path fill="none" stroke="midnightblue" d="M869.8,-323.51C890.9,-358.13 963.88,-477.84 991.92,-523.82"/>
<polygon fill="midnightblue" stroke="midnightblue" points="988.99,-525.74 997.18,-532.45 994.96,-522.09 988.99,-525.74"/>
</g>
<!-- Node282&#45;&gt;Node53 -->
<g id="edge13" class="edge">
<title>Node282&#45;&gt;Node53</title>
<path fill="none" stroke="midnightblue" d="M602.04,-200C623.92,-200 648.53,-200 667.93,-200"/>
<polygon fill="midnightblue" stroke="midnightblue" points="668.11,-203.5 678.11,-200 668.11,-196.5 668.11,-203.5"/>
</g>
<!-- Node283&#45;&gt;Node3 -->
<g id="edge16" class="edge">
<title>Node283&#45;&gt;Node3</title>
<path fill="none" stroke="midnightblue" d="M456.16,-156.6C589.87,-148.63 836.01,-133.95 946.6,-127.36"/>
<polygon fill="midnightblue" stroke="midnightblue" points="947.09,-130.84 956.87,-126.75 946.68,-123.85 947.09,-130.84"/>
</g>
<!-- Node283&#45;&gt;Node53 -->
<g id="edge17" class="edge">
<title>Node283&#45;&gt;Node53</title>
<path fill="none" stroke="midnightblue" d="M456.15,-167.01C500.27,-170.03 554.03,-174.56 602,-181 624.23,-183.99 648.99,-188.65 668.37,-192.61"/>
<polygon fill="midnightblue" stroke="midnightblue" points="667.75,-196.06 678.25,-194.66 669.17,-189.2 667.75,-196.06"/>
</g>
<!-- Node283&#45;&gt;Node282 -->
<g id="edge18" class="edge">
<title>Node283&#45;&gt;Node282</title>
<path fill="none" stroke="midnightblue" d="M411.05,-171.59C435.3,-176.69 465.3,-183.01 490.86,-188.39"/>
<polygon fill="midnightblue" stroke="midnightblue" points="490.27,-191.84 500.78,-190.48 491.72,-184.99 490.27,-191.84"/>
</g>
<!-- Node411&#45;&gt;Node32 -->
<g id="edge20" class="edge">
<title>Node411&#45;&gt;Node32</title>
<path fill="none" stroke="midnightblue" d="M891.54,-171.56C901.19,-175.43 911.88,-180.33 921,-186 945.79,-201.41 970.62,-224.18 986.35,-239.76"/>
<polygon fill="midnightblue" stroke="midnightblue" points="984.18,-242.53 993.7,-247.17 989.15,-237.6 984.18,-242.53"/>
</g>
<!-- Node290&#45;&gt;Node5 -->
<g id="edge26" class="edge">
<title>Node290&#45;&gt;Node5</title>
<path fill="none" stroke="midnightblue" d="M713.08,-418.45C729.47,-400.65 767.01,-362.06 805,-338 811.03,-334.18 817.78,-330.72 824.46,-327.7"/>
<polygon fill="midnightblue" stroke="midnightblue" points="826.28,-330.73 834.11,-323.59 823.54,-324.29 826.28,-330.73"/>
</g>
<!-- Node290&#45;&gt;Node31 -->
<g id="edge27" class="edge">
<title>Node290&#45;&gt;Node31</title>
<path fill="none" stroke="midnightblue" d="M766.35,-424.06C822.43,-420.49 903.92,-415.31 955.16,-412.05"/>
<polygon fill="midnightblue" stroke="midnightblue" points="955.54,-415.53 965.3,-411.4 955.09,-408.54 955.54,-415.53"/>
</g>
<!-- Node290&#45;&gt;Node32 -->
<g id="edge28" class="edge">
<title>Node290&#45;&gt;Node32</title>
<path fill="none" stroke="midnightblue" d="M734.44,-418.44C777.74,-403.86 859.39,-373.41 921,-333 946.67,-316.17 971.91,-291.13 987.46,-274.45"/>
<polygon fill="midnightblue" stroke="midnightblue" points="990.11,-276.75 994.28,-267.01 984.94,-272.02 990.11,-276.75"/>
</g>
<!-- Node290&#45;&gt;Node68 -->
<g id="edge29" class="edge">
<title>Node290&#45;&gt;Node68</title>
<path fill="none" stroke="midnightblue" d="M730.26,-437.51C742.08,-441.89 756.26,-447.18 769,-452 840.3,-478.98 923.57,-511.17 969.06,-528.81"/>
<polygon fill="midnightblue" stroke="midnightblue" points="967.85,-532.1 978.44,-532.45 970.38,-525.57 967.85,-532.1"/>
</g>
<!-- Node435&#45;&gt;Node32 -->
<g id="edge31" class="edge">
<title>Node435&#45;&gt;Node32</title>
<path fill="none" stroke="midnightblue" d="M404.59,-342.46C480.96,-324.29 655.61,-285.12 805,-269 855.71,-263.53 914.02,-260.37 954.16,-258.68"/>
<polygon fill="midnightblue" stroke="midnightblue" points="954.36,-262.18 964.21,-258.27 954.08,-255.18 954.36,-262.18"/>
</g>
<!-- Node236 -->
<g id="node18" class="node">
<title>Node236</title>
<g id="a_node18"><a xlink:href="quickjs_8c.html#a710289a14c2810467e5b448d3c28bd55" target="_top" xlink:title=" ">
<polygon fill="none" stroke="red" points="510.5,-380.5 510.5,-399.5 583.5,-399.5 583.5,-380.5 510.5,-380.5"/>
<text text-anchor="middle" x="547" y="-387.5" font-family="Helvetica,sans-Serif" font-size="10.00">JS_ToObject</text>
</a>
</g>
</g>
<!-- Node435&#45;&gt;Node236 -->
<g id="edge32" class="edge">
<title>Node435&#45;&gt;Node236</title>
<path fill="none" stroke="midnightblue" d="M411.05,-361.59C438.37,-367.34 473,-374.63 500.34,-380.39"/>
<polygon fill="midnightblue" stroke="midnightblue" points="499.92,-383.88 510.43,-382.51 501.36,-377.03 499.92,-383.88"/>
</g>
<!-- Node236&#45;&gt;Node4 -->
<g id="edge33" class="edge">
<title>Node236&#45;&gt;Node4</title>
<path fill="none" stroke="midnightblue" d="M570.2,-380.48C580.01,-376.19 591.64,-370.98 602,-366 627.38,-353.81 655.83,-338.97 675.97,-328.27"/>
<polygon fill="midnightblue" stroke="midnightblue" points="677.69,-331.32 684.87,-323.53 674.4,-325.14 677.69,-331.32"/>
</g>
<!-- Node236&#45;&gt;Node31 -->
<g id="edge34" class="edge">
<title>Node236&#45;&gt;Node31</title>
<path fill="none" stroke="midnightblue" d="M583.7,-391.49C664.9,-394.88 863.42,-403.17 955.13,-407"/>
<polygon fill="midnightblue" stroke="midnightblue" points="955.1,-410.5 965.24,-407.42 955.39,-403.51 955.1,-410.5"/>
</g>
<!-- Node236&#45;&gt;Node68 -->
<g id="edge35" class="edge">
<title>Node236&#45;&gt;Node68</title>
<path fill="none" stroke="midnightblue" d="M560.83,-399.57C577.78,-411.86 608.9,-433.25 638,-447 742.82,-496.52 877.23,-522.98 950.17,-534.6"/>
<polygon fill="midnightblue" stroke="midnightblue" points="950.05,-538.12 960.47,-536.2 951.13,-531.2 950.05,-538.12"/>
</g>
</g>
</svg>
