<?xml version="1.0" encoding="UTF-8" standalone="no"?>
<!DOCTYPE svg PUBLIC "-//W3C//DTD SVG 1.1//EN"
 "http://www.w3.org/Graphics/SVG/1.1/DTD/svg11.dtd">
<!-- Generated by graphviz version 2.43.0 (0)
 -->
<!-- Title: JS_FlattenIntoArray Pages: 1 -->
<svg width="765pt" height="1134pt"
 viewBox="0.00 0.00 765.00 1133.61" xmlns="http://www.w3.org/2000/svg" xmlns:xlink="http://www.w3.org/1999/xlink">
<g id="graph0" class="graph" transform="scale(1 1) rotate(0) translate(4 1129.61)">
<title>JS_FlattenIntoArray</title>
<!-- Node1 -->
<g id="node1" class="node">
<title>Node1</title>
<g id="a_node1"><a xlink:title=" ">
<polygon fill="#bfbfbf" stroke="black" points="0,-304.5 0,-323.5 110,-323.5 110,-304.5 0,-304.5"/>
<text text-anchor="middle" x="55" y="-311.5" font-family="Helvetica,sans-Serif" font-size="10.00">JS_FlattenIntoArray</text>
</a>
</g>
</g>
<!-- Node1&#45;&gt;Node1 -->
<g id="edge42" class="edge">
<title>Node1&#45;&gt;Node1</title>
<path fill="none" stroke="midnightblue" d="M36.2,-323.76C27.05,-332.57 33.32,-342 55,-342 68.89,-342 76.46,-338.13 77.69,-333.03"/>
<polygon fill="midnightblue" stroke="midnightblue" points="80.9,-331.62 73.8,-323.76 74.44,-334.33 80.9,-331.62"/>
</g>
<!-- Node2 -->
<g id="node2" class="node">
<title>Node2</title>
<g id="a_node2"><a xlink:href="quickjs_8c.html#a1a4c02a29525d5cb2085dd8bca3af350" target="_top" xlink:title=" ">
<polygon fill="none" stroke="black" points="153.5,-361.5 153.5,-380.5 203.5,-380.5 203.5,-361.5 153.5,-361.5"/>
<text text-anchor="middle" x="178.5" y="-368.5" font-family="Helvetica,sans-Serif" font-size="10.00">JS_Call</text>
</a>
</g>
</g>
<!-- Node1&#45;&gt;Node2 -->
<g id="edge1" class="edge">
<title>Node1&#45;&gt;Node2</title>
<path fill="none" stroke="midnightblue" d="M76.34,-323.54C95.87,-332.71 125.62,-346.66 147.8,-357.07"/>
<polygon fill="midnightblue" stroke="midnightblue" points="146.56,-360.35 157.1,-361.43 149.53,-354.01 146.56,-360.35"/>
</g>
<!-- Node75 -->
<g id="node9" class="node">
<title>Node75</title>
<g id="a_node9"><a xlink:href="quickjs_8h.html#ad80a83d73e9b7d872b88fbf2943aebe9" target="_top" xlink:title=" ">
<polygon fill="none" stroke="black" points="651,-1045.5 651,-1064.5 738,-1064.5 738,-1045.5 651,-1045.5"/>
<text text-anchor="middle" x="694.5" y="-1052.5" font-family="Helvetica,sans-Serif" font-size="10.00">JS_IsException</text>
</a>
</g>
</g>
<!-- Node1&#45;&gt;Node75 -->
<g id="edge51" class="edge">
<title>Node1&#45;&gt;Node75</title>
<path fill="none" stroke="midnightblue" d="M56.02,-323.73C56.66,-387.91 68.24,-754.33 247,-960 317.81,-1041.47 335.99,-1074.73 438,-1110 504.37,-1132.95 528.08,-1127.84 596,-1110 625.05,-1102.37 654.55,-1083.91 673.38,-1070.48"/>
<polygon fill="midnightblue" stroke="midnightblue" points="675.48,-1073.27 681.48,-1064.54 671.34,-1067.63 675.48,-1073.27"/>
</g>
<!-- Node220 -->
<g id="node14" class="node">
<title>Node220</title>
<g id="a_node14"><a xlink:href="quickjs_8c.html#af23ec7c9970ceb4671c59da7abd4b078" target="_top" xlink:title=" ">
<polygon fill="none" stroke="red" points="448.5,-76.5 448.5,-95.5 585.5,-95.5 585.5,-76.5 448.5,-76.5"/>
<text text-anchor="middle" x="517" y="-83.5" font-family="Helvetica,sans-Serif" font-size="10.00">js_check_stack_overflow</text>
</a>
</g>
</g>
<!-- Node1&#45;&gt;Node220 -->
<g id="edge36" class="edge">
<title>Node1&#45;&gt;Node220</title>
<path fill="none" stroke="midnightblue" d="M83.32,-304.43C120.22,-291.67 188.15,-268.74 247,-252 315.22,-232.59 349.13,-261.28 402,-214 436.59,-183.07 405.44,-149.06 438,-116 444.88,-109.02 453.55,-103.63 462.6,-99.49"/>
<polygon fill="midnightblue" stroke="midnightblue" points="464.18,-102.62 472.11,-95.6 461.53,-96.15 464.18,-102.62"/>
</g>
<!-- Node57 -->
<g id="node17" class="node">
<title>Node57</title>
<g id="a_node17"><a xlink:href="quickjs_8h.html#afaa20c47565bc704c6c85f3d77254e7d" target="_top" xlink:title=" ">
<polygon fill="none" stroke="red" points="655,-589.5 655,-608.5 734,-608.5 734,-589.5 655,-589.5"/>
<text text-anchor="middle" x="694.5" y="-596.5" font-family="Helvetica,sans-Serif" font-size="10.00">JS_FreeValue</text>
</a>
</g>
</g>
<!-- Node1&#45;&gt;Node57 -->
<g id="edge43" class="edge">
<title>Node1&#45;&gt;Node57</title>
<path fill="none" stroke="midnightblue" d="M64.14,-323.59C101.41,-366.63 261.52,-542.35 438,-599 507.09,-621.18 592.22,-615.01 644.67,-607.67"/>
<polygon fill="midnightblue" stroke="midnightblue" points="645.33,-611.11 654.71,-606.19 644.31,-604.19 645.33,-611.11"/>
</g>
<!-- Node127 -->
<g id="node21" class="node">
<title>Node127</title>
<g id="a_node21"><a xlink:href="quickjs_8h.html#a4e407128a9605afb77523e49e9a627fd" target="_top" xlink:title=" ">
<polygon fill="none" stroke="black" points="472.5,-38.5 472.5,-57.5 561.5,-57.5 561.5,-38.5 472.5,-38.5"/>
<text text-anchor="middle" x="517" y="-45.5" font-family="Helvetica,sans-Serif" font-size="10.00">JS_IsUndefined</text>
</a>
</g>
</g>
<!-- Node1&#45;&gt;Node127 -->
<g id="edge52" class="edge">
<title>Node1&#45;&gt;Node127</title>
<path fill="none" stroke="midnightblue" d="M70.32,-304.45C87.8,-292.98 118.44,-273.48 146,-259 189.5,-236.14 200.51,-229.91 247,-214 314.11,-191.03 349.91,-224.15 402,-176 439.46,-141.37 400.51,-101.6 438,-67 444.84,-60.68 453.43,-56.37 462.38,-53.44"/>
<polygon fill="midnightblue" stroke="midnightblue" points="463.44,-56.78 472.18,-50.78 461.61,-50.03 463.44,-56.78"/>
</g>
<!-- Node222 -->
<g id="node22" class="node">
<title>Node222</title>
<g id="a_node22"><a xlink:href="quickjs_8c.html#a8353f635fb8a20553c08db8cf38c17e0" target="_top" xlink:title=" ">
<polygon fill="none" stroke="black" points="451.5,-152.5 451.5,-171.5 582.5,-171.5 582.5,-152.5 451.5,-152.5"/>
<text text-anchor="middle" x="517" y="-159.5" font-family="Helvetica,sans-Serif" font-size="10.00">JS_ThrowStackOverflow</text>
</a>
</g>
</g>
<!-- Node1&#45;&gt;Node222 -->
<g id="edge54" class="edge">
<title>Node1&#45;&gt;Node222</title>
<path fill="none" stroke="midnightblue" d="M110.34,-307.02C201.87,-294.86 379.08,-269.43 402,-252 431.43,-229.61 408.71,-199.57 438,-177 439.39,-175.93 440.83,-174.93 442.32,-173.99"/>
<polygon fill="midnightblue" stroke="midnightblue" points="444.04,-177.04 451.29,-169.31 440.8,-170.84 444.04,-177.04"/>
</g>
<!-- Node437 -->
<g id="node23" class="node">
<title>Node437</title>
<g id="a_node23"><a xlink:href="quickjs_8c.html#a57a83f0615206965524d78bf89bbf777" target="_top" xlink:title=" ">
<polygon fill="none" stroke="black" points="247,-304.5 247,-323.5 402,-323.5 402,-304.5 247,-304.5"/>
<text text-anchor="middle" x="324.5" y="-311.5" font-family="Helvetica,sans-Serif" font-size="10.00">JS_DefinePropertyValueInt64</text>
</a>
</g>
</g>
<!-- Node1&#45;&gt;Node437 -->
<g id="edge37" class="edge">
<title>Node1&#45;&gt;Node437</title>
<path fill="none" stroke="midnightblue" d="M110.13,-314C146.45,-314 195.08,-314 236.74,-314"/>
<polygon fill="midnightblue" stroke="midnightblue" points="236.89,-317.5 246.89,-314 236.89,-310.5 236.89,-317.5"/>
</g>
<!-- Node272 -->
<g id="node24" class="node">
<title>Node272</title>
<g id="a_node24"><a xlink:href="quickjs_8h.html#a6acbc709e59969eac6775f9b253b438f" target="_top" xlink:title=" ">
<polygon fill="none" stroke="black" points="478.5,-0.5 478.5,-19.5 555.5,-19.5 555.5,-0.5 478.5,-0.5"/>
<text text-anchor="middle" x="517" y="-7.5" font-family="Helvetica,sans-Serif" font-size="10.00">JS_NewInt64</text>
</a>
</g>
</g>
<!-- Node1&#45;&gt;Node272 -->
<g id="edge53" class="edge">
<title>Node1&#45;&gt;Node272</title>
<path fill="none" stroke="midnightblue" d="M63.52,-304.38C77.93,-286.46 111.11,-247.55 146,-223 186.49,-194.51 200.04,-191.7 247,-176 313.8,-153.67 349.86,-190.35 402,-143 441.33,-107.28 399.19,-65.29 438,-29 446.26,-21.27 457.12,-16.54 468.11,-13.67"/>
<polygon fill="midnightblue" stroke="midnightblue" points="469.11,-17.04 478.16,-11.53 467.65,-10.19 469.11,-17.04"/>
</g>
<!-- Node438 -->
<g id="node25" class="node">
<title>Node438</title>
<g id="a_node25"><a xlink:href="quickjs_8c.html#a5f848f76409193212a44e6221e430919" target="_top" xlink:title=" ">
<polygon fill="none" stroke="black" points="277.5,-931.5 277.5,-950.5 371.5,-950.5 371.5,-931.5 277.5,-931.5"/>
<text text-anchor="middle" x="324.5" y="-938.5" font-family="Helvetica,sans-Serif" font-size="10.00">js_get_length64</text>
</a>
</g>
</g>
<!-- Node1&#45;&gt;Node438 -->
<g id="edge44" class="edge">
<title>Node1&#45;&gt;Node438</title>
<path fill="none" stroke="midnightblue" d="M56.68,-323.68C60.24,-370.1 79.17,-573.87 146,-724 184.46,-810.4 266.79,-890.65 304.24,-924.32"/>
<polygon fill="midnightblue" stroke="midnightblue" points="302.13,-927.12 311.93,-931.14 306.77,-921.89 302.13,-927.12"/>
</g>
<!-- Node442 -->
<g id="node27" class="node">
<title>Node442</title>
<g id="a_node27"><a xlink:href="quickjs_8c.html#a1fc2c29e89230a9792fd36ae50b270e4" target="_top" xlink:title=" ">
<polygon fill="none" stroke="black" points="146,-114.5 146,-133.5 211,-133.5 211,-114.5 146,-114.5"/>
<text text-anchor="middle" x="178.5" y="-121.5" font-family="Helvetica,sans-Serif" font-size="10.00">JS_IsArray</text>
</a>
</g>
</g>
<!-- Node1&#45;&gt;Node442 -->
<g id="edge49" class="edge">
<title>Node1&#45;&gt;Node442</title>
<path fill="none" stroke="midnightblue" d="M59.63,-304.14C69.95,-277.01 101.64,-199.79 146,-148 148.47,-145.12 151.34,-142.36 154.33,-139.81"/>
<polygon fill="midnightblue" stroke="midnightblue" points="156.56,-142.5 162.29,-133.59 152.25,-136.98 156.56,-142.5"/>
</g>
<!-- Node444 -->
<g id="node29" class="node">
<title>Node444</title>
<g id="a_node29"><a xlink:href="quickjs_8c.html#a14674e74168715dc5a3a391910982e5d" target="_top" xlink:title=" ">
<polygon fill="none" stroke="black" points="260.5,-836.5 260.5,-855.5 388.5,-855.5 388.5,-836.5 260.5,-836.5"/>
<text text-anchor="middle" x="324.5" y="-843.5" font-family="Helvetica,sans-Serif" font-size="10.00">JS_TryGetPropertyInt64</text>
</a>
</g>
</g>
<!-- Node1&#45;&gt;Node444 -->
<g id="edge55" class="edge">
<title>Node1&#45;&gt;Node444</title>
<path fill="none" stroke="midnightblue" d="M56.57,-323.77C59.47,-367.23 75.37,-546.26 146,-670 186.43,-740.83 263.16,-802.52 301.1,-830.31"/>
<polygon fill="midnightblue" stroke="midnightblue" points="299.28,-833.32 309.44,-836.33 303.38,-827.64 299.28,-833.32"/>
</g>
<!-- Node3 -->
<g id="node3" class="node">
<title>Node3</title>
<g id="a_node3"><a xlink:href="quickjs_8c.html#ac2894ff4edcdb4e6841bcce9c76081e3" target="_top" xlink:title=" ">
<polygon fill="none" stroke="red" points="281,-361.5 281,-380.5 368,-380.5 368,-361.5 281,-361.5"/>
<text text-anchor="middle" x="324.5" y="-368.5" font-family="Helvetica,sans-Serif" font-size="10.00">JS_CallInternal</text>
</a>
</g>
</g>
<!-- Node2&#45;&gt;Node3 -->
<g id="edge2" class="edge">
<title>Node2&#45;&gt;Node3</title>
<path fill="none" stroke="midnightblue" d="M203.6,-365.81C221.95,-364.38 247.88,-363.93 270.94,-364.47"/>
<polygon fill="midnightblue" stroke="midnightblue" points="270.85,-367.97 280.95,-364.78 271.06,-360.98 270.85,-367.97"/>
</g>
<!-- Node3&#45;&gt;Node2 -->
<g id="edge14" class="edge">
<title>Node3&#45;&gt;Node2</title>
<path fill="none" stroke="midnightblue" d="M280.95,-377.22C259.46,-378.04 233.75,-377.91 213.59,-376.84"/>
<polygon fill="midnightblue" stroke="midnightblue" points="213.81,-373.34 203.6,-376.19 213.36,-380.33 213.81,-373.34"/>
</g>
<!-- Node3&#45;&gt;Node3 -->
<g id="edge15" class="edge">
<title>Node3&#45;&gt;Node3</title>
<path fill="none" stroke="midnightblue" d="M302,-380.76C291.05,-389.57 298.55,-399 324.5,-399 341.53,-399 350.61,-394.94 351.75,-389.65"/>
<polygon fill="midnightblue" stroke="midnightblue" points="354.8,-387.93 347,-380.76 348.62,-391.23 354.8,-387.93"/>
</g>
<!-- Node4 -->
<g id="node4" class="node">
<title>Node4</title>
<g id="a_node4"><a xlink:href="quickjs_8c.html#a853f0924d441ea4225488f37c8b69f9a" target="_top" xlink:title=" ">
<polygon fill="none" stroke="black" points="654.5,-190.5 654.5,-209.5 734.5,-209.5 734.5,-190.5 654.5,-190.5"/>
<text text-anchor="middle" x="694.5" y="-197.5" font-family="Helvetica,sans-Serif" font-size="10.00">__attribute__</text>
</a>
</g>
</g>
<!-- Node3&#45;&gt;Node4 -->
<g id="edge3" class="edge">
<title>Node3&#45;&gt;Node4</title>
<path fill="none" stroke="midnightblue" d="M358.3,-361.37C373.48,-355.41 390.62,-346.3 402,-333 436.55,-292.63 396.34,-251.98 438,-219 496.44,-172.74 587.85,-178.9 644.02,-188.68"/>
<polygon fill="midnightblue" stroke="midnightblue" points="643.62,-192.16 654.09,-190.53 644.89,-185.28 643.62,-192.16"/>
</g>
<!-- Node5 -->
<g id="node5" class="node">
<title>Node5</title>
<g id="a_node5"><a xlink:href="quickjs_8c.html#a877fcb7651d95b411ce70e62b7f4a1f0" target="_top" xlink:title=" ">
<polygon fill="none" stroke="black" points="632,-988.5 632,-1007.5 757,-1007.5 757,-988.5 632,-988.5"/>
<text text-anchor="middle" x="694.5" y="-995.5" font-family="Helvetica,sans-Serif" font-size="10.00">__JS_AtomFromUInt32</text>
</a>
</g>
</g>
<!-- Node3&#45;&gt;Node5 -->
<g id="edge4" class="edge">
<title>Node3&#45;&gt;Node5</title>
<path fill="none" stroke="midnightblue" d="M326.65,-380.51C331.93,-420.48 357.17,-577.12 438,-670 490.48,-730.31 542.82,-696.3 596,-756 627.16,-790.98 671.61,-927.39 687.54,-978.51"/>
<polygon fill="midnightblue" stroke="midnightblue" points="684.27,-979.79 690.57,-988.31 690.96,-977.73 684.27,-979.79"/>
</g>
<!-- Node6 -->
<g id="node6" class="node">
<title>Node6</title>
<g id="a_node6"><a xlink:href="quickjs_8h.html#a9bf98b18de88b4199910a43e933eb97d" target="_top" xlink:title=" ">
<polygon fill="none" stroke="black" points="644.5,-114.5 644.5,-133.5 744.5,-133.5 744.5,-114.5 644.5,-114.5"/>
<text text-anchor="middle" x="694.5" y="-121.5" font-family="Helvetica,sans-Serif" font-size="10.00">__JS_NewFloat64</text>
</a>
</g>
</g>
<!-- Node3&#45;&gt;Node6 -->
<g id="edge5" class="edge">
<title>Node3&#45;&gt;Node6</title>
<path fill="none" stroke="midnightblue" d="M360.18,-361.48C375.22,-355.64 391.7,-346.59 402,-333 453.91,-264.5 373.89,-200.24 438,-143 465.95,-118.04 567.78,-117.71 634.14,-120.39"/>
<polygon fill="midnightblue" stroke="midnightblue" points="634.32,-123.9 644.47,-120.85 634.63,-116.91 634.32,-123.9"/>
</g>
<!-- Node7 -->
<g id="node7" class="node">
<title>Node7</title>
<g id="a_node7"><a xlink:href="quickjs_8c.html#a74547db03bf739a52c83a326b32db997" target="_top" xlink:title=" ">
<polygon fill="none" stroke="red" points="476.5,-342.5 476.5,-361.5 557.5,-361.5 557.5,-342.5 476.5,-342.5"/>
<text text-anchor="middle" x="517" y="-349.5" font-family="Helvetica,sans-Serif" font-size="10.00">add_property</text>
</a>
</g>
</g>
<!-- Node3&#45;&gt;Node7 -->
<g id="edge6" class="edge">
<title>Node3&#45;&gt;Node7</title>
<path fill="none" stroke="midnightblue" d="M368.25,-366.74C397.33,-363.84 435.89,-359.99 466.33,-356.95"/>
<polygon fill="midnightblue" stroke="midnightblue" points="466.71,-360.43 476.32,-355.96 466.02,-353.47 466.71,-360.43"/>
</g>
<!-- Node65 -->
<g id="node8" class="node">
<title>Node65</title>
<g id="a_node8"><a xlink:href="quickjs_8c.html#a4956f45ffd2849b96dc051277264f87a" target="_top" xlink:title=" ">
<polygon fill="none" stroke="red" points="476,-570.5 476,-589.5 558,-589.5 558,-570.5 476,-570.5"/>
<text text-anchor="middle" x="517" y="-577.5" font-family="Helvetica,sans-Serif" font-size="10.00">build_arg_list</text>
</a>
</g>
</g>
<!-- Node3&#45;&gt;Node65 -->
<g id="edge7" class="edge">
<title>Node3&#45;&gt;Node65</title>
<path fill="none" stroke="midnightblue" d="M328.61,-380.74C338.89,-411.41 374.82,-506.82 438,-556 446.13,-562.33 455.94,-567 465.82,-570.45"/>
<polygon fill="midnightblue" stroke="midnightblue" points="465.07,-573.88 475.66,-573.5 467.14,-567.19 465.07,-573.88"/>
</g>
<!-- Node3&#45;&gt;Node75 -->
<g id="edge31" class="edge">
<title>Node3&#45;&gt;Node75</title>
<path fill="none" stroke="midnightblue" d="M325.67,-380.71C326.98,-426.19 338.43,-620.44 438,-727 489.5,-782.12 548.76,-730.19 596,-789 660.25,-868.98 575.18,-931.58 632,-1017 638.67,-1027.02 648.97,-1034.87 659.25,-1040.76"/>
<polygon fill="midnightblue" stroke="midnightblue" points="657.7,-1043.9 668.18,-1045.45 660.95,-1037.7 657.7,-1043.9"/>
</g>
<!-- Node161 -->
<g id="node10" class="node">
<title>Node161</title>
<g id="a_node10"><a xlink:href="quickjs_8c.html#a61c8dfb5e807af1b6ff7d8ca61576dda" target="_top" xlink:title=" ">
<polygon fill="none" stroke="red" points="470,-228.5 470,-247.5 564,-247.5 564,-228.5 470,-228.5"/>
<text text-anchor="middle" x="517" y="-235.5" font-family="Helvetica,sans-Serif" font-size="10.00">build_backtrace</text>
</a>
</g>
</g>
<!-- Node3&#45;&gt;Node161 -->
<g id="edge10" class="edge">
<title>Node3&#45;&gt;Node161</title>
<path fill="none" stroke="midnightblue" d="M355.13,-361.44C370.59,-355.27 388.94,-345.95 402,-333 427.12,-308.09 410.94,-284.79 438,-262 444.46,-256.55 452.15,-252.34 460.14,-249.09"/>
<polygon fill="midnightblue" stroke="midnightblue" points="461.38,-252.36 469.6,-245.69 459.01,-245.78 461.38,-252.36"/>
</g>
<!-- Node76 -->
<g id="node11" class="node">
<title>Node76</title>
<g id="a_node11"><a xlink:href="quickjs_8h.html#a2050bc428da1c65ac7eb87c3fa3b0392" target="_top" xlink:title=" ">
<polygon fill="none" stroke="black" points="656,-266.5 656,-285.5 733,-285.5 733,-266.5 656,-266.5"/>
<text text-anchor="middle" x="694.5" y="-273.5" font-family="Helvetica,sans-Serif" font-size="10.00">JS_NewInt32</text>
</a>
</g>
</g>
<!-- Node3&#45;&gt;Node76 -->
<g id="edge33" class="edge">
<title>Node3&#45;&gt;Node76</title>
<path fill="none" stroke="midnightblue" d="M350.18,-361.38C365.81,-354.67 386.02,-344.81 402,-333 420.71,-319.17 416.98,-304.98 438,-295 504.67,-263.34 592.26,-264.74 645.64,-269.64"/>
<polygon fill="midnightblue" stroke="midnightblue" points="645.54,-273.15 655.84,-270.66 646.24,-266.19 645.54,-273.15"/>
</g>
<!-- Node248 -->
<g id="node12" class="node">
<title>Node248</title>
<g id="a_node12"><a xlink:href="quickjs_8c.html#a344894112559c2ba75043fd10bcfa02f" target="_top" xlink:title=" ">
<polygon fill="none" stroke="red" points="466.5,-456.5 466.5,-475.5 567.5,-475.5 567.5,-456.5 466.5,-456.5"/>
<text text-anchor="middle" x="517" y="-463.5" font-family="Helvetica,sans-Serif" font-size="10.00">close_lexical_var</text>
</a>
</g>
</g>
<!-- Node3&#45;&gt;Node248 -->
<g id="edge12" class="edge">
<title>Node3&#45;&gt;Node248</title>
<path fill="none" stroke="midnightblue" d="M336.83,-380.7C356.24,-396.83 397.69,-429.17 438,-447 443.86,-449.59 450.12,-451.86 456.46,-453.85"/>
<polygon fill="midnightblue" stroke="midnightblue" points="455.86,-457.32 466.44,-456.74 457.8,-450.59 455.86,-457.32"/>
</g>
<!-- Node249 -->
<g id="node13" class="node">
<title>Node249</title>
<g id="a_node13"><a xlink:href="quickjs_8c.html#a1782043fce951bd4f0d91c7796b31e24" target="_top" xlink:title=" ">
<polygon fill="none" stroke="red" points="473.5,-418.5 473.5,-437.5 560.5,-437.5 560.5,-418.5 473.5,-418.5"/>
<text text-anchor="middle" x="517" y="-425.5" font-family="Helvetica,sans-Serif" font-size="10.00">close_var_refs</text>
</a>
</g>
</g>
<!-- Node3&#45;&gt;Node249 -->
<g id="edge13" class="edge">
<title>Node3&#45;&gt;Node249</title>
<path fill="none" stroke="midnightblue" d="M357.39,-380.54C389.39,-390.12 438.87,-404.92 474.04,-415.45"/>
<polygon fill="midnightblue" stroke="midnightblue" points="473.43,-418.91 484.01,-418.43 475.43,-412.21 473.43,-418.91"/>
</g>
<!-- Node3&#45;&gt;Node220 -->
<g id="edge16" class="edge">
<title>Node3&#45;&gt;Node220</title>
<path fill="none" stroke="midnightblue" d="M360.75,-361.46C375.71,-355.64 391.97,-346.61 402,-333 461.54,-252.17 372.09,-185.73 438,-110 441.26,-106.26 445.09,-103.09 449.27,-100.41"/>
<polygon fill="midnightblue" stroke="midnightblue" points="451.12,-103.38 458.27,-95.56 447.8,-97.22 451.12,-103.38"/>
</g>
<!-- Node271 -->
<g id="node15" class="node">
<title>Node271</title>
<g id="a_node15"><a xlink:href="quickjs_8c.html#a0c61bd5a64c743e81188bb528b78e715" target="_top" xlink:title=" ">
<polygon fill="none" stroke="red" points="438,-304.5 438,-323.5 596,-323.5 596,-304.5 438,-304.5"/>
<text text-anchor="middle" x="517" y="-311.5" font-family="Helvetica,sans-Serif" font-size="10.00">JS_DefinePropertyValueValue</text>
</a>
</g>
</g>
<!-- Node3&#45;&gt;Node271 -->
<g id="edge17" class="edge">
<title>Node3&#45;&gt;Node271</title>
<path fill="none" stroke="midnightblue" d="M351.66,-361.44C374.33,-353.34 408.1,-341.67 438,-333 446.36,-330.57 455.29,-328.2 464.01,-326"/>
<polygon fill="midnightblue" stroke="midnightblue" points="464.86,-329.39 473.72,-323.59 463.17,-322.6 464.86,-329.39"/>
</g>
<!-- Node56 -->
<g id="node16" class="node">
<title>Node56</title>
<g id="a_node16"><a xlink:href="quickjs_8c.html#ab7fc45a99935a1c0ba50b0216d9401a9" target="_top" xlink:title=" ">
<polygon fill="none" stroke="red" points="655.5,-437.5 655.5,-456.5 733.5,-456.5 733.5,-437.5 655.5,-437.5"/>
<text text-anchor="middle" x="694.5" y="-444.5" font-family="Helvetica,sans-Serif" font-size="10.00">JS_FreeAtom</text>
</a>
</g>
</g>
<!-- Node3&#45;&gt;Node56 -->
<g id="edge20" class="edge">
<title>Node3&#45;&gt;Node56</title>
<path fill="none" stroke="midnightblue" d="M368.27,-373.93C422.1,-378.31 517.08,-388.38 596,-409 619.35,-415.1 644.72,-425.1 663.73,-433.31"/>
<polygon fill="midnightblue" stroke="midnightblue" points="662.48,-436.59 673.04,-437.41 665.3,-430.18 662.48,-436.59"/>
</g>
<!-- Node3&#45;&gt;Node57 -->
<g id="edge21" class="edge">
<title>Node3&#45;&gt;Node57</title>
<path fill="none" stroke="midnightblue" d="M329.7,-380.66C342.01,-407.78 380.79,-485.12 438,-523 498.22,-562.87 527.08,-539.39 596,-561 618.44,-568.04 643.11,-577.67 662.02,-585.48"/>
<polygon fill="midnightblue" stroke="midnightblue" points="660.77,-588.75 671.35,-589.37 663.47,-582.29 660.77,-588.75"/>
</g>
<!-- Node68 -->
<g id="node18" class="node">
<title>Node68</title>
<g id="a_node18"><a xlink:href="quickjs_8h.html#a89b7c8686c7eee70b86be722ee4730ad" target="_top" xlink:title=" ">
<polygon fill="none" stroke="red" points="650,-779.5 650,-798.5 739,-798.5 739,-779.5 650,-779.5"/>
<text text-anchor="middle" x="694.5" y="-786.5" font-family="Helvetica,sans-Serif" font-size="10.00">JS_GetProperty</text>
</a>
</g>
</g>
<!-- Node3&#45;&gt;Node68 -->
<g id="edge22" class="edge">
<title>Node3&#45;&gt;Node68</title>
<path fill="none" stroke="midnightblue" d="M328.41,-380.6C338.83,-413.8 376.95,-525.76 438,-599 442.65,-604.58 611.86,-729.05 672.31,-773.44"/>
<polygon fill="midnightblue" stroke="midnightblue" points="670.27,-776.29 680.4,-779.39 674.42,-770.65 670.27,-776.29"/>
</g>
<!-- Node135 -->
<g id="node19" class="node">
<title>Node135</title>
<g id="a_node19"><a xlink:href="quickjs_8c.html#a90d6e607f6917d817c1e997bd2e6ed07" target="_top" xlink:title=" ">
<polygon fill="none" stroke="red" points="459,-494.5 459,-513.5 575,-513.5 575,-494.5 459,-494.5"/>
<text text-anchor="middle" x="517" y="-501.5" font-family="Helvetica,sans-Serif" font-size="10.00">JS_GetPropertyValue</text>
</a>
</g>
</g>
<!-- Node3&#45;&gt;Node135 -->
<g id="edge23" class="edge">
<title>Node3&#45;&gt;Node135</title>
<path fill="none" stroke="midnightblue" d="M332.11,-380.71C347.75,-402.88 389.37,-457.45 438,-485 441.93,-487.22 446.11,-489.19 450.41,-490.93"/>
<polygon fill="midnightblue" stroke="midnightblue" points="449.4,-494.28 460,-494.37 451.77,-487.7 449.4,-494.28"/>
</g>
<!-- Node306 -->
<g id="node20" class="node">
<title>Node306</title>
<g id="a_node20"><a xlink:href="quickjs_8c.html#a9d6d0a9704951d01c128975e0d2213f8" target="_top" xlink:title=" ">
<polygon fill="none" stroke="red" points="471.5,-798.5 471.5,-817.5 562.5,-817.5 562.5,-798.5 471.5,-798.5"/>
<text text-anchor="middle" x="517" y="-805.5" font-family="Helvetica,sans-Serif" font-size="10.00">JS_HasProperty</text>
</a>
</g>
</g>
<!-- Node3&#45;&gt;Node306 -->
<g id="edge29" class="edge">
<title>Node3&#45;&gt;Node306</title>
<path fill="none" stroke="midnightblue" d="M326.85,-380.65C334.93,-436.92 378.43,-722.46 438,-784 444.51,-790.73 452.86,-795.58 461.67,-799.08"/>
<polygon fill="midnightblue" stroke="midnightblue" points="460.74,-802.46 471.33,-802.37 462.99,-795.84 460.74,-802.46"/>
</g>
<!-- Node3&#45;&gt;Node127 -->
<g id="edge32" class="edge">
<title>Node3&#45;&gt;Node127</title>
<path fill="none" stroke="midnightblue" d="M361.3,-361.42C376.18,-355.62 392.23,-346.62 402,-333 471.53,-236.05 358.16,-155.65 438,-67 444.51,-59.77 453.26,-55.08 462.55,-52.06"/>
<polygon fill="midnightblue" stroke="midnightblue" points="463.57,-55.42 472.36,-49.5 461.8,-48.64 463.57,-55.42"/>
</g>
<!-- Node3&#45;&gt;Node222 -->
<g id="edge34" class="edge">
<title>Node3&#45;&gt;Node222</title>
<path fill="none" stroke="midnightblue" d="M359.47,-361.39C374.54,-355.49 391.25,-346.43 402,-333 444.03,-280.49 391.84,-234.93 438,-186 441.61,-182.17 445.82,-178.94 450.38,-176.23"/>
<polygon fill="midnightblue" stroke="midnightblue" points="452.15,-179.25 459.5,-171.62 449,-173.01 452.15,-179.25"/>
</g>
<!-- Node65&#45;&gt;Node4 -->
<g id="edge8" class="edge">
<title>Node65&#45;&gt;Node4</title>
<path fill="none" stroke="midnightblue" d="M539.34,-570.45C557.57,-561.1 582.87,-545.05 596,-523 657.04,-420.5 577.02,-362.88 632,-257 640.75,-240.15 656.55,-225.67 669.94,-215.53"/>
<polygon fill="midnightblue" stroke="midnightblue" points="672.23,-218.19 678.3,-209.5 668.14,-212.51 672.23,-218.19"/>
</g>
<!-- Node65&#45;&gt;Node75 -->
<g id="edge9" class="edge">
<title>Node65&#45;&gt;Node75</title>
<path fill="none" stroke="midnightblue" d="M523.4,-589.56C537.76,-615.45 577.07,-689.46 596,-756 628.04,-868.63 568.1,-918.87 632,-1017 638.52,-1027.01 648.68,-1034.82 658.88,-1040.7"/>
<polygon fill="midnightblue" stroke="midnightblue" points="657.29,-1043.81 667.77,-1045.36 660.54,-1037.61 657.29,-1043.81"/>
</g>
<!-- Node161&#45;&gt;Node76 -->
<g id="edge11" class="edge">
<title>Node161&#45;&gt;Node76</title>
<path fill="none" stroke="midnightblue" d="M562.29,-247.59C587.74,-253.1 619.73,-260.03 645.75,-265.66"/>
<polygon fill="midnightblue" stroke="midnightblue" points="645.26,-269.13 655.77,-267.83 646.74,-262.29 645.26,-269.13"/>
</g>
<!-- Node271&#45;&gt;Node56 -->
<g id="edge18" class="edge">
<title>Node271&#45;&gt;Node56</title>
<path fill="none" stroke="midnightblue" d="M575.48,-323.6C582.68,-326.05 589.71,-329.13 596,-333 635.54,-357.3 667.29,-403.02 682.92,-428.56"/>
<polygon fill="midnightblue" stroke="midnightblue" points="679.98,-430.47 688.11,-437.27 686,-426.89 679.98,-430.47"/>
</g>
<!-- Node271&#45;&gt;Node57 -->
<g id="edge19" class="edge">
<title>Node271&#45;&gt;Node57</title>
<path fill="none" stroke="midnightblue" d="M582.73,-323.63C587.59,-326.13 592.11,-329.21 596,-333 639.85,-375.75 611.07,-408.45 632,-466 647.27,-508 670.55,-554.99 683.65,-580.34"/>
<polygon fill="midnightblue" stroke="midnightblue" points="680.56,-581.98 688.28,-589.23 686.76,-578.75 680.56,-581.98"/>
</g>
<!-- Node135&#45;&gt;Node6 -->
<g id="edge24" class="edge">
<title>Node135&#45;&gt;Node6</title>
<path fill="none" stroke="midnightblue" d="M575.01,-498.8C582.98,-495.77 590.36,-491.36 596,-485 686.21,-383.15 570.31,-302.26 632,-181 640.56,-164.18 656.21,-149.78 669.59,-139.66"/>
<polygon fill="midnightblue" stroke="midnightblue" points="671.87,-142.33 677.95,-133.65 667.79,-136.65 671.87,-142.33"/>
</g>
<!-- Node135&#45;&gt;Node76 -->
<g id="edge28" class="edge">
<title>Node135&#45;&gt;Node76</title>
<path fill="none" stroke="midnightblue" d="M575.38,-496.39C582.84,-493.64 589.96,-489.95 596,-485 611.98,-471.91 665.55,-344.12 685.73,-295.05"/>
<polygon fill="midnightblue" stroke="midnightblue" points="689.05,-296.18 689.6,-285.6 682.57,-293.52 689.05,-296.18"/>
</g>
<!-- Node135&#45;&gt;Node56 -->
<g id="edge25" class="edge">
<title>Node135&#45;&gt;Node56</title>
<path fill="none" stroke="midnightblue" d="M561.6,-494.46C572.89,-491.7 584.97,-488.48 596,-485 618.43,-477.93 643.1,-468.3 662.02,-460.5"/>
<polygon fill="midnightblue" stroke="midnightblue" points="663.46,-463.69 671.34,-456.61 660.76,-457.23 663.46,-463.69"/>
</g>
<!-- Node135&#45;&gt;Node57 -->
<g id="edge26" class="edge">
<title>Node135&#45;&gt;Node57</title>
<path fill="none" stroke="midnightblue" d="M557.87,-513.51C570.41,-517.22 584.09,-522.04 596,-528 625.88,-542.95 656.39,-566.85 675.14,-582.73"/>
<polygon fill="midnightblue" stroke="midnightblue" points="673.02,-585.52 682.88,-589.4 677.59,-580.22 673.02,-585.52"/>
</g>
<!-- Node135&#45;&gt;Node68 -->
<g id="edge27" class="edge">
<title>Node135&#45;&gt;Node68</title>
<path fill="none" stroke="midnightblue" d="M536.29,-513.55C553.66,-523.41 579.5,-540.26 596,-561 623.53,-595.61 669.67,-721.53 686.82,-769.9"/>
<polygon fill="midnightblue" stroke="midnightblue" points="683.57,-771.2 690.19,-779.47 690.17,-768.87 683.57,-771.2"/>
</g>
<!-- Node306&#45;&gt;Node57 -->
<g id="edge30" class="edge">
<title>Node306&#45;&gt;Node57</title>
<path fill="none" stroke="midnightblue" d="M526,-798.48C553.35,-765.9 643.43,-658.62 678.93,-616.35"/>
<polygon fill="midnightblue" stroke="midnightblue" points="681.71,-618.49 685.46,-608.58 676.35,-613.99 681.71,-618.49"/>
</g>
<!-- Node222&#45;&gt;Node4 -->
<g id="edge35" class="edge">
<title>Node222&#45;&gt;Node4</title>
<path fill="none" stroke="midnightblue" d="M562.29,-171.59C587.3,-177 618.61,-183.78 644.37,-189.36"/>
<polygon fill="midnightblue" stroke="midnightblue" points="643.8,-192.82 654.31,-191.51 645.28,-185.98 643.8,-192.82"/>
</g>
<!-- Node437&#45;&gt;Node271 -->
<g id="edge38" class="edge">
<title>Node437&#45;&gt;Node271</title>
<path fill="none" stroke="midnightblue" d="M402.16,-314C410.63,-314 419.31,-314 427.9,-314"/>
<polygon fill="midnightblue" stroke="midnightblue" points="427.94,-317.5 437.94,-314 427.94,-310.5 427.94,-317.5"/>
</g>
<!-- Node437&#45;&gt;Node272 -->
<g id="edge39" class="edge">
<title>Node437&#45;&gt;Node272</title>
<path fill="none" stroke="midnightblue" d="M332.01,-304.4C346.57,-282.55 382.03,-227.02 402,-176 426.52,-113.37 390.41,-76.53 438,-29 446.16,-20.85 457.2,-15.98 468.4,-13.13"/>
<polygon fill="midnightblue" stroke="midnightblue" points="469.12,-16.55 478.21,-11.11 467.71,-9.7 469.12,-16.55"/>
</g>
<!-- Node272&#45;&gt;Node6 -->
<g id="edge40" class="edge">
<title>Node272&#45;&gt;Node6</title>
<path fill="none" stroke="midnightblue" d="M555.61,-14.96C568.95,-17.79 583.68,-22.18 596,-29 631.62,-48.72 663.45,-84.92 680.46,-106.49"/>
<polygon fill="midnightblue" stroke="midnightblue" points="677.75,-108.7 686.62,-114.49 683.29,-104.43 677.75,-108.7"/>
</g>
<!-- Node272&#45;&gt;Node76 -->
<g id="edge41" class="edge">
<title>Node272&#45;&gt;Node76</title>
<path fill="none" stroke="midnightblue" d="M555.67,-10.76C570.13,-13 585.63,-18.08 596,-29 655.18,-91.32 590.4,-143.79 632,-219 641.19,-235.61 656.98,-250.1 670.26,-260.3"/>
<polygon fill="midnightblue" stroke="midnightblue" points="668.4,-263.28 678.53,-266.37 672.54,-257.64 668.4,-263.28"/>
</g>
<!-- Node438&#45;&gt;Node75 -->
<g id="edge46" class="edge">
<title>Node438&#45;&gt;Node75</title>
<path fill="none" stroke="midnightblue" d="M329.23,-950.64C340.55,-978.34 377.49,-1058.11 438,-1088 513.22,-1125.15 615.38,-1090.14 664.62,-1068.77"/>
<polygon fill="midnightblue" stroke="midnightblue" points="666.31,-1071.85 674.02,-1064.58 663.46,-1065.46 666.31,-1071.85"/>
</g>
<!-- Node438&#45;&gt;Node68 -->
<g id="edge45" class="edge">
<title>Node438&#45;&gt;Node68</title>
<path fill="none" stroke="midnightblue" d="M358.35,-950.51C411.87,-964.01 519.56,-982.78 596,-941 648.13,-912.51 676.51,-842.91 687.73,-808.68"/>
<polygon fill="midnightblue" stroke="midnightblue" points="691.15,-809.49 690.78,-798.9 684.46,-807.4 691.15,-809.49"/>
</g>
<!-- Node439 -->
<g id="node26" class="node">
<title>Node439</title>
<g id="a_node26"><a xlink:href="quickjs_8c.html#a07acd485a57197356906928a788a0644" target="_top" xlink:title=" ">
<polygon fill="none" stroke="red" points="469.5,-912.5 469.5,-931.5 564.5,-931.5 564.5,-912.5 469.5,-912.5"/>
<text text-anchor="middle" x="517" y="-919.5" font-family="Helvetica,sans-Serif" font-size="10.00">JS_ToLengthFree</text>
</a>
</g>
</g>
<!-- Node438&#45;&gt;Node439 -->
<g id="edge47" class="edge">
<title>Node438&#45;&gt;Node439</title>
<path fill="none" stroke="midnightblue" d="M371.61,-936.4C398,-933.77 431.3,-930.45 459.28,-927.66"/>
<polygon fill="midnightblue" stroke="midnightblue" points="459.72,-931.13 469.32,-926.66 459.02,-924.17 459.72,-931.13"/>
</g>
<!-- Node439&#45;&gt;Node57 -->
<g id="edge48" class="edge">
<title>Node439&#45;&gt;Node57</title>
<path fill="none" stroke="midnightblue" d="M534.84,-912.43C552.34,-901.71 579.43,-882.81 596,-860 603.54,-849.62 665.62,-676.98 686.6,-618.32"/>
<polygon fill="midnightblue" stroke="midnightblue" points="689.95,-619.36 690.02,-608.76 683.36,-617 689.95,-619.36"/>
</g>
<!-- Node443 -->
<g id="node28" class="node">
<title>Node443</title>
<g id="a_node28"><a xlink:href="quickjs_8c.html#a91b2b06caf6cc28b1edf48334b95b51a" target="_top" xlink:title=" ">
<polygon fill="none" stroke="red" points="275.5,-114.5 275.5,-133.5 373.5,-133.5 373.5,-114.5 275.5,-114.5"/>
<text text-anchor="middle" x="324.5" y="-121.5" font-family="Helvetica,sans-Serif" font-size="10.00">js_proxy_isArray</text>
</a>
</g>
</g>
<!-- Node442&#45;&gt;Node443 -->
<g id="edge50" class="edge">
<title>Node442&#45;&gt;Node443</title>
<path fill="none" stroke="midnightblue" d="M211.1,-124C226.96,-124 246.68,-124 265.16,-124"/>
<polygon fill="midnightblue" stroke="midnightblue" points="265.26,-127.5 275.26,-124 265.26,-120.5 265.26,-127.5"/>
</g>
<!-- Node444&#45;&gt;Node5 -->
<g id="edge56" class="edge">
<title>Node444&#45;&gt;Node5</title>
<path fill="none" stroke="midnightblue" d="M333.75,-855.54C351.01,-874.88 393.11,-918.74 438,-941 496.14,-969.83 568.92,-984.24 621.91,-991.33"/>
<polygon fill="midnightblue" stroke="midnightblue" points="621.54,-994.81 631.9,-992.62 622.43,-987.87 621.54,-994.81"/>
</g>
<!-- Node444&#45;&gt;Node75 -->
<g id="edge61" class="edge">
<title>Node444&#45;&gt;Node75</title>
<path fill="none" stroke="midnightblue" d="M338.68,-855.5C355.83,-868.56 385.54,-893.67 402,-922 432.77,-974.94 389.37,-1017.78 438,-1055 501.7,-1103.75 602.91,-1083.63 656.84,-1067.61"/>
<polygon fill="midnightblue" stroke="midnightblue" points="658.13,-1070.87 666.65,-1064.58 656.07,-1064.18 658.13,-1070.87"/>
</g>
<!-- Node444&#45;&gt;Node76 -->
<g id="edge65" class="edge">
<title>Node444&#45;&gt;Node76</title>
<path fill="none" stroke="midnightblue" d="M341.8,-836.38C389.5,-807.32 529.58,-715.23 596,-599 634.53,-531.57 609.35,-502.29 632,-428 647.01,-378.77 671.49,-323.26 684.58,-294.9"/>
<polygon fill="midnightblue" stroke="midnightblue" points="687.8,-296.28 688.85,-285.74 681.45,-293.33 687.8,-296.28"/>
</g>
<!-- Node444&#45;&gt;Node56 -->
<g id="edge57" class="edge">
<title>Node444&#45;&gt;Node56</title>
<path fill="none" stroke="midnightblue" d="M388.51,-850.31C458.94,-853.68 566.93,-853.98 596,-827 636.66,-789.27 616.2,-633.17 632,-580 644.73,-537.16 668.95,-490.48 682.9,-465.41"/>
<polygon fill="midnightblue" stroke="midnightblue" points="685.99,-467.06 687.86,-456.63 679.89,-463.61 685.99,-467.06"/>
</g>
<!-- Node444&#45;&gt;Node68 -->
<g id="edge58" class="edge">
<title>Node444&#45;&gt;Node68</title>
<path fill="none" stroke="midnightblue" d="M360.27,-855.58C412.79,-868.34 514.84,-886.42 596,-860 628.63,-849.38 659.45,-823.25 677.39,-805.83"/>
<polygon fill="midnightblue" stroke="midnightblue" points="680.1,-808.07 684.69,-798.53 675.15,-803.13 680.1,-808.07"/>
</g>
<!-- Node444&#45;&gt;Node135 -->
<g id="edge59" class="edge">
<title>Node444&#45;&gt;Node135</title>
<path fill="none" stroke="midnightblue" d="M327.25,-836.43C334.65,-798.18 366.29,-653.82 438,-561 451.58,-543.42 472,-528.77 488.53,-518.73"/>
<polygon fill="midnightblue" stroke="midnightblue" points="490.38,-521.7 497.25,-513.63 486.85,-515.65 490.38,-521.7"/>
</g>
<!-- Node444&#45;&gt;Node306 -->
<g id="edge60" class="edge">
<title>Node444&#45;&gt;Node306</title>
<path fill="none" stroke="midnightblue" d="M373.57,-836.41C400.27,-831.08 433.59,-824.44 461.29,-818.91"/>
<polygon fill="midnightblue" stroke="midnightblue" points="462.09,-822.32 471.22,-816.93 460.72,-815.46 462.09,-822.32"/>
</g>
<!-- Node445 -->
<g id="node30" class="node">
<title>Node445</title>
<g id="a_node30"><a xlink:href="quickjs_8c.html#aa641af3a921335927dab07dc83285917" target="_top" xlink:title=" ">
<polygon fill="none" stroke="red" points="465,-1026.5 465,-1045.5 569,-1045.5 569,-1026.5 465,-1026.5"/>
<text text-anchor="middle" x="517" y="-1033.5" font-family="Helvetica,sans-Serif" font-size="10.00">JS_NewAtomInt64</text>
</a>
</g>
</g>
<!-- Node444&#45;&gt;Node445 -->
<g id="edge62" class="edge">
<title>Node444&#45;&gt;Node445</title>
<path fill="none" stroke="midnightblue" d="M337.92,-855.58C354.48,-868.9 383.82,-894.52 402,-922 425.77,-957.93 406.31,-982.81 438,-1012 443.04,-1016.64 448.96,-1020.39 455.25,-1023.41"/>
<polygon fill="midnightblue" stroke="midnightblue" points="454.09,-1026.72 464.67,-1027.34 456.79,-1020.26 454.09,-1026.72"/>
</g>
<!-- Node445&#45;&gt;Node5 -->
<g id="edge63" class="edge">
<title>Node445&#45;&gt;Node5</title>
<path fill="none" stroke="midnightblue" d="M562.29,-1026.41C585.76,-1021.33 614.78,-1015.04 639.56,-1009.68"/>
<polygon fill="midnightblue" stroke="midnightblue" points="640.5,-1013.06 649.53,-1007.52 639.02,-1006.22 640.5,-1013.06"/>
</g>
<!-- Node445&#45;&gt;Node75 -->
<g id="edge64" class="edge">
<title>Node445&#45;&gt;Node75</title>
<path fill="none" stroke="midnightblue" d="M569.23,-1041.55C591.69,-1043.98 618.04,-1046.83 640.68,-1049.28"/>
<polygon fill="midnightblue" stroke="midnightblue" points="640.47,-1052.78 650.79,-1050.38 641.23,-1045.82 640.47,-1052.78"/>
</g>
</g>
</svg>
