<?xml version="1.0" encoding="UTF-8" standalone="no"?>
<!DOCTYPE svg PUBLIC "-//W3C//DTD SVG 1.1//EN"
 "http://www.w3.org/Graphics/SVG/1.1/DTD/svg11.dtd">
<!-- Generated by graphviz version 2.43.0 (0)
 -->
<!-- Title: get_shape_prop Pages: 1 -->
<svg width="1358pt" height="757pt"
 viewBox="0.00 0.00 1358.00 756.58" xmlns="http://www.w3.org/2000/svg" xmlns:xlink="http://www.w3.org/1999/xlink">
<g id="graph0" class="graph" transform="scale(1 1) rotate(0) translate(4 752.58)">
<title>get_shape_prop</title>
<!-- Node1 -->
<g id="node1" class="node">
<title>Node1</title>
<g id="a_node1"><a xlink:title=" ">
<polygon fill="#bfbfbf" stroke="black" points="1256,-361.5 1256,-380.5 1350,-380.5 1350,-361.5 1256,-361.5"/>
<text text-anchor="middle" x="1303" y="-368.5" font-family="Helvetica,sans-Serif" font-size="10.00">get_shape_prop</text>
</a>
</g>
</g>
<!-- Node2 -->
<g id="node2" class="node">
<title>Node2</title>
<g id="a_node2"><a xlink:href="quickjs_8c.html#adbffd820afae76d09c641b5b911e3600" target="_top" xlink:title=" ">
<polygon fill="none" stroke="black" points="717.5,-646.5 717.5,-665.5 852.5,-665.5 852.5,-646.5 717.5,-646.5"/>
<text text-anchor="middle" x="785" y="-653.5" font-family="Helvetica,sans-Serif" font-size="10.00">add_fast_array_element</text>
</a>
</g>
</g>
<!-- Node1&#45;&gt;Node2 -->
<g id="edge1" class="edge">
<title>Node1&#45;&gt;Node2</title>
<path fill="none" stroke="midnightblue" d="M1302.69,-390.81C1303.21,-440.79 1296.88,-572.23 1220,-632 1164.52,-675.13 960.05,-668.21 852.74,-661.23"/>
<polygon fill="midnightblue" stroke="midnightblue" points="1306.18,-390.61 1302.47,-380.69 1299.18,-390.76 1306.18,-390.61"/>
</g>
<!-- Node3 -->
<g id="node3" class="node">
<title>Node3</title>
<g id="a_node3"><a xlink:href="quickjs_8c.html#ad5565bb5cfd5321f181573257f3b0c91" target="_top" xlink:title=" ">
<polygon fill="none" stroke="red" points="550,-570.5 550,-589.5 654,-589.5 654,-570.5 550,-570.5"/>
<text text-anchor="middle" x="602" y="-577.5" font-family="Helvetica,sans-Serif" font-size="10.00">JS_CreateProperty</text>
</a>
</g>
</g>
<!-- Node1&#45;&gt;Node3 -->
<g id="edge42" class="edge">
<title>Node1&#45;&gt;Node3</title>
<path fill="none" stroke="midnightblue" d="M1300.67,-390.99C1296.68,-433.21 1280.97,-531.36 1220,-577 1131.67,-643.12 785.98,-604.77 654.31,-587.27"/>
<polygon fill="midnightblue" stroke="midnightblue" points="1304.17,-391.12 1301.5,-380.87 1297.19,-390.55 1304.17,-391.12"/>
</g>
<!-- Node4 -->
<g id="node4" class="node">
<title>Node4</title>
<g id="a_node4"><a xlink:href="quickjs_8c.html#ab50618f1bf78e444caa6da0e3e2785d7" target="_top" xlink:title=" ">
<polygon fill="none" stroke="red" points="351.5,-494.5 351.5,-513.5 455.5,-513.5 455.5,-494.5 351.5,-494.5"/>
<text text-anchor="middle" x="403.5" y="-501.5" font-family="Helvetica,sans-Serif" font-size="10.00">JS_DefineProperty</text>
</a>
</g>
</g>
<!-- Node1&#45;&gt;Node4 -->
<g id="edge43" class="edge">
<title>Node1&#45;&gt;Node4</title>
<path fill="none" stroke="midnightblue" d="M1292.87,-389.92C1280.17,-413.95 1254.76,-454.62 1220,-474 1121.68,-528.81 1081.07,-504 968.5,-504 968.5,-504 968.5,-504 784,-504 666.56,-504 528.68,-504 455.75,-504"/>
<polygon fill="midnightblue" stroke="midnightblue" points="1296.12,-391.25 1297.52,-380.75 1289.88,-388.08 1296.12,-391.25"/>
</g>
<!-- Node133 -->
<g id="node6" class="node">
<title>Node133</title>
<g id="a_node6"><a xlink:href="quickjs_8c.html#aa40a5354bee3b56e05a71244910bcc78" target="_top" xlink:title=" ">
<polygon fill="none" stroke="red" points="0,-684.5 0,-703.5 115,-703.5 115,-684.5 0,-684.5"/>
<text text-anchor="middle" x="57.5" y="-691.5" font-family="Helvetica,sans-Serif" font-size="10.00">build_for_in_iterator</text>
</a>
</g>
</g>
<!-- Node1&#45;&gt;Node133 -->
<g id="edge20" class="edge">
<title>Node1&#45;&gt;Node133</title>
<path fill="none" stroke="midnightblue" d="M1299.28,-390.74C1290.68,-450.2 1262.11,-625.7 1220,-662 1134.65,-735.56 1081.18,-694 968.5,-694 968.5,-694 968.5,-694 402.5,-694 301.27,-694 183.29,-694 115.11,-694"/>
<polygon fill="midnightblue" stroke="midnightblue" points="1302.76,-391.15 1300.69,-380.76 1295.83,-390.17 1302.76,-391.15"/>
</g>
<!-- Node615 -->
<g id="node8" class="node">
<title>Node615</title>
<g id="a_node8"><a xlink:href="quickjs_8c.html#a3cadcaa2bd1e3f9359f1c006f396cfa0" target="_top" xlink:title=" ">
<polygon fill="none" stroke="black" points="909.5,-380.5 909.5,-399.5 1025.5,-399.5 1025.5,-380.5 909.5,-380.5"/>
<text text-anchor="middle" x="967.5" y="-387.5" font-family="Helvetica,sans-Serif" font-size="10.00">add_shape_property</text>
</a>
</g>
</g>
<!-- Node1&#45;&gt;Node615 -->
<g id="edge12" class="edge">
<title>Node1&#45;&gt;Node615</title>
<path fill="none" stroke="midnightblue" d="M1245.74,-374.21C1184.57,-377.69 1087.33,-383.23 1025.77,-386.74"/>
<polygon fill="midnightblue" stroke="midnightblue" points="1246.19,-377.69 1255.98,-373.62 1245.8,-370.7 1246.19,-377.69"/>
</g>
<!-- Node618 -->
<g id="node14" class="node">
<title>Node618</title>
<g id="a_node14"><a xlink:href="quickjs_8c.html#a2b9a2014cb970af5b5b7dde00afbdffa" target="_top" xlink:title=" ">
<polygon fill="none" stroke="red" points="738,-532.5 738,-551.5 832,-551.5 832,-532.5 738,-532.5"/>
<text text-anchor="middle" x="785" y="-539.5" font-family="Helvetica,sans-Serif" font-size="10.00">delete_property</text>
</a>
</g>
</g>
<!-- Node1&#45;&gt;Node618 -->
<g id="edge21" class="edge">
<title>Node1&#45;&gt;Node618</title>
<path fill="none" stroke="midnightblue" d="M1297.55,-390.56C1288.92,-423.41 1266.53,-488.92 1220,-518 1156.49,-557.7 930.54,-550.26 832.24,-544.92"/>
<polygon fill="midnightblue" stroke="midnightblue" points="1300.96,-391.32 1299.96,-380.77 1294.17,-389.64 1300.96,-391.32"/>
</g>
<!-- Node360 -->
<g id="node15" class="node">
<title>Node360</title>
<g id="a_node15"><a xlink:href="quickjs_8c.html#ad55fe6f65ecb58e327ac9e9b4ab475f5" target="_top" xlink:title=" ">
<polygon fill="none" stroke="black" points="553,-532.5 553,-551.5 651,-551.5 651,-532.5 553,-532.5"/>
<text text-anchor="middle" x="602" y="-539.5" font-family="Helvetica,sans-Serif" font-size="10.00">set_array_length</text>
</a>
</g>
</g>
<!-- Node1&#45;&gt;Node360 -->
<g id="edge52" class="edge">
<title>Node1&#45;&gt;Node360</title>
<path fill="none" stroke="midnightblue" d="M1299.19,-390.82C1292.73,-428.25 1273.08,-508.89 1220,-546 1126.89,-611.09 822.13,-571.36 709,-561 688.24,-559.1 665.46,-555.25 646.35,-551.51"/>
<polygon fill="midnightblue" stroke="midnightblue" points="1302.69,-391.11 1300.79,-380.69 1295.77,-390.02 1302.69,-391.11"/>
</g>
<!-- Node644 -->
<g id="node16" class="node">
<title>Node644</title>
<g id="a_node16"><a xlink:href="quickjs_8c.html#a06b76f5124fd985e35f4c652fd018d6d" target="_top" xlink:title=" ">
<polygon fill="none" stroke="red" points="731.5,-285.5 731.5,-304.5 838.5,-304.5 838.5,-285.5 731.5,-285.5"/>
<text text-anchor="middle" x="785" y="-292.5" font-family="Helvetica,sans-Serif" font-size="10.00">find_own_property</text>
</a>
</g>
</g>
<!-- Node1&#45;&gt;Node644 -->
<g id="edge25" class="edge">
<title>Node1&#45;&gt;Node644</title>
<path fill="none" stroke="midnightblue" d="M1245.81,-362.72C1145.43,-347.94 936.7,-317.2 838.82,-302.78"/>
<polygon fill="midnightblue" stroke="midnightblue" points="1245.35,-366.19 1255.75,-364.19 1246.37,-359.27 1245.35,-366.19"/>
</g>
<!-- Node649 -->
<g id="node19" class="node">
<title>Node649</title>
<g id="a_node19"><a xlink:href="quickjs_8c.html#afdc6d90129958f6258bae1505495869f" target="_top" xlink:title=" ">
<polygon fill="none" stroke="red" points="1090.5,-304.5 1090.5,-323.5 1203.5,-323.5 1203.5,-304.5 1090.5,-304.5"/>
<text text-anchor="middle" x="1147" y="-311.5" font-family="Helvetica,sans-Serif" font-size="10.00">find_own_property1</text>
</a>
</g>
</g>
<!-- Node1&#45;&gt;Node649 -->
<g id="edge33" class="edge">
<title>Node1&#45;&gt;Node649</title>
<path fill="none" stroke="midnightblue" d="M1269.79,-357.51C1254.74,-351.35 1236.54,-344.08 1220,-338 1206.27,-332.96 1190.91,-327.77 1177.92,-323.52"/>
<polygon fill="midnightblue" stroke="midnightblue" points="1268.59,-360.8 1279.17,-361.38 1271.26,-354.33 1268.59,-360.8"/>
</g>
<!-- Node654 -->
<g id="node20" class="node">
<title>Node654</title>
<g id="a_node20"><a xlink:href="quickjs_8c.html#a41a4918c15192dc3489dc3ecb3fdc24d" target="_top" xlink:title=" ">
<polygon fill="none" stroke="red" points="1111.5,-266.5 1111.5,-285.5 1182.5,-285.5 1182.5,-266.5 1111.5,-266.5"/>
<text text-anchor="middle" x="1147" y="-273.5" font-family="Helvetica,sans-Serif" font-size="10.00">free_object</text>
</a>
</g>
</g>
<!-- Node1&#45;&gt;Node654 -->
<g id="edge34" class="edge">
<title>Node1&#45;&gt;Node654</title>
<path fill="none" stroke="midnightblue" d="M1287.97,-353.77C1272.93,-336.42 1247.48,-310.11 1220,-295 1208.56,-288.71 1194.94,-284.42 1182.64,-281.54"/>
<polygon fill="midnightblue" stroke="midnightblue" points="1285.36,-356.1 1294.49,-361.48 1290.71,-351.58 1285.36,-356.1"/>
</g>
<!-- Node139 -->
<g id="node21" class="node">
<title>Node139</title>
<g id="a_node21"><a xlink:href="quickjs_8c.html#a3d640b89712ebda808c0c3eca9849674" target="_top" xlink:title=" ">
<polygon fill="none" stroke="red" points="1105,-228.5 1105,-247.5 1189,-247.5 1189,-228.5 1105,-228.5"/>
<text text-anchor="middle" x="1147" y="-235.5" font-family="Helvetica,sans-Serif" font-size="10.00">js_array_push</text>
</a>
</g>
</g>
<!-- Node1&#45;&gt;Node139 -->
<g id="edge35" class="edge">
<title>Node1&#45;&gt;Node139</title>
<path fill="none" stroke="midnightblue" d="M1293.48,-351.97C1281.04,-326.42 1255.48,-281.41 1220,-257 1210.95,-250.77 1199.97,-246.58 1189.34,-243.77"/>
<polygon fill="midnightblue" stroke="midnightblue" points="1290.45,-353.75 1297.86,-361.32 1296.79,-350.78 1290.45,-353.75"/>
</g>
<!-- Node763 -->
<g id="node22" class="node">
<title>Node763</title>
<g id="a_node22"><a xlink:href="quickjs_8c.html#a8e34657169da77ae6a386311351ed3de" target="_top" xlink:title=" ">
<polygon fill="none" stroke="black" points="1101.5,-418.5 1101.5,-437.5 1192.5,-437.5 1192.5,-418.5 1101.5,-418.5"/>
<text text-anchor="middle" x="1147" y="-425.5" font-family="Helvetica,sans-Serif" font-size="10.00">js_clone_shape</text>
</a>
</g>
</g>
<!-- Node1&#45;&gt;Node763 -->
<g id="edge36" class="edge">
<title>Node1&#45;&gt;Node763</title>
<path fill="none" stroke="midnightblue" d="M1269.79,-384.49C1254.74,-390.65 1236.54,-397.92 1220,-404 1206.27,-409.04 1190.91,-414.23 1177.92,-418.48"/>
<polygon fill="midnightblue" stroke="midnightblue" points="1271.26,-387.67 1279.17,-380.62 1268.59,-381.2 1271.26,-387.67"/>
</g>
<!-- Node745 -->
<g id="node23" class="node">
<title>Node745</title>
<g id="a_node23"><a xlink:href="quickjs_8c.html#a3dd8e78607dbc729614deacf55901b95" target="_top" xlink:title=" ">
<polygon fill="none" stroke="red" points="897,-456.5 897,-475.5 1038,-475.5 1038,-456.5 897,-456.5"/>
<text text-anchor="middle" x="967.5" y="-463.5" font-family="Helvetica,sans-Serif" font-size="10.00">js_shape_prepare_update</text>
</a>
</g>
</g>
<!-- Node1&#45;&gt;Node745 -->
<g id="edge49" class="edge">
<title>Node1&#45;&gt;Node745</title>
<path fill="none" stroke="midnightblue" d="M1288.95,-388.7C1274.4,-406.9 1249.05,-434.33 1220,-447 1162.41,-472.13 1090.36,-475.06 1038.15,-472.78"/>
<polygon fill="midnightblue" stroke="midnightblue" points="1291.86,-390.66 1295.2,-380.61 1286.32,-386.39 1291.86,-390.66"/>
</g>
<!-- Node764 -->
<g id="node24" class="node">
<title>Node764</title>
<g id="a_node24"><a xlink:href="quickjs_8c.html#a58d5c786f2a45040f0c81149e92c2378" target="_top" xlink:title=" ">
<polygon fill="none" stroke="black" points="1074,-190.5 1074,-209.5 1220,-209.5 1220,-190.5 1074,-190.5"/>
<text text-anchor="middle" x="1147" y="-197.5" font-family="Helvetica,sans-Serif" font-size="10.00">JS_ComputeMemoryUsage</text>
</a>
</g>
</g>
<!-- Node1&#45;&gt;Node764 -->
<g id="edge41" class="edge">
<title>Node1&#45;&gt;Node764</title>
<path fill="none" stroke="midnightblue" d="M1296.93,-351.36C1287.49,-318.77 1264.04,-253.68 1220,-219 1215.12,-215.16 1209.55,-212.09 1203.7,-209.64"/>
<polygon fill="midnightblue" stroke="midnightblue" points="1293.68,-352.72 1299.7,-361.43 1300.43,-350.86 1293.68,-352.72"/>
</g>
<!-- Node765 -->
<g id="node25" class="node">
<title>Node765</title>
<g id="a_node25"><a xlink:href="quickjs_8c.html#a315f18f552c506d05a36ab22649c8e3f" target="_top" xlink:title=" ">
<polygon fill="none" stroke="red" points="1101,-152.5 1101,-171.5 1193,-171.5 1193,-152.5 1101,-152.5"/>
<text text-anchor="middle" x="1147" y="-159.5" font-family="Helvetica,sans-Serif" font-size="10.00">JS_DumpObject</text>
</a>
</g>
</g>
<!-- Node1&#45;&gt;Node765 -->
<g id="edge44" class="edge">
<title>Node1&#45;&gt;Node765</title>
<path fill="none" stroke="midnightblue" d="M1299.27,-351.43C1292.84,-312.82 1273.04,-226.65 1220,-181 1212.46,-174.51 1202.94,-170.2 1193.31,-167.35"/>
<polygon fill="midnightblue" stroke="midnightblue" points="1295.83,-352.04 1300.81,-361.39 1302.74,-350.97 1295.83,-352.04"/>
</g>
<!-- Node258 -->
<g id="node26" class="node">
<title>Node258</title>
<g id="a_node26"><a xlink:href="quickjs_8c.html#ad4da6445b7b08b23f5464ae9b51705bc" target="_top" xlink:title=" ">
<polygon fill="none" stroke="red" points="1104.5,-114.5 1104.5,-133.5 1189.5,-133.5 1189.5,-114.5 1104.5,-114.5"/>
<text text-anchor="middle" x="1147" y="-121.5" font-family="Helvetica,sans-Serif" font-size="10.00">js_for_in_next</text>
</a>
</g>
</g>
<!-- Node1&#45;&gt;Node258 -->
<g id="edge45" class="edge">
<title>Node1&#45;&gt;Node258</title>
<path fill="none" stroke="midnightblue" d="M1300.83,-350.95C1297.13,-306.62 1281.91,-199.73 1220,-143 1211.71,-135.4 1200.74,-130.77 1189.86,-127.97"/>
<polygon fill="midnightblue" stroke="midnightblue" points="1297.35,-351.31 1301.56,-361.03 1304.33,-350.81 1297.35,-351.31"/>
</g>
<!-- Node742 -->
<g id="node27" class="node">
<title>Node742</title>
<g id="a_node27"><a xlink:href="quickjs_8c.html#a6f921a6312ada5c7da7b485e24d37f54" target="_top" xlink:title=" ">
<polygon fill="none" stroke="red" points="1102,-76.5 1102,-95.5 1192,-95.5 1192,-76.5 1102,-76.5"/>
<text text-anchor="middle" x="1147" y="-83.5" font-family="Helvetica,sans-Serif" font-size="10.00">js_free_shape0</text>
</a>
</g>
</g>
<!-- Node1&#45;&gt;Node742 -->
<g id="edge46" class="edge">
<title>Node1&#45;&gt;Node742</title>
<path fill="none" stroke="midnightblue" d="M1302.03,-351.08C1300.98,-301.81 1291.17,-173.31 1220,-105 1212.45,-97.75 1202.46,-93.18 1192.35,-90.33"/>
<polygon fill="midnightblue" stroke="midnightblue" points="1298.53,-351.37 1302.14,-361.33 1305.53,-351.29 1298.53,-351.37"/>
</g>
<!-- Node248 -->
<g id="node28" class="node">
<title>Node248</title>
<g id="a_node28"><a xlink:href="quickjs_8c.html#a176ac5ff56a118a0b1b2566798d28823" target="_top" xlink:title=" ">
<polygon fill="none" stroke="red" points="312,-722.5 312,-741.5 495,-741.5 495,-722.5 312,-722.5"/>
<text text-anchor="middle" x="403.5" y="-729.5" font-family="Helvetica,sans-Serif" font-size="10.00">JS_GetOwnPropertyNamesInternal</text>
</a>
</g>
</g>
<!-- Node1&#45;&gt;Node248 -->
<g id="edge47" class="edge">
<title>Node1&#45;&gt;Node248</title>
<path fill="none" stroke="midnightblue" d="M1300.14,-390.82C1293.53,-456.56 1268.96,-665.61 1220,-708 1135.11,-781.5 1080.79,-732 968.5,-732 968.5,-732 968.5,-732 784,-732 685.34,-732 572.24,-732 495.36,-732"/>
<polygon fill="midnightblue" stroke="midnightblue" points="1303.65,-390.89 1301.13,-380.6 1296.68,-390.21 1303.65,-390.89"/>
</g>
<!-- Node218 -->
<g id="node29" class="node">
<title>Node218</title>
<g id="a_node29"><a xlink:href="quickjs_8c.html#a3da261d6aeb1d35f3fb47a0076752a57" target="_top" xlink:title=" ">
<polygon fill="none" stroke="red" points="1094.5,-38.5 1094.5,-57.5 1199.5,-57.5 1199.5,-38.5 1094.5,-38.5"/>
<text text-anchor="middle" x="1147" y="-45.5" font-family="Helvetica,sans-Serif" font-size="10.00">JS_WriteObjectTag</text>
</a>
</g>
</g>
<!-- Node1&#45;&gt;Node218 -->
<g id="edge50" class="edge">
<title>Node1&#45;&gt;Node218</title>
<path fill="none" stroke="midnightblue" d="M1299.25,-351.04C1290.44,-290.07 1261.15,-107.92 1220,-67 1214.32,-61.35 1207.16,-57.32 1199.59,-54.46"/>
<polygon fill="midnightblue" stroke="midnightblue" points="1295.82,-351.84 1300.69,-361.25 1302.75,-350.86 1295.82,-351.84"/>
</g>
<!-- Node767 -->
<g id="node30" class="node">
<title>Node767</title>
<g id="a_node30"><a xlink:href="quickjs_8c.html#aa863a9d565bac49a2a76d10009eabd5c" target="_top" xlink:title=" ">
<polygon fill="none" stroke="red" points="1104,-0.5 1104,-19.5 1190,-19.5 1190,-0.5 1104,-0.5"/>
<text text-anchor="middle" x="1147" y="-7.5" font-family="Helvetica,sans-Serif" font-size="10.00">mark_children</text>
</a>
</g>
</g>
<!-- Node1&#45;&gt;Node767 -->
<g id="edge51" class="edge">
<title>Node1&#45;&gt;Node767</title>
<path fill="none" stroke="midnightblue" d="M1299.9,-351.18C1292.56,-285.43 1265.9,-75.95 1220,-29 1212.05,-20.86 1201.05,-16.08 1190.05,-13.3"/>
<polygon fill="midnightblue" stroke="midnightblue" points="1296.45,-351.85 1301.02,-361.41 1303.41,-351.09 1296.45,-351.85"/>
</g>
<!-- Node2&#45;&gt;Node3 -->
<g id="edge2" class="edge">
<title>Node2&#45;&gt;Node3</title>
<path fill="none" stroke="midnightblue" d="M735.49,-643.24C726.45,-640.1 717.26,-636.36 709,-632 691.07,-622.54 690.83,-613.64 673,-604 662.15,-598.13 649.59,-593.29 638.14,-589.53"/>
<polygon fill="midnightblue" stroke="midnightblue" points="734.59,-646.63 745.18,-646.42 736.77,-639.98 734.59,-646.63"/>
</g>
<!-- Node132 -->
<g id="node5" class="node">
<title>Node132</title>
<g id="a_node5"><a xlink:href="quickjs_8c.html#ad7f03358a8088ca920ab308225c6b2e6" target="_top" xlink:title=" ">
<polygon fill="none" stroke="red" points="151,-532.5 151,-551.5 276,-551.5 276,-532.5 151,-532.5"/>
<text text-anchor="middle" x="213.5" y="-539.5" font-family="Helvetica,sans-Serif" font-size="10.00">JS_SetPropertyInternal</text>
</a>
</g>
</g>
<!-- Node2&#45;&gt;Node132 -->
<g id="edge10" class="edge">
<title>Node2&#45;&gt;Node132</title>
<path fill="none" stroke="midnightblue" d="M707.27,-645.13C593.37,-628.69 385.17,-597.36 312,-578 285.49,-570.98 256.08,-559.61 236.57,-551.52"/>
<polygon fill="midnightblue" stroke="midnightblue" points="706.92,-648.62 717.32,-646.58 707.92,-641.69 706.92,-648.62"/>
</g>
<!-- Node165 -->
<g id="node7" class="node">
<title>Node165</title>
<g id="a_node7"><a xlink:href="quickjs_8c.html#aee75cc1546e19479e3ccda58f3b50a96" target="_top" xlink:title=" ">
<polygon fill="none" stroke="red" points="0,-532.5 0,-551.5 115,-551.5 115,-532.5 0,-532.5"/>
<text text-anchor="middle" x="57.5" y="-539.5" font-family="Helvetica,sans-Serif" font-size="10.00">JS_SetPropertyValue</text>
</a>
</g>
</g>
<!-- Node2&#45;&gt;Node165 -->
<g id="edge11" class="edge">
<title>Node2&#45;&gt;Node165</title>
<path fill="none" stroke="midnightblue" d="M707.14,-653.72C656.91,-651.74 589.94,-648.19 531,-642 433.04,-631.71 408.45,-627.99 312,-608 231.84,-591.39 139.08,-565.51 91.07,-551.6"/>
<polygon fill="midnightblue" stroke="midnightblue" points="707.15,-657.22 717.27,-654.11 707.41,-650.23 707.15,-657.22"/>
</g>
<!-- Node3&#45;&gt;Node4 -->
<g id="edge3" class="edge">
<title>Node3&#45;&gt;Node4</title>
<path fill="none" stroke="midnightblue" d="M551.4,-567.59C544.49,-565.55 537.53,-563.34 531,-561 491.77,-546.94 447.79,-525.85 423.4,-513.66"/>
<polygon fill="midnightblue" stroke="midnightblue" points="550.84,-571.07 561.42,-570.43 552.75,-564.33 550.84,-571.07"/>
</g>
<!-- Node3&#45;&gt;Node132 -->
<g id="edge9" class="edge">
<title>Node3&#45;&gt;Node132</title>
<path fill="none" stroke="midnightblue" d="M539.55,-575.97C480.98,-571.87 390.34,-564.87 312,-556 300.36,-554.68 287.97,-553.07 276.06,-551.41"/>
<polygon fill="midnightblue" stroke="midnightblue" points="539.53,-579.47 549.75,-576.67 540.02,-572.49 539.53,-579.47"/>
</g>
<!-- Node4&#45;&gt;Node132 -->
<g id="edge4" class="edge">
<title>Node4&#45;&gt;Node132</title>
<path fill="none" stroke="midnightblue" d="M345.06,-515.61C318.33,-521.01 286.91,-527.36 261.6,-532.48"/>
<polygon fill="midnightblue" stroke="midnightblue" points="345.95,-519 355.06,-513.59 344.56,-512.14 345.95,-519"/>
</g>
<!-- Node132&#45;&gt;Node133 -->
<g id="edge5" class="edge">
<title>Node132&#45;&gt;Node133</title>
<path fill="none" stroke="midnightblue" d="M195.49,-558.79C163.12,-590.74 93.62,-659.33 68.13,-684.5"/>
<polygon fill="midnightblue" stroke="midnightblue" points="198.21,-561.02 202.87,-551.51 193.29,-556.04 198.21,-561.02"/>
</g>
<!-- Node132&#45;&gt;Node165 -->
<g id="edge6" class="edge">
<title>Node132&#45;&gt;Node165</title>
<path fill="none" stroke="midnightblue" d="M140.5,-535.26C132.03,-535.22 123.49,-535.29 115.28,-535.46"/>
<polygon fill="midnightblue" stroke="midnightblue" points="140.71,-538.77 150.75,-535.37 140.79,-531.77 140.71,-538.77"/>
</g>
<!-- Node165&#45;&gt;Node4 -->
<g id="edge7" class="edge">
<title>Node165&#45;&gt;Node4</title>
<path fill="none" stroke="midnightblue" d="M109.35,-530.35C122.83,-527.59 137.41,-524.9 151,-523 219.95,-513.35 300.27,-508.36 351.24,-505.96"/>
<polygon fill="midnightblue" stroke="midnightblue" points="108.36,-526.98 99.29,-532.46 109.79,-533.83 108.36,-526.98"/>
</g>
<!-- Node165&#45;&gt;Node132 -->
<g id="edge8" class="edge">
<title>Node165&#45;&gt;Node132</title>
<path fill="none" stroke="midnightblue" d="M125.43,-548.7C133.84,-548.79 142.42,-548.76 150.75,-548.63"/>
<polygon fill="midnightblue" stroke="midnightblue" points="125.33,-545.2 115.28,-548.54 125.22,-552.2 125.33,-545.2"/>
</g>
<!-- Node616 -->
<g id="node9" class="node">
<title>Node616</title>
<g id="a_node9"><a xlink:href="quickjs_8c.html#a74547db03bf739a52c83a326b32db997" target="_top" xlink:title=" ">
<polygon fill="none" stroke="red" points="744.5,-399.5 744.5,-418.5 825.5,-418.5 825.5,-399.5 744.5,-399.5"/>
<text text-anchor="middle" x="785" y="-406.5" font-family="Helvetica,sans-Serif" font-size="10.00">add_property</text>
</a>
</g>
</g>
<!-- Node615&#45;&gt;Node616 -->
<g id="edge13" class="edge">
<title>Node615&#45;&gt;Node616</title>
<path fill="none" stroke="midnightblue" d="M899.3,-397.07C874.49,-399.69 847.2,-402.56 825.61,-404.83"/>
<polygon fill="midnightblue" stroke="midnightblue" points="899.81,-400.54 909.39,-396.01 899.08,-393.58 899.81,-400.54"/>
</g>
<!-- Node281 -->
<g id="node13" class="node">
<title>Node281</title>
<g id="a_node13"><a xlink:href="quickjs_8c.html#a7efb53c2f76fd5cc0e584449437ec09c" target="_top" xlink:title=" ">
<polygon fill="none" stroke="red" points="709,-361.5 709,-380.5 861,-380.5 861,-361.5 709,-361.5"/>
<text text-anchor="middle" x="785" y="-368.5" font-family="Helvetica,sans-Serif" font-size="10.00">JS_AddIntrinsicBasicObjects</text>
</a>
</g>
</g>
<!-- Node615&#45;&gt;Node281 -->
<g id="edge19" class="edge">
<title>Node615&#45;&gt;Node281</title>
<path fill="none" stroke="midnightblue" d="M899.17,-382.91C886.8,-381.61 873.82,-380.24 861.24,-378.92"/>
<polygon fill="midnightblue" stroke="midnightblue" points="899.08,-386.42 909.39,-383.99 899.81,-379.46 899.08,-386.42"/>
</g>
<!-- Node616&#45;&gt;Node3 -->
<g id="edge15" class="edge">
<title>Node616&#45;&gt;Node3</title>
<path fill="none" stroke="midnightblue" d="M772.75,-427.41C750.19,-463.78 699.32,-542.9 673,-561 667.29,-564.93 660.81,-568.04 654.14,-570.51"/>
<polygon fill="midnightblue" stroke="midnightblue" points="775.82,-429.1 778.08,-418.76 769.86,-425.43 775.82,-429.1"/>
</g>
<!-- Node616&#45;&gt;Node132 -->
<g id="edge18" class="edge">
<title>Node616&#45;&gt;Node132</title>
<path fill="none" stroke="midnightblue" d="M734.03,-411.02C646.21,-415.89 459.52,-432.09 312,-485 279.33,-496.72 245.23,-519.48 227.29,-532.41"/>
<polygon fill="midnightblue" stroke="midnightblue" points="734.44,-414.51 744.24,-410.49 734.07,-407.52 734.44,-414.51"/>
</g>
<!-- Node619 -->
<g id="node10" class="node">
<title>Node619</title>
<g id="a_node10"><a xlink:href="quickjs_8c.html#a6a21784a40b8684f2e779bd460dd13b2" target="_top" xlink:title=" ">
<polygon fill="none" stroke="red" points="563,-342.5 563,-361.5 641,-361.5 641,-342.5 563,-342.5"/>
<text text-anchor="middle" x="602" y="-349.5" font-family="Helvetica,sans-Serif" font-size="10.00">JS_AddBrand</text>
</a>
</g>
</g>
<!-- Node616&#45;&gt;Node619 -->
<g id="edge14" class="edge">
<title>Node616&#45;&gt;Node619</title>
<path fill="none" stroke="midnightblue" d="M734.25,-398.17C725.72,-395.81 717.02,-393.08 709,-390 692.11,-383.51 689.83,-377.63 673,-371 662.92,-367.03 651.72,-363.58 641.28,-360.76"/>
<polygon fill="midnightblue" stroke="midnightblue" points="733.58,-401.61 744.14,-400.77 735.36,-394.84 733.58,-401.61"/>
</g>
<!-- Node620 -->
<g id="node11" class="node">
<title>Node620</title>
<g id="a_node11"><a xlink:href="quickjs_8c.html#a7128998511654840928b9df9d4c55b3c" target="_top" xlink:title=" ">
<polygon fill="none" stroke="red" points="531,-304.5 531,-323.5 673,-323.5 673,-304.5 531,-304.5"/>
<text text-anchor="middle" x="602" y="-311.5" font-family="Helvetica,sans-Serif" font-size="10.00">JS_DefineAutoInitProperty</text>
</a>
</g>
</g>
<!-- Node616&#45;&gt;Node620 -->
<g id="edge16" class="edge">
<title>Node616&#45;&gt;Node620</title>
<path fill="none" stroke="midnightblue" d="M734.43,-402.11C725.42,-399.34 716.5,-395.45 709,-390 684.75,-372.4 697.1,-350.8 673,-333 667.73,-329.11 661.72,-326.02 655.48,-323.55"/>
<polygon fill="midnightblue" stroke="midnightblue" points="733.62,-405.52 744.19,-404.71 735.42,-398.76 733.62,-405.52"/>
</g>
<!-- Node622 -->
<g id="node12" class="node">
<title>Node622</title>
<g id="a_node12"><a xlink:href="quickjs_8c.html#a3865abec9986277dbff58ea314f3d82e" target="_top" xlink:title=" ">
<polygon fill="none" stroke="red" points="542,-380.5 542,-399.5 662,-399.5 662,-380.5 542,-380.5"/>
<text text-anchor="middle" x="602" y="-387.5" font-family="Helvetica,sans-Serif" font-size="10.00">JS_DefinePrivateField</text>
</a>
</g>
</g>
<!-- Node616&#45;&gt;Node622 -->
<g id="edge17" class="edge">
<title>Node616&#45;&gt;Node622</title>
<path fill="none" stroke="midnightblue" d="M734.05,-403.76C711.81,-401.42 685.46,-398.66 662.23,-396.22"/>
<polygon fill="midnightblue" stroke="midnightblue" points="733.97,-407.27 744.28,-404.83 734.7,-400.31 733.97,-407.27"/>
</g>
<!-- Node618&#45;&gt;Node360 -->
<g id="edge22" class="edge">
<title>Node618&#45;&gt;Node360</title>
<path fill="none" stroke="midnightblue" d="M727.63,-542C703.15,-542 674.76,-542 651.27,-542"/>
<polygon fill="midnightblue" stroke="midnightblue" points="727.86,-545.5 737.86,-542 727.86,-538.5 727.86,-545.5"/>
</g>
<!-- Node360&#45;&gt;Node4 -->
<g id="edge23" class="edge">
<title>Node360&#45;&gt;Node4</title>
<path fill="none" stroke="midnightblue" d="M542.76,-530.74C514.45,-525.26 480.8,-518.76 453.78,-513.53"/>
<polygon fill="midnightblue" stroke="midnightblue" points="542.45,-534.24 552.93,-532.7 543.78,-527.37 542.45,-534.24"/>
</g>
<!-- Node360&#45;&gt;Node132 -->
<g id="edge24" class="edge">
<title>Node360&#45;&gt;Node132</title>
<path fill="none" stroke="midnightblue" d="M542.6,-542C470.75,-542 349.32,-542 276.05,-542"/>
<polygon fill="midnightblue" stroke="midnightblue" points="542.83,-545.5 552.83,-542 542.83,-538.5 542.83,-545.5"/>
</g>
<!-- Node644&#45;&gt;Node4 -->
<g id="edge31" class="edge">
<title>Node644&#45;&gt;Node4</title>
<path fill="none" stroke="midnightblue" d="M741.77,-283.1C688.81,-270.71 596.96,-257.82 531,-295 450.82,-340.19 415.68,-458.94 406.83,-494.07"/>
<polygon fill="midnightblue" stroke="midnightblue" points="740.97,-286.51 751.51,-285.48 742.63,-279.71 740.97,-286.51"/>
</g>
<!-- Node644&#45;&gt;Node132 -->
<g id="edge32" class="edge">
<title>Node644&#45;&gt;Node132</title>
<path fill="none" stroke="midnightblue" d="M749.57,-282.1C699.94,-265.5 606.01,-241.66 531,-267 376.87,-319.06 250.62,-489.83 221.06,-532.35"/>
<polygon fill="midnightblue" stroke="midnightblue" points="748.59,-285.46 759.18,-285.41 750.86,-278.84 748.59,-285.46"/>
</g>
<!-- Node644&#45;&gt;Node619 -->
<g id="edge27" class="edge">
<title>Node644&#45;&gt;Node619</title>
<path fill="none" stroke="midnightblue" d="M748.24,-307.9C726.58,-315.55 698.33,-325.23 673,-333 662.28,-336.28 650.56,-339.58 639.82,-342.49"/>
<polygon fill="midnightblue" stroke="midnightblue" points="749.44,-311.19 757.69,-304.54 747.1,-304.59 749.44,-311.19"/>
</g>
<!-- Node644&#45;&gt;Node620 -->
<g id="edge29" class="edge">
<title>Node644&#45;&gt;Node620</title>
<path fill="none" stroke="midnightblue" d="M721.16,-301.6C705.64,-303.23 688.92,-304.98 673.08,-306.64"/>
<polygon fill="midnightblue" stroke="midnightblue" points="721.58,-305.07 731.16,-300.55 720.85,-298.11 721.58,-305.07"/>
</g>
<!-- Node644&#45;&gt;Node622 -->
<g id="edge30" class="edge">
<title>Node644&#45;&gt;Node622</title>
<path fill="none" stroke="midnightblue" d="M764.91,-311.06C743.7,-328.15 707.85,-354.9 673,-371 664.88,-374.75 655.88,-377.88 647.12,-380.45"/>
<polygon fill="midnightblue" stroke="midnightblue" points="767.28,-313.64 772.8,-304.6 762.84,-308.22 767.28,-313.64"/>
</g>
<!-- Node506 -->
<g id="node17" class="node">
<title>Node506</title>
<g id="a_node17"><a xlink:href="quickjs_8c.html#adb1fc78e06c842a22d4fa3bf3fb75f70" target="_top" xlink:title=" ">
<polygon fill="none" stroke="red" points="556,-152.5 556,-171.5 648,-171.5 648,-152.5 556,-152.5"/>
<text text-anchor="middle" x="602" y="-159.5" font-family="Helvetica,sans-Serif" font-size="10.00">get_func_name</text>
</a>
</g>
</g>
<!-- Node644&#45;&gt;Node506 -->
<g id="edge26" class="edge">
<title>Node644&#45;&gt;Node506</title>
<path fill="none" stroke="midnightblue" d="M771.49,-277.08C752.91,-251.83 715.62,-206.08 673,-181 665.4,-176.53 656.73,-173.08 648.13,-170.44"/>
<polygon fill="midnightblue" stroke="midnightblue" points="768.78,-279.3 777.46,-285.37 774.46,-275.21 768.78,-279.3"/>
</g>
<!-- Node645 -->
<g id="node18" class="node">
<title>Node645</title>
<g id="a_node18"><a xlink:href="quickjs_8c.html#aa71518153e2e2604f0f9caad36af8476" target="_top" xlink:title=" ">
<polygon fill="none" stroke="red" points="557.5,-190.5 557.5,-209.5 646.5,-209.5 646.5,-190.5 557.5,-190.5"/>
<text text-anchor="middle" x="602" y="-197.5" font-family="Helvetica,sans-Serif" font-size="10.00">JS_CheckBrand</text>
</a>
</g>
</g>
<!-- Node644&#45;&gt;Node645 -->
<g id="edge28" class="edge">
<title>Node644&#45;&gt;Node645</title>
<path fill="none" stroke="midnightblue" d="M763.13,-279.49C741.45,-263.92 706.14,-239.99 673,-224 661.31,-218.36 647.95,-213.43 636.06,-209.54"/>
<polygon fill="midnightblue" stroke="midnightblue" points="761.12,-282.36 771.27,-285.41 765.24,-276.7 761.12,-282.36"/>
</g>
<!-- Node763&#45;&gt;Node616 -->
<g id="edge37" class="edge">
<title>Node763&#45;&gt;Node616</title>
<path fill="none" stroke="midnightblue" d="M1091.11,-425.1C1017.95,-421.24 890.23,-414.5 825.71,-411.1"/>
<polygon fill="midnightblue" stroke="midnightblue" points="1091.33,-428.62 1101.5,-425.65 1091.69,-421.63 1091.33,-428.62"/>
</g>
<!-- Node763&#45;&gt;Node745 -->
<g id="edge38" class="edge">
<title>Node763&#45;&gt;Node745</title>
<path fill="none" stroke="midnightblue" d="M1091.1,-439.75C1066,-445.13 1036.66,-451.41 1012.97,-456.48"/>
<polygon fill="midnightblue" stroke="midnightblue" points="1092.16,-443.1 1101.21,-437.59 1090.7,-436.26 1092.16,-443.1"/>
</g>
<!-- Node745&#45;&gt;Node4 -->
<g id="edge40" class="edge">
<title>Node745&#45;&gt;Node4</title>
<path fill="none" stroke="midnightblue" d="M886.54,-469.08C799.12,-472.76 654.95,-479.73 531,-490 506.12,-492.06 478.55,-495.03 455.52,-497.7"/>
<polygon fill="midnightblue" stroke="midnightblue" points="886.8,-472.57 896.65,-468.66 886.51,-465.58 886.8,-472.57"/>
</g>
<!-- Node745&#45;&gt;Node618 -->
<g id="edge39" class="edge">
<title>Node745&#45;&gt;Node618</title>
<path fill="none" stroke="midnightblue" d="M934.04,-479.67C897.87,-494.9 840.31,-519.13 808.67,-532.45"/>
<polygon fill="midnightblue" stroke="midnightblue" points="935.78,-482.73 943.64,-475.63 933.06,-476.28 935.78,-482.73"/>
</g>
<!-- Node248&#45;&gt;Node133 -->
<g id="edge48" class="edge">
<title>Node248&#45;&gt;Node133</title>
<path fill="none" stroke="midnightblue" d="M301.88,-723.68C255.82,-719.54 200.58,-714.11 151,-708 139.39,-706.57 127,-704.84 115.18,-703.08"/>
<polygon fill="midnightblue" stroke="midnightblue" points="301.59,-727.16 311.86,-724.57 302.21,-720.19 301.59,-727.16"/>
</g>
</g>
</svg>
