<?xml version="1.0" encoding="UTF-8" standalone="no"?>
<!DOCTYPE svg PUBLIC "-//W3C//DTD SVG 1.1//EN"
 "http://www.w3.org/Graphics/SVG/1.1/DTD/svg11.dtd">
<!-- Generated by graphviz version 2.43.0 (0)
 -->
<!-- Title: JS_NewAtomInt64 Pages: 1 -->
<!--zoomable 1066 -->
<svg id="main" version="1.1" xmlns="http://www.w3.org/2000/svg" xmlns:xlink="http://www.w3.org/1999/xlink" xml:space="preserve" onload="init(evt)">
<style type="text/css"><![CDATA[
.edge:hover path { stroke: red; }
.edge:hover polygon { stroke: red; fill: red; }
]]></style>
<script type="text/javascript"><![CDATA[
var edges = document.getElementsByTagName('g');
if (edges && edges.length) {
  for (var i=0;i<edges.length;i++) {
    if (edges[i].id.substr(0,4)=='edge') {
      edges[i].setAttribute('class','edge');
    }
  }
}
]]></script>
        <defs>
                <circle id="rim" cx="0" cy="0" r="7"/>
                <circle id="rim2" cx="0" cy="0" r="3.5"/>
                <g id="zoomPlus">
                        <use xlink:href="#rim" fill="#404040">
                                <set attributeName="fill" to="#808080" begin="zoomplus.mouseover" end="zoomplus.mouseout"/>
                        </use>
                        <path d="M-4,0h8M0,-4v8" fill="none" stroke="white" stroke-width="1.5" pointer-events="none"/>
                </g>
                <g id="zoomMin">
                        <use xlink:href="#rim" fill="#404040">
                                <set attributeName="fill" to="#808080" begin="zoomminus.mouseover" end="zoomminus.mouseout"/>
                        </use>
                        <path d="M-4,0h8" fill="none" stroke="white" stroke-width="1.5" pointer-events="none"/>
                </g>
                <g id="dirArrow">
                        <path fill="none" stroke="white" stroke-width="1.5" d="M0,-3.0v7 M-2.5,-0.5L0,-3.0L2.5,-0.5"/>
                </g>
               <g id="resetDef">
                       <use xlink:href="#rim2" fill="#404040">
                               <set attributeName="fill" to="#808080" begin="reset.mouseover" end="reset.mouseout"/>
                       </use>
               </g>
        </defs>

<script type="text/javascript">
var viewWidth = 911;
var viewHeight = 1066;
var sectionId = 'dynsection-259';
</script>
<script xlink:href="svgpan.js"/>
<svg id="graph" class="graph">
<g id="viewport">
<title>JS_NewAtomInt64</title>
<!-- Node1 -->
<g id="node1" class="node">
<title>Node1</title>
<g id="a_node1"><a xlink:title=" ">
<polygon fill="#bfbfbf" stroke="black" points="799,-683.5 799,-702.5 903,-702.5 903,-683.5 799,-683.5"/>
<text text-anchor="middle" x="851" y="-690.5" font-family="Helvetica,sans-Serif" font-size="10.00">JS_NewAtomInt64</text>
</a>
</g>
</g>
<!-- Node2 -->
<g id="node2" class="node">
<title>Node2</title>
<g id="a_node2"><a xlink:href="quickjs_8c.html#a70e21308fe3760cd95dd1dbb1a8755e6" target="_top" xlink:title=" ">
<polygon fill="none" stroke="black" points="634,-778.5 634,-797.5 763,-797.5 763,-778.5 634,-778.5"/>
<text text-anchor="middle" x="698.5" y="-785.5" font-family="Helvetica,sans-Serif" font-size="10.00">JS_DeletePropertyInt64</text>
</a>
</g>
</g>
<!-- Node1&#45;&gt;Node2 -->
<g id="edge1" class="edge">
<title>Node1&#45;&gt;Node2</title>
<path fill="none" stroke="midnightblue" d="M826.21,-708.02C794.98,-727.73 741.08,-761.75 714.8,-778.34"/>
<polygon fill="midnightblue" stroke="midnightblue" points="828.15,-710.93 834.74,-702.63 824.42,-705.01 828.15,-710.93"/>
</g>
<!-- Node13 -->
<g id="node12" class="node">
<title>Node13</title>
<g id="a_node12"><a xlink:href="quickjs_8c.html#a7bb763b31e1c40a04aa0c1d5db0f1191" target="_top" xlink:title=" ">
<polygon fill="none" stroke="black" points="641.5,-266.5 641.5,-285.5 755.5,-285.5 755.5,-266.5 641.5,-266.5"/>
<text text-anchor="middle" x="698.5" y="-273.5" font-family="Helvetica,sans-Serif" font-size="10.00">JS_GetPropertyInt64</text>
</a>
</g>
</g>
<!-- Node1&#45;&gt;Node13 -->
<g id="edge15" class="edge">
<title>Node1&#45;&gt;Node13</title>
<path fill="none" stroke="midnightblue" d="M843.02,-673.65C816.46,-600.07 722.28,-339.11 702.97,-285.62"/>
<polygon fill="midnightblue" stroke="midnightblue" points="839.74,-674.89 846.43,-683.1 846.33,-672.51 839.74,-674.89"/>
</g>
<!-- Node26 -->
<g id="node24" class="node">
<title>Node26</title>
<g id="a_node24"><a xlink:href="quickjs_8c.html#a51b06daa618640e531fe808770553b96" target="_top" xlink:title=" ">
<polygon fill="none" stroke="black" points="642,-835.5 642,-854.5 755,-854.5 755,-835.5 642,-835.5"/>
<text text-anchor="middle" x="698.5" y="-842.5" font-family="Helvetica,sans-Serif" font-size="10.00">JS_SetPropertyInt64</text>
</a>
</g>
</g>
<!-- Node1&#45;&gt;Node26 -->
<g id="edge33" class="edge">
<title>Node1&#45;&gt;Node26</title>
<path fill="none" stroke="midnightblue" d="M839.12,-711.34C824.19,-735.41 795.47,-777.99 763,-807 749.97,-818.64 732.86,-828.64 719.69,-835.45"/>
<polygon fill="midnightblue" stroke="midnightblue" points="842.27,-712.89 844.48,-702.53 836.29,-709.25 842.27,-712.89"/>
</g>
<!-- Node28 -->
<g id="node26" class="node">
<title>Node28</title>
<g id="a_node26"><a xlink:href="quickjs_8c.html#a14674e74168715dc5a3a391910982e5d" target="_top" xlink:title=" ">
<polygon fill="none" stroke="black" points="634.5,-588.5 634.5,-607.5 762.5,-607.5 762.5,-588.5 634.5,-588.5"/>
<text text-anchor="middle" x="698.5" y="-595.5" font-family="Helvetica,sans-Serif" font-size="10.00">JS_TryGetPropertyInt64</text>
</a>
</g>
</g>
<!-- Node1&#45;&gt;Node28 -->
<g id="edge43" class="edge">
<title>Node1&#45;&gt;Node28</title>
<path fill="none" stroke="midnightblue" d="M826.21,-677.98C794.98,-658.27 741.08,-624.25 714.8,-607.66"/>
<polygon fill="midnightblue" stroke="midnightblue" points="824.42,-680.99 834.74,-683.37 828.15,-675.07 824.42,-680.99"/>
</g>
<!-- Node3 -->
<g id="node3" class="node">
<title>Node3</title>
<g id="a_node3"><a xlink:href="quickjs_8c.html#a01281ea66186a034a0e9021ee8c9f945" target="_top" xlink:title=" ">
<polygon fill="none" stroke="black" points="284,-522.5 284,-541.5 363,-541.5 363,-522.5 284,-522.5"/>
<text text-anchor="middle" x="323.5" y="-529.5" font-family="Helvetica,sans-Serif" font-size="10.00">js_array_pop</text>
</a>
</g>
</g>
<!-- Node2&#45;&gt;Node3 -->
<g id="edge2" class="edge">
<title>Node2&#45;&gt;Node3</title>
<path fill="none" stroke="midnightblue" d="M631.12,-776.28C573.93,-763.54 491.57,-738.58 433,-693 377.14,-649.53 339.91,-569.04 328.34,-541.52"/>
<polygon fill="midnightblue" stroke="midnightblue" points="630.63,-779.76 641.14,-778.45 632.1,-772.92 630.63,-779.76"/>
</g>
<!-- Node7 -->
<g id="node6" class="node">
<title>Node7</title>
<g id="a_node6"><a xlink:href="quickjs_8c.html#a8235fb13f196d6ef5002daed858b7eeb" target="_top" xlink:title=" ">
<polygon fill="none" stroke="black" points="466.5,-854.5 466.5,-873.5 564.5,-873.5 564.5,-854.5 466.5,-854.5"/>
<text text-anchor="middle" x="515.5" y="-861.5" font-family="Helvetica,sans-Serif" font-size="10.00">js_array_reverse</text>
</a>
</g>
</g>
<!-- Node2&#45;&gt;Node7 -->
<g id="edge6" class="edge">
<title>Node2&#45;&gt;Node7</title>
<path fill="none" stroke="midnightblue" d="M672.29,-802.95C645.43,-818.8 605.71,-841.97 598,-845 587.45,-849.15 575.77,-852.53 564.62,-855.23"/>
<polygon fill="midnightblue" stroke="midnightblue" points="674.35,-805.8 681.18,-797.69 670.79,-799.77 674.35,-805.8"/>
</g>
<!-- Node8 -->
<g id="node7" class="node">
<title>Node8</title>
<g id="a_node7"><a xlink:href="quickjs_8c.html#a70b7ec8358ab99b905686d5bf80950cc" target="_top" xlink:title=" ">
<polygon fill="none" stroke="black" points="282,-835.5 282,-854.5 365,-854.5 365,-835.5 282,-835.5"/>
<text text-anchor="middle" x="323.5" y="-842.5" font-family="Helvetica,sans-Serif" font-size="10.00">js_array_slice</text>
</a>
</g>
</g>
<!-- Node2&#45;&gt;Node8 -->
<g id="edge7" class="edge">
<title>Node2&#45;&gt;Node8</title>
<path fill="none" stroke="midnightblue" d="M667.01,-802.43C655.81,-808.66 643.55,-816.67 634,-826 612.56,-846.93 624.24,-868.54 598,-883 533.78,-918.4 504.18,-900.63 433,-883 415.44,-878.65 413.86,-870.56 397,-864 386.93,-860.08 375.78,-856.71 365.29,-853.94"/>
<polygon fill="midnightblue" stroke="midnightblue" points="668.88,-805.4 676.08,-797.62 665.6,-799.21 668.88,-805.4"/>
</g>
<!-- Node9 -->
<g id="node8" class="node">
<title>Node9</title>
<g id="a_node8"><a xlink:href="quickjs_8c.html#a874518d6b2fb6ff79531c4a9652202f3" target="_top" xlink:title=" ">
<polygon fill="none" stroke="black" points="475.5,-778.5 475.5,-797.5 555.5,-797.5 555.5,-778.5 475.5,-778.5"/>
<text text-anchor="middle" x="515.5" y="-785.5" font-family="Helvetica,sans-Serif" font-size="10.00">js_array_sort</text>
</a>
</g>
</g>
<!-- Node2&#45;&gt;Node9 -->
<g id="edge8" class="edge">
<title>Node2&#45;&gt;Node9</title>
<path fill="none" stroke="midnightblue" d="M623.71,-788C600.4,-788 575.56,-788 555.66,-788"/>
<polygon fill="midnightblue" stroke="midnightblue" points="623.94,-791.5 633.94,-788 623.94,-784.5 623.94,-791.5"/>
</g>
<!-- Node10 -->
<g id="node9" class="node">
<title>Node10</title>
<g id="a_node9"><a xlink:href="quickjs_8c.html#a6c99d7581e100a5de07c9a24f4c7d34a" target="_top" xlink:title=" ">
<polygon fill="none" stroke="black" points="465.5,-816.5 465.5,-835.5 565.5,-835.5 565.5,-816.5 465.5,-816.5"/>
<text text-anchor="middle" x="515.5" y="-823.5" font-family="Helvetica,sans-Serif" font-size="10.00">JS_CopySubArray</text>
</a>
</g>
</g>
<!-- Node2&#45;&gt;Node10 -->
<g id="edge9" class="edge">
<title>Node2&#45;&gt;Node10</title>
<path fill="none" stroke="midnightblue" d="M641.86,-799.68C616.19,-805.07 586.11,-811.39 561.85,-816.48"/>
<polygon fill="midnightblue" stroke="midnightblue" points="642.76,-803.07 651.83,-797.59 641.32,-796.22 642.76,-803.07"/>
</g>
<!-- Node4 -->
<g id="node4" class="node">
<title>Node4</title>
<g id="a_node4"><a xlink:href="quickjs_8c.html#a60d84dd116a9d7d912d08f298a4734dd" target="_top" xlink:title=" ">
<polygon fill="none" stroke="black" points="131,-304.5 131,-323.5 214,-323.5 214,-304.5 131,-304.5"/>
<text text-anchor="middle" x="172.5" y="-311.5" font-family="Helvetica,sans-Serif" font-size="10.00">js_json_to_str</text>
</a>
</g>
</g>
<!-- Node3&#45;&gt;Node4 -->
<g id="edge3" class="edge">
<title>Node3&#45;&gt;Node4</title>
<path fill="none" stroke="midnightblue" d="M310.21,-514.01C280,-469.82 202.93,-357.06 180.02,-323.54"/>
<polygon fill="midnightblue" stroke="midnightblue" points="307.37,-516.07 315.91,-522.35 313.15,-512.12 307.37,-516.07"/>
</g>
<!-- Node4&#45;&gt;Node4 -->
<g id="edge4" class="edge">
<title>Node4&#45;&gt;Node4</title>
<path fill="none" stroke="midnightblue" d="M195.57,-333.03C194.31,-338.13 186.62,-342 172.5,-342 150.46,-342 144.09,-332.57 153.39,-323.76"/>
<polygon fill="midnightblue" stroke="midnightblue" points="198.75,-331.58 191.61,-323.76 192.31,-334.33 198.75,-331.58"/>
</g>
<!-- Node5 -->
<g id="node5" class="node">
<title>Node5</title>
<g id="a_node5"><a xlink:href="quickjs_8c.html#a343a343b16bc3c9875050e99ee0d2884" target="_top" xlink:title=" ">
<polygon fill="none" stroke="red" points="0,-285.5 0,-304.5 95,-304.5 95,-285.5 0,-285.5"/>
<text text-anchor="middle" x="47.5" y="-292.5" font-family="Helvetica,sans-Serif" font-size="10.00">JS_JSONStringify</text>
</a>
</g>
</g>
<!-- Node4&#45;&gt;Node5 -->
<g id="edge5" class="edge">
<title>Node4&#45;&gt;Node5</title>
<path fill="none" stroke="midnightblue" d="M120.98,-306.2C112.4,-304.87 103.51,-303.5 95.04,-302.19"/>
<polygon fill="midnightblue" stroke="midnightblue" points="120.47,-309.66 130.88,-307.73 121.54,-302.74 120.47,-309.66"/>
</g>
<!-- Node10&#45;&gt;Node3 -->
<g id="edge11" class="edge">
<title>Node10&#45;&gt;Node3</title>
<path fill="none" stroke="midnightblue" d="M455.49,-819.5C447.3,-816.62 439.48,-812.59 433,-807 346.94,-732.72 328.58,-581.11 325.19,-541.59"/>
<polygon fill="midnightblue" stroke="midnightblue" points="454.65,-822.9 465.23,-822.39 456.63,-816.19 454.65,-822.9"/>
</g>
<!-- Node10&#45;&gt;Node8 -->
<g id="edge14" class="edge">
<title>Node10&#45;&gt;Node8</title>
<path fill="none" stroke="midnightblue" d="M454.97,-831.95C425.71,-834.88 391.21,-838.33 365.03,-840.95"/>
<polygon fill="midnightblue" stroke="midnightblue" points="455.47,-835.42 465.08,-830.94 454.78,-828.45 455.47,-835.42"/>
</g>
<!-- Node11 -->
<g id="node10" class="node">
<title>Node11</title>
<g id="a_node10"><a xlink:href="quickjs_8c.html#a93380da0068e066053740a43c8d8f15a" target="_top" xlink:title=" ">
<polygon fill="none" stroke="black" points="265.5,-797.5 265.5,-816.5 381.5,-816.5 381.5,-797.5 265.5,-797.5"/>
<text text-anchor="middle" x="323.5" y="-804.5" font-family="Helvetica,sans-Serif" font-size="10.00">js_array_copyWithin</text>
</a>
</g>
</g>
<!-- Node10&#45;&gt;Node11 -->
<g id="edge10" class="edge">
<title>Node10&#45;&gt;Node11</title>
<path fill="none" stroke="midnightblue" d="M454.95,-820.04C431.59,-817.71 404.89,-815.04 381.76,-812.73"/>
<polygon fill="midnightblue" stroke="midnightblue" points="454.78,-823.55 465.08,-821.06 455.47,-816.58 454.78,-823.55"/>
</g>
<!-- Node12 -->
<g id="node11" class="node">
<title>Node12</title>
<g id="a_node11"><a xlink:href="quickjs_8c.html#a3d640b89712ebda808c0c3eca9849674" target="_top" xlink:title=" ">
<polygon fill="none" stroke="black" points="281.5,-873.5 281.5,-892.5 365.5,-892.5 365.5,-873.5 281.5,-873.5"/>
<text text-anchor="middle" x="323.5" y="-880.5" font-family="Helvetica,sans-Serif" font-size="10.00">js_array_push</text>
</a>
</g>
</g>
<!-- Node10&#45;&gt;Node12 -->
<g id="edge12" class="edge">
<title>Node10&#45;&gt;Node12</title>
<path fill="none" stroke="midnightblue" d="M455.27,-837.91C447.69,-839.99 440.1,-842.35 433,-845 416.05,-851.33 413.86,-857.44 397,-864 387.06,-867.87 376.04,-871.21 365.67,-873.96"/>
<polygon fill="midnightblue" stroke="midnightblue" points="456.39,-841.24 465.2,-835.35 454.64,-834.46 456.39,-841.24"/>
</g>
<!-- Node12&#45;&gt;Node4 -->
<g id="edge13" class="edge">
<title>Node12&#45;&gt;Node4</title>
<path fill="none" stroke="midnightblue" d="M271.44,-877.76C263.31,-874.81 255.71,-870.43 250,-864 175.09,-779.67 173.21,-389.98 173.44,-323.62"/>
<polygon fill="midnightblue" stroke="midnightblue" points="270.57,-881.15 281.15,-880.62 272.54,-874.44 270.57,-881.15"/>
</g>
<!-- Node13&#45;&gt;Node3 -->
<g id="edge21" class="edge">
<title>Node13&#45;&gt;Node3</title>
<path fill="none" stroke="midnightblue" d="M673.19,-290.7C653.48,-302.12 624.69,-317.7 598,-328 527.3,-355.28 494.84,-327.19 433,-371 375.24,-411.92 339.23,-494.04 328.16,-522.24"/>
<polygon fill="midnightblue" stroke="midnightblue" points="674.98,-293.71 681.82,-285.62 671.43,-287.67 674.98,-293.71"/>
</g>
<!-- Node13&#45;&gt;Node4 -->
<g id="edge23" class="edge">
<title>Node13&#45;&gt;Node4</title>
<path fill="none" stroke="midnightblue" d="M631.23,-286.11C620.16,-287.57 608.77,-288.94 598,-290 457.51,-303.83 290.01,-310.39 214.27,-312.83"/>
<polygon fill="midnightblue" stroke="midnightblue" points="631.86,-289.56 641.29,-284.74 630.91,-282.62 631.86,-289.56"/>
</g>
<!-- Node13&#45;&gt;Node5 -->
<g id="edge24" class="edge">
<title>Node13&#45;&gt;Node5</title>
<path fill="none" stroke="midnightblue" d="M694.98,-256.01C688.28,-212.51 665.69,-109.74 598,-67 535.99,-27.85 503.72,-47.61 433,-67 268.34,-112.15 102.73,-248.08 59.4,-285.42"/>
<polygon fill="midnightblue" stroke="midnightblue" points="691.55,-256.76 696.41,-266.17 698.48,-255.78 691.55,-256.76"/>
</g>
<!-- Node14 -->
<g id="node13" class="node">
<title>Node14</title>
<g id="a_node13"><a xlink:href="quickjs_8c.html#aa0bbf08a7e91459c68a312fba7016c6d" target="_top" xlink:title=" ">
<polygon fill="none" stroke="black" points="471,-380.5 471,-399.5 560,-399.5 560,-380.5 471,-380.5"/>
<text text-anchor="middle" x="515.5" y="-387.5" font-family="Helvetica,sans-Serif" font-size="10.00">js_array_every</text>
</a>
</g>
</g>
<!-- Node13&#45;&gt;Node14 -->
<g id="edge16" class="edge">
<title>Node13&#45;&gt;Node14</title>
<path fill="none" stroke="midnightblue" d="M682.93,-293.22C664.94,-313.45 632.47,-346.68 598,-366 586.42,-372.49 572.91,-377.38 560.26,-381"/>
<polygon fill="midnightblue" stroke="midnightblue" points="685.58,-295.51 689.51,-285.68 680.3,-290.92 685.58,-295.51"/>
</g>
<!-- Node15 -->
<g id="node14" class="node">
<title>Node15</title>
<g id="a_node14"><a xlink:href="quickjs_8c.html#a5e32da9a43002cb96dcbd62a1a340144" target="_top" xlink:title=" ">
<polygon fill="none" stroke="black" points="473.5,-76.5 473.5,-95.5 557.5,-95.5 557.5,-76.5 473.5,-76.5"/>
<text text-anchor="middle" x="515.5" y="-83.5" font-family="Helvetica,sans-Serif" font-size="10.00">js_array_from</text>
</a>
</g>
</g>
<!-- Node13&#45;&gt;Node15 -->
<g id="edge17" class="edge">
<title>Node13&#45;&gt;Node15</title>
<path fill="none" stroke="midnightblue" d="M691.21,-256.6C678.97,-221.89 648.59,-149.15 598,-110 586.45,-101.06 571.65,-95.45 557.83,-91.92"/>
<polygon fill="midnightblue" stroke="midnightblue" points="688.03,-258.09 694.55,-266.44 694.65,-255.84 688.03,-258.09"/>
</g>
<!-- Node16 -->
<g id="node15" class="node">
<title>Node16</title>
<g id="a_node15"><a xlink:href="quickjs_8c.html#a2ef89587b2e4287d4bd0417788c8e21e" target="_top" xlink:title=" ">
<polygon fill="none" stroke="black" points="273,-228.5 273,-247.5 374,-247.5 374,-228.5 273,-228.5"/>
<text text-anchor="middle" x="323.5" y="-235.5" font-family="Helvetica,sans-Serif" font-size="10.00">js_array_includes</text>
</a>
</g>
</g>
<!-- Node13&#45;&gt;Node16 -->
<g id="edge18" class="edge">
<title>Node13&#45;&gt;Node16</title>
<path fill="none" stroke="midnightblue" d="M689.83,-256.58C676.48,-225.81 645.74,-166.91 598,-143 532.43,-110.16 501.64,-117.2 433,-143 386.6,-160.44 347.07,-207.73 331.54,-228.27"/>
<polygon fill="midnightblue" stroke="midnightblue" points="686.75,-258.3 693.83,-266.18 693.22,-255.61 686.75,-258.3"/>
</g>
<!-- Node17 -->
<g id="node16" class="node">
<title>Node17</title>
<g id="a_node16"><a xlink:href="quickjs_8c.html#a36c1692489542a86dd79a7d39ab8ff95" target="_top" xlink:title=" ">
<polygon fill="none" stroke="black" points="468.5,-418.5 468.5,-437.5 562.5,-437.5 562.5,-418.5 468.5,-418.5"/>
<text text-anchor="middle" x="515.5" y="-425.5" font-family="Helvetica,sans-Serif" font-size="10.00">js_array_reduce</text>
</a>
</g>
</g>
<!-- Node13&#45;&gt;Node17 -->
<g id="edge22" class="edge">
<title>Node13&#45;&gt;Node17</title>
<path fill="none" stroke="midnightblue" d="M688.92,-294.63C674.48,-323.8 642.48,-379.93 598,-409 587.54,-415.83 574.91,-420.22 562.75,-423.03"/>
<polygon fill="midnightblue" stroke="midnightblue" points="692.12,-296.05 693.29,-285.52 685.81,-293.02 692.12,-296.05"/>
</g>
<!-- Node18 -->
<g id="node17" class="node">
<title>Node18</title>
<g id="a_node17"><a xlink:href="quickjs_8c.html#aeb6df5fcffc6fecfac1e9b0d709e99c5" target="_top" xlink:title=" ">
<polygon fill="none" stroke="black" points="433,-0.5 433,-19.5 598,-19.5 598,-0.5 433,-0.5"/>
<text text-anchor="middle" x="515.5" y="-7.5" font-family="Helvetica,sans-Serif" font-size="10.00">js_regexp_string_iterator_next</text>
</a>
</g>
</g>
<!-- Node13&#45;&gt;Node18 -->
<g id="edge25" class="edge">
<title>Node13&#45;&gt;Node18</title>
<path fill="none" stroke="midnightblue" d="M695.17,-256.37C688.68,-210.47 666.12,-95.4 598,-34 590.99,-27.68 582.39,-23.02 573.43,-19.58"/>
<polygon fill="midnightblue" stroke="midnightblue" points="691.73,-257.01 696.5,-266.47 698.67,-256.1 691.73,-257.01"/>
</g>
<!-- Node19 -->
<g id="node18" class="node">
<title>Node19</title>
<g id="a_node18"><a xlink:href="quickjs_8c.html#a41fc4304b39616e7be3500fe6ec881c2" target="_top" xlink:title=" ">
<polygon fill="none" stroke="black" points="444.5,-664.5 444.5,-683.5 586.5,-683.5 586.5,-664.5 444.5,-664.5"/>
<text text-anchor="middle" x="515.5" y="-671.5" font-family="Helvetica,sans-Serif" font-size="10.00">js_regexp_Symbol_match</text>
</a>
</g>
</g>
<!-- Node13&#45;&gt;Node19 -->
<g id="edge26" class="edge">
<title>Node13&#45;&gt;Node19</title>
<path fill="none" stroke="midnightblue" d="M693.59,-295.59C678.65,-369.55 624.73,-629 598,-655 594.15,-658.75 589.7,-661.81 584.92,-664.3"/>
<polygon fill="midnightblue" stroke="midnightblue" points="697.03,-296.21 695.57,-285.72 690.17,-294.83 697.03,-296.21"/>
</g>
<!-- Node20 -->
<g id="node19" class="node">
<title>Node20</title>
<g id="a_node19"><a xlink:href="quickjs_8c.html#a6a77bcdb9f7f18c13c108c99a198708b" target="_top" xlink:title=" ">
<polygon fill="none" stroke="black" points="250,-266.5 250,-285.5 397,-285.5 397,-266.5 250,-266.5"/>
<text text-anchor="middle" x="323.5" y="-273.5" font-family="Helvetica,sans-Serif" font-size="10.00">js_regexp_Symbol_replace</text>
</a>
</g>
</g>
<!-- Node13&#45;&gt;Node20 -->
<g id="edge27" class="edge">
<title>Node13&#45;&gt;Node20</title>
<path fill="none" stroke="midnightblue" d="M631.02,-276C565.31,-276 465.05,-276 397.25,-276"/>
<polygon fill="midnightblue" stroke="midnightblue" points="631.25,-279.5 641.25,-276 631.25,-272.5 631.25,-279.5"/>
</g>
<!-- Node21 -->
<g id="node20" class="node">
<title>Node21</title>
<g id="a_node20"><a xlink:href="quickjs_8c.html#a79872a6d9d139e36d5d1894d16132024" target="_top" xlink:title=" ">
<polygon fill="none" stroke="black" points="449.5,-190.5 449.5,-209.5 581.5,-209.5 581.5,-190.5 449.5,-190.5"/>
<text text-anchor="middle" x="515.5" y="-197.5" font-family="Helvetica,sans-Serif" font-size="10.00">js_regexp_Symbol_split</text>
</a>
</g>
</g>
<!-- Node13&#45;&gt;Node21 -->
<g id="edge28" class="edge">
<title>Node13&#45;&gt;Node21</title>
<path fill="none" stroke="midnightblue" d="M675.16,-260.67C655.6,-247.87 625.99,-230.01 598,-219 588.4,-215.23 577.86,-212.08 567.63,-209.51"/>
<polygon fill="midnightblue" stroke="midnightblue" points="673.39,-263.7 683.66,-266.32 677.27,-257.87 673.39,-263.7"/>
</g>
<!-- Node22 -->
<g id="node21" class="node">
<title>Node22</title>
<g id="a_node21"><a xlink:href="quickjs_8c.html#adb4d2990e6bf3f99633512ad2054b47a" target="_top" xlink:title=" ">
<polygon fill="none" stroke="red" points="441,-228.5 441,-247.5 590,-247.5 590,-228.5 441,-228.5"/>
<text text-anchor="middle" x="515.5" y="-235.5" font-family="Helvetica,sans-Serif" font-size="10.00">js_string___GetSubstitution</text>
</a>
</g>
</g>
<!-- Node13&#45;&gt;Node22 -->
<g id="edge29" class="edge">
<title>Node13&#45;&gt;Node22</title>
<path fill="none" stroke="midnightblue" d="M641.86,-264.32C616.19,-258.93 586.11,-252.61 561.85,-247.52"/>
<polygon fill="midnightblue" stroke="midnightblue" points="641.32,-267.78 651.83,-266.41 642.76,-260.93 641.32,-267.78"/>
</g>
<!-- Node24 -->
<g id="node22" class="node">
<title>Node24</title>
<g id="a_node22"><a xlink:href="quickjs_8c.html#a80bed67de3ceaf66888093b5fc84972a" target="_top" xlink:title=" ">
<polygon fill="none" stroke="black" points="475,-152.5 475,-171.5 556,-171.5 556,-152.5 475,-152.5"/>
<text text-anchor="middle" x="515.5" y="-159.5" font-family="Helvetica,sans-Serif" font-size="10.00">js_string_raw</text>
</a>
</g>
</g>
<!-- Node13&#45;&gt;Node24 -->
<g id="edge31" class="edge">
<title>Node13&#45;&gt;Node24</title>
<path fill="none" stroke="midnightblue" d="M684.14,-258.44C666.73,-236.82 634.19,-200.57 598,-181 585.22,-174.09 569.99,-169.68 556.17,-166.87"/>
<polygon fill="midnightblue" stroke="midnightblue" points="681.52,-260.76 690.45,-266.46 687.02,-256.44 681.52,-260.76"/>
</g>
<!-- Node25 -->
<g id="node23" class="node">
<title>Node25</title>
<g id="a_node23"><a xlink:href="quickjs_8c.html#a5f46f50deddd4e3a23da24e8173db28e" target="_top" xlink:title=" ">
<polygon fill="none" stroke="black" points="457,-626.5 457,-645.5 574,-645.5 574,-626.5 457,-626.5"/>
<text text-anchor="middle" x="515.5" y="-633.5" font-family="Helvetica,sans-Serif" font-size="10.00">js_typed_array_from</text>
</a>
</g>
</g>
<!-- Node13&#45;&gt;Node25 -->
<g id="edge32" class="edge">
<title>Node13&#45;&gt;Node25</title>
<path fill="none" stroke="midnightblue" d="M698.12,-295.67C698.81,-354 692.47,-527.57 598,-617 591.35,-623.29 583.04,-627.64 574.29,-630.61"/>
<polygon fill="midnightblue" stroke="midnightblue" points="701.62,-295.52 697.91,-285.59 694.62,-295.66 701.62,-295.52"/>
</g>
<!-- Node16&#45;&gt;Node4 -->
<g id="edge19" class="edge">
<title>Node16&#45;&gt;Node4</title>
<path fill="none" stroke="midnightblue" d="M265.49,-250.68C260.15,-252.54 254.91,-254.64 250,-257 223.73,-269.64 197.42,-291.84 183.55,-304.48"/>
<polygon fill="midnightblue" stroke="midnightblue" points="266.69,-253.98 275.15,-247.6 264.55,-247.31 266.69,-253.98"/>
</g>
<!-- Node16&#45;&gt;Node5 -->
<g id="edge20" class="edge">
<title>Node16&#45;&gt;Node5</title>
<path fill="none" stroke="midnightblue" d="M266.81,-249.58C216.06,-260.14 141.98,-275.55 94.51,-285.43"/>
<polygon fill="midnightblue" stroke="midnightblue" points="267.56,-253 276.64,-247.54 266.14,-246.15 267.56,-253"/>
</g>
<!-- Node22&#45;&gt;Node20 -->
<g id="edge30" class="edge">
<title>Node22&#45;&gt;Node20</title>
<path fill="none" stroke="midnightblue" d="M456.45,-249.61C429.43,-255.01 397.68,-261.36 372.1,-266.48"/>
<polygon fill="midnightblue" stroke="midnightblue" points="457.44,-252.98 466.55,-247.59 456.06,-246.12 457.44,-252.98"/>
</g>
<!-- Node26&#45;&gt;Node5 -->
<g id="edge40" class="edge">
<title>Node26&#45;&gt;Node5</title>
<path fill="none" stroke="midnightblue" d="M693.32,-864.58C683.95,-902.96 657.26,-987.33 598,-1022 456.79,-1104.61 349.72,-1031.7 250,-902 92.98,-697.78 55.07,-365.19 49.34,-304.62"/>
<polygon fill="midnightblue" stroke="midnightblue" points="696.77,-865.18 695.6,-854.65 689.95,-863.61 696.77,-865.18"/>
</g>
<!-- Node26&#45;&gt;Node7 -->
<g id="edge36" class="edge">
<title>Node26&#45;&gt;Node7</title>
<path fill="none" stroke="midnightblue" d="M631.72,-851.91C609.58,-854.23 585.3,-856.78 564.76,-858.93"/>
<polygon fill="midnightblue" stroke="midnightblue" points="632.14,-855.38 641.72,-850.86 631.41,-848.42 632.14,-855.38"/>
</g>
<!-- Node26&#45;&gt;Node8 -->
<g id="edge37" class="edge">
<title>Node26&#45;&gt;Node8</title>
<path fill="none" stroke="midnightblue" d="M680.99,-861.84C662.62,-879.27 631.12,-905.39 598,-916 528.16,-938.36 497.96,-950.03 433,-916 408.1,-902.95 420.03,-880.12 397,-864 387.62,-857.43 376.12,-853.14 365.07,-850.32"/>
<polygon fill="midnightblue" stroke="midnightblue" points="683.76,-864.02 688.47,-854.53 678.87,-859.02 683.76,-864.02"/>
</g>
<!-- Node26&#45;&gt;Node9 -->
<g id="edge38" class="edge">
<title>Node26&#45;&gt;Node9</title>
<path fill="none" stroke="midnightblue" d="M665.37,-831.45C646.07,-823.64 620.89,-814 598,-807 584.38,-802.83 569.25,-799.07 555.76,-796.02"/>
<polygon fill="midnightblue" stroke="midnightblue" points="664.3,-834.8 674.89,-835.35 666.96,-828.32 664.3,-834.8"/>
</g>
<!-- Node26&#45;&gt;Node10 -->
<g id="edge39" class="edge">
<title>Node26&#45;&gt;Node10</title>
<path fill="none" stroke="midnightblue" d="M631.55,-838.08C609.78,-835.79 585.95,-833.29 565.66,-831.16"/>
<polygon fill="midnightblue" stroke="midnightblue" points="631.41,-841.58 641.72,-839.14 632.14,-834.62 631.41,-841.58"/>
</g>
<!-- Node26&#45;&gt;Node12 -->
<g id="edge35" class="edge">
<title>Node26&#45;&gt;Node12</title>
<path fill="none" stroke="midnightblue" d="M691.65,-864.2C680.11,-898.29 650.83,-968.44 598,-997 533.49,-1031.87 500.4,-1025.9 433,-997 382.02,-975.14 343.67,-916.27 329.97,-892.83"/>
<polygon fill="midnightblue" stroke="midnightblue" points="695.04,-865.1 694.78,-854.51 688.38,-862.95 695.04,-865.1"/>
</g>
<!-- Node26&#45;&gt;Node19 -->
<g id="edge41" class="edge">
<title>Node26&#45;&gt;Node19</title>
<path fill="none" stroke="midnightblue" d="M669.35,-830.63C657.86,-824.15 644.76,-815.94 634,-807 621.44,-796.56 549.1,-712.2 524.61,-683.51"/>
<polygon fill="midnightblue" stroke="midnightblue" points="667.7,-833.72 678.16,-835.44 671.06,-827.58 667.7,-833.72"/>
</g>
<!-- Node26&#45;&gt;Node25 -->
<g id="edge42" class="edge">
<title>Node26&#45;&gt;Node25</title>
<path fill="none" stroke="midnightblue" d="M662.6,-830.67C652.02,-824.77 641.28,-816.94 634,-807 592.98,-750.99 647.18,-704 598,-655 591.41,-648.44 583.03,-643.97 574.15,-640.96"/>
<polygon fill="midnightblue" stroke="midnightblue" points="661.27,-833.92 671.77,-835.36 664.46,-827.69 661.27,-833.92"/>
</g>
<!-- Node27 -->
<g id="node25" class="node">
<title>Node27</title>
<g id="a_node25"><a xlink:href="quickjs_8c.html#ae2647134d809434118ae04182c0169cb" target="_top" xlink:title=" ">
<polygon fill="none" stroke="black" points="479,-968.5 479,-987.5 552,-987.5 552,-968.5 479,-968.5"/>
<text text-anchor="middle" x="515.5" y="-975.5" font-family="Helvetica,sans-Serif" font-size="10.00">js_array_fill</text>
</a>
</g>
</g>
<!-- Node26&#45;&gt;Node27 -->
<g id="edge34" class="edge">
<title>Node26&#45;&gt;Node27</title>
<path fill="none" stroke="midnightblue" d="M685.76,-863.09C669.1,-887.32 636.34,-930.04 598,-954 584.24,-962.6 567.26,-968.24 552.36,-971.88"/>
<polygon fill="midnightblue" stroke="midnightblue" points="688.66,-865.04 691.33,-854.79 682.85,-861.14 688.66,-865.04"/>
</g>
<!-- Node28&#45;&gt;Node7 -->
<g id="edge49" class="edge">
<title>Node28&#45;&gt;Node7</title>
<path fill="none" stroke="midnightblue" d="M690.33,-617.17C669.07,-673.83 607.28,-837.05 598,-845 588.73,-852.94 576.77,-857.72 564.88,-860.55"/>
<polygon fill="midnightblue" stroke="midnightblue" points="693.68,-618.21 693.91,-607.62 687.12,-615.75 693.68,-618.21"/>
</g>
<!-- Node28&#45;&gt;Node8 -->
<g id="edge50" class="edge">
<title>Node28&#45;&gt;Node8</title>
<path fill="none" stroke="midnightblue" d="M682.61,-615.37C664.3,-635.92 631.51,-670.23 598,-693 531.22,-738.39 493.72,-715.79 433,-769 410.46,-788.75 421.18,-808.3 397,-826 387.76,-832.76 376.31,-837.12 365.25,-839.93"/>
<polygon fill="midnightblue" stroke="midnightblue" points="685.35,-617.55 689.31,-607.72 680.09,-612.93 685.35,-617.55"/>
</g>
<!-- Node28&#45;&gt;Node9 -->
<g id="edge51" class="edge">
<title>Node28&#45;&gt;Node9</title>
<path fill="none" stroke="midnightblue" d="M691.21,-617.4C678.97,-652.11 648.59,-724.85 598,-764 585.87,-773.39 570.14,-779.11 555.75,-782.59"/>
<polygon fill="midnightblue" stroke="midnightblue" points="694.65,-618.16 694.55,-607.56 688.03,-615.91 694.65,-618.16"/>
</g>
<!-- Node28&#45;&gt;Node10 -->
<g id="edge52" class="edge">
<title>Node28&#45;&gt;Node10</title>
<path fill="none" stroke="midnightblue" d="M694.02,-617.73C685.57,-659.51 659.94,-757.14 598,-807 588.83,-814.38 577.31,-818.99 565.83,-821.85"/>
<polygon fill="midnightblue" stroke="midnightblue" points="697.49,-618.2 695.92,-607.73 690.61,-616.9 697.49,-618.2"/>
</g>
<!-- Node28&#45;&gt;Node14 -->
<g id="edge45" class="edge">
<title>Node28&#45;&gt;Node14</title>
<path fill="none" stroke="midnightblue" d="M692.96,-578.31C682.94,-539.52 655.16,-453.15 598,-409 587.19,-400.65 573.33,-395.87 560.12,-393.17"/>
<polygon fill="midnightblue" stroke="midnightblue" points="689.63,-579.45 695.42,-588.32 696.43,-577.78 689.63,-579.45"/>
</g>
<!-- Node28&#45;&gt;Node17 -->
<g id="edge48" class="edge">
<title>Node28&#45;&gt;Node17</title>
<path fill="none" stroke="midnightblue" d="M690.37,-578.72C677.31,-546.2 646.37,-480.7 598,-447 587.63,-439.77 574.89,-435.26 562.6,-432.46"/>
<polygon fill="midnightblue" stroke="midnightblue" points="687.24,-580.33 694.11,-588.39 693.77,-577.8 687.24,-580.33"/>
</g>
<!-- Node29 -->
<g id="node27" class="node">
<title>Node29</title>
<g id="a_node27"><a xlink:href="quickjs_8c.html#aaa85fa359f7aa8985f0299147272adef" target="_top" xlink:title=" ">
<polygon fill="none" stroke="black" points="469,-588.5 469,-607.5 562,-607.5 562,-588.5 469,-588.5"/>
<text text-anchor="middle" x="515.5" y="-595.5" font-family="Helvetica,sans-Serif" font-size="10.00">js_array_concat</text>
</a>
</g>
</g>
<!-- Node28&#45;&gt;Node29 -->
<g id="edge44" class="edge">
<title>Node28&#45;&gt;Node29</title>
<path fill="none" stroke="midnightblue" d="M624.28,-598C603.3,-598 581.04,-598 562.22,-598"/>
<polygon fill="midnightblue" stroke="midnightblue" points="624.45,-601.5 634.45,-598 624.45,-594.5 624.45,-601.5"/>
</g>
<!-- Node30 -->
<g id="node28" class="node">
<title>Node30</title>
<g id="a_node28"><a xlink:href="quickjs_8c.html#af4bd013e63a5d5d55e4d4700d80de12e" target="_top" xlink:title=" ">
<polygon fill="none" stroke="black" points="466,-550.5 466,-569.5 565,-569.5 565,-550.5 466,-550.5"/>
<text text-anchor="middle" x="515.5" y="-557.5" font-family="Helvetica,sans-Serif" font-size="10.00">js_array_indexOf</text>
</a>
</g>
</g>
<!-- Node28&#45;&gt;Node30 -->
<g id="edge46" class="edge">
<title>Node28&#45;&gt;Node30</title>
<path fill="none" stroke="midnightblue" d="M641.86,-586.32C616.19,-580.93 586.11,-574.61 561.85,-569.52"/>
<polygon fill="midnightblue" stroke="midnightblue" points="641.32,-589.78 651.83,-588.41 642.76,-582.93 641.32,-589.78"/>
</g>
<!-- Node31 -->
<g id="node29" class="node">
<title>Node31</title>
<g id="a_node29"><a xlink:href="quickjs_8c.html#acb566d2d7d0ce8fed7bb7f73d3baa508" target="_top" xlink:title=" ">
<polygon fill="none" stroke="black" points="457,-512.5 457,-531.5 574,-531.5 574,-512.5 457,-512.5"/>
<text text-anchor="middle" x="515.5" y="-519.5" font-family="Helvetica,sans-Serif" font-size="10.00">js_array_lastIndexOf</text>
</a>
</g>
</g>
<!-- Node28&#45;&gt;Node31 -->
<g id="edge47" class="edge">
<title>Node28&#45;&gt;Node31</title>
<path fill="none" stroke="midnightblue" d="M675.16,-582.67C655.6,-569.87 625.99,-552.01 598,-541 588.4,-537.23 577.86,-534.08 567.63,-531.51"/>
<polygon fill="midnightblue" stroke="midnightblue" points="673.39,-585.7 683.66,-588.32 677.27,-579.87 673.39,-585.7"/>
</g>
<!-- Node32 -->
<g id="node30" class="node">
<title>Node32</title>
<g id="a_node30"><a xlink:href="quickjs_8c.html#ad90c33b4aae1181151bda4a98ac2ef23" target="_top" xlink:title=" ">
<polygon fill="none" stroke="red" points="460.5,-456.5 460.5,-475.5 570.5,-475.5 570.5,-456.5 460.5,-456.5"/>
<text text-anchor="middle" x="515.5" y="-463.5" font-family="Helvetica,sans-Serif" font-size="10.00">JS_FlattenIntoArray</text>
</a>
</g>
</g>
<!-- Node28&#45;&gt;Node32 -->
<g id="edge53" class="edge">
<title>Node28&#45;&gt;Node32</title>
<path fill="none" stroke="midnightblue" d="M682.63,-580.6C664.34,-560.02 631.57,-525.68 598,-503 581,-491.52 559.87,-482.04 543.38,-475.55"/>
<polygon fill="midnightblue" stroke="midnightblue" points="680.11,-583.04 689.33,-588.26 685.38,-578.43 680.11,-583.04"/>
</g>
<!-- Node32&#45;&gt;Node32 -->
<g id="edge54" class="edge">
<title>Node32&#45;&gt;Node32</title>
<path fill="none" stroke="midnightblue" d="M549.61,-483.89C549.11,-489.54 537.74,-494 515.5,-494 483.15,-494 473.8,-484.57 487.45,-475.76"/>
<polygon fill="midnightblue" stroke="midnightblue" points="552.33,-481.69 543.55,-475.76 546.72,-485.87 552.33,-481.69"/>
</g>
</g>
</svg>
        <g id="navigator" transform="translate(0 0)" fill="#404254">
                <rect fill="#f2f5e9" fill-opacity="0.5" stroke="#606060" stroke-width=".5" x="0" y="0" width="60" height="60"/>
                <use id="zoomplus" xlink:href="#zoomPlus" x="17" y="9" onmousedown="handleZoom(evt,'in')"/>
                <use id="zoomminus" xlink:href="#zoomMin" x="42" y="9" onmousedown="handleZoom(evt,'out')"/>
                <use id="reset" xlink:href="#resetDef" x="30" y="36" onmousedown="handleReset()"/>
                <g id="arrowUp" xlink:href="#dirArrow" transform="translate(30 24)" onmousedown="handlePan(0,-1)">
                  <use xlink:href="#rim" fill="#404040">
                        <set attributeName="fill" to="#808080" begin="arrowUp.mouseover" end="arrowUp.mouseout"/>
                  </use>
                  <path fill="none" stroke="white" stroke-width="1.5" d="M0,-3.0v7 M-2.5,-0.5L0,-3.0L2.5,-0.5"/>
                </g>
                <g id="arrowRight" xlink:href="#dirArrow" transform="rotate(90) translate(36 -43)" onmousedown="handlePan(1,0)">
                  <use xlink:href="#rim" fill="#404040">
                        <set attributeName="fill" to="#808080" begin="arrowRight.mouseover" end="arrowRight.mouseout"/>
                  </use>
                  <path fill="none" stroke="white" stroke-width="1.5" d="M0,-3.0v7 M-2.5,-0.5L0,-3.0L2.5,-0.5"/>
                </g>
                <g id="arrowDown" xlink:href="#dirArrow" transform="rotate(180) translate(-30 -48)" onmousedown="handlePan(0,1)">
                  <use xlink:href="#rim" fill="#404040">
                        <set attributeName="fill" to="#808080" begin="arrowDown.mouseover" end="arrowDown.mouseout"/>
                  </use>
                  <path fill="none" stroke="white" stroke-width="1.5" d="M0,-3.0v7 M-2.5,-0.5L0,-3.0L2.5,-0.5"/>
                </g>
                <g id="arrowLeft" xlink:href="#dirArrow" transform="rotate(270) translate(-36 17)" onmousedown="handlePan(-1,0)">
                  <use xlink:href="#rim" fill="#404040">
                        <set attributeName="fill" to="#808080" begin="arrowLeft.mouseover" end="arrowLeft.mouseout"/>
                  </use>
                  <path fill="none" stroke="white" stroke-width="1.5" d="M0,-3.0v7 M-2.5,-0.5L0,-3.0L2.5,-0.5"/>
                </g>
        </g>
        <svg viewBox="0 0 15 15" width="100%" height="30px" preserveAspectRatio="xMaxYMin meet">
         <g id="arrow_out" transform="scale(0.3 0.3)">
          <a xlink:href="quickjs_8c_aa641af3a921335927dab07dc83285917_icgraph_org.svg" target="_base">
           <rect id="button" ry="5" rx="5" y="6" x="6" height="38" width="38"
                fill="#f2f5e9" fill-opacity="0.5" stroke="#606060" stroke-width="1.0"/>
           <path id="arrow"
             d="M 11.500037,31.436501 C 11.940474,20.09759 22.043105,11.32322 32.158766,21.979434 L 37.068811,17.246167 C 37.068811,17.246167 37.088388,32 37.088388,32 L 22.160133,31.978069 C 22.160133,31.978069 26.997745,27.140456 26.997745,27.140456 C 18.528582,18.264221 13.291696,25.230495 11.500037,31.436501 z"
             style="fill:#404040;"/>
          </a>
         </g>
        </svg>
</svg>
