<?xml version="1.0" encoding="UTF-8" standalone="no"?>
<!DOCTYPE svg PUBLIC "-//W3C//DTD SVG 1.1//EN"
 "http://www.w3.org/Graphics/SVG/1.1/DTD/svg11.dtd">
<!-- Generated by graphviz version 2.43.0 (0)
 -->
<!-- Title: js_date_constructor Pages: 1 -->
<svg width="709pt" height="778pt"
 viewBox="0.00 0.00 709.00 778.00" xmlns="http://www.w3.org/2000/svg" xmlns:xlink="http://www.w3.org/1999/xlink">
<g id="graph0" class="graph" transform="scale(1 1) rotate(0) translate(4 774)">
<title>js_date_constructor</title>
<!-- Node1 -->
<g id="node1" class="node">
<title>Node1</title>
<g id="a_node1"><a xlink:title=" ">
<polygon fill="#bfbfbf" stroke="black" points="0,-427.5 0,-446.5 112,-446.5 112,-427.5 0,-427.5"/>
<text text-anchor="middle" x="56" y="-434.5" font-family="Helvetica,sans-Serif" font-size="10.00">js_date_constructor</text>
</a>
</g>
</g>
<!-- Node2 -->
<g id="node2" class="node">
<title>Node2</title>
<g id="a_node2"><a xlink:href="quickjs_8c.html#ab4d310ae0cce7aff63620bced920cf0f" target="_top" xlink:title=" ">
<polygon fill="none" stroke="black" points="172.5,-712.5 172.5,-731.5 236.5,-731.5 236.5,-712.5 172.5,-712.5"/>
<text text-anchor="middle" x="204.5" y="-719.5" font-family="Helvetica,sans-Serif" font-size="10.00">date_now</text>
</a>
</g>
</g>
<!-- Node1&#45;&gt;Node2 -->
<g id="edge1" class="edge">
<title>Node1&#45;&gt;Node2</title>
<path fill="none" stroke="midnightblue" d="M57.37,-446.54C59.38,-484.55 71.91,-626.89 148,-703 152.2,-707.2 157.36,-710.47 162.83,-713.02"/>
<polygon fill="midnightblue" stroke="midnightblue" points="161.63,-716.31 172.22,-716.66 164.16,-709.78 161.63,-716.31"/>
</g>
<!-- Node3 -->
<g id="node3" class="node">
<title>Node3</title>
<g id="a_node3"><a xlink:href="quickjs_8c.html#ab522181d975cc7949088c8ff67fedde0" target="_top" xlink:title=" ">
<polygon fill="none" stroke="black" points="158.5,-674.5 158.5,-693.5 250.5,-693.5 250.5,-674.5 158.5,-674.5"/>
<text text-anchor="middle" x="204.5" y="-681.5" font-family="Helvetica,sans-Serif" font-size="10.00">get_date_string</text>
</a>
</g>
</g>
<!-- Node1&#45;&gt;Node3 -->
<g id="edge2" class="edge">
<title>Node1&#45;&gt;Node3</title>
<path fill="none" stroke="midnightblue" d="M58.34,-446.91C63.47,-481.08 84.8,-595.48 148,-660 151.72,-663.79 156.13,-667.02 160.82,-669.77"/>
<polygon fill="midnightblue" stroke="midnightblue" points="159.57,-673.06 170.07,-674.46 162.74,-666.82 159.57,-673.06"/>
</g>
<!-- Node301 -->
<g id="node7" class="node">
<title>Node301</title>
<g id="a_node7"><a xlink:href="quickjs_8c.html#a93dbf502b17d1328c524401335f60499" target="_top" xlink:title=" ">
<polygon fill="none" stroke="red" points="148,-560.5 148,-579.5 261,-579.5 261,-560.5 148,-560.5"/>
<text text-anchor="middle" x="204.5" y="-567.5" font-family="Helvetica,sans-Serif" font-size="10.00">js_create_from_ctor</text>
</a>
</g>
</g>
<!-- Node1&#45;&gt;Node301 -->
<g id="edge7" class="edge">
<title>Node1&#45;&gt;Node301</title>
<path fill="none" stroke="midnightblue" d="M62.21,-446.79C74.34,-468.66 106.59,-521.84 148,-551 150.71,-552.91 153.62,-554.63 156.64,-556.2"/>
<polygon fill="midnightblue" stroke="midnightblue" points="155.4,-559.48 165.96,-560.42 158.29,-553.1 155.4,-559.48"/>
</g>
<!-- Node27 -->
<g id="node8" class="node">
<title>Node27</title>
<g id="a_node8"><a xlink:href="quickjs_8h.html#afaa20c47565bc704c6c85f3d77254e7d" target="_top" xlink:title=" ">
<polygon fill="none" stroke="red" points="325,-598.5 325,-617.5 404,-617.5 404,-598.5 325,-598.5"/>
<text text-anchor="middle" x="364.5" y="-605.5" font-family="Helvetica,sans-Serif" font-size="10.00">JS_FreeValue</text>
</a>
</g>
</g>
<!-- Node1&#45;&gt;Node27 -->
<g id="edge35" class="edge">
<title>Node1&#45;&gt;Node27</title>
<path fill="none" stroke="midnightblue" d="M59.46,-446.64C67.09,-474.39 93.26,-554.71 148,-589 198.16,-620.42 268.22,-620.36 314.68,-615.67"/>
<polygon fill="midnightblue" stroke="midnightblue" points="315.25,-619.12 324.79,-614.53 314.47,-612.17 315.25,-619.12"/>
</g>
<!-- Node13 -->
<g id="node9" class="node">
<title>Node13</title>
<g id="a_node9"><a xlink:href="quickjs_8h.html#ad80a83d73e9b7d872b88fbf2943aebe9" target="_top" xlink:title=" ">
<polygon fill="none" stroke="black" points="321,-560.5 321,-579.5 408,-579.5 408,-560.5 321,-560.5"/>
<text text-anchor="middle" x="364.5" y="-567.5" font-family="Helvetica,sans-Serif" font-size="10.00">JS_IsException</text>
</a>
</g>
</g>
<!-- Node1&#45;&gt;Node13 -->
<g id="edge36" class="edge">
<title>Node1&#45;&gt;Node13</title>
<path fill="none" stroke="midnightblue" d="M75.11,-446.6C93.21,-455.94 122.03,-470.14 148,-480 196.91,-498.57 216.35,-485.73 261,-513 280.85,-525.13 277.11,-538.93 297,-551 301.44,-553.69 306.28,-556.02 311.26,-558.03"/>
<polygon fill="midnightblue" stroke="midnightblue" points="310.33,-561.41 320.93,-561.5 312.7,-554.83 310.33,-561.41"/>
</g>
<!-- Node134 -->
<g id="node10" class="node">
<title>Node134</title>
<g id="a_node10"><a xlink:href="quickjs_8h.html#a4e407128a9605afb77523e49e9a627fd" target="_top" xlink:title=" ">
<polygon fill="none" stroke="black" points="320,-636.5 320,-655.5 409,-655.5 409,-636.5 320,-636.5"/>
<text text-anchor="middle" x="364.5" y="-643.5" font-family="Helvetica,sans-Serif" font-size="10.00">JS_IsUndefined</text>
</a>
</g>
</g>
<!-- Node1&#45;&gt;Node134 -->
<g id="edge39" class="edge">
<title>Node1&#45;&gt;Node134</title>
<path fill="none" stroke="midnightblue" d="M58.7,-446.87C64.58,-477.87 87.22,-573.77 148,-617 195.05,-650.46 262.79,-654.29 309.71,-651.95"/>
<polygon fill="midnightblue" stroke="midnightblue" points="310.22,-655.43 319.98,-651.33 309.79,-648.44 310.22,-655.43"/>
</g>
<!-- Node447 -->
<g id="node11" class="node">
<title>Node447</title>
<g id="a_node11"><a xlink:href="quickjs_8c.html#ac2ddbbd09d32a6d9a4b7530d7f68c6f0" target="_top" xlink:title=" ">
<polygon fill="none" stroke="black" points="161.5,-408.5 161.5,-427.5 247.5,-427.5 247.5,-408.5 161.5,-408.5"/>
<text text-anchor="middle" x="204.5" y="-415.5" font-family="Helvetica,sans-Serif" font-size="10.00">js_Date_parse</text>
</a>
</g>
</g>
<!-- Node1&#45;&gt;Node447 -->
<g id="edge11" class="edge">
<title>Node1&#45;&gt;Node447</title>
<path fill="none" stroke="midnightblue" d="M112.39,-429.82C125.05,-428.17 138.46,-426.43 151,-424.81"/>
<polygon fill="midnightblue" stroke="midnightblue" points="151.82,-428.23 161.29,-423.47 150.92,-421.29 151.82,-428.23"/>
</g>
<!-- Node19 -->
<g id="node12" class="node">
<title>Node19</title>
<g id="a_node12"><a xlink:href="quickjs_8h.html#ae91f44bd7249613050c18c7133702c67" target="_top" xlink:title=" ">
<polygon fill="none" stroke="red" points="320,-522.5 320,-541.5 409,-541.5 409,-522.5 320,-522.5"/>
<text text-anchor="middle" x="364.5" y="-529.5" font-family="Helvetica,sans-Serif" font-size="10.00">JS_NewFloat64</text>
</a>
</g>
</g>
<!-- Node1&#45;&gt;Node19 -->
<g id="edge40" class="edge">
<title>Node1&#45;&gt;Node19</title>
<path fill="none" stroke="midnightblue" d="M112.18,-444.62C153.84,-451.32 212.01,-462.75 261,-480 288.78,-489.78 318.61,-505.58 338.88,-517.19"/>
<polygon fill="midnightblue" stroke="midnightblue" points="337.35,-520.35 347.75,-522.36 340.87,-514.3 337.35,-520.35"/>
</g>
<!-- Node448 -->
<g id="node14" class="node">
<title>Node448</title>
<g id="a_node14"><a xlink:href="quickjs_8c.html#ad3c70a30f3676b516a77c91e3761a124" target="_top" xlink:title=" ">
<polygon fill="none" stroke="red" points="319.5,-142.5 319.5,-161.5 409.5,-161.5 409.5,-142.5 319.5,-142.5"/>
<text text-anchor="middle" x="364.5" y="-149.5" font-family="Helvetica,sans-Serif" font-size="10.00">set_date_fields</text>
</a>
</g>
</g>
<!-- Node1&#45;&gt;Node448 -->
<g id="edge48" class="edge">
<title>Node1&#45;&gt;Node448</title>
<path fill="none" stroke="midnightblue" d="M78.89,-427.34C97.22,-419.38 124.13,-407.99 148,-399 197.59,-380.34 226.15,-400.91 261,-361 316.96,-296.92 240.45,-236.56 297,-173 300.72,-168.82 305.27,-165.46 310.22,-162.77"/>
<polygon fill="midnightblue" stroke="midnightblue" points="311.8,-165.89 319.49,-158.6 308.93,-159.51 311.8,-165.89"/>
</g>
<!-- Node449 -->
<g id="node16" class="node">
<title>Node449</title>
<g id="a_node16"><a xlink:href="quickjs_8c.html#a478ea24cf629522a55e209b2619334c7" target="_top" xlink:title=" ">
<polygon fill="none" stroke="black" points="503,-101.5 503,-120.5 565,-120.5 565,-101.5 503,-101.5"/>
<text text-anchor="middle" x="534" y="-108.5" font-family="Helvetica,sans-Serif" font-size="10.00">time_clip</text>
</a>
</g>
</g>
<!-- Node1&#45;&gt;Node449 -->
<g id="edge49" class="edge">
<title>Node1&#45;&gt;Node449</title>
<path fill="none" stroke="midnightblue" d="M60.82,-427.27C78.88,-382.75 160.69,-197.87 297,-133 360.35,-102.85 443.99,-103.1 492.8,-106.63"/>
<polygon fill="midnightblue" stroke="midnightblue" points="492.71,-110.14 502.96,-107.45 493.28,-103.16 492.71,-110.14"/>
</g>
<!-- Node8 -->
<g id="node25" class="node">
<title>Node8</title>
<g id="a_node25"><a xlink:href="quickjs_8h.html#ab995df176086f2a2a06ab777d4c4ef28" target="_top" xlink:title=" ">
<polygon fill="none" stroke="black" points="165.5,-332.5 165.5,-351.5 243.5,-351.5 243.5,-332.5 165.5,-332.5"/>
<text text-anchor="middle" x="204.5" y="-339.5" font-family="Helvetica,sans-Serif" font-size="10.00">JS_IsNumber</text>
</a>
</g>
</g>
<!-- Node1&#45;&gt;Node8 -->
<g id="edge37" class="edge">
<title>Node1&#45;&gt;Node8</title>
<path fill="none" stroke="midnightblue" d="M67.55,-427.3C83.87,-412.64 116.63,-384.6 148,-366 154.39,-362.21 161.5,-358.68 168.43,-355.55"/>
<polygon fill="midnightblue" stroke="midnightblue" points="169.89,-358.73 177.69,-351.56 167.12,-352.31 169.89,-358.73"/>
</g>
<!-- Node358 -->
<g id="node26" class="node">
<title>Node358</title>
<g id="a_node26"><a xlink:href="quickjs_8h.html#aa53b9197dc6d5770e3a080c1e335f7cb" target="_top" xlink:title=" ">
<polygon fill="none" stroke="black" points="170.5,-294.5 170.5,-313.5 238.5,-313.5 238.5,-294.5 170.5,-294.5"/>
<text text-anchor="middle" x="204.5" y="-301.5" font-family="Helvetica,sans-Serif" font-size="10.00">JS_IsString</text>
</a>
</g>
</g>
<!-- Node1&#45;&gt;Node358 -->
<g id="edge38" class="edge">
<title>Node1&#45;&gt;Node358</title>
<path fill="none" stroke="midnightblue" d="M62.21,-427.21C74.34,-405.34 106.59,-352.16 148,-323 151.96,-320.21 156.35,-317.81 160.89,-315.74"/>
<polygon fill="midnightblue" stroke="midnightblue" points="162.35,-318.92 170.32,-311.94 159.74,-312.43 162.35,-318.92"/>
</g>
<!-- Node283 -->
<g id="node27" class="node">
<title>Node283</title>
<g id="a_node27"><a xlink:href="quickjs_8c.html#a5cfd8b63940fcb5151b4df41e32dc68c" target="_top" xlink:title=" ">
<polygon fill="none" stroke="black" points="154,-522.5 154,-541.5 255,-541.5 255,-522.5 154,-522.5"/>
<text text-anchor="middle" x="204.5" y="-529.5" font-family="Helvetica,sans-Serif" font-size="10.00">JS_SetObjectData</text>
</a>
</g>
</g>
<!-- Node1&#45;&gt;Node283 -->
<g id="edge41" class="edge">
<title>Node1&#45;&gt;Node283</title>
<path fill="none" stroke="midnightblue" d="M67.55,-446.7C83.87,-461.36 116.63,-489.4 148,-508 154.39,-511.79 161.5,-515.32 168.43,-518.45"/>
<polygon fill="midnightblue" stroke="midnightblue" points="167.12,-521.69 177.69,-522.44 169.89,-515.27 167.12,-521.69"/>
</g>
<!-- Node9 -->
<g id="node28" class="node">
<title>Node9</title>
<g id="a_node28"><a xlink:href="quickjs_8c.html#a8cc9386cd04cfa067d0c6bf588c6bb58" target="_top" xlink:title=" ">
<polygon fill="none" stroke="red" points="165.5,-76.5 165.5,-95.5 243.5,-95.5 243.5,-76.5 165.5,-76.5"/>
<text text-anchor="middle" x="204.5" y="-83.5" font-family="Helvetica,sans-Serif" font-size="10.00">JS_ToFloat64</text>
</a>
</g>
</g>
<!-- Node1&#45;&gt;Node9 -->
<g id="edge44" class="edge">
<title>Node1&#45;&gt;Node9</title>
<path fill="none" stroke="midnightblue" d="M56.84,-427.33C56.66,-384.45 61.45,-209.27 148,-110 151.24,-106.29 155.15,-103.13 159.38,-100.45"/>
<polygon fill="midnightblue" stroke="midnightblue" points="161.26,-103.41 168.41,-95.59 157.95,-97.25 161.26,-103.41"/>
</g>
<!-- Node11 -->
<g id="node29" class="node">
<title>Node11</title>
<g id="a_node29"><a xlink:href="quickjs_8c.html#ab1b614ef35f1cea05da0ad4927c53118" target="_top" xlink:title=" ">
<polygon fill="none" stroke="red" points="315,-57.5 315,-76.5 414,-76.5 414,-57.5 315,-57.5"/>
<text text-anchor="middle" x="364.5" y="-64.5" font-family="Helvetica,sans-Serif" font-size="10.00">JS_ToFloat64Free</text>
</a>
</g>
</g>
<!-- Node1&#45;&gt;Node11 -->
<g id="edge46" class="edge">
<title>Node1&#45;&gt;Node11</title>
<path fill="none" stroke="midnightblue" d="M57.8,-427.43C62.5,-374.06 88.26,-113.83 148,-67 199.16,-26.9 280.15,-41.23 326.9,-54.58"/>
<polygon fill="midnightblue" stroke="midnightblue" points="326.03,-57.97 336.62,-57.48 328.04,-51.27 326.03,-57.97"/>
</g>
<!-- Node99 -->
<g id="node30" class="node">
<title>Node99</title>
<g id="a_node30"><a xlink:href="quickjs_8c.html#a2b8df609710fa689dd50b4bd18df2493" target="_top" xlink:title=" ">
<polygon fill="none" stroke="red" points="161.5,-0.5 161.5,-19.5 247.5,-19.5 247.5,-0.5 161.5,-0.5"/>
<text text-anchor="middle" x="204.5" y="-7.5" font-family="Helvetica,sans-Serif" font-size="10.00">JS_ToPrimitive</text>
</a>
</g>
</g>
<!-- Node1&#45;&gt;Node99 -->
<g id="edge47" class="edge">
<title>Node1&#45;&gt;Node99</title>
<path fill="none" stroke="midnightblue" d="M58,-427.34C63.85,-372.19 95.34,-97.49 148,-34 151.1,-30.26 154.9,-27.08 159.04,-24.4"/>
<polygon fill="midnightblue" stroke="midnightblue" points="160.82,-27.41 167.9,-19.53 157.45,-21.28 160.82,-27.41"/>
</g>
<!-- Node4 -->
<g id="node4" class="node">
<title>Node4</title>
<g id="a_node4"><a xlink:href="quickjs_8c.html#aef33badbc2ebaf812f7cba5302f2d047" target="_top" xlink:title=" ">
<polygon fill="none" stroke="red" points="319,-712.5 319,-731.5 410,-731.5 410,-712.5 319,-712.5"/>
<text text-anchor="middle" x="364.5" y="-719.5" font-family="Helvetica,sans-Serif" font-size="10.00">get_date_fields</text>
</a>
</g>
</g>
<!-- Node3&#45;&gt;Node4 -->
<g id="edge3" class="edge">
<title>Node3&#45;&gt;Node4</title>
<path fill="none" stroke="midnightblue" d="M245.37,-693.59C266.22,-698.6 291.93,-704.79 314.04,-710.11"/>
<polygon fill="midnightblue" stroke="midnightblue" points="313.38,-713.54 323.92,-712.48 315.01,-706.74 313.38,-713.54"/>
</g>
<!-- Node75 -->
<g id="node5" class="node">
<title>Node75</title>
<g id="a_node5"><a xlink:href="quickjs_8c.html#a0ee6a3654a6016393fac5e1c108f403a" target="_top" xlink:title=" ">
<polygon fill="none" stroke="black" points="324,-750.5 324,-769.5 405,-769.5 405,-750.5 324,-750.5"/>
<text text-anchor="middle" x="364.5" y="-757.5" font-family="Helvetica,sans-Serif" font-size="10.00">JS_NewString</text>
</a>
</g>
</g>
<!-- Node3&#45;&gt;Node75 -->
<g id="edge4" class="edge">
<title>Node3&#45;&gt;Node75</title>
<path fill="none" stroke="midnightblue" d="M241.61,-693.52C248.33,-696.07 255.09,-699.2 261,-703 280.57,-715.58 277.11,-728.93 297,-741 302.32,-744.23 308.22,-746.93 314.23,-749.18"/>
<polygon fill="midnightblue" stroke="midnightblue" points="313.13,-752.5 323.72,-752.37 315.35,-745.87 313.13,-752.5"/>
</g>
<!-- Node76 -->
<g id="node6" class="node">
<title>Node76</title>
<g id="a_node6"><a xlink:href="quickjs_8c.html#ac34cc554aab1e98c45a7f845fff64385" target="_top" xlink:title=" ">
<polygon fill="none" stroke="red" points="485,-712.5 485,-731.5 583,-731.5 583,-712.5 485,-712.5"/>
<text text-anchor="middle" x="534" y="-719.5" font-family="Helvetica,sans-Serif" font-size="10.00">JS_NewStringLen</text>
</a>
</g>
</g>
<!-- Node3&#45;&gt;Node76 -->
<g id="edge6" class="edge">
<title>Node3&#45;&gt;Node76</title>
<path fill="none" stroke="midnightblue" d="M250.77,-686.43C296.6,-689.21 369.44,-694.51 432,-703 446.94,-705.03 463.02,-707.79 477.86,-710.57"/>
<polygon fill="midnightblue" stroke="midnightblue" points="477.43,-714.05 487.91,-712.5 478.75,-707.18 477.43,-714.05"/>
</g>
<!-- Node75&#45;&gt;Node76 -->
<g id="edge5" class="edge">
<title>Node75&#45;&gt;Node76</title>
<path fill="none" stroke="midnightblue" d="M405.2,-750.99C427.9,-745.84 456.64,-739.32 481.11,-733.77"/>
<polygon fill="midnightblue" stroke="midnightblue" points="481.98,-737.16 490.96,-731.54 480.43,-730.34 481.98,-737.16"/>
</g>
<!-- Node301&#45;&gt;Node27 -->
<g id="edge8" class="edge">
<title>Node301&#45;&gt;Node27</title>
<path fill="none" stroke="midnightblue" d="M245.37,-579.59C266.46,-584.66 292.52,-590.93 314.8,-596.29"/>
<polygon fill="midnightblue" stroke="midnightblue" points="314.19,-599.74 324.74,-598.68 315.83,-592.94 314.19,-599.74"/>
</g>
<!-- Node301&#45;&gt;Node13 -->
<g id="edge9" class="edge">
<title>Node301&#45;&gt;Node13</title>
<path fill="none" stroke="midnightblue" d="M261.2,-570C277.24,-570 294.68,-570 310.54,-570"/>
<polygon fill="midnightblue" stroke="midnightblue" points="310.71,-573.5 320.71,-570 310.71,-566.5 310.71,-573.5"/>
</g>
<!-- Node301&#45;&gt;Node134 -->
<g id="edge10" class="edge">
<title>Node301&#45;&gt;Node134</title>
<path fill="none" stroke="midnightblue" d="M218.19,-579.52C235.3,-591.96 267.06,-613.71 297,-627 302.27,-629.34 307.91,-631.47 313.59,-633.39"/>
<polygon fill="midnightblue" stroke="midnightblue" points="312.53,-636.73 323.12,-636.42 314.65,-630.05 312.53,-636.73"/>
</g>
<!-- Node447&#45;&gt;Node27 -->
<g id="edge12" class="edge">
<title>Node447&#45;&gt;Node27</title>
<path fill="none" stroke="midnightblue" d="M211.45,-427.55C221.93,-444.51 244.15,-481.07 261,-513 278.44,-546.06 268.49,-564.83 297,-589 302.29,-593.49 308.58,-596.92 315.15,-599.54"/>
<polygon fill="midnightblue" stroke="midnightblue" points="314.3,-602.94 324.89,-602.83 316.54,-596.31 314.3,-602.94"/>
</g>
<!-- Node447&#45;&gt;Node13 -->
<g id="edge13" class="edge">
<title>Node447&#45;&gt;Node13</title>
<path fill="none" stroke="midnightblue" d="M215.81,-427.84C227.68,-439.52 247.3,-459.96 261,-480 280.97,-509.21 269.71,-528.48 297,-551 301.28,-554.53 306.19,-557.41 311.35,-559.75"/>
<polygon fill="midnightblue" stroke="midnightblue" points="310.26,-563.08 320.85,-563.42 312.78,-556.55 310.26,-563.08"/>
</g>
<!-- Node447&#45;&gt;Node19 -->
<g id="edge14" class="edge">
<title>Node447&#45;&gt;Node19</title>
<path fill="none" stroke="midnightblue" d="M237.31,-427.52C245.68,-431.1 254.25,-435.84 261,-442 285.68,-464.53 271.64,-486.25 297,-508 301.83,-512.14 307.43,-515.59 313.29,-518.46"/>
<polygon fill="midnightblue" stroke="midnightblue" points="312.08,-521.75 322.65,-522.5 314.85,-515.32 312.08,-521.75"/>
</g>
<!-- Node69 -->
<g id="node13" class="node">
<title>Node69</title>
<g id="a_node13"><a xlink:href="quickjs_8c.html#a7bcb8e1a20cbc8374a5f9ba4a2088cec" target="_top" xlink:title=" ">
<polygon fill="none" stroke="red" points="329.5,-294.5 329.5,-313.5 399.5,-313.5 399.5,-294.5 329.5,-294.5"/>
<text text-anchor="middle" x="364.5" y="-301.5" font-family="Helvetica,sans-Serif" font-size="10.00">JS_ToString</text>
</a>
</g>
</g>
<!-- Node447&#45;&gt;Node69 -->
<g id="edge15" class="edge">
<title>Node447&#45;&gt;Node69</title>
<path fill="none" stroke="midnightblue" d="M237.31,-408.48C245.68,-404.9 254.25,-400.16 261,-394 285.68,-371.47 271.64,-349.75 297,-328 303.56,-322.37 311.55,-318.02 319.68,-314.68"/>
<polygon fill="midnightblue" stroke="midnightblue" points="321.02,-317.91 329.21,-311.19 318.61,-311.34 321.02,-317.91"/>
</g>
<!-- Node447&#45;&gt;Node448 -->
<g id="edge16" class="edge">
<title>Node447&#45;&gt;Node448</title>
<path fill="none" stroke="midnightblue" d="M241.95,-408.41C249.2,-404.96 256.09,-400.29 261,-394 321.45,-316.61 234.19,-251.48 297,-176 300.63,-171.64 305.12,-168.07 310.04,-165.15"/>
<polygon fill="midnightblue" stroke="midnightblue" points="311.87,-168.14 319.27,-160.56 308.75,-161.88 311.87,-168.14"/>
</g>
<!-- Node450 -->
<g id="node17" class="node">
<title>Node450</title>
<g id="a_node17"><a xlink:href="quickjs_8c.html#a80398f847e2e83c2613b638719bf6fda" target="_top" xlink:title=" ">
<polygon fill="none" stroke="black" points="636,-370.5 636,-389.5 701,-389.5 701,-370.5 636,-370.5"/>
<text text-anchor="middle" x="668.5" y="-377.5" font-family="Helvetica,sans-Serif" font-size="10.00">string_get</text>
</a>
</g>
</g>
<!-- Node447&#45;&gt;Node450 -->
<g id="edge19" class="edge">
<title>Node447&#45;&gt;Node450</title>
<path fill="none" stroke="midnightblue" d="M241.02,-408.4C248.5,-404.93 255.72,-400.26 261,-394 304.41,-342.61 244.08,-288.52 297,-247 412.3,-156.53 594.43,-310.97 650.5,-363.48"/>
<polygon fill="midnightblue" stroke="midnightblue" points="648.18,-366.1 657.84,-370.45 653,-361.02 648.18,-366.1"/>
</g>
<!-- Node451 -->
<g id="node18" class="node">
<title>Node451</title>
<g id="a_node18"><a xlink:href="quickjs_8c.html#a4502faf013a4f94c09e686fbddbda07a" target="_top" xlink:title=" ">
<polygon fill="none" stroke="black" points="485,-446.5 485,-465.5 583,-465.5 583,-446.5 485,-446.5"/>
<text text-anchor="middle" x="534" y="-453.5" font-family="Helvetica,sans-Serif" font-size="10.00">string_get_digits</text>
</a>
</g>
</g>
<!-- Node447&#45;&gt;Node451 -->
<g id="edge20" class="edge">
<title>Node447&#45;&gt;Node451</title>
<path fill="none" stroke="midnightblue" d="M245.85,-427.51C261.71,-430.95 280.14,-434.58 297,-437 357.27,-445.65 426.81,-450.65 474.71,-453.33"/>
<polygon fill="midnightblue" stroke="midnightblue" points="474.72,-456.84 484.89,-453.88 475.1,-449.85 474.72,-456.84"/>
</g>
<!-- Node452 -->
<g id="node19" class="node">
<title>Node452</title>
<g id="a_node19"><a xlink:href="quickjs_8c.html#aad89e5b8f768e4b139b29de1bf2ff244" target="_top" xlink:title=" ">
<polygon fill="none" stroke="black" points="471,-178 471,-208 597,-208 597,-178 471,-178"/>
<text text-anchor="start" x="479" y="-196" font-family="Helvetica,sans-Serif" font-size="10.00">string_get_fixed_width</text>
<text text-anchor="middle" x="534" y="-185" font-family="Helvetica,sans-Serif" font-size="10.00">_digits</text>
</a>
</g>
</g>
<!-- Node447&#45;&gt;Node452 -->
<g id="edge22" class="edge">
<title>Node447&#45;&gt;Node452</title>
<path fill="none" stroke="midnightblue" d="M241.5,-408.43C248.87,-404.96 255.92,-400.29 261,-394 312.3,-330.56 236.26,-268.47 297,-214 340.64,-174.86 408.82,-172.79 460.7,-178.64"/>
<polygon fill="midnightblue" stroke="midnightblue" points="460.49,-182.15 470.84,-179.91 461.36,-175.2 460.49,-182.15"/>
</g>
<!-- Node453 -->
<g id="node20" class="node">
<title>Node453</title>
<g id="a_node20"><a xlink:href="quickjs_8c.html#a16df88d4a6f77ed4e8a79875a8b074a6" target="_top" xlink:title=" ">
<polygon fill="none" stroke="black" points="468,-484.5 468,-503.5 600,-503.5 600,-484.5 468,-484.5"/>
<text text-anchor="middle" x="534" y="-491.5" font-family="Helvetica,sans-Serif" font-size="10.00">string_get_milliseconds</text>
</a>
</g>
</g>
<!-- Node447&#45;&gt;Node453 -->
<g id="edge24" class="edge">
<title>Node447&#45;&gt;Node453</title>
<path fill="none" stroke="midnightblue" d="M227.67,-427.53C237.84,-431.91 250.04,-437.19 261,-442 277.04,-449.03 280.2,-453.08 297,-458 349.62,-473.41 410.88,-482.5 457.8,-487.7"/>
<polygon fill="midnightblue" stroke="midnightblue" points="457.57,-491.19 467.88,-488.78 458.31,-484.23 457.57,-491.19"/>
</g>
<!-- Node454 -->
<g id="node21" class="node">
<title>Node454</title>
<g id="a_node21"><a xlink:href="quickjs_8c.html#a3f727a5b0254dc65d6cb61d7b4812b9b" target="_top" xlink:title=" ">
<polygon fill="none" stroke="red" points="313.5,-256.5 313.5,-275.5 415.5,-275.5 415.5,-256.5 313.5,-256.5"/>
<text text-anchor="middle" x="364.5" y="-263.5" font-family="Helvetica,sans-Serif" font-size="10.00">string_get_month</text>
</a>
</g>
</g>
<!-- Node447&#45;&gt;Node454 -->
<g id="edge26" class="edge">
<title>Node447&#45;&gt;Node454</title>
<path fill="none" stroke="midnightblue" d="M239.8,-408.48C247.6,-404.98 255.26,-400.27 261,-394 295.43,-356.35 260.2,-320.33 297,-285 299.27,-282.82 301.76,-280.9 304.42,-279.19"/>
<polygon fill="midnightblue" stroke="midnightblue" points="306.18,-282.22 313.36,-274.43 302.89,-276.03 306.18,-282.22"/>
</g>
<!-- Node456 -->
<g id="node22" class="node">
<title>Node456</title>
<g id="a_node22"><a xlink:href="quickjs_8c.html#ae8bb4fb34fa1e849bdfd7a108a1f346e" target="_top" xlink:title=" ">
<polygon fill="none" stroke="black" points="479.5,-332.5 479.5,-351.5 588.5,-351.5 588.5,-332.5 479.5,-332.5"/>
<text text-anchor="middle" x="534" y="-339.5" font-family="Helvetica,sans-Serif" font-size="10.00">string_skip_spaces</text>
</a>
</g>
</g>
<!-- Node447&#45;&gt;Node456 -->
<g id="edge34" class="edge">
<title>Node447&#45;&gt;Node456</title>
<path fill="none" stroke="midnightblue" d="M226.16,-408.45C244.43,-400.34 272,-388.96 297,-382 354.37,-366.04 421.47,-355.41 469.42,-349.15"/>
<polygon fill="midnightblue" stroke="midnightblue" points="469.88,-352.62 479.35,-347.88 468.99,-345.68 469.88,-352.62"/>
</g>
<!-- Node457 -->
<g id="node23" class="node">
<title>Node457</title>
<g id="a_node23"><a xlink:href="quickjs_8c.html#a2f179461e54402c919fc78c4e76b0a21" target="_top" xlink:title=" ">
<polygon fill="none" stroke="black" points="297,-408.5 297,-427.5 432,-427.5 432,-408.5 297,-408.5"/>
<text text-anchor="middle" x="364.5" y="-415.5" font-family="Helvetica,sans-Serif" font-size="10.00">string_get_signed_digits</text>
</a>
</g>
</g>
<!-- Node447&#45;&gt;Node457 -->
<g id="edge29" class="edge">
<title>Node447&#45;&gt;Node457</title>
<path fill="none" stroke="midnightblue" d="M247.84,-418C259.86,-418 273.33,-418 286.72,-418"/>
<polygon fill="midnightblue" stroke="midnightblue" points="286.92,-421.5 296.92,-418 286.92,-414.5 286.92,-421.5"/>
</g>
<!-- Node458 -->
<g id="node24" class="node">
<title>Node458</title>
<g id="a_node24"><a xlink:href="quickjs_8c.html#a156d960178dceb45d82581c53cd7f81b" target="_top" xlink:title=" ">
<polygon fill="none" stroke="black" points="468,-370.5 468,-389.5 600,-389.5 600,-370.5 468,-370.5"/>
<text text-anchor="middle" x="534" y="-377.5" font-family="Helvetica,sans-Serif" font-size="10.00">string_skip_non_spaces</text>
</a>
</g>
</g>
<!-- Node447&#45;&gt;Node458 -->
<g id="edge32" class="edge">
<title>Node447&#45;&gt;Node458</title>
<path fill="none" stroke="midnightblue" d="M245.85,-408.49C261.71,-405.05 280.14,-401.42 297,-399 350.54,-391.32 411.4,-386.51 457.9,-383.66"/>
<polygon fill="midnightblue" stroke="midnightblue" points="458.13,-387.15 467.9,-383.06 457.71,-380.16 458.13,-387.15"/>
</g>
<!-- Node445 -->
<g id="node15" class="node">
<title>Node445</title>
<g id="a_node15"><a xlink:href="quickjs_8c.html#a3f5def6f020bd1c429735f0b1d079b5e" target="_top" xlink:title=" ">
<polygon fill="none" stroke="red" points="486.5,-139.5 486.5,-158.5 581.5,-158.5 581.5,-139.5 486.5,-139.5"/>
<text text-anchor="middle" x="534" y="-146.5" font-family="Helvetica,sans-Serif" font-size="10.00">days_from_year</text>
</a>
</g>
</g>
<!-- Node448&#45;&gt;Node445 -->
<g id="edge17" class="edge">
<title>Node448&#45;&gt;Node445</title>
<path fill="none" stroke="midnightblue" d="M409.51,-151.21C429.93,-150.85 454.44,-150.41 476.24,-150.02"/>
<polygon fill="midnightblue" stroke="midnightblue" points="476.42,-153.51 486.36,-149.84 476.29,-146.52 476.42,-153.51"/>
</g>
<!-- Node448&#45;&gt;Node449 -->
<g id="edge18" class="edge">
<title>Node448&#45;&gt;Node449</title>
<path fill="none" stroke="midnightblue" d="M404.35,-142.49C431,-135.97 466.26,-127.34 493.13,-120.76"/>
<polygon fill="midnightblue" stroke="midnightblue" points="494.1,-124.13 502.98,-118.35 492.44,-117.33 494.1,-124.13"/>
</g>
<!-- Node451&#45;&gt;Node450 -->
<g id="edge21" class="edge">
<title>Node451&#45;&gt;Node450</title>
<path fill="none" stroke="midnightblue" d="M566.6,-446.49C577.5,-442.66 589.58,-437.76 600,-432 618.05,-422.02 636.47,-407.48 649.49,-396.31"/>
<polygon fill="midnightblue" stroke="midnightblue" points="652,-398.77 657.22,-389.54 647.39,-393.5 652,-398.77"/>
</g>
<!-- Node452&#45;&gt;Node450 -->
<g id="edge23" class="edge">
<title>Node452&#45;&gt;Node450</title>
<path fill="none" stroke="midnightblue" d="M579.47,-208.16C586.97,-212.14 594.19,-217.03 600,-223 638.52,-262.55 656.7,-327.54 663.76,-360.1"/>
<polygon fill="midnightblue" stroke="midnightblue" points="660.39,-361.07 665.81,-370.17 667.25,-359.68 660.39,-361.07"/>
</g>
<!-- Node453&#45;&gt;Node450 -->
<g id="edge25" class="edge">
<title>Node453&#45;&gt;Node450</title>
<path fill="none" stroke="midnightblue" d="M581.87,-484.45C588.29,-481.98 594.54,-478.89 600,-475 627.75,-455.25 648.19,-420.39 658.94,-398.84"/>
<polygon fill="midnightblue" stroke="midnightblue" points="662.14,-400.24 663.3,-389.71 655.83,-397.22 662.14,-400.24"/>
</g>
<!-- Node454&#45;&gt;Node456 -->
<g id="edge27" class="edge">
<title>Node454&#45;&gt;Node456</title>
<path fill="none" stroke="midnightblue" d="M404.71,-275.54C413.81,-278.21 423.36,-281.39 432,-285 459.9,-296.67 489.83,-314.27 509.81,-326.82"/>
<polygon fill="midnightblue" stroke="midnightblue" points="508.19,-329.94 518.5,-332.36 511.95,-324.04 508.19,-329.94"/>
</g>
<!-- Node456&#45;&gt;Node450 -->
<g id="edge28" class="edge">
<title>Node456&#45;&gt;Node450</title>
<path fill="none" stroke="midnightblue" d="M568.44,-351.59C585.98,-356.62 607.64,-362.83 626.22,-368.16"/>
<polygon fill="midnightblue" stroke="midnightblue" points="625.32,-371.54 635.9,-370.94 627.25,-364.82 625.32,-371.54"/>
</g>
<!-- Node457&#45;&gt;Node450 -->
<g id="edge30" class="edge">
<title>Node457&#45;&gt;Node450</title>
<path fill="none" stroke="midnightblue" d="M432.15,-416.03C479.32,-413.8 543.92,-409.07 600,-399 609.33,-397.33 619.22,-394.91 628.48,-392.37"/>
<polygon fill="midnightblue" stroke="midnightblue" points="629.57,-395.69 638.22,-389.58 627.64,-388.97 629.57,-395.69"/>
</g>
<!-- Node457&#45;&gt;Node451 -->
<g id="edge31" class="edge">
<title>Node457&#45;&gt;Node451</title>
<path fill="none" stroke="midnightblue" d="M407.77,-427.59C430.07,-432.65 457.62,-438.9 481.2,-444.25"/>
<polygon fill="midnightblue" stroke="midnightblue" points="480.51,-447.68 491.04,-446.48 482.06,-440.85 480.51,-447.68"/>
</g>
<!-- Node458&#45;&gt;Node450 -->
<g id="edge33" class="edge">
<title>Node458&#45;&gt;Node450</title>
<path fill="none" stroke="midnightblue" d="M600.09,-380C608.83,-380 617.6,-380 625.79,-380"/>
<polygon fill="midnightblue" stroke="midnightblue" points="625.8,-383.5 635.8,-380 625.8,-376.5 625.8,-383.5"/>
</g>
<!-- Node283&#45;&gt;Node27 -->
<g id="edge42" class="edge">
<title>Node283&#45;&gt;Node27</title>
<path fill="none" stroke="midnightblue" d="M241.61,-541.52C248.33,-544.07 255.09,-547.2 261,-551 280.57,-563.58 277.11,-576.93 297,-589 302.52,-592.35 308.66,-595.13 314.92,-597.44"/>
<polygon fill="midnightblue" stroke="midnightblue" points="314.17,-600.88 324.76,-600.68 316.36,-594.23 314.17,-600.88"/>
</g>
<!-- Node283&#45;&gt;Node13 -->
<g id="edge43" class="edge">
<title>Node283&#45;&gt;Node13</title>
<path fill="none" stroke="midnightblue" d="M245.37,-541.59C266.22,-546.6 291.93,-552.79 314.04,-558.11"/>
<polygon fill="midnightblue" stroke="midnightblue" points="313.38,-561.54 323.92,-560.48 315.01,-554.74 313.38,-561.54"/>
</g>
<!-- Node9&#45;&gt;Node11 -->
<g id="edge45" class="edge">
<title>Node9&#45;&gt;Node11</title>
<path fill="none" stroke="midnightblue" d="M243.75,-81.4C262.03,-79.2 284.32,-76.52 304.69,-74.07"/>
<polygon fill="midnightblue" stroke="midnightblue" points="305.32,-77.52 314.83,-72.85 304.48,-70.57 305.32,-77.52"/>
</g>
</g>
</svg>
