<?xml version="1.0" encoding="UTF-8" standalone="no"?>
<!DOCTYPE svg PUBLIC "-//W3C//DTD SVG 1.1//EN"
 "http://www.w3.org/Graphics/SVG/1.1/DTD/svg11.dtd">
<!-- Generated by graphviz version 2.43.0 (0)
 -->
<!-- Title: JS_SetPropertyGeneric Pages: 1 -->
<!--zoomable 449 -->
<svg id="main" version="1.1" xmlns="http://www.w3.org/2000/svg" xmlns:xlink="http://www.w3.org/1999/xlink" xml:space="preserve" onload="init(evt)">
<style type="text/css"><![CDATA[
.edge:hover path { stroke: red; }
.edge:hover polygon { stroke: red; fill: red; }
]]></style>
<script type="text/javascript"><![CDATA[
var edges = document.getElementsByTagName('g');
if (edges && edges.length) {
  for (var i=0;i<edges.length;i++) {
    if (edges[i].id.substr(0,4)=='edge') {
      edges[i].setAttribute('class','edge');
    }
  }
}
]]></script>
        <defs>
                <circle id="rim" cx="0" cy="0" r="7"/>
                <circle id="rim2" cx="0" cy="0" r="3.5"/>
                <g id="zoomPlus">
                        <use xlink:href="#rim" fill="#404040">
                                <set attributeName="fill" to="#808080" begin="zoomplus.mouseover" end="zoomplus.mouseout"/>
                        </use>
                        <path d="M-4,0h8M0,-4v8" fill="none" stroke="white" stroke-width="1.5" pointer-events="none"/>
                </g>
                <g id="zoomMin">
                        <use xlink:href="#rim" fill="#404040">
                                <set attributeName="fill" to="#808080" begin="zoomminus.mouseover" end="zoomminus.mouseout"/>
                        </use>
                        <path d="M-4,0h8" fill="none" stroke="white" stroke-width="1.5" pointer-events="none"/>
                </g>
                <g id="dirArrow">
                        <path fill="none" stroke="white" stroke-width="1.5" d="M0,-3.0v7 M-2.5,-0.5L0,-3.0L2.5,-0.5"/>
                </g>
               <g id="resetDef">
                       <use xlink:href="#rim2" fill="#404040">
                               <set attributeName="fill" to="#808080" begin="reset.mouseover" end="reset.mouseout"/>
                       </use>
               </g>
        </defs>

<script type="text/javascript">
var viewWidth = 955;
var viewHeight = 449;
var sectionId = 'dynsection-601';
</script>
<script xlink:href="svgpan.js"/>
<svg id="graph" class="graph">
<g id="viewport">
<title>JS_SetPropertyGeneric</title>
<!-- Node1 -->
<g id="node1" class="node">
<title>Node1</title>
<g id="a_node1"><a xlink:title=" ">
<polygon fill="#bfbfbf" stroke="black" points="0,-209.5 0,-228.5 125,-228.5 125,-209.5 0,-209.5"/>
<text text-anchor="middle" x="62.5" y="-216.5" font-family="Helvetica,sans-Serif" font-size="10.00">JS_SetPropertyGeneric</text>
</a>
</g>
</g>
<!-- Node2 -->
<g id="node2" class="node">
<title>Node2</title>
<g id="a_node2"><a xlink:href="quickjs_8c.html#a014abd680db53ab89cb133345742a59c" target="_top" xlink:title=" ">
<polygon fill="none" stroke="black" points="535,-209.5 535,-228.5 615,-228.5 615,-209.5 535,-209.5"/>
<text text-anchor="middle" x="575" y="-216.5" font-family="Helvetica,sans-Serif" font-size="10.00">__attribute__</text>
</a>
</g>
</g>
<!-- Node1&#45;&gt;Node2 -->
<g id="edge1" class="edge">
<title>Node1&#45;&gt;Node2</title>
<path fill="none" stroke="midnightblue" d="M68.43,-209.29C80.54,-186.7 114.18,-130.94 161,-110 283.12,-55.39 338.06,-59.65 462,-110 507.22,-128.37 544.2,-174.75 562.18,-200.7"/>
<polygon fill="midnightblue" stroke="midnightblue" points="559.45,-202.9 567.93,-209.25 565.25,-199 559.45,-202.9"/>
</g>
<!-- Node235 -->
<g id="node7" class="node">
<title>Node235</title>
<g id="a_node7"><a xlink:href="quickjs_8c.html#a3fb71f8d31b557ebebec82476999408a" target="_top" xlink:title=" ">
<polygon fill="none" stroke="red" points="185,-380.5 185,-399.5 253,-399.5 253,-380.5 185,-380.5"/>
<text text-anchor="middle" x="219" y="-387.5" font-family="Helvetica,sans-Serif" font-size="10.00">call_setter</text>
</a>
</g>
</g>
<!-- Node1&#45;&gt;Node235 -->
<g id="edge6" class="edge">
<title>Node1&#45;&gt;Node235</title>
<path fill="none" stroke="midnightblue" d="M67.48,-228.65C78.56,-254.41 112.18,-325.56 161,-366 165.71,-369.91 171.16,-373.26 176.77,-376.12"/>
<polygon fill="midnightblue" stroke="midnightblue" points="175.72,-379.49 186.27,-380.47 178.64,-373.13 175.72,-379.49"/>
</g>
<!-- Node28 -->
<g id="node8" class="node">
<title>Node28</title>
<g id="a_node8"><a xlink:href="quickjs_8h.html#a775522f2d084fc8fa0fcb33f390006b4" target="_top" xlink:title=" ">
<polygon fill="none" stroke="black" points="536.5,-266.5 536.5,-285.5 613.5,-285.5 613.5,-266.5 536.5,-266.5"/>
<text text-anchor="middle" x="575" y="-273.5" font-family="Helvetica,sans-Serif" font-size="10.00">JS_DupValue</text>
</a>
</g>
</g>
<!-- Node1&#45;&gt;Node28 -->
<g id="edge21" class="edge">
<title>Node1&#45;&gt;Node28</title>
<path fill="none" stroke="midnightblue" d="M75.6,-209.49C93.25,-196.17 127.62,-172.33 161,-161 224.45,-139.46 406.86,-104.93 462,-143 499.16,-168.65 467.73,-204.5 498,-238 507.54,-248.55 520.67,-256.55 533.34,-262.42"/>
<polygon fill="midnightblue" stroke="midnightblue" points="532.3,-265.78 542.87,-266.49 535.05,-259.34 532.3,-265.78"/>
</g>
<!-- Node29 -->
<g id="node9" class="node">
<title>Node29</title>
<g id="a_node9"><a xlink:href="quickjs_8h.html#afaa20c47565bc704c6c85f3d77254e7d" target="_top" xlink:title=" ">
<polygon fill="none" stroke="red" points="348,-342.5 348,-361.5 427,-361.5 427,-342.5 348,-342.5"/>
<text text-anchor="middle" x="387.5" y="-349.5" font-family="Helvetica,sans-Serif" font-size="10.00">JS_FreeValue</text>
</a>
</g>
</g>
<!-- Node1&#45;&gt;Node29 -->
<g id="edge22" class="edge">
<title>Node1&#45;&gt;Node29</title>
<path fill="none" stroke="midnightblue" d="M68.26,-228.53C80.21,-251.33 113.95,-308.88 161,-333 216.54,-361.47 289.97,-361.92 337.71,-358.17"/>
<polygon fill="midnightblue" stroke="midnightblue" points="338.13,-361.64 347.79,-357.28 337.52,-354.67 338.13,-361.64"/>
</g>
<!-- Node209 -->
<g id="node10" class="node">
<title>Node209</title>
<g id="a_node10"><a xlink:href="quickjs_8c.html#ad5565bb5cfd5321f181573257f3b0c91" target="_top" xlink:title=" ">
<polygon fill="none" stroke="red" points="335.5,-266.5 335.5,-285.5 439.5,-285.5 439.5,-266.5 335.5,-266.5"/>
<text text-anchor="middle" x="387.5" y="-273.5" font-family="Helvetica,sans-Serif" font-size="10.00">JS_CreateProperty</text>
</a>
</g>
</g>
<!-- Node1&#45;&gt;Node209 -->
<g id="edge10" class="edge">
<title>Node1&#45;&gt;Node209</title>
<path fill="none" stroke="midnightblue" d="M117.56,-228.54C174.94,-238.67 265.44,-254.64 325.38,-265.21"/>
<polygon fill="midnightblue" stroke="midnightblue" points="325.01,-268.7 335.46,-266.99 326.22,-261.81 325.01,-268.7"/>
</g>
<!-- Node212 -->
<g id="node11" class="node">
<title>Node212</title>
<g id="a_node11"><a xlink:href="quickjs_8c.html#adba489eac6c2332de312326782457940" target="_top" xlink:title=" ">
<polygon fill="none" stroke="black" points="498,-342.5 498,-361.5 652,-361.5 652,-342.5 498,-342.5"/>
<text text-anchor="middle" x="575" y="-349.5" font-family="Helvetica,sans-Serif" font-size="10.00">JS_ThrowTypeErrorReadOnly</text>
</a>
</g>
</g>
<!-- Node1&#45;&gt;Node212 -->
<g id="edge30" class="edge">
<title>Node1&#45;&gt;Node212</title>
<path fill="none" stroke="midnightblue" d="M64.97,-228.86C70.44,-261.68 92.97,-367.45 161,-409 288.43,-486.84 478.68,-402.21 547.75,-366.41"/>
<polygon fill="midnightblue" stroke="midnightblue" points="549.46,-369.47 556.67,-361.71 546.2,-363.28 549.46,-369.47"/>
</g>
<!-- Node205 -->
<g id="node12" class="node">
<title>Node205</title>
<g id="a_node12"><a xlink:href="quickjs_8c.html#ab50618f1bf78e444caa6da0e3e2785d7" target="_top" xlink:title=" ">
<polygon fill="none" stroke="red" points="167,-190.5 167,-209.5 271,-209.5 271,-190.5 167,-190.5"/>
<text text-anchor="middle" x="219" y="-197.5" font-family="Helvetica,sans-Serif" font-size="10.00">JS_DefineProperty</text>
</a>
</g>
</g>
<!-- Node1&#45;&gt;Node205 -->
<g id="edge15" class="edge">
<title>Node1&#45;&gt;Node205</title>
<path fill="none" stroke="midnightblue" d="M125.01,-211.44C135.36,-210.16 146.1,-208.84 156.45,-207.57"/>
<polygon fill="midnightblue" stroke="midnightblue" points="157.15,-211.01 166.64,-206.32 156.29,-204.06 157.15,-211.01"/>
</g>
<!-- Node144 -->
<g id="node13" class="node">
<title>Node144</title>
<g id="a_node13"><a xlink:href="quickjs_8h.html#a4e407128a9605afb77523e49e9a627fd" target="_top" xlink:title=" ">
<polygon fill="none" stroke="black" points="343,-152.5 343,-171.5 432,-171.5 432,-152.5 343,-152.5"/>
<text text-anchor="middle" x="387.5" y="-159.5" font-family="Helvetica,sans-Serif" font-size="10.00">JS_IsUndefined</text>
</a>
</g>
</g>
<!-- Node1&#45;&gt;Node144 -->
<g id="edge29" class="edge">
<title>Node1&#45;&gt;Node144</title>
<path fill="none" stroke="midnightblue" d="M83.13,-209.41C102.45,-200.44 133.04,-187.48 161,-181 218.64,-167.63 286.51,-163.42 332.62,-162.21"/>
<polygon fill="midnightblue" stroke="midnightblue" points="332.78,-165.71 342.7,-161.99 332.62,-158.71 332.78,-165.71"/>
</g>
<!-- Node303 -->
<g id="node14" class="node">
<title>Node303</title>
<g id="a_node14"><a xlink:href="quickjs_8c.html#ad13892c0a0f11781b566808876658099" target="_top" xlink:title=" ">
<polygon fill="none" stroke="red" points="313,-304.5 313,-323.5 462,-323.5 462,-304.5 313,-304.5"/>
<text text-anchor="middle" x="387.5" y="-311.5" font-family="Helvetica,sans-Serif" font-size="10.00">JS_GetOwnPropertyInternal</text>
</a>
</g>
</g>
<!-- Node1&#45;&gt;Node303 -->
<g id="edge23" class="edge">
<title>Node1&#45;&gt;Node303</title>
<path fill="none" stroke="midnightblue" d="M83.67,-228.63C103.14,-237.64 133.6,-251.03 161,-260 216.13,-278.06 280.64,-292.9 326.51,-302.42"/>
<polygon fill="midnightblue" stroke="midnightblue" points="326.09,-305.9 336.59,-304.49 327.49,-299.05 326.09,-305.9"/>
</g>
<!-- Node391 -->
<g id="node15" class="node">
<title>Node391</title>
<g id="a_node15"><a xlink:href="quickjs_8c.html#a7f82fd53b039b4e12f1addfa15d750ae" target="_top" xlink:title=" ">
<polygon fill="none" stroke="red" points="161,-304.5 161,-323.5 277,-323.5 277,-304.5 161,-304.5"/>
<text text-anchor="middle" x="219" y="-311.5" font-family="Helvetica,sans-Serif" font-size="10.00">JS_GetPrototypeFree</text>
</a>
</g>
</g>
<!-- Node1&#45;&gt;Node391 -->
<g id="edge25" class="edge">
<title>Node1&#45;&gt;Node391</title>
<path fill="none" stroke="midnightblue" d="M74.91,-228.67C92.53,-243.28 127.81,-271.26 161,-290 167.69,-293.77 175.08,-297.31 182.27,-300.45"/>
<polygon fill="midnightblue" stroke="midnightblue" points="181.29,-303.83 191.86,-304.47 183.99,-297.38 181.29,-303.83"/>
</g>
<!-- Node219 -->
<g id="node16" class="node">
<title>Node219</title>
<g id="a_node16"><a xlink:href="quickjs_8h.html#a149f24b67e745bad93573b3b4c80db4c" target="_top" xlink:title=" ">
<polygon fill="none" stroke="black" points="189.5,-38.5 189.5,-57.5 248.5,-57.5 248.5,-38.5 189.5,-38.5"/>
<text text-anchor="middle" x="219" y="-45.5" font-family="Helvetica,sans-Serif" font-size="10.00">JS_IsNull</text>
</a>
</g>
</g>
<!-- Node1&#45;&gt;Node219 -->
<g id="edge27" class="edge">
<title>Node1&#45;&gt;Node219</title>
<path fill="none" stroke="midnightblue" d="M67.48,-209.35C78.56,-183.59 112.18,-112.44 161,-72 166.5,-67.44 172.99,-63.63 179.58,-60.49"/>
<polygon fill="midnightblue" stroke="midnightblue" points="181.41,-63.52 189.22,-56.36 178.65,-57.09 181.41,-63.52"/>
</g>
<!-- Node282 -->
<g id="node17" class="node">
<title>Node282</title>
<g id="a_node17"><a xlink:href="quickjs_8h.html#a3d68fe446df2d9c7d1900b16371bff5b" target="_top" xlink:title=" ">
<polygon fill="none" stroke="black" points="183.5,-0.5 183.5,-19.5 254.5,-19.5 254.5,-0.5 183.5,-0.5"/>
<text text-anchor="middle" x="219" y="-7.5" font-family="Helvetica,sans-Serif" font-size="10.00">JS_IsObject</text>
</a>
</g>
</g>
<!-- Node1&#45;&gt;Node282 -->
<g id="edge28" class="edge">
<title>Node1&#45;&gt;Node282</title>
<path fill="none" stroke="midnightblue" d="M65.76,-209.07C73.37,-177.81 101.07,-80.43 161,-29 164.91,-25.65 169.43,-22.88 174.18,-20.6"/>
<polygon fill="midnightblue" stroke="midnightblue" points="175.57,-23.81 183.5,-16.78 172.92,-17.33 175.57,-23.81"/>
</g>
<!-- Node3 -->
<g id="node3" class="node">
<title>Node3</title>
<g id="a_node3"><a xlink:href="quickjs_8c.html#a686cf78f8b0361621ee2ba6182195c31" target="_top" xlink:title=" ">
<polygon fill="none" stroke="black" points="688,-342.5 688,-361.5 776,-361.5 776,-342.5 688,-342.5"/>
<text text-anchor="middle" x="732" y="-349.5" font-family="Helvetica,sans-Serif" font-size="10.00">is_strict_mode</text>
</a>
</g>
</g>
<!-- Node2&#45;&gt;Node3 -->
<g id="edge2" class="edge">
<title>Node2&#45;&gt;Node3</title>
<path fill="none" stroke="midnightblue" d="M601.48,-228.59C617.01,-235.18 636.74,-244.9 652,-257 680.13,-279.3 705.25,-313.05 719.26,-333.74"/>
<polygon fill="midnightblue" stroke="midnightblue" points="716.46,-335.84 724.9,-342.24 722.29,-331.97 716.46,-335.84"/>
</g>
<!-- Node4 -->
<g id="node4" class="node">
<title>Node4</title>
<g id="a_node4"><a xlink:href="quickjs_8c.html#a1b110b017211230b8b6310e853cd2b54" target="_top" xlink:title=" ">
<polygon fill="none" stroke="black" points="690,-209.5 690,-228.5 774,-228.5 774,-209.5 690,-209.5"/>
<text text-anchor="middle" x="732" y="-216.5" font-family="Helvetica,sans-Serif" font-size="10.00">JS_ThrowError</text>
</a>
</g>
</g>
<!-- Node2&#45;&gt;Node4 -->
<g id="edge3" class="edge">
<title>Node2&#45;&gt;Node4</title>
<path fill="none" stroke="midnightblue" d="M615.11,-219C634.69,-219 658.64,-219 679.67,-219"/>
<polygon fill="midnightblue" stroke="midnightblue" points="679.73,-222.5 689.73,-219 679.73,-215.5 679.73,-222.5"/>
</g>
<!-- Node5 -->
<g id="node5" class="node">
<title>Node5</title>
<g id="a_node5"><a xlink:href="quickjs_8c.html#a7a7b507694cc1ecc4e3b5129fed3f5f6" target="_top" xlink:title=" ">
<polygon fill="none" stroke="red" points="812,-228.5 812,-247.5 947,-247.5 947,-228.5 812,-228.5"/>
<text text-anchor="middle" x="879.5" y="-235.5" font-family="Helvetica,sans-Serif" font-size="10.00">JS_GetFunctionBytecode</text>
</a>
</g>
</g>
<!-- Node4&#45;&gt;Node5 -->
<g id="edge4" class="edge">
<title>Node4&#45;&gt;Node5</title>
<path fill="none" stroke="midnightblue" d="M774.31,-224.39C782.88,-225.51 792.18,-226.73 801.57,-227.95"/>
<polygon fill="midnightblue" stroke="midnightblue" points="801.4,-231.46 811.77,-229.29 802.31,-224.52 801.4,-231.46"/>
</g>
<!-- Node7 -->
<g id="node6" class="node">
<title>Node7</title>
<g id="a_node6"><a xlink:href="quickjs_8c.html#aeafb37b03b5560171754f8c4505b0f6b" target="_top" xlink:title=" ">
<polygon fill="none" stroke="red" points="834.5,-190.5 834.5,-209.5 924.5,-209.5 924.5,-190.5 834.5,-190.5"/>
<text text-anchor="middle" x="879.5" y="-197.5" font-family="Helvetica,sans-Serif" font-size="10.00">JS_ThrowError2</text>
</a>
</g>
</g>
<!-- Node4&#45;&gt;Node7 -->
<g id="edge5" class="edge">
<title>Node4&#45;&gt;Node7</title>
<path fill="none" stroke="midnightblue" d="M774.31,-213.61C789.82,-211.58 807.7,-209.25 824.22,-207.09"/>
<polygon fill="midnightblue" stroke="midnightblue" points="824.83,-210.54 834.29,-205.77 823.92,-203.6 824.83,-210.54"/>
</g>
<!-- Node235&#45;&gt;Node3 -->
<g id="edge7" class="edge">
<title>Node235&#45;&gt;Node3</title>
<path fill="none" stroke="midnightblue" d="M253.1,-393.54C270.84,-395.26 293.09,-397.15 313,-398 464,-404.48 503.54,-399.34 652,-371 662.61,-368.98 673.93,-366.46 684.6,-363.94"/>
<polygon fill="midnightblue" stroke="midnightblue" points="685.68,-367.28 694.58,-361.52 684.04,-360.47 685.68,-367.28"/>
</g>
<!-- Node235&#45;&gt;Node28 -->
<g id="edge8" class="edge">
<title>Node235&#45;&gt;Node28</title>
<path fill="none" stroke="midnightblue" d="M253.22,-394.61C301.71,-399.8 393.54,-403.68 462,-371 482.99,-360.98 480.63,-348.48 498,-333 514.98,-317.86 535.73,-302.49 551.25,-291.53"/>
<polygon fill="midnightblue" stroke="midnightblue" points="553.52,-294.22 559.72,-285.62 549.51,-288.47 553.52,-294.22"/>
</g>
<!-- Node235&#45;&gt;Node29 -->
<g id="edge9" class="edge">
<title>Node235&#45;&gt;Node29</title>
<path fill="none" stroke="midnightblue" d="M253.29,-382.4C277.44,-376.89 310.5,-369.35 337.63,-363.15"/>
<polygon fill="midnightblue" stroke="midnightblue" points="338.74,-366.49 347.72,-360.85 337.19,-359.66 338.74,-366.49"/>
</g>
<!-- Node209&#45;&gt;Node2 -->
<g id="edge11" class="edge">
<title>Node209&#45;&gt;Node2</title>
<path fill="none" stroke="midnightblue" d="M419.55,-266.46C450.71,-256.88 498.89,-242.08 533.14,-231.55"/>
<polygon fill="midnightblue" stroke="midnightblue" points="534.32,-234.85 542.85,-228.57 532.26,-228.16 534.32,-234.85"/>
</g>
<!-- Node209&#45;&gt;Node28 -->
<g id="edge12" class="edge">
<title>Node209&#45;&gt;Node28</title>
<path fill="none" stroke="midnightblue" d="M439.68,-276C466.66,-276 499.56,-276 526.05,-276"/>
<polygon fill="midnightblue" stroke="midnightblue" points="526.23,-279.5 536.23,-276 526.23,-272.5 526.23,-279.5"/>
</g>
<!-- Node209&#45;&gt;Node212 -->
<g id="edge13" class="edge">
<title>Node209&#45;&gt;Node212</title>
<path fill="none" stroke="midnightblue" d="M431.74,-285.5C441.81,-288.18 452.39,-291.36 462,-295 493.07,-306.76 526.8,-324.69 549.03,-337.3"/>
<polygon fill="midnightblue" stroke="midnightblue" points="547.4,-340.4 557.82,-342.34 550.89,-334.33 547.4,-340.4"/>
</g>
<!-- Node212&#45;&gt;Node3 -->
<g id="edge14" class="edge">
<title>Node212&#45;&gt;Node3</title>
<path fill="none" stroke="midnightblue" d="M652.14,-352C660.75,-352 669.39,-352 677.62,-352"/>
<polygon fill="midnightblue" stroke="midnightblue" points="677.8,-355.5 687.8,-352 677.8,-348.5 677.8,-355.5"/>
</g>
<!-- Node205&#45;&gt;Node2 -->
<g id="edge16" class="edge">
<title>Node205&#45;&gt;Node2</title>
<path fill="none" stroke="midnightblue" d="M271.1,-202.74C338.89,-206.38 457.77,-212.76 524.66,-216.35"/>
<polygon fill="midnightblue" stroke="midnightblue" points="524.76,-219.86 534.94,-216.9 525.14,-212.87 524.76,-219.86"/>
</g>
<!-- Node205&#45;&gt;Node28 -->
<g id="edge18" class="edge">
<title>Node205&#45;&gt;Node28</title>
<path fill="none" stroke="midnightblue" d="M259.31,-209.56C275.86,-213.52 295.34,-218.09 313,-222 387.33,-238.48 473.92,-256.08 526.32,-266.56"/>
<polygon fill="midnightblue" stroke="midnightblue" points="525.83,-270.03 536.33,-268.55 527.2,-263.16 525.83,-270.03"/>
</g>
<!-- Node205&#45;&gt;Node29 -->
<g id="edge19" class="edge">
<title>Node205&#45;&gt;Node29</title>
<path fill="none" stroke="midnightblue" d="M225.58,-209.71C241.69,-237.44 288.7,-316.13 313,-333 320.39,-338.13 329.08,-341.88 337.83,-344.61"/>
<polygon fill="midnightblue" stroke="midnightblue" points="337.11,-348.05 347.68,-347.29 338.95,-341.29 337.11,-348.05"/>
</g>
<!-- Node205&#45;&gt;Node209 -->
<g id="edge17" class="edge">
<title>Node205&#45;&gt;Node209</title>
<path fill="none" stroke="midnightblue" d="M246.8,-209.6C256.58,-213.53 267.55,-218.47 277,-224 294.49,-234.24 295.1,-242.49 313,-252 321.18,-256.35 330.3,-260.1 339.25,-263.25"/>
<polygon fill="midnightblue" stroke="midnightblue" points="338.25,-266.61 348.84,-266.44 340.46,-259.96 338.25,-266.61"/>
</g>
<!-- Node205&#45;&gt;Node144 -->
<g id="edge20" class="edge">
<title>Node205&#45;&gt;Node144</title>
<path fill="none" stroke="midnightblue" d="M262.01,-190.41C284.18,-185.35 311.57,-179.1 335.01,-173.75"/>
<polygon fill="midnightblue" stroke="midnightblue" points="335.82,-177.16 344.79,-171.52 334.26,-170.33 335.82,-177.16"/>
</g>
<!-- Node303&#45;&gt;Node28 -->
<g id="edge24" class="edge">
<title>Node303&#45;&gt;Node28</title>
<path fill="none" stroke="midnightblue" d="M435.31,-304.41C463.13,-298.71 498.32,-291.5 526.29,-285.77"/>
<polygon fill="midnightblue" stroke="midnightblue" points="527.15,-289.17 536.24,-283.73 525.75,-282.31 527.15,-289.17"/>
</g>
<!-- Node391&#45;&gt;Node29 -->
<g id="edge26" class="edge">
<title>Node391&#45;&gt;Node29</title>
<path fill="none" stroke="midnightblue" d="M262.01,-323.59C285.11,-328.86 313.87,-335.42 337.93,-340.92"/>
<polygon fill="midnightblue" stroke="midnightblue" points="337.39,-344.38 347.92,-343.2 338.95,-337.56 337.39,-344.38"/>
</g>
</g>
</svg>
        <g id="navigator" transform="translate(0 0)" fill="#404254">
                <rect fill="#f2f5e9" fill-opacity="0.5" stroke="#606060" stroke-width=".5" x="0" y="0" width="60" height="60"/>
                <use id="zoomplus" xlink:href="#zoomPlus" x="17" y="9" onmousedown="handleZoom(evt,'in')"/>
                <use id="zoomminus" xlink:href="#zoomMin" x="42" y="9" onmousedown="handleZoom(evt,'out')"/>
                <use id="reset" xlink:href="#resetDef" x="30" y="36" onmousedown="handleReset()"/>
                <g id="arrowUp" xlink:href="#dirArrow" transform="translate(30 24)" onmousedown="handlePan(0,-1)">
                  <use xlink:href="#rim" fill="#404040">
                        <set attributeName="fill" to="#808080" begin="arrowUp.mouseover" end="arrowUp.mouseout"/>
                  </use>
                  <path fill="none" stroke="white" stroke-width="1.5" d="M0,-3.0v7 M-2.5,-0.5L0,-3.0L2.5,-0.5"/>
                </g>
                <g id="arrowRight" xlink:href="#dirArrow" transform="rotate(90) translate(36 -43)" onmousedown="handlePan(1,0)">
                  <use xlink:href="#rim" fill="#404040">
                        <set attributeName="fill" to="#808080" begin="arrowRight.mouseover" end="arrowRight.mouseout"/>
                  </use>
                  <path fill="none" stroke="white" stroke-width="1.5" d="M0,-3.0v7 M-2.5,-0.5L0,-3.0L2.5,-0.5"/>
                </g>
                <g id="arrowDown" xlink:href="#dirArrow" transform="rotate(180) translate(-30 -48)" onmousedown="handlePan(0,1)">
                  <use xlink:href="#rim" fill="#404040">
                        <set attributeName="fill" to="#808080" begin="arrowDown.mouseover" end="arrowDown.mouseout"/>
                  </use>
                  <path fill="none" stroke="white" stroke-width="1.5" d="M0,-3.0v7 M-2.5,-0.5L0,-3.0L2.5,-0.5"/>
                </g>
                <g id="arrowLeft" xlink:href="#dirArrow" transform="rotate(270) translate(-36 17)" onmousedown="handlePan(-1,0)">
                  <use xlink:href="#rim" fill="#404040">
                        <set attributeName="fill" to="#808080" begin="arrowLeft.mouseover" end="arrowLeft.mouseout"/>
                  </use>
                  <path fill="none" stroke="white" stroke-width="1.5" d="M0,-3.0v7 M-2.5,-0.5L0,-3.0L2.5,-0.5"/>
                </g>
        </g>
        <svg viewBox="0 0 15 15" width="100%" height="30px" preserveAspectRatio="xMaxYMin meet">
         <g id="arrow_out" transform="scale(0.3 0.3)">
          <a xlink:href="quickjs_8c_a3d5eeb3c1fed80d35e4e9e14b9cb15b8_cgraph_org.svg" target="_base">
           <rect id="button" ry="5" rx="5" y="6" x="6" height="38" width="38"
                fill="#f2f5e9" fill-opacity="0.5" stroke="#606060" stroke-width="1.0"/>
           <path id="arrow"
             d="M 11.500037,31.436501 C 11.940474,20.09759 22.043105,11.32322 32.158766,21.979434 L 37.068811,17.246167 C 37.068811,17.246167 37.088388,32 37.088388,32 L 22.160133,31.978069 C 22.160133,31.978069 26.997745,27.140456 26.997745,27.140456 C 18.528582,18.264221 13.291696,25.230495 11.500037,31.436501 z"
             style="fill:#404040;"/>
          </a>
         </g>
        </svg>
</svg>
