<?xml version="1.0" encoding="UTF-8" standalone="no"?>
<!DOCTYPE svg PUBLIC "-//W3C//DTD SVG 1.1//EN"
 "http://www.w3.org/Graphics/SVG/1.1/DTD/svg11.dtd">
<!-- Generated by graphviz version 2.43.0 (0)
 -->
<!-- Title: build_arg_list Pages: 1 -->
<!--zoomable 235 -->
<svg id="main" version="1.1" xmlns="http://www.w3.org/2000/svg" xmlns:xlink="http://www.w3.org/1999/xlink" xml:space="preserve" onload="init(evt)">
<style type="text/css"><![CDATA[
.edge:hover path { stroke: red; }
.edge:hover polygon { stroke: red; fill: red; }
]]></style>
<script type="text/javascript"><![CDATA[
var edges = document.getElementsByTagName('g');
if (edges && edges.length) {
  for (var i=0;i<edges.length;i++) {
    if (edges[i].id.substr(0,4)=='edge') {
      edges[i].setAttribute('class','edge');
    }
  }
}
]]></script>
        <defs>
                <circle id="rim" cx="0" cy="0" r="7"/>
                <circle id="rim2" cx="0" cy="0" r="3.5"/>
                <g id="zoomPlus">
                        <use xlink:href="#rim" fill="#404040">
                                <set attributeName="fill" to="#808080" begin="zoomplus.mouseover" end="zoomplus.mouseout"/>
                        </use>
                        <path d="M-4,0h8M0,-4v8" fill="none" stroke="white" stroke-width="1.5" pointer-events="none"/>
                </g>
                <g id="zoomMin">
                        <use xlink:href="#rim" fill="#404040">
                                <set attributeName="fill" to="#808080" begin="zoomminus.mouseover" end="zoomminus.mouseout"/>
                        </use>
                        <path d="M-4,0h8" fill="none" stroke="white" stroke-width="1.5" pointer-events="none"/>
                </g>
                <g id="dirArrow">
                        <path fill="none" stroke="white" stroke-width="1.5" d="M0,-3.0v7 M-2.5,-0.5L0,-3.0L2.5,-0.5"/>
                </g>
               <g id="resetDef">
                       <use xlink:href="#rim2" fill="#404040">
                               <set attributeName="fill" to="#808080" begin="reset.mouseover" end="reset.mouseout"/>
                       </use>
               </g>
        </defs>

<script type="text/javascript">
var viewWidth = 797;
var viewHeight = 235;
var sectionId = 'dynsection-120';
</script>
<script xlink:href="svgpan.js"/>
<svg id="graph" class="graph">
<g id="viewport">
<title>build_arg_list</title>
<!-- Node1 -->
<g id="node1" class="node">
<title>Node1</title>
<g id="a_node1"><a xlink:title=" ">
<polygon fill="#bfbfbf" stroke="black" points="0,-112.59 0,-131.59 82,-131.59 82,-112.59 0,-112.59"/>
<text text-anchor="middle" x="41" y="-119.59" font-family="Helvetica,sans-Serif" font-size="10.00">build_arg_list</text>
</a>
</g>
</g>
<!-- Node2 -->
<g id="node2" class="node">
<title>Node2</title>
<g id="a_node2"><a xlink:href="quickjs_8c.html#a853f0924d441ea4225488f37c8b69f9a" target="_top" xlink:title=" ">
<polygon fill="none" stroke="black" points="125,-207.59 125,-226.59 205,-226.59 205,-207.59 125,-207.59"/>
<text text-anchor="middle" x="165" y="-214.59" font-family="Helvetica,sans-Serif" font-size="10.00">__attribute__</text>
</a>
</g>
</g>
<!-- Node1&#45;&gt;Node2 -->
<g id="edge1" class="edge">
<title>Node1&#45;&gt;Node2</title>
<path fill="none" stroke="midnightblue" d="M49.46,-131.7C62.09,-147.43 89.13,-178.82 118,-198.09 120.73,-199.91 123.66,-201.61 126.68,-203.18"/>
<polygon fill="midnightblue" stroke="midnightblue" points="125.32,-206.41 135.86,-207.52 128.31,-200.08 125.32,-206.41"/>
</g>
<!-- Node3 -->
<g id="node3" class="node">
<title>Node3</title>
<g id="a_node3"><a xlink:href="quickjs_8c.html#ac864482356b3efc2d0b0a509fcfa4c7c" target="_top" xlink:title=" ">
<polygon fill="none" stroke="black" points="126.5,-169.59 126.5,-188.59 203.5,-188.59 203.5,-169.59 126.5,-169.59"/>
<text text-anchor="middle" x="165" y="-176.59" font-family="Helvetica,sans-Serif" font-size="10.00">free_arg_list</text>
</a>
</g>
</g>
<!-- Node1&#45;&gt;Node3 -->
<g id="edge2" class="edge">
<title>Node1&#45;&gt;Node3</title>
<path fill="none" stroke="midnightblue" d="M62.42,-131.63C82.04,-140.79 111.9,-154.75 134.18,-165.15"/>
<polygon fill="midnightblue" stroke="midnightblue" points="132.97,-168.45 143.51,-169.51 135.93,-162.11 132.97,-168.45"/>
</g>
<!-- Node42 -->
<g id="node8" class="node">
<title>Node42</title>
<g id="a_node8"><a xlink:href="quickjs_8h.html#a775522f2d084fc8fa0fcb33f390006b4" target="_top" xlink:title=" ">
<polygon fill="none" stroke="black" points="564.5,-84.59 564.5,-103.59 641.5,-103.59 641.5,-84.59 564.5,-84.59"/>
<text text-anchor="middle" x="603" y="-91.59" font-family="Helvetica,sans-Serif" font-size="10.00">JS_DupValue</text>
</a>
</g>
</g>
<!-- Node1&#45;&gt;Node42 -->
<g id="edge7" class="edge">
<title>Node1&#45;&gt;Node42</title>
<path fill="none" stroke="midnightblue" d="M82.22,-124.6C93.76,-125.21 106.38,-125.78 118,-126.09 159.76,-127.18 170.23,-126.72 212,-126.09 270.24,-125.2 284.89,-126.11 343,-122.09 416.87,-116.97 502.19,-106.95 554.1,-100.38"/>
<polygon fill="midnightblue" stroke="midnightblue" points="554.86,-103.82 564.34,-99.08 553.97,-96.87 554.86,-103.82"/>
</g>
<!-- Node43 -->
<g id="node9" class="node">
<title>Node43</title>
<g id="a_node9"><a xlink:href="quickjs_8c.html#a718e904644ebc55548a5bdbd44f3adb9" target="_top" xlink:title=" ">
<polygon fill="none" stroke="black" points="118,-55.59 118,-74.59 212,-74.59 212,-55.59 118,-55.59"/>
<text text-anchor="middle" x="165" y="-62.59" font-family="Helvetica,sans-Serif" font-size="10.00">js_get_length32</text>
</a>
</g>
</g>
<!-- Node1&#45;&gt;Node43 -->
<g id="edge8" class="edge">
<title>Node1&#45;&gt;Node43</title>
<path fill="none" stroke="midnightblue" d="M62.42,-112.55C82.04,-103.38 111.9,-89.43 134.18,-79.02"/>
<polygon fill="midnightblue" stroke="midnightblue" points="135.93,-82.06 143.51,-74.66 132.97,-75.72 135.93,-82.06"/>
</g>
<!-- Node263 -->
<g id="node12" class="node">
<title>Node263</title>
<g id="a_node12"><a xlink:href="quickjs_8c.html#aeb97957655d979e9fe56c955da2b2d4b" target="_top" xlink:title=" ">
<polygon fill="none" stroke="red" points="542,-8.59 542,-27.59 664,-27.59 664,-8.59 542,-8.59"/>
<text text-anchor="middle" x="603" y="-15.59" font-family="Helvetica,sans-Serif" font-size="10.00">JS_GetPropertyUint32</text>
</a>
</g>
</g>
<!-- Node1&#45;&gt;Node263 -->
<g id="edge16" class="edge">
<title>Node1&#45;&gt;Node263</title>
<path fill="none" stroke="midnightblue" d="M49.04,-112.38C61.26,-96.23 87.98,-63.87 118,-46.09 169.79,-15.4 188.41,-16.62 248,-8.09 345.6,5.89 459.83,-1.57 531.56,-9.09"/>
<polygon fill="midnightblue" stroke="midnightblue" points="531.51,-12.61 541.83,-10.2 532.26,-5.65 531.51,-12.61"/>
</g>
<!-- Node53 -->
<g id="node13" class="node">
<title>Node53</title>
<g id="a_node13"><a xlink:href="quickjs_8h.html#ad80a83d73e9b7d872b88fbf2943aebe9" target="_top" xlink:title=" ">
<polygon fill="none" stroke="black" points="252,-93.59 252,-112.59 339,-112.59 339,-93.59 252,-93.59"/>
<text text-anchor="middle" x="295.5" y="-100.59" font-family="Helvetica,sans-Serif" font-size="10.00">JS_IsException</text>
</a>
</g>
</g>
<!-- Node1&#45;&gt;Node53 -->
<g id="edge17" class="edge">
<title>Node1&#45;&gt;Node53</title>
<path fill="none" stroke="midnightblue" d="M82.01,-119.08C125.15,-115.83 194.03,-110.65 241.61,-107.07"/>
<polygon fill="midnightblue" stroke="midnightblue" points="242.01,-110.55 251.72,-106.31 241.49,-103.57 242.01,-110.55"/>
</g>
<!-- Node4 -->
<g id="node4" class="node">
<title>Node4</title>
<g id="a_node4"><a xlink:href="quickjs_8c.html#a80e54dcf9ac687d4ccc2f90273565f30" target="_top" xlink:title=" ">
<polygon fill="none" stroke="black" points="270.5,-169.59 270.5,-188.59 320.5,-188.59 320.5,-169.59 270.5,-169.59"/>
<text text-anchor="middle" x="295.5" y="-176.59" font-family="Helvetica,sans-Serif" font-size="10.00">js_free</text>
</a>
</g>
</g>
<!-- Node3&#45;&gt;Node4 -->
<g id="edge3" class="edge">
<title>Node3&#45;&gt;Node4</title>
<path fill="none" stroke="midnightblue" d="M203.51,-179.09C221.3,-179.09 242.42,-179.09 259.83,-179.09"/>
<polygon fill="midnightblue" stroke="midnightblue" points="260.13,-182.59 270.13,-179.09 260.13,-175.59 260.13,-182.59"/>
</g>
<!-- Node6 -->
<g id="node6" class="node">
<title>Node6</title>
<g id="a_node6"><a xlink:href="quickjs_8h.html#afaa20c47565bc704c6c85f3d77254e7d" target="_top" xlink:title=" ">
<polygon fill="none" stroke="black" points="563.5,-164.59 563.5,-183.59 642.5,-183.59 642.5,-164.59 563.5,-164.59"/>
<text text-anchor="middle" x="603" y="-171.59" font-family="Helvetica,sans-Serif" font-size="10.00">JS_FreeValue</text>
</a>
</g>
</g>
<!-- Node3&#45;&gt;Node6 -->
<g id="edge5" class="edge">
<title>Node3&#45;&gt;Node6</title>
<path fill="none" stroke="midnightblue" d="M199.21,-188.59C214.01,-192.36 231.74,-196.23 248,-198.09 361.92,-211.11 392.19,-212.1 506,-198.09 524.67,-195.79 544.94,-191.06 562.01,-186.41"/>
<polygon fill="midnightblue" stroke="midnightblue" points="562.98,-189.77 571.66,-183.7 561.09,-183.03 562.98,-189.77"/>
</g>
<!-- Node5 -->
<g id="node5" class="node">
<title>Node5</title>
<g id="a_node5"><a xlink:href="quickjs_8c.html#a69e19dda8a93d613203e0baa06f0ed8d" target="_top" xlink:title=" ">
<polygon fill="none" stroke="black" points="411.5,-169.59 411.5,-188.59 473.5,-188.59 473.5,-169.59 411.5,-169.59"/>
<text text-anchor="middle" x="442.5" y="-176.59" font-family="Helvetica,sans-Serif" font-size="10.00">js_free_rt</text>
</a>
</g>
</g>
<!-- Node4&#45;&gt;Node5 -->
<g id="edge4" class="edge">
<title>Node4&#45;&gt;Node5</title>
<path fill="none" stroke="midnightblue" d="M320.77,-179.09C342.66,-179.09 375.3,-179.09 401.12,-179.09"/>
<polygon fill="midnightblue" stroke="midnightblue" points="401.36,-182.59 411.36,-179.09 401.36,-175.59 401.36,-182.59"/>
</g>
<!-- Node7 -->
<g id="node7" class="node">
<title>Node7</title>
<g id="a_node7"><a xlink:href="quickjs_8c.html#aa059f309c30fd5166d16c82a97973146" target="_top" xlink:title=" ">
<polygon fill="none" stroke="red" points="700,-164.59 700,-183.59 789,-183.59 789,-164.59 700,-164.59"/>
<text text-anchor="middle" x="744.5" y="-171.59" font-family="Helvetica,sans-Serif" font-size="10.00">__JS_FreeValue</text>
</a>
</g>
</g>
<!-- Node6&#45;&gt;Node7 -->
<g id="edge6" class="edge">
<title>Node6&#45;&gt;Node7</title>
<path fill="none" stroke="midnightblue" d="M642.86,-174.09C657.41,-174.09 674.2,-174.09 689.86,-174.09"/>
<polygon fill="midnightblue" stroke="midnightblue" points="689.94,-177.59 699.94,-174.09 689.94,-170.59 689.94,-177.59"/>
</g>
<!-- Node44 -->
<g id="node10" class="node">
<title>Node44</title>
<g id="a_node10"><a xlink:href="quickjs_8h.html#a89b7c8686c7eee70b86be722ee4730ad" target="_top" xlink:title=" ">
<polygon fill="none" stroke="black" points="251,-17.59 251,-36.59 340,-36.59 340,-17.59 251,-17.59"/>
<text text-anchor="middle" x="295.5" y="-24.59" font-family="Helvetica,sans-Serif" font-size="10.00">JS_GetProperty</text>
</a>
</g>
</g>
<!-- Node43&#45;&gt;Node44 -->
<g id="edge9" class="edge">
<title>Node43&#45;&gt;Node44</title>
<path fill="none" stroke="midnightblue" d="M198.43,-55.5C214.71,-50.68 234.64,-44.79 252.12,-39.62"/>
<polygon fill="midnightblue" stroke="midnightblue" points="253.49,-42.86 262.08,-36.67 251.5,-36.15 253.49,-42.86"/>
</g>
<!-- Node43&#45;&gt;Node53 -->
<g id="edge14" class="edge">
<title>Node43&#45;&gt;Node53</title>
<path fill="none" stroke="midnightblue" d="M198.43,-74.68C214.71,-79.49 234.64,-85.39 252.12,-90.55"/>
<polygon fill="midnightblue" stroke="midnightblue" points="251.5,-94.02 262.08,-93.5 253.49,-87.31 251.5,-94.02"/>
</g>
<!-- Node427 -->
<g id="node14" class="node">
<title>Node427</title>
<g id="a_node14"><a xlink:href="quickjs_8c.html#abb4af1ff2252e70ad0e5a9c25550f548" target="_top" xlink:title=" ">
<polygon fill="none" stroke="red" points="248,-55.59 248,-74.59 343,-74.59 343,-55.59 248,-55.59"/>
<text text-anchor="middle" x="295.5" y="-62.59" font-family="Helvetica,sans-Serif" font-size="10.00">JS_ToUint32Free</text>
</a>
</g>
</g>
<!-- Node43&#45;&gt;Node427 -->
<g id="edge15" class="edge">
<title>Node43&#45;&gt;Node427</title>
<path fill="none" stroke="midnightblue" d="M212.03,-65.09C220.41,-65.09 229.25,-65.09 237.9,-65.09"/>
<polygon fill="midnightblue" stroke="midnightblue" points="237.93,-68.59 247.93,-65.09 237.93,-61.59 237.93,-68.59"/>
</g>
<!-- Node45 -->
<g id="node11" class="node">
<title>Node45</title>
<g id="a_node11"><a xlink:href="quickjs_8c.html#a5762c57ae0c9937e986040c01222833a" target="_top" xlink:title=" ">
<polygon fill="none" stroke="red" points="379,-65.59 379,-84.59 506,-84.59 506,-65.59 379,-65.59"/>
<text text-anchor="middle" x="442.5" y="-72.59" font-family="Helvetica,sans-Serif" font-size="10.00">JS_GetPropertyInternal</text>
</a>
</g>
</g>
<!-- Node44&#45;&gt;Node45 -->
<g id="edge10" class="edge">
<title>Node44&#45;&gt;Node45</title>
<path fill="none" stroke="midnightblue" d="M325.49,-36.68C347.72,-44.04 378.61,-54.27 402.92,-62.31"/>
<polygon fill="midnightblue" stroke="midnightblue" points="401.96,-65.68 412.56,-65.5 404.16,-59.04 401.96,-65.68"/>
</g>
<!-- Node45&#45;&gt;Node6 -->
<g id="edge12" class="edge">
<title>Node45&#45;&gt;Node6</title>
<path fill="none" stroke="midnightblue" d="M458.99,-84.76C486.75,-102.1 545.18,-138.6 578.12,-159.17"/>
<polygon fill="midnightblue" stroke="midnightblue" points="576.35,-162.19 586.68,-164.52 580.06,-156.25 576.35,-162.19"/>
</g>
<!-- Node45&#45;&gt;Node42 -->
<g id="edge11" class="edge">
<title>Node45&#45;&gt;Node42</title>
<path fill="none" stroke="midnightblue" d="M506.14,-82.6C522.17,-84.52 539.15,-86.55 554.29,-88.37"/>
<polygon fill="midnightblue" stroke="midnightblue" points="554.1,-91.87 564.45,-89.58 554.94,-84.92 554.1,-91.87"/>
</g>
<!-- Node45&#45;&gt;Node263 -->
<g id="edge13" class="edge">
<title>Node45&#45;&gt;Node263</title>
<path fill="none" stroke="midnightblue" d="M470.03,-65.55C496.32,-56.09 536.77,-41.55 565.95,-31.05"/>
<polygon fill="midnightblue" stroke="midnightblue" points="567.16,-34.34 575.38,-27.66 564.79,-27.75 567.16,-34.34"/>
</g>
</g>
</svg>
        <g id="navigator" transform="translate(0 0)" fill="#404254">
                <rect fill="#f2f5e9" fill-opacity="0.5" stroke="#606060" stroke-width=".5" x="0" y="0" width="60" height="60"/>
                <use id="zoomplus" xlink:href="#zoomPlus" x="17" y="9" onmousedown="handleZoom(evt,'in')"/>
                <use id="zoomminus" xlink:href="#zoomMin" x="42" y="9" onmousedown="handleZoom(evt,'out')"/>
                <use id="reset" xlink:href="#resetDef" x="30" y="36" onmousedown="handleReset()"/>
                <g id="arrowUp" xlink:href="#dirArrow" transform="translate(30 24)" onmousedown="handlePan(0,-1)">
                  <use xlink:href="#rim" fill="#404040">
                        <set attributeName="fill" to="#808080" begin="arrowUp.mouseover" end="arrowUp.mouseout"/>
                  </use>
                  <path fill="none" stroke="white" stroke-width="1.5" d="M0,-3.0v7 M-2.5,-0.5L0,-3.0L2.5,-0.5"/>
                </g>
                <g id="arrowRight" xlink:href="#dirArrow" transform="rotate(90) translate(36 -43)" onmousedown="handlePan(1,0)">
                  <use xlink:href="#rim" fill="#404040">
                        <set attributeName="fill" to="#808080" begin="arrowRight.mouseover" end="arrowRight.mouseout"/>
                  </use>
                  <path fill="none" stroke="white" stroke-width="1.5" d="M0,-3.0v7 M-2.5,-0.5L0,-3.0L2.5,-0.5"/>
                </g>
                <g id="arrowDown" xlink:href="#dirArrow" transform="rotate(180) translate(-30 -48)" onmousedown="handlePan(0,1)">
                  <use xlink:href="#rim" fill="#404040">
                        <set attributeName="fill" to="#808080" begin="arrowDown.mouseover" end="arrowDown.mouseout"/>
                  </use>
                  <path fill="none" stroke="white" stroke-width="1.5" d="M0,-3.0v7 M-2.5,-0.5L0,-3.0L2.5,-0.5"/>
                </g>
                <g id="arrowLeft" xlink:href="#dirArrow" transform="rotate(270) translate(-36 17)" onmousedown="handlePan(-1,0)">
                  <use xlink:href="#rim" fill="#404040">
                        <set attributeName="fill" to="#808080" begin="arrowLeft.mouseover" end="arrowLeft.mouseout"/>
                  </use>
                  <path fill="none" stroke="white" stroke-width="1.5" d="M0,-3.0v7 M-2.5,-0.5L0,-3.0L2.5,-0.5"/>
                </g>
        </g>
        <svg viewBox="0 0 15 15" width="100%" height="30px" preserveAspectRatio="xMaxYMin meet">
         <g id="arrow_out" transform="scale(0.3 0.3)">
          <a xlink:href="quickjs_8c_a4956f45ffd2849b96dc051277264f87a_cgraph_org.svg" target="_base">
           <rect id="button" ry="5" rx="5" y="6" x="6" height="38" width="38"
                fill="#f2f5e9" fill-opacity="0.5" stroke="#606060" stroke-width="1.0"/>
           <path id="arrow"
             d="M 11.500037,31.436501 C 11.940474,20.09759 22.043105,11.32322 32.158766,21.979434 L 37.068811,17.246167 C 37.068811,17.246167 37.088388,32 37.088388,32 L 22.160133,31.978069 C 22.160133,31.978069 26.997745,27.140456 26.997745,27.140456 C 18.528582,18.264221 13.291696,25.230495 11.500037,31.436501 z"
             style="fill:#404040;"/>
          </a>
         </g>
        </svg>
</svg>
