<?xml version="1.0" encoding="UTF-8" standalone="no"?>
<!DOCTYPE svg PUBLIC "-//W3C//DTD SVG 1.1//EN"
 "http://www.w3.org/Graphics/SVG/1.1/DTD/svg11.dtd">
<!-- Generated by graphviz version 2.43.0 (0)
 -->
<!-- Title: js_evaluate_module Pages: 1 -->
<svg width="752pt" height="1103pt"
 viewBox="0.00 0.00 752.00 1103.17" xmlns="http://www.w3.org/2000/svg" xmlns:xlink="http://www.w3.org/1999/xlink">
<g id="graph0" class="graph" transform="scale(1 1) rotate(0) translate(4 1099.17)">
<title>js_evaluate_module</title>
<!-- Node1 -->
<g id="node1" class="node">
<title>Node1</title>
<g id="a_node1"><a xlink:title=" ">
<polygon fill="#bfbfbf" stroke="black" points="0,-895.24 0,-914.24 115,-914.24 115,-895.24 0,-895.24"/>
<text text-anchor="middle" x="57.5" y="-902.24" font-family="Helvetica,sans-Serif" font-size="10.00">js_evaluate_module</text>
</a>
</g>
</g>
<!-- Node1&#45;&gt;Node1 -->
<g id="edge51" class="edge">
<title>Node1&#45;&gt;Node1</title>
<path fill="none" stroke="midnightblue" d="M37.77,-914.5C28.17,-923.31 34.75,-932.74 57.5,-932.74 72.07,-932.74 80.01,-928.87 81.31,-923.77"/>
<polygon fill="midnightblue" stroke="midnightblue" points="84.46,-922.24 77.23,-914.5 78.05,-925.06 84.46,-922.24"/>
</g>
<!-- Node2 -->
<g id="node2" class="node">
<title>Node2</title>
<g id="a_node2"><a xlink:href="quickjs_8c.html#a75f6ee5e4235a7dc99889f3d2eb2c147" target="_top" xlink:title=" ">
<polygon fill="none" stroke="black" points="151,-686.24 151,-705.24 222,-705.24 222,-686.24 151,-686.24"/>
<text text-anchor="middle" x="186.5" y="-693.24" font-family="Helvetica,sans-Serif" font-size="10.00">JS_CallFree</text>
</a>
</g>
</g>
<!-- Node1&#45;&gt;Node2 -->
<g id="edge1" class="edge">
<title>Node1&#45;&gt;Node2</title>
<path fill="none" stroke="midnightblue" d="M64.29,-895.22C83.96,-862.85 148.45,-756.71 174.47,-713.89"/>
<polygon fill="midnightblue" stroke="midnightblue" points="177.48,-715.68 179.68,-705.32 171.49,-712.05 177.48,-715.68"/>
</g>
<!-- Node57 -->
<g id="node10" class="node">
<title>Node57</title>
<g id="a_node10"><a xlink:href="quickjs_8h.html#afaa20c47565bc704c6c85f3d77254e7d" target="_top" xlink:title=" ">
<polygon fill="none" stroke="red" points="665,-923.24 665,-942.24 744,-942.24 744,-923.24 665,-923.24"/>
<text text-anchor="middle" x="704.5" y="-930.24" font-family="Helvetica,sans-Serif" font-size="10.00">JS_FreeValue</text>
</a>
</g>
</g>
<!-- Node1&#45;&gt;Node57 -->
<g id="edge52" class="edge">
<title>Node1&#45;&gt;Node57</title>
<path fill="none" stroke="midnightblue" d="M64.21,-914.42C87.87,-953.14 182.45,-1094.74 300.5,-1094.74 300.5,-1094.74 300.5,-1094.74 444.5,-1094.74 528.6,-1094.74 560.53,-1101.57 629,-1052.74 664.78,-1027.22 686.97,-978.63 697.07,-951.77"/>
<polygon fill="midnightblue" stroke="midnightblue" points="700.37,-952.92 700.45,-942.32 693.78,-950.56 700.37,-952.92"/>
</g>
<!-- Node36 -->
<g id="node11" class="node">
<title>Node36</title>
<g id="a_node11"><a xlink:href="quickjs_8h.html#a775522f2d084fc8fa0fcb33f390006b4" target="_top" xlink:title=" ">
<polygon fill="none" stroke="black" points="547,-97.24 547,-116.24 624,-116.24 624,-97.24 547,-97.24"/>
<text text-anchor="middle" x="585.5" y="-104.24" font-family="Helvetica,sans-Serif" font-size="10.00">JS_DupValue</text>
</a>
</g>
</g>
<!-- Node1&#45;&gt;Node36 -->
<g id="edge50" class="edge">
<title>Node1&#45;&gt;Node36</title>
<path fill="none" stroke="midnightblue" d="M58.34,-895.06C57.56,-813.94 63.64,-244.61 381,-22.74 426.53,9.09 458.14,5.46 506,-22.74 534.45,-39.51 517.67,-65.41 542,-87.74 543.64,-89.25 545.43,-90.66 547.3,-91.96"/>
<polygon fill="midnightblue" stroke="midnightblue" points="545.56,-95 555.95,-97.06 549.12,-88.97 545.56,-95"/>
</g>
<!-- Node75 -->
<g id="node12" class="node">
<title>Node75</title>
<g id="a_node12"><a xlink:href="quickjs_8h.html#ad80a83d73e9b7d872b88fbf2943aebe9" target="_top" xlink:title=" ">
<polygon fill="none" stroke="black" points="542,-667.24 542,-686.24 629,-686.24 629,-667.24 542,-667.24"/>
<text text-anchor="middle" x="585.5" y="-674.24" font-family="Helvetica,sans-Serif" font-size="10.00">JS_IsException</text>
</a>
</g>
</g>
<!-- Node1&#45;&gt;Node75 -->
<g id="edge53" class="edge">
<title>Node1&#45;&gt;Node75</title>
<path fill="none" stroke="midnightblue" d="M115.01,-909.82C221.16,-918.18 445.15,-929.82 506,-885.74 568.39,-840.54 581.22,-739.53 583.84,-696.63"/>
<polygon fill="midnightblue" stroke="midnightblue" points="587.35,-696.54 584.33,-686.38 580.36,-696.2 587.35,-696.54"/>
</g>
<!-- Node207 -->
<g id="node30" class="node">
<title>Node207</title>
<g id="a_node30"><a xlink:href="quickjs_8c.html#a3ae8a83da71ef07d6e858d172d9c5a81" target="_top" xlink:title=" ">
<polygon fill="none" stroke="black" points="413,-1009.24 413,-1028.24 474,-1028.24 474,-1009.24 413,-1009.24"/>
<text text-anchor="middle" x="443.5" y="-1016.24" font-family="Helvetica,sans-Serif" font-size="10.00">JS_Throw</text>
</a>
</g>
</g>
<!-- Node1&#45;&gt;Node207 -->
<g id="edge54" class="edge">
<title>Node1&#45;&gt;Node207</title>
<path fill="none" stroke="midnightblue" d="M90.58,-914.26C160.62,-935.06 327.03,-984.46 403.21,-1007.08"/>
<polygon fill="midnightblue" stroke="midnightblue" points="402.32,-1010.46 412.9,-1009.95 404.31,-1003.75 402.32,-1010.46"/>
</g>
<!-- Node3 -->
<g id="node3" class="node">
<title>Node3</title>
<g id="a_node3"><a xlink:href="quickjs_8c.html#ac2894ff4edcdb4e6841bcce9c76081e3" target="_top" xlink:title=" ">
<polygon fill="none" stroke="red" points="258,-515.24 258,-534.24 345,-534.24 345,-515.24 258,-515.24"/>
<text text-anchor="middle" x="301.5" y="-522.24" font-family="Helvetica,sans-Serif" font-size="10.00">JS_CallInternal</text>
</a>
</g>
</g>
<!-- Node2&#45;&gt;Node3 -->
<g id="edge2" class="edge">
<title>Node2&#45;&gt;Node3</title>
<path fill="none" stroke="midnightblue" d="M191.93,-686.2C207.43,-658.27 259.68,-578.56 285.63,-542.51"/>
<polygon fill="midnightblue" stroke="midnightblue" points="288.52,-544.47 291.62,-534.34 282.88,-540.33 288.52,-544.47"/>
</g>
<!-- Node2&#45;&gt;Node57 -->
<g id="edge49" class="edge">
<title>Node2&#45;&gt;Node57</title>
<path fill="none" stroke="midnightblue" d="M189.36,-705.53C198.98,-753 247.82,-960.07 381,-1037.74 476.49,-1093.43 532.26,-1072.23 629,-1018.74 657.8,-1002.81 680.67,-971.19 693.13,-951.05"/>
<polygon fill="midnightblue" stroke="midnightblue" points="696.14,-952.83 698.25,-942.45 690.12,-949.25 696.14,-952.83"/>
</g>
<!-- Node3&#45;&gt;Node2 -->
<g id="edge42" class="edge">
<title>Node3&#45;&gt;Node2</title>
<path fill="none" stroke="midnightblue" d="M296.03,-534.35C280.48,-562.35 228.27,-641.99 202.35,-678.01"/>
<polygon fill="midnightblue" stroke="midnightblue" points="199.46,-676.03 196.37,-686.17 205.1,-680.17 199.46,-676.03"/>
</g>
<!-- Node3&#45;&gt;Node3 -->
<g id="edge43" class="edge">
<title>Node3&#45;&gt;Node3</title>
<path fill="none" stroke="midnightblue" d="M283.93,-534.5C275.38,-543.31 281.24,-552.74 301.5,-552.74 314.16,-552.74 321.2,-549.06 322.61,-544.14"/>
<polygon fill="midnightblue" stroke="midnightblue" points="325.8,-542.68 319.07,-534.5 319.23,-545.09 325.8,-542.68"/>
</g>
<!-- Node4 -->
<g id="node4" class="node">
<title>Node4</title>
<g id="a_node4"><a xlink:href="quickjs_8c.html#a853f0924d441ea4225488f37c8b69f9a" target="_top" xlink:title=" ">
<polygon fill="none" stroke="black" points="545.5,-553.24 545.5,-572.24 625.5,-572.24 625.5,-553.24 545.5,-553.24"/>
<text text-anchor="middle" x="585.5" y="-560.24" font-family="Helvetica,sans-Serif" font-size="10.00">__attribute__</text>
</a>
</g>
</g>
<!-- Node3&#45;&gt;Node4 -->
<g id="edge3" class="edge">
<title>Node3&#45;&gt;Node4</title>
<path fill="none" stroke="midnightblue" d="M337.06,-534.25C350.66,-537.69 366.48,-541.32 381,-543.74 433.27,-552.46 493.81,-557.47 535.18,-560.13"/>
<polygon fill="midnightblue" stroke="midnightblue" points="535.07,-563.63 545.27,-560.76 535.51,-556.65 535.07,-563.63"/>
</g>
<!-- Node5 -->
<g id="node5" class="node">
<title>Node5</title>
<g id="a_node5"><a xlink:href="quickjs_8c.html#a877fcb7651d95b411ce70e62b7f4a1f0" target="_top" xlink:title=" ">
<polygon fill="none" stroke="black" points="381,-743.24 381,-762.24 506,-762.24 506,-743.24 381,-743.24"/>
<text text-anchor="middle" x="443.5" y="-750.24" font-family="Helvetica,sans-Serif" font-size="10.00">__JS_AtomFromUInt32</text>
</a>
</g>
</g>
<!-- Node3&#45;&gt;Node5 -->
<g id="edge4" class="edge">
<title>Node3&#45;&gt;Node5</title>
<path fill="none" stroke="midnightblue" d="M303.19,-534.25C306.07,-567.01 320.06,-676.33 381,-733.74 382.69,-735.33 384.5,-736.78 386.41,-738.12"/>
<polygon fill="midnightblue" stroke="midnightblue" points="384.91,-741.29 395.33,-743.22 388.39,-735.22 384.91,-741.29"/>
</g>
<!-- Node6 -->
<g id="node6" class="node">
<title>Node6</title>
<g id="a_node6"><a xlink:href="quickjs_8h.html#a9bf98b18de88b4199910a43e933eb97d" target="_top" xlink:title=" ">
<polygon fill="none" stroke="black" points="393.5,-705.24 393.5,-724.24 493.5,-724.24 493.5,-705.24 393.5,-705.24"/>
<text text-anchor="middle" x="443.5" y="-712.24" font-family="Helvetica,sans-Serif" font-size="10.00">__JS_NewFloat64</text>
</a>
</g>
</g>
<!-- Node3&#45;&gt;Node6 -->
<g id="edge5" class="edge">
<title>Node3&#45;&gt;Node6</title>
<path fill="none" stroke="midnightblue" d="M304.45,-534.47C310.58,-562.63 332.04,-645.08 381,-690.74 385.3,-694.75 390.34,-698.11 395.65,-700.93"/>
<polygon fill="midnightblue" stroke="midnightblue" points="394.23,-704.13 404.77,-705.17 397.18,-697.78 394.23,-704.13"/>
</g>
<!-- Node7 -->
<g id="node7" class="node">
<title>Node7</title>
<g id="a_node7"><a xlink:href="quickjs_8c.html#a74547db03bf739a52c83a326b32db997" target="_top" xlink:title=" ">
<polygon fill="none" stroke="red" points="545,-900.24 545,-919.24 626,-919.24 626,-900.24 545,-900.24"/>
<text text-anchor="middle" x="585.5" y="-907.24" font-family="Helvetica,sans-Serif" font-size="10.00">add_property</text>
</a>
</g>
</g>
<!-- Node3&#45;&gt;Node7 -->
<g id="edge6" class="edge">
<title>Node3&#45;&gt;Node7</title>
<path fill="none" stroke="midnightblue" d="M303.12,-534.29C306.71,-586.46 326.62,-836.38 381,-885.74 422.27,-923.2 489.23,-923.8 534.99,-918.62"/>
<polygon fill="midnightblue" stroke="midnightblue" points="535.5,-922.09 544.99,-917.37 534.63,-915.14 535.5,-922.09"/>
</g>
<!-- Node65 -->
<g id="node8" class="node">
<title>Node65</title>
<g id="a_node8"><a xlink:href="quickjs_8c.html#a4956f45ffd2849b96dc051277264f87a" target="_top" xlink:title=" ">
<polygon fill="none" stroke="red" points="402.5,-97.24 402.5,-116.24 484.5,-116.24 484.5,-97.24 402.5,-97.24"/>
<text text-anchor="middle" x="443.5" y="-104.24" font-family="Helvetica,sans-Serif" font-size="10.00">build_arg_list</text>
</a>
</g>
</g>
<!-- Node3&#45;&gt;Node65 -->
<g id="edge7" class="edge">
<title>Node3&#45;&gt;Node65</title>
<path fill="none" stroke="midnightblue" d="M303.08,-515.1C306.6,-460.07 326.69,-186.09 381,-125.74 384.46,-121.89 388.68,-118.82 393.28,-116.36"/>
<polygon fill="midnightblue" stroke="midnightblue" points="394.7,-119.55 402.47,-112.35 391.9,-113.14 394.7,-119.55"/>
</g>
<!-- Node66 -->
<g id="node9" class="node">
<title>Node66</title>
<g id="a_node9"><a xlink:href="quickjs_8c.html#ac864482356b3efc2d0b0a509fcfa4c7c" target="_top" xlink:title=" ">
<polygon fill="none" stroke="red" points="547,-59.24 547,-78.24 624,-78.24 624,-59.24 547,-59.24"/>
<text text-anchor="middle" x="585.5" y="-66.24" font-family="Helvetica,sans-Serif" font-size="10.00">free_arg_list</text>
</a>
</g>
</g>
<!-- Node3&#45;&gt;Node66 -->
<g id="edge17" class="edge">
<title>Node3&#45;&gt;Node66</title>
<path fill="none" stroke="midnightblue" d="M302.4,-514.93C301.94,-450.6 302.92,-89.56 381,-22.74 434.09,22.69 522.72,-26.47 563.19,-53.46"/>
<polygon fill="midnightblue" stroke="midnightblue" points="561.27,-56.39 571.5,-59.15 565.23,-50.61 561.27,-56.39"/>
</g>
<!-- Node3&#45;&gt;Node57 -->
<g id="edge45" class="edge">
<title>Node3&#45;&gt;Node57</title>
<path fill="none" stroke="midnightblue" d="M302.91,-534.41C305.49,-589.59 321.19,-863.88 381,-916.74 459.51,-986.13 595.29,-962.72 662.86,-945.04"/>
<polygon fill="midnightblue" stroke="midnightblue" points="663.97,-948.36 672.71,-942.37 662.14,-941.6 663.97,-948.36"/>
</g>
<!-- Node3&#45;&gt;Node36 -->
<g id="edge44" class="edge">
<title>Node3&#45;&gt;Node36</title>
<path fill="none" stroke="midnightblue" d="M302.49,-515.06C302.65,-453.08 306.9,-112.6 381,-49.74 423.37,-13.8 454.97,-27.79 506,-49.74 527.37,-58.93 523.02,-74.29 542,-87.74 544.35,-89.4 546.87,-90.97 549.46,-92.44"/>
<polygon fill="midnightblue" stroke="midnightblue" points="547.95,-95.6 558.45,-97.04 551.14,-89.37 547.95,-95.6"/>
</g>
<!-- Node3&#45;&gt;Node75 -->
<g id="edge46" class="edge">
<title>Node3&#45;&gt;Node75</title>
<path fill="none" stroke="midnightblue" d="M304.98,-534.59C311.95,-560.06 334.36,-628.15 381,-657.74 425.94,-686.25 488.07,-687.88 531.82,-684.33"/>
<polygon fill="midnightblue" stroke="midnightblue" points="532.34,-687.8 541.97,-683.39 531.69,-680.83 532.34,-687.8"/>
</g>
<!-- Node160 -->
<g id="node13" class="node">
<title>Node160</title>
<g id="a_node13"><a xlink:href="quickjs_8c.html#a61c8dfb5e807af1b6ff7d8ca61576dda" target="_top" xlink:title=" ">
<polygon fill="none" stroke="red" points="396.5,-515.24 396.5,-534.24 490.5,-534.24 490.5,-515.24 396.5,-515.24"/>
<text text-anchor="middle" x="443.5" y="-522.24" font-family="Helvetica,sans-Serif" font-size="10.00">build_backtrace</text>
</a>
</g>
</g>
<!-- Node3&#45;&gt;Node160 -->
<g id="edge13" class="edge">
<title>Node3&#45;&gt;Node160</title>
<path fill="none" stroke="midnightblue" d="M345.27,-524.74C358.08,-524.74 372.34,-524.74 385.9,-524.74"/>
<polygon fill="midnightblue" stroke="midnightblue" points="386.1,-528.24 396.1,-524.74 386.1,-521.24 386.1,-528.24"/>
</g>
<!-- Node247 -->
<g id="node14" class="node">
<title>Node247</title>
<g id="a_node14"><a xlink:href="quickjs_8c.html#a344894112559c2ba75043fd10bcfa02f" target="_top" xlink:title=" ">
<polygon fill="none" stroke="red" points="393,-59.24 393,-78.24 494,-78.24 494,-59.24 393,-59.24"/>
<text text-anchor="middle" x="443.5" y="-66.24" font-family="Helvetica,sans-Serif" font-size="10.00">close_lexical_var</text>
</a>
</g>
</g>
<!-- Node3&#45;&gt;Node247 -->
<g id="edge14" class="edge">
<title>Node3&#45;&gt;Node247</title>
<path fill="none" stroke="midnightblue" d="M302.91,-514.96C305.56,-456.58 322,-154.41 381,-87.74 382.17,-86.42 383.43,-85.18 384.77,-84.04"/>
<polygon fill="midnightblue" stroke="midnightblue" points="386.83,-86.87 393.12,-78.35 382.89,-81.08 386.83,-86.87"/>
</g>
<!-- Node248 -->
<g id="node15" class="node">
<title>Node248</title>
<g id="a_node15"><a xlink:href="quickjs_8c.html#a1782043fce951bd4f0d91c7796b31e24" target="_top" xlink:title=" ">
<polygon fill="none" stroke="red" points="400,-477.24 400,-496.24 487,-496.24 487,-477.24 400,-477.24"/>
<text text-anchor="middle" x="443.5" y="-484.24" font-family="Helvetica,sans-Serif" font-size="10.00">close_var_refs</text>
</a>
</g>
</g>
<!-- Node3&#45;&gt;Node248 -->
<g id="edge16" class="edge">
<title>Node3&#45;&gt;Node248</title>
<path fill="none" stroke="midnightblue" d="M337.83,-515.15C355.9,-510.25 378.1,-504.22 397.39,-498.98"/>
<polygon fill="midnightblue" stroke="midnightblue" points="398.45,-502.32 407.18,-496.33 396.62,-495.57 398.45,-502.32"/>
</g>
<!-- Node54 -->
<g id="node16" class="node">
<title>Node54</title>
<g id="a_node16"><a xlink:href="quickjs_8c.html#a9e7b4bccf927d811b0f99b40b08c0472" target="_top" xlink:title=" ">
<polygon fill="none" stroke="red" points="405.5,-439.24 405.5,-458.24 481.5,-458.24 481.5,-439.24 405.5,-439.24"/>
<text text-anchor="middle" x="443.5" y="-446.24" font-family="Helvetica,sans-Serif" font-size="10.00">free_var_ref</text>
</a>
</g>
</g>
<!-- Node3&#45;&gt;Node54 -->
<g id="edge18" class="edge">
<title>Node3&#45;&gt;Node54</title>
<path fill="none" stroke="midnightblue" d="M313.19,-515.19C327.64,-502.72 354.64,-480.93 381,-467.74 385.63,-465.43 390.6,-463.33 395.63,-461.44"/>
<polygon fill="midnightblue" stroke="midnightblue" points="397.01,-464.66 405.31,-458.08 394.71,-458.05 397.01,-464.66"/>
</g>
<!-- Node250 -->
<g id="node17" class="node">
<title>Node250</title>
<g id="a_node17"><a xlink:href="cutils_8h.html#a7c82a3ee025fee89db5b11ff5b7691b8" target="_top" xlink:title=" ">
<polygon fill="none" stroke="black" points="417,-401.24 417,-420.24 470,-420.24 470,-401.24 417,-401.24"/>
<text text-anchor="middle" x="443.5" y="-408.24" font-family="Helvetica,sans-Serif" font-size="10.00">get_i16</text>
</a>
</g>
</g>
<!-- Node3&#45;&gt;Node250 -->
<g id="edge19" class="edge">
<title>Node3&#45;&gt;Node250</title>
<path fill="none" stroke="midnightblue" d="M307.84,-515.08C318.93,-495.92 346.33,-452.95 381,-429.74 388.76,-424.55 398,-420.72 406.94,-417.92"/>
<polygon fill="midnightblue" stroke="midnightblue" points="408.1,-421.23 416.8,-415.18 406.23,-414.48 408.1,-421.23"/>
</g>
<!-- Node251 -->
<g id="node18" class="node">
<title>Node251</title>
<g id="a_node18"><a xlink:href="cutils_8h.html#a288ee4e688944e23500af2ecc813c306" target="_top" xlink:title=" ">
<polygon fill="none" stroke="black" points="420,-363.24 420,-382.24 467,-382.24 467,-363.24 420,-363.24"/>
<text text-anchor="middle" x="443.5" y="-370.24" font-family="Helvetica,sans-Serif" font-size="10.00">get_i8</text>
</a>
</g>
</g>
<!-- Node3&#45;&gt;Node251 -->
<g id="edge20" class="edge">
<title>Node3&#45;&gt;Node251</title>
<path fill="none" stroke="midnightblue" d="M305.47,-515.06C313.48,-490.6 337.87,-425.81 381,-391.74 389.35,-385.14 400,-380.82 410.09,-378"/>
<polygon fill="midnightblue" stroke="midnightblue" points="410.97,-381.39 419.87,-375.65 409.33,-374.58 410.97,-381.39"/>
</g>
<!-- Node252 -->
<g id="node19" class="node">
<title>Node252</title>
<g id="a_node19"><a xlink:href="cutils_8h.html#ad587834d17e95461893d59661e5e9676" target="_top" xlink:title=" ">
<polygon fill="none" stroke="black" points="415.5,-325.24 415.5,-344.24 471.5,-344.24 471.5,-325.24 415.5,-325.24"/>
<text text-anchor="middle" x="443.5" y="-332.24" font-family="Helvetica,sans-Serif" font-size="10.00">get_u16</text>
</a>
</g>
</g>
<!-- Node3&#45;&gt;Node252 -->
<g id="edge21" class="edge">
<title>Node3&#45;&gt;Node252</title>
<path fill="none" stroke="midnightblue" d="M304.12,-514.96C309.46,-485.89 329.18,-399.19 381,-353.74 387.9,-347.69 396.7,-343.57 405.47,-340.76"/>
<polygon fill="midnightblue" stroke="midnightblue" points="406.52,-344.1 415.26,-338.11 404.69,-337.34 406.52,-344.1"/>
</g>
<!-- Node50 -->
<g id="node20" class="node">
<title>Node50</title>
<g id="a_node20"><a xlink:href="cutils_8h.html#a941262a5f72fda2ec43ae7911e97a0dc" target="_top" xlink:title=" ">
<polygon fill="none" stroke="black" points="415.5,-287.24 415.5,-306.24 471.5,-306.24 471.5,-287.24 415.5,-287.24"/>
<text text-anchor="middle" x="443.5" y="-294.24" font-family="Helvetica,sans-Serif" font-size="10.00">get_u32</text>
</a>
</g>
</g>
<!-- Node3&#45;&gt;Node50 -->
<g id="edge22" class="edge">
<title>Node3&#45;&gt;Node50</title>
<path fill="none" stroke="midnightblue" d="M303.19,-515.23C306.07,-482.47 320.06,-373.15 381,-315.74 387.74,-309.39 396.55,-305.16 405.4,-302.35"/>
<polygon fill="midnightblue" stroke="midnightblue" points="406.51,-305.67 415.28,-299.73 404.72,-298.91 406.51,-305.67"/>
</g>
<!-- Node253 -->
<g id="node21" class="node">
<title>Node253</title>
<g id="a_node21"><a xlink:href="quickjs_8c.html#a37fe43b6649456a848bd54846450b995" target="_top" xlink:title=" ">
<polygon fill="none" stroke="red" points="407.5,-249.24 407.5,-268.24 479.5,-268.24 479.5,-249.24 407.5,-249.24"/>
<text text-anchor="middle" x="443.5" y="-256.24" font-family="Helvetica,sans-Serif" font-size="10.00">get_var_ref</text>
</a>
</g>
</g>
<!-- Node3&#45;&gt;Node253 -->
<g id="edge23" class="edge">
<title>Node3&#45;&gt;Node253</title>
<path fill="none" stroke="midnightblue" d="M302.56,-515.1C303.33,-478.56 311.04,-347.14 381,-277.74 385.69,-273.09 391.48,-269.58 397.63,-266.92"/>
<polygon fill="midnightblue" stroke="midnightblue" points="399.22,-270.07 407.47,-263.41 396.87,-263.48 399.22,-270.07"/>
</g>
<!-- Node196 -->
<g id="node22" class="node">
<title>Node196</title>
<g id="a_node22"><a xlink:href="list_8h.html#a663527a4d757540b2177bef0db1ce5c0" target="_top" xlink:title=" ">
<polygon fill="none" stroke="black" points="402.5,-211.24 402.5,-230.24 484.5,-230.24 484.5,-211.24 402.5,-211.24"/>
<text text-anchor="middle" x="443.5" y="-218.24" font-family="Helvetica,sans-Serif" font-size="10.00">init_list_head</text>
</a>
</g>
</g>
<!-- Node3&#45;&gt;Node196 -->
<g id="edge24" class="edge">
<title>Node3&#45;&gt;Node196</title>
<path fill="none" stroke="midnightblue" d="M302.08,-515.05C300.9,-475.1 301.87,-321.35 381,-239.74 384.46,-236.17 388.58,-233.26 393.03,-230.9"/>
<polygon fill="midnightblue" stroke="midnightblue" points="394.72,-233.98 402.49,-226.78 391.93,-227.56 394.72,-233.98"/>
</g>
<!-- Node254 -->
<g id="node23" class="node">
<title>Node254</title>
<g id="a_node23"><a xlink:href="quickjs_8c.html#a2bb0a2ca3b8320f3ff778c65034fce49" target="_top" xlink:title=" ">
<polygon fill="none" stroke="red" points="384,-173.24 384,-192.24 503,-192.24 503,-173.24 384,-173.24"/>
<text text-anchor="middle" x="443.5" y="-180.24" font-family="Helvetica,sans-Serif" font-size="10.00">is_backtrace_needed</text>
</a>
</g>
</g>
<!-- Node3&#45;&gt;Node254 -->
<g id="edge25" class="edge">
<title>Node3&#45;&gt;Node254</title>
<path fill="none" stroke="midnightblue" d="M303.57,-515.08C309.11,-466.52 336.12,-249.45 381,-201.74 382.38,-200.28 383.87,-198.92 385.44,-197.67"/>
<polygon fill="midnightblue" stroke="midnightblue" points="387.4,-200.57 393.95,-192.25 383.64,-194.67 387.4,-200.57"/>
</g>
<!-- Node180 -->
<g id="node24" class="node">
<title>Node180</title>
<g id="a_node24"><a xlink:href="quickjs_8c.html#a686cf78f8b0361621ee2ba6182195c31" target="_top" xlink:title=" ">
<polygon fill="none" stroke="black" points="399.5,-135.24 399.5,-154.24 487.5,-154.24 487.5,-135.24 399.5,-135.24"/>
<text text-anchor="middle" x="443.5" y="-142.24" font-family="Helvetica,sans-Serif" font-size="10.00">is_strict_mode</text>
</a>
</g>
</g>
<!-- Node3&#45;&gt;Node180 -->
<g id="edge26" class="edge">
<title>Node3&#45;&gt;Node180</title>
<path fill="none" stroke="midnightblue" d="M303.31,-515.01C307.81,-462.95 331.45,-217.72 381,-163.74 383.73,-160.77 386.91,-158.26 390.36,-156.14"/>
<polygon fill="midnightblue" stroke="midnightblue" points="392.01,-159.22 399.4,-151.62 388.89,-152.96 392.01,-159.22"/>
</g>
<!-- Node256 -->
<g id="node25" class="node">
<title>Node256</title>
<g id="a_node25"><a xlink:href="quickjs_8c.html#ae8ff05447c0d51fe277baccf616dc7c6" target="_top" xlink:title=" ">
<polygon fill="none" stroke="red" points="405.5,-629.24 405.5,-648.24 481.5,-648.24 481.5,-629.24 405.5,-629.24"/>
<text text-anchor="middle" x="443.5" y="-636.24" font-family="Helvetica,sans-Serif" font-size="10.00">js_add_slow</text>
</a>
</g>
</g>
<!-- Node3&#45;&gt;Node256 -->
<g id="edge27" class="edge">
<title>Node3&#45;&gt;Node256</title>
<path fill="none" stroke="midnightblue" d="M307.84,-534.4C318.93,-553.56 346.33,-596.53 381,-619.74 385.59,-622.81 390.69,-625.4 395.94,-627.59"/>
<polygon fill="midnightblue" stroke="midnightblue" points="394.88,-630.93 405.48,-631.1 397.3,-624.36 394.88,-630.93"/>
</g>
<!-- Node263 -->
<g id="node26" class="node">
<title>Node263</title>
<g id="a_node26"><a xlink:href="quickjs_8c.html#a6a21784a40b8684f2e779bd460dd13b2" target="_top" xlink:title=" ">
<polygon fill="none" stroke="red" points="404.5,-781.24 404.5,-800.24 482.5,-800.24 482.5,-781.24 404.5,-781.24"/>
<text text-anchor="middle" x="443.5" y="-788.24" font-family="Helvetica,sans-Serif" font-size="10.00">JS_AddBrand</text>
</a>
</g>
</g>
<!-- Node3&#45;&gt;Node263 -->
<g id="edge30" class="edge">
<title>Node3&#45;&gt;Node263</title>
<path fill="none" stroke="midnightblue" d="M302.56,-534.38C303.33,-570.92 311.04,-702.34 381,-771.74 384.97,-775.68 389.73,-778.8 394.83,-781.28"/>
<polygon fill="midnightblue" stroke="midnightblue" points="393.68,-784.59 404.26,-785.07 396.29,-778.09 393.68,-784.59"/>
</g>
<!-- Node266 -->
<g id="node27" class="node">
<title>Node266</title>
<g id="a_node27"><a xlink:href="quickjs_8c.html#a43208b0746998d2b6b9b8bd1ef8b5f99" target="_top" xlink:title=" ">
<polygon fill="none" stroke="red" points="381,-591.24 381,-610.24 506,-610.24 506,-591.24 381,-591.24"/>
<text text-anchor="middle" x="443.5" y="-598.24" font-family="Helvetica,sans-Serif" font-size="10.00">js_append_enumerate</text>
</a>
</g>
</g>
<!-- Node3&#45;&gt;Node266 -->
<g id="edge35" class="edge">
<title>Node3&#45;&gt;Node266</title>
<path fill="none" stroke="midnightblue" d="M315.04,-534.27C330.12,-545.43 356.48,-564.02 381,-576.74 388.52,-580.64 396.83,-584.29 404.84,-587.51"/>
<polygon fill="midnightblue" stroke="midnightblue" points="403.8,-590.86 414.39,-591.21 406.33,-584.34 403.8,-590.86"/>
</g>
<!-- Node98 -->
<g id="node28" class="node">
<title>Node98</title>
<g id="a_node28"><a xlink:href="quickjs_8c.html#a260bfa297ff6cb5bd18e229afaa54663" target="_top" xlink:title=" ">
<polygon fill="none" stroke="red" points="395.5,-857.24 395.5,-876.24 491.5,-876.24 491.5,-857.24 395.5,-857.24"/>
<text text-anchor="middle" x="443.5" y="-864.24" font-family="Helvetica,sans-Serif" font-size="10.00">JS_AtomToString</text>
</a>
</g>
</g>
<!-- Node3&#45;&gt;Node98 -->
<g id="edge40" class="edge">
<title>Node3&#45;&gt;Node98</title>
<path fill="none" stroke="midnightblue" d="M303.57,-534.4C309.11,-582.97 336.12,-800.03 381,-847.74 382.78,-849.63 384.73,-851.33 386.83,-852.86"/>
<polygon fill="midnightblue" stroke="midnightblue" points="385.08,-855.9 395.47,-857.98 388.65,-849.88 385.08,-855.9"/>
</g>
<!-- Node292 -->
<g id="node29" class="node">
<title>Node292</title>
<g id="a_node29"><a xlink:href="quickjs_8c.html#afa67965c1017685fc6783776d6d0d4d7" target="_top" xlink:title=" ">
<polygon fill="none" stroke="red" points="396,-819.24 396,-838.24 491,-838.24 491,-819.24 396,-819.24"/>
<text text-anchor="middle" x="443.5" y="-826.24" font-family="Helvetica,sans-Serif" font-size="10.00">JS_AtomToValue</text>
</a>
</g>
</g>
<!-- Node3&#45;&gt;Node292 -->
<g id="edge41" class="edge">
<title>Node3&#45;&gt;Node292</title>
<path fill="none" stroke="midnightblue" d="M302.08,-534.43C300.9,-574.38 301.87,-728.13 381,-809.74 382.84,-811.64 384.86,-813.34 387.02,-814.88"/>
<polygon fill="midnightblue" stroke="midnightblue" points="385.49,-818.04 395.9,-820.01 388.99,-811.98 385.49,-818.04"/>
</g>
<!-- Node3&#45;&gt;Node207 -->
<g id="edge47" class="edge">
<title>Node3&#45;&gt;Node207</title>
<path fill="none" stroke="midnightblue" d="M302.85,-534.39C305.19,-594.77 320.5,-920.25 381,-994.74 386.72,-1001.79 394.79,-1006.77 403.2,-1010.29"/>
<polygon fill="midnightblue" stroke="midnightblue" points="402.15,-1013.63 412.74,-1013.68 404.49,-1007.04 402.15,-1013.63"/>
</g>
<!-- Node65&#45;&gt;Node4 -->
<g id="edge8" class="edge">
<title>Node65&#45;&gt;Node4</title>
<path fill="none" stroke="midnightblue" d="M484.61,-112.28C492.66,-115.12 500.37,-119.38 506,-125.74 562.12,-189.16 579.73,-465.63 583.6,-542.72"/>
<polygon fill="midnightblue" stroke="midnightblue" points="580.11,-543.14 584.09,-552.96 587.11,-542.8 580.11,-543.14"/>
</g>
<!-- Node65&#45;&gt;Node66 -->
<g id="edge9" class="edge">
<title>Node65&#45;&gt;Node66</title>
<path fill="none" stroke="midnightblue" d="M479.83,-97.15C497.9,-92.25 520.1,-86.22 539.39,-80.98"/>
<polygon fill="midnightblue" stroke="midnightblue" points="540.45,-84.32 549.18,-78.33 538.62,-77.57 540.45,-84.32"/>
</g>
<!-- Node65&#45;&gt;Node36 -->
<g id="edge11" class="edge">
<title>Node65&#45;&gt;Node36</title>
<path fill="none" stroke="midnightblue" d="M484.62,-106.74C500.81,-106.74 519.63,-106.74 536.54,-106.74"/>
<polygon fill="midnightblue" stroke="midnightblue" points="536.78,-110.24 546.78,-106.74 536.78,-103.24 536.78,-110.24"/>
</g>
<!-- Node65&#45;&gt;Node75 -->
<g id="edge12" class="edge">
<title>Node65&#45;&gt;Node75</title>
<path fill="none" stroke="midnightblue" d="M484.77,-111.76C492.92,-114.63 500.62,-119.02 506,-125.74 569.52,-205.1 516.88,-483.24 542,-581.74 549.12,-609.64 563.84,-639.62 573.95,-658.28"/>
<polygon fill="midnightblue" stroke="midnightblue" points="570.96,-660.11 578.87,-667.16 577.08,-656.72 570.96,-660.11"/>
</g>
<!-- Node66&#45;&gt;Node57 -->
<g id="edge10" class="edge">
<title>Node66&#45;&gt;Node57</title>
<path fill="none" stroke="midnightblue" d="M618.56,-78.41C622.61,-80.86 626.28,-83.92 629,-87.74 678.47,-157.16 699.4,-792.2 702.94,-912.96"/>
<polygon fill="midnightblue" stroke="midnightblue" points="699.45,-913.11 703.23,-923 706.44,-912.91 699.45,-913.11"/>
</g>
<!-- Node247&#45;&gt;Node36 -->
<g id="edge15" class="edge">
<title>Node247&#45;&gt;Node36</title>
<path fill="none" stroke="midnightblue" d="M479.83,-78.33C497.9,-83.23 520.1,-89.26 539.39,-94.5"/>
<polygon fill="midnightblue" stroke="midnightblue" points="538.62,-97.91 549.18,-97.15 540.45,-91.16 538.62,-97.91"/>
</g>
<!-- Node256&#45;&gt;Node57 -->
<g id="edge28" class="edge">
<title>Node256&#45;&gt;Node57</title>
<path fill="none" stroke="midnightblue" d="M481.77,-631.3C522.78,-625.41 588.27,-623.12 629,-657.74 668.67,-691.45 693.47,-855.66 701.04,-912.96"/>
<polygon fill="midnightblue" stroke="midnightblue" points="697.61,-913.73 702.35,-923.2 704.55,-912.84 697.61,-913.73"/>
</g>
<!-- Node256&#45;&gt;Node75 -->
<g id="edge29" class="edge">
<title>Node256&#45;&gt;Node75</title>
<path fill="none" stroke="midnightblue" d="M479.83,-648.33C497.9,-653.23 520.1,-659.26 539.39,-664.5"/>
<polygon fill="midnightblue" stroke="midnightblue" points="538.62,-667.91 549.18,-667.15 540.45,-661.16 538.62,-667.91"/>
</g>
<!-- Node263&#45;&gt;Node7 -->
<g id="edge31" class="edge">
<title>Node263&#45;&gt;Node7</title>
<path fill="none" stroke="midnightblue" d="M482.58,-798.57C490.74,-801.3 499,-804.93 506,-809.74 514.37,-815.5 551.33,-864.73 571.41,-891.9"/>
<polygon fill="midnightblue" stroke="midnightblue" points="568.76,-894.2 577.5,-900.18 574.39,-890.05 568.76,-894.2"/>
</g>
<!-- Node263&#45;&gt;Node57 -->
<g id="edge33" class="edge">
<title>Node263&#45;&gt;Node57</title>
<path fill="none" stroke="midnightblue" d="M480.85,-800.27C489.26,-802.94 498.07,-806.12 506,-809.74 574.14,-840.85 647.19,-891.43 682.28,-916.95"/>
<polygon fill="midnightblue" stroke="midnightblue" points="680.62,-920.06 690.75,-923.15 684.76,-914.42 680.62,-920.06"/>
</g>
<!-- Node263&#45;&gt;Node36 -->
<g id="edge32" class="edge">
<title>Node263&#45;&gt;Node36</title>
<path fill="none" stroke="midnightblue" d="M482.67,-786.2C491.51,-783.37 500.07,-778.87 506,-771.74 527.31,-746.15 573.37,-233.55 582.79,-126.31"/>
<polygon fill="midnightblue" stroke="midnightblue" points="586.29,-126.51 583.68,-116.24 579.32,-125.9 586.29,-126.51"/>
</g>
<!-- Node263&#45;&gt;Node75 -->
<g id="edge34" class="edge">
<title>Node263&#45;&gt;Node75</title>
<path fill="none" stroke="midnightblue" d="M482.81,-782.67C490.87,-779.96 499.04,-776.4 506,-771.74 536.06,-751.61 560.66,-716.63 573.9,-695.19"/>
<polygon fill="midnightblue" stroke="midnightblue" points="577.03,-696.78 579.16,-686.4 571.02,-693.18 577.03,-696.78"/>
</g>
<!-- Node266&#45;&gt;Node4 -->
<g id="edge36" class="edge">
<title>Node266&#45;&gt;Node4</title>
<path fill="none" stroke="midnightblue" d="M479.83,-591.15C497.9,-586.25 520.1,-580.22 539.39,-574.98"/>
<polygon fill="midnightblue" stroke="midnightblue" points="540.45,-578.32 549.18,-572.33 538.62,-571.57 540.45,-578.32"/>
</g>
<!-- Node266&#45;&gt;Node57 -->
<g id="edge38" class="edge">
<title>Node266&#45;&gt;Node57</title>
<path fill="none" stroke="midnightblue" d="M506.09,-591.91C545.87,-589.8 596.14,-594.39 629,-623.74 672.88,-662.94 695.35,-851.21 701.63,-913.03"/>
<polygon fill="midnightblue" stroke="midnightblue" points="698.15,-913.43 702.62,-923.04 705.12,-912.74 698.15,-913.43"/>
</g>
<!-- Node266&#45;&gt;Node36 -->
<g id="edge37" class="edge">
<title>Node266&#45;&gt;Node36</title>
<path fill="none" stroke="midnightblue" d="M459.51,-591.14C473.86,-581.12 494.89,-564.05 506,-543.74 546.55,-469.61 575.22,-201.93 582.62,-126.59"/>
<polygon fill="midnightblue" stroke="midnightblue" points="586.11,-126.85 583.59,-116.56 579.14,-126.18 586.11,-126.85"/>
</g>
<!-- Node266&#45;&gt;Node75 -->
<g id="edge39" class="edge">
<title>Node266&#45;&gt;Node75</title>
<path fill="none" stroke="midnightblue" d="M482.34,-610.29C490.35,-612.89 498.6,-616.04 506,-619.74 528.24,-630.87 550.94,-648.12 566.17,-660.73"/>
<polygon fill="midnightblue" stroke="midnightblue" points="563.92,-663.41 573.81,-667.19 568.44,-658.06 563.92,-663.41"/>
</g>
<!-- Node207&#45;&gt;Node57 -->
<g id="edge48" class="edge">
<title>Node207&#45;&gt;Node57</title>
<path fill="none" stroke="midnightblue" d="M474.28,-1019.86C511.92,-1020.18 577.94,-1017.04 629,-994.74 652.42,-984.51 674.27,-964.6 688.17,-950.09"/>
<polygon fill="midnightblue" stroke="midnightblue" points="690.81,-952.4 695.04,-942.68 685.68,-947.64 690.81,-952.4"/>
</g>
</g>
</svg>
