<?xml version="1.0" encoding="UTF-8" standalone="no"?>
<!DOCTYPE svg PUBLIC "-//W3C//DTD SVG 1.1//EN"
 "http://www.w3.org/Graphics/SVG/1.1/DTD/svg11.dtd">
<!-- Generated by graphviz version 2.43.0 (0)
 -->
<!-- Title: js_dynamic_import_job Pages: 1 -->
<!--zoomable 965 -->
<svg id="main" version="1.1" xmlns="http://www.w3.org/2000/svg" xmlns:xlink="http://www.w3.org/1999/xlink" xml:space="preserve" onload="init(evt)">
<style type="text/css"><![CDATA[
.edge:hover path { stroke: red; }
.edge:hover polygon { stroke: red; fill: red; }
]]></style>
<script type="text/javascript"><![CDATA[
var edges = document.getElementsByTagName('g');
if (edges && edges.length) {
  for (var i=0;i<edges.length;i++) {
    if (edges[i].id.substr(0,4)=='edge') {
      edges[i].setAttribute('class','edge');
    }
  }
}
]]></script>
        <defs>
                <circle id="rim" cx="0" cy="0" r="7"/>
                <circle id="rim2" cx="0" cy="0" r="3.5"/>
                <g id="zoomPlus">
                        <use xlink:href="#rim" fill="#404040">
                                <set attributeName="fill" to="#808080" begin="zoomplus.mouseover" end="zoomplus.mouseout"/>
                        </use>
                        <path d="M-4,0h8M0,-4v8" fill="none" stroke="white" stroke-width="1.5" pointer-events="none"/>
                </g>
                <g id="zoomMin">
                        <use xlink:href="#rim" fill="#404040">
                                <set attributeName="fill" to="#808080" begin="zoomminus.mouseover" end="zoomminus.mouseout"/>
                        </use>
                        <path d="M-4,0h8" fill="none" stroke="white" stroke-width="1.5" pointer-events="none"/>
                </g>
                <g id="dirArrow">
                        <path fill="none" stroke="white" stroke-width="1.5" d="M0,-3.0v7 M-2.5,-0.5L0,-3.0L2.5,-0.5"/>
                </g>
               <g id="resetDef">
                       <use xlink:href="#rim2" fill="#404040">
                               <set attributeName="fill" to="#808080" begin="reset.mouseover" end="reset.mouseout"/>
                       </use>
               </g>
        </defs>

<script type="text/javascript">
var viewWidth = 864;
var viewHeight = 965;
var sectionId = 'dynsection-1162';
</script>
<script xlink:href="svgpan.js"/>
<svg id="graph" class="graph">
<g id="viewport">
<title>js_dynamic_import_job</title>
<!-- Node1 -->
<g id="node1" class="node">
<title>Node1</title>
<g id="a_node1"><a xlink:title=" ">
<polygon fill="#bfbfbf" stroke="black" points="0,-152.5 0,-171.5 130,-171.5 130,-152.5 0,-152.5"/>
<text text-anchor="middle" x="65" y="-159.5" font-family="Helvetica,sans-Serif" font-size="10.00">js_dynamic_import_job</text>
</a>
</g>
</g>
<!-- Node2 -->
<g id="node2" class="node">
<title>Node2</title>
<g id="a_node2"><a xlink:href="quickjs_8c.html#a1a4c02a29525d5cb2085dd8bca3af350" target="_top" xlink:title=" ">
<polygon fill="none" stroke="black" points="189,-608.5 189,-627.5 239,-627.5 239,-608.5 189,-608.5"/>
<text text-anchor="middle" x="214" y="-615.5" font-family="Helvetica,sans-Serif" font-size="10.00">JS_Call</text>
</a>
</g>
</g>
<!-- Node1&#45;&gt;Node2 -->
<g id="edge1" class="edge">
<title>Node1&#45;&gt;Node2</title>
<path fill="none" stroke="midnightblue" d="M69.07,-171.52C87.3,-228.08 181.4,-519.99 206.72,-598.52"/>
<polygon fill="midnightblue" stroke="midnightblue" points="203.42,-599.7 209.82,-608.14 210.08,-597.55 203.42,-599.7"/>
</g>
<!-- Node57 -->
<g id="node10" class="node">
<title>Node57</title>
<g id="a_node10"><a xlink:href="quickjs_8h.html#afaa20c47565bc704c6c85f3d77254e7d" target="_top" xlink:title=" ">
<polygon fill="none" stroke="red" points="777,-596.5 777,-615.5 856,-615.5 856,-596.5 777,-596.5"/>
<text text-anchor="middle" x="816.5" y="-603.5" font-family="Helvetica,sans-Serif" font-size="10.00">JS_FreeValue</text>
</a>
</g>
</g>
<!-- Node1&#45;&gt;Node57 -->
<g id="edge30" class="edge">
<title>Node1&#45;&gt;Node57</title>
<path fill="none" stroke="midnightblue" d="M72.66,-152.33C87.03,-132.35 123.15,-86.73 166,-67 240.27,-32.79 267.23,-48 349,-48 349,-48 349,-48 501.5,-48 608.89,-48 664.77,-4.36 741,-80 814.16,-152.58 816.36,-499.25 815.74,-586.19"/>
<polygon fill="midnightblue" stroke="midnightblue" points="812.24,-586.25 815.65,-596.28 819.24,-586.32 812.24,-586.25"/>
</g>
<!-- Node75 -->
<g id="node12" class="node">
<title>Node75</title>
<g id="a_node12"><a xlink:href="quickjs_8h.html#ad80a83d73e9b7d872b88fbf2943aebe9" target="_top" xlink:title=" ">
<polygon fill="none" stroke="black" points="626.5,-296.5 626.5,-315.5 713.5,-315.5 713.5,-296.5 626.5,-296.5"/>
<text text-anchor="middle" x="670" y="-303.5" font-family="Helvetica,sans-Serif" font-size="10.00">JS_IsException</text>
</a>
</g>
</g>
<!-- Node1&#45;&gt;Node75 -->
<g id="edge40" class="edge">
<title>Node1&#45;&gt;Node75</title>
<path fill="none" stroke="midnightblue" d="M130.06,-171.21C260.09,-190.07 544.35,-232.24 563,-243 584.89,-255.63 577.8,-273.26 599,-287 604.41,-290.51 610.45,-293.37 616.66,-295.71"/>
<polygon fill="midnightblue" stroke="midnightblue" points="615.9,-299.14 626.49,-298.96 618.1,-292.5 615.9,-299.14"/>
</g>
<!-- Node91 -->
<g id="node14" class="node">
<title>Node91</title>
<g id="a_node14"><a xlink:href="quickjs_8c.html#ae0bc4f65da64810facb2cb9e476eda2e" target="_top" xlink:title=" ">
<polygon fill="none" stroke="black" points="626.5,-836.5 626.5,-855.5 713.5,-855.5 713.5,-836.5 626.5,-836.5"/>
<text text-anchor="middle" x="670" y="-843.5" font-family="Helvetica,sans-Serif" font-size="10.00">JS_FreeCString</text>
</a>
</g>
</g>
<!-- Node1&#45;&gt;Node91 -->
<g id="edge29" class="edge">
<title>Node1&#45;&gt;Node91</title>
<path fill="none" stroke="midnightblue" d="M66.21,-171.65C67.69,-222.73 79.2,-465.58 166,-637 247.9,-798.75 272.49,-867 438,-941 488.72,-963.68 511.11,-960.85 563,-941 603.34,-925.57 638.01,-886.92 655.95,-863.95"/>
<polygon fill="midnightblue" stroke="midnightblue" points="658.93,-865.81 662.18,-855.73 653.35,-861.58 658.93,-865.81"/>
</g>
<!-- Node405 -->
<g id="node21" class="node">
<title>Node405</title>
<g id="a_node21"><a xlink:href="quickjs_8c.html#a2f5aeb4e31e2001c555335ae5172165b" target="_top" xlink:title=" ">
<polygon fill="none" stroke="black" points="298,-266.5 298,-285.5 402,-285.5 402,-266.5 298,-266.5"/>
<text text-anchor="middle" x="350" y="-273.5" font-family="Helvetica,sans-Serif" font-size="10.00">js_get_module_ns</text>
</a>
</g>
</g>
<!-- Node1&#45;&gt;Node405 -->
<g id="edge31" class="edge">
<title>Node1&#45;&gt;Node405</title>
<path fill="none" stroke="midnightblue" d="M82.61,-171.64C102.14,-182.74 135.76,-201.1 166,-214 213.02,-234.05 268.9,-252.2 306.44,-263.61"/>
<polygon fill="midnightblue" stroke="midnightblue" points="305.46,-266.97 316.04,-266.5 307.48,-260.26 305.46,-266.97"/>
</g>
<!-- Node347 -->
<g id="node23" class="node">
<title>Node347</title>
<g id="a_node23"><a xlink:href="quickjs_8c.html#a8551eaac7ef616910807cebdc515760d" target="_top" xlink:title=" ">
<polygon fill="none" stroke="black" points="166,-114.5 166,-133.5 262,-133.5 262,-114.5 166,-114.5"/>
<text text-anchor="middle" x="214" y="-121.5" font-family="Helvetica,sans-Serif" font-size="10.00">JS_GetException</text>
</a>
</g>
</g>
<!-- Node1&#45;&gt;Node347 -->
<g id="edge39" class="edge">
<title>Node1&#45;&gt;Node347</title>
<path fill="none" stroke="midnightblue" d="M103.09,-152.41C122.32,-147.44 145.99,-141.32 166.43,-136.04"/>
<polygon fill="midnightblue" stroke="midnightblue" points="167.37,-139.41 176.17,-133.52 165.61,-132.63 167.37,-139.41"/>
</g>
<!-- Node357 -->
<g id="node24" class="node">
<title>Node357</title>
<g id="a_node24"><a xlink:href="quickjs_8h.html#aa53b9197dc6d5770e3a080c1e335f7cb" target="_top" xlink:title=" ">
<polygon fill="none" stroke="black" points="180,-76.5 180,-95.5 248,-95.5 248,-76.5 180,-76.5"/>
<text text-anchor="middle" x="214" y="-83.5" font-family="Helvetica,sans-Serif" font-size="10.00">JS_IsString</text>
</a>
</g>
</g>
<!-- Node1&#45;&gt;Node357 -->
<g id="edge41" class="edge">
<title>Node1&#45;&gt;Node357</title>
<path fill="none" stroke="midnightblue" d="M81.24,-152.46C100.56,-140.56 135.07,-119.99 166,-105 169.83,-103.14 173.89,-101.31 177.96,-99.56"/>
<polygon fill="midnightblue" stroke="midnightblue" points="179.48,-102.72 187.36,-95.64 176.78,-96.26 179.48,-102.72"/>
</g>
<!-- Node419 -->
<g id="node25" class="node">
<title>Node419</title>
<g id="a_node25"><a xlink:href="quickjs_8c.html#aa75a2b06808d8da661d4eb6698b17cab" target="_top" xlink:title=" ">
<polygon fill="none" stroke="black" points="457.5,-152.5 457.5,-171.5 543.5,-171.5 543.5,-152.5 457.5,-152.5"/>
<text text-anchor="middle" x="500.5" y="-159.5" font-family="Helvetica,sans-Serif" font-size="10.00">JS_RunModule</text>
</a>
</g>
</g>
<!-- Node1&#45;&gt;Node419 -->
<g id="edge42" class="edge">
<title>Node1&#45;&gt;Node419</title>
<path fill="none" stroke="midnightblue" d="M130.43,-162C216.55,-162 367.52,-162 447.06,-162"/>
<polygon fill="midnightblue" stroke="midnightblue" points="447.33,-165.5 457.33,-162 447.33,-158.5 447.33,-165.5"/>
</g>
<!-- Node172 -->
<g id="node30" class="node">
<title>Node172</title>
<g id="a_node30"><a xlink:href="quickjs_8h.html#af931f06630ab719b5f82a16eb27effd1" target="_top" xlink:title=" ">
<polygon fill="none" stroke="red" points="175.5,-0.5 175.5,-19.5 252.5,-19.5 252.5,-0.5 175.5,-0.5"/>
<text text-anchor="middle" x="214" y="-7.5" font-family="Helvetica,sans-Serif" font-size="10.00">JS_ToCString</text>
</a>
</g>
</g>
<!-- Node1&#45;&gt;Node172 -->
<g id="edge51" class="edge">
<title>Node1&#45;&gt;Node172</title>
<path fill="none" stroke="midnightblue" d="M71.41,-152.5C84.84,-129.57 121.84,-70.43 166,-34 170.33,-30.43 175.28,-27.19 180.3,-24.34"/>
<polygon fill="midnightblue" stroke="midnightblue" points="182.07,-27.36 189.3,-19.61 178.82,-21.16 182.07,-27.36"/>
</g>
<!-- Node3 -->
<g id="node3" class="node">
<title>Node3</title>
<g id="a_node3"><a xlink:href="quickjs_8c.html#ac2894ff4edcdb4e6841bcce9c76081e3" target="_top" xlink:title=" ">
<polygon fill="none" stroke="red" points="306.5,-608.5 306.5,-627.5 393.5,-627.5 393.5,-608.5 306.5,-608.5"/>
<text text-anchor="middle" x="350" y="-615.5" font-family="Helvetica,sans-Serif" font-size="10.00">JS_CallInternal</text>
</a>
</g>
</g>
<!-- Node2&#45;&gt;Node3 -->
<g id="edge2" class="edge">
<title>Node2&#45;&gt;Node3</title>
<path fill="none" stroke="midnightblue" d="M239.27,-612.66C255.19,-611.42 276.65,-611 296.37,-611.39"/>
<polygon fill="midnightblue" stroke="midnightblue" points="296.39,-614.89 306.48,-611.67 296.58,-607.89 296.39,-614.89"/>
</g>
<!-- Node3&#45;&gt;Node2 -->
<g id="edge23" class="edge">
<title>Node3&#45;&gt;Node2</title>
<path fill="none" stroke="midnightblue" d="M306.48,-624.33C288.11,-624.99 266.9,-624.87 249.53,-623.99"/>
<polygon fill="midnightblue" stroke="midnightblue" points="249.47,-620.48 239.27,-623.34 249.03,-627.46 249.47,-620.48"/>
</g>
<!-- Node3&#45;&gt;Node3 -->
<g id="edge24" class="edge">
<title>Node3&#45;&gt;Node3</title>
<path fill="none" stroke="midnightblue" d="M329.04,-627.76C318.84,-636.57 325.83,-646 350,-646 365.49,-646 373.92,-642.13 375.3,-637.03"/>
<polygon fill="midnightblue" stroke="midnightblue" points="378.37,-635.33 370.96,-627.76 372.03,-638.3 378.37,-635.33"/>
</g>
<!-- Node4 -->
<g id="node4" class="node">
<title>Node4</title>
<g id="a_node4"><a xlink:href="quickjs_8c.html#a853f0924d441ea4225488f37c8b69f9a" target="_top" xlink:title=" ">
<polygon fill="none" stroke="black" points="630,-703.5 630,-722.5 710,-722.5 710,-703.5 630,-703.5"/>
<text text-anchor="middle" x="670" y="-710.5" font-family="Helvetica,sans-Serif" font-size="10.00">__attribute__</text>
</a>
</g>
</g>
<!-- Node3&#45;&gt;Node4 -->
<g id="edge3" class="edge">
<title>Node3&#45;&gt;Node4</title>
<path fill="none" stroke="midnightblue" d="M356.13,-627.67C367.59,-648.09 397.47,-695.16 438,-713 496.43,-738.72 571.5,-732.45 619.94,-724.04"/>
<polygon fill="midnightblue" stroke="midnightblue" points="620.65,-727.46 629.85,-722.22 619.39,-720.58 620.65,-727.46"/>
</g>
<!-- Node5 -->
<g id="node5" class="node">
<title>Node5</title>
<g id="a_node5"><a xlink:href="quickjs_8c.html#a877fcb7651d95b411ce70e62b7f4a1f0" target="_top" xlink:title=" ">
<polygon fill="none" stroke="black" points="438,-912.5 438,-931.5 563,-931.5 563,-912.5 438,-912.5"/>
<text text-anchor="middle" x="500.5" y="-919.5" font-family="Helvetica,sans-Serif" font-size="10.00">__JS_AtomFromUInt32</text>
</a>
</g>
</g>
<!-- Node3&#45;&gt;Node5 -->
<g id="edge4" class="edge">
<title>Node3&#45;&gt;Node5</title>
<path fill="none" stroke="midnightblue" d="M350.91,-627.71C351.07,-667.76 357.11,-821.84 438,-903 439.45,-904.45 441.01,-905.8 442.65,-907.04"/>
<polygon fill="midnightblue" stroke="midnightblue" points="441.12,-910.2 451.48,-912.43 444.77,-904.23 441.12,-910.2"/>
</g>
<!-- Node6 -->
<g id="node6" class="node">
<title>Node6</title>
<g id="a_node6"><a xlink:href="quickjs_8h.html#a9bf98b18de88b4199910a43e933eb97d" target="_top" xlink:title=" ">
<polygon fill="none" stroke="black" points="450.5,-874.5 450.5,-893.5 550.5,-893.5 550.5,-874.5 450.5,-874.5"/>
<text text-anchor="middle" x="500.5" y="-881.5" font-family="Helvetica,sans-Serif" font-size="10.00">__JS_NewFloat64</text>
</a>
</g>
</g>
<!-- Node3&#45;&gt;Node6 -->
<g id="edge5" class="edge">
<title>Node3&#45;&gt;Node6</title>
<path fill="none" stroke="midnightblue" d="M351.43,-627.66C353.59,-664.29 366.24,-795.98 438,-865 439.64,-866.57 441.4,-868.02 443.26,-869.34"/>
<polygon fill="midnightblue" stroke="midnightblue" points="441.55,-872.39 451.94,-874.42 445.08,-866.35 441.55,-872.39"/>
</g>
<!-- Node7 -->
<g id="node7" class="node">
<title>Node7</title>
<g id="a_node7"><a xlink:href="quickjs_8c.html#a74547db03bf739a52c83a326b32db997" target="_top" xlink:title=" ">
<polygon fill="none" stroke="red" points="629.5,-521.5 629.5,-540.5 710.5,-540.5 710.5,-521.5 629.5,-521.5"/>
<text text-anchor="middle" x="670" y="-528.5" font-family="Helvetica,sans-Serif" font-size="10.00">add_property</text>
</a>
</g>
</g>
<!-- Node3&#45;&gt;Node7 -->
<g id="edge6" class="edge">
<title>Node3&#45;&gt;Node7</title>
<path fill="none" stroke="midnightblue" d="M385.94,-608.44C443.99,-592.56 560.21,-560.76 624.2,-543.26"/>
<polygon fill="midnightblue" stroke="midnightblue" points="625.28,-546.59 634,-540.58 623.43,-539.84 625.28,-546.59"/>
</g>
<!-- Node65 -->
<g id="node8" class="node">
<title>Node65</title>
<g id="a_node8"><a xlink:href="quickjs_8c.html#a4956f45ffd2849b96dc051277264f87a" target="_top" xlink:title=" ">
<polygon fill="none" stroke="red" points="459.5,-684.5 459.5,-703.5 541.5,-703.5 541.5,-684.5 459.5,-684.5"/>
<text text-anchor="middle" x="500.5" y="-691.5" font-family="Helvetica,sans-Serif" font-size="10.00">build_arg_list</text>
</a>
</g>
</g>
<!-- Node3&#45;&gt;Node65 -->
<g id="edge7" class="edge">
<title>Node3&#45;&gt;Node65</title>
<path fill="none" stroke="midnightblue" d="M363.31,-627.68C379.6,-640.1 409.57,-661.62 438,-675 442.74,-677.23 447.82,-679.29 452.93,-681.15"/>
<polygon fill="midnightblue" stroke="midnightblue" points="452.17,-684.59 462.76,-684.5 454.43,-677.96 452.17,-684.59"/>
</g>
<!-- Node66 -->
<g id="node9" class="node">
<title>Node66</title>
<g id="a_node9"><a xlink:href="quickjs_8c.html#ac864482356b3efc2d0b0a509fcfa4c7c" target="_top" xlink:title=" ">
<polygon fill="none" stroke="red" points="631.5,-798.5 631.5,-817.5 708.5,-817.5 708.5,-798.5 631.5,-798.5"/>
<text text-anchor="middle" x="670" y="-805.5" font-family="Helvetica,sans-Serif" font-size="10.00">free_arg_list</text>
</a>
</g>
</g>
<!-- Node3&#45;&gt;Node66 -->
<g id="edge19" class="edge">
<title>Node3&#45;&gt;Node66</title>
<path fill="none" stroke="midnightblue" d="M352.77,-627.6C358.71,-656.85 380.91,-745.29 438,-784 492.37,-820.86 571.09,-820.53 621.15,-815.41"/>
<polygon fill="midnightblue" stroke="midnightblue" points="621.83,-818.85 631.38,-814.26 621.05,-811.9 621.83,-818.85"/>
</g>
<!-- Node3&#45;&gt;Node57 -->
<g id="edge26" class="edge">
<title>Node3&#45;&gt;Node57</title>
<path fill="none" stroke="midnightblue" d="M354.57,-627.73C363.93,-651.56 391.65,-712.59 438,-736 463.81,-749.04 720.53,-743.99 741,-732 781.06,-708.55 801.88,-654.41 810.52,-625.32"/>
<polygon fill="midnightblue" stroke="midnightblue" points="813.94,-626.09 813.25,-615.52 807.2,-624.21 813.94,-626.09"/>
</g>
<!-- Node36 -->
<g id="node11" class="node">
<title>Node36</title>
<g id="a_node11"><a xlink:href="quickjs_8h.html#a775522f2d084fc8fa0fcb33f390006b4" target="_top" xlink:title=" ">
<polygon fill="none" stroke="black" points="631.5,-608.5 631.5,-627.5 708.5,-627.5 708.5,-608.5 631.5,-608.5"/>
<text text-anchor="middle" x="670" y="-615.5" font-family="Helvetica,sans-Serif" font-size="10.00">JS_DupValue</text>
</a>
</g>
</g>
<!-- Node3&#45;&gt;Node36 -->
<g id="edge25" class="edge">
<title>Node3&#45;&gt;Node36</title>
<path fill="none" stroke="midnightblue" d="M393.56,-618C452.59,-618 559.04,-618 620.89,-618"/>
<polygon fill="midnightblue" stroke="midnightblue" points="621.16,-621.5 631.16,-618 621.16,-614.5 621.16,-621.5"/>
</g>
<!-- Node3&#45;&gt;Node75 -->
<g id="edge27" class="edge">
<title>Node3&#45;&gt;Node75</title>
<path fill="none" stroke="midnightblue" d="M362.03,-608.35C377.82,-594.99 408.27,-570.94 438,-557 490.13,-532.55 518.63,-559.69 563,-523 627.36,-469.77 655.74,-367.99 665.17,-325.45"/>
<polygon fill="midnightblue" stroke="midnightblue" points="668.62,-326.04 667.25,-315.54 661.77,-324.6 668.62,-326.04"/>
</g>
<!-- Node161 -->
<g id="node13" class="node">
<title>Node161</title>
<g id="a_node13"><a xlink:href="quickjs_8c.html#a61c8dfb5e807af1b6ff7d8ca61576dda" target="_top" xlink:title=" ">
<polygon fill="none" stroke="red" points="453.5,-836.5 453.5,-855.5 547.5,-855.5 547.5,-836.5 453.5,-836.5"/>
<text text-anchor="middle" x="500.5" y="-843.5" font-family="Helvetica,sans-Serif" font-size="10.00">build_backtrace</text>
</a>
</g>
</g>
<!-- Node3&#45;&gt;Node161 -->
<g id="edge13" class="edge">
<title>Node3&#45;&gt;Node161</title>
<path fill="none" stroke="midnightblue" d="M352.41,-627.59C357.6,-659.65 378.56,-764.38 438,-822 442.06,-825.94 446.85,-829.25 451.92,-832.03"/>
<polygon fill="midnightblue" stroke="midnightblue" points="450.74,-835.35 461.28,-836.48 453.75,-829.03 450.74,-835.35"/>
</g>
<!-- Node248 -->
<g id="node15" class="node">
<title>Node248</title>
<g id="a_node15"><a xlink:href="quickjs_8c.html#a344894112559c2ba75043fd10bcfa02f" target="_top" xlink:title=" ">
<polygon fill="none" stroke="red" points="450,-646.5 450,-665.5 551,-665.5 551,-646.5 450,-646.5"/>
<text text-anchor="middle" x="500.5" y="-653.5" font-family="Helvetica,sans-Serif" font-size="10.00">close_lexical_var</text>
</a>
</g>
</g>
<!-- Node3&#45;&gt;Node248 -->
<g id="edge16" class="edge">
<title>Node3&#45;&gt;Node248</title>
<path fill="none" stroke="midnightblue" d="M388.47,-627.59C407.89,-632.56 431.8,-638.68 452.45,-643.96"/>
<polygon fill="midnightblue" stroke="midnightblue" points="451.74,-647.39 462.3,-646.48 453.48,-640.61 451.74,-647.39"/>
</g>
<!-- Node249 -->
<g id="node16" class="node">
<title>Node249</title>
<g id="a_node16"><a xlink:href="quickjs_8c.html#a1782043fce951bd4f0d91c7796b31e24" target="_top" xlink:title=" ">
<polygon fill="none" stroke="red" points="457,-494.5 457,-513.5 544,-513.5 544,-494.5 457,-494.5"/>
<text text-anchor="middle" x="500.5" y="-501.5" font-family="Helvetica,sans-Serif" font-size="10.00">close_var_refs</text>
</a>
</g>
</g>
<!-- Node3&#45;&gt;Node249 -->
<g id="edge18" class="edge">
<title>Node3&#45;&gt;Node249</title>
<path fill="none" stroke="midnightblue" d="M358.08,-608.27C371.69,-590.18 403.26,-551.12 438,-528 444.1,-523.94 450.99,-520.41 457.89,-517.4"/>
<polygon fill="midnightblue" stroke="midnightblue" points="459.29,-520.61 467.24,-513.62 456.66,-514.12 459.29,-520.61"/>
</g>
<!-- Node54 -->
<g id="node17" class="node">
<title>Node54</title>
<g id="a_node17"><a xlink:href="quickjs_8c.html#a9e7b4bccf927d811b0f99b40b08c0472" target="_top" xlink:title=" ">
<polygon fill="none" stroke="red" points="462.5,-456.5 462.5,-475.5 538.5,-475.5 538.5,-456.5 462.5,-456.5"/>
<text text-anchor="middle" x="500.5" y="-463.5" font-family="Helvetica,sans-Serif" font-size="10.00">free_var_ref</text>
</a>
</g>
</g>
<!-- Node3&#45;&gt;Node54 -->
<g id="edge20" class="edge">
<title>Node3&#45;&gt;Node54</title>
<path fill="none" stroke="midnightblue" d="M354.6,-608.32C364.21,-583.85 392.82,-519.03 438,-485 442.46,-481.64 447.53,-478.86 452.79,-476.58"/>
<polygon fill="midnightblue" stroke="midnightblue" points="454.26,-479.76 462.39,-472.97 451.8,-473.21 454.26,-479.76"/>
</g>
<!-- Node251 -->
<g id="node18" class="node">
<title>Node251</title>
<g id="a_node18"><a xlink:href="cutils_8h.html#a7c82a3ee025fee89db5b11ff5b7691b8" target="_top" xlink:title=" ">
<polygon fill="none" stroke="black" points="474,-418.5 474,-437.5 527,-437.5 527,-418.5 474,-418.5"/>
<text text-anchor="middle" x="500.5" y="-425.5" font-family="Helvetica,sans-Serif" font-size="10.00">get_i16</text>
</a>
</g>
</g>
<!-- Node3&#45;&gt;Node251 -->
<g id="edge21" class="edge">
<title>Node3&#45;&gt;Node251</title>
<path fill="none" stroke="midnightblue" d="M353.14,-608.2C360,-579.08 384.24,-492.27 438,-447 445.41,-440.76 454.85,-436.57 464.09,-433.75"/>
<polygon fill="midnightblue" stroke="midnightblue" points="465.14,-437.1 473.95,-431.21 463.39,-430.32 465.14,-437.1"/>
</g>
<!-- Node252 -->
<g id="node19" class="node">
<title>Node252</title>
<g id="a_node19"><a xlink:href="cutils_8h.html#a288ee4e688944e23500af2ecc813c306" target="_top" xlink:title=" ">
<polygon fill="none" stroke="black" points="477,-380.5 477,-399.5 524,-399.5 524,-380.5 477,-380.5"/>
<text text-anchor="middle" x="500.5" y="-387.5" font-family="Helvetica,sans-Serif" font-size="10.00">get_i8</text>
</a>
</g>
</g>
<!-- Node3&#45;&gt;Node252 -->
<g id="edge22" class="edge">
<title>Node3&#45;&gt;Node252</title>
<path fill="none" stroke="midnightblue" d="M352.11,-608.47C356.44,-575.64 375.19,-466.12 438,-409 446,-401.73 456.74,-397.24 467,-394.47"/>
<polygon fill="midnightblue" stroke="midnightblue" points="467.99,-397.83 476.98,-392.23 466.46,-391 467.99,-397.83"/>
</g>
<!-- Node127 -->
<g id="node20" class="node">
<title>Node127</title>
<g id="a_node20"><a xlink:href="quickjs_8h.html#a4e407128a9605afb77523e49e9a627fd" target="_top" xlink:title=" ">
<polygon fill="none" stroke="black" points="456,-342.5 456,-361.5 545,-361.5 545,-342.5 456,-342.5"/>
<text text-anchor="middle" x="500.5" y="-349.5" font-family="Helvetica,sans-Serif" font-size="10.00">JS_IsUndefined</text>
</a>
</g>
</g>
<!-- Node3&#45;&gt;Node127 -->
<g id="edge28" class="edge">
<title>Node3&#45;&gt;Node127</title>
<path fill="none" stroke="midnightblue" d="M351.43,-608.34C353.59,-571.71 366.24,-440.02 438,-371 440.7,-368.41 443.74,-366.17 446.99,-364.23"/>
<polygon fill="midnightblue" stroke="midnightblue" points="448.57,-367.36 455.99,-359.79 445.48,-361.08 448.57,-367.36"/>
</g>
<!-- Node65&#45;&gt;Node4 -->
<g id="edge8" class="edge">
<title>Node65&#45;&gt;Node4</title>
<path fill="none" stroke="midnightblue" d="M541.62,-698.55C565.1,-701.21 594.92,-704.6 619.81,-707.42"/>
<polygon fill="midnightblue" stroke="midnightblue" points="619.45,-710.9 629.78,-708.55 620.24,-703.95 619.45,-710.9"/>
</g>
<!-- Node65&#45;&gt;Node66 -->
<g id="edge9" class="edge">
<title>Node65&#45;&gt;Node66</title>
<path fill="none" stroke="midnightblue" d="M515.49,-703.52C544.36,-723.17 610.78,-768.37 646.04,-792.37"/>
<polygon fill="midnightblue" stroke="midnightblue" points="644.46,-795.53 654.69,-798.26 648.39,-789.74 644.46,-795.53"/>
</g>
<!-- Node65&#45;&gt;Node36 -->
<g id="edge11" class="edge">
<title>Node65&#45;&gt;Node36</title>
<path fill="none" stroke="midnightblue" d="M536.72,-684.4C545.43,-681.68 554.65,-678.5 563,-675 592.05,-662.84 623.63,-645.24 644.69,-632.83"/>
<polygon fill="midnightblue" stroke="midnightblue" points="646.52,-635.81 653.31,-627.69 642.93,-629.8 646.52,-635.81"/>
</g>
<!-- Node65&#45;&gt;Node75 -->
<g id="edge12" class="edge">
<title>Node65&#45;&gt;Node75</title>
<path fill="none" stroke="midnightblue" d="M541.74,-688.18C549.69,-685.35 557.32,-681.17 563,-675 613.26,-620.43 579.03,-583.45 599,-512 618.44,-442.44 647.89,-361.86 661.56,-325.53"/>
<polygon fill="midnightblue" stroke="midnightblue" points="664.99,-326.33 665.26,-315.74 658.45,-323.86 664.99,-326.33"/>
</g>
<!-- Node66&#45;&gt;Node57 -->
<g id="edge10" class="edge">
<title>Node66&#45;&gt;Node57</title>
<path fill="none" stroke="midnightblue" d="M708.66,-801.36C720.15,-797.8 732.09,-792.34 741,-784 787.79,-740.21 806.25,-662.47 812.59,-625.97"/>
<polygon fill="midnightblue" stroke="midnightblue" points="816.12,-626.09 814.25,-615.67 809.21,-624.98 816.12,-626.09"/>
</g>
<!-- Node161&#45;&gt;Node91 -->
<g id="edge14" class="edge">
<title>Node161&#45;&gt;Node91</title>
<path fill="none" stroke="midnightblue" d="M547.71,-846C568.95,-846 594.24,-846 616.22,-846"/>
<polygon fill="midnightblue" stroke="midnightblue" points="616.38,-849.5 626.38,-846 616.38,-842.5 616.38,-849.5"/>
</g>
<!-- Node91&#45;&gt;Node57 -->
<g id="edge15" class="edge">
<title>Node91&#45;&gt;Node57</title>
<path fill="none" stroke="midnightblue" d="M713.64,-841.41C723.6,-838.57 733.48,-834.08 741,-827 799.72,-771.71 812.16,-668.65 814.8,-625.65"/>
<polygon fill="midnightblue" stroke="midnightblue" points="818.29,-625.79 815.29,-615.63 811.3,-625.45 818.29,-625.79"/>
</g>
<!-- Node248&#45;&gt;Node36 -->
<g id="edge17" class="edge">
<title>Node248&#45;&gt;Node36</title>
<path fill="none" stroke="midnightblue" d="M543.77,-646.41C567.45,-641.04 597.05,-634.32 621.52,-628.77"/>
<polygon fill="midnightblue" stroke="midnightblue" points="622.34,-632.17 631.32,-626.55 620.79,-625.35 622.34,-632.17"/>
</g>
<!-- Node405&#45;&gt;Node36 -->
<g id="edge36" class="edge">
<title>Node405&#45;&gt;Node36</title>
<path fill="none" stroke="midnightblue" d="M390.97,-285.57C450.75,-300.04 557.13,-326.52 563,-333 628.65,-405.44 553.67,-463.38 599,-550 610.14,-571.28 630.4,-589.84 646.27,-602.17"/>
<polygon fill="midnightblue" stroke="midnightblue" points="644.45,-605.18 654.55,-608.36 648.64,-599.57 644.45,-605.18"/>
</g>
<!-- Node405&#45;&gt;Node75 -->
<g id="edge37" class="edge">
<title>Node405&#45;&gt;Node75</title>
<path fill="none" stroke="midnightblue" d="M378.05,-266.42C419.29,-253.37 499.76,-234.1 563,-257 582.58,-264.09 580.53,-277.38 599,-287 604.57,-289.9 610.63,-292.39 616.77,-294.52"/>
<polygon fill="midnightblue" stroke="midnightblue" points="615.85,-297.9 626.44,-297.58 617.96,-291.23 615.85,-297.9"/>
</g>
<!-- Node405&#45;&gt;Node127 -->
<g id="edge38" class="edge">
<title>Node405&#45;&gt;Node127</title>
<path fill="none" stroke="midnightblue" d="M365.36,-285.6C382.28,-296.67 411.45,-315 438,-328 445.84,-331.84 454.46,-335.52 462.71,-338.8"/>
<polygon fill="midnightblue" stroke="midnightblue" points="461.55,-342.1 472.14,-342.44 464.07,-335.57 461.55,-342.1"/>
</g>
<!-- Node406 -->
<g id="node22" class="node">
<title>Node406</title>
<g id="a_node22"><a xlink:href="quickjs_8c.html#ad12b6863ca31850fc39d208bb865420e" target="_top" xlink:title=" ">
<polygon fill="none" stroke="red" points="444,-266.5 444,-285.5 557,-285.5 557,-266.5 444,-266.5"/>
<text text-anchor="middle" x="500.5" y="-273.5" font-family="Helvetica,sans-Serif" font-size="10.00">js_build_module_ns</text>
</a>
</g>
</g>
<!-- Node405&#45;&gt;Node406 -->
<g id="edge32" class="edge">
<title>Node405&#45;&gt;Node406</title>
<path fill="none" stroke="midnightblue" d="M402.11,-276C412.34,-276 423.23,-276 433.88,-276"/>
<polygon fill="midnightblue" stroke="midnightblue" points="433.98,-279.5 443.98,-276 433.98,-272.5 433.98,-279.5"/>
</g>
<!-- Node406&#45;&gt;Node7 -->
<g id="edge33" class="edge">
<title>Node406&#45;&gt;Node7</title>
<path fill="none" stroke="midnightblue" d="M542.47,-285.55C550.18,-288.99 557.53,-293.67 563,-300 609.78,-354.19 565.21,-393.89 599,-457 611.37,-480.1 632.87,-501.25 648.79,-514.97"/>
<polygon fill="midnightblue" stroke="midnightblue" points="646.61,-517.71 656.53,-521.44 651.1,-512.34 646.61,-517.71"/>
</g>
<!-- Node406&#45;&gt;Node57 -->
<g id="edge34" class="edge">
<title>Node406&#45;&gt;Node57</title>
<path fill="none" stroke="midnightblue" d="M534.97,-285.6C544.53,-289.24 554.62,-293.99 563,-300 662.97,-371.71 663.23,-416.67 741,-512 762.48,-538.33 786.84,-569.28 801.69,-588.27"/>
<polygon fill="midnightblue" stroke="midnightblue" points="799.06,-590.59 807.97,-596.32 804.58,-586.28 799.06,-590.59"/>
</g>
<!-- Node406&#45;&gt;Node75 -->
<g id="edge35" class="edge">
<title>Node406&#45;&gt;Node75</title>
<path fill="none" stroke="midnightblue" d="M554.96,-285.57C574.61,-289.09 596.83,-293.07 616.4,-296.58"/>
<polygon fill="midnightblue" stroke="midnightblue" points="615.91,-300.05 626.37,-298.36 617.14,-293.16 615.91,-300.05"/>
</g>
<!-- Node419&#45;&gt;Node57 -->
<g id="edge46" class="edge">
<title>Node419&#45;&gt;Node57</title>
<path fill="none" stroke="midnightblue" d="M513.94,-152.48C552.6,-124.12 672.22,-45.69 741,-105 815.17,-168.96 816.67,-500.95 815.81,-586.09"/>
<polygon fill="midnightblue" stroke="midnightblue" points="812.31,-586.17 815.68,-596.21 819.31,-586.26 812.31,-586.17"/>
</g>
<!-- Node419&#45;&gt;Node36 -->
<g id="edge43" class="edge">
<title>Node419&#45;&gt;Node36</title>
<path fill="none" stroke="midnightblue" d="M509.98,-171.72C523.71,-188.07 550.52,-222.65 563,-257 607.79,-380.32 540.63,-432.5 599,-550 609.69,-571.51 630,-590.05 646,-602.31"/>
<polygon fill="midnightblue" stroke="midnightblue" points="644.23,-605.35 654.36,-608.46 648.38,-599.71 644.23,-605.35"/>
</g>
<!-- Node419&#45;&gt;Node75 -->
<g id="edge48" class="edge">
<title>Node419&#45;&gt;Node75</title>
<path fill="none" stroke="midnightblue" d="M540.64,-171.5C548.84,-174.97 556.85,-179.67 563,-186 596.19,-220.19 564.02,-254.63 599,-287 604.09,-291.71 610.23,-295.28 616.74,-297.97"/>
<polygon fill="midnightblue" stroke="midnightblue" points="615.85,-301.37 626.45,-301.32 618.14,-294.75 615.85,-301.37"/>
</g>
<!-- Node420 -->
<g id="node26" class="node">
<title>Node420</title>
<g id="a_node26"><a xlink:href="quickjs_8c.html#af38ab3d672d41db0fa7a75b5c24149e4" target="_top" xlink:title=" ">
<polygon fill="none" stroke="red" points="623.5,-258.5 623.5,-277.5 716.5,-277.5 716.5,-258.5 623.5,-258.5"/>
<text text-anchor="middle" x="670" y="-265.5" font-family="Helvetica,sans-Serif" font-size="10.00">JS_EvalFunction</text>
</a>
</g>
</g>
<!-- Node419&#45;&gt;Node420 -->
<g id="edge44" class="edge">
<title>Node419&#45;&gt;Node420</title>
<path fill="none" stroke="midnightblue" d="M537.93,-171.55C546.8,-175.08 555.8,-179.79 563,-186 587.42,-207.07 573.49,-229.27 599,-249 603.42,-252.42 608.41,-255.22 613.64,-257.52"/>
<polygon fill="midnightblue" stroke="midnightblue" points="612.65,-260.89 623.25,-261.14 615.12,-254.34 612.65,-260.89"/>
</g>
<!-- Node52 -->
<g id="node27" class="node">
<title>Node52</title>
<g id="a_node27"><a xlink:href="quickjs_8c.html#adcabee55726eddca24893a78515c7ba2" target="_top" xlink:title=" ">
<polygon fill="none" stroke="red" points="621.5,-220.5 621.5,-239.5 718.5,-239.5 718.5,-220.5 621.5,-220.5"/>
<text text-anchor="middle" x="670" y="-227.5" font-family="Helvetica,sans-Serif" font-size="10.00">js_free_modules</text>
</a>
</g>
</g>
<!-- Node419&#45;&gt;Node52 -->
<g id="edge45" class="edge">
<title>Node419&#45;&gt;Node52</title>
<path fill="none" stroke="midnightblue" d="M529.62,-171.51C540.3,-175.5 552.43,-180.5 563,-186 580.06,-194.88 581.55,-201.93 599,-210 604.87,-212.72 611.19,-215.14 617.55,-217.29"/>
<polygon fill="midnightblue" stroke="midnightblue" points="616.92,-220.77 627.51,-220.44 619.03,-214.09 616.92,-220.77"/>
</g>
<!-- Node427 -->
<g id="node28" class="node">
<title>Node427</title>
<g id="a_node28"><a xlink:href="quickjs_8c.html#a90dd988b99a5bc7b2a4aaffd2de405a9" target="_top" xlink:title=" ">
<polygon fill="none" stroke="red" points="599,-171 599,-201 741,-201 741,-171 599,-171"/>
<text text-anchor="start" x="607" y="-189" font-family="Helvetica,sans-Serif" font-size="10.00">js_host_resolve_imported</text>
<text text-anchor="middle" x="670" y="-178" font-family="Helvetica,sans-Serif" font-size="10.00">_module</text>
</a>
</g>
</g>
<!-- Node419&#45;&gt;Node427 -->
<g id="edge47" class="edge">
<title>Node419&#45;&gt;Node427</title>
<path fill="none" stroke="midnightblue" d="M543.77,-168.06C557.44,-170.02 573.09,-172.26 588.58,-174.48"/>
<polygon fill="midnightblue" stroke="midnightblue" points="588.33,-177.98 598.72,-175.93 589.32,-171.05 588.33,-177.98"/>
</g>
<!-- Node434 -->
<g id="node29" class="node">
<title>Node434</title>
<g id="a_node29"><a xlink:href="quickjs_8c.html#a041f16b68daf31525cd76aa4794073ef" target="_top" xlink:title=" ">
<polygon fill="none" stroke="red" points="616,-114.5 616,-133.5 724,-133.5 724,-114.5 616,-114.5"/>
<text text-anchor="middle" x="670" y="-121.5" font-family="Helvetica,sans-Serif" font-size="10.00">js_resolve_module</text>
</a>
</g>
</g>
<!-- Node419&#45;&gt;Node434 -->
<g id="edge49" class="edge">
<title>Node419&#45;&gt;Node434</title>
<path fill="none" stroke="midnightblue" d="M543.77,-152.41C566.07,-147.35 593.62,-141.1 617.2,-135.75"/>
<polygon fill="midnightblue" stroke="midnightblue" points="618.06,-139.15 627.04,-133.52 616.51,-132.32 618.06,-139.15"/>
</g>
<!-- Node434&#45;&gt;Node434 -->
<g id="edge50" class="edge">
<title>Node434&#45;&gt;Node434</title>
<path fill="none" stroke="midnightblue" d="M647.5,-133.76C636.55,-142.57 644.05,-152 670,-152 687.03,-152 696.11,-147.94 697.25,-142.65"/>
<polygon fill="midnightblue" stroke="midnightblue" points="700.3,-140.93 692.5,-133.76 694.12,-144.23 700.3,-140.93"/>
</g>
</g>
</svg>
        <g id="navigator" transform="translate(0 0)" fill="#404254">
                <rect fill="#f2f5e9" fill-opacity="0.5" stroke="#606060" stroke-width=".5" x="0" y="0" width="60" height="60"/>
                <use id="zoomplus" xlink:href="#zoomPlus" x="17" y="9" onmousedown="handleZoom(evt,'in')"/>
                <use id="zoomminus" xlink:href="#zoomMin" x="42" y="9" onmousedown="handleZoom(evt,'out')"/>
                <use id="reset" xlink:href="#resetDef" x="30" y="36" onmousedown="handleReset()"/>
                <g id="arrowUp" xlink:href="#dirArrow" transform="translate(30 24)" onmousedown="handlePan(0,-1)">
                  <use xlink:href="#rim" fill="#404040">
                        <set attributeName="fill" to="#808080" begin="arrowUp.mouseover" end="arrowUp.mouseout"/>
                  </use>
                  <path fill="none" stroke="white" stroke-width="1.5" d="M0,-3.0v7 M-2.5,-0.5L0,-3.0L2.5,-0.5"/>
                </g>
                <g id="arrowRight" xlink:href="#dirArrow" transform="rotate(90) translate(36 -43)" onmousedown="handlePan(1,0)">
                  <use xlink:href="#rim" fill="#404040">
                        <set attributeName="fill" to="#808080" begin="arrowRight.mouseover" end="arrowRight.mouseout"/>
                  </use>
                  <path fill="none" stroke="white" stroke-width="1.5" d="M0,-3.0v7 M-2.5,-0.5L0,-3.0L2.5,-0.5"/>
                </g>
                <g id="arrowDown" xlink:href="#dirArrow" transform="rotate(180) translate(-30 -48)" onmousedown="handlePan(0,1)">
                  <use xlink:href="#rim" fill="#404040">
                        <set attributeName="fill" to="#808080" begin="arrowDown.mouseover" end="arrowDown.mouseout"/>
                  </use>
                  <path fill="none" stroke="white" stroke-width="1.5" d="M0,-3.0v7 M-2.5,-0.5L0,-3.0L2.5,-0.5"/>
                </g>
                <g id="arrowLeft" xlink:href="#dirArrow" transform="rotate(270) translate(-36 17)" onmousedown="handlePan(-1,0)">
                  <use xlink:href="#rim" fill="#404040">
                        <set attributeName="fill" to="#808080" begin="arrowLeft.mouseover" end="arrowLeft.mouseout"/>
                  </use>
                  <path fill="none" stroke="white" stroke-width="1.5" d="M0,-3.0v7 M-2.5,-0.5L0,-3.0L2.5,-0.5"/>
                </g>
        </g>
        <svg viewBox="0 0 15 15" width="100%" height="30px" preserveAspectRatio="xMaxYMin meet">
         <g id="arrow_out" transform="scale(0.3 0.3)">
          <a xlink:href="quickjs_8c_a6357b7fdae71c70c140e78e6c20cb5c2_cgraph_org.svg" target="_base">
           <rect id="button" ry="5" rx="5" y="6" x="6" height="38" width="38"
                fill="#f2f5e9" fill-opacity="0.5" stroke="#606060" stroke-width="1.0"/>
           <path id="arrow"
             d="M 11.500037,31.436501 C 11.940474,20.09759 22.043105,11.32322 32.158766,21.979434 L 37.068811,17.246167 C 37.068811,17.246167 37.088388,32 37.088388,32 L 22.160133,31.978069 C 22.160133,31.978069 26.997745,27.140456 26.997745,27.140456 C 18.528582,18.264221 13.291696,25.230495 11.500037,31.436501 z"
             style="fill:#404040;"/>
          </a>
         </g>
        </svg>
</svg>
