<?xml version="1.0" encoding="UTF-8" standalone="no"?>
<!DOCTYPE svg PUBLIC "-//W3C//DTD SVG 1.1//EN"
 "http://www.w3.org/Graphics/SVG/1.1/DTD/svg11.dtd">
<!-- Generated by graphviz version 2.43.0 (0)
 -->
<!-- Title: js_async_generator_resume_next Pages: 1 -->
<!--zoomable 1167 -->
<svg id="main" version="1.1" xmlns="http://www.w3.org/2000/svg" xmlns:xlink="http://www.w3.org/1999/xlink" xml:space="preserve" onload="init(evt)">
<style type="text/css"><![CDATA[
.edge:hover path { stroke: red; }
.edge:hover polygon { stroke: red; fill: red; }
]]></style>
<script type="text/javascript"><![CDATA[
var edges = document.getElementsByTagName('g');
if (edges && edges.length) {
  for (var i=0;i<edges.length;i++) {
    if (edges[i].id.substr(0,4)=='edge') {
      edges[i].setAttribute('class','edge');
    }
  }
}
]]></script>
        <defs>
                <circle id="rim" cx="0" cy="0" r="7"/>
                <circle id="rim2" cx="0" cy="0" r="3.5"/>
                <g id="zoomPlus">
                        <use xlink:href="#rim" fill="#404040">
                                <set attributeName="fill" to="#808080" begin="zoomplus.mouseover" end="zoomplus.mouseout"/>
                        </use>
                        <path d="M-4,0h8M0,-4v8" fill="none" stroke="white" stroke-width="1.5" pointer-events="none"/>
                </g>
                <g id="zoomMin">
                        <use xlink:href="#rim" fill="#404040">
                                <set attributeName="fill" to="#808080" begin="zoomminus.mouseover" end="zoomminus.mouseout"/>
                        </use>
                        <path d="M-4,0h8" fill="none" stroke="white" stroke-width="1.5" pointer-events="none"/>
                </g>
                <g id="dirArrow">
                        <path fill="none" stroke="white" stroke-width="1.5" d="M0,-3.0v7 M-2.5,-0.5L0,-3.0L2.5,-0.5"/>
                </g>
               <g id="resetDef">
                       <use xlink:href="#rim2" fill="#404040">
                               <set attributeName="fill" to="#808080" begin="reset.mouseover" end="reset.mouseout"/>
                       </use>
               </g>
        </defs>

<script type="text/javascript">
var viewWidth = 713;
var viewHeight = 1167;
var sectionId = 'dynsection-904';
</script>
<script xlink:href="svgpan.js"/>
<svg id="graph" class="graph">
<g id="viewport">
<title>js_async_generator_resume_next</title>
<!-- Node1 -->
<g id="node1" class="node">
<title>Node1</title>
<g id="a_node1"><a xlink:title=" ">
<polygon fill="#bfbfbf" stroke="black" points="0,-389.52 0,-419.52 111,-419.52 111,-389.52 0,-389.52"/>
<text text-anchor="start" x="8" y="-407.52" font-family="Helvetica,sans-Serif" font-size="10.00">js_async_generator</text>
<text text-anchor="middle" x="55.5" y="-396.52" font-family="Helvetica,sans-Serif" font-size="10.00">_resume_next</text>
</a>
</g>
</g>
<!-- Node2 -->
<g id="node2" class="node">
<title>Node2</title>
<g id="a_node2"><a xlink:href="quickjs_8c.html#ade71a22dc56e7371392393df663b28b3" target="_top" xlink:title=" ">
<polygon fill="none" stroke="black" points="147,-721.02 147,-740.02 260,-740.02 260,-721.02 147,-721.02"/>
<text text-anchor="middle" x="203.5" y="-728.02" font-family="Helvetica,sans-Serif" font-size="10.00">async_func_resume</text>
</a>
</g>
</g>
<!-- Node1&#45;&gt;Node2 -->
<g id="edge1" class="edge">
<title>Node1&#45;&gt;Node2</title>
<path fill="none" stroke="midnightblue" d="M59.48,-419.71C68.14,-461.63 96.04,-581.57 147,-668.52 157.07,-685.69 172.38,-702.34 184.37,-714.06"/>
<polygon fill="midnightblue" stroke="midnightblue" points="182.02,-716.65 191.69,-721 186.84,-711.58 182.02,-716.65"/>
</g>
<!-- Node36 -->
<g id="node9" class="node">
<title>Node36</title>
<g id="a_node9"><a xlink:href="quickjs_8h.html#a775522f2d084fc8fa0fcb33f390006b4" target="_top" xlink:title=" ">
<polygon fill="none" stroke="black" points="623,-683.02 623,-702.02 700,-702.02 700,-683.02 623,-683.02"/>
<text text-anchor="middle" x="661.5" y="-690.02" font-family="Helvetica,sans-Serif" font-size="10.00">JS_DupValue</text>
</a>
</g>
</g>
<!-- Node1&#45;&gt;Node36 -->
<g id="edge57" class="edge">
<title>Node1&#45;&gt;Node36</title>
<path fill="none" stroke="midnightblue" d="M58.25,-419.65C69.77,-510.99 143.81,-988.39 443,-1091.52 501.41,-1111.65 535.03,-1131.65 582,-1091.52 621,-1058.2 607.8,-913.79 618,-863.52 629.26,-808 646.47,-743.33 655.13,-711.8"/>
<polygon fill="midnightblue" stroke="midnightblue" points="658.52,-712.66 657.81,-702.09 651.77,-710.8 658.52,-712.66"/>
</g>
<!-- Node75 -->
<g id="node10" class="node">
<title>Node75</title>
<g id="a_node10"><a xlink:href="quickjs_8h.html#ad80a83d73e9b7d872b88fbf2943aebe9" target="_top" xlink:title=" ">
<polygon fill="none" stroke="black" points="618,-474.02 618,-493.02 705,-493.02 705,-474.02 618,-474.02"/>
<text text-anchor="middle" x="661.5" y="-481.02" font-family="Helvetica,sans-Serif" font-size="10.00">JS_IsException</text>
</a>
</g>
</g>
<!-- Node1&#45;&gt;Node75 -->
<g id="edge60" class="edge">
<title>Node1&#45;&gt;Node75</title>
<path fill="none" stroke="midnightblue" d="M87.07,-419.55C151.16,-450.11 305.05,-518.63 443,-542.52 503.87,-553.06 523.4,-562.08 582,-542.52 606.56,-534.32 629.61,-515.08 644.29,-500.79"/>
<polygon fill="midnightblue" stroke="midnightblue" points="647,-503.03 651.55,-493.46 642.03,-498.11 647,-503.03"/>
</g>
<!-- Node76 -->
<g id="node12" class="node">
<title>Node76</title>
<g id="a_node12"><a xlink:href="quickjs_8h.html#a2050bc428da1c65ac7eb87c3fa3b0392" target="_top" xlink:title=" ">
<polygon fill="none" stroke="black" points="623,-1139.02 623,-1158.02 700,-1158.02 700,-1139.02 623,-1139.02"/>
<text text-anchor="middle" x="661.5" y="-1146.02" font-family="Helvetica,sans-Serif" font-size="10.00">JS_NewInt32</text>
</a>
</g>
</g>
<!-- Node1&#45;&gt;Node76 -->
<g id="edge62" class="edge">
<title>Node1&#45;&gt;Node76</title>
<path fill="none" stroke="midnightblue" d="M56.73,-419.93C58.17,-480.65 68.8,-708.11 147,-872.52 222.21,-1030.64 275.27,-1082.26 443,-1132.52 499.53,-1149.46 567.85,-1151.7 612.64,-1150.86"/>
<polygon fill="midnightblue" stroke="midnightblue" points="612.76,-1154.36 622.67,-1150.62 612.58,-1147.36 612.76,-1154.36"/>
</g>
<!-- Node57 -->
<g id="node14" class="node">
<title>Node57</title>
<g id="a_node14"><a xlink:href="quickjs_8h.html#afaa20c47565bc704c6c85f3d77254e7d" target="_top" xlink:title=" ">
<polygon fill="none" stroke="red" points="622,-234.02 622,-253.02 701,-253.02 701,-234.02 622,-234.02"/>
<text text-anchor="middle" x="661.5" y="-241.02" font-family="Helvetica,sans-Serif" font-size="10.00">JS_FreeValue</text>
</a>
</g>
</g>
<!-- Node1&#45;&gt;Node57 -->
<g id="edge58" class="edge">
<title>Node1&#45;&gt;Node57</title>
<path fill="none" stroke="midnightblue" d="M56.03,-389.44C55.39,-340.62 60.55,-185.73 147,-111.52 294.44,15.06 418.99,38.26 582,-67.52 636.43,-102.84 653.44,-185.65 658.49,-223.73"/>
<polygon fill="midnightblue" stroke="midnightblue" points="655.06,-224.49 659.7,-234.01 662.01,-223.67 655.06,-224.49"/>
</g>
<!-- Node127 -->
<g id="node15" class="node">
<title>Node127</title>
<g id="a_node15"><a xlink:href="quickjs_8h.html#a4e407128a9605afb77523e49e9a627fd" target="_top" xlink:title=" ">
<polygon fill="none" stroke="black" points="468,-645.02 468,-664.02 557,-664.02 557,-645.02 468,-645.02"/>
<text text-anchor="middle" x="512.5" y="-652.02" font-family="Helvetica,sans-Serif" font-size="10.00">JS_IsUndefined</text>
</a>
</g>
</g>
<!-- Node1&#45;&gt;Node127 -->
<g id="edge61" class="edge">
<title>Node1&#45;&gt;Node127</title>
<path fill="none" stroke="midnightblue" d="M57.52,-419.56C61.19,-460.61 77.49,-574.91 147,-626.52 239.83,-695.45 385.13,-680.45 461.21,-666.07"/>
<polygon fill="midnightblue" stroke="midnightblue" points="462.34,-669.42 471.48,-664.05 460.99,-662.55 462.34,-669.42"/>
</g>
<!-- Node208 -->
<g id="node16" class="node">
<title>Node208</title>
<g id="a_node16"><a xlink:href="quickjs_8c.html#a3ae8a83da71ef07d6e858d172d9c5a81" target="_top" xlink:title=" ">
<polygon fill="none" stroke="black" points="482,-253.02 482,-272.02 543,-272.02 543,-253.02 482,-253.02"/>
<text text-anchor="middle" x="512.5" y="-260.02" font-family="Helvetica,sans-Serif" font-size="10.00">JS_Throw</text>
</a>
</g>
</g>
<!-- Node1&#45;&gt;Node208 -->
<g id="edge63" class="edge">
<title>Node1&#45;&gt;Node208</title>
<path fill="none" stroke="midnightblue" d="M111.18,-390.74C202.89,-367.46 380.3,-321.6 407,-308.52 424.96,-299.72 425.05,-290.34 443,-281.52 452.04,-277.07 462.28,-273.53 472.04,-270.77"/>
<polygon fill="midnightblue" stroke="midnightblue" points="473.18,-274.09 481.96,-268.16 471.4,-267.32 473.18,-274.09"/>
</g>
<!-- Node437 -->
<g id="node18" class="node">
<title>Node437</title>
<g id="a_node18"><a xlink:href="list_8h.html#acc8877b883e77ef12325dd5bfa4be0d3" target="_top" xlink:title=" ">
<polygon fill="none" stroke="black" points="478.5,-607.02 478.5,-626.02 546.5,-626.02 546.5,-607.02 478.5,-607.02"/>
<text text-anchor="middle" x="512.5" y="-614.02" font-family="Helvetica,sans-Serif" font-size="10.00">list_empty</text>
</a>
</g>
</g>
<!-- Node1&#45;&gt;Node437 -->
<g id="edge64" class="edge">
<title>Node1&#45;&gt;Node437</title>
<path fill="none" stroke="midnightblue" d="M58.6,-419.52C64.65,-456.34 85.76,-551.16 147,-592.52 245.43,-658.99 394.93,-641.05 468.09,-626.63"/>
<polygon fill="midnightblue" stroke="midnightblue" points="469.22,-629.97 478.32,-624.53 467.82,-623.11 469.22,-629.97"/>
</g>
<!-- Node438 -->
<g id="node19" class="node">
<title>Node438</title>
<g id="a_node19"><a xlink:href="quickjs_8c.html#a0950cebccf1347ea44a3c6927d3a5fa6" target="_top" xlink:title=" ">
<polygon fill="none" stroke="black" points="296,-411.52 296,-441.52 407,-441.52 407,-411.52 296,-411.52"/>
<text text-anchor="start" x="304" y="-429.52" font-family="Helvetica,sans-Serif" font-size="10.00">js_async_generator</text>
<text text-anchor="middle" x="351.5" y="-418.52" font-family="Helvetica,sans-Serif" font-size="10.00">_await</text>
</a>
</g>
</g>
<!-- Node1&#45;&gt;Node438 -->
<g id="edge27" class="edge">
<title>Node1&#45;&gt;Node438</title>
<path fill="none" stroke="midnightblue" d="M111.11,-408.6C160.46,-412.3 233.18,-417.74 285.5,-421.65"/>
<polygon fill="midnightblue" stroke="midnightblue" points="285.45,-425.16 295.68,-422.42 285.97,-418.18 285.45,-425.16"/>
</g>
<!-- Node447 -->
<g id="node23" class="node">
<title>Node447</title>
<g id="a_node23"><a xlink:href="quickjs_8c.html#ad753838f0911b2c87c2117e0d424e916" target="_top" xlink:title=" ">
<polygon fill="none" stroke="black" points="148,-274.52 148,-304.52 259,-304.52 259,-274.52 148,-274.52"/>
<text text-anchor="start" x="156" y="-292.52" font-family="Helvetica,sans-Serif" font-size="10.00">js_async_generator</text>
<text text-anchor="middle" x="203.5" y="-281.52" font-family="Helvetica,sans-Serif" font-size="10.00">_complete</text>
</a>
</g>
</g>
<!-- Node1&#45;&gt;Node447 -->
<g id="edge39" class="edge">
<title>Node1&#45;&gt;Node447</title>
<path fill="none" stroke="midnightblue" d="M70.22,-389.44C87.12,-371.4 117.28,-340.95 147,-319.52 151.78,-316.07 157,-312.75 162.27,-309.65"/>
<polygon fill="midnightblue" stroke="midnightblue" points="164.12,-312.62 171.11,-304.66 160.68,-306.53 164.12,-312.62"/>
</g>
<!-- Node449 -->
<g id="node25" class="node">
<title>Node449</title>
<g id="a_node25"><a xlink:href="quickjs_8c.html#a5d885b4633392386983e2d76c175dee7" target="_top" xlink:title=" ">
<polygon fill="none" stroke="black" points="296,-362.52 296,-392.52 407,-392.52 407,-362.52 296,-362.52"/>
<text text-anchor="start" x="304" y="-380.52" font-family="Helvetica,sans-Serif" font-size="10.00">js_async_generator</text>
<text text-anchor="middle" x="351.5" y="-369.52" font-family="Helvetica,sans-Serif" font-size="10.00">_completed_return</text>
</a>
</g>
</g>
<!-- Node1&#45;&gt;Node449 -->
<g id="edge41" class="edge">
<title>Node1&#45;&gt;Node449</title>
<path fill="none" stroke="midnightblue" d="M111.11,-399.5C160.46,-394.97 233.18,-388.29 285.5,-383.49"/>
<polygon fill="midnightblue" stroke="midnightblue" points="286.05,-386.95 295.68,-382.55 285.41,-379.98 286.05,-386.95"/>
</g>
<!-- Node450 -->
<g id="node26" class="node">
<title>Node450</title>
<g id="a_node26"><a xlink:href="quickjs_8c.html#afeff65269c8c136c7b74103e389befcf" target="_top" xlink:title=" ">
<polygon fill="none" stroke="black" points="148,-121.52 148,-151.52 259,-151.52 259,-121.52 148,-121.52"/>
<text text-anchor="start" x="156" y="-139.52" font-family="Helvetica,sans-Serif" font-size="10.00">js_async_generator</text>
<text text-anchor="middle" x="203.5" y="-128.52" font-family="Helvetica,sans-Serif" font-size="10.00">_reject</text>
</a>
</g>
</g>
<!-- Node1&#45;&gt;Node450 -->
<g id="edge47" class="edge">
<title>Node1&#45;&gt;Node450</title>
<path fill="none" stroke="midnightblue" d="M62.26,-389.28C75.24,-355.68 108.67,-273.13 147,-209.52 157.55,-192.01 171.47,-173.71 182.73,-159.81"/>
<polygon fill="midnightblue" stroke="midnightblue" points="185.7,-161.72 189.35,-151.77 180.29,-157.27 185.7,-161.72"/>
</g>
<!-- Node452 -->
<g id="node28" class="node">
<title>Node452</title>
<g id="a_node28"><a xlink:href="quickjs_8c.html#aceae944e32b3bc14f36a4c17f2ddd12e" target="_top" xlink:title=" ">
<polygon fill="none" stroke="black" points="296,-165.52 296,-195.52 407,-195.52 407,-165.52 296,-165.52"/>
<text text-anchor="start" x="304" y="-183.52" font-family="Helvetica,sans-Serif" font-size="10.00">js_async_generator</text>
<text text-anchor="middle" x="351.5" y="-172.52" font-family="Helvetica,sans-Serif" font-size="10.00">_resolve</text>
</a>
</g>
</g>
<!-- Node1&#45;&gt;Node452 -->
<g id="edge50" class="edge">
<title>Node1&#45;&gt;Node452</title>
<path fill="none" stroke="midnightblue" d="M62.63,-389.31C74.74,-361.04 104.29,-300.07 147,-264.52 187.33,-230.94 242.94,-209.22 285.84,-196.29"/>
<polygon fill="midnightblue" stroke="midnightblue" points="287,-199.6 295.62,-193.43 285.04,-192.88 287,-199.6"/>
</g>
<!-- Node354 -->
<g id="node30" class="node">
<title>Node354</title>
<g id="a_node30"><a xlink:href="quickjs_8c.html#a8551eaac7ef616910807cebdc515760d" target="_top" xlink:title=" ">
<polygon fill="none" stroke="black" points="155.5,-1.02 155.5,-20.02 251.5,-20.02 251.5,-1.02 155.5,-1.02"/>
<text text-anchor="middle" x="203.5" y="-8.02" font-family="Helvetica,sans-Serif" font-size="10.00">JS_GetException</text>
</a>
</g>
</g>
<!-- Node1&#45;&gt;Node354 -->
<g id="edge59" class="edge">
<title>Node1&#45;&gt;Node354</title>
<path fill="none" stroke="midnightblue" d="M58.41,-389.22C66.51,-326.59 99.75,-90.47 147,-34.52 150.14,-30.8 153.95,-27.65 158.11,-24.97"/>
<polygon fill="midnightblue" stroke="midnightblue" points="159.88,-27.99 166.98,-20.12 156.53,-21.84 159.88,-27.99"/>
</g>
<!-- Node3 -->
<g id="node3" class="node">
<title>Node3</title>
<g id="a_node3"><a xlink:href="quickjs_8c.html#ac2894ff4edcdb4e6841bcce9c76081e3" target="_top" xlink:title=" ">
<polygon fill="none" stroke="red" points="308,-816.02 308,-835.02 395,-835.02 395,-816.02 308,-816.02"/>
<text text-anchor="middle" x="351.5" y="-823.02" font-family="Helvetica,sans-Serif" font-size="10.00">JS_CallInternal</text>
</a>
</g>
</g>
<!-- Node2&#45;&gt;Node3 -->
<g id="edge2" class="edge">
<title>Node2&#45;&gt;Node3</title>
<path fill="none" stroke="midnightblue" d="M219.3,-740.15C244.66,-756.65 296.61,-790.45 326.98,-810.21"/>
<polygon fill="midnightblue" stroke="midnightblue" points="325.37,-813.34 335.66,-815.86 329.19,-807.47 325.37,-813.34"/>
</g>
<!-- Node220 -->
<g id="node13" class="node">
<title>Node220</title>
<g id="a_node13"><a xlink:href="quickjs_8c.html#af23ec7c9970ceb4671c59da7abd4b078" target="_top" xlink:title=" ">
<polygon fill="none" stroke="red" points="444,-683.02 444,-702.02 581,-702.02 581,-683.02 444,-683.02"/>
<text text-anchor="middle" x="512.5" y="-690.02" font-family="Helvetica,sans-Serif" font-size="10.00">js_check_stack_overflow</text>
</a>
</g>
</g>
<!-- Node2&#45;&gt;Node220 -->
<g id="edge25" class="edge">
<title>Node2&#45;&gt;Node220</title>
<path fill="none" stroke="midnightblue" d="M260.1,-723.64C308.63,-717.63 379.58,-708.85 433.74,-702.14"/>
<polygon fill="midnightblue" stroke="midnightblue" points="434.5,-705.58 444,-700.87 433.64,-698.63 434.5,-705.58"/>
</g>
<!-- Node222 -->
<g id="node17" class="node">
<title>Node222</title>
<g id="a_node17"><a xlink:href="quickjs_8c.html#a8353f635fb8a20553c08db8cf38c17e0" target="_top" xlink:title=" ">
<polygon fill="none" stroke="black" points="447,-1063.02 447,-1082.02 578,-1082.02 578,-1063.02 447,-1063.02"/>
<text text-anchor="middle" x="512.5" y="-1070.02" font-family="Helvetica,sans-Serif" font-size="10.00">JS_ThrowStackOverflow</text>
</a>
</g>
</g>
<!-- Node2&#45;&gt;Node222 -->
<g id="edge26" class="edge">
<title>Node2&#45;&gt;Node222</title>
<path fill="none" stroke="midnightblue" d="M208.68,-740.31C228.02,-784.42 313.49,-966.29 443,-1053.52 445.96,-1055.51 449.12,-1057.29 452.4,-1058.89"/>
<polygon fill="midnightblue" stroke="midnightblue" points="451.32,-1062.24 461.9,-1062.92 454.06,-1055.79 451.32,-1062.24"/>
</g>
<!-- Node3&#45;&gt;Node3 -->
<g id="edge13" class="edge">
<title>Node3&#45;&gt;Node3</title>
<path fill="none" stroke="midnightblue" d="M328.69,-835.28C317.59,-844.08 325.2,-853.52 351.5,-853.52 368.76,-853.52 377.97,-849.45 379.13,-844.17"/>
<polygon fill="midnightblue" stroke="midnightblue" points="382.15,-842.4 374.31,-835.28 375.99,-845.74 382.15,-842.4"/>
</g>
<!-- Node4 -->
<g id="node4" class="node">
<title>Node4</title>
<g id="a_node4"><a xlink:href="quickjs_8c.html#a853f0924d441ea4225488f37c8b69f9a" target="_top" xlink:title=" ">
<polygon fill="none" stroke="black" points="621.5,-873.02 621.5,-892.02 701.5,-892.02 701.5,-873.02 621.5,-873.02"/>
<text text-anchor="middle" x="661.5" y="-880.02" font-family="Helvetica,sans-Serif" font-size="10.00">__attribute__</text>
</a>
</g>
</g>
<!-- Node3&#45;&gt;Node4 -->
<g id="edge3" class="edge">
<title>Node3&#45;&gt;Node4</title>
<path fill="none" stroke="midnightblue" d="M370.64,-835.12C388.52,-844.1 416.86,-857.06 443,-863.52 499.55,-877.5 566.59,-881.54 611.14,-882.54"/>
<polygon fill="midnightblue" stroke="midnightblue" points="611.34,-886.04 621.4,-882.72 611.47,-879.04 611.34,-886.04"/>
</g>
<!-- Node5 -->
<g id="node5" class="node">
<title>Node5</title>
<g id="a_node5"><a xlink:href="quickjs_8c.html#a877fcb7651d95b411ce70e62b7f4a1f0" target="_top" xlink:title=" ">
<polygon fill="none" stroke="black" points="450,-987.02 450,-1006.02 575,-1006.02 575,-987.02 450,-987.02"/>
<text text-anchor="middle" x="512.5" y="-994.02" font-family="Helvetica,sans-Serif" font-size="10.00">__JS_AtomFromUInt32</text>
</a>
</g>
</g>
<!-- Node3&#45;&gt;Node5 -->
<g id="edge4" class="edge">
<title>Node3&#45;&gt;Node5</title>
<path fill="none" stroke="midnightblue" d="M355.37,-835.07C363.95,-861.9 391.99,-938.56 443,-977.52 445.47,-979.4 448.12,-981.1 450.88,-982.63"/>
<polygon fill="midnightblue" stroke="midnightblue" points="449.51,-985.86 460.05,-986.97 452.51,-979.53 449.51,-985.86"/>
</g>
<!-- Node6 -->
<g id="node6" class="node">
<title>Node6</title>
<g id="a_node6"><a xlink:href="quickjs_8h.html#a9bf98b18de88b4199910a43e933eb97d" target="_top" xlink:title=" ">
<polygon fill="none" stroke="black" points="462.5,-949.02 462.5,-968.02 562.5,-968.02 562.5,-949.02 462.5,-949.02"/>
<text text-anchor="middle" x="512.5" y="-956.02" font-family="Helvetica,sans-Serif" font-size="10.00">__JS_NewFloat64</text>
</a>
</g>
</g>
<!-- Node3&#45;&gt;Node6 -->
<g id="edge5" class="edge">
<title>Node3&#45;&gt;Node6</title>
<path fill="none" stroke="midnightblue" d="M357.37,-835.16C369.02,-857.19 400.66,-911.46 443,-939.52 446.12,-941.58 449.45,-943.42 452.91,-945.07"/>
<polygon fill="midnightblue" stroke="midnightblue" points="451.73,-948.36 462.31,-948.97 454.41,-941.9 451.73,-948.36"/>
</g>
<!-- Node7 -->
<g id="node7" class="node">
<title>Node7</title>
<g id="a_node7"><a xlink:href="quickjs_8c.html#a74547db03bf739a52c83a326b32db997" target="_top" xlink:title=" ">
<polygon fill="none" stroke="red" points="472,-911.02 472,-930.02 553,-930.02 553,-911.02 472,-911.02"/>
<text text-anchor="middle" x="512.5" y="-918.02" font-family="Helvetica,sans-Serif" font-size="10.00">add_property</text>
</a>
</g>
</g>
<!-- Node3&#45;&gt;Node7 -->
<g id="edge6" class="edge">
<title>Node3&#45;&gt;Node7</title>
<path fill="none" stroke="midnightblue" d="M362.3,-835.02C378.12,-849.91 410.77,-878.87 443,-896.52 450.63,-900.7 459.12,-904.36 467.45,-907.5"/>
<polygon fill="midnightblue" stroke="midnightblue" points="466.51,-910.88 477.11,-910.92 468.85,-904.28 466.51,-910.88"/>
</g>
<!-- Node65 -->
<g id="node8" class="node">
<title>Node65</title>
<g id="a_node8"><a xlink:href="quickjs_8c.html#a4956f45ffd2849b96dc051277264f87a" target="_top" xlink:title=" ">
<polygon fill="none" stroke="red" points="471.5,-835.02 471.5,-854.02 553.5,-854.02 553.5,-835.02 471.5,-835.02"/>
<text text-anchor="middle" x="512.5" y="-842.02" font-family="Helvetica,sans-Serif" font-size="10.00">build_arg_list</text>
</a>
</g>
</g>
<!-- Node3&#45;&gt;Node65 -->
<g id="edge7" class="edge">
<title>Node3&#45;&gt;Node65</title>
<path fill="none" stroke="midnightblue" d="M395.11,-830.61C415.43,-833.04 439.87,-835.96 461.1,-838.5"/>
<polygon fill="midnightblue" stroke="midnightblue" points="460.89,-842 471.24,-839.71 461.72,-835.05 460.89,-842"/>
</g>
<!-- Node3&#45;&gt;Node36 -->
<g id="edge15" class="edge">
<title>Node3&#45;&gt;Node36</title>
<path fill="none" stroke="midnightblue" d="M395.12,-825.72C443.47,-824.18 523.23,-816.12 582,-782.52 612.28,-765.21 636.66,-731.78 649.82,-710.9"/>
<polygon fill="midnightblue" stroke="midnightblue" points="652.85,-712.65 655.06,-702.28 646.87,-709.01 652.85,-712.65"/>
</g>
<!-- Node3&#45;&gt;Node75 -->
<g id="edge17" class="edge">
<title>Node3&#45;&gt;Node75</title>
<path fill="none" stroke="midnightblue" d="M370.13,-816C388.08,-806.57 416.91,-792.2 443,-782.52 503.05,-760.24 536.14,-789.23 582,-744.52 617.35,-710.06 647.22,-558.38 657.07,-503.46"/>
<polygon fill="midnightblue" stroke="midnightblue" points="660.57,-503.74 658.86,-493.28 653.68,-502.53 660.57,-503.74"/>
</g>
<!-- Node161 -->
<g id="node11" class="node">
<title>Node161</title>
<g id="a_node11"><a xlink:href="quickjs_8c.html#a61c8dfb5e807af1b6ff7d8ca61576dda" target="_top" xlink:title=" ">
<polygon fill="none" stroke="red" points="465.5,-1025.02 465.5,-1044.02 559.5,-1044.02 559.5,-1025.02 465.5,-1025.02"/>
<text text-anchor="middle" x="512.5" y="-1032.02" font-family="Helvetica,sans-Serif" font-size="10.00">build_backtrace</text>
</a>
</g>
</g>
<!-- Node3&#45;&gt;Node161 -->
<g id="edge11" class="edge">
<title>Node3&#45;&gt;Node161</title>
<path fill="none" stroke="midnightblue" d="M356.56,-835.22C372.09,-872.16 427.64,-1002.63 443,-1015.52 446.92,-1018.81 451.36,-1021.53 456.06,-1023.78"/>
<polygon fill="midnightblue" stroke="midnightblue" points="454.75,-1027.03 465.33,-1027.56 457.39,-1020.54 454.75,-1027.03"/>
</g>
<!-- Node3&#45;&gt;Node76 -->
<g id="edge19" class="edge">
<title>Node3&#45;&gt;Node76</title>
<path fill="none" stroke="midnightblue" d="M352.7,-835.22C354.02,-873.85 364.27,-1018.23 443,-1091.52 489.19,-1134.51 563.76,-1145.93 612.46,-1148.52"/>
<polygon fill="midnightblue" stroke="midnightblue" points="612.6,-1152.03 622.74,-1148.95 612.9,-1145.03 612.6,-1152.03"/>
</g>
<!-- Node3&#45;&gt;Node220 -->
<g id="edge14" class="edge">
<title>Node3&#45;&gt;Node220</title>
<path fill="none" stroke="midnightblue" d="M357.98,-815.87C370.42,-794.82 402.81,-744.45 443,-716.52 449.12,-712.27 456.06,-708.7 463.13,-705.72"/>
<polygon fill="midnightblue" stroke="midnightblue" points="464.68,-708.88 472.77,-702.03 462.18,-702.34 464.68,-708.88"/>
</g>
<!-- Node3&#45;&gt;Node57 -->
<g id="edge16" class="edge">
<title>Node3&#45;&gt;Node57</title>
<path fill="none" stroke="midnightblue" d="M360.36,-815.84C374.84,-798.7 407.49,-763.07 443,-744.52 499.27,-715.11 539.13,-758.36 582,-711.52 619.45,-670.6 608.76,-519.21 618,-464.52 630.62,-389.83 648.5,-301.53 656.43,-263.06"/>
<polygon fill="midnightblue" stroke="midnightblue" points="659.88,-263.69 658.48,-253.18 653.02,-262.27 659.88,-263.69"/>
</g>
<!-- Node3&#45;&gt;Node127 -->
<g id="edge18" class="edge">
<title>Node3&#45;&gt;Node127</title>
<path fill="none" stroke="midnightblue" d="M355.37,-815.97C363.95,-789.13 391.99,-712.47 443,-673.52 447.65,-669.97 452.93,-667.08 458.44,-664.73"/>
<polygon fill="midnightblue" stroke="midnightblue" points="459.69,-668 467.87,-661.27 457.27,-661.43 459.69,-668"/>
</g>
<!-- Node3&#45;&gt;Node208 -->
<g id="edge20" class="edge">
<title>Node3&#45;&gt;Node208</title>
<path fill="none" stroke="midnightblue" d="M353.79,-816.01C363.4,-745.24 424.15,-302.47 443,-281.52 450.38,-273.31 460.96,-268.52 471.61,-265.76"/>
<polygon fill="midnightblue" stroke="midnightblue" points="472.64,-269.12 481.73,-263.69 471.24,-262.26 472.64,-269.12"/>
</g>
<!-- Node3&#45;&gt;Node222 -->
<g id="edge22" class="edge">
<title>Node3&#45;&gt;Node222</title>
<path fill="none" stroke="midnightblue" d="M356.79,-835.08C366.25,-856.25 389.44,-908.78 407,-953.52 424.26,-997.49 408.37,-1021.39 443,-1053.52 444.69,-1055.09 446.5,-1056.53 448.4,-1057.85"/>
<polygon fill="midnightblue" stroke="midnightblue" points="446.83,-1060.98 457.24,-1062.93 450.32,-1054.91 446.83,-1060.98"/>
</g>
<!-- Node3&#45;&gt;Node437 -->
<g id="edge24" class="edge">
<title>Node3&#45;&gt;Node437</title>
<path fill="none" stroke="midnightblue" d="M354.17,-815.91C360.11,-784.79 383.12,-685.79 443,-635.52 450.29,-629.4 459.4,-625.24 468.58,-622.42"/>
<polygon fill="midnightblue" stroke="midnightblue" points="469.68,-625.75 478.48,-619.85 467.92,-618.98 469.68,-625.75"/>
</g>
<!-- Node65&#45;&gt;Node4 -->
<g id="edge8" class="edge">
<title>Node65&#45;&gt;Node4</title>
<path fill="none" stroke="midnightblue" d="M550.59,-854.11C569.82,-859.08 593.49,-865.19 613.93,-870.48"/>
<polygon fill="midnightblue" stroke="midnightblue" points="613.11,-873.88 623.67,-873 614.87,-867.11 613.11,-873.88"/>
</g>
<!-- Node65&#45;&gt;Node36 -->
<g id="edge9" class="edge">
<title>Node65&#45;&gt;Node36</title>
<path fill="none" stroke="midnightblue" d="M553.56,-835.57C563.55,-832.03 573.76,-827.16 582,-820.52 618.7,-790.91 642.73,-739.24 653.67,-711.46"/>
<polygon fill="midnightblue" stroke="midnightblue" points="656.95,-712.67 657.22,-702.08 650.41,-710.2 656.95,-712.67"/>
</g>
<!-- Node65&#45;&gt;Node75 -->
<g id="edge10" class="edge">
<title>Node65&#45;&gt;Node75</title>
<path fill="none" stroke="midnightblue" d="M528.39,-834.96C544.07,-824.12 568.34,-805 582,-782.52 596.92,-757.96 641.81,-565.27 656.09,-502.92"/>
<polygon fill="midnightblue" stroke="midnightblue" points="659.5,-503.69 658.31,-493.16 652.68,-502.13 659.5,-503.69"/>
</g>
<!-- Node161&#45;&gt;Node76 -->
<g id="edge12" class="edge">
<title>Node161&#45;&gt;Node76</title>
<path fill="none" stroke="midnightblue" d="M559.76,-1043.18C567.54,-1045.78 575.27,-1049.15 582,-1053.52 612.35,-1073.21 636.86,-1108.34 650,-1129.92"/>
<polygon fill="midnightblue" stroke="midnightblue" points="647.12,-1131.93 655.22,-1138.77 653.16,-1128.38 647.12,-1131.93"/>
</g>
<!-- Node208&#45;&gt;Node57 -->
<g id="edge21" class="edge">
<title>Node208&#45;&gt;Node57</title>
<path fill="none" stroke="midnightblue" d="M543.25,-258.67C562.89,-256.13 589.09,-252.75 611.74,-249.82"/>
<polygon fill="midnightblue" stroke="midnightblue" points="612.39,-253.27 621.86,-248.51 611.49,-246.32 612.39,-253.27"/>
</g>
<!-- Node222&#45;&gt;Node4 -->
<g id="edge23" class="edge">
<title>Node222&#45;&gt;Node4</title>
<path fill="none" stroke="midnightblue" d="M566.75,-1062.88C572.26,-1060.43 577.49,-1057.36 582,-1053.52 629.35,-1013.19 649.69,-938.26 657,-902.51"/>
<polygon fill="midnightblue" stroke="midnightblue" points="660.5,-902.85 658.94,-892.37 653.63,-901.54 660.5,-902.85"/>
</g>
<!-- Node438&#45;&gt;Node75 -->
<g id="edge32" class="edge">
<title>Node438&#45;&gt;Node75</title>
<path fill="none" stroke="midnightblue" d="M361.26,-441.65C375.23,-464.06 404.89,-505.19 443,-521.52 499.78,-545.85 521.79,-535.33 582,-521.52 601.68,-517.01 622.15,-506.89 637.25,-498.22"/>
<polygon fill="midnightblue" stroke="midnightblue" points="639.1,-501.2 645.91,-493.08 635.52,-495.18 639.1,-501.2"/>
</g>
<!-- Node438&#45;&gt;Node57 -->
<g id="edge31" class="edge">
<title>Node438&#45;&gt;Node57</title>
<path fill="none" stroke="midnightblue" d="M406.45,-411.4C455.24,-396.08 527.55,-369.1 582,-330.52 609.37,-311.12 634.05,-280.62 648.15,-261.37"/>
<polygon fill="midnightblue" stroke="midnightblue" points="651.05,-263.32 654.02,-253.15 645.36,-259.25 651.05,-263.32"/>
</g>
<!-- Node439 -->
<g id="node20" class="node">
<title>Node439</title>
<g id="a_node20"><a xlink:href="quickjs_8c.html#aa4b0672b30fbf661af60cf49cfadbe8f" target="_top" xlink:title=" ">
<polygon fill="none" stroke="red" points="443,-291.52 443,-321.52 582,-321.52 582,-291.52 443,-291.52"/>
<text text-anchor="start" x="451" y="-309.52" font-family="Helvetica,sans-Serif" font-size="10.00">js_async_generator</text>
<text text-anchor="middle" x="512.5" y="-298.52" font-family="Helvetica,sans-Serif" font-size="10.00">_resolve_function_create</text>
</a>
</g>
</g>
<!-- Node438&#45;&gt;Node439 -->
<g id="edge28" class="edge">
<title>Node438&#45;&gt;Node439</title>
<path fill="none" stroke="midnightblue" d="M389.39,-411.48C395.45,-408.48 401.53,-405.13 407,-401.52 438.92,-380.42 470.76,-349.74 490.75,-329"/>
<polygon fill="midnightblue" stroke="midnightblue" points="493.46,-331.24 497.81,-321.58 488.38,-326.42 493.46,-331.24"/>
</g>
<!-- Node441 -->
<g id="node21" class="node">
<title>Node441</title>
<g id="a_node21"><a xlink:href="quickjs_8c.html#a192c7bd4fc5264ccdf89e13ed5bc0dcc" target="_top" xlink:title=" ">
<polygon fill="none" stroke="red" points="457,-417.02 457,-436.02 568,-436.02 568,-417.02 457,-417.02"/>
<text text-anchor="middle" x="512.5" y="-424.02" font-family="Helvetica,sans-Serif" font-size="10.00">js_promise_resolve</text>
</a>
</g>
</g>
<!-- Node438&#45;&gt;Node441 -->
<g id="edge33" class="edge">
<title>Node438&#45;&gt;Node441</title>
<path fill="none" stroke="midnightblue" d="M407.22,-426.52C419.91,-426.52 433.53,-426.52 446.61,-426.52"/>
<polygon fill="midnightblue" stroke="midnightblue" points="446.95,-430.02 456.95,-426.52 446.95,-423.02 446.95,-430.02"/>
</g>
<!-- Node443 -->
<g id="node22" class="node">
<title>Node443</title>
<g id="a_node22"><a xlink:href="quickjs_8c.html#a944c09a3f1ce23a5760b6ed6e83e3644" target="_top" xlink:title=" ">
<polygon fill="none" stroke="red" points="448.5,-493.02 448.5,-512.02 576.5,-512.02 576.5,-493.02 448.5,-493.02"/>
<text text-anchor="middle" x="512.5" y="-500.02" font-family="Helvetica,sans-Serif" font-size="10.00">perform_promise_then</text>
</a>
</g>
</g>
<!-- Node438&#45;&gt;Node443 -->
<g id="edge37" class="edge">
<title>Node438&#45;&gt;Node443</title>
<path fill="none" stroke="midnightblue" d="M376.06,-441.66C393.96,-452.77 419.44,-467.73 443,-478.52 451.84,-482.57 461.58,-486.36 470.87,-489.67"/>
<polygon fill="midnightblue" stroke="midnightblue" points="469.74,-492.98 480.33,-492.95 472.03,-486.37 469.74,-492.98"/>
</g>
<!-- Node439&#45;&gt;Node75 -->
<g id="edge30" class="edge">
<title>Node439&#45;&gt;Node75</title>
<path fill="none" stroke="midnightblue" d="M559.58,-321.59C567.65,-325.6 575.52,-330.52 582,-336.52 621.32,-372.9 644.83,-433.56 654.83,-464.34"/>
<polygon fill="midnightblue" stroke="midnightblue" points="651.49,-465.39 657.8,-473.89 658.17,-463.3 651.49,-465.39"/>
</g>
<!-- Node439&#45;&gt;Node57 -->
<g id="edge29" class="edge">
<title>Node439&#45;&gt;Node57</title>
<path fill="none" stroke="midnightblue" d="M556.88,-291.44C565.27,-288.31 573.96,-284.92 582,-281.52 599.16,-274.26 617.96,-265.2 632.86,-257.74"/>
<polygon fill="midnightblue" stroke="midnightblue" points="634.68,-260.75 642.03,-253.11 631.52,-254.5 634.68,-260.75"/>
</g>
<!-- Node441&#45;&gt;Node36 -->
<g id="edge34" class="edge">
<title>Node441&#45;&gt;Node36</title>
<path fill="none" stroke="midnightblue" d="M559.67,-436.12C567.92,-439.56 575.84,-444.21 582,-450.52 613.99,-483.26 645.64,-621.65 656.53,-673.12"/>
<polygon fill="midnightblue" stroke="midnightblue" points="653.12,-673.9 658.58,-682.98 659.97,-672.47 653.12,-673.9"/>
</g>
<!-- Node441&#45;&gt;Node75 -->
<g id="edge36" class="edge">
<title>Node441&#45;&gt;Node75</title>
<path fill="none" stroke="midnightblue" d="M541.97,-436.06C554.33,-440.31 568.95,-445.49 582,-450.52 597.69,-456.56 614.94,-463.75 629.26,-469.87"/>
<polygon fill="midnightblue" stroke="midnightblue" points="628.08,-473.17 638.65,-473.91 630.85,-466.74 628.08,-473.17"/>
</g>
<!-- Node441&#45;&gt;Node57 -->
<g id="edge35" class="edge">
<title>Node441&#45;&gt;Node57</title>
<path fill="none" stroke="midnightblue" d="M557.19,-416.89C566.11,-413.44 574.92,-408.78 582,-402.52 625.28,-364.2 647.3,-296.55 655.97,-263.21"/>
<polygon fill="midnightblue" stroke="midnightblue" points="659.41,-263.86 658.41,-253.32 652.62,-262.19 659.41,-263.86"/>
</g>
<!-- Node443&#45;&gt;Node36 -->
<g id="edge38" class="edge">
<title>Node443&#45;&gt;Node36</title>
<path fill="none" stroke="midnightblue" d="M520.99,-512.2C544.38,-542.43 616.3,-635.38 646.7,-674.68"/>
<polygon fill="midnightblue" stroke="midnightblue" points="643.96,-676.86 652.85,-682.63 649.5,-672.58 643.96,-676.86"/>
</g>
<!-- Node448 -->
<g id="node24" class="node">
<title>Node448</title>
<g id="a_node24"><a xlink:href="quickjs_8c.html#ab3180b5caf3b66ac6db634e41e56a4ef" target="_top" xlink:title=" ">
<polygon fill="none" stroke="red" points="303.5,-280.02 303.5,-299.02 399.5,-299.02 399.5,-280.02 303.5,-280.02"/>
<text text-anchor="middle" x="351.5" y="-287.02" font-family="Helvetica,sans-Serif" font-size="10.00">async_func_free</text>
</a>
</g>
</g>
<!-- Node447&#45;&gt;Node448 -->
<g id="edge40" class="edge">
<title>Node447&#45;&gt;Node448</title>
<path fill="none" stroke="midnightblue" d="M259.28,-289.52C270.31,-289.52 281.93,-289.52 293.04,-289.52"/>
<polygon fill="midnightblue" stroke="midnightblue" points="293.08,-293.02 303.08,-289.52 293.08,-286.02 293.08,-293.02"/>
</g>
<!-- Node449&#45;&gt;Node75 -->
<g id="edge44" class="edge">
<title>Node449&#45;&gt;Node75</title>
<path fill="none" stroke="midnightblue" d="M407.17,-375.2C455.47,-375.3 526.63,-380.8 582,-407.52 609.5,-420.79 633.45,-447.41 647.44,-465.35"/>
<polygon fill="midnightblue" stroke="midnightblue" points="645.01,-467.94 653.82,-473.83 650.6,-463.73 645.01,-467.94"/>
</g>
<!-- Node449&#45;&gt;Node57 -->
<g id="edge43" class="edge">
<title>Node449&#45;&gt;Node57</title>
<path fill="none" stroke="midnightblue" d="M365.58,-362.44C377.12,-348.81 394.06,-327.96 407,-308.52 425.3,-281.03 414.55,-260.28 443,-243.52 496.84,-211.79 571.96,-221.08 618.35,-231.62"/>
<polygon fill="midnightblue" stroke="midnightblue" points="617.82,-235.09 628.36,-234.01 619.45,-228.28 617.82,-235.09"/>
</g>
<!-- Node449&#45;&gt;Node439 -->
<g id="edge42" class="edge">
<title>Node449&#45;&gt;Node439</title>
<path fill="none" stroke="midnightblue" d="M385.55,-362.42C402.67,-354.64 423.93,-345.01 443,-336.52 450.93,-332.99 459.38,-329.25 467.56,-325.67"/>
<polygon fill="midnightblue" stroke="midnightblue" points="469.21,-328.76 476.97,-321.54 466.4,-322.35 469.21,-328.76"/>
</g>
<!-- Node449&#45;&gt;Node441 -->
<g id="edge45" class="edge">
<title>Node449&#45;&gt;Node441</title>
<path fill="none" stroke="midnightblue" d="M401.5,-392.62C423.72,-399.47 449.67,-407.46 470.79,-413.97"/>
<polygon fill="midnightblue" stroke="midnightblue" points="469.84,-417.34 480.43,-416.94 471.9,-410.65 469.84,-417.34"/>
</g>
<!-- Node449&#45;&gt;Node443 -->
<g id="edge46" class="edge">
<title>Node449&#45;&gt;Node443</title>
<path fill="none" stroke="midnightblue" d="M395.22,-392.6C399.49,-395.16 403.53,-398.12 407,-401.52 434.01,-427.93 414.98,-453.18 443,-478.52 447.49,-482.58 452.71,-485.96 458.22,-488.78"/>
<polygon fill="midnightblue" stroke="midnightblue" points="457.15,-492.13 467.71,-493 459.99,-485.73 457.15,-492.13"/>
</g>
<!-- Node451 -->
<g id="node27" class="node">
<title>Node451</title>
<g id="a_node27"><a xlink:href="quickjs_8c.html#a3e852026d167fa03c673f86697dd3e67" target="_top" xlink:title=" ">
<polygon fill="none" stroke="red" points="457,-77.52 457,-107.52 568,-107.52 568,-77.52 457,-77.52"/>
<text text-anchor="start" x="465" y="-95.52" font-family="Helvetica,sans-Serif" font-size="10.00">js_async_generator</text>
<text text-anchor="middle" x="512.5" y="-84.52" font-family="Helvetica,sans-Serif" font-size="10.00">_resolve_or_reject</text>
</a>
</g>
</g>
<!-- Node450&#45;&gt;Node451 -->
<g id="edge48" class="edge">
<title>Node450&#45;&gt;Node451</title>
<path fill="none" stroke="midnightblue" d="M259.03,-128.7C311.59,-121.17 391.13,-109.77 446.84,-101.78"/>
<polygon fill="midnightblue" stroke="midnightblue" points="447.56,-105.22 456.96,-100.33 446.56,-98.29 447.56,-105.22"/>
</g>
<!-- Node451&#45;&gt;Node57 -->
<g id="edge49" class="edge">
<title>Node451&#45;&gt;Node57</title>
<path fill="none" stroke="midnightblue" d="M558.11,-107.53C566.58,-111.59 574.97,-116.55 582,-122.52 616.04,-151.42 640.75,-198.77 652.61,-224.84"/>
<polygon fill="midnightblue" stroke="midnightblue" points="649.41,-226.27 656.64,-234.01 655.81,-223.45 649.41,-226.27"/>
</g>
<!-- Node452&#45;&gt;Node36 -->
<g id="edge55" class="edge">
<title>Node452&#45;&gt;Node36</title>
<path fill="none" stroke="midnightblue" d="M363.87,-195.6C376.3,-212.83 395.93,-242.29 407,-270.52 435.99,-344.44 388.68,-387.6 443,-445.52 486.81,-492.23 534.67,-440.37 582,-483.52 638.55,-535.07 654.57,-631.42 658.93,-672.8"/>
<polygon fill="midnightblue" stroke="midnightblue" points="655.47,-673.31 659.88,-682.94 662.44,-672.65 655.47,-673.31"/>
</g>
<!-- Node452&#45;&gt;Node57 -->
<g id="edge56" class="edge">
<title>Node452&#45;&gt;Node57</title>
<path fill="none" stroke="midnightblue" d="M389.28,-165.4C436.16,-148.55 518.72,-127.17 582,-155.52 613.76,-169.75 637.95,-203.87 650.62,-225.2"/>
<polygon fill="midnightblue" stroke="midnightblue" points="647.63,-227.03 655.62,-233.99 653.72,-223.56 647.63,-227.03"/>
</g>
<!-- Node452&#45;&gt;Node451 -->
<g id="edge51" class="edge">
<title>Node452&#45;&gt;Node451</title>
<path fill="none" stroke="midnightblue" d="M373.87,-165.47C391.85,-153.13 418.48,-135.64 443,-122.52 449.92,-118.81 457.4,-115.19 464.77,-111.8"/>
<polygon fill="midnightblue" stroke="midnightblue" points="466.32,-114.95 474.02,-107.67 463.46,-108.56 466.32,-114.95"/>
</g>
<!-- Node453 -->
<g id="node29" class="node">
<title>Node453</title>
<g id="a_node29"><a xlink:href="quickjs_8c.html#a7346b86113acd072c9cfc8d238c4ff7c" target="_top" xlink:title=" ">
<polygon fill="none" stroke="red" points="461.5,-165.52 461.5,-195.52 563.5,-195.52 563.5,-165.52 461.5,-165.52"/>
<text text-anchor="start" x="469.5" y="-183.52" font-family="Helvetica,sans-Serif" font-size="10.00">js_create_iterator</text>
<text text-anchor="middle" x="512.5" y="-172.52" font-family="Helvetica,sans-Serif" font-size="10.00">_result</text>
</a>
</g>
</g>
<!-- Node452&#45;&gt;Node453 -->
<g id="edge52" class="edge">
<title>Node452&#45;&gt;Node453</title>
<path fill="none" stroke="midnightblue" d="M407.22,-180.52C421.39,-180.52 436.72,-180.52 451.16,-180.52"/>
<polygon fill="midnightblue" stroke="midnightblue" points="451.48,-184.02 461.48,-180.52 451.48,-177.02 451.48,-184.02"/>
</g>
<!-- Node453&#45;&gt;Node75 -->
<g id="edge54" class="edge">
<title>Node453&#45;&gt;Node75</title>
<path fill="none" stroke="midnightblue" d="M535.09,-195.64C550.15,-207.19 569.67,-224.36 582,-243.52 629.03,-316.62 650.3,-420.46 657.5,-463.57"/>
<polygon fill="midnightblue" stroke="midnightblue" points="654.07,-464.28 659.1,-473.6 660.98,-463.18 654.07,-464.28"/>
</g>
<!-- Node453&#45;&gt;Node57 -->
<g id="edge53" class="edge">
<title>Node453&#45;&gt;Node57</title>
<path fill="none" stroke="midnightblue" d="M548.71,-195.61C573.05,-206.04 605.15,-219.8 628.71,-229.9"/>
<polygon fill="midnightblue" stroke="midnightblue" points="627.35,-233.12 637.92,-233.84 630.11,-226.69 627.35,-233.12"/>
</g>
</g>
</svg>
        <g id="navigator" transform="translate(0 0)" fill="#404254">
                <rect fill="#f2f5e9" fill-opacity="0.5" stroke="#606060" stroke-width=".5" x="0" y="0" width="60" height="60"/>
                <use id="zoomplus" xlink:href="#zoomPlus" x="17" y="9" onmousedown="handleZoom(evt,'in')"/>
                <use id="zoomminus" xlink:href="#zoomMin" x="42" y="9" onmousedown="handleZoom(evt,'out')"/>
                <use id="reset" xlink:href="#resetDef" x="30" y="36" onmousedown="handleReset()"/>
                <g id="arrowUp" xlink:href="#dirArrow" transform="translate(30 24)" onmousedown="handlePan(0,-1)">
                  <use xlink:href="#rim" fill="#404040">
                        <set attributeName="fill" to="#808080" begin="arrowUp.mouseover" end="arrowUp.mouseout"/>
                  </use>
                  <path fill="none" stroke="white" stroke-width="1.5" d="M0,-3.0v7 M-2.5,-0.5L0,-3.0L2.5,-0.5"/>
                </g>
                <g id="arrowRight" xlink:href="#dirArrow" transform="rotate(90) translate(36 -43)" onmousedown="handlePan(1,0)">
                  <use xlink:href="#rim" fill="#404040">
                        <set attributeName="fill" to="#808080" begin="arrowRight.mouseover" end="arrowRight.mouseout"/>
                  </use>
                  <path fill="none" stroke="white" stroke-width="1.5" d="M0,-3.0v7 M-2.5,-0.5L0,-3.0L2.5,-0.5"/>
                </g>
                <g id="arrowDown" xlink:href="#dirArrow" transform="rotate(180) translate(-30 -48)" onmousedown="handlePan(0,1)">
                  <use xlink:href="#rim" fill="#404040">
                        <set attributeName="fill" to="#808080" begin="arrowDown.mouseover" end="arrowDown.mouseout"/>
                  </use>
                  <path fill="none" stroke="white" stroke-width="1.5" d="M0,-3.0v7 M-2.5,-0.5L0,-3.0L2.5,-0.5"/>
                </g>
                <g id="arrowLeft" xlink:href="#dirArrow" transform="rotate(270) translate(-36 17)" onmousedown="handlePan(-1,0)">
                  <use xlink:href="#rim" fill="#404040">
                        <set attributeName="fill" to="#808080" begin="arrowLeft.mouseover" end="arrowLeft.mouseout"/>
                  </use>
                  <path fill="none" stroke="white" stroke-width="1.5" d="M0,-3.0v7 M-2.5,-0.5L0,-3.0L2.5,-0.5"/>
                </g>
        </g>
        <svg viewBox="0 0 15 15" width="100%" height="30px" preserveAspectRatio="xMaxYMin meet">
         <g id="arrow_out" transform="scale(0.3 0.3)">
          <a xlink:href="quickjs_8c_a89b019c704a2d2914bc30b30a72040b3_cgraph_org.svg" target="_base">
           <rect id="button" ry="5" rx="5" y="6" x="6" height="38" width="38"
                fill="#f2f5e9" fill-opacity="0.5" stroke="#606060" stroke-width="1.0"/>
           <path id="arrow"
             d="M 11.500037,31.436501 C 11.940474,20.09759 22.043105,11.32322 32.158766,21.979434 L 37.068811,17.246167 C 37.068811,17.246167 37.088388,32 37.088388,32 L 22.160133,31.978069 C 22.160133,31.978069 26.997745,27.140456 26.997745,27.140456 C 18.528582,18.264221 13.291696,25.230495 11.500037,31.436501 z"
             style="fill:#404040;"/>
          </a>
         </g>
        </svg>
</svg>
