<?xml version="1.0" encoding="UTF-8" standalone="no"?>
<!DOCTYPE svg PUBLIC "-//W3C//DTD SVG 1.1//EN"
 "http://www.w3.org/Graphics/SVG/1.1/DTD/svg11.dtd">
<!-- Generated by graphviz version 2.43.0 (0)
 -->
<!-- Title: js_async_generator_next Pages: 1 -->
<!--zoomable 1044 -->
<svg id="main" version="1.1" xmlns="http://www.w3.org/2000/svg" xmlns:xlink="http://www.w3.org/1999/xlink" xml:space="preserve" onload="init(evt)">
<style type="text/css"><![CDATA[
.edge:hover path { stroke: red; }
.edge:hover polygon { stroke: red; fill: red; }
]]></style>
<script type="text/javascript"><![CDATA[
var edges = document.getElementsByTagName('g');
if (edges && edges.length) {
  for (var i=0;i<edges.length;i++) {
    if (edges[i].id.substr(0,4)=='edge') {
      edges[i].setAttribute('class','edge');
    }
  }
}
]]></script>
        <defs>
                <circle id="rim" cx="0" cy="0" r="7"/>
                <circle id="rim2" cx="0" cy="0" r="3.5"/>
                <g id="zoomPlus">
                        <use xlink:href="#rim" fill="#404040">
                                <set attributeName="fill" to="#808080" begin="zoomplus.mouseover" end="zoomplus.mouseout"/>
                        </use>
                        <path d="M-4,0h8M0,-4v8" fill="none" stroke="white" stroke-width="1.5" pointer-events="none"/>
                </g>
                <g id="zoomMin">
                        <use xlink:href="#rim" fill="#404040">
                                <set attributeName="fill" to="#808080" begin="zoomminus.mouseover" end="zoomminus.mouseout"/>
                        </use>
                        <path d="M-4,0h8" fill="none" stroke="white" stroke-width="1.5" pointer-events="none"/>
                </g>
                <g id="dirArrow">
                        <path fill="none" stroke="white" stroke-width="1.5" d="M0,-3.0v7 M-2.5,-0.5L0,-3.0L2.5,-0.5"/>
                </g>
               <g id="resetDef">
                       <use xlink:href="#rim2" fill="#404040">
                               <set attributeName="fill" to="#808080" begin="reset.mouseover" end="reset.mouseout"/>
                       </use>
               </g>
        </defs>

<script type="text/javascript">
var viewWidth = 846;
var viewHeight = 1044;
var sectionId = 'dynsection-905';
</script>
<script xlink:href="svgpan.js"/>
<svg id="graph" class="graph">
<g id="viewport">
<title>js_async_generator_next</title>
<!-- Node1 -->
<g id="node1" class="node">
<title>Node1</title>
<g id="a_node1"><a xlink:title=" ">
<polygon fill="#bfbfbf" stroke="black" points="0,-665.5 0,-684.5 138,-684.5 138,-665.5 0,-665.5"/>
<text text-anchor="middle" x="69" y="-672.5" font-family="Helvetica,sans-Serif" font-size="10.00">js_async_generator_next</text>
</a>
</g>
</g>
<!-- Node2 -->
<g id="node2" class="node">
<title>Node2</title>
<g id="a_node2"><a xlink:href="quickjs_8c.html#a1a4c02a29525d5cb2085dd8bca3af350" target="_top" xlink:title=" ">
<polygon fill="none" stroke="black" points="220,-646.5 220,-665.5 270,-665.5 270,-646.5 220,-646.5"/>
<text text-anchor="middle" x="245" y="-653.5" font-family="Helvetica,sans-Serif" font-size="10.00">JS_Call</text>
</a>
</g>
</g>
<!-- Node1&#45;&gt;Node2 -->
<g id="edge1" class="edge">
<title>Node1&#45;&gt;Node2</title>
<path fill="none" stroke="midnightblue" d="M138.27,-667.55C162.76,-664.87 189.32,-661.97 209.69,-659.75"/>
<polygon fill="midnightblue" stroke="midnightblue" points="210.18,-663.21 219.74,-658.65 209.42,-656.26 210.18,-663.21"/>
</g>
<!-- Node57 -->
<g id="node10" class="node">
<title>Node57</title>
<g id="a_node10"><a xlink:href="quickjs_8h.html#afaa20c47565bc704c6c85f3d77254e7d" target="_top" xlink:title=" ">
<polygon fill="none" stroke="red" points="759,-798.5 759,-817.5 838,-817.5 838,-798.5 759,-798.5"/>
<text text-anchor="middle" x="798.5" y="-805.5" font-family="Helvetica,sans-Serif" font-size="10.00">JS_FreeValue</text>
</a>
</g>
</g>
<!-- Node1&#45;&gt;Node57 -->
<g id="edge47" class="edge">
<title>Node1&#45;&gt;Node57</title>
<path fill="none" stroke="midnightblue" d="M73.11,-684.66C92.26,-742.07 199.83,-1036 394.5,-1036 394.5,-1036 394.5,-1036 538.5,-1036 630.73,-1036 656.65,-1005.06 723,-941 757.44,-907.75 780.41,-855.08 790.92,-827.04"/>
<polygon fill="midnightblue" stroke="midnightblue" points="794.23,-828.19 794.33,-817.59 787.64,-825.81 794.23,-828.19"/>
</g>
<!-- Node36 -->
<g id="node11" class="node">
<title>Node36</title>
<g id="a_node11"><a xlink:href="quickjs_8h.html#a775522f2d084fc8fa0fcb33f390006b4" target="_top" xlink:title=" ">
<polygon fill="none" stroke="black" points="641,-665.5 641,-684.5 718,-684.5 718,-665.5 641,-665.5"/>
<text text-anchor="middle" x="679.5" y="-672.5" font-family="Helvetica,sans-Serif" font-size="10.00">JS_DupValue</text>
</a>
</g>
</g>
<!-- Node1&#45;&gt;Node36 -->
<g id="edge46" class="edge">
<title>Node1&#45;&gt;Node36</title>
<path fill="none" stroke="midnightblue" d="M138.03,-675C262.29,-675 523.04,-675 630.57,-675"/>
<polygon fill="midnightblue" stroke="midnightblue" points="630.79,-678.5 640.79,-675 630.79,-671.5 630.79,-678.5"/>
</g>
<!-- Node75 -->
<g id="node12" class="node">
<title>Node75</title>
<g id="a_node12"><a xlink:href="quickjs_8h.html#ad80a83d73e9b7d872b88fbf2943aebe9" target="_top" xlink:title=" ">
<polygon fill="none" stroke="black" points="636,-836.5 636,-855.5 723,-855.5 723,-836.5 636,-836.5"/>
<text text-anchor="middle" x="679.5" y="-843.5" font-family="Helvetica,sans-Serif" font-size="10.00">JS_IsException</text>
</a>
</g>
</g>
<!-- Node1&#45;&gt;Node75 -->
<g id="edge49" class="edge">
<title>Node1&#45;&gt;Node75</title>
<path fill="none" stroke="midnightblue" d="M79.78,-684.72C122.13,-726.03 295.67,-887.38 475,-941 528.23,-956.92 549.74,-964.67 600,-941 608.87,-936.82 645.28,-889.93 665.24,-863.63"/>
<polygon fill="midnightblue" stroke="midnightblue" points="668.08,-865.68 671.32,-855.59 662.5,-861.46 668.08,-865.68"/>
</g>
<!-- Node353 -->
<g id="node29" class="node">
<title>Node353</title>
<g id="a_node29"><a xlink:href="quickjs_8c.html#a8551eaac7ef616910807cebdc515760d" target="_top" xlink:title=" ">
<polygon fill="none" stroke="black" points="197,-608.5 197,-627.5 293,-627.5 293,-608.5 197,-608.5"/>
<text text-anchor="middle" x="245" y="-615.5" font-family="Helvetica,sans-Serif" font-size="10.00">JS_GetException</text>
</a>
</g>
</g>
<!-- Node1&#45;&gt;Node353 -->
<g id="edge48" class="edge">
<title>Node1&#45;&gt;Node353</title>
<path fill="none" stroke="midnightblue" d="M94.59,-665.34C115.54,-657.28 146.52,-645.73 174,-637 181.26,-634.69 189,-632.42 196.58,-630.28"/>
<polygon fill="midnightblue" stroke="midnightblue" points="197.7,-633.6 206.41,-627.57 195.84,-626.86 197.7,-633.6"/>
</g>
<!-- Node375 -->
<g id="node30" class="node">
<title>Node375</title>
<g id="a_node30"><a xlink:href="quickjs_8c.html#a2287eaf81466a0d408341cdae08ed673" target="_top" xlink:title=" ">
<polygon fill="none" stroke="red" points="174,-570.5 174,-589.5 316,-589.5 316,-570.5 174,-570.5"/>
<text text-anchor="middle" x="245" y="-577.5" font-family="Helvetica,sans-Serif" font-size="10.00">JS_NewPromiseCapability</text>
</a>
</g>
</g>
<!-- Node1&#45;&gt;Node375 -->
<g id="edge50" class="edge">
<title>Node1&#45;&gt;Node375</title>
<path fill="none" stroke="midnightblue" d="M80.38,-665.36C98.19,-649.32 136.31,-617.12 174,-599 178.89,-596.65 184.13,-594.55 189.44,-592.68"/>
<polygon fill="midnightblue" stroke="midnightblue" points="190.61,-595.98 199.05,-589.58 188.46,-589.32 190.61,-595.98"/>
</g>
<!-- Node3 -->
<g id="node3" class="node">
<title>Node3</title>
<g id="a_node3"><a xlink:href="quickjs_8c.html#ac2894ff4edcdb4e6841bcce9c76081e3" target="_top" xlink:title=" ">
<polygon fill="none" stroke="red" points="352,-494.5 352,-513.5 439,-513.5 439,-494.5 352,-494.5"/>
<text text-anchor="middle" x="395.5" y="-501.5" font-family="Helvetica,sans-Serif" font-size="10.00">JS_CallInternal</text>
</a>
</g>
</g>
<!-- Node2&#45;&gt;Node3 -->
<g id="edge2" class="edge">
<title>Node2&#45;&gt;Node3</title>
<path fill="none" stroke="midnightblue" d="M269.4,-646.43C284.03,-642.96 302.58,-638.23 316,-628 352.3,-600.33 375.04,-550.64 386.2,-523.1"/>
<polygon fill="midnightblue" stroke="midnightblue" points="389.48,-524.31 389.91,-513.73 382.97,-521.73 389.48,-524.31"/>
</g>
<!-- Node3&#45;&gt;Node2 -->
<g id="edge41" class="edge">
<title>Node3&#45;&gt;Node2</title>
<path fill="none" stroke="midnightblue" d="M392.72,-513.75C386.28,-540.34 362.06,-610.89 316,-646 305.67,-653.87 292.31,-658.49 280.03,-660.6"/>
<polygon fill="midnightblue" stroke="midnightblue" points="279.56,-657.13 270.06,-661.8 280.4,-664.08 279.56,-657.13"/>
</g>
<!-- Node3&#45;&gt;Node3 -->
<g id="edge42" class="edge">
<title>Node3&#45;&gt;Node3</title>
<path fill="none" stroke="midnightblue" d="M373.61,-513.76C362.97,-522.57 370.26,-532 395.5,-532 412.06,-532 420.9,-527.94 422.01,-522.65"/>
<polygon fill="midnightblue" stroke="midnightblue" points="425.1,-521.02 417.39,-513.76 418.89,-524.24 425.1,-521.02"/>
</g>
<!-- Node4 -->
<g id="node4" class="node">
<title>Node4</title>
<g id="a_node4"><a xlink:href="quickjs_8c.html#a853f0924d441ea4225488f37c8b69f9a" target="_top" xlink:title=" ">
<polygon fill="none" stroke="black" points="639.5,-760.5 639.5,-779.5 719.5,-779.5 719.5,-760.5 639.5,-760.5"/>
<text text-anchor="middle" x="679.5" y="-767.5" font-family="Helvetica,sans-Serif" font-size="10.00">__attribute__</text>
</a>
</g>
</g>
<!-- Node3&#45;&gt;Node4 -->
<g id="edge3" class="edge">
<title>Node3&#45;&gt;Node4</title>
<path fill="none" stroke="midnightblue" d="M396.15,-513.6C395.34,-551.12 397.91,-688.9 475,-751 518.07,-785.69 584.13,-785.18 629.22,-779.48"/>
<polygon fill="midnightblue" stroke="midnightblue" points="629.93,-782.91 639.35,-778.06 628.96,-775.98 629.93,-782.91"/>
</g>
<!-- Node5 -->
<g id="node5" class="node">
<title>Node5</title>
<g id="a_node5"><a xlink:href="quickjs_8c.html#a877fcb7651d95b411ce70e62b7f4a1f0" target="_top" xlink:title=" ">
<polygon fill="none" stroke="black" points="475,-380.5 475,-399.5 600,-399.5 600,-380.5 475,-380.5"/>
<text text-anchor="middle" x="537.5" y="-387.5" font-family="Helvetica,sans-Serif" font-size="10.00">__JS_AtomFromUInt32</text>
</a>
</g>
</g>
<!-- Node3&#45;&gt;Node5 -->
<g id="edge4" class="edge">
<title>Node3&#45;&gt;Node5</title>
<path fill="none" stroke="midnightblue" d="M402.66,-494.23C414.56,-476.07 442.44,-436.9 475,-414 480.73,-409.97 487.23,-406.5 493.81,-403.54"/>
<polygon fill="midnightblue" stroke="midnightblue" points="495.51,-406.63 503.42,-399.58 492.84,-400.16 495.51,-406.63"/>
</g>
<!-- Node6 -->
<g id="node6" class="node">
<title>Node6</title>
<g id="a_node6"><a xlink:href="quickjs_8h.html#a9bf98b18de88b4199910a43e933eb97d" target="_top" xlink:title=" ">
<polygon fill="none" stroke="black" points="487.5,-342.5 487.5,-361.5 587.5,-361.5 587.5,-342.5 487.5,-342.5"/>
<text text-anchor="middle" x="537.5" y="-349.5" font-family="Helvetica,sans-Serif" font-size="10.00">__JS_NewFloat64</text>
</a>
</g>
</g>
<!-- Node3&#45;&gt;Node6 -->
<g id="edge5" class="edge">
<title>Node3&#45;&gt;Node6</title>
<path fill="none" stroke="midnightblue" d="M399.47,-494.32C407.48,-469.86 431.87,-405.07 475,-371 477.3,-369.18 479.78,-367.54 482.37,-366.05"/>
<polygon fill="midnightblue" stroke="midnightblue" points="484.09,-369.1 491.53,-361.57 481.01,-362.82 484.09,-369.1"/>
</g>
<!-- Node7 -->
<g id="node7" class="node">
<title>Node7</title>
<g id="a_node7"><a xlink:href="quickjs_8c.html#a74547db03bf739a52c83a326b32db997" target="_top" xlink:title=" ">
<polygon fill="none" stroke="red" points="639,-475.5 639,-494.5 720,-494.5 720,-475.5 639,-475.5"/>
<text text-anchor="middle" x="679.5" y="-482.5" font-family="Helvetica,sans-Serif" font-size="10.00">add_property</text>
</a>
</g>
</g>
<!-- Node3&#45;&gt;Node7 -->
<g id="edge6" class="edge">
<title>Node3&#45;&gt;Node7</title>
<path fill="none" stroke="midnightblue" d="M428.27,-494.49C442.43,-490.73 459.41,-486.86 475,-485 527.23,-478.77 587.54,-479.79 628.86,-481.73"/>
<polygon fill="midnightblue" stroke="midnightblue" points="628.78,-485.23 638.94,-482.24 629.13,-478.24 628.78,-485.23"/>
</g>
<!-- Node65 -->
<g id="node8" class="node">
<title>Node65</title>
<g id="a_node8"><a xlink:href="quickjs_8c.html#a4956f45ffd2849b96dc051277264f87a" target="_top" xlink:title=" ">
<polygon fill="none" stroke="red" points="496.5,-836.5 496.5,-855.5 578.5,-855.5 578.5,-836.5 496.5,-836.5"/>
<text text-anchor="middle" x="537.5" y="-843.5" font-family="Helvetica,sans-Serif" font-size="10.00">build_arg_list</text>
</a>
</g>
</g>
<!-- Node3&#45;&gt;Node65 -->
<g id="edge7" class="edge">
<title>Node3&#45;&gt;Node65</title>
<path fill="none" stroke="midnightblue" d="M397.57,-513.66C403.11,-562.23 430.12,-779.29 475,-827 478.41,-830.62 482.49,-833.56 486.91,-835.95"/>
<polygon fill="midnightblue" stroke="midnightblue" points="485.79,-839.27 496.35,-840.09 488.61,-832.87 485.79,-839.27"/>
</g>
<!-- Node66 -->
<g id="node9" class="node">
<title>Node66</title>
<g id="a_node9"><a xlink:href="quickjs_8c.html#ac864482356b3efc2d0b0a509fcfa4c7c" target="_top" xlink:title=" ">
<polygon fill="none" stroke="red" points="641,-912.5 641,-931.5 718,-931.5 718,-912.5 641,-912.5"/>
<text text-anchor="middle" x="679.5" y="-919.5" font-family="Helvetica,sans-Serif" font-size="10.00">free_arg_list</text>
</a>
</g>
</g>
<!-- Node3&#45;&gt;Node66 -->
<g id="edge17" class="edge">
<title>Node3&#45;&gt;Node66</title>
<path fill="none" stroke="midnightblue" d="M396.64,-513.67C397.71,-572.69 406.56,-883.76 475,-941 524.87,-982.71 607.6,-954.98 650.61,-935.84"/>
<polygon fill="midnightblue" stroke="midnightblue" points="652.28,-938.93 659.9,-931.57 649.35,-932.57 652.28,-938.93"/>
</g>
<!-- Node3&#45;&gt;Node57 -->
<g id="edge44" class="edge">
<title>Node3&#45;&gt;Node57</title>
<path fill="none" stroke="midnightblue" d="M413.4,-494.49C465.94,-466.33 628.57,-389.92 723,-466 774,-507.08 791.93,-721.41 796.33,-788.14"/>
<polygon fill="midnightblue" stroke="midnightblue" points="792.84,-788.42 796.96,-798.18 799.82,-787.98 792.84,-788.42"/>
</g>
<!-- Node3&#45;&gt;Node36 -->
<g id="edge43" class="edge">
<title>Node3&#45;&gt;Node36</title>
<path fill="none" stroke="midnightblue" d="M407.18,-513.57C421.62,-526.06 448.61,-547.87 475,-561 526.99,-586.86 549.96,-569.54 600,-599 626.03,-614.33 650.05,-639.99 664.49,-657.2"/>
<polygon fill="midnightblue" stroke="midnightblue" points="662.09,-659.8 671.13,-665.34 667.51,-655.38 662.09,-659.8"/>
</g>
<!-- Node3&#45;&gt;Node75 -->
<g id="edge45" class="edge">
<title>Node3&#45;&gt;Node75</title>
<path fill="none" stroke="midnightblue" d="M397.03,-513.66C400.12,-566.41 417.82,-818.92 475,-865 518.26,-899.86 544.84,-871.58 600,-865 612.06,-863.56 624.95,-860.92 636.72,-858.06"/>
<polygon fill="midnightblue" stroke="midnightblue" points="637.9,-861.37 646.73,-855.51 636.18,-854.58 637.9,-861.37"/>
</g>
<!-- Node161 -->
<g id="node13" class="node">
<title>Node161</title>
<g id="a_node13"><a xlink:href="quickjs_8c.html#a61c8dfb5e807af1b6ff7d8ca61576dda" target="_top" xlink:title=" ">
<polygon fill="none" stroke="red" points="490.5,-304.5 490.5,-323.5 584.5,-323.5 584.5,-304.5 490.5,-304.5"/>
<text text-anchor="middle" x="537.5" y="-311.5" font-family="Helvetica,sans-Serif" font-size="10.00">build_backtrace</text>
</a>
</g>
</g>
<!-- Node3&#45;&gt;Node161 -->
<g id="edge13" class="edge">
<title>Node3&#45;&gt;Node161</title>
<path fill="none" stroke="midnightblue" d="M398.12,-494.22C403.46,-465.15 423.18,-378.45 475,-333 476.95,-331.29 479.05,-329.74 481.26,-328.32"/>
<polygon fill="midnightblue" stroke="midnightblue" points="483.05,-331.33 490.22,-323.53 479.75,-325.16 483.05,-331.33"/>
</g>
<!-- Node248 -->
<g id="node14" class="node">
<title>Node248</title>
<g id="a_node14"><a xlink:href="quickjs_8c.html#a344894112559c2ba75043fd10bcfa02f" target="_top" xlink:title=" ">
<polygon fill="none" stroke="red" points="487,-646.5 487,-665.5 588,-665.5 588,-646.5 487,-646.5"/>
<text text-anchor="middle" x="537.5" y="-653.5" font-family="Helvetica,sans-Serif" font-size="10.00">close_lexical_var</text>
</a>
</g>
</g>
<!-- Node3&#45;&gt;Node248 -->
<g id="edge14" class="edge">
<title>Node3&#45;&gt;Node248</title>
<path fill="none" stroke="midnightblue" d="M399.47,-513.68C407.48,-538.14 431.87,-602.93 475,-637 477.3,-638.82 479.78,-640.46 482.37,-641.95"/>
<polygon fill="midnightblue" stroke="midnightblue" points="481.01,-645.18 491.53,-646.43 484.09,-638.9 481.01,-645.18"/>
</g>
<!-- Node249 -->
<g id="node15" class="node">
<title>Node249</title>
<g id="a_node15"><a xlink:href="quickjs_8c.html#a1782043fce951bd4f0d91c7796b31e24" target="_top" xlink:title=" ">
<polygon fill="none" stroke="red" points="494,-266.5 494,-285.5 581,-285.5 581,-266.5 494,-266.5"/>
<text text-anchor="middle" x="537.5" y="-273.5" font-family="Helvetica,sans-Serif" font-size="10.00">close_var_refs</text>
</a>
</g>
</g>
<!-- Node3&#45;&gt;Node249 -->
<g id="edge16" class="edge">
<title>Node3&#45;&gt;Node249</title>
<path fill="none" stroke="midnightblue" d="M397.19,-494.49C400.07,-461.73 414.06,-352.41 475,-295 477.89,-292.28 481.17,-289.94 484.66,-287.94"/>
<polygon fill="midnightblue" stroke="midnightblue" points="486.19,-291.09 493.71,-283.63 483.18,-284.77 486.19,-291.09"/>
</g>
<!-- Node54 -->
<g id="node16" class="node">
<title>Node54</title>
<g id="a_node16"><a xlink:href="quickjs_8c.html#a9e7b4bccf927d811b0f99b40b08c0472" target="_top" xlink:title=" ">
<polygon fill="none" stroke="red" points="499.5,-228.5 499.5,-247.5 575.5,-247.5 575.5,-228.5 499.5,-228.5"/>
<text text-anchor="middle" x="537.5" y="-235.5" font-family="Helvetica,sans-Serif" font-size="10.00">free_var_ref</text>
</a>
</g>
</g>
<!-- Node3&#45;&gt;Node54 -->
<g id="edge18" class="edge">
<title>Node3&#45;&gt;Node54</title>
<path fill="none" stroke="midnightblue" d="M396.56,-494.36C397.33,-457.82 405.04,-326.4 475,-257 479.22,-252.82 484.34,-249.55 489.8,-247"/>
<polygon fill="midnightblue" stroke="midnightblue" points="491.16,-250.23 499.22,-243.35 488.63,-243.7 491.16,-250.23"/>
</g>
<!-- Node251 -->
<g id="node17" class="node">
<title>Node251</title>
<g id="a_node17"><a xlink:href="cutils_8h.html#a7c82a3ee025fee89db5b11ff5b7691b8" target="_top" xlink:title=" ">
<polygon fill="none" stroke="black" points="511,-190.5 511,-209.5 564,-209.5 564,-190.5 511,-190.5"/>
<text text-anchor="middle" x="537.5" y="-197.5" font-family="Helvetica,sans-Serif" font-size="10.00">get_i16</text>
</a>
</g>
</g>
<!-- Node3&#45;&gt;Node251 -->
<g id="edge19" class="edge">
<title>Node3&#45;&gt;Node251</title>
<path fill="none" stroke="midnightblue" d="M396.08,-494.31C394.9,-454.36 395.87,-300.61 475,-219 481.93,-211.85 491.48,-207.38 500.99,-204.59"/>
<polygon fill="midnightblue" stroke="midnightblue" points="501.87,-207.97 510.77,-202.24 500.23,-201.17 501.87,-207.97"/>
</g>
<!-- Node252 -->
<g id="node18" class="node">
<title>Node252</title>
<g id="a_node18"><a xlink:href="cutils_8h.html#a288ee4e688944e23500af2ecc813c306" target="_top" xlink:title=" ">
<polygon fill="none" stroke="black" points="514,-152.5 514,-171.5 561,-171.5 561,-152.5 514,-152.5"/>
<text text-anchor="middle" x="537.5" y="-159.5" font-family="Helvetica,sans-Serif" font-size="10.00">get_i8</text>
</a>
</g>
</g>
<!-- Node3&#45;&gt;Node252 -->
<g id="edge20" class="edge">
<title>Node3&#45;&gt;Node252</title>
<path fill="none" stroke="midnightblue" d="M397.57,-494.34C403.11,-445.77 430.12,-228.71 475,-181 482.54,-172.98 493.39,-168.32 503.88,-165.62"/>
<polygon fill="midnightblue" stroke="midnightblue" points="504.62,-169.04 513.7,-163.59 503.2,-162.19 504.62,-169.04"/>
</g>
<!-- Node253 -->
<g id="node19" class="node">
<title>Node253</title>
<g id="a_node19"><a xlink:href="cutils_8h.html#ad587834d17e95461893d59661e5e9676" target="_top" xlink:title=" ">
<polygon fill="none" stroke="black" points="509.5,-114.5 509.5,-133.5 565.5,-133.5 565.5,-114.5 509.5,-114.5"/>
<text text-anchor="middle" x="537.5" y="-121.5" font-family="Helvetica,sans-Serif" font-size="10.00">get_u16</text>
</a>
</g>
</g>
<!-- Node3&#45;&gt;Node253 -->
<g id="edge21" class="edge">
<title>Node3&#45;&gt;Node253</title>
<path fill="none" stroke="midnightblue" d="M397.31,-494.27C401.81,-442.21 425.45,-196.98 475,-143 481.44,-135.99 490.4,-131.54 499.5,-128.72"/>
<polygon fill="midnightblue" stroke="midnightblue" points="500.45,-132.09 509.3,-126.26 498.75,-125.3 500.45,-132.09"/>
</g>
<!-- Node50 -->
<g id="node20" class="node">
<title>Node50</title>
<g id="a_node20"><a xlink:href="cutils_8h.html#a941262a5f72fda2ec43ae7911e97a0dc" target="_top" xlink:title=" ">
<polygon fill="none" stroke="black" points="509.5,-76.5 509.5,-95.5 565.5,-95.5 565.5,-76.5 509.5,-76.5"/>
<text text-anchor="middle" x="537.5" y="-83.5" font-family="Helvetica,sans-Serif" font-size="10.00">get_u32</text>
</a>
</g>
</g>
<!-- Node3&#45;&gt;Node50 -->
<g id="edge22" class="edge">
<title>Node3&#45;&gt;Node50</title>
<path fill="none" stroke="midnightblue" d="M397.08,-494.36C400.6,-439.33 420.69,-165.35 475,-105 481.37,-97.92 490.31,-93.45 499.4,-90.64"/>
<polygon fill="midnightblue" stroke="midnightblue" points="500.36,-94 509.22,-88.19 498.67,-87.21 500.36,-94"/>
</g>
<!-- Node254 -->
<g id="node21" class="node">
<title>Node254</title>
<g id="a_node21"><a xlink:href="quickjs_8c.html#a37fe43b6649456a848bd54846450b995" target="_top" xlink:title=" ">
<polygon fill="none" stroke="red" points="501.5,-38.5 501.5,-57.5 573.5,-57.5 573.5,-38.5 501.5,-38.5"/>
<text text-anchor="middle" x="537.5" y="-45.5" font-family="Helvetica,sans-Serif" font-size="10.00">get_var_ref</text>
</a>
</g>
</g>
<!-- Node3&#45;&gt;Node254 -->
<g id="edge23" class="edge">
<title>Node3&#45;&gt;Node254</title>
<path fill="none" stroke="midnightblue" d="M396.91,-494.22C399.56,-435.84 416,-133.67 475,-67 479.53,-61.88 485.4,-58.13 491.72,-55.37"/>
<polygon fill="midnightblue" stroke="midnightblue" points="492.93,-58.66 501.19,-52.01 490.59,-52.06 492.93,-58.66"/>
</g>
<!-- Node197 -->
<g id="node22" class="node">
<title>Node197</title>
<g id="a_node22"><a xlink:href="list_8h.html#a663527a4d757540b2177bef0db1ce5c0" target="_top" xlink:title=" ">
<polygon fill="none" stroke="black" points="496.5,-0.5 496.5,-19.5 578.5,-19.5 578.5,-0.5 496.5,-0.5"/>
<text text-anchor="middle" x="537.5" y="-7.5" font-family="Helvetica,sans-Serif" font-size="10.00">init_list_head</text>
</a>
</g>
</g>
<!-- Node3&#45;&gt;Node197 -->
<g id="edge24" class="edge">
<title>Node3&#45;&gt;Node197</title>
<path fill="none" stroke="midnightblue" d="M396.76,-494.18C398.58,-432.81 411.25,-102.05 475,-29 478.4,-25.1 482.59,-21.99 487.16,-19.51"/>
<polygon fill="midnightblue" stroke="midnightblue" points="488.58,-22.71 496.32,-15.48 485.76,-16.3 488.58,-22.71"/>
</g>
<!-- Node255 -->
<g id="node23" class="node">
<title>Node255</title>
<g id="a_node23"><a xlink:href="quickjs_8c.html#a2bb0a2ca3b8320f3ff778c65034fce49" target="_top" xlink:title=" ">
<polygon fill="none" stroke="red" points="478,-798.5 478,-817.5 597,-817.5 597,-798.5 478,-798.5"/>
<text text-anchor="middle" x="537.5" y="-805.5" font-family="Helvetica,sans-Serif" font-size="10.00">is_backtrace_needed</text>
</a>
</g>
</g>
<!-- Node3&#45;&gt;Node255 -->
<g id="edge25" class="edge">
<title>Node3&#45;&gt;Node255</title>
<path fill="none" stroke="midnightblue" d="M396.3,-513.63C396.02,-552.72 400.1,-701.31 475,-784 478.47,-787.83 482.63,-791.06 487.12,-793.77"/>
<polygon fill="midnightblue" stroke="midnightblue" points="485.59,-796.92 496.08,-798.39 488.79,-790.7 485.59,-796.92"/>
</g>
<!-- Node181 -->
<g id="node24" class="node">
<title>Node181</title>
<g id="a_node24"><a xlink:href="quickjs_8c.html#a686cf78f8b0361621ee2ba6182195c31" target="_top" xlink:title=" ">
<polygon fill="none" stroke="black" points="493.5,-608.5 493.5,-627.5 581.5,-627.5 581.5,-608.5 493.5,-608.5"/>
<text text-anchor="middle" x="537.5" y="-615.5" font-family="Helvetica,sans-Serif" font-size="10.00">is_strict_mode</text>
</a>
</g>
</g>
<!-- Node3&#45;&gt;Node181 -->
<g id="edge26" class="edge">
<title>Node3&#45;&gt;Node181</title>
<path fill="none" stroke="midnightblue" d="M402.66,-513.77C414.56,-531.93 442.44,-571.1 475,-594 480.73,-598.03 487.23,-601.5 493.81,-604.46"/>
<polygon fill="midnightblue" stroke="midnightblue" points="492.84,-607.84 503.42,-608.42 495.51,-601.37 492.84,-607.84"/>
</g>
<!-- Node257 -->
<g id="node25" class="node">
<title>Node257</title>
<g id="a_node25"><a xlink:href="quickjs_8c.html#ae8ff05447c0d51fe277baccf616dc7c6" target="_top" xlink:title=" ">
<polygon fill="none" stroke="red" points="499.5,-912.5 499.5,-931.5 575.5,-931.5 575.5,-912.5 499.5,-912.5"/>
<text text-anchor="middle" x="537.5" y="-919.5" font-family="Helvetica,sans-Serif" font-size="10.00">js_add_slow</text>
</a>
</g>
</g>
<!-- Node3&#45;&gt;Node257 -->
<g id="edge27" class="edge">
<title>Node3&#45;&gt;Node257</title>
<path fill="none" stroke="midnightblue" d="M397.2,-513.82C401.27,-568.65 423.58,-836.67 475,-898 479.11,-902.9 484.34,-906.8 490.02,-909.91"/>
<polygon fill="midnightblue" stroke="midnightblue" points="488.67,-913.14 499.22,-914.17 491.62,-906.79 488.67,-913.14"/>
</g>
<!-- Node264 -->
<g id="node26" class="node">
<title>Node264</title>
<g id="a_node26"><a xlink:href="quickjs_8c.html#a6a21784a40b8684f2e779bd460dd13b2" target="_top" xlink:title=" ">
<polygon fill="none" stroke="red" points="498.5,-532.5 498.5,-551.5 576.5,-551.5 576.5,-532.5 498.5,-532.5"/>
<text text-anchor="middle" x="537.5" y="-539.5" font-family="Helvetica,sans-Serif" font-size="10.00">JS_AddBrand</text>
</a>
</g>
</g>
<!-- Node3&#45;&gt;Node264 -->
<g id="edge30" class="edge">
<title>Node3&#45;&gt;Node264</title>
<path fill="none" stroke="midnightblue" d="M431.83,-513.59C449.9,-518.49 472.1,-524.52 491.39,-529.76"/>
<polygon fill="midnightblue" stroke="midnightblue" points="490.62,-533.17 501.18,-532.41 492.45,-526.42 490.62,-533.17"/>
</g>
<!-- Node267 -->
<g id="node27" class="node">
<title>Node267</title>
<g id="a_node27"><a xlink:href="quickjs_8c.html#a43208b0746998d2b6b9b8bd1ef8b5f99" target="_top" xlink:title=" ">
<polygon fill="none" stroke="red" points="475,-722.5 475,-741.5 600,-741.5 600,-722.5 475,-722.5"/>
<text text-anchor="middle" x="537.5" y="-729.5" font-family="Helvetica,sans-Serif" font-size="10.00">js_append_enumerate</text>
</a>
</g>
</g>
<!-- Node3&#45;&gt;Node267 -->
<g id="edge35" class="edge">
<title>Node3&#45;&gt;Node267</title>
<path fill="none" stroke="midnightblue" d="M399.42,-513.58C407.97,-540.72 434.95,-619.71 475,-675 486.35,-690.67 502.49,-705.43 515.38,-716"/>
<polygon fill="midnightblue" stroke="midnightblue" points="513.31,-718.82 523.31,-722.31 517.67,-713.35 513.31,-718.82"/>
</g>
<!-- Node98 -->
<g id="node28" class="node">
<title>Node98</title>
<g id="a_node28"><a xlink:href="quickjs_8c.html#a260bfa297ff6cb5bd18e229afaa54663" target="_top" xlink:title=" ">
<polygon fill="none" stroke="red" points="489.5,-494.5 489.5,-513.5 585.5,-513.5 585.5,-494.5 489.5,-494.5"/>
<text text-anchor="middle" x="537.5" y="-501.5" font-family="Helvetica,sans-Serif" font-size="10.00">JS_AtomToString</text>
</a>
</g>
</g>
<!-- Node3&#45;&gt;Node98 -->
<g id="edge40" class="edge">
<title>Node3&#45;&gt;Node98</title>
<path fill="none" stroke="midnightblue" d="M439.27,-504C451.82,-504 465.77,-504 479.09,-504"/>
<polygon fill="midnightblue" stroke="midnightblue" points="479.11,-507.5 489.11,-504 479.11,-500.5 479.11,-507.5"/>
</g>
<!-- Node65&#45;&gt;Node4 -->
<g id="edge8" class="edge">
<title>Node65&#45;&gt;Node4</title>
<path fill="none" stroke="midnightblue" d="M576.34,-836.45C584.35,-833.85 592.6,-830.7 600,-827 622.24,-815.87 644.94,-798.62 660.17,-786.01"/>
<polygon fill="midnightblue" stroke="midnightblue" points="662.44,-788.68 667.81,-779.55 657.92,-783.33 662.44,-788.68"/>
</g>
<!-- Node65&#45;&gt;Node66 -->
<g id="edge9" class="edge">
<title>Node65&#45;&gt;Node66</title>
<path fill="none" stroke="midnightblue" d="M556.23,-855.63C580.43,-868.76 623.98,-892.4 652.04,-907.64"/>
<polygon fill="midnightblue" stroke="midnightblue" points="650.45,-910.76 660.91,-912.45 653.79,-904.61 650.45,-910.76"/>
</g>
<!-- Node65&#45;&gt;Node36 -->
<g id="edge11" class="edge">
<title>Node65&#45;&gt;Node36</title>
<path fill="none" stroke="midnightblue" d="M578.72,-838.83C586.39,-836.08 593.92,-832.27 600,-827 628.25,-802.52 618.87,-784.22 636,-751 646.23,-731.16 658.8,-708.92 667.6,-693.66"/>
<polygon fill="midnightblue" stroke="midnightblue" points="670.79,-695.13 672.78,-684.72 664.74,-691.62 670.79,-695.13"/>
</g>
<!-- Node65&#45;&gt;Node75 -->
<g id="edge12" class="edge">
<title>Node65&#45;&gt;Node75</title>
<path fill="none" stroke="midnightblue" d="M578.62,-846C593.33,-846 610.22,-846 625.86,-846"/>
<polygon fill="midnightblue" stroke="midnightblue" points="625.93,-849.5 635.93,-846 625.93,-842.5 625.93,-849.5"/>
</g>
<!-- Node66&#45;&gt;Node57 -->
<g id="edge10" class="edge">
<title>Node66&#45;&gt;Node57</title>
<path fill="none" stroke="midnightblue" d="M700.94,-912.42C708.28,-908.48 716.37,-903.55 723,-898 748.65,-876.54 772.17,-845.39 785.65,-825.93"/>
<polygon fill="midnightblue" stroke="midnightblue" points="788.55,-827.89 791.28,-817.65 782.76,-823.96 788.55,-827.89"/>
</g>
<!-- Node248&#45;&gt;Node36 -->
<g id="edge15" class="edge">
<title>Node248&#45;&gt;Node36</title>
<path fill="none" stroke="midnightblue" d="M588.25,-662.75C602.03,-664.62 616.96,-666.65 630.62,-668.5"/>
<polygon fill="midnightblue" stroke="midnightblue" points="630.41,-672.01 640.79,-669.88 631.35,-665.07 630.41,-672.01"/>
</g>
<!-- Node257&#45;&gt;Node57 -->
<g id="edge28" class="edge">
<title>Node257&#45;&gt;Node57</title>
<path fill="none" stroke="midnightblue" d="M575.69,-914.58C614.05,-906.01 674.89,-889.83 723,-865 744.05,-854.14 765.23,-837.22 779.6,-824.63"/>
<polygon fill="midnightblue" stroke="midnightblue" points="782.11,-827.08 787.22,-817.8 777.43,-821.87 782.11,-827.08"/>
</g>
<!-- Node257&#45;&gt;Node75 -->
<g id="edge29" class="edge">
<title>Node257&#45;&gt;Node75</title>
<path fill="none" stroke="midnightblue" d="M568.08,-912.43C578.47,-908.56 590.03,-903.66 600,-898 617.63,-887.99 619.13,-881.24 636,-870 640.76,-866.83 645.97,-863.66 651.05,-860.72"/>
<polygon fill="midnightblue" stroke="midnightblue" points="652.95,-863.66 659.95,-855.7 649.52,-857.56 652.95,-863.66"/>
</g>
<!-- Node264&#45;&gt;Node7 -->
<g id="edge31" class="edge">
<title>Node264&#45;&gt;Node7</title>
<path fill="none" stroke="midnightblue" d="M572.65,-532.45C581.64,-529.67 591.27,-526.44 600,-523 617.57,-516.08 636.64,-506.89 651.59,-499.28"/>
<polygon fill="midnightblue" stroke="midnightblue" points="653.48,-502.24 660.76,-494.54 650.27,-496.02 653.48,-502.24"/>
</g>
<!-- Node264&#45;&gt;Node57 -->
<g id="edge33" class="edge">
<title>Node264&#45;&gt;Node57</title>
<path fill="none" stroke="midnightblue" d="M576.82,-548.59C584.71,-550.7 592.81,-553.45 600,-557 662.93,-588.06 679.18,-601.19 723,-656 756.67,-698.11 780.34,-757.93 791.06,-788.45"/>
<polygon fill="midnightblue" stroke="midnightblue" points="787.87,-789.95 794.41,-798.28 794.49,-787.69 787.87,-789.95"/>
</g>
<!-- Node264&#45;&gt;Node36 -->
<g id="edge32" class="edge">
<title>Node264&#45;&gt;Node36</title>
<path fill="none" stroke="midnightblue" d="M573.22,-551.58C582.49,-555.16 592.12,-559.89 600,-566 632.09,-590.88 656.85,-632.34 669.4,-656.32"/>
<polygon fill="midnightblue" stroke="midnightblue" points="666.37,-658.09 674.01,-665.42 672.61,-654.92 666.37,-658.09"/>
</g>
<!-- Node264&#45;&gt;Node75 -->
<g id="edge34" class="edge">
<title>Node264&#45;&gt;Node75</title>
<path fill="none" stroke="midnightblue" d="M553.47,-551.63C567.78,-561.66 588.8,-578.75 600,-599 641.6,-674.21 601.43,-710.31 636,-789 642.43,-803.62 653.21,-818.03 662.31,-828.7"/>
<polygon fill="midnightblue" stroke="midnightblue" points="659.88,-831.23 669.13,-836.39 665.12,-826.58 659.88,-831.23"/>
</g>
<!-- Node267&#45;&gt;Node4 -->
<g id="edge36" class="edge">
<title>Node267&#45;&gt;Node4</title>
<path fill="none" stroke="midnightblue" d="M573.83,-741.59C591.9,-746.49 614.1,-752.52 633.39,-757.76"/>
<polygon fill="midnightblue" stroke="midnightblue" points="632.62,-761.17 643.18,-760.41 634.45,-754.42 632.62,-761.17"/>
</g>
<!-- Node267&#45;&gt;Node57 -->
<g id="edge38" class="edge">
<title>Node267&#45;&gt;Node57</title>
<path fill="none" stroke="midnightblue" d="M600.31,-730.05C637.12,-730.9 684.09,-735.56 723,-751 745.52,-759.94 767.03,-777.74 781.1,-791.09"/>
<polygon fill="midnightblue" stroke="midnightblue" points="778.88,-793.82 788.47,-798.33 783.79,-788.82 778.88,-793.82"/>
</g>
<!-- Node267&#45;&gt;Node36 -->
<g id="edge37" class="edge">
<title>Node267&#45;&gt;Node36</title>
<path fill="none" stroke="midnightblue" d="M563.39,-722.45C574.61,-718.11 588,-712.86 600,-708 615.47,-701.73 632.57,-694.57 646.85,-688.52"/>
<polygon fill="midnightblue" stroke="midnightblue" points="648.39,-691.67 656.23,-684.54 645.66,-685.23 648.39,-691.67"/>
</g>
<!-- Node267&#45;&gt;Node75 -->
<g id="edge39" class="edge">
<title>Node267&#45;&gt;Node75</title>
<path fill="none" stroke="midnightblue" d="M550.44,-741.72C574.51,-761.32 629.1,-805.77 658.63,-829.82"/>
<polygon fill="midnightblue" stroke="midnightblue" points="656.63,-832.7 666.59,-836.31 661.05,-827.28 656.63,-832.7"/>
</g>
</g>
</svg>
        <g id="navigator" transform="translate(0 0)" fill="#404254">
                <rect fill="#f2f5e9" fill-opacity="0.5" stroke="#606060" stroke-width=".5" x="0" y="0" width="60" height="60"/>
                <use id="zoomplus" xlink:href="#zoomPlus" x="17" y="9" onmousedown="handleZoom(evt,'in')"/>
                <use id="zoomminus" xlink:href="#zoomMin" x="42" y="9" onmousedown="handleZoom(evt,'out')"/>
                <use id="reset" xlink:href="#resetDef" x="30" y="36" onmousedown="handleReset()"/>
                <g id="arrowUp" xlink:href="#dirArrow" transform="translate(30 24)" onmousedown="handlePan(0,-1)">
                  <use xlink:href="#rim" fill="#404040">
                        <set attributeName="fill" to="#808080" begin="arrowUp.mouseover" end="arrowUp.mouseout"/>
                  </use>
                  <path fill="none" stroke="white" stroke-width="1.5" d="M0,-3.0v7 M-2.5,-0.5L0,-3.0L2.5,-0.5"/>
                </g>
                <g id="arrowRight" xlink:href="#dirArrow" transform="rotate(90) translate(36 -43)" onmousedown="handlePan(1,0)">
                  <use xlink:href="#rim" fill="#404040">
                        <set attributeName="fill" to="#808080" begin="arrowRight.mouseover" end="arrowRight.mouseout"/>
                  </use>
                  <path fill="none" stroke="white" stroke-width="1.5" d="M0,-3.0v7 M-2.5,-0.5L0,-3.0L2.5,-0.5"/>
                </g>
                <g id="arrowDown" xlink:href="#dirArrow" transform="rotate(180) translate(-30 -48)" onmousedown="handlePan(0,1)">
                  <use xlink:href="#rim" fill="#404040">
                        <set attributeName="fill" to="#808080" begin="arrowDown.mouseover" end="arrowDown.mouseout"/>
                  </use>
                  <path fill="none" stroke="white" stroke-width="1.5" d="M0,-3.0v7 M-2.5,-0.5L0,-3.0L2.5,-0.5"/>
                </g>
                <g id="arrowLeft" xlink:href="#dirArrow" transform="rotate(270) translate(-36 17)" onmousedown="handlePan(-1,0)">
                  <use xlink:href="#rim" fill="#404040">
                        <set attributeName="fill" to="#808080" begin="arrowLeft.mouseover" end="arrowLeft.mouseout"/>
                  </use>
                  <path fill="none" stroke="white" stroke-width="1.5" d="M0,-3.0v7 M-2.5,-0.5L0,-3.0L2.5,-0.5"/>
                </g>
        </g>
        <svg viewBox="0 0 15 15" width="100%" height="30px" preserveAspectRatio="xMaxYMin meet">
         <g id="arrow_out" transform="scale(0.3 0.3)">
          <a xlink:href="quickjs_8c_a2355fabf91f59212ea65baba1b0b7c1b_cgraph_org.svg" target="_base">
           <rect id="button" ry="5" rx="5" y="6" x="6" height="38" width="38"
                fill="#f2f5e9" fill-opacity="0.5" stroke="#606060" stroke-width="1.0"/>
           <path id="arrow"
             d="M 11.500037,31.436501 C 11.940474,20.09759 22.043105,11.32322 32.158766,21.979434 L 37.068811,17.246167 C 37.068811,17.246167 37.088388,32 37.088388,32 L 22.160133,31.978069 C 22.160133,31.978069 26.997745,27.140456 26.997745,27.140456 C 18.528582,18.264221 13.291696,25.230495 11.500037,31.436501 z"
             style="fill:#404040;"/>
          </a>
         </g>
        </svg>
</svg>
