<?xml version="1.0" encoding="UTF-8" standalone="no"?>
<!DOCTYPE svg PUBLIC "-//W3C//DTD SVG 1.1//EN"
 "http://www.w3.org/Graphics/SVG/1.1/DTD/svg11.dtd">
<!-- Generated by graphviz version 2.43.0 (0)
 -->
<!-- Title: expand_fast_array Pages: 1 -->
<svg width="878pt" height="180pt"
 viewBox="0.00 0.00 878.00 180.00" xmlns="http://www.w3.org/2000/svg" xmlns:xlink="http://www.w3.org/1999/xlink">
<g id="graph0" class="graph" transform="scale(1 1) rotate(0) translate(4 176)">
<title>expand_fast_array</title>
<!-- Node1 -->
<g id="node1" class="node">
<title>Node1</title>
<g id="a_node1"><a xlink:title=" ">
<polygon fill="#bfbfbf" stroke="black" points="763,-19.5 763,-38.5 870,-38.5 870,-19.5 763,-19.5"/>
<text text-anchor="middle" x="816.5" y="-26.5" font-family="Helvetica,sans-Serif" font-size="10.00">expand_fast_array</text>
</a>
</g>
</g>
<!-- Node2 -->
<g id="node2" class="node">
<title>Node2</title>
<g id="a_node2"><a xlink:href="quickjs_8c.html#adbffd820afae76d09c641b5b911e3600" target="_top" xlink:title=" ">
<polygon fill="none" stroke="black" points="592,-38.5 592,-57.5 727,-57.5 727,-38.5 592,-38.5"/>
<text text-anchor="middle" x="659.5" y="-45.5" font-family="Helvetica,sans-Serif" font-size="10.00">add_fast_array_element</text>
</a>
</g>
</g>
<!-- Node1&#45;&gt;Node2 -->
<g id="edge1" class="edge">
<title>Node1&#45;&gt;Node2</title>
<path fill="none" stroke="midnightblue" d="M752.53,-36.72C744.17,-37.74 735.57,-38.8 727.15,-39.83"/>
<polygon fill="midnightblue" stroke="midnightblue" points="753.09,-40.18 762.59,-35.49 752.24,-33.23 753.09,-40.18"/>
</g>
<!-- Node139 -->
<g id="node8" class="node">
<title>Node139</title>
<g id="a_node8"><a xlink:href="quickjs_8c.html#a3d640b89712ebda808c0c3eca9849674" target="_top" xlink:title=" ">
<polygon fill="none" stroke="red" points="617.5,-0.5 617.5,-19.5 701.5,-19.5 701.5,-0.5 617.5,-0.5"/>
<text text-anchor="middle" x="659.5" y="-7.5" font-family="Helvetica,sans-Serif" font-size="10.00">js_array_push</text>
</a>
</g>
</g>
<!-- Node1&#45;&gt;Node139 -->
<g id="edge13" class="edge">
<title>Node1&#45;&gt;Node139</title>
<path fill="none" stroke="midnightblue" d="M752.19,-21.24C735.24,-19.16 717.35,-16.97 701.92,-15.08"/>
<polygon fill="midnightblue" stroke="midnightblue" points="752.24,-24.77 762.59,-22.51 753.09,-17.82 752.24,-24.77"/>
</g>
<!-- Node3 -->
<g id="node3" class="node">
<title>Node3</title>
<g id="a_node3"><a xlink:href="quickjs_8c.html#ad5565bb5cfd5321f181573257f3b0c91" target="_top" xlink:title=" ">
<polygon fill="none" stroke="black" points="452,-95.5 452,-114.5 556,-114.5 556,-95.5 452,-95.5"/>
<text text-anchor="middle" x="504" y="-102.5" font-family="Helvetica,sans-Serif" font-size="10.00">JS_CreateProperty</text>
</a>
</g>
</g>
<!-- Node2&#45;&gt;Node3 -->
<g id="edge2" class="edge">
<title>Node2&#45;&gt;Node3</title>
<path fill="none" stroke="midnightblue" d="M623.31,-61.07C595.1,-71.54 556.15,-86.01 530.78,-95.43"/>
<polygon fill="midnightblue" stroke="midnightblue" points="624.65,-64.3 632.81,-57.54 622.21,-57.74 624.65,-64.3"/>
</g>
<!-- Node132 -->
<g id="node6" class="node">
<title>Node132</title>
<g id="a_node6"><a xlink:href="quickjs_8c.html#ad7f03358a8088ca920ab308225c6b2e6" target="_top" xlink:title=" ">
<polygon fill="none" stroke="red" points="151,-76.5 151,-95.5 276,-95.5 276,-76.5 151,-76.5"/>
<text text-anchor="middle" x="213.5" y="-83.5" font-family="Helvetica,sans-Serif" font-size="10.00">JS_SetPropertyInternal</text>
</a>
</g>
</g>
<!-- Node2&#45;&gt;Node132 -->
<g id="edge11" class="edge">
<title>Node2&#45;&gt;Node132</title>
<path fill="none" stroke="midnightblue" d="M581.52,-54.59C494.94,-62 356.05,-73.89 276.26,-80.71"/>
<polygon fill="midnightblue" stroke="midnightblue" points="581.88,-58.07 591.55,-53.73 581.29,-51.1 581.88,-58.07"/>
</g>
<!-- Node165 -->
<g id="node7" class="node">
<title>Node165</title>
<g id="a_node7"><a xlink:href="quickjs_8c.html#aee75cc1546e19479e3ccda58f3b50a96" target="_top" xlink:title=" ">
<polygon fill="none" stroke="red" points="0,-76.5 0,-95.5 115,-95.5 115,-76.5 0,-76.5"/>
<text text-anchor="middle" x="57.5" y="-83.5" font-family="Helvetica,sans-Serif" font-size="10.00">JS_SetPropertyValue</text>
</a>
</g>
</g>
<!-- Node2&#45;&gt;Node165 -->
<g id="edge12" class="edge">
<title>Node2&#45;&gt;Node165</title>
<path fill="none" stroke="midnightblue" d="M581.4,-46.65C481.64,-45.87 302.64,-47.76 151,-67 133.6,-69.21 114.58,-72.89 98.34,-76.43"/>
<polygon fill="midnightblue" stroke="midnightblue" points="581.66,-50.15 591.69,-46.74 581.72,-43.15 581.66,-50.15"/>
</g>
<!-- Node4 -->
<g id="node4" class="node">
<title>Node4</title>
<g id="a_node4"><a xlink:href="quickjs_8c.html#ab50618f1bf78e444caa6da0e3e2785d7" target="_top" xlink:title=" ">
<polygon fill="none" stroke="red" points="312,-114.5 312,-133.5 416,-133.5 416,-114.5 312,-114.5"/>
<text text-anchor="middle" x="364" y="-121.5" font-family="Helvetica,sans-Serif" font-size="10.00">JS_DefineProperty</text>
</a>
</g>
</g>
<!-- Node3&#45;&gt;Node4 -->
<g id="edge3" class="edge">
<title>Node3&#45;&gt;Node4</title>
<path fill="none" stroke="midnightblue" d="M441.5,-113.47C433.13,-114.62 424.6,-115.79 416.43,-116.92"/>
<polygon fill="midnightblue" stroke="midnightblue" points="442.18,-116.91 451.61,-112.07 441.23,-109.97 442.18,-116.91"/>
</g>
<!-- Node129 -->
<g id="node5" class="node">
<title>Node129</title>
<g id="a_node5"><a xlink:href="quickjs_8c.html#a3d5eeb3c1fed80d35e4e9e14b9cb15b8" target="_top" xlink:title=" ">
<polygon fill="none" stroke="red" points="151,-152.5 151,-171.5 276,-171.5 276,-152.5 151,-152.5"/>
<text text-anchor="middle" x="213.5" y="-159.5" font-family="Helvetica,sans-Serif" font-size="10.00">JS_SetPropertyGeneric</text>
</a>
</g>
</g>
<!-- Node3&#45;&gt;Node129 -->
<g id="edge9" class="edge">
<title>Node3&#45;&gt;Node129</title>
<path fill="none" stroke="midnightblue" d="M476.39,-119.26C459.56,-127.61 437.08,-137.55 416,-143 370.07,-154.87 316.55,-159.5 276.21,-161.23"/>
<polygon fill="midnightblue" stroke="midnightblue" points="478.27,-122.23 485.6,-114.58 475.1,-116 478.27,-122.23"/>
</g>
<!-- Node3&#45;&gt;Node132 -->
<g id="edge10" class="edge">
<title>Node3&#45;&gt;Node132</title>
<path fill="none" stroke="midnightblue" d="M441.65,-100.96C392.85,-97.75 324.89,-93.27 276.04,-90.05"/>
<polygon fill="midnightblue" stroke="midnightblue" points="441.55,-104.46 451.75,-101.63 442.01,-97.48 441.55,-104.46"/>
</g>
<!-- Node4&#45;&gt;Node129 -->
<g id="edge4" class="edge">
<title>Node4&#45;&gt;Node129</title>
<path fill="none" stroke="midnightblue" d="M315.67,-136.11C294.99,-141.4 271.08,-147.52 251.7,-152.48"/>
<polygon fill="midnightblue" stroke="midnightblue" points="316.71,-139.46 325.53,-133.59 314.97,-132.68 316.71,-139.46"/>
</g>
<!-- Node4&#45;&gt;Node132 -->
<g id="edge5" class="edge">
<title>Node4&#45;&gt;Node132</title>
<path fill="none" stroke="midnightblue" d="M315.67,-111.89C294.99,-106.6 271.08,-100.48 251.7,-95.52"/>
<polygon fill="midnightblue" stroke="midnightblue" points="314.97,-115.32 325.53,-114.41 316.71,-108.54 314.97,-115.32"/>
</g>
<!-- Node132&#45;&gt;Node165 -->
<g id="edge6" class="edge">
<title>Node132&#45;&gt;Node165</title>
<path fill="none" stroke="midnightblue" d="M140.5,-79.26C132.03,-79.22 123.49,-79.29 115.28,-79.46"/>
<polygon fill="midnightblue" stroke="midnightblue" points="140.71,-82.77 150.75,-79.37 140.79,-75.77 140.71,-82.77"/>
</g>
<!-- Node165&#45;&gt;Node4 -->
<g id="edge7" class="edge">
<title>Node165&#45;&gt;Node4</title>
<path fill="none" stroke="midnightblue" d="M109.75,-97.6C123.12,-100.34 137.56,-103.02 151,-105 205.66,-113.04 268.78,-118.17 311.83,-121.04"/>
<polygon fill="midnightblue" stroke="midnightblue" points="110.27,-94.14 99.76,-95.52 108.84,-100.99 110.27,-94.14"/>
</g>
<!-- Node165&#45;&gt;Node132 -->
<g id="edge8" class="edge">
<title>Node165&#45;&gt;Node132</title>
<path fill="none" stroke="midnightblue" d="M125.43,-92.7C133.84,-92.79 142.42,-92.76 150.75,-92.63"/>
<polygon fill="midnightblue" stroke="midnightblue" points="125.33,-89.2 115.28,-92.54 125.22,-96.2 125.33,-89.2"/>
</g>
</g>
</svg>
