<?xml version="1.0" encoding="UTF-8" standalone="no"?>
<!DOCTYPE svg PUBLIC "-//W3C//DTD SVG 1.1//EN"
 "http://www.w3.org/Graphics/SVG/1.1/DTD/svg11.dtd">
<!-- Generated by graphviz version 2.43.0 (0)
 -->
<!-- Title: js_typed_array_indexOf Pages: 1 -->
<svg width="758pt" height="306pt"
 viewBox="0.00 0.00 758.00 306.00" xmlns="http://www.w3.org/2000/svg" xmlns:xlink="http://www.w3.org/1999/xlink">
<g id="graph0" class="graph" transform="scale(1 1) rotate(0) translate(4 302)">
<title>js_typed_array_indexOf</title>
<!-- Node1 -->
<g id="node1" class="node">
<title>Node1</title>
<g id="a_node1"><a xlink:title=" ">
<polygon fill="#bfbfbf" stroke="black" points="0,-164.5 0,-183.5 132,-183.5 132,-164.5 0,-164.5"/>
<text text-anchor="middle" x="66" y="-171.5" font-family="Helvetica,sans-Serif" font-size="10.00">js_typed_array_indexOf</text>
</a>
</g>
</g>
<!-- Node2 -->
<g id="node2" class="node">
<title>Node2</title>
<g id="a_node2"><a xlink:href="quickjs_8h.html#a4e407128a9605afb77523e49e9a627fd" target="_top" xlink:title=" ">
<polygon fill="none" stroke="black" points="178.5,-278.5 178.5,-297.5 267.5,-297.5 267.5,-278.5 178.5,-278.5"/>
<text text-anchor="middle" x="223" y="-285.5" font-family="Helvetica,sans-Serif" font-size="10.00">JS_IsUndefined</text>
</a>
</g>
</g>
<!-- Node1&#45;&gt;Node2 -->
<g id="edge1" class="edge">
<title>Node1&#45;&gt;Node2</title>
<path fill="none" stroke="midnightblue" d="M74.88,-183.75C90.67,-202.69 128.1,-244.73 168,-269 171.34,-271.03 174.94,-272.89 178.62,-274.58"/>
<polygon fill="midnightblue" stroke="midnightblue" points="177.31,-277.82 187.89,-278.43 179.99,-271.36 177.31,-277.82"/>
</g>
<!-- Node3 -->
<g id="node3" class="node">
<title>Node3</title>
<g id="a_node3"><a xlink:href="quickjs_8h.html#a93abffa925714e249a6aa2f4ae7900f6" target="_top" xlink:title=" ">
<polygon fill="none" stroke="black" points="186,-240.5 186,-259.5 260,-259.5 260,-240.5 186,-240.5"/>
<text text-anchor="middle" x="223" y="-247.5" font-family="Helvetica,sans-Serif" font-size="10.00">JS_NewBool</text>
</a>
</g>
</g>
<!-- Node1&#45;&gt;Node3 -->
<g id="edge2" class="edge">
<title>Node1&#45;&gt;Node3</title>
<path fill="none" stroke="midnightblue" d="M81.96,-183.55C101.31,-195.63 136.28,-216.6 168,-231 172.63,-233.1 177.57,-235.12 182.51,-237.01"/>
<polygon fill="midnightblue" stroke="midnightblue" points="181.33,-240.31 191.92,-240.47 183.74,-233.74 181.33,-240.31"/>
</g>
<!-- Node4 -->
<g id="node4" class="node">
<title>Node4</title>
<g id="a_node4"><a xlink:href="quickjs_8h.html#a2050bc428da1c65ac7eb87c3fa3b0392" target="_top" xlink:title=" ">
<polygon fill="none" stroke="black" points="184.5,-202.5 184.5,-221.5 261.5,-221.5 261.5,-202.5 184.5,-202.5"/>
<text text-anchor="middle" x="223" y="-209.5" font-family="Helvetica,sans-Serif" font-size="10.00">JS_NewInt32</text>
</a>
</g>
</g>
<!-- Node1&#45;&gt;Node4 -->
<g id="edge3" class="edge">
<title>Node1&#45;&gt;Node4</title>
<path fill="none" stroke="midnightblue" d="M106.11,-183.59C126.88,-188.68 152.56,-194.98 174.47,-200.35"/>
<polygon fill="midnightblue" stroke="midnightblue" points="173.69,-203.76 184.24,-202.74 175.36,-196.96 173.69,-203.76"/>
</g>
<!-- Node5 -->
<g id="node5" class="node">
<title>Node5</title>
<g id="a_node5"><a xlink:href="quickjs_8c.html#a8cc9386cd04cfa067d0c6bf588c6bb58" target="_top" xlink:title=" ">
<polygon fill="none" stroke="black" points="184,-164.5 184,-183.5 262,-183.5 262,-164.5 184,-164.5"/>
<text text-anchor="middle" x="223" y="-171.5" font-family="Helvetica,sans-Serif" font-size="10.00">JS_ToFloat64</text>
</a>
</g>
</g>
<!-- Node1&#45;&gt;Node5 -->
<g id="edge4" class="edge">
<title>Node1&#45;&gt;Node5</title>
<path fill="none" stroke="midnightblue" d="M132.28,-174C146.12,-174 160.5,-174 173.58,-174"/>
<polygon fill="midnightblue" stroke="midnightblue" points="173.76,-177.5 183.76,-174 173.76,-170.5 173.76,-177.5"/>
</g>
<!-- Node437 -->
<g id="node11" class="node">
<title>Node437</title>
<g id="a_node11"><a xlink:href="quickjs_8c.html#a6d4699bf179372379572ec9039e5ec00" target="_top" xlink:title=" ">
<polygon fill="none" stroke="black" points="174,-126.5 174,-145.5 272,-145.5 272,-126.5 174,-126.5"/>
<text text-anchor="middle" x="223" y="-133.5" font-family="Helvetica,sans-Serif" font-size="10.00">JS_ToInt32Clamp</text>
</a>
</g>
</g>
<!-- Node1&#45;&gt;Node437 -->
<g id="edge10" class="edge">
<title>Node1&#45;&gt;Node437</title>
<path fill="none" stroke="midnightblue" d="M106.11,-164.41C126.47,-159.42 151.57,-153.27 173.19,-147.97"/>
<polygon fill="midnightblue" stroke="midnightblue" points="174.29,-151.3 183.17,-145.52 172.62,-144.5 174.29,-151.3"/>
</g>
<!-- Node439 -->
<g id="node13" class="node">
<title>Node439</title>
<g id="a_node13"><a xlink:href="quickjs_8c.html#add71c7e0efcb1fd14572d39e2672971d" target="_top" xlink:title=" ">
<polygon fill="none" stroke="black" points="168,-68 168,-98 278,-98 278,-68 168,-68"/>
<text text-anchor="start" x="176" y="-86" font-family="Helvetica,sans-Serif" font-size="10.00">js_typed_array_get</text>
<text text-anchor="middle" x="223" y="-75" font-family="Helvetica,sans-Serif" font-size="10.00">_length_internal</text>
</a>
</g>
</g>
<!-- Node1&#45;&gt;Node439 -->
<g id="edge15" class="edge">
<title>Node1&#45;&gt;Node439</title>
<path fill="none" stroke="midnightblue" d="M83.29,-164.43C107.88,-150 155.01,-122.33 187.46,-103.28"/>
<polygon fill="midnightblue" stroke="midnightblue" points="189.34,-106.23 196.19,-98.15 185.8,-100.2 189.34,-106.23"/>
</g>
<!-- Node273 -->
<g id="node16" class="node">
<title>Node273</title>
<g id="a_node16"><a xlink:href="quickjs_8c.html#a869fa88a646c0a1914ec2e559b193b5c" target="_top" xlink:title=" ">
<polygon fill="none" stroke="black" points="321,-0.5 321,-19.5 460,-19.5 460,-0.5 321,-0.5"/>
<text text-anchor="middle" x="390.5" y="-7.5" font-family="Helvetica,sans-Serif" font-size="10.00">typed_array_is_detached</text>
</a>
</g>
</g>
<!-- Node1&#45;&gt;Node273 -->
<g id="edge19" class="edge">
<title>Node1&#45;&gt;Node273</title>
<path fill="none" stroke="midnightblue" d="M72.42,-164.45C85.62,-142.13 121.79,-86.32 168,-59 211.17,-33.48 266.19,-21.22 310.6,-15.35"/>
<polygon fill="midnightblue" stroke="midnightblue" points="311.28,-18.79 320.77,-14.09 310.42,-11.85 311.28,-18.79"/>
</g>
<!-- Node6 -->
<g id="node6" class="node">
<title>Node6</title>
<g id="a_node6"><a xlink:href="quickjs_8h.html#a775522f2d084fc8fa0fcb33f390006b4" target="_top" xlink:title=" ">
<polygon fill="none" stroke="black" points="352,-164.5 352,-183.5 429,-183.5 429,-164.5 352,-164.5"/>
<text text-anchor="middle" x="390.5" y="-171.5" font-family="Helvetica,sans-Serif" font-size="10.00">JS_DupValue</text>
</a>
</g>
</g>
<!-- Node5&#45;&gt;Node6 -->
<g id="edge5" class="edge">
<title>Node5&#45;&gt;Node6</title>
<path fill="none" stroke="midnightblue" d="M262.39,-174C286.05,-174 316.59,-174 341.81,-174"/>
<polygon fill="midnightblue" stroke="midnightblue" points="341.89,-177.5 351.89,-174 341.89,-170.5 341.89,-177.5"/>
</g>
<!-- Node7 -->
<g id="node7" class="node">
<title>Node7</title>
<g id="a_node7"><a xlink:href="quickjs_8c.html#ab1b614ef35f1cea05da0ad4927c53118" target="_top" xlink:title=" ">
<polygon fill="none" stroke="black" points="341,-202.5 341,-221.5 440,-221.5 440,-202.5 341,-202.5"/>
<text text-anchor="middle" x="390.5" y="-209.5" font-family="Helvetica,sans-Serif" font-size="10.00">JS_ToFloat64Free</text>
</a>
</g>
</g>
<!-- Node5&#45;&gt;Node7 -->
<g id="edge6" class="edge">
<title>Node5&#45;&gt;Node7</title>
<path fill="none" stroke="midnightblue" d="M262.39,-182.81C284.88,-187.98 313.58,-194.57 338.01,-200.18"/>
<polygon fill="midnightblue" stroke="midnightblue" points="337.31,-203.61 347.84,-202.44 338.88,-196.79 337.31,-203.61"/>
</g>
<!-- Node8 -->
<g id="node8" class="node">
<title>Node8</title>
<g id="a_node8"><a xlink:href="quickjs_8c.html#a9a2e141f21d9ea38a3a23c9b4eb6e356" target="_top" xlink:title=" ">
<polygon fill="none" stroke="black" points="503,-183.5 503,-202.5 613,-202.5 613,-183.5 503,-183.5"/>
<text text-anchor="middle" x="558" y="-190.5" font-family="Helvetica,sans-Serif" font-size="10.00">__JS_ToFloat64Free</text>
</a>
</g>
</g>
<!-- Node7&#45;&gt;Node8 -->
<g id="edge7" class="edge">
<title>Node7&#45;&gt;Node8</title>
<path fill="none" stroke="midnightblue" d="M440.26,-206.4C456.68,-204.52 475.26,-202.38 492.69,-200.38"/>
<polygon fill="midnightblue" stroke="midnightblue" points="493.26,-203.84 502.79,-199.22 492.46,-196.89 493.26,-203.84"/>
</g>
<!-- Node9 -->
<g id="node9" class="node">
<title>Node9</title>
<g id="a_node9"><a xlink:href="quickjs_8h.html#ad80a83d73e9b7d872b88fbf2943aebe9" target="_top" xlink:title=" ">
<polygon fill="none" stroke="black" points="656,-183.5 656,-202.5 743,-202.5 743,-183.5 656,-183.5"/>
<text text-anchor="middle" x="699.5" y="-190.5" font-family="Helvetica,sans-Serif" font-size="10.00">JS_IsException</text>
</a>
</g>
</g>
<!-- Node8&#45;&gt;Node9 -->
<g id="edge8" class="edge">
<title>Node8&#45;&gt;Node9</title>
<path fill="none" stroke="midnightblue" d="M613.33,-193C623.89,-193 634.94,-193 645.46,-193"/>
<polygon fill="midnightblue" stroke="midnightblue" points="645.76,-196.5 655.76,-193 645.76,-189.5 645.76,-196.5"/>
</g>
<!-- Node10 -->
<g id="node10" class="node">
<title>Node10</title>
<g id="a_node10"><a xlink:href="quickjs_8c.html#ae738291483438efefca5c9fa4d269504" target="_top" xlink:title=" ">
<polygon fill="none" stroke="red" points="649,-145.5 649,-164.5 750,-164.5 750,-145.5 649,-145.5"/>
<text text-anchor="middle" x="699.5" y="-152.5" font-family="Helvetica,sans-Serif" font-size="10.00">JS_ToNumberFree</text>
</a>
</g>
</g>
<!-- Node8&#45;&gt;Node10 -->
<g id="edge9" class="edge">
<title>Node8&#45;&gt;Node10</title>
<path fill="none" stroke="midnightblue" d="M594.2,-183.41C612.21,-178.51 634.33,-172.48 653.56,-167.24"/>
<polygon fill="midnightblue" stroke="midnightblue" points="654.58,-170.59 663.31,-164.59 652.74,-163.84 654.58,-170.59"/>
</g>
<!-- Node437&#45;&gt;Node6 -->
<g id="edge11" class="edge">
<title>Node437&#45;&gt;Node6</title>
<path fill="none" stroke="midnightblue" d="M265.76,-145.59C288.97,-150.92 317.94,-157.57 342.01,-163.1"/>
<polygon fill="midnightblue" stroke="midnightblue" points="341.46,-166.56 351.99,-165.39 343.03,-159.74 341.46,-166.56"/>
</g>
<!-- Node438 -->
<g id="node12" class="node">
<title>Node438</title>
<g id="a_node12"><a xlink:href="quickjs_8c.html#a419bec82cb80e98e08626a9a5212ec4c" target="_top" xlink:title=" ">
<polygon fill="none" stroke="black" points="506.5,-145.5 506.5,-164.5 609.5,-164.5 609.5,-145.5 506.5,-145.5"/>
<text text-anchor="middle" x="558" y="-152.5" font-family="Helvetica,sans-Serif" font-size="10.00">JS_ToInt32SatFree</text>
</a>
</g>
</g>
<!-- Node437&#45;&gt;Node438 -->
<g id="edge12" class="edge">
<title>Node437&#45;&gt;Node438</title>
<path fill="none" stroke="midnightblue" d="M272.07,-138.74C331.31,-142.12 432.02,-147.87 496.47,-151.55"/>
<polygon fill="midnightblue" stroke="midnightblue" points="496.31,-155.04 506.49,-152.12 496.71,-148.05 496.31,-155.04"/>
</g>
<!-- Node438&#45;&gt;Node9 -->
<g id="edge13" class="edge">
<title>Node438&#45;&gt;Node9</title>
<path fill="none" stroke="midnightblue" d="M594.2,-164.59C612.21,-169.49 634.33,-175.52 653.56,-180.76"/>
<polygon fill="midnightblue" stroke="midnightblue" points="652.74,-184.16 663.31,-183.41 654.58,-177.41 652.74,-184.16"/>
</g>
<!-- Node438&#45;&gt;Node10 -->
<g id="edge14" class="edge">
<title>Node438&#45;&gt;Node10</title>
<path fill="none" stroke="midnightblue" d="M609.76,-155C619.14,-155 629.02,-155 638.64,-155"/>
<polygon fill="midnightblue" stroke="midnightblue" points="638.95,-158.5 648.95,-155 638.95,-151.5 638.95,-158.5"/>
</g>
<!-- Node440 -->
<g id="node14" class="node">
<title>Node440</title>
<g id="a_node14"><a xlink:href="quickjs_8c.html#af894945c3459f86096c1821a0a696934" target="_top" xlink:title=" ">
<polygon fill="none" stroke="black" points="342.5,-88.5 342.5,-107.5 438.5,-107.5 438.5,-88.5 342.5,-88.5"/>
<text text-anchor="middle" x="390.5" y="-95.5" font-family="Helvetica,sans-Serif" font-size="10.00">get_typed_array</text>
</a>
</g>
</g>
<!-- Node439&#45;&gt;Node440 -->
<g id="edge16" class="edge">
<title>Node439&#45;&gt;Node440</title>
<path fill="none" stroke="midnightblue" d="M278.19,-87.91C295.53,-89.48 314.77,-91.23 332.31,-92.82"/>
<polygon fill="midnightblue" stroke="midnightblue" points="332.15,-96.32 342.42,-93.73 332.78,-89.34 332.15,-96.32"/>
</g>
<!-- Node272 -->
<g id="node15" class="node">
<title>Node272</title>
<g id="a_node15"><a xlink:href="quickjs_8c.html#a033dd3ebd29c4eb9f0baff1dd0fec0b1" target="_top" xlink:title=" ">
<polygon fill="none" stroke="black" points="314,-39 314,-69 467,-69 467,-39 314,-39"/>
<text text-anchor="start" x="322" y="-57" font-family="Helvetica,sans-Serif" font-size="10.00">JS_ThrowTypeErrorDetached</text>
<text text-anchor="middle" x="390.5" y="-46" font-family="Helvetica,sans-Serif" font-size="10.00">ArrayBuffer</text>
</a>
</g>
</g>
<!-- Node439&#45;&gt;Node272 -->
<g id="edge17" class="edge">
<title>Node439&#45;&gt;Node272</title>
<path fill="none" stroke="midnightblue" d="M278.19,-73.5C286.48,-72.05 295.2,-70.52 303.97,-68.99"/>
<polygon fill="midnightblue" stroke="midnightblue" points="304.61,-72.43 313.86,-67.25 303.41,-65.53 304.61,-72.43"/>
</g>
<!-- Node439&#45;&gt;Node273 -->
<g id="edge18" class="edge">
<title>Node439&#45;&gt;Node273</title>
<path fill="none" stroke="midnightblue" d="M245.24,-67.8C262.9,-55.77 289.09,-39.34 314,-29 319.9,-26.55 326.19,-24.36 332.53,-22.41"/>
<polygon fill="midnightblue" stroke="midnightblue" points="333.84,-25.68 342.49,-19.55 331.91,-18.95 333.84,-25.68"/>
</g>
</g>
</svg>
