<?xml version="1.0" encoding="UTF-8" standalone="no"?>
<!DOCTYPE svg PUBLIC "-//W3C//DTD SVG 1.1//EN"
 "http://www.w3.org/Graphics/SVG/1.1/DTD/svg11.dtd">
<!-- Generated by graphviz version 2.43.0 (0)
 -->
<!-- Title: js_array_push Pages: 1 -->
<!--zoomable 1014 -->
<svg id="main" version="1.1" xmlns="http://www.w3.org/2000/svg" xmlns:xlink="http://www.w3.org/1999/xlink" xml:space="preserve" onload="init(evt)">
<style type="text/css"><![CDATA[
.edge:hover path { stroke: red; }
.edge:hover polygon { stroke: red; fill: red; }
]]></style>
<script type="text/javascript"><![CDATA[
var edges = document.getElementsByTagName('g');
if (edges && edges.length) {
  for (var i=0;i<edges.length;i++) {
    if (edges[i].id.substr(0,4)=='edge') {
      edges[i].setAttribute('class','edge');
    }
  }
}
]]></script>
        <defs>
                <circle id="rim" cx="0" cy="0" r="7"/>
                <circle id="rim2" cx="0" cy="0" r="3.5"/>
                <g id="zoomPlus">
                        <use xlink:href="#rim" fill="#404040">
                                <set attributeName="fill" to="#808080" begin="zoomplus.mouseover" end="zoomplus.mouseout"/>
                        </use>
                        <path d="M-4,0h8M0,-4v8" fill="none" stroke="white" stroke-width="1.5" pointer-events="none"/>
                </g>
                <g id="zoomMin">
                        <use xlink:href="#rim" fill="#404040">
                                <set attributeName="fill" to="#808080" begin="zoomminus.mouseover" end="zoomminus.mouseout"/>
                        </use>
                        <path d="M-4,0h8" fill="none" stroke="white" stroke-width="1.5" pointer-events="none"/>
                </g>
                <g id="dirArrow">
                        <path fill="none" stroke="white" stroke-width="1.5" d="M0,-3.0v7 M-2.5,-0.5L0,-3.0L2.5,-0.5"/>
                </g>
               <g id="resetDef">
                       <use xlink:href="#rim2" fill="#404040">
                               <set attributeName="fill" to="#808080" begin="reset.mouseover" end="reset.mouseout"/>
                       </use>
               </g>
        </defs>

<script type="text/javascript">
var viewWidth = 836;
var viewHeight = 1014;
var sectionId = 'dynsection-1503';
</script>
<script xlink:href="svgpan.js"/>
<svg id="graph" class="graph">
<g id="viewport">
<title>js_array_push</title>
<!-- Node1 -->
<g id="node1" class="node">
<title>Node1</title>
<g id="a_node1"><a xlink:title=" ">
<polygon fill="#bfbfbf" stroke="black" points="0,-568.31 0,-587.31 84,-587.31 84,-568.31 0,-568.31"/>
<text text-anchor="middle" x="42" y="-575.31" font-family="Helvetica,sans-Serif" font-size="10.00">js_array_push</text>
</a>
</g>
</g>
<!-- Node2 -->
<g id="node2" class="node">
<title>Node2</title>
<g id="a_node2"><a xlink:href="quickjs_8c.html#a85f635777ac81981997774a375ae4a8c" target="_top" xlink:title=" ">
<polygon fill="none" stroke="black" points="120,-986.31 120,-1005.31 227,-1005.31 227,-986.31 120,-986.31"/>
<text text-anchor="middle" x="173.5" y="-993.31" font-family="Helvetica,sans-Serif" font-size="10.00">expand_fast_array</text>
</a>
</g>
</g>
<!-- Node1&#45;&gt;Node2 -->
<g id="edge1" class="edge">
<title>Node1&#45;&gt;Node2</title>
<path fill="none" stroke="midnightblue" d="M43.59,-587.41C47.14,-642.21 67.29,-915.13 120,-976.81 121.15,-978.15 122.4,-979.4 123.73,-980.56"/>
<polygon fill="midnightblue" stroke="midnightblue" points="121.88,-983.53 132.11,-986.28 125.83,-977.75 121.88,-983.53"/>
</g>
<!-- Node4 -->
<g id="node4" class="node">
<title>Node4</title>
<g id="a_node4"><a xlink:href="quickjs_8c.html#a643df594b75933007bcdbb071b5ea8c5" target="_top" xlink:title=" ">
<polygon fill="none" stroke="black" points="126.5,-948.31 126.5,-967.31 220.5,-967.31 220.5,-948.31 126.5,-948.31"/>
<text text-anchor="middle" x="173.5" y="-955.31" font-family="Helvetica,sans-Serif" font-size="10.00">get_shape_prop</text>
</a>
</g>
</g>
<!-- Node1&#45;&gt;Node4 -->
<g id="edge3" class="edge">
<title>Node1&#45;&gt;Node4</title>
<path fill="none" stroke="midnightblue" d="M43.94,-587.64C49.04,-639.14 74.81,-877.64 120,-933.81 122.91,-937.42 126.47,-940.51 130.37,-943.15"/>
<polygon fill="midnightblue" stroke="midnightblue" points="128.88,-946.33 139.3,-948.23 132.34,-940.24 128.88,-946.33"/>
</g>
<!-- Node5 -->
<g id="node5" class="node">
<title>Node5</title>
<g id="a_node5"><a xlink:href="quickjs_8c.html#a6c99d7581e100a5de07c9a24f4c7d34a" target="_top" xlink:title=" ">
<polygon fill="none" stroke="black" points="123.5,-397.31 123.5,-416.31 223.5,-416.31 223.5,-397.31 123.5,-397.31"/>
<text text-anchor="middle" x="173.5" y="-404.31" font-family="Helvetica,sans-Serif" font-size="10.00">JS_CopySubArray</text>
</a>
</g>
</g>
<!-- Node1&#45;&gt;Node5 -->
<g id="edge4" class="edge">
<title>Node1&#45;&gt;Node5</title>
<path fill="none" stroke="midnightblue" d="M50.33,-568.12C71.35,-540.38 132,-460.29 159.12,-424.48"/>
<polygon fill="midnightblue" stroke="midnightblue" points="162,-426.47 165.25,-416.39 156.42,-422.24 162,-426.47"/>
</g>
<!-- Node61 -->
<g id="node9" class="node">
<title>Node61</title>
<g id="a_node9"><a xlink:href="quickjs_8h.html#afaa20c47565bc704c6c85f3d77254e7d" target="_top" xlink:title=" ">
<polygon fill="none" stroke="red" points="603,-644.31 603,-663.31 682,-663.31 682,-644.31 603,-644.31"/>
<text text-anchor="middle" x="642.5" y="-651.31" font-family="Helvetica,sans-Serif" font-size="10.00">JS_FreeValue</text>
</a>
</g>
</g>
<!-- Node1&#45;&gt;Node61 -->
<g id="edge44" class="edge">
<title>Node1&#45;&gt;Node61</title>
<path fill="none" stroke="midnightblue" d="M67.02,-587.34C138.81,-614.76 358.29,-690.73 544,-672.81 560.05,-671.26 577.39,-668.31 592.93,-665.18"/>
<polygon fill="midnightblue" stroke="midnightblue" points="593.77,-668.58 602.85,-663.12 592.34,-661.73 593.77,-668.58"/>
</g>
<!-- Node76 -->
<g id="node11" class="node">
<title>Node76</title>
<g id="a_node11"><a xlink:href="quickjs_8c.html#a710289a14c2810467e5b448d3c28bd55" target="_top" xlink:title=" ">
<polygon fill="none" stroke="red" points="606,-530.31 606,-549.31 679,-549.31 679,-530.31 606,-530.31"/>
<text text-anchor="middle" x="642.5" y="-537.31" font-family="Helvetica,sans-Serif" font-size="10.00">JS_ToObject</text>
</a>
</g>
</g>
<!-- Node1&#45;&gt;Node76 -->
<g id="edge57" class="edge">
<title>Node1&#45;&gt;Node76</title>
<path fill="none" stroke="midnightblue" d="M84.14,-575.2C192.08,-568.34 482.89,-549.88 595.8,-542.71"/>
<polygon fill="midnightblue" stroke="midnightblue" points="596.09,-546.2 605.85,-542.07 595.65,-539.21 596.09,-546.2"/>
</g>
<!-- Node40 -->
<g id="node12" class="node">
<title>Node40</title>
<g id="a_node12"><a xlink:href="quickjs_8h.html#a775522f2d084fc8fa0fcb33f390006b4" target="_top" xlink:title=" ">
<polygon fill="none" stroke="black" points="746,-720.31 746,-739.31 823,-739.31 823,-720.31 746,-720.31"/>
<text text-anchor="middle" x="784.5" y="-727.31" font-family="Helvetica,sans-Serif" font-size="10.00">JS_DupValue</text>
</a>
</g>
</g>
<!-- Node1&#45;&gt;Node40 -->
<g id="edge43" class="edge">
<title>Node1&#45;&gt;Node40</title>
<path fill="none" stroke="midnightblue" d="M44.38,-587.57C49.3,-619.35 68.52,-721.47 120,-785.81 188.36,-871.23 217.09,-919.81 326.5,-919.81 326.5,-919.81 326.5,-919.81 487,-919.81 587.26,-919.81 625.01,-922.26 705,-861.81 743.67,-832.59 767,-778.31 777.28,-749.29"/>
<polygon fill="midnightblue" stroke="midnightblue" points="780.7,-750.11 780.59,-739.51 774.07,-747.87 780.7,-750.11"/>
</g>
<!-- Node139 -->
<g id="node13" class="node">
<title>Node139</title>
<g id="a_node13"><a xlink:href="quickjs_8h.html#a2050bc428da1c65ac7eb87c3fa3b0392" target="_top" xlink:title=" ">
<polygon fill="none" stroke="black" points="746,-283.31 746,-302.31 823,-302.31 823,-283.31 746,-283.31"/>
<text text-anchor="middle" x="784.5" y="-290.31" font-family="Helvetica,sans-Serif" font-size="10.00">JS_NewInt32</text>
</a>
</g>
</g>
<!-- Node1&#45;&gt;Node139 -->
<g id="edge52" class="edge">
<title>Node1&#45;&gt;Node139</title>
<path fill="none" stroke="midnightblue" d="M42.58,-568.3C41.13,-524.48 40.15,-339.19 120,-221.81 182.09,-130.54 216.11,-83.81 326.5,-83.81 326.5,-83.81 326.5,-83.81 487,-83.81 619.21,-83.81 733.98,-224.36 771,-274.94"/>
<polygon fill="midnightblue" stroke="midnightblue" points="768.31,-277.21 776.99,-283.28 774,-273.12 768.31,-277.21"/>
</g>
<!-- Node440 -->
<g id="node16" class="node">
<title>Node440</title>
<g id="a_node16"><a xlink:href="quickjs_8c.html#a51b06daa618640e531fe808770553b96" target="_top" xlink:title=" ">
<polygon fill="none" stroke="black" points="271,-273.31 271,-292.31 384,-292.31 384,-273.31 271,-273.31"/>
<text text-anchor="middle" x="327.5" y="-280.31" font-family="Helvetica,sans-Serif" font-size="10.00">JS_SetPropertyInt64</text>
</a>
</g>
</g>
<!-- Node1&#45;&gt;Node440 -->
<g id="edge56" class="edge">
<title>Node1&#45;&gt;Node440</title>
<path fill="none" stroke="midnightblue" d="M44.45,-568.25C49.47,-538.1 68.73,-443.65 120,-387.81 164.09,-339.78 235.14,-310.48 281.33,-295.44"/>
<polygon fill="midnightblue" stroke="midnightblue" points="282.6,-298.71 291.08,-292.36 280.49,-292.04 282.6,-298.71"/>
</g>
<!-- Node294 -->
<g id="node17" class="node">
<title>Node294</title>
<g id="a_node17"><a xlink:href="quickjs_8h.html#af763b173e78debf2075670ca2c128a30" target="_top" xlink:title=" ">
<polygon fill="none" stroke="red" points="442,-112.31 442,-131.31 530,-131.31 530,-112.31 442,-112.31"/>
<text text-anchor="middle" x="486" y="-119.31" font-family="Helvetica,sans-Serif" font-size="10.00">JS_SetProperty</text>
</a>
</g>
</g>
<!-- Node1&#45;&gt;Node294 -->
<g id="edge55" class="edge">
<title>Node1&#45;&gt;Node294</title>
<path fill="none" stroke="midnightblue" d="M43.21,-568.19C44.48,-531.03 53.68,-394.95 120,-313.81 203.91,-211.14 357.42,-156.54 435.93,-134.19"/>
<polygon fill="midnightblue" stroke="midnightblue" points="437.34,-137.43 446.03,-131.37 435.46,-130.68 437.34,-137.43"/>
</g>
<!-- Node442 -->
<g id="node23" class="node">
<title>Node442</title>
<g id="a_node23"><a xlink:href="quickjs_8c.html#a5f848f76409193212a44e6221e430919" target="_top" xlink:title=" ">
<polygon fill="none" stroke="black" points="280.5,-815.31 280.5,-834.31 374.5,-834.31 374.5,-815.31 280.5,-815.31"/>
<text text-anchor="middle" x="327.5" y="-822.31" font-family="Helvetica,sans-Serif" font-size="10.00">js_get_length64</text>
</a>
</g>
</g>
<!-- Node1&#45;&gt;Node442 -->
<g id="edge45" class="edge">
<title>Node1&#45;&gt;Node442</title>
<path fill="none" stroke="midnightblue" d="M44.86,-587.53C50.73,-615.67 71.42,-698.08 120,-743.81 161.71,-783.07 224.67,-804.05 270.1,-814.74"/>
<polygon fill="midnightblue" stroke="midnightblue" points="269.57,-818.21 280.09,-817 271.11,-811.38 269.57,-818.21"/>
</g>
<!-- Node215 -->
<g id="node26" class="node">
<title>Node215</title>
<g id="a_node26"><a xlink:href="quickjs_8h.html#a6acbc709e59969eac6775f9b253b438f" target="_top" xlink:title=" ">
<polygon fill="none" stroke="red" points="135,-36.31 135,-55.31 212,-55.31 212,-36.31 135,-36.31"/>
<text text-anchor="middle" x="173.5" y="-43.31" font-family="Helvetica,sans-Serif" font-size="10.00">JS_NewInt64</text>
</a>
</g>
</g>
<!-- Node1&#45;&gt;Node215 -->
<g id="edge53" class="edge">
<title>Node1&#45;&gt;Node215</title>
<path fill="none" stroke="midnightblue" d="M43.24,-568.25C44.97,-505.54 57.42,-152.77 120,-69.81 122.65,-66.3 125.93,-63.29 129.55,-60.7"/>
<polygon fill="midnightblue" stroke="midnightblue" points="131.65,-63.53 138.48,-55.43 128.09,-57.5 131.65,-63.53"/>
</g>
<!-- Node3 -->
<g id="node3" class="node">
<title>Node3</title>
<g id="a_node3"><a xlink:href="cutils_8h.html#a94f155fcce337a2b9d4719ed8042cbbe" target="_top" xlink:title=" ">
<polygon fill="none" stroke="black" points="299.5,-986.31 299.5,-1005.31 355.5,-1005.31 355.5,-986.31 299.5,-986.31"/>
<text text-anchor="middle" x="327.5" y="-993.31" font-family="Helvetica,sans-Serif" font-size="10.00">max_int</text>
</a>
</g>
</g>
<!-- Node2&#45;&gt;Node3 -->
<g id="edge2" class="edge">
<title>Node2&#45;&gt;Node3</title>
<path fill="none" stroke="midnightblue" d="M227.24,-995.81C247.69,-995.81 270.63,-995.81 289.3,-995.81"/>
<polygon fill="midnightblue" stroke="midnightblue" points="289.47,-999.31 299.47,-995.81 289.47,-992.31 289.47,-999.31"/>
</g>
<!-- Node6 -->
<g id="node6" class="node">
<title>Node6</title>
<g id="a_node6"><a xlink:href="quickjs_8c.html#a70e21308fe3760cd95dd1dbb1a8755e6" target="_top" xlink:title=" ">
<polygon fill="none" stroke="black" points="263,-340.31 263,-359.31 392,-359.31 392,-340.31 263,-340.31"/>
<text text-anchor="middle" x="327.5" y="-347.31" font-family="Helvetica,sans-Serif" font-size="10.00">JS_DeletePropertyInt64</text>
</a>
</g>
</g>
<!-- Node5&#45;&gt;Node6 -->
<g id="edge5" class="edge">
<title>Node5&#45;&gt;Node6</title>
<path fill="none" stroke="midnightblue" d="M199.94,-397.27C225.04,-387.86 263.6,-373.39 291.57,-362.91"/>
<polygon fill="midnightblue" stroke="midnightblue" points="292.84,-366.17 300.98,-359.38 290.38,-359.61 292.84,-366.17"/>
</g>
<!-- Node5&#45;&gt;Node440 -->
<g id="edge18" class="edge">
<title>Node5&#45;&gt;Node440</title>
<path fill="none" stroke="midnightblue" d="M186.75,-397.09C197.5,-388.5 213.47,-375.54 227,-363.81 243.4,-349.59 246.32,-344.7 263,-330.81 276.5,-319.56 292.25,-307.65 304.69,-298.5"/>
<polygon fill="midnightblue" stroke="midnightblue" points="307.07,-301.1 313.08,-292.38 302.94,-295.45 307.07,-301.1"/>
</g>
<!-- Node441 -->
<g id="node19" class="node">
<title>Node441</title>
<g id="a_node19"><a xlink:href="quickjs_8c.html#a14674e74168715dc5a3a391910982e5d" target="_top" xlink:title=" ">
<polygon fill="none" stroke="black" points="263.5,-454.31 263.5,-473.31 391.5,-473.31 391.5,-454.31 263.5,-454.31"/>
<text text-anchor="middle" x="327.5" y="-461.31" font-family="Helvetica,sans-Serif" font-size="10.00">JS_TryGetPropertyInt64</text>
</a>
</g>
</g>
<!-- Node5&#45;&gt;Node441 -->
<g id="edge27" class="edge">
<title>Node5&#45;&gt;Node441</title>
<path fill="none" stroke="midnightblue" d="M199.94,-416.35C225.04,-425.76 263.6,-440.22 291.57,-450.71"/>
<polygon fill="midnightblue" stroke="midnightblue" points="290.38,-454 300.98,-454.24 292.84,-447.45 290.38,-454"/>
</g>
<!-- Node7 -->
<g id="node7" class="node">
<title>Node7</title>
<g id="a_node7"><a xlink:href="quickjs_8c.html#a877fcb7651d95b411ce70e62b7f4a1f0" target="_top" xlink:title=" ">
<polygon fill="none" stroke="black" points="580,-340.31 580,-359.31 705,-359.31 705,-340.31 580,-340.31"/>
<text text-anchor="middle" x="642.5" y="-347.31" font-family="Helvetica,sans-Serif" font-size="10.00">__JS_AtomFromUInt32</text>
</a>
</g>
</g>
<!-- Node6&#45;&gt;Node7 -->
<g id="edge6" class="edge">
<title>Node6&#45;&gt;Node7</title>
<path fill="none" stroke="midnightblue" d="M368.92,-340.3C386.89,-336.53 408.39,-332.66 428,-330.81 479.33,-325.95 492.68,-325.85 544,-330.81 559.77,-332.33 576.78,-335.21 592.11,-338.27"/>
<polygon fill="midnightblue" stroke="midnightblue" points="591.4,-341.7 601.91,-340.3 592.82,-334.84 591.4,-341.7"/>
</g>
<!-- Node8 -->
<g id="node8" class="node">
<title>Node8</title>
<g id="a_node8"><a xlink:href="quickjs_8c.html#a2b88ed25233c441cbed7b0a027c9ee2f" target="_top" xlink:title=" ">
<polygon fill="none" stroke="red" points="434,-492.31 434,-511.31 538,-511.31 538,-492.31 434,-492.31"/>
<text text-anchor="middle" x="486" y="-499.31" font-family="Helvetica,sans-Serif" font-size="10.00">JS_DeleteProperty</text>
</a>
</g>
</g>
<!-- Node6&#45;&gt;Node8 -->
<g id="edge7" class="edge">
<title>Node6&#45;&gt;Node8</title>
<path fill="none" stroke="midnightblue" d="M338.29,-359.32C364.2,-384.48 434.82,-453.07 467.71,-485.02"/>
<polygon fill="midnightblue" stroke="midnightblue" points="465.6,-487.85 475.21,-492.3 470.48,-482.83 465.6,-487.85"/>
</g>
<!-- Node60 -->
<g id="node14" class="node">
<title>Node60</title>
<g id="a_node14"><a xlink:href="quickjs_8c.html#ab7fc45a99935a1c0ba50b0216d9401a9" target="_top" xlink:title=" ">
<polygon fill="none" stroke="red" points="603.5,-264.31 603.5,-283.31 681.5,-283.31 681.5,-264.31 603.5,-264.31"/>
<text text-anchor="middle" x="642.5" y="-271.31" font-family="Helvetica,sans-Serif" font-size="10.00">JS_FreeAtom</text>
</a>
</g>
</g>
<!-- Node6&#45;&gt;Node60 -->
<g id="edge14" class="edge">
<title>Node6&#45;&gt;Node60</title>
<path fill="none" stroke="midnightblue" d="M343.52,-340.16C356.99,-331.13 376.9,-316.81 392,-301.81 410.66,-283.26 404.41,-266.46 428,-254.81 486.51,-225.92 565.03,-245.52 608.7,-260.74"/>
<polygon fill="midnightblue" stroke="midnightblue" points="607.65,-264.08 618.24,-264.19 610.03,-257.5 607.65,-264.08"/>
</g>
<!-- Node439 -->
<g id="node15" class="node">
<title>Node439</title>
<g id="a_node15"><a xlink:href="quickjs_8c.html#aa641af3a921335927dab07dc83285917" target="_top" xlink:title=" ">
<polygon fill="none" stroke="red" points="434,-340.31 434,-359.31 538,-359.31 538,-340.31 434,-340.31"/>
<text text-anchor="middle" x="486" y="-347.31" font-family="Helvetica,sans-Serif" font-size="10.00">JS_NewAtomInt64</text>
</a>
</g>
</g>
<!-- Node6&#45;&gt;Node439 -->
<g id="edge15" class="edge">
<title>Node6&#45;&gt;Node439</title>
<path fill="none" stroke="midnightblue" d="M392.15,-349.81C402.56,-349.81 413.33,-349.81 423.68,-349.81"/>
<polygon fill="midnightblue" stroke="midnightblue" points="423.86,-353.31 433.86,-349.81 423.86,-346.31 423.86,-353.31"/>
</g>
<!-- Node8&#45;&gt;Node61 -->
<g id="edge8" class="edge">
<title>Node8&#45;&gt;Node61</title>
<path fill="none" stroke="midnightblue" d="M517.89,-511.41C526.84,-515.06 536.28,-519.82 544,-525.81 583.92,-556.74 616.09,-607.82 631.54,-635.17"/>
<polygon fill="midnightblue" stroke="midnightblue" points="628.56,-637.02 636.46,-644.09 634.69,-633.64 628.56,-637.02"/>
</g>
<!-- Node75 -->
<g id="node10" class="node">
<title>Node75</title>
<g id="a_node10"><a xlink:href="quickjs_8h.html#ad80a83d73e9b7d872b88fbf2943aebe9" target="_top" xlink:title=" ">
<polygon fill="none" stroke="black" points="741,-530.31 741,-549.31 828,-549.31 828,-530.31 741,-530.31"/>
<text text-anchor="middle" x="784.5" y="-537.31" font-family="Helvetica,sans-Serif" font-size="10.00">JS_IsException</text>
</a>
</g>
</g>
<!-- Node8&#45;&gt;Node75 -->
<g id="edge9" class="edge">
<title>Node8&#45;&gt;Node75</title>
<path fill="none" stroke="midnightblue" d="M538.37,-504.1C582.71,-506.6 648.39,-511.54 705,-520.81 716.12,-522.63 728,-525.18 739.07,-527.82"/>
<polygon fill="midnightblue" stroke="midnightblue" points="738.4,-531.26 748.95,-530.26 740.08,-524.47 738.4,-531.26"/>
</g>
<!-- Node8&#45;&gt;Node76 -->
<g id="edge10" class="edge">
<title>Node8&#45;&gt;Node76</title>
<path fill="none" stroke="midnightblue" d="M525.99,-511.4C547.31,-516.64 573.82,-523.16 596.07,-528.64"/>
<polygon fill="midnightblue" stroke="midnightblue" points="595.42,-532.08 605.96,-531.07 597.09,-525.28 595.42,-532.08"/>
</g>
<!-- Node76&#45;&gt;Node75 -->
<g id="edge12" class="edge">
<title>Node76&#45;&gt;Node75</title>
<path fill="none" stroke="midnightblue" d="M679.19,-539.81C694.75,-539.81 713.33,-539.81 730.46,-539.81"/>
<polygon fill="midnightblue" stroke="midnightblue" points="730.9,-543.31 740.9,-539.81 730.9,-536.31 730.9,-543.31"/>
</g>
<!-- Node76&#45;&gt;Node40 -->
<g id="edge11" class="edge">
<title>Node76&#45;&gt;Node40</title>
<path fill="none" stroke="midnightblue" d="M654.73,-549.65C667.7,-561.34 689.27,-581.78 705,-601.81 733.43,-638.01 759.98,-685.16 773.73,-710.94"/>
<polygon fill="midnightblue" stroke="midnightblue" points="770.74,-712.78 778.5,-720 776.94,-709.52 770.74,-712.78"/>
</g>
<!-- Node76&#45;&gt;Node139 -->
<g id="edge13" class="edge">
<title>Node76&#45;&gt;Node139</title>
<path fill="none" stroke="midnightblue" d="M649.63,-530.27C660.93,-512.62 685.63,-473.57 705,-439.81 731.03,-394.44 759.45,-339.83 773.9,-311.67"/>
<polygon fill="midnightblue" stroke="midnightblue" points="777.12,-313.05 778.56,-302.55 770.89,-309.86 777.12,-313.05"/>
</g>
<!-- Node439&#45;&gt;Node7 -->
<g id="edge16" class="edge">
<title>Node439&#45;&gt;Node7</title>
<path fill="none" stroke="midnightblue" d="M538.02,-349.81C548.14,-349.81 558.95,-349.81 569.62,-349.81"/>
<polygon fill="midnightblue" stroke="midnightblue" points="569.78,-353.31 579.78,-349.81 569.78,-346.31 569.78,-353.31"/>
</g>
<!-- Node439&#45;&gt;Node75 -->
<g id="edge17" class="edge">
<title>Node439&#45;&gt;Node75</title>
<path fill="none" stroke="midnightblue" d="M502.11,-359.49C550.39,-390.43 701.18,-487.05 759.83,-524.64"/>
<polygon fill="midnightblue" stroke="midnightblue" points="758.11,-527.7 768.42,-530.14 761.89,-521.8 758.11,-527.7"/>
</g>
<!-- Node440&#45;&gt;Node61 -->
<g id="edge20" class="edge">
<title>Node440&#45;&gt;Node61</title>
<path fill="none" stroke="midnightblue" d="M348,-292.45C362.47,-300.64 381.43,-313.78 392,-330.81 437.32,-403.84 379.44,-449.9 428,-520.81 434.18,-529.83 561.52,-606.24 616.54,-638.99"/>
<polygon fill="midnightblue" stroke="midnightblue" points="614.94,-642.11 625.33,-644.22 618.52,-636.1 614.94,-642.11"/>
</g>
<!-- Node440&#45;&gt;Node139 -->
<g id="edge22" class="edge">
<title>Node440&#45;&gt;Node139</title>
<path fill="none" stroke="midnightblue" d="M336.91,-273.29C352.72,-256.22 388.82,-220.92 428,-207.81 549.99,-166.98 701.69,-244.11 759.56,-277.99"/>
<polygon fill="midnightblue" stroke="midnightblue" points="757.95,-281.1 768.33,-283.21 761.53,-275.09 757.95,-281.1"/>
</g>
<!-- Node440&#45;&gt;Node60 -->
<g id="edge19" class="edge">
<title>Node440&#45;&gt;Node60</title>
<path fill="none" stroke="midnightblue" d="M339.45,-273.21C356.8,-258.72 392.31,-231.88 428,-221.81 477.62,-207.81 493.98,-209.3 544,-221.81 572.15,-228.85 601.07,-245.72 620.03,-258.35"/>
<polygon fill="midnightblue" stroke="midnightblue" points="618.26,-261.38 628.48,-264.15 622.21,-255.61 618.26,-261.38"/>
</g>
<!-- Node440&#45;&gt;Node439 -->
<g id="edge21" class="edge">
<title>Node440&#45;&gt;Node439</title>
<path fill="none" stroke="midnightblue" d="M350.92,-292.41C377.77,-303.9 422.91,-323.22 453.31,-336.24"/>
<polygon fill="midnightblue" stroke="midnightblue" points="452.05,-339.51 462.62,-340.23 454.8,-333.07 452.05,-339.51"/>
</g>
<!-- Node440&#45;&gt;Node294 -->
<g id="edge23" class="edge">
<title>Node440&#45;&gt;Node294</title>
<path fill="none" stroke="midnightblue" d="M335.46,-272.92C357.06,-242.28 421.87,-150.67 428,-145.81 432.97,-141.87 438.68,-138.47 444.52,-135.57"/>
<polygon fill="midnightblue" stroke="midnightblue" points="446.05,-138.72 453.73,-131.42 443.18,-132.34 446.05,-138.72"/>
</g>
<!-- Node308 -->
<g id="node18" class="node">
<title>Node308</title>
<g id="a_node18"><a xlink:href="quickjs_8c.html#aee75cc1546e19479e3ccda58f3b50a96" target="_top" xlink:title=" ">
<polygon fill="none" stroke="red" points="428.5,-264.31 428.5,-283.31 543.5,-283.31 543.5,-264.31 428.5,-264.31"/>
<text text-anchor="middle" x="486" y="-271.31" font-family="Helvetica,sans-Serif" font-size="10.00">JS_SetPropertyValue</text>
</a>
</g>
</g>
<!-- Node440&#45;&gt;Node308 -->
<g id="edge24" class="edge">
<title>Node440&#45;&gt;Node308</title>
<path fill="none" stroke="midnightblue" d="M384.12,-279.61C395.08,-278.98 406.69,-278.31 417.99,-277.66"/>
<polygon fill="midnightblue" stroke="midnightblue" points="418.46,-281.14 428.24,-277.07 418.06,-274.15 418.46,-281.14"/>
</g>
<!-- Node308&#45;&gt;Node61 -->
<g id="edge26" class="edge">
<title>Node308&#45;&gt;Node61</title>
<path fill="none" stroke="midnightblue" d="M500.75,-283.43C514.11,-293.58 533.84,-310.85 544,-330.81 590.55,-422.23 543.33,-463 580,-558.81 591.29,-588.3 612.64,-618.2 626.97,-636.37"/>
<polygon fill="midnightblue" stroke="midnightblue" points="624.36,-638.72 633.37,-644.3 629.81,-634.32 624.36,-638.72"/>
</g>
<!-- Node308&#45;&gt;Node60 -->
<g id="edge25" class="edge">
<title>Node308&#45;&gt;Node60</title>
<path fill="none" stroke="midnightblue" d="M543.65,-273.81C559.9,-273.81 577.46,-273.81 593.16,-273.81"/>
<polygon fill="midnightblue" stroke="midnightblue" points="593.18,-277.31 603.18,-273.81 593.18,-270.31 593.18,-277.31"/>
</g>
<!-- Node441&#45;&gt;Node7 -->
<g id="edge28" class="edge">
<title>Node441&#45;&gt;Node7</title>
<path fill="none" stroke="midnightblue" d="M371.51,-454.26C415.65,-443.8 485.91,-425.35 544,-401.81 569.97,-391.28 598.06,-375.83 617.38,-364.51"/>
<polygon fill="midnightblue" stroke="midnightblue" points="619.31,-367.44 626.12,-359.32 615.73,-361.42 619.31,-367.44"/>
</g>
<!-- Node441&#45;&gt;Node75 -->
<g id="edge40" class="edge">
<title>Node441&#45;&gt;Node75</title>
<path fill="none" stroke="midnightblue" d="M329.59,-473.64C334.04,-508.45 354.26,-626.25 428,-672.81 480.05,-705.67 651.54,-703.33 705,-672.81 747.93,-648.3 769.74,-590.11 778.58,-559.47"/>
<polygon fill="midnightblue" stroke="midnightblue" points="782.04,-560.1 781.27,-549.54 775.28,-558.27 782.04,-560.1"/>
</g>
<!-- Node441&#45;&gt;Node139 -->
<g id="edge42" class="edge">
<title>Node441&#45;&gt;Node139</title>
<path fill="none" stroke="midnightblue" d="M391.76,-460.28C470.85,-453.23 607.65,-432.1 705,-368.81 730.19,-352.43 754.26,-327.23 768.95,-310.39"/>
<polygon fill="midnightblue" stroke="midnightblue" points="771.91,-312.31 775.74,-302.43 766.58,-307.77 771.91,-312.31"/>
</g>
<!-- Node441&#45;&gt;Node60 -->
<g id="edge29" class="edge">
<title>Node441&#45;&gt;Node60</title>
<path fill="none" stroke="midnightblue" d="M341.36,-454.14C359.71,-440.73 394.88,-416.49 428,-401.81 477,-380.09 498.16,-396.59 544,-368.81 563.9,-356.75 563.46,-347.17 580,-330.81 594.09,-316.87 610.59,-301.63 622.95,-290.42"/>
<polygon fill="midnightblue" stroke="midnightblue" points="625.33,-292.99 630.41,-283.69 620.64,-287.79 625.33,-292.99"/>
</g>
<!-- Node441&#45;&gt;Node439 -->
<g id="edge41" class="edge">
<title>Node441&#45;&gt;Node439</title>
<path fill="none" stroke="midnightblue" d="M336.97,-454.25C353.17,-436.44 390.27,-397.83 428,-373.81 434.02,-369.97 440.77,-366.51 447.45,-363.49"/>
<polygon fill="midnightblue" stroke="midnightblue" points="449.27,-366.51 457.1,-359.38 446.53,-360.07 449.27,-366.51"/>
</g>
<!-- Node135 -->
<g id="node20" class="node">
<title>Node135</title>
<g id="a_node20"><a xlink:href="quickjs_8h.html#a89b7c8686c7eee70b86be722ee4730ad" target="_top" xlink:title=" ">
<polygon fill="none" stroke="red" points="598,-758.31 598,-777.31 687,-777.31 687,-758.31 598,-758.31"/>
<text text-anchor="middle" x="642.5" y="-765.31" font-family="Helvetica,sans-Serif" font-size="10.00">JS_GetProperty</text>
</a>
</g>
</g>
<!-- Node441&#45;&gt;Node135 -->
<g id="edge30" class="edge">
<title>Node441&#45;&gt;Node135</title>
<path fill="none" stroke="midnightblue" d="M329.5,-473.35C333.79,-509.49 353.98,-639.34 428,-705.81 472.15,-745.45 540.26,-759.84 587.63,-765.01"/>
<polygon fill="midnightblue" stroke="midnightblue" points="587.41,-768.5 597.71,-766 588.1,-761.54 587.41,-768.5"/>
</g>
<!-- Node161 -->
<g id="node21" class="node">
<title>Node161</title>
<g id="a_node21"><a xlink:href="quickjs_8c.html#a90d6e607f6917d817c1e997bd2e6ed07" target="_top" xlink:title=" ">
<polygon fill="none" stroke="red" points="428,-606.31 428,-625.31 544,-625.31 544,-606.31 428,-606.31"/>
<text text-anchor="middle" x="486" y="-613.31" font-family="Helvetica,sans-Serif" font-size="10.00">JS_GetPropertyValue</text>
</a>
</g>
</g>
<!-- Node441&#45;&gt;Node161 -->
<g id="edge31" class="edge">
<title>Node441&#45;&gt;Node161</title>
<path fill="none" stroke="midnightblue" d="M338.29,-473.32C364.2,-498.48 434.82,-567.07 467.71,-599.02"/>
<polygon fill="midnightblue" stroke="midnightblue" points="465.6,-601.85 475.21,-606.3 470.48,-596.83 465.6,-601.85"/>
</g>
<!-- Node277 -->
<g id="node22" class="node">
<title>Node277</title>
<g id="a_node22"><a xlink:href="quickjs_8c.html#a9d6d0a9704951d01c128975e0d2213f8" target="_top" xlink:title=" ">
<polygon fill="none" stroke="red" points="440.5,-644.31 440.5,-663.31 531.5,-663.31 531.5,-644.31 440.5,-644.31"/>
<text text-anchor="middle" x="486" y="-651.31" font-family="Helvetica,sans-Serif" font-size="10.00">JS_HasProperty</text>
</a>
</g>
</g>
<!-- Node441&#45;&gt;Node277 -->
<g id="edge37" class="edge">
<title>Node441&#45;&gt;Node277</title>
<path fill="none" stroke="midnightblue" d="M331.43,-473.56C340.64,-502.57 371.77,-589.08 428,-634.81 430.24,-636.63 432.66,-638.28 435.19,-639.77"/>
<polygon fill="midnightblue" stroke="midnightblue" points="433.66,-642.92 444.17,-644.27 436.8,-636.66 433.66,-642.92"/>
</g>
<!-- Node161&#45;&gt;Node61 -->
<g id="edge34" class="edge">
<title>Node161&#45;&gt;Node61</title>
<path fill="none" stroke="midnightblue" d="M525.99,-625.4C546.28,-630.39 571.29,-636.54 592.85,-641.84"/>
<polygon fill="midnightblue" stroke="midnightblue" points="592.25,-645.3 602.79,-644.29 593.92,-638.5 592.25,-645.3"/>
</g>
<!-- Node161&#45;&gt;Node40 -->
<g id="edge32" class="edge">
<title>Node161&#45;&gt;Node40</title>
<path fill="none" stroke="midnightblue" d="M544.08,-609.14C590.14,-606.4 655.22,-608.67 705,-634.81 737.51,-651.88 761.71,-688.75 774.13,-711.21"/>
<polygon fill="midnightblue" stroke="midnightblue" points="771.08,-712.93 778.86,-720.12 777.26,-709.65 771.08,-712.93"/>
</g>
<!-- Node161&#45;&gt;Node139 -->
<g id="edge36" class="edge">
<title>Node161&#45;&gt;Node139</title>
<path fill="none" stroke="midnightblue" d="M544.13,-607.36C600.74,-597.88 682.21,-580.9 705,-558.81 775.58,-490.4 783.51,-361.95 783.83,-312.72"/>
<polygon fill="midnightblue" stroke="midnightblue" points="787.33,-312.46 783.79,-302.47 780.33,-312.49 787.33,-312.46"/>
</g>
<!-- Node161&#45;&gt;Node60 -->
<g id="edge33" class="edge">
<title>Node161&#45;&gt;Node60</title>
<path fill="none" stroke="midnightblue" d="M494.4,-606.15C506.69,-589.62 531.2,-554.42 544,-520.81 574.59,-440.49 538.4,-406.01 580,-330.81 589.19,-314.19 604.98,-299.71 618.26,-289.5"/>
<polygon fill="midnightblue" stroke="midnightblue" points="620.54,-292.17 626.53,-283.43 616.4,-286.53 620.54,-292.17"/>
</g>
<!-- Node161&#45;&gt;Node135 -->
<g id="edge35" class="edge">
<title>Node161&#45;&gt;Node135</title>
<path fill="none" stroke="midnightblue" d="M526.29,-625.32C532.54,-627.82 538.69,-630.94 544,-634.81 566.11,-650.93 609.55,-717.12 630.15,-749.62"/>
<polygon fill="midnightblue" stroke="midnightblue" points="627.25,-751.59 635.54,-758.18 633.17,-747.86 627.25,-751.59"/>
</g>
<!-- Node277&#45;&gt;Node61 -->
<g id="edge39" class="edge">
<title>Node277&#45;&gt;Node61</title>
<path fill="none" stroke="midnightblue" d="M531.69,-653.81C550.8,-653.81 573.17,-653.81 592.71,-653.81"/>
<polygon fill="midnightblue" stroke="midnightblue" points="592.94,-657.31 602.94,-653.81 592.94,-650.31 592.94,-657.31"/>
</g>
<!-- Node277&#45;&gt;Node40 -->
<g id="edge38" class="edge">
<title>Node277&#45;&gt;Node40</title>
<path fill="none" stroke="midnightblue" d="M524.25,-663.36C578.06,-677.15 677.53,-702.65 736.38,-717.73"/>
<polygon fill="midnightblue" stroke="midnightblue" points="735.61,-721.15 746.17,-720.24 737.35,-714.37 735.61,-721.15"/>
</g>
<!-- Node442&#45;&gt;Node75 -->
<g id="edge47" class="edge">
<title>Node442&#45;&gt;Node75</title>
<path fill="none" stroke="midnightblue" d="M352.93,-834.43C418.97,-858.65 602.93,-914.13 705,-824.81 715.34,-815.76 763.31,-622.43 778.72,-559.45"/>
<polygon fill="midnightblue" stroke="midnightblue" points="782.16,-560.13 781.13,-549.58 775.36,-558.47 782.16,-560.13"/>
</g>
<!-- Node442&#45;&gt;Node135 -->
<g id="edge46" class="edge">
<title>Node442&#45;&gt;Node135</title>
<path fill="none" stroke="midnightblue" d="M370.98,-834.35C415.93,-842.32 487.98,-848.9 544,-824.81 565.37,-815.62 560.24,-799.09 580,-786.81 583.37,-784.71 587,-782.83 590.73,-781.15"/>
<polygon fill="midnightblue" stroke="midnightblue" points="592.21,-784.33 600.18,-777.35 589.6,-777.83 592.21,-784.33"/>
</g>
<!-- Node443 -->
<g id="node24" class="node">
<title>Node443</title>
<g id="a_node24"><a xlink:href="quickjs_8c.html#a07acd485a57197356906928a788a0644" target="_top" xlink:title=" ">
<polygon fill="none" stroke="black" points="438.5,-796.31 438.5,-815.31 533.5,-815.31 533.5,-796.31 438.5,-796.31"/>
<text text-anchor="middle" x="486" y="-803.31" font-family="Helvetica,sans-Serif" font-size="10.00">JS_ToLengthFree</text>
</a>
</g>
</g>
<!-- Node442&#45;&gt;Node443 -->
<g id="edge48" class="edge">
<title>Node442&#45;&gt;Node443</title>
<path fill="none" stroke="midnightblue" d="M374.61,-819.21C391.42,-817.17 410.62,-814.84 428.24,-812.7"/>
<polygon fill="midnightblue" stroke="midnightblue" points="428.9,-816.14 438.41,-811.46 428.06,-809.2 428.9,-816.14"/>
</g>
<!-- Node443&#45;&gt;Node61 -->
<g id="edge49" class="edge">
<title>Node443&#45;&gt;Node61</title>
<path fill="none" stroke="midnightblue" d="M496.66,-796.3C522.24,-771.14 591.96,-702.54 624.44,-670.6"/>
<polygon fill="midnightblue" stroke="midnightblue" points="627.17,-672.82 631.84,-663.31 622.26,-667.83 627.17,-672.82"/>
</g>
<!-- Node444 -->
<g id="node25" class="node">
<title>Node444</title>
<g id="a_node25"><a xlink:href="quickjs_8c.html#a537e88d38784e3df2a19c72f8bd1d77e" target="_top" xlink:title=" ">
<polygon fill="none" stroke="red" points="593.5,-796.31 593.5,-815.31 691.5,-815.31 691.5,-796.31 593.5,-796.31"/>
<text text-anchor="middle" x="642.5" y="-803.31" font-family="Helvetica,sans-Serif" font-size="10.00">JS_ToInt64Clamp</text>
</a>
</g>
</g>
<!-- Node443&#45;&gt;Node444 -->
<g id="edge50" class="edge">
<title>Node443&#45;&gt;Node444</title>
<path fill="none" stroke="midnightblue" d="M533.77,-805.81C549.22,-805.81 566.6,-805.81 582.82,-805.81"/>
<polygon fill="midnightblue" stroke="midnightblue" points="583.28,-809.31 593.28,-805.81 583.28,-802.31 583.28,-809.31"/>
</g>
<!-- Node444&#45;&gt;Node40 -->
<g id="edge51" class="edge">
<title>Node444&#45;&gt;Node40</title>
<path fill="none" stroke="midnightblue" d="M681.34,-796.26C689.35,-793.66 697.6,-790.51 705,-786.81 727.24,-775.68 749.94,-758.43 765.17,-745.82"/>
<polygon fill="midnightblue" stroke="midnightblue" points="767.44,-748.48 772.81,-739.36 762.92,-743.14 767.44,-748.48"/>
</g>
<!-- Node215&#45;&gt;Node139 -->
<g id="edge54" class="edge">
<title>Node215&#45;&gt;Node139</title>
<path fill="none" stroke="midnightblue" d="M206.25,-36.23C295.22,-11.49 550.49,44.94 705,-69.81 771.08,-118.88 781.8,-227.92 783.35,-272.86"/>
<polygon fill="midnightblue" stroke="midnightblue" points="779.85,-273.13 783.57,-283.05 786.85,-272.98 779.85,-273.13"/>
</g>
</g>
</svg>
        <g id="navigator" transform="translate(0 0)" fill="#404254">
                <rect fill="#f2f5e9" fill-opacity="0.5" stroke="#606060" stroke-width=".5" x="0" y="0" width="60" height="60"/>
                <use id="zoomplus" xlink:href="#zoomPlus" x="17" y="9" onmousedown="handleZoom(evt,'in')"/>
                <use id="zoomminus" xlink:href="#zoomMin" x="42" y="9" onmousedown="handleZoom(evt,'out')"/>
                <use id="reset" xlink:href="#resetDef" x="30" y="36" onmousedown="handleReset()"/>
                <g id="arrowUp" xlink:href="#dirArrow" transform="translate(30 24)" onmousedown="handlePan(0,-1)">
                  <use xlink:href="#rim" fill="#404040">
                        <set attributeName="fill" to="#808080" begin="arrowUp.mouseover" end="arrowUp.mouseout"/>
                  </use>
                  <path fill="none" stroke="white" stroke-width="1.5" d="M0,-3.0v7 M-2.5,-0.5L0,-3.0L2.5,-0.5"/>
                </g>
                <g id="arrowRight" xlink:href="#dirArrow" transform="rotate(90) translate(36 -43)" onmousedown="handlePan(1,0)">
                  <use xlink:href="#rim" fill="#404040">
                        <set attributeName="fill" to="#808080" begin="arrowRight.mouseover" end="arrowRight.mouseout"/>
                  </use>
                  <path fill="none" stroke="white" stroke-width="1.5" d="M0,-3.0v7 M-2.5,-0.5L0,-3.0L2.5,-0.5"/>
                </g>
                <g id="arrowDown" xlink:href="#dirArrow" transform="rotate(180) translate(-30 -48)" onmousedown="handlePan(0,1)">
                  <use xlink:href="#rim" fill="#404040">
                        <set attributeName="fill" to="#808080" begin="arrowDown.mouseover" end="arrowDown.mouseout"/>
                  </use>
                  <path fill="none" stroke="white" stroke-width="1.5" d="M0,-3.0v7 M-2.5,-0.5L0,-3.0L2.5,-0.5"/>
                </g>
                <g id="arrowLeft" xlink:href="#dirArrow" transform="rotate(270) translate(-36 17)" onmousedown="handlePan(-1,0)">
                  <use xlink:href="#rim" fill="#404040">
                        <set attributeName="fill" to="#808080" begin="arrowLeft.mouseover" end="arrowLeft.mouseout"/>
                  </use>
                  <path fill="none" stroke="white" stroke-width="1.5" d="M0,-3.0v7 M-2.5,-0.5L0,-3.0L2.5,-0.5"/>
                </g>
        </g>
        <svg viewBox="0 0 15 15" width="100%" height="30px" preserveAspectRatio="xMaxYMin meet">
         <g id="arrow_out" transform="scale(0.3 0.3)">
          <a xlink:href="quickjs_8c_a3d640b89712ebda808c0c3eca9849674_cgraph_org.svg" target="_base">
           <rect id="button" ry="5" rx="5" y="6" x="6" height="38" width="38"
                fill="#f2f5e9" fill-opacity="0.5" stroke="#606060" stroke-width="1.0"/>
           <path id="arrow"
             d="M 11.500037,31.436501 C 11.940474,20.09759 22.043105,11.32322 32.158766,21.979434 L 37.068811,17.246167 C 37.068811,17.246167 37.088388,32 37.088388,32 L 22.160133,31.978069 C 22.160133,31.978069 26.997745,27.140456 26.997745,27.140456 C 18.528582,18.264221 13.291696,25.230495 11.500037,31.436501 z"
             style="fill:#404040;"/>
          </a>
         </g>
        </svg>
</svg>
