<?xml version="1.0" encoding="UTF-8" standalone="no"?>
<!DOCTYPE svg PUBLIC "-//W3C//DTD SVG 1.1//EN"
 "http://www.w3.org/Graphics/SVG/1.1/DTD/svg11.dtd">
<!-- Generated by graphviz version 2.43.0 (0)
 -->
<!-- Title: JS_CallFree Pages: 1 -->
<!--zoomable 1108 -->
<svg id="main" version="1.1" xmlns="http://www.w3.org/2000/svg" xmlns:xlink="http://www.w3.org/1999/xlink" xml:space="preserve" onload="init(evt)">
<style type="text/css"><![CDATA[
.edge:hover path { stroke: red; }
.edge:hover polygon { stroke: red; fill: red; }
]]></style>
<script type="text/javascript"><![CDATA[
var edges = document.getElementsByTagName('g');
if (edges && edges.length) {
  for (var i=0;i<edges.length;i++) {
    if (edges[i].id.substr(0,4)=='edge') {
      edges[i].setAttribute('class','edge');
    }
  }
}
]]></script>
        <defs>
                <circle id="rim" cx="0" cy="0" r="7"/>
                <circle id="rim2" cx="0" cy="0" r="3.5"/>
                <g id="zoomPlus">
                        <use xlink:href="#rim" fill="#404040">
                                <set attributeName="fill" to="#808080" begin="zoomplus.mouseover" end="zoomplus.mouseout"/>
                        </use>
                        <path d="M-4,0h8M0,-4v8" fill="none" stroke="white" stroke-width="1.5" pointer-events="none"/>
                </g>
                <g id="zoomMin">
                        <use xlink:href="#rim" fill="#404040">
                                <set attributeName="fill" to="#808080" begin="zoomminus.mouseover" end="zoomminus.mouseout"/>
                        </use>
                        <path d="M-4,0h8" fill="none" stroke="white" stroke-width="1.5" pointer-events="none"/>
                </g>
                <g id="dirArrow">
                        <path fill="none" stroke="white" stroke-width="1.5" d="M0,-3.0v7 M-2.5,-0.5L0,-3.0L2.5,-0.5"/>
                </g>
               <g id="resetDef">
                       <use xlink:href="#rim2" fill="#404040">
                               <set attributeName="fill" to="#808080" begin="reset.mouseover" end="reset.mouseout"/>
                       </use>
               </g>
        </defs>

<script type="text/javascript">
var viewWidth = 671;
var viewHeight = 1108;
var sectionId = 'dynsection-16';
</script>
<script xlink:href="svgpan.js"/>
<svg id="graph" class="graph">
<g id="viewport">
<title>JS_CallFree</title>
<!-- Node1 -->
<g id="node1" class="node">
<title>Node1</title>
<g id="a_node1"><a xlink:title=" ">
<polygon fill="#bfbfbf" stroke="black" points="0,-551.5 0,-570.5 71,-570.5 71,-551.5 0,-551.5"/>
<text text-anchor="middle" x="35.5" y="-558.5" font-family="Helvetica,sans-Serif" font-size="10.00">JS_CallFree</text>
</a>
</g>
</g>
<!-- Node2 -->
<g id="node2" class="node">
<title>Node2</title>
<g id="a_node2"><a xlink:href="quickjs_8c.html#ac2894ff4edcdb4e6841bcce9c76081e3" target="_top" xlink:title=" ">
<polygon fill="none" stroke="red" points="107,-551.5 107,-570.5 194,-570.5 194,-551.5 107,-551.5"/>
<text text-anchor="middle" x="150.5" y="-558.5" font-family="Helvetica,sans-Serif" font-size="10.00">JS_CallInternal</text>
</a>
</g>
</g>
<!-- Node1&#45;&gt;Node2 -->
<g id="edge1" class="edge">
<title>Node1&#45;&gt;Node2</title>
<path fill="none" stroke="midnightblue" d="M71.02,-554.73C79.13,-554.36 87.97,-554.2 96.69,-554.26"/>
<polygon fill="midnightblue" stroke="midnightblue" points="96.76,-557.76 106.81,-554.43 96.87,-550.77 96.76,-557.76"/>
</g>
<!-- Node56 -->
<g id="node9" class="node">
<title>Node56</title>
<g id="a_node9"><a xlink:href="quickjs_8h.html#afaa20c47565bc704c6c85f3d77254e7d" target="_top" xlink:title=" ">
<polygon fill="none" stroke="red" points="584,-760.5 584,-779.5 663,-779.5 663,-760.5 584,-760.5"/>
<text text-anchor="middle" x="623.5" y="-767.5" font-family="Helvetica,sans-Serif" font-size="10.00">JS_FreeValue</text>
</a>
</g>
</g>
<!-- Node1&#45;&gt;Node56 -->
<g id="edge49" class="edge">
<title>Node1&#45;&gt;Node56</title>
<path fill="none" stroke="midnightblue" d="M36.65,-570.78C38.12,-629.35 54.24,-935.08 230,-1055 348.61,-1135.92 447.72,-1100.76 548,-998 605.93,-938.63 618.82,-833.61 621.68,-789.92"/>
<polygon fill="midnightblue" stroke="midnightblue" points="625.19,-789.93 622.23,-779.76 618.2,-789.55 625.19,-789.93"/>
</g>
<!-- Node2&#45;&gt;Node1 -->
<g id="edge46" class="edge">
<title>Node2&#45;&gt;Node1</title>
<path fill="none" stroke="midnightblue" d="M106.81,-567.57C98.41,-567.79 89.57,-567.81 81.1,-567.62"/>
<polygon fill="midnightblue" stroke="midnightblue" points="81.13,-564.11 71.02,-567.27 80.89,-571.11 81.13,-564.11"/>
</g>
<!-- Node2&#45;&gt;Node2 -->
<g id="edge47" class="edge">
<title>Node2&#45;&gt;Node2</title>
<path fill="none" stroke="midnightblue" d="M132.93,-570.76C124.38,-579.57 130.24,-589 150.5,-589 163.16,-589 170.2,-585.31 171.61,-580.4"/>
<polygon fill="midnightblue" stroke="midnightblue" points="174.8,-578.94 168.07,-570.76 168.23,-581.35 174.8,-578.94"/>
</g>
<!-- Node3 -->
<g id="node3" class="node">
<title>Node3</title>
<g id="a_node3"><a xlink:href="quickjs_8c.html#a853f0924d441ea4225488f37c8b69f9a" target="_top" xlink:title=" ">
<polygon fill="none" stroke="black" points="445.5,-874.5 445.5,-893.5 525.5,-893.5 525.5,-874.5 445.5,-874.5"/>
<text text-anchor="middle" x="485.5" y="-881.5" font-family="Helvetica,sans-Serif" font-size="10.00">__attribute__</text>
</a>
</g>
</g>
<!-- Node2&#45;&gt;Node3 -->
<g id="edge2" class="edge">
<title>Node2&#45;&gt;Node3</title>
<path fill="none" stroke="midnightblue" d="M152.5,-570.6C157.63,-617.9 182.64,-825.41 230,-865 260.09,-890.15 370.27,-889.6 435.38,-886.87"/>
<polygon fill="midnightblue" stroke="midnightblue" points="435.59,-890.37 445.42,-886.42 435.27,-883.37 435.59,-890.37"/>
</g>
<!-- Node4 -->
<g id="node4" class="node">
<title>Node4</title>
<g id="a_node4"><a xlink:href="quickjs_8c.html#a877fcb7651d95b411ce70e62b7f4a1f0" target="_top" xlink:title=" ">
<polygon fill="none" stroke="black" points="423,-570.5 423,-589.5 548,-589.5 548,-570.5 423,-570.5"/>
<text text-anchor="middle" x="485.5" y="-577.5" font-family="Helvetica,sans-Serif" font-size="10.00">__JS_AtomFromUInt32</text>
</a>
</g>
</g>
<!-- Node2&#45;&gt;Node4 -->
<g id="edge3" class="edge">
<title>Node2&#45;&gt;Node4</title>
<path fill="none" stroke="midnightblue" d="M194.01,-563.43C249.13,-566.57 346.07,-572.1 412.7,-575.9"/>
<polygon fill="midnightblue" stroke="midnightblue" points="412.53,-579.4 422.72,-576.47 412.93,-572.41 412.53,-579.4"/>
</g>
<!-- Node5 -->
<g id="node5" class="node">
<title>Node5</title>
<g id="a_node5"><a xlink:href="quickjs_8h.html#a9bf98b18de88b4199910a43e933eb97d" target="_top" xlink:title=" ">
<polygon fill="none" stroke="black" points="258.5,-418.5 258.5,-437.5 358.5,-437.5 358.5,-418.5 258.5,-418.5"/>
<text text-anchor="middle" x="308.5" y="-425.5" font-family="Helvetica,sans-Serif" font-size="10.00">__JS_NewFloat64</text>
</a>
</g>
</g>
<!-- Node2&#45;&gt;Node5 -->
<g id="edge4" class="edge">
<title>Node2&#45;&gt;Node5</title>
<path fill="none" stroke="midnightblue" d="M155.84,-551.22C165.79,-529.93 192.32,-479.1 230,-452 236.05,-447.65 242.92,-444.07 250,-441.13"/>
<polygon fill="midnightblue" stroke="midnightblue" points="251.58,-444.27 259.73,-437.5 249.14,-437.71 251.58,-444.27"/>
</g>
<!-- Node6 -->
<g id="node6" class="node">
<title>Node6</title>
<g id="a_node6"><a xlink:href="quickjs_8c.html#a74547db03bf739a52c83a326b32db997" target="_top" xlink:title=" ">
<polygon fill="none" stroke="red" points="445,-646.5 445,-665.5 526,-665.5 526,-646.5 445,-646.5"/>
<text text-anchor="middle" x="485.5" y="-653.5" font-family="Helvetica,sans-Serif" font-size="10.00">add_property</text>
</a>
</g>
</g>
<!-- Node2&#45;&gt;Node6 -->
<g id="edge5" class="edge">
<title>Node2&#45;&gt;Node6</title>
<path fill="none" stroke="midnightblue" d="M158.68,-570.68C171.16,-586.65 198.55,-618.16 230,-632 296.26,-661.17 381.41,-662.91 434.48,-660.33"/>
<polygon fill="midnightblue" stroke="midnightblue" points="434.86,-663.82 444.65,-659.77 434.47,-656.83 434.86,-663.82"/>
</g>
<!-- Node64 -->
<g id="node7" class="node">
<title>Node64</title>
<g id="a_node7"><a xlink:href="quickjs_8c.html#a4956f45ffd2849b96dc051277264f87a" target="_top" xlink:title=" ">
<polygon fill="none" stroke="red" points="267.5,-836.5 267.5,-855.5 349.5,-855.5 349.5,-836.5 267.5,-836.5"/>
<text text-anchor="middle" x="308.5" y="-843.5" font-family="Helvetica,sans-Serif" font-size="10.00">build_arg_list</text>
</a>
</g>
</g>
<!-- Node2&#45;&gt;Node64 -->
<g id="edge6" class="edge">
<title>Node2&#45;&gt;Node64</title>
<path fill="none" stroke="midnightblue" d="M151.37,-570.65C151.41,-608.46 156.69,-748.09 230,-822 237.52,-829.58 247.37,-834.77 257.53,-838.33"/>
<polygon fill="midnightblue" stroke="midnightblue" points="256.7,-841.74 267.29,-841.27 258.72,-835.03 256.7,-841.74"/>
</g>
<!-- Node65 -->
<g id="node8" class="node">
<title>Node65</title>
<g id="a_node8"><a xlink:href="quickjs_8c.html#ac864482356b3efc2d0b0a509fcfa4c7c" target="_top" xlink:title=" ">
<polygon fill="none" stroke="red" points="447,-798.5 447,-817.5 524,-817.5 524,-798.5 447,-798.5"/>
<text text-anchor="middle" x="485.5" y="-805.5" font-family="Helvetica,sans-Serif" font-size="10.00">free_arg_list</text>
</a>
</g>
</g>
<!-- Node2&#45;&gt;Node65 -->
<g id="edge13" class="edge">
<title>Node2&#45;&gt;Node65</title>
<path fill="none" stroke="midnightblue" d="M151.56,-570.54C152.35,-605.47 160.19,-727.18 230,-782 289.03,-828.35 381.02,-824.84 436.74,-817.1"/>
<polygon fill="midnightblue" stroke="midnightblue" points="437.33,-820.55 446.7,-815.61 436.29,-813.62 437.33,-820.55"/>
</g>
<!-- Node2&#45;&gt;Node56 -->
<g id="edge48" class="edge">
<title>Node2&#45;&gt;Node56</title>
<path fill="none" stroke="midnightblue" d="M182.63,-570.54C196.97,-574.72 214.26,-579.47 230,-583 299.94,-598.69 489.42,-595.69 548,-637 587.51,-664.86 608.57,-720.68 617.39,-750.37"/>
<polygon fill="midnightblue" stroke="midnightblue" points="614.12,-751.67 620.18,-760.36 620.86,-749.78 614.12,-751.67"/>
</g>
<!-- Node159 -->
<g id="node10" class="node">
<title>Node159</title>
<g id="a_node10"><a xlink:href="quickjs_8c.html#a61c8dfb5e807af1b6ff7d8ca61576dda" target="_top" xlink:title=" ">
<polygon fill="none" stroke="red" points="261.5,-380.5 261.5,-399.5 355.5,-399.5 355.5,-380.5 261.5,-380.5"/>
<text text-anchor="middle" x="308.5" y="-387.5" font-family="Helvetica,sans-Serif" font-size="10.00">build_backtrace</text>
</a>
</g>
</g>
<!-- Node2&#45;&gt;Node159 -->
<g id="edge10" class="edge">
<title>Node2&#45;&gt;Node159</title>
<path fill="none" stroke="midnightblue" d="M153.54,-551.4C159.77,-524.42 181.24,-447.41 230,-409 236.27,-404.06 243.65,-400.38 251.32,-397.64"/>
<polygon fill="midnightblue" stroke="midnightblue" points="252.58,-400.92 261.13,-394.66 250.54,-394.22 252.58,-400.92"/>
</g>
<!-- Node246 -->
<g id="node11" class="node">
<title>Node246</title>
<g id="a_node11"><a xlink:href="quickjs_8c.html#a344894112559c2ba75043fd10bcfa02f" target="_top" xlink:title=" ">
<polygon fill="none" stroke="red" points="258,-342.5 258,-361.5 359,-361.5 359,-342.5 258,-342.5"/>
<text text-anchor="middle" x="308.5" y="-349.5" font-family="Helvetica,sans-Serif" font-size="10.00">close_lexical_var</text>
</a>
</g>
</g>
<!-- Node2&#45;&gt;Node246 -->
<g id="edge11" class="edge">
<title>Node2&#45;&gt;Node246</title>
<path fill="none" stroke="midnightblue" d="M152.47,-551.35C156.13,-520.1 172.06,-420.77 230,-371 235.3,-366.45 241.51,-362.96 248.07,-360.28"/>
<polygon fill="midnightblue" stroke="midnightblue" points="249.56,-363.47 257.88,-356.91 247.28,-356.85 249.56,-363.47"/>
</g>
<!-- Node247 -->
<g id="node12" class="node">
<title>Node247</title>
<g id="a_node12"><a xlink:href="quickjs_8c.html#a1782043fce951bd4f0d91c7796b31e24" target="_top" xlink:title=" ">
<polygon fill="none" stroke="red" points="265,-304.5 265,-323.5 352,-323.5 352,-304.5 265,-304.5"/>
<text text-anchor="middle" x="308.5" y="-311.5" font-family="Helvetica,sans-Serif" font-size="10.00">close_var_refs</text>
</a>
</g>
</g>
<!-- Node2&#45;&gt;Node247 -->
<g id="edge12" class="edge">
<title>Node2&#45;&gt;Node247</title>
<path fill="none" stroke="midnightblue" d="M151.72,-551.49C153.06,-516.6 162.59,-394.53 230,-333 236.99,-326.62 245.76,-322.29 254.88,-319.38"/>
<polygon fill="midnightblue" stroke="midnightblue" points="256.06,-322.68 264.83,-316.74 254.26,-315.92 256.06,-322.68"/>
</g>
<!-- Node53 -->
<g id="node13" class="node">
<title>Node53</title>
<g id="a_node13"><a xlink:href="quickjs_8c.html#a9e7b4bccf927d811b0f99b40b08c0472" target="_top" xlink:title=" ">
<polygon fill="none" stroke="red" points="447.5,-494.5 447.5,-513.5 523.5,-513.5 523.5,-494.5 447.5,-494.5"/>
<text text-anchor="middle" x="485.5" y="-501.5" font-family="Helvetica,sans-Serif" font-size="10.00">free_var_ref</text>
</a>
</g>
</g>
<!-- Node2&#45;&gt;Node53 -->
<g id="edge14" class="edge">
<title>Node2&#45;&gt;Node53</title>
<path fill="none" stroke="midnightblue" d="M166.76,-551.46C182.1,-542.4 206.75,-529.25 230,-523 300.25,-504.11 385.08,-501.64 436.88,-502.29"/>
<polygon fill="midnightblue" stroke="midnightblue" points="437.05,-505.79 447.11,-502.47 437.17,-498.79 437.05,-505.79"/>
</g>
<!-- Node249 -->
<g id="node14" class="node">
<title>Node249</title>
<g id="a_node14"><a xlink:href="cutils_8h.html#a7c82a3ee025fee89db5b11ff5b7691b8" target="_top" xlink:title=" ">
<polygon fill="none" stroke="black" points="282,-266.5 282,-285.5 335,-285.5 335,-266.5 282,-266.5"/>
<text text-anchor="middle" x="308.5" y="-273.5" font-family="Helvetica,sans-Serif" font-size="10.00">get_i16</text>
</a>
</g>
</g>
<!-- Node2&#45;&gt;Node249 -->
<g id="edge15" class="edge">
<title>Node2&#45;&gt;Node249</title>
<path fill="none" stroke="midnightblue" d="M151.18,-551.3C150.46,-512.67 153.2,-368.31 230,-295 241.05,-284.46 256.95,-279.47 271.48,-277.21"/>
<polygon fill="midnightblue" stroke="midnightblue" points="272.21,-280.65 281.73,-276.01 271.39,-273.7 272.21,-280.65"/>
</g>
<!-- Node250 -->
<g id="node15" class="node">
<title>Node250</title>
<g id="a_node15"><a xlink:href="cutils_8h.html#a288ee4e688944e23500af2ecc813c306" target="_top" xlink:title=" ">
<polygon fill="none" stroke="black" points="285,-228.5 285,-247.5 332,-247.5 332,-228.5 285,-228.5"/>
<text text-anchor="middle" x="308.5" y="-235.5" font-family="Helvetica,sans-Serif" font-size="10.00">get_i8</text>
</a>
</g>
</g>
<!-- Node2&#45;&gt;Node250 -->
<g id="edge16" class="edge">
<title>Node2&#45;&gt;Node250</title>
<path fill="none" stroke="midnightblue" d="M152.68,-551.24C158.55,-504.07 186.18,-300.29 230,-257 241.69,-245.45 259.19,-240.53 274.6,-238.57"/>
<polygon fill="midnightblue" stroke="midnightblue" points="275.2,-242.03 284.84,-237.64 274.56,-235.05 275.2,-242.03"/>
</g>
<!-- Node251 -->
<g id="node16" class="node">
<title>Node251</title>
<g id="a_node16"><a xlink:href="cutils_8h.html#ad587834d17e95461893d59661e5e9676" target="_top" xlink:title=" ">
<polygon fill="none" stroke="black" points="280.5,-190.5 280.5,-209.5 336.5,-209.5 336.5,-190.5 280.5,-190.5"/>
<text text-anchor="middle" x="308.5" y="-197.5" font-family="Helvetica,sans-Serif" font-size="10.00">get_u16</text>
</a>
</g>
</g>
<!-- Node2&#45;&gt;Node251 -->
<g id="edge17" class="edge">
<title>Node2&#45;&gt;Node251</title>
<path fill="none" stroke="midnightblue" d="M152.36,-551.4C157.07,-501.1 181.26,-268.47 230,-219 240.48,-208.36 255.89,-203.31 270.2,-201.03"/>
<polygon fill="midnightblue" stroke="midnightblue" points="270.83,-204.48 280.35,-199.82 270.01,-197.53 270.83,-204.48"/>
</g>
<!-- Node49 -->
<g id="node17" class="node">
<title>Node49</title>
<g id="a_node17"><a xlink:href="cutils_8h.html#a941262a5f72fda2ec43ae7911e97a0dc" target="_top" xlink:title=" ">
<polygon fill="none" stroke="black" points="280.5,-152.5 280.5,-171.5 336.5,-171.5 336.5,-152.5 280.5,-152.5"/>
<text text-anchor="middle" x="308.5" y="-159.5" font-family="Helvetica,sans-Serif" font-size="10.00">get_u32</text>
</a>
</g>
</g>
<!-- Node2&#45;&gt;Node49 -->
<g id="edge18" class="edge">
<title>Node2&#45;&gt;Node49</title>
<path fill="none" stroke="midnightblue" d="M152.12,-551.42C155.8,-497.92 176.35,-236.65 230,-181 240.37,-170.25 255.75,-165.18 270.08,-162.92"/>
<polygon fill="midnightblue" stroke="midnightblue" points="270.73,-166.37 280.25,-161.73 269.91,-159.41 270.73,-166.37"/>
</g>
<!-- Node252 -->
<g id="node18" class="node">
<title>Node252</title>
<g id="a_node18"><a xlink:href="quickjs_8c.html#a37fe43b6649456a848bd54846450b995" target="_top" xlink:title=" ">
<polygon fill="none" stroke="red" points="449.5,-456.5 449.5,-475.5 521.5,-475.5 521.5,-456.5 449.5,-456.5"/>
<text text-anchor="middle" x="485.5" y="-463.5" font-family="Helvetica,sans-Serif" font-size="10.00">get_var_ref</text>
</a>
</g>
</g>
<!-- Node2&#45;&gt;Node252 -->
<g id="edge19" class="edge">
<title>Node2&#45;&gt;Node252</title>
<path fill="none" stroke="midnightblue" d="M160.53,-551.06C174.09,-536.86 201.19,-511.14 230,-499 298.76,-470.03 386.46,-464.84 438.91,-464.72"/>
<polygon fill="midnightblue" stroke="midnightblue" points="439.21,-468.22 449.22,-464.76 439.24,-461.22 439.21,-468.22"/>
</g>
<!-- Node195 -->
<g id="node19" class="node">
<title>Node195</title>
<g id="a_node19"><a xlink:href="list_8h.html#a663527a4d757540b2177bef0db1ce5c0" target="_top" xlink:title=" ">
<polygon fill="none" stroke="black" points="267.5,-114.5 267.5,-133.5 349.5,-133.5 349.5,-114.5 267.5,-114.5"/>
<text text-anchor="middle" x="308.5" y="-121.5" font-family="Helvetica,sans-Serif" font-size="10.00">init_list_head</text>
</a>
</g>
</g>
<!-- Node2&#45;&gt;Node195 -->
<g id="edge20" class="edge">
<title>Node2&#45;&gt;Node195</title>
<path fill="none" stroke="midnightblue" d="M151.94,-551.22C154.7,-494.19 171.5,-204.8 230,-143 237.29,-135.3 247.15,-130.51 257.39,-127.57"/>
<polygon fill="midnightblue" stroke="midnightblue" points="258.3,-130.95 267.25,-125.29 256.72,-124.13 258.3,-130.95"/>
</g>
<!-- Node253 -->
<g id="node20" class="node">
<title>Node253</title>
<g id="a_node20"><a xlink:href="quickjs_8c.html#a2bb0a2ca3b8320f3ff778c65034fce49" target="_top" xlink:title=" ">
<polygon fill="none" stroke="red" points="249,-76.5 249,-95.5 368,-95.5 368,-76.5 249,-76.5"/>
<text text-anchor="middle" x="308.5" y="-83.5" font-family="Helvetica,sans-Serif" font-size="10.00">is_backtrace_needed</text>
</a>
</g>
</g>
<!-- Node2&#45;&gt;Node253 -->
<g id="edge21" class="edge">
<title>Node2&#45;&gt;Node253</title>
<path fill="none" stroke="midnightblue" d="M151.78,-551.14C153.67,-490.91 166.59,-173.01 230,-105 232.84,-101.95 236.09,-99.36 239.6,-97.15"/>
<polygon fill="midnightblue" stroke="midnightblue" points="241.5,-100.11 248.8,-92.44 238.31,-93.88 241.5,-100.11"/>
</g>
<!-- Node179 -->
<g id="node21" class="node">
<title>Node179</title>
<g id="a_node21"><a xlink:href="quickjs_8c.html#a686cf78f8b0361621ee2ba6182195c31" target="_top" xlink:title=" ">
<polygon fill="none" stroke="black" points="264.5,-38.5 264.5,-57.5 352.5,-57.5 352.5,-38.5 264.5,-38.5"/>
<text text-anchor="middle" x="308.5" y="-45.5" font-family="Helvetica,sans-Serif" font-size="10.00">is_strict_mode</text>
</a>
</g>
</g>
<!-- Node2&#45;&gt;Node179 -->
<g id="edge22" class="edge">
<title>Node2&#45;&gt;Node179</title>
<path fill="none" stroke="midnightblue" d="M151.63,-551.15C152.7,-488.1 161.63,-141.28 230,-67 236.55,-59.89 245.28,-55.24 254.52,-52.25"/>
<polygon fill="midnightblue" stroke="midnightblue" points="255.49,-55.61 264.27,-49.69 253.71,-48.84 255.49,-55.61"/>
</g>
<!-- Node255 -->
<g id="node22" class="node">
<title>Node255</title>
<g id="a_node22"><a xlink:href="quickjs_8c.html#ae8ff05447c0d51fe277baccf616dc7c6" target="_top" xlink:title=" ">
<polygon fill="none" stroke="red" points="447.5,-969.5 447.5,-988.5 523.5,-988.5 523.5,-969.5 447.5,-969.5"/>
<text text-anchor="middle" x="485.5" y="-976.5" font-family="Helvetica,sans-Serif" font-size="10.00">js_add_slow</text>
</a>
</g>
</g>
<!-- Node2&#45;&gt;Node255 -->
<g id="edge23" class="edge">
<title>Node2&#45;&gt;Node255</title>
<path fill="none" stroke="midnightblue" d="M151.72,-570.62C153.26,-628.02 164.37,-924.54 230,-979 292.13,-1030.55 395.23,-1008.51 449.15,-991.67"/>
<polygon fill="midnightblue" stroke="midnightblue" points="450.51,-994.91 458.94,-988.5 448.35,-988.25 450.51,-994.91"/>
</g>
<!-- Node262 -->
<g id="node23" class="node">
<title>Node262</title>
<g id="a_node23"><a xlink:href="quickjs_8c.html#a6a21784a40b8684f2e779bd460dd13b2" target="_top" xlink:title=" ">
<polygon fill="none" stroke="red" points="269.5,-722.5 269.5,-741.5 347.5,-741.5 347.5,-722.5 269.5,-722.5"/>
<text text-anchor="middle" x="308.5" y="-729.5" font-family="Helvetica,sans-Serif" font-size="10.00">JS_AddBrand</text>
</a>
</g>
</g>
<!-- Node2&#45;&gt;Node262 -->
<g id="edge25" class="edge">
<title>Node2&#45;&gt;Node262</title>
<path fill="none" stroke="midnightblue" d="M153.54,-570.6C159.77,-597.58 181.24,-674.59 230,-713 238.41,-719.63 248.81,-723.98 259.23,-726.84"/>
<polygon fill="midnightblue" stroke="midnightblue" points="258.62,-730.29 269.16,-729.14 260.2,-723.47 258.62,-730.29"/>
</g>
<!-- Node265 -->
<g id="node24" class="node">
<title>Node265</title>
<g id="a_node24"><a xlink:href="quickjs_8c.html#a43208b0746998d2b6b9b8bd1ef8b5f99" target="_top" xlink:title=" ">
<polygon fill="none" stroke="red" points="246,-912.5 246,-931.5 371,-931.5 371,-912.5 246,-912.5"/>
<text text-anchor="middle" x="308.5" y="-919.5" font-family="Helvetica,sans-Serif" font-size="10.00">js_append_enumerate</text>
</a>
</g>
</g>
<!-- Node2&#45;&gt;Node265 -->
<g id="edge28" class="edge">
<title>Node2&#45;&gt;Node265</title>
<path fill="none" stroke="midnightblue" d="M152.47,-570.74C157.64,-620.72 183.44,-847.99 230,-898 233.57,-901.83 237.73,-905.06 242.25,-907.77"/>
<polygon fill="midnightblue" stroke="midnightblue" points="240.8,-910.96 251.29,-912.38 243.98,-904.72 240.8,-910.96"/>
</g>
<!-- Node97 -->
<g id="node25" class="node">
<title>Node97</title>
<g id="a_node25"><a xlink:href="quickjs_8c.html#a260bfa297ff6cb5bd18e229afaa54663" target="_top" xlink:title=" ">
<polygon fill="none" stroke="red" points="260.5,-0.5 260.5,-19.5 356.5,-19.5 356.5,-0.5 260.5,-0.5"/>
<text text-anchor="middle" x="308.5" y="-7.5" font-family="Helvetica,sans-Serif" font-size="10.00">JS_AtomToString</text>
</a>
</g>
</g>
<!-- Node2&#45;&gt;Node97 -->
<g id="edge31" class="edge">
<title>Node2&#45;&gt;Node97</title>
<path fill="none" stroke="midnightblue" d="M151.51,-551.26C151.8,-485.76 156.63,-109.61 230,-29 235.57,-22.88 242.76,-18.58 250.51,-15.59"/>
<polygon fill="midnightblue" stroke="midnightblue" points="251.68,-18.89 260.16,-12.55 249.58,-12.21 251.68,-18.89"/>
</g>
<!-- Node291 -->
<g id="node26" class="node">
<title>Node291</title>
<g id="a_node26"><a xlink:href="quickjs_8c.html#afa67965c1017685fc6783776d6d0d4d7" target="_top" xlink:title=" ">
<polygon fill="none" stroke="red" points="261,-1026.5 261,-1045.5 356,-1045.5 356,-1026.5 261,-1026.5"/>
<text text-anchor="middle" x="308.5" y="-1033.5" font-family="Helvetica,sans-Serif" font-size="10.00">JS_AtomToValue</text>
</a>
</g>
</g>
<!-- Node2&#45;&gt;Node291 -->
<g id="edge32" class="edge">
<title>Node2&#45;&gt;Node291</title>
<path fill="none" stroke="midnightblue" d="M151.85,-570.7C154.18,-629.97 169.24,-942.92 230,-1012 235.75,-1018.54 243.24,-1023.32 251.3,-1026.81"/>
<polygon fill="midnightblue" stroke="midnightblue" points="250.35,-1030.19 260.95,-1030.34 252.76,-1023.61 250.35,-1030.19"/>
</g>
<!-- Node292 -->
<g id="node27" class="node">
<title>Node292</title>
<g id="a_node27"><a xlink:href="quickjs_8c.html#a04d312757919ff6b4d79cd0c2c3e5bb2" target="_top" xlink:title=" ">
<polygon fill="none" stroke="red" points="252.5,-684.5 252.5,-703.5 364.5,-703.5 364.5,-684.5 252.5,-684.5"/>
<text text-anchor="middle" x="308.5" y="-691.5" font-family="Helvetica,sans-Serif" font-size="10.00">js_build_arguments</text>
</a>
</g>
</g>
<!-- Node2&#45;&gt;Node292 -->
<g id="edge33" class="edge">
<title>Node2&#45;&gt;Node292</title>
<path fill="none" stroke="midnightblue" d="M155.84,-570.78C165.79,-592.07 192.32,-642.9 230,-670 236.05,-674.35 242.92,-677.93 250,-680.87"/>
<polygon fill="midnightblue" stroke="midnightblue" points="249.14,-684.29 259.73,-684.5 251.58,-677.73 249.14,-684.29"/>
</g>
<!-- Node293 -->
<g id="node28" class="node">
<title>Node293</title>
<g id="a_node28"><a xlink:href="quickjs_8c.html#a1c459034f2971c4abc3a8d6d4693ef5f" target="_top" xlink:title=" ">
<polygon fill="none" stroke="red" points="230,-532.5 230,-551.5 387,-551.5 387,-532.5 230,-532.5"/>
<text text-anchor="middle" x="308.5" y="-539.5" font-family="Helvetica,sans-Serif" font-size="10.00">js_build_mapped_arguments</text>
</a>
</g>
</g>
<!-- Node2&#45;&gt;Node293 -->
<g id="edge36" class="edge">
<title>Node2&#45;&gt;Node293</title>
<path fill="none" stroke="midnightblue" d="M194.13,-555.81C202.19,-554.83 210.89,-553.77 219.76,-552.69"/>
<polygon fill="midnightblue" stroke="midnightblue" points="220.33,-556.14 229.83,-551.46 219.48,-549.19 220.33,-556.14"/>
</g>
<!-- Node294 -->
<g id="node29" class="node">
<title>Node294</title>
<g id="a_node29"><a xlink:href="quickjs_8c.html#a72f4829a5b32f5445fe3f2a59efeb8ea" target="_top" xlink:title=" ">
<polygon fill="none" stroke="red" points="446.5,-760.5 446.5,-779.5 524.5,-779.5 524.5,-760.5 446.5,-760.5"/>
<text text-anchor="middle" x="485.5" y="-767.5" font-family="Helvetica,sans-Serif" font-size="10.00">js_build_rest</text>
</a>
</g>
</g>
<!-- Node2&#45;&gt;Node294 -->
<g id="edge42" class="edge">
<title>Node2&#45;&gt;Node294</title>
<path fill="none" stroke="midnightblue" d="M152.11,-570.6C154.72,-602.57 167.85,-705.99 230,-751 290.3,-794.67 381.1,-789.19 436.37,-780.28"/>
<polygon fill="midnightblue" stroke="midnightblue" points="436.99,-783.72 446.26,-778.58 435.81,-776.82 436.99,-783.72"/>
</g>
<!-- Node285 -->
<g id="node30" class="node">
<title>Node285</title>
<g id="a_node30"><a xlink:href="quickjs_8c.html#a1a4c02a29525d5cb2085dd8bca3af350" target="_top" xlink:title=" ">
<polygon fill="none" stroke="black" points="283.5,-950.5 283.5,-969.5 333.5,-969.5 333.5,-950.5 283.5,-950.5"/>
<text text-anchor="middle" x="308.5" y="-957.5" font-family="Helvetica,sans-Serif" font-size="10.00">JS_Call</text>
</a>
</g>
</g>
<!-- Node2&#45;&gt;Node285 -->
<g id="edge44" class="edge">
<title>Node2&#45;&gt;Node285</title>
<path fill="none" stroke="midnightblue" d="M152.33,-570.72C156.53,-624.12 177.29,-877.32 230,-932 241.09,-943.51 257.93,-948.5 273.08,-951.34"/>
<polygon fill="midnightblue" stroke="midnightblue" points="272.77,-954.84 283.2,-953.01 273.91,-947.93 272.77,-954.84"/>
</g>
<!-- Node64&#45;&gt;Node3 -->
<g id="edge7" class="edge">
<title>Node64&#45;&gt;Node3</title>
<path fill="none" stroke="midnightblue" d="M349.65,-854.72C375.15,-860.26 408.33,-867.46 435.4,-873.34"/>
<polygon fill="midnightblue" stroke="midnightblue" points="434.93,-876.82 445.44,-875.52 436.41,-869.98 434.93,-876.82"/>
</g>
<!-- Node64&#45;&gt;Node65 -->
<g id="edge8" class="edge">
<title>Node64&#45;&gt;Node65</title>
<path fill="none" stroke="midnightblue" d="M349.65,-837.28C375.6,-831.65 409.5,-824.29 436.82,-818.35"/>
<polygon fill="midnightblue" stroke="midnightblue" points="437.9,-821.7 446.93,-816.16 436.42,-814.86 437.9,-821.7"/>
</g>
<!-- Node65&#45;&gt;Node56 -->
<g id="edge9" class="edge">
<title>Node65&#45;&gt;Node56</title>
<path fill="none" stroke="midnightblue" d="M520.82,-798.41C538.29,-793.53 559.74,-787.54 578.43,-782.32"/>
<polygon fill="midnightblue" stroke="midnightblue" points="579.5,-785.65 588.19,-779.59 577.62,-778.91 579.5,-785.65"/>
</g>
<!-- Node255&#45;&gt;Node56 -->
<g id="edge24" class="edge">
<title>Node255&#45;&gt;Node56</title>
<path fill="none" stroke="midnightblue" d="M505.21,-969.49C518.57,-961.92 536.21,-950.25 548,-936 585.81,-890.3 608.24,-822.33 617.5,-789.35"/>
<polygon fill="midnightblue" stroke="midnightblue" points="620.91,-790.15 620.14,-779.59 614.15,-788.33 620.91,-790.15"/>
</g>
<!-- Node262&#45;&gt;Node6 -->
<g id="edge26" class="edge">
<title>Node262&#45;&gt;Node6</title>
<path fill="none" stroke="midnightblue" d="M347.64,-724.95C360.4,-721.99 374.54,-718.04 387,-713 414.46,-701.88 443.46,-684.04 462.63,-671.27"/>
<polygon fill="midnightblue" stroke="midnightblue" points="464.63,-674.15 470.95,-665.64 460.7,-668.35 464.63,-674.15"/>
</g>
<!-- Node262&#45;&gt;Node56 -->
<g id="edge27" class="edge">
<title>Node262&#45;&gt;Node56</title>
<path fill="none" stroke="midnightblue" d="M347.75,-733.04C395.06,-734.79 477.93,-739.36 548,-751 558.58,-752.76 569.85,-755.28 580.34,-757.92"/>
<polygon fill="midnightblue" stroke="midnightblue" points="579.56,-761.33 590.12,-760.46 581.32,-754.56 579.56,-761.33"/>
</g>
<!-- Node265&#45;&gt;Node3 -->
<g id="edge29" class="edge">
<title>Node265&#45;&gt;Node3</title>
<path fill="none" stroke="midnightblue" d="M353.66,-912.41C378.6,-907 409.82,-900.22 435.51,-894.64"/>
<polygon fill="midnightblue" stroke="midnightblue" points="436.39,-898.03 445.42,-892.49 434.91,-891.19 436.39,-898.03"/>
</g>
<!-- Node265&#45;&gt;Node56 -->
<g id="edge30" class="edge">
<title>Node265&#45;&gt;Node56</title>
<path fill="none" stroke="midnightblue" d="M364.78,-931.51C416.32,-937.36 493.27,-938.07 548,-903 589.08,-876.68 609.63,-819.29 617.91,-789.23"/>
<polygon fill="midnightblue" stroke="midnightblue" points="621.32,-790.06 620.43,-779.5 614.54,-788.31 621.32,-790.06"/>
</g>
<!-- Node292&#45;&gt;Node6 -->
<g id="edge34" class="edge">
<title>Node292&#45;&gt;Node6</title>
<path fill="none" stroke="midnightblue" d="M353.66,-684.41C378.42,-679.03 409.38,-672.31 434.96,-666.76"/>
<polygon fill="midnightblue" stroke="midnightblue" points="435.81,-670.15 444.84,-664.61 434.32,-663.31 435.81,-670.15"/>
</g>
<!-- Node292&#45;&gt;Node56 -->
<g id="edge35" class="edge">
<title>Node292&#45;&gt;Node56</title>
<path fill="none" stroke="midnightblue" d="M364.58,-698.3C413.64,-703.24 486.9,-713.32 548,-733 565.31,-738.57 583.62,-747.62 597.76,-755.37"/>
<polygon fill="midnightblue" stroke="midnightblue" points="596.38,-758.61 606.81,-760.47 599.82,-752.51 596.38,-758.61"/>
</g>
<!-- Node293&#45;&gt;Node4 -->
<g id="edge37" class="edge">
<title>Node293&#45;&gt;Node4</title>
<path fill="none" stroke="midnightblue" d="M353.66,-551.59C377.07,-556.67 406.01,-562.96 430.71,-568.32"/>
<polygon fill="midnightblue" stroke="midnightblue" points="430.14,-571.78 440.66,-570.48 431.63,-564.94 430.14,-571.78"/>
</g>
<!-- Node293&#45;&gt;Node6 -->
<g id="edge38" class="edge">
<title>Node293&#45;&gt;Node6</title>
<path fill="none" stroke="midnightblue" d="M324.12,-551.52C354.41,-571.26 424.26,-616.76 460.98,-640.68"/>
<polygon fill="midnightblue" stroke="midnightblue" points="459.26,-643.74 469.55,-646.26 463.08,-637.87 459.26,-643.74"/>
</g>
<!-- Node293&#45;&gt;Node56 -->
<g id="edge41" class="edge">
<title>Node293&#45;&gt;Node56</title>
<path fill="none" stroke="midnightblue" d="M353.19,-532.45C405.17,-523.76 491.95,-518.04 548,-561 608.77,-607.58 620.09,-707.83 622.11,-750.32"/>
<polygon fill="midnightblue" stroke="midnightblue" points="618.61,-750.59 622.46,-760.47 625.61,-750.35 618.61,-750.59"/>
</g>
<!-- Node293&#45;&gt;Node53 -->
<g id="edge39" class="edge">
<title>Node293&#45;&gt;Node53</title>
<path fill="none" stroke="midnightblue" d="M353.66,-532.41C379.23,-526.86 411.39,-519.87 437.44,-514.22"/>
<polygon fill="midnightblue" stroke="midnightblue" points="438.42,-517.59 447.45,-512.04 436.94,-510.75 438.42,-517.59"/>
</g>
<!-- Node293&#45;&gt;Node252 -->
<g id="edge40" class="edge">
<title>Node293&#45;&gt;Node252</title>
<path fill="none" stroke="midnightblue" d="M326.4,-532.4C348.22,-520.26 387.61,-499.24 423,-485 428.51,-482.78 434.39,-480.67 440.24,-478.7"/>
<polygon fill="midnightblue" stroke="midnightblue" points="441.55,-481.96 449.99,-475.56 439.4,-475.3 441.55,-481.96"/>
</g>
<!-- Node294&#45;&gt;Node56 -->
<g id="edge43" class="edge">
<title>Node294&#45;&gt;Node56</title>
<path fill="none" stroke="midnightblue" d="M524.75,-770C539.83,-770 557.34,-770 573.34,-770"/>
<polygon fill="midnightblue" stroke="midnightblue" points="573.6,-773.5 583.6,-770 573.6,-766.5 573.6,-773.5"/>
</g>
<!-- Node285&#45;&gt;Node2 -->
<g id="edge45" class="edge">
<title>Node285&#45;&gt;Node2</title>
<path fill="none" stroke="midnightblue" d="M283.2,-967.94C266,-968.46 243.65,-964.16 230,-950 178.41,-896.48 157.43,-652.83 152.62,-580.87"/>
<polygon fill="midnightblue" stroke="midnightblue" points="156.11,-580.61 151.99,-570.85 149.13,-581.05 156.11,-580.61"/>
</g>
</g>
</svg>
        <g id="navigator" transform="translate(0 0)" fill="#404254">
                <rect fill="#f2f5e9" fill-opacity="0.5" stroke="#606060" stroke-width=".5" x="0" y="0" width="60" height="60"/>
                <use id="zoomplus" xlink:href="#zoomPlus" x="17" y="9" onmousedown="handleZoom(evt,'in')"/>
                <use id="zoomminus" xlink:href="#zoomMin" x="42" y="9" onmousedown="handleZoom(evt,'out')"/>
                <use id="reset" xlink:href="#resetDef" x="30" y="36" onmousedown="handleReset()"/>
                <g id="arrowUp" xlink:href="#dirArrow" transform="translate(30 24)" onmousedown="handlePan(0,-1)">
                  <use xlink:href="#rim" fill="#404040">
                        <set attributeName="fill" to="#808080" begin="arrowUp.mouseover" end="arrowUp.mouseout"/>
                  </use>
                  <path fill="none" stroke="white" stroke-width="1.5" d="M0,-3.0v7 M-2.5,-0.5L0,-3.0L2.5,-0.5"/>
                </g>
                <g id="arrowRight" xlink:href="#dirArrow" transform="rotate(90) translate(36 -43)" onmousedown="handlePan(1,0)">
                  <use xlink:href="#rim" fill="#404040">
                        <set attributeName="fill" to="#808080" begin="arrowRight.mouseover" end="arrowRight.mouseout"/>
                  </use>
                  <path fill="none" stroke="white" stroke-width="1.5" d="M0,-3.0v7 M-2.5,-0.5L0,-3.0L2.5,-0.5"/>
                </g>
                <g id="arrowDown" xlink:href="#dirArrow" transform="rotate(180) translate(-30 -48)" onmousedown="handlePan(0,1)">
                  <use xlink:href="#rim" fill="#404040">
                        <set attributeName="fill" to="#808080" begin="arrowDown.mouseover" end="arrowDown.mouseout"/>
                  </use>
                  <path fill="none" stroke="white" stroke-width="1.5" d="M0,-3.0v7 M-2.5,-0.5L0,-3.0L2.5,-0.5"/>
                </g>
                <g id="arrowLeft" xlink:href="#dirArrow" transform="rotate(270) translate(-36 17)" onmousedown="handlePan(-1,0)">
                  <use xlink:href="#rim" fill="#404040">
                        <set attributeName="fill" to="#808080" begin="arrowLeft.mouseover" end="arrowLeft.mouseout"/>
                  </use>
                  <path fill="none" stroke="white" stroke-width="1.5" d="M0,-3.0v7 M-2.5,-0.5L0,-3.0L2.5,-0.5"/>
                </g>
        </g>
        <svg viewBox="0 0 15 15" width="100%" height="30px" preserveAspectRatio="xMaxYMin meet">
         <g id="arrow_out" transform="scale(0.3 0.3)">
          <a xlink:href="quickjs_8c_a75f6ee5e4235a7dc99889f3d2eb2c147_cgraph_org.svg" target="_base">
           <rect id="button" ry="5" rx="5" y="6" x="6" height="38" width="38"
                fill="#f2f5e9" fill-opacity="0.5" stroke="#606060" stroke-width="1.0"/>
           <path id="arrow"
             d="M 11.500037,31.436501 C 11.940474,20.09759 22.043105,11.32322 32.158766,21.979434 L 37.068811,17.246167 C 37.068811,17.246167 37.088388,32 37.088388,32 L 22.160133,31.978069 C 22.160133,31.978069 26.997745,27.140456 26.997745,27.140456 C 18.528582,18.264221 13.291696,25.230495 11.500037,31.436501 z"
             style="fill:#404040;"/>
          </a>
         </g>
        </svg>
</svg>
