<?xml version="1.0" encoding="UTF-8" standalone="no"?>
<!DOCTYPE svg PUBLIC "-//W3C//DTD SVG 1.1//EN"
 "http://www.w3.org/Graphics/SVG/1.1/DTD/svg11.dtd">
<!-- Generated by graphviz version 2.43.0 (0)
 -->
<!-- Title: js_array_toString Pages: 1 -->
<svg width="797pt" height="1180pt"
 viewBox="0.00 0.00 797.00 1180.26" xmlns="http://www.w3.org/2000/svg" xmlns:xlink="http://www.w3.org/1999/xlink">
<g id="graph0" class="graph" transform="scale(1 1) rotate(0) translate(4 1176.26)">
<title>js_array_toString</title>
<!-- Node1 -->
<g id="node1" class="node">
<title>Node1</title>
<g id="a_node1"><a xlink:title=" ">
<polygon fill="#bfbfbf" stroke="black" points="0,-314.01 0,-333.01 99,-333.01 99,-314.01 0,-314.01"/>
<text text-anchor="middle" x="49.5" y="-321.01" font-family="Helvetica,sans-Serif" font-size="10.00">js_array_toString</text>
</a>
</g>
</g>
<!-- Node2 -->
<g id="node2" class="node">
<title>Node2</title>
<g id="a_node2"><a xlink:href="quickjs_8c.html#a75f6ee5e4235a7dc99889f3d2eb2c147" target="_top" xlink:title=" ">
<polygon fill="none" stroke="black" points="135,-732.01 135,-751.01 206,-751.01 206,-732.01 135,-732.01"/>
<text text-anchor="middle" x="170.5" y="-739.01" font-family="Helvetica,sans-Serif" font-size="10.00">JS_CallFree</text>
</a>
</g>
</g>
<!-- Node1&#45;&gt;Node2 -->
<g id="edge1" class="edge">
<title>Node1&#45;&gt;Node2</title>
<path fill="none" stroke="midnightblue" d="M53.21,-333.03C68.38,-386.31 142.86,-647.94 163.93,-721.96"/>
<polygon fill="midnightblue" stroke="midnightblue" points="160.64,-723.17 166.74,-731.83 167.37,-721.25 160.64,-723.17"/>
</g>
<!-- Node57 -->
<g id="node10" class="node">
<title>Node57</title>
<g id="a_node10"><a xlink:href="quickjs_8h.html#afaa20c47565bc704c6c85f3d77254e7d" target="_top" xlink:title=" ">
<polygon fill="none" stroke="red" points="710,-405.01 710,-424.01 789,-424.01 789,-405.01 710,-405.01"/>
<text text-anchor="middle" x="749.5" y="-412.01" font-family="Helvetica,sans-Serif" font-size="10.00">JS_FreeValue</text>
</a>
</g>
</g>
<!-- Node1&#45;&gt;Node57 -->
<g id="edge46" class="edge">
<title>Node1&#45;&gt;Node57</title>
<path fill="none" stroke="midnightblue" d="M52.58,-313.85C64.79,-260.1 132.07,-0.51 293,-0.51 293,-0.51 293,-0.51 445.5,-0.51 551.71,-0.51 602.11,7.68 674,-70.51 718.48,-118.89 740.81,-328.81 746.81,-394.67"/>
<polygon fill="midnightblue" stroke="midnightblue" points="743.35,-395.25 747.71,-404.91 750.32,-394.64 743.35,-395.25"/>
</g>
<!-- Node75 -->
<g id="node12" class="node">
<title>Node75</title>
<g id="a_node12"><a xlink:href="quickjs_8h.html#ad80a83d73e9b7d872b88fbf2943aebe9" target="_top" xlink:title=" ">
<polygon fill="none" stroke="black" points="565,-352.01 565,-371.01 652,-371.01 652,-352.01 565,-352.01"/>
<text text-anchor="middle" x="608.5" y="-359.01" font-family="Helvetica,sans-Serif" font-size="10.00">JS_IsException</text>
</a>
</g>
</g>
<!-- Node1&#45;&gt;Node75 -->
<g id="edge48" class="edge">
<title>Node1&#45;&gt;Node75</title>
<path fill="none" stroke="midnightblue" d="M58.19,-313.72C103.45,-257.22 339.02,20.59 507,-95.51 590.82,-153.44 604.81,-290.86 607.08,-341.94"/>
<polygon fill="midnightblue" stroke="midnightblue" points="603.59,-342.1 607.42,-351.98 610.58,-341.87 603.59,-342.1"/>
</g>
<!-- Node68 -->
<g id="node21" class="node">
<title>Node68</title>
<g id="a_node21"><a xlink:href="quickjs_8h.html#a89b7c8686c7eee70b86be722ee4730ad" target="_top" xlink:title=" ">
<polygon fill="none" stroke="black" points="400,-979.01 400,-998.01 489,-998.01 489,-979.01 400,-979.01"/>
<text text-anchor="middle" x="444.5" y="-986.01" font-family="Helvetica,sans-Serif" font-size="10.00">JS_GetProperty</text>
</a>
</g>
</g>
<!-- Node1&#45;&gt;Node68 -->
<g id="edge47" class="edge">
<title>Node1&#45;&gt;Node68</title>
<path fill="none" stroke="midnightblue" d="M51.42,-333.02C57.08,-389.84 88.31,-684.45 135,-760.51 202.93,-871.19 346.36,-945.54 410.86,-974.69"/>
<polygon fill="midnightblue" stroke="midnightblue" points="409.59,-977.96 420.15,-978.82 412.44,-971.56 409.59,-977.96"/>
</g>
<!-- Node278 -->
<g id="node25" class="node">
<title>Node278</title>
<g id="a_node25"><a xlink:href="quickjs_8c.html#a710289a14c2810467e5b448d3c28bd55" target="_top" xlink:title=" ">
<polygon fill="none" stroke="red" points="408,-523.01 408,-542.01 481,-542.01 481,-523.01 408,-523.01"/>
<text text-anchor="middle" x="444.5" y="-530.01" font-family="Helvetica,sans-Serif" font-size="10.00">JS_ToObject</text>
</a>
</g>
</g>
<!-- Node1&#45;&gt;Node278 -->
<g id="edge65" class="edge">
<title>Node1&#45;&gt;Node278</title>
<path fill="none" stroke="midnightblue" d="M68.41,-333.04C131.19,-366.42 341.58,-478.31 416.62,-518.22"/>
<polygon fill="midnightblue" stroke="midnightblue" points="415.01,-521.33 425.49,-522.93 418.3,-515.15 415.01,-521.33"/>
</g>
<!-- Node124 -->
<g id="node26" class="node">
<title>Node124</title>
<g id="a_node26"><a xlink:href="quickjs_8c.html#a1ca9cdb1fa2ffc3e6506e92b200e490f" target="_top" xlink:title=" ">
<polygon fill="none" stroke="black" points="404.5,-105.01 404.5,-124.01 484.5,-124.01 484.5,-105.01 404.5,-105.01"/>
<text text-anchor="middle" x="444.5" y="-112.01" font-family="Helvetica,sans-Serif" font-size="10.00">JS_IsFunction</text>
</a>
</g>
</g>
<!-- Node1&#45;&gt;Node124 -->
<g id="edge49" class="edge">
<title>Node1&#45;&gt;Node124</title>
<path fill="none" stroke="midnightblue" d="M68.41,-313.99C131.19,-280.6 341.58,-168.71 416.62,-128.81"/>
<polygon fill="midnightblue" stroke="midnightblue" points="418.3,-131.88 425.49,-124.09 415.01,-125.7 418.3,-131.88"/>
</g>
<!-- Node437 -->
<g id="node27" class="node">
<title>Node437</title>
<g id="a_node27"><a xlink:href="quickjs_8c.html#ae69c38078aefed427b6c0d7b6870bd9c" target="_top" xlink:title=" ">
<polygon fill="none" stroke="black" points="242,-314.01 242,-333.01 346,-333.01 346,-314.01 242,-314.01"/>
<text text-anchor="middle" x="294" y="-321.01" font-family="Helvetica,sans-Serif" font-size="10.00">js_object_toString</text>
</a>
</g>
</g>
<!-- Node1&#45;&gt;Node437 -->
<g id="edge50" class="edge">
<title>Node1&#45;&gt;Node437</title>
<path fill="none" stroke="midnightblue" d="M99.28,-323.51C137.41,-323.51 190.63,-323.51 231.64,-323.51"/>
<polygon fill="midnightblue" stroke="midnightblue" points="231.79,-327.01 241.79,-323.51 231.79,-320.01 231.79,-327.01"/>
</g>
<!-- Node3 -->
<g id="node3" class="node">
<title>Node3</title>
<g id="a_node3"><a xlink:href="quickjs_8c.html#ac2894ff4edcdb4e6841bcce9c76081e3" target="_top" xlink:title=" ">
<polygon fill="none" stroke="red" points="250.5,-732.01 250.5,-751.01 337.5,-751.01 337.5,-732.01 250.5,-732.01"/>
<text text-anchor="middle" x="294" y="-739.01" font-family="Helvetica,sans-Serif" font-size="10.00">JS_CallInternal</text>
</a>
</g>
</g>
<!-- Node2&#45;&gt;Node3 -->
<g id="edge2" class="edge">
<title>Node2&#45;&gt;Node3</title>
<path fill="none" stroke="midnightblue" d="M206.32,-735.34C216.84,-734.84 228.64,-734.67 240.07,-734.81"/>
<polygon fill="midnightblue" stroke="midnightblue" points="240.33,-738.32 250.41,-735.04 240.49,-731.32 240.33,-738.32"/>
</g>
<!-- Node2&#45;&gt;Node57 -->
<g id="edge45" class="edge">
<title>Node2&#45;&gt;Node57</title>
<path fill="none" stroke="midnightblue" d="M171.55,-731.89C172.12,-683.93 178.23,-466.47 242,-304.51 282.96,-200.48 283.37,-148.16 382,-95.51 500.4,-32.31 585.63,-71.49 674,-172.51 732.04,-238.86 744.87,-349.77 747.7,-394.7"/>
<polygon fill="midnightblue" stroke="midnightblue" points="744.21,-395.06 748.23,-404.87 751.2,-394.7 744.21,-395.06"/>
</g>
<!-- Node3&#45;&gt;Node2 -->
<g id="edge24" class="edge">
<title>Node3&#45;&gt;Node2</title>
<path fill="none" stroke="midnightblue" d="M250.41,-747.99C239.48,-748.33 227.69,-748.35 216.63,-748.06"/>
<polygon fill="midnightblue" stroke="midnightblue" points="216.44,-744.55 206.32,-747.68 216.18,-751.55 216.44,-744.55"/>
</g>
<!-- Node3&#45;&gt;Node3 -->
<g id="edge25" class="edge">
<title>Node3&#45;&gt;Node3</title>
<path fill="none" stroke="midnightblue" d="M275.2,-751.27C266.05,-760.08 272.32,-769.51 294,-769.51 307.89,-769.51 315.46,-765.64 316.69,-760.54"/>
<polygon fill="midnightblue" stroke="midnightblue" points="319.9,-759.14 312.8,-751.27 313.44,-761.84 319.9,-759.14"/>
</g>
<!-- Node4 -->
<g id="node4" class="node">
<title>Node4</title>
<g id="a_node4"><a xlink:href="quickjs_8c.html#a853f0924d441ea4225488f37c8b69f9a" target="_top" xlink:title=" ">
<polygon fill="none" stroke="black" points="568.5,-903.01 568.5,-922.01 648.5,-922.01 648.5,-903.01 568.5,-903.01"/>
<text text-anchor="middle" x="608.5" y="-910.01" font-family="Helvetica,sans-Serif" font-size="10.00">__attribute__</text>
</a>
</g>
</g>
<!-- Node3&#45;&gt;Node4 -->
<g id="edge3" class="edge">
<title>Node3&#45;&gt;Node4</title>
<path fill="none" stroke="midnightblue" d="M297.2,-751.15C304.11,-778.89 328.16,-859.19 382,-893.51 434.89,-927.23 509.51,-926.28 558.19,-920.79"/>
<polygon fill="midnightblue" stroke="midnightblue" points="558.67,-924.26 568.16,-919.56 557.81,-917.31 558.67,-924.26"/>
</g>
<!-- Node5 -->
<g id="node5" class="node">
<title>Node5</title>
<g id="a_node5"><a xlink:href="quickjs_8c.html#a877fcb7651d95b411ce70e62b7f4a1f0" target="_top" xlink:title=" ">
<polygon fill="none" stroke="black" points="382,-789.01 382,-808.01 507,-808.01 507,-789.01 382,-789.01"/>
<text text-anchor="middle" x="444.5" y="-796.01" font-family="Helvetica,sans-Serif" font-size="10.00">__JS_AtomFromUInt32</text>
</a>
</g>
</g>
<!-- Node3&#45;&gt;Node5 -->
<g id="edge4" class="edge">
<title>Node3&#45;&gt;Node5</title>
<path fill="none" stroke="midnightblue" d="M315.13,-751.07C332.59,-759.18 358.67,-770.84 382,-779.51 387.91,-781.71 394.21,-783.86 400.43,-785.88"/>
<polygon fill="midnightblue" stroke="midnightblue" points="399.49,-789.25 410.08,-788.93 401.6,-782.58 399.49,-789.25"/>
</g>
<!-- Node6 -->
<g id="node6" class="node">
<title>Node6</title>
<g id="a_node6"><a xlink:href="quickjs_8h.html#a9bf98b18de88b4199910a43e933eb97d" target="_top" xlink:title=" ">
<polygon fill="none" stroke="black" points="394.5,-751.01 394.5,-770.01 494.5,-770.01 494.5,-751.01 394.5,-751.01"/>
<text text-anchor="middle" x="444.5" y="-758.01" font-family="Helvetica,sans-Serif" font-size="10.00">__JS_NewFloat64</text>
</a>
</g>
</g>
<!-- Node3&#45;&gt;Node6 -->
<g id="edge5" class="edge">
<title>Node3&#45;&gt;Node6</title>
<path fill="none" stroke="midnightblue" d="M337.55,-746.96C352.11,-748.82 368.66,-750.94 384.29,-752.94"/>
<polygon fill="midnightblue" stroke="midnightblue" points="384.03,-756.43 394.39,-754.23 384.92,-749.49 384.03,-756.43"/>
</g>
<!-- Node7 -->
<g id="node7" class="node">
<title>Node7</title>
<g id="a_node7"><a xlink:href="quickjs_8c.html#a74547db03bf739a52c83a326b32db997" target="_top" xlink:title=" ">
<polygon fill="none" stroke="red" points="404,-713.01 404,-732.01 485,-732.01 485,-713.01 404,-713.01"/>
<text text-anchor="middle" x="444.5" y="-720.01" font-family="Helvetica,sans-Serif" font-size="10.00">add_property</text>
</a>
</g>
</g>
<!-- Node3&#45;&gt;Node7 -->
<g id="edge6" class="edge">
<title>Node3&#45;&gt;Node7</title>
<path fill="none" stroke="midnightblue" d="M337.55,-736.07C355.12,-733.82 375.59,-731.2 393.84,-728.87"/>
<polygon fill="midnightblue" stroke="midnightblue" points="394.52,-732.31 403.99,-727.57 393.63,-725.36 394.52,-732.31"/>
</g>
<!-- Node65 -->
<g id="node8" class="node">
<title>Node65</title>
<g id="a_node8"><a xlink:href="quickjs_8c.html#a4956f45ffd2849b96dc051277264f87a" target="_top" xlink:title=" ">
<polygon fill="none" stroke="red" points="403.5,-865.01 403.5,-884.01 485.5,-884.01 485.5,-865.01 403.5,-865.01"/>
<text text-anchor="middle" x="444.5" y="-872.01" font-family="Helvetica,sans-Serif" font-size="10.00">build_arg_list</text>
</a>
</g>
</g>
<!-- Node3&#45;&gt;Node65 -->
<g id="edge7" class="edge">
<title>Node3&#45;&gt;Node65</title>
<path fill="none" stroke="midnightblue" d="M299.64,-751.07C310.73,-772.93 340.96,-826.87 382,-855.51 385.71,-858.1 389.78,-860.34 394.01,-862.29"/>
<polygon fill="midnightblue" stroke="midnightblue" points="392.86,-865.6 403.44,-866.09 395.47,-859.1 392.86,-865.6"/>
</g>
<!-- Node66 -->
<g id="node9" class="node">
<title>Node66</title>
<g id="a_node9"><a xlink:href="quickjs_8c.html#ac864482356b3efc2d0b0a509fcfa4c7c" target="_top" xlink:title=" ">
<polygon fill="none" stroke="red" points="570,-599.01 570,-618.01 647,-618.01 647,-599.01 570,-599.01"/>
<text text-anchor="middle" x="608.5" y="-606.01" font-family="Helvetica,sans-Serif" font-size="10.00">free_arg_list</text>
</a>
</g>
</g>
<!-- Node3&#45;&gt;Node66 -->
<g id="edge21" class="edge">
<title>Node3&#45;&gt;Node66</title>
<path fill="none" stroke="midnightblue" d="M298.94,-732C308.94,-709.26 337.68,-651.81 382,-627.51 437.2,-597.25 511.65,-597.43 559.62,-601.79"/>
<polygon fill="midnightblue" stroke="midnightblue" points="559.44,-605.29 569.74,-602.81 560.14,-598.33 559.44,-605.29"/>
</g>
<!-- Node3&#45;&gt;Node57 -->
<g id="edge28" class="edge">
<title>Node3&#45;&gt;Node57</title>
<path fill="none" stroke="midnightblue" d="M296.25,-751.18C300.85,-782.42 319.97,-881.05 382,-922.51 435.97,-958.59 624.93,-974.02 674,-931.51 750.59,-865.17 750.23,-520.7 748.91,-434.22"/>
<polygon fill="midnightblue" stroke="midnightblue" points="752.41,-434.12 748.73,-424.18 745.41,-434.25 752.41,-434.12"/>
</g>
<!-- Node36 -->
<g id="node11" class="node">
<title>Node36</title>
<g id="a_node11"><a xlink:href="quickjs_8h.html#a775522f2d084fc8fa0fcb33f390006b4" target="_top" xlink:title=" ">
<polygon fill="none" stroke="black" points="711,-979.01 711,-998.01 788,-998.01 788,-979.01 711,-979.01"/>
<text text-anchor="middle" x="749.5" y="-986.01" font-family="Helvetica,sans-Serif" font-size="10.00">JS_DupValue</text>
</a>
</g>
</g>
<!-- Node3&#45;&gt;Node36 -->
<g id="edge27" class="edge">
<title>Node3&#45;&gt;Node36</title>
<path fill="none" stroke="midnightblue" d="M295.78,-751.33C300.26,-804.96 324.54,-1061.75 382,-1110.51 481.02,-1194.55 561.95,-1187.18 674,-1121.51 716.1,-1096.84 736.2,-1038.73 744.15,-1008.13"/>
<polygon fill="midnightblue" stroke="midnightblue" points="747.6,-1008.76 746.55,-998.22 740.8,-1007.12 747.6,-1008.76"/>
</g>
<!-- Node3&#45;&gt;Node75 -->
<g id="edge36" class="edge">
<title>Node3&#45;&gt;Node75</title>
<path fill="none" stroke="midnightblue" d="M295.76,-731.62C299.01,-696.44 314.77,-576.23 382,-513.51 424.46,-473.9 458.17,-506.93 507,-475.51 546.55,-450.07 579.74,-404.8 596.26,-379.64"/>
<polygon fill="midnightblue" stroke="midnightblue" points="599.31,-381.37 601.75,-371.06 593.41,-377.6 599.31,-381.37"/>
</g>
<!-- Node160 -->
<g id="node13" class="node">
<title>Node160</title>
<g id="a_node13"><a xlink:href="quickjs_8c.html#a61c8dfb5e807af1b6ff7d8ca61576dda" target="_top" xlink:title=" ">
<polygon fill="none" stroke="red" points="397.5,-827.01 397.5,-846.01 491.5,-846.01 491.5,-827.01 397.5,-827.01"/>
<text text-anchor="middle" x="444.5" y="-834.01" font-family="Helvetica,sans-Serif" font-size="10.00">build_backtrace</text>
</a>
</g>
</g>
<!-- Node3&#45;&gt;Node160 -->
<g id="edge13" class="edge">
<title>Node3&#45;&gt;Node160</title>
<path fill="none" stroke="midnightblue" d="M303.42,-751.12C317.92,-767.11 349.25,-799.24 382,-817.51 385.89,-819.68 390.07,-821.64 394.34,-823.39"/>
<polygon fill="midnightblue" stroke="midnightblue" points="393.18,-826.7 403.77,-826.92 395.63,-820.14 393.18,-826.7"/>
</g>
<!-- Node177 -->
<g id="node14" class="node">
<title>Node177</title>
<g id="a_node14"><a xlink:href="quickjs_8c.html#a0a8765bd4012467d9139bc24aabcb3ca" target="_top" xlink:title=" ">
<polygon fill="none" stroke="red" points="543,-561.01 543,-580.01 674,-580.01 674,-561.01 543,-561.01"/>
<text text-anchor="middle" x="608.5" y="-568.01" font-family="Helvetica,sans-Serif" font-size="10.00">JS_DefinePropertyValue</text>
</a>
</g>
</g>
<!-- Node3&#45;&gt;Node177 -->
<g id="edge26" class="edge">
<title>Node3&#45;&gt;Node177</title>
<path fill="none" stroke="midnightblue" d="M297.48,-731.93C304.97,-705.08 330.15,-628.89 382,-595.51 426.36,-566.96 486.02,-561.44 532.83,-562.67"/>
<polygon fill="midnightblue" stroke="midnightblue" points="532.79,-566.17 542.92,-563.04 533.05,-559.17 532.79,-566.17"/>
</g>
<!-- Node76 -->
<g id="node15" class="node">
<title>Node76</title>
<g id="a_node15"><a xlink:href="quickjs_8h.html#a2050bc428da1c65ac7eb87c3fa3b0392" target="_top" xlink:title=" ">
<polygon fill="none" stroke="black" points="711,-884.01 711,-903.01 788,-903.01 788,-884.01 711,-884.01"/>
<text text-anchor="middle" x="749.5" y="-891.01" font-family="Helvetica,sans-Serif" font-size="10.00">JS_NewInt32</text>
</a>
</g>
</g>
<!-- Node3&#45;&gt;Node76 -->
<g id="edge39" class="edge">
<title>Node3&#45;&gt;Node76</title>
<path fill="none" stroke="midnightblue" d="M296.34,-751.1C303,-797.38 334.21,-996.92 382,-1032.51 486.46,-1110.31 564.36,-1077.83 674,-1007.51 692.34,-995.75 722.88,-941.85 738.55,-912.58"/>
<polygon fill="midnightblue" stroke="midnightblue" points="741.85,-913.83 743.43,-903.35 735.66,-910.56 741.85,-913.83"/>
</g>
<!-- Node247 -->
<g id="node17" class="node">
<title>Node247</title>
<g id="a_node17"><a xlink:href="quickjs_8c.html#a344894112559c2ba75043fd10bcfa02f" target="_top" xlink:title=" ">
<polygon fill="none" stroke="red" points="558,-1093.01 558,-1112.01 659,-1112.01 659,-1093.01 558,-1093.01"/>
<text text-anchor="middle" x="608.5" y="-1100.01" font-family="Helvetica,sans-Serif" font-size="10.00">close_lexical_var</text>
</a>
</g>
</g>
<!-- Node3&#45;&gt;Node247 -->
<g id="edge18" class="edge">
<title>Node3&#45;&gt;Node247</title>
<path fill="none" stroke="midnightblue" d="M296.02,-751.11C301.58,-801.35 329.85,-1033.5 382,-1078.51 427.17,-1117.5 497.89,-1118.74 548.08,-1113.26"/>
<polygon fill="midnightblue" stroke="midnightblue" points="548.64,-1116.71 558.15,-1112.04 547.8,-1109.76 548.64,-1116.71"/>
</g>
<!-- Node248 -->
<g id="node18" class="node">
<title>Node248</title>
<g id="a_node18"><a xlink:href="quickjs_8c.html#a1782043fce951bd4f0d91c7796b31e24" target="_top" xlink:title=" ">
<polygon fill="none" stroke="red" points="401,-675.01 401,-694.01 488,-694.01 488,-675.01 401,-675.01"/>
<text text-anchor="middle" x="444.5" y="-682.01" font-family="Helvetica,sans-Serif" font-size="10.00">close_var_refs</text>
</a>
</g>
</g>
<!-- Node3&#45;&gt;Node248 -->
<g id="edge20" class="edge">
<title>Node3&#45;&gt;Node248</title>
<path fill="none" stroke="midnightblue" d="M315.13,-731.95C332.59,-723.84 358.67,-712.18 382,-703.51 387.91,-701.32 394.21,-699.16 400.43,-697.14"/>
<polygon fill="midnightblue" stroke="midnightblue" points="401.6,-700.45 410.08,-694.09 399.49,-693.77 401.6,-700.45"/>
</g>
<!-- Node54 -->
<g id="node19" class="node">
<title>Node54</title>
<g id="a_node19"><a xlink:href="quickjs_8c.html#a9e7b4bccf927d811b0f99b40b08c0472" target="_top" xlink:title=" ">
<polygon fill="none" stroke="red" points="406.5,-637.01 406.5,-656.01 482.5,-656.01 482.5,-637.01 406.5,-637.01"/>
<text text-anchor="middle" x="444.5" y="-644.01" font-family="Helvetica,sans-Serif" font-size="10.00">free_var_ref</text>
</a>
</g>
</g>
<!-- Node3&#45;&gt;Node54 -->
<g id="edge22" class="edge">
<title>Node3&#45;&gt;Node54</title>
<path fill="none" stroke="midnightblue" d="M303.42,-731.91C317.92,-715.91 349.25,-683.78 382,-665.51 386.58,-662.96 391.55,-660.7 396.6,-658.72"/>
<polygon fill="midnightblue" stroke="midnightblue" points="398.12,-661.89 406.37,-655.24 395.77,-655.3 398.12,-661.89"/>
</g>
<!-- Node98 -->
<g id="node20" class="node">
<title>Node98</title>
<g id="a_node20"><a xlink:href="quickjs_8c.html#a260bfa297ff6cb5bd18e229afaa54663" target="_top" xlink:title=" ">
<polygon fill="none" stroke="red" points="396.5,-371.01 396.5,-390.01 492.5,-390.01 492.5,-371.01 396.5,-371.01"/>
<text text-anchor="middle" x="444.5" y="-378.01" font-family="Helvetica,sans-Serif" font-size="10.00">JS_AtomToString</text>
</a>
</g>
</g>
<!-- Node3&#45;&gt;Node98 -->
<g id="edge23" class="edge">
<title>Node3&#45;&gt;Node98</title>
<path fill="none" stroke="midnightblue" d="M296.17,-731.95C302.46,-681.86 333.88,-450.13 382,-399.51 383.63,-397.8 385.4,-396.24 387.29,-394.82"/>
<polygon fill="midnightblue" stroke="midnightblue" points="389.45,-397.61 396.21,-389.46 385.84,-391.62 389.45,-397.61"/>
</g>
<!-- Node3&#45;&gt;Node68 -->
<g id="edge29" class="edge">
<title>Node3&#45;&gt;Node68</title>
<path fill="none" stroke="midnightblue" d="M296,-751.02C300.06,-784.85 318.24,-900.74 382,-964.51 385.95,-968.46 390.63,-971.78 395.61,-974.56"/>
<polygon fill="midnightblue" stroke="midnightblue" points="394.29,-977.81 404.82,-979.01 397.33,-971.51 394.29,-977.81"/>
</g>
<!-- Node69 -->
<g id="node22" class="node">
<title>Node69</title>
<g id="a_node22"><a xlink:href="quickjs_8c.html#a5762c57ae0c9937e986040c01222833a" target="_top" xlink:title=" ">
<polygon fill="none" stroke="red" points="545,-979.01 545,-998.01 672,-998.01 672,-979.01 545,-979.01"/>
<text text-anchor="middle" x="608.5" y="-986.01" font-family="Helvetica,sans-Serif" font-size="10.00">JS_GetPropertyInternal</text>
</a>
</g>
</g>
<!-- Node3&#45;&gt;Node69 -->
<g id="edge35" class="edge">
<title>Node3&#45;&gt;Node69</title>
<path fill="none" stroke="midnightblue" d="M294.57,-751.26C293.39,-791.35 294.87,-944.34 382,-1007.51 440.67,-1050.05 531.87,-1021.42 578.26,-1002.1"/>
<polygon fill="midnightblue" stroke="midnightblue" points="579.92,-1005.2 587.72,-998.03 577.15,-998.77 579.92,-1005.2"/>
</g>
<!-- Node125 -->
<g id="node23" class="node">
<title>Node125</title>
<g id="a_node23"><a xlink:href="quickjs_8h.html#a149f24b67e745bad93573b3b4c80db4c" target="_top" xlink:title=" ">
<polygon fill="none" stroke="black" points="415,-409.01 415,-428.01 474,-428.01 474,-409.01 415,-409.01"/>
<text text-anchor="middle" x="444.5" y="-416.01" font-family="Helvetica,sans-Serif" font-size="10.00">JS_IsNull</text>
</a>
</g>
</g>
<!-- Node3&#45;&gt;Node125 -->
<g id="edge37" class="edge">
<title>Node3&#45;&gt;Node125</title>
<path fill="none" stroke="midnightblue" d="M294.69,-731.74C293.91,-689.99 296.54,-524.78 382,-437.51 388.18,-431.2 396.41,-426.97 404.83,-424.15"/>
<polygon fill="midnightblue" stroke="midnightblue" points="405.99,-427.46 414.7,-421.43 404.13,-420.71 405.99,-427.46"/>
</g>
<!-- Node126 -->
<g id="node24" class="node">
<title>Node126</title>
<g id="a_node24"><a xlink:href="quickjs_8h.html#a4e407128a9605afb77523e49e9a627fd" target="_top" xlink:title=" ">
<polygon fill="none" stroke="black" points="400,-447.01 400,-466.01 489,-466.01 489,-447.01 400,-447.01"/>
<text text-anchor="middle" x="444.5" y="-454.01" font-family="Helvetica,sans-Serif" font-size="10.00">JS_IsUndefined</text>
</a>
</g>
</g>
<!-- Node3&#45;&gt;Node126 -->
<g id="edge38" class="edge">
<title>Node3&#45;&gt;Node126</title>
<path fill="none" stroke="midnightblue" d="M295.38,-732C297.38,-694.68 309.59,-556.66 382,-480.51 385.66,-476.67 390,-473.43 394.67,-470.7"/>
<polygon fill="midnightblue" stroke="midnightblue" points="396.57,-473.66 403.95,-466.06 393.44,-467.4 396.57,-473.66"/>
</g>
<!-- Node3&#45;&gt;Node278 -->
<g id="edge40" class="edge">
<title>Node3&#45;&gt;Node278</title>
<path fill="none" stroke="midnightblue" d="M296.86,-731.98C303.22,-701.92 326.77,-608.13 382,-556.51 386.73,-552.1 392.36,-548.46 398.26,-545.47"/>
<polygon fill="midnightblue" stroke="midnightblue" points="399.96,-548.55 407.68,-541.3 397.12,-542.15 399.96,-548.55"/>
</g>
<!-- Node65&#45;&gt;Node4 -->
<g id="edge8" class="edge">
<title>Node65&#45;&gt;Node4</title>
<path fill="none" stroke="midnightblue" d="M485.54,-883.91C507.58,-889.07 535.11,-895.53 558.43,-901"/>
<polygon fill="midnightblue" stroke="midnightblue" points="557.94,-904.48 568.47,-903.36 559.54,-897.67 557.94,-904.48"/>
</g>
<!-- Node65&#45;&gt;Node66 -->
<g id="edge9" class="edge">
<title>Node65&#45;&gt;Node66</title>
<path fill="none" stroke="midnightblue" d="M485.63,-867.72C493.4,-864.94 500.99,-861.02 507,-855.51 576.04,-792.22 598.73,-674.69 605.2,-628.19"/>
<polygon fill="midnightblue" stroke="midnightblue" points="608.68,-628.57 606.49,-618.21 601.74,-627.68 608.68,-628.57"/>
</g>
<!-- Node65&#45;&gt;Node36 -->
<g id="edge11" class="edge">
<title>Node65&#45;&gt;Node36</title>
<path fill="none" stroke="midnightblue" d="M485.79,-868.59C533.69,-863.55 614.61,-861.5 674,-893.51 705.52,-910.5 728.15,-947.12 739.72,-969.61"/>
<polygon fill="midnightblue" stroke="midnightblue" points="736.69,-971.39 744.24,-978.82 742.97,-968.3 736.69,-971.39"/>
</g>
<!-- Node65&#45;&gt;Node75 -->
<g id="edge12" class="edge">
<title>Node65&#45;&gt;Node75</title>
<path fill="none" stroke="midnightblue" d="M485.69,-869.43C493.84,-866.57 501.57,-862.19 507,-855.51 560.52,-789.71 517.56,-556.43 543,-475.51 554.52,-438.88 578.91,-400.97 594.18,-379.41"/>
<polygon fill="midnightblue" stroke="midnightblue" points="597.07,-381.37 600.1,-371.22 591.4,-377.27 597.07,-381.37"/>
</g>
<!-- Node66&#45;&gt;Node57 -->
<g id="edge10" class="edge">
<title>Node66&#45;&gt;Node57</title>
<path fill="none" stroke="midnightblue" d="M647.13,-603.34C656.76,-600.52 666.5,-596.19 674,-589.51 721.18,-547.51 739.45,-470.56 745.67,-434.35"/>
<polygon fill="midnightblue" stroke="midnightblue" points="749.18,-434.54 747.29,-424.12 742.27,-433.45 749.18,-434.54"/>
</g>
<!-- Node160&#45;&gt;Node177 -->
<g id="edge14" class="edge">
<title>Node160&#45;&gt;Node177</title>
<path fill="none" stroke="midnightblue" d="M491.65,-828.65C497.47,-825.94 502.83,-822.33 507,-817.51 574.17,-739.97 475.32,-666.61 543,-589.51 544.16,-588.19 545.42,-586.95 546.74,-585.8"/>
<polygon fill="midnightblue" stroke="midnightblue" points="548.79,-588.64 555.03,-580.08 544.81,-582.88 548.79,-588.64"/>
</g>
<!-- Node160&#45;&gt;Node76 -->
<g id="edge16" class="edge">
<title>Node160&#45;&gt;Node76</title>
<path fill="none" stroke="midnightblue" d="M491.78,-837.16C538.49,-838.79 612.34,-844.05 674,-860.51 690.55,-864.93 708.1,-872.55 722.02,-879.35"/>
<polygon fill="midnightblue" stroke="midnightblue" points="720.5,-882.51 731.01,-883.88 723.65,-876.26 720.5,-882.51"/>
</g>
<!-- Node100 -->
<g id="node16" class="node">
<title>Node100</title>
<g id="a_node16"><a xlink:href="quickjs_8c.html#a0ee6a3654a6016393fac5e1c108f403a" target="_top" xlink:title=" ">
<polygon fill="none" stroke="red" points="568,-485.01 568,-504.01 649,-504.01 649,-485.01 568,-485.01"/>
<text text-anchor="middle" x="608.5" y="-492.01" font-family="Helvetica,sans-Serif" font-size="10.00">JS_NewString</text>
</a>
</g>
</g>
<!-- Node160&#45;&gt;Node100 -->
<g id="edge17" class="edge">
<title>Node160&#45;&gt;Node100</title>
<path fill="none" stroke="midnightblue" d="M491.75,-828.73C497.55,-826.01 502.88,-822.37 507,-817.51 584.11,-726.48 486.77,-656.73 543,-551.51 552.22,-534.27 568.86,-519.76 582.93,-509.7"/>
<polygon fill="midnightblue" stroke="midnightblue" points="584.97,-512.54 591.27,-504.02 581.04,-506.75 584.97,-512.54"/>
</g>
<!-- Node177&#45;&gt;Node57 -->
<g id="edge15" class="edge">
<title>Node177&#45;&gt;Node57</title>
<path fill="none" stroke="midnightblue" d="M622.06,-560.69C635.57,-549.84 657.36,-531.51 674,-513.51 698.31,-487.21 722.51,-453.24 736.46,-432.71"/>
<polygon fill="midnightblue" stroke="midnightblue" points="739.44,-434.55 742.12,-424.29 733.63,-430.64 739.44,-434.55"/>
</g>
<!-- Node247&#45;&gt;Node36 -->
<g id="edge19" class="edge">
<title>Node247&#45;&gt;Node36</title>
<path fill="none" stroke="midnightblue" d="M645.3,-1092.94C655.13,-1089.34 665.43,-1084.6 674,-1078.51 701.55,-1058.94 724.8,-1026.72 737.67,-1006.61"/>
<polygon fill="midnightblue" stroke="midnightblue" points="740.68,-1008.4 742.98,-998.06 734.73,-1004.71 740.68,-1008.4"/>
</g>
<!-- Node68&#45;&gt;Node69 -->
<g id="edge30" class="edge">
<title>Node68&#45;&gt;Node69</title>
<path fill="none" stroke="midnightblue" d="M489.34,-988.51C503.33,-988.51 519.21,-988.51 534.68,-988.51"/>
<polygon fill="midnightblue" stroke="midnightblue" points="534.77,-992.01 544.77,-988.51 534.77,-985.01 534.77,-992.01"/>
</g>
<!-- Node69&#45;&gt;Node2 -->
<g id="edge31" class="edge">
<title>Node69&#45;&gt;Node2</title>
<path fill="none" stroke="midnightblue" d="M591.78,-998.13C553.65,-1020.1 454.11,-1069.35 382,-1032.51 265.39,-972.94 198.45,-815.29 178.15,-760.55"/>
<polygon fill="midnightblue" stroke="midnightblue" points="181.4,-759.25 174.71,-751.04 174.82,-761.63 181.4,-759.25"/>
</g>
<!-- Node69&#45;&gt;Node57 -->
<g id="edge33" class="edge">
<title>Node69&#45;&gt;Node57</title>
<path fill="none" stroke="midnightblue" d="M654.55,-978.96C662,-975.52 668.93,-970.86 674,-964.51 707.94,-922.07 739.92,-527.33 747.03,-434.15"/>
<polygon fill="midnightblue" stroke="midnightblue" points="750.53,-434.35 747.79,-424.12 743.55,-433.82 750.53,-434.35"/>
</g>
<!-- Node69&#45;&gt;Node36 -->
<g id="edge32" class="edge">
<title>Node69&#45;&gt;Node36</title>
<path fill="none" stroke="midnightblue" d="M672.09,-988.51C681.72,-988.51 691.53,-988.51 700.77,-988.51"/>
<polygon fill="midnightblue" stroke="midnightblue" points="700.92,-992.01 710.92,-988.51 700.92,-985.01 700.92,-992.01"/>
</g>
<!-- Node69&#45;&gt;Node76 -->
<g id="edge34" class="edge">
<title>Node69&#45;&gt;Node76</title>
<path fill="none" stroke="midnightblue" d="M642.86,-979C653.25,-975.28 664.48,-970.47 674,-964.51 697.52,-949.81 719.91,-926.82 733.89,-911.01"/>
<polygon fill="midnightblue" stroke="midnightblue" points="736.87,-912.92 740.75,-903.07 731.57,-908.35 736.87,-912.92"/>
</g>
<!-- Node278&#45;&gt;Node36 -->
<g id="edge42" class="edge">
<title>Node278&#45;&gt;Node36</title>
<path fill="none" stroke="midnightblue" d="M481.29,-523.07C531.73,-512.16 623.2,-501.54 674,-551.51 731.47,-608.05 687.4,-835.12 710,-912.51 716.05,-933.24 727.73,-955.05 736.64,-969.96"/>
<polygon fill="midnightblue" stroke="midnightblue" points="733.79,-972 742.01,-978.68 739.75,-968.33 733.79,-972"/>
</g>
<!-- Node278&#45;&gt;Node75 -->
<g id="edge43" class="edge">
<title>Node278&#45;&gt;Node75</title>
<path fill="none" stroke="midnightblue" d="M481.05,-523.43C490.23,-519.87 499.6,-515.02 507,-508.51 532.08,-486.44 524.52,-470.35 543,-442.51 558.26,-419.51 578.42,-394.96 592.11,-378.99"/>
<polygon fill="midnightblue" stroke="midnightblue" points="595.08,-380.92 598.98,-371.07 589.79,-376.33 595.08,-380.92"/>
</g>
<!-- Node278&#45;&gt;Node177 -->
<g id="edge41" class="edge">
<title>Node278&#45;&gt;Node177</title>
<path fill="none" stroke="midnightblue" d="M481.05,-540.85C503.32,-546.07 532.36,-552.89 556.99,-558.66"/>
<polygon fill="midnightblue" stroke="midnightblue" points="556.36,-562.11 566.89,-560.99 557.96,-555.3 556.36,-562.11"/>
</g>
<!-- Node278&#45;&gt;Node76 -->
<g id="edge44" class="edge">
<title>Node278&#45;&gt;Node76</title>
<path fill="none" stroke="midnightblue" d="M476.6,-522.92C486.68,-519.16 497.66,-514.33 507,-508.51 525.42,-497.04 522.77,-483.38 543,-475.51 597.26,-454.41 629.36,-438.13 674,-475.51 736.08,-527.51 746.48,-798.17 748.18,-873.84"/>
<polygon fill="midnightblue" stroke="midnightblue" points="744.68,-873.97 748.37,-883.9 751.68,-873.83 744.68,-873.97"/>
</g>
<!-- Node437&#45;&gt;Node57 -->
<g id="edge55" class="edge">
<title>Node437&#45;&gt;Node57</title>
<path fill="none" stroke="midnightblue" d="M297.07,-313.66C303.61,-285.31 326.76,-203.54 382,-171.51 430.06,-143.64 452.17,-162.56 507,-171.51 584.26,-184.12 617.13,-173.72 674,-227.51 723.01,-273.87 740.47,-356.64 746.09,-394.55"/>
<polygon fill="midnightblue" stroke="midnightblue" points="742.67,-395.35 747.48,-404.79 749.6,-394.41 742.67,-395.35"/>
</g>
<!-- Node437&#45;&gt;Node75 -->
<g id="edge58" class="edge">
<title>Node437&#45;&gt;Node75</title>
<path fill="none" stroke="midnightblue" d="M346.38,-320.54C389.57,-319.04 452.76,-319.18 507,-328.51 530.43,-332.54 555.86,-340.93 575.27,-348.25"/>
<polygon fill="midnightblue" stroke="midnightblue" points="574.25,-351.6 584.84,-351.94 576.77,-345.07 574.25,-351.6"/>
</g>
<!-- Node437&#45;&gt;Node100 -->
<g id="edge63" class="edge">
<title>Node437&#45;&gt;Node100</title>
<path fill="none" stroke="midnightblue" d="M346.35,-328.39C400.24,-334.25 480.71,-345.37 507,-361.51 552.45,-389.41 584.54,-446.06 598.96,-475.61"/>
<polygon fill="midnightblue" stroke="midnightblue" points="595.88,-477.29 603.31,-484.84 602.21,-474.3 595.88,-477.29"/>
</g>
<!-- Node437&#45;&gt;Node98 -->
<g id="edge51" class="edge">
<title>Node437&#45;&gt;Node98</title>
<path fill="none" stroke="midnightblue" d="M319.86,-333.05C344.27,-342.42 381.72,-356.8 409.01,-367.27"/>
<polygon fill="midnightblue" stroke="midnightblue" points="407.97,-370.62 418.56,-370.94 410.48,-364.09 407.97,-370.62"/>
</g>
<!-- Node437&#45;&gt;Node68 -->
<g id="edge56" class="edge">
<title>Node437&#45;&gt;Node68</title>
<path fill="none" stroke="midnightblue" d="M296.24,-333.28C305.26,-404.17 361.12,-838.53 382,-893.51 393.15,-922.87 414.35,-952.6 428.71,-970.8"/>
<polygon fill="midnightblue" stroke="midnightblue" points="426.12,-973.17 435.13,-978.75 431.57,-968.77 426.12,-973.17"/>
</g>
<!-- Node437&#45;&gt;Node125 -->
<g id="edge60" class="edge">
<title>Node437&#45;&gt;Node125</title>
<path fill="none" stroke="midnightblue" d="M303.42,-333.12C317.92,-349.11 349.25,-381.24 382,-399.51 389.14,-403.49 397.21,-406.75 405.11,-409.37"/>
<polygon fill="midnightblue" stroke="midnightblue" points="404.35,-412.8 414.94,-412.36 406.39,-406.1 404.35,-412.8"/>
</g>
<!-- Node437&#45;&gt;Node126 -->
<g id="edge62" class="edge">
<title>Node437&#45;&gt;Node126</title>
<path fill="none" stroke="midnightblue" d="M299.64,-333.07C310.73,-354.93 340.96,-408.87 382,-437.51 384.84,-439.49 387.88,-441.27 391.05,-442.87"/>
<polygon fill="midnightblue" stroke="midnightblue" points="389.66,-446.08 400.22,-446.9 392.48,-439.67 389.66,-446.08"/>
</g>
<!-- Node437&#45;&gt;Node278 -->
<g id="edge64" class="edge">
<title>Node437&#45;&gt;Node278</title>
<path fill="none" stroke="midnightblue" d="M299.2,-333.03C310.44,-357.94 343.03,-426.48 382,-475.51 394.19,-490.84 410.55,-505.8 423.33,-516.55"/>
<polygon fill="midnightblue" stroke="midnightblue" points="421.19,-519.31 431.14,-522.96 425.63,-513.91 421.19,-519.31"/>
</g>
<!-- Node437&#45;&gt;Node124 -->
<g id="edge59" class="edge">
<title>Node437&#45;&gt;Node124</title>
<path fill="none" stroke="midnightblue" d="M296.86,-313.98C303.22,-283.92 326.77,-190.13 382,-138.51 386.29,-134.5 391.33,-131.13 396.64,-128.31"/>
<polygon fill="midnightblue" stroke="midnightblue" points="398.17,-131.46 405.76,-124.07 395.22,-125.12 398.17,-131.46"/>
</g>
<!-- Node331 -->
<g id="node28" class="node">
<title>Node331</title>
<g id="a_node28"><a xlink:href="quickjs_8c.html#a964b0ba49f8823d8d8f21c6645a81542" target="_top" xlink:title=" ">
<polygon fill="none" stroke="red" points="395,-181.01 395,-200.01 494,-200.01 494,-181.01 395,-181.01"/>
<text text-anchor="middle" x="444.5" y="-188.01" font-family="Helvetica,sans-Serif" font-size="10.00">JS_ConcatString3</text>
</a>
</g>
</g>
<!-- Node437&#45;&gt;Node331 -->
<g id="edge52" class="edge">
<title>Node437&#45;&gt;Node331</title>
<path fill="none" stroke="midnightblue" d="M299.64,-313.95C310.73,-292.1 340.96,-238.15 382,-209.51 384.84,-207.53 387.88,-205.76 391.05,-204.16"/>
<polygon fill="midnightblue" stroke="midnightblue" points="392.48,-207.35 400.22,-200.12 389.66,-200.95 392.48,-207.35"/>
</g>
<!-- Node438 -->
<g id="node29" class="node">
<title>Node438</title>
<g id="a_node29"><a xlink:href="quickjs_8c.html#a1fc2c29e89230a9792fd36ae50b270e4" target="_top" xlink:title=" ">
<polygon fill="none" stroke="red" points="412,-257.01 412,-276.01 477,-276.01 477,-257.01 412,-257.01"/>
<text text-anchor="middle" x="444.5" y="-264.01" font-family="Helvetica,sans-Serif" font-size="10.00">JS_IsArray</text>
</a>
</g>
</g>
<!-- Node437&#45;&gt;Node438 -->
<g id="edge57" class="edge">
<title>Node437&#45;&gt;Node438</title>
<path fill="none" stroke="midnightblue" d="M319.86,-313.97C344.27,-304.6 381.72,-290.22 409.01,-279.75"/>
<polygon fill="midnightblue" stroke="midnightblue" points="410.48,-282.93 418.56,-276.08 407.97,-276.4 410.48,-282.93"/>
</g>
<!-- Node354 -->
<g id="node30" class="node">
<title>Node354</title>
<g id="a_node30"><a xlink:href="quickjs_8h.html#aa53b9197dc6d5770e3a080c1e335f7cb" target="_top" xlink:title=" ">
<polygon fill="none" stroke="black" points="410.5,-219.01 410.5,-238.01 478.5,-238.01 478.5,-219.01 410.5,-219.01"/>
<text text-anchor="middle" x="444.5" y="-226.01" font-family="Helvetica,sans-Serif" font-size="10.00">JS_IsString</text>
</a>
</g>
</g>
<!-- Node437&#45;&gt;Node354 -->
<g id="edge61" class="edge">
<title>Node437&#45;&gt;Node354</title>
<path fill="none" stroke="midnightblue" d="M303.42,-313.91C317.92,-297.91 349.25,-265.78 382,-247.51 387.7,-244.33 394,-241.61 400.33,-239.31"/>
<polygon fill="midnightblue" stroke="midnightblue" points="401.83,-242.5 410.22,-236.03 399.63,-235.86 401.83,-242.5"/>
</g>
<!-- Node331&#45;&gt;Node57 -->
<g id="edge53" class="edge">
<title>Node331&#45;&gt;Node57</title>
<path fill="none" stroke="midnightblue" d="M484.12,-200.02C491.91,-202.61 499.89,-205.75 507,-209.51 604.6,-261.08 697.62,-357.81 733.24,-397.18"/>
<polygon fill="midnightblue" stroke="midnightblue" points="730.67,-399.56 739.95,-404.67 735.88,-394.89 730.67,-399.56"/>
</g>
<!-- Node331&#45;&gt;Node75 -->
<g id="edge54" class="edge">
<title>Node331&#45;&gt;Node75</title>
<path fill="none" stroke="midnightblue" d="M490.49,-200.05C496.41,-202.51 502.1,-205.62 507,-209.51 531.93,-229.35 525.7,-244.75 543,-271.51 559.62,-297.22 580.52,-325.77 593.95,-343.68"/>
<polygon fill="midnightblue" stroke="midnightblue" points="591.41,-346.12 600.22,-352 597,-341.91 591.41,-346.12"/>
</g>
</g>
</svg>
