<?xml version="1.0" encoding="UTF-8" standalone="no"?>
<!DOCTYPE svg PUBLIC "-//W3C//DTD SVG 1.1//EN"
 "http://www.w3.org/Graphics/SVG/1.1/DTD/svg11.dtd">
<!-- Generated by graphviz version 2.43.0 (0)
 -->
<!-- Title: JS_NewRuntime Pages: 1 -->
<!--zoomable 812 -->
<svg id="main" version="1.1" xmlns="http://www.w3.org/2000/svg" xmlns:xlink="http://www.w3.org/1999/xlink" xml:space="preserve" onload="init(evt)">
<style type="text/css"><![CDATA[
.edge:hover path { stroke: red; }
.edge:hover polygon { stroke: red; fill: red; }
]]></style>
<script type="text/javascript"><![CDATA[
var edges = document.getElementsByTagName('g');
if (edges && edges.length) {
  for (var i=0;i<edges.length;i++) {
    if (edges[i].id.substr(0,4)=='edge') {
      edges[i].setAttribute('class','edge');
    }
  }
}
]]></script>
        <defs>
                <circle id="rim" cx="0" cy="0" r="7"/>
                <circle id="rim2" cx="0" cy="0" r="3.5"/>
                <g id="zoomPlus">
                        <use xlink:href="#rim" fill="#404040">
                                <set attributeName="fill" to="#808080" begin="zoomplus.mouseover" end="zoomplus.mouseout"/>
                        </use>
                        <path d="M-4,0h8M0,-4v8" fill="none" stroke="white" stroke-width="1.5" pointer-events="none"/>
                </g>
                <g id="zoomMin">
                        <use xlink:href="#rim" fill="#404040">
                                <set attributeName="fill" to="#808080" begin="zoomminus.mouseover" end="zoomminus.mouseout"/>
                        </use>
                        <path d="M-4,0h8" fill="none" stroke="white" stroke-width="1.5" pointer-events="none"/>
                </g>
                <g id="dirArrow">
                        <path fill="none" stroke="white" stroke-width="1.5" d="M0,-3.0v7 M-2.5,-0.5L0,-3.0L2.5,-0.5"/>
                </g>
               <g id="resetDef">
                       <use xlink:href="#rim2" fill="#404040">
                               <set attributeName="fill" to="#808080" begin="reset.mouseover" end="reset.mouseout"/>
                       </use>
               </g>
        </defs>

<script type="text/javascript">
var viewWidth = 715;
var viewHeight = 812;
var sectionId = 'dynsection-4';
</script>
<script xlink:href="svgpan.js"/>
<svg id="graph" class="graph">
<g id="viewport">
<title>JS_NewRuntime</title>
<!-- Node1 -->
<g id="node1" class="node">
<title>Node1</title>
<g id="a_node1"><a xlink:title=" ">
<polygon fill="#bfbfbf" stroke="black" points="0,-202.5 0,-221.5 94,-221.5 94,-202.5 0,-202.5"/>
<text text-anchor="middle" x="47" y="-209.5" font-family="Helvetica,sans-Serif" font-size="10.00">JS_NewRuntime</text>
</a>
</g>
</g>
<!-- Node2 -->
<g id="node2" class="node">
<title>Node2</title>
<g id="a_node2"><a xlink:href="quickjs_8c.html#a27966451027feb455b5da12c1578771c" target="_top" xlink:title=" ">
<polygon fill="none" stroke="black" points="130,-202.5 130,-221.5 230,-221.5 230,-202.5 130,-202.5"/>
<text text-anchor="middle" x="180" y="-209.5" font-family="Helvetica,sans-Serif" font-size="10.00">JS_NewRuntime2</text>
</a>
</g>
</g>
<!-- Node1&#45;&gt;Node2 -->
<g id="edge1" class="edge">
<title>Node1&#45;&gt;Node2</title>
<path fill="none" stroke="midnightblue" d="M94.19,-212C102.36,-212 110.97,-212 119.44,-212"/>
<polygon fill="midnightblue" stroke="midnightblue" points="119.68,-215.5 129.68,-212 119.68,-208.5 119.68,-215.5"/>
</g>
<!-- Node3 -->
<g id="node3" class="node">
<title>Node3</title>
<g id="a_node3"><a xlink:href="quickjs_8c.html#a4883d074a00e989747e68453c718c862" target="_top" xlink:title=" ">
<polygon fill="none" stroke="black" points="291,-727.5 291,-746.5 386,-746.5 386,-727.5 291,-727.5"/>
<text text-anchor="middle" x="338.5" y="-734.5" font-family="Helvetica,sans-Serif" font-size="10.00">init_class_range</text>
</a>
</g>
</g>
<!-- Node2&#45;&gt;Node3 -->
<g id="edge2" class="edge">
<title>Node2&#45;&gt;Node3</title>
<path fill="none" stroke="midnightblue" d="M181.33,-221.54C183.26,-269.12 195.69,-484.63 266,-642 279.58,-672.4 304.43,-702.2 320.96,-720.1"/>
<polygon fill="midnightblue" stroke="midnightblue" points="318.49,-722.57 327.9,-727.44 323.57,-717.77 318.49,-722.57"/>
</g>
<!-- Node8 -->
<g id="node5" class="node">
<title>Node8</title>
<g id="a_node5"><a xlink:href="list_8h.html#a663527a4d757540b2177bef0db1ce5c0" target="_top" xlink:title=" ">
<polygon fill="none" stroke="black" points="622.5,-480.5 622.5,-499.5 704.5,-499.5 704.5,-480.5 622.5,-480.5"/>
<text text-anchor="middle" x="663.5" y="-487.5" font-family="Helvetica,sans-Serif" font-size="10.00">init_list_head</text>
</a>
</g>
</g>
<!-- Node2&#45;&gt;Node8 -->
<g id="edge4" class="edge">
<title>Node2&#45;&gt;Node8</title>
<path fill="none" stroke="midnightblue" d="M181.59,-221.8C184.23,-256.59 198.08,-375.17 266,-433 317.23,-476.62 517.54,-486.86 612.3,-489.27"/>
<polygon fill="midnightblue" stroke="midnightblue" points="612.41,-492.77 622.49,-489.5 612.58,-485.77 612.41,-492.77"/>
</g>
<!-- Node9 -->
<g id="node6" class="node">
<title>Node9</title>
<g id="a_node6"><a xlink:href="quickjs_8c.html#a1aca23241f0d5313e2eaefa3aabeeb4b" target="_top" xlink:title=" ">
<polygon fill="none" stroke="black" points="291,-164.5 291,-183.5 386,-183.5 386,-164.5 291,-164.5"/>
<text text-anchor="middle" x="338.5" y="-171.5" font-family="Helvetica,sans-Serif" font-size="10.00">init_shape_hash</text>
</a>
</g>
</g>
<!-- Node2&#45;&gt;Node9 -->
<g id="edge5" class="edge">
<title>Node2&#45;&gt;Node9</title>
<path fill="none" stroke="midnightblue" d="M220.49,-202.41C241.14,-197.4 266.61,-191.21 288.51,-185.89"/>
<polygon fill="midnightblue" stroke="midnightblue" points="289.4,-189.28 298.29,-183.52 287.75,-182.48 289.4,-189.28"/>
</g>
<!-- Node10 -->
<g id="node7" class="node">
<title>Node10</title>
<g id="a_node7"><a xlink:href="quickjs_8c.html#a621d5d7548657b7462a29bea78b5a1e4" target="_top" xlink:title=" ">
<polygon fill="none" stroke="black" points="273.5,-126.5 273.5,-145.5 403.5,-145.5 403.5,-126.5 273.5,-126.5"/>
<text text-anchor="middle" x="338.5" y="-133.5" font-family="Helvetica,sans-Serif" font-size="10.00">js_c_function_data_call</text>
</a>
</g>
</g>
<!-- Node2&#45;&gt;Node10 -->
<g id="edge6" class="edge">
<title>Node2&#45;&gt;Node10</title>
<path fill="none" stroke="midnightblue" d="M192.64,-202.34C208.36,-189.75 237.68,-167.83 266,-155 271.32,-152.59 277.01,-150.44 282.77,-148.52"/>
<polygon fill="midnightblue" stroke="midnightblue" points="283.94,-151.83 292.46,-145.53 281.88,-145.14 283.94,-151.83"/>
</g>
<!-- Node11 -->
<g id="node8" class="node">
<title>Node11</title>
<g id="a_node8"><a xlink:href="quickjs_8c.html#afd4ef2d701fa0702f321925b61c57bbf" target="_top" xlink:title=" ">
<polygon fill="none" stroke="black" points="274.5,-202.5 274.5,-221.5 402.5,-221.5 402.5,-202.5 274.5,-202.5"/>
<text text-anchor="middle" x="338.5" y="-209.5" font-family="Helvetica,sans-Serif" font-size="10.00">js_call_bound_function</text>
</a>
</g>
</g>
<!-- Node2&#45;&gt;Node11 -->
<g id="edge7" class="edge">
<title>Node2&#45;&gt;Node11</title>
<path fill="none" stroke="midnightblue" d="M230.09,-212C240.97,-212 252.74,-212 264.35,-212"/>
<polygon fill="midnightblue" stroke="midnightblue" points="264.49,-215.5 274.49,-212 264.49,-208.5 264.49,-215.5"/>
</g>
<!-- Node444 -->
<g id="node14" class="node">
<title>Node444</title>
<g id="a_node14"><a xlink:href="quickjs_8c.html#a3486836f2ac17a9fa315904e14858e5a" target="_top" xlink:title=" ">
<polygon fill="none" stroke="black" points="287,-240.5 287,-259.5 390,-259.5 390,-240.5 287,-240.5"/>
<text text-anchor="middle" x="338.5" y="-247.5" font-family="Helvetica,sans-Serif" font-size="10.00">js_call_c_function</text>
</a>
</g>
</g>
<!-- Node2&#45;&gt;Node444 -->
<g id="edge13" class="edge">
<title>Node2&#45;&gt;Node444</title>
<path fill="none" stroke="midnightblue" d="M220.49,-221.59C241.14,-226.6 266.61,-232.79 288.51,-238.11"/>
<polygon fill="midnightblue" stroke="midnightblue" points="287.75,-241.52 298.29,-240.48 289.4,-234.72 287.75,-241.52"/>
</g>
<!-- Node446 -->
<g id="node19" class="node">
<title>Node446</title>
<g id="a_node19"><a xlink:href="quickjs_8c.html#ad80a65b72c3a346d8a0047858a5f0b13" target="_top" xlink:title=" ">
<polygon fill="none" stroke="black" points="292,-613.5 292,-632.5 385,-632.5 385,-613.5 292,-613.5"/>
<text text-anchor="middle" x="338.5" y="-620.5" font-family="Helvetica,sans-Serif" font-size="10.00">JS_FreeRuntime</text>
</a>
</g>
</g>
<!-- Node2&#45;&gt;Node446 -->
<g id="edge21" class="edge">
<title>Node2&#45;&gt;Node446</title>
<path fill="none" stroke="midnightblue" d="M182.86,-221.64C190.27,-259.05 219.58,-397.81 266,-504 282.55,-541.85 308.98,-582.36 324.65,-605"/>
<polygon fill="midnightblue" stroke="midnightblue" points="321.86,-607.11 330.46,-613.29 327.59,-603.09 321.86,-607.11"/>
</g>
<!-- Node447 -->
<g id="node26" class="node">
<title>Node447</title>
<g id="a_node26"><a xlink:href="quickjs_8c.html#ac90552b1f1659acb3dae9a4c62479a30" target="_top" xlink:title=" ">
<polygon fill="none" stroke="red" points="266,-404.5 266,-423.5 411,-423.5 411,-404.5 266,-404.5"/>
<text text-anchor="middle" x="338.5" y="-411.5" font-family="Helvetica,sans-Serif" font-size="10.00">js_generator_function_call</text>
</a>
</g>
</g>
<!-- Node2&#45;&gt;Node447 -->
<g id="edge29" class="edge">
<title>Node2&#45;&gt;Node447</title>
<path fill="none" stroke="midnightblue" d="M188.55,-221.74C213.24,-253.61 291.82,-355.04 323.78,-396.3"/>
<polygon fill="midnightblue" stroke="midnightblue" points="321.14,-398.59 330.03,-404.35 326.67,-394.31 321.14,-398.59"/>
</g>
<!-- Node452 -->
<g id="node28" class="node">
<title>Node452</title>
<g id="a_node28"><a xlink:href="quickjs_8c.html#a2469c0e8a95a75d5835ec98ea967085f" target="_top" xlink:title=" ">
<polygon fill="none" stroke="red" points="299.5,-88.5 299.5,-107.5 377.5,-107.5 377.5,-88.5 299.5,-88.5"/>
<text text-anchor="middle" x="338.5" y="-95.5" font-family="Helvetica,sans-Serif" font-size="10.00">JS_InitAtoms</text>
</a>
</g>
</g>
<!-- Node2&#45;&gt;Node452 -->
<g id="edge33" class="edge">
<title>Node2&#45;&gt;Node452</title>
<path fill="none" stroke="midnightblue" d="M186.91,-202.23C199.15,-182.88 229.22,-139.57 266,-117 273.24,-112.56 281.51,-109.14 289.79,-106.52"/>
<polygon fill="midnightblue" stroke="midnightblue" points="290.79,-109.88 299.47,-103.79 288.89,-103.14 290.79,-109.88"/>
</g>
<!-- Node454 -->
<g id="node29" class="node">
<title>Node454</title>
<g id="a_node29"><a xlink:href="quickjs_8c.html#a13dc07fcd82cf239eb10a991e6be507d" target="_top" xlink:title=" ">
<polygon fill="none" stroke="black" points="276,-39 276,-69 401,-69 401,-39 276,-39"/>
<text text-anchor="start" x="284" y="-57" font-family="Helvetica,sans-Serif" font-size="10.00">js_malloc_usable_size</text>
<text text-anchor="middle" x="338.5" y="-46" font-family="Helvetica,sans-Serif" font-size="10.00">_unknown</text>
</a>
</g>
</g>
<!-- Node2&#45;&gt;Node454 -->
<g id="edge34" class="edge">
<title>Node2&#45;&gt;Node454</title>
<path fill="none" stroke="midnightblue" d="M184.53,-202.42C193.94,-178.17 221.94,-113.85 266,-79 268.27,-77.2 270.68,-75.53 273.19,-73.97"/>
<polygon fill="midnightblue" stroke="midnightblue" points="274.96,-77 282.04,-69.11 271.59,-70.86 274.96,-77"/>
</g>
<!-- Node455 -->
<g id="node30" class="node">
<title>Node455</title>
<g id="a_node30"><a xlink:href="quickjs_8c.html#acc46b60ebaafcded5d2021783ecc34e3" target="_top" xlink:title=" ">
<polygon fill="none" stroke="red" points="283.5,-0.5 283.5,-19.5 393.5,-19.5 393.5,-0.5 283.5,-0.5"/>
<text text-anchor="middle" x="338.5" y="-7.5" font-family="Helvetica,sans-Serif" font-size="10.00">JS_UpdateStackTop</text>
</a>
</g>
</g>
<!-- Node2&#45;&gt;Node455 -->
<g id="edge35" class="edge">
<title>Node2&#45;&gt;Node455</title>
<path fill="none" stroke="midnightblue" d="M182.55,-202.3C187.95,-171.79 208.83,-76.95 266,-29 268.56,-26.85 271.34,-24.95 274.26,-23.26"/>
<polygon fill="midnightblue" stroke="midnightblue" points="275.95,-26.32 283.4,-18.79 272.88,-20.03 275.95,-26.32"/>
</g>
<!-- Node4 -->
<g id="node4" class="node">
<title>Node4</title>
<g id="a_node4"><a xlink:href="quickjs_8c.html#ab515cd66efd3e476d2c22d6a55f13194" target="_top" xlink:title=" ">
<polygon fill="none" stroke="red" points="473,-784.5 473,-803.5 558,-803.5 558,-784.5 473,-784.5"/>
<text text-anchor="middle" x="515.5" y="-791.5" font-family="Helvetica,sans-Serif" font-size="10.00">JS_NewClass1</text>
</a>
</g>
</g>
<!-- Node3&#45;&gt;Node4 -->
<g id="edge3" class="edge">
<title>Node3&#45;&gt;Node4</title>
<path fill="none" stroke="midnightblue" d="M364.97,-746.53C386.65,-754.52 418.7,-766.02 447,-775 454.18,-777.28 461.83,-779.56 469.31,-781.72"/>
<polygon fill="midnightblue" stroke="midnightblue" points="468.41,-785.1 478.99,-784.47 470.33,-778.37 468.41,-785.1"/>
</g>
<!-- Node12 -->
<g id="node9" class="node">
<title>Node12</title>
<g id="a_node9"><a xlink:href="quickjs_8c.html#a1a4c02a29525d5cb2085dd8bca3af350" target="_top" xlink:title=" ">
<polygon fill="none" stroke="red" points="490.5,-126.5 490.5,-145.5 540.5,-145.5 540.5,-126.5 490.5,-126.5"/>
<text text-anchor="middle" x="515.5" y="-133.5" font-family="Helvetica,sans-Serif" font-size="10.00">JS_Call</text>
</a>
</g>
</g>
<!-- Node11&#45;&gt;Node12 -->
<g id="edge8" class="edge">
<title>Node11&#45;&gt;Node12</title>
<path fill="none" stroke="midnightblue" d="M389.78,-202.44C397.18,-199.97 404.49,-196.87 411,-193 431,-181.12 427.09,-167.03 447,-155 457.13,-148.88 469.31,-144.67 480.51,-141.8"/>
<polygon fill="midnightblue" stroke="midnightblue" points="481.47,-145.17 490.44,-139.52 479.91,-138.34 481.47,-145.17"/>
</g>
<!-- Node408 -->
<g id="node10" class="node">
<title>Node408</title>
<g id="a_node10"><a xlink:href="quickjs_8c.html#a03d5edf3e8bb18809d6675e5c08bac26" target="_top" xlink:title=" ">
<polygon fill="none" stroke="red" points="459.5,-88.5 459.5,-107.5 571.5,-107.5 571.5,-88.5 459.5,-88.5"/>
<text text-anchor="middle" x="515.5" y="-95.5" font-family="Helvetica,sans-Serif" font-size="10.00">JS_CallConstructor2</text>
</a>
</g>
</g>
<!-- Node11&#45;&gt;Node408 -->
<g id="edge9" class="edge">
<title>Node11&#45;&gt;Node408</title>
<path fill="none" stroke="midnightblue" d="M395.38,-202.41C401.01,-199.95 406.36,-196.86 411,-193 439.73,-169.09 418.45,-141.12 447,-117 448.99,-115.32 451.13,-113.78 453.36,-112.38"/>
<polygon fill="midnightblue" stroke="midnightblue" points="455.19,-115.38 462.41,-107.63 451.93,-109.18 455.19,-115.38"/>
</g>
<!-- Node227 -->
<g id="node11" class="node">
<title>Node227</title>
<g id="a_node11"><a xlink:href="quickjs_8c.html#af23ec7c9970ceb4671c59da7abd4b078" target="_top" xlink:title=" ">
<polygon fill="none" stroke="red" points="447,-202.5 447,-221.5 584,-221.5 584,-202.5 447,-202.5"/>
<text text-anchor="middle" x="515.5" y="-209.5" font-family="Helvetica,sans-Serif" font-size="10.00">js_check_stack_overflow</text>
</a>
</g>
</g>
<!-- Node11&#45;&gt;Node227 -->
<g id="edge10" class="edge">
<title>Node11&#45;&gt;Node227</title>
<path fill="none" stroke="midnightblue" d="M402.68,-212C413.7,-212 425.28,-212 436.63,-212"/>
<polygon fill="midnightblue" stroke="midnightblue" points="436.98,-215.5 446.98,-212 436.98,-208.5 436.98,-215.5"/>
</g>
<!-- Node241 -->
<g id="node12" class="node">
<title>Node241</title>
<g id="a_node12"><a xlink:href="quickjs_8c.html#a24be89a128d1cd7c0908604815b2b854" target="_top" xlink:title=" ">
<polygon fill="none" stroke="red" points="471,-50.5 471,-69.5 560,-69.5 560,-50.5 471,-50.5"/>
<text text-anchor="middle" x="515.5" y="-57.5" font-family="Helvetica,sans-Serif" font-size="10.00">js_same_value</text>
</a>
</g>
</g>
<!-- Node11&#45;&gt;Node241 -->
<g id="edge11" class="edge">
<title>Node11&#45;&gt;Node241</title>
<path fill="none" stroke="midnightblue" d="M397.33,-202.35C402.34,-199.88 407.01,-196.81 411,-193 449.43,-156.31 408.84,-115.97 447,-79 451.1,-75.03 455.96,-71.87 461.17,-69.37"/>
<polygon fill="midnightblue" stroke="midnightblue" points="462.82,-72.48 470.82,-65.53 460.23,-65.98 462.82,-72.48"/>
</g>
<!-- Node229 -->
<g id="node13" class="node">
<title>Node229</title>
<g id="a_node13"><a xlink:href="quickjs_8c.html#a8353f635fb8a20553c08db8cf38c17e0" target="_top" xlink:title=" ">
<polygon fill="none" stroke="red" points="450,-164.5 450,-183.5 581,-183.5 581,-164.5 450,-164.5"/>
<text text-anchor="middle" x="515.5" y="-171.5" font-family="Helvetica,sans-Serif" font-size="10.00">JS_ThrowStackOverflow</text>
</a>
</g>
</g>
<!-- Node11&#45;&gt;Node229 -->
<g id="edge12" class="edge">
<title>Node11&#45;&gt;Node229</title>
<path fill="none" stroke="midnightblue" d="M383.66,-202.41C407.07,-197.33 436.01,-191.04 460.71,-185.68"/>
<polygon fill="midnightblue" stroke="midnightblue" points="461.63,-189.06 470.66,-183.52 460.14,-182.22 461.63,-189.06"/>
</g>
<!-- Node444&#45;&gt;Node227 -->
<g id="edge14" class="edge">
<title>Node444&#45;&gt;Node227</title>
<path fill="none" stroke="midnightblue" d="M383.66,-240.41C407.07,-235.33 436.01,-229.04 460.71,-223.68"/>
<polygon fill="midnightblue" stroke="midnightblue" points="461.63,-227.06 470.66,-221.52 460.14,-220.22 461.63,-227.06"/>
</g>
<!-- Node444&#45;&gt;Node229 -->
<g id="edge19" class="edge">
<title>Node444&#45;&gt;Node229</title>
<path fill="none" stroke="midnightblue" d="M389.78,-240.44C397.18,-237.97 404.49,-234.87 411,-231 431,-219.12 427.09,-205.03 447,-193 450.58,-190.84 454.41,-188.92 458.36,-187.21"/>
<polygon fill="midnightblue" stroke="midnightblue" points="459.66,-190.46 467.74,-183.59 457.15,-183.92 459.66,-190.46"/>
</g>
<!-- Node445 -->
<g id="node15" class="node">
<title>Node445</title>
<g id="a_node15"><a xlink:href="quickjs_8c.html#a7346b86113acd072c9cfc8d238c4ff7c" target="_top" xlink:title=" ">
<polygon fill="none" stroke="red" points="464.5,-317 464.5,-347 566.5,-347 566.5,-317 464.5,-317"/>
<text text-anchor="start" x="472.5" y="-335" font-family="Helvetica,sans-Serif" font-size="10.00">js_create_iterator</text>
<text text-anchor="middle" x="515.5" y="-324" font-family="Helvetica,sans-Serif" font-size="10.00">_result</text>
</a>
</g>
</g>
<!-- Node444&#45;&gt;Node445 -->
<g id="edge15" class="edge">
<title>Node444&#45;&gt;Node445</title>
<path fill="none" stroke="midnightblue" d="M355.92,-259.59C376.71,-271.52 413.84,-292.15 447,-307 451.73,-309.12 456.69,-311.2 461.69,-313.21"/>
<polygon fill="midnightblue" stroke="midnightblue" points="460.72,-316.59 471.31,-316.97 463.27,-310.07 460.72,-316.59"/>
</g>
<!-- Node83 -->
<g id="node16" class="node">
<title>Node83</title>
<g id="a_node16"><a xlink:href="quickjs_8h.html#ad80a83d73e9b7d872b88fbf2943aebe9" target="_top" xlink:title=" ">
<polygon fill="none" stroke="black" points="620,-366.5 620,-385.5 707,-385.5 707,-366.5 620,-366.5"/>
<text text-anchor="middle" x="663.5" y="-373.5" font-family="Helvetica,sans-Serif" font-size="10.00">JS_IsException</text>
</a>
</g>
</g>
<!-- Node444&#45;&gt;Node83 -->
<g id="edge17" class="edge">
<title>Node444&#45;&gt;Node83</title>
<path fill="none" stroke="midnightblue" d="M345.61,-259.6C360.11,-281.44 399.01,-334.67 447,-357 498.49,-380.96 564.35,-383.24 609.63,-381.1"/>
<polygon fill="midnightblue" stroke="midnightblue" points="610.03,-384.58 619.82,-380.52 609.64,-377.59 610.03,-384.58"/>
</g>
<!-- Node95 -->
<g id="node17" class="node">
<title>Node95</title>
<g id="a_node17"><a xlink:href="quickjs_8h.html#ae91f44bd7249613050c18c7133702c67" target="_top" xlink:title=" ">
<polygon fill="none" stroke="red" points="471,-278.5 471,-297.5 560,-297.5 560,-278.5 471,-278.5"/>
<text text-anchor="middle" x="515.5" y="-285.5" font-family="Helvetica,sans-Serif" font-size="10.00">JS_NewFloat64</text>
</a>
</g>
</g>
<!-- Node444&#45;&gt;Node95 -->
<g id="edge18" class="edge">
<title>Node444&#45;&gt;Node95</title>
<path fill="none" stroke="midnightblue" d="M383.66,-259.59C407.15,-264.69 436.23,-271 460.99,-276.38"/>
<polygon fill="midnightblue" stroke="midnightblue" points="460.45,-279.84 470.96,-278.55 461.93,-273 460.45,-279.84"/>
</g>
<!-- Node237 -->
<g id="node18" class="node">
<title>Node237</title>
<g id="a_node18"><a xlink:href="quickjs_8c.html#a8cc9386cd04cfa067d0c6bf588c6bb58" target="_top" xlink:title=" ">
<polygon fill="none" stroke="red" points="476.5,-240.5 476.5,-259.5 554.5,-259.5 554.5,-240.5 476.5,-240.5"/>
<text text-anchor="middle" x="515.5" y="-247.5" font-family="Helvetica,sans-Serif" font-size="10.00">JS_ToFloat64</text>
</a>
</g>
</g>
<!-- Node444&#45;&gt;Node237 -->
<g id="edge20" class="edge">
<title>Node444&#45;&gt;Node237</title>
<path fill="none" stroke="midnightblue" d="M390.12,-250C414.04,-250 442.45,-250 466.08,-250"/>
<polygon fill="midnightblue" stroke="midnightblue" points="466.23,-253.5 476.23,-250 466.23,-246.5 466.23,-253.5"/>
</g>
<!-- Node445&#45;&gt;Node83 -->
<g id="edge16" class="edge">
<title>Node445&#45;&gt;Node83</title>
<path fill="none" stroke="midnightblue" d="M566.34,-347.02C584.15,-352.39 604.02,-358.38 621.05,-363.51"/>
<polygon fill="midnightblue" stroke="midnightblue" points="620.13,-366.89 630.72,-366.42 622.15,-360.19 620.13,-366.89"/>
</g>
<!-- Node446&#45;&gt;Node8 -->
<g id="edge23" class="edge">
<title>Node446&#45;&gt;Node8</title>
<path fill="none" stroke="midnightblue" d="M350.28,-613.35C368.76,-597.3 408.28,-565.09 447,-547 476.15,-533.38 558.35,-513.41 612.39,-501.08"/>
<polygon fill="midnightblue" stroke="midnightblue" points="613.49,-504.42 622.46,-498.79 611.94,-497.59 613.49,-504.42"/>
</g>
<!-- Node165 -->
<g id="node20" class="node">
<title>Node165</title>
<g id="a_node20"><a xlink:href="quickjs_8c.html#ac3bdf708c1dc092fd52508b5d29bd0ce" target="_top" xlink:title=" ">
<polygon fill="none" stroke="black" points="475.5,-556.5 475.5,-575.5 555.5,-575.5 555.5,-556.5 475.5,-556.5"/>
<text text-anchor="middle" x="515.5" y="-563.5" font-family="Helvetica,sans-Serif" font-size="10.00">atom_is_free</text>
</a>
</g>
</g>
<!-- Node446&#45;&gt;Node165 -->
<g id="edge22" class="edge">
<title>Node446&#45;&gt;Node165</title>
<path fill="none" stroke="midnightblue" d="M364.97,-613.47C386.65,-605.48 418.7,-593.98 447,-585 454.18,-582.72 461.83,-580.44 469.31,-578.28"/>
<polygon fill="midnightblue" stroke="midnightblue" points="470.33,-581.63 478.99,-575.53 468.41,-574.9 470.33,-581.63"/>
</g>
<!-- Node31 -->
<g id="node21" class="node">
<title>Node31</title>
<g id="a_node21"><a xlink:href="quickjs_8c.html#a69e19dda8a93d613203e0baa06f0ed8d" target="_top" xlink:title=" ">
<polygon fill="none" stroke="black" points="484.5,-746.5 484.5,-765.5 546.5,-765.5 546.5,-746.5 484.5,-746.5"/>
<text text-anchor="middle" x="515.5" y="-753.5" font-family="Helvetica,sans-Serif" font-size="10.00">js_free_rt</text>
</a>
</g>
</g>
<!-- Node446&#45;&gt;Node31 -->
<g id="edge24" class="edge">
<title>Node446&#45;&gt;Node31</title>
<path fill="none" stroke="midnightblue" d="M345.78,-632.6C360.63,-654.55 400.23,-708.67 447,-737 455.26,-742 464.88,-745.73 474.23,-748.49"/>
<polygon fill="midnightblue" stroke="midnightblue" points="473.62,-751.95 484.18,-751.12 475.41,-745.18 473.62,-751.95"/>
</g>
<!-- Node48 -->
<g id="node22" class="node">
<title>Node48</title>
<g id="a_node22"><a xlink:href="quickjs_8c.html#a5a0aca30abbb4d4ae86746541bf4cbc7" target="_top" xlink:title=" ">
<polygon fill="none" stroke="red" points="470.5,-708.5 470.5,-727.5 560.5,-727.5 560.5,-708.5 470.5,-708.5"/>
<text text-anchor="middle" x="515.5" y="-715.5" font-family="Helvetica,sans-Serif" font-size="10.00">JS_FreeAtomRT</text>
</a>
</g>
</g>
<!-- Node446&#45;&gt;Node48 -->
<g id="edge25" class="edge">
<title>Node446&#45;&gt;Node48</title>
<path fill="none" stroke="midnightblue" d="M350.31,-632.58C368.84,-648.53 408.42,-680.61 447,-699 451.88,-701.32 457.09,-703.41 462.38,-705.28"/>
<polygon fill="midnightblue" stroke="midnightblue" points="461.33,-708.62 471.92,-708.4 463.5,-701.97 461.33,-708.62"/>
</g>
<!-- Node52 -->
<g id="node23" class="node">
<title>Node52</title>
<g id="a_node23"><a xlink:href="quickjs_8h.html#ab8db583fa5e7c2b1935854a42859daed" target="_top" xlink:title=" ">
<polygon fill="none" stroke="red" points="470,-670.5 470,-689.5 561,-689.5 561,-670.5 470,-670.5"/>
<text text-anchor="middle" x="515.5" y="-677.5" font-family="Helvetica,sans-Serif" font-size="10.00">JS_FreeValueRT</text>
</a>
</g>
</g>
<!-- Node446&#45;&gt;Node52 -->
<g id="edge26" class="edge">
<title>Node446&#45;&gt;Node52</title>
<path fill="none" stroke="midnightblue" d="M364.97,-632.53C386.65,-640.52 418.7,-652.02 447,-661 454.18,-663.28 461.83,-665.56 469.31,-667.72"/>
<polygon fill="midnightblue" stroke="midnightblue" points="468.41,-671.1 478.99,-670.47 470.33,-664.37 468.41,-671.1"/>
</g>
<!-- Node202 -->
<g id="node24" class="node">
<title>Node202</title>
<g id="a_node24"><a xlink:href="quickjs_8c.html#aeeea589ee4cec4bbc3145210f4cf6e42" target="_top" xlink:title=" ">
<polygon fill="none" stroke="red" points="483.5,-632.5 483.5,-651.5 547.5,-651.5 547.5,-632.5 483.5,-632.5"/>
<text text-anchor="middle" x="515.5" y="-639.5" font-family="Helvetica,sans-Serif" font-size="10.00">JS_RunGC</text>
</a>
</g>
</g>
<!-- Node446&#45;&gt;Node202 -->
<g id="edge27" class="edge">
<title>Node446&#45;&gt;Node202</title>
<path fill="none" stroke="midnightblue" d="M385.02,-627.94C412.29,-630.9 446.69,-634.64 473.17,-637.51"/>
<polygon fill="midnightblue" stroke="midnightblue" points="472.95,-641.01 483.27,-638.61 473.7,-634.05 472.95,-641.01"/>
</g>
<!-- Node443 -->
<g id="node25" class="node">
<title>Node443</title>
<g id="a_node25"><a xlink:href="list_8h.html#acc8877b883e77ef12325dd5bfa4be0d3" target="_top" xlink:title=" ">
<polygon fill="none" stroke="black" points="481.5,-594.5 481.5,-613.5 549.5,-613.5 549.5,-594.5 481.5,-594.5"/>
<text text-anchor="middle" x="515.5" y="-601.5" font-family="Helvetica,sans-Serif" font-size="10.00">list_empty</text>
</a>
</g>
</g>
<!-- Node446&#45;&gt;Node443 -->
<g id="edge28" class="edge">
<title>Node446&#45;&gt;Node443</title>
<path fill="none" stroke="midnightblue" d="M385.02,-618.06C411.67,-615.16 445.11,-611.53 471.34,-608.69"/>
<polygon fill="midnightblue" stroke="midnightblue" points="471.8,-612.16 481.37,-607.6 471.05,-605.2 471.8,-612.16"/>
</g>
<!-- Node447&#45;&gt;Node83 -->
<g id="edge32" class="edge">
<title>Node447&#45;&gt;Node83</title>
<path fill="none" stroke="midnightblue" d="M411.09,-408.47C459.92,-404.32 526.01,-398 584,-390 592.38,-388.84 601.23,-387.44 609.85,-385.98"/>
<polygon fill="midnightblue" stroke="midnightblue" points="610.57,-389.4 619.82,-384.24 609.37,-382.51 610.57,-389.4"/>
</g>
<!-- Node448 -->
<g id="node27" class="node">
<title>Node448</title>
<g id="a_node27"><a xlink:href="quickjs_8c.html#a4bd986b91b68c6aa485f57c6142acccb" target="_top" xlink:title=" ">
<polygon fill="none" stroke="red" points="469.5,-442.5 469.5,-461.5 561.5,-461.5 561.5,-442.5 469.5,-442.5"/>
<text text-anchor="middle" x="515.5" y="-449.5" font-family="Helvetica,sans-Serif" font-size="10.00">async_func_init</text>
</a>
</g>
</g>
<!-- Node447&#45;&gt;Node448 -->
<g id="edge30" class="edge">
<title>Node447&#45;&gt;Node448</title>
<path fill="none" stroke="midnightblue" d="M383.66,-423.59C407.07,-428.67 436.01,-434.96 460.71,-440.32"/>
<polygon fill="midnightblue" stroke="midnightblue" points="460.14,-443.78 470.66,-442.48 461.63,-436.94 460.14,-443.78"/>
</g>
<!-- Node448&#45;&gt;Node8 -->
<g id="edge31" class="edge">
<title>Node448&#45;&gt;Node8</title>
<path fill="none" stroke="midnightblue" d="M553.34,-461.59C572.35,-466.54 595.73,-472.62 615.97,-477.89"/>
<polygon fill="midnightblue" stroke="midnightblue" points="615.36,-481.35 625.92,-480.48 617.13,-474.57 615.36,-481.35"/>
</g>
</g>
</svg>
        <g id="navigator" transform="translate(0 0)" fill="#404254">
                <rect fill="#f2f5e9" fill-opacity="0.5" stroke="#606060" stroke-width=".5" x="0" y="0" width="60" height="60"/>
                <use id="zoomplus" xlink:href="#zoomPlus" x="17" y="9" onmousedown="handleZoom(evt,'in')"/>
                <use id="zoomminus" xlink:href="#zoomMin" x="42" y="9" onmousedown="handleZoom(evt,'out')"/>
                <use id="reset" xlink:href="#resetDef" x="30" y="36" onmousedown="handleReset()"/>
                <g id="arrowUp" xlink:href="#dirArrow" transform="translate(30 24)" onmousedown="handlePan(0,-1)">
                  <use xlink:href="#rim" fill="#404040">
                        <set attributeName="fill" to="#808080" begin="arrowUp.mouseover" end="arrowUp.mouseout"/>
                  </use>
                  <path fill="none" stroke="white" stroke-width="1.5" d="M0,-3.0v7 M-2.5,-0.5L0,-3.0L2.5,-0.5"/>
                </g>
                <g id="arrowRight" xlink:href="#dirArrow" transform="rotate(90) translate(36 -43)" onmousedown="handlePan(1,0)">
                  <use xlink:href="#rim" fill="#404040">
                        <set attributeName="fill" to="#808080" begin="arrowRight.mouseover" end="arrowRight.mouseout"/>
                  </use>
                  <path fill="none" stroke="white" stroke-width="1.5" d="M0,-3.0v7 M-2.5,-0.5L0,-3.0L2.5,-0.5"/>
                </g>
                <g id="arrowDown" xlink:href="#dirArrow" transform="rotate(180) translate(-30 -48)" onmousedown="handlePan(0,1)">
                  <use xlink:href="#rim" fill="#404040">
                        <set attributeName="fill" to="#808080" begin="arrowDown.mouseover" end="arrowDown.mouseout"/>
                  </use>
                  <path fill="none" stroke="white" stroke-width="1.5" d="M0,-3.0v7 M-2.5,-0.5L0,-3.0L2.5,-0.5"/>
                </g>
                <g id="arrowLeft" xlink:href="#dirArrow" transform="rotate(270) translate(-36 17)" onmousedown="handlePan(-1,0)">
                  <use xlink:href="#rim" fill="#404040">
                        <set attributeName="fill" to="#808080" begin="arrowLeft.mouseover" end="arrowLeft.mouseout"/>
                  </use>
                  <path fill="none" stroke="white" stroke-width="1.5" d="M0,-3.0v7 M-2.5,-0.5L0,-3.0L2.5,-0.5"/>
                </g>
        </g>
        <svg viewBox="0 0 15 15" width="100%" height="30px" preserveAspectRatio="xMaxYMin meet">
         <g id="arrow_out" transform="scale(0.3 0.3)">
          <a xlink:href="quickjs_8h_afc1ca27a266094085ebb43e2eea0dda2_cgraph_org.svg" target="_base">
           <rect id="button" ry="5" rx="5" y="6" x="6" height="38" width="38"
                fill="#f2f5e9" fill-opacity="0.5" stroke="#606060" stroke-width="1.0"/>
           <path id="arrow"
             d="M 11.500037,31.436501 C 11.940474,20.09759 22.043105,11.32322 32.158766,21.979434 L 37.068811,17.246167 C 37.068811,17.246167 37.088388,32 37.088388,32 L 22.160133,31.978069 C 22.160133,31.978069 26.997745,27.140456 26.997745,27.140456 C 18.528582,18.264221 13.291696,25.230495 11.500037,31.436501 z"
             style="fill:#404040;"/>
          </a>
         </g>
        </svg>
</svg>
