<?xml version="1.0" encoding="UTF-8" standalone="no"?>
<!DOCTYPE svg PUBLIC "-//W3C//DTD SVG 1.1//EN"
 "http://www.w3.org/Graphics/SVG/1.1/DTD/svg11.dtd">
<!-- Generated by graphviz version 2.43.0 (0)
 -->
<!-- Title: js_function_hasInstance Pages: 1 -->
<svg width="977pt" height="351pt"
 viewBox="0.00 0.00 977.00 351.48" xmlns="http://www.w3.org/2000/svg" xmlns:xlink="http://www.w3.org/1999/xlink">
<g id="graph0" class="graph" transform="scale(1 1) rotate(0) translate(4 347.48)">
<title>js_function_hasInstance</title>
<!-- Node1 -->
<g id="node1" class="node">
<title>Node1</title>
<g id="a_node1"><a xlink:title=" ">
<polygon fill="#bfbfbf" stroke="black" points="0,-152.5 0,-171.5 134,-171.5 134,-152.5 0,-152.5"/>
<text text-anchor="middle" x="67" y="-159.5" font-family="Helvetica,sans-Serif" font-size="10.00">js_function_hasInstance</text>
</a>
</g>
</g>
<!-- Node2 -->
<g id="node2" class="node">
<title>Node2</title>
<g id="a_node2"><a xlink:href="quickjs_8h.html#a93abffa925714e249a6aa2f4ae7900f6" target="_top" xlink:title=" ">
<polygon fill="none" stroke="black" points="200,-171.5 200,-190.5 274,-190.5 274,-171.5 200,-171.5"/>
<text text-anchor="middle" x="237" y="-178.5" font-family="Helvetica,sans-Serif" font-size="10.00">JS_NewBool</text>
</a>
</g>
</g>
<!-- Node1&#45;&gt;Node2 -->
<g id="edge1" class="edge">
<title>Node1&#45;&gt;Node2</title>
<path fill="none" stroke="midnightblue" d="M134.4,-169.51C152.78,-171.59 172.34,-173.8 189.33,-175.72"/>
<polygon fill="midnightblue" stroke="midnightblue" points="189.22,-179.23 199.55,-176.88 190.01,-172.28 189.22,-179.23"/>
</g>
<!-- Node3 -->
<g id="node3" class="node">
<title>Node3</title>
<g id="a_node3"><a xlink:href="quickjs_8c.html#aa0b5c1a59ff4832154e2a98d7c63a4b2" target="_top" xlink:title=" ">
<polygon fill="none" stroke="black" points="170,-133.5 170,-152.5 304,-152.5 304,-133.5 170,-133.5"/>
<text text-anchor="middle" x="237" y="-140.5" font-family="Helvetica,sans-Serif" font-size="10.00">JS_OrdinaryIsInstanceOf</text>
</a>
</g>
</g>
<!-- Node1&#45;&gt;Node3 -->
<g id="edge2" class="edge">
<title>Node1&#45;&gt;Node3</title>
<path fill="none" stroke="midnightblue" d="M134.4,-154.49C142.68,-153.55 151.2,-152.59 159.62,-151.64"/>
<polygon fill="midnightblue" stroke="midnightblue" points="160.27,-155.09 169.81,-150.49 159.48,-148.13 160.27,-155.09"/>
</g>
<!-- Node4 -->
<g id="node4" class="node">
<title>Node4</title>
<g id="a_node4"><a xlink:href="quickjs_8h.html#a775522f2d084fc8fa0fcb33f390006b4" target="_top" xlink:title=" ">
<polygon fill="none" stroke="black" points="766,-285.5 766,-304.5 843,-304.5 843,-285.5 766,-285.5"/>
<text text-anchor="middle" x="804.5" y="-292.5" font-family="Helvetica,sans-Serif" font-size="10.00">JS_DupValue</text>
</a>
</g>
</g>
<!-- Node3&#45;&gt;Node4 -->
<g id="edge3" class="edge">
<title>Node3&#45;&gt;Node4</title>
<path fill="none" stroke="midnightblue" d="M290.49,-152.6C295.46,-155.07 300.1,-158.15 304,-162 343.33,-200.81 297.36,-245.85 340,-281 464.88,-383.95 679.47,-333.84 765.85,-307.58"/>
<polygon fill="midnightblue" stroke="midnightblue" points="766.98,-310.89 775.5,-304.58 764.91,-304.2 766.98,-310.89"/>
</g>
<!-- Node5 -->
<g id="node5" class="node">
<title>Node5</title>
<g id="a_node5"><a xlink:href="quickjs_8h.html#afaa20c47565bc704c6c85f3d77254e7d" target="_top" xlink:title=" ">
<polygon fill="none" stroke="black" points="765,-228.5 765,-247.5 844,-247.5 844,-228.5 765,-228.5"/>
<text text-anchor="middle" x="804.5" y="-235.5" font-family="Helvetica,sans-Serif" font-size="10.00">JS_FreeValue</text>
</a>
</g>
</g>
<!-- Node3&#45;&gt;Node5 -->
<g id="edge4" class="edge">
<title>Node3&#45;&gt;Node5</title>
<path fill="none" stroke="midnightblue" d="M274.64,-152.54C293.98,-157.34 318.17,-162.98 340,-167 511.55,-198.57 557.76,-185.84 729,-219 739.02,-220.94 749.71,-223.42 759.77,-225.94"/>
<polygon fill="midnightblue" stroke="midnightblue" points="759.01,-229.36 769.57,-228.46 760.75,-222.58 759.01,-229.36"/>
</g>
<!-- Node43 -->
<g id="node7" class="node">
<title>Node43</title>
<g id="a_node7"><a xlink:href="quickjs_8h.html#a89b7c8686c7eee70b86be722ee4730ad" target="_top" xlink:title=" ">
<polygon fill="none" stroke="black" points="477,-266.5 477,-285.5 566,-285.5 566,-266.5 477,-266.5"/>
<text text-anchor="middle" x="521.5" y="-273.5" font-family="Helvetica,sans-Serif" font-size="10.00">JS_GetProperty</text>
</a>
</g>
</g>
<!-- Node3&#45;&gt;Node43 -->
<g id="edge6" class="edge">
<title>Node3&#45;&gt;Node43</title>
<path fill="none" stroke="midnightblue" d="M289.5,-152.64C294.78,-155.09 299.76,-158.16 304,-162 335.95,-190.9 306,-225.54 340,-252 375.61,-279.71 427.63,-283.98 466.69,-282.34"/>
<polygon fill="midnightblue" stroke="midnightblue" points="467.04,-285.82 476.82,-281.76 466.64,-278.83 467.04,-285.82"/>
</g>
<!-- Node391 -->
<g id="node9" class="node">
<title>Node391</title>
<g id="a_node9"><a xlink:href="quickjs_8c.html#a7f82fd53b039b4e12f1addfa15d750ae" target="_top" xlink:title=" ">
<polygon fill="none" stroke="red" points="607.5,-228.5 607.5,-247.5 723.5,-247.5 723.5,-228.5 607.5,-228.5"/>
<text text-anchor="middle" x="665.5" y="-235.5" font-family="Helvetica,sans-Serif" font-size="10.00">JS_GetPrototypeFree</text>
</a>
</g>
</g>
<!-- Node3&#45;&gt;Node391 -->
<g id="edge10" class="edge">
<title>Node3&#45;&gt;Node391</title>
<path fill="none" stroke="midnightblue" d="M285.98,-152.54C292.37,-155.01 298.58,-158.11 304,-162 326.83,-178.4 315.6,-200.04 340,-214 420.22,-259.88 530.44,-256.92 599.55,-248.81"/>
<polygon fill="midnightblue" stroke="midnightblue" points="600.37,-252.23 609.86,-247.53 599.5,-245.29 600.37,-252.23"/>
</g>
<!-- Node52 -->
<g id="node10" class="node">
<title>Node52</title>
<g id="a_node10"><a xlink:href="quickjs_8h.html#ad80a83d73e9b7d872b88fbf2943aebe9" target="_top" xlink:title=" ">
<polygon fill="none" stroke="black" points="478,-152.5 478,-171.5 565,-171.5 565,-152.5 478,-152.5"/>
<text text-anchor="middle" x="521.5" y="-159.5" font-family="Helvetica,sans-Serif" font-size="10.00">JS_IsException</text>
</a>
</g>
</g>
<!-- Node3&#45;&gt;Node52 -->
<g id="edge12" class="edge">
<title>Node3&#45;&gt;Node52</title>
<path fill="none" stroke="midnightblue" d="M304.23,-147.45C354.12,-150.81 421.58,-155.35 467.82,-158.46"/>
<polygon fill="midnightblue" stroke="midnightblue" points="467.72,-161.96 477.93,-159.14 468.19,-154.97 467.72,-161.96"/>
</g>
<!-- Node213 -->
<g id="node11" class="node">
<title>Node213</title>
<g id="a_node11"><a xlink:href="quickjs_8c.html#a1ca9cdb1fa2ffc3e6506e92b200e490f" target="_top" xlink:title=" ">
<polygon fill="none" stroke="black" points="481.5,-105.5 481.5,-124.5 561.5,-124.5 561.5,-105.5 481.5,-105.5"/>
<text text-anchor="middle" x="521.5" y="-112.5" font-family="Helvetica,sans-Serif" font-size="10.00">JS_IsFunction</text>
</a>
</g>
</g>
<!-- Node3&#45;&gt;Node213 -->
<g id="edge13" class="edge">
<title>Node3&#45;&gt;Node213</title>
<path fill="none" stroke="midnightblue" d="M257.34,-133.41C277.43,-124.03 310.06,-110.4 340,-105 384.04,-97.06 435.02,-101.07 471.55,-106.18"/>
<polygon fill="midnightblue" stroke="midnightblue" points="471.04,-109.64 481.45,-107.64 472.07,-102.72 471.04,-109.64"/>
</g>
<!-- Node420 -->
<g id="node12" class="node">
<title>Node420</title>
<g id="a_node12"><a xlink:href="quickjs_8c.html#af4cd70eee97bbcab2d0f2e46cf53ccd7" target="_top" xlink:title=" ">
<polygon fill="none" stroke="red" points="344.5,-114.5 344.5,-133.5 436.5,-133.5 436.5,-114.5 344.5,-114.5"/>
<text text-anchor="middle" x="390.5" y="-121.5" font-family="Helvetica,sans-Serif" font-size="10.00">JS_IsInstanceOf</text>
</a>
</g>
</g>
<!-- Node3&#45;&gt;Node420 -->
<g id="edge14" class="edge">
<title>Node3&#45;&gt;Node420</title>
<path fill="none" stroke="midnightblue" d="M269.39,-133.47C288.1,-130.01 312.37,-126.66 334.2,-124.41"/>
<polygon fill="midnightblue" stroke="midnightblue" points="334.74,-127.87 344.36,-123.43 334.07,-120.91 334.74,-127.87"/>
</g>
<!-- Node208 -->
<g id="node13" class="node">
<title>Node208</title>
<g id="a_node13"><a xlink:href="quickjs_8h.html#a149f24b67e745bad93573b3b4c80db4c" target="_top" xlink:title=" ">
<polygon fill="none" stroke="black" points="492,-48.5 492,-67.5 551,-67.5 551,-48.5 492,-48.5"/>
<text text-anchor="middle" x="521.5" y="-55.5" font-family="Helvetica,sans-Serif" font-size="10.00">JS_IsNull</text>
</a>
</g>
</g>
<!-- Node3&#45;&gt;Node208 -->
<g id="edge20" class="edge">
<title>Node3&#45;&gt;Node208</title>
<path fill="none" stroke="midnightblue" d="M255.56,-133.43C275.51,-122.91 309.27,-106.17 340,-96 387.59,-80.25 444.48,-69.55 481.49,-63.62"/>
<polygon fill="midnightblue" stroke="midnightblue" points="482.5,-67 491.84,-62 481.42,-60.09 482.5,-67"/>
</g>
<!-- Node295 -->
<g id="node14" class="node">
<title>Node295</title>
<g id="a_node14"><a xlink:href="quickjs_8c.html#a246e337d6566552736209730827c0871" target="_top" xlink:title=" ">
<polygon fill="none" stroke="red" points="340,-0.5 340,-19.5 441,-19.5 441,-0.5 340,-0.5"/>
<text text-anchor="middle" x="390.5" y="-7.5" font-family="Helvetica,sans-Serif" font-size="10.00">js_poll_interrupts</text>
</a>
</g>
</g>
<!-- Node3&#45;&gt;Node295 -->
<g id="edge21" class="edge">
<title>Node3&#45;&gt;Node295</title>
<path fill="none" stroke="midnightblue" d="M244.97,-133.44C260.26,-113 298.69,-64.44 340,-34 344.93,-30.37 350.49,-27.05 356.05,-24.12"/>
<polygon fill="midnightblue" stroke="midnightblue" points="357.9,-27.12 365.32,-19.56 354.81,-20.84 357.9,-27.12"/>
</g>
<!-- Node6 -->
<g id="node6" class="node">
<title>Node6</title>
<g id="a_node6"><a xlink:href="quickjs_8c.html#aa059f309c30fd5166d16c82a97973146" target="_top" xlink:title=" ">
<polygon fill="none" stroke="red" points="880,-228.5 880,-247.5 969,-247.5 969,-228.5 880,-228.5"/>
<text text-anchor="middle" x="924.5" y="-235.5" font-family="Helvetica,sans-Serif" font-size="10.00">__JS_FreeValue</text>
</a>
</g>
</g>
<!-- Node5&#45;&gt;Node6 -->
<g id="edge5" class="edge">
<title>Node5&#45;&gt;Node6</title>
<path fill="none" stroke="midnightblue" d="M844.14,-238C852.35,-238 861.16,-238 869.82,-238"/>
<polygon fill="midnightblue" stroke="midnightblue" points="869.87,-241.5 879.87,-238 869.87,-234.5 869.87,-241.5"/>
</g>
<!-- Node44 -->
<g id="node8" class="node">
<title>Node44</title>
<g id="a_node8"><a xlink:href="quickjs_8c.html#a5762c57ae0c9937e986040c01222833a" target="_top" xlink:title=" ">
<polygon fill="none" stroke="red" points="602,-266.5 602,-285.5 729,-285.5 729,-266.5 602,-266.5"/>
<text text-anchor="middle" x="665.5" y="-273.5" font-family="Helvetica,sans-Serif" font-size="10.00">JS_GetPropertyInternal</text>
</a>
</g>
</g>
<!-- Node43&#45;&gt;Node44 -->
<g id="edge7" class="edge">
<title>Node43&#45;&gt;Node44</title>
<path fill="none" stroke="midnightblue" d="M566.26,-276C574.35,-276 582.98,-276 591.66,-276"/>
<polygon fill="midnightblue" stroke="midnightblue" points="591.83,-279.5 601.83,-276 591.83,-272.5 591.83,-279.5"/>
</g>
<!-- Node44&#45;&gt;Node4 -->
<g id="edge8" class="edge">
<title>Node44&#45;&gt;Node4</title>
<path fill="none" stroke="midnightblue" d="M729.39,-284.72C738.19,-285.94 747.11,-287.18 755.58,-288.35"/>
<polygon fill="midnightblue" stroke="midnightblue" points="755.25,-291.84 765.63,-289.75 756.21,-284.91 755.25,-291.84"/>
</g>
<!-- Node44&#45;&gt;Node5 -->
<g id="edge9" class="edge">
<title>Node44&#45;&gt;Node5</title>
<path fill="none" stroke="midnightblue" d="M701.07,-266.41C718.68,-261.53 740.28,-255.54 759.1,-250.32"/>
<polygon fill="midnightblue" stroke="midnightblue" points="760.24,-253.63 768.94,-247.59 758.37,-246.89 760.24,-253.63"/>
</g>
<!-- Node391&#45;&gt;Node5 -->
<g id="edge11" class="edge">
<title>Node391&#45;&gt;Node5</title>
<path fill="none" stroke="midnightblue" d="M723.81,-238C734.04,-238 744.61,-238 754.58,-238"/>
<polygon fill="midnightblue" stroke="midnightblue" points="754.71,-241.5 764.71,-238 754.71,-234.5 754.71,-241.5"/>
</g>
<!-- Node420&#45;&gt;Node3 -->
<g id="edge19" class="edge">
<title>Node420&#45;&gt;Node3</title>
<path fill="none" stroke="midnightblue" d="M358.16,-133.52C345.28,-135.9 329.76,-138.24 314.21,-140.19"/>
<polygon fill="midnightblue" stroke="midnightblue" points="313.52,-136.75 304.01,-141.42 314.36,-143.7 313.52,-136.75"/>
</g>
<!-- Node420&#45;&gt;Node43 -->
<g id="edge15" class="edge">
<title>Node420&#45;&gt;Node43</title>
<path fill="none" stroke="midnightblue" d="M399.57,-133.51C420.84,-158.57 478.65,-226.68 505.91,-258.8"/>
<polygon fill="midnightblue" stroke="midnightblue" points="503.29,-261.14 512.43,-266.5 508.63,-256.61 503.29,-261.14"/>
</g>
<!-- Node420&#45;&gt;Node52 -->
<g id="edge16" class="edge">
<title>Node420&#45;&gt;Node52</title>
<path fill="none" stroke="midnightblue" d="M424.05,-133.59C440.4,-138.4 460.41,-144.3 477.96,-149.47"/>
<polygon fill="midnightblue" stroke="midnightblue" points="477.38,-152.95 487.96,-152.41 479.35,-146.23 477.38,-152.95"/>
</g>
<!-- Node420&#45;&gt;Node213 -->
<g id="edge17" class="edge">
<title>Node420&#45;&gt;Node213</title>
<path fill="none" stroke="midnightblue" d="M436.62,-120.85C447.74,-120.08 459.72,-119.24 471.04,-118.45"/>
<polygon fill="midnightblue" stroke="midnightblue" points="471.47,-121.93 481.2,-117.74 470.99,-114.95 471.47,-121.93"/>
</g>
<!-- Node420&#45;&gt;Node208 -->
<g id="edge18" class="edge">
<title>Node420&#45;&gt;Node208</title>
<path fill="none" stroke="midnightblue" d="M410.26,-114.4C431.94,-103.31 467.85,-84.94 492.76,-72.19"/>
<polygon fill="midnightblue" stroke="midnightblue" points="494.41,-75.28 501.72,-67.61 491.22,-69.05 494.41,-75.28"/>
</g>
</g>
</svg>
