<?xml version="1.0" encoding="UTF-8" standalone="no"?>
<!DOCTYPE svg PUBLIC "-//W3C//DTD SVG 1.1//EN"
 "http://www.w3.org/Graphics/SVG/1.1/DTD/svg11.dtd">
<!-- Generated by graphviz version 2.43.0 (0)
 -->
<!-- Title: JS_CopyDataProperties Pages: 1 -->
<svg width="1113pt" height="1276pt"
 viewBox="0.00 0.00 1113.00 1275.76" xmlns="http://www.w3.org/2000/svg" xmlns:xlink="http://www.w3.org/1999/xlink">
<g id="graph0" class="graph" transform="scale(1 1) rotate(0) translate(4 1271.76)">
<title>JS_CopyDataProperties</title>
<!-- Node1 -->
<g id="node1" class="node">
<title>Node1</title>
<g id="a_node1"><a xlink:title=" ">
<polygon fill="#bfbfbf" stroke="black" points="0,-1125.26 0,-1144.26 128,-1144.26 128,-1125.26 0,-1125.26"/>
<text text-anchor="middle" x="64" y="-1132.26" font-family="Helvetica,sans-Serif" font-size="10.00">JS_CopyDataProperties</text>
</a>
</g>
</g>
<!-- Node2 -->
<g id="node2" class="node">
<title>Node2</title>
<g id="a_node2"><a xlink:href="quickjs_8c.html#a0a8765bd4012467d9139bc24aabcb3ca" target="_top" xlink:title=" ">
<polygon fill="none" stroke="black" points="315,-1106.26 315,-1125.26 446,-1125.26 446,-1106.26 315,-1106.26"/>
<text text-anchor="middle" x="380.5" y="-1113.26" font-family="Helvetica,sans-Serif" font-size="10.00">JS_DefinePropertyValue</text>
</a>
</g>
</g>
<!-- Node1&#45;&gt;Node2 -->
<g id="edge1" class="edge">
<title>Node1&#45;&gt;Node2</title>
<path fill="none" stroke="midnightblue" d="M128.27,-1130.94C179.24,-1127.86 251.03,-1123.52 304.82,-1120.27"/>
<polygon fill="midnightblue" stroke="midnightblue" points="305.22,-1123.75 314.99,-1119.66 304.79,-1116.77 305.22,-1123.75"/>
</g>
<!-- Node67 -->
<g id="node15" class="node">
<title>Node67</title>
<g id="a_node15"><a xlink:href="quickjs_8h.html#ad80a83d73e9b7d872b88fbf2943aebe9" target="_top" xlink:title=" ">
<polygon fill="none" stroke="black" points="887,-992.26 887,-1011.26 974,-1011.26 974,-992.26 887,-992.26"/>
<text text-anchor="middle" x="930.5" y="-999.26" font-family="Helvetica,sans-Serif" font-size="10.00">JS_IsException</text>
</a>
</g>
</g>
<!-- Node1&#45;&gt;Node67 -->
<g id="edge56" class="edge">
<title>Node1&#45;&gt;Node67</title>
<path fill="none" stroke="midnightblue" d="M76.82,-1144.29C94.73,-1158.34 130.25,-1184.68 164,-1200.76 254.54,-1243.91 279.2,-1267.76 379.5,-1267.76 379.5,-1267.76 379.5,-1267.76 583.5,-1267.76 617.24,-1267.76 627.3,-1264.78 657,-1248.76 672.1,-1240.62 853.86,-1072.1 911.85,-1018.19"/>
<polygon fill="midnightblue" stroke="midnightblue" points="914.24,-1020.75 919.18,-1011.37 909.47,-1015.62 914.24,-1020.75"/>
</g>
<!-- Node360 -->
<g id="node24" class="node">
<title>Node360</title>
<g id="a_node24"><a xlink:href="quickjs_8c.html#adfe21c674d998ca6586b7f7400352dc4" target="_top" xlink:title=" ">
<polygon fill="none" stroke="black" points="544,-1182.26 544,-1201.26 621,-1201.26 621,-1182.26 544,-1182.26"/>
<text text-anchor="middle" x="582.5" y="-1189.26" font-family="Helvetica,sans-Serif" font-size="10.00">js_free_desc</text>
</a>
</g>
</g>
<!-- Node1&#45;&gt;Node360 -->
<g id="edge41" class="edge">
<title>Node1&#45;&gt;Node360</title>
<path fill="none" stroke="midnightblue" d="M104.34,-1144.37C122.43,-1148.56 144.23,-1153.31 164,-1156.76 296.42,-1179.9 455.23,-1187.87 533.32,-1190.51"/>
<polygon fill="midnightblue" stroke="midnightblue" points="533.68,-1194.03 543.79,-1190.85 533.91,-1187.03 533.68,-1194.03"/>
</g>
<!-- Node357 -->
<g id="node25" class="node">
<title>Node357</title>
<g id="a_node25"><a xlink:href="quickjs_8c.html#a6b42cd922447e1eb6bfc52761895a174" target="_top" xlink:title=" ">
<polygon fill="none" stroke="red" points="527.5,-1220.26 527.5,-1239.26 637.5,-1239.26 637.5,-1220.26 527.5,-1220.26"/>
<text text-anchor="middle" x="582.5" y="-1227.26" font-family="Helvetica,sans-Serif" font-size="10.00">js_free_prop_enum</text>
</a>
</g>
</g>
<!-- Node1&#45;&gt;Node357 -->
<g id="edge43" class="edge">
<title>Node1&#45;&gt;Node357</title>
<path fill="none" stroke="midnightblue" d="M83.46,-1144.3C102.96,-1153.97 134.87,-1168.63 164,-1176.76 286.11,-1210.83 434.49,-1223.07 517.43,-1227.41"/>
<polygon fill="midnightblue" stroke="midnightblue" points="517.3,-1230.91 527.46,-1227.91 517.65,-1223.92 517.3,-1230.91"/>
</g>
<!-- Node271 -->
<g id="node26" class="node">
<title>Node271</title>
<g id="a_node26"><a xlink:href="quickjs_8c.html#ad13892c0a0f11781b566808876658099" target="_top" xlink:title=" ">
<polygon fill="none" stroke="red" points="508,-954.26 508,-973.26 657,-973.26 657,-954.26 508,-954.26"/>
<text text-anchor="middle" x="582.5" y="-961.26" font-family="Helvetica,sans-Serif" font-size="10.00">JS_GetOwnPropertyInternal</text>
</a>
</g>
</g>
<!-- Node1&#45;&gt;Node271 -->
<g id="edge44" class="edge">
<title>Node1&#45;&gt;Node271</title>
<path fill="none" stroke="midnightblue" d="M93.88,-1125.2C181.37,-1096.23 443.63,-1009.41 542.87,-976.55"/>
<polygon fill="midnightblue" stroke="midnightblue" points="544.12,-979.82 552.51,-973.36 541.92,-973.18 544.12,-979.82"/>
</g>
<!-- Node358 -->
<g id="node27" class="node">
<title>Node358</title>
<g id="a_node27"><a xlink:href="quickjs_8c.html#a176ac5ff56a118a0b1b2566798d28823" target="_top" xlink:title=" ">
<polygon fill="none" stroke="red" points="289,-1144.26 289,-1163.26 472,-1163.26 472,-1144.26 289,-1144.26"/>
<text text-anchor="middle" x="380.5" y="-1151.26" font-family="Helvetica,sans-Serif" font-size="10.00">JS_GetOwnPropertyNamesInternal</text>
</a>
</g>
</g>
<!-- Node1&#45;&gt;Node358 -->
<g id="edge50" class="edge">
<title>Node1&#45;&gt;Node358</title>
<path fill="none" stroke="midnightblue" d="M128.27,-1138.58C171.39,-1141.19 229.42,-1144.69 278.84,-1147.68"/>
<polygon fill="midnightblue" stroke="midnightblue" points="278.73,-1151.18 288.92,-1148.29 279.15,-1144.19 278.73,-1151.18"/>
</g>
<!-- Node123 -->
<g id="node28" class="node">
<title>Node123</title>
<g id="a_node28"><a xlink:href="quickjs_8h.html#a89b7c8686c7eee70b86be722ee4730ad" target="_top" xlink:title=" ">
<polygon fill="none" stroke="red" points="164,-1030.26 164,-1049.26 253,-1049.26 253,-1030.26 164,-1030.26"/>
<text text-anchor="middle" x="208.5" y="-1037.26" font-family="Helvetica,sans-Serif" font-size="10.00">JS_GetProperty</text>
</a>
</g>
</g>
<!-- Node1&#45;&gt;Node123 -->
<g id="edge55" class="edge">
<title>Node1&#45;&gt;Node123</title>
<path fill="none" stroke="midnightblue" d="M77.48,-1125.08C95.94,-1110.93 131.81,-1084.08 164,-1063.76 169.14,-1060.52 174.75,-1057.24 180.17,-1054.19"/>
<polygon fill="midnightblue" stroke="midnightblue" points="181.94,-1057.21 189.02,-1049.33 178.57,-1051.08 181.94,-1057.21"/>
</g>
<!-- Node435 -->
<g id="node29" class="node">
<title>Node435</title>
<g id="a_node29"><a xlink:href="quickjs_8h.html#af763b173e78debf2075670ca2c128a30" target="_top" xlink:title=" ">
<polygon fill="none" stroke="black" points="164.5,-707.26 164.5,-726.26 252.5,-726.26 252.5,-707.26 164.5,-707.26"/>
<text text-anchor="middle" x="208.5" y="-714.26" font-family="Helvetica,sans-Serif" font-size="10.00">JS_SetProperty</text>
</a>
</g>
</g>
<!-- Node1&#45;&gt;Node435 -->
<g id="edge57" class="edge">
<title>Node1&#45;&gt;Node435</title>
<path fill="none" stroke="midnightblue" d="M68.24,-1125.24C86.41,-1071.96 175.6,-810.33 200.84,-736.31"/>
<polygon fill="midnightblue" stroke="midnightblue" points="204.28,-737.04 204.2,-726.44 197.66,-734.78 204.28,-737.04"/>
</g>
<!-- Node3 -->
<g id="node3" class="node">
<title>Node3</title>
<g id="a_node3"><a xlink:href="quickjs_8c.html#ab50618f1bf78e444caa6da0e3e2785d7" target="_top" xlink:title=" ">
<polygon fill="none" stroke="red" points="530.5,-517.26 530.5,-536.26 634.5,-536.26 634.5,-517.26 530.5,-517.26"/>
<text text-anchor="middle" x="582.5" y="-524.26" font-family="Helvetica,sans-Serif" font-size="10.00">JS_DefineProperty</text>
</a>
</g>
</g>
<!-- Node2&#45;&gt;Node3 -->
<g id="edge2" class="edge">
<title>Node2&#45;&gt;Node3</title>
<path fill="none" stroke="midnightblue" d="M384.8,-1106.03C407.77,-1038.41 543.54,-638.55 575,-545.91"/>
<polygon fill="midnightblue" stroke="midnightblue" points="578.33,-546.99 578.23,-536.4 571.7,-544.74 578.33,-546.99"/>
</g>
<!-- Node31 -->
<g id="node14" class="node">
<title>Node31</title>
<g id="a_node14"><a xlink:href="quickjs_8h.html#afaa20c47565bc704c6c85f3d77254e7d" target="_top" xlink:title=" ">
<polygon fill="none" stroke="red" points="891,-1068.26 891,-1087.26 970,-1087.26 970,-1068.26 891,-1068.26"/>
<text text-anchor="middle" x="930.5" y="-1075.26" font-family="Helvetica,sans-Serif" font-size="10.00">JS_FreeValue</text>
</a>
</g>
</g>
<!-- Node2&#45;&gt;Node31 -->
<g id="edge40" class="edge">
<title>Node2&#45;&gt;Node31</title>
<path fill="none" stroke="midnightblue" d="M446.31,-1114.17C534.13,-1111.59 695.71,-1105.34 833,-1091.76 848.47,-1090.23 865.25,-1088 880.42,-1085.76"/>
<polygon fill="midnightblue" stroke="midnightblue" points="881.26,-1089.17 890.63,-1084.22 880.22,-1082.25 881.26,-1089.17"/>
</g>
<!-- Node4 -->
<g id="node4" class="node">
<title>Node4</title>
<g id="a_node4"><a xlink:href="quickjs_8c.html#a014abd680db53ab89cb133345742a59c" target="_top" xlink:title=" ">
<polygon fill="none" stroke="red" points="890.5,-118.26 890.5,-137.26 970.5,-137.26 970.5,-118.26 890.5,-118.26"/>
<text text-anchor="middle" x="930.5" y="-125.26" font-family="Helvetica,sans-Serif" font-size="10.00">__attribute__</text>
</a>
</g>
</g>
<!-- Node3&#45;&gt;Node4 -->
<g id="edge3" class="edge">
<title>Node3&#45;&gt;Node4</title>
<path fill="none" stroke="midnightblue" d="M585.65,-517.08C598.24,-460.75 662.96,-176.76 693,-151.76 745.05,-108.46 827.52,-110.8 880.04,-118.07"/>
<polygon fill="midnightblue" stroke="midnightblue" points="879.72,-121.56 890.13,-119.58 880.75,-114.64 879.72,-121.56"/>
</g>
<!-- Node72 -->
<g id="node5" class="node">
<title>Node72</title>
<g id="a_node5"><a xlink:href="quickjs_8c.html#a288254c06a39c9fca740a7abdad2834e" target="_top" xlink:title=" ">
<polygon fill="none" stroke="black" points="869,-650.26 869,-669.26 992,-669.26 992,-650.26 869,-650.26"/>
<text text-anchor="middle" x="930.5" y="-657.26" font-family="Helvetica,sans-Serif" font-size="10.00">__JS_AtomIsTaggedInt</text>
</a>
</g>
</g>
<!-- Node3&#45;&gt;Node72 -->
<g id="edge4" class="edge">
<title>Node3&#45;&gt;Node72</title>
<path fill="none" stroke="midnightblue" d="M589.16,-536.33C603.3,-559.19 642.67,-616.89 693,-640.76 744.69,-665.27 809.89,-668.78 858.74,-666.86"/>
<polygon fill="midnightblue" stroke="midnightblue" points="859.08,-670.35 868.9,-666.37 858.75,-663.36 859.08,-670.35"/>
</g>
<!-- Node73 -->
<g id="node6" class="node">
<title>Node73</title>
<g id="a_node6"><a xlink:href="quickjs_8c.html#a89f38938cee8077ce1fbba07946ed185" target="_top" xlink:title=" ">
<polygon fill="none" stroke="black" points="875.5,-498.26 875.5,-517.26 985.5,-517.26 985.5,-498.26 875.5,-498.26"/>
<text text-anchor="middle" x="930.5" y="-505.26" font-family="Helvetica,sans-Serif" font-size="10.00">__JS_AtomToUInt32</text>
</a>
</g>
</g>
<!-- Node3&#45;&gt;Node73 -->
<g id="edge5" class="edge">
<title>Node3&#45;&gt;Node73</title>
<path fill="none" stroke="midnightblue" d="M634.55,-523.96C695.76,-520.6 798.39,-514.96 865.01,-511.3"/>
<polygon fill="midnightblue" stroke="midnightblue" points="865.59,-514.77 875.38,-510.73 865.21,-507.79 865.59,-514.77"/>
</g>
<!-- Node428 -->
<g id="node7" class="node">
<title>Node428</title>
<g id="a_node7"><a xlink:href="quickjs_8c.html#a68c7ae36cec3bf8bbf6cc0868a71cc4b" target="_top" xlink:title=" ">
<polygon fill="none" stroke="black" points="695,-612.26 695,-631.26 831,-631.26 831,-612.26 695,-612.26"/>
<text text-anchor="middle" x="763" y="-619.26" font-family="Helvetica,sans-Serif" font-size="10.00">check_define_prop_flags</text>
</a>
</g>
</g>
<!-- Node3&#45;&gt;Node428 -->
<g id="edge6" class="edge">
<title>Node3&#45;&gt;Node428</title>
<path fill="none" stroke="midnightblue" d="M594.53,-536.35C613.44,-552.32 653.81,-584.42 693,-602.76 697.99,-605.1 703.33,-607.19 708.74,-609.07"/>
<polygon fill="midnightblue" stroke="midnightblue" points="707.91,-612.47 718.5,-612.19 710.04,-605.81 707.91,-612.47"/>
</g>
<!-- Node294 -->
<g id="node8" class="node">
<title>Node294</title>
<g id="a_node8"><a xlink:href="quickjs_8c.html#ac93c982cb636a5430b191d104083af3e" target="_top" xlink:title=" ">
<polygon fill="none" stroke="red" points="876.5,-270.76 876.5,-300.76 984.5,-300.76 984.5,-270.76 876.5,-270.76"/>
<text text-anchor="start" x="884.5" y="-288.76" font-family="Helvetica,sans-Serif" font-size="10.00">convert_fast_array</text>
<text text-anchor="middle" x="930.5" y="-277.76" font-family="Helvetica,sans-Serif" font-size="10.00">_to_array</text>
</a>
</g>
</g>
<!-- Node3&#45;&gt;Node294 -->
<g id="edge7" class="edge">
<title>Node3&#45;&gt;Node294</title>
<path fill="none" stroke="midnightblue" d="M584.69,-517.2C589.75,-481.06 613.04,-352.18 693,-298.76 743.81,-264.82 815.31,-265.9 866.37,-272.78"/>
<polygon fill="midnightblue" stroke="midnightblue" points="865.9,-276.25 876.3,-274.22 866.91,-269.32 865.9,-276.25"/>
</g>
<!-- Node21 -->
<g id="node9" class="node">
<title>Node21</title>
<g id="a_node9"><a xlink:href="quickjs_8c.html#a06b76f5124fd985e35f4c652fd018d6d" target="_top" xlink:title=" ">
<polygon fill="none" stroke="red" points="709.5,-954.26 709.5,-973.26 816.5,-973.26 816.5,-954.26 709.5,-954.26"/>
<text text-anchor="middle" x="763" y="-961.26" font-family="Helvetica,sans-Serif" font-size="10.00">find_own_property</text>
</a>
</g>
</g>
<!-- Node3&#45;&gt;Node21 -->
<g id="edge8" class="edge">
<title>Node3&#45;&gt;Node21</title>
<path fill="none" stroke="midnightblue" d="M587.63,-536.39C599.92,-565.38 636.66,-654.62 657,-731.76 680.92,-822.48 632.29,-868.23 693,-939.76 696.17,-943.49 699.95,-946.64 704.08,-949.31"/>
<polygon fill="midnightblue" stroke="midnightblue" points="702.53,-952.45 712.99,-954.11 705.85,-946.28 702.53,-952.45"/>
</g>
<!-- Node22 -->
<g id="node10" class="node">
<title>Node22</title>
<g id="a_node10"><a xlink:href="quickjs_8c.html#a643df594b75933007bcdbb071b5ea8c5" target="_top" xlink:title=" ">
<polygon fill="none" stroke="black" points="883.5,-897.26 883.5,-916.26 977.5,-916.26 977.5,-897.26 883.5,-897.26"/>
<text text-anchor="middle" x="930.5" y="-904.26" font-family="Helvetica,sans-Serif" font-size="10.00">get_shape_prop</text>
</a>
</g>
</g>
<!-- Node3&#45;&gt;Node22 -->
<g id="edge12" class="edge">
<title>Node3&#45;&gt;Node22</title>
<path fill="none" stroke="midnightblue" d="M586.99,-536.51C605.61,-588.42 692.28,-830.07 693,-830.76 740.11,-875.67 771.09,-853.67 833,-873.76 852.75,-880.17 874.66,-887.63 892.6,-893.84"/>
<polygon fill="midnightblue" stroke="midnightblue" points="891.53,-897.17 902.12,-897.14 893.82,-890.56 891.53,-897.17"/>
</g>
<!-- Node48 -->
<g id="node11" class="node">
<title>Node48</title>
<g id="a_node11"><a xlink:href="quickjs_8c.html#a9e7b4bccf927d811b0f99b40b08c0472" target="_top" xlink:title=" ">
<polygon fill="none" stroke="red" points="725,-574.26 725,-593.26 801,-593.26 801,-574.26 725,-574.26"/>
<text text-anchor="middle" x="763" y="-581.26" font-family="Helvetica,sans-Serif" font-size="10.00">free_var_ref</text>
</a>
</g>
</g>
<!-- Node3&#45;&gt;Node48 -->
<g id="edge10" class="edge">
<title>Node3&#45;&gt;Node48</title>
<path fill="none" stroke="midnightblue" d="M609.45,-536.3C631.54,-544.29 664.18,-555.8 693,-564.76 700.34,-567.04 708.17,-569.33 715.81,-571.49"/>
<polygon fill="midnightblue" stroke="midnightblue" points="715.13,-574.93 725.7,-574.24 717.01,-568.19 715.13,-574.93"/>
</g>
<!-- Node376 -->
<g id="node12" class="node">
<title>Node376</title>
<g id="a_node12"><a xlink:href="quickjs_8c.html#a6df3ef223d7e76a0db2c14d972dbfa77" target="_top" xlink:title=" ">
<polygon fill="none" stroke="black" points="886.5,-232.26 886.5,-251.26 974.5,-251.26 974.5,-232.26 886.5,-232.26"/>
<text text-anchor="middle" x="930.5" y="-239.26" font-family="Helvetica,sans-Serif" font-size="10.00">get_prop_flags</text>
</a>
</g>
</g>
<!-- Node3&#45;&gt;Node376 -->
<g id="edge11" class="edge">
<title>Node3&#45;&gt;Node376</title>
<path fill="none" stroke="midnightblue" d="M584.17,-517.04C587.43,-477.71 605.35,-329.47 693,-264.76 745.89,-225.71 824.59,-226.37 876.46,-232.43"/>
<polygon fill="midnightblue" stroke="midnightblue" points="876.1,-235.91 886.46,-233.7 876.99,-228.97 876.1,-235.91"/>
</g>
<!-- Node126 -->
<g id="node13" class="node">
<title>Node126</title>
<g id="a_node13"><a xlink:href="quickjs_8c.html#ab4e100a9cde5f7ec87c92f5e766dbbab" target="_top" xlink:title=" ">
<polygon fill="none" stroke="red" points="693,-802.26 693,-821.26 833,-821.26 833,-802.26 693,-802.26"/>
<text text-anchor="middle" x="763" y="-809.26" font-family="Helvetica,sans-Serif" font-size="10.00">JS_AtomIsNumericIndex1</text>
</a>
</g>
</g>
<!-- Node3&#45;&gt;Node126 -->
<g id="edge13" class="edge">
<title>Node3&#45;&gt;Node126</title>
<path fill="none" stroke="midnightblue" d="M589.64,-536.57C615.55,-577.94 716.12,-738.51 750.45,-793.31"/>
<polygon fill="midnightblue" stroke="midnightblue" points="747.61,-795.37 755.88,-801.99 753.54,-791.66 747.61,-795.37"/>
</g>
<!-- Node3&#45;&gt;Node31 -->
<g id="edge33" class="edge">
<title>Node3&#45;&gt;Node31</title>
<path fill="none" stroke="midnightblue" d="M588.17,-536.55C600.97,-563.74 636.98,-642.72 657,-711.76 681.06,-794.73 635.21,-838.55 693,-902.76 736.46,-951.05 783.73,-902.42 833,-944.76 861.35,-969.12 847.02,-990.53 869,-1020.76 880.28,-1036.27 896.15,-1051.04 908.81,-1061.65"/>
<polygon fill="midnightblue" stroke="midnightblue" points="906.62,-1064.39 916.58,-1068 911.05,-1058.96 906.62,-1064.39"/>
</g>
<!-- Node3&#45;&gt;Node67 -->
<g id="edge34" class="edge">
<title>Node3&#45;&gt;Node67</title>
<path fill="none" stroke="midnightblue" d="M587.31,-536.48C598.69,-565.73 633.17,-655.63 657,-731.76 675.42,-790.61 650.61,-820.97 693,-865.76 738.02,-913.33 776.62,-878.42 833,-911.76 866.3,-931.45 897.66,-964.33 915.15,-984.42"/>
<polygon fill="midnightblue" stroke="midnightblue" points="912.61,-986.84 921.76,-992.18 917.93,-982.3 912.61,-986.84"/>
</g>
<!-- Node128 -->
<g id="node16" class="node">
<title>Node128</title>
<g id="a_node16"><a xlink:href="quickjs_8h.html#a2050bc428da1c65ac7eb87c3fa3b0392" target="_top" xlink:title=" ">
<polygon fill="none" stroke="black" points="1028,-257.26 1028,-276.26 1105,-276.26 1105,-257.26 1028,-257.26"/>
<text text-anchor="middle" x="1066.5" y="-264.26" font-family="Helvetica,sans-Serif" font-size="10.00">JS_NewInt32</text>
</a>
</g>
</g>
<!-- Node3&#45;&gt;Node128 -->
<g id="edge37" class="edge">
<title>Node3&#45;&gt;Node128</title>
<path fill="none" stroke="midnightblue" d="M583,-516.97C581.22,-470.34 580.44,-269.74 693,-186.76 746.48,-147.33 931.33,-157.67 992,-184.76 1020.95,-197.69 1043.24,-228.29 1055.35,-248.23"/>
<polygon fill="midnightblue" stroke="midnightblue" points="1052.41,-250.15 1060.46,-257.04 1058.47,-246.63 1052.41,-250.15"/>
</g>
<!-- Node147 -->
<g id="node17" class="node">
<title>Node147</title>
<g id="a_node17"><a xlink:href="quickjs_8c.html#a8aac7988cf0c6f3c2b629a6662fd7ec8" target="_top" xlink:title=" ">
<polygon fill="none" stroke="red" points="708,-992.26 708,-1011.26 818,-1011.26 818,-992.26 708,-992.26"/>
<text text-anchor="middle" x="763" y="-999.26" font-family="Helvetica,sans-Serif" font-size="10.00">JS_AutoInitProperty</text>
</a>
</g>
</g>
<!-- Node3&#45;&gt;Node147 -->
<g id="edge19" class="edge">
<title>Node3&#45;&gt;Node147</title>
<path fill="none" stroke="midnightblue" d="M584.52,-536.63C590.91,-596.9 627.47,-915.03 693,-982.76 694.85,-984.67 696.88,-986.4 699.04,-987.96"/>
<polygon fill="midnightblue" stroke="midnightblue" points="697.52,-991.13 707.92,-993.16 701.06,-985.09 697.52,-991.13"/>
</g>
<!-- Node375 -->
<g id="node18" class="node">
<title>Node375</title>
<g id="a_node18"><a xlink:href="quickjs_8c.html#ad5565bb5cfd5321f181573257f3b0c91" target="_top" xlink:title=" ">
<polygon fill="none" stroke="red" points="711,-308.26 711,-327.26 815,-327.26 815,-308.26 711,-308.26"/>
<text text-anchor="middle" x="763" y="-315.26" font-family="Helvetica,sans-Serif" font-size="10.00">JS_CreateProperty</text>
</a>
</g>
</g>
<!-- Node3&#45;&gt;Node375 -->
<g id="edge21" class="edge">
<title>Node3&#45;&gt;Node375</title>
<path fill="none" stroke="midnightblue" d="M589.8,-516.97C605.69,-492.59 649.25,-427.72 693,-379.76 708.33,-362.95 727.76,-345.81 742.09,-333.83"/>
<polygon fill="midnightblue" stroke="midnightblue" points="744.38,-336.47 749.86,-327.41 739.92,-331.07 744.38,-336.47"/>
</g>
<!-- Node30 -->
<g id="node19" class="node">
<title>Node30</title>
<g id="a_node19"><a xlink:href="quickjs_8h.html#a775522f2d084fc8fa0fcb33f390006b4" target="_top" xlink:title=" ">
<polygon fill="none" stroke="black" points="892,-320.26 892,-339.26 969,-339.26 969,-320.26 892,-320.26"/>
<text text-anchor="middle" x="930.5" y="-327.26" font-family="Helvetica,sans-Serif" font-size="10.00">JS_DupValue</text>
</a>
</g>
</g>
<!-- Node3&#45;&gt;Node30 -->
<g id="edge32" class="edge">
<title>Node3&#45;&gt;Node30</title>
<path fill="none" stroke="midnightblue" d="M590,-517.1C605.35,-494.98 646.11,-440.22 693,-409.76 752.17,-371.32 831.72,-349.42 881.8,-338.57"/>
<polygon fill="midnightblue" stroke="midnightblue" points="882.65,-341.97 891.72,-336.48 881.21,-335.12 882.65,-341.97"/>
</g>
<!-- Node245 -->
<g id="node20" class="node">
<title>Node245</title>
<g id="a_node20"><a xlink:href="quickjs_8c.html#a1ca9cdb1fa2ffc3e6506e92b200e490f" target="_top" xlink:title=" ">
<polygon fill="none" stroke="black" points="890.5,-194.26 890.5,-213.26 970.5,-213.26 970.5,-194.26 890.5,-194.26"/>
<text text-anchor="middle" x="930.5" y="-201.26" font-family="Helvetica,sans-Serif" font-size="10.00">JS_IsFunction</text>
</a>
</g>
</g>
<!-- Node3&#45;&gt;Node245 -->
<g id="edge35" class="edge">
<title>Node3&#45;&gt;Node245</title>
<path fill="none" stroke="midnightblue" d="M583.59,-517.11C584.56,-474.47 594.61,-301.7 693,-225.76 746.4,-184.54 828.13,-187.02 880.18,-194.18"/>
<polygon fill="midnightblue" stroke="midnightblue" points="879.77,-197.66 890.17,-195.66 880.79,-190.73 879.77,-197.66"/>
</g>
<!-- Node152 -->
<g id="node21" class="node">
<title>Node152</title>
<g id="a_node21"><a xlink:href="quickjs_8h.html#a88259aa0da61ac754402c64ccecee116" target="_top" xlink:title=" ">
<polygon fill="none" stroke="red" points="888,-358.26 888,-377.26 973,-377.26 973,-358.26 888,-358.26"/>
<text text-anchor="middle" x="930.5" y="-365.26" font-family="Helvetica,sans-Serif" font-size="10.00">JS_NewUint32</text>
</a>
</g>
</g>
<!-- Node3&#45;&gt;Node152 -->
<g id="edge38" class="edge">
<title>Node3&#45;&gt;Node152</title>
<path fill="none" stroke="midnightblue" d="M604.36,-517.17C663.13,-490.17 830.22,-413.38 899.17,-381.7"/>
<polygon fill="midnightblue" stroke="midnightblue" points="900.98,-384.72 908.61,-377.36 898.06,-378.36 900.98,-384.72"/>
</g>
<!-- Node146 -->
<g id="node22" class="node">
<title>Node146</title>
<g id="a_node22"><a xlink:href="quickjs_8h.html#a4e407128a9605afb77523e49e9a627fd" target="_top" xlink:title=" ">
<polygon fill="none" stroke="black" points="718.5,-80.26 718.5,-99.26 807.5,-99.26 807.5,-80.26 718.5,-80.26"/>
<text text-anchor="middle" x="763" y="-87.26" font-family="Helvetica,sans-Serif" font-size="10.00">JS_IsUndefined</text>
</a>
</g>
</g>
<!-- Node3&#45;&gt;Node146 -->
<g id="edge36" class="edge">
<title>Node3&#45;&gt;Node146</title>
<path fill="none" stroke="midnightblue" d="M585.51,-517C597.87,-457.52 663.81,-145.24 693,-113.76 697.47,-108.94 702.96,-105.09 708.87,-102.01"/>
<polygon fill="midnightblue" stroke="midnightblue" points="710.7,-105.03 718.43,-97.78 707.87,-98.62 710.7,-105.03"/>
</g>
<!-- Node429 -->
<g id="node23" class="node">
<title>Node429</title>
<g id="a_node23"><a xlink:href="quickjs_8c.html#af2333dd9d30e60437b73af383477188c" target="_top" xlink:title=" ">
<polygon fill="none" stroke="red" points="706.5,-536.26 706.5,-555.26 819.5,-555.26 819.5,-536.26 706.5,-536.26"/>
<text text-anchor="middle" x="763" y="-543.26" font-family="Helvetica,sans-Serif" font-size="10.00">JS_NumberIsInteger</text>
</a>
</g>
</g>
<!-- Node3&#45;&gt;Node429 -->
<g id="edge39" class="edge">
<title>Node3&#45;&gt;Node429</title>
<path fill="none" stroke="midnightblue" d="M634.65,-532.2C653.86,-534.25 675.98,-536.6 696.33,-538.77"/>
<polygon fill="midnightblue" stroke="midnightblue" points="696.15,-542.27 706.47,-539.85 696.89,-535.31 696.15,-542.27"/>
</g>
<!-- Node21&#45;&gt;Node22 -->
<g id="edge9" class="edge">
<title>Node21&#45;&gt;Node22</title>
<path fill="none" stroke="midnightblue" d="M791.7,-954.22C819.15,-944.77 861.38,-930.22 891.86,-919.72"/>
<polygon fill="midnightblue" stroke="midnightblue" points="893.39,-922.9 901.71,-916.33 891.11,-916.28 893.39,-922.9"/>
</g>
<!-- Node126&#45;&gt;Node72 -->
<g id="edge14" class="edge">
<title>Node126&#45;&gt;Node72</title>
<path fill="none" stroke="midnightblue" d="M804.29,-802.19C814.25,-798.66 824.49,-793.96 833,-787.76 834.37,-786.76 889.94,-712.62 916.12,-677.65"/>
<polygon fill="midnightblue" stroke="midnightblue" points="919.18,-679.39 922.37,-669.29 913.58,-675.2 919.18,-679.39"/>
</g>
<!-- Node126&#45;&gt;Node73 -->
<g id="edge15" class="edge">
<title>Node126&#45;&gt;Node73</title>
<path fill="none" stroke="midnightblue" d="M778.45,-802.26C794,-791.33 818.46,-772 833,-749.76 860.91,-707.05 850.41,-688.27 869,-640.76 885.25,-599.23 907.71,-552.03 920.19,-526.52"/>
<polygon fill="midnightblue" stroke="midnightblue" points="923.46,-527.8 924.74,-517.29 917.18,-524.71 923.46,-527.8"/>
</g>
<!-- Node126&#45;&gt;Node31 -->
<g id="edge16" class="edge">
<title>Node126&#45;&gt;Node31</title>
<path fill="none" stroke="midnightblue" d="M772.06,-821.39C786.1,-838.57 815.25,-876.06 833,-911.76 855.72,-957.44 841.59,-977.73 869,-1020.76 879.24,-1036.84 895.01,-1051.5 907.89,-1061.92"/>
<polygon fill="midnightblue" stroke="midnightblue" points="905.81,-1064.74 915.85,-1068.13 910.12,-1059.22 905.81,-1064.74"/>
</g>
<!-- Node126&#45;&gt;Node67 -->
<g id="edge17" class="edge">
<title>Node126&#45;&gt;Node67</title>
<path fill="none" stroke="midnightblue" d="M776.26,-821.3C790.7,-832.86 815.01,-853.34 833,-873.76 851.58,-894.85 852.24,-903.2 869,-925.76 884.13,-946.13 902.38,-968.81 914.85,-984.05"/>
<polygon fill="midnightblue" stroke="midnightblue" points="912.4,-986.58 921.46,-992.09 917.81,-982.14 912.4,-986.58"/>
</g>
<!-- Node126&#45;&gt;Node128 -->
<g id="edge18" class="edge">
<title>Node126&#45;&gt;Node128</title>
<path fill="none" stroke="midnightblue" d="M799.11,-802.2C850.88,-786.12 946.44,-748.35 992,-678.76 1035.44,-612.4 1058.24,-359.58 1064.02,-286.6"/>
<polygon fill="midnightblue" stroke="midnightblue" points="1067.52,-286.72 1064.8,-276.48 1060.54,-286.18 1067.52,-286.72"/>
</g>
<!-- Node147&#45;&gt;Node67 -->
<g id="edge20" class="edge">
<title>Node147&#45;&gt;Node67</title>
<path fill="none" stroke="midnightblue" d="M818.19,-1001.76C837.04,-1001.76 858.15,-1001.76 876.87,-1001.76"/>
<polygon fill="midnightblue" stroke="midnightblue" points="877,-1005.26 887,-1001.76 877,-998.26 877,-1005.26"/>
</g>
<!-- Node375&#45;&gt;Node4 -->
<g id="edge22" class="edge">
<title>Node375&#45;&gt;Node4</title>
<path fill="none" stroke="midnightblue" d="M770.93,-308.02C787.11,-285.48 829.05,-228.36 869,-184.76 882.15,-170.41 898.24,-155.36 910.52,-144.33"/>
<polygon fill="midnightblue" stroke="midnightblue" points="913.17,-146.65 918.33,-137.39 908.52,-141.42 913.17,-146.65"/>
</g>
<!-- Node375&#45;&gt;Node72 -->
<g id="edge23" class="edge">
<title>Node375&#45;&gt;Node72</title>
<path fill="none" stroke="midnightblue" d="M772.06,-327.39C786.1,-344.57 815.25,-382.06 833,-417.76 855.72,-463.44 850.41,-479.25 869,-526.76 885.25,-568.29 907.71,-615.49 920.19,-641"/>
<polygon fill="midnightblue" stroke="midnightblue" points="917.18,-642.81 924.74,-650.23 923.46,-639.72 917.18,-642.81"/>
</g>
<!-- Node375&#45;&gt;Node73 -->
<g id="edge24" class="edge">
<title>Node375&#45;&gt;Node73</title>
<path fill="none" stroke="midnightblue" d="M806.62,-327.31C815.98,-330.78 825.37,-335.47 833,-341.76 858.38,-362.69 901.98,-450.01 920.63,-488.92"/>
<polygon fill="midnightblue" stroke="midnightblue" points="917.54,-490.58 924.99,-498.1 923.86,-487.57 917.54,-490.58"/>
</g>
<!-- Node375&#45;&gt;Node294 -->
<g id="edge25" class="edge">
<title>Node375&#45;&gt;Node294</title>
<path fill="none" stroke="midnightblue" d="M813.21,-308.25C829.85,-305.03 848.68,-301.39 866.26,-297.99"/>
<polygon fill="midnightblue" stroke="midnightblue" points="867.29,-301.35 876.44,-296.02 865.96,-294.48 867.29,-301.35"/>
</g>
<!-- Node375&#45;&gt;Node22 -->
<g id="edge27" class="edge">
<title>Node375&#45;&gt;Node22</title>
<path fill="none" stroke="midnightblue" d="M767.61,-327.67C778.41,-357.5 811.05,-449.18 833,-526.76 851.9,-593.56 852.1,-611.43 869,-678.76 888.46,-756.29 913.42,-848.14 924.18,-887.4"/>
<polygon fill="midnightblue" stroke="midnightblue" points="920.85,-888.51 926.87,-897.23 927.6,-886.66 920.85,-888.51"/>
</g>
<!-- Node375&#45;&gt;Node376 -->
<g id="edge26" class="edge">
<title>Node375&#45;&gt;Node376</title>
<path fill="none" stroke="midnightblue" d="M779.95,-308.15C800.16,-296.22 836.33,-275.75 869,-261.76 874.87,-259.25 881.17,-256.85 887.41,-254.64"/>
<polygon fill="midnightblue" stroke="midnightblue" points="888.76,-257.88 897.09,-251.34 886.5,-251.25 888.76,-257.88"/>
</g>
<!-- Node375&#45;&gt;Node30 -->
<g id="edge28" class="edge">
<title>Node375&#45;&gt;Node30</title>
<path fill="none" stroke="midnightblue" d="M815.01,-321.46C836.21,-323 860.7,-324.77 881.57,-326.28"/>
<polygon fill="midnightblue" stroke="midnightblue" points="881.58,-329.79 891.8,-327.03 882.08,-322.81 881.58,-329.79"/>
</g>
<!-- Node375&#45;&gt;Node245 -->
<g id="edge29" class="edge">
<title>Node375&#45;&gt;Node245</title>
<path fill="none" stroke="midnightblue" d="M771.96,-308.21C788.25,-289.23 827.4,-246.57 869,-222.76 872.71,-220.64 876.68,-218.72 880.76,-217"/>
<polygon fill="midnightblue" stroke="midnightblue" points="882.28,-220.16 890.37,-213.32 879.78,-213.63 882.28,-220.16"/>
</g>
<!-- Node375&#45;&gt;Node152 -->
<g id="edge30" class="edge">
<title>Node375&#45;&gt;Node152</title>
<path fill="none" stroke="midnightblue" d="M795.52,-327.28C821.78,-335.22 859.38,-346.58 888.07,-355.24"/>
<polygon fill="midnightblue" stroke="midnightblue" points="887.23,-358.65 897.82,-358.19 889.26,-351.95 887.23,-358.65"/>
</g>
<!-- Node152&#45;&gt;Node128 -->
<g id="edge31" class="edge">
<title>Node152&#45;&gt;Node128</title>
<path fill="none" stroke="midnightblue" d="M972.55,-358.17C979.33,-355.67 986.08,-352.58 992,-348.76 1018.13,-331.94 1040.71,-303.42 1053.71,-284.84"/>
<polygon fill="midnightblue" stroke="midnightblue" points="1056.73,-286.62 1059.45,-276.38 1050.94,-282.69 1056.73,-286.62"/>
</g>
<!-- Node360&#45;&gt;Node31 -->
<g id="edge42" class="edge">
<title>Node360&#45;&gt;Node31</title>
<path fill="none" stroke="midnightblue" d="M621.34,-1195.44C671.95,-1198.77 763.37,-1199.13 833,-1167.76 868.64,-1151.71 899.64,-1117.07 916.35,-1095.76"/>
<polygon fill="midnightblue" stroke="midnightblue" points="919.34,-1097.61 922.61,-1087.53 913.77,-1093.37 919.34,-1097.61"/>
</g>
<!-- Node271&#45;&gt;Node72 -->
<g id="edge45" class="edge">
<title>Node271&#45;&gt;Node72</title>
<path fill="none" stroke="midnightblue" d="M586.97,-953.94C597.79,-924.74 633.77,-837.75 693,-792.76 744.83,-753.39 776.65,-782.34 833,-749.76 866.49,-730.39 897.79,-697.41 915.21,-677.21"/>
<polygon fill="midnightblue" stroke="midnightblue" points="918.02,-679.31 921.8,-669.41 912.67,-674.79 918.02,-679.31"/>
</g>
<!-- Node271&#45;&gt;Node73 -->
<g id="edge46" class="edge">
<title>Node271&#45;&gt;Node73</title>
<path fill="none" stroke="midnightblue" d="M585.56,-953.88C593.17,-919.85 622.99,-806.54 693,-749.76 743.07,-709.15 783.56,-753.15 833,-711.76 836.89,-708.5 897.73,-576.81 920.76,-526.78"/>
<polygon fill="midnightblue" stroke="midnightblue" points="924.07,-527.96 925.07,-517.41 917.71,-525.04 924.07,-527.96"/>
</g>
<!-- Node271&#45;&gt;Node21 -->
<g id="edge47" class="edge">
<title>Node271&#45;&gt;Node21</title>
<path fill="none" stroke="midnightblue" d="M657.13,-963.76C671.06,-963.76 685.51,-963.76 699.07,-963.76"/>
<polygon fill="midnightblue" stroke="midnightblue" points="699.25,-967.26 709.25,-963.76 699.25,-960.26 699.25,-967.26"/>
</g>
<!-- Node271&#45;&gt;Node147 -->
<g id="edge48" class="edge">
<title>Node271&#45;&gt;Node147</title>
<path fill="none" stroke="midnightblue" d="M628.54,-973.35C652.52,-978.45 682.2,-984.77 707.47,-990.15"/>
<polygon fill="midnightblue" stroke="midnightblue" points="706.77,-993.58 717.28,-992.24 708.23,-986.73 706.77,-993.58"/>
</g>
<!-- Node271&#45;&gt;Node30 -->
<g id="edge49" class="edge">
<title>Node271&#45;&gt;Node30</title>
<path fill="none" stroke="midnightblue" d="M585.21,-954.25C592.16,-918.16 621.36,-787.79 693,-711.76 740.84,-660.98 792.92,-697.86 833,-640.76 908.13,-533.74 785.3,-449.23 869,-348.76 872.66,-344.37 877.31,-340.98 882.42,-338.37"/>
<polygon fill="midnightblue" stroke="midnightblue" points="884.05,-341.48 891.97,-334.44 881.39,-335.01 884.05,-341.48"/>
</g>
<!-- Node358&#45;&gt;Node22 -->
<g id="edge51" class="edge">
<title>Node358&#45;&gt;Node22</title>
<path fill="none" stroke="midnightblue" d="M465.21,-1144.25C560.92,-1130.12 719.05,-1096.58 833,-1020.76 843.22,-1013.96 891.1,-954.88 915.35,-924.55"/>
<polygon fill="midnightblue" stroke="midnightblue" points="918.28,-926.49 921.78,-916.49 912.81,-922.13 918.28,-926.49"/>
</g>
<!-- Node358&#45;&gt;Node360 -->
<g id="edge52" class="edge">
<title>Node358&#45;&gt;Node360</title>
<path fill="none" stroke="midnightblue" d="M431.71,-1163.3C463,-1169.25 503.03,-1176.85 533.83,-1182.7"/>
<polygon fill="midnightblue" stroke="midnightblue" points="533.42,-1186.19 543.89,-1184.62 534.72,-1179.31 533.42,-1186.19"/>
</g>
<!-- Node358&#45;&gt;Node357 -->
<g id="edge53" class="edge">
<title>Node358&#45;&gt;Node357</title>
<path fill="none" stroke="midnightblue" d="M399.95,-1163.28C424.23,-1175.52 468.46,-1196.86 508,-1210.76 514.92,-1213.19 522.31,-1215.47 529.64,-1217.54"/>
<polygon fill="midnightblue" stroke="midnightblue" points="528.97,-1220.98 539.54,-1220.23 530.8,-1214.23 528.97,-1220.98"/>
</g>
<!-- Node358&#45;&gt;Node271 -->
<g id="edge54" class="edge">
<title>Node358&#45;&gt;Node271</title>
<path fill="none" stroke="midnightblue" d="M453.86,-1144.16C460.29,-1141.67 466.45,-1138.59 472,-1134.76 527.74,-1096.29 561.49,-1019.25 574.86,-983.2"/>
<polygon fill="midnightblue" stroke="midnightblue" points="578.29,-984.01 578.36,-973.42 571.7,-981.65 578.29,-984.01"/>
</g>
<!-- Node370 -->
<g id="node30" class="node">
<title>Node370</title>
<g id="a_node30"><a xlink:href="quickjs_8c.html#ad7f03358a8088ca920ab308225c6b2e6" target="_top" xlink:title=" ">
<polygon fill="none" stroke="red" points="318,-422.26 318,-441.26 443,-441.26 443,-422.26 318,-422.26"/>
<text text-anchor="middle" x="380.5" y="-429.26" font-family="Helvetica,sans-Serif" font-size="10.00">JS_SetPropertyInternal</text>
</a>
</g>
</g>
<!-- Node435&#45;&gt;Node370 -->
<g id="edge58" class="edge">
<title>Node435&#45;&gt;Node370</title>
<path fill="none" stroke="midnightblue" d="M215.35,-706.95C240.03,-665.58 335.81,-505.01 368.5,-450.21"/>
<polygon fill="midnightblue" stroke="midnightblue" points="371.56,-451.91 373.67,-441.53 365.54,-448.32 371.56,-451.91"/>
</g>
<!-- Node370&#45;&gt;Node3 -->
<g id="edge65" class="edge">
<title>Node370&#45;&gt;Node3</title>
<path fill="none" stroke="midnightblue" d="M401.78,-441.39C437.36,-458.29 511.15,-493.34 552.25,-512.87"/>
<polygon fill="midnightblue" stroke="midnightblue" points="550.93,-516.11 561.47,-517.24 553.93,-509.79 550.93,-516.11"/>
</g>
<!-- Node370&#45;&gt;Node4 -->
<g id="edge59" class="edge">
<title>Node370&#45;&gt;Node4</title>
<path fill="none" stroke="midnightblue" d="M381.54,-422.02C382.32,-374.72 392.42,-167.34 508,-72.76 620.14,19.01 696.84,2.81 833,-46.76 867.71,-59.4 898.62,-90.61 915.64,-110.39"/>
<polygon fill="midnightblue" stroke="midnightblue" points="912.96,-112.64 922.05,-118.08 918.33,-108.16 912.96,-112.64"/>
</g>
<!-- Node370&#45;&gt;Node72 -->
<g id="edge60" class="edge">
<title>Node370&#45;&gt;Node72</title>
<path fill="none" stroke="midnightblue" d="M443.35,-431.13C535.53,-433.01 711.18,-447.77 833,-526.76 877.11,-555.36 907.72,-611.7 921.41,-641.02"/>
<polygon fill="midnightblue" stroke="midnightblue" points="918.23,-642.5 925.54,-650.18 924.62,-639.63 918.23,-642.5"/>
</g>
<!-- Node370&#45;&gt;Node73 -->
<g id="edge61" class="edge">
<title>Node370&#45;&gt;Node73</title>
<path fill="none" stroke="midnightblue" d="M414.19,-422.25C490.68,-401.77 685.98,-359.84 833,-417.76 869.91,-432.3 901.03,-468.34 917.32,-490.15"/>
<polygon fill="midnightblue" stroke="midnightblue" points="914.48,-492.2 923.18,-498.26 920.16,-488.1 914.48,-492.2"/>
</g>
<!-- Node370&#45;&gt;Node21 -->
<g id="edge62" class="edge">
<title>Node370&#45;&gt;Node21</title>
<path fill="none" stroke="midnightblue" d="M384.63,-441.43C403.46,-498.13 507.24,-790.24 693,-939.76 698.24,-943.98 704.28,-947.48 710.55,-950.38"/>
<polygon fill="midnightblue" stroke="midnightblue" points="709.27,-953.64 719.85,-954.22 711.94,-947.17 709.27,-953.64"/>
</g>
<!-- Node370&#45;&gt;Node31 -->
<g id="edge67" class="edge">
<title>Node370&#45;&gt;Node31</title>
<path fill="none" stroke="midnightblue" d="M381.93,-441.42C385.31,-513.49 410.37,-966.9 508,-1051.76 562.38,-1099.03 781.71,-1089.04 880.65,-1081.85"/>
<polygon fill="midnightblue" stroke="midnightblue" points="880.98,-1085.34 890.69,-1081.1 880.46,-1078.36 880.98,-1085.34"/>
</g>
<!-- Node370&#45;&gt;Node67 -->
<g id="edge68" class="edge">
<title>Node370&#45;&gt;Node67</title>
<path fill="none" stroke="midnightblue" d="M382.02,-441.33C386.01,-510.88 414.16,-937.96 508,-1015.76 619.21,-1107.97 689.22,-1034.78 833,-1020.76 848.47,-1019.25 865.13,-1016.42 880.19,-1013.39"/>
<polygon fill="midnightblue" stroke="midnightblue" points="881.24,-1016.74 890.32,-1011.27 879.81,-1009.89 881.24,-1016.74"/>
</g>
<!-- Node370&#45;&gt;Node128 -->
<g id="edge70" class="edge">
<title>Node370&#45;&gt;Node128</title>
<path fill="none" stroke="midnightblue" d="M382.78,-422.23C390.8,-364.03 436.15,-57.44 508,-3.76 515.75,2.03 815.97,0.37 833,-4.76 913.86,-29.11 936.74,-44.92 992,-108.76 1028.84,-151.32 1050.96,-215.48 1060.29,-247.36"/>
<polygon fill="midnightblue" stroke="midnightblue" points="1056.98,-248.52 1063.06,-257.2 1063.72,-246.62 1056.98,-248.52"/>
</g>
<!-- Node370&#45;&gt;Node147 -->
<g id="edge63" class="edge">
<title>Node370&#45;&gt;Node147</title>
<path fill="none" stroke="midnightblue" d="M382.21,-441.61C387.34,-509.53 420.91,-907.92 508,-982.76 564.99,-1031.73 658.23,-1024.06 714.49,-1013.37"/>
<polygon fill="midnightblue" stroke="midnightblue" points="715.43,-1016.75 724.55,-1011.35 714.06,-1009.89 715.43,-1016.75"/>
</g>
<!-- Node370&#45;&gt;Node375 -->
<g id="edge64" class="edge">
<title>Node370&#45;&gt;Node375</title>
<path fill="none" stroke="midnightblue" d="M391.23,-421.99C411.13,-402.72 458.74,-360.09 508,-341.76 570.66,-318.44 647.73,-314.28 700.43,-314.79"/>
<polygon fill="midnightblue" stroke="midnightblue" points="700.58,-318.29 710.64,-314.95 700.69,-311.29 700.58,-318.29"/>
</g>
<!-- Node370&#45;&gt;Node30 -->
<g id="edge66" class="edge">
<title>Node370&#45;&gt;Node30</title>
<path fill="none" stroke="midnightblue" d="M382.85,-422.06C389.03,-381.33 418.24,-222.38 508,-137.76 571.63,-77.77 606.87,-85.88 693,-70.76 754.29,-60 785.85,-30.16 833,-70.76 914.73,-141.14 798.88,-228.8 869,-310.76 872.67,-315.05 877.29,-318.38 882.34,-320.97"/>
<polygon fill="midnightblue" stroke="midnightblue" points="881.2,-324.28 891.78,-324.87 883.87,-317.81 881.2,-324.28"/>
</g>
<!-- Node370&#45;&gt;Node146 -->
<g id="edge69" class="edge">
<title>Node370&#45;&gt;Node146</title>
<path fill="none" stroke="midnightblue" d="M388.23,-422.16C418.54,-379.63 547.14,-206.27 693,-113.76 699.7,-109.51 707.25,-105.9 714.83,-102.88"/>
<polygon fill="midnightblue" stroke="midnightblue" points="716.22,-106.1 724.39,-99.36 713.8,-99.53 716.22,-106.1"/>
</g>
</g>
</svg>
