<?xml version="1.0" encoding="UTF-8" standalone="no"?>
<!DOCTYPE svg PUBLIC "-//W3C//DTD SVG 1.1//EN"
 "http://www.w3.org/Graphics/SVG/1.1/DTD/svg11.dtd">
<!-- Generated by graphviz version 2.43.0 (0)
 -->
<!-- Title: JS_GetIterator2 Pages: 1 -->
<!--zoomable 1106 -->
<svg id="main" version="1.1" xmlns="http://www.w3.org/2000/svg" xmlns:xlink="http://www.w3.org/1999/xlink" xml:space="preserve" onload="init(evt)">
<style type="text/css"><![CDATA[
.edge:hover path { stroke: red; }
.edge:hover polygon { stroke: red; fill: red; }
]]></style>
<script type="text/javascript"><![CDATA[
var edges = document.getElementsByTagName('g');
if (edges && edges.length) {
  for (var i=0;i<edges.length;i++) {
    if (edges[i].id.substr(0,4)=='edge') {
      edges[i].setAttribute('class','edge');
    }
  }
}
]]></script>
        <defs>
                <circle id="rim" cx="0" cy="0" r="7"/>
                <circle id="rim2" cx="0" cy="0" r="3.5"/>
                <g id="zoomPlus">
                        <use xlink:href="#rim" fill="#404040">
                                <set attributeName="fill" to="#808080" begin="zoomplus.mouseover" end="zoomplus.mouseout"/>
                        </use>
                        <path d="M-4,0h8M0,-4v8" fill="none" stroke="white" stroke-width="1.5" pointer-events="none"/>
                </g>
                <g id="zoomMin">
                        <use xlink:href="#rim" fill="#404040">
                                <set attributeName="fill" to="#808080" begin="zoomminus.mouseover" end="zoomminus.mouseout"/>
                        </use>
                        <path d="M-4,0h8" fill="none" stroke="white" stroke-width="1.5" pointer-events="none"/>
                </g>
                <g id="dirArrow">
                        <path fill="none" stroke="white" stroke-width="1.5" d="M0,-3.0v7 M-2.5,-0.5L0,-3.0L2.5,-0.5"/>
                </g>
               <g id="resetDef">
                       <use xlink:href="#rim2" fill="#404040">
                               <set attributeName="fill" to="#808080" begin="reset.mouseover" end="reset.mouseout"/>
                       </use>
               </g>
        </defs>

<script type="text/javascript">
var viewWidth = 787;
var viewHeight = 1106;
var sectionId = 'dynsection-813';
</script>
<script xlink:href="svgpan.js"/>
<svg id="graph" class="graph">
<g id="viewport">
<title>JS_GetIterator2</title>
<!-- Node1 -->
<g id="node1" class="node">
<title>Node1</title>
<g id="a_node1"><a xlink:title=" ">
<polygon fill="#bfbfbf" stroke="black" points="0,-522.5 0,-541.5 90,-541.5 90,-522.5 0,-522.5"/>
<text text-anchor="middle" x="45" y="-529.5" font-family="Helvetica,sans-Serif" font-size="10.00">JS_GetIterator2</text>
</a>
</g>
</g>
<!-- Node2 -->
<g id="node2" class="node">
<title>Node2</title>
<g id="a_node2"><a xlink:href="quickjs_8c.html#a1a4c02a29525d5cb2085dd8bca3af350" target="_top" xlink:title=" ">
<polygon fill="none" stroke="black" points="126,-522.5 126,-541.5 176,-541.5 176,-522.5 126,-522.5"/>
<text text-anchor="middle" x="151" y="-529.5" font-family="Helvetica,sans-Serif" font-size="10.00">JS_Call</text>
</a>
</g>
</g>
<!-- Node1&#45;&gt;Node2 -->
<g id="edge1" class="edge">
<title>Node1&#45;&gt;Node2</title>
<path fill="none" stroke="midnightblue" d="M90.11,-532C98.75,-532 107.69,-532 115.94,-532"/>
<polygon fill="midnightblue" stroke="midnightblue" points="115.95,-535.5 125.95,-532 115.95,-528.5 115.95,-535.5"/>
</g>
<!-- Node57 -->
<g id="node10" class="node">
<title>Node57</title>
<g id="a_node10"><a xlink:href="quickjs_8h.html#afaa20c47565bc704c6c85f3d77254e7d" target="_top" xlink:title=" ">
<polygon fill="none" stroke="red" points="700,-465.5 700,-484.5 779,-484.5 779,-465.5 700,-465.5"/>
<text text-anchor="middle" x="739.5" y="-472.5" font-family="Helvetica,sans-Serif" font-size="10.00">JS_FreeValue</text>
</a>
</g>
</g>
<!-- Node1&#45;&gt;Node57 -->
<g id="edge45" class="edge">
<title>Node1&#45;&gt;Node57</title>
<path fill="none" stroke="midnightblue" d="M47.55,-522.31C59.35,-450.21 137.69,0 254.5,0 254.5,0 254.5,0 398.5,0 626.08,0 715.93,-364.98 734.64,-455.08"/>
<polygon fill="midnightblue" stroke="midnightblue" points="731.25,-455.97 736.66,-465.08 738.11,-454.58 731.25,-455.97"/>
</g>
<!-- Node75 -->
<g id="node11" class="node">
<title>Node75</title>
<g id="a_node11"><a xlink:href="quickjs_8h.html#ad80a83d73e9b7d872b88fbf2943aebe9" target="_top" xlink:title=" ">
<polygon fill="none" stroke="black" points="536.5,-760.5 536.5,-779.5 623.5,-779.5 623.5,-760.5 536.5,-760.5"/>
<text text-anchor="middle" x="580" y="-767.5" font-family="Helvetica,sans-Serif" font-size="10.00">JS_IsException</text>
</a>
</g>
</g>
<!-- Node1&#45;&gt;Node75 -->
<g id="edge46" class="edge">
<title>Node1&#45;&gt;Node75</title>
<path fill="none" stroke="midnightblue" d="M49.26,-541.75C67.36,-594.03 160.92,-842.14 335,-931 384.48,-956.26 410.4,-956.02 460,-931 519.88,-900.8 557.1,-824.66 571.8,-788.99"/>
<polygon fill="midnightblue" stroke="midnightblue" points="575.05,-790.28 575.49,-779.69 568.55,-787.69 575.05,-790.28"/>
</g>
<!-- Node245 -->
<g id="node26" class="node">
<title>Node245</title>
<g id="a_node26"><a xlink:href="quickjs_8c.html#a726b00d108e0a0f4d958c36c2e426a64" target="_top" xlink:title=" ">
<polygon fill="none" stroke="black" points="496,-1054.5 496,-1073.5 664,-1073.5 664,-1054.5 496,-1054.5"/>
<text text-anchor="middle" x="580" y="-1061.5" font-family="Helvetica,sans-Serif" font-size="10.00">JS_ThrowTypeErrorNotAnObject</text>
</a>
</g>
</g>
<!-- Node1&#45;&gt;Node245 -->
<g id="edge48" class="edge">
<title>Node1&#45;&gt;Node245</title>
<path fill="none" stroke="midnightblue" d="M47.25,-541.56C56.06,-604.41 114.98,-959.52 335,-1078 401.93,-1114.04 494.68,-1092.78 544.34,-1076.77"/>
<polygon fill="midnightblue" stroke="midnightblue" points="545.59,-1080.04 553.96,-1073.55 543.37,-1073.4 545.59,-1080.04"/>
</g>
<!-- Node288 -->
<g id="node30" class="node">
<title>Node288</title>
<g id="a_node30"><a xlink:href="quickjs_8h.html#a3d68fe446df2d9c7d1900b16371bff5b" target="_top" xlink:title=" ">
<polygon fill="none" stroke="black" points="362,-28.5 362,-47.5 433,-47.5 433,-28.5 362,-28.5"/>
<text text-anchor="middle" x="397.5" y="-35.5" font-family="Helvetica,sans-Serif" font-size="10.00">JS_IsObject</text>
</a>
</g>
</g>
<!-- Node1&#45;&gt;Node288 -->
<g id="edge47" class="edge">
<title>Node1&#45;&gt;Node288</title>
<path fill="none" stroke="midnightblue" d="M49.03,-522.16C66.56,-466.94 160.25,-193.16 335,-57 340.09,-53.03 346.01,-49.89 352.14,-47.4"/>
<polygon fill="midnightblue" stroke="midnightblue" points="353.55,-50.61 361.83,-44 351.23,-44.01 353.55,-50.61"/>
</g>
<!-- Node3 -->
<g id="node3" class="node">
<title>Node3</title>
<g id="a_node3"><a xlink:href="quickjs_8c.html#ac2894ff4edcdb4e6841bcce9c76081e3" target="_top" xlink:title=" ">
<polygon fill="none" stroke="red" points="212,-522.5 212,-541.5 299,-541.5 299,-522.5 212,-522.5"/>
<text text-anchor="middle" x="255.5" y="-529.5" font-family="Helvetica,sans-Serif" font-size="10.00">JS_CallInternal</text>
</a>
</g>
</g>
<!-- Node2&#45;&gt;Node3 -->
<g id="edge2" class="edge">
<title>Node2&#45;&gt;Node3</title>
<path fill="none" stroke="midnightblue" d="M176.03,-526.18C183.77,-525.59 192.68,-525.29 201.65,-525.25"/>
<polygon fill="midnightblue" stroke="midnightblue" points="201.72,-528.75 211.74,-525.33 201.77,-521.75 201.72,-528.75"/>
</g>
<!-- Node3&#45;&gt;Node2 -->
<g id="edge39" class="edge">
<title>Node3&#45;&gt;Node2</title>
<path fill="none" stroke="midnightblue" d="M211.74,-538.67C203.16,-538.84 194.26,-538.75 186.03,-538.4"/>
<polygon fill="midnightblue" stroke="midnightblue" points="186.22,-534.9 176.03,-537.82 185.81,-541.89 186.22,-534.9"/>
</g>
<!-- Node3&#45;&gt;Node3 -->
<g id="edge40" class="edge">
<title>Node3&#45;&gt;Node3</title>
<path fill="none" stroke="midnightblue" d="M239.47,-541.76C231.67,-550.57 237.02,-560 255.5,-560 267.05,-560 273.47,-556.31 274.76,-551.4"/>
<polygon fill="midnightblue" stroke="midnightblue" points="278.02,-550.13 271.53,-541.76 271.39,-552.35 278.02,-550.13"/>
</g>
<!-- Node4 -->
<g id="node4" class="node">
<title>Node4</title>
<g id="a_node4"><a xlink:href="quickjs_8c.html#a853f0924d441ea4225488f37c8b69f9a" target="_top" xlink:title=" ">
<polygon fill="none" stroke="black" points="540,-446.5 540,-465.5 620,-465.5 620,-446.5 540,-446.5"/>
<text text-anchor="middle" x="580" y="-453.5" font-family="Helvetica,sans-Serif" font-size="10.00">__attribute__</text>
</a>
</g>
</g>
<!-- Node3&#45;&gt;Node4 -->
<g id="edge3" class="edge">
<title>Node3&#45;&gt;Node4</title>
<path fill="none" stroke="midnightblue" d="M256.6,-522.26C257.53,-487.76 265.86,-370.89 335,-323 380.67,-291.37 409.28,-300.32 460,-323 512.83,-346.62 551.92,-406.58 569.19,-437.27"/>
<polygon fill="midnightblue" stroke="midnightblue" points="566.16,-439.02 574.02,-446.12 572.31,-435.67 566.16,-439.02"/>
</g>
<!-- Node5 -->
<g id="node5" class="node">
<title>Node5</title>
<g id="a_node5"><a xlink:href="quickjs_8c.html#a877fcb7651d95b411ce70e62b7f4a1f0" target="_top" xlink:title=" ">
<polygon fill="none" stroke="black" points="335,-370.5 335,-389.5 460,-389.5 460,-370.5 335,-370.5"/>
<text text-anchor="middle" x="397.5" y="-377.5" font-family="Helvetica,sans-Serif" font-size="10.00">__JS_AtomFromUInt32</text>
</a>
</g>
</g>
<!-- Node3&#45;&gt;Node5 -->
<g id="edge4" class="edge">
<title>Node3&#45;&gt;Node5</title>
<path fill="none" stroke="midnightblue" d="M259.47,-522.32C267.48,-497.86 291.87,-433.07 335,-399 337.3,-397.18 339.78,-395.54 342.37,-394.05"/>
<polygon fill="midnightblue" stroke="midnightblue" points="344.09,-397.1 351.53,-389.57 341.01,-390.82 344.09,-397.1"/>
</g>
<!-- Node6 -->
<g id="node6" class="node">
<title>Node6</title>
<g id="a_node6"><a xlink:href="quickjs_8h.html#a9bf98b18de88b4199910a43e933eb97d" target="_top" xlink:title=" ">
<polygon fill="none" stroke="black" points="347.5,-332.5 347.5,-351.5 447.5,-351.5 447.5,-332.5 347.5,-332.5"/>
<text text-anchor="middle" x="397.5" y="-339.5" font-family="Helvetica,sans-Serif" font-size="10.00">__JS_NewFloat64</text>
</a>
</g>
</g>
<!-- Node3&#45;&gt;Node6 -->
<g id="edge5" class="edge">
<title>Node3&#45;&gt;Node6</title>
<path fill="none" stroke="midnightblue" d="M258.12,-522.22C263.46,-493.15 283.18,-406.45 335,-361 336.95,-359.29 339.05,-357.74 341.26,-356.32"/>
<polygon fill="midnightblue" stroke="midnightblue" points="343.05,-359.33 350.22,-351.53 339.75,-353.16 343.05,-359.33"/>
</g>
<!-- Node7 -->
<g id="node7" class="node">
<title>Node7</title>
<g id="a_node7"><a xlink:href="quickjs_8c.html#a74547db03bf739a52c83a326b32db997" target="_top" xlink:title=" ">
<polygon fill="none" stroke="red" points="539.5,-978.5 539.5,-997.5 620.5,-997.5 620.5,-978.5 539.5,-978.5"/>
<text text-anchor="middle" x="580" y="-985.5" font-family="Helvetica,sans-Serif" font-size="10.00">add_property</text>
</a>
</g>
</g>
<!-- Node3&#45;&gt;Node7 -->
<g id="edge6" class="edge">
<title>Node3&#45;&gt;Node7</title>
<path fill="none" stroke="midnightblue" d="M257.02,-541.7C260.18,-597.07 278.61,-872.59 335,-931 385.38,-983.19 473.66,-991.57 529.08,-991.08"/>
<polygon fill="midnightblue" stroke="midnightblue" points="529.44,-994.57 539.37,-990.88 529.3,-987.57 529.44,-994.57"/>
</g>
<!-- Node65 -->
<g id="node8" class="node">
<title>Node65</title>
<g id="a_node8"><a xlink:href="quickjs_8c.html#a4956f45ffd2849b96dc051277264f87a" target="_top" xlink:title=" ">
<polygon fill="none" stroke="red" points="356.5,-522.5 356.5,-541.5 438.5,-541.5 438.5,-522.5 356.5,-522.5"/>
<text text-anchor="middle" x="397.5" y="-529.5" font-family="Helvetica,sans-Serif" font-size="10.00">build_arg_list</text>
</a>
</g>
</g>
<!-- Node3&#45;&gt;Node65 -->
<g id="edge7" class="edge">
<title>Node3&#45;&gt;Node65</title>
<path fill="none" stroke="midnightblue" d="M299.27,-532C314.03,-532 330.71,-532 346.04,-532"/>
<polygon fill="midnightblue" stroke="midnightblue" points="346.39,-535.5 356.39,-532 346.39,-528.5 346.39,-535.5"/>
</g>
<!-- Node66 -->
<g id="node9" class="node">
<title>Node66</title>
<g id="a_node9"><a xlink:href="quickjs_8c.html#ac864482356b3efc2d0b0a509fcfa4c7c" target="_top" xlink:title=" ">
<polygon fill="none" stroke="red" points="541.5,-522.5 541.5,-541.5 618.5,-541.5 618.5,-522.5 541.5,-522.5"/>
<text text-anchor="middle" x="580" y="-529.5" font-family="Helvetica,sans-Serif" font-size="10.00">free_arg_list</text>
</a>
</g>
</g>
<!-- Node3&#45;&gt;Node66 -->
<g id="edge15" class="edge">
<title>Node3&#45;&gt;Node66</title>
<path fill="none" stroke="midnightblue" d="M260.86,-541.64C270.67,-561.99 296.67,-608.95 335,-627 385.26,-650.67 407.57,-645.36 460,-627 504,-611.59 543.85,-572.33 564.39,-549.39"/>
<polygon fill="midnightblue" stroke="midnightblue" points="567.11,-551.59 571.05,-541.76 561.84,-546.99 567.11,-551.59"/>
</g>
<!-- Node3&#45;&gt;Node57 -->
<g id="edge41" class="edge">
<title>Node3&#45;&gt;Node57</title>
<path fill="none" stroke="midnightblue" d="M256.18,-522.44C255.52,-485.69 258.65,-352.92 335,-298 470.23,-200.73 667.35,-397.01 723.23,-457.82"/>
<polygon fill="midnightblue" stroke="midnightblue" points="720.85,-460.4 730.16,-465.46 726.03,-455.7 720.85,-460.4"/>
</g>
<!-- Node3&#45;&gt;Node75 -->
<g id="edge42" class="edge">
<title>Node3&#45;&gt;Node75</title>
<path fill="none" stroke="midnightblue" d="M256.82,-541.93C258.53,-576.07 269.11,-689.35 335,-741 363.78,-763.56 463.46,-768.91 526.16,-769.98"/>
<polygon fill="midnightblue" stroke="midnightblue" points="526.22,-773.48 536.27,-770.12 526.32,-766.48 526.22,-773.48"/>
</g>
<!-- Node161 -->
<g id="node12" class="node">
<title>Node161</title>
<g id="a_node12"><a xlink:href="quickjs_8c.html#a61c8dfb5e807af1b6ff7d8ca61576dda" target="_top" xlink:title=" ">
<polygon fill="none" stroke="red" points="350.5,-218.5 350.5,-237.5 444.5,-237.5 444.5,-218.5 350.5,-218.5"/>
<text text-anchor="middle" x="397.5" y="-225.5" font-family="Helvetica,sans-Serif" font-size="10.00">build_backtrace</text>
</a>
</g>
</g>
<!-- Node3&#45;&gt;Node161 -->
<g id="edge12" class="edge">
<title>Node3&#45;&gt;Node161</title>
<path fill="none" stroke="midnightblue" d="M256.3,-522.37C256.02,-483.28 260.1,-334.69 335,-252 338.47,-248.17 342.63,-244.94 347.12,-242.23"/>
<polygon fill="midnightblue" stroke="midnightblue" points="348.79,-245.3 356.08,-237.61 345.59,-239.08 348.79,-245.3"/>
</g>
<!-- Node248 -->
<g id="node13" class="node">
<title>Node248</title>
<g id="a_node13"><a xlink:href="quickjs_8c.html#a344894112559c2ba75043fd10bcfa02f" target="_top" xlink:title=" ">
<polygon fill="none" stroke="red" points="347,-180.5 347,-199.5 448,-199.5 448,-180.5 347,-180.5"/>
<text text-anchor="middle" x="397.5" y="-187.5" font-family="Helvetica,sans-Serif" font-size="10.00">close_lexical_var</text>
</a>
</g>
</g>
<!-- Node3&#45;&gt;Node248 -->
<g id="edge13" class="edge">
<title>Node3&#45;&gt;Node248</title>
<path fill="none" stroke="midnightblue" d="M257.57,-522.34C263.11,-473.77 290.12,-256.71 335,-209 336.38,-207.53 337.87,-206.18 339.44,-204.93"/>
<polygon fill="midnightblue" stroke="midnightblue" points="341.4,-207.83 347.95,-199.51 337.64,-201.93 341.4,-207.83"/>
</g>
<!-- Node249 -->
<g id="node14" class="node">
<title>Node249</title>
<g id="a_node14"><a xlink:href="quickjs_8c.html#a1782043fce951bd4f0d91c7796b31e24" target="_top" xlink:title=" ">
<polygon fill="none" stroke="red" points="354,-142.5 354,-161.5 441,-161.5 441,-142.5 354,-142.5"/>
<text text-anchor="middle" x="397.5" y="-149.5" font-family="Helvetica,sans-Serif" font-size="10.00">close_var_refs</text>
</a>
</g>
</g>
<!-- Node3&#45;&gt;Node249 -->
<g id="edge14" class="edge">
<title>Node3&#45;&gt;Node249</title>
<path fill="none" stroke="midnightblue" d="M257.99,-522.43C266.57,-467.91 310.06,-198.17 335,-171 337.77,-167.98 341.01,-165.44 344.52,-163.3"/>
<polygon fill="midnightblue" stroke="midnightblue" points="346.3,-166.32 353.71,-158.76 343.2,-160.05 346.3,-166.32"/>
</g>
<!-- Node54 -->
<g id="node15" class="node">
<title>Node54</title>
<g id="a_node15"><a xlink:href="quickjs_8c.html#a9e7b4bccf927d811b0f99b40b08c0472" target="_top" xlink:title=" ">
<polygon fill="none" stroke="red" points="359.5,-104.5 359.5,-123.5 435.5,-123.5 435.5,-104.5 359.5,-104.5"/>
<text text-anchor="middle" x="397.5" y="-111.5" font-family="Helvetica,sans-Serif" font-size="10.00">free_var_ref</text>
</a>
</g>
</g>
<!-- Node3&#45;&gt;Node54 -->
<g id="edge16" class="edge">
<title>Node3&#45;&gt;Node54</title>
<path fill="none" stroke="midnightblue" d="M258.14,-522.15C268.19,-462.19 321.34,-148.19 335,-133 339.07,-128.48 344.19,-125.02 349.73,-122.38"/>
<polygon fill="midnightblue" stroke="midnightblue" points="351.28,-125.53 359.34,-118.66 348.75,-119 351.28,-125.53"/>
</g>
<!-- Node251 -->
<g id="node16" class="node">
<title>Node251</title>
<g id="a_node16"><a xlink:href="cutils_8h.html#a7c82a3ee025fee89db5b11ff5b7691b8" target="_top" xlink:title=" ">
<polygon fill="none" stroke="black" points="371,-66.5 371,-85.5 424,-85.5 424,-66.5 371,-66.5"/>
<text text-anchor="middle" x="397.5" y="-73.5" font-family="Helvetica,sans-Serif" font-size="10.00">get_i16</text>
</a>
</g>
</g>
<!-- Node3&#45;&gt;Node251 -->
<g id="edge17" class="edge">
<title>Node3&#45;&gt;Node251</title>
<path fill="none" stroke="midnightblue" d="M258.11,-522.26C268.64,-458.51 327.56,-103.41 335,-95 341.65,-87.48 351.2,-82.9 360.8,-80.12"/>
<polygon fill="midnightblue" stroke="midnightblue" points="361.75,-83.5 370.71,-77.83 360.17,-76.68 361.75,-83.5"/>
</g>
<!-- Node252 -->
<g id="node17" class="node">
<title>Node252</title>
<g id="a_node17"><a xlink:href="cutils_8h.html#a288ee4e688944e23500af2ecc813c306" target="_top" xlink:title=" ">
<polygon fill="none" stroke="black" points="374,-902.5 374,-921.5 421,-921.5 421,-902.5 374,-902.5"/>
<text text-anchor="middle" x="397.5" y="-909.5" font-family="Helvetica,sans-Serif" font-size="10.00">get_i8</text>
</a>
</g>
</g>
<!-- Node3&#45;&gt;Node252 -->
<g id="edge18" class="edge">
<title>Node3&#45;&gt;Node252</title>
<path fill="none" stroke="midnightblue" d="M257.31,-541.73C261.81,-593.79 285.45,-839.02 335,-893 342.5,-901.17 353.43,-905.86 364.01,-908.55"/>
<polygon fill="midnightblue" stroke="midnightblue" points="363.42,-912 373.91,-910.55 364.8,-905.14 363.42,-912"/>
</g>
<!-- Node253 -->
<g id="node18" class="node">
<title>Node253</title>
<g id="a_node18"><a xlink:href="cutils_8h.html#ad587834d17e95461893d59661e5e9676" target="_top" xlink:title=" ">
<polygon fill="none" stroke="black" points="369.5,-864.5 369.5,-883.5 425.5,-883.5 425.5,-864.5 369.5,-864.5"/>
<text text-anchor="middle" x="397.5" y="-871.5" font-family="Helvetica,sans-Serif" font-size="10.00">get_u16</text>
</a>
</g>
</g>
<!-- Node3&#45;&gt;Node253 -->
<g id="edge19" class="edge">
<title>Node3&#45;&gt;Node253</title>
<path fill="none" stroke="midnightblue" d="M257.57,-541.66C263.11,-590.23 290.12,-807.29 335,-855 341.52,-861.93 350.51,-866.36 359.61,-869.17"/>
<polygon fill="midnightblue" stroke="midnightblue" points="358.86,-872.59 369.41,-871.64 360.56,-865.8 358.86,-872.59"/>
</g>
<!-- Node50 -->
<g id="node19" class="node">
<title>Node50</title>
<g id="a_node19"><a xlink:href="cutils_8h.html#a941262a5f72fda2ec43ae7911e97a0dc" target="_top" xlink:title=" ">
<polygon fill="none" stroke="black" points="369.5,-788.5 369.5,-807.5 425.5,-807.5 425.5,-788.5 369.5,-788.5"/>
<text text-anchor="middle" x="397.5" y="-795.5" font-family="Helvetica,sans-Serif" font-size="10.00">get_u32</text>
</a>
</g>
</g>
<!-- Node3&#45;&gt;Node50 -->
<g id="edge20" class="edge">
<title>Node3&#45;&gt;Node50</title>
<path fill="none" stroke="midnightblue" d="M256.81,-541.78C258.46,-577.72 268.93,-703.96 335,-774 341.64,-781.04 350.59,-786.05 359.61,-789.6"/>
<polygon fill="midnightblue" stroke="midnightblue" points="358.72,-792.99 369.31,-792.9 360.98,-786.37 358.72,-792.99"/>
</g>
<!-- Node254 -->
<g id="node20" class="node">
<title>Node254</title>
<g id="a_node20"><a xlink:href="quickjs_8c.html#a37fe43b6649456a848bd54846450b995" target="_top" xlink:title=" ">
<polygon fill="none" stroke="red" points="361.5,-598.5 361.5,-617.5 433.5,-617.5 433.5,-598.5 361.5,-598.5"/>
<text text-anchor="middle" x="397.5" y="-605.5" font-family="Helvetica,sans-Serif" font-size="10.00">get_var_ref</text>
</a>
</g>
</g>
<!-- Node3&#45;&gt;Node254 -->
<g id="edge21" class="edge">
<title>Node3&#45;&gt;Node254</title>
<path fill="none" stroke="midnightblue" d="M267.19,-541.55C281.64,-554.02 308.64,-575.81 335,-589 340.25,-591.63 345.94,-593.97 351.66,-596.05"/>
<polygon fill="midnightblue" stroke="midnightblue" points="350.65,-599.4 361.25,-599.28 352.89,-592.77 350.65,-599.4"/>
</g>
<!-- Node197 -->
<g id="node21" class="node">
<title>Node197</title>
<g id="a_node21"><a xlink:href="list_8h.html#a663527a4d757540b2177bef0db1ce5c0" target="_top" xlink:title=" ">
<polygon fill="none" stroke="black" points="356.5,-712.5 356.5,-731.5 438.5,-731.5 438.5,-712.5 356.5,-712.5"/>
<text text-anchor="middle" x="397.5" y="-719.5" font-family="Helvetica,sans-Serif" font-size="10.00">init_list_head</text>
</a>
</g>
</g>
<!-- Node3&#45;&gt;Node197 -->
<g id="edge22" class="edge">
<title>Node3&#45;&gt;Node197</title>
<path fill="none" stroke="midnightblue" d="M258.12,-541.78C263.46,-570.85 283.18,-657.55 335,-703 338.5,-706.07 342.48,-708.64 346.71,-710.8"/>
<polygon fill="midnightblue" stroke="midnightblue" points="345.66,-714.16 356.23,-714.89 348.42,-707.73 345.66,-714.16"/>
</g>
<!-- Node255 -->
<g id="node22" class="node">
<title>Node255</title>
<g id="a_node22"><a xlink:href="quickjs_8c.html#a2bb0a2ca3b8320f3ff778c65034fce49" target="_top" xlink:title=" ">
<polygon fill="none" stroke="red" points="338,-674.5 338,-693.5 457,-693.5 457,-674.5 338,-674.5"/>
<text text-anchor="middle" x="397.5" y="-681.5" font-family="Helvetica,sans-Serif" font-size="10.00">is_backtrace_needed</text>
</a>
</g>
</g>
<!-- Node3&#45;&gt;Node255 -->
<g id="edge23" class="edge">
<title>Node3&#45;&gt;Node255</title>
<path fill="none" stroke="midnightblue" d="M259.98,-541.82C268.83,-565.46 294.4,-626.06 335,-660 339.85,-664.05 345.46,-667.47 351.28,-670.34"/>
<polygon fill="midnightblue" stroke="midnightblue" points="349.96,-673.59 360.52,-674.42 352.78,-667.18 349.96,-673.59"/>
</g>
<!-- Node181 -->
<g id="node23" class="node">
<title>Node181</title>
<g id="a_node23"><a xlink:href="quickjs_8c.html#a686cf78f8b0361621ee2ba6182195c31" target="_top" xlink:title=" ">
<polygon fill="none" stroke="black" points="353.5,-560.5 353.5,-579.5 441.5,-579.5 441.5,-560.5 353.5,-560.5"/>
<text text-anchor="middle" x="397.5" y="-567.5" font-family="Helvetica,sans-Serif" font-size="10.00">is_strict_mode</text>
</a>
</g>
</g>
<!-- Node3&#45;&gt;Node181 -->
<g id="edge24" class="edge">
<title>Node3&#45;&gt;Node181</title>
<path fill="none" stroke="midnightblue" d="M291.83,-541.59C309.9,-546.49 332.1,-552.52 351.39,-557.76"/>
<polygon fill="midnightblue" stroke="midnightblue" points="350.62,-561.17 361.18,-560.41 352.45,-554.42 350.62,-561.17"/>
</g>
<!-- Node257 -->
<g id="node24" class="node">
<title>Node257</title>
<g id="a_node24"><a xlink:href="quickjs_8c.html#ae8ff05447c0d51fe277baccf616dc7c6" target="_top" xlink:title=" ">
<polygon fill="none" stroke="red" points="359.5,-826.5 359.5,-845.5 435.5,-845.5 435.5,-826.5 359.5,-826.5"/>
<text text-anchor="middle" x="397.5" y="-833.5" font-family="Helvetica,sans-Serif" font-size="10.00">js_add_slow</text>
</a>
</g>
</g>
<!-- Node3&#45;&gt;Node257 -->
<g id="edge25" class="edge">
<title>Node3&#45;&gt;Node257</title>
<path fill="none" stroke="midnightblue" d="M256.08,-541.69C254.9,-581.64 255.87,-735.39 335,-817 339.19,-821.32 344.33,-824.66 349.84,-827.24"/>
<polygon fill="midnightblue" stroke="midnightblue" points="348.78,-830.59 359.37,-830.92 351.3,-824.06 348.78,-830.59"/>
</g>
<!-- Node264 -->
<g id="node25" class="node">
<title>Node264</title>
<g id="a_node25"><a xlink:href="quickjs_8c.html#a6a21784a40b8684f2e779bd460dd13b2" target="_top" xlink:title=" ">
<polygon fill="none" stroke="red" points="358.5,-1016.5 358.5,-1035.5 436.5,-1035.5 436.5,-1016.5 358.5,-1016.5"/>
<text text-anchor="middle" x="397.5" y="-1023.5" font-family="Helvetica,sans-Serif" font-size="10.00">JS_AddBrand</text>
</a>
</g>
</g>
<!-- Node3&#45;&gt;Node264 -->
<g id="edge28" class="edge">
<title>Node3&#45;&gt;Node264</title>
<path fill="none" stroke="midnightblue" d="M256.85,-541.65C259.19,-602.03 274.5,-927.51 335,-1002 338.84,-1006.73 343.74,-1010.53 349.09,-1013.58"/>
<polygon fill="midnightblue" stroke="midnightblue" points="347.89,-1016.89 358.42,-1018.05 350.91,-1010.57 347.89,-1016.89"/>
</g>
<!-- Node3&#45;&gt;Node245 -->
<g id="edge44" class="edge">
<title>Node3&#45;&gt;Node245</title>
<path fill="none" stroke="midnightblue" d="M256.43,-541.53C256.14,-605.63 257.91,-973.43 335,-1045 387.95,-1094.16 478.21,-1086.4 532.85,-1075.64"/>
<polygon fill="midnightblue" stroke="midnightblue" points="533.88,-1079 542.95,-1073.54 532.45,-1072.15 533.88,-1079"/>
</g>
<!-- Node267 -->
<g id="node27" class="node">
<title>Node267</title>
<g id="a_node27"><a xlink:href="quickjs_8c.html#a43208b0746998d2b6b9b8bd1ef8b5f99" target="_top" xlink:title=" ">
<polygon fill="none" stroke="red" points="335,-408.5 335,-427.5 460,-427.5 460,-408.5 335,-408.5"/>
<text text-anchor="middle" x="397.5" y="-415.5" font-family="Helvetica,sans-Serif" font-size="10.00">js_append_enumerate</text>
</a>
</g>
</g>
<!-- Node3&#45;&gt;Node267 -->
<g id="edge33" class="edge">
<title>Node3&#45;&gt;Node267</title>
<path fill="none" stroke="midnightblue" d="M261.84,-522.34C272.93,-503.18 300.33,-460.21 335,-437 338.06,-434.95 341.35,-433.12 344.76,-431.47"/>
<polygon fill="midnightblue" stroke="midnightblue" points="346.15,-434.68 353.99,-427.56 343.42,-428.24 346.15,-434.68"/>
</g>
<!-- Node98 -->
<g id="node28" class="node">
<title>Node98</title>
<g id="a_node28"><a xlink:href="quickjs_8c.html#a260bfa297ff6cb5bd18e229afaa54663" target="_top" xlink:title=" ">
<polygon fill="none" stroke="red" points="349.5,-484.5 349.5,-503.5 445.5,-503.5 445.5,-484.5 349.5,-484.5"/>
<text text-anchor="middle" x="397.5" y="-491.5" font-family="Helvetica,sans-Serif" font-size="10.00">JS_AtomToString</text>
</a>
</g>
</g>
<!-- Node3&#45;&gt;Node98 -->
<g id="edge37" class="edge">
<title>Node3&#45;&gt;Node98</title>
<path fill="none" stroke="midnightblue" d="M291.83,-522.41C309.9,-517.51 332.1,-511.48 351.39,-506.24"/>
<polygon fill="midnightblue" stroke="midnightblue" points="352.45,-509.58 361.18,-503.59 350.62,-502.83 352.45,-509.58"/>
</g>
<!-- Node291 -->
<g id="node29" class="node">
<title>Node291</title>
<g id="a_node29"><a xlink:href="quickjs_8c.html#afa67965c1017685fc6783776d6d0d4d7" target="_top" xlink:title=" ">
<polygon fill="none" stroke="red" points="350,-446.5 350,-465.5 445,-465.5 445,-446.5 350,-446.5"/>
<text text-anchor="middle" x="397.5" y="-453.5" font-family="Helvetica,sans-Serif" font-size="10.00">JS_AtomToValue</text>
</a>
</g>
</g>
<!-- Node3&#45;&gt;Node291 -->
<g id="edge38" class="edge">
<title>Node3&#45;&gt;Node291</title>
<path fill="none" stroke="midnightblue" d="M267.19,-522.45C281.64,-509.98 308.64,-488.19 335,-475 339.39,-472.8 344.09,-470.8 348.85,-468.99"/>
<polygon fill="midnightblue" stroke="midnightblue" points="350.39,-472.16 358.66,-465.55 348.06,-465.56 350.39,-472.16"/>
</g>
<!-- Node3&#45;&gt;Node288 -->
<g id="edge43" class="edge">
<title>Node3&#45;&gt;Node288</title>
<path fill="none" stroke="midnightblue" d="M258.15,-522.39C263.87,-488.95 283.39,-374.56 299,-280 307.17,-230.47 302.07,-94.88 335,-57 339.58,-51.73 345.59,-47.9 352.06,-45.12"/>
<polygon fill="midnightblue" stroke="midnightblue" points="353.45,-48.35 361.74,-41.76 351.15,-41.73 353.45,-48.35"/>
</g>
<!-- Node65&#45;&gt;Node4 -->
<g id="edge8" class="edge">
<title>Node65&#45;&gt;Node4</title>
<path fill="none" stroke="midnightblue" d="M432.64,-522.43C441.63,-519.64 451.26,-516.42 460,-513 492.43,-500.3 528.32,-482.58 552.12,-470.28"/>
<polygon fill="midnightblue" stroke="midnightblue" points="553.97,-473.26 561.22,-465.53 550.74,-467.05 553.97,-473.26"/>
</g>
<!-- Node65&#45;&gt;Node66 -->
<g id="edge9" class="edge">
<title>Node65&#45;&gt;Node66</title>
<path fill="none" stroke="midnightblue" d="M438.56,-532C465.85,-532 502.11,-532 530.95,-532"/>
<polygon fill="midnightblue" stroke="midnightblue" points="531.21,-535.5 541.21,-532 531.21,-528.5 531.21,-535.5"/>
</g>
<!-- Node65&#45;&gt;Node75 -->
<g id="edge11" class="edge">
<title>Node65&#45;&gt;Node75</title>
<path fill="none" stroke="midnightblue" d="M438.82,-539.55C446.4,-542.27 453.86,-545.97 460,-551 526.82,-605.74 561.79,-708.27 573.95,-750.78"/>
<polygon fill="midnightblue" stroke="midnightblue" points="570.58,-751.73 576.61,-760.44 577.33,-749.87 570.58,-751.73"/>
</g>
<!-- Node66&#45;&gt;Node57 -->
<g id="edge10" class="edge">
<title>Node66&#45;&gt;Node57</title>
<path fill="none" stroke="midnightblue" d="M607.36,-522.46C633.37,-513.05 673.33,-498.59 702.3,-488.1"/>
<polygon fill="midnightblue" stroke="midnightblue" points="703.84,-491.27 712.05,-484.57 701.46,-484.68 703.84,-491.27"/>
</g>
<!-- Node257&#45;&gt;Node57 -->
<g id="edge26" class="edge">
<title>Node257&#45;&gt;Node57</title>
<path fill="none" stroke="midnightblue" d="M435.76,-841.06C492.8,-846.55 601.7,-847.8 664,-789 707.44,-748 730.2,-557.46 736.59,-494.93"/>
<polygon fill="midnightblue" stroke="midnightblue" points="740.09,-495.11 737.6,-484.81 733.13,-494.42 740.09,-495.11"/>
</g>
<!-- Node257&#45;&gt;Node75 -->
<g id="edge27" class="edge">
<title>Node257&#45;&gt;Node75</title>
<path fill="none" stroke="midnightblue" d="M431.21,-826.4C440.56,-823.52 450.72,-820.26 460,-817 464.29,-815.49 511.83,-796.67 545.5,-783.3"/>
<polygon fill="midnightblue" stroke="midnightblue" points="547.01,-786.47 555.01,-779.53 544.42,-779.97 547.01,-786.47"/>
</g>
<!-- Node264&#45;&gt;Node7 -->
<g id="edge29" class="edge">
<title>Node264&#45;&gt;Node7</title>
<path fill="none" stroke="midnightblue" d="M436.78,-1017.94C463.72,-1012.27 500.03,-1004.63 529.21,-998.48"/>
<polygon fill="midnightblue" stroke="midnightblue" points="530.15,-1001.86 539.21,-996.38 528.71,-995.01 530.15,-1001.86"/>
</g>
<!-- Node264&#45;&gt;Node57 -->
<g id="edge30" class="edge">
<title>Node264&#45;&gt;Node57</title>
<path fill="none" stroke="midnightblue" d="M436.72,-1028.89C502.24,-1032.95 632.05,-1036.86 664,-1007 740.14,-935.85 740.12,-583.54 738.89,-495.14"/>
<polygon fill="midnightblue" stroke="midnightblue" points="742.38,-494.83 738.72,-484.88 735.38,-494.94 742.38,-494.83"/>
</g>
<!-- Node264&#45;&gt;Node75 -->
<g id="edge31" class="edge">
<title>Node264&#45;&gt;Node75</title>
<path fill="none" stroke="midnightblue" d="M409.73,-1016.16C422.7,-1004.47 444.27,-984.03 460,-964 506.87,-904.33 550.39,-825.01 569.2,-789.1"/>
<polygon fill="midnightblue" stroke="midnightblue" points="572.53,-790.29 574.04,-779.8 566.32,-787.06 572.53,-790.29"/>
</g>
<!-- Node264&#45;&gt;Node245 -->
<g id="edge32" class="edge">
<title>Node264&#45;&gt;Node245</title>
<path fill="none" stroke="midnightblue" d="M436.78,-1034.06C462.03,-1039.38 495.52,-1046.43 523.66,-1052.35"/>
<polygon fill="midnightblue" stroke="midnightblue" points="523.25,-1055.84 533.76,-1054.48 524.69,-1048.99 523.25,-1055.84"/>
</g>
<!-- Node267&#45;&gt;Node4 -->
<g id="edge34" class="edge">
<title>Node267&#45;&gt;Node4</title>
<path fill="none" stroke="midnightblue" d="M444.05,-427.59C470.26,-433.11 503.19,-440.04 529.96,-445.68"/>
<polygon fill="midnightblue" stroke="midnightblue" points="529.39,-449.13 539.9,-447.77 530.83,-442.28 529.39,-449.13"/>
</g>
<!-- Node267&#45;&gt;Node57 -->
<g id="edge35" class="edge">
<title>Node267&#45;&gt;Node57</title>
<path fill="none" stroke="midnightblue" d="M460.04,-415.54C514.62,-414.96 596,-418.07 664,-437 682.24,-442.08 701.24,-451.85 715.48,-460.21"/>
<polygon fill="midnightblue" stroke="midnightblue" points="713.73,-463.24 724.1,-465.43 717.36,-457.26 713.73,-463.24"/>
</g>
<!-- Node267&#45;&gt;Node75 -->
<g id="edge36" class="edge">
<title>Node267&#45;&gt;Node75</title>
<path fill="none" stroke="midnightblue" d="M446.48,-427.61C451.47,-430.06 456.12,-433.14 460,-437 497.69,-474.45 478.58,-500.8 496,-551 521.85,-625.47 556.14,-712.74 571.27,-750.72"/>
<polygon fill="midnightblue" stroke="midnightblue" points="568.21,-752.48 575.17,-760.46 574.71,-749.88 568.21,-752.48"/>
</g>
</g>
</svg>
        <g id="navigator" transform="translate(0 0)" fill="#404254">
                <rect fill="#f2f5e9" fill-opacity="0.5" stroke="#606060" stroke-width=".5" x="0" y="0" width="60" height="60"/>
                <use id="zoomplus" xlink:href="#zoomPlus" x="17" y="9" onmousedown="handleZoom(evt,'in')"/>
                <use id="zoomminus" xlink:href="#zoomMin" x="42" y="9" onmousedown="handleZoom(evt,'out')"/>
                <use id="reset" xlink:href="#resetDef" x="30" y="36" onmousedown="handleReset()"/>
                <g id="arrowUp" xlink:href="#dirArrow" transform="translate(30 24)" onmousedown="handlePan(0,-1)">
                  <use xlink:href="#rim" fill="#404040">
                        <set attributeName="fill" to="#808080" begin="arrowUp.mouseover" end="arrowUp.mouseout"/>
                  </use>
                  <path fill="none" stroke="white" stroke-width="1.5" d="M0,-3.0v7 M-2.5,-0.5L0,-3.0L2.5,-0.5"/>
                </g>
                <g id="arrowRight" xlink:href="#dirArrow" transform="rotate(90) translate(36 -43)" onmousedown="handlePan(1,0)">
                  <use xlink:href="#rim" fill="#404040">
                        <set attributeName="fill" to="#808080" begin="arrowRight.mouseover" end="arrowRight.mouseout"/>
                  </use>
                  <path fill="none" stroke="white" stroke-width="1.5" d="M0,-3.0v7 M-2.5,-0.5L0,-3.0L2.5,-0.5"/>
                </g>
                <g id="arrowDown" xlink:href="#dirArrow" transform="rotate(180) translate(-30 -48)" onmousedown="handlePan(0,1)">
                  <use xlink:href="#rim" fill="#404040">
                        <set attributeName="fill" to="#808080" begin="arrowDown.mouseover" end="arrowDown.mouseout"/>
                  </use>
                  <path fill="none" stroke="white" stroke-width="1.5" d="M0,-3.0v7 M-2.5,-0.5L0,-3.0L2.5,-0.5"/>
                </g>
                <g id="arrowLeft" xlink:href="#dirArrow" transform="rotate(270) translate(-36 17)" onmousedown="handlePan(-1,0)">
                  <use xlink:href="#rim" fill="#404040">
                        <set attributeName="fill" to="#808080" begin="arrowLeft.mouseover" end="arrowLeft.mouseout"/>
                  </use>
                  <path fill="none" stroke="white" stroke-width="1.5" d="M0,-3.0v7 M-2.5,-0.5L0,-3.0L2.5,-0.5"/>
                </g>
        </g>
        <svg viewBox="0 0 15 15" width="100%" height="30px" preserveAspectRatio="xMaxYMin meet">
         <g id="arrow_out" transform="scale(0.3 0.3)">
          <a xlink:href="quickjs_8c_aa049793cc8648d35fe81876a2543ca4e_cgraph_org.svg" target="_base">
           <rect id="button" ry="5" rx="5" y="6" x="6" height="38" width="38"
                fill="#f2f5e9" fill-opacity="0.5" stroke="#606060" stroke-width="1.0"/>
           <path id="arrow"
             d="M 11.500037,31.436501 C 11.940474,20.09759 22.043105,11.32322 32.158766,21.979434 L 37.068811,17.246167 C 37.068811,17.246167 37.088388,32 37.088388,32 L 22.160133,31.978069 C 22.160133,31.978069 26.997745,27.140456 26.997745,27.140456 C 18.528582,18.264221 13.291696,25.230495 11.500037,31.436501 z"
             style="fill:#404040;"/>
          </a>
         </g>
        </svg>
</svg>
