<?xml version="1.0" encoding="UTF-8" standalone="no"?>
<!DOCTYPE svg PUBLIC "-//W3C//DTD SVG 1.1//EN"
 "http://www.w3.org/Graphics/SVG/1.1/DTD/svg11.dtd">
<!-- Generated by graphviz version 2.43.0 (0)
 -->
<!-- Title: JS_GetPropertyInt64 Pages: 1 -->
<!--zoomable 522 -->
<svg id="main" version="1.1" xmlns="http://www.w3.org/2000/svg" xmlns:xlink="http://www.w3.org/1999/xlink" xml:space="preserve" onload="init(evt)">
<style type="text/css"><![CDATA[
.edge:hover path { stroke: red; }
.edge:hover polygon { stroke: red; fill: red; }
]]></style>
<script type="text/javascript"><![CDATA[
var edges = document.getElementsByTagName('g');
if (edges && edges.length) {
  for (var i=0;i<edges.length;i++) {
    if (edges[i].id.substr(0,4)=='edge') {
      edges[i].setAttribute('class','edge');
    }
  }
}
]]></script>
        <defs>
                <circle id="rim" cx="0" cy="0" r="7"/>
                <circle id="rim2" cx="0" cy="0" r="3.5"/>
                <g id="zoomPlus">
                        <use xlink:href="#rim" fill="#404040">
                                <set attributeName="fill" to="#808080" begin="zoomplus.mouseover" end="zoomplus.mouseout"/>
                        </use>
                        <path d="M-4,0h8M0,-4v8" fill="none" stroke="white" stroke-width="1.5" pointer-events="none"/>
                </g>
                <g id="zoomMin">
                        <use xlink:href="#rim" fill="#404040">
                                <set attributeName="fill" to="#808080" begin="zoomminus.mouseover" end="zoomminus.mouseout"/>
                        </use>
                        <path d="M-4,0h8" fill="none" stroke="white" stroke-width="1.5" pointer-events="none"/>
                </g>
                <g id="dirArrow">
                        <path fill="none" stroke="white" stroke-width="1.5" d="M0,-3.0v7 M-2.5,-0.5L0,-3.0L2.5,-0.5"/>
                </g>
               <g id="resetDef">
                       <use xlink:href="#rim2" fill="#404040">
                               <set attributeName="fill" to="#808080" begin="reset.mouseover" end="reset.mouseout"/>
                       </use>
               </g>
        </defs>

<script type="text/javascript">
var viewWidth = 637;
var viewHeight = 522;
var sectionId = 'dynsection-586';
</script>
<script xlink:href="svgpan.js"/>
<svg id="graph" class="graph">
<g id="viewport">
<title>JS_GetPropertyInt64</title>
<!-- Node1 -->
<g id="node1" class="node">
<title>Node1</title>
<g id="a_node1"><a xlink:title=" ">
<polygon fill="#bfbfbf" stroke="black" points="515,-247.5 515,-266.5 629,-266.5 629,-247.5 515,-247.5"/>
<text text-anchor="middle" x="572" y="-254.5" font-family="Helvetica,sans-Serif" font-size="10.00">JS_GetPropertyInt64</text>
</a>
</g>
</g>
<!-- Node2 -->
<g id="node2" class="node">
<title>Node2</title>
<g id="a_node2"><a xlink:href="quickjs_8c.html#aa0bbf08a7e91459c68a312fba7016c6d" target="_top" xlink:title=" ">
<polygon fill="none" stroke="black" points="352,-494.5 352,-513.5 441,-513.5 441,-494.5 352,-494.5"/>
<text text-anchor="middle" x="396.5" y="-501.5" font-family="Helvetica,sans-Serif" font-size="10.00">js_array_every</text>
</a>
</g>
</g>
<!-- Node1&#45;&gt;Node2 -->
<g id="edge1" class="edge">
<title>Node1&#45;&gt;Node2</title>
<path fill="none" stroke="midnightblue" d="M569.07,-276.62C563.63,-320.96 544.02,-429.32 479,-485 468.52,-493.98 454.59,-498.91 441.22,-501.56"/>
<polygon fill="midnightblue" stroke="midnightblue" points="572.56,-276.91 570.19,-266.58 565.61,-276.13 572.56,-276.91"/>
</g>
<!-- Node3 -->
<g id="node3" class="node">
<title>Node3</title>
<g id="a_node3"><a xlink:href="quickjs_8c.html#a5e32da9a43002cb96dcbd62a1a340144" target="_top" xlink:title=" ">
<polygon fill="none" stroke="black" points="354.5,-456.5 354.5,-475.5 438.5,-475.5 438.5,-456.5 354.5,-456.5"/>
<text text-anchor="middle" x="396.5" y="-463.5" font-family="Helvetica,sans-Serif" font-size="10.00">js_array_from</text>
</a>
</g>
</g>
<!-- Node1&#45;&gt;Node3 -->
<g id="edge2" class="edge">
<title>Node1&#45;&gt;Node3</title>
<path fill="none" stroke="midnightblue" d="M566.79,-276.51C557.63,-314.22 532.28,-397.32 479,-442 467.7,-451.48 452.79,-457.21 438.82,-460.68"/>
<polygon fill="midnightblue" stroke="midnightblue" points="570.2,-277.28 569.04,-266.75 563.38,-275.71 570.2,-277.28"/>
</g>
<!-- Node4 -->
<g id="node4" class="node">
<title>Node4</title>
<g id="a_node4"><a xlink:href="quickjs_8c.html#a2ef89587b2e4287d4bd0417788c8e21e" target="_top" xlink:title=" ">
<polygon fill="none" stroke="black" points="346,-342.5 346,-361.5 447,-361.5 447,-342.5 346,-342.5"/>
<text text-anchor="middle" x="396.5" y="-349.5" font-family="Helvetica,sans-Serif" font-size="10.00">js_array_includes</text>
</a>
</g>
</g>
<!-- Node1&#45;&gt;Node4 -->
<g id="edge3" class="edge">
<title>Node1&#45;&gt;Node4</title>
<path fill="none" stroke="midnightblue" d="M553.4,-273.84C535.83,-289.82 507.42,-313.5 479,-328 467.18,-334.03 453.59,-338.79 440.95,-342.42"/>
<polygon fill="midnightblue" stroke="midnightblue" points="556.16,-276.05 561.11,-266.69 551.4,-270.92 556.16,-276.05"/>
</g>
<!-- Node5 -->
<g id="node5" class="node">
<title>Node5</title>
<g id="a_node5"><a xlink:href="quickjs_8c.html#a60d84dd116a9d7d912d08f298a4734dd" target="_top" xlink:title=" ">
<polygon fill="none" stroke="black" points="163,-380.5 163,-399.5 246,-399.5 246,-380.5 163,-380.5"/>
<text text-anchor="middle" x="204.5" y="-387.5" font-family="Helvetica,sans-Serif" font-size="10.00">js_json_to_str</text>
</a>
</g>
</g>
<!-- Node1&#45;&gt;Node5 -->
<g id="edge11" class="edge">
<title>Node1&#45;&gt;Node5</title>
<path fill="none" stroke="midnightblue" d="M565.91,-276.64C555.86,-310.81 529.92,-380.3 479,-409 396.9,-455.27 278.19,-418.6 228.61,-399.61"/>
<polygon fill="midnightblue" stroke="midnightblue" points="569.31,-277.45 568.62,-266.88 562.57,-275.57 569.31,-277.45"/>
</g>
<!-- Node6 -->
<g id="node6" class="node">
<title>Node6</title>
<g id="a_node6"><a xlink:href="quickjs_8c.html#a343a343b16bc3c9875050e99ee0d2884" target="_top" xlink:title=" ">
<polygon fill="none" stroke="red" points="0,-342.5 0,-361.5 95,-361.5 95,-342.5 0,-342.5"/>
<text text-anchor="middle" x="47.5" y="-349.5" font-family="Helvetica,sans-Serif" font-size="10.00">JS_JSONStringify</text>
</a>
</g>
</g>
<!-- Node1&#45;&gt;Node6 -->
<g id="edge12" class="edge">
<title>Node1&#45;&gt;Node6</title>
<path fill="none" stroke="midnightblue" d="M542.85,-270.87C524.97,-279.11 501.11,-289.08 479,-295 342.45,-331.57 174.99,-345.15 95.14,-349.8"/>
<polygon fill="midnightblue" stroke="midnightblue" points="544.57,-273.93 552.12,-266.5 541.59,-267.6 544.57,-273.93"/>
</g>
<!-- Node8 -->
<g id="node7" class="node">
<title>Node8</title>
<g id="a_node7"><a xlink:href="quickjs_8c.html#a01281ea66186a034a0e9021ee8c9f945" target="_top" xlink:title=" ">
<polygon fill="none" stroke="black" points="357,-380.5 357,-399.5 436,-399.5 436,-380.5 357,-380.5"/>
<text text-anchor="middle" x="396.5" y="-387.5" font-family="Helvetica,sans-Serif" font-size="10.00">js_array_pop</text>
</a>
</g>
</g>
<!-- Node1&#45;&gt;Node8 -->
<g id="edge8" class="edge">
<title>Node1&#45;&gt;Node8</title>
<path fill="none" stroke="midnightblue" d="M561.13,-275.84C546.66,-301.51 517.23,-347.01 479,-371 466.2,-379.03 450.35,-383.67 436.04,-386.35"/>
<polygon fill="midnightblue" stroke="midnightblue" points="564.36,-277.22 566.08,-266.76 558.22,-273.86 564.36,-277.22"/>
</g>
<!-- Node9 -->
<g id="node8" class="node">
<title>Node9</title>
<g id="a_node8"><a xlink:href="quickjs_8c.html#a36c1692489542a86dd79a7d39ab8ff95" target="_top" xlink:title=" ">
<polygon fill="none" stroke="black" points="349.5,-266.5 349.5,-285.5 443.5,-285.5 443.5,-266.5 349.5,-266.5"/>
<text text-anchor="middle" x="396.5" y="-273.5" font-family="Helvetica,sans-Serif" font-size="10.00">js_array_reduce</text>
</a>
</g>
</g>
<!-- Node1&#45;&gt;Node9 -->
<g id="edge10" class="edge">
<title>Node1&#45;&gt;Node9</title>
<path fill="none" stroke="midnightblue" d="M504.54,-264.28C484.23,-266.5 462.35,-268.9 443.7,-270.94"/>
<polygon fill="midnightblue" stroke="midnightblue" points="505.11,-267.74 514.67,-263.17 504.35,-260.78 505.11,-267.74"/>
</g>
<!-- Node10 -->
<g id="node9" class="node">
<title>Node10</title>
<g id="a_node9"><a xlink:href="quickjs_8c.html#aeb6df5fcffc6fecfac1e9b0d709e99c5" target="_top" xlink:title=" ">
<polygon fill="none" stroke="black" points="314,-228.5 314,-247.5 479,-247.5 479,-228.5 314,-228.5"/>
<text text-anchor="middle" x="396.5" y="-235.5" font-family="Helvetica,sans-Serif" font-size="10.00">js_regexp_string_iterator_next</text>
</a>
</g>
</g>
<!-- Node1&#45;&gt;Node10 -->
<g id="edge13" class="edge">
<title>Node1&#45;&gt;Node10</title>
<path fill="none" stroke="midnightblue" d="M504.62,-249.73C496.26,-248.82 487.63,-247.87 479.07,-246.93"/>
<polygon fill="midnightblue" stroke="midnightblue" points="504.35,-253.22 514.67,-250.83 505.11,-246.26 504.35,-253.22"/>
</g>
<!-- Node11 -->
<g id="node10" class="node">
<title>Node11</title>
<g id="a_node10"><a xlink:href="quickjs_8c.html#a41fc4304b39616e7be3500fe6ec881c2" target="_top" xlink:title=" ">
<polygon fill="none" stroke="black" points="325.5,-190.5 325.5,-209.5 467.5,-209.5 467.5,-190.5 325.5,-190.5"/>
<text text-anchor="middle" x="396.5" y="-197.5" font-family="Helvetica,sans-Serif" font-size="10.00">js_regexp_Symbol_match</text>
</a>
</g>
</g>
<!-- Node1&#45;&gt;Node11 -->
<g id="edge14" class="edge">
<title>Node1&#45;&gt;Node11</title>
<path fill="none" stroke="midnightblue" d="M541.25,-243.27C523.46,-235.42 500.24,-225.81 479,-219 467.93,-215.45 455.82,-212.26 444.4,-209.56"/>
<polygon fill="midnightblue" stroke="midnightblue" points="539.97,-246.53 550.53,-247.42 542.83,-240.14 539.97,-246.53"/>
</g>
<!-- Node12 -->
<g id="node11" class="node">
<title>Node12</title>
<g id="a_node11"><a xlink:href="quickjs_8c.html#a6a77bcdb9f7f18c13c108c99a198708b" target="_top" xlink:title=" ">
<polygon fill="none" stroke="black" points="131,-133.5 131,-152.5 278,-152.5 278,-133.5 131,-133.5"/>
<text text-anchor="middle" x="204.5" y="-140.5" font-family="Helvetica,sans-Serif" font-size="10.00">js_regexp_Symbol_replace</text>
</a>
</g>
</g>
<!-- Node1&#45;&gt;Node12 -->
<g id="edge15" class="edge">
<title>Node1&#45;&gt;Node12</title>
<path fill="none" stroke="midnightblue" d="M555.91,-239.87C539.08,-221.99 510.08,-194.67 479,-181 414.93,-152.83 334.98,-144.43 278.11,-142.41"/>
<polygon fill="midnightblue" stroke="midnightblue" points="553.42,-242.34 562.76,-247.35 558.59,-237.61 553.42,-242.34"/>
</g>
<!-- Node13 -->
<g id="node12" class="node">
<title>Node13</title>
<g id="a_node12"><a xlink:href="quickjs_8c.html#a79872a6d9d139e36d5d1894d16132024" target="_top" xlink:title=" ">
<polygon fill="none" stroke="black" points="330.5,-114.5 330.5,-133.5 462.5,-133.5 462.5,-114.5 330.5,-114.5"/>
<text text-anchor="middle" x="396.5" y="-121.5" font-family="Helvetica,sans-Serif" font-size="10.00">js_regexp_Symbol_split</text>
</a>
</g>
</g>
<!-- Node1&#45;&gt;Node13 -->
<g id="edge16" class="edge">
<title>Node1&#45;&gt;Node13</title>
<path fill="none" stroke="midnightblue" d="M560.27,-238.56C545.19,-214.25 515.44,-171.77 479,-148 469.36,-141.71 458.03,-137.03 446.94,-133.56"/>
<polygon fill="midnightblue" stroke="midnightblue" points="557.32,-240.45 565.49,-247.2 563.32,-236.83 557.32,-240.45"/>
</g>
<!-- Node14 -->
<g id="node13" class="node">
<title>Node14</title>
<g id="a_node13"><a xlink:href="quickjs_8c.html#adb4d2990e6bf3f99633512ad2054b47a" target="_top" xlink:title=" ">
<polygon fill="none" stroke="black" points="322,-76.5 322,-95.5 471,-95.5 471,-76.5 322,-76.5"/>
<text text-anchor="middle" x="396.5" y="-83.5" font-family="Helvetica,sans-Serif" font-size="10.00">js_string___GetSubstitution</text>
</a>
</g>
</g>
<!-- Node1&#45;&gt;Node14 -->
<g id="edge17" class="edge">
<title>Node1&#45;&gt;Node14</title>
<path fill="none" stroke="midnightblue" d="M564.87,-237.62C553.48,-204.91 525.88,-139.02 479,-105 473.71,-101.16 467.76,-98.08 461.55,-95.62"/>
<polygon fill="midnightblue" stroke="midnightblue" points="561.63,-238.96 568.11,-247.34 568.27,-236.75 561.63,-238.96"/>
</g>
<!-- Node16 -->
<g id="node15" class="node">
<title>Node16</title>
<g id="a_node15"><a xlink:href="quickjs_8c.html#a80bed67de3ceaf66888093b5fc84972a" target="_top" xlink:title=" ">
<polygon fill="none" stroke="black" points="356,-38.5 356,-57.5 437,-57.5 437,-38.5 356,-38.5"/>
<text text-anchor="middle" x="396.5" y="-45.5" font-family="Helvetica,sans-Serif" font-size="10.00">js_string_raw</text>
</a>
</g>
</g>
<!-- Node1&#45;&gt;Node16 -->
<g id="edge20" class="edge">
<title>Node1&#45;&gt;Node16</title>
<path fill="none" stroke="midnightblue" d="M567.3,-237.24C558.92,-198.31 534.75,-111.58 479,-67 467.2,-57.56 451.53,-52.66 437.1,-50.16"/>
<polygon fill="midnightblue" stroke="midnightblue" points="563.92,-238.18 569.33,-247.29 570.78,-236.8 563.92,-238.18"/>
</g>
<!-- Node17 -->
<g id="node16" class="node">
<title>Node17</title>
<g id="a_node16"><a xlink:href="quickjs_8c.html#a5f46f50deddd4e3a23da24e8173db28e" target="_top" xlink:title=" ">
<polygon fill="none" stroke="black" points="338,-0.5 338,-19.5 455,-19.5 455,-0.5 338,-0.5"/>
<text text-anchor="middle" x="396.5" y="-7.5" font-family="Helvetica,sans-Serif" font-size="10.00">js_typed_array_from</text>
</a>
</g>
</g>
<!-- Node1&#45;&gt;Node17 -->
<g id="edge21" class="edge">
<title>Node1&#45;&gt;Node17</title>
<path fill="none" stroke="midnightblue" d="M569.07,-237.38C563.63,-193.04 544.02,-84.68 479,-29 472.16,-23.14 463.85,-19.01 455.19,-16.1"/>
<polygon fill="midnightblue" stroke="midnightblue" points="565.61,-237.87 570.19,-247.42 572.56,-237.09 565.61,-237.87"/>
</g>
<!-- Node4&#45;&gt;Node5 -->
<g id="edge4" class="edge">
<title>Node4&#45;&gt;Node5</title>
<path fill="none" stroke="midnightblue" d="M337.75,-363.55C308.12,-369.48 272.74,-376.55 246.03,-381.89"/>
<polygon fill="midnightblue" stroke="midnightblue" points="338.44,-366.98 347.55,-361.59 337.06,-360.12 338.44,-366.98"/>
</g>
<!-- Node4&#45;&gt;Node6 -->
<g id="edge7" class="edge">
<title>Node4&#45;&gt;Node6</title>
<path fill="none" stroke="midnightblue" d="M335.61,-352C267.35,-352 157.22,-352 95.07,-352"/>
<polygon fill="midnightblue" stroke="midnightblue" points="335.78,-355.5 345.78,-352 335.78,-348.5 335.78,-355.5"/>
</g>
<!-- Node5&#45;&gt;Node5 -->
<g id="edge5" class="edge">
<title>Node5&#45;&gt;Node5</title>
<path fill="none" stroke="midnightblue" d="M233.62,-408.65C232.4,-413.94 222.7,-418 204.5,-418 176.77,-418 168.76,-408.57 180.46,-399.76"/>
<polygon fill="midnightblue" stroke="midnightblue" points="236.54,-406.71 228.54,-399.76 230.46,-410.18 236.54,-406.71"/>
</g>
<!-- Node5&#45;&gt;Node6 -->
<g id="edge6" class="edge">
<title>Node5&#45;&gt;Node6</title>
<path fill="none" stroke="midnightblue" d="M154.39,-377.96C132.74,-372.65 107.65,-366.5 87.33,-361.52"/>
<polygon fill="midnightblue" stroke="midnightblue" points="153.84,-381.43 164.39,-380.41 155.51,-374.63 153.84,-381.43"/>
</g>
<!-- Node8&#45;&gt;Node5 -->
<g id="edge9" class="edge">
<title>Node8&#45;&gt;Node5</title>
<path fill="none" stroke="midnightblue" d="M346.42,-390C315.35,-390 275.66,-390 246.33,-390"/>
<polygon fill="midnightblue" stroke="midnightblue" points="346.59,-393.5 356.59,-390 346.59,-386.5 346.59,-393.5"/>
</g>
<!-- Node14&#45;&gt;Node12 -->
<g id="edge18" class="edge">
<title>Node14&#45;&gt;Node12</title>
<path fill="none" stroke="midnightblue" d="M340.5,-97.97C331.6,-100.15 322.51,-102.52 314,-105 284.87,-113.47 252.08,-125.28 230.25,-133.47"/>
<polygon fill="midnightblue" stroke="midnightblue" points="341.52,-101.32 350.44,-95.59 339.9,-94.51 341.52,-101.32"/>
</g>
<!-- Node15 -->
<g id="node14" class="node">
<title>Node15</title>
<g id="a_node14"><a xlink:href="quickjs_8c.html#aed1bf9ce4b9e3a82388679dd6ec7635b" target="_top" xlink:title=" ">
<polygon fill="none" stroke="black" points="155,-76.5 155,-95.5 254,-95.5 254,-76.5 155,-76.5"/>
<text text-anchor="middle" x="204.5" y="-83.5" font-family="Helvetica,sans-Serif" font-size="10.00">js_string_replace</text>
</a>
</g>
</g>
<!-- Node14&#45;&gt;Node15 -->
<g id="edge19" class="edge">
<title>Node14&#45;&gt;Node15</title>
<path fill="none" stroke="midnightblue" d="M311.59,-86C291.99,-86 271.75,-86 254.27,-86"/>
<polygon fill="midnightblue" stroke="midnightblue" points="311.77,-89.5 321.77,-86 311.77,-82.5 311.77,-89.5"/>
</g>
</g>
</svg>
        <g id="navigator" transform="translate(0 0)" fill="#404254">
                <rect fill="#f2f5e9" fill-opacity="0.5" stroke="#606060" stroke-width=".5" x="0" y="0" width="60" height="60"/>
                <use id="zoomplus" xlink:href="#zoomPlus" x="17" y="9" onmousedown="handleZoom(evt,'in')"/>
                <use id="zoomminus" xlink:href="#zoomMin" x="42" y="9" onmousedown="handleZoom(evt,'out')"/>
                <use id="reset" xlink:href="#resetDef" x="30" y="36" onmousedown="handleReset()"/>
                <g id="arrowUp" xlink:href="#dirArrow" transform="translate(30 24)" onmousedown="handlePan(0,-1)">
                  <use xlink:href="#rim" fill="#404040">
                        <set attributeName="fill" to="#808080" begin="arrowUp.mouseover" end="arrowUp.mouseout"/>
                  </use>
                  <path fill="none" stroke="white" stroke-width="1.5" d="M0,-3.0v7 M-2.5,-0.5L0,-3.0L2.5,-0.5"/>
                </g>
                <g id="arrowRight" xlink:href="#dirArrow" transform="rotate(90) translate(36 -43)" onmousedown="handlePan(1,0)">
                  <use xlink:href="#rim" fill="#404040">
                        <set attributeName="fill" to="#808080" begin="arrowRight.mouseover" end="arrowRight.mouseout"/>
                  </use>
                  <path fill="none" stroke="white" stroke-width="1.5" d="M0,-3.0v7 M-2.5,-0.5L0,-3.0L2.5,-0.5"/>
                </g>
                <g id="arrowDown" xlink:href="#dirArrow" transform="rotate(180) translate(-30 -48)" onmousedown="handlePan(0,1)">
                  <use xlink:href="#rim" fill="#404040">
                        <set attributeName="fill" to="#808080" begin="arrowDown.mouseover" end="arrowDown.mouseout"/>
                  </use>
                  <path fill="none" stroke="white" stroke-width="1.5" d="M0,-3.0v7 M-2.5,-0.5L0,-3.0L2.5,-0.5"/>
                </g>
                <g id="arrowLeft" xlink:href="#dirArrow" transform="rotate(270) translate(-36 17)" onmousedown="handlePan(-1,0)">
                  <use xlink:href="#rim" fill="#404040">
                        <set attributeName="fill" to="#808080" begin="arrowLeft.mouseover" end="arrowLeft.mouseout"/>
                  </use>
                  <path fill="none" stroke="white" stroke-width="1.5" d="M0,-3.0v7 M-2.5,-0.5L0,-3.0L2.5,-0.5"/>
                </g>
        </g>
        <svg viewBox="0 0 15 15" width="100%" height="30px" preserveAspectRatio="xMaxYMin meet">
         <g id="arrow_out" transform="scale(0.3 0.3)">
          <a xlink:href="quickjs_8c_a7bb763b31e1c40a04aa0c1d5db0f1191_icgraph_org.svg" target="_base">
           <rect id="button" ry="5" rx="5" y="6" x="6" height="38" width="38"
                fill="#f2f5e9" fill-opacity="0.5" stroke="#606060" stroke-width="1.0"/>
           <path id="arrow"
             d="M 11.500037,31.436501 C 11.940474,20.09759 22.043105,11.32322 32.158766,21.979434 L 37.068811,17.246167 C 37.068811,17.246167 37.088388,32 37.088388,32 L 22.160133,31.978069 C 22.160133,31.978069 26.997745,27.140456 26.997745,27.140456 C 18.528582,18.264221 13.291696,25.230495 11.500037,31.436501 z"
             style="fill:#404040;"/>
          </a>
         </g>
        </svg>
</svg>
