<?xml version="1.0" encoding="UTF-8" standalone="no"?>
<!DOCTYPE svg PUBLIC "-//W3C//DTD SVG 1.1//EN"
 "http://www.w3.org/Graphics/SVG/1.1/DTD/svg11.dtd">
<!-- Generated by graphviz version 2.43.0 (0)
 -->
<!-- Title: JS_SetUncatchableError Pages: 1 -->
<!--zoomable 218 -->
<svg id="main" version="1.1" xmlns="http://www.w3.org/2000/svg" xmlns:xlink="http://www.w3.org/1999/xlink" xml:space="preserve" onload="init(evt)">
<style type="text/css"><![CDATA[
.edge:hover path { stroke: red; }
.edge:hover polygon { stroke: red; fill: red; }
]]></style>
<script type="text/javascript"><![CDATA[
var edges = document.getElementsByTagName('g');
if (edges && edges.length) {
  for (var i=0;i<edges.length;i++) {
    if (edges[i].id.substr(0,4)=='edge') {
      edges[i].setAttribute('class','edge');
    }
  }
}
]]></script>
        <defs>
                <circle id="rim" cx="0" cy="0" r="7"/>
                <circle id="rim2" cx="0" cy="0" r="3.5"/>
                <g id="zoomPlus">
                        <use xlink:href="#rim" fill="#404040">
                                <set attributeName="fill" to="#808080" begin="zoomplus.mouseover" end="zoomplus.mouseout"/>
                        </use>
                        <path d="M-4,0h8M0,-4v8" fill="none" stroke="white" stroke-width="1.5" pointer-events="none"/>
                </g>
                <g id="zoomMin">
                        <use xlink:href="#rim" fill="#404040">
                                <set attributeName="fill" to="#808080" begin="zoomminus.mouseover" end="zoomminus.mouseout"/>
                        </use>
                        <path d="M-4,0h8" fill="none" stroke="white" stroke-width="1.5" pointer-events="none"/>
                </g>
                <g id="dirArrow">
                        <path fill="none" stroke="white" stroke-width="1.5" d="M0,-3.0v7 M-2.5,-0.5L0,-3.0L2.5,-0.5"/>
                </g>
               <g id="resetDef">
                       <use xlink:href="#rim2" fill="#404040">
                               <set attributeName="fill" to="#808080" begin="reset.mouseover" end="reset.mouseout"/>
                       </use>
               </g>
        </defs>

<script type="text/javascript">
var viewWidth = 763;
var viewHeight = 218;
var sectionId = 'dynsection-134';
</script>
<script xlink:href="svgpan.js"/>
<svg id="graph" class="graph">
<g id="viewport">
<title>JS_SetUncatchableError</title>
<!-- Node1 -->
<g id="node1" class="node">
<title>Node1</title>
<g id="a_node1"><a xlink:title=" ">
<polygon fill="#bfbfbf" stroke="black" points="624,-76.5 624,-95.5 755,-95.5 755,-76.5 624,-76.5"/>
<text text-anchor="middle" x="689.5" y="-83.5" font-family="Helvetica,sans-Serif" font-size="10.00">JS_SetUncatchableError</text>
</a>
</g>
</g>
<!-- Node2 -->
<g id="node2" class="node">
<title>Node2</title>
<g id="a_node2"><a xlink:href="quickjs_8c.html#a9d376a5d1dfcd4a3a0c901bb62e2ff96" target="_top" xlink:title=" ">
<polygon fill="none" stroke="black" points="461,-95.5 461,-114.5 572,-114.5 572,-95.5 461,-95.5"/>
<text text-anchor="middle" x="516.5" y="-102.5" font-family="Helvetica,sans-Serif" font-size="10.00">__js_poll_interrupts</text>
</a>
</g>
</g>
<!-- Node1&#45;&gt;Node2 -->
<g id="edge1" class="edge">
<title>Node1&#45;&gt;Node2</title>
<path fill="none" stroke="midnightblue" d="M613.76,-94.3C599.79,-95.86 585.42,-97.45 572.19,-98.92"/>
<polygon fill="midnightblue" stroke="midnightblue" points="614.3,-97.77 623.85,-93.18 613.53,-90.81 614.3,-97.77"/>
</g>
<!-- Node616 -->
<g id="node10" class="node">
<title>Node616</title>
<g id="a_node10"><a xlink:href="quickjs_8c.html#afa964cd85085a7b6a3242d8226b2274a" target="_top" xlink:title=" ">
<polygon fill="none" stroke="black" points="445,-57.5 445,-76.5 588,-76.5 588,-57.5 445,-57.5"/>
<text text-anchor="middle" x="516.5" y="-64.5" font-family="Helvetica,sans-Serif" font-size="10.00">JS_ResetUncatchableError</text>
</a>
</g>
</g>
<!-- Node1&#45;&gt;Node616 -->
<g id="edge12" class="edge">
<title>Node1&#45;&gt;Node616</title>
<path fill="none" stroke="midnightblue" d="M613.65,-77.68C605.21,-76.75 596.63,-75.79 588.24,-74.86"/>
<polygon fill="midnightblue" stroke="midnightblue" points="613.53,-81.19 623.85,-78.82 614.3,-74.23 613.53,-81.19"/>
</g>
<!-- Node3 -->
<g id="node3" class="node">
<title>Node3</title>
<g id="a_node3"><a xlink:href="quickjs_8c.html#a246e337d6566552736209730827c0871" target="_top" xlink:title=" ">
<polygon fill="none" stroke="black" points="308,-95.5 308,-114.5 409,-114.5 409,-95.5 308,-95.5"/>
<text text-anchor="middle" x="358.5" y="-102.5" font-family="Helvetica,sans-Serif" font-size="10.00">js_poll_interrupts</text>
</a>
</g>
</g>
<!-- Node2&#45;&gt;Node3 -->
<g id="edge2" class="edge">
<title>Node2&#45;&gt;Node3</title>
<path fill="none" stroke="midnightblue" d="M450.9,-105C436.92,-105 422.36,-105 409.07,-105"/>
<polygon fill="midnightblue" stroke="midnightblue" points="450.94,-108.5 460.94,-105 450.94,-101.5 450.94,-108.5"/>
</g>
<!-- Node4 -->
<g id="node4" class="node">
<title>Node4</title>
<g id="a_node4"><a xlink:href="quickjs_8c.html#aa40a5354bee3b56e05a71244910bcc78" target="_top" xlink:title=" ">
<polygon fill="none" stroke="red" points="140,-190.5 140,-209.5 255,-209.5 255,-190.5 140,-190.5"/>
<text text-anchor="middle" x="197.5" y="-197.5" font-family="Helvetica,sans-Serif" font-size="10.00">build_for_in_iterator</text>
</a>
</g>
</g>
<!-- Node3&#45;&gt;Node4 -->
<g id="edge3" class="edge">
<title>Node3&#45;&gt;Node4</title>
<path fill="none" stroke="midnightblue" d="M342.74,-122.23C326.94,-139.59 300.31,-165.9 272,-181 264.79,-184.84 256.76,-187.94 248.73,-190.43"/>
<polygon fill="midnightblue" stroke="midnightblue" points="345.56,-124.32 349.58,-114.52 340.33,-119.68 345.56,-124.32"/>
</g>
<!-- Node112 -->
<g id="node5" class="node">
<title>Node112</title>
<g id="a_node5"><a xlink:href="quickjs_8c.html#ad35594576a14c10812efaf958c99af8a" target="_top" xlink:title=" ">
<polygon fill="none" stroke="red" points="126,-152.5 126,-171.5 269,-171.5 269,-152.5 126,-152.5"/>
<text text-anchor="middle" x="197.5" y="-159.5" font-family="Helvetica,sans-Serif" font-size="10.00">JS_CallConstructorInternal</text>
</a>
</g>
</g>
<!-- Node3&#45;&gt;Node112 -->
<g id="edge4" class="edge">
<title>Node3&#45;&gt;Node112</title>
<path fill="none" stroke="midnightblue" d="M324.33,-118.27C308.55,-124.46 289.38,-131.81 272,-138 257.96,-143 242.28,-148.17 229.02,-152.43"/>
<polygon fill="midnightblue" stroke="midnightblue" points="325.65,-121.51 333.67,-114.59 323.08,-115 325.65,-121.51"/>
</g>
<!-- Node6 -->
<g id="node6" class="node">
<title>Node6</title>
<g id="a_node6"><a xlink:href="quickjs_8c.html#ac2894ff4edcdb4e6841bcce9c76081e3" target="_top" xlink:title=" ">
<polygon fill="none" stroke="red" points="0,-152.5 0,-171.5 87,-171.5 87,-152.5 0,-152.5"/>
<text text-anchor="middle" x="43.5" y="-159.5" font-family="Helvetica,sans-Serif" font-size="10.00">JS_CallInternal</text>
</a>
</g>
</g>
<!-- Node3&#45;&gt;Node6 -->
<g id="edge8" class="edge">
<title>Node3&#45;&gt;Node6</title>
<path fill="none" stroke="midnightblue" d="M297.77,-113.38C250.25,-120.37 182.13,-131.07 123,-143 109.39,-145.75 94.57,-149.21 81.51,-152.42"/>
<polygon fill="midnightblue" stroke="midnightblue" points="298.5,-116.82 307.89,-111.91 297.49,-109.89 298.5,-116.82"/>
</g>
<!-- Node311 -->
<g id="node7" class="node">
<title>Node311</title>
<g id="a_node7"><a xlink:href="quickjs_8c.html#a26abea9136a3d8e9a861aefb51626b4e" target="_top" xlink:title=" ">
<polygon fill="none" stroke="black" points="123,-76.5 123,-95.5 272,-95.5 272,-76.5 123,-76.5"/>
<text text-anchor="middle" x="197.5" y="-83.5" font-family="Helvetica,sans-Serif" font-size="10.00">js_object___lookupGetter__</text>
</a>
</g>
</g>
<!-- Node3&#45;&gt;Node311 -->
<g id="edge9" class="edge">
<title>Node3&#45;&gt;Node311</title>
<path fill="none" stroke="midnightblue" d="M297.63,-97.85C289.28,-96.85 280.63,-95.81 272.07,-94.79"/>
<polygon fill="midnightblue" stroke="midnightblue" points="297.28,-101.33 307.63,-99.04 298.11,-94.38 297.28,-101.33"/>
</g>
<!-- Node315 -->
<g id="node8" class="node">
<title>Node315</title>
<g id="a_node8"><a xlink:href="quickjs_8c.html#a04be55d1144f71bce472514bd31f0796" target="_top" xlink:title=" ">
<polygon fill="none" stroke="black" points="131.5,-38.5 131.5,-57.5 263.5,-57.5 263.5,-38.5 131.5,-38.5"/>
<text text-anchor="middle" x="197.5" y="-45.5" font-family="Helvetica,sans-Serif" font-size="10.00">js_object_isPrototypeOf</text>
</a>
</g>
</g>
<!-- Node3&#45;&gt;Node315 -->
<g id="edge10" class="edge">
<title>Node3&#45;&gt;Node315</title>
<path fill="none" stroke="midnightblue" d="M321.15,-91.62C316.69,-89.81 312.22,-87.91 308,-86 291.53,-78.52 288.87,-73.53 272,-67 262.54,-63.34 252.12,-60.16 242.17,-57.5"/>
<polygon fill="midnightblue" stroke="midnightblue" points="320.21,-95.01 330.8,-95.42 322.78,-88.5 320.21,-95.01"/>
</g>
<!-- Node409 -->
<g id="node9" class="node">
<title>Node409</title>
<g id="a_node9"><a xlink:href="quickjs_8c.html#aa0b5c1a59ff4832154e2a98d7c63a4b2" target="_top" xlink:title=" ">
<polygon fill="none" stroke="red" points="130.5,-0.5 130.5,-19.5 264.5,-19.5 264.5,-0.5 130.5,-0.5"/>
<text text-anchor="middle" x="197.5" y="-7.5" font-family="Helvetica,sans-Serif" font-size="10.00">JS_OrdinaryIsInstanceOf</text>
</a>
</g>
</g>
<!-- Node3&#45;&gt;Node409 -->
<g id="edge11" class="edge">
<title>Node3&#45;&gt;Node409</title>
<path fill="none" stroke="midnightblue" d="M314.49,-90.59C312.21,-89.19 310.02,-87.66 308,-86 284.83,-67 296.21,-46.66 272,-29 266.68,-25.12 260.63,-22.03 254.34,-19.56"/>
<polygon fill="midnightblue" stroke="midnightblue" points="313.19,-93.86 323.68,-95.39 316.44,-87.65 313.19,-93.86"/>
</g>
<!-- Node112&#45;&gt;Node6 -->
<g id="edge5" class="edge">
<title>Node112&#45;&gt;Node6</title>
<path fill="none" stroke="midnightblue" d="M115.63,-155.26C105.85,-155.31 96.17,-155.51 87.25,-155.86"/>
<polygon fill="midnightblue" stroke="midnightblue" points="115.84,-158.76 125.84,-155.26 115.84,-151.76 115.84,-158.76"/>
</g>
<!-- Node6&#45;&gt;Node112 -->
<g id="edge6" class="edge">
<title>Node6&#45;&gt;Node112</title>
<path fill="none" stroke="midnightblue" d="M97.38,-168.46C106.57,-168.7 116.26,-168.79 125.84,-168.74"/>
<polygon fill="midnightblue" stroke="midnightblue" points="97.36,-164.96 87.25,-168.14 97.13,-171.96 97.36,-164.96"/>
</g>
<!-- Node6&#45;&gt;Node6 -->
<g id="edge7" class="edge">
<title>Node6&#45;&gt;Node6</title>
<path fill="none" stroke="midnightblue" d="M72.25,-180.65C71.04,-185.94 61.46,-190 43.5,-190 16.13,-190 8.22,-180.57 19.76,-171.76"/>
<polygon fill="midnightblue" stroke="midnightblue" points="75.19,-178.75 67.24,-171.76 69.09,-182.19 75.19,-178.75"/>
</g>
<!-- Node368 -->
<g id="node11" class="node">
<title>Node368</title>
<g id="a_node11"><a xlink:href="quickjs-libc_8c.html#a55f6cd4bbd0e676992642d066fd1d9fd" target="_top" xlink:title=" ">
<polygon fill="none" stroke="black" points="319,-57.5 319,-76.5 398,-76.5 398,-57.5 319,-57.5"/>
<text text-anchor="middle" x="358.5" y="-64.5" font-family="Helvetica,sans-Serif" font-size="10.00">js_evalScript</text>
</a>
</g>
</g>
<!-- Node616&#45;&gt;Node368 -->
<g id="edge13" class="edge">
<title>Node616&#45;&gt;Node368</title>
<path fill="none" stroke="midnightblue" d="M434.67,-67C422.04,-67 409.5,-67 398.39,-67"/>
<polygon fill="midnightblue" stroke="midnightblue" points="434.8,-70.5 444.8,-67 434.8,-63.5 434.8,-70.5"/>
</g>
</g>
</svg>
        <g id="navigator" transform="translate(0 0)" fill="#404254">
                <rect fill="#f2f5e9" fill-opacity="0.5" stroke="#606060" stroke-width=".5" x="0" y="0" width="60" height="60"/>
                <use id="zoomplus" xlink:href="#zoomPlus" x="17" y="9" onmousedown="handleZoom(evt,'in')"/>
                <use id="zoomminus" xlink:href="#zoomMin" x="42" y="9" onmousedown="handleZoom(evt,'out')"/>
                <use id="reset" xlink:href="#resetDef" x="30" y="36" onmousedown="handleReset()"/>
                <g id="arrowUp" xlink:href="#dirArrow" transform="translate(30 24)" onmousedown="handlePan(0,-1)">
                  <use xlink:href="#rim" fill="#404040">
                        <set attributeName="fill" to="#808080" begin="arrowUp.mouseover" end="arrowUp.mouseout"/>
                  </use>
                  <path fill="none" stroke="white" stroke-width="1.5" d="M0,-3.0v7 M-2.5,-0.5L0,-3.0L2.5,-0.5"/>
                </g>
                <g id="arrowRight" xlink:href="#dirArrow" transform="rotate(90) translate(36 -43)" onmousedown="handlePan(1,0)">
                  <use xlink:href="#rim" fill="#404040">
                        <set attributeName="fill" to="#808080" begin="arrowRight.mouseover" end="arrowRight.mouseout"/>
                  </use>
                  <path fill="none" stroke="white" stroke-width="1.5" d="M0,-3.0v7 M-2.5,-0.5L0,-3.0L2.5,-0.5"/>
                </g>
                <g id="arrowDown" xlink:href="#dirArrow" transform="rotate(180) translate(-30 -48)" onmousedown="handlePan(0,1)">
                  <use xlink:href="#rim" fill="#404040">
                        <set attributeName="fill" to="#808080" begin="arrowDown.mouseover" end="arrowDown.mouseout"/>
                  </use>
                  <path fill="none" stroke="white" stroke-width="1.5" d="M0,-3.0v7 M-2.5,-0.5L0,-3.0L2.5,-0.5"/>
                </g>
                <g id="arrowLeft" xlink:href="#dirArrow" transform="rotate(270) translate(-36 17)" onmousedown="handlePan(-1,0)">
                  <use xlink:href="#rim" fill="#404040">
                        <set attributeName="fill" to="#808080" begin="arrowLeft.mouseover" end="arrowLeft.mouseout"/>
                  </use>
                  <path fill="none" stroke="white" stroke-width="1.5" d="M0,-3.0v7 M-2.5,-0.5L0,-3.0L2.5,-0.5"/>
                </g>
        </g>
        <svg viewBox="0 0 15 15" width="100%" height="30px" preserveAspectRatio="xMaxYMin meet">
         <g id="arrow_out" transform="scale(0.3 0.3)">
          <a xlink:href="quickjs_8c_a43f6c409b913e06895215979576547aa_icgraph_org.svg" target="_base">
           <rect id="button" ry="5" rx="5" y="6" x="6" height="38" width="38"
                fill="#f2f5e9" fill-opacity="0.5" stroke="#606060" stroke-width="1.0"/>
           <path id="arrow"
             d="M 11.500037,31.436501 C 11.940474,20.09759 22.043105,11.32322 32.158766,21.979434 L 37.068811,17.246167 C 37.068811,17.246167 37.088388,32 37.088388,32 L 22.160133,31.978069 C 22.160133,31.978069 26.997745,27.140456 26.997745,27.140456 C 18.528582,18.264221 13.291696,25.230495 11.500037,31.436501 z"
             style="fill:#404040;"/>
          </a>
         </g>
        </svg>
</svg>
