<?xml version="1.0" encoding="UTF-8" standalone="no"?>
<!DOCTYPE svg PUBLIC "-//W3C//DTD SVG 1.1//EN"
 "http://www.w3.org/Graphics/SVG/1.1/DTD/svg11.dtd">
<!-- Generated by graphviz version 2.43.0 (0)
 -->
<!-- Title: string_get_digits Pages: 1 -->
<svg width="695pt" height="47pt"
 viewBox="0.00 0.00 695.00 47.00" xmlns="http://www.w3.org/2000/svg" xmlns:xlink="http://www.w3.org/1999/xlink">
<g id="graph0" class="graph" transform="scale(1 1) rotate(0) translate(4 43)">
<title>string_get_digits</title>
<!-- Node1 -->
<g id="node1" class="node">
<title>Node1</title>
<g id="a_node1"><a xlink:title=" ">
<polygon fill="#bfbfbf" stroke="black" points="589,-19.5 589,-38.5 687,-38.5 687,-19.5 589,-19.5"/>
<text text-anchor="middle" x="638" y="-26.5" font-family="Helvetica,sans-Serif" font-size="10.00">string_get_digits</text>
</a>
</g>
</g>
<!-- Node2 -->
<g id="node2" class="node">
<title>Node2</title>
<g id="a_node2"><a xlink:href="quickjs_8c.html#ac2ddbbd09d32a6d9a4b7530d7f68c6f0" target="_top" xlink:title=" ">
<polygon fill="none" stroke="black" points="296,-19.5 296,-38.5 382,-38.5 382,-19.5 296,-19.5"/>
<text text-anchor="middle" x="339" y="-26.5" font-family="Helvetica,sans-Serif" font-size="10.00">js_Date_parse</text>
</a>
</g>
</g>
<!-- Node1&#45;&gt;Node2 -->
<g id="edge1" class="edge">
<title>Node1&#45;&gt;Node2</title>
<path fill="none" stroke="midnightblue" d="M578.87,-29C521.04,-29 433.71,-29 382.21,-29"/>
<polygon fill="midnightblue" stroke="midnightblue" points="578.95,-32.5 588.95,-29 578.95,-25.5 578.95,-32.5"/>
</g>
<!-- Node9 -->
<g id="node5" class="node">
<title>Node9</title>
<g id="a_node5"><a xlink:href="quickjs_8c.html#a2f179461e54402c919fc78c4e76b0a21" target="_top" xlink:title=" ">
<polygon fill="none" stroke="black" points="418,-0.5 418,-19.5 553,-19.5 553,-0.5 418,-0.5"/>
<text text-anchor="middle" x="485.5" y="-7.5" font-family="Helvetica,sans-Serif" font-size="10.00">string_get_signed_digits</text>
</a>
</g>
</g>
<!-- Node1&#45;&gt;Node9 -->
<g id="edge4" class="edge">
<title>Node1&#45;&gt;Node9</title>
<path fill="none" stroke="midnightblue" d="M578.83,-21.66C570.38,-20.59 561.61,-19.48 553.01,-18.4"/>
<polygon fill="midnightblue" stroke="midnightblue" points="578.61,-25.16 588.97,-22.94 579.48,-18.21 578.61,-25.16"/>
</g>
<!-- Node3 -->
<g id="node3" class="node">
<title>Node3</title>
<g id="a_node3"><a xlink:href="quickjs_8c.html#a7e4e02ec8849f3beaf28dc0613bb4016" target="_top" xlink:title=" ">
<polygon fill="none" stroke="black" points="148,-19.5 148,-38.5 260,-38.5 260,-19.5 148,-19.5"/>
<text text-anchor="middle" x="204" y="-26.5" font-family="Helvetica,sans-Serif" font-size="10.00">js_date_constructor</text>
</a>
</g>
</g>
<!-- Node2&#45;&gt;Node3 -->
<g id="edge2" class="edge">
<title>Node2&#45;&gt;Node3</title>
<path fill="none" stroke="midnightblue" d="M285.92,-29C277.56,-29 268.88,-29 260.44,-29"/>
<polygon fill="midnightblue" stroke="midnightblue" points="285.92,-32.5 295.92,-29 285.92,-25.5 285.92,-32.5"/>
</g>
<!-- Node4 -->
<g id="node4" class="node">
<title>Node4</title>
<g id="a_node4"><a xlink:href="quickjs_8c.html#a8ecbf5799518b7bfc3fefd47c7a0dd4e" target="_top" xlink:title=" ">
<polygon fill="none" stroke="red" points="0,-19.5 0,-38.5 112,-38.5 112,-19.5 0,-19.5"/>
<text text-anchor="middle" x="56" y="-26.5" font-family="Helvetica,sans-Serif" font-size="10.00">JS_AddIntrinsicDate</text>
</a>
</g>
</g>
<!-- Node3&#45;&gt;Node4 -->
<g id="edge3" class="edge">
<title>Node3&#45;&gt;Node4</title>
<path fill="none" stroke="midnightblue" d="M137.59,-29C129.14,-29 120.54,-29 112.27,-29"/>
<polygon fill="midnightblue" stroke="midnightblue" points="137.8,-32.5 147.8,-29 137.8,-25.5 137.8,-32.5"/>
</g>
<!-- Node9&#45;&gt;Node2 -->
<g id="edge5" class="edge">
<title>Node9&#45;&gt;Node2</title>
<path fill="none" stroke="midnightblue" d="M407.78,-20.09C398.96,-21.25 390.23,-22.4 382.12,-23.46"/>
<polygon fill="midnightblue" stroke="midnightblue" points="408.29,-23.55 417.75,-18.78 407.38,-16.61 408.29,-23.55"/>
</g>
</g>
</svg>
