<?xml version="1.0" encoding="UTF-8" standalone="no"?>
<!DOCTYPE svg PUBLIC "-//W3C//DTD SVG 1.1//EN"
 "http://www.w3.org/Graphics/SVG/1.1/DTD/svg11.dtd">
<!-- Generated by graphviz version 2.43.0 (0)
 -->
<!-- Title: js_reflect_construct Pages: 1 -->
<!--zoomable 218 -->
<svg id="main" version="1.1" xmlns="http://www.w3.org/2000/svg" xmlns:xlink="http://www.w3.org/1999/xlink" xml:space="preserve" onload="init(evt)">
<style type="text/css"><![CDATA[
.edge:hover path { stroke: red; }
.edge:hover polygon { stroke: red; fill: red; }
]]></style>
<script type="text/javascript"><![CDATA[
var edges = document.getElementsByTagName('g');
if (edges && edges.length) {
  for (var i=0;i<edges.length;i++) {
    if (edges[i].id.substr(0,4)=='edge') {
      edges[i].setAttribute('class','edge');
    }
  }
}
]]></script>
        <defs>
                <circle id="rim" cx="0" cy="0" r="7"/>
                <circle id="rim2" cx="0" cy="0" r="3.5"/>
                <g id="zoomPlus">
                        <use xlink:href="#rim" fill="#404040">
                                <set attributeName="fill" to="#808080" begin="zoomplus.mouseover" end="zoomplus.mouseout"/>
                        </use>
                        <path d="M-4,0h8M0,-4v8" fill="none" stroke="white" stroke-width="1.5" pointer-events="none"/>
                </g>
                <g id="zoomMin">
                        <use xlink:href="#rim" fill="#404040">
                                <set attributeName="fill" to="#808080" begin="zoomminus.mouseover" end="zoomminus.mouseout"/>
                        </use>
                        <path d="M-4,0h8" fill="none" stroke="white" stroke-width="1.5" pointer-events="none"/>
                </g>
                <g id="dirArrow">
                        <path fill="none" stroke="white" stroke-width="1.5" d="M0,-3.0v7 M-2.5,-0.5L0,-3.0L2.5,-0.5"/>
                </g>
               <g id="resetDef">
                       <use xlink:href="#rim2" fill="#404040">
                               <set attributeName="fill" to="#808080" begin="reset.mouseover" end="reset.mouseout"/>
                       </use>
               </g>
        </defs>

<script type="text/javascript">
var viewWidth = 556;
var viewHeight = 218;
var sectionId = 'dynsection-1666';
</script>
<script xlink:href="svgpan.js"/>
<svg id="graph" class="graph">
<g id="viewport">
<title>js_reflect_construct</title>
<!-- Node1 -->
<g id="node1" class="node">
<title>Node1</title>
<g id="a_node1"><a xlink:title=" ">
<polygon fill="#bfbfbf" stroke="black" points="0,-95.5 0,-114.5 111,-114.5 111,-95.5 0,-95.5"/>
<text text-anchor="middle" x="55.5" y="-102.5" font-family="Helvetica,sans-Serif" font-size="10.00">js_reflect_construct</text>
</a>
</g>
</g>
<!-- Node2 -->
<g id="node2" class="node">
<title>Node2</title>
<g id="a_node2"><a xlink:href="quickjs_8c.html#a4956f45ffd2849b96dc051277264f87a" target="_top" xlink:title=" ">
<polygon fill="none" stroke="black" points="162,-114.5 162,-133.5 244,-133.5 244,-114.5 162,-114.5"/>
<text text-anchor="middle" x="203" y="-121.5" font-family="Helvetica,sans-Serif" font-size="10.00">build_arg_list</text>
</a>
</g>
</g>
<!-- Node1&#45;&gt;Node2 -->
<g id="edge1" class="edge">
<title>Node1&#45;&gt;Node2</title>
<path fill="none" stroke="midnightblue" d="M111.09,-112.13C124.33,-113.86 138.42,-115.7 151.46,-117.4"/>
<polygon fill="midnightblue" stroke="midnightblue" points="151.28,-120.91 161.65,-118.73 152.19,-113.97 151.28,-120.91"/>
</g>
<!-- Node4 -->
<g id="node4" class="node">
<title>Node4</title>
<g id="a_node4"><a xlink:href="quickjs_8c.html#ac864482356b3efc2d0b0a509fcfa4c7c" target="_top" xlink:title=" ">
<polygon fill="none" stroke="black" points="317.5,-190.5 317.5,-209.5 394.5,-209.5 394.5,-190.5 317.5,-190.5"/>
<text text-anchor="middle" x="356" y="-197.5" font-family="Helvetica,sans-Serif" font-size="10.00">free_arg_list</text>
</a>
</g>
</g>
<!-- Node1&#45;&gt;Node4 -->
<g id="edge13" class="edge">
<title>Node1&#45;&gt;Node4</title>
<path fill="none" stroke="midnightblue" d="M77.05,-114.53C95.2,-122.73 122.52,-134.55 147,-143 201.23,-161.73 265.05,-178.45 307.56,-188.87"/>
<polygon fill="midnightblue" stroke="midnightblue" points="306.81,-192.29 317.36,-191.25 308.47,-185.49 306.81,-192.29"/>
</g>
<!-- Node396 -->
<g id="node13" class="node">
<title>Node396</title>
<g id="a_node13"><a xlink:href="quickjs_8c.html#a03d5edf3e8bb18809d6675e5c08bac26" target="_top" xlink:title=" ">
<polygon fill="none" stroke="red" points="147,-76.5 147,-95.5 259,-95.5 259,-76.5 147,-76.5"/>
<text text-anchor="middle" x="203" y="-83.5" font-family="Helvetica,sans-Serif" font-size="10.00">JS_CallConstructor2</text>
</a>
</g>
</g>
<!-- Node1&#45;&gt;Node396 -->
<g id="edge14" class="edge">
<title>Node1&#45;&gt;Node396</title>
<path fill="none" stroke="midnightblue" d="M111.09,-97.87C119.44,-96.78 128.13,-95.65 136.67,-94.53"/>
<polygon fill="midnightblue" stroke="midnightblue" points="137.15,-98 146.62,-93.23 136.25,-91.06 137.15,-98"/>
</g>
<!-- Node413 -->
<g id="node14" class="node">
<title>Node413</title>
<g id="a_node14"><a xlink:href="quickjs_8c.html#afa39b15865cb50fc2383e76e33b2de1a" target="_top" xlink:title=" ">
<polygon fill="none" stroke="black" points="155.5,-38.5 155.5,-57.5 250.5,-57.5 250.5,-38.5 155.5,-38.5"/>
<text text-anchor="middle" x="203" y="-45.5" font-family="Helvetica,sans-Serif" font-size="10.00">JS_IsConstructor</text>
</a>
</g>
</g>
<!-- Node1&#45;&gt;Node413 -->
<g id="edge15" class="edge">
<title>Node1&#45;&gt;Node413</title>
<path fill="none" stroke="midnightblue" d="M78.28,-95.38C96.52,-87.45 123.28,-76.06 147,-67 152.31,-64.97 157.94,-62.92 163.49,-60.95"/>
<polygon fill="midnightblue" stroke="midnightblue" points="165.04,-64.11 173.33,-57.51 162.73,-57.5 165.04,-64.11"/>
</g>
<!-- Node3 -->
<g id="node3" class="node">
<title>Node3</title>
<g id="a_node3"><a xlink:href="quickjs_8c.html#a853f0924d441ea4225488f37c8b69f9a" target="_top" xlink:title=" ">
<polygon fill="none" stroke="black" points="316,-152.5 316,-171.5 396,-171.5 396,-152.5 316,-152.5"/>
<text text-anchor="middle" x="356" y="-159.5" font-family="Helvetica,sans-Serif" font-size="10.00">__attribute__</text>
</a>
</g>
</g>
<!-- Node2&#45;&gt;Node3 -->
<g id="edge2" class="edge">
<title>Node2&#45;&gt;Node3</title>
<path fill="none" stroke="midnightblue" d="M242.1,-133.59C261.94,-138.58 286.38,-144.73 307.45,-150.03"/>
<polygon fill="midnightblue" stroke="midnightblue" points="306.62,-153.43 317.17,-152.48 308.33,-146.65 306.62,-153.43"/>
</g>
<!-- Node2&#45;&gt;Node4 -->
<g id="edge3" class="edge">
<title>Node2&#45;&gt;Node4</title>
<path fill="none" stroke="midnightblue" d="M216.97,-133.61C234.1,-145.95 265.56,-167.39 295,-181 299.71,-183.18 304.75,-185.21 309.81,-187.06"/>
<polygon fill="midnightblue" stroke="midnightblue" points="308.94,-190.46 319.54,-190.4 311.22,-183.84 308.94,-190.46"/>
</g>
<!-- Node43 -->
<g id="node7" class="node">
<title>Node43</title>
<g id="a_node7"><a xlink:href="quickjs_8h.html#a775522f2d084fc8fa0fcb33f390006b4" target="_top" xlink:title=" ">
<polygon fill="none" stroke="black" points="317.5,-114.5 317.5,-133.5 394.5,-133.5 394.5,-114.5 317.5,-114.5"/>
<text text-anchor="middle" x="356" y="-121.5" font-family="Helvetica,sans-Serif" font-size="10.00">JS_DupValue</text>
</a>
</g>
</g>
<!-- Node2&#45;&gt;Node43 -->
<g id="edge6" class="edge">
<title>Node2&#45;&gt;Node43</title>
<path fill="none" stroke="midnightblue" d="M244.07,-124C263.5,-124 286.99,-124 307.33,-124"/>
<polygon fill="midnightblue" stroke="midnightblue" points="307.34,-127.5 317.34,-124 307.34,-120.5 307.34,-127.5"/>
</g>
<!-- Node44 -->
<g id="node8" class="node">
<title>Node44</title>
<g id="a_node8"><a xlink:href="quickjs_8c.html#a718e904644ebc55548a5bdbd44f3adb9" target="_top" xlink:title=" ">
<polygon fill="none" stroke="black" points="309,-76.5 309,-95.5 403,-95.5 403,-76.5 309,-76.5"/>
<text text-anchor="middle" x="356" y="-83.5" font-family="Helvetica,sans-Serif" font-size="10.00">js_get_length32</text>
</a>
</g>
</g>
<!-- Node2&#45;&gt;Node44 -->
<g id="edge7" class="edge">
<title>Node2&#45;&gt;Node44</title>
<path fill="none" stroke="midnightblue" d="M242.1,-114.41C261.94,-109.42 286.38,-103.27 307.45,-97.97"/>
<polygon fill="midnightblue" stroke="midnightblue" points="308.33,-101.35 317.17,-95.52 306.62,-94.57 308.33,-101.35"/>
</g>
<!-- Node54 -->
<g id="node10" class="node">
<title>Node54</title>
<g id="a_node10"><a xlink:href="quickjs_8h.html#ad80a83d73e9b7d872b88fbf2943aebe9" target="_top" xlink:title=" ">
<polygon fill="none" stroke="black" points="457,-38.5 457,-57.5 544,-57.5 544,-38.5 457,-38.5"/>
<text text-anchor="middle" x="500.5" y="-45.5" font-family="Helvetica,sans-Serif" font-size="10.00">JS_IsException</text>
</a>
</g>
</g>
<!-- Node2&#45;&gt;Node54 -->
<g id="edge12" class="edge">
<title>Node2&#45;&gt;Node54</title>
<path fill="none" stroke="midnightblue" d="M239.79,-114.44C246.44,-111.9 253.14,-108.78 259,-105 278.55,-92.4 274.08,-77.17 295,-67 342.55,-43.88 403.62,-41.17 446.6,-42.98"/>
<polygon fill="midnightblue" stroke="midnightblue" points="446.68,-46.49 456.84,-43.51 447.04,-39.5 446.68,-46.49"/>
</g>
<!-- Node264 -->
<g id="node12" class="node">
<title>Node264</title>
<g id="a_node12"><a xlink:href="quickjs_8c.html#aeb97957655d979e9fe56c955da2b2d4b" target="_top" xlink:title=" ">
<polygon fill="none" stroke="red" points="295,-0.5 295,-19.5 417,-19.5 417,-0.5 295,-0.5"/>
<text text-anchor="middle" x="356" y="-7.5" font-family="Helvetica,sans-Serif" font-size="10.00">JS_GetPropertyUint32</text>
</a>
</g>
</g>
<!-- Node2&#45;&gt;Node264 -->
<g id="edge11" class="edge">
<title>Node2&#45;&gt;Node264</title>
<path fill="none" stroke="midnightblue" d="M243.88,-114.39C249.35,-111.93 254.58,-108.85 259,-105 285.67,-81.75 268.9,-57.88 295,-34 299.35,-30.02 304.44,-26.67 309.78,-23.84"/>
<polygon fill="midnightblue" stroke="midnightblue" points="311.34,-26.98 318.93,-19.58 308.39,-20.63 311.34,-26.98"/>
</g>
<!-- Node5 -->
<g id="node5" class="node">
<title>Node5</title>
<g id="a_node5"><a xlink:href="quickjs_8c.html#a80e54dcf9ac687d4ccc2f90273565f30" target="_top" xlink:title=" ">
<polygon fill="none" stroke="red" points="475.5,-190.5 475.5,-209.5 525.5,-209.5 525.5,-190.5 475.5,-190.5"/>
<text text-anchor="middle" x="500.5" y="-197.5" font-family="Helvetica,sans-Serif" font-size="10.00">js_free</text>
</a>
</g>
</g>
<!-- Node4&#45;&gt;Node5 -->
<g id="edge4" class="edge">
<title>Node4&#45;&gt;Node5</title>
<path fill="none" stroke="midnightblue" d="M394.81,-200C416.68,-200 443.98,-200 465.22,-200"/>
<polygon fill="midnightblue" stroke="midnightblue" points="465.41,-203.5 475.41,-200 465.41,-196.5 465.41,-203.5"/>
</g>
<!-- Node7 -->
<g id="node6" class="node">
<title>Node7</title>
<g id="a_node6"><a xlink:href="quickjs_8h.html#afaa20c47565bc704c6c85f3d77254e7d" target="_top" xlink:title=" ">
<polygon fill="none" stroke="red" points="461,-152.5 461,-171.5 540,-171.5 540,-152.5 461,-152.5"/>
<text text-anchor="middle" x="500.5" y="-159.5" font-family="Helvetica,sans-Serif" font-size="10.00">JS_FreeValue</text>
</a>
</g>
</g>
<!-- Node4&#45;&gt;Node7 -->
<g id="edge5" class="edge">
<title>Node4&#45;&gt;Node7</title>
<path fill="none" stroke="midnightblue" d="M392.96,-190.41C411.44,-185.48 434.16,-179.43 453.86,-174.17"/>
<polygon fill="midnightblue" stroke="midnightblue" points="454.79,-177.54 463.55,-171.59 452.99,-170.78 454.79,-177.54"/>
</g>
<!-- Node45 -->
<g id="node9" class="node">
<title>Node45</title>
<g id="a_node9"><a xlink:href="quickjs_8h.html#a89b7c8686c7eee70b86be722ee4730ad" target="_top" xlink:title=" ">
<polygon fill="none" stroke="red" points="456,-114.5 456,-133.5 545,-133.5 545,-114.5 456,-114.5"/>
<text text-anchor="middle" x="500.5" y="-121.5" font-family="Helvetica,sans-Serif" font-size="10.00">JS_GetProperty</text>
</a>
</g>
</g>
<!-- Node44&#45;&gt;Node45 -->
<g id="edge8" class="edge">
<title>Node44&#45;&gt;Node45</title>
<path fill="none" stroke="midnightblue" d="M392.96,-95.59C411.44,-100.52 434.16,-106.57 453.86,-111.83"/>
<polygon fill="midnightblue" stroke="midnightblue" points="452.99,-115.22 463.55,-114.41 454.79,-108.46 452.99,-115.22"/>
</g>
<!-- Node44&#45;&gt;Node54 -->
<g id="edge9" class="edge">
<title>Node44&#45;&gt;Node54</title>
<path fill="none" stroke="midnightblue" d="M392.96,-76.41C411.44,-71.48 434.16,-65.43 453.86,-60.17"/>
<polygon fill="midnightblue" stroke="midnightblue" points="454.79,-63.54 463.55,-57.59 452.99,-56.78 454.79,-63.54"/>
</g>
<!-- Node428 -->
<g id="node11" class="node">
<title>Node428</title>
<g id="a_node11"><a xlink:href="quickjs_8c.html#abb4af1ff2252e70ad0e5a9c25550f548" target="_top" xlink:title=" ">
<polygon fill="none" stroke="red" points="453,-76.5 453,-95.5 548,-95.5 548,-76.5 453,-76.5"/>
<text text-anchor="middle" x="500.5" y="-83.5" font-family="Helvetica,sans-Serif" font-size="10.00">JS_ToUint32Free</text>
</a>
</g>
</g>
<!-- Node44&#45;&gt;Node428 -->
<g id="edge10" class="edge">
<title>Node44&#45;&gt;Node428</title>
<path fill="none" stroke="midnightblue" d="M403.27,-86C415.83,-86 429.59,-86 442.67,-86"/>
<polygon fill="midnightblue" stroke="midnightblue" points="442.98,-89.5 452.98,-86 442.98,-82.5 442.98,-89.5"/>
</g>
</g>
</svg>
        <g id="navigator" transform="translate(0 0)" fill="#404254">
                <rect fill="#f2f5e9" fill-opacity="0.5" stroke="#606060" stroke-width=".5" x="0" y="0" width="60" height="60"/>
                <use id="zoomplus" xlink:href="#zoomPlus" x="17" y="9" onmousedown="handleZoom(evt,'in')"/>
                <use id="zoomminus" xlink:href="#zoomMin" x="42" y="9" onmousedown="handleZoom(evt,'out')"/>
                <use id="reset" xlink:href="#resetDef" x="30" y="36" onmousedown="handleReset()"/>
                <g id="arrowUp" xlink:href="#dirArrow" transform="translate(30 24)" onmousedown="handlePan(0,-1)">
                  <use xlink:href="#rim" fill="#404040">
                        <set attributeName="fill" to="#808080" begin="arrowUp.mouseover" end="arrowUp.mouseout"/>
                  </use>
                  <path fill="none" stroke="white" stroke-width="1.5" d="M0,-3.0v7 M-2.5,-0.5L0,-3.0L2.5,-0.5"/>
                </g>
                <g id="arrowRight" xlink:href="#dirArrow" transform="rotate(90) translate(36 -43)" onmousedown="handlePan(1,0)">
                  <use xlink:href="#rim" fill="#404040">
                        <set attributeName="fill" to="#808080" begin="arrowRight.mouseover" end="arrowRight.mouseout"/>
                  </use>
                  <path fill="none" stroke="white" stroke-width="1.5" d="M0,-3.0v7 M-2.5,-0.5L0,-3.0L2.5,-0.5"/>
                </g>
                <g id="arrowDown" xlink:href="#dirArrow" transform="rotate(180) translate(-30 -48)" onmousedown="handlePan(0,1)">
                  <use xlink:href="#rim" fill="#404040">
                        <set attributeName="fill" to="#808080" begin="arrowDown.mouseover" end="arrowDown.mouseout"/>
                  </use>
                  <path fill="none" stroke="white" stroke-width="1.5" d="M0,-3.0v7 M-2.5,-0.5L0,-3.0L2.5,-0.5"/>
                </g>
                <g id="arrowLeft" xlink:href="#dirArrow" transform="rotate(270) translate(-36 17)" onmousedown="handlePan(-1,0)">
                  <use xlink:href="#rim" fill="#404040">
                        <set attributeName="fill" to="#808080" begin="arrowLeft.mouseover" end="arrowLeft.mouseout"/>
                  </use>
                  <path fill="none" stroke="white" stroke-width="1.5" d="M0,-3.0v7 M-2.5,-0.5L0,-3.0L2.5,-0.5"/>
                </g>
        </g>
        <svg viewBox="0 0 15 15" width="100%" height="30px" preserveAspectRatio="xMaxYMin meet">
         <g id="arrow_out" transform="scale(0.3 0.3)">
          <a xlink:href="quickjs_8c_a392bb9e4d465d6a061eb3f6c830e0efa_cgraph_org.svg" target="_base">
           <rect id="button" ry="5" rx="5" y="6" x="6" height="38" width="38"
                fill="#f2f5e9" fill-opacity="0.5" stroke="#606060" stroke-width="1.0"/>
           <path id="arrow"
             d="M 11.500037,31.436501 C 11.940474,20.09759 22.043105,11.32322 32.158766,21.979434 L 37.068811,17.246167 C 37.068811,17.246167 37.088388,32 37.088388,32 L 22.160133,31.978069 C 22.160133,31.978069 26.997745,27.140456 26.997745,27.140456 C 18.528582,18.264221 13.291696,25.230495 11.500037,31.436501 z"
             style="fill:#404040;"/>
          </a>
         </g>
        </svg>
</svg>
