<?xml version="1.0" encoding="UTF-8" standalone="no"?>
<!DOCTYPE svg PUBLIC "-//W3C//DTD SVG 1.1//EN"
 "http://www.w3.org/Graphics/SVG/1.1/DTD/svg11.dtd">
<!-- Generated by graphviz version 2.43.0 (0)
 -->
<!-- Title: js_proxy_setPrototypeOf Pages: 1 -->
<svg width="919pt" height="1089pt"
 viewBox="0.00 0.00 919.00 1089.30" xmlns="http://www.w3.org/2000/svg" xmlns:xlink="http://www.w3.org/1999/xlink">
<g id="graph0" class="graph" transform="scale(1 1) rotate(0) translate(4 1085.3)">
<title>js_proxy_setPrototypeOf</title>
<!-- Node1 -->
<g id="node1" class="node">
<title>Node1</title>
<g id="a_node1"><a xlink:title=" ">
<polygon fill="#bfbfbf" stroke="black" points="0,-199.5 0,-218.5 137,-218.5 137,-199.5 0,-199.5"/>
<text text-anchor="middle" x="68.5" y="-206.5" font-family="Helvetica,sans-Serif" font-size="10.00">js_proxy_setPrototypeOf</text>
</a>
</g>
</g>
<!-- Node2 -->
<g id="node2" class="node">
<title>Node2</title>
<g id="a_node2"><a xlink:href="quickjs_8c.html#a9e94551ddba8762d74eda5127445dbbd" target="_top" xlink:title=" ">
<polygon fill="none" stroke="black" points="299,-931.5 299,-950.5 407,-950.5 407,-931.5 299,-931.5"/>
<text text-anchor="middle" x="353" y="-938.5" font-family="Helvetica,sans-Serif" font-size="10.00">get_proxy_method</text>
</a>
</g>
</g>
<!-- Node1&#45;&gt;Node2 -->
<g id="edge1" class="edge">
<title>Node1&#45;&gt;Node2</title>
<path fill="none" stroke="midnightblue" d="M73.18,-218.52C102.88,-295.48 303.61,-815.61 344.67,-922.01"/>
<polygon fill="midnightblue" stroke="midnightblue" points="341.46,-923.4 348.32,-931.47 347.99,-920.88 341.46,-923.4"/>
</g>
<!-- Node5 -->
<g id="node5" class="node">
<title>Node5</title>
<g id="a_node5"><a xlink:href="quickjs_8h.html#ad80a83d73e9b7d872b88fbf2943aebe9" target="_top" xlink:title=" ">
<polygon fill="none" stroke="black" points="668.5,-988.5 668.5,-1007.5 755.5,-1007.5 755.5,-988.5 668.5,-988.5"/>
<text text-anchor="middle" x="712" y="-995.5" font-family="Helvetica,sans-Serif" font-size="10.00">JS_IsException</text>
</a>
</g>
</g>
<!-- Node1&#45;&gt;Node5 -->
<g id="edge51" class="edge">
<title>Node1&#45;&gt;Node5</title>
<path fill="none" stroke="midnightblue" d="M70.05,-218.57C74.42,-286.73 108.42,-703.31 299,-960 381.64,-1071.31 458.12,-1103.01 592,-1067 630.28,-1056.71 668.94,-1030.76 691.4,-1013.78"/>
<polygon fill="midnightblue" stroke="midnightblue" points="693.68,-1016.44 699.45,-1007.55 689.4,-1010.9 693.68,-1016.44"/>
</g>
<!-- Node10 -->
<g id="node10" class="node">
<title>Node10</title>
<g id="a_node10"><a xlink:href="quickjs_8c.html#a75f6ee5e4235a7dc99889f3d2eb2c147" target="_top" xlink:title=" ">
<polygon fill="none" stroke="black" points="182.5,-404.5 182.5,-423.5 253.5,-423.5 253.5,-404.5 182.5,-404.5"/>
<text text-anchor="middle" x="218" y="-411.5" font-family="Helvetica,sans-Serif" font-size="10.00">JS_CallFree</text>
</a>
</g>
</g>
<!-- Node1&#45;&gt;Node10 -->
<g id="edge9" class="edge">
<title>Node1&#45;&gt;Node10</title>
<path fill="none" stroke="midnightblue" d="M76.42,-218.61C99.45,-250.62 173.78,-353.93 204.02,-395.96"/>
<polygon fill="midnightblue" stroke="midnightblue" points="201.25,-398.1 209.93,-404.17 206.93,-394.01 201.25,-398.1"/>
</g>
<!-- Node64 -->
<g id="node17" class="node">
<title>Node64</title>
<g id="a_node17"><a xlink:href="quickjs_8h.html#afaa20c47565bc704c6c85f3d77254e7d" target="_top" xlink:title=" ">
<polygon fill="none" stroke="red" points="832,-171.5 832,-190.5 911,-190.5 911,-171.5 832,-171.5"/>
<text text-anchor="middle" x="871.5" y="-178.5" font-family="Helvetica,sans-Serif" font-size="10.00">JS_FreeValue</text>
</a>
</g>
</g>
<!-- Node1&#45;&gt;Node64 -->
<g id="edge49" class="edge">
<title>Node1&#45;&gt;Node64</title>
<path fill="none" stroke="midnightblue" d="M78.19,-199.41C110.61,-164.75 228.94,-48 352,-48 352,-48 352,-48 518.5,-48 558.59,-48 687.22,-65.96 796,-121 818.05,-132.16 839.64,-150.61 853.85,-164.12"/>
<polygon fill="midnightblue" stroke="midnightblue" points="851.71,-166.92 861.31,-171.4 856.6,-161.91 851.71,-166.92"/>
</g>
<!-- Node395 -->
<g id="node25" class="node">
<title>Node395</title>
<g id="a_node25"><a xlink:href="quickjs_8c.html#ad56da91bca3e6259b73d5148126b5099" target="_top" xlink:title=" ">
<polygon fill="none" stroke="red" points="470,-304.5 470,-323.5 565,-323.5 565,-304.5 470,-304.5"/>
<text text-anchor="middle" x="517.5" y="-311.5" font-family="Helvetica,sans-Serif" font-size="10.00">JS_GetPrototype</text>
</a>
</g>
</g>
<!-- Node1&#45;&gt;Node395 -->
<g id="edge50" class="edge">
<title>Node1&#45;&gt;Node395</title>
<path fill="none" stroke="midnightblue" d="M109.96,-218.5C191.7,-237.7 376.34,-281.08 465.89,-302.11"/>
<polygon fill="midnightblue" stroke="midnightblue" points="465.28,-305.56 475.81,-304.44 466.88,-298.75 465.28,-305.56"/>
</g>
<!-- Node131 -->
<g id="node26" class="node">
<title>Node131</title>
<g id="a_node26"><a xlink:href="quickjs_8h.html#a4e407128a9605afb77523e49e9a627fd" target="_top" xlink:title=" ">
<polygon fill="none" stroke="black" points="473,-76.5 473,-95.5 562,-95.5 562,-76.5 473,-76.5"/>
<text text-anchor="middle" x="517.5" y="-83.5" font-family="Helvetica,sans-Serif" font-size="10.00">JS_IsUndefined</text>
</a>
</g>
</g>
<!-- Node1&#45;&gt;Node131 -->
<g id="edge53" class="edge">
<title>Node1&#45;&gt;Node131</title>
<path fill="none" stroke="midnightblue" d="M83.2,-199.4C102.38,-186.42 138.74,-163.46 173,-151 271.6,-115.13 393.68,-98.06 462.56,-90.76"/>
<polygon fill="midnightblue" stroke="midnightblue" points="463.15,-94.22 472.74,-89.71 462.43,-87.26 463.15,-94.22"/>
</g>
<!-- Node430 -->
<g id="node27" class="node">
<title>Node430</title>
<g id="a_node27"><a xlink:href="quickjs_8c.html#a11b9662411b5b3f631925a0ca708ce25" target="_top" xlink:title=" ">
<polygon fill="none" stroke="red" points="452,-190.5 452,-209.5 583,-209.5 583,-190.5 452,-190.5"/>
<text text-anchor="middle" x="517.5" y="-197.5" font-family="Helvetica,sans-Serif" font-size="10.00">JS_SetPrototypeInternal</text>
</a>
</g>
</g>
<!-- Node1&#45;&gt;Node430 -->
<g id="edge54" class="edge">
<title>Node1&#45;&gt;Node430</title>
<path fill="none" stroke="midnightblue" d="M137.39,-202.62C219.41,-198.71 356.95,-195.88 441.88,-196.32"/>
<polygon fill="midnightblue" stroke="midnightblue" points="441.95,-199.82 451.97,-196.38 441.99,-192.82 441.95,-199.82"/>
</g>
<!-- Node223 -->
<g id="node29" class="node">
<title>Node223</title>
<g id="a_node29"><a xlink:href="quickjs_8c.html#a2bf30c9cddfe98a32535843202495069" target="_top" xlink:title=" ">
<polygon fill="none" stroke="black" points="475.5,-114.5 475.5,-133.5 559.5,-133.5 559.5,-114.5 475.5,-114.5"/>
<text text-anchor="middle" x="517.5" y="-121.5" font-family="Helvetica,sans-Serif" font-size="10.00">JS_ToBoolFree</text>
</a>
</g>
</g>
<!-- Node1&#45;&gt;Node223 -->
<g id="edge55" class="edge">
<title>Node1&#45;&gt;Node223</title>
<path fill="none" stroke="midnightblue" d="M99.61,-199.45C143.16,-185.98 226.46,-161.56 299,-148 355.35,-137.46 420.84,-131.01 465.12,-127.49"/>
<polygon fill="midnightblue" stroke="midnightblue" points="465.64,-130.96 475.34,-126.69 465.1,-123.98 465.64,-130.96"/>
</g>
<!-- Node221 -->
<g id="node30" class="node">
<title>Node221</title>
<g id="a_node30"><a xlink:href="quickjs_8c.html#a17c92ef7fbad6a6029f6aa933d669624" target="_top" xlink:title=" ">
<polygon fill="none" stroke="red" points="173,-0.5 173,-19.5 263,-19.5 263,-0.5 173,-0.5"/>
<text text-anchor="middle" x="218" y="-7.5" font-family="Helvetica,sans-Serif" font-size="10.00">JS_IsExtensible</text>
</a>
</g>
</g>
<!-- Node1&#45;&gt;Node221 -->
<g id="edge52" class="edge">
<title>Node1&#45;&gt;Node221</title>
<path fill="none" stroke="midnightblue" d="M73,-199.48C83.86,-171.07 119.43,-85.74 173,-34 176.57,-30.55 180.73,-27.45 185.04,-24.71"/>
<polygon fill="midnightblue" stroke="midnightblue" points="187.02,-27.61 193.96,-19.61 183.55,-21.54 187.02,-27.61"/>
</g>
<!-- Node3 -->
<g id="node3" class="node">
<title>Node3</title>
<g id="a_node3"><a xlink:href="quickjs_8c.html#af23ec7c9970ceb4671c59da7abd4b078" target="_top" xlink:title=" ">
<polygon fill="none" stroke="black" points="449,-950.5 449,-969.5 586,-969.5 586,-950.5 449,-950.5"/>
<text text-anchor="middle" x="517.5" y="-957.5" font-family="Helvetica,sans-Serif" font-size="10.00">js_check_stack_overflow</text>
</a>
</g>
</g>
<!-- Node2&#45;&gt;Node3 -->
<g id="edge2" class="edge">
<title>Node2&#45;&gt;Node3</title>
<path fill="none" stroke="midnightblue" d="M407.21,-947.22C417.31,-948.4 428.07,-949.66 438.75,-950.91"/>
<polygon fill="midnightblue" stroke="midnightblue" points="438.6,-954.42 448.94,-952.1 439.41,-947.46 438.6,-954.42"/>
</g>
<!-- Node2&#45;&gt;Node5 -->
<g id="edge4" class="edge">
<title>Node2&#45;&gt;Node5</title>
<path fill="none" stroke="midnightblue" d="M371.47,-950.53C388.99,-959.59 417.03,-972.72 443,-979 516.05,-996.66 603.3,-999.61 657.95,-999.38"/>
<polygon fill="midnightblue" stroke="midnightblue" points="658.12,-1002.88 668.09,-999.3 658.07,-995.88 658.12,-1002.88"/>
</g>
<!-- Node6 -->
<g id="node6" class="node">
<title>Node6</title>
<g id="a_node6"><a xlink:href="quickjs_8h.html#a149f24b67e745bad93573b3b4c80db4c" target="_top" xlink:title=" ">
<polygon fill="none" stroke="black" points="488,-912.5 488,-931.5 547,-931.5 547,-912.5 488,-912.5"/>
<text text-anchor="middle" x="517.5" y="-919.5" font-family="Helvetica,sans-Serif" font-size="10.00">JS_IsNull</text>
</a>
</g>
</g>
<!-- Node2&#45;&gt;Node6 -->
<g id="edge5" class="edge">
<title>Node2&#45;&gt;Node6</title>
<path fill="none" stroke="midnightblue" d="M407.21,-934.78C430.17,-932.09 456.54,-929.01 477.62,-926.55"/>
<polygon fill="midnightblue" stroke="midnightblue" points="478.29,-929.99 487.82,-925.35 477.48,-923.04 478.29,-929.99"/>
</g>
<!-- Node7 -->
<g id="node7" class="node">
<title>Node7</title>
<g id="a_node7"><a xlink:href="quickjs_8c.html#a8353f635fb8a20553c08db8cf38c17e0" target="_top" xlink:title=" ">
<polygon fill="none" stroke="black" points="452,-836.5 452,-855.5 583,-855.5 583,-836.5 452,-836.5"/>
<text text-anchor="middle" x="517.5" y="-843.5" font-family="Helvetica,sans-Serif" font-size="10.00">JS_ThrowStackOverflow</text>
</a>
</g>
</g>
<!-- Node2&#45;&gt;Node7 -->
<g id="edge6" class="edge">
<title>Node2&#45;&gt;Node7</title>
<path fill="none" stroke="midnightblue" d="M370.48,-931.37C398.94,-914.72 457.52,-880.48 491.19,-860.8"/>
<polygon fill="midnightblue" stroke="midnightblue" points="493.11,-863.73 499.98,-855.66 489.58,-857.68 493.11,-863.73"/>
</g>
<!-- Node9 -->
<g id="node9" class="node">
<title>Node9</title>
<g id="a_node9"><a xlink:href="quickjs_8c.html#a199d64ccbee0a90d93e1ad12745417f6" target="_top" xlink:title=" ">
<polygon fill="none" stroke="black" points="443,-1027 443,-1057 592,-1057 592,-1027 443,-1027"/>
<text text-anchor="start" x="451" y="-1045" font-family="Helvetica,sans-Serif" font-size="10.00">JS_ThrowTypeErrorRevoked</text>
<text text-anchor="middle" x="517.5" y="-1034" font-family="Helvetica,sans-Serif" font-size="10.00">Proxy</text>
</a>
</g>
</g>
<!-- Node2&#45;&gt;Node9 -->
<g id="edge8" class="edge">
<title>Node2&#45;&gt;Node9</title>
<path fill="none" stroke="midnightblue" d="M363.97,-950.56C379.73,-965.28 411.8,-993.7 443,-1012 449.69,-1015.92 456.98,-1019.57 464.3,-1022.87"/>
<polygon fill="midnightblue" stroke="midnightblue" points="462.97,-1026.11 473.53,-1026.87 465.75,-1019.68 462.97,-1026.11"/>
</g>
<!-- Node4 -->
<g id="node4" class="node">
<title>Node4</title>
<g id="a_node4"><a xlink:href="quickjs_8c.html#a36b8de436f88239e2e5515a3a423c6d9" target="_top" xlink:title=" ">
<polygon fill="none" stroke="black" points="653.5,-950.5 653.5,-969.5 770.5,-969.5 770.5,-950.5 653.5,-950.5"/>
<text text-anchor="middle" x="712" y="-957.5" font-family="Helvetica,sans-Serif" font-size="10.00">js_get_stack_pointer</text>
</a>
</g>
</g>
<!-- Node3&#45;&gt;Node4 -->
<g id="edge3" class="edge">
<title>Node3&#45;&gt;Node4</title>
<path fill="none" stroke="midnightblue" d="M586.1,-960C604.65,-960 624.77,-960 643.33,-960"/>
<polygon fill="midnightblue" stroke="midnightblue" points="643.46,-963.5 653.46,-960 643.46,-956.5 643.46,-963.5"/>
</g>
<!-- Node8 -->
<g id="node8" class="node">
<title>Node8</title>
<g id="a_node8"><a xlink:href="quickjs_8c.html#a853f0924d441ea4225488f37c8b69f9a" target="_top" xlink:title=" ">
<polygon fill="none" stroke="black" points="672,-646.5 672,-665.5 752,-665.5 752,-646.5 672,-646.5"/>
<text text-anchor="middle" x="712" y="-653.5" font-family="Helvetica,sans-Serif" font-size="10.00">__attribute__</text>
</a>
</g>
</g>
<!-- Node7&#45;&gt;Node8 -->
<g id="edge7" class="edge">
<title>Node7&#45;&gt;Node8</title>
<path fill="none" stroke="midnightblue" d="M573.42,-836.49C580,-834.02 586.37,-830.91 592,-827 649.29,-787.14 687.82,-710.22 703.33,-674.75"/>
<polygon fill="midnightblue" stroke="midnightblue" points="706.55,-676.11 707.24,-665.54 700.11,-673.37 706.55,-676.11"/>
</g>
<!-- Node11 -->
<g id="node11" class="node">
<title>Node11</title>
<g id="a_node11"><a xlink:href="quickjs_8c.html#ac2894ff4edcdb4e6841bcce9c76081e3" target="_top" xlink:title=" ">
<polygon fill="none" stroke="red" points="309.5,-494.5 309.5,-513.5 396.5,-513.5 396.5,-494.5 309.5,-494.5"/>
<text text-anchor="middle" x="353" y="-501.5" font-family="Helvetica,sans-Serif" font-size="10.00">JS_CallInternal</text>
</a>
</g>
</g>
<!-- Node10&#45;&gt;Node11 -->
<g id="edge10" class="edge">
<title>Node10&#45;&gt;Node11</title>
<path fill="none" stroke="midnightblue" d="M240.66,-423.52C267.15,-439.14 311.39,-469.25 335.36,-488.09"/>
<polygon fill="midnightblue" stroke="midnightblue" points="333.23,-490.87 343.2,-494.47 337.65,-485.44 333.23,-490.87"/>
</g>
<!-- Node10&#45;&gt;Node64 -->
<g id="edge48" class="edge">
<title>Node10&#45;&gt;Node64</title>
<path fill="none" stroke="midnightblue" d="M224.3,-404.34C245.63,-366.68 329.42,-229.36 443,-181 509.79,-152.56 724.13,-167.58 821.52,-176.25"/>
<polygon fill="midnightblue" stroke="midnightblue" points="821.42,-179.76 831.69,-177.17 822.05,-172.79 821.42,-179.76"/>
</g>
<!-- Node11&#45;&gt;Node3 -->
<g id="edge31" class="edge">
<title>Node11&#45;&gt;Node3</title>
<path fill="none" stroke="midnightblue" d="M354.62,-513.83C358.51,-572.52 381.43,-876.14 443,-941 444.25,-942.31 445.57,-943.54 446.97,-944.69"/>
<polygon fill="midnightblue" stroke="midnightblue" points="445.31,-947.79 455.57,-950.41 449.18,-941.96 445.31,-947.79"/>
</g>
<!-- Node11&#45;&gt;Node5 -->
<g id="edge36" class="edge">
<title>Node11&#45;&gt;Node5</title>
<path fill="none" stroke="midnightblue" d="M355.06,-513.79C360.94,-566.14 391.06,-812.64 443,-865 491.13,-913.52 539.25,-859.55 592,-903 620.85,-926.76 598.86,-955.59 628,-979 636.65,-985.95 647.36,-990.45 658.17,-993.35"/>
<polygon fill="midnightblue" stroke="midnightblue" points="657.56,-996.8 668.08,-995.59 659.1,-989.97 657.56,-996.8"/>
</g>
<!-- Node11&#45;&gt;Node6 -->
<g id="edge37" class="edge">
<title>Node11&#45;&gt;Node6</title>
<path fill="none" stroke="midnightblue" d="M354.89,-513.52C360.13,-567.86 388.7,-838.37 443,-898 451.99,-907.87 465.08,-913.69 477.73,-917.12"/>
<polygon fill="midnightblue" stroke="midnightblue" points="477.17,-920.58 487.7,-919.39 478.73,-913.76 477.17,-920.58"/>
</g>
<!-- Node11&#45;&gt;Node7 -->
<g id="edge44" class="edge">
<title>Node11&#45;&gt;Node7</title>
<path fill="none" stroke="midnightblue" d="M355.36,-513.71C362.36,-562.54 395.95,-780.69 443,-827 444.44,-828.42 445.98,-829.74 447.59,-830.96"/>
<polygon fill="midnightblue" stroke="midnightblue" points="445.86,-834.01 456.2,-836.33 449.56,-828.07 445.86,-834.01"/>
</g>
<!-- Node11&#45;&gt;Node8 -->
<g id="edge11" class="edge">
<title>Node11&#45;&gt;Node8</title>
<path fill="none" stroke="midnightblue" d="M357.07,-513.58C365.77,-538.99 393.26,-608.13 443,-637 510.79,-676.35 605.06,-672.23 661.83,-664.75"/>
<polygon fill="midnightblue" stroke="midnightblue" points="662.57,-668.18 671.98,-663.32 661.6,-661.25 662.57,-668.18"/>
</g>
<!-- Node11&#45;&gt;Node10 -->
<g id="edge29" class="edge">
<title>Node11&#45;&gt;Node10</title>
<path fill="none" stroke="midnightblue" d="M330.33,-494.48C303.99,-478.94 260.08,-449.08 236.03,-430.22"/>
<polygon fill="midnightblue" stroke="midnightblue" points="238.11,-427.4 228.14,-423.82 233.7,-432.84 238.11,-427.4"/>
</g>
<!-- Node11&#45;&gt;Node11 -->
<g id="edge30" class="edge">
<title>Node11&#45;&gt;Node11</title>
<path fill="none" stroke="midnightblue" d="M332.35,-513.76C322.3,-522.57 329.18,-532 353,-532 368.26,-532 376.57,-528.13 377.93,-523.03"/>
<polygon fill="midnightblue" stroke="midnightblue" points="381.02,-521.37 373.65,-513.76 374.66,-524.3 381.02,-521.37"/>
</g>
<!-- Node12 -->
<g id="node12" class="node">
<title>Node12</title>
<g id="a_node12"><a xlink:href="quickjs_8c.html#a877fcb7651d95b411ce70e62b7f4a1f0" target="_top" xlink:title=" ">
<polygon fill="none" stroke="black" points="455,-608.5 455,-627.5 580,-627.5 580,-608.5 455,-608.5"/>
<text text-anchor="middle" x="517.5" y="-615.5" font-family="Helvetica,sans-Serif" font-size="10.00">__JS_AtomFromUInt32</text>
</a>
</g>
</g>
<!-- Node11&#45;&gt;Node12 -->
<g id="edge12" class="edge">
<title>Node11&#45;&gt;Node12</title>
<path fill="none" stroke="midnightblue" d="M360.3,-513.78C373.3,-533.16 405.1,-576.51 443,-599 446.7,-601.19 450.65,-603.14 454.72,-604.86"/>
<polygon fill="midnightblue" stroke="midnightblue" points="453.81,-608.26 464.41,-608.48 456.27,-601.7 453.81,-608.26"/>
</g>
<!-- Node13 -->
<g id="node13" class="node">
<title>Node13</title>
<g id="a_node13"><a xlink:href="quickjs_8h.html#a9bf98b18de88b4199910a43e933eb97d" target="_top" xlink:title=" ">
<polygon fill="none" stroke="black" points="467.5,-570.5 467.5,-589.5 567.5,-589.5 567.5,-570.5 467.5,-570.5"/>
<text text-anchor="middle" x="517.5" y="-577.5" font-family="Helvetica,sans-Serif" font-size="10.00">__JS_NewFloat64</text>
</a>
</g>
</g>
<!-- Node11&#45;&gt;Node13 -->
<g id="edge13" class="edge">
<title>Node11&#45;&gt;Node13</title>
<path fill="none" stroke="midnightblue" d="M366.25,-513.65C382.79,-526.24 413.57,-548.16 443,-561 448.49,-563.4 454.36,-565.54 460.28,-567.45"/>
<polygon fill="midnightblue" stroke="midnightblue" points="459.68,-570.92 470.26,-570.44 461.69,-564.21 459.68,-570.92"/>
</g>
<!-- Node14 -->
<g id="node14" class="node">
<title>Node14</title>
<g id="a_node14"><a xlink:href="quickjs_8c.html#a74547db03bf739a52c83a326b32db997" target="_top" xlink:title=" ">
<polygon fill="none" stroke="red" points="477,-532.5 477,-551.5 558,-551.5 558,-532.5 477,-532.5"/>
<text text-anchor="middle" x="517.5" y="-539.5" font-family="Helvetica,sans-Serif" font-size="10.00">add_property</text>
</a>
</g>
</g>
<!-- Node11&#45;&gt;Node14 -->
<g id="edge14" class="edge">
<title>Node11&#45;&gt;Node14</title>
<path fill="none" stroke="midnightblue" d="M395.01,-513.59C416.87,-518.7 443.94,-525.03 466.98,-530.42"/>
<polygon fill="midnightblue" stroke="midnightblue" points="466.38,-533.87 476.91,-532.74 467.97,-527.06 466.38,-533.87"/>
</g>
<!-- Node72 -->
<g id="node15" class="node">
<title>Node72</title>
<g id="a_node15"><a xlink:href="quickjs_8c.html#a4956f45ffd2849b96dc051277264f87a" target="_top" xlink:title=" ">
<polygon fill="none" stroke="red" points="476.5,-494.5 476.5,-513.5 558.5,-513.5 558.5,-494.5 476.5,-494.5"/>
<text text-anchor="middle" x="517.5" y="-501.5" font-family="Helvetica,sans-Serif" font-size="10.00">build_arg_list</text>
</a>
</g>
</g>
<!-- Node11&#45;&gt;Node72 -->
<g id="edge15" class="edge">
<title>Node11&#45;&gt;Node72</title>
<path fill="none" stroke="midnightblue" d="M396.69,-504C417.96,-504 443.82,-504 466.06,-504"/>
<polygon fill="midnightblue" stroke="midnightblue" points="466.32,-507.5 476.32,-504 466.32,-500.5 466.32,-507.5"/>
</g>
<!-- Node73 -->
<g id="node16" class="node">
<title>Node73</title>
<g id="a_node16"><a xlink:href="quickjs_8c.html#ac864482356b3efc2d0b0a509fcfa4c7c" target="_top" xlink:title=" ">
<polygon fill="none" stroke="red" points="673.5,-456.5 673.5,-475.5 750.5,-475.5 750.5,-456.5 673.5,-456.5"/>
<text text-anchor="middle" x="712" y="-463.5" font-family="Helvetica,sans-Serif" font-size="10.00">free_arg_list</text>
</a>
</g>
</g>
<!-- Node11&#45;&gt;Node73 -->
<g id="edge25" class="edge">
<title>Node11&#45;&gt;Node73</title>
<path fill="none" stroke="midnightblue" d="M392.78,-494.49C408.31,-491.01 426.42,-487.35 443,-485 519.42,-474.19 609.02,-469.41 662.83,-467.39"/>
<polygon fill="midnightblue" stroke="midnightblue" points="663.23,-470.88 673.1,-467.02 662.98,-463.88 663.23,-470.88"/>
</g>
<!-- Node11&#45;&gt;Node64 -->
<g id="edge33" class="edge">
<title>Node11&#45;&gt;Node64</title>
<path fill="none" stroke="midnightblue" d="M354.78,-494.47C358.1,-460.7 374.24,-345.95 443,-295 569.78,-201.05 654,-325.82 796,-257 822.76,-244.03 845.32,-217.33 858.38,-199.29"/>
<polygon fill="midnightblue" stroke="midnightblue" points="861.48,-200.97 864.32,-190.76 855.73,-196.97 861.48,-200.97"/>
</g>
<!-- Node43 -->
<g id="node18" class="node">
<title>Node43</title>
<g id="a_node18"><a xlink:href="quickjs_8h.html#a775522f2d084fc8fa0fcb33f390006b4" target="_top" xlink:title=" ">
<polygon fill="none" stroke="black" points="673.5,-380.5 673.5,-399.5 750.5,-399.5 750.5,-380.5 673.5,-380.5"/>
<text text-anchor="middle" x="712" y="-387.5" font-family="Helvetica,sans-Serif" font-size="10.00">JS_DupValue</text>
</a>
</g>
</g>
<!-- Node11&#45;&gt;Node43 -->
<g id="edge32" class="edge">
<title>Node11&#45;&gt;Node43</title>
<path fill="none" stroke="midnightblue" d="M359.6,-494.24C371.77,-474.08 402.8,-428.14 443,-409 513.97,-375.21 607.63,-377.67 663.36,-383.3"/>
<polygon fill="midnightblue" stroke="midnightblue" points="662.99,-386.78 673.31,-384.38 663.74,-379.82 662.99,-386.78"/>
</g>
<!-- Node165 -->
<g id="node19" class="node">
<title>Node165</title>
<g id="a_node19"><a xlink:href="quickjs_8c.html#a61c8dfb5e807af1b6ff7d8ca61576dda" target="_top" xlink:title=" ">
<polygon fill="none" stroke="red" points="470.5,-342.5 470.5,-361.5 564.5,-361.5 564.5,-342.5 470.5,-342.5"/>
<text text-anchor="middle" x="517.5" y="-349.5" font-family="Helvetica,sans-Serif" font-size="10.00">build_backtrace</text>
</a>
</g>
</g>
<!-- Node11&#45;&gt;Node165 -->
<g id="edge21" class="edge">
<title>Node11&#45;&gt;Node165</title>
<path fill="none" stroke="midnightblue" d="M358.04,-494.38C368.48,-470.67 398.69,-408.95 443,-376 448.78,-371.7 455.36,-368.16 462.15,-365.23"/>
<polygon fill="midnightblue" stroke="midnightblue" points="463.44,-368.49 471.5,-361.61 460.91,-361.96 463.44,-368.49"/>
</g>
<!-- Node247 -->
<g id="node20" class="node">
<title>Node247</title>
<g id="a_node20"><a xlink:href="quickjs_8c.html#a344894112559c2ba75043fd10bcfa02f" target="_top" xlink:title=" ">
<polygon fill="none" stroke="red" points="467,-418.5 467,-437.5 568,-437.5 568,-418.5 467,-418.5"/>
<text text-anchor="middle" x="517.5" y="-425.5" font-family="Helvetica,sans-Serif" font-size="10.00">close_lexical_var</text>
</a>
</g>
</g>
<!-- Node11&#45;&gt;Node247 -->
<g id="edge22" class="edge">
<title>Node11&#45;&gt;Node247</title>
<path fill="none" stroke="midnightblue" d="M368.29,-494.36C385.46,-483.09 415.41,-464.39 443,-452 452.37,-447.79 462.7,-443.96 472.58,-440.65"/>
<polygon fill="midnightblue" stroke="midnightblue" points="473.83,-443.92 482.27,-437.52 471.67,-437.26 473.83,-443.92"/>
</g>
<!-- Node248 -->
<g id="node21" class="node">
<title>Node248</title>
<g id="a_node21"><a xlink:href="quickjs_8c.html#a1782043fce951bd4f0d91c7796b31e24" target="_top" xlink:title=" ">
<polygon fill="none" stroke="red" points="474,-798.5 474,-817.5 561,-817.5 561,-798.5 474,-798.5"/>
<text text-anchor="middle" x="517.5" y="-805.5" font-family="Helvetica,sans-Serif" font-size="10.00">close_var_refs</text>
</a>
</g>
</g>
<!-- Node11&#45;&gt;Node248 -->
<g id="edge24" class="edge">
<title>Node11&#45;&gt;Node248</title>
<path fill="none" stroke="midnightblue" d="M353.88,-513.55C353.93,-553.61 359.63,-709.68 443,-789 448.97,-794.68 456.42,-798.72 464.26,-801.59"/>
<polygon fill="midnightblue" stroke="midnightblue" points="463.35,-804.97 473.94,-804.52 465.39,-798.27 463.35,-804.97"/>
</g>
<!-- Node61 -->
<g id="node22" class="node">
<title>Node61</title>
<g id="a_node22"><a xlink:href="quickjs_8c.html#a9e7b4bccf927d811b0f99b40b08c0472" target="_top" xlink:title=" ">
<polygon fill="none" stroke="red" points="479.5,-760.5 479.5,-779.5 555.5,-779.5 555.5,-760.5 479.5,-760.5"/>
<text text-anchor="middle" x="517.5" y="-767.5" font-family="Helvetica,sans-Serif" font-size="10.00">free_var_ref</text>
</a>
</g>
</g>
<!-- Node11&#45;&gt;Node61 -->
<g id="edge26" class="edge">
<title>Node11&#45;&gt;Node61</title>
<path fill="none" stroke="midnightblue" d="M354.4,-513.52C356.48,-550.2 369.05,-683.61 443,-751 450.45,-757.79 460.01,-762.22 469.76,-765.09"/>
<polygon fill="midnightblue" stroke="midnightblue" points="468.95,-768.5 479.49,-767.48 470.61,-761.7 468.95,-768.5"/>
</g>
<!-- Node250 -->
<g id="node23" class="node">
<title>Node250</title>
<g id="a_node23"><a xlink:href="cutils_8h.html#a7c82a3ee025fee89db5b11ff5b7691b8" target="_top" xlink:title=" ">
<polygon fill="none" stroke="black" points="491,-722.5 491,-741.5 544,-741.5 544,-722.5 491,-722.5"/>
<text text-anchor="middle" x="517.5" y="-729.5" font-family="Helvetica,sans-Serif" font-size="10.00">get_i16</text>
</a>
</g>
</g>
<!-- Node11&#45;&gt;Node250 -->
<g id="edge27" class="edge">
<title>Node11&#45;&gt;Node250</title>
<path fill="none" stroke="midnightblue" d="M355.11,-513.64C359.46,-546.85 378.43,-657.44 443,-713 453.41,-721.95 467.51,-726.77 480.58,-729.33"/>
<polygon fill="midnightblue" stroke="midnightblue" points="480.33,-732.83 490.75,-730.93 481.42,-725.92 480.33,-732.83"/>
</g>
<!-- Node251 -->
<g id="node24" class="node">
<title>Node251</title>
<g id="a_node24"><a xlink:href="cutils_8h.html#a288ee4e688944e23500af2ecc813c306" target="_top" xlink:title=" ">
<polygon fill="none" stroke="black" points="494,-684.5 494,-703.5 541,-703.5 541,-684.5 494,-684.5"/>
<text text-anchor="middle" x="517.5" y="-691.5" font-family="Helvetica,sans-Serif" font-size="10.00">get_i8</text>
</a>
</g>
</g>
<!-- Node11&#45;&gt;Node251 -->
<g id="edge28" class="edge">
<title>Node11&#45;&gt;Node251</title>
<path fill="none" stroke="midnightblue" d="M356.49,-513.88C364.19,-542.45 390.35,-625.91 443,-670 454.48,-679.61 469.91,-685.41 483.67,-688.88"/>
<polygon fill="midnightblue" stroke="midnightblue" points="483.26,-692.38 493.78,-691.11 484.77,-685.54 483.26,-692.38"/>
</g>
<!-- Node11&#45;&gt;Node395 -->
<g id="edge34" class="edge">
<title>Node11&#45;&gt;Node395</title>
<path fill="none" stroke="midnightblue" d="M356.06,-494.5C362.88,-465.45 387.47,-377.17 443,-333 448.08,-328.96 453.92,-325.77 460.04,-323.26"/>
<polygon fill="midnightblue" stroke="midnightblue" points="461.55,-326.44 469.83,-319.84 459.24,-319.83 461.55,-326.44"/>
</g>
<!-- Node11&#45;&gt;Node131 -->
<g id="edge38" class="edge">
<title>Node11&#45;&gt;Node131</title>
<path fill="none" stroke="midnightblue" d="M354.81,-494.3C359.64,-438.99 386.26,-163.67 443,-105 448.54,-99.27 455.56,-95.19 463.06,-92.29"/>
<polygon fill="midnightblue" stroke="midnightblue" points="464.26,-95.59 472.74,-89.23 462.15,-88.91 464.26,-95.59"/>
</g>
<!-- Node11&#45;&gt;Node430 -->
<g id="edge39" class="edge">
<title>Node11&#45;&gt;Node430</title>
<path fill="none" stroke="midnightblue" d="M354.08,-494.48C354.92,-455.23 363.42,-304.2 443,-224 446.9,-220.07 451.45,-216.78 456.34,-214.03"/>
<polygon fill="midnightblue" stroke="midnightblue" points="457.96,-217.14 465.45,-209.64 454.92,-210.83 457.96,-217.14"/>
</g>
<!-- Node244 -->
<g id="node28" class="node">
<title>Node244</title>
<g id="a_node28"><a xlink:href="quickjs_8c.html#a726b00d108e0a0f4d958c36c2e426a64" target="_top" xlink:title=" ">
<polygon fill="none" stroke="black" points="628,-228.5 628,-247.5 796,-247.5 796,-228.5 628,-228.5"/>
<text text-anchor="middle" x="712" y="-235.5" font-family="Helvetica,sans-Serif" font-size="10.00">JS_ThrowTypeErrorNotAnObject</text>
</a>
</g>
</g>
<!-- Node11&#45;&gt;Node244 -->
<g id="edge45" class="edge">
<title>Node11&#45;&gt;Node244</title>
<path fill="none" stroke="midnightblue" d="M354.16,-494.29C355.33,-456.95 365.01,-321.77 443,-262 503.6,-215.56 596.06,-218.64 654.99,-226.93"/>
<polygon fill="midnightblue" stroke="midnightblue" points="654.82,-230.44 665.23,-228.47 655.87,-223.52 654.82,-230.44"/>
</g>
<!-- Node11&#45;&gt;Node223 -->
<g id="edge46" class="edge">
<title>Node11&#45;&gt;Node223</title>
<path fill="none" stroke="midnightblue" d="M354.47,-494.38C356.92,-453.14 370.99,-288.54 443,-181 454.79,-163.39 473.81,-148.86 489.55,-138.87"/>
<polygon fill="midnightblue" stroke="midnightblue" points="491.62,-141.71 498.35,-133.53 487.99,-135.72 491.62,-141.71"/>
</g>
<!-- Node72&#45;&gt;Node5 -->
<g id="edge20" class="edge">
<title>Node72&#45;&gt;Node5</title>
<path fill="none" stroke="midnightblue" d="M558.83,-505.55C571.24,-508.11 583.78,-513.21 592,-523 657.35,-600.86 561.57,-902.06 628,-979 635.7,-987.91 646.64,-993.12 658.07,-996.06"/>
<polygon fill="midnightblue" stroke="midnightblue" points="657.66,-999.55 668.16,-998.1 659.05,-992.69 657.66,-999.55"/>
</g>
<!-- Node72&#45;&gt;Node8 -->
<g id="edge16" class="edge">
<title>Node72&#45;&gt;Node8</title>
<path fill="none" stroke="midnightblue" d="M558.74,-509.92C570.04,-512.74 581.98,-516.9 592,-523 640.74,-552.68 680.94,-608.49 699.67,-637.48"/>
<polygon fill="midnightblue" stroke="midnightblue" points="696.87,-639.61 705.17,-646.2 702.79,-635.88 696.87,-639.61"/>
</g>
<!-- Node72&#45;&gt;Node73 -->
<g id="edge17" class="edge">
<title>Node72&#45;&gt;Node73</title>
<path fill="none" stroke="midnightblue" d="M558.85,-496.03C589.3,-490.02 631.15,-481.76 663.26,-475.42"/>
<polygon fill="midnightblue" stroke="midnightblue" points="664.18,-478.81 673.31,-473.44 662.83,-471.94 664.18,-478.81"/>
</g>
<!-- Node72&#45;&gt;Node43 -->
<g id="edge19" class="edge">
<title>Node72&#45;&gt;Node43</title>
<path fill="none" stroke="midnightblue" d="M534.58,-494.48C568.2,-474.57 646.1,-428.43 686.19,-404.69"/>
<polygon fill="midnightblue" stroke="midnightblue" points="688.01,-407.68 694.83,-399.58 684.44,-401.66 688.01,-407.68"/>
</g>
<!-- Node73&#45;&gt;Node64 -->
<g id="edge18" class="edge">
<title>Node73&#45;&gt;Node64</title>
<path fill="none" stroke="midnightblue" d="M734.35,-456.33C753.11,-446.8 779.87,-430.55 796,-409 845.37,-343.03 862.93,-242.84 868.36,-200.73"/>
<polygon fill="midnightblue" stroke="midnightblue" points="871.85,-201.03 869.56,-190.69 864.89,-200.2 871.85,-201.03"/>
</g>
<!-- Node247&#45;&gt;Node43 -->
<g id="edge23" class="edge">
<title>Node247&#45;&gt;Node43</title>
<path fill="none" stroke="midnightblue" d="M567.08,-418.41C596.57,-412.59 634.05,-405.19 663.37,-399.4"/>
<polygon fill="midnightblue" stroke="midnightblue" points="664.24,-402.8 673.37,-397.43 662.88,-395.93 664.24,-402.8"/>
</g>
<!-- Node395&#45;&gt;Node43 -->
<g id="edge35" class="edge">
<title>Node395&#45;&gt;Node43</title>
<path fill="none" stroke="midnightblue" d="M561.29,-323.57C571.47,-326.26 582.22,-329.43 592,-333 624.91,-345.01 660.97,-363.01 684.67,-375.56"/>
<polygon fill="midnightblue" stroke="midnightblue" points="683.25,-378.77 693.72,-380.41 686.56,-372.6 683.25,-378.77"/>
</g>
<!-- Node430&#45;&gt;Node1 -->
<g id="edge42" class="edge">
<title>Node430&#45;&gt;Node1</title>
<path fill="none" stroke="midnightblue" d="M451.97,-206.21C371.41,-210.16 233.74,-213.05 147.4,-212.7"/>
<polygon fill="midnightblue" stroke="midnightblue" points="147.41,-209.2 137.39,-212.64 147.37,-216.2 147.41,-209.2"/>
</g>
<!-- Node430&#45;&gt;Node64 -->
<g id="edge41" class="edge">
<title>Node430&#45;&gt;Node64</title>
<path fill="none" stroke="midnightblue" d="M583.06,-196.52C651.92,-192.8 759.44,-186.99 821.6,-183.64"/>
<polygon fill="midnightblue" stroke="midnightblue" points="822.13,-187.12 831.92,-183.08 821.75,-180.13 822.13,-187.12"/>
</g>
<!-- Node430&#45;&gt;Node43 -->
<g id="edge40" class="edge">
<title>Node430&#45;&gt;Node43</title>
<path fill="none" stroke="midnightblue" d="M528.31,-209.68C559.07,-240.04 653.91,-333.65 693.43,-372.66"/>
<polygon fill="midnightblue" stroke="midnightblue" points="691.4,-375.57 700.98,-380.11 696.32,-370.59 691.4,-375.57"/>
</g>
<!-- Node430&#45;&gt;Node244 -->
<g id="edge43" class="edge">
<title>Node430&#45;&gt;Node244</title>
<path fill="none" stroke="midnightblue" d="M567.08,-209.59C593.16,-214.74 625.51,-221.12 652.92,-226.53"/>
<polygon fill="midnightblue" stroke="midnightblue" points="652.28,-229.98 662.77,-228.48 653.64,-223.11 652.28,-229.98"/>
</g>
<!-- Node223&#45;&gt;Node64 -->
<g id="edge47" class="edge">
<title>Node223&#45;&gt;Node64</title>
<path fill="none" stroke="midnightblue" d="M559.65,-123.36C614.46,-123.45 714.04,-126.93 796,-148 812.7,-152.29 830.38,-159.98 844.33,-166.85"/>
<polygon fill="midnightblue" stroke="midnightblue" points="842.83,-170.02 853.33,-171.43 846,-163.78 842.83,-170.02"/>
</g>
</g>
</svg>
