<?xml version="1.0" encoding="UTF-8" standalone="no"?>
<!DOCTYPE svg PUBLIC "-//W3C//DTD SVG 1.1//EN"
 "http://www.w3.org/Graphics/SVG/1.1/DTD/svg11.dtd">
<!-- Generated by graphviz version 2.43.0 (0)
 -->
<!-- Title: JS_CallConstructorInternal Pages: 1 -->
<!--zoomable 1136 -->
<svg id="main" version="1.1" xmlns="http://www.w3.org/2000/svg" xmlns:xlink="http://www.w3.org/1999/xlink" xml:space="preserve" onload="init(evt)">
<style type="text/css"><![CDATA[
.edge:hover path { stroke: red; }
.edge:hover polygon { stroke: red; fill: red; }
]]></style>
<script type="text/javascript"><![CDATA[
var edges = document.getElementsByTagName('g');
if (edges && edges.length) {
  for (var i=0;i<edges.length;i++) {
    if (edges[i].id.substr(0,4)=='edge') {
      edges[i].setAttribute('class','edge');
    }
  }
}
]]></script>
        <defs>
                <circle id="rim" cx="0" cy="0" r="7"/>
                <circle id="rim2" cx="0" cy="0" r="3.5"/>
                <g id="zoomPlus">
                        <use xlink:href="#rim" fill="#404040">
                                <set attributeName="fill" to="#808080" begin="zoomplus.mouseover" end="zoomplus.mouseout"/>
                        </use>
                        <path d="M-4,0h8M0,-4v8" fill="none" stroke="white" stroke-width="1.5" pointer-events="none"/>
                </g>
                <g id="zoomMin">
                        <use xlink:href="#rim" fill="#404040">
                                <set attributeName="fill" to="#808080" begin="zoomminus.mouseover" end="zoomminus.mouseout"/>
                        </use>
                        <path d="M-4,0h8" fill="none" stroke="white" stroke-width="1.5" pointer-events="none"/>
                </g>
                <g id="dirArrow">
                        <path fill="none" stroke="white" stroke-width="1.5" d="M0,-3.0v7 M-2.5,-0.5L0,-3.0L2.5,-0.5"/>
                </g>
               <g id="resetDef">
                       <use xlink:href="#rim2" fill="#404040">
                               <set attributeName="fill" to="#808080" begin="reset.mouseover" end="reset.mouseout"/>
                       </use>
               </g>
        </defs>

<script type="text/javascript">
var viewWidth = 673;
var viewHeight = 1136;
var sectionId = 'dynsection-14';
</script>
<script xlink:href="svgpan.js"/>
<svg id="graph" class="graph">
<g id="viewport">
<title>JS_CallConstructorInternal</title>
<!-- Node1 -->
<g id="node1" class="node">
<title>Node1</title>
<g id="a_node1"><a xlink:title=" ">
<polygon fill="#bfbfbf" stroke="black" points="0,-779.5 0,-798.5 143,-798.5 143,-779.5 0,-779.5"/>
<text text-anchor="middle" x="71.5" y="-786.5" font-family="Helvetica,sans-Serif" font-size="10.00">JS_CallConstructorInternal</text>
</a>
</g>
</g>
<!-- Node2 -->
<g id="node2" class="node">
<title>Node2</title>
<g id="a_node2"><a xlink:href="quickjs_8c.html#ac2894ff4edcdb4e6841bcce9c76081e3" target="_top" xlink:title=" ">
<polygon fill="none" stroke="red" points="179,-532.5 179,-551.5 266,-551.5 266,-532.5 179,-532.5"/>
<text text-anchor="middle" x="222.5" y="-539.5" font-family="Helvetica,sans-Serif" font-size="10.00">JS_CallInternal</text>
</a>
</g>
</g>
<!-- Node1&#45;&gt;Node2 -->
<g id="edge1" class="edge">
<title>Node1&#45;&gt;Node2</title>
<path fill="none" stroke="midnightblue" d="M76.8,-779.41C96.21,-742.12 176.12,-609.12 208.14,-560.09"/>
<polygon fill="midnightblue" stroke="midnightblue" points="211.09,-561.97 213.7,-551.7 205.26,-558.1 211.09,-561.97"/>
</g>
<!-- Node56 -->
<g id="node9" class="node">
<title>Node56</title>
<g id="a_node9"><a xlink:href="quickjs_8h.html#afaa20c47565bc704c6c85f3d77254e7d" target="_top" xlink:title=" ">
<polygon fill="none" stroke="red" points="586,-646.5 586,-665.5 665,-665.5 665,-646.5 586,-646.5"/>
<text text-anchor="middle" x="625.5" y="-653.5" font-family="Helvetica,sans-Serif" font-size="10.00">JS_FreeValue</text>
</a>
</g>
</g>
<!-- Node1&#45;&gt;Node56 -->
<g id="edge49" class="edge">
<title>Node1&#45;&gt;Node56</title>
<path fill="none" stroke="midnightblue" d="M72.7,-798.76C74.13,-840.36 85.71,-1004.16 179,-1078 265.58,-1146.53 325.74,-1137.05 427,-1093 594.38,-1020.18 619.92,-751.57 623.81,-675.93"/>
<polygon fill="midnightblue" stroke="midnightblue" points="627.31,-676.01 624.25,-665.87 620.31,-675.7 627.31,-676.01"/>
</g>
<!-- Node74 -->
<g id="node10" class="node">
<title>Node74</title>
<g id="a_node10"><a xlink:href="quickjs_8h.html#ad80a83d73e9b7d872b88fbf2943aebe9" target="_top" xlink:title=" ">
<polygon fill="none" stroke="black" points="463,-760.5 463,-779.5 550,-779.5 550,-760.5 463,-760.5"/>
<text text-anchor="middle" x="506.5" y="-767.5" font-family="Helvetica,sans-Serif" font-size="10.00">JS_IsException</text>
</a>
</g>
</g>
<!-- Node1&#45;&gt;Node74 -->
<g id="edge50" class="edge">
<title>Node1&#45;&gt;Node74</title>
<path fill="none" stroke="midnightblue" d="M78.59,-798.75C113.72,-853.76 293.44,-1119.41 427,-1017 475.94,-979.48 444.12,-941.71 463,-883 473.8,-849.41 488.77,-811.13 497.76,-788.86"/>
<polygon fill="midnightblue" stroke="midnightblue" points="501.02,-790.14 501.54,-779.56 494.53,-787.51 501.02,-790.14"/>
</g>
<!-- Node393 -->
<g id="node29" class="node">
<title>Node393</title>
<g id="a_node29"><a xlink:href="quickjs_8c.html#a246e337d6566552736209730827c0871" target="_top" xlink:title=" ">
<polygon fill="none" stroke="red" points="314,-0.5 314,-19.5 415,-19.5 415,-0.5 314,-0.5"/>
<text text-anchor="middle" x="364.5" y="-7.5" font-family="Helvetica,sans-Serif" font-size="10.00">js_poll_interrupts</text>
</a>
</g>
</g>
<!-- Node1&#45;&gt;Node393 -->
<g id="edge51" class="edge">
<title>Node1&#45;&gt;Node393</title>
<path fill="none" stroke="midnightblue" d="M72.27,-779.13C71.15,-707.12 73.7,-258.76 302,-29 303.45,-27.54 305,-26.2 306.65,-24.96"/>
<polygon fill="midnightblue" stroke="midnightblue" points="308.76,-27.76 315.47,-19.56 305.11,-21.79 308.76,-27.76"/>
</g>
<!-- Node374 -->
<g id="node30" class="node">
<title>Node374</title>
<g id="a_node30"><a xlink:href="quickjs_8c.html#a93dbf502b17d1328c524401335f60499" target="_top" xlink:title=" ">
<polygon fill="none" stroke="red" points="308,-1064.5 308,-1083.5 421,-1083.5 421,-1064.5 308,-1064.5"/>
<text text-anchor="middle" x="364.5" y="-1071.5" font-family="Helvetica,sans-Serif" font-size="10.00">js_create_from_ctor</text>
</a>
</g>
</g>
<!-- Node1&#45;&gt;Node374 -->
<g id="edge46" class="edge">
<title>Node1&#45;&gt;Node374</title>
<path fill="none" stroke="midnightblue" d="M73.12,-798.6C76.2,-837.44 93.32,-984 179,-1050 212.36,-1075.69 259.58,-1081.44 297.9,-1080.9"/>
<polygon fill="midnightblue" stroke="midnightblue" points="298.05,-1084.4 307.94,-1080.61 297.85,-1077.4 298.05,-1084.4"/>
</g>
<!-- Node2&#45;&gt;Node1 -->
<g id="edge41" class="edge">
<title>Node2&#45;&gt;Node1</title>
<path fill="none" stroke="midnightblue" d="M217.11,-551.76C197.55,-589.28 117.83,-721.96 85.86,-770.92"/>
<polygon fill="midnightblue" stroke="midnightblue" points="82.91,-769.03 80.3,-779.29 88.75,-772.9 82.91,-769.03"/>
</g>
<!-- Node2&#45;&gt;Node2 -->
<g id="edge42" class="edge">
<title>Node2&#45;&gt;Node2</title>
<path fill="none" stroke="midnightblue" d="M200.61,-551.76C189.97,-560.57 197.26,-570 222.5,-570 239.06,-570 247.9,-565.94 249.01,-560.65"/>
<polygon fill="midnightblue" stroke="midnightblue" points="252.1,-559.02 244.39,-551.76 245.89,-562.24 252.1,-559.02"/>
</g>
<!-- Node3 -->
<g id="node3" class="node">
<title>Node3</title>
<g id="a_node3"><a xlink:href="quickjs_8c.html#a853f0924d441ea4225488f37c8b69f9a" target="_top" xlink:title=" ">
<polygon fill="none" stroke="black" points="466.5,-646.5 466.5,-665.5 546.5,-665.5 546.5,-646.5 466.5,-646.5"/>
<text text-anchor="middle" x="506.5" y="-653.5" font-family="Helvetica,sans-Serif" font-size="10.00">__attribute__</text>
</a>
</g>
</g>
<!-- Node2&#45;&gt;Node3 -->
<g id="edge2" class="edge">
<title>Node2&#45;&gt;Node3</title>
<path fill="none" stroke="midnightblue" d="M235.61,-551.65C250.49,-563.11 276.86,-582.15 302,-594 330.11,-607.25 409.2,-629.87 460.1,-643.82"/>
<polygon fill="midnightblue" stroke="midnightblue" points="459.31,-647.23 469.88,-646.48 461.15,-640.48 459.31,-647.23"/>
</g>
<!-- Node4 -->
<g id="node4" class="node">
<title>Node4</title>
<g id="a_node4"><a xlink:href="quickjs_8c.html#a877fcb7651d95b411ce70e62b7f4a1f0" target="_top" xlink:title=" ">
<polygon fill="none" stroke="black" points="302,-304.5 302,-323.5 427,-323.5 427,-304.5 302,-304.5"/>
<text text-anchor="middle" x="364.5" y="-311.5" font-family="Helvetica,sans-Serif" font-size="10.00">__JS_AtomFromUInt32</text>
</a>
</g>
</g>
<!-- Node2&#45;&gt;Node4 -->
<g id="edge3" class="edge">
<title>Node2&#45;&gt;Node4</title>
<path fill="none" stroke="midnightblue" d="M224.47,-532.43C228.2,-500.41 244.44,-395.83 302,-338 305.89,-334.09 310.49,-330.8 315.4,-328.04"/>
<polygon fill="midnightblue" stroke="midnightblue" points="317.02,-331.15 324.48,-323.62 313.95,-324.85 317.02,-331.15"/>
</g>
<!-- Node5 -->
<g id="node5" class="node">
<title>Node5</title>
<g id="a_node5"><a xlink:href="quickjs_8h.html#a9bf98b18de88b4199910a43e933eb97d" target="_top" xlink:title=" ">
<polygon fill="none" stroke="black" points="314.5,-266.5 314.5,-285.5 414.5,-285.5 414.5,-266.5 314.5,-266.5"/>
<text text-anchor="middle" x="364.5" y="-273.5" font-family="Helvetica,sans-Serif" font-size="10.00">__JS_NewFloat64</text>
</a>
</g>
</g>
<!-- Node2&#45;&gt;Node5 -->
<g id="edge4" class="edge">
<title>Node2&#45;&gt;Node5</title>
<path fill="none" stroke="midnightblue" d="M223.56,-532.36C224.33,-495.82 232.04,-364.4 302,-295 303.46,-293.55 305.02,-292.22 306.67,-290.98"/>
<polygon fill="midnightblue" stroke="midnightblue" points="308.79,-293.79 315.52,-285.61 305.16,-287.81 308.79,-293.79"/>
</g>
<!-- Node6 -->
<g id="node6" class="node">
<title>Node6</title>
<g id="a_node6"><a xlink:href="quickjs_8c.html#a74547db03bf739a52c83a326b32db997" target="_top" xlink:title=" ">
<polygon fill="none" stroke="red" points="466,-456.5 466,-475.5 547,-475.5 547,-456.5 466,-456.5"/>
<text text-anchor="middle" x="506.5" y="-463.5" font-family="Helvetica,sans-Serif" font-size="10.00">add_property</text>
</a>
</g>
</g>
<!-- Node2&#45;&gt;Node6 -->
<g id="edge5" class="edge">
<title>Node2&#45;&gt;Node6</title>
<path fill="none" stroke="midnightblue" d="M225.73,-532.27C232.22,-506.49 253.8,-436.52 302,-409 350.25,-381.45 374.16,-391.84 427,-409 451.33,-416.9 474.42,-435.49 489.18,-449.3"/>
<polygon fill="midnightblue" stroke="midnightblue" points="486.86,-451.93 496.48,-456.39 491.74,-446.91 486.86,-451.93"/>
</g>
<!-- Node64 -->
<g id="node7" class="node">
<title>Node64</title>
<g id="a_node7"><a xlink:href="quickjs_8c.html#a4956f45ffd2849b96dc051277264f87a" target="_top" xlink:title=" ">
<polygon fill="none" stroke="red" points="323.5,-646.5 323.5,-665.5 405.5,-665.5 405.5,-646.5 323.5,-646.5"/>
<text text-anchor="middle" x="364.5" y="-653.5" font-family="Helvetica,sans-Serif" font-size="10.00">build_arg_list</text>
</a>
</g>
</g>
<!-- Node2&#45;&gt;Node64 -->
<g id="edge6" class="edge">
<title>Node2&#45;&gt;Node64</title>
<path fill="none" stroke="midnightblue" d="M229.66,-551.77C241.56,-569.93 269.44,-609.1 302,-632 307.73,-636.03 314.23,-639.5 320.81,-642.46"/>
<polygon fill="midnightblue" stroke="midnightblue" points="319.84,-645.84 330.42,-646.42 322.51,-639.37 319.84,-645.84"/>
</g>
<!-- Node65 -->
<g id="node8" class="node">
<title>Node65</title>
<g id="a_node8"><a xlink:href="quickjs_8c.html#ac864482356b3efc2d0b0a509fcfa4c7c" target="_top" xlink:title=" ">
<polygon fill="none" stroke="red" points="468,-608.5 468,-627.5 545,-627.5 545,-608.5 468,-608.5"/>
<text text-anchor="middle" x="506.5" y="-615.5" font-family="Helvetica,sans-Serif" font-size="10.00">free_arg_list</text>
</a>
</g>
</g>
<!-- Node2&#45;&gt;Node65 -->
<g id="edge14" class="edge">
<title>Node2&#45;&gt;Node65</title>
<path fill="none" stroke="midnightblue" d="M258.93,-551.55C310.01,-565.31 404.32,-590.73 460.34,-605.83"/>
<polygon fill="midnightblue" stroke="midnightblue" points="459.43,-609.21 469.99,-608.43 461.25,-602.45 459.43,-609.21"/>
</g>
<!-- Node2&#45;&gt;Node56 -->
<g id="edge43" class="edge">
<title>Node2&#45;&gt;Node56</title>
<path fill="none" stroke="midnightblue" d="M224.92,-532.46C229.69,-504.25 248.01,-421.08 302,-388 396.5,-330.1 468.18,-339.25 550,-414 615.53,-473.86 624.03,-589.81 624.7,-636.16"/>
<polygon fill="midnightblue" stroke="midnightblue" points="621.2,-636.38 624.74,-646.36 628.2,-636.35 621.2,-636.38"/>
</g>
<!-- Node2&#45;&gt;Node74 -->
<g id="edge44" class="edge">
<title>Node2&#45;&gt;Node74</title>
<path fill="none" stroke="midnightblue" d="M222.99,-551.55C221.55,-589.51 221.92,-730.42 302,-789 346.84,-821.8 371.84,-795.58 427,-789 439.06,-787.56 451.95,-784.92 463.72,-782.06"/>
<polygon fill="midnightblue" stroke="midnightblue" points="464.9,-785.37 473.73,-779.51 463.18,-778.58 464.9,-785.37"/>
</g>
<!-- Node160 -->
<g id="node11" class="node">
<title>Node160</title>
<g id="a_node11"><a xlink:href="quickjs_8c.html#a61c8dfb5e807af1b6ff7d8ca61576dda" target="_top" xlink:title=" ">
<polygon fill="none" stroke="red" points="317.5,-228.5 317.5,-247.5 411.5,-247.5 411.5,-228.5 317.5,-228.5"/>
<text text-anchor="middle" x="364.5" y="-235.5" font-family="Helvetica,sans-Serif" font-size="10.00">build_backtrace</text>
</a>
</g>
</g>
<!-- Node2&#45;&gt;Node160 -->
<g id="edge11" class="edge">
<title>Node2&#45;&gt;Node160</title>
<path fill="none" stroke="midnightblue" d="M223.08,-532.31C221.9,-492.36 222.87,-338.61 302,-257 303.87,-255.07 305.94,-253.33 308.14,-251.77"/>
<polygon fill="midnightblue" stroke="midnightblue" points="310.27,-254.59 317.21,-246.59 306.79,-248.51 310.27,-254.59"/>
</g>
<!-- Node247 -->
<g id="node12" class="node">
<title>Node247</title>
<g id="a_node12"><a xlink:href="quickjs_8c.html#a344894112559c2ba75043fd10bcfa02f" target="_top" xlink:title=" ">
<polygon fill="none" stroke="red" points="314,-190.5 314,-209.5 415,-209.5 415,-190.5 314,-190.5"/>
<text text-anchor="middle" x="364.5" y="-197.5" font-family="Helvetica,sans-Serif" font-size="10.00">close_lexical_var</text>
</a>
</g>
</g>
<!-- Node2&#45;&gt;Node247 -->
<g id="edge12" class="edge">
<title>Node2&#45;&gt;Node247</title>
<path fill="none" stroke="midnightblue" d="M224.57,-532.34C230.11,-483.77 257.12,-266.71 302,-219 303.38,-217.53 304.87,-216.18 306.44,-214.93"/>
<polygon fill="midnightblue" stroke="midnightblue" points="308.4,-217.83 314.95,-209.51 304.64,-211.93 308.4,-217.83"/>
</g>
<!-- Node248 -->
<g id="node13" class="node">
<title>Node248</title>
<g id="a_node13"><a xlink:href="quickjs_8c.html#a1782043fce951bd4f0d91c7796b31e24" target="_top" xlink:title=" ">
<polygon fill="none" stroke="red" points="321,-152.5 321,-171.5 408,-171.5 408,-152.5 321,-152.5"/>
<text text-anchor="middle" x="364.5" y="-159.5" font-family="Helvetica,sans-Serif" font-size="10.00">close_var_refs</text>
</a>
</g>
</g>
<!-- Node2&#45;&gt;Node248 -->
<g id="edge13" class="edge">
<title>Node2&#45;&gt;Node248</title>
<path fill="none" stroke="midnightblue" d="M224.99,-532.43C233.57,-477.91 277.06,-208.17 302,-181 304.77,-177.98 308.01,-175.44 311.52,-173.3"/>
<polygon fill="midnightblue" stroke="midnightblue" points="313.3,-176.32 320.71,-168.76 310.2,-170.05 313.3,-176.32"/>
</g>
<!-- Node53 -->
<g id="node14" class="node">
<title>Node53</title>
<g id="a_node14"><a xlink:href="quickjs_8c.html#a9e7b4bccf927d811b0f99b40b08c0472" target="_top" xlink:title=" ">
<polygon fill="none" stroke="red" points="326.5,-114.5 326.5,-133.5 402.5,-133.5 402.5,-114.5 326.5,-114.5"/>
<text text-anchor="middle" x="364.5" y="-121.5" font-family="Helvetica,sans-Serif" font-size="10.00">free_var_ref</text>
</a>
</g>
</g>
<!-- Node2&#45;&gt;Node53 -->
<g id="edge15" class="edge">
<title>Node2&#45;&gt;Node53</title>
<path fill="none" stroke="midnightblue" d="M224.82,-532.19C232.76,-473.79 274.73,-173.31 302,-143 306.07,-138.48 311.19,-135.02 316.73,-132.38"/>
<polygon fill="midnightblue" stroke="midnightblue" points="318.28,-135.53 326.34,-128.66 315.75,-129 318.28,-135.53"/>
</g>
<!-- Node250 -->
<g id="node15" class="node">
<title>Node250</title>
<g id="a_node15"><a xlink:href="cutils_8h.html#a7c82a3ee025fee89db5b11ff5b7691b8" target="_top" xlink:title=" ">
<polygon fill="none" stroke="black" points="338,-76.5 338,-95.5 391,-95.5 391,-76.5 338,-76.5"/>
<text text-anchor="middle" x="364.5" y="-83.5" font-family="Helvetica,sans-Serif" font-size="10.00">get_i16</text>
</a>
</g>
</g>
<!-- Node2&#45;&gt;Node250 -->
<g id="edge16" class="edge">
<title>Node2&#45;&gt;Node250</title>
<path fill="none" stroke="midnightblue" d="M224.93,-532.46C234.3,-470.02 287.12,-121.81 302,-105 308.65,-97.48 318.2,-92.9 327.8,-90.12"/>
<polygon fill="midnightblue" stroke="midnightblue" points="328.75,-93.5 337.71,-87.83 327.17,-86.68 328.75,-93.5"/>
</g>
<!-- Node251 -->
<g id="node16" class="node">
<title>Node251</title>
<g id="a_node16"><a xlink:href="cutils_8h.html#a288ee4e688944e23500af2ecc813c306" target="_top" xlink:title=" ">
<polygon fill="none" stroke="black" points="341,-38.5 341,-57.5 388,-57.5 388,-38.5 341,-38.5"/>
<text text-anchor="middle" x="364.5" y="-45.5" font-family="Helvetica,sans-Serif" font-size="10.00">get_i8</text>
</a>
</g>
</g>
<!-- Node2&#45;&gt;Node251 -->
<g id="edge17" class="edge">
<title>Node2&#45;&gt;Node251</title>
<path fill="none" stroke="midnightblue" d="M225.05,-532.18C235.72,-464.66 297.98,-71.61 302,-67 309.29,-58.64 320.18,-53.91 330.77,-51.25"/>
<polygon fill="midnightblue" stroke="midnightblue" points="331.59,-54.65 340.72,-49.28 330.23,-47.79 331.59,-54.65"/>
</g>
<!-- Node252 -->
<g id="node17" class="node">
<title>Node252</title>
<g id="a_node17"><a xlink:href="cutils_8h.html#ad587834d17e95461893d59661e5e9676" target="_top" xlink:title=" ">
<polygon fill="none" stroke="black" points="336.5,-988.5 336.5,-1007.5 392.5,-1007.5 392.5,-988.5 336.5,-988.5"/>
<text text-anchor="middle" x="364.5" y="-995.5" font-family="Helvetica,sans-Serif" font-size="10.00">get_u16</text>
</a>
</g>
</g>
<!-- Node2&#45;&gt;Node252 -->
<g id="edge18" class="edge">
<title>Node2&#45;&gt;Node252</title>
<path fill="none" stroke="midnightblue" d="M223.91,-551.78C226.56,-610.16 243,-912.33 302,-979 308.36,-986.19 317.38,-990.69 326.56,-993.51"/>
<polygon fill="midnightblue" stroke="midnightblue" points="325.91,-996.95 336.46,-995.94 327.58,-990.15 325.91,-996.95"/>
</g>
<!-- Node49 -->
<g id="node18" class="node">
<title>Node49</title>
<g id="a_node18"><a xlink:href="cutils_8h.html#a941262a5f72fda2ec43ae7911e97a0dc" target="_top" xlink:title=" ">
<polygon fill="none" stroke="black" points="336.5,-950.5 336.5,-969.5 392.5,-969.5 392.5,-950.5 336.5,-950.5"/>
<text text-anchor="middle" x="364.5" y="-957.5" font-family="Helvetica,sans-Serif" font-size="10.00">get_u32</text>
</a>
</g>
</g>
<!-- Node2&#45;&gt;Node49 -->
<g id="edge19" class="edge">
<title>Node2&#45;&gt;Node49</title>
<path fill="none" stroke="midnightblue" d="M224.08,-551.64C227.6,-606.67 247.69,-880.65 302,-941 308.37,-948.08 317.31,-952.55 326.4,-955.36"/>
<polygon fill="midnightblue" stroke="midnightblue" points="325.67,-958.79 336.22,-957.81 327.36,-952 325.67,-958.79"/>
</g>
<!-- Node253 -->
<g id="node19" class="node">
<title>Node253</title>
<g id="a_node19"><a xlink:href="quickjs_8c.html#a37fe43b6649456a848bd54846450b995" target="_top" xlink:title=" ">
<polygon fill="none" stroke="red" points="328.5,-912.5 328.5,-931.5 400.5,-931.5 400.5,-912.5 328.5,-912.5"/>
<text text-anchor="middle" x="364.5" y="-919.5" font-family="Helvetica,sans-Serif" font-size="10.00">get_var_ref</text>
</a>
</g>
</g>
<!-- Node2&#45;&gt;Node253 -->
<g id="edge20" class="edge">
<title>Node2&#45;&gt;Node253</title>
<path fill="none" stroke="midnightblue" d="M224.31,-551.73C228.81,-603.79 252.45,-849.02 302,-903 306.62,-908.03 312.54,-911.75 318.88,-914.48"/>
<polygon fill="midnightblue" stroke="midnightblue" points="317.76,-917.8 328.36,-917.83 320.1,-911.2 317.76,-917.8"/>
</g>
<!-- Node196 -->
<g id="node20" class="node">
<title>Node196</title>
<g id="a_node20"><a xlink:href="list_8h.html#a663527a4d757540b2177bef0db1ce5c0" target="_top" xlink:title=" ">
<polygon fill="none" stroke="black" points="323.5,-836.5 323.5,-855.5 405.5,-855.5 405.5,-836.5 323.5,-836.5"/>
<text text-anchor="middle" x="364.5" y="-843.5" font-family="Helvetica,sans-Serif" font-size="10.00">init_list_head</text>
</a>
</g>
</g>
<!-- Node2&#45;&gt;Node196 -->
<g id="edge21" class="edge">
<title>Node2&#45;&gt;Node196</title>
<path fill="none" stroke="midnightblue" d="M223.3,-551.63C223.02,-590.72 227.1,-739.31 302,-822 305.52,-825.88 309.74,-829.14 314.3,-831.88"/>
<polygon fill="midnightblue" stroke="midnightblue" points="312.9,-835.1 323.4,-836.53 316.08,-828.86 312.9,-835.1"/>
</g>
<!-- Node254 -->
<g id="node21" class="node">
<title>Node254</title>
<g id="a_node21"><a xlink:href="quickjs_8c.html#a2bb0a2ca3b8320f3ff778c65034fce49" target="_top" xlink:title=" ">
<polygon fill="none" stroke="red" points="305,-760.5 305,-779.5 424,-779.5 424,-760.5 305,-760.5"/>
<text text-anchor="middle" x="364.5" y="-767.5" font-family="Helvetica,sans-Serif" font-size="10.00">is_backtrace_needed</text>
</a>
</g>
</g>
<!-- Node2&#45;&gt;Node254 -->
<g id="edge22" class="edge">
<title>Node2&#45;&gt;Node254</title>
<path fill="none" stroke="midnightblue" d="M224.19,-551.51C227.07,-584.27 241.06,-693.59 302,-751 303.69,-752.59 305.5,-754.04 307.41,-755.38"/>
<polygon fill="midnightblue" stroke="midnightblue" points="305.91,-758.55 316.33,-760.48 309.39,-752.47 305.91,-758.55"/>
</g>
<!-- Node180 -->
<g id="node22" class="node">
<title>Node180</title>
<g id="a_node22"><a xlink:href="quickjs_8c.html#a686cf78f8b0361621ee2ba6182195c31" target="_top" xlink:title=" ">
<polygon fill="none" stroke="black" points="320.5,-722.5 320.5,-741.5 408.5,-741.5 408.5,-722.5 320.5,-722.5"/>
<text text-anchor="middle" x="364.5" y="-729.5" font-family="Helvetica,sans-Serif" font-size="10.00">is_strict_mode</text>
</a>
</g>
</g>
<!-- Node2&#45;&gt;Node180 -->
<g id="edge23" class="edge">
<title>Node2&#45;&gt;Node180</title>
<path fill="none" stroke="midnightblue" d="M225.12,-551.78C230.46,-580.85 250.18,-667.55 302,-713 304.81,-715.47 307.94,-717.61 311.25,-719.48"/>
<polygon fill="midnightblue" stroke="midnightblue" points="309.83,-722.68 320.37,-723.8 312.83,-716.35 309.83,-722.68"/>
</g>
<!-- Node256 -->
<g id="node23" class="node">
<title>Node256</title>
<g id="a_node23"><a xlink:href="quickjs_8c.html#ae8ff05447c0d51fe277baccf616dc7c6" target="_top" xlink:title=" ">
<polygon fill="none" stroke="red" points="326.5,-874.5 326.5,-893.5 402.5,-893.5 402.5,-874.5 326.5,-874.5"/>
<text text-anchor="middle" x="364.5" y="-881.5" font-family="Helvetica,sans-Serif" font-size="10.00">js_add_slow</text>
</a>
</g>
</g>
<!-- Node2&#45;&gt;Node256 -->
<g id="edge24" class="edge">
<title>Node2&#45;&gt;Node256</title>
<path fill="none" stroke="midnightblue" d="M224.57,-551.66C230.11,-600.23 257.12,-817.29 302,-865 306.12,-869.38 311.23,-872.76 316.72,-875.36"/>
<polygon fill="midnightblue" stroke="midnightblue" points="315.64,-878.7 326.23,-879.05 318.17,-872.17 315.64,-878.7"/>
</g>
<!-- Node263 -->
<g id="node24" class="node">
<title>Node263</title>
<g id="a_node24"><a xlink:href="quickjs_8c.html#a6a21784a40b8684f2e779bd460dd13b2" target="_top" xlink:title=" ">
<polygon fill="none" stroke="red" points="325.5,-532.5 325.5,-551.5 403.5,-551.5 403.5,-532.5 325.5,-532.5"/>
<text text-anchor="middle" x="364.5" y="-539.5" font-family="Helvetica,sans-Serif" font-size="10.00">JS_AddBrand</text>
</a>
</g>
</g>
<!-- Node2&#45;&gt;Node263 -->
<g id="edge27" class="edge">
<title>Node2&#45;&gt;Node263</title>
<path fill="none" stroke="midnightblue" d="M266.27,-542C281.7,-542 299.23,-542 315.11,-542"/>
<polygon fill="midnightblue" stroke="midnightblue" points="315.27,-545.5 325.27,-542 315.27,-538.5 315.27,-545.5"/>
</g>
<!-- Node266 -->
<g id="node25" class="node">
<title>Node266</title>
<g id="a_node25"><a xlink:href="quickjs_8c.html#a43208b0746998d2b6b9b8bd1ef8b5f99" target="_top" xlink:title=" ">
<polygon fill="none" stroke="red" points="302,-684.5 302,-703.5 427,-703.5 427,-684.5 302,-684.5"/>
<text text-anchor="middle" x="364.5" y="-691.5" font-family="Helvetica,sans-Serif" font-size="10.00">js_append_enumerate</text>
</a>
</g>
</g>
<!-- Node2&#45;&gt;Node266 -->
<g id="edge31" class="edge">
<title>Node2&#45;&gt;Node266</title>
<path fill="none" stroke="midnightblue" d="M226.47,-551.68C234.48,-576.14 258.87,-640.93 302,-675 304.3,-676.82 306.78,-678.46 309.37,-679.95"/>
<polygon fill="midnightblue" stroke="midnightblue" points="308.01,-683.18 318.53,-684.43 311.09,-676.9 308.01,-683.18"/>
</g>
<!-- Node97 -->
<g id="node26" class="node">
<title>Node97</title>
<g id="a_node26"><a xlink:href="quickjs_8c.html#a260bfa297ff6cb5bd18e229afaa54663" target="_top" xlink:title=" ">
<polygon fill="none" stroke="red" points="316.5,-494.5 316.5,-513.5 412.5,-513.5 412.5,-494.5 316.5,-494.5"/>
<text text-anchor="middle" x="364.5" y="-501.5" font-family="Helvetica,sans-Serif" font-size="10.00">JS_AtomToString</text>
</a>
</g>
</g>
<!-- Node2&#45;&gt;Node97 -->
<g id="edge35" class="edge">
<title>Node2&#45;&gt;Node97</title>
<path fill="none" stroke="midnightblue" d="M258.83,-532.41C276.9,-527.51 299.1,-521.48 318.39,-516.24"/>
<polygon fill="midnightblue" stroke="midnightblue" points="319.45,-519.58 328.18,-513.59 317.62,-512.83 319.45,-519.58"/>
</g>
<!-- Node292 -->
<g id="node27" class="node">
<title>Node292</title>
<g id="a_node27"><a xlink:href="quickjs_8c.html#afa67965c1017685fc6783776d6d0d4d7" target="_top" xlink:title=" ">
<polygon fill="none" stroke="red" points="317,-456.5 317,-475.5 412,-475.5 412,-456.5 317,-456.5"/>
<text text-anchor="middle" x="364.5" y="-463.5" font-family="Helvetica,sans-Serif" font-size="10.00">JS_AtomToValue</text>
</a>
</g>
</g>
<!-- Node2&#45;&gt;Node292 -->
<g id="edge36" class="edge">
<title>Node2&#45;&gt;Node292</title>
<path fill="none" stroke="midnightblue" d="M234.19,-532.45C248.64,-519.98 275.64,-498.19 302,-485 306.39,-482.8 311.09,-480.8 315.85,-478.99"/>
<polygon fill="midnightblue" stroke="midnightblue" points="317.39,-482.16 325.66,-475.55 315.06,-475.56 317.39,-482.16"/>
</g>
<!-- Node293 -->
<g id="node28" class="node">
<title>Node293</title>
<g id="a_node28"><a xlink:href="quickjs_8c.html#a04d312757919ff6b4d79cd0c2c3e5bb2" target="_top" xlink:title=" ">
<polygon fill="none" stroke="red" points="308.5,-418.5 308.5,-437.5 420.5,-437.5 420.5,-418.5 308.5,-418.5"/>
<text text-anchor="middle" x="364.5" y="-425.5" font-family="Helvetica,sans-Serif" font-size="10.00">js_build_arguments</text>
</a>
</g>
</g>
<!-- Node2&#45;&gt;Node293 -->
<g id="edge37" class="edge">
<title>Node2&#45;&gt;Node293</title>
<path fill="none" stroke="midnightblue" d="M228.84,-532.34C239.93,-513.18 267.33,-470.21 302,-447 305.06,-444.95 308.35,-443.12 311.76,-441.47"/>
<polygon fill="midnightblue" stroke="midnightblue" points="313.15,-444.68 320.99,-437.56 310.42,-438.24 313.15,-444.68"/>
</g>
<!-- Node2&#45;&gt;Node393 -->
<g id="edge45" class="edge">
<title>Node2&#45;&gt;Node393</title>
<path fill="none" stroke="midnightblue" d="M225.07,-532.16C230.71,-496.85 250.39,-373.16 266,-271 274.21,-217.25 266.58,-70.25 302,-29 303.15,-27.66 304.39,-26.41 305.71,-25.25"/>
<polygon fill="midnightblue" stroke="midnightblue" points="307.78,-28.08 314,-19.51 303.79,-22.33 307.78,-28.08"/>
</g>
<!-- Node64&#45;&gt;Node3 -->
<g id="edge7" class="edge">
<title>Node64&#45;&gt;Node3</title>
<path fill="none" stroke="midnightblue" d="M405.62,-656C421.41,-656 439.7,-656 456.28,-656"/>
<polygon fill="midnightblue" stroke="midnightblue" points="456.34,-659.5 466.34,-656 456.34,-652.5 456.34,-659.5"/>
</g>
<!-- Node64&#45;&gt;Node65 -->
<g id="edge8" class="edge">
<title>Node64&#45;&gt;Node65</title>
<path fill="none" stroke="midnightblue" d="M400.83,-646.41C418.9,-641.51 441.1,-635.48 460.39,-630.24"/>
<polygon fill="midnightblue" stroke="midnightblue" points="461.45,-633.58 470.18,-627.59 459.62,-626.83 461.45,-633.58"/>
</g>
<!-- Node64&#45;&gt;Node74 -->
<g id="edge10" class="edge">
<title>Node64&#45;&gt;Node74</title>
<path fill="none" stroke="midnightblue" d="M405.75,-664.74C413.17,-667.35 420.59,-670.71 427,-675 457.06,-695.13 481.66,-730.12 494.9,-751.55"/>
<polygon fill="midnightblue" stroke="midnightblue" points="492.02,-753.56 500.16,-760.34 498.03,-749.96 492.02,-753.56"/>
</g>
<!-- Node65&#45;&gt;Node56 -->
<g id="edge9" class="edge">
<title>Node65&#45;&gt;Node56</title>
<path fill="none" stroke="midnightblue" d="M537.02,-627.59C551.71,-632.36 569.66,-638.19 585.47,-643.32"/>
<polygon fill="midnightblue" stroke="midnightblue" points="584.39,-646.65 594.99,-646.41 586.56,-640 584.39,-646.65"/>
</g>
<!-- Node256&#45;&gt;Node56 -->
<g id="edge25" class="edge">
<title>Node256&#45;&gt;Node56</title>
<path fill="none" stroke="midnightblue" d="M401.84,-874.45C410.26,-871.78 419.06,-868.61 427,-865 485.5,-838.41 505.55,-835.4 550,-789 582.96,-754.6 606.4,-702.82 617.41,-675.11"/>
<polygon fill="midnightblue" stroke="midnightblue" points="620.69,-676.34 621.02,-665.75 614.16,-673.82 620.69,-676.34"/>
</g>
<!-- Node256&#45;&gt;Node74 -->
<g id="edge26" class="edge">
<title>Node256&#45;&gt;Node74</title>
<path fill="none" stroke="midnightblue" d="M402.52,-876.35C411,-873.6 419.66,-869.91 427,-865 442.91,-854.35 474.96,-812.14 492.79,-787.72"/>
<polygon fill="midnightblue" stroke="midnightblue" points="495.63,-789.77 498.66,-779.61 489.96,-785.66 495.63,-789.77"/>
</g>
<!-- Node263&#45;&gt;Node6 -->
<g id="edge28" class="edge">
<title>Node263&#45;&gt;Node6</title>
<path fill="none" stroke="midnightblue" d="M403.34,-532.45C411.35,-529.85 419.6,-526.7 427,-523 449.24,-511.87 471.94,-494.62 487.17,-482.01"/>
<polygon fill="midnightblue" stroke="midnightblue" points="489.44,-484.68 494.81,-475.55 484.92,-479.33 489.44,-484.68"/>
</g>
<!-- Node263&#45;&gt;Node56 -->
<g id="edge29" class="edge">
<title>Node263&#45;&gt;Node56</title>
<path fill="none" stroke="midnightblue" d="M403.81,-549.58C442.25,-558.15 502.42,-574.23 550,-599 571.01,-609.94 592.2,-626.85 606.57,-639.41"/>
<polygon fill="midnightblue" stroke="midnightblue" points="604.41,-642.18 614.2,-646.23 609.08,-636.96 604.41,-642.18"/>
</g>
<!-- Node263&#45;&gt;Node74 -->
<g id="edge30" class="edge">
<title>Node263&#45;&gt;Node74</title>
<path fill="none" stroke="midnightblue" d="M371.92,-551.63C383.26,-568.69 407.47,-605.42 427,-637 452.01,-677.44 480.04,-725.68 494.91,-751.5"/>
<polygon fill="midnightblue" stroke="midnightblue" points="491.91,-753.31 499.92,-760.24 497.98,-749.82 491.91,-753.31"/>
</g>
<!-- Node266&#45;&gt;Node3 -->
<g id="edge32" class="edge">
<title>Node266&#45;&gt;Node3</title>
<path fill="none" stroke="midnightblue" d="M400.83,-684.41C418.9,-679.51 441.1,-673.48 460.39,-668.24"/>
<polygon fill="midnightblue" stroke="midnightblue" points="461.45,-671.58 470.18,-665.59 459.62,-664.83 461.45,-671.58"/>
</g>
<!-- Node266&#45;&gt;Node56 -->
<g id="edge33" class="edge">
<title>Node266&#45;&gt;Node56</title>
<path fill="none" stroke="midnightblue" d="M427.32,-689.92C463.3,-686.97 509.42,-682.22 550,-675 560.25,-673.18 571.17,-670.7 581.4,-668.14"/>
<polygon fill="midnightblue" stroke="midnightblue" points="582.54,-671.46 591.35,-665.57 580.79,-664.68 582.54,-671.46"/>
</g>
<!-- Node266&#45;&gt;Node74 -->
<g id="edge34" class="edge">
<title>Node266&#45;&gt;Node74</title>
<path fill="none" stroke="midnightblue" d="M403.34,-703.55C411.35,-706.15 419.6,-709.3 427,-713 449.24,-724.13 471.94,-741.38 487.17,-753.99"/>
<polygon fill="midnightblue" stroke="midnightblue" points="484.92,-756.67 494.81,-760.45 489.44,-751.32 484.92,-756.67"/>
</g>
<!-- Node293&#45;&gt;Node6 -->
<g id="edge38" class="edge">
<title>Node293&#45;&gt;Node6</title>
<path fill="none" stroke="midnightblue" d="M400.83,-437.59C418.9,-442.49 441.1,-448.52 460.39,-453.76"/>
<polygon fill="midnightblue" stroke="midnightblue" points="459.62,-457.17 470.18,-456.41 461.45,-450.42 459.62,-457.17"/>
</g>
<!-- Node293&#45;&gt;Node56 -->
<g id="edge39" class="edge">
<title>Node293&#45;&gt;Node56</title>
<path fill="none" stroke="midnightblue" d="M420.86,-419.18C460.83,-415.99 513.91,-418.67 550,-447 609.95,-494.06 621.74,-593.22 623.99,-635.84"/>
<polygon fill="midnightblue" stroke="midnightblue" points="620.51,-636.2 624.41,-646.05 627.5,-635.92 620.51,-636.2"/>
</g>
<!-- Node293&#45;&gt;Node74 -->
<g id="edge40" class="edge">
<title>Node293&#45;&gt;Node74</title>
<path fill="none" stroke="midnightblue" d="M414.96,-437.54C419.49,-440.01 423.63,-443.11 427,-447 494.17,-524.54 433.8,-576.65 463,-675 471.2,-702.6 485.66,-732.65 495.41,-751.41"/>
<polygon fill="midnightblue" stroke="midnightblue" points="492.37,-753.15 500.14,-760.34 498.55,-749.87 492.37,-753.15"/>
</g>
<!-- Node374&#45;&gt;Node56 -->
<g id="edge47" class="edge">
<title>Node374&#45;&gt;Node56</title>
<path fill="none" stroke="midnightblue" d="M401.94,-1064.46C410.82,-1060.94 419.81,-1056.23 427,-1050 550.87,-942.75 605.7,-739.24 620.32,-675.55"/>
<polygon fill="midnightblue" stroke="midnightblue" points="623.77,-676.17 622.53,-665.65 616.94,-674.65 623.77,-676.17"/>
</g>
<!-- Node374&#45;&gt;Node74 -->
<g id="edge48" class="edge">
<title>Node374&#45;&gt;Node74</title>
<path fill="none" stroke="midnightblue" d="M405.92,-1064.39C413.77,-1060.94 421.31,-1056.29 427,-1050 445.03,-1030.1 487.31,-849.88 501.08,-789.56"/>
<polygon fill="midnightblue" stroke="midnightblue" points="504.5,-790.29 503.31,-779.76 497.68,-788.74 504.5,-790.29"/>
</g>
</g>
</svg>
        <g id="navigator" transform="translate(0 0)" fill="#404254">
                <rect fill="#f2f5e9" fill-opacity="0.5" stroke="#606060" stroke-width=".5" x="0" y="0" width="60" height="60"/>
                <use id="zoomplus" xlink:href="#zoomPlus" x="17" y="9" onmousedown="handleZoom(evt,'in')"/>
                <use id="zoomminus" xlink:href="#zoomMin" x="42" y="9" onmousedown="handleZoom(evt,'out')"/>
                <use id="reset" xlink:href="#resetDef" x="30" y="36" onmousedown="handleReset()"/>
                <g id="arrowUp" xlink:href="#dirArrow" transform="translate(30 24)" onmousedown="handlePan(0,-1)">
                  <use xlink:href="#rim" fill="#404040">
                        <set attributeName="fill" to="#808080" begin="arrowUp.mouseover" end="arrowUp.mouseout"/>
                  </use>
                  <path fill="none" stroke="white" stroke-width="1.5" d="M0,-3.0v7 M-2.5,-0.5L0,-3.0L2.5,-0.5"/>
                </g>
                <g id="arrowRight" xlink:href="#dirArrow" transform="rotate(90) translate(36 -43)" onmousedown="handlePan(1,0)">
                  <use xlink:href="#rim" fill="#404040">
                        <set attributeName="fill" to="#808080" begin="arrowRight.mouseover" end="arrowRight.mouseout"/>
                  </use>
                  <path fill="none" stroke="white" stroke-width="1.5" d="M0,-3.0v7 M-2.5,-0.5L0,-3.0L2.5,-0.5"/>
                </g>
                <g id="arrowDown" xlink:href="#dirArrow" transform="rotate(180) translate(-30 -48)" onmousedown="handlePan(0,1)">
                  <use xlink:href="#rim" fill="#404040">
                        <set attributeName="fill" to="#808080" begin="arrowDown.mouseover" end="arrowDown.mouseout"/>
                  </use>
                  <path fill="none" stroke="white" stroke-width="1.5" d="M0,-3.0v7 M-2.5,-0.5L0,-3.0L2.5,-0.5"/>
                </g>
                <g id="arrowLeft" xlink:href="#dirArrow" transform="rotate(270) translate(-36 17)" onmousedown="handlePan(-1,0)">
                  <use xlink:href="#rim" fill="#404040">
                        <set attributeName="fill" to="#808080" begin="arrowLeft.mouseover" end="arrowLeft.mouseout"/>
                  </use>
                  <path fill="none" stroke="white" stroke-width="1.5" d="M0,-3.0v7 M-2.5,-0.5L0,-3.0L2.5,-0.5"/>
                </g>
        </g>
        <svg viewBox="0 0 15 15" width="100%" height="30px" preserveAspectRatio="xMaxYMin meet">
         <g id="arrow_out" transform="scale(0.3 0.3)">
          <a xlink:href="quickjs_8c_ad35594576a14c10812efaf958c99af8a_cgraph_org.svg" target="_base">
           <rect id="button" ry="5" rx="5" y="6" x="6" height="38" width="38"
                fill="#f2f5e9" fill-opacity="0.5" stroke="#606060" stroke-width="1.0"/>
           <path id="arrow"
             d="M 11.500037,31.436501 C 11.940474,20.09759 22.043105,11.32322 32.158766,21.979434 L 37.068811,17.246167 C 37.068811,17.246167 37.088388,32 37.088388,32 L 22.160133,31.978069 C 22.160133,31.978069 26.997745,27.140456 26.997745,27.140456 C 18.528582,18.264221 13.291696,25.230495 11.500037,31.436501 z"
             style="fill:#404040;"/>
          </a>
         </g>
        </svg>
</svg>
