<?xml version="1.0" encoding="UTF-8" standalone="no"?>
<!DOCTYPE svg PUBLIC "-//W3C//DTD SVG 1.1//EN"
 "http://www.w3.org/Graphics/SVG/1.1/DTD/svg11.dtd">
<!-- Generated by graphviz version 2.43.0 (0)
 -->
<!-- Title: JS_EvalFunctionInternal Pages: 1 -->
<svg width="1117pt" height="1202pt"
 viewBox="0.00 0.00 1117.00 1201.71" xmlns="http://www.w3.org/2000/svg" xmlns:xlink="http://www.w3.org/1999/xlink">
<g id="graph0" class="graph" transform="scale(1 1) rotate(0) translate(4 1197.71)">
<title>JS_EvalFunctionInternal</title>
<!-- Node1 -->
<g id="node1" class="node">
<title>Node1</title>
<g id="a_node1"><a xlink:title=" ">
<polygon fill="#bfbfbf" stroke="black" points="0,-271.06 0,-290.06 131,-290.06 131,-271.06 0,-271.06"/>
<text text-anchor="middle" x="65.5" y="-278.06" font-family="Helvetica,sans-Serif" font-size="10.00">JS_EvalFunctionInternal</text>
</a>
</g>
</g>
<!-- Node2 -->
<g id="node2" class="node">
<title>Node2</title>
<g id="a_node2"><a xlink:href="quickjs_8c.html#a75f6ee5e4235a7dc99889f3d2eb2c147" target="_top" xlink:title=" ">
<polygon fill="none" stroke="black" points="356.5,-386.06 356.5,-405.06 427.5,-405.06 427.5,-386.06 356.5,-386.06"/>
<text text-anchor="middle" x="392" y="-393.06" font-family="Helvetica,sans-Serif" font-size="10.00">JS_CallFree</text>
</a>
</g>
</g>
<!-- Node1&#45;&gt;Node2 -->
<g id="edge1" class="edge">
<title>Node1&#45;&gt;Node2</title>
<path fill="none" stroke="midnightblue" d="M93.33,-290.07C151.39,-310.65 288.75,-359.33 354.58,-382.66"/>
<polygon fill="midnightblue" stroke="midnightblue" points="353.54,-386 364.14,-386.04 355.88,-379.4 353.54,-386"/>
</g>
<!-- Node57 -->
<g id="node10" class="node">
<title>Node57</title>
<g id="a_node10"><a xlink:href="quickjs_8h.html#afaa20c47565bc704c6c85f3d77254e7d" target="_top" xlink:title=" ">
<polygon fill="none" stroke="red" points="1030,-576.06 1030,-595.06 1109,-595.06 1109,-576.06 1030,-576.06"/>
<text text-anchor="middle" x="1069.5" y="-583.06" font-family="Helvetica,sans-Serif" font-size="10.00">JS_FreeValue</text>
</a>
</g>
</g>
<!-- Node1&#45;&gt;Node57 -->
<g id="edge55" class="edge">
<title>Node1&#45;&gt;Node57</title>
<path fill="none" stroke="midnightblue" d="M67.7,-290.2C80.11,-387.77 188.71,-1193.56 391,-1193.56 391,-1193.56 391,-1193.56 760,-1193.56 870.35,-1193.56 924.15,-1195.99 994,-1110.56 1059.05,-1031.02 1067.3,-690.98 1068.35,-605.25"/>
<polygon fill="midnightblue" stroke="midnightblue" points="1071.85,-605.12 1068.45,-595.09 1064.85,-605.05 1071.85,-605.12"/>
</g>
<!-- Node75 -->
<g id="node12" class="node">
<title>Node75</title>
<g id="a_node12"><a xlink:href="quickjs_8h.html#ad80a83d73e9b7d872b88fbf2943aebe9" target="_top" xlink:title=" ">
<polygon fill="none" stroke="black" points="885,-405.06 885,-424.06 972,-424.06 972,-405.06 885,-405.06"/>
<text text-anchor="middle" x="928.5" y="-412.06" font-family="Helvetica,sans-Serif" font-size="10.00">JS_IsException</text>
</a>
</g>
</g>
<!-- Node1&#45;&gt;Node75 -->
<g id="edge56" class="edge">
<title>Node1&#45;&gt;Node75</title>
<path fill="none" stroke="midnightblue" d="M71.4,-271.03C97.21,-222.32 222.49,-3.56 391,-3.56 391,-3.56 391,-3.56 579.5,-3.56 692.18,-3.56 745.1,18.84 827,-58.56 877.41,-106.2 914.3,-326.9 924.6,-394.7"/>
<polygon fill="midnightblue" stroke="midnightblue" points="921.18,-395.49 926.12,-404.86 928.1,-394.46 921.18,-395.49"/>
</g>
<!-- Node308 -->
<g id="node18" class="node">
<title>Node308</title>
<g id="a_node18"><a xlink:href="quickjs_8c.html#aab4130a4c3108a127681be821818528a" target="_top" xlink:title=" ">
<polygon fill="none" stroke="red" points="726.5,-538.06 726.5,-557.06 791.5,-557.06 791.5,-538.06 726.5,-538.06"/>
<text text-anchor="middle" x="759" y="-545.06" font-family="Helvetica,sans-Serif" font-size="10.00">js_closure</text>
</a>
</g>
</g>
<!-- Node1&#45;&gt;Node308 -->
<g id="edge39" class="edge">
<title>Node1&#45;&gt;Node308</title>
<path fill="none" stroke="midnightblue" d="M131.19,-287.87C174.28,-293.45 231.97,-302.28 282,-314.56 365.81,-335.14 387.47,-340.79 466,-376.56 571.47,-424.6 687.8,-500.15 735.61,-532.28"/>
<polygon fill="midnightblue" stroke="midnightblue" points="733.73,-535.24 743.98,-537.94 737.65,-529.44 733.73,-535.24"/>
</g>
<!-- Node431 -->
<g id="node22" class="node">
<title>Node431</title>
<g id="a_node22"><a xlink:href="quickjs_8c.html#a2d91a9da16cf07ff3b9ec053b870c335" target="_top" xlink:title=" ">
<polygon fill="none" stroke="black" points="318,-114.06 318,-133.06 466,-133.06 466,-114.06 318,-114.06"/>
<text text-anchor="middle" x="392" y="-121.06" font-family="Helvetica,sans-Serif" font-size="10.00">js_create_module_function</text>
</a>
</g>
</g>
<!-- Node1&#45;&gt;Node431 -->
<g id="edge40" class="edge">
<title>Node1&#45;&gt;Node431</title>
<path fill="none" stroke="midnightblue" d="M95.31,-270.94C150.02,-252.59 265.01,-213.6 282,-204.56 316.39,-186.26 351.8,-157.84 372.58,-139.99"/>
<polygon fill="midnightblue" stroke="midnightblue" points="375.06,-142.47 380.3,-133.26 370.46,-137.19 375.06,-142.47"/>
</g>
<!-- Node434 -->
<g id="node25" class="node">
<title>Node434</title>
<g id="a_node25"><a xlink:href="quickjs_8c.html#a8caed40cacf996391536c97ef916af21" target="_top" xlink:title=" ">
<polygon fill="none" stroke="black" points="167,-728.06 167,-747.06 282,-747.06 282,-728.06 167,-728.06"/>
<text text-anchor="middle" x="224.5" y="-735.06" font-family="Helvetica,sans-Serif" font-size="10.00">js_evaluate_module</text>
</a>
</g>
</g>
<!-- Node1&#45;&gt;Node434 -->
<g id="edge47" class="edge">
<title>Node1&#45;&gt;Node434</title>
<path fill="none" stroke="midnightblue" d="M69.78,-290.11C89.25,-346.79 189.75,-639.33 216.79,-718.04"/>
<polygon fill="midnightblue" stroke="midnightblue" points="213.55,-719.36 220.11,-727.68 220.17,-717.09 213.55,-719.36"/>
</g>
<!-- Node52 -->
<g id="node26" class="node">
<title>Node52</title>
<g id="a_node26"><a xlink:href="quickjs_8c.html#adcabee55726eddca24893a78515c7ba2" target="_top" xlink:title=" ">
<polygon fill="none" stroke="red" points="176,-176.06 176,-195.06 273,-195.06 273,-176.06 176,-176.06"/>
<text text-anchor="middle" x="224.5" y="-183.06" font-family="Helvetica,sans-Serif" font-size="10.00">js_free_modules</text>
</a>
</g>
</g>
<!-- Node1&#45;&gt;Node52 -->
<g id="edge54" class="edge">
<title>Node1&#45;&gt;Node52</title>
<path fill="none" stroke="midnightblue" d="M78.32,-270.94C96.57,-256.39 133.04,-228.49 167,-209.56 173.72,-205.82 181.14,-202.28 188.34,-199.12"/>
<polygon fill="midnightblue" stroke="midnightblue" points="190.07,-202.19 197.92,-195.08 187.35,-195.74 190.07,-202.19"/>
</g>
<!-- Node435 -->
<g id="node27" class="node">
<title>Node435</title>
<g id="a_node27"><a xlink:href="quickjs_8c.html#adc0280beaa04d2b8fcaf05a82ab26c74" target="_top" xlink:title=" ">
<polygon fill="none" stroke="black" points="533.5,-234.06 533.5,-253.06 623.5,-253.06 623.5,-234.06 533.5,-234.06"/>
<text text-anchor="middle" x="578.5" y="-241.06" font-family="Helvetica,sans-Serif" font-size="10.00">js_link_module</text>
</a>
</g>
</g>
<!-- Node1&#45;&gt;Node435 -->
<g id="edge57" class="edge">
<title>Node1&#45;&gt;Node435</title>
<path fill="none" stroke="midnightblue" d="M131.22,-275.88C232.95,-268.51 428.43,-254.36 523.26,-247.49"/>
<polygon fill="midnightblue" stroke="midnightblue" points="523.77,-250.96 533.49,-246.75 523.26,-243.98 523.77,-250.96"/>
</g>
<!-- Node3 -->
<g id="node3" class="node">
<title>Node3</title>
<g id="a_node3"><a xlink:href="quickjs_8c.html#ac2894ff4edcdb4e6841bcce9c76081e3" target="_top" xlink:title=" ">
<polygon fill="none" stroke="red" points="535,-690.06 535,-709.06 622,-709.06 622,-690.06 535,-690.06"/>
<text text-anchor="middle" x="578.5" y="-697.06" font-family="Helvetica,sans-Serif" font-size="10.00">JS_CallInternal</text>
</a>
</g>
</g>
<!-- Node2&#45;&gt;Node3 -->
<g id="edge2" class="edge">
<title>Node2&#45;&gt;Node3</title>
<path fill="none" stroke="midnightblue" d="M400.69,-405.32C430.22,-448.94 536.24,-623.55 568.27,-681.19"/>
<polygon fill="midnightblue" stroke="midnightblue" points="565.2,-682.87 573.06,-689.97 571.34,-679.52 565.2,-682.87"/>
</g>
<!-- Node2&#45;&gt;Node57 -->
<g id="edge38" class="edge">
<title>Node2&#45;&gt;Node57</title>
<path fill="none" stroke="midnightblue" d="M409.56,-385.97C487.11,-342.41 817.97,-172.1 994,-329.56 1064.27,-392.42 1069.88,-517.3 1069.24,-565.72"/>
<polygon fill="midnightblue" stroke="midnightblue" points="1065.74,-565.74 1069,-575.83 1072.74,-565.91 1065.74,-565.74"/>
</g>
<!-- Node3&#45;&gt;Node2 -->
<g id="edge22" class="edge">
<title>Node3&#45;&gt;Node2</title>
<path fill="none" stroke="midnightblue" d="M569.92,-689.96C540.59,-646.68 434.66,-472.23 402.39,-414.22"/>
<polygon fill="midnightblue" stroke="midnightblue" points="405.42,-412.47 397.56,-405.37 399.28,-415.82 405.42,-412.47"/>
</g>
<!-- Node3&#45;&gt;Node3 -->
<g id="edge23" class="edge">
<title>Node3&#45;&gt;Node3</title>
<path fill="none" stroke="midnightblue" d="M550.76,-709.32C537.26,-718.13 546.51,-727.56 578.5,-727.56 600.49,-727.56 611.74,-723.1 612.23,-717.45"/>
<polygon fill="midnightblue" stroke="midnightblue" points="614.99,-715.3 606.24,-709.32 609.35,-719.45 614.99,-715.3"/>
</g>
<!-- Node4 -->
<g id="node4" class="node">
<title>Node4</title>
<g id="a_node4"><a xlink:href="quickjs_8c.html#a853f0924d441ea4225488f37c8b69f9a" target="_top" xlink:title=" ">
<polygon fill="none" stroke="black" points="888.5,-956.06 888.5,-975.06 968.5,-975.06 968.5,-956.06 888.5,-956.06"/>
<text text-anchor="middle" x="928.5" y="-963.06" font-family="Helvetica,sans-Serif" font-size="10.00">__attribute__</text>
</a>
</g>
</g>
<!-- Node3&#45;&gt;Node4 -->
<g id="edge3" class="edge">
<title>Node3&#45;&gt;Node4</title>
<path fill="none" stroke="midnightblue" d="M579.23,-709.22C578.54,-754.29 582.3,-945.09 691,-1022.56 758.73,-1070.83 862.21,-1011.11 906.36,-980.97"/>
<polygon fill="midnightblue" stroke="midnightblue" points="908.41,-983.81 914.6,-975.21 904.4,-978.07 908.41,-983.81"/>
</g>
<!-- Node5 -->
<g id="node5" class="node">
<title>Node5</title>
<g id="a_node5"><a xlink:href="quickjs_8c.html#a877fcb7651d95b411ce70e62b7f4a1f0" target="_top" xlink:title=" ">
<polygon fill="none" stroke="black" points="696.5,-918.06 696.5,-937.06 821.5,-937.06 821.5,-918.06 696.5,-918.06"/>
<text text-anchor="middle" x="759" y="-925.06" font-family="Helvetica,sans-Serif" font-size="10.00">__JS_AtomFromUInt32</text>
</a>
</g>
</g>
<!-- Node3&#45;&gt;Node5 -->
<g id="edge4" class="edge">
<title>Node3&#45;&gt;Node5</title>
<path fill="none" stroke="midnightblue" d="M581.75,-709.19C590.01,-742.35 621.84,-852.81 691,-908.56 693.25,-910.38 695.66,-912.02 698.19,-913.5"/>
<polygon fill="midnightblue" stroke="midnightblue" points="696.64,-916.64 707.15,-917.97 699.77,-910.37 696.64,-916.64"/>
</g>
<!-- Node6 -->
<g id="node6" class="node">
<title>Node6</title>
<g id="a_node6"><a xlink:href="quickjs_8h.html#a9bf98b18de88b4199910a43e933eb97d" target="_top" xlink:title=" ">
<polygon fill="none" stroke="black" points="709,-880.06 709,-899.06 809,-899.06 809,-880.06 709,-880.06"/>
<text text-anchor="middle" x="759" y="-887.06" font-family="Helvetica,sans-Serif" font-size="10.00">__JS_NewFloat64</text>
</a>
</g>
</g>
<!-- Node3&#45;&gt;Node6 -->
<g id="edge5" class="edge">
<title>Node3&#45;&gt;Node6</title>
<path fill="none" stroke="midnightblue" d="M583.04,-709.45C594.08,-738.81 630.78,-826.22 691,-870.56 693.68,-872.53 696.55,-874.3 699.55,-875.88"/>
<polygon fill="midnightblue" stroke="midnightblue" points="698.3,-879.16 708.85,-880.11 701.19,-872.79 698.3,-879.16"/>
</g>
<!-- Node7 -->
<g id="node7" class="node">
<title>Node7</title>
<g id="a_node7"><a xlink:href="quickjs_8c.html#a74547db03bf739a52c83a326b32db997" target="_top" xlink:title=" ">
<polygon fill="none" stroke="red" points="718.5,-842.06 718.5,-861.06 799.5,-861.06 799.5,-842.06 718.5,-842.06"/>
<text text-anchor="middle" x="759" y="-849.06" font-family="Helvetica,sans-Serif" font-size="10.00">add_property</text>
</a>
</g>
</g>
<!-- Node3&#45;&gt;Node7 -->
<g id="edge6" class="edge">
<title>Node3&#45;&gt;Node7</title>
<path fill="none" stroke="midnightblue" d="M585.29,-709.06C600.03,-732.51 641.35,-793.66 691,-827.56 697.17,-831.78 704.17,-835.34 711.26,-838.32"/>
<polygon fill="midnightblue" stroke="midnightblue" points="710.32,-841.71 720.91,-842.04 712.84,-835.18 710.32,-841.71"/>
</g>
<!-- Node65 -->
<g id="node8" class="node">
<title>Node65</title>
<g id="a_node8"><a xlink:href="quickjs_8c.html#a4956f45ffd2849b96dc051277264f87a" target="_top" xlink:title=" ">
<polygon fill="none" stroke="red" points="718,-766.06 718,-785.06 800,-785.06 800,-766.06 718,-766.06"/>
<text text-anchor="middle" x="759" y="-773.06" font-family="Helvetica,sans-Serif" font-size="10.00">build_arg_list</text>
</a>
</g>
</g>
<!-- Node3&#45;&gt;Node65 -->
<g id="edge7" class="edge">
<title>Node3&#45;&gt;Node65</title>
<path fill="none" stroke="midnightblue" d="M598.6,-709.13C620.61,-720 658.01,-737.99 691,-751.56 700.24,-755.36 710.34,-759.16 719.82,-762.57"/>
<polygon fill="midnightblue" stroke="midnightblue" points="718.82,-765.93 729.42,-765.98 721.16,-759.34 718.82,-765.93"/>
</g>
<!-- Node66 -->
<g id="node9" class="node">
<title>Node66</title>
<g id="a_node9"><a xlink:href="quickjs_8c.html#ac864482356b3efc2d0b0a509fcfa4c7c" target="_top" xlink:title=" ">
<polygon fill="none" stroke="red" points="890,-728.06 890,-747.06 967,-747.06 967,-728.06 890,-728.06"/>
<text text-anchor="middle" x="928.5" y="-735.06" font-family="Helvetica,sans-Serif" font-size="10.00">free_arg_list</text>
</a>
</g>
</g>
<!-- Node3&#45;&gt;Node66 -->
<g id="edge19" class="edge">
<title>Node3&#45;&gt;Node66</title>
<path fill="none" stroke="midnightblue" d="M622.09,-705.15C642.86,-707.82 668.22,-710.98 691,-713.56 756.33,-720.98 831.94,-728.46 879.73,-733.05"/>
<polygon fill="midnightblue" stroke="midnightblue" points="879.5,-736.54 889.79,-734.01 880.17,-729.58 879.5,-736.54"/>
</g>
<!-- Node3&#45;&gt;Node57 -->
<g id="edge31" class="edge">
<title>Node3&#45;&gt;Node57</title>
<path fill="none" stroke="midnightblue" d="M622.21,-705.38C700.56,-714.03 870.52,-723.23 994,-661.56 1020.6,-648.28 1043.2,-621.66 1056.32,-603.72"/>
<polygon fill="midnightblue" stroke="midnightblue" points="1059.39,-605.44 1062.28,-595.25 1053.66,-601.41 1059.39,-605.44"/>
</g>
<!-- Node36 -->
<g id="node11" class="node">
<title>Node36</title>
<g id="a_node11"><a xlink:href="quickjs_8h.html#a775522f2d084fc8fa0fcb33f390006b4" target="_top" xlink:title=" ">
<polygon fill="none" stroke="black" points="890,-804.06 890,-823.06 967,-823.06 967,-804.06 890,-804.06"/>
<text text-anchor="middle" x="928.5" y="-811.06" font-family="Helvetica,sans-Serif" font-size="10.00">JS_DupValue</text>
</a>
</g>
</g>
<!-- Node3&#45;&gt;Node36 -->
<g id="edge30" class="edge">
<title>Node3&#45;&gt;Node36</title>
<path fill="none" stroke="midnightblue" d="M587.16,-709.32C603.64,-729.46 644.72,-775.38 691,-794.56 752.46,-820.03 830.51,-820.93 879.75,-818.12"/>
<polygon fill="midnightblue" stroke="midnightblue" points="880.05,-821.61 889.8,-817.47 879.59,-814.62 880.05,-821.61"/>
</g>
<!-- Node3&#45;&gt;Node75 -->
<g id="edge32" class="edge">
<title>Node3&#45;&gt;Node75</title>
<path fill="none" stroke="midnightblue" d="M583.03,-689.67C594.05,-660.27 630.7,-572.78 691,-528.56 741.61,-491.45 770.76,-518.42 827,-490.56 858.93,-474.74 890.92,-448.28 909.96,-431.13"/>
<polygon fill="midnightblue" stroke="midnightblue" points="912.52,-433.53 917.52,-424.19 907.79,-428.37 912.52,-433.53"/>
</g>
<!-- Node160 -->
<g id="node13" class="node">
<title>Node160</title>
<g id="a_node13"><a xlink:href="quickjs_8c.html#a61c8dfb5e807af1b6ff7d8ca61576dda" target="_top" xlink:title=" ">
<polygon fill="none" stroke="red" points="712,-576.06 712,-595.06 806,-595.06 806,-576.06 712,-576.06"/>
<text text-anchor="middle" x="759" y="-583.06" font-family="Helvetica,sans-Serif" font-size="10.00">build_backtrace</text>
</a>
</g>
</g>
<!-- Node3&#45;&gt;Node160 -->
<g id="edge13" class="edge">
<title>Node3&#45;&gt;Node160</title>
<path fill="none" stroke="midnightblue" d="M589.11,-689.88C607.46,-671.88 649.35,-632.94 691,-609.56 698.43,-605.39 706.73,-601.72 714.88,-598.59"/>
<polygon fill="midnightblue" stroke="midnightblue" points="716.11,-601.87 724.32,-595.16 713.73,-595.29 716.11,-601.87"/>
</g>
<!-- Node177 -->
<g id="node14" class="node">
<title>Node177</title>
<g id="a_node14"><a xlink:href="quickjs_8c.html#a0a8765bd4012467d9139bc24aabcb3ca" target="_top" xlink:title=" ">
<polygon fill="none" stroke="red" points="863,-576.06 863,-595.06 994,-595.06 994,-576.06 863,-576.06"/>
<text text-anchor="middle" x="928.5" y="-583.06" font-family="Helvetica,sans-Serif" font-size="10.00">JS_DefinePropertyValue</text>
</a>
</g>
</g>
<!-- Node3&#45;&gt;Node177 -->
<g id="edge29" class="edge">
<title>Node3&#45;&gt;Node177</title>
<path fill="none" stroke="midnightblue" d="M601.47,-689.94C623.78,-680.35 659.44,-665.5 691,-654.56 756.08,-632 832.87,-610.52 880.89,-597.69"/>
<polygon fill="midnightblue" stroke="midnightblue" points="881.91,-601.03 890.68,-595.08 880.12,-594.27 881.91,-601.03"/>
</g>
<!-- Node247 -->
<g id="node15" class="node">
<title>Node247</title>
<g id="a_node15"><a xlink:href="quickjs_8c.html#a344894112559c2ba75043fd10bcfa02f" target="_top" xlink:title=" ">
<polygon fill="none" stroke="red" points="708.5,-994.06 708.5,-1013.06 809.5,-1013.06 809.5,-994.06 708.5,-994.06"/>
<text text-anchor="middle" x="759" y="-1001.06" font-family="Helvetica,sans-Serif" font-size="10.00">close_lexical_var</text>
</a>
</g>
</g>
<!-- Node3&#45;&gt;Node247 -->
<g id="edge16" class="edge">
<title>Node3&#45;&gt;Node247</title>
<path fill="none" stroke="midnightblue" d="M580.26,-709.11C583.95,-749.18 603.67,-905.28 691,-984.56 693.51,-986.84 696.27,-988.84 699.19,-990.61"/>
<polygon fill="midnightblue" stroke="midnightblue" points="697.89,-993.87 708.39,-995.22 701.03,-987.61 697.89,-993.87"/>
</g>
<!-- Node248 -->
<g id="node16" class="node">
<title>Node248</title>
<g id="a_node16"><a xlink:href="quickjs_8c.html#a1782043fce951bd4f0d91c7796b31e24" target="_top" xlink:title=" ">
<polygon fill="none" stroke="red" points="715.5,-956.06 715.5,-975.06 802.5,-975.06 802.5,-956.06 715.5,-956.06"/>
<text text-anchor="middle" x="759" y="-963.06" font-family="Helvetica,sans-Serif" font-size="10.00">close_var_refs</text>
</a>
</g>
</g>
<!-- Node3&#45;&gt;Node248 -->
<g id="edge18" class="edge">
<title>Node3&#45;&gt;Node248</title>
<path fill="none" stroke="midnightblue" d="M580.88,-709.08C586.73,-745.74 612.79,-879.12 691,-946.56 695.29,-950.26 700.26,-953.25 705.51,-955.65"/>
<polygon fill="midnightblue" stroke="midnightblue" points="704.59,-959.05 715.18,-959.38 707.11,-952.51 704.59,-959.05"/>
</g>
<!-- Node286 -->
<g id="node17" class="node">
<title>Node286</title>
<g id="a_node17"><a xlink:href="quickjs_8c.html#a1a4c02a29525d5cb2085dd8bca3af350" target="_top" xlink:title=" ">
<polygon fill="none" stroke="black" points="734,-462.06 734,-481.06 784,-481.06 784,-462.06 734,-462.06"/>
<text text-anchor="middle" x="759" y="-469.06" font-family="Helvetica,sans-Serif" font-size="10.00">JS_Call</text>
</a>
</g>
</g>
<!-- Node3&#45;&gt;Node286 -->
<g id="edge20" class="edge">
<title>Node3&#45;&gt;Node286</title>
<path fill="none" stroke="midnightblue" d="M581.27,-689.67C589.06,-655.44 622.89,-544.78 691,-486.56 700.28,-478.63 712.37,-473.25 723.72,-470.14"/>
<polygon fill="midnightblue" stroke="midnightblue" points="724.82,-473.49 733.84,-467.93 723.32,-466.65 724.82,-473.49"/>
</g>
<!-- Node3&#45;&gt;Node308 -->
<g id="edge24" class="edge">
<title>Node3&#45;&gt;Node308</title>
<path fill="none" stroke="midnightblue" d="M584.84,-689.83C598.84,-665.23 639.15,-600.14 691,-566.56 698.67,-561.6 707.65,-557.91 716.49,-555.17"/>
<polygon fill="midnightblue" stroke="midnightblue" points="717.63,-558.49 726.35,-552.47 715.78,-551.74 717.63,-558.49"/>
</g>
<!-- Node313 -->
<g id="node19" class="node">
<title>Node313</title>
<g id="a_node19"><a xlink:href="quickjs_8c.html#a884d294acbf5be675ffc760e38bd0521" target="_top" xlink:title=" ">
<polygon fill="none" stroke="red" points="873.5,-633.06 873.5,-652.06 983.5,-652.06 983.5,-633.06 873.5,-633.06"/>
<text text-anchor="middle" x="928.5" y="-640.06" font-family="Helvetica,sans-Serif" font-size="10.00">JS_NewObjectProto</text>
</a>
</g>
</g>
<!-- Node3&#45;&gt;Node313 -->
<g id="edge33" class="edge">
<title>Node3&#45;&gt;Node313</title>
<path fill="none" stroke="midnightblue" d="M622.17,-692.57C682.46,-682.7 793.03,-664.59 863.27,-653.08"/>
<polygon fill="midnightblue" stroke="midnightblue" points="864.03,-656.51 873.33,-651.43 862.89,-649.6 864.03,-656.51"/>
</g>
<!-- Node207 -->
<g id="node20" class="node">
<title>Node207</title>
<g id="a_node20"><a xlink:href="quickjs_8c.html#a3ae8a83da71ef07d6e858d172d9c5a81" target="_top" xlink:title=" ">
<polygon fill="none" stroke="black" points="728.5,-1108.06 728.5,-1127.06 789.5,-1127.06 789.5,-1108.06 728.5,-1108.06"/>
<text text-anchor="middle" x="759" y="-1115.06" font-family="Helvetica,sans-Serif" font-size="10.00">JS_Throw</text>
</a>
</g>
</g>
<!-- Node3&#45;&gt;Node207 -->
<g id="edge34" class="edge">
<title>Node3&#45;&gt;Node207</title>
<path fill="none" stroke="midnightblue" d="M579.22,-709.36C578.39,-758.02 581.09,-975.89 691,-1093.56 698.35,-1101.43 708.46,-1106.72 718.6,-1110.28"/>
<polygon fill="midnightblue" stroke="midnightblue" points="717.66,-1113.65 728.24,-1113.19 719.68,-1106.95 717.66,-1113.65"/>
</g>
<!-- Node226 -->
<g id="node21" class="node">
<title>Node226</title>
<g id="a_node21"><a xlink:href="quickjs_8c.html#a0ec52a675282f321a6f42aa1298a53fe" target="_top" xlink:title=" ">
<polygon fill="none" stroke="black" points="727,-310.06 727,-329.06 791,-329.06 791,-310.06 727,-310.06"/>
<text text-anchor="middle" x="759" y="-317.06" font-family="Helvetica,sans-Serif" font-size="10.00">set_value</text>
</a>
</g>
</g>
<!-- Node3&#45;&gt;Node226 -->
<g id="edge36" class="edge">
<title>Node3&#45;&gt;Node226</title>
<path fill="none" stroke="midnightblue" d="M580.9,-690.02C587.29,-649.09 616.56,-485.57 691,-376.56 702.41,-359.85 719.96,-345.17 734.23,-334.89"/>
<polygon fill="midnightblue" stroke="midnightblue" points="736.39,-337.66 742.61,-329.08 732.4,-331.9 736.39,-337.66"/>
</g>
<!-- Node65&#45;&gt;Node4 -->
<g id="edge8" class="edge">
<title>Node65&#45;&gt;Node4</title>
<path fill="none" stroke="midnightblue" d="M772.82,-785.1C786.87,-795.85 809.7,-814.24 827,-832.56 862.74,-870.43 897.88,-920.76 915.61,-947.33"/>
<polygon fill="midnightblue" stroke="midnightblue" points="912.89,-949.57 921.33,-955.98 918.73,-945.71 912.89,-949.57"/>
</g>
<!-- Node65&#45;&gt;Node66 -->
<g id="edge9" class="edge">
<title>Node65&#45;&gt;Node66</title>
<path fill="none" stroke="midnightblue" d="M800.12,-766.46C824.02,-761.04 854.5,-754.12 879.66,-748.42"/>
<polygon fill="midnightblue" stroke="midnightblue" points="880.74,-751.76 889.72,-746.13 879.19,-744.93 880.74,-751.76"/>
</g>
<!-- Node65&#45;&gt;Node36 -->
<g id="edge11" class="edge">
<title>Node65&#45;&gt;Node36</title>
<path fill="none" stroke="midnightblue" d="M800.12,-784.66C824.02,-790.09 854.5,-797 879.66,-802.71"/>
<polygon fill="midnightblue" stroke="midnightblue" points="879.19,-806.19 889.72,-804.99 880.74,-799.36 879.19,-806.19"/>
</g>
<!-- Node65&#45;&gt;Node75 -->
<g id="edge12" class="edge">
<title>Node65&#45;&gt;Node75</title>
<path fill="none" stroke="midnightblue" d="M764.48,-765.91C787.05,-717.27 888.4,-498.84 918.83,-433.25"/>
<polygon fill="midnightblue" stroke="midnightblue" points="922.05,-434.62 923.08,-424.08 915.7,-431.68 922.05,-434.62"/>
</g>
<!-- Node66&#45;&gt;Node57 -->
<g id="edge10" class="edge">
<title>Node66&#45;&gt;Node57</title>
<path fill="none" stroke="midnightblue" d="M967.33,-728.37C976.74,-724.83 986.32,-720.03 994,-713.56 1029.42,-683.73 1051.87,-632.53 1062.08,-604.78"/>
<polygon fill="midnightblue" stroke="midnightblue" points="1065.47,-605.67 1065.49,-595.08 1058.87,-603.35 1065.47,-605.67"/>
</g>
<!-- Node160&#45;&gt;Node177 -->
<g id="edge14" class="edge">
<title>Node160&#45;&gt;Node177</title>
<path fill="none" stroke="midnightblue" d="M806.21,-585.56C820.59,-585.56 836.83,-585.56 852.64,-585.56"/>
<polygon fill="midnightblue" stroke="midnightblue" points="852.95,-589.06 862.95,-585.56 852.95,-582.06 852.95,-589.06"/>
</g>
<!-- Node177&#45;&gt;Node57 -->
<g id="edge15" class="edge">
<title>Node177&#45;&gt;Node57</title>
<path fill="none" stroke="midnightblue" d="M994.12,-585.56C1002.69,-585.56 1011.36,-585.56 1019.61,-585.56"/>
<polygon fill="midnightblue" stroke="midnightblue" points="1019.79,-589.06 1029.79,-585.56 1019.79,-582.06 1019.79,-589.06"/>
</g>
<!-- Node247&#45;&gt;Node36 -->
<g id="edge17" class="edge">
<title>Node247&#45;&gt;Node36</title>
<path fill="none" stroke="midnightblue" d="M809.66,-994.2C815.87,-991.71 821.83,-988.55 827,-984.56 854.07,-963.64 899.67,-872.18 918.72,-832.28"/>
<polygon fill="midnightblue" stroke="midnightblue" points="921.94,-833.65 923.06,-823.12 915.62,-830.65 921.94,-833.65"/>
</g>
<!-- Node286&#45;&gt;Node3 -->
<g id="edge21" class="edge">
<title>Node286&#45;&gt;Node3</title>
<path fill="none" stroke="midnightblue" d="M741.46,-481.11C726.77,-486.02 705.46,-492.2 691,-504.56 633.23,-553.94 600.12,-641.05 586.65,-680.08"/>
<polygon fill="midnightblue" stroke="midnightblue" points="583.27,-679.15 583.37,-689.75 589.9,-681.41 583.27,-679.15"/>
</g>
<!-- Node308&#45;&gt;Node57 -->
<g id="edge26" class="edge">
<title>Node308&#45;&gt;Node57</title>
<path fill="none" stroke="midnightblue" d="M791.62,-548.44C836.78,-550.07 922.24,-554.59 994,-566.56 1004.58,-568.33 1015.85,-570.85 1026.34,-573.49"/>
<polygon fill="midnightblue" stroke="midnightblue" points="1025.56,-576.91 1036.12,-576.04 1027.32,-570.13 1025.56,-576.91"/>
</g>
<!-- Node308&#45;&gt;Node75 -->
<g id="edge27" class="edge">
<title>Node308&#45;&gt;Node75</title>
<path fill="none" stroke="midnightblue" d="M791.82,-539.62C803.47,-535.85 816.39,-530.59 827,-523.56 864.7,-498.59 897.99,-456.56 915.16,-432.64"/>
<polygon fill="midnightblue" stroke="midnightblue" points="918.24,-434.35 921.12,-424.16 912.51,-430.33 918.24,-434.35"/>
</g>
<!-- Node308&#45;&gt;Node177 -->
<g id="edge25" class="edge">
<title>Node308&#45;&gt;Node177</title>
<path fill="none" stroke="midnightblue" d="M791.51,-554.71C815.14,-560.07 848.01,-567.53 875.52,-573.77"/>
<polygon fill="midnightblue" stroke="midnightblue" points="874.85,-577.21 885.38,-576.01 876.4,-570.38 874.85,-577.21"/>
</g>
<!-- Node308&#45;&gt;Node313 -->
<g id="edge28" class="edge">
<title>Node308&#45;&gt;Node313</title>
<path fill="none" stroke="midnightblue" d="M791.77,-552.9C803.42,-555.78 816.35,-560.11 827,-566.56 846.9,-578.61 844.8,-590.07 863,-604.56 874.15,-613.44 887.59,-621.69 899.3,-628.21"/>
<polygon fill="midnightblue" stroke="midnightblue" points="897.79,-631.37 908.25,-633.06 901.12,-625.22 897.79,-631.37"/>
</g>
<!-- Node207&#45;&gt;Node57 -->
<g id="edge35" class="edge">
<title>Node207&#45;&gt;Node57</title>
<path fill="none" stroke="midnightblue" d="M789.56,-1109.66C840.17,-1094.5 942.87,-1056.29 994,-984.56 1038.46,-922.19 1061.13,-678.01 1066.96,-605.79"/>
<polygon fill="midnightblue" stroke="midnightblue" points="1070.48,-605.63 1067.78,-595.39 1063.51,-605.08 1070.48,-605.63"/>
</g>
<!-- Node226&#45;&gt;Node57 -->
<g id="edge37" class="edge">
<title>Node226&#45;&gt;Node57</title>
<path fill="none" stroke="midnightblue" d="M791.37,-321.15C840.97,-325.33 937.62,-340.49 994,-395.56 1042.93,-443.35 1060.43,-527.1 1066.08,-565.4"/>
<polygon fill="midnightblue" stroke="midnightblue" points="1062.66,-566.3 1067.47,-575.74 1069.6,-565.37 1062.66,-566.3"/>
</g>
<!-- Node431&#45;&gt;Node431 -->
<g id="edge45" class="edge">
<title>Node431&#45;&gt;Node431</title>
<path fill="none" stroke="midnightblue" d="M366.41,-133.32C353.97,-142.13 362.5,-151.56 392,-151.56 411.82,-151.56 422.18,-147.3 423.06,-141.84"/>
<polygon fill="midnightblue" stroke="midnightblue" points="425.94,-139.84 417.59,-133.32 420.05,-143.62 425.94,-139.84"/>
</g>
<!-- Node432 -->
<g id="node23" class="node">
<title>Node432</title>
<g id="a_node23"><a xlink:href="quickjs_8c.html#a6e67f3bc70778c4c816db73e18d47d03" target="_top" xlink:title=" ">
<polygon fill="none" stroke="red" points="502,-64.56 502,-94.56 655,-94.56 655,-64.56 502,-64.56"/>
<text text-anchor="start" x="510" y="-82.56" font-family="Helvetica,sans-Serif" font-size="10.00">js_create_module_bytecode</text>
<text text-anchor="middle" x="578.5" y="-71.56" font-family="Helvetica,sans-Serif" font-size="10.00">_function</text>
</a>
</g>
</g>
<!-- Node431&#45;&gt;Node432 -->
<g id="edge41" class="edge">
<title>Node431&#45;&gt;Node432</title>
<path fill="none" stroke="midnightblue" d="M433.03,-114.01C453.9,-109.04 480.08,-102.8 504.4,-96.99"/>
<polygon fill="midnightblue" stroke="midnightblue" points="505.41,-100.35 514.33,-94.63 503.79,-93.54 505.41,-100.35"/>
</g>
<!-- Node433 -->
<g id="node24" class="node">
<title>Node433</title>
<g id="a_node24"><a xlink:href="quickjs_8c.html#a66b74f17c8f724e92b6d7e3856e12b1e" target="_top" xlink:title=" ">
<polygon fill="none" stroke="red" points="697,-108.06 697,-127.06 821,-127.06 821,-108.06 697,-108.06"/>
<text text-anchor="middle" x="759" y="-115.06" font-family="Helvetica,sans-Serif" font-size="10.00">js_create_module_var</text>
</a>
</g>
</g>
<!-- Node431&#45;&gt;Node433 -->
<g id="edge46" class="edge">
<title>Node431&#45;&gt;Node433</title>
<path fill="none" stroke="midnightblue" d="M466.42,-122.35C530.51,-121.3 622.95,-119.78 686.47,-118.74"/>
<polygon fill="midnightblue" stroke="midnightblue" points="686.86,-122.23 696.8,-118.57 686.75,-115.23 686.86,-122.23"/>
</g>
<!-- Node432&#45;&gt;Node57 -->
<g id="edge43" class="edge">
<title>Node432&#45;&gt;Node57</title>
<path fill="none" stroke="midnightblue" d="M648.21,-64.55C662.3,-62.06 677.07,-59.86 691,-58.56 832.76,-45.33 914.3,-44.58 994,-162.56 1039.66,-230.16 1061.69,-491.19 1067.13,-565.64"/>
<polygon fill="midnightblue" stroke="midnightblue" points="1063.66,-566.2 1067.86,-575.93 1070.64,-565.7 1063.66,-566.2"/>
</g>
<!-- Node432&#45;&gt;Node75 -->
<g id="edge44" class="edge">
<title>Node432&#45;&gt;Node75</title>
<path fill="none" stroke="midnightblue" d="M655.05,-64.85C708.62,-58.89 779.19,-60.71 827,-98.56 921.79,-173.62 928.69,-338.22 928.11,-394.91"/>
<polygon fill="midnightblue" stroke="midnightblue" points="924.61,-394.96 927.91,-405.03 931.61,-395.1 924.61,-394.96"/>
</g>
<!-- Node432&#45;&gt;Node433 -->
<g id="edge42" class="edge">
<title>Node432&#45;&gt;Node433</title>
<path fill="none" stroke="midnightblue" d="M650.05,-94.58C667.72,-98.34 686.42,-102.32 703.2,-105.9"/>
<polygon fill="midnightblue" stroke="midnightblue" points="702.86,-109.4 713.37,-108.06 704.32,-102.56 702.86,-109.4"/>
</g>
<!-- Node434&#45;&gt;Node2 -->
<g id="edge48" class="edge">
<title>Node434&#45;&gt;Node2</title>
<path fill="none" stroke="midnightblue" d="M225.28,-727.96C224.83,-685.41 228.72,-511.99 318,-419.56 325.74,-411.55 336.18,-406.22 346.76,-402.66"/>
<polygon fill="midnightblue" stroke="midnightblue" points="347.79,-406.01 356.43,-399.87 345.85,-399.28 347.79,-406.01"/>
</g>
<!-- Node434&#45;&gt;Node57 -->
<g id="edge51" class="edge">
<title>Node434&#45;&gt;Node57</title>
<path fill="none" stroke="midnightblue" d="M226.57,-747.15C232.6,-799.55 264.04,-1050.69 318,-1102.56 402.86,-1184.15 459.79,-1155.56 577.5,-1155.56 577.5,-1155.56 577.5,-1155.56 760,-1155.56 874.73,-1155.56 927.49,-1140.05 994,-1046.56 1045.85,-973.68 1063.67,-683.96 1067.6,-605.34"/>
<polygon fill="midnightblue" stroke="midnightblue" points="1071.09,-605.48 1068.08,-595.32 1064.1,-605.14 1071.09,-605.48"/>
</g>
<!-- Node434&#45;&gt;Node36 -->
<g id="edge49" class="edge">
<title>Node434&#45;&gt;Node36</title>
<path fill="none" stroke="midnightblue" d="M235.93,-747.11C283.53,-789.96 486.7,-964.99 691,-1022.56 749.18,-1038.96 775.92,-1054.88 827,-1022.56 858.58,-1002.58 846.85,-980.27 863,-946.56 882.58,-905.7 905.84,-857.94 918.38,-832.23"/>
<polygon fill="midnightblue" stroke="midnightblue" points="921.53,-833.75 922.78,-823.23 915.24,-830.68 921.53,-833.75"/>
</g>
<!-- Node434&#45;&gt;Node75 -->
<g id="edge52" class="edge">
<title>Node434&#45;&gt;Node75</title>
<path fill="none" stroke="midnightblue" d="M237.17,-727.96C287.61,-687 493.26,-525.72 691,-452.56 751.63,-430.13 825.82,-420.93 874.76,-417.16"/>
<polygon fill="midnightblue" stroke="midnightblue" points="875.08,-420.65 884.8,-416.44 874.58,-413.67 875.08,-420.65"/>
</g>
<!-- Node434&#45;&gt;Node207 -->
<g id="edge53" class="edge">
<title>Node434&#45;&gt;Node207</title>
<path fill="none" stroke="midnightblue" d="M226.89,-747.23C234.09,-795.85 268.67,-1012.83 318,-1055.56 433.45,-1155.57 633.51,-1137.97 718.25,-1124.86"/>
<polygon fill="midnightblue" stroke="midnightblue" points="718.92,-1128.3 728.23,-1123.25 717.8,-1121.38 718.92,-1128.3"/>
</g>
<!-- Node434&#45;&gt;Node434 -->
<g id="edge50" class="edge">
<title>Node434&#45;&gt;Node434</title>
<path fill="none" stroke="midnightblue" d="M200.15,-747.32C188.3,-756.13 196.42,-765.56 224.5,-765.56 242.93,-765.56 252.76,-761.5 253.99,-756.22"/>
<polygon fill="midnightblue" stroke="midnightblue" points="256.89,-754.23 248.85,-747.32 250.82,-757.73 256.89,-754.23"/>
</g>
<!-- Node435&#45;&gt;Node57 -->
<g id="edge60" class="edge">
<title>Node435&#45;&gt;Node57</title>
<path fill="none" stroke="midnightblue" d="M590.21,-234.02C609,-217.99 649.84,-186.27 691,-174.56 826.49,-136.03 909.15,-155.11 994,-267.56 1064.8,-361.39 1069.79,-511.77 1069.12,-565.6"/>
<polygon fill="midnightblue" stroke="midnightblue" points="1065.62,-565.75 1068.91,-575.82 1072.62,-565.9 1065.62,-565.75"/>
</g>
<!-- Node435&#45;&gt;Node75 -->
<g id="edge64" class="edge">
<title>Node435&#45;&gt;Node75</title>
<path fill="none" stroke="midnightblue" d="M603.1,-253.2C618.98,-260.48 639.73,-271.59 655,-285.56 676.01,-304.78 667.88,-321.94 691,-338.56 741.96,-375.2 767.37,-357 827,-376.56 849.9,-384.07 875.27,-393.68 894.8,-401.35"/>
<polygon fill="midnightblue" stroke="midnightblue" points="893.57,-404.63 904.16,-405.06 896.15,-398.12 893.57,-404.63"/>
</g>
<!-- Node435&#45;&gt;Node286 -->
<g id="edge58" class="edge">
<title>Node435&#45;&gt;Node286</title>
<path fill="none" stroke="midnightblue" d="M607.96,-253.1C623.94,-259.82 643.02,-270.37 655,-285.56 691.85,-332.31 658.93,-364.42 691,-414.56 701.83,-431.5 719.25,-446.1 733.61,-456.27"/>
<polygon fill="midnightblue" stroke="midnightblue" points="731.83,-459.3 742.07,-462.02 735.76,-453.51 731.83,-459.3"/>
</g>
<!-- Node435&#45;&gt;Node226 -->
<g id="edge68" class="edge">
<title>Node435&#45;&gt;Node226</title>
<path fill="none" stroke="midnightblue" d="M602.11,-253.19C633.49,-266.55 690.42,-290.79 726.11,-305.98"/>
<polygon fill="midnightblue" stroke="midnightblue" points="725,-309.32 735.58,-310.01 727.75,-302.88 725,-309.32"/>
</g>
<!-- Node435&#45;&gt;Node433 -->
<g id="edge59" class="edge">
<title>Node435&#45;&gt;Node433</title>
<path fill="none" stroke="midnightblue" d="M587.48,-234.06C604.57,-214.26 646.74,-168.24 691,-141.56 698,-137.34 705.85,-133.7 713.65,-130.63"/>
<polygon fill="midnightblue" stroke="midnightblue" points="714.9,-133.89 723.07,-127.15 712.48,-127.33 714.9,-133.89"/>
</g>
<!-- Node435&#45;&gt;Node435 -->
<g id="edge65" class="edge">
<title>Node435&#45;&gt;Node435</title>
<path fill="none" stroke="midnightblue" d="M550.76,-253.32C537.26,-262.13 546.51,-271.56 578.5,-271.56 600.49,-271.56 611.74,-267.1 612.23,-261.45"/>
<polygon fill="midnightblue" stroke="midnightblue" points="614.99,-259.3 606.24,-253.32 609.35,-263.45 614.99,-259.3"/>
</g>
<!-- Node339 -->
<g id="node28" class="node">
<title>Node339</title>
<g id="a_node28"><a xlink:href="quickjs_8c.html#a2f5aeb4e31e2001c555335ae5172165b" target="_top" xlink:title=" ">
<polygon fill="none" stroke="red" points="707,-386.06 707,-405.06 811,-405.06 811,-386.06 707,-386.06"/>
<text text-anchor="middle" x="759" y="-393.06" font-family="Helvetica,sans-Serif" font-size="10.00">js_get_module_ns</text>
</a>
</g>
</g>
<!-- Node435&#45;&gt;Node339 -->
<g id="edge61" class="edge">
<title>Node435&#45;&gt;Node339</title>
<path fill="none" stroke="midnightblue" d="M606.19,-253.19C622.14,-260.1 641.8,-270.81 655,-285.56 682.63,-316.44 660.94,-343.04 691,-371.56 695.25,-375.59 700.22,-378.96 705.5,-381.76"/>
<polygon fill="midnightblue" stroke="midnightblue" points="704.07,-384.95 714.62,-385.96 707,-378.59 704.07,-384.95"/>
</g>
<!-- Node347 -->
<g id="node29" class="node">
<title>Node347</title>
<g id="a_node29"><a xlink:href="quickjs_8c.html#a844d3c1554247d20a0cab7287e45173a" target="_top" xlink:title=" ">
<polygon fill="none" stroke="red" points="707.5,-234.06 707.5,-253.06 810.5,-253.06 810.5,-234.06 707.5,-234.06"/>
<text text-anchor="middle" x="759" y="-241.06" font-family="Helvetica,sans-Serif" font-size="10.00">js_resolve_export</text>
</a>
</g>
</g>
<!-- Node435&#45;&gt;Node347 -->
<g id="edge66" class="edge">
<title>Node435&#45;&gt;Node347</title>
<path fill="none" stroke="midnightblue" d="M623.62,-243.56C645.85,-243.56 673.13,-243.56 697.3,-243.56"/>
<polygon fill="midnightblue" stroke="midnightblue" points="697.44,-247.06 707.44,-243.56 697.44,-240.06 697.44,-247.06"/>
</g>
<!-- Node352 -->
<g id="node30" class="node">
<title>Node352</title>
<g id="a_node30"><a xlink:href="quickjs_8c.html#a0c56d4991dacd4cd61dddec1afa2703c" target="_top" xlink:title=" ">
<polygon fill="none" stroke="red" points="691,-184.56 691,-214.56 827,-214.56 827,-184.56 691,-184.56"/>
<text text-anchor="start" x="699" y="-202.56" font-family="Helvetica,sans-Serif" font-size="10.00">js_resolve_export_throw</text>
<text text-anchor="middle" x="759" y="-191.56" font-family="Helvetica,sans-Serif" font-size="10.00">_error</text>
</a>
</g>
</g>
<!-- Node435&#45;&gt;Node352 -->
<g id="edge67" class="edge">
<title>Node435&#45;&gt;Node352</title>
<path fill="none" stroke="midnightblue" d="M618.23,-234.01C638.33,-229.06 663.52,-222.85 686.96,-217.07"/>
<polygon fill="midnightblue" stroke="midnightblue" points="688.01,-220.42 696.88,-214.63 686.34,-213.62 688.01,-220.42"/>
</g>
<!-- Node339&#45;&gt;Node36 -->
<g id="edge62" class="edge">
<title>Node339&#45;&gt;Node36</title>
<path fill="none" stroke="midnightblue" d="M777.53,-405.25C793.33,-414.99 815.75,-431.56 827,-452.56 891.26,-572.49 799.88,-636.04 863,-756.56 872.01,-773.77 888.51,-788.2 902.56,-798.24"/>
<polygon fill="midnightblue" stroke="midnightblue" points="900.67,-801.18 910.91,-803.91 904.6,-795.39 900.67,-801.18"/>
</g>
<!-- Node339&#45;&gt;Node75 -->
<g id="edge63" class="edge">
<title>Node339&#45;&gt;Node75</title>
<path fill="none" stroke="midnightblue" d="M811.17,-401.37C831.33,-403.65 854.48,-406.28 874.79,-408.58"/>
<polygon fill="midnightblue" stroke="midnightblue" points="874.49,-412.07 884.82,-409.72 875.27,-405.12 874.49,-412.07"/>
</g>
</g>
</svg>
