<?xml version="1.0" encoding="UTF-8" standalone="no"?>
<!DOCTYPE svg PUBLIC "-//W3C//DTD SVG 1.1//EN"
 "http://www.w3.org/Graphics/SVG/1.1/DTD/svg11.dtd">
<!-- Generated by graphviz version 2.43.0 (0)
 -->
<!-- Title: handle_posted_message Pages: 1 -->
<svg width="903pt" height="904pt"
 viewBox="0.00 0.00 903.00 904.36" xmlns="http://www.w3.org/2000/svg" xmlns:xlink="http://www.w3.org/1999/xlink">
<g id="graph0" class="graph" transform="scale(1 1) rotate(0) translate(4 900.36)">
<title>handle_posted_message</title>
<!-- Node1 -->
<g id="node1" class="node">
<title>Node1</title>
<g id="a_node1"><a xlink:title=" ">
<polygon fill="#bfbfbf" stroke="black" points="0,-304.5 0,-323.5 137,-323.5 137,-304.5 0,-304.5"/>
<text text-anchor="middle" x="68.5" y="-311.5" font-family="Helvetica,sans-Serif" font-size="10.00">handle_posted_message</text>
</a>
</g>
</g>
<!-- Node2 -->
<g id="node2" class="node">
<title>Node2</title>
<g id="a_node2"><a xlink:href="quickjs_8c.html#a1a4c02a29525d5cb2085dd8bca3af350" target="_top" xlink:title=" ">
<polygon fill="none" stroke="black" points="197.5,-494.5 197.5,-513.5 247.5,-513.5 247.5,-494.5 197.5,-494.5"/>
<text text-anchor="middle" x="222.5" y="-501.5" font-family="Helvetica,sans-Serif" font-size="10.00">JS_Call</text>
</a>
</g>
</g>
<!-- Node1&#45;&gt;Node2 -->
<g id="edge1" class="edge">
<title>Node1&#45;&gt;Node2</title>
<path fill="none" stroke="midnightblue" d="M77.25,-323.68C101.43,-353.91 175.79,-446.86 207.23,-486.16"/>
<polygon fill="midnightblue" stroke="midnightblue" points="204.61,-488.49 213.59,-494.11 210.07,-484.11 204.61,-488.49"/>
</g>
<!-- Node36 -->
<g id="node9" class="node">
<title>Node36</title>
<g id="a_node9"><a xlink:href="quickjs_8h.html#a775522f2d084fc8fa0fcb33f390006b4" target="_top" xlink:title=" ">
<polygon fill="none" stroke="black" points="676,-760.5 676,-779.5 753,-779.5 753,-760.5 676,-760.5"/>
<text text-anchor="middle" x="714.5" y="-767.5" font-family="Helvetica,sans-Serif" font-size="10.00">JS_DupValue</text>
</a>
</g>
</g>
<!-- Node1&#45;&gt;Node36 -->
<g id="edge31" class="edge">
<title>Node1&#45;&gt;Node36</title>
<path fill="none" stroke="midnightblue" d="M70.46,-323.7C76.89,-383.16 119.5,-699.86 308,-827 420.58,-902.93 484.13,-887.79 613,-845 647.22,-833.64 679.23,-805.58 697.57,-787.19"/>
<polygon fill="midnightblue" stroke="midnightblue" points="700.55,-789.14 704.99,-779.52 695.52,-784.27 700.55,-789.14"/>
</g>
<!-- Node75 -->
<g id="node10" class="node">
<title>Node75</title>
<g id="a_node10"><a xlink:href="quickjs_8h.html#ad80a83d73e9b7d872b88fbf2943aebe9" target="_top" xlink:title=" ">
<polygon fill="none" stroke="black" points="671,-380.5 671,-399.5 758,-399.5 758,-380.5 671,-380.5"/>
<text text-anchor="middle" x="714.5" y="-387.5" font-family="Helvetica,sans-Serif" font-size="10.00">JS_IsException</text>
</a>
</g>
</g>
<!-- Node1&#45;&gt;Node75 -->
<g id="edge35" class="edge">
<title>Node1&#45;&gt;Node75</title>
<path fill="none" stroke="midnightblue" d="M82.07,-304.44C144.61,-258.12 426.73,-63.89 613,-181 680.9,-223.69 703.98,-326.49 710.88,-370"/>
<polygon fill="midnightblue" stroke="midnightblue" points="707.46,-370.77 712.36,-380.16 714.38,-369.76 707.46,-370.77"/>
</g>
<!-- Node57 -->
<g id="node13" class="node">
<title>Node57</title>
<g id="a_node13"><a xlink:href="quickjs_8h.html#afaa20c47565bc704c6c85f3d77254e7d" target="_top" xlink:title=" ">
<polygon fill="none" stroke="red" points="816,-114.5 816,-133.5 895,-133.5 895,-114.5 816,-114.5"/>
<text text-anchor="middle" x="855.5" y="-121.5" font-family="Helvetica,sans-Serif" font-size="10.00">JS_FreeValue</text>
</a>
</g>
</g>
<!-- Node1&#45;&gt;Node57 -->
<g id="edge34" class="edge">
<title>Node1&#45;&gt;Node57</title>
<path fill="none" stroke="midnightblue" d="M74.99,-304.48C88.67,-281.57 126.51,-222.84 173,-190 251.53,-134.53 282.86,-124 379,-124 379,-124 379,-124 551.5,-124 641.07,-124 745.54,-124 805.46,-124"/>
<polygon fill="midnightblue" stroke="midnightblue" points="805.76,-127.5 815.76,-124 805.76,-120.5 805.76,-127.5"/>
</g>
<!-- Node30 -->
<g id="node15" class="node">
<title>Node30</title>
<g id="a_node15"><a xlink:href="list_8h.html#ab60d5d18869ebeb5d6ab694289576fa7" target="_top" xlink:title=" ">
<polygon fill="none" stroke="black" points="688.5,-855.5 688.5,-874.5 740.5,-874.5 740.5,-855.5 688.5,-855.5"/>
<text text-anchor="middle" x="714.5" y="-862.5" font-family="Helvetica,sans-Serif" font-size="10.00">list_del</text>
</a>
</g>
</g>
<!-- Node1&#45;&gt;Node30 -->
<g id="edge49" class="edge">
<title>Node1&#45;&gt;Node30</title>
<path fill="none" stroke="midnightblue" d="M69.45,-323.54C69.67,-389.39 80.73,-776.42 308,-867 436.09,-918.05 605.55,-889.81 678.09,-873.73"/>
<polygon fill="midnightblue" stroke="midnightblue" points="679.1,-877.09 688.08,-871.46 677.55,-870.26 679.1,-877.09"/>
</g>
<!-- Node415 -->
<g id="node18" class="node">
<title>Node415</title>
<g id="a_node18"><a xlink:href="quickjs_8c.html#afc0d8ea75588216ec132a6e1655524a7" target="_top" xlink:title=" ">
<polygon fill="none" stroke="red" points="508.5,-342.5 508.5,-361.5 592.5,-361.5 592.5,-342.5 508.5,-342.5"/>
<text text-anchor="middle" x="550.5" y="-349.5" font-family="Helvetica,sans-Serif" font-size="10.00">JS_NewObject</text>
</a>
</g>
</g>
<!-- Node1&#45;&gt;Node415 -->
<g id="edge36" class="edge">
<title>Node1&#45;&gt;Node415</title>
<path fill="none" stroke="midnightblue" d="M134.57,-323.52C147.29,-325.18 160.55,-326.76 173,-328 289.01,-339.53 425.71,-346.63 498.25,-349.88"/>
<polygon fill="midnightblue" stroke="midnightblue" points="498.33,-353.39 508.47,-350.34 498.64,-346.4 498.33,-353.39"/>
</g>
<!-- Node436 -->
<g id="node19" class="node">
<title>Node436</title>
<g id="a_node19"><a xlink:href="list_8h.html#acc8877b883e77ef12325dd5bfa4be0d3" target="_top" xlink:title=" ">
<polygon fill="none" stroke="black" points="516.5,-304.5 516.5,-323.5 584.5,-323.5 584.5,-304.5 516.5,-304.5"/>
<text text-anchor="middle" x="550.5" y="-311.5" font-family="Helvetica,sans-Serif" font-size="10.00">list_empty</text>
</a>
</g>
</g>
<!-- Node1&#45;&gt;Node436 -->
<g id="edge50" class="edge">
<title>Node1&#45;&gt;Node436</title>
<path fill="none" stroke="midnightblue" d="M137,-314C237.17,-314 422.33,-314 506.21,-314"/>
<polygon fill="midnightblue" stroke="midnightblue" points="506.4,-317.5 516.4,-314 506.4,-310.5 506.4,-317.5"/>
</g>
<!-- Node437 -->
<g id="node20" class="node">
<title>Node437</title>
<g id="a_node20"><a xlink:href="quickjs_8c.html#a841f4cb887e4d9e03e94a0697255e578" target="_top" xlink:title=" ">
<polygon fill="none" stroke="black" points="308,-228.5 308,-247.5 452,-247.5 452,-228.5 308,-228.5"/>
<text text-anchor="middle" x="380" y="-235.5" font-family="Helvetica,sans-Serif" font-size="10.00">JS_DefinePropertyValueStr</text>
</a>
</g>
</g>
<!-- Node1&#45;&gt;Node437 -->
<g id="edge27" class="edge">
<title>Node1&#45;&gt;Node437</title>
<path fill="none" stroke="midnightblue" d="M108.39,-304.45C164.67,-290.63 268.82,-265.06 330.19,-249.98"/>
<polygon fill="midnightblue" stroke="midnightblue" points="331.15,-253.35 340.03,-247.57 329.48,-246.55 331.15,-253.35"/>
</g>
<!-- Node438 -->
<g id="node22" class="node">
<title>Node438</title>
<g id="a_node22"><a xlink:href="quickjs-libc_8c.html#a787c84066ba712c7487df7459615276f" target="_top" xlink:title=" ">
<polygon fill="none" stroke="black" points="173,-38.5 173,-57.5 272,-57.5 272,-38.5 173,-38.5"/>
<text text-anchor="middle" x="222.5" y="-45.5" font-family="Helvetica,sans-Serif" font-size="10.00">js_free_message</text>
</a>
</g>
</g>
<!-- Node1&#45;&gt;Node438 -->
<g id="edge32" class="edge">
<title>Node1&#45;&gt;Node438</title>
<path fill="none" stroke="midnightblue" d="M71.14,-304.37C77.62,-268.97 104.54,-144.36 173,-72 176.41,-68.39 180.48,-65.25 184.79,-62.54"/>
<polygon fill="midnightblue" stroke="midnightblue" points="186.77,-65.45 193.85,-57.56 183.4,-59.31 186.77,-65.45"/>
</g>
<!-- Node441 -->
<g id="node24" class="node">
<title>Node441</title>
<g id="a_node24"><a xlink:href="quickjs_8c.html#a12be2ea9c010752715072489497594e9" target="_top" xlink:title=" ">
<polygon fill="none" stroke="black" points="179,-541.5 179,-560.5 266,-560.5 266,-541.5 179,-541.5"/>
<text text-anchor="middle" x="222.5" y="-548.5" font-family="Helvetica,sans-Serif" font-size="10.00">JS_ReadObject</text>
</a>
</g>
</g>
<!-- Node1&#45;&gt;Node441 -->
<g id="edge37" class="edge">
<title>Node1&#45;&gt;Node441</title>
<path fill="none" stroke="midnightblue" d="M72.16,-323.93C81.22,-356.22 113.71,-459.81 173,-523 177.83,-528.15 183.81,-532.62 189.92,-536.4"/>
<polygon fill="midnightblue" stroke="midnightblue" points="188.39,-539.56 198.82,-541.42 191.83,-533.46 188.39,-539.56"/>
</g>
<!-- Node495 -->
<g id="node28" class="node">
<title>Node495</title>
<g id="a_node28"><a xlink:href="quickjs-libc_8c.html#a82bb7888d024e97e430d98653e97a7bc" target="_top" xlink:title=" ">
<polygon fill="none" stroke="black" points="497,-57.5 497,-76.5 604,-76.5 604,-57.5 497,-57.5"/>
<text text-anchor="middle" x="550.5" y="-64.5" font-family="Helvetica,sans-Serif" font-size="10.00">js_std_dump_error</text>
</a>
</g>
</g>
<!-- Node1&#45;&gt;Node495 -->
<g id="edge44" class="edge">
<title>Node1&#45;&gt;Node495</title>
<path fill="none" stroke="midnightblue" d="M71.13,-304.2C77.31,-270.53 102.57,-158.97 173,-110 222.33,-75.7 392.93,-68.46 486.64,-67.12"/>
<polygon fill="midnightblue" stroke="midnightblue" points="486.89,-70.62 496.84,-66.99 486.8,-63.62 486.89,-70.62"/>
</g>
<!-- Node3 -->
<g id="node3" class="node">
<title>Node3</title>
<g id="a_node3"><a xlink:href="quickjs_8c.html#ac2894ff4edcdb4e6841bcce9c76081e3" target="_top" xlink:title=" ">
<polygon fill="none" stroke="red" points="336.5,-494.5 336.5,-513.5 423.5,-513.5 423.5,-494.5 336.5,-494.5"/>
<text text-anchor="middle" x="380" y="-501.5" font-family="Helvetica,sans-Serif" font-size="10.00">JS_CallInternal</text>
</a>
</g>
</g>
<!-- Node2&#45;&gt;Node3 -->
<g id="edge2" class="edge">
<title>Node2&#45;&gt;Node3</title>
<path fill="none" stroke="midnightblue" d="M247.8,-498.94C268.69,-497.33 299.55,-496.87 326.1,-497.57"/>
<polygon fill="midnightblue" stroke="midnightblue" points="326.3,-501.07 336.41,-497.91 326.53,-494.08 326.3,-501.07"/>
</g>
<!-- Node3&#45;&gt;Node2 -->
<g id="edge18" class="edge">
<title>Node3&#45;&gt;Node2</title>
<path fill="none" stroke="midnightblue" d="M336.41,-510.09C311.7,-511.08 281,-510.95 257.85,-509.71"/>
<polygon fill="midnightblue" stroke="midnightblue" points="258,-506.21 247.8,-509.06 257.55,-513.2 258,-506.21"/>
</g>
<!-- Node3&#45;&gt;Node3 -->
<g id="edge19" class="edge">
<title>Node3&#45;&gt;Node3</title>
<path fill="none" stroke="midnightblue" d="M355.96,-513.76C344.26,-522.57 352.27,-532 380,-532 398.2,-532 407.9,-527.94 409.12,-522.65"/>
<polygon fill="midnightblue" stroke="midnightblue" points="412.04,-520.71 404.04,-513.76 405.96,-524.18 412.04,-520.71"/>
</g>
<!-- Node4 -->
<g id="node4" class="node">
<title>Node4</title>
<g id="a_node4"><a xlink:href="quickjs_8c.html#a853f0924d441ea4225488f37c8b69f9a" target="_top" xlink:title=" ">
<polygon fill="none" stroke="black" points="674.5,-428.5 674.5,-447.5 754.5,-447.5 754.5,-428.5 674.5,-428.5"/>
<text text-anchor="middle" x="714.5" y="-435.5" font-family="Helvetica,sans-Serif" font-size="10.00">__attribute__</text>
</a>
</g>
</g>
<!-- Node3&#45;&gt;Node4 -->
<g id="edge3" class="edge">
<title>Node3&#45;&gt;Node4</title>
<path fill="none" stroke="midnightblue" d="M394.35,-494.31C413.81,-480.8 451.64,-456.86 488,-447 547.06,-430.99 618,-431.17 664.33,-433.74"/>
<polygon fill="midnightblue" stroke="midnightblue" points="664.21,-437.24 674.4,-434.36 664.64,-430.25 664.21,-437.24"/>
</g>
<!-- Node5 -->
<g id="node5" class="node">
<title>Node5</title>
<g id="a_node5"><a xlink:href="quickjs_8c.html#a877fcb7651d95b411ce70e62b7f4a1f0" target="_top" xlink:title=" ">
<polygon fill="none" stroke="black" points="488,-570.5 488,-589.5 613,-589.5 613,-570.5 488,-570.5"/>
<text text-anchor="middle" x="550.5" y="-577.5" font-family="Helvetica,sans-Serif" font-size="10.00">__JS_AtomFromUInt32</text>
</a>
</g>
</g>
<!-- Node3&#45;&gt;Node5 -->
<g id="edge4" class="edge">
<title>Node3&#45;&gt;Node5</title>
<path fill="none" stroke="midnightblue" d="M399.73,-513.67C420.92,-524.48 456.59,-542.26 488,-556 496.39,-559.67 505.54,-563.39 514.15,-566.77"/>
<polygon fill="midnightblue" stroke="midnightblue" points="512.99,-570.07 523.58,-570.41 515.52,-563.54 512.99,-570.07"/>
</g>
<!-- Node6 -->
<g id="node6" class="node">
<title>Node6</title>
<g id="a_node6"><a xlink:href="quickjs_8h.html#a9bf98b18de88b4199910a43e933eb97d" target="_top" xlink:title=" ">
<polygon fill="none" stroke="black" points="500.5,-798.5 500.5,-817.5 600.5,-817.5 600.5,-798.5 500.5,-798.5"/>
<text text-anchor="middle" x="550.5" y="-805.5" font-family="Helvetica,sans-Serif" font-size="10.00">__JS_NewFloat64</text>
</a>
</g>
</g>
<!-- Node3&#45;&gt;Node6 -->
<g id="edge5" class="edge">
<title>Node3&#45;&gt;Node6</title>
<path fill="none" stroke="midnightblue" d="M413.84,-513.6C427.75,-519.33 442.83,-528.08 452,-541 516.47,-631.82 415.6,-704.37 488,-789 489.17,-790.37 490.44,-791.65 491.79,-792.83"/>
<polygon fill="midnightblue" stroke="midnightblue" points="490.06,-795.89 500.28,-798.67 494.03,-790.12 490.06,-795.89"/>
</g>
<!-- Node7 -->
<g id="node7" class="node">
<title>Node7</title>
<g id="a_node7"><a xlink:href="quickjs_8c.html#a74547db03bf739a52c83a326b32db997" target="_top" xlink:title=" ">
<polygon fill="none" stroke="red" points="510,-684.5 510,-703.5 591,-703.5 591,-684.5 510,-684.5"/>
<text text-anchor="middle" x="550.5" y="-691.5" font-family="Helvetica,sans-Serif" font-size="10.00">add_property</text>
</a>
</g>
</g>
<!-- Node3&#45;&gt;Node7 -->
<g id="edge6" class="edge">
<title>Node3&#45;&gt;Node7</title>
<path fill="none" stroke="midnightblue" d="M411.7,-513.51C425.85,-519.35 441.73,-528.21 452,-541 490.6,-589.09 445.21,-630.59 488,-675 491.59,-678.73 495.9,-681.73 500.54,-684.14"/>
<polygon fill="midnightblue" stroke="midnightblue" points="499.21,-687.38 509.78,-688.1 501.97,-680.95 499.21,-687.38"/>
</g>
<!-- Node65 -->
<g id="node8" class="node">
<title>Node65</title>
<g id="a_node8"><a xlink:href="quickjs_8c.html#a4956f45ffd2849b96dc051277264f87a" target="_top" xlink:title=" ">
<polygon fill="none" stroke="red" points="509.5,-456.5 509.5,-475.5 591.5,-475.5 591.5,-456.5 509.5,-456.5"/>
<text text-anchor="middle" x="550.5" y="-463.5" font-family="Helvetica,sans-Serif" font-size="10.00">build_arg_list</text>
</a>
</g>
</g>
<!-- Node3&#45;&gt;Node65 -->
<g id="edge7" class="edge">
<title>Node3&#45;&gt;Node65</title>
<path fill="none" stroke="midnightblue" d="M423.52,-494.41C446.55,-489.22 475.15,-482.77 499.28,-477.33"/>
<polygon fill="midnightblue" stroke="midnightblue" points="500.33,-480.68 509.31,-475.06 498.79,-473.85 500.33,-480.68"/>
</g>
<!-- Node3&#45;&gt;Node36 -->
<g id="edge21" class="edge">
<title>Node3&#45;&gt;Node36</title>
<path fill="none" stroke="midnightblue" d="M412.74,-513.56C426.77,-519.35 442.26,-528.15 452,-541 499.16,-603.25 433.93,-656.65 488,-713 500.35,-725.87 603.04,-748.12 665.51,-760.68"/>
<polygon fill="midnightblue" stroke="midnightblue" points="665.05,-764.16 675.55,-762.68 666.42,-757.29 665.05,-764.16"/>
</g>
<!-- Node3&#45;&gt;Node75 -->
<g id="edge24" class="edge">
<title>Node3&#45;&gt;Node75</title>
<path fill="none" stroke="midnightblue" d="M390.97,-494.49C408.85,-478.04 448.21,-444.46 488,-428 544.1,-404.79 613.65,-395.75 660.56,-392.23"/>
<polygon fill="midnightblue" stroke="midnightblue" points="661.06,-395.71 670.8,-391.52 660.58,-388.72 661.06,-395.71"/>
</g>
<!-- Node161 -->
<g id="node11" class="node">
<title>Node161</title>
<g id="a_node11"><a xlink:href="quickjs_8c.html#a61c8dfb5e807af1b6ff7d8ca61576dda" target="_top" xlink:title=" ">
<polygon fill="none" stroke="red" points="503.5,-494.5 503.5,-513.5 597.5,-513.5 597.5,-494.5 503.5,-494.5"/>
<text text-anchor="middle" x="550.5" y="-501.5" font-family="Helvetica,sans-Serif" font-size="10.00">build_backtrace</text>
</a>
</g>
</g>
<!-- Node3&#45;&gt;Node161 -->
<g id="edge11" class="edge">
<title>Node3&#45;&gt;Node161</title>
<path fill="none" stroke="midnightblue" d="M423.52,-504C444.66,-504 470.48,-504 493.23,-504"/>
<polygon fill="midnightblue" stroke="midnightblue" points="493.44,-507.5 503.44,-504 493.44,-500.5 493.44,-507.5"/>
</g>
<!-- Node178 -->
<g id="node12" class="node">
<title>Node178</title>
<g id="a_node12"><a xlink:href="quickjs_8c.html#a0a8765bd4012467d9139bc24aabcb3ca" target="_top" xlink:title=" ">
<polygon fill="none" stroke="red" points="649,-475.5 649,-494.5 780,-494.5 780,-475.5 649,-475.5"/>
<text text-anchor="middle" x="714.5" y="-482.5" font-family="Helvetica,sans-Serif" font-size="10.00">JS_DefinePropertyValue</text>
</a>
</g>
</g>
<!-- Node3&#45;&gt;Node178 -->
<g id="edge20" class="edge">
<title>Node3&#45;&gt;Node178</title>
<path fill="none" stroke="midnightblue" d="M420.72,-513.52C467.17,-523.21 546.21,-535.2 613,-523 638.27,-518.38 665.44,-507.73 685.15,-498.88"/>
<polygon fill="midnightblue" stroke="midnightblue" points="686.84,-501.95 694.46,-494.58 683.91,-495.6 686.84,-501.95"/>
</g>
<!-- Node3&#45;&gt;Node57 -->
<g id="edge23" class="edge">
<title>Node3&#45;&gt;Node57</title>
<path fill="none" stroke="midnightblue" d="M407.06,-513.57C421.48,-519.8 439.06,-529 452,-541 474.24,-561.63 461.49,-584.25 488,-599 607.26,-665.34 700.31,-614.79 780,-504 822.58,-444.81 846.49,-213.08 852.8,-143.72"/>
<polygon fill="midnightblue" stroke="midnightblue" points="856.29,-143.97 853.69,-133.7 849.32,-143.36 856.29,-143.97"/>
</g>
<!-- Node248 -->
<g id="node14" class="node">
<title>Node248</title>
<g id="a_node14"><a xlink:href="quickjs_8c.html#a344894112559c2ba75043fd10bcfa02f" target="_top" xlink:title=" ">
<polygon fill="none" stroke="red" points="500,-760.5 500,-779.5 601,-779.5 601,-760.5 500,-760.5"/>
<text text-anchor="middle" x="550.5" y="-767.5" font-family="Helvetica,sans-Serif" font-size="10.00">close_lexical_var</text>
</a>
</g>
</g>
<!-- Node3&#45;&gt;Node248 -->
<g id="edge14" class="edge">
<title>Node3&#45;&gt;Node248</title>
<path fill="none" stroke="midnightblue" d="M413.29,-513.57C427.27,-519.33 442.56,-528.1 452,-541 506.66,-615.63 429.38,-674.44 488,-746 491.06,-749.74 494.78,-752.9 498.86,-755.56"/>
<polygon fill="midnightblue" stroke="midnightblue" points="497.19,-758.64 507.65,-760.38 500.56,-752.5 497.19,-758.64"/>
</g>
<!-- Node249 -->
<g id="node16" class="node">
<title>Node249</title>
<g id="a_node16"><a xlink:href="quickjs_8c.html#a1782043fce951bd4f0d91c7796b31e24" target="_top" xlink:title=" ">
<polygon fill="none" stroke="red" points="507,-646.5 507,-665.5 594,-665.5 594,-646.5 507,-646.5"/>
<text text-anchor="middle" x="550.5" y="-653.5" font-family="Helvetica,sans-Serif" font-size="10.00">close_var_refs</text>
</a>
</g>
</g>
<!-- Node3&#45;&gt;Node249 -->
<g id="edge17" class="edge">
<title>Node3&#45;&gt;Node249</title>
<path fill="none" stroke="midnightblue" d="M410.02,-513.59C424.26,-519.56 440.74,-528.51 452,-541 481.12,-573.31 457.17,-601.32 488,-632 491.96,-635.94 496.64,-639.25 501.63,-642.03"/>
<polygon fill="midnightblue" stroke="midnightblue" points="500.31,-645.28 510.84,-646.47 503.35,-638.98 500.31,-645.28"/>
</g>
<!-- Node56 -->
<g id="node17" class="node">
<title>Node56</title>
<g id="a_node17"><a xlink:href="quickjs_8c.html#ab7fc45a99935a1c0ba50b0216d9401a9" target="_top" xlink:title=" ">
<polygon fill="none" stroke="red" points="511.5,-266.5 511.5,-285.5 589.5,-285.5 589.5,-266.5 511.5,-266.5"/>
<text text-anchor="middle" x="550.5" y="-273.5" font-family="Helvetica,sans-Serif" font-size="10.00">JS_FreeAtom</text>
</a>
</g>
</g>
<!-- Node3&#45;&gt;Node56 -->
<g id="edge22" class="edge">
<title>Node3&#45;&gt;Node56</title>
<path fill="none" stroke="midnightblue" d="M383.08,-494.43C390.76,-461.49 420.58,-351.63 488,-295 492.07,-291.58 496.74,-288.78 501.66,-286.48"/>
<polygon fill="midnightblue" stroke="midnightblue" points="503.32,-289.59 511.33,-282.65 500.74,-283.08 503.32,-289.59"/>
</g>
<!-- Node3&#45;&gt;Node415 -->
<g id="edge25" class="edge">
<title>Node3&#45;&gt;Node415</title>
<path fill="none" stroke="midnightblue" d="M386.72,-494.23C400.95,-470.7 440.26,-410.32 488,-376 493.63,-371.95 500.03,-368.48 506.52,-365.54"/>
<polygon fill="midnightblue" stroke="midnightblue" points="508.13,-368.66 516.02,-361.59 505.45,-362.19 508.13,-368.66"/>
</g>
<!-- Node3&#45;&gt;Node436 -->
<g id="edge26" class="edge">
<title>Node3&#45;&gt;Node436</title>
<path fill="none" stroke="midnightblue" d="M384.33,-494.18C394.72,-465 429.43,-378.05 488,-333 493.53,-328.74 500.03,-325.43 506.69,-322.86"/>
<polygon fill="midnightblue" stroke="midnightblue" points="508.09,-326.08 516.47,-319.59 505.88,-319.44 508.09,-326.08"/>
</g>
<!-- Node65&#45;&gt;Node4 -->
<g id="edge8" class="edge">
<title>Node65&#45;&gt;Node4</title>
<path fill="none" stroke="midnightblue" d="M591.54,-459.08C613.58,-455.27 641.11,-450.51 664.43,-446.48"/>
<polygon fill="midnightblue" stroke="midnightblue" points="665.22,-449.9 674.47,-444.75 664.02,-443 665.22,-449.9"/>
</g>
<!-- Node65&#45;&gt;Node36 -->
<g id="edge9" class="edge">
<title>Node65&#45;&gt;Node36</title>
<path fill="none" stroke="midnightblue" d="M591.52,-472.46C599.38,-475.26 607.04,-479.27 613,-485 690.88,-559.88 708.5,-698.7 712.41,-750.15"/>
<polygon fill="midnightblue" stroke="midnightblue" points="708.92,-750.51 713.08,-760.26 715.91,-750.04 708.92,-750.51"/>
</g>
<!-- Node65&#45;&gt;Node75 -->
<g id="edge10" class="edge">
<title>Node65&#45;&gt;Node75</title>
<path fill="none" stroke="midnightblue" d="M570.85,-456.48C590.47,-446.88 621.75,-431.69 649,-419 659.91,-413.92 671.92,-408.48 682.58,-403.7"/>
<polygon fill="midnightblue" stroke="midnightblue" points="684.23,-406.8 691.93,-399.52 681.38,-400.41 684.23,-406.8"/>
</g>
<!-- Node161&#45;&gt;Node178 -->
<g id="edge12" class="edge">
<title>Node161&#45;&gt;Node178</title>
<path fill="none" stroke="midnightblue" d="M597.92,-498.56C610.71,-497.06 624.92,-495.39 638.87,-493.75"/>
<polygon fill="midnightblue" stroke="midnightblue" points="639.44,-497.21 648.96,-492.57 638.62,-490.26 639.44,-497.21"/>
</g>
<!-- Node178&#45;&gt;Node57 -->
<g id="edge13" class="edge">
<title>Node178&#45;&gt;Node57</title>
<path fill="none" stroke="midnightblue" d="M753.2,-475.49C763.17,-471.31 773.08,-465.37 780,-457 820.41,-408.1 845.35,-207.95 852.42,-143.85"/>
<polygon fill="midnightblue" stroke="midnightblue" points="855.94,-143.85 853.53,-133.53 848.98,-143.1 855.94,-143.85"/>
</g>
<!-- Node248&#45;&gt;Node36 -->
<g id="edge15" class="edge">
<title>Node248&#45;&gt;Node36</title>
<path fill="none" stroke="midnightblue" d="M601.43,-770C621.85,-770 645.38,-770 665.6,-770"/>
<polygon fill="midnightblue" stroke="midnightblue" points="665.83,-773.5 675.83,-770 665.83,-766.5 665.83,-773.5"/>
</g>
<!-- Node248&#45;&gt;Node30 -->
<g id="edge16" class="edge">
<title>Node248&#45;&gt;Node30</title>
<path fill="none" stroke="midnightblue" d="M589.72,-779.54C597.62,-782.14 605.74,-785.28 613,-789 644.71,-805.25 676.76,-831.59 695.87,-848.6"/>
<polygon fill="midnightblue" stroke="midnightblue" points="693.7,-851.36 703.47,-855.48 698.4,-846.17 693.7,-851.36"/>
</g>
<!-- Node437&#45;&gt;Node178 -->
<g id="edge28" class="edge">
<title>Node437&#45;&gt;Node178</title>
<path fill="none" stroke="midnightblue" d="M418.95,-228.49C469.92,-218.19 560.19,-209.05 613,-257 679.87,-317.71 592.94,-386.19 649,-457 653.53,-462.72 659.47,-467.3 665.9,-470.96"/>
<polygon fill="midnightblue" stroke="midnightblue" points="664.39,-474.11 674.9,-475.39 667.48,-467.83 664.39,-474.11"/>
</g>
<!-- Node437&#45;&gt;Node56 -->
<g id="edge29" class="edge">
<title>Node437&#45;&gt;Node56</title>
<path fill="none" stroke="midnightblue" d="M423.52,-247.59C447.26,-252.94 476.9,-259.63 501.47,-265.17"/>
<polygon fill="midnightblue" stroke="midnightblue" points="500.79,-268.6 511.31,-267.39 502.33,-261.77 500.79,-268.6"/>
</g>
<!-- Node368 -->
<g id="node21" class="node">
<title>Node368</title>
<g id="a_node21"><a xlink:href="quickjs_8c.html#aa2ef5af1544a3012f91a80c98c326b8f" target="_top" xlink:title=" ">
<polygon fill="none" stroke="red" points="511,-190.5 511,-209.5 590,-209.5 590,-190.5 511,-190.5"/>
<text text-anchor="middle" x="550.5" y="-197.5" font-family="Helvetica,sans-Serif" font-size="10.00">JS_NewAtom</text>
</a>
</g>
</g>
<!-- Node437&#45;&gt;Node368 -->
<g id="edge30" class="edge">
<title>Node437&#45;&gt;Node368</title>
<path fill="none" stroke="midnightblue" d="M423.52,-228.41C447.08,-223.1 476.47,-216.47 500.94,-210.95"/>
<polygon fill="midnightblue" stroke="midnightblue" points="501.76,-214.35 510.74,-208.74 500.22,-207.53 501.76,-214.35"/>
</g>
<!-- Node439 -->
<g id="node23" class="node">
<title>Node439</title>
<g id="a_node23"><a xlink:href="quickjs-libc_8c.html#ad959df16227c19d0348cc639ccde3e5f" target="_top" xlink:title=" ">
<polygon fill="none" stroke="red" points="344,-38.5 344,-57.5 416,-57.5 416,-38.5 344,-38.5"/>
<text text-anchor="middle" x="380" y="-45.5" font-family="Helvetica,sans-Serif" font-size="10.00">js_sab_free</text>
</a>
</g>
</g>
<!-- Node438&#45;&gt;Node439 -->
<g id="edge33" class="edge">
<title>Node438&#45;&gt;Node439</title>
<path fill="none" stroke="midnightblue" d="M272.27,-48C291.9,-48 314.41,-48 333.68,-48"/>
<polygon fill="midnightblue" stroke="midnightblue" points="333.72,-51.5 343.72,-48 333.72,-44.5 333.72,-51.5"/>
</g>
<!-- Node442 -->
<g id="node25" class="node">
<title>Node442</title>
<g id="a_node25"><a xlink:href="quickjs_8c.html#a3a3b14bcdcb10fcf1a666d55a3817a8c" target="_top" xlink:title=" ">
<polygon fill="none" stroke="red" points="335.5,-266.5 335.5,-285.5 424.5,-285.5 424.5,-266.5 335.5,-266.5"/>
<text text-anchor="middle" x="380" y="-273.5" font-family="Helvetica,sans-Serif" font-size="10.00">bc_reader_free</text>
</a>
</g>
</g>
<!-- Node441&#45;&gt;Node442 -->
<g id="edge38" class="edge">
<title>Node441&#45;&gt;Node442</title>
<path fill="none" stroke="midnightblue" d="M246.88,-541.35C255.65,-536.82 265.14,-530.69 272,-523 334.49,-452.89 364.81,-340.64 374.96,-295.62"/>
<polygon fill="midnightblue" stroke="midnightblue" points="378.41,-296.2 377.11,-285.68 371.57,-294.72 378.41,-296.2"/>
</g>
<!-- Node443 -->
<g id="node26" class="node">
<title>Node443</title>
<g id="a_node26"><a xlink:href="quickjs_8c.html#ad54b242d774ba44b2ac39fe8161aaf9c" target="_top" xlink:title=" ">
<polygon fill="none" stroke="red" points="320.5,-550.5 320.5,-569.5 439.5,-569.5 439.5,-550.5 320.5,-550.5"/>
<text text-anchor="middle" x="380" y="-557.5" font-family="Helvetica,sans-Serif" font-size="10.00">JS_ReadObjectAtoms</text>
</a>
</g>
</g>
<!-- Node441&#45;&gt;Node443 -->
<g id="edge40" class="edge">
<title>Node441&#45;&gt;Node443</title>
<path fill="none" stroke="midnightblue" d="M266.4,-553.48C279.92,-554.27 295.2,-555.15 310.05,-556.01"/>
<polygon fill="midnightblue" stroke="midnightblue" points="310.05,-559.51 320.23,-556.6 310.45,-552.53 310.05,-559.51"/>
</g>
<!-- Node448 -->
<g id="node27" class="node">
<title>Node448</title>
<g id="a_node27"><a xlink:href="quickjs_8c.html#a4b8ef2bb3b35e4a5f6ed8bd837a50e7c" target="_top" xlink:title=" ">
<polygon fill="none" stroke="red" points="327.5,-798.5 327.5,-817.5 432.5,-817.5 432.5,-798.5 327.5,-798.5"/>
<text text-anchor="middle" x="380" y="-805.5" font-family="Helvetica,sans-Serif" font-size="10.00">JS_ReadObjectRec</text>
</a>
</g>
</g>
<!-- Node441&#45;&gt;Node448 -->
<g id="edge41" class="edge">
<title>Node441&#45;&gt;Node448</title>
<path fill="none" stroke="midnightblue" d="M229.41,-560.76C252.55,-599.01 337.27,-739.03 367.88,-789.61"/>
<polygon fill="midnightblue" stroke="midnightblue" points="364.92,-791.49 373.09,-798.23 370.91,-787.86 364.92,-791.49"/>
</g>
<!-- Node442&#45;&gt;Node56 -->
<g id="edge39" class="edge">
<title>Node442&#45;&gt;Node56</title>
<path fill="none" stroke="midnightblue" d="M424.83,-276C448.19,-276 476.98,-276 501.01,-276"/>
<polygon fill="midnightblue" stroke="midnightblue" points="501.33,-279.5 511.33,-276 501.33,-272.5 501.33,-279.5"/>
</g>
<!-- Node448&#45;&gt;Node6 -->
<g id="edge42" class="edge">
<title>Node448&#45;&gt;Node6</title>
<path fill="none" stroke="midnightblue" d="M432.93,-808C451.04,-808 471.5,-808 490.17,-808"/>
<polygon fill="midnightblue" stroke="midnightblue" points="490.33,-811.5 500.33,-808 490.33,-804.5 490.33,-811.5"/>
</g>
<!-- Node448&#45;&gt;Node36 -->
<g id="edge43" class="edge">
<title>Node448&#45;&gt;Node36</title>
<path fill="none" stroke="midnightblue" d="M413.89,-817.52C459.41,-829.18 543.84,-845.25 613,-827 643.27,-819.01 673.99,-799.57 693.36,-785.62"/>
<polygon fill="midnightblue" stroke="midnightblue" points="695.46,-788.42 701.42,-779.65 691.3,-782.79 695.46,-788.42"/>
</g>
<!-- Node495&#45;&gt;Node57 -->
<g id="edge45" class="edge">
<title>Node495&#45;&gt;Node57</title>
<path fill="none" stroke="midnightblue" d="M604.32,-57.61C651.66,-51.36 722.32,-47.47 780,-67 803.21,-74.86 824.87,-93.17 838.79,-106.93"/>
<polygon fill="midnightblue" stroke="midnightblue" points="836.56,-109.66 846.04,-114.4 841.58,-104.79 836.56,-109.66"/>
</g>
<!-- Node353 -->
<g id="node29" class="node">
<title>Node353</title>
<g id="a_node29"><a xlink:href="quickjs_8c.html#a8551eaac7ef616910807cebdc515760d" target="_top" xlink:title=" ">
<polygon fill="none" stroke="black" points="666.5,-76.5 666.5,-95.5 762.5,-95.5 762.5,-76.5 666.5,-76.5"/>
<text text-anchor="middle" x="714.5" y="-83.5" font-family="Helvetica,sans-Serif" font-size="10.00">JS_GetException</text>
</a>
</g>
</g>
<!-- Node495&#45;&gt;Node353 -->
<g id="edge46" class="edge">
<title>Node495&#45;&gt;Node353</title>
<path fill="none" stroke="midnightblue" d="M604.1,-73.17C620.7,-75.12 639.12,-77.28 656.05,-79.26"/>
<polygon fill="midnightblue" stroke="midnightblue" points="656.02,-82.78 666.36,-80.47 656.84,-75.83 656.02,-82.78"/>
</g>
<!-- Node496 -->
<g id="node30" class="node">
<title>Node496</title>
<g id="a_node30"><a xlink:href="quickjs-libc_8c.html#a410cd5dce0fb0e6a978ed313963f3962" target="_top" xlink:title=" ">
<polygon fill="none" stroke="red" points="658,-0.5 658,-19.5 771,-19.5 771,-0.5 658,-0.5"/>
<text text-anchor="middle" x="714.5" y="-7.5" font-family="Helvetica,sans-Serif" font-size="10.00">js_std_dump_error1</text>
</a>
</g>
</g>
<!-- Node495&#45;&gt;Node496 -->
<g id="edge47" class="edge">
<title>Node495&#45;&gt;Node496</title>
<path fill="none" stroke="midnightblue" d="M578.62,-57.46C605.48,-48.01 646.82,-33.46 676.66,-22.96"/>
<polygon fill="midnightblue" stroke="midnightblue" points="678.02,-26.19 686.3,-19.57 675.7,-19.59 678.02,-26.19"/>
</g>
<!-- Node496&#45;&gt;Node57 -->
<g id="edge48" class="edge">
<title>Node496&#45;&gt;Node57</title>
<path fill="none" stroke="midnightblue" d="M751.3,-19.57C761.13,-23.17 771.43,-27.91 780,-34 807.55,-53.58 830.8,-85.79 843.67,-105.9"/>
<polygon fill="midnightblue" stroke="midnightblue" points="840.73,-107.81 848.98,-114.45 846.68,-104.11 840.73,-107.81"/>
</g>
</g>
</svg>
