<?xml version="1.0" encoding="UTF-8" standalone="no"?>
<!DOCTYPE svg PUBLIC "-//W3C//DTD SVG 1.1//EN"
 "http://www.w3.org/Graphics/SVG/1.1/DTD/svg11.dtd">
<!-- Generated by graphviz version 2.43.0 (0)
 -->
<!-- Title: js_async_generator_function_call Pages: 1 -->
<!--zoomable 1073 -->
<svg id="main" version="1.1" xmlns="http://www.w3.org/2000/svg" xmlns:xlink="http://www.w3.org/1999/xlink" xml:space="preserve" onload="init(evt)">
<style type="text/css"><![CDATA[
.edge:hover path { stroke: red; }
.edge:hover polygon { stroke: red; fill: red; }
]]></style>
<script type="text/javascript"><![CDATA[
var edges = document.getElementsByTagName('g');
if (edges && edges.length) {
  for (var i=0;i<edges.length;i++) {
    if (edges[i].id.substr(0,4)=='edge') {
      edges[i].setAttribute('class','edge');
    }
  }
}
]]></script>
        <defs>
                <circle id="rim" cx="0" cy="0" r="7"/>
                <circle id="rim2" cx="0" cy="0" r="3.5"/>
                <g id="zoomPlus">
                        <use xlink:href="#rim" fill="#404040">
                                <set attributeName="fill" to="#808080" begin="zoomplus.mouseover" end="zoomplus.mouseout"/>
                        </use>
                        <path d="M-4,0h8M0,-4v8" fill="none" stroke="white" stroke-width="1.5" pointer-events="none"/>
                </g>
                <g id="zoomMin">
                        <use xlink:href="#rim" fill="#404040">
                                <set attributeName="fill" to="#808080" begin="zoomminus.mouseover" end="zoomminus.mouseout"/>
                        </use>
                        <path d="M-4,0h8" fill="none" stroke="white" stroke-width="1.5" pointer-events="none"/>
                </g>
                <g id="dirArrow">
                        <path fill="none" stroke="white" stroke-width="1.5" d="M0,-3.0v7 M-2.5,-0.5L0,-3.0L2.5,-0.5"/>
                </g>
               <g id="resetDef">
                       <use xlink:href="#rim2" fill="#404040">
                               <set attributeName="fill" to="#808080" begin="reset.mouseover" end="reset.mouseout"/>
                       </use>
               </g>
        </defs>

<script type="text/javascript">
var viewWidth = 855;
var viewHeight = 1073;
var sectionId = 'dynsection-906';
</script>
<script xlink:href="svgpan.js"/>
<svg id="graph" class="graph">
<g id="viewport">
<title>js_async_generator_function_call</title>
<!-- Node1 -->
<g id="node1" class="node">
<title>Node1</title>
<g id="a_node1"><a xlink:title=" ">
<polygon fill="#bfbfbf" stroke="black" points="0,-232.31 0,-262.31 111,-262.31 111,-232.31 0,-232.31"/>
<text text-anchor="start" x="8" y="-250.31" font-family="Helvetica,sans-Serif" font-size="10.00">js_async_generator</text>
<text text-anchor="middle" x="55.5" y="-239.31" font-family="Helvetica,sans-Serif" font-size="10.00">_function_call</text>
</a>
</g>
</g>
<!-- Node2 -->
<g id="node2" class="node">
<title>Node2</title>
<g id="a_node2"><a xlink:href="quickjs_8c.html#a4bd986b91b68c6aa485f57c6142acccb" target="_top" xlink:title=" ">
<polygon fill="none" stroke="black" points="318,-988.81 318,-1007.81 410,-1007.81 410,-988.81 318,-988.81"/>
<text text-anchor="middle" x="364" y="-995.81" font-family="Helvetica,sans-Serif" font-size="10.00">async_func_init</text>
</a>
</g>
</g>
<!-- Node1&#45;&gt;Node2 -->
<g id="edge1" class="edge">
<title>Node1&#45;&gt;Node2</title>
<path fill="none" stroke="midnightblue" d="M56.37,-262.58C55.89,-353.73 57.79,-825.57 147,-931.31 186.44,-978.06 257.85,-992.72 307.73,-997.04"/>
<polygon fill="midnightblue" stroke="midnightblue" points="307.48,-1000.53 317.71,-997.79 308.01,-993.55 307.48,-1000.53"/>
</g>
<!-- Node3 -->
<g id="node3" class="node">
<title>Node3</title>
<g id="a_node3"><a xlink:href="list_8h.html#a663527a4d757540b2177bef0db1ce5c0" target="_top" xlink:title=" ">
<polygon fill="none" stroke="black" points="495.5,-969.81 495.5,-988.81 577.5,-988.81 577.5,-969.81 495.5,-969.81"/>
<text text-anchor="middle" x="536.5" y="-976.81" font-family="Helvetica,sans-Serif" font-size="10.00">init_list_head</text>
</a>
</g>
</g>
<!-- Node1&#45;&gt;Node3 -->
<g id="edge38" class="edge">
<title>Node1&#45;&gt;Node3</title>
<path fill="none" stroke="midnightblue" d="M56.35,-262.38C56.36,-322.73 62.26,-551.41 147,-711.31 231.55,-870.85 301.58,-890.28 468,-960.31 473.54,-962.64 479.44,-964.78 485.38,-966.71"/>
<polygon fill="midnightblue" stroke="midnightblue" points="484.73,-970.18 495.32,-969.77 486.79,-963.49 484.73,-970.18"/>
</g>
<!-- Node6 -->
<g id="node6" class="node">
<title>Node6</title>
<g id="a_node6"><a xlink:href="quickjs_8c.html#ade71a22dc56e7371392393df663b28b3" target="_top" xlink:title=" ">
<polygon fill="none" stroke="black" points="147,-682.81 147,-701.81 260,-701.81 260,-682.81 147,-682.81"/>
<text text-anchor="middle" x="203.5" y="-689.81" font-family="Helvetica,sans-Serif" font-size="10.00">async_func_resume</text>
</a>
</g>
</g>
<!-- Node1&#45;&gt;Node6 -->
<g id="edge5" class="edge">
<title>Node1&#45;&gt;Node6</title>
<path fill="none" stroke="midnightblue" d="M61.44,-262.38C83.33,-329.08 171.54,-597.94 196.11,-672.85"/>
<polygon fill="midnightblue" stroke="midnightblue" points="192.82,-674.04 199.26,-682.45 199.47,-671.86 192.82,-674.04"/>
</g>
<!-- Node59 -->
<g id="node14" class="node">
<title>Node59</title>
<g id="a_node14"><a xlink:href="quickjs_8h.html#afaa20c47565bc704c6c85f3d77254e7d" target="_top" xlink:title=" ">
<polygon fill="none" stroke="red" points="768,-342.81 768,-361.81 847,-361.81 847,-342.81 768,-342.81"/>
<text text-anchor="middle" x="807.5" y="-349.81" font-family="Helvetica,sans-Serif" font-size="10.00">JS_FreeValue</text>
</a>
</g>
</g>
<!-- Node1&#45;&gt;Node59 -->
<g id="edge53" class="edge">
<title>Node1&#45;&gt;Node59</title>
<path fill="none" stroke="midnightblue" d="M82.15,-232.19C133.56,-203.35 253.71,-143.31 363,-143.31 363,-143.31 363,-143.31 537.5,-143.31 624.36,-143.31 662.71,-109.94 732,-162.31 787.31,-204.12 801.59,-293.03 805.25,-332.6"/>
<polygon fill="midnightblue" stroke="midnightblue" points="801.78,-333.1 806.06,-342.79 808.76,-332.55 801.78,-333.1"/>
</g>
<!-- Node77 -->
<g id="node15" class="node">
<title>Node77</title>
<g id="a_node15"><a xlink:href="quickjs_8h.html#ad80a83d73e9b7d872b88fbf2943aebe9" target="_top" xlink:title=" ">
<polygon fill="none" stroke="black" points="643,-342.81 643,-361.81 730,-361.81 730,-342.81 643,-342.81"/>
<text text-anchor="middle" x="686.5" y="-349.81" font-family="Helvetica,sans-Serif" font-size="10.00">JS_IsException</text>
</a>
</g>
</g>
<!-- Node1&#45;&gt;Node77 -->
<g id="edge54" class="edge">
<title>Node1&#45;&gt;Node77</title>
<path fill="none" stroke="midnightblue" d="M111.2,-234.39C213.79,-213.07 439.65,-180.2 605,-258.31 638.34,-274.06 663.15,-310.94 675.89,-333.54"/>
<polygon fill="midnightblue" stroke="midnightblue" points="672.91,-335.38 680.74,-342.52 679.07,-332.06 672.91,-335.38"/>
</g>
<!-- Node439 -->
<g id="node27" class="node">
<title>Node439</title>
<g id="a_node27"><a xlink:href="quickjs_8c.html#a0cf9a02011216d38f2e96ca71f8f274f" target="_top" xlink:title=" ">
<polygon fill="none" stroke="black" points="296,-76.81 296,-95.81 432,-95.81 432,-76.81 296,-76.81"/>
<text text-anchor="middle" x="364" y="-83.81" font-family="Helvetica,sans-Serif" font-size="10.00">js_async_generator_free</text>
</a>
</g>
</g>
<!-- Node1&#45;&gt;Node439 -->
<g id="edge39" class="edge">
<title>Node1&#45;&gt;Node439</title>
<path fill="none" stroke="midnightblue" d="M63.54,-232.19C76.3,-206.57 105.79,-154.95 147,-129.31 188.41,-103.55 242.19,-92.79 285.72,-88.47"/>
<polygon fill="midnightblue" stroke="midnightblue" points="286.05,-91.95 295.7,-87.57 285.42,-84.98 286.05,-91.95"/>
</g>
<!-- Node299 -->
<g id="node29" class="node">
<title>Node299</title>
<g id="a_node29"><a xlink:href="quickjs_8c.html#a93dbf502b17d1328c524401335f60499" target="_top" xlink:title=" ">
<polygon fill="none" stroke="red" points="307.5,-285.81 307.5,-304.81 420.5,-304.81 420.5,-285.81 307.5,-285.81"/>
<text text-anchor="middle" x="364" y="-292.81" font-family="Helvetica,sans-Serif" font-size="10.00">js_create_from_ctor</text>
</a>
</g>
</g>
<!-- Node1&#45;&gt;Node299 -->
<g id="edge46" class="edge">
<title>Node1&#45;&gt;Node299</title>
<path fill="none" stroke="midnightblue" d="M111.3,-255.9C163.41,-264.06 241.87,-276.34 297.31,-285.03"/>
<polygon fill="midnightblue" stroke="midnightblue" points="296.96,-288.52 307.39,-286.6 298.05,-281.6 296.96,-288.52"/>
</g>
<!-- Node279 -->
<g id="node30" class="node">
<title>Node279</title>
<g id="a_node30"><a xlink:href="quickjs_8c.html#a0ddf716409e51648f0d59e7521150d19" target="_top" xlink:title=" ">
<polygon fill="none" stroke="black" points="161.5,-57.81 161.5,-76.81 245.5,-76.81 245.5,-57.81 161.5,-57.81"/>
<text text-anchor="middle" x="203.5" y="-64.81" font-family="Helvetica,sans-Serif" font-size="10.00">JS_SetOpaque</text>
</a>
</g>
</g>
<!-- Node1&#45;&gt;Node279 -->
<g id="edge55" class="edge">
<title>Node1&#45;&gt;Node279</title>
<path fill="none" stroke="midnightblue" d="M61.69,-231.87C72.74,-201.16 101.37,-131.88 147,-91.31 151.42,-87.38 156.59,-84.02 161.96,-81.16"/>
<polygon fill="midnightblue" stroke="midnightblue" points="163.56,-84.28 171.09,-76.83 160.55,-77.96 163.56,-84.28"/>
</g>
<!-- Node2&#45;&gt;Node3 -->
<g id="edge2" class="edge">
<title>Node2&#45;&gt;Node3</title>
<path fill="none" stroke="midnightblue" d="M410.24,-993.27C433.27,-990.71 461.34,-987.58 485.07,-984.93"/>
<polygon fill="midnightblue" stroke="midnightblue" points="485.74,-988.38 495.29,-983.8 484.96,-981.42 485.74,-988.38"/>
</g>
<!-- Node4 -->
<g id="node4" class="node">
<title>Node4</title>
<g id="a_node4"><a xlink:href="quickjs_8h.html#a775522f2d084fc8fa0fcb33f390006b4" target="_top" xlink:title=" ">
<polygon fill="none" stroke="black" points="648,-741.81 648,-760.81 725,-760.81 725,-741.81 648,-741.81"/>
<text text-anchor="middle" x="686.5" y="-748.81" font-family="Helvetica,sans-Serif" font-size="10.00">JS_DupValue</text>
</a>
</g>
</g>
<!-- Node2&#45;&gt;Node4 -->
<g id="edge3" class="edge">
<title>Node2&#45;&gt;Node4</title>
<path fill="none" stroke="midnightblue" d="M391.49,-1007.86C439.7,-1023.38 542.58,-1047.68 605,-998.31 659.45,-955.25 618.15,-911.87 641,-846.31 650.55,-818.91 665.45,-788.81 675.35,-769.99"/>
<polygon fill="midnightblue" stroke="midnightblue" points="678.51,-771.49 680.13,-761.02 672.34,-768.19 678.51,-771.49"/>
</g>
<!-- Node5 -->
<g id="node5" class="node">
<title>Node5</title>
<g id="a_node5"><a xlink:href="cutils_8h.html#a94f155fcce337a2b9d4719ed8042cbbe" target="_top" xlink:title=" ">
<polygon fill="none" stroke="black" points="508.5,-1045.81 508.5,-1064.81 564.5,-1064.81 564.5,-1045.81 508.5,-1045.81"/>
<text text-anchor="middle" x="536.5" y="-1052.81" font-family="Helvetica,sans-Serif" font-size="10.00">max_int</text>
</a>
</g>
</g>
<!-- Node2&#45;&gt;Node5 -->
<g id="edge4" class="edge">
<title>Node2&#45;&gt;Node5</title>
<path fill="none" stroke="midnightblue" d="M393.54,-1007.85C422.37,-1017.49 467.03,-1032.42 498.55,-1042.96"/>
<polygon fill="midnightblue" stroke="midnightblue" points="497.69,-1046.36 508.28,-1046.21 499.91,-1039.72 497.69,-1046.36"/>
</g>
<!-- Node7 -->
<g id="node7" class="node">
<title>Node7</title>
<g id="a_node7"><a xlink:href="quickjs_8c.html#ac2894ff4edcdb4e6841bcce9c76081e3" target="_top" xlink:title=" ">
<polygon fill="none" stroke="red" points="320.5,-646.81 320.5,-665.81 407.5,-665.81 407.5,-646.81 320.5,-646.81"/>
<text text-anchor="middle" x="364" y="-653.81" font-family="Helvetica,sans-Serif" font-size="10.00">JS_CallInternal</text>
</a>
</g>
</g>
<!-- Node6&#45;&gt;Node7 -->
<g id="edge6" class="edge">
<title>Node6&#45;&gt;Node7</title>
<path fill="none" stroke="midnightblue" d="M246.56,-682.76C266.34,-678.27 290.12,-672.87 311.02,-668.12"/>
<polygon fill="midnightblue" stroke="midnightblue" points="312.04,-671.48 321.02,-665.85 310.49,-664.65 312.04,-671.48"/>
</g>
<!-- Node221 -->
<g id="node22" class="node">
<title>Node221</title>
<g id="a_node22"><a xlink:href="quickjs_8c.html#af23ec7c9970ceb4671c59da7abd4b078" target="_top" xlink:title=" ">
<polygon fill="none" stroke="red" points="468,-893.81 468,-912.81 605,-912.81 605,-893.81 468,-893.81"/>
<text text-anchor="middle" x="536.5" y="-900.81" font-family="Helvetica,sans-Serif" font-size="10.00">js_check_stack_overflow</text>
</a>
</g>
</g>
<!-- Node6&#45;&gt;Node221 -->
<g id="edge36" class="edge">
<title>Node6&#45;&gt;Node221</title>
<path fill="none" stroke="midnightblue" d="M226.79,-701.85C269.87,-721.04 366.16,-767.63 432,-827.31 452.02,-845.46 446.63,-859.77 468,-876.31 475.11,-881.82 483.48,-886.35 491.87,-890.02"/>
<polygon fill="midnightblue" stroke="midnightblue" points="490.7,-893.32 501.28,-893.81 493.31,-886.83 490.7,-893.32"/>
</g>
<!-- Node223 -->
<g id="node26" class="node">
<title>Node223</title>
<g id="a_node26"><a xlink:href="quickjs_8c.html#a8353f635fb8a20553c08db8cf38c17e0" target="_top" xlink:title=" ">
<polygon fill="none" stroke="black" points="471,-931.81 471,-950.81 602,-950.81 602,-931.81 471,-931.81"/>
<text text-anchor="middle" x="536.5" y="-938.81" font-family="Helvetica,sans-Serif" font-size="10.00">JS_ThrowStackOverflow</text>
</a>
</g>
</g>
<!-- Node6&#45;&gt;Node223 -->
<g id="edge37" class="edge">
<title>Node6&#45;&gt;Node223</title>
<path fill="none" stroke="midnightblue" d="M211.97,-702.01C226.86,-721 261.74,-764.02 296,-795.31 331.08,-827.36 425.33,-901.43 468,-922.31 472.66,-924.6 477.65,-926.65 482.72,-928.48"/>
<polygon fill="midnightblue" stroke="midnightblue" points="481.91,-931.9 492.5,-931.73 484.12,-925.26 481.91,-931.9"/>
</g>
<!-- Node7&#45;&gt;Node3 -->
<g id="edge25" class="edge">
<title>Node7&#45;&gt;Node3</title>
<path fill="none" stroke="midnightblue" d="M367.03,-666.07C377.02,-713.23 422.33,-916.97 468,-960.31 473.04,-965.1 479.2,-968.7 485.71,-971.4"/>
<polygon fill="midnightblue" stroke="midnightblue" points="484.84,-974.8 495.43,-974.74 487.11,-968.18 484.84,-974.8"/>
</g>
<!-- Node7&#45;&gt;Node4 -->
<g id="edge28" class="edge">
<title>Node7&#45;&gt;Node4</title>
<path fill="none" stroke="midnightblue" d="M378.64,-665.97C392.99,-676.54 415.69,-694.51 432,-713.31 451.64,-735.95 441.76,-755.85 468,-770.31 527.25,-802.97 609.62,-780.85 654.06,-764.46"/>
<polygon fill="midnightblue" stroke="midnightblue" points="655.37,-767.71 663.47,-760.87 652.88,-761.17 655.37,-767.71"/>
</g>
<!-- Node7&#45;&gt;Node7 -->
<g id="edge26" class="edge">
<title>Node7&#45;&gt;Node7</title>
<path fill="none" stroke="midnightblue" d="M339.34,-666.07C327.34,-674.88 335.56,-684.31 364,-684.31 383.11,-684.31 393.09,-680.06 393.94,-674.59"/>
<polygon fill="midnightblue" stroke="midnightblue" points="396.9,-672.73 388.66,-666.07 390.95,-676.42 396.9,-672.73"/>
</g>
<!-- Node8 -->
<g id="node8" class="node">
<title>Node8</title>
<g id="a_node8"><a xlink:href="quickjs_8c.html#a853f0924d441ea4225488f37c8b69f9a" target="_top" xlink:title=" ">
<polygon fill="none" stroke="black" points="646.5,-855.81 646.5,-874.81 726.5,-874.81 726.5,-855.81 646.5,-855.81"/>
<text text-anchor="middle" x="686.5" y="-862.81" font-family="Helvetica,sans-Serif" font-size="10.00">__attribute__</text>
</a>
</g>
</g>
<!-- Node7&#45;&gt;Node8 -->
<g id="edge7" class="edge">
<title>Node7&#45;&gt;Node8</title>
<path fill="none" stroke="midnightblue" d="M380.97,-665.83C396.3,-675.79 419,-692.81 432,-713.31 464.79,-765.03 421.04,-807.01 468,-846.31 514.54,-885.26 587.95,-882.92 636.4,-875.71"/>
<polygon fill="midnightblue" stroke="midnightblue" points="637.03,-879.15 646.35,-874.11 635.92,-872.24 637.03,-879.15"/>
</g>
<!-- Node9 -->
<g id="node9" class="node">
<title>Node9</title>
<g id="a_node9"><a xlink:href="quickjs_8c.html#a877fcb7651d95b411ce70e62b7f4a1f0" target="_top" xlink:title=" ">
<polygon fill="none" stroke="black" points="474,-703.81 474,-722.81 599,-722.81 599,-703.81 474,-703.81"/>
<text text-anchor="middle" x="536.5" y="-710.81" font-family="Helvetica,sans-Serif" font-size="10.00">__JS_AtomFromUInt32</text>
</a>
</g>
</g>
<!-- Node7&#45;&gt;Node9 -->
<g id="edge8" class="edge">
<title>Node7&#45;&gt;Node9</title>
<path fill="none" stroke="midnightblue" d="M389.37,-665.92C410.12,-673.96 440.81,-685.49 468,-694.31 475.01,-696.59 482.47,-698.85 489.78,-700.98"/>
<polygon fill="midnightblue" stroke="midnightblue" points="489.03,-704.4 499.61,-703.78 490.95,-697.67 489.03,-704.4"/>
</g>
<!-- Node10 -->
<g id="node10" class="node">
<title>Node10</title>
<g id="a_node10"><a xlink:href="quickjs_8h.html#a9bf98b18de88b4199910a43e933eb97d" target="_top" xlink:title=" ">
<polygon fill="none" stroke="black" points="486.5,-665.81 486.5,-684.81 586.5,-684.81 586.5,-665.81 486.5,-665.81"/>
<text text-anchor="middle" x="536.5" y="-672.81" font-family="Helvetica,sans-Serif" font-size="10.00">__JS_NewFloat64</text>
</a>
</g>
</g>
<!-- Node7&#45;&gt;Node10 -->
<g id="edge9" class="edge">
<title>Node7&#45;&gt;Node10</title>
<path fill="none" stroke="midnightblue" d="M407.58,-661.06C428.28,-663.37 453.5,-666.18 476.06,-668.69"/>
<polygon fill="midnightblue" stroke="midnightblue" points="475.89,-672.19 486.21,-669.82 476.66,-665.24 475.89,-672.19"/>
</g>
<!-- Node11 -->
<g id="node11" class="node">
<title>Node11</title>
<g id="a_node11"><a xlink:href="quickjs_8c.html#a74547db03bf739a52c83a326b32db997" target="_top" xlink:title=" ">
<polygon fill="none" stroke="red" points="496,-627.81 496,-646.81 577,-646.81 577,-627.81 496,-627.81"/>
<text text-anchor="middle" x="536.5" y="-634.81" font-family="Helvetica,sans-Serif" font-size="10.00">add_property</text>
</a>
</g>
</g>
<!-- Node7&#45;&gt;Node11 -->
<g id="edge10" class="edge">
<title>Node7&#45;&gt;Node11</title>
<path fill="none" stroke="midnightblue" d="M407.58,-651.57C431.34,-648.92 461.05,-645.61 485.85,-642.85"/>
<polygon fill="midnightblue" stroke="midnightblue" points="486.25,-646.32 495.8,-641.74 485.47,-639.37 486.25,-646.32"/>
</g>
<!-- Node67 -->
<g id="node12" class="node">
<title>Node67</title>
<g id="a_node12"><a xlink:href="quickjs_8c.html#a4956f45ffd2849b96dc051277264f87a" target="_top" xlink:title=" ">
<polygon fill="none" stroke="red" points="495.5,-589.81 495.5,-608.81 577.5,-608.81 577.5,-589.81 495.5,-589.81"/>
<text text-anchor="middle" x="536.5" y="-596.81" font-family="Helvetica,sans-Serif" font-size="10.00">build_arg_list</text>
</a>
</g>
</g>
<!-- Node7&#45;&gt;Node67 -->
<g id="edge11" class="edge">
<title>Node7&#45;&gt;Node67</title>
<path fill="none" stroke="midnightblue" d="M389.37,-646.71C410.12,-638.67 440.81,-627.14 468,-618.31 475.01,-616.04 482.47,-613.78 489.78,-611.65"/>
<polygon fill="midnightblue" stroke="midnightblue" points="490.95,-614.96 499.61,-608.85 489.03,-608.23 490.95,-614.96"/>
</g>
<!-- Node68 -->
<g id="node13" class="node">
<title>Node68</title>
<g id="a_node13"><a xlink:href="quickjs_8c.html#ac864482356b3efc2d0b0a509fcfa4c7c" target="_top" xlink:title=" ">
<polygon fill="none" stroke="red" points="648,-551.81 648,-570.81 725,-570.81 725,-551.81 648,-551.81"/>
<text text-anchor="middle" x="686.5" y="-558.81" font-family="Helvetica,sans-Serif" font-size="10.00">free_arg_list</text>
</a>
</g>
</g>
<!-- Node7&#45;&gt;Node68 -->
<g id="edge21" class="edge">
<title>Node7&#45;&gt;Node68</title>
<path fill="none" stroke="midnightblue" d="M374.13,-646.74C390.9,-629.88 428.5,-595.24 468,-580.31 523.59,-559.3 592.67,-556.9 637.87,-558.2"/>
<polygon fill="midnightblue" stroke="midnightblue" points="637.86,-561.7 647.98,-558.56 638.11,-554.7 637.86,-561.7"/>
</g>
<!-- Node7&#45;&gt;Node59 -->
<g id="edge29" class="edge">
<title>Node7&#45;&gt;Node59</title>
<path fill="none" stroke="midnightblue" d="M373.12,-646.71C389.68,-627.5 429.06,-583.57 468,-553.31 523.8,-509.96 710.29,-405.51 779.95,-366.94"/>
<polygon fill="midnightblue" stroke="midnightblue" points="781.92,-369.85 788.98,-361.95 778.54,-363.73 781.92,-369.85"/>
</g>
<!-- Node7&#45;&gt;Node77 -->
<g id="edge31" class="edge">
<title>Node7&#45;&gt;Node77</title>
<path fill="none" stroke="midnightblue" d="M367.67,-646.68C376.58,-616.33 408.11,-521.75 468,-471.31 517.35,-429.76 549.33,-455.92 605,-423.31 630.19,-408.56 654.7,-385.27 669.93,-369.42"/>
<polygon fill="midnightblue" stroke="midnightblue" points="672.7,-371.58 677,-361.89 667.6,-366.78 672.7,-371.58"/>
</g>
<!-- Node163 -->
<g id="node16" class="node">
<title>Node163</title>
<g id="a_node16"><a xlink:href="quickjs_8c.html#a61c8dfb5e807af1b6ff7d8ca61576dda" target="_top" xlink:title=" ">
<polygon fill="none" stroke="red" points="489.5,-817.81 489.5,-836.81 583.5,-836.81 583.5,-817.81 489.5,-817.81"/>
<text text-anchor="middle" x="536.5" y="-824.81" font-family="Helvetica,sans-Serif" font-size="10.00">build_backtrace</text>
</a>
</g>
</g>
<!-- Node7&#45;&gt;Node163 -->
<g id="edge17" class="edge">
<title>Node7&#45;&gt;Node163</title>
<path fill="none" stroke="midnightblue" d="M380.18,-665.98C395.13,-676.17 417.74,-693.47 432,-713.31 457.14,-748.3 436.95,-773.45 468,-803.31 472.09,-807.25 476.87,-810.54 481.95,-813.3"/>
<polygon fill="midnightblue" stroke="midnightblue" points="480.83,-816.64 491.37,-817.7 483.79,-810.3 480.83,-816.64"/>
</g>
<!-- Node249 -->
<g id="node17" class="node">
<title>Node249</title>
<g id="a_node17"><a xlink:href="quickjs_8c.html#a344894112559c2ba75043fd10bcfa02f" target="_top" xlink:title=" ">
<polygon fill="none" stroke="red" points="486,-741.81 486,-760.81 587,-760.81 587,-741.81 486,-741.81"/>
<text text-anchor="middle" x="536.5" y="-748.81" font-family="Helvetica,sans-Serif" font-size="10.00">close_lexical_var</text>
</a>
</g>
</g>
<!-- Node7&#45;&gt;Node249 -->
<g id="edge18" class="edge">
<title>Node7&#45;&gt;Node249</title>
<path fill="none" stroke="midnightblue" d="M375.28,-665.92C392.92,-681.92 430.67,-714.05 468,-732.31 472.66,-734.6 477.65,-736.65 482.72,-738.48"/>
<polygon fill="midnightblue" stroke="midnightblue" points="481.91,-741.9 492.5,-741.73 484.12,-735.25 481.91,-741.9"/>
</g>
<!-- Node250 -->
<g id="node18" class="node">
<title>Node250</title>
<g id="a_node18"><a xlink:href="quickjs_8c.html#a1782043fce951bd4f0d91c7796b31e24" target="_top" xlink:title=" ">
<polygon fill="none" stroke="red" points="643,-171.81 643,-190.81 730,-190.81 730,-171.81 643,-171.81"/>
<text text-anchor="middle" x="686.5" y="-178.81" font-family="Helvetica,sans-Serif" font-size="10.00">close_var_refs</text>
</a>
</g>
</g>
<!-- Node7&#45;&gt;Node250 -->
<g id="edge20" class="edge">
<title>Node7&#45;&gt;Node250</title>
<path fill="none" stroke="midnightblue" d="M366.24,-646.52C371.33,-610.62 393.98,-485.09 468,-423.31 516.08,-383.18 557.9,-431.6 605,-390.31 634.78,-364.21 668.13,-247.35 680.52,-200.67"/>
<polygon fill="midnightblue" stroke="midnightblue" points="683.93,-201.44 683.08,-190.88 677.16,-199.67 683.93,-201.44"/>
</g>
<!-- Node56 -->
<g id="node19" class="node">
<title>Node56</title>
<g id="a_node19"><a xlink:href="quickjs_8c.html#a9e7b4bccf927d811b0f99b40b08c0472" target="_top" xlink:title=" ">
<polygon fill="none" stroke="red" points="498.5,-19.81 498.5,-38.81 574.5,-38.81 574.5,-19.81 498.5,-19.81"/>
<text text-anchor="middle" x="536.5" y="-26.81" font-family="Helvetica,sans-Serif" font-size="10.00">free_var_ref</text>
</a>
</g>
</g>
<!-- Node7&#45;&gt;Node56 -->
<g id="edge22" class="edge">
<title>Node7&#45;&gt;Node56</title>
<path fill="none" stroke="midnightblue" d="M367.13,-646.56C375.94,-605.98 410.12,-446.53 432,-314.31 441.74,-255.46 428.87,-93.34 468,-48.31 473.45,-42.04 480.79,-37.77 488.63,-34.86"/>
<polygon fill="midnightblue" stroke="midnightblue" points="489.76,-38.18 498.34,-31.97 487.76,-31.47 489.76,-38.18"/>
</g>
<!-- Node7&#45;&gt;Node221 -->
<g id="edge27" class="edge">
<title>Node7&#45;&gt;Node221</title>
<path fill="none" stroke="midnightblue" d="M381.49,-665.88C396.98,-675.75 419.6,-692.61 432,-713.31 470.8,-778.08 418.14,-822.63 468,-879.31 471.4,-883.18 475.47,-886.43 479.91,-889.15"/>
<polygon fill="midnightblue" stroke="midnightblue" points="478.31,-892.27 488.79,-893.77 481.53,-886.05 478.31,-892.27"/>
</g>
<!-- Node70 -->
<g id="node23" class="node">
<title>Node70</title>
<g id="a_node23"><a xlink:href="quickjs_8h.html#a89b7c8686c7eee70b86be722ee4730ad" target="_top" xlink:title=" ">
<polygon fill="none" stroke="red" points="492,-361.81 492,-380.81 581,-380.81 581,-361.81 492,-361.81"/>
<text text-anchor="middle" x="536.5" y="-368.81" font-family="Helvetica,sans-Serif" font-size="10.00">JS_GetProperty</text>
</a>
</g>
</g>
<!-- Node7&#45;&gt;Node70 -->
<g id="edge30" class="edge">
<title>Node7&#45;&gt;Node70</title>
<path fill="none" stroke="midnightblue" d="M365.97,-646.7C370.26,-609.01 390.93,-469.79 468,-395.31 472.24,-391.22 477.22,-387.81 482.53,-384.99"/>
<polygon fill="midnightblue" stroke="midnightblue" points="484.08,-388.13 491.7,-380.76 481.15,-381.77 484.08,-388.13"/>
</g>
<!-- Node289 -->
<g id="node24" class="node">
<title>Node289</title>
<g id="a_node24"><a xlink:href="quickjs_8h.html#a3d68fe446df2d9c7d1900b16371bff5b" target="_top" xlink:title=" ">
<polygon fill="none" stroke="black" points="501,-323.81 501,-342.81 572,-342.81 572,-323.81 501,-323.81"/>
<text text-anchor="middle" x="536.5" y="-330.81" font-family="Helvetica,sans-Serif" font-size="10.00">JS_IsObject</text>
</a>
</g>
</g>
<!-- Node7&#45;&gt;Node289 -->
<g id="edge32" class="edge">
<title>Node7&#45;&gt;Node289</title>
<path fill="none" stroke="midnightblue" d="M365.2,-646.73C366.6,-605.04 377.86,-437.86 468,-352.31 474.35,-346.29 482.45,-342.15 490.82,-339.31"/>
<polygon fill="midnightblue" stroke="midnightblue" points="492.01,-342.62 500.69,-336.55 490.12,-335.88 492.01,-342.62"/>
</g>
<!-- Node129 -->
<g id="node25" class="node">
<title>Node129</title>
<g id="a_node25"><a xlink:href="quickjs_8h.html#a4e407128a9605afb77523e49e9a627fd" target="_top" xlink:title=" ">
<polygon fill="none" stroke="black" points="492,-285.81 492,-304.81 581,-304.81 581,-285.81 492,-285.81"/>
<text text-anchor="middle" x="536.5" y="-292.81" font-family="Helvetica,sans-Serif" font-size="10.00">JS_IsUndefined</text>
</a>
</g>
</g>
<!-- Node7&#45;&gt;Node129 -->
<g id="edge33" class="edge">
<title>Node7&#45;&gt;Node129</title>
<path fill="none" stroke="midnightblue" d="M364.79,-646.78C364.33,-602.18 368.45,-412.07 468,-314.31 472.07,-310.32 476.92,-307.14 482.11,-304.63"/>
<polygon fill="midnightblue" stroke="midnightblue" points="483.77,-307.74 491.76,-300.78 481.17,-301.24 483.77,-307.74"/>
</g>
<!-- Node7&#45;&gt;Node223 -->
<g id="edge34" class="edge">
<title>Node7&#45;&gt;Node223</title>
<path fill="none" stroke="midnightblue" d="M368.82,-665.94C379.11,-691.93 408.27,-765.73 432,-827.31 448.24,-869.45 434.7,-891.82 468,-922.31 469.71,-923.88 471.55,-925.33 473.47,-926.65"/>
<polygon fill="midnightblue" stroke="midnightblue" points="472,-929.84 482.43,-931.73 475.46,-923.75 472,-929.84"/>
</g>
<!-- Node67&#45;&gt;Node4 -->
<g id="edge15" class="edge">
<title>Node67&#45;&gt;Node4</title>
<path fill="none" stroke="midnightblue" d="M577.65,-605.34C587.28,-608.15 597.06,-612.27 605,-618.31 644.22,-648.15 668.44,-703.08 679.11,-732.13"/>
<polygon fill="midnightblue" stroke="midnightblue" points="675.81,-733.3 682.43,-741.57 682.41,-730.98 675.81,-733.3"/>
</g>
<!-- Node67&#45;&gt;Node8 -->
<g id="edge12" class="edge">
<title>Node67&#45;&gt;Node8</title>
<path fill="none" stroke="midnightblue" d="M577.68,-603.33C587.76,-606.13 597.75,-610.76 605,-618.31 653.05,-668.42 618.15,-704.76 641,-770.31 650.55,-797.72 665.45,-827.82 675.35,-846.64"/>
<polygon fill="midnightblue" stroke="midnightblue" points="672.34,-848.44 680.13,-855.61 678.51,-845.14 672.34,-848.44"/>
</g>
<!-- Node67&#45;&gt;Node68 -->
<g id="edge13" class="edge">
<title>Node67&#45;&gt;Node68</title>
<path fill="none" stroke="midnightblue" d="M574.85,-589.73C594.2,-584.76 618.03,-578.64 638.61,-573.35"/>
<polygon fill="midnightblue" stroke="midnightblue" points="639.61,-576.71 648.42,-570.83 637.87,-569.93 639.61,-576.71"/>
</g>
<!-- Node67&#45;&gt;Node77 -->
<g id="edge16" class="edge">
<title>Node67&#45;&gt;Node77</title>
<path fill="none" stroke="midnightblue" d="M543.3,-589.63C565.5,-552.59 645.25,-419.49 674.58,-370.54"/>
<polygon fill="midnightblue" stroke="midnightblue" points="677.6,-372.31 679.74,-361.93 671.6,-368.71 677.6,-372.31"/>
</g>
<!-- Node68&#45;&gt;Node59 -->
<g id="edge14" class="edge">
<title>Node68&#45;&gt;Node59</title>
<path fill="none" stroke="midnightblue" d="M695.23,-551.54C704.52,-539.59 720.31,-518.57 732,-499.31 758.98,-454.88 785.19,-399.48 798.13,-371.05"/>
<polygon fill="midnightblue" stroke="midnightblue" points="801.35,-372.43 802.28,-361.87 794.97,-369.55 801.35,-372.43"/>
</g>
<!-- Node249&#45;&gt;Node4 -->
<g id="edge19" class="edge">
<title>Node249&#45;&gt;Node4</title>
<path fill="none" stroke="midnightblue" d="M587.19,-751.31C603.45,-751.31 621.47,-751.31 637.59,-751.31"/>
<polygon fill="midnightblue" stroke="midnightblue" points="637.88,-754.81 647.88,-751.31 637.88,-747.81 637.88,-754.81"/>
</g>
<!-- Node26 -->
<g id="node20" class="node">
<title>Node26</title>
<g id="a_node20"><a xlink:href="quickjs_8c.html#a69e19dda8a93d613203e0baa06f0ed8d" target="_top" xlink:title=" ">
<polygon fill="none" stroke="black" points="655.5,-57.81 655.5,-76.81 717.5,-76.81 717.5,-57.81 655.5,-57.81"/>
<text text-anchor="middle" x="686.5" y="-64.81" font-family="Helvetica,sans-Serif" font-size="10.00">js_free_rt</text>
</a>
</g>
</g>
<!-- Node56&#45;&gt;Node26 -->
<g id="edge23" class="edge">
<title>Node56&#45;&gt;Node26</title>
<path fill="none" stroke="midnightblue" d="M574.85,-38.9C596.38,-44.43 623.46,-51.38 645.44,-57.03"/>
<polygon fill="midnightblue" stroke="midnightblue" points="644.58,-60.42 655.14,-59.52 646.32,-53.64 644.58,-60.42"/>
</g>
<!-- Node46 -->
<g id="node21" class="node">
<title>Node46</title>
<g id="a_node21"><a xlink:href="quickjs_8h.html#ab8db583fa5e7c2b1935854a42859daed" target="_top" xlink:title=" ">
<polygon fill="none" stroke="red" points="641,-19.81 641,-38.81 732,-38.81 732,-19.81 641,-19.81"/>
<text text-anchor="middle" x="686.5" y="-26.81" font-family="Helvetica,sans-Serif" font-size="10.00">JS_FreeValueRT</text>
</a>
</g>
</g>
<!-- Node56&#45;&gt;Node46 -->
<g id="edge24" class="edge">
<title>Node56&#45;&gt;Node46</title>
<path fill="none" stroke="midnightblue" d="M574.85,-29.31C591.75,-29.31 612.08,-29.31 630.67,-29.31"/>
<polygon fill="midnightblue" stroke="midnightblue" points="630.78,-32.81 640.78,-29.31 630.78,-25.81 630.78,-32.81"/>
</g>
<!-- Node223&#45;&gt;Node8 -->
<g id="edge35" class="edge">
<title>Node223&#45;&gt;Node8</title>
<path fill="none" stroke="midnightblue" d="M580.08,-931.72C588.53,-929.16 597.2,-926.04 605,-922.31 627.82,-911.42 651.1,-894.13 666.71,-881.45"/>
<polygon fill="midnightblue" stroke="midnightblue" points="669.09,-884.03 674.55,-874.95 664.62,-878.64 669.09,-884.03"/>
</g>
<!-- Node439&#45;&gt;Node26 -->
<g id="edge44" class="edge">
<title>Node439&#45;&gt;Node26</title>
<path fill="none" stroke="midnightblue" d="M432.23,-90.46C480.48,-92.42 546.95,-93.07 605,-86.31 618.28,-84.77 632.55,-81.83 645.33,-78.72"/>
<polygon fill="midnightblue" stroke="midnightblue" points="646.38,-82.07 655.22,-76.22 644.66,-75.28 646.38,-82.07"/>
</g>
<!-- Node439&#45;&gt;Node46 -->
<g id="edge45" class="edge">
<title>Node439&#45;&gt;Node46</title>
<path fill="none" stroke="midnightblue" d="M373.75,-76.67C390.19,-59.36 427.68,-23.58 468,-10.31 528.29,9.52 602.77,-4.72 647.08,-16.95"/>
<polygon fill="midnightblue" stroke="midnightblue" points="646.29,-20.36 656.86,-19.75 648.21,-13.63 646.29,-20.36"/>
</g>
<!-- Node440 -->
<g id="node28" class="node">
<title>Node440</title>
<g id="a_node28"><a xlink:href="quickjs_8c.html#ab3180b5caf3b66ac6db634e41e56a4ef" target="_top" xlink:title=" ">
<polygon fill="none" stroke="black" points="488.5,-57.81 488.5,-76.81 584.5,-76.81 584.5,-57.81 488.5,-57.81"/>
<text text-anchor="middle" x="536.5" y="-64.81" font-family="Helvetica,sans-Serif" font-size="10.00">async_func_free</text>
</a>
</g>
</g>
<!-- Node439&#45;&gt;Node440 -->
<g id="edge40" class="edge">
<title>Node439&#45;&gt;Node440</title>
<path fill="none" stroke="midnightblue" d="M432.39,-78.81C447.59,-77.11 463.58,-75.33 478.32,-73.69"/>
<polygon fill="midnightblue" stroke="midnightblue" points="478.74,-77.16 488.29,-72.57 477.97,-70.2 478.74,-77.16"/>
</g>
<!-- Node440&#45;&gt;Node250 -->
<g id="edge41" class="edge">
<title>Node440&#45;&gt;Node250</title>
<path fill="none" stroke="midnightblue" d="M549.86,-76.84C575.26,-96.4 633.56,-141.3 664.81,-165.38"/>
<polygon fill="midnightblue" stroke="midnightblue" points="662.8,-168.25 672.86,-171.58 667.07,-162.7 662.8,-168.25"/>
</g>
<!-- Node440&#45;&gt;Node26 -->
<g id="edge42" class="edge">
<title>Node440&#45;&gt;Node26</title>
<path fill="none" stroke="midnightblue" d="M584.74,-67.31C604.2,-67.31 626.53,-67.31 645.2,-67.31"/>
<polygon fill="midnightblue" stroke="midnightblue" points="645.45,-70.81 655.45,-67.31 645.45,-63.81 645.45,-70.81"/>
</g>
<!-- Node440&#45;&gt;Node46 -->
<g id="edge43" class="edge">
<title>Node440&#45;&gt;Node46</title>
<path fill="none" stroke="midnightblue" d="M574.85,-57.73C594.2,-52.76 618.03,-46.64 638.61,-41.35"/>
<polygon fill="midnightblue" stroke="midnightblue" points="639.61,-44.71 648.42,-38.83 637.87,-37.93 639.61,-44.71"/>
</g>
<!-- Node299&#45;&gt;Node4 -->
<g id="edge47" class="edge">
<title>Node299&#45;&gt;Node4</title>
<path fill="none" stroke="midnightblue" d="M374.74,-304.91C409.48,-339.53 529.26,-462.13 605,-580.31 638.09,-631.94 665.76,-699.32 678.3,-731.94"/>
<polygon fill="midnightblue" stroke="midnightblue" points="675.14,-733.48 681.96,-741.59 681.69,-731 675.14,-733.48"/>
</g>
<!-- Node299&#45;&gt;Node59 -->
<g id="edge48" class="edge">
<title>Node299&#45;&gt;Node59</title>
<path fill="none" stroke="midnightblue" d="M384.95,-285.81C405.3,-276.68 438.05,-263.53 468,-258.31 527.99,-247.87 545.56,-245.13 605,-258.31 673.5,-273.51 746.3,-314.51 782.77,-337.02"/>
<polygon fill="midnightblue" stroke="midnightblue" points="781.32,-340.23 791.65,-342.57 785.03,-334.3 781.32,-340.23"/>
</g>
<!-- Node299&#45;&gt;Node77 -->
<g id="edge50" class="edge">
<title>Node299&#45;&gt;Node77</title>
<path fill="none" stroke="midnightblue" d="M391.71,-285.74C437.28,-271.02 532.17,-247.37 605,-276.31 634.32,-287.97 659.13,-315.92 673.17,-334.48"/>
<polygon fill="midnightblue" stroke="midnightblue" points="670.45,-336.7 679.16,-342.73 676.11,-332.58 670.45,-336.7"/>
</g>
<!-- Node299&#45;&gt;Node70 -->
<g id="edge49" class="edge">
<title>Node299&#45;&gt;Node70</title>
<path fill="none" stroke="midnightblue" d="M379.81,-304.95C399.35,-317.32 435.11,-338.8 468,-352.31 473.76,-354.68 479.92,-356.86 486.08,-358.84"/>
<polygon fill="midnightblue" stroke="midnightblue" points="485.13,-362.21 495.72,-361.77 487.17,-355.51 485.13,-362.21"/>
</g>
<!-- Node299&#45;&gt;Node289 -->
<g id="edge51" class="edge">
<title>Node299&#45;&gt;Node289</title>
<path fill="none" stroke="midnightblue" d="M408.02,-304.9C433.37,-310.55 465.37,-317.68 490.97,-323.39"/>
<polygon fill="midnightblue" stroke="midnightblue" points="490.28,-326.82 500.8,-325.58 491.8,-319.99 490.28,-326.82"/>
</g>
<!-- Node299&#45;&gt;Node129 -->
<g id="edge52" class="edge">
<title>Node299&#45;&gt;Node129</title>
<path fill="none" stroke="midnightblue" d="M420.83,-295.31C440.42,-295.31 462.38,-295.31 481.79,-295.31"/>
<polygon fill="midnightblue" stroke="midnightblue" points="481.99,-298.81 491.99,-295.31 481.99,-291.81 481.99,-298.81"/>
</g>
</g>
</svg>
        <g id="navigator" transform="translate(0 0)" fill="#404254">
                <rect fill="#f2f5e9" fill-opacity="0.5" stroke="#606060" stroke-width=".5" x="0" y="0" width="60" height="60"/>
                <use id="zoomplus" xlink:href="#zoomPlus" x="17" y="9" onmousedown="handleZoom(evt,'in')"/>
                <use id="zoomminus" xlink:href="#zoomMin" x="42" y="9" onmousedown="handleZoom(evt,'out')"/>
                <use id="reset" xlink:href="#resetDef" x="30" y="36" onmousedown="handleReset()"/>
                <g id="arrowUp" xlink:href="#dirArrow" transform="translate(30 24)" onmousedown="handlePan(0,-1)">
                  <use xlink:href="#rim" fill="#404040">
                        <set attributeName="fill" to="#808080" begin="arrowUp.mouseover" end="arrowUp.mouseout"/>
                  </use>
                  <path fill="none" stroke="white" stroke-width="1.5" d="M0,-3.0v7 M-2.5,-0.5L0,-3.0L2.5,-0.5"/>
                </g>
                <g id="arrowRight" xlink:href="#dirArrow" transform="rotate(90) translate(36 -43)" onmousedown="handlePan(1,0)">
                  <use xlink:href="#rim" fill="#404040">
                        <set attributeName="fill" to="#808080" begin="arrowRight.mouseover" end="arrowRight.mouseout"/>
                  </use>
                  <path fill="none" stroke="white" stroke-width="1.5" d="M0,-3.0v7 M-2.5,-0.5L0,-3.0L2.5,-0.5"/>
                </g>
                <g id="arrowDown" xlink:href="#dirArrow" transform="rotate(180) translate(-30 -48)" onmousedown="handlePan(0,1)">
                  <use xlink:href="#rim" fill="#404040">
                        <set attributeName="fill" to="#808080" begin="arrowDown.mouseover" end="arrowDown.mouseout"/>
                  </use>
                  <path fill="none" stroke="white" stroke-width="1.5" d="M0,-3.0v7 M-2.5,-0.5L0,-3.0L2.5,-0.5"/>
                </g>
                <g id="arrowLeft" xlink:href="#dirArrow" transform="rotate(270) translate(-36 17)" onmousedown="handlePan(-1,0)">
                  <use xlink:href="#rim" fill="#404040">
                        <set attributeName="fill" to="#808080" begin="arrowLeft.mouseover" end="arrowLeft.mouseout"/>
                  </use>
                  <path fill="none" stroke="white" stroke-width="1.5" d="M0,-3.0v7 M-2.5,-0.5L0,-3.0L2.5,-0.5"/>
                </g>
        </g>
        <svg viewBox="0 0 15 15" width="100%" height="30px" preserveAspectRatio="xMaxYMin meet">
         <g id="arrow_out" transform="scale(0.3 0.3)">
          <a xlink:href="quickjs_8c_ae19867da709929c072f05e90301835a4_cgraph_org.svg" target="_base">
           <rect id="button" ry="5" rx="5" y="6" x="6" height="38" width="38"
                fill="#f2f5e9" fill-opacity="0.5" stroke="#606060" stroke-width="1.0"/>
           <path id="arrow"
             d="M 11.500037,31.436501 C 11.940474,20.09759 22.043105,11.32322 32.158766,21.979434 L 37.068811,17.246167 C 37.068811,17.246167 37.088388,32 37.088388,32 L 22.160133,31.978069 C 22.160133,31.978069 26.997745,27.140456 26.997745,27.140456 C 18.528582,18.264221 13.291696,25.230495 11.500037,31.436501 z"
             style="fill:#404040;"/>
          </a>
         </g>
        </svg>
</svg>
