<?xml version="1.0" encoding="UTF-8" standalone="no"?>
<!DOCTYPE svg PUBLIC "-//W3C//DTD SVG 1.1//EN"
 "http://www.w3.org/Graphics/SVG/1.1/DTD/svg11.dtd">
<!-- Generated by graphviz version 2.43.0 (0)
 -->
<!-- Title: JS_GetPropertyValue Pages: 1 -->
<!--zoomable 780 -->
<svg id="main" version="1.1" xmlns="http://www.w3.org/2000/svg" xmlns:xlink="http://www.w3.org/1999/xlink" xml:space="preserve" onload="init(evt)">
<style type="text/css"><![CDATA[
.edge:hover path { stroke: red; }
.edge:hover polygon { stroke: red; fill: red; }
]]></style>
<script type="text/javascript"><![CDATA[
var edges = document.getElementsByTagName('g');
if (edges && edges.length) {
  for (var i=0;i<edges.length;i++) {
    if (edges[i].id.substr(0,4)=='edge') {
      edges[i].setAttribute('class','edge');
    }
  }
}
]]></script>
        <defs>
                <circle id="rim" cx="0" cy="0" r="7"/>
                <circle id="rim2" cx="0" cy="0" r="3.5"/>
                <g id="zoomPlus">
                        <use xlink:href="#rim" fill="#404040">
                                <set attributeName="fill" to="#808080" begin="zoomplus.mouseover" end="zoomplus.mouseout"/>
                        </use>
                        <path d="M-4,0h8M0,-4v8" fill="none" stroke="white" stroke-width="1.5" pointer-events="none"/>
                </g>
                <g id="zoomMin">
                        <use xlink:href="#rim" fill="#404040">
                                <set attributeName="fill" to="#808080" begin="zoomminus.mouseover" end="zoomminus.mouseout"/>
                        </use>
                        <path d="M-4,0h8" fill="none" stroke="white" stroke-width="1.5" pointer-events="none"/>
                </g>
                <g id="dirArrow">
                        <path fill="none" stroke="white" stroke-width="1.5" d="M0,-3.0v7 M-2.5,-0.5L0,-3.0L2.5,-0.5"/>
                </g>
               <g id="resetDef">
                       <use xlink:href="#rim2" fill="#404040">
                               <set attributeName="fill" to="#808080" begin="reset.mouseover" end="reset.mouseout"/>
                       </use>
               </g>
        </defs>

<script type="text/javascript">
var viewWidth = 1038;
var viewHeight = 780;
var sectionId = 'dynsection-580';
</script>
<script xlink:href="svgpan.js"/>
<svg id="graph" class="graph">
<g id="viewport">
<title>JS_GetPropertyValue</title>
<!-- Node1 -->
<g id="node1" class="node">
<title>Node1</title>
<g id="a_node1"><a xlink:title=" ">
<polygon fill="#bfbfbf" stroke="black" points="914,-544.5 914,-563.5 1030,-563.5 1030,-544.5 914,-544.5"/>
<text text-anchor="middle" x="972" y="-551.5" font-family="Helvetica,sans-Serif" font-size="10.00">JS_GetPropertyValue</text>
</a>
</g>
</g>
<!-- Node2 -->
<g id="node2" class="node">
<title>Node2</title>
<g id="a_node2"><a xlink:href="quickjs_8c.html#a9dd41b086da4e13b3487cc9c6e2af2b8" target="_top" xlink:title=" ">
<polygon fill="none" stroke="black" points="36,-506.5 36,-525.5 115,-525.5 115,-506.5 36,-506.5"/>
<text text-anchor="middle" x="75.5" y="-513.5" font-family="Helvetica,sans-Serif" font-size="10.00">js_array_find</text>
</a>
</g>
</g>
<!-- Node1&#45;&gt;Node2 -->
<g id="edge1" class="edge">
<title>Node1&#45;&gt;Node2</title>
<path fill="none" stroke="midnightblue" d="M903.8,-554C836.26,-554 729.16,-554 636.5,-554 636.5,-554 636.5,-554 439.5,-554 320.69,-554 181.19,-533.62 115.04,-522.71"/>
<polygon fill="midnightblue" stroke="midnightblue" points="903.88,-557.5 913.88,-554 903.88,-550.5 903.88,-557.5"/>
</g>
<!-- Node3 -->
<g id="node3" class="node">
<title>Node3</title>
<g id="a_node3"><a xlink:href="quickjs_8c.html#ac2894ff4edcdb4e6841bcce9c76081e3" target="_top" xlink:title=" ">
<polygon fill="none" stroke="black" points="397,-430.5 397,-449.5 484,-449.5 484,-430.5 397,-430.5"/>
<text text-anchor="middle" x="440.5" y="-437.5" font-family="Helvetica,sans-Serif" font-size="10.00">JS_CallInternal</text>
</a>
</g>
</g>
<!-- Node1&#45;&gt;Node3 -->
<g id="edge2" class="edge">
<title>Node1&#45;&gt;Node3</title>
<path fill="none" stroke="midnightblue" d="M948.93,-538.48C930.76,-526.51 903.87,-510.58 878,-502 738.87,-455.85 695.91,-481.09 551,-459 528.87,-455.63 504.32,-451.41 484.07,-447.81"/>
<polygon fill="midnightblue" stroke="midnightblue" points="947.34,-541.63 957.59,-544.32 951.26,-535.83 947.34,-541.63"/>
</g>
<!-- Node104 -->
<g id="node10" class="node">
<title>Node104</title>
<g id="a_node10"><a xlink:href="quickjs_8c.html#a0b8ae7efe63abc1be33d9e828d43ce8d" target="_top" xlink:title=" ">
<polygon fill="none" stroke="black" points="19.5,-468.5 19.5,-487.5 131.5,-487.5 131.5,-468.5 19.5,-468.5"/>
<text text-anchor="middle" x="75.5" y="-475.5" font-family="Helvetica,sans-Serif" font-size="10.00">js_typed_array_find</text>
</a>
</g>
</g>
<!-- Node1&#45;&gt;Node104 -->
<g id="edge49" class="edge">
<title>Node1&#45;&gt;Node104</title>
<path fill="none" stroke="midnightblue" d="M909.39,-542.77C842.46,-531.56 732.26,-516 636.5,-516 636.5,-516 636.5,-516 439.5,-516 326.96,-516 298.69,-510.77 187,-497 166.91,-494.52 144.9,-490.92 125.86,-487.52"/>
<polygon fill="midnightblue" stroke="midnightblue" points="908.9,-546.24 919.35,-544.46 910.07,-539.34 908.9,-546.24"/>
</g>
<!-- Node363 -->
<g id="node16" class="node">
<title>Node363</title>
<g id="a_node16"><a xlink:href="quickjs_8c.html#a7bb763b31e1c40a04aa0c1d5db0f1191" target="_top" xlink:title=" ">
<polygon fill="none" stroke="red" points="201.5,-620.5 201.5,-639.5 315.5,-639.5 315.5,-620.5 201.5,-620.5"/>
<text text-anchor="middle" x="258.5" y="-627.5" font-family="Helvetica,sans-Serif" font-size="10.00">JS_GetPropertyInt64</text>
</a>
</g>
</g>
<!-- Node1&#45;&gt;Node363 -->
<g id="edge21" class="edge">
<title>Node1&#45;&gt;Node363</title>
<path fill="none" stroke="midnightblue" d="M903.51,-564.56C894.93,-565.78 886.27,-566.96 878,-568 671.34,-593.9 424.74,-615.99 315.89,-625.29"/>
<polygon fill="midnightblue" stroke="midnightblue" points="904.12,-568.01 913.51,-563.11 903.11,-561.08 904.12,-568.01"/>
</g>
<!-- Node79 -->
<g id="node17" class="node">
<title>Node79</title>
<g id="a_node17"><a xlink:href="quickjs_8c.html#a60d84dd116a9d7d912d08f298a4734dd" target="_top" xlink:title=" ">
<polygon fill="none" stroke="red" points="34,-734.5 34,-753.5 117,-753.5 117,-734.5 34,-734.5"/>
<text text-anchor="middle" x="75.5" y="-741.5" font-family="Helvetica,sans-Serif" font-size="10.00">js_json_to_str</text>
</a>
</g>
</g>
<!-- Node1&#45;&gt;Node79 -->
<g id="edge44" class="edge">
<title>Node1&#45;&gt;Node79</title>
<path fill="none" stroke="midnightblue" d="M960.42,-572.62C945.29,-597.63 915.14,-641.84 878,-667 784.73,-730.18 749.16,-744 636.5,-744 636.5,-744 636.5,-744 439.5,-744 322.44,-744 184.14,-744 117.06,-744"/>
<polygon fill="midnightblue" stroke="midnightblue" points="963.58,-574.16 965.64,-563.76 957.55,-570.61 963.58,-574.16"/>
</g>
<!-- Node354 -->
<g id="node18" class="node">
<title>Node354</title>
<g id="a_node18"><a xlink:href="quickjs_8c.html#adb4d2990e6bf3f99633512ad2054b47a" target="_top" xlink:title=" ">
<polygon fill="none" stroke="red" points="1,-696.5 1,-715.5 150,-715.5 150,-696.5 1,-696.5"/>
<text text-anchor="middle" x="75.5" y="-703.5" font-family="Helvetica,sans-Serif" font-size="10.00">js_string___GetSubstitution</text>
</a>
</g>
</g>
<!-- Node1&#45;&gt;Node354 -->
<g id="edge45" class="edge">
<title>Node1&#45;&gt;Node354</title>
<path fill="none" stroke="midnightblue" d="M951.82,-569.86C902.71,-608.81 767.08,-706 636.5,-706 636.5,-706 636.5,-706 439.5,-706 339.3,-706 223.53,-706 150.2,-706"/>
<polygon fill="midnightblue" stroke="midnightblue" points="954.12,-572.51 959.71,-563.51 949.73,-567.05 954.12,-572.51"/>
</g>
<!-- Node606 -->
<g id="node19" class="node">
<title>Node606</title>
<g id="a_node19"><a xlink:href="quickjs_8c.html#aeb97957655d979e9fe56c955da2b2d4b" target="_top" xlink:title=" ">
<polygon fill="none" stroke="red" points="756,-259.5 756,-278.5 878,-278.5 878,-259.5 756,-259.5"/>
<text text-anchor="middle" x="817" y="-266.5" font-family="Helvetica,sans-Serif" font-size="10.00">JS_GetPropertyUint32</text>
</a>
</g>
</g>
<!-- Node1&#45;&gt;Node606 -->
<g id="edge29" class="edge">
<title>Node1&#45;&gt;Node606</title>
<path fill="none" stroke="midnightblue" d="M960.88,-535.16C931.25,-479.96 845.36,-319.97 823.24,-278.77"/>
<polygon fill="midnightblue" stroke="midnightblue" points="957.92,-537.03 965.73,-544.19 964.09,-533.72 957.92,-537.03"/>
</g>
<!-- Node518 -->
<g id="node29" class="node">
<title>Node518</title>
<g id="a_node29"><a xlink:href="quickjs_8c.html#a14674e74168715dc5a3a391910982e5d" target="_top" xlink:title=" ">
<polygon fill="none" stroke="red" points="194.5,-658.5 194.5,-677.5 322.5,-677.5 322.5,-658.5 194.5,-658.5"/>
<text text-anchor="middle" x="258.5" y="-665.5" font-family="Helvetica,sans-Serif" font-size="10.00">JS_TryGetPropertyInt64</text>
</a>
</g>
</g>
<!-- Node1&#45;&gt;Node518 -->
<g id="edge46" class="edge">
<title>Node1&#45;&gt;Node518</title>
<path fill="none" stroke="midnightblue" d="M941.07,-567.73C923.13,-575.42 899.67,-584.53 878,-590 679.15,-640.22 435.79,-658.83 322.77,-665.11"/>
<polygon fill="midnightblue" stroke="midnightblue" points="942.66,-570.86 950.42,-563.64 939.86,-564.45 942.66,-570.86"/>
</g>
<!-- Node61 -->
<g id="node30" class="node">
<title>Node61</title>
<g id="a_node30"><a xlink:href="quickjs_8c.html#a04f45f4b341a84aa1039cfd862adbcd2" target="_top" xlink:title=" ">
<polygon fill="none" stroke="black" points="759,-221.5 759,-240.5 875,-240.5 875,-221.5 759,-221.5"/>
<text text-anchor="middle" x="817" y="-228.5" font-family="Helvetica,sans-Serif" font-size="10.00">js_typed_array_slice</text>
</a>
</g>
</g>
<!-- Node1&#45;&gt;Node61 -->
<g id="edge50" class="edge">
<title>Node1&#45;&gt;Node61</title>
<path fill="none" stroke="midnightblue" d="M970.92,-534C969.61,-480.26 958.5,-331.29 878,-250 874.16,-246.12 869.52,-243.03 864.56,-240.57"/>
<polygon fill="midnightblue" stroke="midnightblue" points="967.43,-534.28 971.08,-544.23 974.43,-534.18 967.43,-534.28"/>
</g>
<!-- Node3&#45;&gt;Node3 -->
<g id="edge20" class="edge">
<title>Node3&#45;&gt;Node3</title>
<path fill="none" stroke="midnightblue" d="M474.61,-457.89C474.11,-463.54 462.74,-468 440.5,-468 408.15,-468 398.8,-458.57 412.45,-449.76"/>
<polygon fill="midnightblue" stroke="midnightblue" points="477.33,-455.69 468.55,-449.76 471.72,-459.87 477.33,-455.69"/>
</g>
<!-- Node4 -->
<g id="node4" class="node">
<title>Node4</title>
<g id="a_node4"><a xlink:href="quickjs_8c.html#ade71a22dc56e7371392393df663b28b3" target="_top" xlink:title=" ">
<polygon fill="none" stroke="red" points="202,-468.5 202,-487.5 315,-487.5 315,-468.5 202,-468.5"/>
<text text-anchor="middle" x="258.5" y="-475.5" font-family="Helvetica,sans-Serif" font-size="10.00">async_func_resume</text>
</a>
</g>
</g>
<!-- Node3&#45;&gt;Node4 -->
<g id="edge3" class="edge">
<title>Node3&#45;&gt;Node4</title>
<path fill="none" stroke="midnightblue" d="M386.76,-451.13C360.72,-456.63 329.62,-463.2 304.68,-468.46"/>
<polygon fill="midnightblue" stroke="midnightblue" points="387.78,-454.5 396.84,-449.01 386.34,-447.65 387.78,-454.5"/>
</g>
<!-- Node23 -->
<g id="node5" class="node">
<title>Node23</title>
<g id="a_node5"><a xlink:href="quickjs_8c.html#a1a4c02a29525d5cb2085dd8bca3af350" target="_top" xlink:title=" ">
<polygon fill="none" stroke="red" points="233.5,-582.5 233.5,-601.5 283.5,-601.5 283.5,-582.5 233.5,-582.5"/>
<text text-anchor="middle" x="258.5" y="-589.5" font-family="Helvetica,sans-Serif" font-size="10.00">JS_Call</text>
</a>
</g>
</g>
<!-- Node3&#45;&gt;Node23 -->
<g id="edge4" class="edge">
<title>Node3&#45;&gt;Node23</title>
<path fill="none" stroke="midnightblue" d="M415.09,-455.82C374.04,-487.38 293.15,-556.28 267.5,-582.24"/>
<polygon fill="midnightblue" stroke="midnightblue" points="417.34,-458.5 423.21,-449.68 413.12,-452.92 417.34,-458.5"/>
</g>
<!-- Node108 -->
<g id="node12" class="node">
<title>Node108</title>
<g id="a_node12"><a xlink:href="quickjs_8c.html#ad35594576a14c10812efaf958c99af8a" target="_top" xlink:title=" ">
<polygon fill="none" stroke="red" points="187,-430.5 187,-449.5 330,-449.5 330,-430.5 187,-430.5"/>
<text text-anchor="middle" x="258.5" y="-437.5" font-family="Helvetica,sans-Serif" font-size="10.00">JS_CallConstructorInternal</text>
</a>
</g>
</g>
<!-- Node3&#45;&gt;Node108 -->
<g id="edge13" class="edge">
<title>Node3&#45;&gt;Node108</title>
<path fill="none" stroke="midnightblue" d="M386.75,-433.79C369.1,-433.25 349.14,-433.11 330.35,-433.39"/>
<polygon fill="midnightblue" stroke="midnightblue" points="386.72,-437.29 396.84,-434.16 386.98,-430.3 386.72,-437.29"/>
</g>
<!-- Node122 -->
<g id="node13" class="node">
<title>Node122</title>
<g id="a_node13"><a xlink:href="quickjs_8c.html#a75f6ee5e4235a7dc99889f3d2eb2c147" target="_top" xlink:title=" ">
<polygon fill="none" stroke="red" points="223,-354.5 223,-373.5 294,-373.5 294,-354.5 223,-354.5"/>
<text text-anchor="middle" x="258.5" y="-361.5" font-family="Helvetica,sans-Serif" font-size="10.00">JS_CallFree</text>
</a>
</g>
</g>
<!-- Node3&#45;&gt;Node122 -->
<g id="edge15" class="edge">
<title>Node3&#45;&gt;Node122</title>
<path fill="none" stroke="midnightblue" d="M422.23,-424.71C400.88,-411.13 363.29,-392.52 330,-379 318.5,-374.33 305.71,-369.79 294.22,-366.41"/>
<polygon fill="midnightblue" stroke="midnightblue" points="420.33,-427.65 430.57,-430.37 424.26,-421.86 420.33,-427.65"/>
</g>
<!-- Node23&#45;&gt;Node2 -->
<g id="edge6" class="edge">
<title>Node23&#45;&gt;Node2</title>
<path fill="none" stroke="midnightblue" d="M223.54,-583.56C211.52,-579.78 198.21,-574.64 187,-568 168.33,-556.93 170.09,-545.33 151,-535 140.08,-529.09 127.26,-524.97 115.37,-522.12"/>
<polygon fill="midnightblue" stroke="midnightblue" points="222.68,-586.95 233.26,-586.42 224.65,-580.24 222.68,-586.95"/>
</g>
<!-- Node23&#45;&gt;Node3 -->
<g id="edge9" class="edge">
<title>Node23&#45;&gt;Node3</title>
<path fill="none" stroke="midnightblue" d="M283.87,-576.21C324.81,-544.75 405.42,-476.08 431.3,-449.96"/>
<polygon fill="midnightblue" stroke="midnightblue" points="281.64,-573.51 275.78,-582.34 285.86,-579.1 281.64,-573.51"/>
</g>
<!-- Node28 -->
<g id="node6" class="node">
<title>Node28</title>
<g id="a_node6"><a xlink:href="quickjs_8c.html#aa0bbf08a7e91459c68a312fba7016c6d" target="_top" xlink:title=" ">
<polygon fill="none" stroke="black" points="31,-658.5 31,-677.5 120,-677.5 120,-658.5 31,-658.5"/>
<text text-anchor="middle" x="75.5" y="-665.5" font-family="Helvetica,sans-Serif" font-size="10.00">js_array_every</text>
</a>
</g>
</g>
<!-- Node23&#45;&gt;Node28 -->
<g id="edge5" class="edge">
<title>Node23&#45;&gt;Node28</title>
<path fill="none" stroke="midnightblue" d="M223.56,-597.2C211.44,-600.05 198.06,-604.4 187,-611 167.02,-622.92 171.06,-637.22 151,-649 141.68,-654.48 130.8,-658.39 120.27,-661.18"/>
<polygon fill="midnightblue" stroke="midnightblue" points="224.29,-600.62 233.36,-595.14 222.86,-593.77 224.29,-600.62"/>
</g>
<!-- Node29 -->
<g id="node7" class="node">
<title>Node29</title>
<g id="a_node7"><a xlink:href="quickjs_8c.html#a5e32da9a43002cb96dcbd62a1a340144" target="_top" xlink:title=" ">
<polygon fill="none" stroke="black" points="33.5,-582.5 33.5,-601.5 117.5,-601.5 117.5,-582.5 33.5,-582.5"/>
<text text-anchor="middle" x="75.5" y="-589.5" font-family="Helvetica,sans-Serif" font-size="10.00">js_array_from</text>
</a>
</g>
</g>
<!-- Node23&#45;&gt;Node29 -->
<g id="edge7" class="edge">
<title>Node23&#45;&gt;Node29</title>
<path fill="none" stroke="midnightblue" d="M223.46,-592C193.44,-592 149.62,-592 117.64,-592"/>
<polygon fill="midnightblue" stroke="midnightblue" points="223.46,-595.5 233.46,-592 223.46,-588.5 223.46,-595.5"/>
</g>
<!-- Node30 -->
<g id="node8" class="node">
<title>Node30</title>
<g id="a_node8"><a xlink:href="quickjs_8c.html#a36c1692489542a86dd79a7d39ab8ff95" target="_top" xlink:title=" ">
<polygon fill="none" stroke="black" points="28.5,-620.5 28.5,-639.5 122.5,-639.5 122.5,-620.5 28.5,-620.5"/>
<text text-anchor="middle" x="75.5" y="-627.5" font-family="Helvetica,sans-Serif" font-size="10.00">js_array_reduce</text>
</a>
</g>
</g>
<!-- Node23&#45;&gt;Node30 -->
<g id="edge8" class="edge">
<title>Node23&#45;&gt;Node30</title>
<path fill="none" stroke="midnightblue" d="M223.5,-599.14C194.79,-605.17 153.44,-613.85 121.9,-620.47"/>
<polygon fill="midnightblue" stroke="midnightblue" points="224.4,-602.53 233.46,-597.05 222.96,-595.68 224.4,-602.53"/>
</g>
<!-- Node70 -->
<g id="node9" class="node">
<title>Node70</title>
<g id="a_node9"><a xlink:href="quickjs_8c.html#a27dcb5e2923cd6c0201c70546d704748" target="_top" xlink:title=" ">
<polygon fill="none" stroke="red" points="19.5,-411.5 19.5,-430.5 131.5,-430.5 131.5,-411.5 19.5,-411.5"/>
<text text-anchor="middle" x="75.5" y="-418.5" font-family="Helvetica,sans-Serif" font-size="10.00">js_map_constructor</text>
</a>
</g>
</g>
<!-- Node23&#45;&gt;Node70 -->
<g id="edge10" class="edge">
<title>Node23&#45;&gt;Node70</title>
<path fill="none" stroke="midnightblue" d="M244.34,-573.69C221.01,-541.57 172.81,-476.77 151,-459 136.14,-446.89 116.8,-437.17 101.55,-430.59"/>
<polygon fill="midnightblue" stroke="midnightblue" points="241.78,-576.12 250.47,-582.17 247.45,-572.02 241.78,-576.12"/>
</g>
<!-- Node23&#45;&gt;Node104 -->
<g id="edge11" class="edge">
<title>Node23&#45;&gt;Node104</title>
<path fill="none" stroke="midnightblue" d="M238.79,-575.73C224.53,-563.28 204.44,-545.66 187,-530 170.85,-515.5 170.09,-507.33 151,-497 143.84,-493.13 135.86,-490.02 127.86,-487.53"/>
<polygon fill="midnightblue" stroke="midnightblue" points="236.61,-578.47 246.45,-582.4 241.21,-573.2 236.61,-578.47"/>
</g>
<!-- Node69 -->
<g id="node11" class="node">
<title>Node69</title>
<g id="a_node11"><a xlink:href="quickjs_8c.html#a5f46f50deddd4e3a23da24e8173db28e" target="_top" xlink:title=" ">
<polygon fill="none" stroke="black" points="17,-544.5 17,-563.5 134,-563.5 134,-544.5 17,-544.5"/>
<text text-anchor="middle" x="75.5" y="-551.5" font-family="Helvetica,sans-Serif" font-size="10.00">js_typed_array_from</text>
</a>
</g>
</g>
<!-- Node23&#45;&gt;Node69 -->
<g id="edge12" class="edge">
<title>Node23&#45;&gt;Node69</title>
<path fill="none" stroke="midnightblue" d="M223.5,-584.86C194.79,-578.83 153.44,-570.15 121.9,-563.53"/>
<polygon fill="midnightblue" stroke="midnightblue" points="222.96,-588.32 233.46,-586.95 224.4,-581.47 222.96,-588.32"/>
</g>
<!-- Node108&#45;&gt;Node3 -->
<g id="edge14" class="edge">
<title>Node108&#45;&gt;Node3</title>
<path fill="none" stroke="midnightblue" d="M340.45,-446.72C359.91,-446.85 379.93,-446.56 396.84,-445.84"/>
<polygon fill="midnightblue" stroke="midnightblue" points="340.38,-443.22 330.35,-446.61 340.31,-450.22 340.38,-443.22"/>
</g>
<!-- Node122&#45;&gt;Node3 -->
<g id="edge16" class="edge">
<title>Node122&#45;&gt;Node3</title>
<path fill="none" stroke="midnightblue" d="M279.97,-377.86C294.16,-383.8 313.42,-390.27 330,-397 355.74,-407.45 384.05,-420.95 405.43,-430.34"/>
<polygon fill="midnightblue" stroke="midnightblue" points="281.19,-374.57 270.63,-373.62 278.3,-380.94 281.19,-374.57"/>
</g>
<!-- Node327 -->
<g id="node14" class="node">
<title>Node327</title>
<g id="a_node14"><a xlink:href="quickjs_8c.html#a5762c57ae0c9937e986040c01222833a" target="_top" xlink:title=" ">
<polygon fill="none" stroke="red" points="12,-354.5 12,-373.5 139,-373.5 139,-354.5 12,-354.5"/>
<text text-anchor="middle" x="75.5" y="-361.5" font-family="Helvetica,sans-Serif" font-size="10.00">JS_GetPropertyInternal</text>
</a>
</g>
</g>
<!-- Node122&#45;&gt;Node327 -->
<g id="edge17" class="edge">
<title>Node122&#45;&gt;Node327</title>
<path fill="none" stroke="midnightblue" d="M212.48,-364C190.33,-364 163.27,-364 139.14,-364"/>
<polygon fill="midnightblue" stroke="midnightblue" points="212.6,-367.5 222.6,-364 212.6,-360.5 212.6,-367.5"/>
</g>
<!-- Node353 -->
<g id="node15" class="node">
<title>Node353</title>
<g id="a_node15"><a xlink:href="quickjs_8c.html#a438b354d69a8f0674195b0cdc19dd686" target="_top" xlink:title=" ">
<polygon fill="none" stroke="black" points="0,-197 0,-227 151,-227 151,-197 0,-197"/>
<text text-anchor="start" x="8" y="-215" font-family="Helvetica,sans-Serif" font-size="10.00">js_proxy_get_own_property</text>
<text text-anchor="middle" x="75.5" y="-204" font-family="Helvetica,sans-Serif" font-size="10.00">_names</text>
</a>
</g>
</g>
<!-- Node122&#45;&gt;Node353 -->
<g id="edge19" class="edge">
<title>Node122&#45;&gt;Node353</title>
<path fill="none" stroke="midnightblue" d="M238.1,-347.71C202.84,-318.1 128.74,-255.87 94.52,-227.14"/>
<polygon fill="midnightblue" stroke="midnightblue" points="236.27,-350.74 246.18,-354.49 240.77,-345.38 236.27,-350.74"/>
</g>
<!-- Node327&#45;&gt;Node3 -->
<g id="edge18" class="edge">
<title>Node327&#45;&gt;Node3</title>
<path fill="none" stroke="midnightblue" d="M131.79,-375.58C204.55,-390.81 330.92,-417.27 396.79,-431.06"/>
<polygon fill="midnightblue" stroke="midnightblue" points="132.39,-372.13 121.89,-373.5 130.96,-378.98 132.39,-372.13"/>
</g>
<!-- Node363&#45;&gt;Node28 -->
<g id="edge22" class="edge">
<title>Node363&#45;&gt;Node28</title>
<path fill="none" stroke="midnightblue" d="M202.01,-641.65C175.76,-647.16 144.86,-653.65 120.29,-658.81"/>
<polygon fill="midnightblue" stroke="midnightblue" points="202.76,-645.07 211.83,-639.59 201.32,-638.22 202.76,-645.07"/>
</g>
<!-- Node363&#45;&gt;Node29 -->
<g id="edge23" class="edge">
<title>Node363&#45;&gt;Node29</title>
<path fill="none" stroke="midnightblue" d="M202.04,-618.36C174.78,-612.63 142.52,-605.86 117.52,-600.61"/>
<polygon fill="midnightblue" stroke="midnightblue" points="201.32,-621.78 211.83,-620.41 202.76,-614.93 201.32,-621.78"/>
</g>
<!-- Node363&#45;&gt;Node30 -->
<g id="edge24" class="edge">
<title>Node363&#45;&gt;Node30</title>
<path fill="none" stroke="midnightblue" d="M190.98,-630C168.3,-630 143.46,-630 122.72,-630"/>
<polygon fill="midnightblue" stroke="midnightblue" points="191.22,-633.5 201.22,-630 191.22,-626.5 191.22,-633.5"/>
</g>
<!-- Node363&#45;&gt;Node69 -->
<g id="edge28" class="edge">
<title>Node363&#45;&gt;Node69</title>
<path fill="none" stroke="midnightblue" d="M198.66,-616.86C194.61,-615.14 190.67,-613.19 187,-611 167.02,-599.08 171.06,-584.78 151,-573 144.44,-569.15 137.11,-566.07 129.67,-563.61"/>
<polygon fill="midnightblue" stroke="midnightblue" points="197.7,-620.24 208.29,-620.49 200.17,-613.69 197.7,-620.24"/>
</g>
<!-- Node363&#45;&gt;Node79 -->
<g id="edge25" class="edge">
<title>Node363&#45;&gt;Node79</title>
<path fill="none" stroke="midnightblue" d="M193.51,-644.32C191.23,-645.74 189.04,-647.29 187,-649 158.31,-672.96 179.85,-701.24 151,-725 141.52,-732.81 129.23,-737.46 117.38,-740.21"/>
<polygon fill="midnightblue" stroke="midnightblue" points="195.49,-647.24 202.76,-639.52 192.27,-641.03 195.49,-647.24"/>
</g>
<!-- Node363&#45;&gt;Node354 -->
<g id="edge27" class="edge">
<title>Node363&#45;&gt;Node354</title>
<path fill="none" stroke="midnightblue" d="M198.66,-643.14C194.61,-644.86 190.67,-646.81 187,-649 167.02,-660.92 171.06,-675.22 151,-687 144.44,-690.85 137.11,-693.93 129.67,-696.39"/>
<polygon fill="midnightblue" stroke="midnightblue" points="200.17,-646.31 208.29,-639.51 197.7,-639.76 200.17,-646.31"/>
</g>
<!-- Node79&#45;&gt;Node79 -->
<g id="edge26" class="edge">
<title>Node79&#45;&gt;Node79</title>
<path fill="none" stroke="midnightblue" d="M109.61,-761.89C109.11,-767.54 97.74,-772 75.5,-772 43.15,-772 33.8,-762.57 47.45,-753.76"/>
<polygon fill="midnightblue" stroke="midnightblue" points="112.33,-759.69 103.55,-753.76 106.72,-763.87 112.33,-759.69"/>
</g>
<!-- Node606&#45;&gt;Node70 -->
<g id="edge38" class="edge">
<title>Node606&#45;&gt;Node70</title>
<path fill="none" stroke="midnightblue" d="M745.71,-274.79C592.07,-287.83 236.1,-320.28 187,-345 166.22,-355.46 169.63,-369.07 151,-383 135.3,-394.74 115.44,-404.66 100.18,-411.42"/>
<polygon fill="midnightblue" stroke="midnightblue" points="746.3,-278.25 755.97,-273.92 745.71,-271.27 746.3,-278.25"/>
</g>
<!-- Node606&#45;&gt;Node327 -->
<g id="edge37" class="edge">
<title>Node606&#45;&gt;Node327</title>
<path fill="none" stroke="midnightblue" d="M745.6,-263.75C603.6,-254.1 287.8,-237.69 187,-274 141.14,-290.52 100.43,-334.91 84.1,-354.49"/>
<polygon fill="midnightblue" stroke="midnightblue" points="745.71,-267.27 755.93,-264.46 746.19,-260.28 745.71,-267.27"/>
</g>
<!-- Node606&#45;&gt;Node353 -->
<g id="edge41" class="edge">
<title>Node606&#45;&gt;Node353</title>
<path fill="none" stroke="midnightblue" d="M774.7,-256.31C768.41,-254.26 762.02,-252.12 756,-250 739.81,-244.29 736.81,-239.48 720,-236 517.74,-194.14 272.27,-200.2 151.29,-206.81"/>
<polygon fill="midnightblue" stroke="midnightblue" points="773.83,-259.7 784.42,-259.42 775.97,-253.04 773.83,-259.7"/>
</g>
<!-- Node352 -->
<g id="node20" class="node">
<title>Node352</title>
<g id="a_node20"><a xlink:href="quickjs_8c.html#a4956f45ffd2849b96dc051277264f87a" target="_top" xlink:title=" ">
<polygon fill="none" stroke="red" points="594.5,-430.5 594.5,-449.5 676.5,-449.5 676.5,-430.5 594.5,-430.5"/>
<text text-anchor="middle" x="635.5" y="-437.5" font-family="Helvetica,sans-Serif" font-size="10.00">build_arg_list</text>
</a>
</g>
</g>
<!-- Node606&#45;&gt;Node352 -->
<g id="edge30" class="edge">
<title>Node606&#45;&gt;Node352</title>
<path fill="none" stroke="midnightblue" d="M809.37,-288.42C797.15,-321.18 767.85,-387.16 720,-421 707.38,-429.93 691.23,-434.74 676.5,-437.3"/>
<polygon fill="midnightblue" stroke="midnightblue" points="812.79,-289.27 812.87,-278.68 806.2,-286.91 812.79,-289.27"/>
</g>
<!-- Node607 -->
<g id="node21" class="node">
<title>Node607</title>
<g id="a_node21"><a xlink:href="structqjs_1_1js__property__traits_3_01uint32__t_01_4.html#af19da02fec28059477a39b16c531a97c" target="_top" xlink:title=" ">
<polygon fill="none" stroke="black" points="562,-115 562,-145 709,-145 709,-115 562,-115"/>
<text text-anchor="start" x="570" y="-133" font-family="Helvetica,sans-Serif" font-size="10.00">qjs::js_property_traits</text>
<text text-anchor="middle" x="635.5" y="-122" font-family="Helvetica,sans-Serif" font-size="10.00">&lt; uint32_t &gt;::get_property</text>
</a>
</g>
</g>
<!-- Node606&#45;&gt;Node607 -->
<g id="edge32" class="edge">
<title>Node606&#45;&gt;Node607</title>
<path fill="none" stroke="midnightblue" d="M761.43,-254.33C759.51,-253.01 757.69,-251.57 756,-250 724.43,-220.68 751,-189.92 720,-160 713.68,-153.9 706.04,-149.03 697.97,-145.15"/>
<polygon fill="midnightblue" stroke="midnightblue" points="759.93,-257.51 770.35,-259.4 763.38,-251.42 759.93,-257.51"/>
</g>
<!-- Node246 -->
<g id="node22" class="node">
<title>Node246</title>
<g id="a_node22"><a xlink:href="quickjs_8c.html#a4398c126700f887a947501bf25910f75" target="_top" xlink:title=" ">
<polygon fill="none" stroke="red" points="573.5,-76.5 573.5,-95.5 697.5,-95.5 697.5,-76.5 573.5,-76.5"/>
<text text-anchor="middle" x="635.5" y="-83.5" font-family="Helvetica,sans-Serif" font-size="10.00">js_array_iterator_next</text>
</a>
</g>
</g>
<!-- Node606&#45;&gt;Node246 -->
<g id="edge33" class="edge">
<title>Node606&#45;&gt;Node246</title>
<path fill="none" stroke="midnightblue" d="M760.43,-254.06C758.86,-252.82 757.37,-251.46 756,-250 710.56,-201.58 767.41,-151.49 720,-105 713.74,-98.86 705.93,-94.54 697.61,-91.53"/>
<polygon fill="midnightblue" stroke="midnightblue" points="758.62,-257.06 768.94,-259.48 762.38,-251.16 758.62,-257.06"/>
</g>
<!-- Node297 -->
<g id="node23" class="node">
<title>Node297</title>
<g id="a_node23"><a xlink:href="quickjs_8c.html#a4f8035820871c730dd7e98d46e137bc1" target="_top" xlink:title=" ">
<polygon fill="none" stroke="black" points="596,-38.5 596,-57.5 675,-57.5 675,-38.5 596,-38.5"/>
<text text-anchor="middle" x="635.5" y="-45.5" font-family="Helvetica,sans-Serif" font-size="10.00">js_array_join</text>
</a>
</g>
</g>
<!-- Node606&#45;&gt;Node297 -->
<g id="edge34" class="edge">
<title>Node606&#45;&gt;Node297</title>
<path fill="none" stroke="midnightblue" d="M759.87,-253.76C758.5,-252.59 757.2,-251.34 756,-250 700.77,-188.19 777.74,-126.47 720,-67 708.4,-55.05 690.97,-49.92 675.03,-47.93"/>
<polygon fill="midnightblue" stroke="midnightblue" points="758.2,-256.85 768.46,-259.5 762.09,-251.03 758.2,-256.85"/>
</g>
<!-- Node608 -->
<g id="node24" class="node">
<title>Node608</title>
<g id="a_node24"><a xlink:href="quickjs_8c.html#ad13892c0a0f11781b566808876658099" target="_top" xlink:title=" ">
<polygon fill="none" stroke="red" points="366,-164.5 366,-183.5 515,-183.5 515,-164.5 366,-164.5"/>
<text text-anchor="middle" x="440.5" y="-171.5" font-family="Helvetica,sans-Serif" font-size="10.00">JS_GetOwnPropertyInternal</text>
</a>
</g>
</g>
<!-- Node606&#45;&gt;Node608 -->
<g id="edge35" class="edge">
<title>Node606&#45;&gt;Node608</title>
<path fill="none" stroke="midnightblue" d="M764.44,-255.27C761.48,-253.7 758.64,-251.95 756,-250 733.39,-233.3 744.31,-212.1 720,-198 655.56,-160.62 568.27,-159.44 508.7,-164.49"/>
<polygon fill="midnightblue" stroke="midnightblue" points="763.07,-258.49 773.62,-259.49 765.99,-252.13 763.07,-258.49"/>
</g>
<!-- Node72 -->
<g id="node25" class="node">
<title>Node72</title>
<g id="a_node25"><a xlink:href="quickjs_8c.html#ad6908ae6db4e80d175180b55e19b203e" target="_top" xlink:title=" ">
<polygon fill="none" stroke="black" points="574.5,-0.5 574.5,-19.5 696.5,-19.5 696.5,-0.5 574.5,-0.5"/>
<text text-anchor="middle" x="635.5" y="-7.5" font-family="Helvetica,sans-Serif" font-size="10.00">js_object_fromEntries</text>
</a>
</g>
</g>
<!-- Node606&#45;&gt;Node72 -->
<g id="edge39" class="edge">
<title>Node606&#45;&gt;Node72</title>
<path fill="none" stroke="midnightblue" d="M759.73,-253.73C758.4,-252.58 757.15,-251.34 756,-250 690.92,-174.71 788.14,-101.53 720,-29 713.69,-22.28 705.54,-17.7 696.81,-14.62"/>
<polygon fill="midnightblue" stroke="midnightblue" points="757.82,-256.67 768.04,-259.45 761.79,-250.9 757.82,-256.67"/>
</g>
<!-- Node331 -->
<g id="node26" class="node">
<title>Node331</title>
<g id="a_node26"><a xlink:href="quickjs-libc_8c.html#a0b92fee4bb5dda499a0b6d86da0e8be8" target="_top" xlink:title=" ">
<polygon fill="none" stroke="black" points="601,-392.5 601,-411.5 670,-411.5 670,-392.5 601,-392.5"/>
<text text-anchor="middle" x="635.5" y="-399.5" font-family="Helvetica,sans-Serif" font-size="10.00">js_os_exec</text>
</a>
</g>
</g>
<!-- Node606&#45;&gt;Node331 -->
<g id="edge40" class="edge">
<title>Node606&#45;&gt;Node331</title>
<path fill="none" stroke="midnightblue" d="M805.71,-287.53C790.46,-313.16 759.38,-359 720,-383 705.02,-392.13 686.11,-396.88 670.07,-399.35"/>
<polygon fill="midnightblue" stroke="midnightblue" points="808.79,-289.19 810.76,-278.78 802.73,-285.69 808.79,-289.19"/>
</g>
<!-- Node47 -->
<g id="node27" class="node">
<title>Node47</title>
<g id="a_node27"><a xlink:href="quickjs_8c.html#acf0e1803a9586d86d752b002a89fb8ed" target="_top" xlink:title=" ">
<polygon fill="none" stroke="red" points="551,-354.5 551,-373.5 720,-373.5 720,-354.5 551,-354.5"/>
<text text-anchor="middle" x="635.5" y="-361.5" font-family="Helvetica,sans-Serif" font-size="10.00">js_typed_array_constructor_obj</text>
</a>
</g>
</g>
<!-- Node606&#45;&gt;Node47 -->
<g id="edge42" class="edge">
<title>Node606&#45;&gt;Node47</title>
<path fill="none" stroke="midnightblue" d="M799.58,-285.87C781.64,-303.3 751.26,-330.03 720,-345 711.95,-348.85 703.09,-351.94 694.24,-354.42"/>
<polygon fill="midnightblue" stroke="midnightblue" points="802.28,-288.12 806.91,-278.58 797.35,-283.15 802.28,-288.12"/>
</g>
<!-- Node323 -->
<g id="node28" class="node">
<title>Node323</title>
<g id="a_node28"><a xlink:href="quickjs_8c.html#a19e15727ea84a3735a3850b18da03330" target="_top" xlink:title=" ">
<polygon fill="none" stroke="red" points="553.5,-316.5 553.5,-335.5 717.5,-335.5 717.5,-316.5 553.5,-316.5"/>
<text text-anchor="middle" x="635.5" y="-323.5" font-family="Helvetica,sans-Serif" font-size="10.00">js_typed_array_constructor_ta</text>
</a>
</g>
</g>
<!-- Node606&#45;&gt;Node323 -->
<g id="edge43" class="edge">
<title>Node606&#45;&gt;Node323</title>
<path fill="none" stroke="midnightblue" d="M779.73,-281.96C761.83,-288.23 739.85,-295.74 720,-302 704.03,-307.04 686.21,-312.22 671.15,-316.47"/>
<polygon fill="midnightblue" stroke="midnightblue" points="780.95,-285.24 789.22,-278.62 778.63,-278.64 780.95,-285.24"/>
</g>
<!-- Node352&#45;&gt;Node3 -->
<g id="edge31" class="edge">
<title>Node352&#45;&gt;Node3</title>
<path fill="none" stroke="midnightblue" d="M583.87,-440C552.88,-440 513.67,-440 484.25,-440"/>
<polygon fill="midnightblue" stroke="midnightblue" points="584.04,-443.5 594.04,-440 584.04,-436.5 584.04,-443.5"/>
</g>
<!-- Node608&#45;&gt;Node353 -->
<g id="edge36" class="edge">
<title>Node608&#45;&gt;Node353</title>
<path fill="none" stroke="midnightblue" d="M356,-181.28C306.78,-185.73 243.3,-191.76 187,-198 175.37,-199.29 163.07,-200.75 151.06,-202.23"/>
<polygon fill="midnightblue" stroke="midnightblue" points="356.32,-184.76 365.96,-180.38 355.69,-177.79 356.32,-184.76"/>
</g>
<!-- Node518&#45;&gt;Node28 -->
<g id="edge47" class="edge">
<title>Node518&#45;&gt;Node28</title>
<path fill="none" stroke="midnightblue" d="M184.26,-668C162.56,-668 139.47,-668 120.26,-668"/>
<polygon fill="midnightblue" stroke="midnightblue" points="184.45,-671.5 194.45,-668 184.45,-664.5 184.45,-671.5"/>
</g>
<!-- Node518&#45;&gt;Node30 -->
<g id="edge48" class="edge">
<title>Node518&#45;&gt;Node30</title>
<path fill="none" stroke="midnightblue" d="M201.86,-656.32C176.19,-650.93 146.11,-644.61 121.85,-639.52"/>
<polygon fill="midnightblue" stroke="midnightblue" points="201.32,-659.78 211.83,-658.41 202.76,-652.93 201.32,-659.78"/>
</g>
</g>
</svg>
        <g id="navigator" transform="translate(0 0)" fill="#404254">
                <rect fill="#f2f5e9" fill-opacity="0.5" stroke="#606060" stroke-width=".5" x="0" y="0" width="60" height="60"/>
                <use id="zoomplus" xlink:href="#zoomPlus" x="17" y="9" onmousedown="handleZoom(evt,'in')"/>
                <use id="zoomminus" xlink:href="#zoomMin" x="42" y="9" onmousedown="handleZoom(evt,'out')"/>
                <use id="reset" xlink:href="#resetDef" x="30" y="36" onmousedown="handleReset()"/>
                <g id="arrowUp" xlink:href="#dirArrow" transform="translate(30 24)" onmousedown="handlePan(0,-1)">
                  <use xlink:href="#rim" fill="#404040">
                        <set attributeName="fill" to="#808080" begin="arrowUp.mouseover" end="arrowUp.mouseout"/>
                  </use>
                  <path fill="none" stroke="white" stroke-width="1.5" d="M0,-3.0v7 M-2.5,-0.5L0,-3.0L2.5,-0.5"/>
                </g>
                <g id="arrowRight" xlink:href="#dirArrow" transform="rotate(90) translate(36 -43)" onmousedown="handlePan(1,0)">
                  <use xlink:href="#rim" fill="#404040">
                        <set attributeName="fill" to="#808080" begin="arrowRight.mouseover" end="arrowRight.mouseout"/>
                  </use>
                  <path fill="none" stroke="white" stroke-width="1.5" d="M0,-3.0v7 M-2.5,-0.5L0,-3.0L2.5,-0.5"/>
                </g>
                <g id="arrowDown" xlink:href="#dirArrow" transform="rotate(180) translate(-30 -48)" onmousedown="handlePan(0,1)">
                  <use xlink:href="#rim" fill="#404040">
                        <set attributeName="fill" to="#808080" begin="arrowDown.mouseover" end="arrowDown.mouseout"/>
                  </use>
                  <path fill="none" stroke="white" stroke-width="1.5" d="M0,-3.0v7 M-2.5,-0.5L0,-3.0L2.5,-0.5"/>
                </g>
                <g id="arrowLeft" xlink:href="#dirArrow" transform="rotate(270) translate(-36 17)" onmousedown="handlePan(-1,0)">
                  <use xlink:href="#rim" fill="#404040">
                        <set attributeName="fill" to="#808080" begin="arrowLeft.mouseover" end="arrowLeft.mouseout"/>
                  </use>
                  <path fill="none" stroke="white" stroke-width="1.5" d="M0,-3.0v7 M-2.5,-0.5L0,-3.0L2.5,-0.5"/>
                </g>
        </g>
        <svg viewBox="0 0 15 15" width="100%" height="30px" preserveAspectRatio="xMaxYMin meet">
         <g id="arrow_out" transform="scale(0.3 0.3)">
          <a xlink:href="quickjs_8c_a90d6e607f6917d817c1e997bd2e6ed07_icgraph_org.svg" target="_base">
           <rect id="button" ry="5" rx="5" y="6" x="6" height="38" width="38"
                fill="#f2f5e9" fill-opacity="0.5" stroke="#606060" stroke-width="1.0"/>
           <path id="arrow"
             d="M 11.500037,31.436501 C 11.940474,20.09759 22.043105,11.32322 32.158766,21.979434 L 37.068811,17.246167 C 37.068811,17.246167 37.088388,32 37.088388,32 L 22.160133,31.978069 C 22.160133,31.978069 26.997745,27.140456 26.997745,27.140456 C 18.528582,18.264221 13.291696,25.230495 11.500037,31.436501 z"
             style="fill:#404040;"/>
          </a>
         </g>
        </svg>
</svg>
