<?xml version="1.0" encoding="UTF-8" standalone="no"?>
<!DOCTYPE svg PUBLIC "-//W3C//DTD SVG 1.1//EN"
 "http://www.w3.org/Graphics/SVG/1.1/DTD/svg11.dtd">
<!-- Generated by graphviz version 2.43.0 (0)
 -->
<!-- Title: js_date_toJSON Pages: 1 -->
<!--zoomable 1088 -->
<svg id="main" version="1.1" xmlns="http://www.w3.org/2000/svg" xmlns:xlink="http://www.w3.org/1999/xlink" xml:space="preserve" onload="init(evt)">
<style type="text/css"><![CDATA[
.edge:hover path { stroke: red; }
.edge:hover polygon { stroke: red; fill: red; }
]]></style>
<script type="text/javascript"><![CDATA[
var edges = document.getElementsByTagName('g');
if (edges && edges.length) {
  for (var i=0;i<edges.length;i++) {
    if (edges[i].id.substr(0,4)=='edge') {
      edges[i].setAttribute('class','edge');
    }
  }
}
]]></script>
        <defs>
                <circle id="rim" cx="0" cy="0" r="7"/>
                <circle id="rim2" cx="0" cy="0" r="3.5"/>
                <g id="zoomPlus">
                        <use xlink:href="#rim" fill="#404040">
                                <set attributeName="fill" to="#808080" begin="zoomplus.mouseover" end="zoomplus.mouseout"/>
                        </use>
                        <path d="M-4,0h8M0,-4v8" fill="none" stroke="white" stroke-width="1.5" pointer-events="none"/>
                </g>
                <g id="zoomMin">
                        <use xlink:href="#rim" fill="#404040">
                                <set attributeName="fill" to="#808080" begin="zoomminus.mouseover" end="zoomminus.mouseout"/>
                        </use>
                        <path d="M-4,0h8" fill="none" stroke="white" stroke-width="1.5" pointer-events="none"/>
                </g>
                <g id="dirArrow">
                        <path fill="none" stroke="white" stroke-width="1.5" d="M0,-3.0v7 M-2.5,-0.5L0,-3.0L2.5,-0.5"/>
                </g>
               <g id="resetDef">
                       <use xlink:href="#rim2" fill="#404040">
                               <set attributeName="fill" to="#808080" begin="reset.mouseover" end="reset.mouseout"/>
                       </use>
               </g>
        </defs>

<script type="text/javascript">
var viewWidth = 795;
var viewHeight = 1088;
var sectionId = 'dynsection-1844';
</script>
<script xlink:href="svgpan.js"/>
<svg id="graph" class="graph">
<g id="viewport">
<title>js_date_toJSON</title>
<!-- Node1 -->
<g id="node1" class="node">
<title>Node1</title>
<g id="a_node1"><a xlink:title=" ">
<polygon fill="#bfbfbf" stroke="black" points="0,-256.94 0,-275.94 91,-275.94 91,-256.94 0,-256.94"/>
<text text-anchor="middle" x="45.5" y="-263.94" font-family="Helvetica,sans-Serif" font-size="10.00">js_date_toJSON</text>
</a>
</g>
</g>
<!-- Node2 -->
<g id="node2" class="node">
<title>Node2</title>
<g id="a_node2"><a xlink:href="quickjs_8c.html#a75f6ee5e4235a7dc99889f3d2eb2c147" target="_top" xlink:title=" ">
<polygon fill="none" stroke="black" points="130.5,-579.94 130.5,-598.94 201.5,-598.94 201.5,-579.94 130.5,-579.94"/>
<text text-anchor="middle" x="166" y="-586.94" font-family="Helvetica,sans-Serif" font-size="10.00">JS_CallFree</text>
</a>
</g>
</g>
<!-- Node1&#45;&gt;Node2 -->
<g id="edge1" class="edge">
<title>Node1&#45;&gt;Node2</title>
<path fill="none" stroke="midnightblue" d="M50.05,-276.11C66.5,-320.97 135.57,-509.22 157.96,-570.25"/>
<polygon fill="midnightblue" stroke="midnightblue" points="154.74,-571.63 161.47,-579.81 161.31,-569.22 154.74,-571.63"/>
</g>
<!-- Node57 -->
<g id="node10" class="node">
<title>Node57</title>
<g id="a_node10"><a xlink:href="quickjs_8h.html#afaa20c47565bc704c6c85f3d77254e7d" target="_top" xlink:title=" ">
<polygon fill="none" stroke="red" points="708,-712.94 708,-731.94 787,-731.94 787,-712.94 708,-712.94"/>
<text text-anchor="middle" x="747.5" y="-719.94" font-family="Helvetica,sans-Serif" font-size="10.00">JS_FreeValue</text>
</a>
</g>
</g>
<!-- Node1&#45;&gt;Node57 -->
<g id="edge45" class="edge">
<title>Node1&#45;&gt;Node57</title>
<path fill="none" stroke="midnightblue" d="M49.85,-256.66C66.94,-208.67 149.29,-0.44 291.5,-0.44 291.5,-0.44 291.5,-0.44 443.5,-0.44 550.53,-0.44 604.52,6.63 672,-76.44 712.57,-126.38 739.96,-599.59 745.47,-702.68"/>
<polygon fill="midnightblue" stroke="midnightblue" points="741.98,-702.87 746,-712.67 748.97,-702.5 741.98,-702.87"/>
</g>
<!-- Node75 -->
<g id="node12" class="node">
<title>Node75</title>
<g id="a_node12"><a xlink:href="quickjs_8h.html#ad80a83d73e9b7d872b88fbf2943aebe9" target="_top" xlink:title=" ">
<polygon fill="none" stroke="black" points="563,-636.94 563,-655.94 650,-655.94 650,-636.94 563,-636.94"/>
<text text-anchor="middle" x="606.5" y="-643.94" font-family="Helvetica,sans-Serif" font-size="10.00">JS_IsException</text>
</a>
</g>
</g>
<!-- Node1&#45;&gt;Node75 -->
<g id="edge50" class="edge">
<title>Node1&#45;&gt;Node75</title>
<path fill="none" stroke="midnightblue" d="M46.59,-275.98C47.38,-318.36 55.07,-492.63 127,-608.44 203.95,-732.34 242.76,-768.09 380,-817.44 432.28,-836.24 456.78,-845.03 505,-817.44 562.94,-784.29 590.76,-703.28 600.85,-665.91"/>
<polygon fill="midnightblue" stroke="midnightblue" points="604.25,-666.77 603.33,-656.21 597.47,-665.03 604.25,-666.77"/>
</g>
<!-- Node278 -->
<g id="node23" class="node">
<title>Node278</title>
<g id="a_node23"><a xlink:href="quickjs_8c.html#a710289a14c2810467e5b448d3c28bd55" target="_top" xlink:title=" ">
<polygon fill="none" stroke="red" points="406,-940.94 406,-959.94 479,-959.94 479,-940.94 406,-940.94"/>
<text text-anchor="middle" x="442.5" y="-947.94" font-family="Helvetica,sans-Serif" font-size="10.00">JS_ToObject</text>
</a>
</g>
</g>
<!-- Node1&#45;&gt;Node278 -->
<g id="edge55" class="edge">
<title>Node1&#45;&gt;Node278</title>
<path fill="none" stroke="midnightblue" d="M46.28,-275.97C44.84,-347.08 39.38,-794.84 127,-888.44 196.37,-962.54 326.53,-962.53 395.65,-956.39"/>
<polygon fill="midnightblue" stroke="midnightblue" points="396.18,-959.86 405.79,-955.41 395.5,-952.89 396.18,-959.86"/>
</g>
<!-- Node124 -->
<g id="node25" class="node">
<title>Node124</title>
<g id="a_node25"><a xlink:href="quickjs_8c.html#a1ca9cdb1fa2ffc3e6506e92b200e490f" target="_top" xlink:title=" ">
<polygon fill="none" stroke="black" points="566.5,-85.94 566.5,-104.94 646.5,-104.94 646.5,-85.94 566.5,-85.94"/>
<text text-anchor="middle" x="606.5" y="-92.94" font-family="Helvetica,sans-Serif" font-size="10.00">JS_IsFunction</text>
</a>
</g>
</g>
<!-- Node1&#45;&gt;Node124 -->
<g id="edge51" class="edge">
<title>Node1&#45;&gt;Node124</title>
<path fill="none" stroke="midnightblue" d="M52.76,-256.7C65.1,-238.12 94.19,-197.21 127,-171.44 224,-95.27 259,-81.29 380,-57.44 434.51,-46.7 450.35,-47.45 505,-57.44 530.27,-62.06 557.44,-72.71 577.15,-81.56"/>
<polygon fill="midnightblue" stroke="midnightblue" points="575.91,-84.84 586.46,-85.86 578.84,-78.49 575.91,-84.84"/>
</g>
<!-- Node437 -->
<g id="node26" class="node">
<title>Node437</title>
<g id="a_node26"><a xlink:href="quickjs_8c.html#a04f589361a4fbc30d997402e92a50de2" target="_top" xlink:title=" ">
<polygon fill="none" stroke="black" points="241,-123.94 241,-142.94 344,-142.94 344,-123.94 241,-123.94"/>
<text text-anchor="middle" x="292.5" y="-130.94" font-family="Helvetica,sans-Serif" font-size="10.00">JS_GetPropertyStr</text>
</a>
</g>
</g>
<!-- Node1&#45;&gt;Node437 -->
<g id="edge46" class="edge">
<title>Node1&#45;&gt;Node437</title>
<path fill="none" stroke="midnightblue" d="M85.43,-256.87C118.66,-247.68 166.97,-231.88 205,-209.44 232.52,-193.2 259.4,-167.61 275.7,-150.68"/>
<polygon fill="midnightblue" stroke="midnightblue" points="278.5,-152.82 282.82,-143.14 273.41,-148.01 278.5,-152.82"/>
</g>
<!-- Node228 -->
<g id="node28" class="node">
<title>Node228</title>
<g id="a_node28"><a xlink:href="quickjs_8h.html#ab995df176086f2a2a06ab777d4c4ef28" target="_top" xlink:title=" ">
<polygon fill="none" stroke="black" points="127,-180.94 127,-199.94 205,-199.94 205,-180.94 127,-180.94"/>
<text text-anchor="middle" x="166" y="-187.94" font-family="Helvetica,sans-Serif" font-size="10.00">JS_IsNumber</text>
</a>
</g>
</g>
<!-- Node1&#45;&gt;Node228 -->
<g id="edge52" class="edge">
<title>Node1&#45;&gt;Node228</title>
<path fill="none" stroke="midnightblue" d="M61.31,-256.81C77.43,-246.34 104,-229.13 127,-214.44 131.57,-211.52 136.46,-208.42 141.15,-205.45"/>
<polygon fill="midnightblue" stroke="midnightblue" points="143.23,-208.28 149.81,-199.98 139.49,-202.36 143.23,-208.28"/>
</g>
<!-- Node229 -->
<g id="node29" class="node">
<title>Node229</title>
<g id="a_node29"><a xlink:href="quickjs_8c.html#a8cc9386cd04cfa067d0c6bf588c6bb58" target="_top" xlink:title=" ">
<polygon fill="none" stroke="red" points="127,-294.94 127,-313.94 205,-313.94 205,-294.94 127,-294.94"/>
<text text-anchor="middle" x="166" y="-301.94" font-family="Helvetica,sans-Serif" font-size="10.00">JS_ToFloat64</text>
</a>
</g>
</g>
<!-- Node1&#45;&gt;Node229 -->
<g id="edge53" class="edge">
<title>Node1&#45;&gt;Node229</title>
<path fill="none" stroke="midnightblue" d="M76.4,-276.03C91.28,-280.8 109.46,-286.63 125.47,-291.76"/>
<polygon fill="midnightblue" stroke="midnightblue" points="124.52,-295.13 135.11,-294.86 126.65,-288.47 124.52,-295.13"/>
</g>
<!-- Node122 -->
<g id="node30" class="node">
<title>Node122</title>
<g id="a_node30"><a xlink:href="quickjs_8c.html#a2b8df609710fa689dd50b4bd18df2493" target="_top" xlink:title=" ">
<polygon fill="none" stroke="black" points="249.5,-256.94 249.5,-275.94 335.5,-275.94 335.5,-256.94 249.5,-256.94"/>
<text text-anchor="middle" x="292.5" y="-263.94" font-family="Helvetica,sans-Serif" font-size="10.00">JS_ToPrimitive</text>
</a>
</g>
</g>
<!-- Node1&#45;&gt;Node122 -->
<g id="edge56" class="edge">
<title>Node1&#45;&gt;Node122</title>
<path fill="none" stroke="midnightblue" d="M91.15,-266.44C132.81,-266.44 194.97,-266.44 238.99,-266.44"/>
<polygon fill="midnightblue" stroke="midnightblue" points="239.2,-269.94 249.2,-266.44 239.2,-262.94 239.2,-269.94"/>
</g>
<!-- Node3 -->
<g id="node3" class="node">
<title>Node3</title>
<g id="a_node3"><a xlink:href="quickjs_8c.html#ac2894ff4edcdb4e6841bcce9c76081e3" target="_top" xlink:title=" ">
<polygon fill="none" stroke="red" points="249,-579.94 249,-598.94 336,-598.94 336,-579.94 249,-579.94"/>
<text text-anchor="middle" x="292.5" y="-586.94" font-family="Helvetica,sans-Serif" font-size="10.00">JS_CallInternal</text>
</a>
</g>
</g>
<!-- Node2&#45;&gt;Node3 -->
<g id="edge2" class="edge">
<title>Node2&#45;&gt;Node3</title>
<path fill="none" stroke="midnightblue" d="M201.68,-583.32C213.03,-582.77 225.92,-582.58 238.32,-582.76"/>
<polygon fill="midnightblue" stroke="midnightblue" points="238.5,-586.26 248.58,-582.99 238.66,-579.26 238.5,-586.26"/>
</g>
<!-- Node2&#45;&gt;Node57 -->
<g id="edge44" class="edge">
<title>Node2&#45;&gt;Node57</title>
<path fill="none" stroke="midnightblue" d="M168,-599.01C174.26,-653.77 213.58,-928.7 380,-1033.44 490.27,-1102.84 575.33,-1094.79 672,-1007.44 712.11,-971.2 736.78,-800.46 744.16,-742.07"/>
<polygon fill="midnightblue" stroke="midnightblue" points="747.65,-742.32 745.4,-731.97 740.71,-741.47 747.65,-742.32"/>
</g>
<!-- Node3&#45;&gt;Node2 -->
<g id="edge24" class="edge">
<title>Node3&#45;&gt;Node2</title>
<path fill="none" stroke="midnightblue" d="M248.58,-595.89C236.73,-596.27 223.85,-596.29 211.9,-595.95"/>
<polygon fill="midnightblue" stroke="midnightblue" points="211.81,-592.45 201.68,-595.57 211.54,-599.44 211.81,-592.45"/>
</g>
<!-- Node3&#45;&gt;Node3 -->
<g id="edge25" class="edge">
<title>Node3&#45;&gt;Node3</title>
<path fill="none" stroke="midnightblue" d="M273.08,-599.2C263.63,-608.01 270.11,-617.44 292.5,-617.44 306.85,-617.44 314.66,-613.57 315.94,-608.47"/>
<polygon fill="midnightblue" stroke="midnightblue" points="319.11,-606.98 311.92,-599.2 312.68,-609.77 319.11,-606.98"/>
</g>
<!-- Node4 -->
<g id="node4" class="node">
<title>Node4</title>
<g id="a_node4"><a xlink:href="quickjs_8c.html#a853f0924d441ea4225488f37c8b69f9a" target="_top" xlink:title=" ">
<polygon fill="none" stroke="black" points="566.5,-541.94 566.5,-560.94 646.5,-560.94 646.5,-541.94 566.5,-541.94"/>
<text text-anchor="middle" x="606.5" y="-548.94" font-family="Helvetica,sans-Serif" font-size="10.00">__attribute__</text>
</a>
</g>
</g>
<!-- Node3&#45;&gt;Node4 -->
<g id="edge3" class="edge">
<title>Node3&#45;&gt;Node4</title>
<path fill="none" stroke="midnightblue" d="M309.72,-579.87C326.61,-570.5 354.16,-556.87 380,-551.44 439.66,-538.91 510.18,-541.63 556.27,-545.68"/>
<polygon fill="midnightblue" stroke="midnightblue" points="556.01,-549.17 566.29,-546.61 556.66,-542.2 556.01,-549.17"/>
</g>
<!-- Node5 -->
<g id="node5" class="node">
<title>Node5</title>
<g id="a_node5"><a xlink:href="quickjs_8c.html#a877fcb7651d95b411ce70e62b7f4a1f0" target="_top" xlink:title=" ">
<polygon fill="none" stroke="black" points="380,-446.94 380,-465.94 505,-465.94 505,-446.94 380,-446.94"/>
<text text-anchor="middle" x="442.5" y="-453.94" font-family="Helvetica,sans-Serif" font-size="10.00">__JS_AtomFromUInt32</text>
</a>
</g>
</g>
<!-- Node3&#45;&gt;Node5 -->
<g id="edge4" class="edge">
<title>Node3&#45;&gt;Node5</title>
<path fill="none" stroke="midnightblue" d="M298.1,-579.88C309.1,-558.02 339.09,-504.08 380,-475.44 382.83,-473.46 385.88,-471.68 389.05,-470.08"/>
<polygon fill="midnightblue" stroke="midnightblue" points="390.47,-473.28 398.21,-466.04 387.65,-466.87 390.47,-473.28"/>
</g>
<!-- Node6 -->
<g id="node6" class="node">
<title>Node6</title>
<g id="a_node6"><a xlink:href="quickjs_8h.html#a9bf98b18de88b4199910a43e933eb97d" target="_top" xlink:title=" ">
<polygon fill="none" stroke="black" points="392.5,-408.94 392.5,-427.94 492.5,-427.94 492.5,-408.94 392.5,-408.94"/>
<text text-anchor="middle" x="442.5" y="-415.94" font-family="Helvetica,sans-Serif" font-size="10.00">__JS_NewFloat64</text>
</a>
</g>
</g>
<!-- Node3&#45;&gt;Node6 -->
<g id="edge5" class="edge">
<title>Node3&#45;&gt;Node6</title>
<path fill="none" stroke="midnightblue" d="M296.29,-579.58C304.43,-552.61 330.76,-476.98 380,-437.44 382.25,-435.64 384.66,-434 387.2,-432.53"/>
<polygon fill="midnightblue" stroke="midnightblue" points="388.76,-435.66 396.16,-428.07 385.65,-429.39 388.76,-435.66"/>
</g>
<!-- Node7 -->
<g id="node7" class="node">
<title>Node7</title>
<g id="a_node7"><a xlink:href="quickjs_8c.html#a74547db03bf739a52c83a326b32db997" target="_top" xlink:title=" ">
<polygon fill="none" stroke="red" points="402,-370.94 402,-389.94 483,-389.94 483,-370.94 402,-370.94"/>
<text text-anchor="middle" x="442.5" y="-377.94" font-family="Helvetica,sans-Serif" font-size="10.00">add_property</text>
</a>
</g>
</g>
<!-- Node3&#45;&gt;Node7 -->
<g id="edge6" class="edge">
<title>Node3&#45;&gt;Node7</title>
<path fill="none" stroke="midnightblue" d="M295.02,-579.91C300.45,-549.02 321.77,-450.68 380,-399.44 383.69,-396.2 387.92,-393.51 392.4,-391.28"/>
<polygon fill="midnightblue" stroke="midnightblue" points="393.99,-394.41 401.86,-387.31 391.28,-387.95 393.99,-394.41"/>
</g>
<!-- Node65 -->
<g id="node8" class="node">
<title>Node65</title>
<g id="a_node8"><a xlink:href="quickjs_8c.html#a4956f45ffd2849b96dc051277264f87a" target="_top" xlink:title=" ">
<polygon fill="none" stroke="red" points="401.5,-560.94 401.5,-579.94 483.5,-579.94 483.5,-560.94 401.5,-560.94"/>
<text text-anchor="middle" x="442.5" y="-567.94" font-family="Helvetica,sans-Serif" font-size="10.00">build_arg_list</text>
</a>
</g>
</g>
<!-- Node3&#45;&gt;Node65 -->
<g id="edge7" class="edge">
<title>Node3&#45;&gt;Node65</title>
<path fill="none" stroke="midnightblue" d="M336.31,-583.95C353.52,-581.74 373.48,-579.17 391.36,-576.88"/>
<polygon fill="midnightblue" stroke="midnightblue" points="391.85,-580.34 401.33,-575.6 390.96,-573.4 391.85,-580.34"/>
</g>
<!-- Node66 -->
<g id="node9" class="node">
<title>Node66</title>
<g id="a_node9"><a xlink:href="quickjs_8c.html#ac864482356b3efc2d0b0a509fcfa4c7c" target="_top" xlink:title=" ">
<polygon fill="none" stroke="red" points="568,-598.94 568,-617.94 645,-617.94 645,-598.94 568,-598.94"/>
<text text-anchor="middle" x="606.5" y="-605.94" font-family="Helvetica,sans-Serif" font-size="10.00">free_arg_list</text>
</a>
</g>
</g>
<!-- Node3&#45;&gt;Node66 -->
<g id="edge20" class="edge">
<title>Node3&#45;&gt;Node66</title>
<path fill="none" stroke="midnightblue" d="M336.23,-592.04C394.13,-595.57 497.2,-601.85 557.64,-605.53"/>
<polygon fill="midnightblue" stroke="midnightblue" points="557.49,-609.02 567.68,-606.14 557.91,-602.04 557.49,-609.02"/>
</g>
<!-- Node3&#45;&gt;Node57 -->
<g id="edge29" class="edge">
<title>Node3&#45;&gt;Node57</title>
<path fill="none" stroke="midnightblue" d="M293.62,-599.05C294.64,-635.36 303.69,-764.78 380,-817.44 493.46,-895.75 667.01,-781.98 726.03,-738.3"/>
<polygon fill="midnightblue" stroke="midnightblue" points="728.3,-740.97 734.19,-732.17 724.1,-735.38 728.3,-740.97"/>
</g>
<!-- Node36 -->
<g id="node11" class="node">
<title>Node36</title>
<g id="a_node11"><a xlink:href="quickjs_8h.html#a775522f2d084fc8fa0fcb33f390006b4" target="_top" xlink:title=" ">
<polygon fill="none" stroke="black" points="568,-408.94 568,-427.94 645,-427.94 645,-408.94 568,-408.94"/>
<text text-anchor="middle" x="606.5" y="-415.94" font-family="Helvetica,sans-Serif" font-size="10.00">JS_DupValue</text>
</a>
</g>
</g>
<!-- Node3&#45;&gt;Node36 -->
<g id="edge27" class="edge">
<title>Node3&#45;&gt;Node36</title>
<path fill="none" stroke="midnightblue" d="M293.62,-579.83C294.64,-543.52 303.69,-414.11 380,-361.44 445.02,-316.57 542.36,-373.57 584.65,-402.95"/>
<polygon fill="midnightblue" stroke="midnightblue" points="582.86,-405.97 593.03,-408.92 586.92,-400.27 582.86,-405.97"/>
</g>
<!-- Node3&#45;&gt;Node75 -->
<g id="edge31" class="edge">
<title>Node3&#45;&gt;Node75</title>
<path fill="none" stroke="midnightblue" d="M326.16,-599.04C342.27,-603.54 362.05,-608.71 380,-612.44 438.74,-624.64 506.96,-634.31 552.84,-640.17"/>
<polygon fill="midnightblue" stroke="midnightblue" points="552.5,-643.66 562.86,-641.44 553.38,-636.71 552.5,-643.66"/>
</g>
<!-- Node160 -->
<g id="node13" class="node">
<title>Node160</title>
<g id="a_node13"><a xlink:href="quickjs_8c.html#a61c8dfb5e807af1b6ff7d8ca61576dda" target="_top" xlink:title=" ">
<polygon fill="none" stroke="red" points="395.5,-978.94 395.5,-997.94 489.5,-997.94 489.5,-978.94 395.5,-978.94"/>
<text text-anchor="middle" x="442.5" y="-985.94" font-family="Helvetica,sans-Serif" font-size="10.00">build_backtrace</text>
</a>
</g>
</g>
<!-- Node3&#45;&gt;Node160 -->
<g id="edge13" class="edge">
<title>Node3&#45;&gt;Node160</title>
<path fill="none" stroke="midnightblue" d="M294.39,-598.98C299.55,-652.25 327.22,-912.5 380,-969.44 381.99,-971.59 384.23,-973.5 386.63,-975.2"/>
<polygon fill="midnightblue" stroke="midnightblue" points="384.91,-978.25 395.33,-980.18 388.39,-972.17 384.91,-978.25"/>
</g>
<!-- Node177 -->
<g id="node14" class="node">
<title>Node177</title>
<g id="a_node14"><a xlink:href="quickjs_8c.html#a0a8765bd4012467d9139bc24aabcb3ca" target="_top" xlink:title=" ">
<polygon fill="none" stroke="red" points="541,-978.94 541,-997.94 672,-997.94 672,-978.94 541,-978.94"/>
<text text-anchor="middle" x="606.5" y="-985.94" font-family="Helvetica,sans-Serif" font-size="10.00">JS_DefinePropertyValue</text>
</a>
</g>
</g>
<!-- Node3&#45;&gt;Node177 -->
<g id="edge26" class="edge">
<title>Node3&#45;&gt;Node177</title>
<path fill="none" stroke="midnightblue" d="M293.91,-599.08C296.61,-656.54 313.63,-953.4 380,-1007.44 436.74,-1053.64 530.28,-1022.56 577.04,-1002.19"/>
<polygon fill="midnightblue" stroke="midnightblue" points="578.59,-1005.33 586.28,-998.04 575.72,-998.95 578.59,-1005.33"/>
</g>
<!-- Node76 -->
<g id="node15" class="node">
<title>Node76</title>
<g id="a_node15"><a xlink:href="quickjs_8h.html#a2050bc428da1c65ac7eb87c3fa3b0392" target="_top" xlink:title=" ">
<polygon fill="none" stroke="black" points="568,-940.94 568,-959.94 645,-959.94 645,-940.94 568,-940.94"/>
<text text-anchor="middle" x="606.5" y="-947.94" font-family="Helvetica,sans-Serif" font-size="10.00">JS_NewInt32</text>
</a>
</g>
</g>
<!-- Node3&#45;&gt;Node76 -->
<g id="edge32" class="edge">
<title>Node3&#45;&gt;Node76</title>
<path fill="none" stroke="midnightblue" d="M293.98,-599.11C296.33,-636.43 309.6,-772.83 380,-850.44 427.34,-902.63 506.98,-929.04 557.84,-941.25"/>
<polygon fill="midnightblue" stroke="midnightblue" points="557.08,-944.67 567.61,-943.51 558.65,-937.85 557.08,-944.67"/>
</g>
<!-- Node247 -->
<g id="node16" class="node">
<title>Node247</title>
<g id="a_node16"><a xlink:href="quickjs_8c.html#a344894112559c2ba75043fd10bcfa02f" target="_top" xlink:title=" ">
<polygon fill="none" stroke="red" points="392,-484.94 392,-503.94 493,-503.94 493,-484.94 392,-484.94"/>
<text text-anchor="middle" x="442.5" y="-491.94" font-family="Helvetica,sans-Serif" font-size="10.00">close_lexical_var</text>
</a>
</g>
</g>
<!-- Node3&#45;&gt;Node247 -->
<g id="edge17" class="edge">
<title>Node3&#45;&gt;Node247</title>
<path fill="none" stroke="midnightblue" d="M303.11,-579.8C318.3,-564.97 349.32,-536.41 380,-518.44 386.88,-514.41 394.57,-510.8 402.12,-507.67"/>
<polygon fill="midnightblue" stroke="midnightblue" points="403.5,-510.89 411.53,-503.98 400.94,-504.38 403.5,-510.89"/>
</g>
<!-- Node248 -->
<g id="node17" class="node">
<title>Node248</title>
<g id="a_node17"><a xlink:href="quickjs_8c.html#a1782043fce951bd4f0d91c7796b31e24" target="_top" xlink:title=" ">
<polygon fill="none" stroke="red" points="399,-788.94 399,-807.94 486,-807.94 486,-788.94 399,-788.94"/>
<text text-anchor="middle" x="442.5" y="-795.94" font-family="Helvetica,sans-Serif" font-size="10.00">close_var_refs</text>
</a>
</g>
</g>
<!-- Node3&#45;&gt;Node248 -->
<g id="edge19" class="edge">
<title>Node3&#45;&gt;Node248</title>
<path fill="none" stroke="midnightblue" d="M295.02,-598.97C300.45,-629.86 321.77,-728.21 380,-779.44 382.98,-782.07 386.32,-784.33 389.86,-786.28"/>
<polygon fill="midnightblue" stroke="midnightblue" points="388.44,-789.48 398.99,-790.51 391.39,-783.13 388.44,-789.48"/>
</g>
<!-- Node54 -->
<g id="node18" class="node">
<title>Node54</title>
<g id="a_node18"><a xlink:href="quickjs_8c.html#a9e7b4bccf927d811b0f99b40b08c0472" target="_top" xlink:title=" ">
<polygon fill="none" stroke="red" points="404.5,-750.94 404.5,-769.94 480.5,-769.94 480.5,-750.94 404.5,-750.94"/>
<text text-anchor="middle" x="442.5" y="-757.94" font-family="Helvetica,sans-Serif" font-size="10.00">free_var_ref</text>
</a>
</g>
</g>
<!-- Node3&#45;&gt;Node54 -->
<g id="edge21" class="edge">
<title>Node3&#45;&gt;Node54</title>
<path fill="none" stroke="midnightblue" d="M296.29,-599.3C304.43,-626.27 330.76,-701.9 380,-741.44 384.41,-744.98 389.48,-747.87 394.78,-750.22"/>
<polygon fill="midnightblue" stroke="midnightblue" points="393.88,-753.62 404.47,-753.89 396.36,-747.07 393.88,-753.62"/>
</g>
<!-- Node250 -->
<g id="node19" class="node">
<title>Node250</title>
<g id="a_node19"><a xlink:href="cutils_8h.html#a7c82a3ee025fee89db5b11ff5b7691b8" target="_top" xlink:title=" ">
<polygon fill="none" stroke="black" points="416,-712.94 416,-731.94 469,-731.94 469,-712.94 416,-712.94"/>
<text text-anchor="middle" x="442.5" y="-719.94" font-family="Helvetica,sans-Serif" font-size="10.00">get_i16</text>
</a>
</g>
</g>
<!-- Node3&#45;&gt;Node250 -->
<g id="edge22" class="edge">
<title>Node3&#45;&gt;Node250</title>
<path fill="none" stroke="midnightblue" d="M298.1,-599C309.1,-620.86 339.09,-674.81 380,-703.44 387.8,-708.9 397.22,-712.83 406.31,-715.64"/>
<polygon fill="midnightblue" stroke="midnightblue" points="405.4,-719.02 415.97,-718.28 407.24,-712.27 405.4,-719.02"/>
</g>
<!-- Node251 -->
<g id="node20" class="node">
<title>Node251</title>
<g id="a_node20"><a xlink:href="cutils_8h.html#a288ee4e688944e23500af2ecc813c306" target="_top" xlink:title=" ">
<polygon fill="none" stroke="black" points="419,-674.94 419,-693.94 466,-693.94 466,-674.94 419,-674.94"/>
<text text-anchor="middle" x="442.5" y="-681.94" font-family="Helvetica,sans-Serif" font-size="10.00">get_i8</text>
</a>
</g>
</g>
<!-- Node3&#45;&gt;Node251 -->
<g id="edge23" class="edge">
<title>Node3&#45;&gt;Node251</title>
<path fill="none" stroke="midnightblue" d="M303.11,-599.09C318.3,-613.92 349.32,-642.48 380,-660.44 389.03,-665.73 399.44,-670.3 409.1,-673.99"/>
<polygon fill="midnightblue" stroke="midnightblue" points="408.21,-677.39 418.8,-677.51 410.59,-670.81 408.21,-677.39"/>
</g>
<!-- Node56 -->
<g id="node21" class="node">
<title>Node56</title>
<g id="a_node21"><a xlink:href="quickjs_8c.html#ab7fc45a99935a1c0ba50b0216d9401a9" target="_top" xlink:title=" ">
<polygon fill="none" stroke="red" points="403.5,-142.94 403.5,-161.94 481.5,-161.94 481.5,-142.94 403.5,-142.94"/>
<text text-anchor="middle" x="442.5" y="-149.94" font-family="Helvetica,sans-Serif" font-size="10.00">JS_FreeAtom</text>
</a>
</g>
</g>
<!-- Node3&#45;&gt;Node56 -->
<g id="edge28" class="edge">
<title>Node3&#45;&gt;Node56</title>
<path fill="none" stroke="midnightblue" d="M294.93,-579.56C303.74,-519.34 351.16,-203.18 380,-171.44 383.85,-167.2 388.63,-163.9 393.8,-161.33"/>
<polygon fill="midnightblue" stroke="midnightblue" points="395.46,-164.43 403.43,-157.44 392.85,-157.94 395.46,-164.43"/>
</g>
<!-- Node68 -->
<g id="node22" class="node">
<title>Node68</title>
<g id="a_node22"><a xlink:href="quickjs_8h.html#a89b7c8686c7eee70b86be722ee4730ad" target="_top" xlink:title=" ">
<polygon fill="none" stroke="red" points="562,-218.94 562,-237.94 651,-237.94 651,-218.94 562,-218.94"/>
<text text-anchor="middle" x="606.5" y="-225.94" font-family="Helvetica,sans-Serif" font-size="10.00">JS_GetProperty</text>
</a>
</g>
</g>
<!-- Node3&#45;&gt;Node68 -->
<g id="edge30" class="edge">
<title>Node3&#45;&gt;Node68</title>
<path fill="none" stroke="midnightblue" d="M294.31,-579.61C297.79,-543.45 314.38,-416.12 380,-341.44 427.29,-287.63 506.22,-256.45 557.05,-240.95"/>
<polygon fill="midnightblue" stroke="midnightblue" points="558.23,-244.25 566.82,-238.05 556.24,-237.54 558.23,-244.25"/>
</g>
<!-- Node3&#45;&gt;Node278 -->
<g id="edge33" class="edge">
<title>Node3&#45;&gt;Node278</title>
<path fill="none" stroke="midnightblue" d="M293.01,-599.17C291.34,-643.11 290.28,-825.17 380,-926.44 384.54,-931.57 390.32,-935.61 396.51,-938.8"/>
<polygon fill="midnightblue" stroke="midnightblue" points="395.2,-942.05 405.77,-942.87 398.02,-935.64 395.2,-942.05"/>
</g>
<!-- Node123 -->
<g id="node24" class="node">
<title>Node123</title>
<g id="a_node24"><a xlink:href="quickjs_8c.html#abac33881bb91f8c31106f616d81b67e8" target="_top" xlink:title=" ">
<polygon fill="none" stroke="red" points="389,-180.94 389,-199.94 496,-199.94 496,-180.94 389,-180.94"/>
<text text-anchor="middle" x="442.5" y="-187.94" font-family="Helvetica,sans-Serif" font-size="10.00">JS_ToPrimitiveFree</text>
</a>
</g>
</g>
<!-- Node3&#45;&gt;Node123 -->
<g id="edge38" class="edge">
<title>Node3&#45;&gt;Node123</title>
<path fill="none" stroke="midnightblue" d="M294.51,-579.74C300.23,-526.72 329.98,-272.32 380,-214.44 383.25,-210.68 387.16,-207.51 391.42,-204.83"/>
<polygon fill="midnightblue" stroke="midnightblue" points="393.34,-207.77 400.54,-200 390.06,-201.59 393.34,-207.77"/>
</g>
<!-- Node65&#45;&gt;Node4 -->
<g id="edge8" class="edge">
<title>Node65&#45;&gt;Node4</title>
<path fill="none" stroke="midnightblue" d="M483.54,-565.75C505.58,-563.16 533.11,-559.93 556.43,-557.2"/>
<polygon fill="midnightblue" stroke="midnightblue" points="556.95,-560.66 566.47,-556.02 556.14,-553.71 556.95,-560.66"/>
</g>
<!-- Node65&#45;&gt;Node66 -->
<g id="edge9" class="edge">
<title>Node65&#45;&gt;Node66</title>
<path fill="none" stroke="midnightblue" d="M483.54,-579.84C506.09,-585.12 534.38,-591.76 558.04,-597.31"/>
<polygon fill="midnightblue" stroke="midnightblue" points="557.33,-600.74 567.86,-599.61 558.92,-593.92 557.33,-600.74"/>
</g>
<!-- Node65&#45;&gt;Node36 -->
<g id="edge11" class="edge">
<title>Node65&#45;&gt;Node36</title>
<path fill="none" stroke="midnightblue" d="M453.98,-560.79C466.24,-549.48 487.14,-530.15 505,-513.44 534.12,-486.19 567.76,-454.3 587.8,-435.27"/>
<polygon fill="midnightblue" stroke="midnightblue" points="590.42,-437.61 595.26,-428.19 585.6,-432.54 590.42,-437.61"/>
</g>
<!-- Node65&#45;&gt;Node75 -->
<g id="edge12" class="edge">
<title>Node65&#45;&gt;Node75</title>
<path fill="none" stroke="midnightblue" d="M457.46,-580.08C475.89,-592.44 509.68,-613.91 541,-627.44 546.35,-629.75 552.08,-631.89 557.82,-633.83"/>
<polygon fill="midnightblue" stroke="midnightblue" points="556.85,-637.19 567.44,-636.9 558.98,-630.52 556.85,-637.19"/>
</g>
<!-- Node66&#45;&gt;Node57 -->
<g id="edge10" class="edge">
<title>Node66&#45;&gt;Node57</title>
<path fill="none" stroke="midnightblue" d="M645.07,-615.29C654.38,-618.09 663.98,-622 672,-627.44 701.33,-647.34 724.42,-682.4 736.71,-703.91"/>
<polygon fill="midnightblue" stroke="midnightblue" points="733.69,-705.68 741.59,-712.74 739.82,-702.29 733.69,-705.68"/>
</g>
<!-- Node160&#45;&gt;Node177 -->
<g id="edge14" class="edge">
<title>Node160&#45;&gt;Node177</title>
<path fill="none" stroke="midnightblue" d="M489.92,-988.44C502.71,-988.44 516.92,-988.44 530.87,-988.44"/>
<polygon fill="midnightblue" stroke="midnightblue" points="530.96,-991.94 540.96,-988.44 530.96,-984.94 530.96,-991.94"/>
</g>
<!-- Node160&#45;&gt;Node76 -->
<g id="edge16" class="edge">
<title>Node160&#45;&gt;Node76</title>
<path fill="none" stroke="midnightblue" d="M484.38,-978.85C506.75,-973.6 534.59,-967.08 557.93,-961.6"/>
<polygon fill="midnightblue" stroke="midnightblue" points="559.03,-964.94 567.96,-959.25 557.43,-958.12 559.03,-964.94"/>
</g>
<!-- Node177&#45;&gt;Node57 -->
<g id="edge15" class="edge">
<title>Node177&#45;&gt;Node57</title>
<path fill="none" stroke="midnightblue" d="M658.49,-978.86C663.47,-976.4 668.11,-973.31 672,-969.44 736.15,-905.71 745.45,-788.88 746.52,-742.34"/>
<polygon fill="midnightblue" stroke="midnightblue" points="750.02,-742.14 746.64,-732.1 743.02,-742.05 750.02,-742.14"/>
</g>
<!-- Node247&#45;&gt;Node36 -->
<g id="edge18" class="edge">
<title>Node247&#45;&gt;Node36</title>
<path fill="none" stroke="midnightblue" d="M479.1,-484.88C487.71,-482.17 496.79,-478.99 505,-475.44 532.66,-463.49 562.46,-445.94 582.37,-433.48"/>
<polygon fill="midnightblue" stroke="midnightblue" points="584.46,-436.29 591.03,-427.98 580.71,-430.38 584.46,-436.29"/>
</g>
<!-- Node278&#45;&gt;Node36 -->
<g id="edge35" class="edge">
<title>Node278&#45;&gt;Node36</title>
<path fill="none" stroke="midnightblue" d="M449.21,-940.83C461.62,-919.48 491.04,-866.1 505,-817.44 540.21,-694.72 500.81,-653.62 541,-532.44 553.09,-495.99 577.3,-458.02 592.37,-436.4"/>
<polygon fill="midnightblue" stroke="midnightblue" points="595.27,-438.37 598.21,-428.19 589.57,-434.31 595.27,-438.37"/>
</g>
<!-- Node278&#45;&gt;Node75 -->
<g id="edge36" class="edge">
<title>Node278&#45;&gt;Node75</title>
<path fill="none" stroke="midnightblue" d="M455.79,-940.61C469.33,-929.24 491.05,-909.39 505,-888.44 555.1,-813.2 587.98,-708.97 600.18,-666.08"/>
<polygon fill="midnightblue" stroke="midnightblue" points="603.58,-666.9 602.9,-656.33 596.84,-665.02 603.58,-666.9"/>
</g>
<!-- Node278&#45;&gt;Node177 -->
<g id="edge34" class="edge">
<title>Node278&#45;&gt;Node177</title>
<path fill="none" stroke="midnightblue" d="M479.05,-958.78C501.32,-964 530.36,-970.82 554.99,-976.59"/>
<polygon fill="midnightblue" stroke="midnightblue" points="554.36,-980.04 564.89,-978.92 555.96,-973.23 554.36,-980.04"/>
</g>
<!-- Node278&#45;&gt;Node76 -->
<g id="edge37" class="edge">
<title>Node278&#45;&gt;Node76</title>
<path fill="none" stroke="midnightblue" d="M479.05,-950.44C502.14,-950.44 532.5,-950.44 557.69,-950.44"/>
<polygon fill="midnightblue" stroke="midnightblue" points="557.78,-953.94 567.78,-950.44 557.78,-946.94 557.78,-953.94"/>
</g>
<!-- Node123&#45;&gt;Node2 -->
<g id="edge39" class="edge">
<title>Node123&#45;&gt;Node2</title>
<path fill="none" stroke="midnightblue" d="M388.64,-191.09C343.1,-194.59 278.88,-207.06 241,-247.44 196.3,-295.09 174.48,-504.09 168.64,-569.68"/>
<polygon fill="midnightblue" stroke="midnightblue" points="165.13,-569.61 167.76,-579.88 172.11,-570.21 165.13,-569.61"/>
</g>
<!-- Node123&#45;&gt;Node57 -->
<g id="edge40" class="edge">
<title>Node123&#45;&gt;Node57</title>
<path fill="none" stroke="midnightblue" d="M481.12,-180.87C531.6,-170.51 620.82,-161.31 672,-209.44 745.17,-278.26 747.38,-617.16 746.75,-702.77"/>
<polygon fill="midnightblue" stroke="midnightblue" points="743.25,-702.88 746.65,-712.92 750.25,-702.95 743.25,-702.88"/>
</g>
<!-- Node123&#45;&gt;Node75 -->
<g id="edge42" class="edge">
<title>Node123&#45;&gt;Node75</title>
<path fill="none" stroke="midnightblue" d="M447.85,-200.24C459.15,-226.06 489.56,-298.31 505,-361.44 519.17,-419.38 502.14,-582.18 541,-627.44 544.48,-631.49 548.77,-634.7 553.47,-637.24"/>
<polygon fill="midnightblue" stroke="midnightblue" points="552.35,-640.57 562.92,-641.34 555.14,-634.15 552.35,-640.57"/>
</g>
<!-- Node123&#45;&gt;Node68 -->
<g id="edge41" class="edge">
<title>Node123&#45;&gt;Node68</title>
<path fill="none" stroke="midnightblue" d="M484.38,-200.03C505.85,-205.07 532.36,-211.29 555.1,-216.62"/>
<polygon fill="midnightblue" stroke="midnightblue" points="554.38,-220.05 564.91,-218.92 555.98,-213.23 554.38,-220.05"/>
</g>
<!-- Node123&#45;&gt;Node124 -->
<g id="edge43" class="edge">
<title>Node123&#45;&gt;Node124</title>
<path fill="none" stroke="midnightblue" d="M481.72,-180.9C489.62,-178.31 497.74,-175.16 505,-171.44 536.71,-155.19 568.76,-128.85 587.87,-111.84"/>
<polygon fill="midnightblue" stroke="midnightblue" points="590.4,-114.27 595.47,-104.96 585.7,-109.08 590.4,-114.27"/>
</g>
<!-- Node437&#45;&gt;Node56 -->
<g id="edge47" class="edge">
<title>Node437&#45;&gt;Node56</title>
<path fill="none" stroke="midnightblue" d="M344.02,-139.93C359.96,-141.97 377.51,-144.23 393.28,-146.25"/>
<polygon fill="midnightblue" stroke="midnightblue" points="392.99,-149.74 403.36,-147.54 393.88,-142.8 392.99,-149.74"/>
</g>
<!-- Node437&#45;&gt;Node68 -->
<g id="edge48" class="edge">
<title>Node437&#45;&gt;Node68</title>
<path fill="none" stroke="midnightblue" d="M339.89,-123.88C384.02,-116.96 451.43,-112.13 505,-133.44 544,-148.96 576.59,-187.57 593.35,-210.51"/>
<polygon fill="midnightblue" stroke="midnightblue" points="590.53,-212.59 599.16,-218.73 596.24,-208.54 590.53,-212.59"/>
</g>
<!-- Node368 -->
<g id="node27" class="node">
<title>Node368</title>
<g id="a_node27"><a xlink:href="quickjs_8c.html#aa2ef5af1544a3012f91a80c98c326b8f" target="_top" xlink:title=" ">
<polygon fill="none" stroke="red" points="403,-66.94 403,-85.94 482,-85.94 482,-66.94 403,-66.94"/>
<text text-anchor="middle" x="442.5" y="-73.94" font-family="Helvetica,sans-Serif" font-size="10.00">JS_NewAtom</text>
</a>
</g>
</g>
<!-- Node437&#45;&gt;Node368 -->
<g id="edge49" class="edge">
<title>Node437&#45;&gt;Node368</title>
<path fill="none" stroke="midnightblue" d="M318.27,-123.9C342.6,-114.53 379.93,-100.15 407.13,-89.68"/>
<polygon fill="midnightblue" stroke="midnightblue" points="408.57,-92.87 416.65,-86.01 406.06,-86.34 408.57,-92.87"/>
</g>
<!-- Node229&#45;&gt;Node36 -->
<g id="edge54" class="edge">
<title>Node229&#45;&gt;Node36</title>
<path fill="none" stroke="midnightblue" d="M205.1,-302.1C269.42,-299.55 402.54,-300.35 505,-341.44 538.92,-355.04 571.17,-383.45 589.61,-401.7"/>
<polygon fill="midnightblue" stroke="midnightblue" points="587.12,-404.16 596.63,-408.83 592.11,-399.25 587.12,-404.16"/>
</g>
<!-- Node122&#45;&gt;Node36 -->
<g id="edge57" class="edge">
<title>Node122&#45;&gt;Node36</title>
<path fill="none" stroke="midnightblue" d="M335.72,-262.04C380.6,-259.37 452.24,-260.99 505,-290.44 550.24,-315.69 582.24,-370.45 596.75,-399.48"/>
<polygon fill="midnightblue" stroke="midnightblue" points="593.64,-401.1 601.14,-408.59 599.95,-398.06 593.64,-401.1"/>
</g>
<!-- Node122&#45;&gt;Node123 -->
<g id="edge58" class="edge">
<title>Node122&#45;&gt;Node123</title>
<path fill="none" stroke="midnightblue" d="M307.77,-256.83C324.58,-245.76 353.58,-227.42 380,-214.44 387.84,-210.59 396.46,-206.91 404.7,-203.63"/>
<polygon fill="midnightblue" stroke="midnightblue" points="406.06,-206.86 414.13,-199.99 403.54,-200.33 406.06,-206.86"/>
</g>
</g>
</svg>
        <g id="navigator" transform="translate(0 0)" fill="#404254">
                <rect fill="#f2f5e9" fill-opacity="0.5" stroke="#606060" stroke-width=".5" x="0" y="0" width="60" height="60"/>
                <use id="zoomplus" xlink:href="#zoomPlus" x="17" y="9" onmousedown="handleZoom(evt,'in')"/>
                <use id="zoomminus" xlink:href="#zoomMin" x="42" y="9" onmousedown="handleZoom(evt,'out')"/>
                <use id="reset" xlink:href="#resetDef" x="30" y="36" onmousedown="handleReset()"/>
                <g id="arrowUp" xlink:href="#dirArrow" transform="translate(30 24)" onmousedown="handlePan(0,-1)">
                  <use xlink:href="#rim" fill="#404040">
                        <set attributeName="fill" to="#808080" begin="arrowUp.mouseover" end="arrowUp.mouseout"/>
                  </use>
                  <path fill="none" stroke="white" stroke-width="1.5" d="M0,-3.0v7 M-2.5,-0.5L0,-3.0L2.5,-0.5"/>
                </g>
                <g id="arrowRight" xlink:href="#dirArrow" transform="rotate(90) translate(36 -43)" onmousedown="handlePan(1,0)">
                  <use xlink:href="#rim" fill="#404040">
                        <set attributeName="fill" to="#808080" begin="arrowRight.mouseover" end="arrowRight.mouseout"/>
                  </use>
                  <path fill="none" stroke="white" stroke-width="1.5" d="M0,-3.0v7 M-2.5,-0.5L0,-3.0L2.5,-0.5"/>
                </g>
                <g id="arrowDown" xlink:href="#dirArrow" transform="rotate(180) translate(-30 -48)" onmousedown="handlePan(0,1)">
                  <use xlink:href="#rim" fill="#404040">
                        <set attributeName="fill" to="#808080" begin="arrowDown.mouseover" end="arrowDown.mouseout"/>
                  </use>
                  <path fill="none" stroke="white" stroke-width="1.5" d="M0,-3.0v7 M-2.5,-0.5L0,-3.0L2.5,-0.5"/>
                </g>
                <g id="arrowLeft" xlink:href="#dirArrow" transform="rotate(270) translate(-36 17)" onmousedown="handlePan(-1,0)">
                  <use xlink:href="#rim" fill="#404040">
                        <set attributeName="fill" to="#808080" begin="arrowLeft.mouseover" end="arrowLeft.mouseout"/>
                  </use>
                  <path fill="none" stroke="white" stroke-width="1.5" d="M0,-3.0v7 M-2.5,-0.5L0,-3.0L2.5,-0.5"/>
                </g>
        </g>
        <svg viewBox="0 0 15 15" width="100%" height="30px" preserveAspectRatio="xMaxYMin meet">
         <g id="arrow_out" transform="scale(0.3 0.3)">
          <a xlink:href="quickjs_8c_a6afb985e2e6663773d15dc05b286922a_cgraph_org.svg" target="_base">
           <rect id="button" ry="5" rx="5" y="6" x="6" height="38" width="38"
                fill="#f2f5e9" fill-opacity="0.5" stroke="#606060" stroke-width="1.0"/>
           <path id="arrow"
             d="M 11.500037,31.436501 C 11.940474,20.09759 22.043105,11.32322 32.158766,21.979434 L 37.068811,17.246167 C 37.068811,17.246167 37.088388,32 37.088388,32 L 22.160133,31.978069 C 22.160133,31.978069 26.997745,27.140456 26.997745,27.140456 C 18.528582,18.264221 13.291696,25.230495 11.500037,31.436501 z"
             style="fill:#404040;"/>
          </a>
         </g>
        </svg>
</svg>
