<?xml version="1.0" encoding="UTF-8" standalone="no"?>
<!DOCTYPE svg PUBLIC "-//W3C//DTD SVG 1.1//EN"
 "http://www.w3.org/Graphics/SVG/1.1/DTD/svg11.dtd">
<!-- Generated by graphviz version 2.43.0 (0)
 -->
<!-- Title: JS_IteratorClose Pages: 1 -->
<!--zoomable 1158 -->
<svg id="main" version="1.1" xmlns="http://www.w3.org/2000/svg" xmlns:xlink="http://www.w3.org/1999/xlink" xml:space="preserve" onload="init(evt)">
<style type="text/css"><![CDATA[
.edge:hover path { stroke: red; }
.edge:hover polygon { stroke: red; fill: red; }
]]></style>
<script type="text/javascript"><![CDATA[
var edges = document.getElementsByTagName('g');
if (edges && edges.length) {
  for (var i=0;i<edges.length;i++) {
    if (edges[i].id.substr(0,4)=='edge') {
      edges[i].setAttribute('class','edge');
    }
  }
}
]]></script>
        <defs>
                <circle id="rim" cx="0" cy="0" r="7"/>
                <circle id="rim2" cx="0" cy="0" r="3.5"/>
                <g id="zoomPlus">
                        <use xlink:href="#rim" fill="#404040">
                                <set attributeName="fill" to="#808080" begin="zoomplus.mouseover" end="zoomplus.mouseout"/>
                        </use>
                        <path d="M-4,0h8M0,-4v8" fill="none" stroke="white" stroke-width="1.5" pointer-events="none"/>
                </g>
                <g id="zoomMin">
                        <use xlink:href="#rim" fill="#404040">
                                <set attributeName="fill" to="#808080" begin="zoomminus.mouseover" end="zoomminus.mouseout"/>
                        </use>
                        <path d="M-4,0h8" fill="none" stroke="white" stroke-width="1.5" pointer-events="none"/>
                </g>
                <g id="dirArrow">
                        <path fill="none" stroke="white" stroke-width="1.5" d="M0,-3.0v7 M-2.5,-0.5L0,-3.0L2.5,-0.5"/>
                </g>
               <g id="resetDef">
                       <use xlink:href="#rim2" fill="#404040">
                               <set attributeName="fill" to="#808080" begin="reset.mouseover" end="reset.mouseout"/>
                       </use>
               </g>
        </defs>

<script type="text/javascript">
var viewWidth = 814;
var viewHeight = 1158;
var sectionId = 'dynsection-821';
</script>
<script xlink:href="svgpan.js"/>
<svg id="graph" class="graph">
<g id="viewport">
<title>JS_IteratorClose</title>
<!-- Node1 -->
<g id="node1" class="node">
<title>Node1</title>
<g id="a_node1"><a xlink:title=" ">
<polygon fill="#bfbfbf" stroke="black" points="0,-408.5 0,-427.5 94,-427.5 94,-408.5 0,-408.5"/>
<text text-anchor="middle" x="47" y="-415.5" font-family="Helvetica,sans-Serif" font-size="10.00">JS_IteratorClose</text>
</a>
</g>
</g>
<!-- Node2 -->
<g id="node2" class="node">
<title>Node2</title>
<g id="a_node2"><a xlink:href="quickjs_8c.html#a75f6ee5e4235a7dc99889f3d2eb2c147" target="_top" xlink:title=" ">
<polygon fill="none" stroke="black" points="130,-532.5 130,-551.5 201,-551.5 201,-532.5 130,-532.5"/>
<text text-anchor="middle" x="165.5" y="-539.5" font-family="Helvetica,sans-Serif" font-size="10.00">JS_CallFree</text>
</a>
</g>
</g>
<!-- Node1&#45;&gt;Node2 -->
<g id="edge1" class="edge">
<title>Node1&#45;&gt;Node2</title>
<path fill="none" stroke="midnightblue" d="M57.14,-427.73C76.88,-448.74 123.69,-498.56 148.47,-524.94"/>
<polygon fill="midnightblue" stroke="midnightblue" points="146,-527.42 155.4,-532.32 151.1,-522.63 146,-527.42"/>
</g>
<!-- Node57 -->
<g id="node10" class="node">
<title>Node57</title>
<g id="a_node10"><a xlink:href="quickjs_8h.html#afaa20c47565bc704c6c85f3d77254e7d" target="_top" xlink:title=" ">
<polygon fill="none" stroke="red" points="727,-1021.5 727,-1040.5 806,-1040.5 806,-1021.5 727,-1021.5"/>
<text text-anchor="middle" x="766.5" y="-1028.5" font-family="Helvetica,sans-Serif" font-size="10.00">JS_FreeValue</text>
</a>
</g>
</g>
<!-- Node1&#45;&gt;Node57 -->
<g id="edge42" class="edge">
<title>Node1&#45;&gt;Node57</title>
<path fill="none" stroke="midnightblue" d="M48.84,-427.52C56.7,-513.32 120.39,-1150 279.5,-1150 279.5,-1150 279.5,-1150 445,-1150 556.23,-1150 592.34,-1155.37 691,-1104 716.58,-1090.68 739.16,-1065.69 752.58,-1048.69"/>
<polygon fill="midnightblue" stroke="midnightblue" points="755.44,-1050.71 758.73,-1040.64 749.88,-1046.47 755.44,-1050.71"/>
</g>
<!-- Node75 -->
<g id="node11" class="node">
<title>Node75</title>
<g id="a_node11"><a xlink:href="quickjs_8h.html#ad80a83d73e9b7d872b88fbf2943aebe9" target="_top" xlink:title=" ">
<polygon fill="none" stroke="black" points="584,-190.5 584,-209.5 671,-209.5 671,-190.5 584,-190.5"/>
<text text-anchor="middle" x="627.5" y="-197.5" font-family="Helvetica,sans-Serif" font-size="10.00">JS_IsException</text>
</a>
</g>
</g>
<!-- Node1&#45;&gt;Node75 -->
<g id="edge44" class="edge">
<title>Node1&#45;&gt;Node75</title>
<path fill="none" stroke="midnightblue" d="M53.29,-408.21C79.1,-361.76 197.12,-163.34 360,-105 430.29,-79.82 458.76,-77.05 528,-105 566.34,-120.48 598.07,-158.81 614.46,-181.78"/>
<polygon fill="midnightblue" stroke="midnightblue" points="611.78,-184.05 620.34,-190.29 617.54,-180.07 611.78,-184.05"/>
</g>
<!-- Node68 -->
<g id="node24" class="node">
<title>Node68</title>
<g id="a_node24"><a xlink:href="quickjs_8h.html#a89b7c8686c7eee70b86be722ee4730ad" target="_top" xlink:title=" ">
<polygon fill="none" stroke="black" points="399.5,-1026.5 399.5,-1045.5 488.5,-1045.5 488.5,-1026.5 399.5,-1026.5"/>
<text text-anchor="middle" x="444" y="-1033.5" font-family="Helvetica,sans-Serif" font-size="10.00">JS_GetProperty</text>
</a>
</g>
</g>
<!-- Node1&#45;&gt;Node68 -->
<g id="edge43" class="edge">
<title>Node1&#45;&gt;Node68</title>
<path fill="none" stroke="midnightblue" d="M50.25,-427.72C62.46,-479.11 124.44,-723.16 237,-890 279.37,-952.8 295.22,-968.73 360,-1008 370.16,-1014.16 381.85,-1019.17 393.18,-1023.15"/>
<polygon fill="midnightblue" stroke="midnightblue" points="392.42,-1026.58 403.01,-1026.39 394.61,-1019.94 392.42,-1026.58"/>
</g>
<!-- Node125 -->
<g id="node26" class="node">
<title>Node125</title>
<g id="a_node26"><a xlink:href="quickjs_8h.html#a149f24b67e745bad93573b3b4c80db4c" target="_top" xlink:title=" ">
<polygon fill="none" stroke="black" points="414.5,-152.5 414.5,-171.5 473.5,-171.5 473.5,-152.5 414.5,-152.5"/>
<text text-anchor="middle" x="444" y="-159.5" font-family="Helvetica,sans-Serif" font-size="10.00">JS_IsNull</text>
</a>
</g>
</g>
<!-- Node1&#45;&gt;Node125 -->
<g id="edge45" class="edge">
<title>Node1&#45;&gt;Node125</title>
<path fill="none" stroke="midnightblue" d="M58.85,-408.36C97.36,-374.54 232.02,-259.75 360,-192 373.97,-184.6 390.17,-178.29 404.52,-173.4"/>
<polygon fill="midnightblue" stroke="midnightblue" points="405.71,-176.69 414.11,-170.24 403.52,-170.04 405.71,-176.69"/>
</g>
<!-- Node287 -->
<g id="node27" class="node">
<title>Node287</title>
<g id="a_node27"><a xlink:href="quickjs_8h.html#a3d68fe446df2d9c7d1900b16371bff5b" target="_top" xlink:title=" ">
<polygon fill="none" stroke="black" points="408.5,-114.5 408.5,-133.5 479.5,-133.5 479.5,-114.5 408.5,-114.5"/>
<text text-anchor="middle" x="444" y="-121.5" font-family="Helvetica,sans-Serif" font-size="10.00">JS_IsObject</text>
</a>
</g>
</g>
<!-- Node1&#45;&gt;Node287 -->
<g id="edge46" class="edge">
<title>Node1&#45;&gt;Node287</title>
<path fill="none" stroke="midnightblue" d="M53.03,-408.24C64.64,-386.29 95.01,-331.95 130,-294 212.88,-204.09 245.64,-186.3 360,-143 372.22,-138.37 385.89,-134.68 398.56,-131.82"/>
<polygon fill="midnightblue" stroke="midnightblue" points="399.41,-135.22 408.46,-129.71 397.95,-128.37 399.41,-135.22"/>
</g>
<!-- Node126 -->
<g id="node28" class="node">
<title>Node126</title>
<g id="a_node28"><a xlink:href="quickjs_8h.html#a4e407128a9605afb77523e49e9a627fd" target="_top" xlink:title=" ">
<polygon fill="none" stroke="black" points="399.5,-38.5 399.5,-57.5 488.5,-57.5 488.5,-38.5 399.5,-38.5"/>
<text text-anchor="middle" x="444" y="-45.5" font-family="Helvetica,sans-Serif" font-size="10.00">JS_IsUndefined</text>
</a>
</g>
</g>
<!-- Node1&#45;&gt;Node126 -->
<g id="edge47" class="edge">
<title>Node1&#45;&gt;Node126</title>
<path fill="none" stroke="midnightblue" d="M49.91,-408.38C56.34,-377.97 79.71,-282.37 130,-222 208.11,-128.23 249.05,-122.84 360,-72 369.71,-67.55 380.45,-63.72 390.88,-60.5"/>
<polygon fill="midnightblue" stroke="midnightblue" points="392.14,-63.78 400.75,-57.61 390.17,-57.06 392.14,-63.78"/>
</g>
<!-- Node207 -->
<g id="node29" class="node">
<title>Node207</title>
<g id="a_node29"><a xlink:href="quickjs_8c.html#a3ae8a83da71ef07d6e858d172d9c5a81" target="_top" xlink:title=" ">
<polygon fill="none" stroke="black" points="413.5,-1064.5 413.5,-1083.5 474.5,-1083.5 474.5,-1064.5 413.5,-1064.5"/>
<text text-anchor="middle" x="444" y="-1071.5" font-family="Helvetica,sans-Serif" font-size="10.00">JS_Throw</text>
</a>
</g>
</g>
<!-- Node1&#45;&gt;Node207 -->
<g id="edge48" class="edge">
<title>Node1&#45;&gt;Node207</title>
<path fill="none" stroke="midnightblue" d="M49.09,-427.66C54.11,-469.93 76.98,-642.29 130,-773 164.55,-858.18 177.5,-879.93 237,-950 283.52,-1004.79 295.78,-1022.72 360,-1055 373.39,-1061.73 389.19,-1066.11 403.4,-1068.95"/>
<polygon fill="midnightblue" stroke="midnightblue" points="402.94,-1072.42 413.4,-1070.75 404.18,-1065.53 402.94,-1072.42"/>
</g>
<!-- Node244 -->
<g id="node30" class="node">
<title>Node244</title>
<g id="a_node30"><a xlink:href="quickjs_8c.html#a726b00d108e0a0f4d958c36c2e426a64" target="_top" xlink:title=" ">
<polygon fill="none" stroke="black" points="360,-0.5 360,-19.5 528,-19.5 528,-0.5 360,-0.5"/>
<text text-anchor="middle" x="444" y="-7.5" font-family="Helvetica,sans-Serif" font-size="10.00">JS_ThrowTypeErrorNotAnObject</text>
</a>
</g>
</g>
<!-- Node1&#45;&gt;Node244 -->
<g id="edge49" class="edge">
<title>Node1&#45;&gt;Node244</title>
<path fill="none" stroke="midnightblue" d="M48.51,-408.34C50.94,-371 64.15,-234.09 130,-150 189.94,-73.46 300.79,-37.6 373.2,-21.66"/>
<polygon fill="midnightblue" stroke="midnightblue" points="374.1,-25.05 383.15,-19.55 372.64,-18.21 374.1,-25.05"/>
</g>
<!-- Node3 -->
<g id="node3" class="node">
<title>Node3</title>
<g id="a_node3"><a xlink:href="quickjs_8c.html#ac2894ff4edcdb4e6841bcce9c76081e3" target="_top" xlink:title=" ">
<polygon fill="none" stroke="red" points="237,-532.5 237,-551.5 324,-551.5 324,-532.5 237,-532.5"/>
<text text-anchor="middle" x="280.5" y="-539.5" font-family="Helvetica,sans-Serif" font-size="10.00">JS_CallInternal</text>
</a>
</g>
</g>
<!-- Node2&#45;&gt;Node3 -->
<g id="edge2" class="edge">
<title>Node2&#45;&gt;Node3</title>
<path fill="none" stroke="midnightblue" d="M201.02,-535.73C209.13,-535.36 217.97,-535.2 226.69,-535.26"/>
<polygon fill="midnightblue" stroke="midnightblue" points="226.76,-538.76 236.81,-535.43 226.87,-531.77 226.76,-538.76"/>
</g>
<!-- Node2&#45;&gt;Node57 -->
<g id="edge41" class="edge">
<title>Node2&#45;&gt;Node57</title>
<path fill="none" stroke="midnightblue" d="M167.24,-551.75C170.69,-593.68 187.11,-762.24 237,-890 275.38,-988.26 268.09,-1041.22 360,-1093 487.74,-1164.96 672.28,-1081.08 739.64,-1045.48"/>
<polygon fill="midnightblue" stroke="midnightblue" points="741.56,-1048.42 748.71,-1040.6 738.25,-1042.25 741.56,-1048.42"/>
</g>
<!-- Node3&#45;&gt;Node1 -->
<g id="edge37" class="edge">
<title>Node3&#45;&gt;Node1</title>
<path fill="none" stroke="midnightblue" d="M261.66,-532.44C221.2,-510.77 122.32,-457.81 74.61,-432.25"/>
<polygon fill="midnightblue" stroke="midnightblue" points="76.25,-429.16 65.78,-427.52 72.94,-435.33 76.25,-429.16"/>
</g>
<!-- Node3&#45;&gt;Node2 -->
<g id="edge25" class="edge">
<title>Node3&#45;&gt;Node2</title>
<path fill="none" stroke="midnightblue" d="M236.81,-548.57C228.41,-548.79 219.57,-548.81 211.1,-548.62"/>
<polygon fill="midnightblue" stroke="midnightblue" points="211.13,-545.11 201.02,-548.27 210.89,-552.11 211.13,-545.11"/>
</g>
<!-- Node3&#45;&gt;Node3 -->
<g id="edge26" class="edge">
<title>Node3&#45;&gt;Node3</title>
<path fill="none" stroke="midnightblue" d="M262.93,-551.76C254.38,-560.57 260.24,-570 280.5,-570 293.16,-570 300.2,-566.31 301.61,-561.4"/>
<polygon fill="midnightblue" stroke="midnightblue" points="304.8,-559.94 298.07,-551.76 298.23,-562.35 304.8,-559.94"/>
</g>
<!-- Node4 -->
<g id="node4" class="node">
<title>Node4</title>
<g id="a_node4"><a xlink:href="quickjs_8c.html#a853f0924d441ea4225488f37c8b69f9a" target="_top" xlink:title=" ">
<polygon fill="none" stroke="black" points="587.5,-551.5 587.5,-570.5 667.5,-570.5 667.5,-551.5 587.5,-551.5"/>
<text text-anchor="middle" x="627.5" y="-558.5" font-family="Helvetica,sans-Serif" font-size="10.00">__attribute__</text>
</a>
</g>
</g>
<!-- Node3&#45;&gt;Node4 -->
<g id="edge3" class="edge">
<title>Node3&#45;&gt;Node4</title>
<path fill="none" stroke="midnightblue" d="M313.27,-551.51C327.43,-555.27 344.41,-559.14 360,-561 435.37,-569.99 523.59,-567.46 577.24,-564.48"/>
<polygon fill="midnightblue" stroke="midnightblue" points="577.71,-567.96 587.49,-563.88 577.3,-560.97 577.71,-567.96"/>
</g>
<!-- Node5 -->
<g id="node5" class="node">
<title>Node5</title>
<g id="a_node5"><a xlink:href="quickjs_8c.html#a877fcb7651d95b411ce70e62b7f4a1f0" target="_top" xlink:title=" ">
<polygon fill="none" stroke="black" points="381.5,-798.5 381.5,-817.5 506.5,-817.5 506.5,-798.5 381.5,-798.5"/>
<text text-anchor="middle" x="444" y="-805.5" font-family="Helvetica,sans-Serif" font-size="10.00">__JS_AtomFromUInt32</text>
</a>
</g>
</g>
<!-- Node3&#45;&gt;Node5 -->
<g id="edge4" class="edge">
<title>Node3&#45;&gt;Node5</title>
<path fill="none" stroke="midnightblue" d="M281.4,-551.55C281.57,-588.34 287.34,-722.11 360,-789 363.62,-792.33 367.69,-795.11 372.05,-797.44"/>
<polygon fill="midnightblue" stroke="midnightblue" points="370.77,-800.7 381.33,-801.6 373.63,-794.31 370.77,-800.7"/>
</g>
<!-- Node6 -->
<g id="node6" class="node">
<title>Node6</title>
<g id="a_node6"><a xlink:href="quickjs_8h.html#a9bf98b18de88b4199910a43e933eb97d" target="_top" xlink:title=" ">
<polygon fill="none" stroke="black" points="394,-760.5 394,-779.5 494,-779.5 494,-760.5 394,-760.5"/>
<text text-anchor="middle" x="444" y="-767.5" font-family="Helvetica,sans-Serif" font-size="10.00">__JS_NewFloat64</text>
</a>
</g>
</g>
<!-- Node3&#45;&gt;Node6 -->
<g id="edge5" class="edge">
<title>Node3&#45;&gt;Node6</title>
<path fill="none" stroke="midnightblue" d="M282.03,-551.68C284.42,-584.99 296.96,-695.9 360,-751 366.79,-756.94 375.06,-761.12 383.72,-764.06"/>
<polygon fill="midnightblue" stroke="midnightblue" points="383.03,-767.5 393.61,-766.86 384.94,-760.76 383.03,-767.5"/>
</g>
<!-- Node7 -->
<g id="node7" class="node">
<title>Node7</title>
<g id="a_node7"><a xlink:href="quickjs_8c.html#a74547db03bf739a52c83a326b32db997" target="_top" xlink:title=" ">
<polygon fill="none" stroke="red" points="403.5,-722.5 403.5,-741.5 484.5,-741.5 484.5,-722.5 403.5,-722.5"/>
<text text-anchor="middle" x="444" y="-729.5" font-family="Helvetica,sans-Serif" font-size="10.00">add_property</text>
</a>
</g>
</g>
<!-- Node3&#45;&gt;Node7 -->
<g id="edge6" class="edge">
<title>Node3&#45;&gt;Node7</title>
<path fill="none" stroke="midnightblue" d="M282.9,-551.55C287.7,-580.71 306.27,-669.31 360,-713 369.5,-720.72 381.54,-725.44 393.48,-728.28"/>
<polygon fill="midnightblue" stroke="midnightblue" points="392.94,-731.74 403.43,-730.26 394.3,-724.88 392.94,-731.74"/>
</g>
<!-- Node65 -->
<g id="node8" class="node">
<title>Node65</title>
<g id="a_node8"><a xlink:href="quickjs_8c.html#a4956f45ffd2849b96dc051277264f87a" target="_top" xlink:title=" ">
<polygon fill="none" stroke="red" points="403,-532.5 403,-551.5 485,-551.5 485,-532.5 403,-532.5"/>
<text text-anchor="middle" x="444" y="-539.5" font-family="Helvetica,sans-Serif" font-size="10.00">build_arg_list</text>
</a>
</g>
</g>
<!-- Node3&#45;&gt;Node65 -->
<g id="edge7" class="edge">
<title>Node3&#45;&gt;Node65</title>
<path fill="none" stroke="midnightblue" d="M324.36,-542C345.33,-542 370.72,-542 392.61,-542"/>
<polygon fill="midnightblue" stroke="midnightblue" points="392.73,-545.5 402.73,-542 392.73,-538.5 392.73,-545.5"/>
</g>
<!-- Node66 -->
<g id="node9" class="node">
<title>Node66</title>
<g id="a_node9"><a xlink:href="quickjs_8c.html#ac864482356b3efc2d0b0a509fcfa4c7c" target="_top" xlink:title=" ">
<polygon fill="none" stroke="red" points="589,-608.5 589,-627.5 666,-627.5 666,-608.5 589,-608.5"/>
<text text-anchor="middle" x="627.5" y="-615.5" font-family="Helvetica,sans-Serif" font-size="10.00">free_arg_list</text>
</a>
</g>
</g>
<!-- Node3&#45;&gt;Node66 -->
<g id="edge15" class="edge">
<title>Node3&#45;&gt;Node66</title>
<path fill="none" stroke="midnightblue" d="M298.72,-551.61C314.27,-559.87 338.01,-571.45 360,-578 434.56,-600.21 524.7,-610.44 578.72,-614.89"/>
<polygon fill="midnightblue" stroke="midnightblue" points="578.46,-618.38 588.7,-615.68 579.01,-611.4 578.46,-618.38"/>
</g>
<!-- Node3&#45;&gt;Node57 -->
<g id="edge27" class="edge">
<title>Node3&#45;&gt;Node57</title>
<path fill="none" stroke="midnightblue" d="M282.95,-551.62C291.29,-606.36 333.66,-877.19 360,-903 414.35,-956.26 454.3,-917.07 528,-936 601.65,-954.92 621.45,-957.26 691,-988 708.93,-995.92 728.06,-1007.02 742.44,-1015.96"/>
<polygon fill="midnightblue" stroke="midnightblue" points="740.83,-1019.08 751.15,-1021.47 744.57,-1013.17 740.83,-1019.08"/>
</g>
<!-- Node3&#45;&gt;Node75 -->
<g id="edge33" class="edge">
<title>Node3&#45;&gt;Node75</title>
<path fill="none" stroke="midnightblue" d="M282.34,-532.46C286.84,-483.52 309.87,-261.38 360,-219 391.17,-192.65 505.4,-193.55 573.78,-196.68"/>
<polygon fill="midnightblue" stroke="midnightblue" points="573.78,-200.19 583.93,-197.18 574.12,-193.2 573.78,-200.19"/>
</g>
<!-- Node160 -->
<g id="node12" class="node">
<title>Node160</title>
<g id="a_node12"><a xlink:href="quickjs_8c.html#a61c8dfb5e807af1b6ff7d8ca61576dda" target="_top" xlink:title=" ">
<polygon fill="none" stroke="red" points="397,-684.5 397,-703.5 491,-703.5 491,-684.5 397,-684.5"/>
<text text-anchor="middle" x="444" y="-691.5" font-family="Helvetica,sans-Serif" font-size="10.00">build_backtrace</text>
</a>
</g>
</g>
<!-- Node3&#45;&gt;Node160 -->
<g id="edge12" class="edge">
<title>Node3&#45;&gt;Node160</title>
<path fill="none" stroke="midnightblue" d="M284.21,-551.51C291.75,-576.15 315.41,-642.4 360,-675 367.88,-680.76 377.22,-684.82 386.74,-687.66"/>
<polygon fill="midnightblue" stroke="midnightblue" points="386.12,-691.11 396.68,-690.21 387.86,-684.33 386.12,-691.11"/>
</g>
<!-- Node247 -->
<g id="node13" class="node">
<title>Node247</title>
<g id="a_node13"><a xlink:href="quickjs_8c.html#a344894112559c2ba75043fd10bcfa02f" target="_top" xlink:title=" ">
<polygon fill="none" stroke="red" points="393.5,-646.5 393.5,-665.5 494.5,-665.5 494.5,-646.5 393.5,-646.5"/>
<text text-anchor="middle" x="444" y="-653.5" font-family="Helvetica,sans-Serif" font-size="10.00">close_lexical_var</text>
</a>
</g>
</g>
<!-- Node3&#45;&gt;Node247 -->
<g id="edge13" class="edge">
<title>Node3&#45;&gt;Node247</title>
<path fill="none" stroke="midnightblue" d="M287.29,-551.76C298.77,-570.26 326.26,-610.49 360,-632 367.18,-636.58 375.26,-640.31 383.49,-643.34"/>
<polygon fill="midnightblue" stroke="midnightblue" points="382.57,-646.72 393.16,-646.58 384.8,-640.08 382.57,-646.72"/>
</g>
<!-- Node248 -->
<g id="node14" class="node">
<title>Node248</title>
<g id="a_node14"><a xlink:href="quickjs_8c.html#a1782043fce951bd4f0d91c7796b31e24" target="_top" xlink:title=" ">
<polygon fill="none" stroke="red" points="400.5,-494.5 400.5,-513.5 487.5,-513.5 487.5,-494.5 400.5,-494.5"/>
<text text-anchor="middle" x="444" y="-501.5" font-family="Helvetica,sans-Serif" font-size="10.00">close_var_refs</text>
</a>
</g>
</g>
<!-- Node3&#45;&gt;Node248 -->
<g id="edge14" class="edge">
<title>Node3&#45;&gt;Node248</title>
<path fill="none" stroke="midnightblue" d="M320.61,-532.43C333.18,-529.39 347.17,-526.02 360,-523 369.93,-520.66 380.53,-518.2 390.73,-515.86"/>
<polygon fill="midnightblue" stroke="midnightblue" points="391.79,-519.21 400.75,-513.56 390.22,-512.39 391.79,-519.21"/>
</g>
<!-- Node54 -->
<g id="node15" class="node">
<title>Node54</title>
<g id="a_node15"><a xlink:href="quickjs_8c.html#a9e7b4bccf927d811b0f99b40b08c0472" target="_top" xlink:title=" ">
<polygon fill="none" stroke="red" points="406,-456.5 406,-475.5 482,-475.5 482,-456.5 406,-456.5"/>
<text text-anchor="middle" x="444" y="-463.5" font-family="Helvetica,sans-Serif" font-size="10.00">free_var_ref</text>
</a>
</g>
</g>
<!-- Node3&#45;&gt;Node54 -->
<g id="edge16" class="edge">
<title>Node3&#45;&gt;Node54</title>
<path fill="none" stroke="midnightblue" d="M291.8,-532.37C306.03,-519.61 333.01,-497.26 360,-485 371.14,-479.94 383.76,-476.16 395.74,-473.37"/>
<polygon fill="midnightblue" stroke="midnightblue" points="396.56,-476.77 405.6,-471.25 395.09,-469.93 396.56,-476.77"/>
</g>
<!-- Node250 -->
<g id="node16" class="node">
<title>Node250</title>
<g id="a_node16"><a xlink:href="cutils_8h.html#a7c82a3ee025fee89db5b11ff5b7691b8" target="_top" xlink:title=" ">
<polygon fill="none" stroke="black" points="417.5,-418.5 417.5,-437.5 470.5,-437.5 470.5,-418.5 417.5,-418.5"/>
<text text-anchor="middle" x="444" y="-425.5" font-family="Helvetica,sans-Serif" font-size="10.00">get_i16</text>
</a>
</g>
</g>
<!-- Node3&#45;&gt;Node250 -->
<g id="edge17" class="edge">
<title>Node3&#45;&gt;Node250</title>
<path fill="none" stroke="midnightblue" d="M286.53,-532.42C297.25,-513.01 324.31,-469.01 360,-447 374.11,-438.3 391.78,-433.58 407.19,-431.01"/>
<polygon fill="midnightblue" stroke="midnightblue" points="408.01,-434.43 417.42,-429.56 407.03,-427.5 408.01,-434.43"/>
</g>
<!-- Node251 -->
<g id="node17" class="node">
<title>Node251</title>
<g id="a_node17"><a xlink:href="cutils_8h.html#a288ee4e688944e23500af2ecc813c306" target="_top" xlink:title=" ">
<polygon fill="none" stroke="black" points="420.5,-380.5 420.5,-399.5 467.5,-399.5 467.5,-380.5 420.5,-380.5"/>
<text text-anchor="middle" x="444" y="-387.5" font-family="Helvetica,sans-Serif" font-size="10.00">get_i8</text>
</a>
</g>
</g>
<!-- Node3&#45;&gt;Node251 -->
<g id="edge18" class="edge">
<title>Node3&#45;&gt;Node251</title>
<path fill="none" stroke="midnightblue" d="M284.21,-532.49C291.75,-507.85 315.41,-441.6 360,-409 374.39,-398.48 393.64,-393.65 409.98,-391.49"/>
<polygon fill="midnightblue" stroke="midnightblue" points="410.63,-394.94 420.21,-390.42 409.9,-387.98 410.63,-394.94"/>
</g>
<!-- Node252 -->
<g id="node18" class="node">
<title>Node252</title>
<g id="a_node18"><a xlink:href="cutils_8h.html#ad587834d17e95461893d59661e5e9676" target="_top" xlink:title=" ">
<polygon fill="none" stroke="black" points="416,-342.5 416,-361.5 472,-361.5 472,-342.5 416,-342.5"/>
<text text-anchor="middle" x="444" y="-349.5" font-family="Helvetica,sans-Serif" font-size="10.00">get_u16</text>
</a>
</g>
</g>
<!-- Node3&#45;&gt;Node252 -->
<g id="edge19" class="edge">
<title>Node3&#45;&gt;Node252</title>
<path fill="none" stroke="midnightblue" d="M282.9,-532.45C287.7,-503.29 306.27,-414.69 360,-371 372.67,-360.69 389.87,-355.75 405.32,-353.45"/>
<polygon fill="midnightblue" stroke="midnightblue" points="406.14,-356.88 415.67,-352.25 405.33,-349.92 406.14,-356.88"/>
</g>
<!-- Node50 -->
<g id="node19" class="node">
<title>Node50</title>
<g id="a_node19"><a xlink:href="cutils_8h.html#a941262a5f72fda2ec43ae7911e97a0dc" target="_top" xlink:title=" ">
<polygon fill="none" stroke="black" points="416,-304.5 416,-323.5 472,-323.5 472,-304.5 416,-304.5"/>
<text text-anchor="middle" x="444" y="-311.5" font-family="Helvetica,sans-Serif" font-size="10.00">get_u32</text>
</a>
</g>
</g>
<!-- Node3&#45;&gt;Node50 -->
<g id="edge20" class="edge">
<title>Node3&#45;&gt;Node50</title>
<path fill="none" stroke="midnightblue" d="M282.03,-532.32C284.42,-499.01 296.96,-388.1 360,-333 372.51,-322.07 390.03,-317.07 405.75,-314.91"/>
<polygon fill="midnightblue" stroke="midnightblue" points="406.17,-318.38 415.75,-313.86 405.44,-311.42 406.17,-318.38"/>
</g>
<!-- Node253 -->
<g id="node20" class="node">
<title>Node253</title>
<g id="a_node20"><a xlink:href="quickjs_8c.html#a37fe43b6649456a848bd54846450b995" target="_top" xlink:title=" ">
<polygon fill="none" stroke="red" points="408,-266.5 408,-285.5 480,-285.5 480,-266.5 408,-266.5"/>
<text text-anchor="middle" x="444" y="-273.5" font-family="Helvetica,sans-Serif" font-size="10.00">get_var_ref</text>
</a>
</g>
</g>
<!-- Node3&#45;&gt;Node253 -->
<g id="edge21" class="edge">
<title>Node3&#45;&gt;Node253</title>
<path fill="none" stroke="midnightblue" d="M281.4,-532.45C281.57,-495.66 287.34,-361.89 360,-295 370.23,-285.59 384.14,-280.52 397.65,-277.89"/>
<polygon fill="midnightblue" stroke="midnightblue" points="398.49,-281.3 407.83,-276.31 397.42,-274.38 398.49,-281.3"/>
</g>
<!-- Node196 -->
<g id="node21" class="node">
<title>Node196</title>
<g id="a_node21"><a xlink:href="list_8h.html#a663527a4d757540b2177bef0db1ce5c0" target="_top" xlink:title=" ">
<polygon fill="none" stroke="black" points="403,-228.5 403,-247.5 485,-247.5 485,-228.5 403,-228.5"/>
<text text-anchor="middle" x="444" y="-235.5" font-family="Helvetica,sans-Serif" font-size="10.00">init_list_head</text>
</a>
</g>
</g>
<!-- Node3&#45;&gt;Node196 -->
<g id="edge22" class="edge">
<title>Node3&#45;&gt;Node196</title>
<path fill="none" stroke="midnightblue" d="M282.84,-532.23C289.26,-486.82 318.29,-296.92 360,-257 368.93,-248.46 380.87,-243.47 392.92,-240.62"/>
<polygon fill="midnightblue" stroke="midnightblue" points="393.82,-244.01 402.99,-238.7 392.51,-237.13 393.82,-244.01"/>
</g>
<!-- Node254 -->
<g id="node22" class="node">
<title>Node254</title>
<g id="a_node22"><a xlink:href="quickjs_8c.html#a2bb0a2ca3b8320f3ff778c65034fce49" target="_top" xlink:title=" ">
<polygon fill="none" stroke="red" points="384.5,-874.5 384.5,-893.5 503.5,-893.5 503.5,-874.5 384.5,-874.5"/>
<text text-anchor="middle" x="444" y="-881.5" font-family="Helvetica,sans-Serif" font-size="10.00">is_backtrace_needed</text>
</a>
</g>
</g>
<!-- Node3&#45;&gt;Node254 -->
<g id="edge23" class="edge">
<title>Node3&#45;&gt;Node254</title>
<path fill="none" stroke="midnightblue" d="M282.5,-551.72C287.71,-600.61 313.38,-819 360,-865 364.31,-869.26 369.38,-872.64 374.83,-875.31"/>
<polygon fill="midnightblue" stroke="midnightblue" points="373.75,-878.65 384.33,-879.18 376.39,-872.17 373.75,-878.65"/>
</g>
<!-- Node180 -->
<g id="node23" class="node">
<title>Node180</title>
<g id="a_node23"><a xlink:href="quickjs_8c.html#a686cf78f8b0361621ee2ba6182195c31" target="_top" xlink:title=" ">
<polygon fill="none" stroke="black" points="400,-836.5 400,-855.5 488,-855.5 488,-836.5 400,-836.5"/>
<text text-anchor="middle" x="444" y="-843.5" font-family="Helvetica,sans-Serif" font-size="10.00">is_strict_mode</text>
</a>
</g>
</g>
<!-- Node3&#45;&gt;Node180 -->
<g id="edge24" class="edge">
<title>Node3&#45;&gt;Node180</title>
<path fill="none" stroke="midnightblue" d="M282.84,-551.77C289.26,-597.18 318.29,-787.08 360,-827 368.26,-834.91 379.1,-839.77 390.22,-842.71"/>
<polygon fill="midnightblue" stroke="midnightblue" points="389.48,-846.13 400,-844.82 390.96,-839.29 389.48,-846.13"/>
</g>
<!-- Node3&#45;&gt;Node68 -->
<g id="edge28" class="edge">
<title>Node3&#45;&gt;Node68</title>
<path fill="none" stroke="midnightblue" d="M282.3,-551.78C287.14,-608.9 313.74,-899.31 360,-974 372.8,-994.67 395.22,-1010.8 413.54,-1021.41"/>
<polygon fill="midnightblue" stroke="midnightblue" points="411.96,-1024.54 422.4,-1026.32 415.35,-1018.42 411.96,-1024.54"/>
</g>
<!-- Node69 -->
<g id="node25" class="node">
<title>Node69</title>
<g id="a_node25"><a xlink:href="quickjs_8c.html#a5762c57ae0c9937e986040c01222833a" target="_top" xlink:title=" ">
<polygon fill="none" stroke="red" points="564,-997.5 564,-1016.5 691,-1016.5 691,-997.5 564,-997.5"/>
<text text-anchor="middle" x="627.5" y="-1004.5" font-family="Helvetica,sans-Serif" font-size="10.00">JS_GetPropertyInternal</text>
</a>
</g>
</g>
<!-- Node3&#45;&gt;Node69 -->
<g id="edge32" class="edge">
<title>Node3&#45;&gt;Node69</title>
<path fill="none" stroke="midnightblue" d="M282.07,-551.56C285.49,-606.09 305.12,-877.51 360,-936 367.52,-944.02 501.55,-977.11 576.6,-995.14"/>
<polygon fill="midnightblue" stroke="midnightblue" points="575.79,-998.55 586.33,-997.48 577.43,-991.74 575.79,-998.55"/>
</g>
<!-- Node3&#45;&gt;Node125 -->
<g id="edge34" class="edge">
<title>Node3&#45;&gt;Node125</title>
<path fill="none" stroke="midnightblue" d="M282.31,-532.38C286.83,-480.96 310.54,-238.75 360,-186 371.36,-173.88 388.43,-167.76 404.13,-164.71"/>
<polygon fill="midnightblue" stroke="midnightblue" points="404.85,-168.14 414.18,-163.12 403.76,-161.22 404.85,-168.14"/>
</g>
<!-- Node3&#45;&gt;Node287 -->
<g id="edge35" class="edge">
<title>Node3&#45;&gt;Node287</title>
<path fill="none" stroke="midnightblue" d="M282.02,-532.29C285.16,-476.91 303.48,-201.29 360,-143 370.02,-132.67 384.42,-127.45 398.43,-124.94"/>
<polygon fill="midnightblue" stroke="midnightblue" points="399.05,-128.39 408.49,-123.57 398.1,-121.45 399.05,-128.39"/>
</g>
<!-- Node3&#45;&gt;Node126 -->
<g id="edge36" class="edge">
<title>Node3&#45;&gt;Node126</title>
<path fill="none" stroke="midnightblue" d="M282.22,-532.45C286.65,-475.42 311.7,-179.79 360,-105 372.27,-85.99 393.36,-71.63 411.2,-62.08"/>
<polygon fill="midnightblue" stroke="midnightblue" points="412.84,-65.17 420.17,-57.53 409.67,-58.93 412.84,-65.17"/>
</g>
<!-- Node3&#45;&gt;Node207 -->
<g id="edge38" class="edge">
<title>Node3&#45;&gt;Node207</title>
<path fill="none" stroke="midnightblue" d="M281.56,-551.82C282.13,-616.22 288.54,-978.11 360,-1055 370.98,-1066.81 387.68,-1072.01 403.22,-1074.08"/>
<polygon fill="midnightblue" stroke="midnightblue" points="402.91,-1077.57 413.2,-1075.03 403.58,-1070.6 402.91,-1077.57"/>
</g>
<!-- Node3&#45;&gt;Node244 -->
<g id="edge40" class="edge">
<title>Node3&#45;&gt;Node244</title>
<path fill="none" stroke="midnightblue" d="M281.56,-532.18C282.13,-467.78 288.54,-105.89 360,-29 361.21,-27.7 362.49,-26.47 363.83,-25.33"/>
<polygon fill="midnightblue" stroke="midnightblue" points="365.9,-28.15 372.1,-19.56 361.9,-22.41 365.9,-28.15"/>
</g>
<!-- Node65&#45;&gt;Node4 -->
<g id="edge8" class="edge">
<title>Node65&#45;&gt;Node4</title>
<path fill="none" stroke="midnightblue" d="M485.28,-546.22C512.35,-549.05 548.2,-552.8 577,-555.82"/>
<polygon fill="midnightblue" stroke="midnightblue" points="576.96,-559.33 587.27,-556.89 577.69,-552.37 576.96,-559.33"/>
</g>
<!-- Node65&#45;&gt;Node66 -->
<g id="edge9" class="edge">
<title>Node65&#45;&gt;Node66</title>
<path fill="none" stroke="midnightblue" d="M467.99,-551.63C499.9,-564.99 557.78,-589.23 594.08,-604.42"/>
<polygon fill="midnightblue" stroke="midnightblue" points="593.12,-607.82 603.7,-608.45 595.83,-601.36 593.12,-607.82"/>
</g>
<!-- Node65&#45;&gt;Node75 -->
<g id="edge11" class="edge">
<title>Node65&#45;&gt;Node75</title>
<path fill="none" stroke="midnightblue" d="M485.28,-541.07C500.33,-538.77 516.53,-533.68 528,-523 617.9,-439.26 626.62,-276.17 626.83,-219.76"/>
<polygon fill="midnightblue" stroke="midnightblue" points="630.33,-219.66 626.77,-209.68 623.33,-219.7 630.33,-219.66"/>
</g>
<!-- Node66&#45;&gt;Node57 -->
<g id="edge10" class="edge">
<title>Node66&#45;&gt;Node57</title>
<path fill="none" stroke="midnightblue" d="M631.75,-627.8C649.52,-681.36 734.95,-938.91 759.12,-1011.77"/>
<polygon fill="midnightblue" stroke="midnightblue" points="755.87,-1013.08 762.34,-1021.47 762.51,-1010.88 755.87,-1013.08"/>
</g>
<!-- Node68&#45;&gt;Node69 -->
<g id="edge29" class="edge">
<title>Node68&#45;&gt;Node69</title>
<path fill="none" stroke="midnightblue" d="M488.94,-1028.98C509.32,-1025.72 534.03,-1021.77 556.86,-1018.13"/>
<polygon fill="midnightblue" stroke="midnightblue" points="557.53,-1021.56 566.85,-1016.53 556.43,-1014.65 557.53,-1021.56"/>
</g>
<!-- Node69&#45;&gt;Node2 -->
<g id="edge30" class="edge">
<title>Node69&#45;&gt;Node2</title>
<path fill="none" stroke="midnightblue" d="M563.86,-1014.98C505.43,-1018.96 418.7,-1015.64 360,-972 217.49,-866.05 177.56,-630.91 168.69,-561.59"/>
<polygon fill="midnightblue" stroke="midnightblue" points="172.16,-561.12 167.48,-551.61 165.21,-561.96 172.16,-561.12"/>
</g>
<!-- Node69&#45;&gt;Node57 -->
<g id="edge31" class="edge">
<title>Node69&#45;&gt;Node57</title>
<path fill="none" stroke="midnightblue" d="M683.04,-1016.55C694.12,-1018.5 705.72,-1020.53 716.59,-1022.43"/>
<polygon fill="midnightblue" stroke="midnightblue" points="716.3,-1025.93 726.75,-1024.21 717.51,-1019.04 716.3,-1025.93"/>
</g>
<!-- Node207&#45;&gt;Node57 -->
<g id="edge39" class="edge">
<title>Node207&#45;&gt;Node57</title>
<path fill="none" stroke="midnightblue" d="M474.58,-1070.03C529.93,-1062.61 649.62,-1046.55 716.96,-1037.51"/>
<polygon fill="midnightblue" stroke="midnightblue" points="717.45,-1040.98 726.9,-1036.18 716.52,-1034.04 717.45,-1040.98"/>
</g>
</g>
</svg>
        <g id="navigator" transform="translate(0 0)" fill="#404254">
                <rect fill="#f2f5e9" fill-opacity="0.5" stroke="#606060" stroke-width=".5" x="0" y="0" width="60" height="60"/>
                <use id="zoomplus" xlink:href="#zoomPlus" x="17" y="9" onmousedown="handleZoom(evt,'in')"/>
                <use id="zoomminus" xlink:href="#zoomMin" x="42" y="9" onmousedown="handleZoom(evt,'out')"/>
                <use id="reset" xlink:href="#resetDef" x="30" y="36" onmousedown="handleReset()"/>
                <g id="arrowUp" xlink:href="#dirArrow" transform="translate(30 24)" onmousedown="handlePan(0,-1)">
                  <use xlink:href="#rim" fill="#404040">
                        <set attributeName="fill" to="#808080" begin="arrowUp.mouseover" end="arrowUp.mouseout"/>
                  </use>
                  <path fill="none" stroke="white" stroke-width="1.5" d="M0,-3.0v7 M-2.5,-0.5L0,-3.0L2.5,-0.5"/>
                </g>
                <g id="arrowRight" xlink:href="#dirArrow" transform="rotate(90) translate(36 -43)" onmousedown="handlePan(1,0)">
                  <use xlink:href="#rim" fill="#404040">
                        <set attributeName="fill" to="#808080" begin="arrowRight.mouseover" end="arrowRight.mouseout"/>
                  </use>
                  <path fill="none" stroke="white" stroke-width="1.5" d="M0,-3.0v7 M-2.5,-0.5L0,-3.0L2.5,-0.5"/>
                </g>
                <g id="arrowDown" xlink:href="#dirArrow" transform="rotate(180) translate(-30 -48)" onmousedown="handlePan(0,1)">
                  <use xlink:href="#rim" fill="#404040">
                        <set attributeName="fill" to="#808080" begin="arrowDown.mouseover" end="arrowDown.mouseout"/>
                  </use>
                  <path fill="none" stroke="white" stroke-width="1.5" d="M0,-3.0v7 M-2.5,-0.5L0,-3.0L2.5,-0.5"/>
                </g>
                <g id="arrowLeft" xlink:href="#dirArrow" transform="rotate(270) translate(-36 17)" onmousedown="handlePan(-1,0)">
                  <use xlink:href="#rim" fill="#404040">
                        <set attributeName="fill" to="#808080" begin="arrowLeft.mouseover" end="arrowLeft.mouseout"/>
                  </use>
                  <path fill="none" stroke="white" stroke-width="1.5" d="M0,-3.0v7 M-2.5,-0.5L0,-3.0L2.5,-0.5"/>
                </g>
        </g>
        <svg viewBox="0 0 15 15" width="100%" height="30px" preserveAspectRatio="xMaxYMin meet">
         <g id="arrow_out" transform="scale(0.3 0.3)">
          <a xlink:href="quickjs_8c_abb88b24dc63d82fcc312bba0cf93c3d7_cgraph_org.svg" target="_base">
           <rect id="button" ry="5" rx="5" y="6" x="6" height="38" width="38"
                fill="#f2f5e9" fill-opacity="0.5" stroke="#606060" stroke-width="1.0"/>
           <path id="arrow"
             d="M 11.500037,31.436501 C 11.940474,20.09759 22.043105,11.32322 32.158766,21.979434 L 37.068811,17.246167 C 37.068811,17.246167 37.088388,32 37.088388,32 L 22.160133,31.978069 C 22.160133,31.978069 26.997745,27.140456 26.997745,27.140456 C 18.528582,18.264221 13.291696,25.230495 11.500037,31.436501 z"
             style="fill:#404040;"/>
          </a>
         </g>
        </svg>
</svg>
