<?xml version="1.0" encoding="UTF-8" standalone="no"?>
<!DOCTYPE svg PUBLIC "-//W3C//DTD SVG 1.1//EN"
 "http://www.w3.org/Graphics/SVG/1.1/DTD/svg11.dtd">
<!-- Generated by graphviz version 2.43.0 (0)
 -->
<!-- Title: js_function_apply Pages: 1 -->
<!--zoomable 256 -->
<svg id="main" version="1.1" xmlns="http://www.w3.org/2000/svg" xmlns:xlink="http://www.w3.org/1999/xlink" xml:space="preserve" onload="init(evt)">
<style type="text/css"><![CDATA[
.edge:hover path { stroke: red; }
.edge:hover polygon { stroke: red; fill: red; }
]]></style>
<script type="text/javascript"><![CDATA[
var edges = document.getElementsByTagName('g');
if (edges && edges.length) {
  for (var i=0;i<edges.length;i++) {
    if (edges[i].id.substr(0,4)=='edge') {
      edges[i].setAttribute('class','edge');
    }
  }
}
]]></script>
        <defs>
                <circle id="rim" cx="0" cy="0" r="7"/>
                <circle id="rim2" cx="0" cy="0" r="3.5"/>
                <g id="zoomPlus">
                        <use xlink:href="#rim" fill="#404040">
                                <set attributeName="fill" to="#808080" begin="zoomplus.mouseover" end="zoomplus.mouseout"/>
                        </use>
                        <path d="M-4,0h8M0,-4v8" fill="none" stroke="white" stroke-width="1.5" pointer-events="none"/>
                </g>
                <g id="zoomMin">
                        <use xlink:href="#rim" fill="#404040">
                                <set attributeName="fill" to="#808080" begin="zoomminus.mouseover" end="zoomminus.mouseout"/>
                        </use>
                        <path d="M-4,0h8" fill="none" stroke="white" stroke-width="1.5" pointer-events="none"/>
                </g>
                <g id="dirArrow">
                        <path fill="none" stroke="white" stroke-width="1.5" d="M0,-3.0v7 M-2.5,-0.5L0,-3.0L2.5,-0.5"/>
                </g>
               <g id="resetDef">
                       <use xlink:href="#rim2" fill="#404040">
                               <set attributeName="fill" to="#808080" begin="reset.mouseover" end="reset.mouseout"/>
                       </use>
               </g>
        </defs>

<script type="text/javascript">
var viewWidth = 568;
var viewHeight = 256;
var sectionId = 'dynsection-1461';
</script>
<script xlink:href="svgpan.js"/>
<svg id="graph" class="graph">
<g id="viewport">
<title>js_function_apply</title>
<!-- Node1 -->
<g id="node1" class="node">
<title>Node1</title>
<g id="a_node1"><a xlink:title=" ">
<polygon fill="#bfbfbf" stroke="black" points="0,-119.5 0,-138.5 102,-138.5 102,-119.5 0,-119.5"/>
<text text-anchor="middle" x="51" y="-126.5" font-family="Helvetica,sans-Serif" font-size="10.00">js_function_apply</text>
</a>
</g>
</g>
<!-- Node2 -->
<g id="node2" class="node">
<title>Node2</title>
<g id="a_node2"><a xlink:href="quickjs_8c.html#a4956f45ffd2849b96dc051277264f87a" target="_top" xlink:title=" ">
<polygon fill="none" stroke="black" points="153,-119.5 153,-138.5 235,-138.5 235,-119.5 153,-119.5"/>
<text text-anchor="middle" x="194" y="-126.5" font-family="Helvetica,sans-Serif" font-size="10.00">build_arg_list</text>
</a>
</g>
</g>
<!-- Node1&#45;&gt;Node2 -->
<g id="edge1" class="edge">
<title>Node1&#45;&gt;Node2</title>
<path fill="none" stroke="midnightblue" d="M102.11,-129C115.22,-129 129.37,-129 142.51,-129"/>
<polygon fill="midnightblue" stroke="midnightblue" points="142.79,-132.5 152.79,-129 142.79,-125.5 142.79,-132.5"/>
</g>
<!-- Node4 -->
<g id="node4" class="node">
<title>Node4</title>
<g id="a_node4"><a xlink:href="quickjs_8c.html#ac864482356b3efc2d0b0a509fcfa4c7c" target="_top" xlink:title=" ">
<polygon fill="none" stroke="black" points="319,-228.5 319,-247.5 396,-247.5 396,-228.5 319,-228.5"/>
<text text-anchor="middle" x="357.5" y="-235.5" font-family="Helvetica,sans-Serif" font-size="10.00">free_arg_list</text>
</a>
</g>
</g>
<!-- Node1&#45;&gt;Node4 -->
<g id="edge14" class="edge">
<title>Node1&#45;&gt;Node4</title>
<path fill="none" stroke="midnightblue" d="M61.58,-138.82C76.49,-153.49 106.79,-180.89 138,-195 193.4,-220.04 263.18,-230.54 308.78,-234.92"/>
<polygon fill="midnightblue" stroke="midnightblue" points="308.7,-238.42 318.97,-235.83 309.33,-231.45 308.7,-238.42"/>
</g>
<!-- Node372 -->
<g id="node13" class="node">
<title>Node372</title>
<g id="a_node13"><a xlink:href="quickjs_8c.html#a59a7e992f228759bf0a56f0aae4f3cc3" target="_top" xlink:title=" ">
<polygon fill="none" stroke="red" points="149,-81.5 149,-100.5 239,-100.5 239,-81.5 149,-81.5"/>
<text text-anchor="middle" x="194" y="-88.5" font-family="Helvetica,sans-Serif" font-size="10.00">check_function</text>
</a>
</g>
</g>
<!-- Node1&#45;&gt;Node372 -->
<g id="edge13" class="edge">
<title>Node1&#45;&gt;Node372</title>
<path fill="none" stroke="midnightblue" d="M87.58,-119.41C105.78,-114.51 128.14,-108.48 147.57,-103.24"/>
<polygon fill="midnightblue" stroke="midnightblue" points="148.69,-106.57 157.43,-100.59 146.86,-99.81 148.69,-106.57"/>
</g>
<!-- Node279 -->
<g id="node14" class="node">
<title>Node279</title>
<g id="a_node14"><a xlink:href="quickjs_8c.html#a1a4c02a29525d5cb2085dd8bca3af350" target="_top" xlink:title=" ">
<polygon fill="none" stroke="red" points="169,-43.5 169,-62.5 219,-62.5 219,-43.5 169,-43.5"/>
<text text-anchor="middle" x="194" y="-50.5" font-family="Helvetica,sans-Serif" font-size="10.00">JS_Call</text>
</a>
</g>
</g>
<!-- Node1&#45;&gt;Node279 -->
<g id="edge15" class="edge">
<title>Node1&#45;&gt;Node279</title>
<path fill="none" stroke="midnightblue" d="M64.22,-119.45C80.37,-107.18 110.06,-85.81 138,-72 144.72,-68.68 152.18,-65.68 159.37,-63.11"/>
<polygon fill="midnightblue" stroke="midnightblue" points="160.57,-66.39 168.91,-59.86 158.32,-59.77 160.57,-66.39"/>
</g>
<!-- Node435 -->
<g id="node15" class="node">
<title>Node435</title>
<g id="a_node15"><a xlink:href="quickjs_8c.html#a03d5edf3e8bb18809d6675e5c08bac26" target="_top" xlink:title=" ">
<polygon fill="none" stroke="black" points="138,-166.5 138,-185.5 250,-185.5 250,-166.5 138,-166.5"/>
<text text-anchor="middle" x="194" y="-173.5" font-family="Helvetica,sans-Serif" font-size="10.00">JS_CallConstructor2</text>
</a>
</g>
</g>
<!-- Node1&#45;&gt;Node435 -->
<g id="edge16" class="edge">
<title>Node1&#45;&gt;Node435</title>
<path fill="none" stroke="midnightblue" d="M80.53,-138.51C101.8,-145.6 131.07,-155.36 154.42,-163.14"/>
<polygon fill="midnightblue" stroke="midnightblue" points="153.43,-166.5 164.03,-166.34 155.65,-159.86 153.43,-166.5"/>
</g>
<!-- Node3 -->
<g id="node3" class="node">
<title>Node3</title>
<g id="a_node3"><a xlink:href="quickjs_8c.html#a853f0924d441ea4225488f37c8b69f9a" target="_top" xlink:title=" ">
<polygon fill="none" stroke="black" points="317.5,-114.5 317.5,-133.5 397.5,-133.5 397.5,-114.5 317.5,-114.5"/>
<text text-anchor="middle" x="357.5" y="-121.5" font-family="Helvetica,sans-Serif" font-size="10.00">__attribute__</text>
</a>
</g>
</g>
<!-- Node2&#45;&gt;Node3 -->
<g id="edge2" class="edge">
<title>Node2&#45;&gt;Node3</title>
<path fill="none" stroke="midnightblue" d="M235.34,-127.75C257.05,-127.08 284.02,-126.24 306.99,-125.53"/>
<polygon fill="midnightblue" stroke="midnightblue" points="307.35,-129.02 317.23,-125.22 307.13,-122.03 307.35,-129.02"/>
</g>
<!-- Node2&#45;&gt;Node4 -->
<g id="edge3" class="edge">
<title>Node2&#45;&gt;Node4</title>
<path fill="none" stroke="midnightblue" d="M221.02,-138.53C230.9,-143.05 241.75,-149.19 250,-157 273.14,-178.9 260.71,-199.62 286,-219 292.8,-224.21 300.92,-227.99 309.19,-230.74"/>
<polygon fill="midnightblue" stroke="midnightblue" points="308.32,-234.13 318.9,-233.51 310.24,-227.4 308.32,-234.13"/>
</g>
<!-- Node43 -->
<g id="node7" class="node">
<title>Node43</title>
<g id="a_node7"><a xlink:href="quickjs_8h.html#a775522f2d084fc8fa0fcb33f390006b4" target="_top" xlink:title=" ">
<polygon fill="none" stroke="black" points="319,-0.5 319,-19.5 396,-19.5 396,-0.5 319,-0.5"/>
<text text-anchor="middle" x="357.5" y="-7.5" font-family="Helvetica,sans-Serif" font-size="10.00">JS_DupValue</text>
</a>
</g>
</g>
<!-- Node2&#45;&gt;Node43 -->
<g id="edge6" class="edge">
<title>Node2&#45;&gt;Node43</title>
<path fill="none" stroke="midnightblue" d="M235.06,-119.59C240.5,-117.1 245.68,-113.96 250,-110 279.02,-83.36 256.07,-54.62 286,-29 292.58,-23.37 300.66,-19.39 308.98,-16.59"/>
<polygon fill="midnightblue" stroke="midnightblue" points="310.11,-19.9 318.78,-13.8 308.2,-13.17 310.11,-19.9"/>
</g>
<!-- Node44 -->
<g id="node8" class="node">
<title>Node44</title>
<g id="a_node8"><a xlink:href="quickjs_8c.html#a718e904644ebc55548a5bdbd44f3adb9" target="_top" xlink:title=" ">
<polygon fill="none" stroke="black" points="310.5,-38.5 310.5,-57.5 404.5,-57.5 404.5,-38.5 310.5,-38.5"/>
<text text-anchor="middle" x="357.5" y="-45.5" font-family="Helvetica,sans-Serif" font-size="10.00">js_get_length32</text>
</a>
</g>
</g>
<!-- Node2&#45;&gt;Node44 -->
<g id="edge7" class="edge">
<title>Node2&#45;&gt;Node44</title>
<path fill="none" stroke="midnightblue" d="M230.79,-119.44C237.44,-116.9 244.14,-113.78 250,-110 269.55,-97.4 266.42,-84.56 286,-72 292.81,-67.63 300.5,-63.97 308.24,-60.92"/>
<polygon fill="midnightblue" stroke="midnightblue" points="309.43,-64.21 317.64,-57.51 307.04,-57.63 309.43,-64.21"/>
</g>
<!-- Node54 -->
<g id="node10" class="node">
<title>Node54</title>
<g id="a_node10"><a xlink:href="quickjs_8h.html#ad80a83d73e9b7d872b88fbf2943aebe9" target="_top" xlink:title=" ">
<polygon fill="none" stroke="black" points="469,-76.5 469,-95.5 556,-95.5 556,-76.5 469,-76.5"/>
<text text-anchor="middle" x="512.5" y="-83.5" font-family="Helvetica,sans-Serif" font-size="10.00">JS_IsException</text>
</a>
</g>
</g>
<!-- Node2&#45;&gt;Node54 -->
<g id="edge12" class="edge">
<title>Node2&#45;&gt;Node54</title>
<path fill="none" stroke="midnightblue" d="M225.87,-119.43C243.35,-114.37 265.71,-108.5 286,-105 344.67,-94.87 412.9,-90.08 458.81,-87.85"/>
<polygon fill="midnightblue" stroke="midnightblue" points="459,-91.34 468.83,-87.39 458.68,-84.35 459,-91.34"/>
</g>
<!-- Node264 -->
<g id="node12" class="node">
<title>Node264</title>
<g id="a_node12"><a xlink:href="quickjs_8c.html#aeb97957655d979e9fe56c955da2b2d4b" target="_top" xlink:title=" ">
<polygon fill="none" stroke="red" points="296.5,-152.5 296.5,-171.5 418.5,-171.5 418.5,-152.5 296.5,-152.5"/>
<text text-anchor="middle" x="357.5" y="-159.5" font-family="Helvetica,sans-Serif" font-size="10.00">JS_GetPropertyUint32</text>
</a>
</g>
</g>
<!-- Node2&#45;&gt;Node264 -->
<g id="edge11" class="edge">
<title>Node2&#45;&gt;Node264</title>
<path fill="none" stroke="midnightblue" d="M235.34,-137.24C254.86,-141.23 278.62,-146.09 299.91,-150.44"/>
<polygon fill="midnightblue" stroke="midnightblue" points="299.32,-153.89 309.82,-152.46 300.72,-147.03 299.32,-153.89"/>
</g>
<!-- Node5 -->
<g id="node5" class="node">
<title>Node5</title>
<g id="a_node5"><a xlink:href="quickjs_8c.html#a80e54dcf9ac687d4ccc2f90273565f30" target="_top" xlink:title=" ">
<polygon fill="none" stroke="red" points="487.5,-228.5 487.5,-247.5 537.5,-247.5 537.5,-228.5 487.5,-228.5"/>
<text text-anchor="middle" x="512.5" y="-235.5" font-family="Helvetica,sans-Serif" font-size="10.00">js_free</text>
</a>
</g>
</g>
<!-- Node4&#45;&gt;Node5 -->
<g id="edge4" class="edge">
<title>Node4&#45;&gt;Node5</title>
<path fill="none" stroke="midnightblue" d="M396.32,-238C421.14,-238 453.34,-238 477.37,-238"/>
<polygon fill="midnightblue" stroke="midnightblue" points="477.46,-241.5 487.46,-238 477.46,-234.5 477.46,-241.5"/>
</g>
<!-- Node7 -->
<g id="node6" class="node">
<title>Node7</title>
<g id="a_node6"><a xlink:href="quickjs_8h.html#afaa20c47565bc704c6c85f3d77254e7d" target="_top" xlink:title=" ">
<polygon fill="none" stroke="red" points="473,-190.5 473,-209.5 552,-209.5 552,-190.5 473,-190.5"/>
<text text-anchor="middle" x="512.5" y="-197.5" font-family="Helvetica,sans-Serif" font-size="10.00">JS_FreeValue</text>
</a>
</g>
</g>
<!-- Node4&#45;&gt;Node7 -->
<g id="edge5" class="edge">
<title>Node4&#45;&gt;Node7</title>
<path fill="none" stroke="midnightblue" d="M396.32,-228.61C416.49,-223.6 441.52,-217.38 463.1,-212.02"/>
<polygon fill="midnightblue" stroke="midnightblue" points="464.19,-215.36 473.05,-209.55 462.5,-208.56 464.19,-215.36"/>
</g>
<!-- Node45 -->
<g id="node9" class="node">
<title>Node45</title>
<g id="a_node9"><a xlink:href="quickjs_8h.html#a89b7c8686c7eee70b86be722ee4730ad" target="_top" xlink:title=" ">
<polygon fill="none" stroke="red" points="468,-0.5 468,-19.5 557,-19.5 557,-0.5 468,-0.5"/>
<text text-anchor="middle" x="512.5" y="-7.5" font-family="Helvetica,sans-Serif" font-size="10.00">JS_GetProperty</text>
</a>
</g>
</g>
<!-- Node44&#45;&gt;Node45 -->
<g id="edge8" class="edge">
<title>Node44&#45;&gt;Node45</title>
<path fill="none" stroke="midnightblue" d="M397.11,-38.41C417.21,-33.42 441.98,-27.27 463.32,-21.97"/>
<polygon fill="midnightblue" stroke="midnightblue" points="464.31,-25.33 473.17,-19.52 462.62,-18.53 464.31,-25.33"/>
</g>
<!-- Node44&#45;&gt;Node54 -->
<g id="edge9" class="edge">
<title>Node44&#45;&gt;Node54</title>
<path fill="none" stroke="midnightblue" d="M397.11,-57.59C417.21,-62.58 441.98,-68.73 463.32,-74.03"/>
<polygon fill="midnightblue" stroke="midnightblue" points="462.62,-77.47 473.17,-76.48 464.31,-70.67 462.62,-77.47"/>
</g>
<!-- Node426 -->
<g id="node11" class="node">
<title>Node426</title>
<g id="a_node11"><a xlink:href="quickjs_8c.html#abb4af1ff2252e70ad0e5a9c25550f548" target="_top" xlink:title=" ">
<polygon fill="none" stroke="red" points="465,-38.5 465,-57.5 560,-57.5 560,-38.5 465,-38.5"/>
<text text-anchor="middle" x="512.5" y="-45.5" font-family="Helvetica,sans-Serif" font-size="10.00">JS_ToUint32Free</text>
</a>
</g>
</g>
<!-- Node44&#45;&gt;Node426 -->
<g id="edge10" class="edge">
<title>Node44&#45;&gt;Node426</title>
<path fill="none" stroke="midnightblue" d="M404.82,-48C420.55,-48 438.31,-48 454.76,-48"/>
<polygon fill="midnightblue" stroke="midnightblue" points="454.81,-51.5 464.81,-48 454.81,-44.5 454.81,-51.5"/>
</g>
<!-- Node289 -->
<g id="node16" class="node">
<title>Node289</title>
<g id="a_node16"><a xlink:href="quickjs_8c.html#ad35594576a14c10812efaf958c99af8a" target="_top" xlink:title=" ">
<polygon fill="none" stroke="red" points="286,-190.5 286,-209.5 429,-209.5 429,-190.5 286,-190.5"/>
<text text-anchor="middle" x="357.5" y="-197.5" font-family="Helvetica,sans-Serif" font-size="10.00">JS_CallConstructorInternal</text>
</a>
</g>
</g>
<!-- Node435&#45;&gt;Node289 -->
<g id="edge17" class="edge">
<title>Node435&#45;&gt;Node289</title>
<path fill="none" stroke="midnightblue" d="M250.13,-184.19C260.55,-185.74 271.61,-187.38 282.51,-189"/>
<polygon fill="midnightblue" stroke="midnightblue" points="282.04,-192.47 292.44,-190.48 283.06,-185.55 282.04,-192.47"/>
</g>
<!-- Node289&#45;&gt;Node7 -->
<g id="edge18" class="edge">
<title>Node289&#45;&gt;Node7</title>
<path fill="none" stroke="midnightblue" d="M429.18,-200C440.45,-200 451.9,-200 462.52,-200"/>
<polygon fill="midnightblue" stroke="midnightblue" points="462.84,-203.5 472.84,-200 462.84,-196.5 462.84,-203.5"/>
</g>
<!-- Node289&#45;&gt;Node54 -->
<g id="edge19" class="edge">
<title>Node289&#45;&gt;Node54</title>
<path fill="none" stroke="midnightblue" d="M408.6,-190.49C415.74,-188.01 422.77,-184.9 429,-181 460.45,-161.31 486.48,-125.92 500.45,-104.34"/>
<polygon fill="midnightblue" stroke="midnightblue" points="503.48,-106.09 505.83,-95.76 497.55,-102.37 503.48,-106.09"/>
</g>
</g>
</svg>
        <g id="navigator" transform="translate(0 0)" fill="#404254">
                <rect fill="#f2f5e9" fill-opacity="0.5" stroke="#606060" stroke-width=".5" x="0" y="0" width="60" height="60"/>
                <use id="zoomplus" xlink:href="#zoomPlus" x="17" y="9" onmousedown="handleZoom(evt,'in')"/>
                <use id="zoomminus" xlink:href="#zoomMin" x="42" y="9" onmousedown="handleZoom(evt,'out')"/>
                <use id="reset" xlink:href="#resetDef" x="30" y="36" onmousedown="handleReset()"/>
                <g id="arrowUp" xlink:href="#dirArrow" transform="translate(30 24)" onmousedown="handlePan(0,-1)">
                  <use xlink:href="#rim" fill="#404040">
                        <set attributeName="fill" to="#808080" begin="arrowUp.mouseover" end="arrowUp.mouseout"/>
                  </use>
                  <path fill="none" stroke="white" stroke-width="1.5" d="M0,-3.0v7 M-2.5,-0.5L0,-3.0L2.5,-0.5"/>
                </g>
                <g id="arrowRight" xlink:href="#dirArrow" transform="rotate(90) translate(36 -43)" onmousedown="handlePan(1,0)">
                  <use xlink:href="#rim" fill="#404040">
                        <set attributeName="fill" to="#808080" begin="arrowRight.mouseover" end="arrowRight.mouseout"/>
                  </use>
                  <path fill="none" stroke="white" stroke-width="1.5" d="M0,-3.0v7 M-2.5,-0.5L0,-3.0L2.5,-0.5"/>
                </g>
                <g id="arrowDown" xlink:href="#dirArrow" transform="rotate(180) translate(-30 -48)" onmousedown="handlePan(0,1)">
                  <use xlink:href="#rim" fill="#404040">
                        <set attributeName="fill" to="#808080" begin="arrowDown.mouseover" end="arrowDown.mouseout"/>
                  </use>
                  <path fill="none" stroke="white" stroke-width="1.5" d="M0,-3.0v7 M-2.5,-0.5L0,-3.0L2.5,-0.5"/>
                </g>
                <g id="arrowLeft" xlink:href="#dirArrow" transform="rotate(270) translate(-36 17)" onmousedown="handlePan(-1,0)">
                  <use xlink:href="#rim" fill="#404040">
                        <set attributeName="fill" to="#808080" begin="arrowLeft.mouseover" end="arrowLeft.mouseout"/>
                  </use>
                  <path fill="none" stroke="white" stroke-width="1.5" d="M0,-3.0v7 M-2.5,-0.5L0,-3.0L2.5,-0.5"/>
                </g>
        </g>
        <svg viewBox="0 0 15 15" width="100%" height="30px" preserveAspectRatio="xMaxYMin meet">
         <g id="arrow_out" transform="scale(0.3 0.3)">
          <a xlink:href="quickjs_8c_a8d4b24969540aff427939eeda47f451d_cgraph_org.svg" target="_base">
           <rect id="button" ry="5" rx="5" y="6" x="6" height="38" width="38"
                fill="#f2f5e9" fill-opacity="0.5" stroke="#606060" stroke-width="1.0"/>
           <path id="arrow"
             d="M 11.500037,31.436501 C 11.940474,20.09759 22.043105,11.32322 32.158766,21.979434 L 37.068811,17.246167 C 37.068811,17.246167 37.088388,32 37.088388,32 L 22.160133,31.978069 C 22.160133,31.978069 26.997745,27.140456 26.997745,27.140456 C 18.528582,18.264221 13.291696,25.230495 11.500037,31.436501 z"
             style="fill:#404040;"/>
          </a>
         </g>
        </svg>
</svg>
