<?xml version="1.0" encoding="UTF-8" standalone="no"?>
<!DOCTYPE svg PUBLIC "-//W3C//DTD SVG 1.1//EN"
 "http://www.w3.org/Graphics/SVG/1.1/DTD/svg11.dtd">
<!-- Generated by graphviz version 2.43.0 (0)
 -->
<!-- Title: build_for_in_iterator Pages: 1 -->
<svg width="1580pt" height="1505pt"
 viewBox="0.00 0.00 1580.00 1504.60" xmlns="http://www.w3.org/2000/svg" xmlns:xlink="http://www.w3.org/1999/xlink">
<g id="graph0" class="graph" transform="scale(1 1) rotate(0) translate(4 1500.6)">
<title>build_for_in_iterator</title>
<!-- Node1 -->
<g id="node1" class="node">
<title>Node1</title>
<g id="a_node1"><a xlink:title=" ">
<polygon fill="#bfbfbf" stroke="black" points="0,-251.62 0,-270.62 115,-270.62 115,-251.62 0,-251.62"/>
<text text-anchor="middle" x="57.5" y="-258.62" font-family="Helvetica,sans-Serif" font-size="10.00">build_for_in_iterator</text>
</a>
</g>
</g>
<!-- Node2 -->
<g id="node2" class="node">
<title>Node2</title>
<g id="a_node2"><a xlink:href="quickjs_8c.html#a643df594b75933007bcdbb071b5ea8c5" target="_top" xlink:title=" ">
<polygon fill="none" stroke="black" points="1348.5,-422.62 1348.5,-441.62 1442.5,-441.62 1442.5,-422.62 1348.5,-422.62"/>
<text text-anchor="middle" x="1395.5" y="-429.62" font-family="Helvetica,sans-Serif" font-size="10.00">get_shape_prop</text>
</a>
</g>
</g>
<!-- Node1&#45;&gt;Node2 -->
<g id="edge1" class="edge">
<title>Node1&#45;&gt;Node2</title>
<path fill="none" stroke="midnightblue" d="M115.06,-255.75C179.23,-250.14 287.04,-242.12 380,-242.12 380,-242.12 380,-242.12 1017.5,-242.12 1170.94,-242.12 1325.54,-369.18 1376.79,-415.49"/>
<polygon fill="midnightblue" stroke="midnightblue" points="1374.63,-418.26 1384.37,-422.44 1379.36,-413.1 1374.63,-418.26"/>
</g>
<!-- Node3 -->
<g id="node3" class="node">
<title>Node3</title>
<g id="a_node3"><a xlink:href="quickjs_8c.html#a0a8765bd4012467d9139bc24aabcb3ca" target="_top" xlink:title=" ">
<polygon fill="none" stroke="black" points="475,-1410.62 475,-1429.62 606,-1429.62 606,-1410.62 475,-1410.62"/>
<text text-anchor="middle" x="540.5" y="-1417.62" font-family="Helvetica,sans-Serif" font-size="10.00">JS_DefinePropertyValue</text>
</a>
</g>
</g>
<!-- Node1&#45;&gt;Node3 -->
<g id="edge2" class="edge">
<title>Node1&#45;&gt;Node3</title>
<path fill="none" stroke="midnightblue" d="M58.58,-270.93C59.51,-375.88 69.94,-1288.97 151,-1373.12 239.23,-1464.72 406.15,-1447.49 489.51,-1431.61"/>
<polygon fill="midnightblue" stroke="midnightblue" points="490.36,-1435.01 499.49,-1429.64 489,-1428.15 490.36,-1435.01"/>
</g>
<!-- Node52 -->
<g id="node10" class="node">
<title>Node52</title>
<g id="a_node10"><a xlink:href="quickjs_8c.html#a80e54dcf9ac687d4ccc2f90273565f30" target="_top" xlink:title=" ">
<polygon fill="none" stroke="red" points="1507.5,-175.62 1507.5,-194.62 1557.5,-194.62 1557.5,-175.62 1507.5,-175.62"/>
<text text-anchor="middle" x="1532.5" y="-182.62" font-family="Helvetica,sans-Serif" font-size="10.00">js_free</text>
</a>
</g>
</g>
<!-- Node1&#45;&gt;Node52 -->
<g id="edge57" class="edge">
<title>Node1&#45;&gt;Node52</title>
<path fill="none" stroke="midnightblue" d="M59.05,-251.19C61.65,-214.84 75.98,-88.29 151,-33.12 233.28,27.38 277.87,-14.12 380,-14.12 380,-14.12 380,-14.12 1207.5,-14.12 1338.9,-14.12 1469.23,-125.49 1514.64,-168.48"/>
<polygon fill="midnightblue" stroke="midnightblue" points="1512.25,-171.03 1521.88,-175.44 1517.1,-165.99 1512.25,-171.03"/>
</g>
<!-- Node67 -->
<g id="node13" class="node">
<title>Node67</title>
<g id="a_node13"><a xlink:href="quickjs_8h.html#ad80a83d73e9b7d872b88fbf2943aebe9" target="_top" xlink:title=" ">
<polygon fill="none" stroke="black" points="1352,-479.62 1352,-498.62 1439,-498.62 1439,-479.62 1352,-479.62"/>
<text text-anchor="middle" x="1395.5" y="-486.62" font-family="Helvetica,sans-Serif" font-size="10.00">JS_IsException</text>
</a>
</g>
</g>
<!-- Node1&#45;&gt;Node67 -->
<g id="edge67" class="edge">
<title>Node1&#45;&gt;Node67</title>
<path fill="none" stroke="midnightblue" d="M115.06,-266.49C179.23,-272.11 287.04,-280.12 380,-280.12 380,-280.12 380,-280.12 695,-280.12 830.98,-280.12 1187.67,-304.64 1298,-384.12 1325.43,-403.88 1310.92,-426.42 1334,-451.12 1342.71,-460.45 1354.19,-468.41 1364.81,-474.61"/>
<polygon fill="midnightblue" stroke="midnightblue" points="1363.38,-477.81 1373.82,-479.58 1366.76,-471.69 1363.38,-477.81"/>
</g>
<!-- Node30 -->
<g id="node15" class="node">
<title>Node30</title>
<g id="a_node15"><a xlink:href="quickjs_8h.html#a775522f2d084fc8fa0fcb33f390006b4" target="_top" xlink:title=" ">
<polygon fill="none" stroke="black" points="1357,-1258.62 1357,-1277.62 1434,-1277.62 1434,-1258.62 1357,-1258.62"/>
<text text-anchor="middle" x="1395.5" y="-1265.62" font-family="Helvetica,sans-Serif" font-size="10.00">JS_DupValue</text>
</a>
</g>
</g>
<!-- Node1&#45;&gt;Node30 -->
<g id="edge56" class="edge">
<title>Node1&#45;&gt;Node30</title>
<path fill="none" stroke="midnightblue" d="M62.52,-270.77C97.77,-354.22 363.21,-957.16 782,-1229.12 961.81,-1345.9 1237.37,-1303.19 1347.06,-1279.57"/>
<polygon fill="midnightblue" stroke="midnightblue" points="1347.83,-1282.99 1356.84,-1277.42 1346.33,-1276.15 1347.83,-1282.99"/>
</g>
<!-- Node31 -->
<g id="node17" class="node">
<title>Node31</title>
<g id="a_node17"><a xlink:href="quickjs_8h.html#afaa20c47565bc704c6c85f3d77254e7d" target="_top" xlink:title=" ">
<polygon fill="none" stroke="red" points="1493,-1068.62 1493,-1087.62 1572,-1087.62 1572,-1068.62 1493,-1068.62"/>
<text text-anchor="middle" x="1532.5" y="-1075.62" font-family="Helvetica,sans-Serif" font-size="10.00">JS_FreeValue</text>
</a>
</g>
</g>
<!-- Node1&#45;&gt;Node31 -->
<g id="edge60" class="edge">
<title>Node1&#45;&gt;Node31</title>
<path fill="none" stroke="midnightblue" d="M58.64,-270.92C60.19,-377.72 76.05,-1323.16 151,-1419.12 217.09,-1503.75 272.62,-1496.12 380,-1496.12 380,-1496.12 380,-1496.12 1207.5,-1496.12 1252.43,-1496.12 1446.4,-1433.74 1457,-1422.12 1501.3,-1373.58 1523.75,-1163.78 1529.79,-1097.95"/>
<polygon fill="midnightblue" stroke="midnightblue" points="1533.3,-1097.99 1530.71,-1087.72 1526.33,-1097.37 1533.3,-1097.99"/>
</g>
<!-- Node289 -->
<g id="node21" class="node">
<title>Node289</title>
<g id="a_node21"><a xlink:href="quickjs_8c.html#ad7f03358a8088ca920ab308225c6b2e6" target="_top" xlink:title=" ">
<polygon fill="none" stroke="red" points="954,-726.62 954,-745.62 1079,-745.62 1079,-726.62 954,-726.62"/>
<text text-anchor="middle" x="1016.5" y="-733.62" font-family="Helvetica,sans-Serif" font-size="10.00">JS_SetPropertyInternal</text>
</a>
</g>
</g>
<!-- Node1&#45;&gt;Node289 -->
<g id="edge71" class="edge">
<title>Node1&#45;&gt;Node289</title>
<path fill="none" stroke="midnightblue" d="M69.74,-270.66C86.47,-284.42 119.33,-309.87 151,-325.12 246.76,-371.26 273.7,-394.12 380,-394.12 380,-394.12 380,-394.12 695,-394.12 873.4,-394.12 981.3,-644.97 1008.61,-717"/>
<polygon fill="midnightblue" stroke="midnightblue" points="1005.42,-718.46 1012.18,-726.62 1011.98,-716.03 1005.42,-718.46"/>
</g>
<!-- Node281 -->
<g id="node23" class="node">
<title>Node281</title>
<g id="a_node23"><a xlink:href="quickjs_8c.html#a6b42cd922447e1eb6bfc52761895a174" target="_top" xlink:title=" ">
<polygon fill="none" stroke="red" points="1340.5,-156.62 1340.5,-175.62 1450.5,-175.62 1450.5,-156.62 1340.5,-156.62"/>
<text text-anchor="middle" x="1395.5" y="-163.62" font-family="Helvetica,sans-Serif" font-size="10.00">js_free_prop_enum</text>
</a>
</g>
</g>
<!-- Node1&#45;&gt;Node281 -->
<g id="edge58" class="edge">
<title>Node1&#45;&gt;Node281</title>
<path fill="none" stroke="midnightblue" d="M69.92,-251.6C86.59,-238.23 119.11,-214.19 151,-202.12 247.36,-165.65 276.97,-166.12 380,-166.12 380,-166.12 380,-166.12 1017.5,-166.12 1127.36,-166.12 1255.24,-166.12 1330.27,-166.12"/>
<polygon fill="midnightblue" stroke="midnightblue" points="1330.5,-169.62 1340.5,-166.12 1330.5,-162.62 1330.5,-169.62"/>
</g>
<!-- Node282 -->
<g id="node24" class="node">
<title>Node282</title>
<g id="a_node24"><a xlink:href="quickjs_8c.html#a176ac5ff56a118a0b1b2566798d28823" target="_top" xlink:title=" ">
<polygon fill="none" stroke="red" points="1115,-194.62 1115,-213.62 1298,-213.62 1298,-194.62 1115,-194.62"/>
<text text-anchor="middle" x="1206.5" y="-201.62" font-family="Helvetica,sans-Serif" font-size="10.00">JS_GetOwnPropertyNamesInternal</text>
</a>
</g>
</g>
<!-- Node1&#45;&gt;Node282 -->
<g id="edge61" class="edge">
<title>Node1&#45;&gt;Node282</title>
<path fill="none" stroke="midnightblue" d="M80.49,-251.6C98.96,-244.01 126.23,-233.76 151,-228.12 250.79,-205.44 277.66,-204.12 380,-204.12 380,-204.12 380,-204.12 851,-204.12 936.5,-204.12 1033.59,-204.12 1104.52,-204.12"/>
<polygon fill="midnightblue" stroke="midnightblue" points="1104.79,-207.62 1114.79,-204.12 1104.79,-200.62 1104.79,-207.62"/>
</g>
<!-- Node411 -->
<g id="node25" class="node">
<title>Node411</title>
<g id="a_node25"><a xlink:href="quickjs_8c.html#a7f82fd53b039b4e12f1addfa15d750ae" target="_top" xlink:title=" ">
<polygon fill="none" stroke="red" points="323,-337.62 323,-356.62 439,-356.62 439,-337.62 323,-337.62"/>
<text text-anchor="middle" x="381" y="-344.62" font-family="Helvetica,sans-Serif" font-size="10.00">JS_GetPrototypeFree</text>
</a>
</g>
</g>
<!-- Node1&#45;&gt;Node411 -->
<g id="edge65" class="edge">
<title>Node1&#45;&gt;Node411</title>
<path fill="none" stroke="midnightblue" d="M82.98,-270.73C101.48,-277.77 127.6,-287.27 151,-294.12 208.28,-310.91 274.86,-325.81 321.42,-335.51"/>
<polygon fill="midnightblue" stroke="midnightblue" points="320.83,-338.96 331.33,-337.56 322.25,-332.11 320.83,-338.96"/>
</g>
<!-- Node246 -->
<g id="node26" class="node">
<title>Node246</title>
<g id="a_node26"><a xlink:href="quickjs_8h.html#a149f24b67e745bad93573b3b4c80db4c" target="_top" xlink:title=" ">
<polygon fill="none" stroke="black" points="189.5,-118.62 189.5,-137.62 248.5,-137.62 248.5,-118.62 189.5,-118.62"/>
<text text-anchor="middle" x="219" y="-125.62" font-family="Helvetica,sans-Serif" font-size="10.00">JS_IsNull</text>
</a>
</g>
</g>
<!-- Node1&#45;&gt;Node246 -->
<g id="edge68" class="edge">
<title>Node1&#45;&gt;Node246</title>
<path fill="none" stroke="midnightblue" d="M64.18,-251.5C77.02,-230.51 110.39,-180.24 151,-152.12 159.61,-146.16 169.86,-141.52 179.73,-137.97"/>
<polygon fill="midnightblue" stroke="midnightblue" points="180.99,-141.24 189.38,-134.78 178.79,-134.59 180.99,-141.24"/>
</g>
<!-- Node227 -->
<g id="node27" class="node">
<title>Node227</title>
<g id="a_node27"><a xlink:href="quickjs_8c.html#a73738c650f11459db0d7af3dcdf8316b" target="_top" xlink:title=" ">
<polygon fill="none" stroke="red" points="151,-80.62 151,-99.62 287,-99.62 287,-80.62 151,-80.62"/>
<text text-anchor="middle" x="219" y="-87.62" font-family="Helvetica,sans-Serif" font-size="10.00">JS_NewObjectProtoClass</text>
</a>
</g>
</g>
<!-- Node1&#45;&gt;Node227 -->
<g id="edge69" class="edge">
<title>Node1&#45;&gt;Node227</title>
<path fill="none" stroke="midnightblue" d="M61.51,-251.59C70.48,-224.78 99.61,-148.21 151,-109.12 153.47,-107.24 156.12,-105.55 158.89,-104.02"/>
<polygon fill="midnightblue" stroke="midnightblue" points="160.5,-107.13 168.05,-99.7 157.51,-100.8 160.5,-107.13"/>
</g>
<!-- Node261 -->
<g id="node28" class="node">
<title>Node261</title>
<g id="a_node28"><a xlink:href="quickjs_8c.html#a246e337d6566552736209730827c0871" target="_top" xlink:title=" ">
<polygon fill="none" stroke="red" points="168.5,-42.62 168.5,-61.62 269.5,-61.62 269.5,-42.62 168.5,-42.62"/>
<text text-anchor="middle" x="219" y="-49.62" font-family="Helvetica,sans-Serif" font-size="10.00">js_poll_interrupts</text>
</a>
</g>
</g>
<!-- Node1&#45;&gt;Node261 -->
<g id="edge70" class="edge">
<title>Node1&#45;&gt;Node261</title>
<path fill="none" stroke="midnightblue" d="M60.29,-251.53C66.61,-220.43 90.8,-121.52 151,-71.12 153.55,-68.99 156.32,-67.09 159.25,-65.41"/>
<polygon fill="midnightblue" stroke="midnightblue" points="160.91,-68.49 168.38,-60.97 157.85,-62.2 160.91,-68.49"/>
</g>
<!-- Node435 -->
<g id="node29" class="node">
<title>Node435</title>
<g id="a_node29"><a xlink:href="quickjs_8c.html#a52eca58bf20fca588e38da7f83f3fca9" target="_top" xlink:title=" ">
<polygon fill="none" stroke="black" points="172,-1344.62 172,-1363.62 266,-1363.62 266,-1344.62 172,-1344.62"/>
<text text-anchor="middle" x="219" y="-1351.62" font-family="Helvetica,sans-Serif" font-size="10.00">JS_ToObjectFree</text>
</a>
</g>
</g>
<!-- Node1&#45;&gt;Node435 -->
<g id="edge72" class="edge">
<title>Node1&#45;&gt;Node435</title>
<path fill="none" stroke="midnightblue" d="M58.89,-270.73C63.02,-369.9 99.16,-1205.12 151,-1301.12 159.67,-1317.18 175.49,-1330.05 189.57,-1339.08"/>
<polygon fill="midnightblue" stroke="midnightblue" points="188.12,-1342.29 198.49,-1344.46 191.73,-1336.29 188.12,-1342.29"/>
</g>
<!-- Node4 -->
<g id="node4" class="node">
<title>Node4</title>
<g id="a_node4"><a xlink:href="quickjs_8c.html#ab50618f1bf78e444caa6da0e3e2785d7" target="_top" xlink:title=" ">
<polygon fill="none" stroke="red" points="642,-764.62 642,-783.62 746,-783.62 746,-764.62 642,-764.62"/>
<text text-anchor="middle" x="694" y="-771.62" font-family="Helvetica,sans-Serif" font-size="10.00">JS_DefineProperty</text>
</a>
</g>
</g>
<!-- Node3&#45;&gt;Node4 -->
<g id="edge3" class="edge">
<title>Node3&#45;&gt;Node4</title>
<path fill="none" stroke="midnightblue" d="M543.76,-1410.49C560.49,-1339.16 665.11,-893.04 688.41,-793.71"/>
<polygon fill="midnightblue" stroke="midnightblue" points="691.85,-794.35 690.73,-783.81 685.04,-792.75 691.85,-794.35"/>
</g>
<!-- Node3&#45;&gt;Node31 -->
<g id="edge55" class="edge">
<title>Node3&#45;&gt;Node31</title>
<path fill="none" stroke="midnightblue" d="M606.29,-1420.12C668.52,-1420.12 765.18,-1420.12 849,-1420.12 849,-1420.12 849,-1420.12 1207.5,-1420.12 1324.65,-1420.12 1376.1,-1419.85 1457,-1335.12 1522.05,-1266.99 1530.79,-1145.54 1531.61,-1097.99"/>
<polygon fill="midnightblue" stroke="midnightblue" points="1535.12,-1097.83 1531.68,-1087.81 1528.12,-1097.78 1535.12,-1097.83"/>
</g>
<!-- Node4&#45;&gt;Node2 -->
<g id="edge12" class="edge">
<title>Node4&#45;&gt;Node2</title>
<path fill="none" stroke="midnightblue" d="M696.16,-764.31C702.18,-715.01 731.61,-495.02 782,-453.12 952.62,-311.25 1251.75,-386.6 1356.77,-419.4"/>
<polygon fill="midnightblue" stroke="midnightblue" points="1356.01,-422.83 1366.6,-422.53 1358.13,-416.16 1356.01,-422.83"/>
</g>
<!-- Node5 -->
<g id="node5" class="node">
<title>Node5</title>
<g id="a_node5"><a xlink:href="quickjs_8c.html#a014abd680db53ab89cb133345742a59c" target="_top" xlink:title=" ">
<polygon fill="none" stroke="red" points="1355.5,-726.62 1355.5,-745.62 1435.5,-745.62 1435.5,-726.62 1355.5,-726.62"/>
<text text-anchor="middle" x="1395.5" y="-733.62" font-family="Helvetica,sans-Serif" font-size="10.00">__attribute__</text>
</a>
</g>
</g>
<!-- Node4&#45;&gt;Node5 -->
<g id="edge4" class="edge">
<title>Node4&#45;&gt;Node5</title>
<path fill="none" stroke="midnightblue" d="M713.83,-764.58C731.12,-756.25 757.65,-744.52 782,-738.12 985.3,-684.71 1239.82,-712.59 1345.25,-728.07"/>
<polygon fill="midnightblue" stroke="midnightblue" points="1344.88,-731.55 1355.28,-729.57 1345.91,-724.63 1344.88,-731.55"/>
</g>
<!-- Node72 -->
<g id="node6" class="node">
<title>Node72</title>
<g id="a_node6"><a xlink:href="quickjs_8c.html#a288254c06a39c9fca740a7abdad2834e" target="_top" xlink:title=" ">
<polygon fill="none" stroke="black" points="1334,-916.62 1334,-935.62 1457,-935.62 1457,-916.62 1334,-916.62"/>
<text text-anchor="middle" x="1395.5" y="-923.62" font-family="Helvetica,sans-Serif" font-size="10.00">__JS_AtomIsTaggedInt</text>
</a>
</g>
</g>
<!-- Node4&#45;&gt;Node72 -->
<g id="edge5" class="edge">
<title>Node4&#45;&gt;Node72</title>
<path fill="none" stroke="midnightblue" d="M695.78,-783.84C700.31,-838.04 725.17,-1102.62 782,-1156.12 823.98,-1195.65 1251.15,-1244.73 1298,-1211.12 1386.19,-1147.87 1394.8,-999.58 1394.91,-945.93"/>
<polygon fill="midnightblue" stroke="midnightblue" points="1398.4,-945.7 1394.82,-935.72 1391.41,-945.75 1398.4,-945.7"/>
</g>
<!-- Node73 -->
<g id="node7" class="node">
<title>Node73</title>
<g id="a_node7"><a xlink:href="quickjs_8c.html#a89f38938cee8077ce1fbba07946ed185" target="_top" xlink:title=" ">
<polygon fill="none" stroke="black" points="1340.5,-878.62 1340.5,-897.62 1450.5,-897.62 1450.5,-878.62 1340.5,-878.62"/>
<text text-anchor="middle" x="1395.5" y="-885.62" font-family="Helvetica,sans-Serif" font-size="10.00">__JS_AtomToUInt32</text>
</a>
</g>
</g>
<!-- Node4&#45;&gt;Node73 -->
<g id="edge6" class="edge">
<title>Node4&#45;&gt;Node73</title>
<path fill="none" stroke="midnightblue" d="M698.03,-783.7C706.96,-810.72 735.57,-888.76 782,-937.12 894.42,-1054.21 954.45,-1063.23 1115,-1087.12 1195.45,-1099.09 1235.1,-1138.69 1298,-1087.12 1361.09,-1035.4 1279.48,-967.81 1334,-907.12 1335.19,-905.8 1336.47,-904.57 1337.82,-903.42"/>
<polygon fill="midnightblue" stroke="midnightblue" points="1339.93,-906.22 1346.28,-897.74 1336.03,-900.41 1339.93,-906.22"/>
</g>
<!-- Node428 -->
<g id="node8" class="node">
<title>Node428</title>
<g id="a_node8"><a xlink:href="quickjs_8c.html#a68c7ae36cec3bf8bbf6cc0868a71cc4b" target="_top" xlink:title=" ">
<polygon fill="none" stroke="black" points="782,-612.62 782,-631.62 918,-631.62 918,-612.62 782,-612.62"/>
<text text-anchor="middle" x="850" y="-619.62" font-family="Helvetica,sans-Serif" font-size="10.00">check_define_prop_flags</text>
</a>
</g>
</g>
<!-- Node4&#45;&gt;Node428 -->
<g id="edge7" class="edge">
<title>Node4&#45;&gt;Node428</title>
<path fill="none" stroke="midnightblue" d="M698.95,-764.58C709.15,-741.04 738.66,-679.68 782,-646.12 787.38,-641.96 793.55,-638.47 799.92,-635.57"/>
<polygon fill="midnightblue" stroke="midnightblue" points="801.39,-638.74 809.32,-631.72 798.74,-632.27 801.39,-638.74"/>
</g>
<!-- Node295 -->
<g id="node9" class="node">
<title>Node295</title>
<g id="a_node9"><a xlink:href="quickjs_8c.html#ac93c982cb636a5430b191d104083af3e" target="_top" xlink:title=" ">
<polygon fill="none" stroke="red" points="1341.5,-518.12 1341.5,-548.12 1449.5,-548.12 1449.5,-518.12 1341.5,-518.12"/>
<text text-anchor="start" x="1349.5" y="-536.12" font-family="Helvetica,sans-Serif" font-size="10.00">convert_fast_array</text>
<text text-anchor="middle" x="1395.5" y="-525.12" font-family="Helvetica,sans-Serif" font-size="10.00">_to_array</text>
</a>
</g>
</g>
<!-- Node4&#45;&gt;Node295 -->
<g id="edge8" class="edge">
<title>Node4&#45;&gt;Node295</title>
<path fill="none" stroke="midnightblue" d="M694.5,-764.46C692.94,-723.27 692.81,-561.05 782,-487.12 826.25,-450.45 1247.67,-423.38 1298,-451.12 1324.24,-465.59 1311.08,-488.83 1334,-508.12 1335.98,-509.79 1338.08,-511.35 1340.27,-512.83"/>
<polygon fill="midnightblue" stroke="midnightblue" points="1338.7,-515.96 1349.09,-518.05 1342.27,-509.94 1338.7,-515.96"/>
</g>
<!-- Node22 -->
<g id="node11" class="node">
<title>Node22</title>
<g id="a_node11"><a xlink:href="quickjs_8c.html#a06b76f5124fd985e35f4c652fd018d6d" target="_top" xlink:title=" ">
<polygon fill="none" stroke="red" points="1153,-460.62 1153,-479.62 1260,-479.62 1260,-460.62 1153,-460.62"/>
<text text-anchor="middle" x="1206.5" y="-467.62" font-family="Helvetica,sans-Serif" font-size="10.00">find_own_property</text>
</a>
</g>
</g>
<!-- Node4&#45;&gt;Node22 -->
<g id="edge10" class="edge">
<title>Node4&#45;&gt;Node22</title>
<path fill="none" stroke="midnightblue" d="M695.18,-764.55C696.41,-727.73 706.14,-594.16 782,-532.12 836,-487.96 1038.58,-475.23 1142.76,-471.58"/>
<polygon fill="midnightblue" stroke="midnightblue" points="1142.95,-475.07 1152.83,-471.24 1142.72,-468.08 1142.95,-475.07"/>
</g>
<!-- Node147 -->
<g id="node12" class="node">
<title>Node147</title>
<g id="a_node12"><a xlink:href="quickjs_8c.html#a8aac7988cf0c6f3c2b629a6662fd7ec8" target="_top" xlink:title=" ">
<polygon fill="none" stroke="red" points="1151.5,-536.62 1151.5,-555.62 1261.5,-555.62 1261.5,-536.62 1151.5,-536.62"/>
<text text-anchor="middle" x="1206.5" y="-543.62" font-family="Helvetica,sans-Serif" font-size="10.00">JS_AutoInitProperty</text>
</a>
</g>
</g>
<!-- Node4&#45;&gt;Node147 -->
<g id="edge13" class="edge">
<title>Node4&#45;&gt;Node147</title>
<path fill="none" stroke="midnightblue" d="M696.72,-764.33C702.54,-734.44 724.4,-643.98 782,-603.12 796.48,-592.85 1026.21,-566.06 1141.1,-553.2"/>
<polygon fill="midnightblue" stroke="midnightblue" points="1141.63,-556.67 1151.18,-552.08 1140.86,-549.71 1141.63,-556.67"/>
</g>
<!-- Node4&#45;&gt;Node67 -->
<g id="edge26" class="edge">
<title>Node4&#45;&gt;Node67</title>
<path fill="none" stroke="midnightblue" d="M696.06,-764.34C700.17,-731.7 718.1,-625.9 782,-577.12 869.51,-510.33 1209.47,-494.08 1341.58,-490.26"/>
<polygon fill="midnightblue" stroke="midnightblue" points="1341.95,-493.75 1351.85,-489.97 1341.76,-486.75 1341.95,-493.75"/>
</g>
<!-- Node294 -->
<g id="node14" class="node">
<title>Node294</title>
<g id="a_node14"><a xlink:href="quickjs_8c.html#ad5565bb5cfd5321f181573257f3b0c91" target="_top" xlink:title=" ">
<polygon fill="none" stroke="red" points="1154.5,-840.62 1154.5,-859.62 1258.5,-859.62 1258.5,-840.62 1154.5,-840.62"/>
<text text-anchor="middle" x="1206.5" y="-847.62" font-family="Helvetica,sans-Serif" font-size="10.00">JS_CreateProperty</text>
</a>
</g>
</g>
<!-- Node4&#45;&gt;Node294 -->
<g id="edge15" class="edge">
<title>Node4&#45;&gt;Node294</title>
<path fill="none" stroke="midnightblue" d="M735.58,-783.7C750.17,-786.95 766.77,-790.44 782,-793.12 910.35,-815.74 1061.97,-834.16 1144.49,-843.49"/>
<polygon fill="midnightblue" stroke="midnightblue" points="1144.12,-846.97 1154.45,-844.61 1144.9,-840.01 1144.12,-846.97"/>
</g>
<!-- Node4&#45;&gt;Node30 -->
<g id="edge24" class="edge">
<title>Node4&#45;&gt;Node30</title>
<path fill="none" stroke="midnightblue" d="M695.61,-783.89C699.38,-840.87 721.33,-1129.82 782,-1189.12 861.78,-1267.11 1216.64,-1270.51 1346.6,-1269.05"/>
<polygon fill="midnightblue" stroke="midnightblue" points="1346.7,-1272.55 1356.65,-1268.92 1346.61,-1265.55 1346.7,-1272.55"/>
</g>
<!-- Node303 -->
<g id="node16" class="node">
<title>Node303</title>
<g id="a_node16"><a xlink:href="quickjs_8c.html#a0ec52a675282f321a6f42aa1298a53fe" target="_top" xlink:title=" ">
<polygon fill="none" stroke="black" points="1363.5,-840.62 1363.5,-859.62 1427.5,-859.62 1427.5,-840.62 1363.5,-840.62"/>
<text text-anchor="middle" x="1395.5" y="-847.62" font-family="Helvetica,sans-Serif" font-size="10.00">set_value</text>
</a>
</g>
</g>
<!-- Node4&#45;&gt;Node303 -->
<g id="edge54" class="edge">
<title>Node4&#45;&gt;Node303</title>
<path fill="none" stroke="midnightblue" d="M702.03,-783.89C715.8,-802.53 747.96,-843.78 782,-871.12 914.49,-977.57 950.62,-1015.93 1115,-1059.12 1193.66,-1079.79 1235.36,-1111.01 1298,-1059.12 1364.19,-1004.3 1276.88,-933.35 1334,-869.12 1339.13,-863.35 1345.99,-859.32 1353.25,-856.5"/>
<polygon fill="midnightblue" stroke="midnightblue" points="1354.76,-859.7 1363.26,-853.37 1352.67,-853.02 1354.76,-859.7"/>
</g>
<!-- Node4&#45;&gt;Node31 -->
<g id="edge25" class="edge">
<title>Node4&#45;&gt;Node31</title>
<path fill="none" stroke="midnightblue" d="M695.46,-783.99C698.47,-844.23 717.3,-1162.19 782,-1229.12 991.26,-1445.63 1210.92,-1460.65 1457,-1287.12 1519.71,-1242.9 1529.94,-1140.96 1531.39,-1097.89"/>
<polygon fill="midnightblue" stroke="midnightblue" points="1534.89,-1097.91 1531.6,-1087.84 1527.89,-1097.77 1534.89,-1097.91"/>
</g>
<!-- Node146 -->
<g id="node18" class="node">
<title>Node146</title>
<g id="a_node18"><a xlink:href="quickjs_8h.html#a4e407128a9605afb77523e49e9a627fd" target="_top" xlink:title=" ">
<polygon fill="none" stroke="black" points="1162,-1030.62 1162,-1049.62 1251,-1049.62 1251,-1030.62 1162,-1030.62"/>
<text text-anchor="middle" x="1206.5" y="-1037.62" font-family="Helvetica,sans-Serif" font-size="10.00">JS_IsUndefined</text>
</a>
</g>
</g>
<!-- Node4&#45;&gt;Node146 -->
<g id="edge27" class="edge">
<title>Node4&#45;&gt;Node146</title>
<path fill="none" stroke="midnightblue" d="M713.47,-783.75C790.47,-823.87 1086.18,-977.95 1178.08,-1025.84"/>
<polygon fill="midnightblue" stroke="midnightblue" points="1176.57,-1028.99 1187.05,-1030.51 1179.8,-1022.79 1176.57,-1028.99"/>
</g>
<!-- Node128 -->
<g id="node19" class="node">
<title>Node128</title>
<g id="a_node19"><a xlink:href="quickjs_8h.html#a2050bc428da1c65ac7eb87c3fa3b0392" target="_top" xlink:title=" ">
<polygon fill="none" stroke="black" points="1168,-1182.62 1168,-1201.62 1245,-1201.62 1245,-1182.62 1168,-1182.62"/>
<text text-anchor="middle" x="1206.5" y="-1189.62" font-family="Helvetica,sans-Serif" font-size="10.00">JS_NewInt32</text>
</a>
</g>
</g>
<!-- Node4&#45;&gt;Node128 -->
<g id="edge28" class="edge">
<title>Node4&#45;&gt;Node128</title>
<path fill="none" stroke="midnightblue" d="M695.93,-783.87C701.14,-835.99 728.23,-1081.2 782,-1130.12 795.84,-1142.72 1050.27,-1173.9 1157.97,-1186.6"/>
<polygon fill="midnightblue" stroke="midnightblue" points="1157.58,-1190.08 1167.92,-1187.77 1158.4,-1183.13 1157.58,-1190.08"/>
</g>
<!-- Node304 -->
<g id="node20" class="node">
<title>Node304</title>
<g id="a_node20"><a xlink:href="quickjs_8c.html#aee75cc1546e19479e3ccda58f3b50a96" target="_top" xlink:title=" ">
<polygon fill="none" stroke="red" points="792.5,-764.62 792.5,-783.62 907.5,-783.62 907.5,-764.62 792.5,-764.62"/>
<text text-anchor="middle" x="850" y="-771.62" font-family="Helvetica,sans-Serif" font-size="10.00">JS_SetPropertyValue</text>
</a>
</g>
</g>
<!-- Node4&#45;&gt;Node304 -->
<g id="edge29" class="edge">
<title>Node4&#45;&gt;Node304</title>
<path fill="none" stroke="midnightblue" d="M746.28,-774.12C757.83,-774.12 770.26,-774.12 782.34,-774.12"/>
<polygon fill="midnightblue" stroke="midnightblue" points="782.38,-777.62 792.38,-774.12 782.38,-770.62 782.38,-777.62"/>
</g>
<!-- Node306 -->
<g id="node22" class="node">
<title>Node306</title>
<g id="a_node22"><a xlink:href="quickjs_8c.html#ad55fe6f65ecb58e327ac9e9b4ab475f5" target="_top" xlink:title=" ">
<polygon fill="none" stroke="red" points="1157.5,-612.62 1157.5,-631.62 1255.5,-631.62 1255.5,-612.62 1157.5,-612.62"/>
<text text-anchor="middle" x="1206.5" y="-619.62" font-family="Helvetica,sans-Serif" font-size="10.00">set_array_length</text>
</a>
</g>
</g>
<!-- Node4&#45;&gt;Node306 -->
<g id="edge53" class="edge">
<title>Node4&#45;&gt;Node306</title>
<path fill="none" stroke="midnightblue" d="M701.04,-764.52C713.55,-745.56 744.29,-703.46 782,-684.12 844.65,-652 1046.59,-633.46 1147.29,-626"/>
<polygon fill="midnightblue" stroke="midnightblue" points="1147.57,-629.49 1157.29,-625.27 1147.06,-622.5 1147.57,-629.49"/>
</g>
<!-- Node295&#45;&gt;Node52 -->
<g id="edge9" class="edge">
<title>Node295&#45;&gt;Node52</title>
<path fill="none" stroke="midnightblue" d="M1445.31,-518.12C1449.68,-515.33 1453.69,-512.03 1457,-508.12 1496.75,-461.2 1522.05,-267.54 1529.33,-204.82"/>
<polygon fill="midnightblue" stroke="midnightblue" points="1532.82,-205.03 1530.47,-194.7 1525.87,-204.24 1532.82,-205.03"/>
</g>
<!-- Node22&#45;&gt;Node2 -->
<g id="edge11" class="edge">
<title>Node22&#45;&gt;Node2</title>
<path fill="none" stroke="midnightblue" d="M1254.69,-460.53C1280.11,-455.37 1311.65,-448.96 1338.33,-443.54"/>
<polygon fill="midnightblue" stroke="midnightblue" points="1339.2,-446.93 1348.3,-441.51 1337.8,-440.07 1339.2,-446.93"/>
</g>
<!-- Node147&#45;&gt;Node67 -->
<g id="edge14" class="edge">
<title>Node147&#45;&gt;Node67</title>
<path fill="none" stroke="midnightblue" d="M1247.43,-536.56C1263.29,-532.49 1281.62,-527.46 1298,-522.12 1314.32,-516.8 1317.8,-513.81 1334,-508.12 1340.07,-505.99 1346.52,-503.85 1352.85,-501.8"/>
<polygon fill="midnightblue" stroke="midnightblue" points="1354.18,-505.05 1362.66,-498.69 1352.07,-498.38 1354.18,-505.05"/>
</g>
<!-- Node294&#45;&gt;Node2 -->
<g id="edge20" class="edge">
<title>Node294&#45;&gt;Node2</title>
<path fill="none" stroke="midnightblue" d="M1212.56,-840.39C1227.63,-811.05 1272.7,-720.63 1298,-641.12 1321.55,-567.11 1289.59,-533.84 1334,-470.12 1340.91,-460.21 1351.33,-452.33 1361.58,-446.38"/>
<polygon fill="midnightblue" stroke="midnightblue" points="1363.28,-449.45 1370.45,-441.65 1359.98,-443.27 1363.28,-449.45"/>
</g>
<!-- Node294&#45;&gt;Node5 -->
<g id="edge16" class="edge">
<title>Node294&#45;&gt;Node5</title>
<path fill="none" stroke="midnightblue" d="M1223.12,-840.6C1255.71,-820.73 1331.14,-774.75 1370.15,-750.97"/>
<polygon fill="midnightblue" stroke="midnightblue" points="1372.07,-753.89 1378.79,-745.7 1368.43,-747.92 1372.07,-753.89"/>
</g>
<!-- Node294&#45;&gt;Node72 -->
<g id="edge17" class="edge">
<title>Node294&#45;&gt;Node72</title>
<path fill="none" stroke="midnightblue" d="M1226.91,-859.74C1251.49,-871.72 1295.28,-892.38 1334,-907.12 1339.67,-909.28 1345.7,-911.39 1351.67,-913.37"/>
<polygon fill="midnightblue" stroke="midnightblue" points="1351.01,-916.84 1361.6,-916.57 1353.16,-910.17 1351.01,-916.84"/>
</g>
<!-- Node294&#45;&gt;Node73 -->
<g id="edge18" class="edge">
<title>Node294&#45;&gt;Node73</title>
<path fill="none" stroke="midnightblue" d="M1254.69,-859.71C1279.92,-864.84 1311.17,-871.19 1337.73,-876.59"/>
<polygon fill="midnightblue" stroke="midnightblue" points="1337.15,-880.04 1347.65,-878.6 1338.55,-873.18 1337.15,-880.04"/>
</g>
<!-- Node294&#45;&gt;Node295 -->
<g id="edge19" class="edge">
<title>Node294&#45;&gt;Node295</title>
<path fill="none" stroke="midnightblue" d="M1213.3,-840.29C1238.92,-796.86 1342.32,-621.58 1380.36,-557.09"/>
<polygon fill="midnightblue" stroke="midnightblue" points="1383.42,-558.8 1385.48,-548.41 1377.39,-555.24 1383.42,-558.8"/>
</g>
<!-- Node294&#45;&gt;Node30 -->
<g id="edge21" class="edge">
<title>Node294&#45;&gt;Node30</title>
<path fill="none" stroke="midnightblue" d="M1214.97,-859.66C1231.72,-881.39 1272.76,-936.68 1298,-988.12 1343.82,-1081.51 1377.49,-1202.17 1389.59,-1248.67"/>
<polygon fill="midnightblue" stroke="midnightblue" points="1386.27,-1249.79 1392.14,-1258.6 1393.05,-1248.05 1386.27,-1249.79"/>
</g>
<!-- Node294&#45;&gt;Node303 -->
<g id="edge22" class="edge">
<title>Node294&#45;&gt;Node303</title>
<path fill="none" stroke="midnightblue" d="M1258.6,-850.12C1288.32,-850.12 1325.3,-850.12 1353.18,-850.12"/>
<polygon fill="midnightblue" stroke="midnightblue" points="1353.38,-853.62 1363.38,-850.12 1353.38,-846.62 1353.38,-853.62"/>
</g>
<!-- Node303&#45;&gt;Node31 -->
<g id="edge23" class="edge">
<title>Node303&#45;&gt;Node31</title>
<path fill="none" stroke="midnightblue" d="M1427.68,-854.18C1438.1,-856.92 1449.07,-861.49 1457,-869.12 1511.54,-921.62 1526.25,-1016.68 1530.14,-1058.02"/>
<polygon fill="midnightblue" stroke="midnightblue" points="1526.66,-1058.5 1530.97,-1068.18 1533.64,-1057.92 1526.66,-1058.5"/>
</g>
<!-- Node304&#45;&gt;Node5 -->
<g id="edge30" class="edge">
<title>Node304&#45;&gt;Node5</title>
<path fill="none" stroke="midnightblue" d="M907.58,-772.72C992.53,-770.25 1158.02,-764.01 1298,-750.12 1313.33,-748.6 1329.95,-746.39 1345.02,-744.18"/>
<polygon fill="midnightblue" stroke="midnightblue" points="1345.79,-747.6 1355.16,-742.65 1344.75,-740.68 1345.79,-747.6"/>
</g>
<!-- Node304&#45;&gt;Node303 -->
<g id="edge52" class="edge">
<title>Node304&#45;&gt;Node303</title>
<path fill="none" stroke="midnightblue" d="M870.23,-783.68C912.95,-804.3 1019.51,-852.46 1115,-869.12 1195.12,-883.1 1217.05,-877.02 1298,-869.12 1316.3,-867.34 1336.27,-863.7 1353.27,-860.07"/>
<polygon fill="midnightblue" stroke="midnightblue" points="1354.42,-863.4 1363.44,-857.83 1352.92,-856.57 1354.42,-863.4"/>
</g>
<!-- Node304&#45;&gt;Node31 -->
<g id="edge31" class="edge">
<title>Node304&#45;&gt;Node31</title>
<path fill="none" stroke="midnightblue" d="M858.18,-783.63C893.05,-829.48 1045.87,-1027.03 1115,-1059.12 1237.3,-1115.9 1402.15,-1100.11 1482.87,-1087.3"/>
<polygon fill="midnightblue" stroke="midnightblue" points="1483.45,-1090.75 1492.75,-1085.67 1482.32,-1083.84 1483.45,-1090.75"/>
</g>
<!-- Node304&#45;&gt;Node289 -->
<g id="edge32" class="edge">
<title>Node304&#45;&gt;Node289</title>
<path fill="none" stroke="midnightblue" d="M872.17,-764.53C890.4,-758.74 917.82,-751.74 943.8,-745.98"/>
<polygon fill="midnightblue" stroke="midnightblue" points="944.64,-749.38 953.67,-743.84 943.15,-742.54 944.64,-749.38"/>
</g>
<!-- Node289&#45;&gt;Node4 -->
<g id="edge39" class="edge">
<title>Node289&#45;&gt;Node4</title>
<path fill="none" stroke="midnightblue" d="M953.79,-738.89C906.57,-741.55 839.93,-746.48 782,-755.12 769.33,-757.01 755.75,-759.67 743.17,-762.4"/>
<polygon fill="midnightblue" stroke="midnightblue" points="742.34,-759 733.34,-764.59 743.86,-765.83 742.34,-759"/>
</g>
<!-- Node289&#45;&gt;Node5 -->
<g id="edge33" class="edge">
<title>Node289&#45;&gt;Node5</title>
<path fill="none" stroke="midnightblue" d="M1079.33,-736.12C1153.74,-736.12 1277.17,-736.12 1345.39,-736.12"/>
<polygon fill="midnightblue" stroke="midnightblue" points="1345.44,-739.62 1355.44,-736.12 1345.44,-732.62 1345.44,-739.62"/>
</g>
<!-- Node289&#45;&gt;Node72 -->
<g id="edge34" class="edge">
<title>Node289&#45;&gt;Node72</title>
<path fill="none" stroke="midnightblue" d="M1019.89,-745.67C1027.73,-774.76 1055.64,-862.61 1115,-900.12 1177.31,-939.5 1263.56,-941.42 1323.71,-936.4"/>
<polygon fill="midnightblue" stroke="midnightblue" points="1324.23,-939.87 1333.87,-935.47 1323.59,-932.9 1324.23,-939.87"/>
</g>
<!-- Node289&#45;&gt;Node73 -->
<g id="edge35" class="edge">
<title>Node289&#45;&gt;Node73</title>
<path fill="none" stroke="midnightblue" d="M1021.14,-745.74C1031.38,-771.23 1063.08,-840.55 1115,-869.12 1181.46,-905.7 1270.69,-904.75 1330.28,-898.44"/>
<polygon fill="midnightblue" stroke="midnightblue" points="1330.77,-901.9 1340.31,-897.29 1329.98,-894.95 1330.77,-901.9"/>
</g>
<!-- Node289&#45;&gt;Node22 -->
<g id="edge36" class="edge">
<title>Node289&#45;&gt;Node22</title>
<path fill="none" stroke="midnightblue" d="M1019.94,-726.28C1028.27,-694.26 1058.33,-591.39 1115,-527.12 1131.28,-508.65 1154.98,-494.03 1174.04,-484.21"/>
<polygon fill="midnightblue" stroke="midnightblue" points="1175.83,-487.23 1183.24,-479.66 1172.73,-480.96 1175.83,-487.23"/>
</g>
<!-- Node289&#45;&gt;Node147 -->
<g id="edge37" class="edge">
<title>Node289&#45;&gt;Node147</title>
<path fill="none" stroke="midnightblue" d="M1020.27,-726.49C1029.02,-697.89 1058.84,-612.77 1115,-570.12 1122.86,-564.15 1132.09,-559.66 1141.59,-556.29"/>
<polygon fill="midnightblue" stroke="midnightblue" points="1142.66,-559.62 1151.15,-553.27 1140.56,-552.95 1142.66,-559.62"/>
</g>
<!-- Node289&#45;&gt;Node67 -->
<g id="edge42" class="edge">
<title>Node289&#45;&gt;Node67</title>
<path fill="none" stroke="midnightblue" d="M1021.53,-726.53C1032.49,-701.7 1065.39,-635.02 1115,-603.12 1184.87,-558.19 1229.73,-612.44 1298,-565.12 1322.63,-548.05 1310.25,-526.4 1334,-508.12 1336.74,-506.01 1339.73,-504.13 1342.85,-502.46"/>
<polygon fill="midnightblue" stroke="midnightblue" points="1344.32,-505.64 1351.93,-498.27 1341.39,-499.28 1344.32,-505.64"/>
</g>
<!-- Node289&#45;&gt;Node294 -->
<g id="edge38" class="edge">
<title>Node289&#45;&gt;Node294</title>
<path fill="none" stroke="midnightblue" d="M1025.23,-745.9C1040.4,-764.43 1076.03,-804.72 1115,-826.12 1124.07,-831.1 1134.22,-835.09 1144.36,-838.27"/>
<polygon fill="midnightblue" stroke="midnightblue" points="1143.46,-841.66 1154.04,-841.08 1145.41,-834.93 1143.46,-841.66"/>
</g>
<!-- Node289&#45;&gt;Node30 -->
<g id="edge40" class="edge">
<title>Node289&#45;&gt;Node30</title>
<path fill="none" stroke="midnightblue" d="M1019.8,-745.71C1027.71,-776.87 1056.62,-876.54 1115,-934.12 1179.12,-997.36 1236.63,-955.21 1298,-1021.12 1361.05,-1088.84 1384.58,-1202.46 1391.78,-1248.18"/>
<polygon fill="midnightblue" stroke="midnightblue" points="1388.35,-1248.89 1393.27,-1258.27 1395.27,-1247.86 1388.35,-1248.89"/>
</g>
<!-- Node289&#45;&gt;Node303 -->
<g id="edge51" class="edge">
<title>Node289&#45;&gt;Node303</title>
<path fill="none" stroke="midnightblue" d="M1048.99,-745.65C1117.08,-766.23 1277.93,-814.87 1353.69,-837.78"/>
<polygon fill="midnightblue" stroke="midnightblue" points="1352.78,-841.16 1363.36,-840.71 1354.8,-834.46 1352.78,-841.16"/>
</g>
<!-- Node289&#45;&gt;Node31 -->
<g id="edge41" class="edge">
<title>Node289&#45;&gt;Node31</title>
<path fill="none" stroke="midnightblue" d="M1038.88,-726.42C1108.3,-696.53 1330.29,-613.89 1457,-717.12 1510.7,-760.87 1526.85,-988.77 1530.56,-1058.09"/>
<polygon fill="midnightblue" stroke="midnightblue" points="1527.08,-1058.66 1531.08,-1068.47 1534.08,-1058.3 1527.08,-1058.66"/>
</g>
<!-- Node289&#45;&gt;Node146 -->
<g id="edge43" class="edge">
<title>Node289&#45;&gt;Node146</title>
<path fill="none" stroke="midnightblue" d="M1020.23,-745.63C1033.75,-792.37 1093.62,-996.31 1115,-1016.12 1125.07,-1025.46 1138.35,-1031.24 1151.62,-1034.81"/>
<polygon fill="midnightblue" stroke="midnightblue" points="1151.19,-1038.3 1161.71,-1037.12 1152.75,-1031.48 1151.19,-1038.3"/>
</g>
<!-- Node289&#45;&gt;Node128 -->
<g id="edge44" class="edge">
<title>Node289&#45;&gt;Node128</title>
<path fill="none" stroke="midnightblue" d="M1019.29,-745.76C1026.95,-785.76 1059.11,-942.03 1115,-1059.12 1136.21,-1103.57 1171.14,-1149.89 1190.83,-1174.42"/>
<polygon fill="midnightblue" stroke="midnightblue" points="1188.31,-1176.87 1197.34,-1182.42 1193.74,-1172.45 1188.31,-1176.87"/>
</g>
<!-- Node289&#45;&gt;Node304 -->
<g id="edge45" class="edge">
<title>Node289&#45;&gt;Node304</title>
<path fill="none" stroke="midnightblue" d="M994.32,-745.72C974.88,-751.89 945.03,-759.43 917.59,-765.38"/>
<polygon fill="midnightblue" stroke="midnightblue" points="916.67,-762 907.61,-767.5 918.12,-768.85 916.67,-762"/>
</g>
<!-- Node289&#45;&gt;Node306 -->
<g id="edge46" class="edge">
<title>Node289&#45;&gt;Node306</title>
<path fill="none" stroke="midnightblue" d="M1026.86,-726.37C1047.14,-705.42 1094.91,-657.16 1115,-646.12 1125.03,-640.61 1136.38,-636.32 1147.58,-632.99"/>
<polygon fill="midnightblue" stroke="midnightblue" points="1148.62,-636.33 1157.33,-630.31 1146.76,-629.58 1148.62,-636.33"/>
</g>
<!-- Node306&#45;&gt;Node2 -->
<g id="edge48" class="edge">
<title>Node306&#45;&gt;Node2</title>
<path fill="none" stroke="midnightblue" d="M1230.93,-612.55C1251.2,-603.18 1280.02,-587.12 1298,-565.12 1326.58,-530.17 1305.4,-505.06 1334,-470.12 1341.84,-460.55 1352.76,-452.66 1363.17,-446.61"/>
<polygon fill="midnightblue" stroke="midnightblue" points="1364.97,-449.61 1372.09,-441.76 1361.63,-443.46 1364.97,-449.61"/>
</g>
<!-- Node306&#45;&gt;Node5 -->
<g id="edge47" class="edge">
<title>Node306&#45;&gt;Node5</title>
<path fill="none" stroke="midnightblue" d="M1223.12,-631.65C1255.71,-651.51 1331.14,-697.5 1370.15,-721.28"/>
<polygon fill="midnightblue" stroke="midnightblue" points="1368.43,-724.33 1378.79,-726.55 1372.07,-718.35 1368.43,-724.33"/>
</g>
<!-- Node306&#45;&gt;Node303 -->
<g id="edge50" class="edge">
<title>Node306&#45;&gt;Node303</title>
<path fill="none" stroke="midnightblue" d="M1215.3,-631.63C1243.87,-666.47 1343.11,-787.47 1380.29,-832.8"/>
<polygon fill="midnightblue" stroke="midnightblue" points="1377.62,-835.06 1386.67,-840.58 1383.03,-830.62 1377.62,-835.06"/>
</g>
<!-- Node306&#45;&gt;Node31 -->
<g id="edge49" class="edge">
<title>Node306&#45;&gt;Node31</title>
<path fill="none" stroke="midnightblue" d="M1247.98,-612.6C1302.88,-602.32 1400.54,-593.74 1457,-646.12 1518.29,-702.99 1529.25,-980.47 1531.13,-1057.98"/>
<polygon fill="midnightblue" stroke="midnightblue" points="1527.64,-1058.36 1531.35,-1068.28 1534.63,-1058.21 1527.64,-1058.36"/>
</g>
<!-- Node281&#45;&gt;Node52 -->
<g id="edge59" class="edge">
<title>Node281&#45;&gt;Node52</title>
<path fill="none" stroke="midnightblue" d="M1450.63,-173.74C1466.3,-175.95 1482.96,-178.29 1497.07,-180.28"/>
<polygon fill="midnightblue" stroke="midnightblue" points="1496.91,-183.79 1507.3,-181.72 1497.89,-176.86 1496.91,-183.79"/>
</g>
<!-- Node282&#45;&gt;Node2 -->
<g id="edge62" class="edge">
<title>Node282&#45;&gt;Node2</title>
<path fill="none" stroke="midnightblue" d="M1271.77,-213.64C1281.25,-217.1 1290.38,-221.78 1298,-228.12 1357.18,-277.38 1382.37,-371.23 1390.88,-412.18"/>
<polygon fill="midnightblue" stroke="midnightblue" points="1387.49,-413.11 1392.85,-422.25 1394.36,-411.76 1387.49,-413.11"/>
</g>
<!-- Node282&#45;&gt;Node52 -->
<g id="edge63" class="edge">
<title>Node282&#45;&gt;Node52</title>
<path fill="none" stroke="midnightblue" d="M1298.18,-198.81C1364.18,-194.93 1449.91,-189.91 1496.91,-187.15"/>
<polygon fill="midnightblue" stroke="midnightblue" points="1497.38,-190.63 1507.16,-186.55 1496.97,-183.64 1497.38,-190.63"/>
</g>
<!-- Node282&#45;&gt;Node281 -->
<g id="edge64" class="edge">
<title>Node282&#45;&gt;Node281</title>
<path fill="none" stroke="midnightblue" d="M1254.69,-194.53C1279.92,-189.41 1311.17,-183.06 1337.73,-177.66"/>
<polygon fill="midnightblue" stroke="midnightblue" points="1338.55,-181.06 1347.65,-175.64 1337.15,-174.2 1338.55,-181.06"/>
</g>
<!-- Node411&#45;&gt;Node31 -->
<g id="edge66" class="edge">
<title>Node411&#45;&gt;Node31</title>
<path fill="none" stroke="midnightblue" d="M439.01,-341.52C639.8,-323.1 1309.99,-273.32 1457,-413.12 1505.08,-458.84 1526.67,-952.48 1530.77,-1058.25"/>
<polygon fill="midnightblue" stroke="midnightblue" points="1527.28,-1058.6 1531.15,-1068.46 1534.27,-1058.34 1527.28,-1058.6"/>
</g>
<!-- Node435&#45;&gt;Node31 -->
<g id="edge73" class="edge">
<title>Node435&#45;&gt;Node31</title>
<path fill="none" stroke="midnightblue" d="M236.69,-1363.72C283.08,-1389.47 418.17,-1458.12 539.5,-1458.12 539.5,-1458.12 539.5,-1458.12 1207.5,-1458.12 1248.74,-1458.12 1442.12,-1402.78 1457,-1387.12 1497.45,-1344.57 1522.13,-1159.27 1529.31,-1097.93"/>
<polygon fill="midnightblue" stroke="midnightblue" points="1532.82,-1098.01 1530.48,-1087.68 1525.86,-1097.22 1532.82,-1098.01"/>
</g>
<!-- Node235 -->
<g id="node30" class="node">
<title>Node235</title>
<g id="a_node30"><a xlink:href="quickjs_8c.html#a710289a14c2810467e5b448d3c28bd55" target="_top" xlink:title=" ">
<polygon fill="none" stroke="red" points="344.5,-1344.62 344.5,-1363.62 417.5,-1363.62 417.5,-1344.62 344.5,-1344.62"/>
<text text-anchor="middle" x="381" y="-1351.62" font-family="Helvetica,sans-Serif" font-size="10.00">JS_ToObject</text>
</a>
</g>
</g>
<!-- Node435&#45;&gt;Node235 -->
<g id="edge74" class="edge">
<title>Node435&#45;&gt;Node235</title>
<path fill="none" stroke="midnightblue" d="M266.28,-1354.12C287.61,-1354.12 312.87,-1354.12 334.15,-1354.12"/>
<polygon fill="midnightblue" stroke="midnightblue" points="334.24,-1357.62 344.24,-1354.12 334.24,-1350.62 334.24,-1357.62"/>
</g>
<!-- Node235&#45;&gt;Node3 -->
<g id="edge75" class="edge">
<title>Node235&#45;&gt;Node3</title>
<path fill="none" stroke="midnightblue" d="M402.15,-1363.7C420.87,-1372.48 449.6,-1385.68 475,-1396.12 484.01,-1399.83 493.82,-1403.61 503.01,-1407.04"/>
<polygon fill="midnightblue" stroke="midnightblue" points="502.07,-1410.42 512.67,-1410.6 504.5,-1403.86 502.07,-1410.42"/>
</g>
<!-- Node235&#45;&gt;Node67 -->
<g id="edge77" class="edge">
<title>Node235&#45;&gt;Node67</title>
<path fill="none" stroke="midnightblue" d="M382.72,-1344.59C389.41,-1263.42 448.24,-685.88 782,-453.12 970.21,-321.87 1075.74,-379.1 1298,-436.12 1312.87,-439.94 1347.09,-459.84 1370.51,-474.14"/>
<polygon fill="midnightblue" stroke="midnightblue" points="1368.84,-477.22 1379.2,-479.48 1372.51,-471.26 1368.84,-477.22"/>
</g>
<!-- Node235&#45;&gt;Node30 -->
<g id="edge76" class="edge">
<title>Node235&#45;&gt;Node30</title>
<path fill="none" stroke="midnightblue" d="M417.82,-1359.46C475.59,-1367.58 592.98,-1382.12 693,-1382.12 693,-1382.12 693,-1382.12 1017.5,-1382.12 1145.18,-1382.12 1178.33,-1364.61 1298,-1320.12 1324.21,-1310.38 1352.13,-1294.69 1371.16,-1283.09"/>
<polygon fill="midnightblue" stroke="midnightblue" points="1373.08,-1286.01 1379.74,-1277.76 1369.39,-1280.06 1373.08,-1286.01"/>
</g>
<!-- Node235&#45;&gt;Node128 -->
<g id="edge78" class="edge">
<title>Node235&#45;&gt;Node128</title>
<path fill="none" stroke="midnightblue" d="M417.65,-1347.11C549.24,-1321.22 1007.82,-1231.01 1157.7,-1201.53"/>
<polygon fill="midnightblue" stroke="midnightblue" points="1158.81,-1204.87 1167.95,-1199.51 1157.46,-1198.01 1158.81,-1204.87"/>
</g>
</g>
</svg>
