<?xml version="1.0" encoding="UTF-8" standalone="no"?>
<!DOCTYPE svg PUBLIC "-//W3C//DTD SVG 1.1//EN"
 "http://www.w3.org/Graphics/SVG/1.1/DTD/svg11.dtd">
<!-- Generated by graphviz version 2.43.0 (0)
 -->
<!-- Title: get_typed_array Pages: 1 -->
<!--zoomable 872 -->
<svg id="main" version="1.1" xmlns="http://www.w3.org/2000/svg" xmlns:xlink="http://www.w3.org/1999/xlink" xml:space="preserve" onload="init(evt)">
<style type="text/css"><![CDATA[
.edge:hover path { stroke: red; }
.edge:hover polygon { stroke: red; fill: red; }
]]></style>
<script type="text/javascript"><![CDATA[
var edges = document.getElementsByTagName('g');
if (edges && edges.length) {
  for (var i=0;i<edges.length;i++) {
    if (edges[i].id.substr(0,4)=='edge') {
      edges[i].setAttribute('class','edge');
    }
  }
}
]]></script>
        <defs>
                <circle id="rim" cx="0" cy="0" r="7"/>
                <circle id="rim2" cx="0" cy="0" r="3.5"/>
                <g id="zoomPlus">
                        <use xlink:href="#rim" fill="#404040">
                                <set attributeName="fill" to="#808080" begin="zoomplus.mouseover" end="zoomplus.mouseout"/>
                        </use>
                        <path d="M-4,0h8M0,-4v8" fill="none" stroke="white" stroke-width="1.5" pointer-events="none"/>
                </g>
                <g id="zoomMin">
                        <use xlink:href="#rim" fill="#404040">
                                <set attributeName="fill" to="#808080" begin="zoomminus.mouseover" end="zoomminus.mouseout"/>
                        </use>
                        <path d="M-4,0h8" fill="none" stroke="white" stroke-width="1.5" pointer-events="none"/>
                </g>
                <g id="dirArrow">
                        <path fill="none" stroke="white" stroke-width="1.5" d="M0,-3.0v7 M-2.5,-0.5L0,-3.0L2.5,-0.5"/>
                </g>
               <g id="resetDef">
                       <use xlink:href="#rim2" fill="#404040">
                               <set attributeName="fill" to="#808080" begin="reset.mouseover" end="reset.mouseout"/>
                       </use>
               </g>
        </defs>

<script type="text/javascript">
var viewWidth = 807;
var viewHeight = 872;
var sectionId = 'dynsection-1868';
</script>
<script xlink:href="svgpan.js"/>
<svg id="graph" class="graph">
<g id="viewport">
<title>get_typed_array</title>
<!-- Node1 -->
<g id="node1" class="node">
<title>Node1</title>
<g id="a_node1"><a xlink:title=" ">
<polygon fill="#bfbfbf" stroke="black" points="703,-224 703,-243 799,-243 799,-224 703,-224"/>
<text text-anchor="middle" x="751" y="-231" font-family="Helvetica,sans-Serif" font-size="10.00">get_typed_array</text>
</a>
</g>
</g>
<!-- Node2 -->
<g id="node2" class="node">
<title>Node2</title>
<g id="a_node2"><a xlink:href="quickjs_8c.html#a623376b2e5c5459f22b16e18ce134b62" target="_top" xlink:title=" ">
<polygon fill="none" stroke="black" points="535,-844 535,-863 667,-863 667,-844 535,-844"/>
<text text-anchor="middle" x="601" y="-851" font-family="Helvetica,sans-Serif" font-size="10.00">JS_GetTypedArrayBuffer</text>
</a>
</g>
</g>
<!-- Node1&#45;&gt;Node2 -->
<g id="edge1" class="edge">
<title>Node1&#45;&gt;Node2</title>
<path fill="none" stroke="midnightblue" d="M749.89,-253.44C748.97,-346.55 740.73,-737.9 667,-829.5 661.87,-835.87 654.88,-840.55 647.38,-843.99"/>
<polygon fill="midnightblue" stroke="midnightblue" points="753.39,-253.41 749.97,-243.39 746.39,-253.36 753.39,-253.41"/>
</g>
<!-- Node3 -->
<g id="node3" class="node">
<title>Node3</title>
<g id="a_node3"><a xlink:href="quickjs_8c.html#ae5a8e884ec4a3364f63ebfeae6b08bdc" target="_top" xlink:title=" ">
<polygon fill="none" stroke="black" points="173,-326.5 173,-356.5 314,-356.5 314,-326.5 173,-326.5"/>
<text text-anchor="start" x="181" y="-344.5" font-family="Helvetica,sans-Serif" font-size="10.00">js_typed_array___species</text>
<text text-anchor="middle" x="243.5" y="-333.5" font-family="Helvetica,sans-Serif" font-size="10.00">Create</text>
</a>
</g>
</g>
<!-- Node1&#45;&gt;Node3 -->
<g id="edge2" class="edge">
<title>Node1&#45;&gt;Node3</title>
<path fill="none" stroke="midnightblue" d="M692.68,-244.22C684.09,-245.72 675.32,-247.2 667,-248.5 526.59,-270.48 486.14,-249.72 350,-290.5 321.35,-299.08 290.82,-314.62 270.01,-326.3"/>
<polygon fill="midnightblue" stroke="midnightblue" points="693.43,-247.64 702.66,-242.45 692.2,-240.75 693.43,-247.64"/>
</g>
<!-- Node5 -->
<g id="node5" class="node">
<title>Node5</title>
<g id="a_node5"><a xlink:href="quickjs_8c.html#a04f45f4b341a84aa1039cfd862adbcd2" target="_top" xlink:title=" ">
<polygon fill="none" stroke="black" points="10.5,-699 10.5,-718 126.5,-718 126.5,-699 10.5,-699"/>
<text text-anchor="middle" x="68.5" y="-706" font-family="Helvetica,sans-Serif" font-size="10.00">js_typed_array_slice</text>
</a>
</g>
</g>
<!-- Node1&#45;&gt;Node5 -->
<g id="edge29" class="edge">
<title>Node1&#45;&gt;Node5</title>
<path fill="none" stroke="midnightblue" d="M749.52,-253.38C747.07,-338.47 733.33,-671.02 667,-746.5 512.96,-921.79 169.59,-760.41 87.42,-718.05"/>
<polygon fill="midnightblue" stroke="midnightblue" points="753.02,-253.36 749.79,-243.27 746.02,-253.17 753.02,-253.36"/>
</g>
<!-- Node6 -->
<g id="node6" class="node">
<title>Node6</title>
<g id="a_node6"><a xlink:href="quickjs_8c.html#a355310420e303302c981eb7c73a222fb" target="_top" xlink:title=" ">
<polygon fill="none" stroke="black" points="0,-208 0,-227 137,-227 137,-208 0,-208"/>
<text text-anchor="middle" x="68.5" y="-215" font-family="Helvetica,sans-Serif" font-size="10.00">js_typed_array_subarray</text>
</a>
</g>
</g>
<!-- Node1&#45;&gt;Node6 -->
<g id="edge30" class="edge">
<title>Node1&#45;&gt;Node6</title>
<path fill="none" stroke="midnightblue" d="M692.35,-230.66C683.85,-230.26 675.2,-229.86 667,-229.5 447.57,-219.86 392.63,-213.38 173,-215.5 161.41,-215.61 149.09,-215.79 137.14,-216"/>
<polygon fill="midnightblue" stroke="midnightblue" points="692.44,-234.17 702.6,-231.15 692.78,-227.17 692.44,-234.17"/>
</g>
<!-- Node7 -->
<g id="node7" class="node">
<title>Node7</title>
<g id="a_node7"><a xlink:href="quickjs_8c.html#abc2c575324de462a96cdb647086336b7" target="_top" xlink:title=" ">
<polygon fill="none" stroke="black" points="188.5,-136.5 188.5,-166.5 298.5,-166.5 298.5,-136.5 188.5,-136.5"/>
<text text-anchor="start" x="196.5" y="-154.5" font-family="Helvetica,sans-Serif" font-size="10.00">js_typed_array_get</text>
<text text-anchor="middle" x="243.5" y="-143.5" font-family="Helvetica,sans-Serif" font-size="10.00">_buffer</text>
</a>
</g>
</g>
<!-- Node1&#45;&gt;Node7 -->
<g id="edge6" class="edge">
<title>Node1&#45;&gt;Node7</title>
<path fill="none" stroke="midnightblue" d="M730.81,-217.63C714.82,-205.39 690.87,-189.29 667,-181.5 540.11,-140.11 380.77,-142.33 298.78,-147.13"/>
<polygon fill="midnightblue" stroke="midnightblue" points="728.81,-220.5 738.83,-223.95 733.14,-215.01 728.81,-220.5"/>
</g>
<!-- Node8 -->
<g id="node8" class="node">
<title>Node8</title>
<g id="a_node8"><a xlink:href="quickjs_8c.html#acbb1daa9c97eac9594da8f4408e8fa5b" target="_top" xlink:title=" ">
<polygon fill="none" stroke="black" points="546,-98.5 546,-128.5 656,-128.5 656,-98.5 546,-98.5"/>
<text text-anchor="start" x="554" y="-116.5" font-family="Helvetica,sans-Serif" font-size="10.00">js_typed_array_get</text>
<text text-anchor="middle" x="601" y="-105.5" font-family="Helvetica,sans-Serif" font-size="10.00">_byteLength</text>
</a>
</g>
</g>
<!-- Node1&#45;&gt;Node8 -->
<g id="edge8" class="edge">
<title>Node1&#45;&gt;Node8</title>
<path fill="none" stroke="midnightblue" d="M737.15,-215.83C722.12,-196.13 695.61,-164.32 667,-143.5 659.16,-137.8 650.07,-132.78 641.21,-128.57"/>
<polygon fill="midnightblue" stroke="midnightblue" points="734.43,-218.03 743.22,-223.94 740.03,-213.84 734.43,-218.03"/>
</g>
<!-- Node9 -->
<g id="node9" class="node">
<title>Node9</title>
<g id="a_node9"><a xlink:href="quickjs_8c.html#a7797b02f56511eb67985f7d50493c2a5" target="_top" xlink:title=" ">
<polygon fill="none" stroke="black" points="188.5,-224.5 188.5,-254.5 298.5,-254.5 298.5,-224.5 188.5,-224.5"/>
<text text-anchor="start" x="196.5" y="-242.5" font-family="Helvetica,sans-Serif" font-size="10.00">js_typed_array_get</text>
<text text-anchor="middle" x="243.5" y="-231.5" font-family="Helvetica,sans-Serif" font-size="10.00">_byteOffset</text>
</a>
</g>
</g>
<!-- Node1&#45;&gt;Node9 -->
<g id="edge9" class="edge">
<title>Node1&#45;&gt;Node9</title>
<path fill="none" stroke="midnightblue" d="M692.86,-234.18C594.65,-235.34 395.13,-237.71 298.87,-238.85"/>
<polygon fill="midnightblue" stroke="midnightblue" points="692.94,-237.68 702.9,-234.06 692.86,-230.68 692.94,-237.68"/>
</g>
<!-- Node10 -->
<g id="node10" class="node">
<title>Node10</title>
<g id="a_node10"><a xlink:href="quickjs_8c.html#a30f6cc2c62593afda48e8c7999089616" target="_top" xlink:title=" ">
<polygon fill="none" stroke="black" points="546,-49.5 546,-79.5 656,-79.5 656,-49.5 546,-49.5"/>
<text text-anchor="start" x="554" y="-67.5" font-family="Helvetica,sans-Serif" font-size="10.00">js_typed_array_get</text>
<text text-anchor="middle" x="601" y="-56.5" font-family="Helvetica,sans-Serif" font-size="10.00">_length</text>
</a>
</g>
</g>
<!-- Node1&#45;&gt;Node10 -->
<g id="edge11" class="edge">
<title>Node1&#45;&gt;Node10</title>
<path fill="none" stroke="midnightblue" d="M743.87,-214.31C733.11,-183.56 708,-123.2 667,-88.5 662.96,-85.08 658.39,-82.13 653.59,-79.58"/>
<polygon fill="midnightblue" stroke="midnightblue" points="740.58,-215.5 747.08,-223.86 747.21,-213.27 740.58,-215.5"/>
</g>
<!-- Node11 -->
<g id="node11" class="node">
<title>Node11</title>
<g id="a_node11"><a xlink:href="quickjs_8c.html#add71c7e0efcb1fd14572d39e2672971d" target="_top" xlink:title=" ">
<polygon fill="none" stroke="black" points="546,-465.5 546,-495.5 656,-495.5 656,-465.5 546,-465.5"/>
<text text-anchor="start" x="554" y="-483.5" font-family="Helvetica,sans-Serif" font-size="10.00">js_typed_array_get</text>
<text text-anchor="middle" x="601" y="-472.5" font-family="Helvetica,sans-Serif" font-size="10.00">_length_internal</text>
</a>
</g>
</g>
<!-- Node1&#45;&gt;Node11 -->
<g id="edge12" class="edge">
<title>Node1&#45;&gt;Node11</title>
<path fill="none" stroke="midnightblue" d="M738.92,-251.98C710.8,-298.92 637.05,-422.01 611.15,-465.23"/>
<polygon fill="midnightblue" stroke="midnightblue" points="742.06,-253.56 744.2,-243.18 736.06,-249.96 742.06,-253.56"/>
</g>
<!-- Node23 -->
<g id="node23" class="node">
<title>Node23</title>
<g id="a_node23"><a xlink:href="quickjs_8c.html#a28f4d08e4321e751cebe37ea7259fe3c" target="_top" xlink:title=" ">
<polygon fill="none" stroke="black" points="546.5,-0.5 546.5,-30.5 655.5,-30.5 655.5,-0.5 546.5,-0.5"/>
<text text-anchor="start" x="554.5" y="-18.5" font-family="Helvetica,sans-Serif" font-size="10.00">js_typed_array_set</text>
<text text-anchor="middle" x="601" y="-7.5" font-family="Helvetica,sans-Serif" font-size="10.00">_internal</text>
</a>
</g>
</g>
<!-- Node1&#45;&gt;Node23 -->
<g id="edge27" class="edge">
<title>Node1&#45;&gt;Node23</title>
<path fill="none" stroke="midnightblue" d="M746.9,-213.95C739.78,-175.32 718.71,-88.66 667,-39.5 663.43,-36.1 659.33,-33.18 654.97,-30.66"/>
<polygon fill="midnightblue" stroke="midnightblue" points="743.47,-214.65 748.62,-223.91 750.37,-213.46 743.47,-214.65"/>
</g>
<!-- Node25 -->
<g id="node25" class="node">
<title>Node25</title>
<g id="a_node25"><a xlink:href="quickjs_8c.html#a997c03968a234b51305ddb93c80a4b97" target="_top" xlink:title=" ">
<polygon fill="none" stroke="black" points="541,-718 541,-737 661,-737 661,-718 541,-718"/>
<text text-anchor="middle" x="601" y="-725" font-family="Helvetica,sans-Serif" font-size="10.00">validate_typed_array</text>
</a>
</g>
</g>
<!-- Node1&#45;&gt;Node25 -->
<g id="edge31" class="edge">
<title>Node1&#45;&gt;Node25</title>
<path fill="none" stroke="midnightblue" d="M744.14,-253.05C719.3,-335.96 623.11,-657.03 604.96,-717.61"/>
<polygon fill="midnightblue" stroke="midnightblue" points="747.53,-253.95 747.04,-243.37 740.82,-251.94 747.53,-253.95"/>
</g>
<!-- Node4 -->
<g id="node4" class="node">
<title>Node4</title>
<g id="a_node4"><a xlink:href="quickjs_8c.html#aa0bbf08a7e91459c68a312fba7016c6d" target="_top" xlink:title=" ">
<polygon fill="none" stroke="black" points="24,-392 24,-411 113,-411 113,-392 24,-392"/>
<text text-anchor="middle" x="68.5" y="-399" font-family="Helvetica,sans-Serif" font-size="10.00">js_array_every</text>
</a>
</g>
</g>
<!-- Node3&#45;&gt;Node4 -->
<g id="edge3" class="edge">
<title>Node3&#45;&gt;Node4</title>
<path fill="none" stroke="midnightblue" d="M189.18,-359.99C158.65,-370.58 121.62,-383.42 96.91,-391.99"/>
<polygon fill="midnightblue" stroke="midnightblue" points="190.54,-363.22 198.84,-356.64 188.25,-356.61 190.54,-363.22"/>
</g>
<!-- Node3&#45;&gt;Node5 -->
<g id="edge4" class="edge">
<title>Node3&#45;&gt;Node5</title>
<path fill="none" stroke="midnightblue" d="M177.43,-362.36C175.87,-363.66 174.39,-365.04 173,-366.5 124.3,-417.78 80.25,-649 71.2,-698.96"/>
<polygon fill="midnightblue" stroke="midnightblue" points="179.59,-365.12 185.77,-356.52 175.58,-359.39 179.59,-365.12"/>
</g>
<!-- Node3&#45;&gt;Node6 -->
<g id="edge5" class="edge">
<title>Node3&#45;&gt;Node6</title>
<path fill="none" stroke="midnightblue" d="M212.68,-320.13C174.69,-292.9 110.63,-246.98 82.93,-227.13"/>
<polygon fill="midnightblue" stroke="midnightblue" points="211.12,-323.31 221.29,-326.3 215.2,-317.62 211.12,-323.31"/>
</g>
<!-- Node7&#45;&gt;Node6 -->
<g id="edge7" class="edge">
<title>Node7&#45;&gt;Node6</title>
<path fill="none" stroke="midnightblue" d="M193.12,-170.34C160.92,-182.62 120.25,-198.14 94.55,-207.94"/>
<polygon fill="midnightblue" stroke="midnightblue" points="194.71,-173.48 202.81,-166.64 192.22,-166.94 194.71,-173.48"/>
</g>
<!-- Node9&#45;&gt;Node6 -->
<g id="edge10" class="edge">
<title>Node9&#45;&gt;Node6</title>
<path fill="none" stroke="midnightblue" d="M178.2,-231.32C164.85,-229.63 150.75,-227.83 137.28,-226.12"/>
<polygon fill="midnightblue" stroke="midnightblue" points="177.87,-234.81 188.24,-232.6 178.76,-227.87 177.87,-234.81"/>
</g>
<!-- Node11&#45;&gt;Node4 -->
<g id="edge13" class="edge">
<title>Node11&#45;&gt;Node4</title>
<path fill="none" stroke="midnightblue" d="M535.76,-480.51C451.39,-479.23 299.17,-472.44 173,-442.5 142.54,-435.27 109.18,-420.77 88.79,-411.1"/>
<polygon fill="midnightblue" stroke="midnightblue" points="535.91,-484.01 545.95,-480.64 536,-477.01 535.91,-484.01"/>
</g>
<!-- Node11&#45;&gt;Node5 -->
<g id="edge25" class="edge">
<title>Node11&#45;&gt;Node5</title>
<path fill="none" stroke="midnightblue" d="M594.74,-505.61C584.47,-547.72 557.44,-631.77 499,-670.5 468.66,-690.61 236.5,-702.1 126.7,-706.46"/>
<polygon fill="midnightblue" stroke="midnightblue" points="598.21,-506.15 597.05,-495.62 591.39,-504.58 598.21,-506.15"/>
</g>
<!-- Node12 -->
<g id="node12" class="node">
<title>Node12</title>
<g id="a_node12"><a xlink:href="quickjs_8c.html#a36c1692489542a86dd79a7d39ab8ff95" target="_top" xlink:title=" ">
<polygon fill="none" stroke="black" points="377.5,-642 377.5,-661 471.5,-661 471.5,-642 377.5,-642"/>
<text text-anchor="middle" x="424.5" y="-649" font-family="Helvetica,sans-Serif" font-size="10.00">js_array_reduce</text>
</a>
</g>
</g>
<!-- Node11&#45;&gt;Node12 -->
<g id="edge14" class="edge">
<title>Node11&#45;&gt;Node12</title>
<path fill="none" stroke="midnightblue" d="M590.29,-505.34C575.7,-539.34 544.85,-599.86 499,-632.5 490.95,-638.23 481.3,-642.24 471.69,-645.03"/>
<polygon fill="midnightblue" stroke="midnightblue" points="593.69,-506.28 594.29,-495.7 587.22,-503.59 593.69,-506.28"/>
</g>
<!-- Node13 -->
<g id="node13" class="node">
<title>Node13</title>
<g id="a_node13"><a xlink:href="quickjs_8c.html#abe83a22e4d81b08015c382d8f4e7f833" target="_top" xlink:title=" ">
<polygon fill="none" stroke="black" points="350,-604 350,-623 499,-623 499,-604 350,-604"/>
<text text-anchor="middle" x="424.5" y="-611" font-family="Helvetica,sans-Serif" font-size="10.00">js_typed_array_copyWithin</text>
</a>
</g>
</g>
<!-- Node11&#45;&gt;Node13 -->
<g id="edge15" class="edge">
<title>Node11&#45;&gt;Node13</title>
<path fill="none" stroke="midnightblue" d="M585.33,-504.18C567.93,-530.26 536.52,-571.53 499,-594.5 492.71,-598.35 485.65,-601.43 478.46,-603.89"/>
<polygon fill="midnightblue" stroke="midnightblue" points="588.36,-505.94 590.88,-495.65 582.5,-502.12 588.36,-505.94"/>
</g>
<!-- Node14 -->
<g id="node14" class="node">
<title>Node14</title>
<g id="a_node14"><a xlink:href="quickjs_8c.html#a8c18ce4b7a8c97ab520d4d37a1c6fc72" target="_top" xlink:title=" ">
<polygon fill="none" stroke="black" points="362,-414 362,-433 487,-433 487,-414 362,-414"/>
<text text-anchor="middle" x="424.5" y="-421" font-family="Helvetica,sans-Serif" font-size="10.00">js_typed_array_create</text>
</a>
</g>
</g>
<!-- Node11&#45;&gt;Node14 -->
<g id="edge16" class="edge">
<title>Node11&#45;&gt;Node14</title>
<path fill="none" stroke="midnightblue" d="M543.87,-462.16C514.2,-452.47 479,-440.98 454.74,-433.05"/>
<polygon fill="midnightblue" stroke="midnightblue" points="543.1,-465.6 553.7,-465.37 545.28,-458.94 543.1,-465.6"/>
</g>
<!-- Node17 -->
<g id="node17" class="node">
<title>Node17</title>
<g id="a_node17"><a xlink:href="quickjs_8c.html#ae93231189fcdcb0450f2b21c208f293f" target="_top" xlink:title=" ">
<polygon fill="none" stroke="black" points="371.5,-566 371.5,-585 477.5,-585 477.5,-566 371.5,-566"/>
<text text-anchor="middle" x="424.5" y="-573" font-family="Helvetica,sans-Serif" font-size="10.00">js_typed_array_fill</text>
</a>
</g>
</g>
<!-- Node11&#45;&gt;Node17 -->
<g id="edge20" class="edge">
<title>Node11&#45;&gt;Node17</title>
<path fill="none" stroke="midnightblue" d="M576.47,-502.49C557.05,-519.52 528.06,-542.5 499,-556.5 491.04,-560.33 482.22,-563.46 473.52,-565.99"/>
<polygon fill="midnightblue" stroke="midnightblue" points="579.05,-504.87 584.17,-495.59 574.39,-499.65 579.05,-504.87"/>
</g>
<!-- Node18 -->
<g id="node18" class="node">
<title>Node18</title>
<g id="a_node18"><a xlink:href="quickjs_8c.html#a0b8ae7efe63abc1be33d9e828d43ce8d" target="_top" xlink:title=" ">
<polygon fill="none" stroke="black" points="368.5,-528 368.5,-547 480.5,-547 480.5,-528 368.5,-528"/>
<text text-anchor="middle" x="424.5" y="-535" font-family="Helvetica,sans-Serif" font-size="10.00">js_typed_array_find</text>
</a>
</g>
</g>
<!-- Node11&#45;&gt;Node18 -->
<g id="edge21" class="edge">
<title>Node11&#45;&gt;Node18</title>
<path fill="none" stroke="midnightblue" d="M553.25,-499.28C536.3,-505.77 516.92,-512.83 499,-518.5 488.32,-521.88 476.63,-525.11 465.77,-527.92"/>
<polygon fill="midnightblue" stroke="midnightblue" points="554.86,-502.41 562.92,-495.54 552.33,-495.88 554.86,-502.41"/>
</g>
<!-- Node19 -->
<g id="node19" class="node">
<title>Node19</title>
<g id="a_node19"><a xlink:href="quickjs_8c.html#a5552c2701abfaa12a9c9b029a377725d" target="_top" xlink:title=" ">
<polygon fill="none" stroke="black" points="358.5,-490 358.5,-509 490.5,-509 490.5,-490 358.5,-490"/>
<text text-anchor="middle" x="424.5" y="-497" font-family="Helvetica,sans-Serif" font-size="10.00">js_typed_array_indexOf</text>
</a>
</g>
</g>
<!-- Node11&#45;&gt;Node19 -->
<g id="edge22" class="edge">
<title>Node11&#45;&gt;Node19</title>
<path fill="none" stroke="midnightblue" d="M535.76,-487.49C521.08,-489.09 505.48,-490.79 490.76,-492.39"/>
<polygon fill="midnightblue" stroke="midnightblue" points="536.18,-490.97 545.74,-486.41 535.42,-484.01 536.18,-490.97"/>
</g>
<!-- Node20 -->
<g id="node20" class="node">
<title>Node20</title>
<g id="a_node20"><a xlink:href="quickjs_8c.html#aa04ea5aa5c3614856e8cd9843f1ebaa1" target="_top" xlink:title=" ">
<polygon fill="none" stroke="black" points="368.5,-376 368.5,-395 480.5,-395 480.5,-376 368.5,-376"/>
<text text-anchor="middle" x="424.5" y="-383" font-family="Helvetica,sans-Serif" font-size="10.00">js_typed_array_join</text>
</a>
</g>
</g>
<!-- Node11&#45;&gt;Node20 -->
<g id="edge23" class="edge">
<title>Node11&#45;&gt;Node20</title>
<path fill="none" stroke="midnightblue" d="M576.47,-458.51C557.05,-441.48 528.06,-418.5 499,-404.5 491.04,-400.67 482.22,-397.54 473.52,-395.01"/>
<polygon fill="midnightblue" stroke="midnightblue" points="574.39,-461.35 584.17,-465.41 579.05,-456.13 574.39,-461.35"/>
</g>
<!-- Node21 -->
<g id="node21" class="node">
<title>Node21</title>
<g id="a_node21"><a xlink:href="quickjs_8c.html#a1cbe16f416f7695b59db3032a6b76af6" target="_top" xlink:title=" ">
<polygon fill="none" stroke="black" points="359,-338 359,-357 490,-357 490,-338 359,-338"/>
<text text-anchor="middle" x="424.5" y="-345" font-family="Helvetica,sans-Serif" font-size="10.00">js_typed_array_reverse</text>
</a>
</g>
</g>
<!-- Node11&#45;&gt;Node21 -->
<g id="edge24" class="edge">
<title>Node11&#45;&gt;Node21</title>
<path fill="none" stroke="midnightblue" d="M585.33,-456.82C567.93,-430.74 536.52,-389.47 499,-366.5 492.71,-362.65 485.65,-359.57 478.46,-357.11"/>
<polygon fill="midnightblue" stroke="midnightblue" points="582.5,-458.88 590.88,-465.35 588.36,-455.06 582.5,-458.88"/>
</g>
<!-- Node22 -->
<g id="node22" class="node">
<title>Node22</title>
<g id="a_node22"><a xlink:href="quickjs_8c.html#ad24e5f774218bb0d2859db9dc569d118" target="_top" xlink:title=" ">
<polygon fill="none" stroke="black" points="368,-300 368,-319 481,-319 481,-300 368,-300"/>
<text text-anchor="middle" x="424.5" y="-307" font-family="Helvetica,sans-Serif" font-size="10.00">js_typed_array_sort</text>
</a>
</g>
</g>
<!-- Node11&#45;&gt;Node22 -->
<g id="edge26" class="edge">
<title>Node11&#45;&gt;Node22</title>
<path fill="none" stroke="midnightblue" d="M590.29,-455.66C575.7,-421.66 544.85,-361.14 499,-328.5 493.52,-324.6 487.31,-321.5 480.88,-319.04"/>
<polygon fill="midnightblue" stroke="midnightblue" points="587.22,-457.41 594.29,-465.3 593.69,-454.72 587.22,-457.41"/>
</g>
<!-- Node14&#45;&gt;Node3 -->
<g id="edge17" class="edge">
<title>Node14&#45;&gt;Node3</title>
<path fill="none" stroke="midnightblue" d="M361.74,-410.33C357.66,-408.62 353.7,-406.68 350,-404.5 329.96,-392.69 333.47,-379.23 314,-366.5 308.2,-362.71 301.76,-359.41 295.2,-356.56"/>
<polygon fill="midnightblue" stroke="midnightblue" points="360.83,-413.73 371.43,-413.95 363.28,-407.18 360.83,-413.73"/>
</g>
<!-- Node15 -->
<g id="node15" class="node">
<title>Node15</title>
<g id="a_node15"><a xlink:href="quickjs_8c.html#a5f46f50deddd4e3a23da24e8173db28e" target="_top" xlink:title=" ">
<polygon fill="none" stroke="black" points="185,-414 185,-433 302,-433 302,-414 185,-414"/>
<text text-anchor="middle" x="243.5" y="-421" font-family="Helvetica,sans-Serif" font-size="10.00">js_typed_array_from</text>
</a>
</g>
</g>
<!-- Node14&#45;&gt;Node15 -->
<g id="edge18" class="edge">
<title>Node14&#45;&gt;Node15</title>
<path fill="none" stroke="midnightblue" d="M351.79,-423.5C335.35,-423.5 318.07,-423.5 302.3,-423.5"/>
<polygon fill="midnightblue" stroke="midnightblue" points="351.9,-427 361.9,-423.5 351.9,-420 351.9,-427"/>
</g>
<!-- Node16 -->
<g id="node16" class="node">
<title>Node16</title>
<g id="a_node16"><a xlink:href="quickjs_8c.html#a36967d647cc965999043c6cfdeb9e943" target="_top" xlink:title=" ">
<polygon fill="none" stroke="black" points="191.5,-376 191.5,-395 295.5,-395 295.5,-376 191.5,-376"/>
<text text-anchor="middle" x="243.5" y="-383" font-family="Helvetica,sans-Serif" font-size="10.00">js_typed_array_of</text>
</a>
</g>
</g>
<!-- Node14&#45;&gt;Node16 -->
<g id="edge19" class="edge">
<title>Node14&#45;&gt;Node16</title>
<path fill="none" stroke="midnightblue" d="M368.48,-411.82C343.09,-406.43 313.34,-400.11 289.34,-395.02"/>
<polygon fill="midnightblue" stroke="midnightblue" points="367.82,-415.26 378.33,-413.91 369.28,-408.41 367.82,-415.26"/>
</g>
<!-- Node24 -->
<g id="node24" class="node">
<title>Node24</title>
<g id="a_node24"><a xlink:href="quickjs_8c.html#af7649a967804b86dcc5e5e66df32769e" target="_top" xlink:title=" ">
<polygon fill="none" stroke="black" points="370,-6 370,-25 479,-25 479,-6 370,-6"/>
<text text-anchor="middle" x="424.5" y="-13" font-family="Helvetica,sans-Serif" font-size="10.00">js_typed_array_set</text>
</a>
</g>
</g>
<!-- Node23&#45;&gt;Node24 -->
<g id="edge28" class="edge">
<title>Node23&#45;&gt;Node24</title>
<path fill="none" stroke="midnightblue" d="M536.02,-15.5C517.32,-15.5 497.08,-15.5 479.1,-15.5"/>
<polygon fill="midnightblue" stroke="midnightblue" points="536.22,-19 546.22,-15.5 536.22,-12 536.22,-19"/>
</g>
<!-- Node25&#45;&gt;Node5 -->
<g id="edge33" class="edge">
<title>Node25&#45;&gt;Node5</title>
<path fill="none" stroke="midnightblue" d="M530.7,-725.02C424.9,-721.23 225.07,-714.07 126.89,-710.56"/>
<polygon fill="midnightblue" stroke="midnightblue" points="530.83,-728.52 540.94,-725.38 531.08,-721.53 530.83,-728.52"/>
</g>
<!-- Node26 -->
<g id="node26" class="node">
<title>Node26</title>
<g id="a_node26"><a xlink:href="quickjs_8c.html#a1e80be77ffd5dbb921de62f804a26675" target="_top" xlink:title=" ">
<polygon fill="none" stroke="black" points="362,-756.5 362,-786.5 487,-786.5 487,-756.5 362,-756.5"/>
<text text-anchor="start" x="370" y="-774.5" font-family="Helvetica,sans-Serif" font-size="10.00">js_create_typed_array</text>
<text text-anchor="middle" x="424.5" y="-763.5" font-family="Helvetica,sans-Serif" font-size="10.00">_iterator</text>
</a>
</g>
</g>
<!-- Node25&#45;&gt;Node26 -->
<g id="edge32" class="edge">
<title>Node25&#45;&gt;Node26</title>
<path fill="none" stroke="midnightblue" d="M552.31,-739.53C531.61,-744.75 507.14,-750.91 485.25,-756.43"/>
<polygon fill="midnightblue" stroke="midnightblue" points="553.3,-742.89 562.14,-737.05 551.58,-736.1 553.3,-742.89"/>
</g>
</g>
</svg>
        <g id="navigator" transform="translate(0 0)" fill="#404254">
                <rect fill="#f2f5e9" fill-opacity="0.5" stroke="#606060" stroke-width=".5" x="0" y="0" width="60" height="60"/>
                <use id="zoomplus" xlink:href="#zoomPlus" x="17" y="9" onmousedown="handleZoom(evt,'in')"/>
                <use id="zoomminus" xlink:href="#zoomMin" x="42" y="9" onmousedown="handleZoom(evt,'out')"/>
                <use id="reset" xlink:href="#resetDef" x="30" y="36" onmousedown="handleReset()"/>
                <g id="arrowUp" xlink:href="#dirArrow" transform="translate(30 24)" onmousedown="handlePan(0,-1)">
                  <use xlink:href="#rim" fill="#404040">
                        <set attributeName="fill" to="#808080" begin="arrowUp.mouseover" end="arrowUp.mouseout"/>
                  </use>
                  <path fill="none" stroke="white" stroke-width="1.5" d="M0,-3.0v7 M-2.5,-0.5L0,-3.0L2.5,-0.5"/>
                </g>
                <g id="arrowRight" xlink:href="#dirArrow" transform="rotate(90) translate(36 -43)" onmousedown="handlePan(1,0)">
                  <use xlink:href="#rim" fill="#404040">
                        <set attributeName="fill" to="#808080" begin="arrowRight.mouseover" end="arrowRight.mouseout"/>
                  </use>
                  <path fill="none" stroke="white" stroke-width="1.5" d="M0,-3.0v7 M-2.5,-0.5L0,-3.0L2.5,-0.5"/>
                </g>
                <g id="arrowDown" xlink:href="#dirArrow" transform="rotate(180) translate(-30 -48)" onmousedown="handlePan(0,1)">
                  <use xlink:href="#rim" fill="#404040">
                        <set attributeName="fill" to="#808080" begin="arrowDown.mouseover" end="arrowDown.mouseout"/>
                  </use>
                  <path fill="none" stroke="white" stroke-width="1.5" d="M0,-3.0v7 M-2.5,-0.5L0,-3.0L2.5,-0.5"/>
                </g>
                <g id="arrowLeft" xlink:href="#dirArrow" transform="rotate(270) translate(-36 17)" onmousedown="handlePan(-1,0)">
                  <use xlink:href="#rim" fill="#404040">
                        <set attributeName="fill" to="#808080" begin="arrowLeft.mouseover" end="arrowLeft.mouseout"/>
                  </use>
                  <path fill="none" stroke="white" stroke-width="1.5" d="M0,-3.0v7 M-2.5,-0.5L0,-3.0L2.5,-0.5"/>
                </g>
        </g>
        <svg viewBox="0 0 15 15" width="100%" height="30px" preserveAspectRatio="xMaxYMin meet">
         <g id="arrow_out" transform="scale(0.3 0.3)">
          <a xlink:href="quickjs_8c_af894945c3459f86096c1821a0a696934_icgraph_org.svg" target="_base">
           <rect id="button" ry="5" rx="5" y="6" x="6" height="38" width="38"
                fill="#f2f5e9" fill-opacity="0.5" stroke="#606060" stroke-width="1.0"/>
           <path id="arrow"
             d="M 11.500037,31.436501 C 11.940474,20.09759 22.043105,11.32322 32.158766,21.979434 L 37.068811,17.246167 C 37.068811,17.246167 37.088388,32 37.088388,32 L 22.160133,31.978069 C 22.160133,31.978069 26.997745,27.140456 26.997745,27.140456 C 18.528582,18.264221 13.291696,25.230495 11.500037,31.436501 z"
             style="fill:#404040;"/>
          </a>
         </g>
        </svg>
</svg>
