<?xml version="1.0" encoding="UTF-8" standalone="no"?>
<!DOCTYPE svg PUBLIC "-//W3C//DTD SVG 1.1//EN"
 "http://www.w3.org/Graphics/SVG/1.1/DTD/svg11.dtd">
<!-- Generated by graphviz version 2.43.0 (0)
 -->
<!-- Title: JS_ThrowStackOverflow Pages: 1 -->
<svg width="890pt" height="822pt"
 viewBox="0.00 0.00 890.00 822.00" xmlns="http://www.w3.org/2000/svg" xmlns:xlink="http://www.w3.org/1999/xlink">
<g id="graph0" class="graph" transform="scale(1 1) rotate(0) translate(4 818)">
<title>JS_ThrowStackOverflow</title>
<!-- Node1 -->
<g id="node1" class="node">
<title>Node1</title>
<g id="a_node1"><a xlink:title=" ">
<polygon fill="#bfbfbf" stroke="black" points="751,-188.5 751,-207.5 882,-207.5 882,-188.5 751,-188.5"/>
<text text-anchor="middle" x="816.5" y="-195.5" font-family="Helvetica,sans-Serif" font-size="10.00">JS_ThrowStackOverflow</text>
</a>
</g>
</g>
<!-- Node2 -->
<g id="node2" class="node">
<title>Node2</title>
<g id="a_node2"><a xlink:href="quickjs_8c.html#ade71a22dc56e7371392393df663b28b3" target="_top" xlink:title=" ">
<polygon fill="none" stroke="black" points="405.5,-276.5 405.5,-295.5 518.5,-295.5 518.5,-276.5 405.5,-276.5"/>
<text text-anchor="middle" x="462" y="-283.5" font-family="Helvetica,sans-Serif" font-size="10.00">async_func_resume</text>
</a>
</g>
</g>
<!-- Node1&#45;&gt;Node2 -->
<g id="edge1" class="edge">
<title>Node1&#45;&gt;Node2</title>
<path fill="none" stroke="midnightblue" d="M807.61,-217.14C793.92,-247.47 762.6,-305.52 715,-329 659.2,-356.52 634.55,-347.03 575,-329 556.6,-323.43 556.59,-312.78 539,-305 530.42,-301.2 520.94,-298.07 511.67,-295.53"/>
<polygon fill="midnightblue" stroke="midnightblue" points="810.95,-218.24 811.71,-207.68 804.52,-215.46 810.95,-218.24"/>
</g>
<!-- Node21 -->
<g id="node10" class="node">
<title>Node21</title>
<g id="a_node10"><a xlink:href="quickjs_8c.html#a9e94551ddba8762d74eda5127445dbbd" target="_top" xlink:title=" ">
<polygon fill="none" stroke="black" points="591,-535.5 591,-554.5 699,-554.5 699,-535.5 591,-535.5"/>
<text text-anchor="middle" x="645" y="-542.5" font-family="Helvetica,sans-Serif" font-size="10.00">get_proxy_method</text>
</a>
</g>
</g>
<!-- Node1&#45;&gt;Node21 -->
<g id="edge9" class="edge">
<title>Node1&#45;&gt;Node21</title>
<path fill="none" stroke="midnightblue" d="M806.24,-216.95C774.97,-280.97 673.94,-487.8 650.77,-535.24"/>
<polygon fill="midnightblue" stroke="midnightblue" points="809.55,-218.16 810.79,-207.64 803.26,-215.09 809.55,-218.16"/>
</g>
<!-- Node36 -->
<g id="node24" class="node">
<title>Node36</title>
<g id="a_node24"><a xlink:href="quickjs_8c.html#a624282391413d4c5a030adbd8b77aa80" target="_top" xlink:title=" ">
<polygon fill="none" stroke="red" points="575,-282.5 575,-301.5 715,-301.5 715,-282.5 575,-282.5"/>
<text text-anchor="middle" x="645" y="-289.5" font-family="Helvetica,sans-Serif" font-size="10.00">internalize_json_property</text>
</a>
</g>
</g>
<!-- Node1&#45;&gt;Node36 -->
<g id="edge24" class="edge">
<title>Node1&#45;&gt;Node36</title>
<path fill="none" stroke="midnightblue" d="M797.93,-214.36C778.86,-231.3 746.86,-257.42 715,-273 707.3,-276.77 698.74,-279.88 690.34,-282.43"/>
<polygon fill="midnightblue" stroke="midnightblue" points="800.44,-216.81 805.5,-207.51 795.74,-211.62 800.44,-216.81"/>
</g>
<!-- Node47 -->
<g id="node25" class="node">
<title>Node47</title>
<g id="a_node25"><a xlink:href="quickjs_8c.html#afd4ef2d701fa0702f321925b61c57bbf" target="_top" xlink:title=" ">
<polygon fill="none" stroke="black" points="212,-188.5 212,-207.5 340,-207.5 340,-188.5 212,-188.5"/>
<text text-anchor="middle" x="276" y="-195.5" font-family="Helvetica,sans-Serif" font-size="10.00">js_call_bound_function</text>
</a>
</g>
</g>
<!-- Node1&#45;&gt;Node47 -->
<g id="edge26" class="edge">
<title>Node1&#45;&gt;Node47</title>
<path fill="none" stroke="midnightblue" d="M740.77,-198C634.1,-198 440.07,-198 340.17,-198"/>
<polygon fill="midnightblue" stroke="midnightblue" points="740.81,-201.5 750.81,-198 740.81,-194.5 740.81,-201.5"/>
</g>
<!-- Node238 -->
<g id="node26" class="node">
<title>Node238</title>
<g id="a_node26"><a xlink:href="quickjs_8c.html#a3486836f2ac17a9fa315904e14858e5a" target="_top" xlink:title=" ">
<polygon fill="none" stroke="black" points="224.5,-150.5 224.5,-169.5 327.5,-169.5 327.5,-150.5 224.5,-150.5"/>
<text text-anchor="middle" x="276" y="-157.5" font-family="Helvetica,sans-Serif" font-size="10.00">js_call_c_function</text>
</a>
</g>
</g>
<!-- Node1&#45;&gt;Node238 -->
<g id="edge28" class="edge">
<title>Node1&#45;&gt;Node238</title>
<path fill="none" stroke="midnightblue" d="M740.67,-192.72C629.4,-184.87 423.21,-170.32 327.83,-163.59"/>
<polygon fill="midnightblue" stroke="midnightblue" points="740.59,-196.22 750.81,-193.44 741.08,-189.24 740.59,-196.22"/>
</g>
<!-- Node32 -->
<g id="node27" class="node">
<title>Node32</title>
<g id="a_node27"><a xlink:href="quickjs_8c.html#ac2894ff4edcdb4e6841bcce9c76081e3" target="_top" xlink:title=" ">
<polygon fill="none" stroke="red" points="601.5,-226.5 601.5,-245.5 688.5,-245.5 688.5,-226.5 601.5,-226.5"/>
<text text-anchor="middle" x="645" y="-233.5" font-family="Helvetica,sans-Serif" font-size="10.00">JS_CallInternal</text>
</a>
</g>
</g>
<!-- Node1&#45;&gt;Node32 -->
<g id="edge30" class="edge">
<title>Node1&#45;&gt;Node32</title>
<path fill="none" stroke="midnightblue" d="M762.76,-209.82C738.86,-215.18 710.98,-221.43 688.46,-226.48"/>
<polygon fill="midnightblue" stroke="midnightblue" points="763.74,-213.19 772.73,-207.59 762.2,-206.36 763.74,-213.19"/>
</g>
<!-- Node50 -->
<g id="node28" class="node">
<title>Node50</title>
<g id="a_node28"><a xlink:href="quickjs_8c.html#ad90c33b4aae1181151bda4a98ac2ef23" target="_top" xlink:title=" ">
<polygon fill="none" stroke="red" points="590,-94.5 590,-113.5 700,-113.5 700,-94.5 590,-94.5"/>
<text text-anchor="middle" x="645" y="-101.5" font-family="Helvetica,sans-Serif" font-size="10.00">JS_FlattenIntoArray</text>
</a>
</g>
</g>
<!-- Node1&#45;&gt;Node50 -->
<g id="edge33" class="edge">
<title>Node1&#45;&gt;Node50</title>
<path fill="none" stroke="midnightblue" d="M789.15,-183.39C754.06,-163.93 692.96,-130.04 663.23,-113.56"/>
<polygon fill="midnightblue" stroke="midnightblue" points="787.87,-186.68 798.31,-188.47 791.27,-180.56 787.87,-186.68"/>
</g>
<!-- Node62 -->
<g id="node29" class="node">
<title>Node62</title>
<g id="a_node29"><a xlink:href="quickjs_8c.html#a4b8ef2bb3b35e4a5f6ed8bd837a50e7c" target="_top" xlink:title=" ">
<polygon fill="none" stroke="red" points="592.5,-56.5 592.5,-75.5 697.5,-75.5 697.5,-56.5 592.5,-56.5"/>
<text text-anchor="middle" x="645" y="-63.5" font-family="Helvetica,sans-Serif" font-size="10.00">JS_ReadObjectRec</text>
</a>
</g>
</g>
<!-- Node1&#45;&gt;Node62 -->
<g id="edge35" class="edge">
<title>Node1&#45;&gt;Node62</title>
<path fill="none" stroke="midnightblue" d="M804.31,-179.89C787.86,-154.78 754.74,-109.71 715,-85 708.77,-81.13 701.75,-78.03 694.63,-75.56"/>
<polygon fill="midnightblue" stroke="midnightblue" points="801.45,-181.91 809.78,-188.45 807.35,-178.14 801.45,-181.91"/>
</g>
<!-- Node361 -->
<g id="node30" class="node">
<title>Node361</title>
<g id="a_node30"><a xlink:href="quickjs_8c.html#aa9342f7444c1c9f8743d43aa4d7f89e3" target="_top" xlink:title=" ">
<polygon fill="none" stroke="red" points="591.5,-0.5 591.5,-19.5 698.5,-19.5 698.5,-0.5 591.5,-0.5"/>
<text text-anchor="middle" x="645" y="-7.5" font-family="Helvetica,sans-Serif" font-size="10.00">JS_WriteObjectRec</text>
</a>
</g>
</g>
<!-- Node1&#45;&gt;Node361 -->
<g id="edge36" class="edge">
<title>Node1&#45;&gt;Node361</title>
<path fill="none" stroke="midnightblue" d="M806.78,-179.13C791.75,-148.25 758.33,-86.4 715,-47 702.03,-35.2 684.61,-25.9 670.52,-19.57"/>
<polygon fill="midnightblue" stroke="midnightblue" points="803.71,-180.82 811.16,-188.34 810.03,-177.81 803.71,-180.82"/>
</g>
<!-- Node3 -->
<g id="node3" class="node">
<title>Node3</title>
<g id="a_node3"><a xlink:href="quickjs_8c.html#a1bf6b62983e8fff99c0a5d5a9f486115" target="_top" xlink:title=" ">
<polygon fill="none" stroke="black" points="203,-314.5 203,-333.5 349,-333.5 349,-314.5 203,-314.5"/>
<text text-anchor="middle" x="276" y="-321.5" font-family="Helvetica,sans-Serif" font-size="10.00">js_async_function_resume</text>
</a>
</g>
</g>
<!-- Node2&#45;&gt;Node3 -->
<g id="edge2" class="edge">
<title>Node2&#45;&gt;Node3</title>
<path fill="none" stroke="midnightblue" d="M404.44,-297.68C378.35,-303.07 347.76,-309.39 323.1,-314.48"/>
<polygon fill="midnightblue" stroke="midnightblue" points="405.48,-301.04 414.57,-295.59 404.07,-294.18 405.48,-301.04"/>
</g>
<!-- Node11 -->
<g id="node6" class="node">
<title>Node11</title>
<g id="a_node6"><a xlink:href="quickjs_8c.html#ae19867da709929c072f05e90301835a4" target="_top" xlink:title=" ">
<polygon fill="none" stroke="red" points="220.5,-227 220.5,-257 331.5,-257 331.5,-227 220.5,-227"/>
<text text-anchor="start" x="228.5" y="-245" font-family="Helvetica,sans-Serif" font-size="10.00">js_async_generator</text>
<text text-anchor="middle" x="276" y="-234" font-family="Helvetica,sans-Serif" font-size="10.00">_function_call</text>
</a>
</g>
</g>
<!-- Node2&#45;&gt;Node11 -->
<g id="edge5" class="edge">
<title>Node2&#45;&gt;Node11</title>
<path fill="none" stroke="midnightblue" d="M411.21,-274.09C386.56,-268.2 356.76,-261.07 331.51,-255.03"/>
<polygon fill="midnightblue" stroke="midnightblue" points="410.53,-277.53 421.07,-276.45 412.16,-270.72 410.53,-277.53"/>
</g>
<!-- Node12 -->
<g id="node7" class="node">
<title>Node12</title>
<g id="a_node7"><a xlink:href="quickjs_8c.html#a89b019c704a2d2914bc30b30a72040b3" target="_top" xlink:title=" ">
<polygon fill="none" stroke="black" points="220.5,-353 220.5,-383 331.5,-383 331.5,-353 220.5,-353"/>
<text text-anchor="start" x="228.5" y="-371" font-family="Helvetica,sans-Serif" font-size="10.00">js_async_generator</text>
<text text-anchor="middle" x="276" y="-360" font-family="Helvetica,sans-Serif" font-size="10.00">_resume_next</text>
</a>
</g>
</g>
<!-- Node2&#45;&gt;Node12 -->
<g id="edge6" class="edge">
<title>Node2&#45;&gt;Node12</title>
<path fill="none" stroke="midnightblue" d="M397.27,-298.99C393,-300.75 388.87,-302.74 385,-305 364.91,-316.73 368.54,-330.38 349,-343 343.11,-346.8 336.57,-350.1 329.91,-352.95"/>
<polygon fill="midnightblue" stroke="midnightblue" points="398.58,-302.24 406.76,-295.51 396.17,-295.66 398.58,-302.24"/>
</g>
<!-- Node13 -->
<g id="node8" class="node">
<title>Node13</title>
<g id="a_node8"><a xlink:href="quickjs_8c.html#ac90552b1f1659acb3dae9a4c62479a30" target="_top" xlink:title=" ">
<polygon fill="none" stroke="black" points="203.5,-276.5 203.5,-295.5 348.5,-295.5 348.5,-276.5 203.5,-276.5"/>
<text text-anchor="middle" x="276" y="-283.5" font-family="Helvetica,sans-Serif" font-size="10.00">js_generator_function_call</text>
</a>
</g>
</g>
<!-- Node2&#45;&gt;Node13 -->
<g id="edge7" class="edge">
<title>Node2&#45;&gt;Node13</title>
<path fill="none" stroke="midnightblue" d="M395.03,-286C379.94,-286 363.83,-286 348.52,-286"/>
<polygon fill="midnightblue" stroke="midnightblue" points="395.29,-289.5 405.29,-286 395.29,-282.5 395.29,-289.5"/>
</g>
<!-- Node4 -->
<g id="node4" class="node">
<title>Node4</title>
<g id="a_node4"><a xlink:href="quickjs_8c.html#a8029b29b8458274699fbcb7ce42a7100" target="_top" xlink:title=" ">
<polygon fill="none" stroke="red" points="20.5,-295.5 20.5,-314.5 146.5,-314.5 146.5,-295.5 20.5,-295.5"/>
<text text-anchor="middle" x="83.5" y="-302.5" font-family="Helvetica,sans-Serif" font-size="10.00">js_async_function_call</text>
</a>
</g>
</g>
<!-- Node3&#45;&gt;Node4 -->
<g id="edge3" class="edge">
<title>Node3&#45;&gt;Node4</title>
<path fill="none" stroke="midnightblue" d="M192.88,-315.81C177.38,-314.26 161.41,-312.67 146.65,-311.2"/>
<polygon fill="midnightblue" stroke="midnightblue" points="192.68,-319.31 202.98,-316.82 193.38,-312.34 192.68,-319.31"/>
</g>
<!-- Node10 -->
<g id="node5" class="node">
<title>Node10</title>
<g id="a_node5"><a xlink:href="quickjs_8c.html#a2cf6c9a897a2a59d310f3cf18897b639" target="_top" xlink:title=" ">
<polygon fill="none" stroke="red" points="0,-333.5 0,-352.5 167,-352.5 167,-333.5 0,-333.5"/>
<text text-anchor="middle" x="83.5" y="-340.5" font-family="Helvetica,sans-Serif" font-size="10.00">js_async_function_resolve_call</text>
</a>
</g>
</g>
<!-- Node3&#45;&gt;Node10 -->
<g id="edge4" class="edge">
<title>Node3&#45;&gt;Node10</title>
<path fill="none" stroke="midnightblue" d="M193.01,-332.18C184.45,-333.03 175.74,-333.9 167.17,-334.76"/>
<polygon fill="midnightblue" stroke="midnightblue" points="193.38,-335.66 202.98,-331.18 192.68,-328.69 193.38,-335.66"/>
</g>
<!-- Node14 -->
<g id="node9" class="node">
<title>Node14</title>
<g id="a_node9"><a xlink:href="quickjs_8c.html#a27966451027feb455b5da12c1578771c" target="_top" xlink:title=" ">
<polygon fill="none" stroke="red" points="33.5,-188.5 33.5,-207.5 133.5,-207.5 133.5,-188.5 33.5,-188.5"/>
<text text-anchor="middle" x="83.5" y="-195.5" font-family="Helvetica,sans-Serif" font-size="10.00">JS_NewRuntime2</text>
</a>
</g>
</g>
<!-- Node13&#45;&gt;Node14 -->
<g id="edge8" class="edge">
<title>Node13&#45;&gt;Node14</title>
<path fill="none" stroke="midnightblue" d="M223.98,-273.55C216.84,-271.31 209.67,-268.79 203,-266 163.17,-249.35 120.08,-222 98.5,-207.59"/>
<polygon fill="midnightblue" stroke="midnightblue" points="223.07,-276.93 233.65,-276.42 225.07,-270.22 223.07,-276.93"/>
</g>
<!-- Node22 -->
<g id="node11" class="node">
<title>Node22</title>
<g id="a_node11"><a xlink:href="quickjs_8c.html#ab9f916b6a1fda4cec1a1eb6d691ed89c" target="_top" xlink:title=" ">
<polygon fill="none" stroke="red" points="236,-661.5 236,-680.5 316,-680.5 316,-661.5 236,-661.5"/>
<text text-anchor="middle" x="276" y="-668.5" font-family="Helvetica,sans-Serif" font-size="10.00">js_proxy_call</text>
</a>
</g>
</g>
<!-- Node21&#45;&gt;Node22 -->
<g id="edge10" class="edge">
<title>Node21&#45;&gt;Node22</title>
<path fill="none" stroke="midnightblue" d="M635.08,-563.89C620.03,-593.24 586.52,-648.74 539,-671 465.68,-705.34 367.65,-691.93 314.73,-680.56"/>
<polygon fill="midnightblue" stroke="midnightblue" points="638.33,-565.21 639.63,-554.69 632.06,-562.11 638.33,-565.21"/>
</g>
<!-- Node24 -->
<g id="node12" class="node">
<title>Node24</title>
<g id="a_node12"><a xlink:href="quickjs_8c.html#af97646b66d6fcb8bd19543d93baeadd7" target="_top" xlink:title=" ">
<polygon fill="none" stroke="black" points="392,-642.5 392,-661.5 532,-661.5 532,-642.5 392,-642.5"/>
<text text-anchor="middle" x="462" y="-649.5" font-family="Helvetica,sans-Serif" font-size="10.00">js_proxy_call_constructor</text>
</a>
</g>
</g>
<!-- Node21&#45;&gt;Node24 -->
<g id="edge11" class="edge">
<title>Node21&#45;&gt;Node24</title>
<path fill="none" stroke="midnightblue" d="M628.11,-562.07C608.85,-581.75 574.53,-613.74 539,-632 530.63,-636.3 521.25,-639.74 512.01,-642.46"/>
<polygon fill="midnightblue" stroke="midnightblue" points="630.78,-564.34 635.17,-554.7 625.73,-559.49 630.78,-564.34"/>
</g>
<!-- Node25 -->
<g id="node13" class="node">
<title>Node25</title>
<g id="a_node13"><a xlink:href="quickjs_8c.html#a7e5b77a4851eee6f666581d051979392" target="_top" xlink:title=" ">
<polygon fill="none" stroke="black" points="402.5,-593 402.5,-623 521.5,-623 521.5,-593 402.5,-593"/>
<text text-anchor="start" x="410.5" y="-611" font-family="Helvetica,sans-Serif" font-size="10.00">js_proxy_define_own</text>
<text text-anchor="middle" x="462" y="-600" font-family="Helvetica,sans-Serif" font-size="10.00">_property</text>
</a>
</g>
</g>
<!-- Node21&#45;&gt;Node25 -->
<g id="edge13" class="edge">
<title>Node21&#45;&gt;Node25</title>
<path fill="none" stroke="midnightblue" d="M608.7,-558.07C588.37,-565.52 562.31,-574.95 539,-583 529.55,-586.26 519.4,-589.67 509.7,-592.88"/>
<polygon fill="midnightblue" stroke="midnightblue" points="610.01,-561.32 618.18,-554.58 607.59,-554.75 610.01,-561.32"/>
</g>
<!-- Node26 -->
<g id="node14" class="node">
<title>Node26</title>
<g id="a_node14"><a xlink:href="quickjs_8c.html#acffb121a8a0ee2b735f60c1db01e79e7" target="_top" xlink:title=" ">
<polygon fill="none" stroke="black" points="392,-554.5 392,-573.5 532,-573.5 532,-554.5 392,-554.5"/>
<text text-anchor="middle" x="462" y="-561.5" font-family="Helvetica,sans-Serif" font-size="10.00">js_proxy_delete_property</text>
</a>
</g>
</g>
<!-- Node21&#45;&gt;Node26 -->
<g id="edge14" class="edge">
<title>Node21&#45;&gt;Node26</title>
<path fill="none" stroke="midnightblue" d="M580.56,-551.66C564.88,-553.31 548.01,-555.08 532.07,-556.75"/>
<polygon fill="midnightblue" stroke="midnightblue" points="581.09,-555.12 590.67,-550.6 580.36,-548.16 581.09,-555.12"/>
</g>
<!-- Node27 -->
<g id="node15" class="node">
<title>Node27</title>
<g id="a_node15"><a xlink:href="quickjs_8c.html#a45df491949e8e055e732eb13c446d47b" target="_top" xlink:title=" ">
<polygon fill="none" stroke="black" points="422.5,-516.5 422.5,-535.5 501.5,-535.5 501.5,-516.5 422.5,-516.5"/>
<text text-anchor="middle" x="462" y="-523.5" font-family="Helvetica,sans-Serif" font-size="10.00">js_proxy_get</text>
</a>
</g>
</g>
<!-- Node21&#45;&gt;Node27 -->
<g id="edge15" class="edge">
<title>Node21&#45;&gt;Node27</title>
<path fill="none" stroke="midnightblue" d="M580.41,-538.32C554.12,-535.57 524.5,-532.46 501.59,-530.05"/>
<polygon fill="midnightblue" stroke="midnightblue" points="580.36,-541.84 590.67,-539.4 581.09,-534.88 580.36,-541.84"/>
</g>
<!-- Node28 -->
<g id="node16" class="node">
<title>Node28</title>
<g id="a_node16"><a xlink:href="quickjs_8c.html#ab9c2e9c8dab72f3c057efe4ffcced332" target="_top" xlink:title=" ">
<polygon fill="none" stroke="black" points="386.5,-478.5 386.5,-497.5 537.5,-497.5 537.5,-478.5 386.5,-478.5"/>
<text text-anchor="middle" x="462" y="-485.5" font-family="Helvetica,sans-Serif" font-size="10.00">js_proxy_get_own_property</text>
</a>
</g>
</g>
<!-- Node21&#45;&gt;Node28 -->
<g id="edge16" class="edge">
<title>Node21&#45;&gt;Node28</title>
<path fill="none" stroke="midnightblue" d="M610.14,-531.75C589.71,-524 563.06,-514.34 539,-507 527.94,-503.63 515.85,-500.4 504.63,-497.59"/>
<polygon fill="midnightblue" stroke="midnightblue" points="609.04,-535.07 619.63,-535.38 611.54,-528.54 609.04,-535.07"/>
</g>
<!-- Node29 -->
<g id="node17" class="node">
<title>Node29</title>
<g id="a_node17"><a xlink:href="quickjs_8c.html#a438b354d69a8f0674195b0cdc19dd686" target="_top" xlink:title=" ">
<polygon fill="none" stroke="black" points="386.5,-429 386.5,-459 537.5,-459 537.5,-429 386.5,-429"/>
<text text-anchor="start" x="394.5" y="-447" font-family="Helvetica,sans-Serif" font-size="10.00">js_proxy_get_own_property</text>
<text text-anchor="middle" x="462" y="-436" font-family="Helvetica,sans-Serif" font-size="10.00">_names</text>
</a>
</g>
</g>
<!-- Node21&#45;&gt;Node29 -->
<g id="edge17" class="edge">
<title>Node21&#45;&gt;Node29</title>
<path fill="none" stroke="midnightblue" d="M625.34,-528.72C605.2,-511.85 571.62,-485.66 539,-469 531.7,-465.27 523.73,-461.94 515.78,-459.01"/>
<polygon fill="midnightblue" stroke="midnightblue" points="623.22,-531.52 633.1,-535.33 627.75,-526.19 623.22,-531.52"/>
</g>
<!-- Node30 -->
<g id="node18" class="node">
<title>Node30</title>
<g id="a_node18"><a xlink:href="quickjs_8c.html#adda8732f2afb3bb7bd7e5f59e3ba022d" target="_top" xlink:title=" ">
<polygon fill="none" stroke="red" points="393.5,-390.5 393.5,-409.5 530.5,-409.5 530.5,-390.5 393.5,-390.5"/>
<text text-anchor="middle" x="462" y="-397.5" font-family="Helvetica,sans-Serif" font-size="10.00">js_proxy_getPrototypeOf</text>
</a>
</g>
</g>
<!-- Node21&#45;&gt;Node30 -->
<g id="edge18" class="edge">
<title>Node21&#45;&gt;Node30</title>
<path fill="none" stroke="midnightblue" d="M633.88,-526.63C617.63,-498.89 583.01,-446.62 539,-419 532.78,-415.1 525.8,-411.99 518.66,-409.53"/>
<polygon fill="midnightblue" stroke="midnightblue" points="630.86,-528.39 638.85,-535.34 636.94,-524.92 630.86,-528.39"/>
</g>
<!-- Node394 -->
<g id="node19" class="node">
<title>Node394</title>
<g id="a_node19"><a xlink:href="quickjs_8c.html#a1bddfeab11a7cfee6bd88781073b5972" target="_top" xlink:title=" ">
<polygon fill="none" stroke="black" points="422,-352.5 422,-371.5 502,-371.5 502,-352.5 422,-352.5"/>
<text text-anchor="middle" x="462" y="-359.5" font-family="Helvetica,sans-Serif" font-size="10.00">js_proxy_has</text>
</a>
</g>
</g>
<!-- Node21&#45;&gt;Node394 -->
<g id="edge19" class="edge">
<title>Node21&#45;&gt;Node394</title>
<path fill="none" stroke="midnightblue" d="M637.15,-525.61C623.87,-490.97 591.27,-418.56 539,-381 528.29,-373.3 514.78,-368.71 502.14,-365.97"/>
<polygon fill="midnightblue" stroke="midnightblue" points="634.03,-527.27 640.78,-535.44 640.59,-524.84 634.03,-527.27"/>
</g>
<!-- Node601 -->
<g id="node20" class="node">
<title>Node601</title>
<g id="a_node20"><a xlink:href="quickjs_8c.html#a89d3c8659c2a6a62d3528b6b6794b24f" target="_top" xlink:title=" ">
<polygon fill="none" stroke="red" points="401,-314.5 401,-333.5 523,-333.5 523,-314.5 401,-314.5"/>
<text text-anchor="middle" x="462" y="-321.5" font-family="Helvetica,sans-Serif" font-size="10.00">js_proxy_isExtensible</text>
</a>
</g>
</g>
<!-- Node21&#45;&gt;Node601 -->
<g id="edge20" class="edge">
<title>Node21&#45;&gt;Node601</title>
<path fill="none" stroke="midnightblue" d="M639.57,-525.41C629.33,-484.8 600.1,-391.23 539,-343 534.09,-339.12 528.49,-336.03 522.61,-333.55"/>
<polygon fill="midnightblue" stroke="midnightblue" points="636.17,-526.26 641.92,-535.17 642.98,-524.63 636.17,-526.26"/>
</g>
<!-- Node604 -->
<g id="node21" class="node">
<title>Node604</title>
<g id="a_node21"><a xlink:href="quickjs_8c.html#a7be64afafb067c71764032c0708d7aa3" target="_top" xlink:title=" ">
<polygon fill="none" stroke="red" points="385,-794.5 385,-813.5 539,-813.5 539,-794.5 385,-794.5"/>
<text text-anchor="middle" x="462" y="-801.5" font-family="Helvetica,sans-Serif" font-size="10.00">js_proxy_preventExtensions</text>
</a>
</g>
</g>
<!-- Node21&#45;&gt;Node604 -->
<g id="edge21" class="edge">
<title>Node21&#45;&gt;Node604</title>
<path fill="none" stroke="midnightblue" d="M641.31,-564.69C633.95,-610.68 609.13,-725.73 539,-785 534.43,-788.86 529.18,-791.96 523.63,-794.44"/>
<polygon fill="midnightblue" stroke="midnightblue" points="644.81,-564.97 642.82,-554.56 637.88,-563.94 644.81,-564.97"/>
</g>
<!-- Node133 -->
<g id="node22" class="node">
<title>Node133</title>
<g id="a_node22"><a xlink:href="quickjs_8c.html#ad38b16d301e8f3661cf4c115c86511b3" target="_top" xlink:title=" ">
<polygon fill="none" stroke="black" points="423,-756.5 423,-775.5 501,-775.5 501,-756.5 423,-756.5"/>
<text text-anchor="middle" x="462" y="-763.5" font-family="Helvetica,sans-Serif" font-size="10.00">js_proxy_set</text>
</a>
</g>
</g>
<!-- Node21&#45;&gt;Node133 -->
<g id="edge22" class="edge">
<title>Node21&#45;&gt;Node133</title>
<path fill="none" stroke="midnightblue" d="M639.57,-564.59C629.33,-605.2 600.1,-698.77 539,-747 528.32,-755.43 514.39,-760.17 501.38,-762.82"/>
<polygon fill="midnightblue" stroke="midnightblue" points="642.98,-565.37 641.92,-554.83 636.17,-563.74 642.98,-565.37"/>
</g>
<!-- Node607 -->
<g id="node23" class="node">
<title>Node607</title>
<g id="a_node23"><a xlink:href="quickjs_8c.html#ae8b32777df50bb192c19840adc4d32a1" target="_top" xlink:title=" ">
<polygon fill="none" stroke="red" points="393.5,-718.5 393.5,-737.5 530.5,-737.5 530.5,-718.5 393.5,-718.5"/>
<text text-anchor="middle" x="462" y="-725.5" font-family="Helvetica,sans-Serif" font-size="10.00">js_proxy_setPrototypeOf</text>
</a>
</g>
</g>
<!-- Node21&#45;&gt;Node607 -->
<g id="edge23" class="edge">
<title>Node21&#45;&gt;Node607</title>
<path fill="none" stroke="midnightblue" d="M636.55,-563.97C622.53,-597.26 589.03,-666.24 539,-704 530.61,-710.33 520.5,-715.02 510.43,-718.49"/>
<polygon fill="midnightblue" stroke="midnightblue" points="639.88,-565.08 640.42,-554.5 633.4,-562.44 639.88,-565.08"/>
</g>
<!-- Node24&#45;&gt;Node22 -->
<g id="edge12" class="edge">
<title>Node24&#45;&gt;Node22</title>
<path fill="none" stroke="midnightblue" d="M381.96,-660.16C359.22,-662.51 335.4,-664.97 316.21,-666.95"/>
<polygon fill="midnightblue" stroke="midnightblue" points="382.37,-663.64 391.96,-659.13 381.66,-656.67 382.37,-663.64"/>
</g>
<!-- Node36&#45;&gt;Node36 -->
<g id="edge25" class="edge">
<title>Node36&#45;&gt;Node36</title>
<path fill="none" stroke="midnightblue" d="M676.81,-310.27C675.9,-315.74 665.3,-320 645,-320 614.79,-320 606.05,-310.57 618.8,-301.76"/>
<polygon fill="midnightblue" stroke="midnightblue" points="679.63,-308.18 671.2,-301.76 673.78,-312.03 679.63,-308.18"/>
</g>
<!-- Node47&#45;&gt;Node14 -->
<g id="edge27" class="edge">
<title>Node47&#45;&gt;Node14</title>
<path fill="none" stroke="midnightblue" d="M201.53,-198C178.79,-198 154.3,-198 133.63,-198"/>
<polygon fill="midnightblue" stroke="midnightblue" points="201.83,-201.5 211.83,-198 201.83,-194.5 201.83,-201.5"/>
</g>
<!-- Node238&#45;&gt;Node14 -->
<g id="edge29" class="edge">
<title>Node238&#45;&gt;Node14</title>
<path fill="none" stroke="midnightblue" d="M216.8,-171.61C189.71,-177.01 157.87,-183.36 132.23,-188.48"/>
<polygon fill="midnightblue" stroke="midnightblue" points="217.81,-174.98 226.93,-169.59 216.44,-168.11 217.81,-174.98"/>
</g>
<!-- Node32&#45;&gt;Node2 -->
<g id="edge31" class="edge">
<title>Node32&#45;&gt;Node2</title>
<path fill="none" stroke="midnightblue" d="M599.71,-248.24C568.27,-256.92 526.67,-268.41 497.65,-276.43"/>
<polygon fill="midnightblue" stroke="midnightblue" points="600.82,-251.56 609.53,-245.52 598.96,-244.81 600.82,-251.56"/>
</g>
<!-- Node32&#45;&gt;Node32 -->
<g id="edge32" class="edge">
<title>Node32&#45;&gt;Node32</title>
<path fill="none" stroke="midnightblue" d="M676.81,-254.27C675.9,-259.74 665.3,-264 645,-264 614.79,-264 606.05,-254.57 618.8,-245.76"/>
<polygon fill="midnightblue" stroke="midnightblue" points="679.63,-252.18 671.2,-245.76 673.78,-256.03 679.63,-252.18"/>
</g>
<!-- Node50&#45;&gt;Node50 -->
<g id="edge34" class="edge">
<title>Node50&#45;&gt;Node50</title>
<path fill="none" stroke="midnightblue" d="M676.81,-122.27C675.9,-127.74 665.3,-132 645,-132 614.79,-132 606.05,-122.57 618.8,-113.76"/>
<polygon fill="midnightblue" stroke="midnightblue" points="679.63,-120.18 671.2,-113.76 673.78,-124.03 679.63,-120.18"/>
</g>
<!-- Node361&#45;&gt;Node361 -->
<g id="edge37" class="edge">
<title>Node361&#45;&gt;Node361</title>
<path fill="none" stroke="midnightblue" d="M676.81,-28.27C675.9,-33.74 665.3,-38 645,-38 614.79,-38 606.05,-28.57 618.8,-19.76"/>
<polygon fill="midnightblue" stroke="midnightblue" points="679.63,-26.18 671.2,-19.76 673.78,-30.03 679.63,-26.18"/>
</g>
</g>
</svg>
