<?xml version="1.0" encoding="UTF-8" standalone="no"?>
<!DOCTYPE svg PUBLIC "-//W3C//DTD SVG 1.1//EN"
 "http://www.w3.org/Graphics/SVG/1.1/DTD/svg11.dtd">
<!-- Generated by graphviz version 2.43.0 (0)
 -->
<!-- Title: js_array_find Pages: 1 -->
<svg width="816pt" height="1128pt"
 viewBox="0.00 0.00 816.00 1127.70" xmlns="http://www.w3.org/2000/svg" xmlns:xlink="http://www.w3.org/1999/xlink">
<g id="graph0" class="graph" transform="scale(1 1) rotate(0) translate(4 1123.7)">
<title>js_array_find</title>
<!-- Node1 -->
<g id="node1" class="node">
<title>Node1</title>
<g id="a_node1"><a xlink:title=" ">
<polygon fill="#bfbfbf" stroke="black" points="0,-634.2 0,-653.2 79,-653.2 79,-634.2 0,-634.2"/>
<text text-anchor="middle" x="39.5" y="-641.2" font-family="Helvetica,sans-Serif" font-size="10.00">js_array_find</text>
</a>
</g>
</g>
<!-- Node2 -->
<g id="node2" class="node">
<title>Node2</title>
<g id="a_node2"><a xlink:href="quickjs_8c.html#a59a7e992f228759bf0a56f0aae4f3cc3" target="_top" xlink:title=" ">
<polygon fill="none" stroke="black" points="115,-1100.2 115,-1119.2 205,-1119.2 205,-1100.2 115,-1100.2"/>
<text text-anchor="middle" x="160" y="-1107.2" font-family="Helvetica,sans-Serif" font-size="10.00">check_function</text>
</a>
</g>
</g>
<!-- Node1&#45;&gt;Node2 -->
<g id="edge1" class="edge">
<title>Node1&#45;&gt;Node2</title>
<path fill="none" stroke="midnightblue" d="M41,-653.43C44.15,-711.52 62.83,-1012.51 115,-1085.7 117.38,-1089.03 120.36,-1091.95 123.66,-1094.49"/>
<polygon fill="midnightblue" stroke="midnightblue" points="122,-1097.59 132.31,-1100.07 125.8,-1091.71 122,-1097.59"/>
</g>
<!-- Node4 -->
<g id="node4" class="node">
<title>Node4</title>
<g id="a_node4"><a xlink:href="quickjs_8c.html#a1a4c02a29525d5cb2085dd8bca3af350" target="_top" xlink:title=" ">
<polygon fill="none" stroke="black" points="135,-606.2 135,-625.2 185,-625.2 185,-606.2 135,-606.2"/>
<text text-anchor="middle" x="160" y="-613.2" font-family="Helvetica,sans-Serif" font-size="10.00">JS_Call</text>
</a>
</g>
</g>
<!-- Node1&#45;&gt;Node4 -->
<g id="edge3" class="edge">
<title>Node1&#45;&gt;Node4</title>
<path fill="none" stroke="midnightblue" d="M79.3,-634.53C94.08,-631.04 110.78,-627.09 125.07,-623.72"/>
<polygon fill="midnightblue" stroke="midnightblue" points="126.06,-627.08 134.98,-621.37 124.45,-620.27 126.06,-627.08"/>
</g>
<!-- Node59 -->
<g id="node12" class="node">
<title>Node59</title>
<g id="a_node12"><a xlink:href="quickjs_8h.html#afaa20c47565bc704c6c85f3d77254e7d" target="_top" xlink:title=" ">
<polygon fill="none" stroke="red" points="706,-948.2 706,-967.2 785,-967.2 785,-948.2 706,-948.2"/>
<text text-anchor="middle" x="745.5" y="-955.2" font-family="Helvetica,sans-Serif" font-size="10.00">JS_FreeValue</text>
</a>
</g>
</g>
<!-- Node1&#45;&gt;Node59 -->
<g id="edge55" class="edge">
<title>Node1&#45;&gt;Node59</title>
<path fill="none" stroke="midnightblue" d="M41.21,-653.44C46.43,-717.15 84.41,-1071.7 283.5,-1071.7 283.5,-1071.7 283.5,-1071.7 423,-1071.7 523.98,-1071.7 554.6,-1074.42 647,-1033.7 679.19,-1019.51 710.13,-992.34 728.22,-974.62"/>
<polygon fill="midnightblue" stroke="midnightblue" points="731.01,-976.78 735.59,-967.23 726.05,-971.84 731.01,-976.78"/>
</g>
<!-- Node77 -->
<g id="node14" class="node">
<title>Node77</title>
<g id="a_node14"><a xlink:href="quickjs_8h.html#ad80a83d73e9b7d872b88fbf2943aebe9" target="_top" xlink:title=" ">
<polygon fill="none" stroke="black" points="702,-568.2 702,-587.2 789,-587.2 789,-568.2 702,-568.2"/>
<text text-anchor="middle" x="745.5" y="-575.2" font-family="Helvetica,sans-Serif" font-size="10.00">JS_IsException</text>
</a>
</g>
</g>
<!-- Node1&#45;&gt;Node77 -->
<g id="edge62" class="edge">
<title>Node1&#45;&gt;Node77</title>
<path fill="none" stroke="midnightblue" d="M40.69,-634.03C42.57,-565.82 63.01,-159.7 283.5,-159.7 283.5,-159.7 283.5,-159.7 423,-159.7 522.91,-159.7 574.26,-110.2 647,-178.7 687.38,-216.72 668.49,-372.16 683,-425.7 696.46,-475.37 721.58,-530.7 735.18,-558.91"/>
<polygon fill="midnightblue" stroke="midnightblue" points="732.1,-560.57 739.63,-568.02 738.39,-557.5 732.1,-560.57"/>
</g>
<!-- Node78 -->
<g id="node17" class="node">
<title>Node78</title>
<g id="a_node17"><a xlink:href="quickjs_8h.html#a2050bc428da1c65ac7eb87c3fa3b0392" target="_top" xlink:title=" ">
<polygon fill="none" stroke="black" points="707,-302.2 707,-321.2 784,-321.2 784,-302.2 707,-302.2"/>
<text text-anchor="middle" x="745.5" y="-309.2" font-family="Helvetica,sans-Serif" font-size="10.00">JS_NewInt32</text>
</a>
</g>
</g>
<!-- Node1&#45;&gt;Node78 -->
<g id="edge63" class="edge">
<title>Node1&#45;&gt;Node78</title>
<path fill="none" stroke="midnightblue" d="M40.95,-633.92C43.83,-574.16 61.48,-258.26 115,-180.7 164.08,-109.58 197.09,-83.7 283.5,-83.7 283.5,-83.7 283.5,-83.7 423,-83.7 525.41,-83.7 565.37,-75.86 647,-137.7 653.99,-143 711.02,-248.96 734.48,-292.88"/>
<polygon fill="midnightblue" stroke="midnightblue" points="731.4,-294.54 739.19,-301.71 737.57,-291.24 731.4,-294.54"/>
</g>
<!-- Node136 -->
<g id="node23" class="node">
<title>Node136</title>
<g id="a_node23"><a xlink:href="quickjs_8c.html#a90d6e607f6917d817c1e997bd2e6ed07" target="_top" xlink:title=" ">
<polygon fill="none" stroke="black" points="364,-302.2 364,-321.2 480,-321.2 480,-302.2 364,-302.2"/>
<text text-anchor="middle" x="422" y="-309.2" font-family="Helvetica,sans-Serif" font-size="10.00">JS_GetPropertyValue</text>
</a>
</g>
</g>
<!-- Node1&#45;&gt;Node136 -->
<g id="edge61" class="edge">
<title>Node1&#45;&gt;Node136</title>
<path fill="none" stroke="midnightblue" d="M49.74,-634.08C87,-595.55 230.59,-449.57 364,-347.7 373.83,-340.19 385.25,-332.75 395.28,-326.6"/>
<polygon fill="midnightblue" stroke="midnightblue" points="397.25,-329.5 404.02,-321.34 393.64,-323.5 397.25,-329.5"/>
</g>
<!-- Node225 -->
<g id="node26" class="node">
<title>Node225</title>
<g id="a_node26"><a xlink:href="quickjs_8c.html#a2bf30c9cddfe98a32535843202495069" target="_top" xlink:title=" ">
<polygon fill="none" stroke="black" points="380,-1024.2 380,-1043.2 464,-1043.2 464,-1024.2 380,-1024.2"/>
<text text-anchor="middle" x="422" y="-1031.2" font-family="Helvetica,sans-Serif" font-size="10.00">JS_ToBoolFree</text>
</a>
</g>
</g>
<!-- Node1&#45;&gt;Node225 -->
<g id="edge67" class="edge">
<title>Node1&#45;&gt;Node225</title>
<path fill="none" stroke="midnightblue" d="M43.43,-653.29C51.6,-678.99 76.64,-750.83 115,-799.7 196.76,-903.85 335.07,-986.86 393.57,-1019.14"/>
<polygon fill="midnightblue" stroke="midnightblue" points="392.12,-1022.33 402.57,-1024.05 395.47,-1016.19 392.12,-1022.33"/>
</g>
<!-- Node280 -->
<g id="node27" class="node">
<title>Node280</title>
<g id="a_node27"><a xlink:href="quickjs_8c.html#a710289a14c2810467e5b448d3c28bd55" target="_top" xlink:title=" ">
<polygon fill="none" stroke="red" points="385.5,-910.2 385.5,-929.2 458.5,-929.2 458.5,-910.2 385.5,-910.2"/>
<text text-anchor="middle" x="422" y="-917.2" font-family="Helvetica,sans-Serif" font-size="10.00">JS_ToObject</text>
</a>
</g>
</g>
<!-- Node1&#45;&gt;Node280 -->
<g id="edge68" class="edge">
<title>Node1&#45;&gt;Node280</title>
<path fill="none" stroke="midnightblue" d="M53.6,-653.2C109.61,-693.83 329.37,-853.23 399.42,-904.05"/>
<polygon fill="midnightblue" stroke="midnightblue" points="397.41,-906.91 407.56,-909.95 401.52,-901.25 397.41,-906.91"/>
</g>
<!-- Node437 -->
<g id="node28" class="node">
<title>Node437</title>
<g id="a_node28"><a xlink:href="quickjs_8c.html#a5f848f76409193212a44e6221e430919" target="_top" xlink:title=" ">
<polygon fill="none" stroke="black" points="375,-948.2 375,-967.2 469,-967.2 469,-948.2 375,-948.2"/>
<text text-anchor="middle" x="422" y="-955.2" font-family="Helvetica,sans-Serif" font-size="10.00">js_get_length64</text>
</a>
</g>
</g>
<!-- Node1&#45;&gt;Node437 -->
<g id="edge56" class="edge">
<title>Node1&#45;&gt;Node437</title>
<path fill="none" stroke="midnightblue" d="M46.57,-653.23C58.44,-671.5 86.12,-712.25 115,-741.7 213.81,-842.44 239.86,-871.6 364,-938.7 367.93,-940.82 372.13,-942.76 376.41,-944.53"/>
<polygon fill="midnightblue" stroke="midnightblue" points="375.24,-947.83 385.83,-948.11 377.73,-941.28 375.24,-947.83"/>
</g>
<!-- Node273 -->
<g id="node30" class="node">
<title>Node273</title>
<g id="a_node30"><a xlink:href="quickjs_8h.html#a6acbc709e59969eac6775f9b253b438f" target="_top" xlink:title=" ">
<polygon fill="none" stroke="black" points="543,-36.2 543,-55.2 620,-55.2 620,-36.2 543,-36.2"/>
<text text-anchor="middle" x="581.5" y="-43.2" font-family="Helvetica,sans-Serif" font-size="10.00">JS_NewInt64</text>
</a>
</g>
</g>
<!-- Node1&#45;&gt;Node273 -->
<g id="edge64" class="edge">
<title>Node1&#45;&gt;Node273</title>
<path fill="none" stroke="midnightblue" d="M41.02,-634.02C45,-561.88 71.58,-109.88 115,-69.7 234.39,40.77 453.27,-7.44 541.81,-33.25"/>
<polygon fill="midnightblue" stroke="midnightblue" points="540.87,-36.62 551.45,-36.12 542.87,-29.91 540.87,-36.62"/>
</g>
<!-- Node3 -->
<g id="node3" class="node">
<title>Node3</title>
<g id="a_node3"><a xlink:href="quickjs_8c.html#a1ca9cdb1fa2ffc3e6506e92b200e490f" target="_top" xlink:title=" ">
<polygon fill="none" stroke="black" points="244.5,-1100.2 244.5,-1119.2 324.5,-1119.2 324.5,-1100.2 244.5,-1100.2"/>
<text text-anchor="middle" x="284.5" y="-1107.2" font-family="Helvetica,sans-Serif" font-size="10.00">JS_IsFunction</text>
</a>
</g>
</g>
<!-- Node2&#45;&gt;Node3 -->
<g id="edge2" class="edge">
<title>Node2&#45;&gt;Node3</title>
<path fill="none" stroke="midnightblue" d="M205.23,-1109.7C214.59,-1109.7 224.52,-1109.7 234.06,-1109.7"/>
<polygon fill="midnightblue" stroke="midnightblue" points="234.21,-1113.2 244.21,-1109.7 234.21,-1106.2 234.21,-1113.2"/>
</g>
<!-- Node5 -->
<g id="node5" class="node">
<title>Node5</title>
<g id="a_node5"><a xlink:href="quickjs_8c.html#ac2894ff4edcdb4e6841bcce9c76081e3" target="_top" xlink:title=" ">
<polygon fill="none" stroke="red" points="241,-606.2 241,-625.2 328,-625.2 328,-606.2 241,-606.2"/>
<text text-anchor="middle" x="284.5" y="-613.2" font-family="Helvetica,sans-Serif" font-size="10.00">JS_CallInternal</text>
</a>
</g>
</g>
<!-- Node4&#45;&gt;Node5 -->
<g id="edge4" class="edge">
<title>Node4&#45;&gt;Node5</title>
<path fill="none" stroke="midnightblue" d="M185.2,-610.19C198.24,-609.18 214.87,-608.79 230.73,-609.01"/>
<polygon fill="midnightblue" stroke="midnightblue" points="230.92,-612.51 240.99,-609.24 231.08,-605.51 230.92,-612.51"/>
</g>
<!-- Node5&#45;&gt;Node4 -->
<g id="edge24" class="edge">
<title>Node5&#45;&gt;Node4</title>
<path fill="none" stroke="midnightblue" d="M240.99,-622.16C226.12,-622.63 209.62,-622.53 195.48,-621.84"/>
<polygon fill="midnightblue" stroke="midnightblue" points="195.4,-618.33 185.2,-621.2 194.97,-625.31 195.4,-618.33"/>
</g>
<!-- Node5&#45;&gt;Node5 -->
<g id="edge25" class="edge">
<title>Node5&#45;&gt;Node5</title>
<path fill="none" stroke="midnightblue" d="M265.39,-625.46C256.09,-634.26 262.46,-643.7 284.5,-643.7 298.62,-643.7 306.31,-639.83 307.57,-634.73"/>
<polygon fill="midnightblue" stroke="midnightblue" points="310.75,-633.28 303.61,-625.46 304.31,-636.03 310.75,-633.28"/>
</g>
<!-- Node6 -->
<g id="node6" class="node">
<title>Node6</title>
<g id="a_node6"><a xlink:href="quickjs_8c.html#a853f0924d441ea4225488f37c8b69f9a" target="_top" xlink:title=" ">
<polygon fill="none" stroke="black" points="541.5,-568.2 541.5,-587.2 621.5,-587.2 621.5,-568.2 541.5,-568.2"/>
<text text-anchor="middle" x="581.5" y="-575.2" font-family="Helvetica,sans-Serif" font-size="10.00">__attribute__</text>
</a>
</g>
</g>
<!-- Node5&#45;&gt;Node6 -->
<g id="edge5" class="edge">
<title>Node5&#45;&gt;Node6</title>
<path fill="none" stroke="midnightblue" d="M294.52,-606.09C308.07,-592.44 335.17,-568.06 364,-558.7 423.93,-539.24 497.8,-553.25 541.92,-565.35"/>
<polygon fill="midnightblue" stroke="midnightblue" points="541.09,-568.75 551.67,-568.12 543.01,-562.02 541.09,-568.75"/>
</g>
<!-- Node7 -->
<g id="node7" class="node">
<title>Node7</title>
<g id="a_node7"><a xlink:href="quickjs_8c.html#a877fcb7651d95b411ce70e62b7f4a1f0" target="_top" xlink:title=" ">
<polygon fill="none" stroke="black" points="683,-397.2 683,-416.2 808,-416.2 808,-397.2 683,-397.2"/>
<text text-anchor="middle" x="745.5" y="-404.2" font-family="Helvetica,sans-Serif" font-size="10.00">__JS_AtomFromUInt32</text>
</a>
</g>
</g>
<!-- Node5&#45;&gt;Node7 -->
<g id="edge6" class="edge">
<title>Node5&#45;&gt;Node7</title>
<path fill="none" stroke="midnightblue" d="M286.08,-605.96C288.6,-573.52 301.45,-468.5 364,-421.7 465.11,-346.05 627.18,-374.94 702.94,-394.48"/>
<polygon fill="midnightblue" stroke="midnightblue" points="702.48,-397.98 713.04,-397.17 704.28,-391.22 702.48,-397.98"/>
</g>
<!-- Node8 -->
<g id="node8" class="node">
<title>Node8</title>
<g id="a_node8"><a xlink:href="quickjs_8h.html#a9bf98b18de88b4199910a43e933eb97d" target="_top" xlink:title=" ">
<polygon fill="none" stroke="black" points="695.5,-169.2 695.5,-188.2 795.5,-188.2 795.5,-169.2 695.5,-169.2"/>
<text text-anchor="middle" x="745.5" y="-176.2" font-family="Helvetica,sans-Serif" font-size="10.00">__JS_NewFloat64</text>
</a>
</g>
</g>
<!-- Node5&#45;&gt;Node8 -->
<g id="edge7" class="edge">
<title>Node5&#45;&gt;Node8</title>
<path fill="none" stroke="midnightblue" d="M285.99,-605.86C288.96,-549.73 306.54,-270.43 364,-211.7 452.76,-120.98 621.5,-147.47 701,-166.61"/>
<polygon fill="midnightblue" stroke="midnightblue" points="700.61,-170.12 711.16,-169.14 702.3,-163.33 700.61,-170.12"/>
</g>
<!-- Node9 -->
<g id="node9" class="node">
<title>Node9</title>
<g id="a_node9"><a xlink:href="quickjs_8c.html#a74547db03bf739a52c83a326b32db997" target="_top" xlink:title=" ">
<polygon fill="none" stroke="red" points="381.5,-758.2 381.5,-777.2 462.5,-777.2 462.5,-758.2 381.5,-758.2"/>
<text text-anchor="middle" x="422" y="-765.2" font-family="Helvetica,sans-Serif" font-size="10.00">add_property</text>
</a>
</g>
</g>
<!-- Node5&#45;&gt;Node9 -->
<g id="edge8" class="edge">
<title>Node5&#45;&gt;Node9</title>
<path fill="none" stroke="midnightblue" d="M288.52,-625.32C296.63,-649.65 321.25,-714.15 364,-748.7 366.56,-750.76 369.35,-752.61 372.27,-754.26"/>
<polygon fill="midnightblue" stroke="midnightblue" points="370.84,-757.45 381.37,-758.63 373.87,-751.14 370.84,-757.45"/>
</g>
<!-- Node67 -->
<g id="node10" class="node">
<title>Node67</title>
<g id="a_node10"><a xlink:href="quickjs_8c.html#a4956f45ffd2849b96dc051277264f87a" target="_top" xlink:title=" ">
<polygon fill="none" stroke="red" points="381,-568.2 381,-587.2 463,-587.2 463,-568.2 381,-568.2"/>
<text text-anchor="middle" x="422" y="-575.2" font-family="Helvetica,sans-Serif" font-size="10.00">build_arg_list</text>
</a>
</g>
</g>
<!-- Node5&#45;&gt;Node67 -->
<g id="edge9" class="edge">
<title>Node5&#45;&gt;Node67</title>
<path fill="none" stroke="midnightblue" d="M319.69,-606.11C337.1,-601.23 358.47,-595.23 377.09,-590.01"/>
<polygon fill="midnightblue" stroke="midnightblue" points="378.14,-593.35 386.82,-587.28 376.24,-586.61 378.14,-593.35"/>
</g>
<!-- Node68 -->
<g id="node11" class="node">
<title>Node68</title>
<g id="a_node11"><a xlink:href="quickjs_8c.html#ac864482356b3efc2d0b0a509fcfa4c7c" target="_top" xlink:title=" ">
<polygon fill="none" stroke="red" points="543,-758.2 543,-777.2 620,-777.2 620,-758.2 543,-758.2"/>
<text text-anchor="middle" x="581.5" y="-765.2" font-family="Helvetica,sans-Serif" font-size="10.00">free_arg_list</text>
</a>
</g>
</g>
<!-- Node5&#45;&gt;Node68 -->
<g id="edge22" class="edge">
<title>Node5&#45;&gt;Node68</title>
<path fill="none" stroke="midnightblue" d="M287.64,-625.49C296.17,-663.52 328.95,-800.42 364,-824.7 406.38,-854.05 432.64,-845.07 480,-824.7 501.37,-815.51 496.16,-798.85 516,-786.7 521.36,-783.42 527.31,-780.68 533.38,-778.39"/>
<polygon fill="midnightblue" stroke="midnightblue" points="534.57,-781.68 542.93,-775.17 532.33,-775.05 534.57,-781.68"/>
</g>
<!-- Node5&#45;&gt;Node59 -->
<g id="edge29" class="edge">
<title>Node5&#45;&gt;Node59</title>
<path fill="none" stroke="midnightblue" d="M286.03,-625.36C289.12,-678.11 306.82,-930.62 364,-976.7 413.71,-1016.76 604.84,-985.59 695.82,-967.84"/>
<polygon fill="midnightblue" stroke="midnightblue" points="696.75,-971.23 705.88,-965.86 695.39,-964.36 696.75,-971.23"/>
</g>
<!-- Node38 -->
<g id="node13" class="node">
<title>Node38</title>
<g id="a_node13"><a xlink:href="quickjs_8h.html#a775522f2d084fc8fa0fcb33f390006b4" target="_top" xlink:title=" ">
<polygon fill="none" stroke="black" points="543,-644.2 543,-663.2 620,-663.2 620,-644.2 543,-644.2"/>
<text text-anchor="middle" x="581.5" y="-651.2" font-family="Helvetica,sans-Serif" font-size="10.00">JS_DupValue</text>
</a>
</g>
</g>
<!-- Node5&#45;&gt;Node38 -->
<g id="edge27" class="edge">
<title>Node5&#45;&gt;Node38</title>
<path fill="none" stroke="midnightblue" d="M328.13,-618.76C367.62,-621.86 427.94,-627.25 480,-634.7 497.32,-637.18 516.2,-640.56 532.87,-643.79"/>
<polygon fill="midnightblue" stroke="midnightblue" points="532.44,-647.27 542.93,-645.77 533.79,-640.4 532.44,-647.27"/>
</g>
<!-- Node5&#45;&gt;Node77 -->
<g id="edge44" class="edge">
<title>Node5&#45;&gt;Node77</title>
<path fill="none" stroke="midnightblue" d="M292.35,-605.96C304.54,-589.59 331.76,-557.11 364,-544.7 484.31,-498.36 641.36,-541.45 709.94,-564.85"/>
<polygon fill="midnightblue" stroke="midnightblue" points="708.81,-568.16 719.4,-568.15 711.11,-561.55 708.81,-568.16"/>
</g>
<!-- Node162 -->
<g id="node15" class="node">
<title>Node162</title>
<g id="a_node15"><a xlink:href="quickjs_8c.html#a61c8dfb5e807af1b6ff7d8ca61576dda" target="_top" xlink:title=" ">
<polygon fill="none" stroke="red" points="375,-644.2 375,-663.2 469,-663.2 469,-644.2 375,-644.2"/>
<text text-anchor="middle" x="422" y="-651.2" font-family="Helvetica,sans-Serif" font-size="10.00">build_backtrace</text>
</a>
</g>
</g>
<!-- Node5&#45;&gt;Node162 -->
<g id="edge15" class="edge">
<title>Node5&#45;&gt;Node162</title>
<path fill="none" stroke="midnightblue" d="M319.69,-625.29C337.1,-630.17 358.47,-636.16 377.09,-641.38"/>
<polygon fill="midnightblue" stroke="midnightblue" points="376.24,-644.78 386.82,-644.11 378.14,-638.04 376.24,-644.78"/>
</g>
<!-- Node179 -->
<g id="node16" class="node">
<title>Node179</title>
<g id="a_node16"><a xlink:href="quickjs_8c.html#a0a8765bd4012467d9139bc24aabcb3ca" target="_top" xlink:title=" ">
<polygon fill="none" stroke="red" points="516,-796.2 516,-815.2 647,-815.2 647,-796.2 516,-796.2"/>
<text text-anchor="middle" x="581.5" y="-803.2" font-family="Helvetica,sans-Serif" font-size="10.00">JS_DefinePropertyValue</text>
</a>
</g>
</g>
<!-- Node5&#45;&gt;Node179 -->
<g id="edge26" class="edge">
<title>Node5&#45;&gt;Node179</title>
<path fill="none" stroke="midnightblue" d="M288.04,-625.3C299.26,-667.35 344.69,-833.85 364,-847.7 405.89,-877.75 429.82,-859.54 480,-847.7 497.41,-843.59 499.59,-836.83 516,-829.7 524.77,-825.89 534.36,-822.11 543.41,-818.72"/>
<polygon fill="midnightblue" stroke="midnightblue" points="544.76,-821.95 552.94,-815.22 542.34,-815.39 544.76,-821.95"/>
</g>
<!-- Node5&#45;&gt;Node78 -->
<g id="edge45" class="edge">
<title>Node5&#45;&gt;Node78</title>
<path fill="none" stroke="midnightblue" d="M287.99,-606.01C299.19,-562.78 345.15,-388.86 364,-372.7 370.31,-367.29 596,-333.54 696.76,-318.69"/>
<polygon fill="midnightblue" stroke="midnightblue" points="697.3,-322.15 706.68,-317.23 696.28,-315.22 697.3,-322.15"/>
</g>
<!-- Node249 -->
<g id="node18" class="node">
<title>Node249</title>
<g id="a_node18"><a xlink:href="quickjs_8c.html#a344894112559c2ba75043fd10bcfa02f" target="_top" xlink:title=" ">
<polygon fill="none" stroke="red" points="371.5,-796.2 371.5,-815.2 472.5,-815.2 472.5,-796.2 371.5,-796.2"/>
<text text-anchor="middle" x="422" y="-803.2" font-family="Helvetica,sans-Serif" font-size="10.00">close_lexical_var</text>
</a>
</g>
</g>
<!-- Node5&#45;&gt;Node249 -->
<g id="edge19" class="edge">
<title>Node5&#45;&gt;Node249</title>
<path fill="none" stroke="midnightblue" d="M287.17,-625.43C292.63,-654.35 312.69,-740.68 364,-786.7 365.9,-788.4 367.96,-789.96 370.13,-791.37"/>
<polygon fill="midnightblue" stroke="midnightblue" points="368.49,-794.47 378.95,-796.17 371.84,-788.32 368.49,-794.47"/>
</g>
<!-- Node250 -->
<g id="node19" class="node">
<title>Node250</title>
<g id="a_node19"><a xlink:href="quickjs_8c.html#a1782043fce951bd4f0d91c7796b31e24" target="_top" xlink:title=" ">
<polygon fill="none" stroke="red" points="378.5,-720.2 378.5,-739.2 465.5,-739.2 465.5,-720.2 378.5,-720.2"/>
<text text-anchor="middle" x="422" y="-727.2" font-family="Helvetica,sans-Serif" font-size="10.00">close_var_refs</text>
</a>
</g>
</g>
<!-- Node5&#45;&gt;Node250 -->
<g id="edge21" class="edge">
<title>Node5&#45;&gt;Node250</title>
<path fill="none" stroke="midnightblue" d="M290.89,-625.29C302.05,-644.34 329.59,-687.11 364,-710.7 366.88,-712.68 369.99,-714.46 373.21,-716.07"/>
<polygon fill="midnightblue" stroke="midnightblue" points="371.93,-719.33 382.5,-720.15 374.75,-712.92 371.93,-719.33"/>
</g>
<!-- Node56 -->
<g id="node20" class="node">
<title>Node56</title>
<g id="a_node20"><a xlink:href="quickjs_8c.html#a9e7b4bccf927d811b0f99b40b08c0472" target="_top" xlink:title=" ">
<polygon fill="none" stroke="red" points="384,-682.2 384,-701.2 460,-701.2 460,-682.2 384,-682.2"/>
<text text-anchor="middle" x="422" y="-689.2" font-family="Helvetica,sans-Serif" font-size="10.00">free_var_ref</text>
</a>
</g>
</g>
<!-- Node5&#45;&gt;Node56 -->
<g id="edge23" class="edge">
<title>Node5&#45;&gt;Node56</title>
<path fill="none" stroke="midnightblue" d="M296.48,-625.37C311.04,-637.78 337.94,-659.3 364,-672.7 368.08,-674.79 372.43,-676.73 376.85,-678.5"/>
<polygon fill="midnightblue" stroke="midnightblue" points="375.95,-681.9 386.55,-682.1 378.39,-675.34 375.95,-681.9"/>
</g>
<!-- Node58 -->
<g id="node21" class="node">
<title>Node58</title>
<g id="a_node21"><a xlink:href="quickjs_8c.html#ab7fc45a99935a1c0ba50b0216d9401a9" target="_top" xlink:title=" ">
<polygon fill="none" stroke="red" points="542.5,-188.2 542.5,-207.2 620.5,-207.2 620.5,-188.2 542.5,-188.2"/>
<text text-anchor="middle" x="581.5" y="-195.2" font-family="Helvetica,sans-Serif" font-size="10.00">JS_FreeAtom</text>
</a>
</g>
</g>
<!-- Node5&#45;&gt;Node58 -->
<g id="edge28" class="edge">
<title>Node5&#45;&gt;Node58</title>
<path fill="none" stroke="midnightblue" d="M286.28,-605.94C290.64,-553.74 313.64,-307.93 364,-254.7 386.82,-230.58 475.62,-213.26 532.17,-204.41"/>
<polygon fill="midnightblue" stroke="midnightblue" points="532.97,-207.83 542.32,-202.86 531.91,-200.91 532.97,-207.83"/>
</g>
<!-- Node70 -->
<g id="node22" class="node">
<title>Node70</title>
<g id="a_node22"><a xlink:href="quickjs_8h.html#a89b7c8686c7eee70b86be722ee4730ad" target="_top" xlink:title=" ">
<polygon fill="none" stroke="red" points="537,-492.2 537,-511.2 626,-511.2 626,-492.2 537,-492.2"/>
<text text-anchor="middle" x="581.5" y="-499.2" font-family="Helvetica,sans-Serif" font-size="10.00">JS_GetProperty</text>
</a>
</g>
</g>
<!-- Node5&#45;&gt;Node70 -->
<g id="edge30" class="edge">
<title>Node5&#45;&gt;Node70</title>
<path fill="none" stroke="midnightblue" d="M287.95,-605.96C294.87,-580.83 317.14,-513.93 364,-487.7 421.75,-455.37 502.22,-474.02 547.01,-488.89"/>
<polygon fill="midnightblue" stroke="midnightblue" points="545.94,-492.22 556.54,-492.18 548.23,-485.61 545.94,-492.22"/>
</g>
<!-- Node5&#45;&gt;Node136 -->
<g id="edge31" class="edge">
<title>Node5&#45;&gt;Node136</title>
<path fill="none" stroke="midnightblue" d="M288.11,-605.94C301.2,-557.07 359.26,-341.07 364,-335.7 367.29,-331.97 371.25,-328.8 375.54,-326.12"/>
<polygon fill="midnightblue" stroke="midnightblue" points="377.5,-329.05 384.69,-321.26 374.21,-322.86 377.5,-329.05"/>
</g>
<!-- Node137 -->
<g id="node24" class="node">
<title>Node137</title>
<g id="a_node24"><a xlink:href="quickjs_8h.html#a88259aa0da61ac754402c64ccecee116" target="_top" xlink:title=" ">
<polygon fill="none" stroke="black" points="539,-264.2 539,-283.2 624,-283.2 624,-264.2 539,-264.2"/>
<text text-anchor="middle" x="581.5" y="-271.2" font-family="Helvetica,sans-Serif" font-size="10.00">JS_NewUint32</text>
</a>
</g>
</g>
<!-- Node5&#45;&gt;Node137 -->
<g id="edge46" class="edge">
<title>Node5&#45;&gt;Node137</title>
<path fill="none" stroke="midnightblue" d="M286.35,-606.17C290.92,-557.31 314.22,-335.49 364,-292.7 409.01,-254.01 480.46,-255.69 528.85,-262.74"/>
<polygon fill="midnightblue" stroke="midnightblue" points="528.39,-266.21 538.81,-264.32 529.48,-259.3 528.39,-266.21"/>
</g>
<!-- Node138 -->
<g id="node25" class="node">
<title>Node138</title>
<g id="a_node25"><a xlink:href="quickjs_8c.html#a859d5c989a2aaecef1653b3ac279e108" target="_top" xlink:title=" ">
<polygon fill="none" stroke="red" points="534,-416.2 534,-435.2 629,-435.2 629,-416.2 534,-416.2"/>
<text text-anchor="middle" x="581.5" y="-423.2" font-family="Helvetica,sans-Serif" font-size="10.00">JS_ValueToAtom</text>
</a>
</g>
</g>
<!-- Node5&#45;&gt;Node138 -->
<g id="edge54" class="edge">
<title>Node5&#45;&gt;Node138</title>
<path fill="none" stroke="midnightblue" d="M287.47,-606.07C293.53,-579.07 314.57,-502.17 364,-465.7 410.13,-431.66 476.53,-423.78 523.61,-423.08"/>
<polygon fill="midnightblue" stroke="midnightblue" points="523.66,-426.58 533.64,-423.04 523.63,-419.58 523.66,-426.58"/>
</g>
<!-- Node5&#45;&gt;Node225 -->
<g id="edge47" class="edge">
<title>Node5&#45;&gt;Node225</title>
<path fill="none" stroke="midnightblue" d="M286.22,-625.5C290.43,-680.21 313.4,-947.69 364,-1009.7 367.06,-1013.45 370.82,-1016.63 374.92,-1019.31"/>
<polygon fill="midnightblue" stroke="midnightblue" points="373.29,-1022.41 383.74,-1024.16 376.67,-1016.28 373.29,-1022.41"/>
</g>
<!-- Node5&#45;&gt;Node280 -->
<g id="edge49" class="edge">
<title>Node5&#45;&gt;Node280</title>
<path fill="none" stroke="midnightblue" d="M287.93,-625.25C300.13,-673.11 354.52,-884.96 364,-895.7 367.46,-899.62 371.67,-902.92 376.22,-905.7"/>
<polygon fill="midnightblue" stroke="midnightblue" points="374.79,-908.9 385.28,-910.4 378.02,-902.68 374.79,-908.9"/>
</g>
<!-- Node67&#45;&gt;Node6 -->
<g id="edge10" class="edge">
<title>Node67&#45;&gt;Node6</title>
<path fill="none" stroke="midnightblue" d="M463.15,-577.7C483.84,-577.7 509.26,-577.7 531.14,-577.7"/>
<polygon fill="midnightblue" stroke="midnightblue" points="531.24,-581.2 541.24,-577.7 531.24,-574.2 531.24,-581.2"/>
</g>
<!-- Node67&#45;&gt;Node68 -->
<g id="edge11" class="edge">
<title>Node67&#45;&gt;Node68</title>
<path fill="none" stroke="midnightblue" d="M433.53,-587.38C445.31,-598.41 464.75,-617.18 480,-634.7 514.02,-673.78 549.6,-723.24 567.93,-749.45"/>
<polygon fill="midnightblue" stroke="midnightblue" points="565.29,-751.78 573.87,-758 571.03,-747.79 565.29,-751.78"/>
</g>
<!-- Node67&#45;&gt;Node38 -->
<g id="edge13" class="edge">
<title>Node67&#45;&gt;Node38</title>
<path fill="none" stroke="midnightblue" d="M449.8,-587.3C459.58,-591.23 470.55,-596.16 480,-601.7 497.49,-611.94 498.3,-619.83 516,-629.7 523.34,-633.79 531.53,-637.45 539.53,-640.6"/>
<polygon fill="midnightblue" stroke="midnightblue" points="538.54,-643.97 549.13,-644.19 540.99,-637.41 538.54,-643.97"/>
</g>
<!-- Node67&#45;&gt;Node77 -->
<g id="edge14" class="edge">
<title>Node67&#45;&gt;Node77</title>
<path fill="none" stroke="midnightblue" d="M460.74,-587.21C477.54,-590.97 497.64,-594.84 516,-596.7 573.93,-602.56 589.05,-602.29 647,-596.7 662.77,-595.18 679.78,-592.3 695.11,-589.24"/>
<polygon fill="midnightblue" stroke="midnightblue" points="695.82,-592.66 704.91,-587.21 694.4,-585.81 695.82,-592.66"/>
</g>
<!-- Node68&#45;&gt;Node59 -->
<g id="edge12" class="edge">
<title>Node68&#45;&gt;Node59</title>
<path fill="none" stroke="midnightblue" d="M620.31,-773.66C629.72,-776.47 639.31,-780.61 647,-786.7 698.24,-827.25 727.33,-902.63 738.77,-938.18"/>
<polygon fill="midnightblue" stroke="midnightblue" points="735.47,-939.33 741.76,-947.85 742.15,-937.27 735.47,-939.33"/>
</g>
<!-- Node162&#45;&gt;Node179 -->
<g id="edge16" class="edge">
<title>Node162&#45;&gt;Node179</title>
<path fill="none" stroke="midnightblue" d="M466.65,-663.3C471.58,-665.75 476.2,-668.83 480,-672.7 517.27,-710.57 478.07,-749.49 516,-786.7 517.47,-788.14 519.04,-789.47 520.7,-790.7"/>
<polygon fill="midnightblue" stroke="midnightblue" points="519.19,-793.88 529.56,-796.07 522.81,-787.89 519.19,-793.88"/>
</g>
<!-- Node162&#45;&gt;Node78 -->
<g id="edge18" class="edge">
<title>Node162&#45;&gt;Node78</title>
<path fill="none" stroke="midnightblue" d="M460.72,-663.21C517.26,-676.46 620.21,-696.31 647,-672.7 694.88,-630.48 657.97,-446.42 683,-387.7 692.88,-364.51 712,-342.65 726.3,-328.38"/>
<polygon fill="midnightblue" stroke="midnightblue" points="728.9,-330.74 733.67,-321.27 724.04,-325.7 728.9,-330.74"/>
</g>
<!-- Node179&#45;&gt;Node59 -->
<g id="edge17" class="edge">
<title>Node179&#45;&gt;Node59</title>
<path fill="none" stroke="midnightblue" d="M592.63,-815.21C619.57,-840.48 693.18,-909.55 727.04,-941.31"/>
<polygon fill="midnightblue" stroke="midnightblue" points="724.68,-943.9 734.37,-948.19 729.47,-938.8 724.68,-943.9"/>
</g>
<!-- Node249&#45;&gt;Node38 -->
<g id="edge20" class="edge">
<title>Node249&#45;&gt;Node38</title>
<path fill="none" stroke="midnightblue" d="M462.24,-796.12C468.5,-793.63 474.66,-790.53 480,-786.7 502.47,-770.57 547.41,-704.39 568.74,-671.88"/>
<polygon fill="midnightblue" stroke="midnightblue" points="571.79,-673.61 574.32,-663.32 565.93,-669.79 571.79,-673.61"/>
</g>
<!-- Node136&#45;&gt;Node8 -->
<g id="edge32" class="edge">
<title>Node136&#45;&gt;Node8</title>
<path fill="none" stroke="midnightblue" d="M436.24,-302C453.73,-289.56 485.86,-268.02 516,-254.7 571.45,-230.2 589.59,-236.17 647,-216.7 668.98,-209.24 693.3,-199.77 712.15,-192.14"/>
<polygon fill="midnightblue" stroke="midnightblue" points="713.53,-195.36 721.47,-188.35 710.89,-188.88 713.53,-195.36"/>
</g>
<!-- Node136&#45;&gt;Node59 -->
<g id="edge35" class="edge">
<title>Node136&#45;&gt;Node59</title>
<path fill="none" stroke="midnightblue" d="M427.01,-321.43C437.65,-346.01 469.04,-411.07 516,-444.7 565.29,-479.99 605.88,-438.15 647,-482.7 678.87,-517.22 729.3,-852.74 741.68,-938.05"/>
<polygon fill="midnightblue" stroke="midnightblue" points="738.25,-938.77 743.15,-948.17 745.18,-937.77 738.25,-938.77"/>
</g>
<!-- Node136&#45;&gt;Node38 -->
<g id="edge33" class="edge">
<title>Node136&#45;&gt;Node38</title>
<path fill="none" stroke="midnightblue" d="M424.27,-321.34C429.64,-359.3 453.13,-501 516,-596.7 526.77,-613.09 543.45,-627.66 557.15,-637.96"/>
<polygon fill="midnightblue" stroke="midnightblue" points="555.48,-641.07 565.63,-644.09 559.58,-635.4 555.48,-641.07"/>
</g>
<!-- Node136&#45;&gt;Node78 -->
<g id="edge37" class="edge">
<title>Node136&#45;&gt;Node78</title>
<path fill="none" stroke="midnightblue" d="M480.11,-311.7C541.77,-311.7 638.9,-311.7 696.69,-311.7"/>
<polygon fill="midnightblue" stroke="midnightblue" points="697,-315.2 707,-311.7 697,-308.2 697,-315.2"/>
</g>
<!-- Node136&#45;&gt;Node58 -->
<g id="edge34" class="edge">
<title>Node136&#45;&gt;Node58</title>
<path fill="none" stroke="midnightblue" d="M431.97,-302.07C451.38,-281.39 497.09,-233.62 516,-221.7 522.46,-217.62 529.72,-214.09 536.97,-211.07"/>
<polygon fill="midnightblue" stroke="midnightblue" points="538.71,-214.15 546.78,-207.29 536.19,-207.62 538.71,-214.15"/>
</g>
<!-- Node136&#45;&gt;Node70 -->
<g id="edge36" class="edge">
<title>Node136&#45;&gt;Node70</title>
<path fill="none" stroke="midnightblue" d="M425.83,-321.48C434.48,-349.78 463.31,-432.58 516,-477.7 520.76,-481.78 526.29,-485.19 532.06,-488.05"/>
<polygon fill="midnightblue" stroke="midnightblue" points="530.69,-491.27 541.25,-492.08 533.5,-484.86 530.69,-491.27"/>
</g>
<!-- Node136&#45;&gt;Node137 -->
<g id="edge38" class="edge">
<title>Node136&#45;&gt;Node137</title>
<path fill="none" stroke="midnightblue" d="M462.74,-302.11C483.53,-297.09 509.16,-290.91 531.2,-285.59"/>
<polygon fill="midnightblue" stroke="midnightblue" points="532.14,-288.97 541.04,-283.22 530.5,-282.16 532.14,-288.97"/>
</g>
<!-- Node136&#45;&gt;Node138 -->
<g id="edge41" class="edge">
<title>Node136&#45;&gt;Node138</title>
<path fill="none" stroke="midnightblue" d="M436.16,-321.22C463.3,-340.87 525.75,-386.07 558.91,-410.07"/>
<polygon fill="midnightblue" stroke="midnightblue" points="556.89,-412.93 567.05,-415.96 561,-407.26 556.89,-412.93"/>
</g>
<!-- Node137&#45;&gt;Node8 -->
<g id="edge39" class="edge">
<title>Node137&#45;&gt;Node8</title>
<path fill="none" stroke="midnightblue" d="M613.44,-264.12C624.33,-260.25 636.47,-255.35 647,-249.7 676.28,-233.98 706.72,-210.46 725.64,-194.86"/>
<polygon fill="midnightblue" stroke="midnightblue" points="728.05,-197.41 733.47,-188.3 723.56,-192.04 728.05,-197.41"/>
</g>
<!-- Node137&#45;&gt;Node78 -->
<g id="edge40" class="edge">
<title>Node137&#45;&gt;Node78</title>
<path fill="none" stroke="midnightblue" d="M623.38,-283.29C645.75,-288.54 673.59,-295.06 696.93,-300.54"/>
<polygon fill="midnightblue" stroke="midnightblue" points="696.43,-304.02 706.96,-302.89 698.03,-297.2 696.43,-304.02"/>
</g>
<!-- Node138&#45;&gt;Node7 -->
<g id="edge42" class="edge">
<title>Node138&#45;&gt;Node7</title>
<path fill="none" stroke="midnightblue" d="M629.36,-420.2C642.95,-418.61 658.11,-416.83 672.85,-415.1"/>
<polygon fill="midnightblue" stroke="midnightblue" points="673.44,-418.56 682.96,-413.92 672.62,-411.6 673.44,-418.56"/>
</g>
<!-- Node138&#45;&gt;Node77 -->
<g id="edge43" class="edge">
<title>Node138&#45;&gt;Node77</title>
<path fill="none" stroke="midnightblue" d="M619.13,-435.3C628.76,-438.86 638.75,-443.58 647,-449.7 687.57,-479.78 719.47,-531.21 734.7,-558.84"/>
<polygon fill="midnightblue" stroke="midnightblue" points="731.73,-560.7 739.55,-567.85 737.9,-557.39 731.73,-560.7"/>
</g>
<!-- Node225&#45;&gt;Node59 -->
<g id="edge48" class="edge">
<title>Node225&#45;&gt;Node59</title>
<path fill="none" stroke="midnightblue" d="M464.41,-1033.95C510.09,-1033.15 585.32,-1028.67 647,-1009.7 674.42,-1001.27 703.07,-984.94 722.16,-972.82"/>
<polygon fill="midnightblue" stroke="midnightblue" points="724.24,-975.65 730.72,-967.27 720.43,-969.78 724.24,-975.65"/>
</g>
<!-- Node280&#45;&gt;Node38 -->
<g id="edge51" class="edge">
<title>Node280&#45;&gt;Node38</title>
<path fill="none" stroke="midnightblue" d="M429.14,-910.17C439.95,-893.26 462.85,-856.75 480,-824.7 497.64,-791.75 497.45,-781.14 516,-748.7 531.99,-720.74 553.48,-690.23 567.17,-671.53"/>
<polygon fill="midnightblue" stroke="midnightblue" points="570.08,-673.48 573.2,-663.36 564.45,-669.33 570.08,-673.48"/>
</g>
<!-- Node280&#45;&gt;Node77 -->
<g id="edge52" class="edge">
<title>Node280&#45;&gt;Node77</title>
<path fill="none" stroke="midnightblue" d="M458.85,-913.93C514.91,-904.23 619.76,-883.22 647,-857.7 724.35,-785.22 740.35,-648.17 743.65,-597.33"/>
<polygon fill="midnightblue" stroke="midnightblue" points="747.14,-597.51 744.2,-587.34 740.15,-597.13 747.14,-597.51"/>
</g>
<!-- Node280&#45;&gt;Node179 -->
<g id="edge50" class="edge">
<title>Node280&#45;&gt;Node179</title>
<path fill="none" stroke="midnightblue" d="M455.96,-910.2C464.47,-906.63 473.15,-901.89 480,-895.7 504.79,-873.29 490.74,-851.58 516,-829.7 520.74,-825.59 526.25,-822.16 532.01,-819.3"/>
<polygon fill="midnightblue" stroke="midnightblue" points="533.46,-822.49 541.2,-815.26 530.64,-816.08 533.46,-822.49"/>
</g>
<!-- Node280&#45;&gt;Node78 -->
<g id="edge53" class="edge">
<title>Node280&#45;&gt;Node78</title>
<path fill="none" stroke="midnightblue" d="M434.56,-910.07C451.43,-896.48 484.25,-871.78 516,-857.7 570.89,-833.36 608.18,-870.5 647,-824.7 710,-750.37 646.74,-478.14 683,-387.7 692.38,-364.3 711.57,-342.48 726.04,-328.27"/>
<polygon fill="midnightblue" stroke="midnightblue" points="728.64,-330.62 733.49,-321.2 723.83,-325.54 728.64,-330.62"/>
</g>
<!-- Node437&#45;&gt;Node77 -->
<g id="edge58" class="edge">
<title>Node437&#45;&gt;Node77</title>
<path fill="none" stroke="midnightblue" d="M464.28,-948.15C525.29,-933.71 633.8,-906.63 647,-893.7 732.59,-809.88 743.43,-652.77 744.51,-597.52"/>
<polygon fill="midnightblue" stroke="midnightblue" points="748.01,-597.38 744.62,-587.34 741.01,-597.31 748.01,-597.38"/>
</g>
<!-- Node437&#45;&gt;Node70 -->
<g id="edge57" class="edge">
<title>Node437&#45;&gt;Node70</title>
<path fill="none" stroke="midnightblue" d="M468.84,-948.06C473.1,-945.6 476.95,-942.54 480,-938.7 532.79,-872.3 477.53,-634.29 516,-558.7 524.81,-541.38 541.31,-526.95 555.41,-516.94"/>
<polygon fill="midnightblue" stroke="midnightblue" points="557.46,-519.79 563.8,-511.3 553.55,-513.98 557.46,-519.79"/>
</g>
<!-- Node438 -->
<g id="node29" class="node">
<title>Node438</title>
<g id="a_node29"><a xlink:href="quickjs_8c.html#a07acd485a57197356906928a788a0644" target="_top" xlink:title=" ">
<polygon fill="none" stroke="red" points="534,-948.2 534,-967.2 629,-967.2 629,-948.2 534,-948.2"/>
<text text-anchor="middle" x="581.5" y="-955.2" font-family="Helvetica,sans-Serif" font-size="10.00">JS_ToLengthFree</text>
</a>
</g>
</g>
<!-- Node437&#45;&gt;Node438 -->
<g id="edge59" class="edge">
<title>Node437&#45;&gt;Node438</title>
<path fill="none" stroke="midnightblue" d="M469.4,-957.7C486.39,-957.7 505.82,-957.7 523.62,-957.7"/>
<polygon fill="midnightblue" stroke="midnightblue" points="523.88,-961.2 533.88,-957.7 523.88,-954.2 523.88,-961.2"/>
</g>
<!-- Node438&#45;&gt;Node59 -->
<g id="edge60" class="edge">
<title>Node438&#45;&gt;Node59</title>
<path fill="none" stroke="midnightblue" d="M629.36,-957.7C650.24,-957.7 674.82,-957.7 695.9,-957.7"/>
<polygon fill="midnightblue" stroke="midnightblue" points="695.93,-961.2 705.93,-957.7 695.93,-954.2 695.93,-961.2"/>
</g>
<!-- Node273&#45;&gt;Node8 -->
<g id="edge65" class="edge">
<title>Node273&#45;&gt;Node8</title>
<path fill="none" stroke="midnightblue" d="M617.48,-55.24C627.51,-58.87 638.12,-63.64 647,-69.7 683.85,-94.83 716.04,-136.8 732.61,-160.66"/>
<polygon fill="midnightblue" stroke="midnightblue" points="729.85,-162.82 738.36,-169.13 735.64,-158.89 729.85,-162.82"/>
</g>
<!-- Node273&#45;&gt;Node78 -->
<g id="edge66" class="edge">
<title>Node273&#45;&gt;Node78</title>
<path fill="none" stroke="midnightblue" d="M620.17,-53.15C630.03,-56.71 639.88,-61.96 647,-69.7 687.04,-113.16 660.84,-142.92 683,-197.7 697.25,-232.93 719.49,-271.32 732.96,-293.35"/>
<polygon fill="midnightblue" stroke="midnightblue" points="730.07,-295.33 738.3,-301.99 736.02,-291.65 730.07,-295.33"/>
</g>
</g>
</svg>
