<?xml version="1.0" encoding="UTF-8" standalone="no"?>
<!DOCTYPE svg PUBLIC "-//W3C//DTD SVG 1.1//EN"
 "http://www.w3.org/Graphics/SVG/1.1/DTD/svg11.dtd">
<!-- Generated by graphviz version 2.43.0 (0)
 -->
<!-- Title: js_promise_resolve Pages: 1 -->
<!--zoomable 1116 -->
<svg id="main" version="1.1" xmlns="http://www.w3.org/2000/svg" xmlns:xlink="http://www.w3.org/1999/xlink" xml:space="preserve" onload="init(evt)">
<style type="text/css"><![CDATA[
.edge:hover path { stroke: red; }
.edge:hover polygon { stroke: red; fill: red; }
]]></style>
<script type="text/javascript"><![CDATA[
var edges = document.getElementsByTagName('g');
if (edges && edges.length) {
  for (var i=0;i<edges.length;i++) {
    if (edges[i].id.substr(0,4)=='edge') {
      edges[i].setAttribute('class','edge');
    }
  }
}
]]></script>
        <defs>
                <circle id="rim" cx="0" cy="0" r="7"/>
                <circle id="rim2" cx="0" cy="0" r="3.5"/>
                <g id="zoomPlus">
                        <use xlink:href="#rim" fill="#404040">
                                <set attributeName="fill" to="#808080" begin="zoomplus.mouseover" end="zoomplus.mouseout"/>
                        </use>
                        <path d="M-4,0h8M0,-4v8" fill="none" stroke="white" stroke-width="1.5" pointer-events="none"/>
                </g>
                <g id="zoomMin">
                        <use xlink:href="#rim" fill="#404040">
                                <set attributeName="fill" to="#808080" begin="zoomminus.mouseover" end="zoomminus.mouseout"/>
                        </use>
                        <path d="M-4,0h8" fill="none" stroke="white" stroke-width="1.5" pointer-events="none"/>
                </g>
                <g id="dirArrow">
                        <path fill="none" stroke="white" stroke-width="1.5" d="M0,-3.0v7 M-2.5,-0.5L0,-3.0L2.5,-0.5"/>
                </g>
               <g id="resetDef">
                       <use xlink:href="#rim2" fill="#404040">
                               <set attributeName="fill" to="#808080" begin="reset.mouseover" end="reset.mouseout"/>
                       </use>
               </g>
        </defs>

<script type="text/javascript">
var viewWidth = 846;
var viewHeight = 1116;
var sectionId = 'dynsection-86';
</script>
<script xlink:href="svgpan.js"/>
<svg id="graph" class="graph">
<g id="viewport">
<title>js_promise_resolve</title>
<!-- Node1 -->
<g id="node1" class="node">
<title>Node1</title>
<g id="a_node1"><a xlink:title=" ">
<polygon fill="#bfbfbf" stroke="black" points="0,-167.06 0,-186.06 111,-186.06 111,-167.06 0,-167.06"/>
<text text-anchor="middle" x="55.5" y="-174.06" font-family="Helvetica,sans-Serif" font-size="10.00">js_promise_resolve</text>
</a>
</g>
</g>
<!-- Node2 -->
<g id="node2" class="node">
<title>Node2</title>
<g id="a_node2"><a xlink:href="quickjs_8c.html#a1a4c02a29525d5cb2085dd8bca3af350" target="_top" xlink:title=" ">
<polygon fill="none" stroke="black" points="165,-585.06 165,-604.06 215,-604.06 215,-585.06 165,-585.06"/>
<text text-anchor="middle" x="190" y="-592.06" font-family="Helvetica,sans-Serif" font-size="10.00">JS_Call</text>
</a>
</g>
</g>
<!-- Node1&#45;&gt;Node2 -->
<g id="edge1" class="edge">
<title>Node1&#45;&gt;Node2</title>
<path fill="none" stroke="midnightblue" d="M59.52,-186.07C76.41,-239.36 159.34,-500.98 182.8,-575.01"/>
<polygon fill="midnightblue" stroke="midnightblue" points="179.57,-576.4 185.93,-584.87 186.24,-574.28 179.57,-576.4"/>
</g>
<!-- Node57 -->
<g id="node10" class="node">
<title>Node57</title>
<g id="a_node10"><a xlink:href="quickjs_8h.html#afaa20c47565bc704c6c85f3d77254e7d" target="_top" xlink:title=" ">
<polygon fill="none" stroke="red" points="759,-900.06 759,-919.06 838,-919.06 838,-900.06 759,-900.06"/>
<text text-anchor="middle" x="798.5" y="-907.06" font-family="Helvetica,sans-Serif" font-size="10.00">JS_FreeValue</text>
</a>
</g>
</g>
<!-- Node1&#45;&gt;Node57 -->
<g id="edge41" class="edge">
<title>Node1&#45;&gt;Node57</title>
<path fill="none" stroke="midnightblue" d="M56.96,-186.07C61.94,-284.17 109.77,-1107.56 311.5,-1107.56 311.5,-1107.56 311.5,-1107.56 477,-1107.56 595.36,-1107.56 631.78,-1080.98 723,-1005.56 750.35,-982.94 773.93,-948.59 786.88,-927.7"/>
<polygon fill="midnightblue" stroke="midnightblue" points="789.88,-929.5 792.06,-919.13 783.89,-925.88 789.88,-929.5"/>
</g>
<!-- Node36 -->
<g id="node11" class="node">
<title>Node36</title>
<g id="a_node11"><a xlink:href="quickjs_8h.html#a775522f2d084fc8fa0fcb33f390006b4" target="_top" xlink:title=" ">
<polygon fill="none" stroke="black" points="760,-300.06 760,-319.06 837,-319.06 837,-300.06 760,-300.06"/>
<text text-anchor="middle" x="798.5" y="-307.06" font-family="Helvetica,sans-Serif" font-size="10.00">JS_DupValue</text>
</a>
</g>
</g>
<!-- Node1&#45;&gt;Node36 -->
<g id="edge40" class="edge">
<title>Node1&#45;&gt;Node36</title>
<path fill="none" stroke="midnightblue" d="M58.97,-166.99C66.64,-139.43 92.85,-59.6 147,-24.56 208.79,15.43 237.9,-5.56 311.5,-5.56 311.5,-5.56 311.5,-5.56 477,-5.56 597.5,-5.56 640.4,-31.82 723,-119.56 769.88,-169.35 788.42,-252.08 794.7,-289.76"/>
<polygon fill="midnightblue" stroke="midnightblue" points="791.29,-290.58 796.28,-299.93 798.21,-289.51 791.29,-290.58"/>
</g>
<!-- Node75 -->
<g id="node12" class="node">
<title>Node75</title>
<g id="a_node12"><a xlink:href="quickjs_8h.html#ad80a83d73e9b7d872b88fbf2943aebe9" target="_top" xlink:title=" ">
<polygon fill="none" stroke="black" points="616,-262.06 616,-281.06 703,-281.06 703,-262.06 616,-262.06"/>
<text text-anchor="middle" x="659.5" y="-269.06" font-family="Helvetica,sans-Serif" font-size="10.00">JS_IsException</text>
</a>
</g>
</g>
<!-- Node1&#45;&gt;Node75 -->
<g id="edge44" class="edge">
<title>Node1&#45;&gt;Node75</title>
<path fill="none" stroke="midnightblue" d="M79.18,-167.01C153.19,-137.42 392.46,-54.15 560,-138.56 563.15,-140.14 619.42,-217.54 645.47,-253.52"/>
<polygon fill="midnightblue" stroke="midnightblue" points="642.69,-255.66 651.39,-261.71 648.36,-251.55 642.69,-255.66"/>
</g>
<!-- Node68 -->
<g id="node23" class="node">
<title>Node68</title>
<g id="a_node23"><a xlink:href="quickjs_8h.html#a89b7c8686c7eee70b86be722ee4730ad" target="_top" xlink:title=" ">
<polygon fill="none" stroke="black" points="431.5,-1060.06 431.5,-1079.06 520.5,-1079.06 520.5,-1060.06 431.5,-1060.06"/>
<text text-anchor="middle" x="476" y="-1067.06" font-family="Helvetica,sans-Serif" font-size="10.00">JS_GetProperty</text>
</a>
</g>
</g>
<!-- Node1&#45;&gt;Node68 -->
<g id="edge43" class="edge">
<title>Node1&#45;&gt;Node68</title>
<path fill="none" stroke="midnightblue" d="M57.33,-186.1C61.72,-233.69 84.34,-449.64 147,-613.56 224.43,-816.13 228.5,-893.08 392,-1035.56 402.29,-1044.52 415.27,-1051.34 427.88,-1056.42"/>
<polygon fill="midnightblue" stroke="midnightblue" points="426.81,-1059.76 437.4,-1059.98 429.26,-1053.2 426.81,-1059.76"/>
</g>
<!-- Node287 -->
<g id="node25" class="node">
<title>Node287</title>
<g id="a_node25"><a xlink:href="quickjs_8h.html#a3d68fe446df2d9c7d1900b16371bff5b" target="_top" xlink:title=" ">
<polygon fill="none" stroke="black" points="440.5,-186.06 440.5,-205.06 511.5,-205.06 511.5,-186.06 440.5,-186.06"/>
<text text-anchor="middle" x="476" y="-193.06" font-family="Helvetica,sans-Serif" font-size="10.00">JS_IsObject</text>
</a>
</g>
</g>
<!-- Node1&#45;&gt;Node287 -->
<g id="edge45" class="edge">
<title>Node1&#45;&gt;Node287</title>
<path fill="none" stroke="midnightblue" d="M111.21,-179.04C194.8,-182.84 352.71,-190.01 430.04,-193.52"/>
<polygon fill="midnightblue" stroke="midnightblue" points="430.25,-197.03 440.4,-193.99 430.57,-190.04 430.25,-197.03"/>
</g>
<!-- Node234 -->
<g id="node27" class="node">
<title>Node234</title>
<g id="a_node27"><a xlink:href="quickjs_8c.html#a24be89a128d1cd7c0908604815b2b854" target="_top" xlink:title=" ">
<polygon fill="none" stroke="red" points="431.5,-72.06 431.5,-91.06 520.5,-91.06 520.5,-72.06 431.5,-72.06"/>
<text text-anchor="middle" x="476" y="-79.06" font-family="Helvetica,sans-Serif" font-size="10.00">js_same_value</text>
</a>
</g>
</g>
<!-- Node1&#45;&gt;Node234 -->
<g id="edge51" class="edge">
<title>Node1&#45;&gt;Node234</title>
<path fill="none" stroke="midnightblue" d="M65.09,-166.8C79.94,-150.7 112.17,-119.03 147,-105.56 238.24,-70.26 354.27,-71.46 421.04,-76.11"/>
<polygon fill="midnightblue" stroke="midnightblue" points="421.09,-79.63 431.32,-76.89 421.61,-72.65 421.09,-79.63"/>
</g>
<!-- Node245 -->
<g id="node28" class="node">
<title>Node245</title>
<g id="a_node28"><a xlink:href="quickjs_8c.html#a726b00d108e0a0f4d958c36c2e426a64" target="_top" xlink:title=" ">
<polygon fill="none" stroke="black" points="392,-148.06 392,-167.06 560,-167.06 560,-148.06 392,-148.06"/>
<text text-anchor="middle" x="476" y="-155.06" font-family="Helvetica,sans-Serif" font-size="10.00">JS_ThrowTypeErrorNotAnObject</text>
</a>
</g>
</g>
<!-- Node1&#45;&gt;Node245 -->
<g id="edge52" class="edge">
<title>Node1&#45;&gt;Node245</title>
<path fill="none" stroke="midnightblue" d="M111.21,-174.07C179.8,-170.96 298.45,-165.57 381.55,-161.8"/>
<polygon fill="midnightblue" stroke="midnightblue" points="381.92,-165.29 391.75,-161.34 381.6,-158.29 381.92,-165.29"/>
</g>
<!-- Node437 -->
<g id="node29" class="node">
<title>Node437</title>
<g id="a_node29"><a xlink:href="quickjs_8c.html#a5644dc5dba0d760dcc06cc1a79e256cc" target="_top" xlink:title=" ">
<polygon fill="none" stroke="black" points="147,-34.06 147,-53.06 233,-53.06 233,-34.06 147,-34.06"/>
<text text-anchor="middle" x="190" y="-41.06" font-family="Helvetica,sans-Serif" font-size="10.00">JS_GetOpaque</text>
</a>
</g>
</g>
<!-- Node1&#45;&gt;Node437 -->
<g id="edge42" class="edge">
<title>Node1&#45;&gt;Node437</title>
<path fill="none" stroke="midnightblue" d="M62.79,-166.82C76.3,-146.47 109.89,-98.72 147,-67.56 151,-64.2 155.53,-61.06 160.1,-58.23"/>
<polygon fill="midnightblue" stroke="midnightblue" points="161.91,-61.22 168.81,-53.18 158.4,-55.16 161.91,-61.22"/>
</g>
<!-- Node376 -->
<g id="node30" class="node">
<title>Node376</title>
<g id="a_node30"><a xlink:href="quickjs_8c.html#a28c0ccdd26317bc38d0a693f1dffe4dc" target="_top" xlink:title=" ">
<polygon fill="none" stroke="red" points="401.5,-300.06 401.5,-319.06 550.5,-319.06 550.5,-300.06 401.5,-300.06"/>
<text text-anchor="middle" x="476" y="-307.06" font-family="Helvetica,sans-Serif" font-size="10.00">js_new_promise_capability</text>
</a>
</g>
</g>
<!-- Node1&#45;&gt;Node376 -->
<g id="edge46" class="edge">
<title>Node1&#45;&gt;Node376</title>
<path fill="none" stroke="midnightblue" d="M86.6,-186.12C160.71,-209.67 352.02,-270.47 435.29,-296.94"/>
<polygon fill="midnightblue" stroke="midnightblue" points="434.3,-300.3 444.89,-299.99 436.42,-293.63 434.3,-300.3"/>
</g>
<!-- Node3 -->
<g id="node3" class="node">
<title>Node3</title>
<g id="a_node3"><a xlink:href="quickjs_8c.html#ac2894ff4edcdb4e6841bcce9c76081e3" target="_top" xlink:title=" ">
<polygon fill="none" stroke="red" points="269,-585.06 269,-604.06 356,-604.06 356,-585.06 269,-585.06"/>
<text text-anchor="middle" x="312.5" y="-592.06" font-family="Helvetica,sans-Serif" font-size="10.00">JS_CallInternal</text>
</a>
</g>
</g>
<!-- Node2&#45;&gt;Node3 -->
<g id="edge2" class="edge">
<title>Node2&#45;&gt;Node3</title>
<path fill="none" stroke="midnightblue" d="M215.1,-589.03C227.6,-588.06 243.39,-587.67 258.56,-587.85"/>
<polygon fill="midnightblue" stroke="midnightblue" points="258.84,-591.36 268.91,-588.07 258.99,-584.36 258.84,-591.36"/>
</g>
<!-- Node3&#45;&gt;Node2 -->
<g id="edge25" class="edge">
<title>Node3&#45;&gt;Node2</title>
<path fill="none" stroke="midnightblue" d="M268.91,-601.04C254.66,-601.48 238.97,-601.37 225.43,-600.72"/>
<polygon fill="midnightblue" stroke="midnightblue" points="225.29,-597.21 215.1,-600.08 224.86,-604.19 225.29,-597.21"/>
</g>
<!-- Node3&#45;&gt;Node3 -->
<g id="edge26" class="edge">
<title>Node3&#45;&gt;Node3</title>
<path fill="none" stroke="midnightblue" d="M293.7,-604.31C284.55,-613.12 290.82,-622.56 312.5,-622.56 326.39,-622.56 333.96,-618.68 335.19,-613.59"/>
<polygon fill="midnightblue" stroke="midnightblue" points="338.4,-612.18 331.3,-604.31 331.94,-614.89 338.4,-612.18"/>
</g>
<!-- Node4 -->
<g id="node4" class="node">
<title>Node4</title>
<g id="a_node4"><a xlink:href="quickjs_8c.html#a853f0924d441ea4225488f37c8b69f9a" target="_top" xlink:title=" ">
<polygon fill="none" stroke="black" points="619.5,-725.06 619.5,-744.06 699.5,-744.06 699.5,-725.06 619.5,-725.06"/>
<text text-anchor="middle" x="659.5" y="-732.06" font-family="Helvetica,sans-Serif" font-size="10.00">__attribute__</text>
</a>
</g>
</g>
<!-- Node3&#45;&gt;Node4 -->
<g id="edge3" class="edge">
<title>Node3&#45;&gt;Node4</title>
<path fill="none" stroke="midnightblue" d="M313.99,-604.33C316.2,-636.88 328.22,-741.9 392,-784.56 469.2,-836.19 585.68,-778.55 635.06,-749.39"/>
<polygon fill="midnightblue" stroke="midnightblue" points="636.99,-752.31 643.74,-744.14 633.37,-746.32 636.99,-752.31"/>
</g>
<!-- Node5 -->
<g id="node5" class="node">
<title>Node5</title>
<g id="a_node5"><a xlink:href="quickjs_8c.html#a877fcb7651d95b411ce70e62b7f4a1f0" target="_top" xlink:title=" ">
<polygon fill="none" stroke="black" points="413.5,-452.06 413.5,-471.06 538.5,-471.06 538.5,-452.06 413.5,-452.06"/>
<text text-anchor="middle" x="476" y="-459.06" font-family="Helvetica,sans-Serif" font-size="10.00">__JS_AtomFromUInt32</text>
</a>
</g>
</g>
<!-- Node3&#45;&gt;Node5 -->
<g id="edge4" class="edge">
<title>Node3&#45;&gt;Node5</title>
<path fill="none" stroke="midnightblue" d="M317.65,-585.05C327.41,-563.84 353.88,-512.43 392,-485.56 398.15,-481.22 405.08,-477.66 412.25,-474.74"/>
<polygon fill="midnightblue" stroke="midnightblue" points="413.92,-477.86 422.12,-471.14 411.52,-471.28 413.92,-477.86"/>
</g>
<!-- Node6 -->
<g id="node6" class="node">
<title>Node6</title>
<g id="a_node6"><a xlink:href="quickjs_8h.html#a9bf98b18de88b4199910a43e933eb97d" target="_top" xlink:title=" ">
<polygon fill="none" stroke="black" points="426,-414.06 426,-433.06 526,-433.06 526,-414.06 426,-414.06"/>
<text text-anchor="middle" x="476" y="-421.06" font-family="Helvetica,sans-Serif" font-size="10.00">__JS_NewFloat64</text>
</a>
</g>
</g>
<!-- Node3&#45;&gt;Node6 -->
<g id="edge5" class="edge">
<title>Node3&#45;&gt;Node6</title>
<path fill="none" stroke="midnightblue" d="M315.51,-584.91C321.67,-557.83 342.95,-480.59 392,-442.56 399.04,-437.09 407.38,-433.15 416,-430.31"/>
<polygon fill="midnightblue" stroke="midnightblue" points="417.12,-433.63 425.8,-427.56 415.23,-426.9 417.12,-433.63"/>
</g>
<!-- Node7 -->
<g id="node7" class="node">
<title>Node7</title>
<g id="a_node7"><a xlink:href="quickjs_8c.html#a74547db03bf739a52c83a326b32db997" target="_top" xlink:title=" ">
<polygon fill="none" stroke="red" points="435.5,-376.06 435.5,-395.06 516.5,-395.06 516.5,-376.06 435.5,-376.06"/>
<text text-anchor="middle" x="476" y="-383.06" font-family="Helvetica,sans-Serif" font-size="10.00">add_property</text>
</a>
</g>
</g>
<!-- Node3&#45;&gt;Node7 -->
<g id="edge6" class="edge">
<title>Node3&#45;&gt;Node7</title>
<path fill="none" stroke="midnightblue" d="M314.44,-584.88C318.01,-553.51 333.68,-453.88 392,-404.56 401.35,-396.65 413.33,-391.87 425.27,-389.02"/>
<polygon fill="midnightblue" stroke="midnightblue" points="426.1,-392.43 435.23,-387.06 424.74,-385.56 426.1,-392.43"/>
</g>
<!-- Node65 -->
<g id="node8" class="node">
<title>Node65</title>
<g id="a_node8"><a xlink:href="quickjs_8c.html#a4956f45ffd2849b96dc051277264f87a" target="_top" xlink:title=" ">
<polygon fill="none" stroke="red" points="435,-528.06 435,-547.06 517,-547.06 517,-528.06 435,-528.06"/>
<text text-anchor="middle" x="476" y="-535.06" font-family="Helvetica,sans-Serif" font-size="10.00">build_arg_list</text>
</a>
</g>
</g>
<!-- Node3&#45;&gt;Node65 -->
<g id="edge7" class="edge">
<title>Node3&#45;&gt;Node65</title>
<path fill="none" stroke="midnightblue" d="M330.48,-584.95C346.06,-576.47 370,-564.29 392,-556.56 402.46,-552.88 413.92,-549.73 424.9,-547.1"/>
<polygon fill="midnightblue" stroke="midnightblue" points="425.82,-550.48 434.8,-544.85 424.27,-543.66 425.82,-550.48"/>
</g>
<!-- Node66 -->
<g id="node9" class="node">
<title>Node66</title>
<g id="a_node9"><a xlink:href="quickjs_8c.html#ac864482356b3efc2d0b0a509fcfa4c7c" target="_top" xlink:title=" ">
<polygon fill="none" stroke="red" points="621,-862.06 621,-881.06 698,-881.06 698,-862.06 621,-862.06"/>
<text text-anchor="middle" x="659.5" y="-869.06" font-family="Helvetica,sans-Serif" font-size="10.00">free_arg_list</text>
</a>
</g>
</g>
<!-- Node3&#45;&gt;Node66 -->
<g id="edge17" class="edge">
<title>Node3&#45;&gt;Node66</title>
<path fill="none" stroke="midnightblue" d="M315.17,-604.37C325.14,-662.75 376.92,-962.27 392,-974.56 449.89,-1021.71 497.67,-1015.66 560,-974.56 593.91,-952.2 565.75,-917.66 596,-890.56 600.44,-886.58 605.69,-883.44 611.22,-880.95"/>
<polygon fill="midnightblue" stroke="midnightblue" points="612.61,-884.17 620.73,-877.36 610.14,-877.62 612.61,-884.17"/>
</g>
<!-- Node3&#45;&gt;Node57 -->
<g id="edge28" class="edge">
<title>Node3&#45;&gt;Node57</title>
<path fill="none" stroke="midnightblue" d="M315.16,-604.12C325.76,-665.14 383.88,-997.85 392,-1004.56 510.42,-1102.46 711.66,-972.36 776.62,-925.33"/>
<polygon fill="midnightblue" stroke="midnightblue" points="778.87,-928.02 784.86,-919.28 774.72,-922.38 778.87,-928.02"/>
</g>
<!-- Node3&#45;&gt;Node36 -->
<g id="edge27" class="edge">
<title>Node3&#45;&gt;Node36</title>
<path fill="none" stroke="midnightblue" d="M314.11,-584.93C317.62,-533.47 336.87,-291.61 392,-247.56 449.47,-201.64 653.69,-227.89 723,-252.56 745.83,-260.68 767.29,-278.62 781.26,-292.22"/>
<polygon fill="midnightblue" stroke="midnightblue" points="779.05,-294.96 788.57,-299.61 784.03,-290.04 779.05,-294.96"/>
</g>
<!-- Node3&#45;&gt;Node75 -->
<g id="edge34" class="edge">
<title>Node3&#45;&gt;Node75</title>
<path fill="none" stroke="midnightblue" d="M314.5,-584.95C319.62,-537.64 344.57,-330.07 392,-290.56 453.52,-239.3 553.26,-248.53 611.7,-259.98"/>
<polygon fill="midnightblue" stroke="midnightblue" points="611.26,-263.47 621.76,-262.06 612.67,-256.61 611.26,-263.47"/>
</g>
<!-- Node161 -->
<g id="node13" class="node">
<title>Node161</title>
<g id="a_node13"><a xlink:href="quickjs_8c.html#a61c8dfb5e807af1b6ff7d8ca61576dda" target="_top" xlink:title=" ">
<polygon fill="none" stroke="red" points="429,-946.06 429,-965.06 523,-965.06 523,-946.06 429,-946.06"/>
<text text-anchor="middle" x="476" y="-953.06" font-family="Helvetica,sans-Serif" font-size="10.00">build_backtrace</text>
</a>
</g>
</g>
<!-- Node3&#45;&gt;Node161 -->
<g id="edge13" class="edge">
<title>Node3&#45;&gt;Node161</title>
<path fill="none" stroke="midnightblue" d="M315.11,-604.34C323.98,-657.69 367.33,-911.9 392,-936.56 399.37,-943.92 408.97,-948.67 419.02,-951.69"/>
<polygon fill="midnightblue" stroke="midnightblue" points="418.18,-955.09 428.73,-954.08 419.86,-948.29 418.18,-955.09"/>
</g>
<!-- Node248 -->
<g id="node14" class="node">
<title>Node248</title>
<g id="a_node14"><a xlink:href="quickjs_8c.html#a344894112559c2ba75043fd10bcfa02f" target="_top" xlink:title=" ">
<polygon fill="none" stroke="red" points="609,-395.06 609,-414.06 710,-414.06 710,-395.06 609,-395.06"/>
<text text-anchor="middle" x="659.5" y="-402.06" font-family="Helvetica,sans-Serif" font-size="10.00">close_lexical_var</text>
</a>
</g>
</g>
<!-- Node3&#45;&gt;Node248 -->
<g id="edge14" class="edge">
<title>Node3&#45;&gt;Node248</title>
<path fill="none" stroke="midnightblue" d="M320.53,-584.91C333,-568.56 360.63,-535.52 392,-518.56 459.33,-482.14 490.73,-513.15 560,-480.56 592.01,-465.5 623.37,-438.6 641.82,-421.18"/>
<polygon fill="midnightblue" stroke="midnightblue" points="644.35,-423.6 649.12,-414.14 639.49,-418.56 644.35,-423.6"/>
</g>
<!-- Node249 -->
<g id="node15" class="node">
<title>Node249</title>
<g id="a_node15"><a xlink:href="quickjs_8c.html#a1782043fce951bd4f0d91c7796b31e24" target="_top" xlink:title=" ">
<polygon fill="none" stroke="red" points="432.5,-908.06 432.5,-927.06 519.5,-927.06 519.5,-908.06 432.5,-908.06"/>
<text text-anchor="middle" x="476" y="-915.06" font-family="Helvetica,sans-Serif" font-size="10.00">close_var_refs</text>
</a>
</g>
</g>
<!-- Node3&#45;&gt;Node249 -->
<g id="edge16" class="edge">
<title>Node3&#45;&gt;Node249</title>
<path fill="none" stroke="midnightblue" d="M314.66,-604.33C320.47,-651.57 347.85,-855.61 392,-898.56 400.28,-906.61 411.23,-911.52 422.46,-914.45"/>
<polygon fill="midnightblue" stroke="midnightblue" points="421.83,-917.89 432.33,-916.54 423.28,-911.04 421.83,-917.89"/>
</g>
<!-- Node54 -->
<g id="node16" class="node">
<title>Node54</title>
<g id="a_node16"><a xlink:href="quickjs_8c.html#a9e7b4bccf927d811b0f99b40b08c0472" target="_top" xlink:title=" ">
<polygon fill="none" stroke="red" points="438,-870.06 438,-889.06 514,-889.06 514,-870.06 438,-870.06"/>
<text text-anchor="middle" x="476" y="-877.06" font-family="Helvetica,sans-Serif" font-size="10.00">free_var_ref</text>
</a>
</g>
</g>
<!-- Node3&#45;&gt;Node54 -->
<g id="edge18" class="edge">
<title>Node3&#45;&gt;Node54</title>
<path fill="none" stroke="midnightblue" d="M313.33,-604.25C313.21,-642.21 318,-782.34 392,-855.56 401.69,-865.14 414.95,-870.95 428.03,-874.45"/>
<polygon fill="midnightblue" stroke="midnightblue" points="427.41,-877.89 437.94,-876.7 428.96,-871.07 427.41,-877.89"/>
</g>
<!-- Node251 -->
<g id="node17" class="node">
<title>Node251</title>
<g id="a_node17"><a xlink:href="cutils_8h.html#a7c82a3ee025fee89db5b11ff5b7691b8" target="_top" xlink:title=" ">
<polygon fill="none" stroke="black" points="449.5,-756.06 449.5,-775.06 502.5,-775.06 502.5,-756.06 449.5,-756.06"/>
<text text-anchor="middle" x="476" y="-763.06" font-family="Helvetica,sans-Serif" font-size="10.00">get_i16</text>
</a>
</g>
</g>
<!-- Node3&#45;&gt;Node251 -->
<g id="edge19" class="edge">
<title>Node3&#45;&gt;Node251</title>
<path fill="none" stroke="midnightblue" d="M315.51,-604.2C321.67,-631.28 342.95,-708.52 392,-746.56 405.42,-756.96 423.5,-761.85 439.36,-764.09"/>
<polygon fill="midnightblue" stroke="midnightblue" points="439.07,-767.57 449.39,-765.2 439.84,-760.62 439.07,-767.57"/>
</g>
<!-- Node252 -->
<g id="node18" class="node">
<title>Node252</title>
<g id="a_node18"><a xlink:href="cutils_8h.html#a288ee4e688944e23500af2ecc813c306" target="_top" xlink:title=" ">
<polygon fill="none" stroke="black" points="452.5,-718.06 452.5,-737.06 499.5,-737.06 499.5,-718.06 452.5,-718.06"/>
<text text-anchor="middle" x="476" y="-725.06" font-family="Helvetica,sans-Serif" font-size="10.00">get_i8</text>
</a>
</g>
</g>
<!-- Node3&#45;&gt;Node252 -->
<g id="edge20" class="edge">
<title>Node3&#45;&gt;Node252</title>
<path fill="none" stroke="midnightblue" d="M317.28,-604.33C326.44,-626.62 352.04,-681.43 392,-708.56 406.75,-718.57 426.02,-723.36 442.28,-725.64"/>
<polygon fill="midnightblue" stroke="midnightblue" points="442.12,-729.14 452.45,-726.79 442.91,-722.19 442.12,-729.14"/>
</g>
<!-- Node253 -->
<g id="node19" class="node">
<title>Node253</title>
<g id="a_node19"><a xlink:href="cutils_8h.html#ad587834d17e95461893d59661e5e9676" target="_top" xlink:title=" ">
<polygon fill="none" stroke="black" points="448,-680.06 448,-699.06 504,-699.06 504,-680.06 448,-680.06"/>
<text text-anchor="middle" x="476" y="-687.06" font-family="Helvetica,sans-Serif" font-size="10.00">get_u16</text>
</a>
</g>
</g>
<!-- Node3&#45;&gt;Node253 -->
<g id="edge21" class="edge">
<title>Node3&#45;&gt;Node253</title>
<path fill="none" stroke="midnightblue" d="M320.54,-604.2C333.01,-620.53 360.65,-653.55 392,-670.56 406.04,-678.18 423.02,-682.75 437.95,-685.49"/>
<polygon fill="midnightblue" stroke="midnightblue" points="437.47,-688.95 447.9,-687.11 438.59,-682.05 437.47,-688.95"/>
</g>
<!-- Node50 -->
<g id="node20" class="node">
<title>Node50</title>
<g id="a_node20"><a xlink:href="cutils_8h.html#a941262a5f72fda2ec43ae7911e97a0dc" target="_top" xlink:title=" ">
<polygon fill="none" stroke="black" points="448,-642.06 448,-661.06 504,-661.06 504,-642.06 448,-642.06"/>
<text text-anchor="middle" x="476" y="-649.06" font-family="Helvetica,sans-Serif" font-size="10.00">get_u32</text>
</a>
</g>
</g>
<!-- Node3&#45;&gt;Node50 -->
<g id="edge22" class="edge">
<title>Node3&#45;&gt;Node50</title>
<path fill="none" stroke="midnightblue" d="M330.48,-604.17C346.06,-612.65 370,-624.83 392,-632.56 406.59,-637.68 423.11,-641.79 437.56,-644.86"/>
<polygon fill="midnightblue" stroke="midnightblue" points="437.15,-648.35 447.65,-646.91 438.55,-641.49 437.15,-648.35"/>
</g>
<!-- Node254 -->
<g id="node21" class="node">
<title>Node254</title>
<g id="a_node21"><a xlink:href="quickjs_8c.html#a37fe43b6649456a848bd54846450b995" target="_top" xlink:title=" ">
<polygon fill="none" stroke="red" points="440,-604.06 440,-623.06 512,-623.06 512,-604.06 440,-604.06"/>
<text text-anchor="middle" x="476" y="-611.06" font-family="Helvetica,sans-Serif" font-size="10.00">get_var_ref</text>
</a>
</g>
</g>
<!-- Node3&#45;&gt;Node254 -->
<g id="edge23" class="edge">
<title>Node3&#45;&gt;Node254</title>
<path fill="none" stroke="midnightblue" d="M356.36,-599.6C378.96,-602.26 406.7,-605.52 429.67,-608.22"/>
<polygon fill="midnightblue" stroke="midnightblue" points="429.51,-611.73 439.85,-609.42 430.33,-604.78 429.51,-611.73"/>
</g>
<!-- Node197 -->
<g id="node22" class="node">
<title>Node197</title>
<g id="a_node22"><a xlink:href="list_8h.html#a663527a4d757540b2177bef0db1ce5c0" target="_top" xlink:title=" ">
<polygon fill="none" stroke="black" points="435,-566.06 435,-585.06 517,-585.06 517,-566.06 435,-566.06"/>
<text text-anchor="middle" x="476" y="-573.06" font-family="Helvetica,sans-Serif" font-size="10.00">init_list_head</text>
</a>
</g>
</g>
<!-- Node3&#45;&gt;Node197 -->
<g id="edge24" class="edge">
<title>Node3&#45;&gt;Node197</title>
<path fill="none" stroke="midnightblue" d="M356.36,-589.52C377.33,-587.05 402.72,-584.06 424.61,-581.48"/>
<polygon fill="midnightblue" stroke="midnightblue" points="425.2,-584.94 434.73,-580.3 424.38,-577.99 425.2,-584.94"/>
</g>
<!-- Node3&#45;&gt;Node68 -->
<g id="edge29" class="edge">
<title>Node3&#45;&gt;Node68</title>
<path fill="none" stroke="midnightblue" d="M315.17,-604.35C326.35,-669.97 390.06,-1043.4 392,-1045.56 399.74,-1054.2 410.38,-1059.81 421.47,-1063.43"/>
<polygon fill="midnightblue" stroke="midnightblue" points="420.68,-1066.84 431.25,-1066.13 422.54,-1060.09 420.68,-1066.84"/>
</g>
<!-- Node69 -->
<g id="node24" class="node">
<title>Node69</title>
<g id="a_node24"><a xlink:href="quickjs_8c.html#a5762c57ae0c9937e986040c01222833a" target="_top" xlink:title=" ">
<polygon fill="none" stroke="red" points="596,-900.06 596,-919.06 723,-919.06 723,-900.06 596,-900.06"/>
<text text-anchor="middle" x="659.5" y="-907.06" font-family="Helvetica,sans-Serif" font-size="10.00">JS_GetPropertyInternal</text>
</a>
</g>
</g>
<!-- Node3&#45;&gt;Node69 -->
<g id="edge33" class="edge">
<title>Node3&#45;&gt;Node69</title>
<path fill="none" stroke="midnightblue" d="M314.11,-604.29C316.75,-637.81 330.02,-749.69 392,-808.56 448.67,-862.39 491.31,-823.26 560,-860.56 578.3,-870.5 577.67,-880.66 596,-890.56 600.04,-892.74 604.36,-894.7 608.78,-896.47"/>
<polygon fill="midnightblue" stroke="midnightblue" points="607.93,-899.88 618.53,-900.01 610.33,-893.3 607.93,-899.88"/>
</g>
<!-- Node3&#45;&gt;Node287 -->
<g id="edge35" class="edge">
<title>Node3&#45;&gt;Node287</title>
<path fill="none" stroke="midnightblue" d="M314.21,-584.79C318.26,-531.41 340.21,-275.39 392,-219.56 401.93,-208.85 416.32,-202.81 430.33,-199.45"/>
<polygon fill="midnightblue" stroke="midnightblue" points="431.27,-202.83 440.4,-197.44 429.9,-195.96 431.27,-202.83"/>
</g>
<!-- Node127 -->
<g id="node26" class="node">
<title>Node127</title>
<g id="a_node26"><a xlink:href="quickjs_8h.html#a4e407128a9605afb77523e49e9a627fd" target="_top" xlink:title=" ">
<polygon fill="none" stroke="black" points="615,-338.06 615,-357.06 704,-357.06 704,-338.06 615,-338.06"/>
<text text-anchor="middle" x="659.5" y="-345.06" font-family="Helvetica,sans-Serif" font-size="10.00">JS_IsUndefined</text>
</a>
</g>
</g>
<!-- Node3&#45;&gt;Node127 -->
<g id="edge36" class="edge">
<title>Node3&#45;&gt;Node127</title>
<path fill="none" stroke="midnightblue" d="M313.39,-584.65C313.59,-548.4 319.63,-422.16 392,-366.56 454.28,-318.7 550.77,-325.84 608.96,-336.16"/>
<polygon fill="midnightblue" stroke="midnightblue" points="608.54,-339.64 619.02,-338.04 609.83,-332.76 608.54,-339.64"/>
</g>
<!-- Node3&#45;&gt;Node234 -->
<g id="edge37" class="edge">
<title>Node3&#45;&gt;Node234</title>
<path fill="none" stroke="midnightblue" d="M314.14,-584.98C318.21,-526.44 341.84,-216.85 392,-138.56 404.21,-119.5 425.29,-105.15 443.15,-95.61"/>
<polygon fill="midnightblue" stroke="midnightblue" points="444.79,-98.7 452.13,-91.06 441.63,-92.45 444.79,-98.7"/>
</g>
<!-- Node3&#45;&gt;Node245 -->
<g id="edge39" class="edge">
<title>Node3&#45;&gt;Node245</title>
<path fill="none" stroke="midnightblue" d="M313.93,-584.77C316.61,-527.65 333.02,-237.9 392,-176.56 393.23,-175.27 394.53,-174.07 395.89,-172.94"/>
<polygon fill="midnightblue" stroke="midnightblue" points="397.95,-175.77 404.25,-167.25 394.01,-169.99 397.95,-175.77"/>
</g>
<!-- Node65&#45;&gt;Node4 -->
<g id="edge8" class="edge">
<title>Node65&#45;&gt;Node4</title>
<path fill="none" stroke="midnightblue" d="M517.04,-539.92C531.72,-542.44 547.72,-547.31 560,-556.56 614.47,-597.56 642.8,-677.93 653.44,-714.99"/>
<polygon fill="midnightblue" stroke="midnightblue" points="650.17,-716.29 656.18,-725.01 656.92,-714.44 650.17,-716.29"/>
</g>
<!-- Node65&#45;&gt;Node66 -->
<g id="edge9" class="edge">
<title>Node65&#45;&gt;Node66</title>
<path fill="none" stroke="midnightblue" d="M517.08,-537.7C532.47,-539.84 548.96,-545.02 560,-556.56 621.53,-620.87 566.83,-669.47 596,-753.56 608.96,-790.93 632.41,-830.9 646.61,-853.41"/>
<polygon fill="midnightblue" stroke="midnightblue" points="643.73,-855.4 652.07,-861.93 649.62,-851.62 643.73,-855.4"/>
</g>
<!-- Node65&#45;&gt;Node36 -->
<g id="edge11" class="edge">
<title>Node65&#45;&gt;Node36</title>
<path fill="none" stroke="midnightblue" d="M514.93,-528.01C567.18,-513.22 661.77,-480.4 723,-423.56 753.17,-395.55 776.77,-352.9 788.77,-328.49"/>
<polygon fill="midnightblue" stroke="midnightblue" points="792.04,-329.77 793.19,-319.23 785.72,-326.75 792.04,-329.77"/>
</g>
<!-- Node65&#45;&gt;Node75 -->
<g id="edge12" class="edge">
<title>Node65&#45;&gt;Node75</title>
<path fill="none" stroke="midnightblue" d="M499.15,-528.01C518.19,-518.67 544.88,-502.62 560,-480.56 599.25,-423.29 560.79,-388.39 596,-328.56 605.72,-312.05 621.76,-297.57 635.15,-287.33"/>
<polygon fill="midnightblue" stroke="midnightblue" points="637.48,-289.97 643.48,-281.24 633.34,-284.32 637.48,-289.97"/>
</g>
<!-- Node66&#45;&gt;Node57 -->
<g id="edge10" class="edge">
<title>Node66&#45;&gt;Node57</title>
<path fill="none" stroke="midnightblue" d="M695.07,-881.15C712.68,-886.03 734.28,-892.02 753.1,-897.24"/>
<polygon fill="midnightblue" stroke="midnightblue" points="752.37,-900.67 762.94,-899.97 754.24,-893.93 752.37,-900.67"/>
</g>
<!-- Node248&#45;&gt;Node36 -->
<g id="edge15" class="edge">
<title>Node248&#45;&gt;Node36</title>
<path fill="none" stroke="midnightblue" d="M677.25,-395.03C690.02,-387.61 707.9,-376.88 723,-366.56 742.1,-353.5 762.96,-337.37 777.73,-325.61"/>
<polygon fill="midnightblue" stroke="midnightblue" points="780.05,-328.23 785.66,-319.24 775.67,-322.77 780.05,-328.23"/>
</g>
<!-- Node68&#45;&gt;Node69 -->
<g id="edge30" class="edge">
<title>Node68&#45;&gt;Node69</title>
<path fill="none" stroke="midnightblue" d="M490.97,-1060.03C507.85,-1048.32 536.86,-1027.54 560,-1007.56 590.81,-980.95 623.8,-946.84 642.71,-926.68"/>
<polygon fill="midnightblue" stroke="midnightblue" points="645.43,-928.9 649.68,-919.19 640.31,-924.13 645.43,-928.9"/>
</g>
<!-- Node69&#45;&gt;Node57 -->
<g id="edge32" class="edge">
<title>Node69&#45;&gt;Node57</title>
<path fill="none" stroke="midnightblue" d="M723.39,-909.56C731.89,-909.56 740.52,-909.56 748.73,-909.56"/>
<polygon fill="midnightblue" stroke="midnightblue" points="748.86,-913.06 758.86,-909.56 748.86,-906.06 748.86,-913.06"/>
</g>
<!-- Node69&#45;&gt;Node36 -->
<g id="edge31" class="edge">
<title>Node69&#45;&gt;Node36</title>
<path fill="none" stroke="midnightblue" d="M711.17,-900.06C715.64,-897.57 719.71,-894.46 723,-890.56 796.8,-803.22 798.43,-420.99 797.74,-329.35"/>
<polygon fill="midnightblue" stroke="midnightblue" points="801.24,-329.2 797.64,-319.24 794.24,-329.27 801.24,-329.2"/>
</g>
<!-- Node234&#45;&gt;Node36 -->
<g id="edge38" class="edge">
<title>Node234&#45;&gt;Node36</title>
<path fill="none" stroke="midnightblue" d="M520.22,-91.16C533.33,-94.83 547.55,-99.61 560,-105.56 639.76,-143.68 658,-159.63 723,-219.56 747.35,-242.01 770.95,-272.43 784.84,-291.53"/>
<polygon fill="midnightblue" stroke="midnightblue" points="782.18,-293.81 790.85,-299.9 787.87,-289.74 782.18,-293.81"/>
</g>
<!-- Node376&#45;&gt;Node57 -->
<g id="edge48" class="edge">
<title>Node376&#45;&gt;Node57</title>
<path fill="none" stroke="midnightblue" d="M496.68,-319.14C515.06,-328.92 542.26,-345.62 560,-366.56 587.67,-399.21 706.26,-676.17 723,-715.56 749.85,-778.75 777.95,-855.2 790.61,-890.28"/>
<polygon fill="midnightblue" stroke="midnightblue" points="787.34,-891.54 794.02,-899.77 793.93,-889.18 787.34,-891.54"/>
</g>
<!-- Node376&#45;&gt;Node36 -->
<g id="edge47" class="edge">
<title>Node376&#45;&gt;Node36</title>
<path fill="none" stroke="midnightblue" d="M550.53,-309.56C611.69,-309.56 696.97,-309.56 749.63,-309.56"/>
<polygon fill="midnightblue" stroke="midnightblue" points="749.71,-313.06 759.71,-309.56 749.71,-306.06 749.71,-313.06"/>
</g>
<!-- Node376&#45;&gt;Node75 -->
<g id="edge49" class="edge">
<title>Node376&#45;&gt;Node75</title>
<path fill="none" stroke="midnightblue" d="M522.8,-299.97C548.13,-294.67 579.71,-288.05 606.03,-282.54"/>
<polygon fill="midnightblue" stroke="midnightblue" points="606.76,-285.97 615.83,-280.49 605.33,-279.11 606.76,-285.97"/>
</g>
<!-- Node376&#45;&gt;Node127 -->
<g id="edge50" class="edge">
<title>Node376&#45;&gt;Node127</title>
<path fill="none" stroke="midnightblue" d="M522.8,-319.15C547.74,-324.37 578.74,-330.86 604.81,-336.32"/>
<polygon fill="midnightblue" stroke="midnightblue" points="604.4,-339.81 614.9,-338.43 605.83,-332.95 604.4,-339.81"/>
</g>
</g>
</svg>
        <g id="navigator" transform="translate(0 0)" fill="#404254">
                <rect fill="#f2f5e9" fill-opacity="0.5" stroke="#606060" stroke-width=".5" x="0" y="0" width="60" height="60"/>
                <use id="zoomplus" xlink:href="#zoomPlus" x="17" y="9" onmousedown="handleZoom(evt,'in')"/>
                <use id="zoomminus" xlink:href="#zoomMin" x="42" y="9" onmousedown="handleZoom(evt,'out')"/>
                <use id="reset" xlink:href="#resetDef" x="30" y="36" onmousedown="handleReset()"/>
                <g id="arrowUp" xlink:href="#dirArrow" transform="translate(30 24)" onmousedown="handlePan(0,-1)">
                  <use xlink:href="#rim" fill="#404040">
                        <set attributeName="fill" to="#808080" begin="arrowUp.mouseover" end="arrowUp.mouseout"/>
                  </use>
                  <path fill="none" stroke="white" stroke-width="1.5" d="M0,-3.0v7 M-2.5,-0.5L0,-3.0L2.5,-0.5"/>
                </g>
                <g id="arrowRight" xlink:href="#dirArrow" transform="rotate(90) translate(36 -43)" onmousedown="handlePan(1,0)">
                  <use xlink:href="#rim" fill="#404040">
                        <set attributeName="fill" to="#808080" begin="arrowRight.mouseover" end="arrowRight.mouseout"/>
                  </use>
                  <path fill="none" stroke="white" stroke-width="1.5" d="M0,-3.0v7 M-2.5,-0.5L0,-3.0L2.5,-0.5"/>
                </g>
                <g id="arrowDown" xlink:href="#dirArrow" transform="rotate(180) translate(-30 -48)" onmousedown="handlePan(0,1)">
                  <use xlink:href="#rim" fill="#404040">
                        <set attributeName="fill" to="#808080" begin="arrowDown.mouseover" end="arrowDown.mouseout"/>
                  </use>
                  <path fill="none" stroke="white" stroke-width="1.5" d="M0,-3.0v7 M-2.5,-0.5L0,-3.0L2.5,-0.5"/>
                </g>
                <g id="arrowLeft" xlink:href="#dirArrow" transform="rotate(270) translate(-36 17)" onmousedown="handlePan(-1,0)">
                  <use xlink:href="#rim" fill="#404040">
                        <set attributeName="fill" to="#808080" begin="arrowLeft.mouseover" end="arrowLeft.mouseout"/>
                  </use>
                  <path fill="none" stroke="white" stroke-width="1.5" d="M0,-3.0v7 M-2.5,-0.5L0,-3.0L2.5,-0.5"/>
                </g>
        </g>
        <svg viewBox="0 0 15 15" width="100%" height="30px" preserveAspectRatio="xMaxYMin meet">
         <g id="arrow_out" transform="scale(0.3 0.3)">
          <a xlink:href="quickjs_8c_a192c7bd4fc5264ccdf89e13ed5bc0dcc_cgraph_org.svg" target="_base">
           <rect id="button" ry="5" rx="5" y="6" x="6" height="38" width="38"
                fill="#f2f5e9" fill-opacity="0.5" stroke="#606060" stroke-width="1.0"/>
           <path id="arrow"
             d="M 11.500037,31.436501 C 11.940474,20.09759 22.043105,11.32322 32.158766,21.979434 L 37.068811,17.246167 C 37.068811,17.246167 37.088388,32 37.088388,32 L 22.160133,31.978069 C 22.160133,31.978069 26.997745,27.140456 26.997745,27.140456 C 18.528582,18.264221 13.291696,25.230495 11.500037,31.436501 z"
             style="fill:#404040;"/>
          </a>
         </g>
        </svg>
</svg>
