<?xml version="1.0" encoding="UTF-8" standalone="no"?>
<!DOCTYPE svg PUBLIC "-//W3C//DTD SVG 1.1//EN"
 "http://www.w3.org/Graphics/SVG/1.1/DTD/svg11.dtd">
<!-- Generated by graphviz version 2.43.0 (0)
 -->
<!-- Title: js_proxy_call_constructor Pages: 1 -->
<svg width="899pt" height="1028pt"
 viewBox="0.00 0.00 899.00 1027.50" xmlns="http://www.w3.org/2000/svg" xmlns:xlink="http://www.w3.org/1999/xlink">
<g id="graph0" class="graph" transform="scale(1 1) rotate(0) translate(4 1023.5)">
<title>js_proxy_call_constructor</title>
<!-- Node1 -->
<g id="node1" class="node">
<title>Node1</title>
<g id="a_node1"><a xlink:title=" ">
<polygon fill="#bfbfbf" stroke="black" points="0,-152.5 0,-171.5 140,-171.5 140,-152.5 0,-152.5"/>
<text text-anchor="middle" x="70" y="-159.5" font-family="Helvetica,sans-Serif" font-size="10.00">js_proxy_call_constructor</text>
</a>
</g>
</g>
<!-- Node2 -->
<g id="node2" class="node">
<title>Node2</title>
<g id="a_node2"><a xlink:href="quickjs_8c.html#a9e94551ddba8762d74eda5127445dbbd" target="_top" xlink:title=" ">
<polygon fill="none" stroke="black" points="309,-893.5 309,-912.5 417,-912.5 417,-893.5 309,-893.5"/>
<text text-anchor="middle" x="363" y="-900.5" font-family="Helvetica,sans-Serif" font-size="10.00">get_proxy_method</text>
</a>
</g>
</g>
<!-- Node1&#45;&gt;Node2 -->
<g id="edge1" class="edge">
<title>Node1&#45;&gt;Node2</title>
<path fill="none" stroke="midnightblue" d="M73.17,-171.68C82.79,-214.07 123.48,-387.25 176,-523 231.63,-666.81 321.1,-830.3 351.5,-884.48"/>
<polygon fill="midnightblue" stroke="midnightblue" points="348.51,-886.31 356.47,-893.3 354.61,-882.87 348.51,-886.31"/>
</g>
<!-- Node5 -->
<g id="node5" class="node">
<title>Node5</title>
<g id="a_node5"><a xlink:href="quickjs_8h.html#ad80a83d73e9b7d872b88fbf2943aebe9" target="_top" xlink:title=" ">
<polygon fill="none" stroke="black" points="674,-228.5 674,-247.5 761,-247.5 761,-228.5 674,-228.5"/>
<text text-anchor="middle" x="717.5" y="-235.5" font-family="Helvetica,sans-Serif" font-size="10.00">JS_IsException</text>
</a>
</g>
</g>
<!-- Node1&#45;&gt;Node5 -->
<g id="edge52" class="edge">
<title>Node1&#45;&gt;Node5</title>
<path fill="none" stroke="midnightblue" d="M91.04,-152.44C166.14,-118.1 436.18,-7.97 623,-105 669.38,-129.09 697.58,-187.91 709.64,-218.62"/>
<polygon fill="midnightblue" stroke="midnightblue" points="706.45,-220.07 713.23,-228.21 713,-217.61 706.45,-220.07"/>
</g>
<!-- Node10 -->
<g id="node10" class="node">
<title>Node10</title>
<g id="a_node10"><a xlink:href="quickjs_8c.html#a1a4c02a29525d5cb2085dd8bca3af350" target="_top" xlink:title=" ">
<polygon fill="none" stroke="black" points="198.5,-494.5 198.5,-513.5 248.5,-513.5 248.5,-494.5 198.5,-494.5"/>
<text text-anchor="middle" x="223.5" y="-501.5" font-family="Helvetica,sans-Serif" font-size="10.00">JS_Call</text>
</a>
</g>
</g>
<!-- Node1&#45;&gt;Node10 -->
<g id="edge9" class="edge">
<title>Node1&#45;&gt;Node10</title>
<path fill="none" stroke="midnightblue" d="M75.21,-171.5C95.81,-218 186.1,-421.84 214.15,-485.16"/>
<polygon fill="midnightblue" stroke="midnightblue" points="210.99,-486.65 218.24,-494.38 217.39,-483.82 210.99,-486.65"/>
</g>
<!-- Node64 -->
<g id="node17" class="node">
<title>Node64</title>
<g id="a_node17"><a xlink:href="quickjs_8h.html#afaa20c47565bc704c6c85f3d77254e7d" target="_top" xlink:title=" ">
<polygon fill="none" stroke="red" points="812,-266.5 812,-285.5 891,-285.5 891,-266.5 812,-266.5"/>
<text text-anchor="middle" x="851.5" y="-273.5" font-family="Helvetica,sans-Serif" font-size="10.00">JS_FreeValue</text>
</a>
</g>
</g>
<!-- Node1&#45;&gt;Node64 -->
<g id="edge50" class="edge">
<title>Node1&#45;&gt;Node64</title>
<path fill="none" stroke="midnightblue" d="M81.41,-152.26C99.29,-136.09 137.64,-103.83 176,-87 253.35,-53.06 277.54,-48 362,-48 362,-48 362,-48 540,-48 663.1,-48 687.78,-107.14 776,-193 797.98,-214.39 821.28,-241.08 835.85,-258.33"/>
<polygon fill="midnightblue" stroke="midnightblue" points="833.52,-260.99 842.62,-266.41 838.88,-256.5 833.52,-260.99"/>
</g>
<!-- Node132 -->
<g id="node25" class="node">
<title>Node132</title>
<g id="a_node25"><a xlink:href="quickjs_8h.html#a4e407128a9605afb77523e49e9a627fd" target="_top" xlink:title=" ">
<polygon fill="none" stroke="black" points="494.5,-152.5 494.5,-171.5 583.5,-171.5 583.5,-152.5 494.5,-152.5"/>
<text text-anchor="middle" x="539" y="-159.5" font-family="Helvetica,sans-Serif" font-size="10.00">JS_IsUndefined</text>
</a>
</g>
</g>
<!-- Node1&#45;&gt;Node132 -->
<g id="edge53" class="edge">
<title>Node1&#45;&gt;Node132</title>
<path fill="none" stroke="midnightblue" d="M140.16,-162C233.88,-162 399.23,-162 484.23,-162"/>
<polygon fill="midnightblue" stroke="midnightblue" points="484.44,-165.5 494.44,-162 484.44,-158.5 484.44,-165.5"/>
</g>
<!-- Node245 -->
<g id="node27" class="node">
<title>Node245</title>
<g id="a_node27"><a xlink:href="quickjs_8c.html#a726b00d108e0a0f4d958c36c2e426a64" target="_top" xlink:title=" ">
<polygon fill="none" stroke="black" points="455,-114.5 455,-133.5 623,-133.5 623,-114.5 455,-114.5"/>
<text text-anchor="middle" x="539" y="-121.5" font-family="Helvetica,sans-Serif" font-size="10.00">JS_ThrowTypeErrorNotAnObject</text>
</a>
</g>
</g>
<!-- Node1&#45;&gt;Node245 -->
<g id="edge54" class="edge">
<title>Node1&#45;&gt;Node245</title>
<path fill="none" stroke="midnightblue" d="M140.16,-156.37C220.84,-149.81 354.61,-138.92 444.5,-131.61"/>
<polygon fill="midnightblue" stroke="midnightblue" points="445.01,-135.08 454.69,-130.78 444.44,-128.1 445.01,-135.08"/>
</g>
<!-- Node401 -->
<g id="node28" class="node">
<title>Node401</title>
<g id="a_node28"><a xlink:href="quickjs_8c.html#a03d5edf3e8bb18809d6675e5c08bac26" target="_top" xlink:title=" ">
<polygon fill="none" stroke="black" points="307,-190.5 307,-209.5 419,-209.5 419,-190.5 307,-190.5"/>
<text text-anchor="middle" x="363" y="-197.5" font-family="Helvetica,sans-Serif" font-size="10.00">JS_CallConstructor2</text>
</a>
</g>
</g>
<!-- Node1&#45;&gt;Node401 -->
<g id="edge43" class="edge">
<title>Node1&#45;&gt;Node401</title>
<path fill="none" stroke="midnightblue" d="M140.18,-171.27C152.13,-172.85 164.42,-174.48 176,-176 215.96,-181.24 260.76,-187.03 296.38,-191.6"/>
<polygon fill="midnightblue" stroke="midnightblue" points="296.28,-195.12 306.65,-192.92 297.18,-188.17 296.28,-195.12"/>
</g>
<!-- Node269 -->
<g id="node29" class="node">
<title>Node269</title>
<g id="a_node29"><a xlink:href="quickjs_8c.html#a339d687d765143d3f8ea0ea89fa47b0f" target="_top" xlink:title=" ">
<polygon fill="none" stroke="red" points="493,-266.5 493,-285.5 585,-285.5 585,-266.5 493,-266.5"/>
<text text-anchor="middle" x="539" y="-273.5" font-family="Helvetica,sans-Serif" font-size="10.00">js_create_array</text>
</a>
</g>
</g>
<!-- Node1&#45;&gt;Node269 -->
<g id="edge45" class="edge">
<title>Node1&#45;&gt;Node269</title>
<path fill="none" stroke="midnightblue" d="M97.98,-171.52C119.06,-178.77 149.19,-188.71 176,-196 283.6,-225.24 411.33,-251.54 482.69,-265.49"/>
<polygon fill="midnightblue" stroke="midnightblue" points="482.31,-268.98 492.8,-267.46 483.65,-262.11 482.31,-268.98"/>
</g>
<!-- Node418 -->
<g id="node30" class="node">
<title>Node418</title>
<g id="a_node30"><a xlink:href="quickjs_8c.html#afa39b15865cb50fc2383e76e33b2de1a" target="_top" xlink:title=" ">
<polygon fill="none" stroke="black" points="176,-0.5 176,-19.5 271,-19.5 271,-0.5 176,-0.5"/>
<text text-anchor="middle" x="223.5" y="-7.5" font-family="Helvetica,sans-Serif" font-size="10.00">JS_IsConstructor</text>
</a>
</g>
</g>
<!-- Node1&#45;&gt;Node418 -->
<g id="edge51" class="edge">
<title>Node1&#45;&gt;Node418</title>
<path fill="none" stroke="midnightblue" d="M77.02,-152.19C91.58,-129.1 130.86,-70.51 176,-34 180.41,-30.43 185.45,-27.17 190.53,-24.29"/>
<polygon fill="midnightblue" stroke="midnightblue" points="192.39,-27.26 199.61,-19.51 189.13,-21.07 192.39,-27.26"/>
</g>
<!-- Node3 -->
<g id="node3" class="node">
<title>Node3</title>
<g id="a_node3"><a xlink:href="quickjs_8c.html#af23ec7c9970ceb4671c59da7abd4b078" target="_top" xlink:title=" ">
<polygon fill="none" stroke="black" points="470.5,-912.5 470.5,-931.5 607.5,-931.5 607.5,-912.5 470.5,-912.5"/>
<text text-anchor="middle" x="539" y="-919.5" font-family="Helvetica,sans-Serif" font-size="10.00">js_check_stack_overflow</text>
</a>
</g>
</g>
<!-- Node2&#45;&gt;Node3 -->
<g id="edge2" class="edge">
<title>Node2&#45;&gt;Node3</title>
<path fill="none" stroke="midnightblue" d="M417.15,-908.8C430.79,-910.29 445.75,-911.93 460.35,-913.52"/>
<polygon fill="midnightblue" stroke="midnightblue" points="460.06,-917.01 470.38,-914.62 460.82,-910.05 460.06,-917.01"/>
</g>
<!-- Node2&#45;&gt;Node5 -->
<g id="edge4" class="edge">
<title>Node2&#45;&gt;Node5</title>
<path fill="none" stroke="midnightblue" d="M365.22,-893.36C371.78,-842.91 404.55,-609.59 455,-561 510.14,-507.9 570.68,-578.88 623,-523 693.11,-448.11 612.25,-386.32 659,-295 667.33,-278.73 682.03,-264.29 694.48,-254.01"/>
<polygon fill="midnightblue" stroke="midnightblue" points="696.94,-256.53 702.63,-247.59 692.61,-251.03 696.94,-256.53"/>
</g>
<!-- Node6 -->
<g id="node6" class="node">
<title>Node6</title>
<g id="a_node6"><a xlink:href="quickjs_8h.html#a149f24b67e745bad93573b3b4c80db4c" target="_top" xlink:title=" ">
<polygon fill="none" stroke="black" points="509.5,-950.5 509.5,-969.5 568.5,-969.5 568.5,-950.5 509.5,-950.5"/>
<text text-anchor="middle" x="539" y="-957.5" font-family="Helvetica,sans-Serif" font-size="10.00">JS_IsNull</text>
</a>
</g>
</g>
<!-- Node2&#45;&gt;Node6 -->
<g id="edge5" class="edge">
<title>Node2&#45;&gt;Node6</title>
<path fill="none" stroke="midnightblue" d="M384.23,-912.62C402.42,-920.99 430.06,-933 455,-941 469.27,-945.58 485.26,-949.51 499.36,-952.59"/>
<polygon fill="midnightblue" stroke="midnightblue" points="498.74,-956.03 509.25,-954.68 500.19,-949.19 498.74,-956.03"/>
</g>
<!-- Node7 -->
<g id="node7" class="node">
<title>Node7</title>
<g id="a_node7"><a xlink:href="quickjs_8c.html#a8353f635fb8a20553c08db8cf38c17e0" target="_top" xlink:title=" ">
<polygon fill="none" stroke="black" points="473.5,-874.5 473.5,-893.5 604.5,-893.5 604.5,-874.5 473.5,-874.5"/>
<text text-anchor="middle" x="539" y="-881.5" font-family="Helvetica,sans-Serif" font-size="10.00">JS_ThrowStackOverflow</text>
</a>
</g>
</g>
<!-- Node2&#45;&gt;Node7 -->
<g id="edge6" class="edge">
<title>Node2&#45;&gt;Node7</title>
<path fill="none" stroke="midnightblue" d="M417.15,-897.2C431.66,-895.61 447.66,-893.86 463.14,-892.17"/>
<polygon fill="midnightblue" stroke="midnightblue" points="463.65,-895.64 473.21,-891.07 462.89,-888.68 463.65,-895.64"/>
</g>
<!-- Node9 -->
<g id="node9" class="node">
<title>Node9</title>
<g id="a_node9"><a xlink:href="quickjs_8c.html#a199d64ccbee0a90d93e1ad12745417f6" target="_top" xlink:title=" ">
<polygon fill="none" stroke="black" points="464.5,-989 464.5,-1019 613.5,-1019 613.5,-989 464.5,-989"/>
<text text-anchor="start" x="472.5" y="-1007" font-family="Helvetica,sans-Serif" font-size="10.00">JS_ThrowTypeErrorRevoked</text>
<text text-anchor="middle" x="539" y="-996" font-family="Helvetica,sans-Serif" font-size="10.00">Proxy</text>
</a>
</g>
</g>
<!-- Node2&#45;&gt;Node9 -->
<g id="edge8" class="edge">
<title>Node2&#45;&gt;Node9</title>
<path fill="none" stroke="midnightblue" d="M372.88,-912.61C388.18,-928.61 421.11,-960.74 455,-979 459.17,-981.25 463.57,-983.32 468.08,-985.22"/>
<polygon fill="midnightblue" stroke="midnightblue" points="466.86,-988.51 477.45,-988.91 469.42,-981.99 466.86,-988.51"/>
</g>
<!-- Node4 -->
<g id="node4" class="node">
<title>Node4</title>
<g id="a_node4"><a xlink:href="quickjs_8c.html#a36b8de436f88239e2e5515a3a423c6d9" target="_top" xlink:title=" ">
<polygon fill="none" stroke="black" points="659,-912.5 659,-931.5 776,-931.5 776,-912.5 659,-912.5"/>
<text text-anchor="middle" x="717.5" y="-919.5" font-family="Helvetica,sans-Serif" font-size="10.00">js_get_stack_pointer</text>
</a>
</g>
</g>
<!-- Node3&#45;&gt;Node4 -->
<g id="edge3" class="edge">
<title>Node3&#45;&gt;Node4</title>
<path fill="none" stroke="midnightblue" d="M607.73,-922C621.21,-922 635.37,-922 648.85,-922"/>
<polygon fill="midnightblue" stroke="midnightblue" points="649,-925.5 659,-922 649,-918.5 649,-925.5"/>
</g>
<!-- Node8 -->
<g id="node8" class="node">
<title>Node8</title>
<g id="a_node8"><a xlink:href="quickjs_8c.html#a853f0924d441ea4225488f37c8b69f9a" target="_top" xlink:title=" ">
<polygon fill="none" stroke="black" points="677.5,-798.5 677.5,-817.5 757.5,-817.5 757.5,-798.5 677.5,-798.5"/>
<text text-anchor="middle" x="717.5" y="-805.5" font-family="Helvetica,sans-Serif" font-size="10.00">__attribute__</text>
</a>
</g>
</g>
<!-- Node7&#45;&gt;Node8 -->
<g id="edge7" class="edge">
<title>Node7&#45;&gt;Node8</title>
<path fill="none" stroke="midnightblue" d="M562.35,-874.37C593.39,-861.01 649.68,-836.77 684.97,-821.58"/>
<polygon fill="midnightblue" stroke="midnightblue" points="686.53,-824.72 694.33,-817.55 683.76,-818.29 686.53,-824.72"/>
</g>
<!-- Node11 -->
<g id="node11" class="node">
<title>Node11</title>
<g id="a_node11"><a xlink:href="quickjs_8c.html#ac2894ff4edcdb4e6841bcce9c76081e3" target="_top" xlink:title=" ">
<polygon fill="none" stroke="red" points="319.5,-494.5 319.5,-513.5 406.5,-513.5 406.5,-494.5 319.5,-494.5"/>
<text text-anchor="middle" x="363" y="-501.5" font-family="Helvetica,sans-Serif" font-size="10.00">JS_CallInternal</text>
</a>
</g>
</g>
<!-- Node10&#45;&gt;Node11 -->
<g id="edge10" class="edge">
<title>Node10&#45;&gt;Node11</title>
<path fill="none" stroke="midnightblue" d="M248.77,-498.71C265.53,-497.41 288.47,-496.98 309.33,-497.42"/>
<polygon fill="midnightblue" stroke="midnightblue" points="309.27,-500.92 319.36,-497.7 309.47,-493.92 309.27,-500.92"/>
</g>
<!-- Node11&#45;&gt;Node3 -->
<g id="edge34" class="edge">
<title>Node11&#45;&gt;Node3</title>
<path fill="none" stroke="midnightblue" d="M364.84,-513.72C369.81,-569.19 397.25,-845.2 455,-903 456.92,-904.92 458.99,-906.66 461.18,-908.25"/>
<polygon fill="midnightblue" stroke="midnightblue" points="459.78,-911.48 470.17,-913.57 463.35,-905.46 459.78,-911.48"/>
</g>
<!-- Node11&#45;&gt;Node5 -->
<g id="edge37" class="edge">
<title>Node11&#45;&gt;Node5</title>
<path fill="none" stroke="midnightblue" d="M364.13,-494.31C365.2,-456.42 374.67,-317.46 455,-257 515.73,-211.3 608.49,-217.13 665.65,-226.71"/>
<polygon fill="midnightblue" stroke="midnightblue" points="665.09,-230.17 675.55,-228.47 666.32,-223.28 665.09,-230.17"/>
</g>
<!-- Node11&#45;&gt;Node6 -->
<g id="edge38" class="edge">
<title>Node11&#45;&gt;Node6</title>
<path fill="none" stroke="midnightblue" d="M364.64,-513.86C368.67,-572.7 392.34,-877.09 455,-941 466.46,-952.69 483.54,-957.82 499.23,-959.88"/>
<polygon fill="midnightblue" stroke="midnightblue" points="498.98,-963.37 509.26,-960.83 499.64,-956.4 498.98,-963.37"/>
</g>
<!-- Node11&#45;&gt;Node7 -->
<g id="edge41" class="edge">
<title>Node11&#45;&gt;Node7</title>
<path fill="none" stroke="midnightblue" d="M365.17,-513.63C371.6,-565.13 404.27,-807.67 455,-860 458.69,-863.81 462.94,-867.02 467.53,-869.73"/>
<polygon fill="midnightblue" stroke="midnightblue" points="466.21,-872.98 476.72,-874.35 469.36,-866.73 466.21,-872.98"/>
</g>
<!-- Node11&#45;&gt;Node8 -->
<g id="edge11" class="edge">
<title>Node11&#45;&gt;Node8</title>
<path fill="none" stroke="midnightblue" d="M363.78,-513.59C363.42,-553.75 367.87,-709.61 455,-780 515.14,-828.58 610.14,-825.15 667.56,-817.25"/>
<polygon fill="midnightblue" stroke="midnightblue" points="668.1,-820.71 677.48,-815.79 667.08,-813.78 668.1,-820.71"/>
</g>
<!-- Node11&#45;&gt;Node10 -->
<g id="edge28" class="edge">
<title>Node11&#45;&gt;Node10</title>
<path fill="none" stroke="midnightblue" d="M319.36,-510.3C299.96,-511 277.29,-510.88 258.98,-509.94"/>
<polygon fill="midnightblue" stroke="midnightblue" points="258.97,-506.43 248.77,-509.29 258.52,-513.42 258.97,-506.43"/>
</g>
<!-- Node11&#45;&gt;Node11 -->
<g id="edge33" class="edge">
<title>Node11&#45;&gt;Node11</title>
<path fill="none" stroke="midnightblue" d="M341.73,-513.76C331.38,-522.57 338.47,-532 363,-532 378.71,-532 387.27,-528.13 388.67,-523.03"/>
<polygon fill="midnightblue" stroke="midnightblue" points="391.72,-521.29 384.27,-513.76 385.39,-524.29 391.72,-521.29"/>
</g>
<!-- Node12 -->
<g id="node12" class="node">
<title>Node12</title>
<g id="a_node12"><a xlink:href="quickjs_8c.html#a877fcb7651d95b411ce70e62b7f4a1f0" target="_top" xlink:title=" ">
<polygon fill="none" stroke="black" points="476.5,-494.5 476.5,-513.5 601.5,-513.5 601.5,-494.5 476.5,-494.5"/>
<text text-anchor="middle" x="539" y="-501.5" font-family="Helvetica,sans-Serif" font-size="10.00">__JS_AtomFromUInt32</text>
</a>
</g>
</g>
<!-- Node11&#45;&gt;Node12 -->
<g id="edge12" class="edge">
<title>Node11&#45;&gt;Node12</title>
<path fill="none" stroke="midnightblue" d="M406.57,-504C424.55,-504 446.01,-504 466.31,-504"/>
<polygon fill="midnightblue" stroke="midnightblue" points="466.48,-507.5 476.48,-504 466.48,-500.5 466.48,-507.5"/>
</g>
<!-- Node13 -->
<g id="node13" class="node">
<title>Node13</title>
<g id="a_node13"><a xlink:href="quickjs_8h.html#a9bf98b18de88b4199910a43e933eb97d" target="_top" xlink:title=" ">
<polygon fill="none" stroke="black" points="489,-456.5 489,-475.5 589,-475.5 589,-456.5 489,-456.5"/>
<text text-anchor="middle" x="539" y="-463.5" font-family="Helvetica,sans-Serif" font-size="10.00">__JS_NewFloat64</text>
</a>
</g>
</g>
<!-- Node11&#45;&gt;Node13 -->
<g id="edge13" class="edge">
<title>Node11&#45;&gt;Node13</title>
<path fill="none" stroke="midnightblue" d="M406.57,-494.7C430,-489.59 459.31,-483.19 484.3,-477.73"/>
<polygon fill="midnightblue" stroke="midnightblue" points="485.34,-481.08 494.36,-475.53 483.85,-474.24 485.34,-481.08"/>
</g>
<!-- Node14 -->
<g id="node14" class="node">
<title>Node14</title>
<g id="a_node14"><a xlink:href="quickjs_8c.html#a74547db03bf739a52c83a326b32db997" target="_top" xlink:title=" ">
<polygon fill="none" stroke="red" points="498.5,-342.5 498.5,-361.5 579.5,-361.5 579.5,-342.5 498.5,-342.5"/>
<text text-anchor="middle" x="539" y="-349.5" font-family="Helvetica,sans-Serif" font-size="10.00">add_property</text>
</a>
</g>
</g>
<!-- Node11&#45;&gt;Node14 -->
<g id="edge14" class="edge">
<title>Node11&#45;&gt;Node14</title>
<path fill="none" stroke="midnightblue" d="M367.61,-494.47C377.47,-469.79 407.36,-403.44 455,-371 464.83,-364.31 476.67,-359.94 488.3,-357.11"/>
<polygon fill="midnightblue" stroke="midnightblue" points="489.34,-360.47 498.4,-354.99 487.9,-353.62 489.34,-360.47"/>
</g>
<!-- Node72 -->
<g id="node15" class="node">
<title>Node72</title>
<g id="a_node15"><a xlink:href="quickjs_8c.html#a4956f45ffd2849b96dc051277264f87a" target="_top" xlink:title=" ">
<polygon fill="none" stroke="red" points="498,-570.5 498,-589.5 580,-589.5 580,-570.5 498,-570.5"/>
<text text-anchor="middle" x="539" y="-577.5" font-family="Helvetica,sans-Serif" font-size="10.00">build_arg_list</text>
</a>
</g>
</g>
<!-- Node11&#45;&gt;Node72 -->
<g id="edge15" class="edge">
<title>Node11&#45;&gt;Node72</title>
<path fill="none" stroke="midnightblue" d="M386.04,-513.63C416.63,-526.99 472.12,-551.23 506.92,-566.42"/>
<polygon fill="midnightblue" stroke="midnightblue" points="505.58,-569.66 516.14,-570.45 508.38,-563.24 505.58,-569.66"/>
</g>
<!-- Node73 -->
<g id="node16" class="node">
<title>Node73</title>
<g id="a_node16"><a xlink:href="quickjs_8c.html#ac864482356b3efc2d0b0a509fcfa4c7c" target="_top" xlink:title=" ">
<polygon fill="none" stroke="red" points="679,-570.5 679,-589.5 756,-589.5 756,-570.5 679,-570.5"/>
<text text-anchor="middle" x="717.5" y="-577.5" font-family="Helvetica,sans-Serif" font-size="10.00">free_arg_list</text>
</a>
</g>
</g>
<!-- Node11&#45;&gt;Node73 -->
<g id="edge25" class="edge">
<title>Node11&#45;&gt;Node73</title>
<path fill="none" stroke="midnightblue" d="M364,-513.61C364.56,-551.77 372.34,-693.36 455,-751 516.25,-793.71 558.77,-789.08 623,-751 679.18,-717.69 703.8,-637.39 712.51,-599.9"/>
<polygon fill="midnightblue" stroke="midnightblue" points="716.01,-600.26 714.72,-589.74 709.17,-598.77 716.01,-600.26"/>
</g>
<!-- Node11&#45;&gt;Node64 -->
<g id="edge36" class="edge">
<title>Node11&#45;&gt;Node64</title>
<path fill="none" stroke="midnightblue" d="M365.32,-513.5C372.18,-561.25 405.28,-774.24 455,-814 510.76,-858.58 722.24,-873.98 776,-827 816.99,-791.18 843.59,-390.62 849.33,-295.96"/>
<polygon fill="midnightblue" stroke="midnightblue" points="852.84,-295.95 849.94,-285.76 845.85,-295.54 852.84,-295.95"/>
</g>
<!-- Node43 -->
<g id="node18" class="node">
<title>Node43</title>
<g id="a_node18"><a xlink:href="quickjs_8h.html#a775522f2d084fc8fa0fcb33f390006b4" target="_top" xlink:title=" ">
<polygon fill="none" stroke="black" points="679,-399.5 679,-418.5 756,-418.5 756,-399.5 679,-399.5"/>
<text text-anchor="middle" x="717.5" y="-406.5" font-family="Helvetica,sans-Serif" font-size="10.00">JS_DupValue</text>
</a>
</g>
</g>
<!-- Node11&#45;&gt;Node43 -->
<g id="edge35" class="edge">
<title>Node11&#45;&gt;Node43</title>
<path fill="none" stroke="midnightblue" d="M375.8,-494.32C392.38,-481.27 424.03,-458.37 455,-447 526.46,-420.76 615.15,-412.57 668.71,-410.06"/>
<polygon fill="midnightblue" stroke="midnightblue" points="669.09,-413.54 678.94,-409.63 668.8,-406.55 669.09,-413.54"/>
</g>
<!-- Node166 -->
<g id="node19" class="node">
<title>Node166</title>
<g id="a_node19"><a xlink:href="quickjs_8c.html#a61c8dfb5e807af1b6ff7d8ca61576dda" target="_top" xlink:title=" ">
<polygon fill="none" stroke="red" points="492,-722.5 492,-741.5 586,-741.5 586,-722.5 492,-722.5"/>
<text text-anchor="middle" x="539" y="-729.5" font-family="Helvetica,sans-Serif" font-size="10.00">build_backtrace</text>
</a>
</g>
</g>
<!-- Node11&#45;&gt;Node166 -->
<g id="edge21" class="edge">
<title>Node11&#45;&gt;Node166</title>
<path fill="none" stroke="midnightblue" d="M365.15,-513.72C369.66,-547.15 389.21,-658.42 455,-713 462.76,-719.44 472.29,-723.8 482.08,-726.73"/>
<polygon fill="midnightblue" stroke="midnightblue" points="481.36,-730.15 491.91,-729.2 483.07,-723.37 481.36,-730.15"/>
</g>
<!-- Node248 -->
<g id="node20" class="node">
<title>Node248</title>
<g id="a_node20"><a xlink:href="quickjs_8c.html#a344894112559c2ba75043fd10bcfa02f" target="_top" xlink:title=" ">
<polygon fill="none" stroke="red" points="488.5,-380.5 488.5,-399.5 589.5,-399.5 589.5,-380.5 488.5,-380.5"/>
<text text-anchor="middle" x="539" y="-387.5" font-family="Helvetica,sans-Serif" font-size="10.00">close_lexical_var</text>
</a>
</g>
</g>
<!-- Node11&#45;&gt;Node248 -->
<g id="edge22" class="edge">
<title>Node11&#45;&gt;Node248</title>
<path fill="none" stroke="midnightblue" d="M371.1,-494.27C385.07,-475.84 418.01,-435.7 455,-414 462.71,-409.48 471.32,-405.76 480.01,-402.72"/>
<polygon fill="midnightblue" stroke="midnightblue" points="481.35,-405.96 489.79,-399.56 479.2,-399.3 481.35,-405.96"/>
</g>
<!-- Node249 -->
<g id="node21" class="node">
<title>Node249</title>
<g id="a_node21"><a xlink:href="quickjs_8c.html#a1782043fce951bd4f0d91c7796b31e24" target="_top" xlink:title=" ">
<polygon fill="none" stroke="red" points="495.5,-684.5 495.5,-703.5 582.5,-703.5 582.5,-684.5 495.5,-684.5"/>
<text text-anchor="middle" x="539" y="-691.5" font-family="Helvetica,sans-Serif" font-size="10.00">close_var_refs</text>
</a>
</g>
</g>
<!-- Node11&#45;&gt;Node249 -->
<g id="edge24" class="edge">
<title>Node11&#45;&gt;Node249</title>
<path fill="none" stroke="midnightblue" d="M366.12,-513.58C373.13,-542.83 398.39,-631.66 455,-675 463.81,-681.74 474.58,-686.16 485.41,-689.05"/>
<polygon fill="midnightblue" stroke="midnightblue" points="484.8,-692.5 495.32,-691.28 486.34,-685.67 484.8,-692.5"/>
</g>
<!-- Node61 -->
<g id="node22" class="node">
<title>Node61</title>
<g id="a_node22"><a xlink:href="quickjs_8c.html#a9e7b4bccf927d811b0f99b40b08c0472" target="_top" xlink:title=" ">
<polygon fill="none" stroke="red" points="501,-646.5 501,-665.5 577,-665.5 577,-646.5 501,-646.5"/>
<text text-anchor="middle" x="539" y="-653.5" font-family="Helvetica,sans-Serif" font-size="10.00">free_var_ref</text>
</a>
</g>
</g>
<!-- Node11&#45;&gt;Node61 -->
<g id="edge26" class="edge">
<title>Node11&#45;&gt;Node61</title>
<path fill="none" stroke="midnightblue" d="M367.61,-513.53C377.47,-538.21 407.36,-604.56 455,-637 465.6,-644.22 478.56,-648.73 491.05,-651.54"/>
<polygon fill="midnightblue" stroke="midnightblue" points="490.44,-654.98 500.92,-653.44 491.76,-648.11 490.44,-654.98"/>
</g>
<!-- Node251 -->
<g id="node23" class="node">
<title>Node251</title>
<g id="a_node23"><a xlink:href="cutils_8h.html#a7c82a3ee025fee89db5b11ff5b7691b8" target="_top" xlink:title=" ">
<polygon fill="none" stroke="black" points="512.5,-608.5 512.5,-627.5 565.5,-627.5 565.5,-608.5 512.5,-608.5"/>
<text text-anchor="middle" x="539" y="-615.5" font-family="Helvetica,sans-Serif" font-size="10.00">get_i16</text>
</a>
</g>
</g>
<!-- Node11&#45;&gt;Node251 -->
<g id="edge27" class="edge">
<title>Node11&#45;&gt;Node251</title>
<path fill="none" stroke="midnightblue" d="M370.24,-513.57C383.41,-532.96 416.06,-576.91 455,-599 469.31,-607.12 486.87,-611.77 502.15,-614.43"/>
<polygon fill="midnightblue" stroke="midnightblue" points="501.88,-617.93 512.29,-615.98 502.93,-611.01 501.88,-617.93"/>
</g>
<!-- Node296 -->
<g id="node24" class="node">
<title>Node296</title>
<g id="a_node24"><a xlink:href="quickjs_8c.html#ad35594576a14c10812efaf958c99af8a" target="_top" xlink:title=" ">
<polygon fill="none" stroke="red" points="467.5,-190.5 467.5,-209.5 610.5,-209.5 610.5,-190.5 467.5,-190.5"/>
<text text-anchor="middle" x="539" y="-197.5" font-family="Helvetica,sans-Serif" font-size="10.00">JS_CallConstructorInternal</text>
</a>
</g>
</g>
<!-- Node11&#45;&gt;Node296 -->
<g id="edge29" class="edge">
<title>Node11&#45;&gt;Node296</title>
<path fill="none" stroke="midnightblue" d="M364.03,-494.42C364.56,-453.44 371.62,-295.69 455,-215 456.26,-213.78 457.58,-212.62 458.95,-211.52"/>
<polygon fill="midnightblue" stroke="midnightblue" points="460.97,-214.38 467.27,-205.86 457.03,-208.59 460.97,-214.38"/>
</g>
<!-- Node11&#45;&gt;Node132 -->
<g id="edge39" class="edge">
<title>Node11&#45;&gt;Node132</title>
<path fill="none" stroke="midnightblue" d="M363.48,-494.34C361.69,-450.79 360.46,-270.96 455,-181 463.03,-173.35 473.49,-168.56 484.26,-165.6"/>
<polygon fill="midnightblue" stroke="midnightblue" points="485.18,-168.98 494.17,-163.37 483.65,-162.15 485.18,-168.98"/>
</g>
<!-- Node273 -->
<g id="node26" class="node">
<title>Node273</title>
<g id="a_node26"><a xlink:href="quickjs_8c.html#ad4ba09e4c7ab9f28c144182e1aacf1f6" target="_top" xlink:title=" ">
<polygon fill="none" stroke="red" points="678,-304.5 678,-323.5 757,-323.5 757,-304.5 678,-304.5"/>
<text text-anchor="middle" x="717.5" y="-311.5" font-family="Helvetica,sans-Serif" font-size="10.00">JS_NewArray</text>
</a>
</g>
</g>
<!-- Node11&#45;&gt;Node273 -->
<g id="edge40" class="edge">
<title>Node11&#45;&gt;Node273</title>
<path fill="none" stroke="midnightblue" d="M365.76,-494.46C371.84,-464.51 394.97,-372.08 455,-333 519.1,-291.26 611.72,-296.13 667.8,-304.41"/>
<polygon fill="midnightblue" stroke="midnightblue" points="667.41,-307.89 677.83,-305.98 668.5,-300.97 667.41,-307.89"/>
</g>
<!-- Node11&#45;&gt;Node245 -->
<g id="edge42" class="edge">
<title>Node11&#45;&gt;Node245</title>
<path fill="none" stroke="midnightblue" d="M365.8,-494.39C376.15,-439.67 428.43,-168.99 455,-143 456.47,-141.57 458.02,-140.23 459.64,-138.99"/>
<polygon fill="midnightblue" stroke="midnightblue" points="461.7,-141.83 468.28,-133.53 457.96,-135.91 461.7,-141.83"/>
</g>
<!-- Node72&#45;&gt;Node5 -->
<g id="edge20" class="edge">
<title>Node72&#45;&gt;Node5</title>
<path fill="none" stroke="midnightblue" d="M580.09,-577.58C595.67,-574.55 612.3,-568.37 623,-556 699.61,-467.44 606.66,-399.75 659,-295 667.17,-278.65 681.87,-264.21 694.36,-253.95"/>
<polygon fill="midnightblue" stroke="midnightblue" points="696.83,-256.47 702.55,-247.55 692.51,-250.95 696.83,-256.47"/>
</g>
<!-- Node72&#45;&gt;Node8 -->
<g id="edge16" class="edge">
<title>Node72&#45;&gt;Node8</title>
<path fill="none" stroke="midnightblue" d="M580.05,-581.75C594.89,-584.18 611.01,-589.15 623,-599 683.78,-648.92 706.46,-746.52 713.63,-788.28"/>
<polygon fill="midnightblue" stroke="midnightblue" points="710.19,-788.96 715.22,-798.28 717.1,-787.85 710.19,-788.96"/>
</g>
<!-- Node72&#45;&gt;Node73 -->
<g id="edge17" class="edge">
<title>Node72&#45;&gt;Node73</title>
<path fill="none" stroke="midnightblue" d="M580.05,-580C606.3,-580 640.74,-580 668.46,-580"/>
<polygon fill="midnightblue" stroke="midnightblue" points="668.72,-583.5 678.72,-580 668.72,-576.5 668.72,-583.5"/>
</g>
<!-- Node72&#45;&gt;Node43 -->
<g id="edge19" class="edge">
<title>Node72&#45;&gt;Node43</title>
<path fill="none" stroke="midnightblue" d="M580.25,-574.45C594.78,-570.96 610.63,-565.26 623,-556 668.24,-522.11 697.25,-459.37 709.63,-427.95"/>
<polygon fill="midnightblue" stroke="midnightblue" points="712.9,-429.18 713.18,-418.59 706.36,-426.69 712.9,-429.18"/>
</g>
<!-- Node73&#45;&gt;Node64 -->
<g id="edge18" class="edge">
<title>Node73&#45;&gt;Node64</title>
<path fill="none" stroke="midnightblue" d="M722.74,-570.23C741.48,-527.08 816.99,-353.17 842.24,-295.03"/>
<polygon fill="midnightblue" stroke="midnightblue" points="845.57,-296.15 846.34,-285.58 839.15,-293.36 845.57,-296.15"/>
</g>
<!-- Node248&#45;&gt;Node43 -->
<g id="edge23" class="edge">
<title>Node248&#45;&gt;Node43</title>
<path fill="none" stroke="midnightblue" d="M589.63,-395.34C614.44,-398.01 644.31,-401.23 668.83,-403.87"/>
<polygon fill="midnightblue" stroke="midnightblue" points="668.67,-407.37 678.99,-404.96 669.42,-400.41 668.67,-407.37"/>
</g>
<!-- Node296&#45;&gt;Node5 -->
<g id="edge32" class="edge">
<title>Node296&#45;&gt;Node5</title>
<path fill="none" stroke="midnightblue" d="M584.54,-209.59C608.7,-214.79 638.71,-221.25 664,-226.7"/>
<polygon fill="midnightblue" stroke="midnightblue" points="663.29,-230.12 673.8,-228.81 664.76,-223.28 663.29,-230.12"/>
</g>
<!-- Node296&#45;&gt;Node11 -->
<g id="edge30" class="edge">
<title>Node296&#45;&gt;Node11</title>
<path fill="none" stroke="midnightblue" d="M508.46,-209.51C490.85,-213.28 469.23,-219.23 455,-233 381.74,-303.9 367.4,-434.3 364.63,-484.18"/>
<polygon fill="midnightblue" stroke="midnightblue" points="361.13,-484.16 364.18,-494.3 368.13,-484.47 361.13,-484.16"/>
</g>
<!-- Node296&#45;&gt;Node64 -->
<g id="edge31" class="edge">
<title>Node296&#45;&gt;Node64</title>
<path fill="none" stroke="midnightblue" d="M610.71,-195.42C658.84,-194.74 723.14,-198.7 776,-219 798.62,-227.69 820.11,-245.53 834.15,-258.96"/>
<polygon fill="midnightblue" stroke="midnightblue" points="831.94,-261.69 841.5,-266.24 836.86,-256.72 831.94,-261.69"/>
</g>
<!-- Node401&#45;&gt;Node296 -->
<g id="edge44" class="edge">
<title>Node401&#45;&gt;Node296</title>
<path fill="none" stroke="midnightblue" d="M419.05,-200C431.15,-200 444.21,-200 457.09,-200"/>
<polygon fill="midnightblue" stroke="midnightblue" points="457.35,-203.5 467.35,-200 457.35,-196.5 457.35,-203.5"/>
</g>
<!-- Node269&#45;&gt;Node5 -->
<g id="edge48" class="edge">
<title>Node269&#45;&gt;Node5</title>
<path fill="none" stroke="midnightblue" d="M584.54,-266.41C608.7,-261.21 638.71,-254.75 664,-249.3"/>
<polygon fill="midnightblue" stroke="midnightblue" points="664.76,-252.72 673.8,-247.19 663.29,-245.88 664.76,-252.72"/>
</g>
<!-- Node269&#45;&gt;Node64 -->
<g id="edge47" class="edge">
<title>Node269&#45;&gt;Node64</title>
<path fill="none" stroke="midnightblue" d="M585.15,-276C642.75,-276 742,-276 801.42,-276"/>
<polygon fill="midnightblue" stroke="midnightblue" points="801.67,-279.5 811.67,-276 801.67,-272.5 801.67,-279.5"/>
</g>
<!-- Node269&#45;&gt;Node43 -->
<g id="edge46" class="edge">
<title>Node269&#45;&gt;Node43</title>
<path fill="none" stroke="midnightblue" d="M554.64,-285.54C571.42,-296.59 599.62,-315.52 623,-333 649.44,-352.77 678.82,-377.05 697.46,-392.77"/>
<polygon fill="midnightblue" stroke="midnightblue" points="695.33,-395.55 705.22,-399.34 699.85,-390.2 695.33,-395.55"/>
</g>
<!-- Node269&#45;&gt;Node273 -->
<g id="edge49" class="edge">
<title>Node269&#45;&gt;Node273</title>
<path fill="none" stroke="midnightblue" d="M584.54,-285.59C609.96,-291.06 641.86,-297.93 667.93,-303.54"/>
<polygon fill="midnightblue" stroke="midnightblue" points="667.46,-307.02 677.97,-305.7 668.93,-300.18 667.46,-307.02"/>
</g>
</g>
</svg>
