<?xml version="1.0" encoding="UTF-8" standalone="no"?>
<!DOCTYPE svg PUBLIC "-//W3C//DTD SVG 1.1//EN"
 "http://www.w3.org/Graphics/SVG/1.1/DTD/svg11.dtd">
<!-- Generated by graphviz version 2.43.0 (0)
 -->
<!-- Title: call_setter Pages: 1 -->
<svg width="705pt" height="1156pt"
 viewBox="0.00 0.00 705.00 1155.59" xmlns="http://www.w3.org/2000/svg" xmlns:xlink="http://www.w3.org/1999/xlink">
<g id="graph0" class="graph" transform="scale(1 1) rotate(0) translate(4 1151.59)">
<title>call_setter</title>
<!-- Node1 -->
<g id="node1" class="node">
<title>Node1</title>
<g id="a_node1"><a xlink:title=" ">
<polygon fill="#bfbfbf" stroke="black" points="0,-1024.09 0,-1043.09 68,-1043.09 68,-1024.09 0,-1024.09"/>
<text text-anchor="middle" x="34" y="-1031.09" font-family="Helvetica,sans-Serif" font-size="10.00">call_setter</text>
</a>
</g>
</g>
<!-- Node2 -->
<g id="node2" class="node">
<title>Node2</title>
<g id="a_node2"><a xlink:href="quickjs_8c.html#a686cf78f8b0361621ee2ba6182195c31" target="_top" xlink:title=" ">
<polygon fill="none" stroke="black" points="352.5,-1024.09 352.5,-1043.09 440.5,-1043.09 440.5,-1024.09 352.5,-1024.09"/>
<text text-anchor="middle" x="396.5" y="-1031.09" font-family="Helvetica,sans-Serif" font-size="10.00">is_strict_mode</text>
</a>
</g>
</g>
<!-- Node1&#45;&gt;Node2 -->
<g id="edge1" class="edge">
<title>Node1&#45;&gt;Node2</title>
<path fill="none" stroke="midnightblue" d="M68.27,-1033.59C130.86,-1033.59 266.63,-1033.59 342.13,-1033.59"/>
<polygon fill="midnightblue" stroke="midnightblue" points="342.37,-1037.09 352.37,-1033.59 342.37,-1030.09 342.37,-1037.09"/>
</g>
<!-- Node3 -->
<g id="node3" class="node">
<title>Node3</title>
<g id="a_node3"><a xlink:href="quickjs_8c.html#a75f6ee5e4235a7dc99889f3d2eb2c147" target="_top" xlink:title=" ">
<polygon fill="none" stroke="black" points="104,-625.09 104,-644.09 175,-644.09 175,-625.09 104,-625.09"/>
<text text-anchor="middle" x="139.5" y="-632.09" font-family="Helvetica,sans-Serif" font-size="10.00">JS_CallFree</text>
</a>
</g>
</g>
<!-- Node1&#45;&gt;Node3 -->
<g id="edge2" class="edge">
<title>Node1&#45;&gt;Node3</title>
<path fill="none" stroke="midnightblue" d="M37.24,-1023.88C45.57,-987.93 75.74,-859.01 104,-753.59 113.47,-718.26 125.58,-677.35 132.65,-653.87"/>
<polygon fill="midnightblue" stroke="midnightblue" points="136.05,-654.7 135.6,-644.12 129.35,-652.68 136.05,-654.7"/>
</g>
<!-- Node58 -->
<g id="node11" class="node">
<title>Node58</title>
<g id="a_node11"><a xlink:href="quickjs_8h.html#afaa20c47565bc704c6c85f3d77254e7d" target="_top" xlink:title=" ">
<polygon fill="none" stroke="red" points="618,-872.09 618,-891.09 697,-891.09 697,-872.09 618,-872.09"/>
<text text-anchor="middle" x="657.5" y="-879.09" font-family="Helvetica,sans-Serif" font-size="10.00">JS_FreeValue</text>
</a>
</g>
</g>
<!-- Node1&#45;&gt;Node58 -->
<g id="edge55" class="edge">
<title>Node1&#45;&gt;Node58</title>
<path fill="none" stroke="midnightblue" d="M44.93,-1043.31C74.18,-1070.88 163.65,-1147.59 253.5,-1147.59 253.5,-1147.59 253.5,-1147.59 397.5,-1147.59 490.35,-1147.59 518.71,-1117.53 582,-1049.59 623.03,-1005.54 644.05,-935.17 652.27,-901.2"/>
<polygon fill="midnightblue" stroke="midnightblue" points="655.74,-901.69 654.57,-891.16 648.92,-900.13 655.74,-901.69"/>
</g>
<!-- Node37 -->
<g id="node12" class="node">
<title>Node37</title>
<g id="a_node12"><a xlink:href="quickjs_8h.html#a775522f2d084fc8fa0fcb33f390006b4" target="_top" xlink:title=" ">
<polygon fill="none" stroke="black" points="500,-720.09 500,-739.09 577,-739.09 577,-720.09 500,-720.09"/>
<text text-anchor="middle" x="538.5" y="-727.09" font-family="Helvetica,sans-Serif" font-size="10.00">JS_DupValue</text>
</a>
</g>
</g>
<!-- Node1&#45;&gt;Node37 -->
<g id="edge54" class="edge">
<title>Node1&#45;&gt;Node37</title>
<path fill="none" stroke="midnightblue" d="M43.74,-1023.88C77.41,-987.1 203.33,-854.91 334,-786.59 383.86,-760.52 447.01,-745.23 489.64,-737.16"/>
<polygon fill="midnightblue" stroke="midnightblue" points="490.54,-740.55 499.74,-735.31 489.27,-733.67 490.54,-740.55"/>
</g>
<!-- Node76 -->
<g id="node13" class="node">
<title>Node76</title>
<g id="a_node13"><a xlink:href="quickjs_8h.html#ad80a83d73e9b7d872b88fbf2943aebe9" target="_top" xlink:title=" ">
<polygon fill="none" stroke="black" points="495,-863.09 495,-882.09 582,-882.09 582,-863.09 495,-863.09"/>
<text text-anchor="middle" x="538.5" y="-870.09" font-family="Helvetica,sans-Serif" font-size="10.00">JS_IsException</text>
</a>
</g>
</g>
<!-- Node1&#45;&gt;Node76 -->
<g id="edge56" class="edge">
<title>Node1&#45;&gt;Node76</title>
<path fill="none" stroke="midnightblue" d="M57.68,-1043.1C125.39,-1069.87 329.39,-1138.45 459,-1052.59 493.2,-1029.93 478.62,-1005.21 495,-967.59 506.56,-941.05 520.29,-910.52 528.96,-891.39"/>
<polygon fill="midnightblue" stroke="midnightblue" points="532.15,-892.82 533.09,-882.27 525.77,-889.93 532.15,-892.82"/>
</g>
<!-- Node4 -->
<g id="node4" class="node">
<title>Node4</title>
<g id="a_node4"><a xlink:href="quickjs_8c.html#ac2894ff4edcdb4e6841bcce9c76081e3" target="_top" xlink:title=" ">
<polygon fill="none" stroke="red" points="211,-530.09 211,-549.09 298,-549.09 298,-530.09 211,-530.09"/>
<text text-anchor="middle" x="254.5" y="-537.09" font-family="Helvetica,sans-Serif" font-size="10.00">JS_CallInternal</text>
</a>
</g>
</g>
<!-- Node3&#45;&gt;Node4 -->
<g id="edge3" class="edge">
<title>Node3&#45;&gt;Node4</title>
<path fill="none" stroke="midnightblue" d="M147.91,-624.8C163.88,-608.06 202.17,-575.14 227.98,-555.3"/>
<polygon fill="midnightblue" stroke="midnightblue" points="230.31,-557.92 236.2,-549.11 226.1,-552.32 230.31,-557.92"/>
</g>
<!-- Node3&#45;&gt;Node58 -->
<g id="edge53" class="edge">
<title>Node3&#45;&gt;Node58</title>
<path fill="none" stroke="midnightblue" d="M141.35,-644.27C146.61,-697.31 179.69,-953.98 334,-1052.59 428.53,-1113 496.01,-1077.64 582,-1005.59 616.5,-976.69 639.21,-927.48 649.72,-900.57"/>
<polygon fill="midnightblue" stroke="midnightblue" points="653.03,-901.72 653.27,-891.12 646.48,-899.26 653.03,-901.72"/>
</g>
<!-- Node4&#45;&gt;Node2 -->
<g id="edge27" class="edge">
<title>Node4&#45;&gt;Node2</title>
<path fill="none" stroke="midnightblue" d="M255.85,-549.24C258.19,-609.62 273.5,-935.1 334,-1009.59 337.05,-1013.34 340.76,-1016.51 344.83,-1019.18"/>
<polygon fill="midnightblue" stroke="midnightblue" points="343.16,-1022.25 353.61,-1024 346.53,-1016.12 343.16,-1022.25"/>
</g>
<!-- Node4&#45;&gt;Node3 -->
<g id="edge48" class="edge">
<title>Node4&#45;&gt;Node3</title>
<path fill="none" stroke="midnightblue" d="M246.17,-549.29C230.33,-565.92 192.25,-598.68 166.4,-618.59"/>
<polygon fill="midnightblue" stroke="midnightblue" points="164.03,-615.99 158.16,-624.81 168.25,-621.58 164.03,-615.99"/>
</g>
<!-- Node4&#45;&gt;Node4 -->
<g id="edge49" class="edge">
<title>Node4&#45;&gt;Node4</title>
<path fill="none" stroke="midnightblue" d="M236.93,-549.35C228.38,-558.16 234.24,-567.59 254.5,-567.59 267.16,-567.59 274.2,-563.9 275.61,-558.99"/>
<polygon fill="midnightblue" stroke="midnightblue" points="278.8,-557.53 272.07,-549.35 272.23,-559.94 278.8,-557.53"/>
</g>
<!-- Node5 -->
<g id="node5" class="node">
<title>Node5</title>
<g id="a_node5"><a xlink:href="quickjs_8c.html#a853f0924d441ea4225488f37c8b69f9a" target="_top" xlink:title=" ">
<polygon fill="none" stroke="black" points="498.5,-625.09 498.5,-644.09 578.5,-644.09 578.5,-625.09 498.5,-625.09"/>
<text text-anchor="middle" x="538.5" y="-632.09" font-family="Helvetica,sans-Serif" font-size="10.00">__attribute__</text>
</a>
</g>
</g>
<!-- Node4&#45;&gt;Node5 -->
<g id="edge4" class="edge">
<title>Node4&#45;&gt;Node5</title>
<path fill="none" stroke="midnightblue" d="M293.49,-549.2C343.59,-562.05 428.92,-584.6 459,-596.59 475.81,-603.29 478.73,-607.67 495,-615.59 498.58,-617.33 502.35,-619.1 506.11,-620.83"/>
<polygon fill="midnightblue" stroke="midnightblue" points="504.76,-624.07 515.32,-625 507.65,-617.69 504.76,-624.07"/>
</g>
<!-- Node6 -->
<g id="node6" class="node">
<title>Node6</title>
<g id="a_node6"><a xlink:href="quickjs_8c.html#a877fcb7651d95b411ce70e62b7f4a1f0" target="_top" xlink:title=" ">
<polygon fill="none" stroke="black" points="334,-530.09 334,-549.09 459,-549.09 459,-530.09 334,-530.09"/>
<text text-anchor="middle" x="396.5" y="-537.09" font-family="Helvetica,sans-Serif" font-size="10.00">__JS_AtomFromUInt32</text>
</a>
</g>
</g>
<!-- Node4&#45;&gt;Node6 -->
<g id="edge5" class="edge">
<title>Node4&#45;&gt;Node6</title>
<path fill="none" stroke="midnightblue" d="M298.27,-539.59C306.36,-539.59 315.02,-539.59 323.73,-539.59"/>
<polygon fill="midnightblue" stroke="midnightblue" points="323.93,-543.09 333.93,-539.59 323.93,-536.09 323.93,-543.09"/>
</g>
<!-- Node7 -->
<g id="node7" class="node">
<title>Node7</title>
<g id="a_node7"><a xlink:href="quickjs_8h.html#a9bf98b18de88b4199910a43e933eb97d" target="_top" xlink:title=" ">
<polygon fill="none" stroke="black" points="346.5,-492.09 346.5,-511.09 446.5,-511.09 446.5,-492.09 346.5,-492.09"/>
<text text-anchor="middle" x="396.5" y="-499.09" font-family="Helvetica,sans-Serif" font-size="10.00">__JS_NewFloat64</text>
</a>
</g>
</g>
<!-- Node4&#45;&gt;Node7 -->
<g id="edge6" class="edge">
<title>Node4&#45;&gt;Node7</title>
<path fill="none" stroke="midnightblue" d="M290.83,-530C308.9,-525.1 331.1,-519.07 350.39,-513.83"/>
<polygon fill="midnightblue" stroke="midnightblue" points="351.45,-517.17 360.18,-511.18 349.62,-510.42 351.45,-517.17"/>
</g>
<!-- Node8 -->
<g id="node8" class="node">
<title>Node8</title>
<g id="a_node8"><a xlink:href="quickjs_8c.html#a74547db03bf739a52c83a326b32db997" target="_top" xlink:title=" ">
<polygon fill="none" stroke="red" points="498,-977.09 498,-996.09 579,-996.09 579,-977.09 498,-977.09"/>
<text text-anchor="middle" x="538.5" y="-984.09" font-family="Helvetica,sans-Serif" font-size="10.00">add_property</text>
</a>
</g>
</g>
<!-- Node4&#45;&gt;Node8 -->
<g id="edge7" class="edge">
<title>Node4&#45;&gt;Node8</title>
<path fill="none" stroke="midnightblue" d="M255.68,-549.21C256.98,-607.96 266.99,-917.69 334,-976.59 377.72,-1015.02 449.32,-1008.18 494.89,-998.38"/>
<polygon fill="midnightblue" stroke="midnightblue" points="495.79,-1001.77 504.76,-996.13 494.23,-994.94 495.79,-1001.77"/>
</g>
<!-- Node66 -->
<g id="node9" class="node">
<title>Node66</title>
<g id="a_node9"><a xlink:href="quickjs_8c.html#a4956f45ffd2849b96dc051277264f87a" target="_top" xlink:title=" ">
<polygon fill="none" stroke="red" points="355.5,-606.09 355.5,-625.09 437.5,-625.09 437.5,-606.09 355.5,-606.09"/>
<text text-anchor="middle" x="396.5" y="-613.09" font-family="Helvetica,sans-Serif" font-size="10.00">build_arg_list</text>
</a>
</g>
</g>
<!-- Node4&#45;&gt;Node66 -->
<g id="edge8" class="edge">
<title>Node4&#45;&gt;Node66</title>
<path fill="none" stroke="midnightblue" d="M268.04,-549.12C283.12,-560.28 309.48,-578.87 334,-591.59 341.52,-595.49 349.83,-599.14 357.84,-602.36"/>
<polygon fill="midnightblue" stroke="midnightblue" points="356.8,-605.71 367.39,-606.06 359.33,-599.18 356.8,-605.71"/>
</g>
<!-- Node67 -->
<g id="node10" class="node">
<title>Node67</title>
<g id="a_node10"><a xlink:href="quickjs_8c.html#ac864482356b3efc2d0b0a509fcfa4c7c" target="_top" xlink:title=" ">
<polygon fill="none" stroke="red" points="500,-587.09 500,-606.09 577,-606.09 577,-587.09 500,-587.09"/>
<text text-anchor="middle" x="538.5" y="-594.09" font-family="Helvetica,sans-Serif" font-size="10.00">free_arg_list</text>
</a>
</g>
</g>
<!-- Node4&#45;&gt;Node67 -->
<g id="edge18" class="edge">
<title>Node4&#45;&gt;Node67</title>
<path fill="none" stroke="midnightblue" d="M257.73,-529.86C264.22,-504.08 285.8,-434.11 334,-406.59 382.25,-379.04 412.82,-375.7 459,-406.59 517.18,-445.5 532.29,-536.29 536.17,-576.64"/>
<polygon fill="midnightblue" stroke="midnightblue" points="532.7,-577.13 537.01,-586.81 539.68,-576.56 532.7,-577.13"/>
</g>
<!-- Node4&#45;&gt;Node58 -->
<g id="edge51" class="edge">
<title>Node4&#45;&gt;Node58</title>
<path fill="none" stroke="midnightblue" d="M255.36,-529.99C254.66,-465.42 254.19,-95.12 334,-26.59 376.15,9.6 415.52,7.99 459,-26.59 596.75,-136.15 646.73,-744.44 655.16,-861.94"/>
<polygon fill="midnightblue" stroke="midnightblue" points="651.68,-862.28 655.87,-872.01 658.66,-861.79 651.68,-862.28"/>
</g>
<!-- Node4&#45;&gt;Node37 -->
<g id="edge50" class="edge">
<title>Node4&#45;&gt;Node37</title>
<path fill="none" stroke="midnightblue" d="M256.65,-549.46C260.75,-579.55 277.51,-670.53 334,-710.59 379.38,-742.77 445.51,-742.66 489.95,-737.74"/>
<polygon fill="midnightblue" stroke="midnightblue" points="490.42,-741.21 499.92,-736.52 489.56,-734.26 490.42,-741.21"/>
</g>
<!-- Node4&#45;&gt;Node76 -->
<g id="edge52" class="edge">
<title>Node4&#45;&gt;Node76</title>
<path fill="none" stroke="midnightblue" d="M256.32,-549.15C260.74,-598.19 283.4,-820.77 334,-862.59 378.23,-899.15 448.13,-893.39 493.4,-884.26"/>
<polygon fill="midnightblue" stroke="midnightblue" points="494.18,-887.67 503.22,-882.15 492.71,-880.83 494.18,-887.67"/>
</g>
<!-- Node161 -->
<g id="node14" class="node">
<title>Node161</title>
<g id="a_node14"><a xlink:href="quickjs_8c.html#a61c8dfb5e807af1b6ff7d8ca61576dda" target="_top" xlink:title=" ">
<polygon fill="none" stroke="red" points="349.5,-454.09 349.5,-473.09 443.5,-473.09 443.5,-454.09 349.5,-454.09"/>
<text text-anchor="middle" x="396.5" y="-461.09" font-family="Helvetica,sans-Serif" font-size="10.00">build_backtrace</text>
</a>
</g>
</g>
<!-- Node4&#45;&gt;Node161 -->
<g id="edge14" class="edge">
<title>Node4&#45;&gt;Node161</title>
<path fill="none" stroke="midnightblue" d="M266.19,-530.04C280.64,-517.57 307.64,-495.78 334,-482.59 338.39,-480.39 343.09,-478.39 347.85,-476.58"/>
<polygon fill="midnightblue" stroke="midnightblue" points="349.39,-479.75 357.66,-473.14 347.06,-473.15 349.39,-479.75"/>
</g>
<!-- Node246 -->
<g id="node15" class="node">
<title>Node246</title>
<g id="a_node15"><a xlink:href="quickjs_8c.html#a344894112559c2ba75043fd10bcfa02f" target="_top" xlink:title=" ">
<polygon fill="none" stroke="red" points="346,-682.09 346,-701.09 447,-701.09 447,-682.09 346,-682.09"/>
<text text-anchor="middle" x="396.5" y="-689.09" font-family="Helvetica,sans-Serif" font-size="10.00">close_lexical_var</text>
</a>
</g>
</g>
<!-- Node4&#45;&gt;Node246 -->
<g id="edge15" class="edge">
<title>Node4&#45;&gt;Node246</title>
<path fill="none" stroke="midnightblue" d="M258.47,-549.27C266.48,-573.73 290.87,-638.52 334,-672.59 336.3,-674.41 338.78,-676.05 341.37,-677.54"/>
<polygon fill="midnightblue" stroke="midnightblue" points="340.01,-680.77 350.53,-682.02 343.09,-674.49 340.01,-680.77"/>
</g>
<!-- Node247 -->
<g id="node16" class="node">
<title>Node247</title>
<g id="a_node16"><a xlink:href="quickjs_8c.html#a1782043fce951bd4f0d91c7796b31e24" target="_top" xlink:title=" ">
<polygon fill="none" stroke="red" points="353,-416.09 353,-435.09 440,-435.09 440,-416.09 353,-416.09"/>
<text text-anchor="middle" x="396.5" y="-423.09" font-family="Helvetica,sans-Serif" font-size="10.00">close_var_refs</text>
</a>
</g>
</g>
<!-- Node4&#45;&gt;Node247 -->
<g id="edge17" class="edge">
<title>Node4&#45;&gt;Node247</title>
<path fill="none" stroke="midnightblue" d="M260.84,-529.93C271.93,-510.77 299.33,-467.8 334,-444.59 337.06,-442.54 340.35,-440.71 343.76,-439.06"/>
<polygon fill="midnightblue" stroke="midnightblue" points="345.15,-442.27 352.99,-435.15 342.42,-435.83 345.15,-442.27"/>
</g>
<!-- Node55 -->
<g id="node17" class="node">
<title>Node55</title>
<g id="a_node17"><a xlink:href="quickjs_8c.html#a9e7b4bccf927d811b0f99b40b08c0472" target="_top" xlink:title=" ">
<polygon fill="none" stroke="red" points="358.5,-340.09 358.5,-359.09 434.5,-359.09 434.5,-340.09 358.5,-340.09"/>
<text text-anchor="middle" x="396.5" y="-347.09" font-family="Helvetica,sans-Serif" font-size="10.00">free_var_ref</text>
</a>
</g>
</g>
<!-- Node4&#45;&gt;Node55 -->
<g id="edge19" class="edge">
<title>Node4&#45;&gt;Node55</title>
<path fill="none" stroke="midnightblue" d="M257.45,-529.86C263.58,-501.7 285.04,-419.25 334,-373.59 338.4,-369.48 343.59,-366.05 349.05,-363.19"/>
<polygon fill="midnightblue" stroke="midnightblue" points="350.78,-366.25 358.41,-358.9 347.86,-359.88 350.78,-366.25"/>
</g>
<!-- Node249 -->
<g id="node18" class="node">
<title>Node249</title>
<g id="a_node18"><a xlink:href="cutils_8h.html#a7c82a3ee025fee89db5b11ff5b7691b8" target="_top" xlink:title=" ">
<polygon fill="none" stroke="black" points="370,-302.09 370,-321.09 423,-321.09 423,-302.09 370,-302.09"/>
<text text-anchor="middle" x="396.5" y="-309.09" font-family="Helvetica,sans-Serif" font-size="10.00">get_i16</text>
</a>
</g>
</g>
<!-- Node4&#45;&gt;Node249 -->
<g id="edge20" class="edge">
<title>Node4&#45;&gt;Node249</title>
<path fill="none" stroke="midnightblue" d="M256.19,-530.08C259.07,-497.32 273.06,-388 334,-330.59 341.11,-323.89 350.53,-319.55 359.86,-316.74"/>
<polygon fill="midnightblue" stroke="midnightblue" points="360.97,-320.07 369.83,-314.26 359.28,-313.28 360.97,-320.07"/>
</g>
<!-- Node250 -->
<g id="node19" class="node">
<title>Node250</title>
<g id="a_node19"><a xlink:href="cutils_8h.html#a288ee4e688944e23500af2ecc813c306" target="_top" xlink:title=" ">
<polygon fill="none" stroke="black" points="373,-264.09 373,-283.09 420,-283.09 420,-264.09 373,-264.09"/>
<text text-anchor="middle" x="396.5" y="-271.09" font-family="Helvetica,sans-Serif" font-size="10.00">get_i8</text>
</a>
</g>
</g>
<!-- Node4&#45;&gt;Node250 -->
<g id="edge21" class="edge">
<title>Node4&#45;&gt;Node250</title>
<path fill="none" stroke="midnightblue" d="M255.56,-529.95C256.33,-493.41 264.04,-361.99 334,-292.59 341.74,-284.92 352.5,-280.33 362.86,-277.6"/>
<polygon fill="midnightblue" stroke="midnightblue" points="363.92,-280.95 372.97,-275.43 362.45,-274.11 363.92,-280.95"/>
</g>
<!-- Node251 -->
<g id="node20" class="node">
<title>Node251</title>
<g id="a_node20"><a xlink:href="cutils_8h.html#ad587834d17e95461893d59661e5e9676" target="_top" xlink:title=" ">
<polygon fill="none" stroke="black" points="368.5,-226.09 368.5,-245.09 424.5,-245.09 424.5,-226.09 368.5,-226.09"/>
<text text-anchor="middle" x="396.5" y="-233.09" font-family="Helvetica,sans-Serif" font-size="10.00">get_u16</text>
</a>
</g>
</g>
<!-- Node4&#45;&gt;Node251 -->
<g id="edge22" class="edge">
<title>Node4&#45;&gt;Node251</title>
<path fill="none" stroke="midnightblue" d="M255.08,-529.9C253.9,-489.95 254.87,-336.2 334,-254.59 340.57,-247.81 349.5,-243.44 358.51,-240.62"/>
<polygon fill="midnightblue" stroke="midnightblue" points="359.4,-244.01 368.22,-238.14 357.67,-237.23 359.4,-244.01"/>
</g>
<!-- Node51 -->
<g id="node21" class="node">
<title>Node51</title>
<g id="a_node21"><a xlink:href="cutils_8h.html#a941262a5f72fda2ec43ae7911e97a0dc" target="_top" xlink:title=" ">
<polygon fill="none" stroke="black" points="368.5,-188.09 368.5,-207.09 424.5,-207.09 424.5,-188.09 368.5,-188.09"/>
<text text-anchor="middle" x="396.5" y="-195.09" font-family="Helvetica,sans-Serif" font-size="10.00">get_u32</text>
</a>
</g>
</g>
<!-- Node4&#45;&gt;Node51 -->
<g id="edge23" class="edge">
<title>Node4&#45;&gt;Node51</title>
<path fill="none" stroke="midnightblue" d="M256.57,-529.93C262.11,-481.36 289.12,-264.3 334,-216.59 340.52,-209.66 349.51,-205.23 358.61,-202.42"/>
<polygon fill="midnightblue" stroke="midnightblue" points="359.56,-205.79 368.41,-199.95 357.86,-199 359.56,-205.79"/>
</g>
<!-- Node252 -->
<g id="node22" class="node">
<title>Node252</title>
<g id="a_node22"><a xlink:href="quickjs_8c.html#a37fe43b6649456a848bd54846450b995" target="_top" xlink:title=" ">
<polygon fill="none" stroke="red" points="360.5,-150.09 360.5,-169.09 432.5,-169.09 432.5,-150.09 360.5,-150.09"/>
<text text-anchor="middle" x="396.5" y="-157.09" font-family="Helvetica,sans-Serif" font-size="10.00">get_var_ref</text>
</a>
</g>
</g>
<!-- Node4&#45;&gt;Node252 -->
<g id="edge24" class="edge">
<title>Node4&#45;&gt;Node252</title>
<path fill="none" stroke="midnightblue" d="M256.31,-529.86C260.81,-477.8 284.45,-232.57 334,-178.59 338.62,-173.56 344.54,-169.84 350.88,-167.11"/>
<polygon fill="midnightblue" stroke="midnightblue" points="352.1,-170.39 360.36,-163.76 349.76,-163.79 352.1,-170.39"/>
</g>
<!-- Node196 -->
<g id="node23" class="node">
<title>Node196</title>
<g id="a_node23"><a xlink:href="list_8h.html#a663527a4d757540b2177bef0db1ce5c0" target="_top" xlink:title=" ">
<polygon fill="none" stroke="black" points="355.5,-112.09 355.5,-131.09 437.5,-131.09 437.5,-112.09 355.5,-112.09"/>
<text text-anchor="middle" x="396.5" y="-119.09" font-family="Helvetica,sans-Serif" font-size="10.00">init_list_head</text>
</a>
</g>
</g>
<!-- Node4&#45;&gt;Node196 -->
<g id="edge25" class="edge">
<title>Node4&#45;&gt;Node196</title>
<path fill="none" stroke="midnightblue" d="M256.08,-529.95C259.6,-474.92 279.69,-200.94 334,-140.59 337.46,-136.74 341.68,-133.67 346.28,-131.21"/>
<polygon fill="midnightblue" stroke="midnightblue" points="347.7,-134.4 355.47,-127.2 344.9,-127.99 347.7,-134.4"/>
</g>
<!-- Node253 -->
<g id="node24" class="node">
<title>Node253</title>
<g id="a_node24"><a xlink:href="quickjs_8c.html#a2bb0a2ca3b8320f3ff778c65034fce49" target="_top" xlink:title=" ">
<polygon fill="none" stroke="red" points="337,-74.09 337,-93.09 456,-93.09 456,-74.09 337,-74.09"/>
<text text-anchor="middle" x="396.5" y="-81.09" font-family="Helvetica,sans-Serif" font-size="10.00">is_backtrace_needed</text>
</a>
</g>
</g>
<!-- Node4&#45;&gt;Node253 -->
<g id="edge26" class="edge">
<title>Node4&#45;&gt;Node253</title>
<path fill="none" stroke="midnightblue" d="M255.91,-529.81C258.56,-471.43 275,-169.26 334,-102.59 335.17,-101.27 336.43,-100.03 337.77,-98.89"/>
<polygon fill="midnightblue" stroke="midnightblue" points="339.83,-101.72 346.12,-93.2 335.89,-95.93 339.83,-101.72"/>
</g>
<!-- Node255 -->
<g id="node25" class="node">
<title>Node255</title>
<g id="a_node25"><a xlink:href="quickjs_8c.html#ae8ff05447c0d51fe277baccf616dc7c6" target="_top" xlink:title=" ">
<polygon fill="none" stroke="red" points="358.5,-796.09 358.5,-815.09 434.5,-815.09 434.5,-796.09 358.5,-796.09"/>
<text text-anchor="middle" x="396.5" y="-803.09" font-family="Helvetica,sans-Serif" font-size="10.00">js_add_slow</text>
</a>
</g>
</g>
<!-- Node4&#45;&gt;Node255 -->
<g id="edge28" class="edge">
<title>Node4&#45;&gt;Node255</title>
<path fill="none" stroke="midnightblue" d="M257.68,-549.18C264.9,-579.57 290.09,-675.73 334,-743.59 345.32,-761.09 362.22,-777.67 375.44,-789.28"/>
<polygon fill="midnightblue" stroke="midnightblue" points="373.23,-792 383.11,-795.82 377.78,-786.67 373.23,-792"/>
</g>
<!-- Node262 -->
<g id="node26" class="node">
<title>Node262</title>
<g id="a_node26"><a xlink:href="quickjs_8c.html#a6a21784a40b8684f2e779bd460dd13b2" target="_top" xlink:title=" ">
<polygon fill="none" stroke="red" points="357.5,-910.09 357.5,-929.09 435.5,-929.09 435.5,-910.09 357.5,-910.09"/>
<text text-anchor="middle" x="396.5" y="-917.09" font-family="Helvetica,sans-Serif" font-size="10.00">JS_AddBrand</text>
</a>
</g>
</g>
<!-- Node4&#45;&gt;Node262 -->
<g id="edge31" class="edge">
<title>Node4&#45;&gt;Node262</title>
<path fill="none" stroke="midnightblue" d="M256.4,-549.13C261.36,-600.16 286.98,-840.65 334,-895.59 337.91,-900.16 342.81,-903.87 348.13,-906.88"/>
<polygon fill="midnightblue" stroke="midnightblue" points="346.83,-910.13 357.36,-911.3 349.85,-903.82 346.83,-910.13"/>
</g>
<!-- Node265 -->
<g id="node27" class="node">
<title>Node265</title>
<g id="a_node27"><a xlink:href="quickjs_8c.html#a43208b0746998d2b6b9b8bd1ef8b5f99" target="_top" xlink:title=" ">
<polygon fill="none" stroke="red" points="334,-644.09 334,-663.09 459,-663.09 459,-644.09 334,-644.09"/>
<text text-anchor="middle" x="396.5" y="-651.09" font-family="Helvetica,sans-Serif" font-size="10.00">js_append_enumerate</text>
</a>
</g>
</g>
<!-- Node4&#45;&gt;Node265 -->
<g id="edge36" class="edge">
<title>Node4&#45;&gt;Node265</title>
<path fill="none" stroke="midnightblue" d="M260.84,-549.25C271.93,-568.41 299.33,-611.38 334,-634.59 337.06,-636.64 340.35,-638.47 343.76,-640.12"/>
<polygon fill="midnightblue" stroke="midnightblue" points="342.42,-643.35 352.99,-644.03 345.15,-636.91 342.42,-643.35"/>
</g>
<!-- Node99 -->
<g id="node28" class="node">
<title>Node99</title>
<g id="a_node28"><a xlink:href="quickjs_8c.html#a260bfa297ff6cb5bd18e229afaa54663" target="_top" xlink:title=" ">
<polygon fill="none" stroke="red" points="348.5,-36.09 348.5,-55.09 444.5,-55.09 444.5,-36.09 348.5,-36.09"/>
<text text-anchor="middle" x="396.5" y="-43.09" font-family="Helvetica,sans-Serif" font-size="10.00">JS_AtomToString</text>
</a>
</g>
</g>
<!-- Node4&#45;&gt;Node99 -->
<g id="edge41" class="edge">
<title>Node4&#45;&gt;Node99</title>
<path fill="none" stroke="midnightblue" d="M255.76,-529.77C257.58,-468.4 270.25,-137.64 334,-64.59 335.74,-62.6 337.68,-60.82 339.77,-59.22"/>
<polygon fill="midnightblue" stroke="midnightblue" points="341.75,-62.11 348.47,-53.92 338.1,-56.13 341.75,-62.11"/>
</g>
<!-- Node291 -->
<g id="node29" class="node">
<title>Node291</title>
<g id="a_node29"><a xlink:href="quickjs_8c.html#afa67965c1017685fc6783776d6d0d4d7" target="_top" xlink:title=" ">
<polygon fill="none" stroke="red" points="349,-834.09 349,-853.09 444,-853.09 444,-834.09 349,-834.09"/>
<text text-anchor="middle" x="396.5" y="-841.09" font-family="Helvetica,sans-Serif" font-size="10.00">JS_AtomToValue</text>
</a>
</g>
</g>
<!-- Node4&#45;&gt;Node291 -->
<g id="edge42" class="edge">
<title>Node4&#45;&gt;Node291</title>
<path fill="none" stroke="midnightblue" d="M255.08,-549.28C253.9,-589.23 254.87,-742.98 334,-824.59 335.84,-826.49 337.86,-828.19 340.02,-829.73"/>
<polygon fill="midnightblue" stroke="midnightblue" points="338.49,-832.89 348.9,-834.86 341.99,-826.83 338.49,-832.89"/>
</g>
<!-- Node292 -->
<g id="node30" class="node">
<title>Node292</title>
<g id="a_node30"><a xlink:href="quickjs_8c.html#a04d312757919ff6b4d79cd0c2c3e5bb2" target="_top" xlink:title=" ">
<polygon fill="none" stroke="red" points="340.5,-948.09 340.5,-967.09 452.5,-967.09 452.5,-948.09 340.5,-948.09"/>
<text text-anchor="middle" x="396.5" y="-955.09" font-family="Helvetica,sans-Serif" font-size="10.00">js_build_arguments</text>
</a>
</g>
</g>
<!-- Node4&#45;&gt;Node292 -->
<g id="edge43" class="edge">
<title>Node4&#45;&gt;Node292</title>
<path fill="none" stroke="midnightblue" d="M256.08,-549.23C259.6,-604.26 279.69,-878.24 334,-938.59 335.21,-939.93 336.51,-941.18 337.88,-942.34"/>
<polygon fill="midnightblue" stroke="midnightblue" points="336.22,-945.44 346.48,-948.08 340.11,-939.62 336.22,-945.44"/>
</g>
<!-- Node66&#45;&gt;Node5 -->
<g id="edge9" class="edge">
<title>Node66&#45;&gt;Node5</title>
<path fill="none" stroke="midnightblue" d="M437.62,-621.03C453.41,-623.18 471.7,-625.66 488.28,-627.91"/>
<polygon fill="midnightblue" stroke="midnightblue" points="487.96,-631.4 498.34,-629.28 488.9,-624.46 487.96,-631.4"/>
</g>
<!-- Node66&#45;&gt;Node67 -->
<g id="edge10" class="edge">
<title>Node66&#45;&gt;Node67</title>
<path fill="none" stroke="midnightblue" d="M437.62,-610.15C453.81,-607.95 472.63,-605.39 489.54,-603.1"/>
<polygon fill="midnightblue" stroke="midnightblue" points="490.34,-606.52 499.78,-601.71 489.4,-599.59 490.34,-606.52"/>
</g>
<!-- Node66&#45;&gt;Node37 -->
<g id="edge12" class="edge">
<title>Node66&#45;&gt;Node37</title>
<path fill="none" stroke="midnightblue" d="M437.75,-624.33C445.17,-626.94 452.59,-630.3 459,-634.59 489.06,-654.72 513.66,-689.71 526.9,-711.14"/>
<polygon fill="midnightblue" stroke="midnightblue" points="524.02,-713.15 532.16,-719.93 530.03,-709.55 524.02,-713.15"/>
</g>
<!-- Node66&#45;&gt;Node76 -->
<g id="edge13" class="edge">
<title>Node66&#45;&gt;Node76</title>
<path fill="none" stroke="midnightblue" d="M437.66,-621.91C445.52,-624.71 453.13,-628.76 459,-634.59 496.69,-672.04 478.39,-698.12 495,-748.59 507.27,-785.87 522.3,-829.2 530.8,-853.51"/>
<polygon fill="midnightblue" stroke="midnightblue" points="527.5,-854.69 534.11,-862.97 534.11,-852.38 527.5,-854.69"/>
</g>
<!-- Node67&#45;&gt;Node58 -->
<g id="edge11" class="edge">
<title>Node67&#45;&gt;Node58</title>
<path fill="none" stroke="midnightblue" d="M570.09,-606.25C574.55,-608.72 578.73,-611.8 582,-615.59 645.66,-689.4 655.2,-813.67 656.42,-861.76"/>
<polygon fill="midnightblue" stroke="midnightblue" points="652.93,-862.08 656.58,-872.03 659.93,-861.98 652.93,-862.08"/>
</g>
<!-- Node246&#45;&gt;Node37 -->
<g id="edge16" class="edge">
<title>Node246&#45;&gt;Node37</title>
<path fill="none" stroke="midnightblue" d="M432.83,-701.18C450.9,-706.08 473.1,-712.11 492.39,-717.35"/>
<polygon fill="midnightblue" stroke="midnightblue" points="491.62,-720.76 502.18,-720 493.45,-714.01 491.62,-720.76"/>
</g>
<!-- Node255&#45;&gt;Node58 -->
<g id="edge29" class="edge">
<title>Node255&#45;&gt;Node58</title>
<path fill="none" stroke="midnightblue" d="M434.58,-814.03C472.07,-822.84 531.52,-837.59 582,-853.59 595.75,-857.95 610.67,-863.41 623.53,-868.35"/>
<polygon fill="midnightblue" stroke="midnightblue" points="622.31,-871.63 632.9,-871.99 624.85,-865.11 622.31,-871.63"/>
</g>
<!-- Node255&#45;&gt;Node76 -->
<g id="edge30" class="edge">
<title>Node255&#45;&gt;Node76</title>
<path fill="none" stroke="midnightblue" d="M433.83,-815.17C442.24,-817.84 451.06,-821 459,-824.59 479.2,-833.71 500.57,-847.05 515.9,-857.35"/>
<polygon fill="midnightblue" stroke="midnightblue" points="513.95,-860.25 524.18,-863.01 517.9,-854.48 513.95,-860.25"/>
</g>
<!-- Node262&#45;&gt;Node8 -->
<g id="edge32" class="edge">
<title>Node262&#45;&gt;Node8</title>
<path fill="none" stroke="midnightblue" d="M433.83,-929.17C442.24,-931.84 451.06,-935 459,-938.59 479.2,-947.71 500.57,-961.05 515.9,-971.35"/>
<polygon fill="midnightblue" stroke="midnightblue" points="513.95,-974.25 524.18,-977.01 517.9,-968.48 513.95,-974.25"/>
</g>
<!-- Node262&#45;&gt;Node58 -->
<g id="edge34" class="edge">
<title>Node262&#45;&gt;Node58</title>
<path fill="none" stroke="midnightblue" d="M435.72,-913.98C481.4,-907.28 557.91,-896.05 607.79,-888.74"/>
<polygon fill="midnightblue" stroke="midnightblue" points="608.32,-892.2 617.7,-887.28 607.3,-885.27 608.32,-892.2"/>
</g>
<!-- Node262&#45;&gt;Node37 -->
<g id="edge33" class="edge">
<title>Node262&#45;&gt;Node37</title>
<path fill="none" stroke="midnightblue" d="M409.82,-910C422.99,-899.34 444.02,-881.18 459,-862.59 489.13,-825.19 515.53,-775.02 528.67,-748.25"/>
<polygon fill="midnightblue" stroke="midnightblue" points="531.83,-749.74 533.03,-739.22 525.53,-746.7 531.83,-749.74"/>
</g>
<!-- Node262&#45;&gt;Node76 -->
<g id="edge35" class="edge">
<title>Node262&#45;&gt;Node76</title>
<path fill="none" stroke="midnightblue" d="M425.83,-910.08C446.94,-902.99 476.01,-893.23 499.19,-885.45"/>
<polygon fill="midnightblue" stroke="midnightblue" points="500.36,-888.75 508.73,-882.25 498.14,-882.11 500.36,-888.75"/>
</g>
<!-- Node265&#45;&gt;Node5 -->
<g id="edge37" class="edge">
<title>Node265&#45;&gt;Node5</title>
<path fill="none" stroke="midnightblue" d="M459.31,-645.2C468.89,-643.9 478.68,-642.57 487.94,-641.32"/>
<polygon fill="midnightblue" stroke="midnightblue" points="488.7,-644.74 498.14,-639.93 487.76,-637.81 488.7,-644.74"/>
</g>
<!-- Node265&#45;&gt;Node58 -->
<g id="edge39" class="edge">
<title>Node265&#45;&gt;Node58</title>
<path fill="none" stroke="midnightblue" d="M459.15,-659.46C498.44,-666.11 548.14,-680.3 582,-710.59 627.95,-751.7 646.76,-826.24 653.38,-861.75"/>
<polygon fill="midnightblue" stroke="midnightblue" points="649.97,-862.56 655.12,-871.82 656.87,-861.37 649.97,-862.56"/>
</g>
<!-- Node265&#45;&gt;Node37 -->
<g id="edge38" class="edge">
<title>Node265&#45;&gt;Node37</title>
<path fill="none" stroke="midnightblue" d="M435.34,-663.14C443.35,-665.74 451.6,-668.89 459,-672.59 481.24,-683.72 503.94,-700.97 519.17,-713.58"/>
<polygon fill="midnightblue" stroke="midnightblue" points="516.92,-716.26 526.81,-720.04 521.44,-710.91 516.92,-716.26"/>
</g>
<!-- Node265&#45;&gt;Node76 -->
<g id="edge40" class="edge">
<title>Node265&#45;&gt;Node76</title>
<path fill="none" stroke="midnightblue" d="M444.61,-663.17C449.87,-665.63 454.82,-668.71 459,-672.59 472.98,-685.57 514.74,-805.51 530.96,-853.19"/>
<polygon fill="midnightblue" stroke="midnightblue" points="527.74,-854.58 534.26,-862.93 534.37,-852.33 527.74,-854.58"/>
</g>
<!-- Node292&#45;&gt;Node8 -->
<g id="edge44" class="edge">
<title>Node292&#45;&gt;Node8</title>
<path fill="none" stroke="midnightblue" d="M443.73,-967.17C457.83,-970.09 473.39,-973.31 487.71,-976.28"/>
<polygon fill="midnightblue" stroke="midnightblue" points="487.39,-979.78 497.89,-978.38 488.81,-972.93 487.39,-979.78"/>
</g>
<!-- Node292&#45;&gt;Node58 -->
<g id="edge46" class="edge">
<title>Node292&#45;&gt;Node58</title>
<path fill="none" stroke="midnightblue" d="M445.47,-948.03C483.05,-940.03 536.42,-927.53 582,-912.59 597,-907.67 613.22,-901.08 626.69,-895.24"/>
<polygon fill="midnightblue" stroke="midnightblue" points="628.22,-898.39 635.95,-891.15 625.39,-891.99 628.22,-898.39"/>
</g>
<!-- Node292&#45;&gt;Node37 -->
<g id="edge45" class="edge">
<title>Node292&#45;&gt;Node37</title>
<path fill="none" stroke="midnightblue" d="M444.67,-948.07C449.92,-945.6 454.85,-942.5 459,-938.59 466.29,-931.72 513.04,-799.53 530.73,-749"/>
<polygon fill="midnightblue" stroke="midnightblue" points="534.13,-749.88 534.13,-739.28 527.52,-747.57 534.13,-749.88"/>
</g>
<!-- Node292&#45;&gt;Node76 -->
<g id="edge47" class="edge">
<title>Node292&#45;&gt;Node76</title>
<path fill="none" stroke="midnightblue" d="M436.84,-948.01C444.42,-945.45 452.13,-942.34 459,-938.59 482.74,-925.64 505.94,-904.83 520.89,-890.04"/>
<polygon fill="midnightblue" stroke="midnightblue" points="523.76,-892.11 528.29,-882.53 518.78,-887.19 523.76,-892.11"/>
</g>
</g>
</svg>
