<?xml version="1.0" encoding="UTF-8" standalone="no"?>
<!DOCTYPE svg PUBLIC "-//W3C//DTD SVG 1.1//EN"
 "http://www.w3.org/Graphics/SVG/1.1/DTD/svg11.dtd">
<!-- Generated by graphviz version 2.43.0 (0)
 -->
<!-- Title: typed_array_is_detached Pages: 1 -->
<!--zoomable 552 -->
<svg id="main" version="1.1" xmlns="http://www.w3.org/2000/svg" xmlns:xlink="http://www.w3.org/1999/xlink" xml:space="preserve" onload="init(evt)">
<style type="text/css"><![CDATA[
.edge:hover path { stroke: red; }
.edge:hover polygon { stroke: red; fill: red; }
]]></style>
<script type="text/javascript"><![CDATA[
var edges = document.getElementsByTagName('g');
if (edges && edges.length) {
  for (var i=0;i<edges.length;i++) {
    if (edges[i].id.substr(0,4)=='edge') {
      edges[i].setAttribute('class','edge');
    }
  }
}
]]></script>
        <defs>
                <circle id="rim" cx="0" cy="0" r="7"/>
                <circle id="rim2" cx="0" cy="0" r="3.5"/>
                <g id="zoomPlus">
                        <use xlink:href="#rim" fill="#404040">
                                <set attributeName="fill" to="#808080" begin="zoomplus.mouseover" end="zoomplus.mouseout"/>
                        </use>
                        <path d="M-4,0h8M0,-4v8" fill="none" stroke="white" stroke-width="1.5" pointer-events="none"/>
                </g>
                <g id="zoomMin">
                        <use xlink:href="#rim" fill="#404040">
                                <set attributeName="fill" to="#808080" begin="zoomminus.mouseover" end="zoomminus.mouseout"/>
                        </use>
                        <path d="M-4,0h8" fill="none" stroke="white" stroke-width="1.5" pointer-events="none"/>
                </g>
                <g id="dirArrow">
                        <path fill="none" stroke="white" stroke-width="1.5" d="M0,-3.0v7 M-2.5,-0.5L0,-3.0L2.5,-0.5"/>
                </g>
               <g id="resetDef">
                       <use xlink:href="#rim2" fill="#404040">
                               <set attributeName="fill" to="#808080" begin="reset.mouseover" end="reset.mouseout"/>
                       </use>
               </g>
        </defs>

<script type="text/javascript">
var viewWidth = 655;
var viewHeight = 552;
var sectionId = 'dynsection-63';
</script>
<script xlink:href="svgpan.js"/>
<svg id="graph" class="graph">
<g id="viewport">
<title>typed_array_is_detached</title>
<!-- Node1 -->
<g id="node1" class="node">
<title>Node1</title>
<g id="a_node1"><a xlink:title=" ">
<polygon fill="#bfbfbf" stroke="black" points="508,-257.5 508,-276.5 647,-276.5 647,-257.5 508,-257.5"/>
<text text-anchor="middle" x="577.5" y="-264.5" font-family="Helvetica,sans-Serif" font-size="10.00">typed_array_is_detached</text>
</a>
</g>
</g>
<!-- Node2 -->
<g id="node2" class="node">
<title>Node2</title>
<g id="a_node2"><a xlink:href="quickjs_8c.html#a4398c126700f887a947501bf25910f75" target="_top" xlink:title=" ">
<polygon fill="none" stroke="black" points="328,-488.5 328,-507.5 452,-507.5 452,-488.5 328,-488.5"/>
<text text-anchor="middle" x="390" y="-495.5" font-family="Helvetica,sans-Serif" font-size="10.00">js_array_iterator_next</text>
</a>
</g>
</g>
<!-- Node1&#45;&gt;Node2 -->
<g id="edge1" class="edge">
<title>Node1&#45;&gt;Node2</title>
<path fill="none" stroke="midnightblue" d="M568.61,-286.24C553.71,-320.87 518.69,-394.68 472,-444 453.87,-463.15 427.76,-479.01 410.13,-488.48"/>
<polygon fill="midnightblue" stroke="midnightblue" points="571.92,-287.39 572.58,-276.82 565.47,-284.68 571.92,-287.39"/>
</g>
<!-- Node614 -->
<g id="node5" class="node">
<title>Node614</title>
<g id="a_node5"><a xlink:href="quickjs_8c.html#a623376b2e5c5459f22b16e18ce134b62" target="_top" xlink:title=" ">
<polygon fill="none" stroke="black" points="324,-415.5 324,-434.5 456,-434.5 456,-415.5 324,-415.5"/>
<text text-anchor="middle" x="390" y="-422.5" font-family="Helvetica,sans-Serif" font-size="10.00">JS_GetTypedArrayBuffer</text>
</a>
</g>
</g>
<!-- Node1&#45;&gt;Node614 -->
<g id="edge5" class="edge">
<title>Node1&#45;&gt;Node614</title>
<path fill="none" stroke="midnightblue" d="M567.88,-285.62C552.87,-315.85 519.02,-375.31 472,-406 466.07,-409.87 459.45,-412.95 452.61,-415.41"/>
<polygon fill="midnightblue" stroke="midnightblue" points="571.05,-287.1 572.23,-276.57 564.74,-284.06 571.05,-287.1"/>
</g>
<!-- Node323 -->
<g id="node6" class="node">
<title>Node323</title>
<g id="a_node6"><a xlink:href="quickjs_8c.html#a19e15727ea84a3735a3850b18da03330" target="_top" xlink:title=" ">
<polygon fill="none" stroke="red" points="308,-377.5 308,-396.5 472,-396.5 472,-377.5 308,-377.5"/>
<text text-anchor="middle" x="390" y="-384.5" font-family="Helvetica,sans-Serif" font-size="10.00">js_typed_array_constructor_ta</text>
</a>
</g>
</g>
<!-- Node1&#45;&gt;Node323 -->
<g id="edge6" class="edge">
<title>Node1&#45;&gt;Node323</title>
<path fill="none" stroke="midnightblue" d="M562.09,-284.42C543.43,-305.89 508.9,-342.09 472,-363 461.15,-369.15 448.58,-373.86 436.62,-377.41"/>
<polygon fill="midnightblue" stroke="midnightblue" points="564.83,-286.6 568.65,-276.72 559.5,-282.06 564.83,-286.6"/>
</g>
<!-- Node501 -->
<g id="node7" class="node">
<title>Node501</title>
<g id="a_node7"><a xlink:href="quickjs_8c.html#abe83a22e4d81b08015c382d8f4e7f833" target="_top" xlink:title=" ">
<polygon fill="none" stroke="black" points="123,-468.5 123,-487.5 272,-487.5 272,-468.5 123,-468.5"/>
<text text-anchor="middle" x="197.5" y="-475.5" font-family="Helvetica,sans-Serif" font-size="10.00">js_typed_array_copyWithin</text>
</a>
</g>
</g>
<!-- Node1&#45;&gt;Node501 -->
<g id="edge7" class="edge">
<title>Node1&#45;&gt;Node501</title>
<path fill="none" stroke="midnightblue" d="M554.66,-282.28C534.15,-296 502.2,-315.8 472,-328 402.43,-356.09 364.57,-318.72 308,-368 275.21,-396.57 304.6,-430.21 272,-459 267.65,-462.84 262.63,-465.92 257.29,-468.39"/>
<polygon fill="midnightblue" stroke="midnightblue" points="556.66,-285.15 562.96,-276.64 552.73,-279.37 556.66,-285.15"/>
</g>
<!-- Node460 -->
<g id="node8" class="node">
<title>Node460</title>
<g id="a_node8"><a xlink:href="quickjs_8c.html#ae93231189fcdcb0450f2b21c208f293f" target="_top" xlink:title=" ">
<polygon fill="none" stroke="black" points="144.5,-430.5 144.5,-449.5 250.5,-449.5 250.5,-430.5 144.5,-430.5"/>
<text text-anchor="middle" x="197.5" y="-437.5" font-family="Helvetica,sans-Serif" font-size="10.00">js_typed_array_fill</text>
</a>
</g>
</g>
<!-- Node1&#45;&gt;Node460 -->
<g id="edge8" class="edge">
<title>Node1&#45;&gt;Node460</title>
<path fill="none" stroke="midnightblue" d="M527.2,-278.9C450.83,-297.41 312.22,-331.37 308,-335 276.61,-362.05 303.32,-393.88 272,-421 265.82,-426.35 258.33,-430.22 250.51,-433.02"/>
<polygon fill="midnightblue" stroke="midnightblue" points="528.2,-282.26 537.09,-276.5 526.55,-275.45 528.2,-282.26"/>
</g>
<!-- Node615 -->
<g id="node9" class="node">
<title>Node615</title>
<g id="a_node9"><a xlink:href="quickjs_8c.html#acbb1daa9c97eac9594da8f4408e8fa5b" target="_top" xlink:title=" ">
<polygon fill="none" stroke="black" points="335,-126 335,-156 445,-156 445,-126 335,-126"/>
<text text-anchor="start" x="343" y="-144" font-family="Helvetica,sans-Serif" font-size="10.00">js_typed_array_get</text>
<text text-anchor="middle" x="390" y="-133" font-family="Helvetica,sans-Serif" font-size="10.00">_byteLength</text>
</a>
</g>
</g>
<!-- Node1&#45;&gt;Node615 -->
<g id="edge9" class="edge">
<title>Node1&#45;&gt;Node615</title>
<path fill="none" stroke="midnightblue" d="M562.81,-249.39C544.45,-226.93 509.77,-188.33 472,-166 463.77,-161.13 454.49,-157.12 445.23,-153.85"/>
<polygon fill="midnightblue" stroke="midnightblue" points="560.24,-251.79 569.22,-257.41 565.71,-247.41 560.24,-251.79"/>
</g>
<!-- Node616 -->
<g id="node10" class="node">
<title>Node616</title>
<g id="a_node10"><a xlink:href="quickjs_8c.html#a7797b02f56511eb67985f7d50493c2a5" target="_top" xlink:title=" ">
<polygon fill="none" stroke="black" points="335,-77 335,-107 445,-107 445,-77 335,-77"/>
<text text-anchor="start" x="343" y="-95" font-family="Helvetica,sans-Serif" font-size="10.00">js_typed_array_get</text>
<text text-anchor="middle" x="390" y="-84" font-family="Helvetica,sans-Serif" font-size="10.00">_byteOffset</text>
</a>
</g>
</g>
<!-- Node1&#45;&gt;Node616 -->
<g id="edge10" class="edge">
<title>Node1&#45;&gt;Node616</title>
<path fill="none" stroke="midnightblue" d="M568.23,-247.75C553.55,-215.82 519.9,-151.98 472,-117 464.04,-111.18 454.69,-106.7 445.24,-103.25"/>
<polygon fill="midnightblue" stroke="midnightblue" points="565.21,-249.56 572.48,-257.26 571.6,-246.71 565.21,-249.56"/>
</g>
<!-- Node617 -->
<g id="node12" class="node">
<title>Node617</title>
<g id="a_node12"><a xlink:href="quickjs_8c.html#add71c7e0efcb1fd14572d39e2672971d" target="_top" xlink:title=" ">
<polygon fill="none" stroke="black" points="335,-252 335,-282 445,-282 445,-252 335,-252"/>
<text text-anchor="start" x="343" y="-270" font-family="Helvetica,sans-Serif" font-size="10.00">js_typed_array_get</text>
<text text-anchor="middle" x="390" y="-259" font-family="Helvetica,sans-Serif" font-size="10.00">_length_internal</text>
</a>
</g>
</g>
<!-- Node1&#45;&gt;Node617 -->
<g id="edge12" class="edge">
<title>Node1&#45;&gt;Node617</title>
<path fill="none" stroke="midnightblue" d="M497.62,-267C479.91,-267 461.5,-267 445.07,-267"/>
<polygon fill="midnightblue" stroke="midnightblue" points="497.95,-270.5 507.95,-267 497.95,-263.5 497.95,-270.5"/>
</g>
<!-- Node461 -->
<g id="node17" class="node">
<title>Node461</title>
<g id="a_node17"><a xlink:href="quickjs_8c.html#a5552c2701abfaa12a9c9b029a377725d" target="_top" xlink:title=" ">
<polygon fill="none" stroke="black" points="131.5,-126.5 131.5,-145.5 263.5,-145.5 263.5,-126.5 131.5,-126.5"/>
<text text-anchor="middle" x="197.5" y="-133.5" font-family="Helvetica,sans-Serif" font-size="10.00">js_typed_array_indexOf</text>
</a>
</g>
</g>
<!-- Node1&#45;&gt;Node461 -->
<g id="edge24" class="edge">
<title>Node1&#45;&gt;Node461</title>
<path fill="none" stroke="midnightblue" d="M524.96,-255.14C447.63,-237.31 310.29,-205.52 308,-204 285.45,-189.1 294.38,-170.15 272,-155 266.22,-151.08 259.68,-147.98 252.94,-145.51"/>
<polygon fill="midnightblue" stroke="midnightblue" points="524.47,-258.62 535,-257.45 526.04,-251.8 524.47,-258.62"/>
</g>
<!-- Node319 -->
<g id="node22" class="node">
<title>Node319</title>
<g id="a_node22"><a xlink:href="quickjs_8c.html#a28f4d08e4321e751cebe37ea7259fe3c" target="_top" xlink:title=" ">
<polygon fill="none" stroke="red" points="335.5,-28 335.5,-58 444.5,-58 444.5,-28 335.5,-28"/>
<text text-anchor="start" x="343.5" y="-46" font-family="Helvetica,sans-Serif" font-size="10.00">js_typed_array_set</text>
<text text-anchor="middle" x="390" y="-35" font-family="Helvetica,sans-Serif" font-size="10.00">_internal</text>
</a>
</g>
</g>
<!-- Node1&#45;&gt;Node319 -->
<g id="edge25" class="edge">
<title>Node1&#45;&gt;Node319</title>
<path fill="none" stroke="midnightblue" d="M571.75,-247.7C560.99,-208.05 530.98,-117.01 472,-68 464.08,-61.42 454.43,-56.56 444.59,-52.99"/>
<polygon fill="midnightblue" stroke="midnightblue" points="568.38,-248.65 574.28,-257.45 575.16,-246.89 568.38,-248.65"/>
</g>
<!-- Node619 -->
<g id="node23" class="node">
<title>Node619</title>
<g id="a_node23"><a xlink:href="quickjs_8c.html#a997c03968a234b51305ddb93c80a4b97" target="_top" xlink:title=" ">
<polygon fill="none" stroke="black" points="330,-175.5 330,-194.5 450,-194.5 450,-175.5 330,-175.5"/>
<text text-anchor="middle" x="390" y="-182.5" font-family="Helvetica,sans-Serif" font-size="10.00">validate_typed_array</text>
</a>
</g>
</g>
<!-- Node1&#45;&gt;Node619 -->
<g id="edge26" class="edge">
<title>Node1&#45;&gt;Node619</title>
<path fill="none" stroke="midnightblue" d="M553.07,-252.04C532.37,-239.31 501.04,-221.19 472,-209 458.48,-203.32 443.16,-198.42 429.51,-194.55"/>
<polygon fill="midnightblue" stroke="midnightblue" points="551.45,-255.16 561.79,-257.48 555.15,-249.22 551.45,-255.16"/>
</g>
<!-- Node3 -->
<g id="node3" class="node">
<title>Node3</title>
<g id="a_node3"><a xlink:href="quickjs_8c.html#a43208b0746998d2b6b9b8bd1ef8b5f99" target="_top" xlink:title=" ">
<polygon fill="none" stroke="black" points="135,-506.5 135,-525.5 260,-525.5 260,-506.5 135,-506.5"/>
<text text-anchor="middle" x="197.5" y="-513.5" font-family="Helvetica,sans-Serif" font-size="10.00">js_append_enumerate</text>
</a>
</g>
</g>
<!-- Node2&#45;&gt;Node3 -->
<g id="edge2" class="edge">
<title>Node2&#45;&gt;Node3</title>
<path fill="none" stroke="midnightblue" d="M317.87,-504.72C298.92,-506.51 278.6,-508.43 260.2,-510.17"/>
<polygon fill="midnightblue" stroke="midnightblue" points="318.31,-508.19 327.94,-503.77 317.65,-501.23 318.31,-508.19"/>
</g>
<!-- Node4 -->
<g id="node4" class="node">
<title>Node4</title>
<g id="a_node4"><a xlink:href="quickjs_8c.html#ac2894ff4edcdb4e6841bcce9c76081e3" target="_top" xlink:title=" ">
<polygon fill="none" stroke="red" points="0,-506.5 0,-525.5 87,-525.5 87,-506.5 0,-506.5"/>
<text text-anchor="middle" x="43.5" y="-513.5" font-family="Helvetica,sans-Serif" font-size="10.00">JS_CallInternal</text>
</a>
</g>
</g>
<!-- Node3&#45;&gt;Node4 -->
<g id="edge3" class="edge">
<title>Node3&#45;&gt;Node4</title>
<path fill="none" stroke="midnightblue" d="M124.5,-516C111.73,-516 98.82,-516 87.19,-516"/>
<polygon fill="midnightblue" stroke="midnightblue" points="124.68,-519.5 134.68,-516 124.68,-512.5 124.68,-519.5"/>
</g>
<!-- Node4&#45;&gt;Node4 -->
<g id="edge4" class="edge">
<title>Node4&#45;&gt;Node4</title>
<path fill="none" stroke="midnightblue" d="M72.25,-534.65C71.04,-539.94 61.46,-544 43.5,-544 16.13,-544 8.22,-534.57 19.76,-525.76"/>
<polygon fill="midnightblue" stroke="midnightblue" points="75.19,-532.75 67.24,-525.76 69.09,-536.19 75.19,-532.75"/>
</g>
<!-- Node64 -->
<g id="node11" class="node">
<title>Node64</title>
<g id="a_node11"><a xlink:href="quickjs_8c.html#a355310420e303302c981eb7c73a222fb" target="_top" xlink:title=" ">
<polygon fill="none" stroke="black" points="129,-0.5 129,-19.5 266,-19.5 266,-0.5 129,-0.5"/>
<text text-anchor="middle" x="197.5" y="-7.5" font-family="Helvetica,sans-Serif" font-size="10.00">js_typed_array_subarray</text>
</a>
</g>
</g>
<!-- Node616&#45;&gt;Node64 -->
<g id="edge11" class="edge">
<title>Node616&#45;&gt;Node64</title>
<path fill="none" stroke="midnightblue" d="M325.11,-75.75C319.14,-73.22 313.33,-70.31 308,-67 288.24,-54.72 292.04,-40.81 272,-29 265.41,-25.12 258.04,-22.02 250.57,-19.55"/>
<polygon fill="midnightblue" stroke="midnightblue" points="324,-79.08 334.58,-79.45 326.54,-72.55 324,-79.08"/>
</g>
<!-- Node617&#45;&gt;Node501 -->
<g id="edge15" class="edge">
<title>Node617&#45;&gt;Node501</title>
<path fill="none" stroke="midnightblue" d="M355.61,-288.03C339.13,-299.97 320.21,-316.27 308,-335 276.67,-383.08 313.17,-419.03 272,-459 268.03,-462.86 263.38,-465.96 258.39,-468.45"/>
<polygon fill="midnightblue" stroke="midnightblue" points="357.77,-290.79 363.96,-282.19 353.76,-285.05 357.77,-290.79"/>
</g>
<!-- Node617&#45;&gt;Node460 -->
<g id="edge17" class="edge">
<title>Node617&#45;&gt;Node460</title>
<path fill="none" stroke="midnightblue" d="M325.51,-283.61C319.02,-287.23 312.99,-291.64 308,-297 268.91,-339.02 313.17,-381.03 272,-421 266.04,-426.78 258.57,-430.87 250.68,-433.75"/>
<polygon fill="midnightblue" stroke="midnightblue" points="327.17,-286.7 334.6,-279.14 324.08,-280.42 327.17,-286.7"/>
</g>
<!-- Node29 -->
<g id="node13" class="node">
<title>Node29</title>
<g id="a_node13"><a xlink:href="quickjs_8c.html#aa0bbf08a7e91459c68a312fba7016c6d" target="_top" xlink:title=" ">
<polygon fill="none" stroke="black" points="153,-392.5 153,-411.5 242,-411.5 242,-392.5 153,-392.5"/>
<text text-anchor="middle" x="197.5" y="-399.5" font-family="Helvetica,sans-Serif" font-size="10.00">js_array_every</text>
</a>
</g>
</g>
<!-- Node617&#45;&gt;Node29 -->
<g id="edge13" class="edge">
<title>Node617&#45;&gt;Node29</title>
<path fill="none" stroke="midnightblue" d="M325.81,-284.34C319.32,-287.83 313.21,-292 308,-297 278.1,-325.68 303.32,-355.88 272,-383 263.63,-390.25 252.84,-394.78 242.12,-397.61"/>
<polygon fill="midnightblue" stroke="midnightblue" points="327.36,-287.48 334.85,-279.99 324.33,-281.17 327.36,-287.48"/>
</g>
<!-- Node32 -->
<g id="node14" class="node">
<title>Node32</title>
<g id="a_node14"><a xlink:href="quickjs_8c.html#a36c1692489542a86dd79a7d39ab8ff95" target="_top" xlink:title=" ">
<polygon fill="none" stroke="black" points="150.5,-354.5 150.5,-373.5 244.5,-373.5 244.5,-354.5 150.5,-354.5"/>
<text text-anchor="middle" x="197.5" y="-361.5" font-family="Helvetica,sans-Serif" font-size="10.00">js_array_reduce</text>
</a>
</g>
</g>
<!-- Node617&#45;&gt;Node32 -->
<g id="edge14" class="edge">
<title>Node617&#45;&gt;Node32</title>
<path fill="none" stroke="midnightblue" d="M325.66,-286.32C319.42,-289.42 313.41,-292.96 308,-297 286.63,-312.95 294.16,-330.16 272,-345 263.9,-350.43 254.34,-354.3 244.84,-357.07"/>
<polygon fill="midnightblue" stroke="midnightblue" points="327.27,-289.43 334.91,-282.09 324.36,-283.06 327.27,-289.43"/>
</g>
<!-- Node119 -->
<g id="node15" class="node">
<title>Node119</title>
<g id="a_node15"><a xlink:href="quickjs_8c.html#a8c18ce4b7a8c97ab520d4d37a1c6fc72" target="_top" xlink:title=" ">
<polygon fill="none" stroke="red" points="135,-316.5 135,-335.5 260,-335.5 260,-316.5 135,-316.5"/>
<text text-anchor="middle" x="197.5" y="-323.5" font-family="Helvetica,sans-Serif" font-size="10.00">js_typed_array_create</text>
</a>
</g>
</g>
<!-- Node617&#45;&gt;Node119 -->
<g id="edge16" class="edge">
<title>Node617&#45;&gt;Node119</title>
<path fill="none" stroke="midnightblue" d="M337.84,-285.44C317.47,-292.53 293.74,-300.49 272,-307 260.89,-310.33 248.73,-313.62 237.56,-316.49"/>
<polygon fill="midnightblue" stroke="midnightblue" points="339.28,-288.64 347.55,-282.03 336.96,-282.04 339.28,-288.64"/>
</g>
<!-- Node105 -->
<g id="node16" class="node">
<title>Node105</title>
<g id="a_node16"><a xlink:href="quickjs_8c.html#a0b8ae7efe63abc1be33d9e828d43ce8d" target="_top" xlink:title=" ">
<polygon fill="none" stroke="black" points="141.5,-278.5 141.5,-297.5 253.5,-297.5 253.5,-278.5 141.5,-278.5"/>
<text text-anchor="middle" x="197.5" y="-285.5" font-family="Helvetica,sans-Serif" font-size="10.00">js_typed_array_find</text>
</a>
</g>
</g>
<!-- Node617&#45;&gt;Node105 -->
<g id="edge18" class="edge">
<title>Node617&#45;&gt;Node105</title>
<path fill="none" stroke="midnightblue" d="M324.87,-274.07C301.79,-276.61 275.97,-279.46 253.71,-281.91"/>
<polygon fill="midnightblue" stroke="midnightblue" points="325.36,-277.54 334.92,-272.96 324.6,-270.58 325.36,-277.54"/>
</g>
<!-- Node617&#45;&gt;Node461 -->
<g id="edge19" class="edge">
<title>Node617&#45;&gt;Node461</title>
<path fill="none" stroke="midnightblue" d="M325.9,-249.57C319.39,-246.1 313.25,-241.95 308,-237 279.04,-209.7 302.31,-180.79 272,-155 267.48,-151.16 262.28,-148.08 256.78,-145.61"/>
<polygon fill="midnightblue" stroke="midnightblue" points="324.42,-252.75 334.95,-253.91 327.44,-246.43 324.42,-252.75"/>
</g>
<!-- Node394 -->
<g id="node18" class="node">
<title>Node394</title>
<g id="a_node18"><a xlink:href="quickjs_8c.html#aa04ea5aa5c3614856e8cd9843f1ebaa1" target="_top" xlink:title=" ">
<polygon fill="none" stroke="black" points="141.5,-240.5 141.5,-259.5 253.5,-259.5 253.5,-240.5 141.5,-240.5"/>
<text text-anchor="middle" x="197.5" y="-247.5" font-family="Helvetica,sans-Serif" font-size="10.00">js_typed_array_join</text>
</a>
</g>
</g>
<!-- Node617&#45;&gt;Node394 -->
<g id="edge20" class="edge">
<title>Node617&#45;&gt;Node394</title>
<path fill="none" stroke="midnightblue" d="M324.87,-261.28C301.79,-259.22 275.97,-256.91 253.71,-254.93"/>
<polygon fill="midnightblue" stroke="midnightblue" points="324.65,-264.77 334.92,-262.17 325.27,-257.8 324.65,-264.77"/>
</g>
<!-- Node618 -->
<g id="node19" class="node">
<title>Node618</title>
<g id="a_node19"><a xlink:href="quickjs_8c.html#a1cbe16f416f7695b59db3032a6b76af6" target="_top" xlink:title=" ">
<polygon fill="none" stroke="black" points="132,-202.5 132,-221.5 263,-221.5 263,-202.5 132,-202.5"/>
<text text-anchor="middle" x="197.5" y="-209.5" font-family="Helvetica,sans-Serif" font-size="10.00">js_typed_array_reverse</text>
</a>
</g>
</g>
<!-- Node617&#45;&gt;Node618 -->
<g id="edge21" class="edge">
<title>Node617&#45;&gt;Node618</title>
<path fill="none" stroke="midnightblue" d="M332.16,-248.94C313.09,-243.04 291.68,-236.57 272,-231 260.59,-227.77 248.11,-224.46 236.74,-221.53"/>
<polygon fill="midnightblue" stroke="midnightblue" points="331.31,-252.34 341.89,-251.97 333.39,-245.66 331.31,-252.34"/>
</g>
<!-- Node63 -->
<g id="node20" class="node">
<title>Node63</title>
<g id="a_node20"><a xlink:href="quickjs_8c.html#a04f45f4b341a84aa1039cfd862adbcd2" target="_top" xlink:title=" ">
<polygon fill="none" stroke="black" points="139.5,-88.5 139.5,-107.5 255.5,-107.5 255.5,-88.5 139.5,-88.5"/>
<text text-anchor="middle" x="197.5" y="-95.5" font-family="Helvetica,sans-Serif" font-size="10.00">js_typed_array_slice</text>
</a>
</g>
</g>
<!-- Node617&#45;&gt;Node63 -->
<g id="edge22" class="edge">
<title>Node617&#45;&gt;Node63</title>
<path fill="none" stroke="midnightblue" d="M354.58,-246.19C338.72,-235.23 320.66,-220.62 308,-204 282.64,-170.71 303.58,-144.46 272,-117 267.23,-112.85 261.66,-109.59 255.76,-107.03"/>
<polygon fill="midnightblue" stroke="midnightblue" points="352.85,-249.25 363.11,-251.89 356.74,-243.43 352.85,-249.25"/>
</g>
<!-- Node430 -->
<g id="node21" class="node">
<title>Node430</title>
<g id="a_node21"><a xlink:href="quickjs_8c.html#ad24e5f774218bb0d2859db9dc569d118" target="_top" xlink:title=" ">
<polygon fill="none" stroke="black" points="141,-164.5 141,-183.5 254,-183.5 254,-164.5 141,-164.5"/>
<text text-anchor="middle" x="197.5" y="-171.5" font-family="Helvetica,sans-Serif" font-size="10.00">js_typed_array_sort</text>
</a>
</g>
</g>
<!-- Node617&#45;&gt;Node430 -->
<g id="edge23" class="edge">
<title>Node617&#45;&gt;Node430</title>
<path fill="none" stroke="midnightblue" d="M326.39,-247.72C319.92,-244.6 313.66,-241.04 308,-237 287.43,-222.32 293.29,-206.61 272,-193 265.89,-189.09 259.02,-185.99 251.99,-183.52"/>
<polygon fill="midnightblue" stroke="midnightblue" points="325.4,-251.11 335.96,-251.99 328.25,-244.72 325.4,-251.11"/>
</g>
<!-- Node619&#45;&gt;Node63 -->
<g id="edge28" class="edge">
<title>Node619&#45;&gt;Node63</title>
<path fill="none" stroke="midnightblue" d="M320.26,-172.63C315.96,-170.73 311.83,-168.53 308,-166 285.45,-151.11 294.38,-132.15 272,-117 266.22,-113.08 259.68,-109.98 252.94,-107.51"/>
<polygon fill="midnightblue" stroke="midnightblue" points="319.28,-176.01 329.87,-176.35 321.81,-169.48 319.28,-176.01"/>
</g>
<!-- Node301 -->
<g id="node24" class="node">
<title>Node301</title>
<g id="a_node24"><a xlink:href="quickjs_8c.html#a1e80be77ffd5dbb921de62f804a26675" target="_top" xlink:title=" ">
<polygon fill="none" stroke="black" points="135,-39 135,-69 260,-69 260,-39 135,-39"/>
<text text-anchor="start" x="143" y="-57" font-family="Helvetica,sans-Serif" font-size="10.00">js_create_typed_array</text>
<text text-anchor="middle" x="197.5" y="-46" font-family="Helvetica,sans-Serif" font-size="10.00">_iterator</text>
</a>
</g>
</g>
<!-- Node619&#45;&gt;Node301 -->
<g id="edge27" class="edge">
<title>Node619&#45;&gt;Node301</title>
<path fill="none" stroke="midnightblue" d="M320.29,-174.06C315.88,-171.83 311.72,-169.17 308,-166 276.11,-138.9 302.53,-107.62 272,-79 267.87,-75.13 263.12,-71.85 258.06,-69.09"/>
<polygon fill="midnightblue" stroke="midnightblue" points="319.06,-177.34 329.63,-178.07 321.82,-170.91 319.06,-177.34"/>
</g>
</g>
</svg>
        <g id="navigator" transform="translate(0 0)" fill="#404254">
                <rect fill="#f2f5e9" fill-opacity="0.5" stroke="#606060" stroke-width=".5" x="0" y="0" width="60" height="60"/>
                <use id="zoomplus" xlink:href="#zoomPlus" x="17" y="9" onmousedown="handleZoom(evt,'in')"/>
                <use id="zoomminus" xlink:href="#zoomMin" x="42" y="9" onmousedown="handleZoom(evt,'out')"/>
                <use id="reset" xlink:href="#resetDef" x="30" y="36" onmousedown="handleReset()"/>
                <g id="arrowUp" xlink:href="#dirArrow" transform="translate(30 24)" onmousedown="handlePan(0,-1)">
                  <use xlink:href="#rim" fill="#404040">
                        <set attributeName="fill" to="#808080" begin="arrowUp.mouseover" end="arrowUp.mouseout"/>
                  </use>
                  <path fill="none" stroke="white" stroke-width="1.5" d="M0,-3.0v7 M-2.5,-0.5L0,-3.0L2.5,-0.5"/>
                </g>
                <g id="arrowRight" xlink:href="#dirArrow" transform="rotate(90) translate(36 -43)" onmousedown="handlePan(1,0)">
                  <use xlink:href="#rim" fill="#404040">
                        <set attributeName="fill" to="#808080" begin="arrowRight.mouseover" end="arrowRight.mouseout"/>
                  </use>
                  <path fill="none" stroke="white" stroke-width="1.5" d="M0,-3.0v7 M-2.5,-0.5L0,-3.0L2.5,-0.5"/>
                </g>
                <g id="arrowDown" xlink:href="#dirArrow" transform="rotate(180) translate(-30 -48)" onmousedown="handlePan(0,1)">
                  <use xlink:href="#rim" fill="#404040">
                        <set attributeName="fill" to="#808080" begin="arrowDown.mouseover" end="arrowDown.mouseout"/>
                  </use>
                  <path fill="none" stroke="white" stroke-width="1.5" d="M0,-3.0v7 M-2.5,-0.5L0,-3.0L2.5,-0.5"/>
                </g>
                <g id="arrowLeft" xlink:href="#dirArrow" transform="rotate(270) translate(-36 17)" onmousedown="handlePan(-1,0)">
                  <use xlink:href="#rim" fill="#404040">
                        <set attributeName="fill" to="#808080" begin="arrowLeft.mouseover" end="arrowLeft.mouseout"/>
                  </use>
                  <path fill="none" stroke="white" stroke-width="1.5" d="M0,-3.0v7 M-2.5,-0.5L0,-3.0L2.5,-0.5"/>
                </g>
        </g>
        <svg viewBox="0 0 15 15" width="100%" height="30px" preserveAspectRatio="xMaxYMin meet">
         <g id="arrow_out" transform="scale(0.3 0.3)">
          <a xlink:href="quickjs_8c_a869fa88a646c0a1914ec2e559b193b5c_icgraph_org.svg" target="_base">
           <rect id="button" ry="5" rx="5" y="6" x="6" height="38" width="38"
                fill="#f2f5e9" fill-opacity="0.5" stroke="#606060" stroke-width="1.0"/>
           <path id="arrow"
             d="M 11.500037,31.436501 C 11.940474,20.09759 22.043105,11.32322 32.158766,21.979434 L 37.068811,17.246167 C 37.068811,17.246167 37.088388,32 37.088388,32 L 22.160133,31.978069 C 22.160133,31.978069 26.997745,27.140456 26.997745,27.140456 C 18.528582,18.264221 13.291696,25.230495 11.500037,31.436501 z"
             style="fill:#404040;"/>
          </a>
         </g>
        </svg>
</svg>
