<?xml version="1.0" encoding="UTF-8" standalone="no"?>
<!DOCTYPE svg PUBLIC "-//W3C//DTD SVG 1.1//EN"
 "http://www.w3.org/Graphics/SVG/1.1/DTD/svg11.dtd">
<!-- Generated by graphviz version 2.43.0 (0)
 -->
<!-- Title: js_Date_parse Pages: 1 -->
<!--zoomable 631 -->
<svg id="main" version="1.1" xmlns="http://www.w3.org/2000/svg" xmlns:xlink="http://www.w3.org/1999/xlink" xml:space="preserve" onload="init(evt)">
<style type="text/css"><![CDATA[
.edge:hover path { stroke: red; }
.edge:hover polygon { stroke: red; fill: red; }
]]></style>
<script type="text/javascript"><![CDATA[
var edges = document.getElementsByTagName('g');
if (edges && edges.length) {
  for (var i=0;i<edges.length;i++) {
    if (edges[i].id.substr(0,4)=='edge') {
      edges[i].setAttribute('class','edge');
    }
  }
}
]]></script>
        <defs>
                <circle id="rim" cx="0" cy="0" r="7"/>
                <circle id="rim2" cx="0" cy="0" r="3.5"/>
                <g id="zoomPlus">
                        <use xlink:href="#rim" fill="#404040">
                                <set attributeName="fill" to="#808080" begin="zoomplus.mouseover" end="zoomplus.mouseout"/>
                        </use>
                        <path d="M-4,0h8M0,-4v8" fill="none" stroke="white" stroke-width="1.5" pointer-events="none"/>
                </g>
                <g id="zoomMin">
                        <use xlink:href="#rim" fill="#404040">
                                <set attributeName="fill" to="#808080" begin="zoomminus.mouseover" end="zoomminus.mouseout"/>
                        </use>
                        <path d="M-4,0h8" fill="none" stroke="white" stroke-width="1.5" pointer-events="none"/>
                </g>
                <g id="dirArrow">
                        <path fill="none" stroke="white" stroke-width="1.5" d="M0,-3.0v7 M-2.5,-0.5L0,-3.0L2.5,-0.5"/>
                </g>
               <g id="resetDef">
                       <use xlink:href="#rim2" fill="#404040">
                               <set attributeName="fill" to="#808080" begin="reset.mouseover" end="reset.mouseout"/>
                       </use>
               </g>
        </defs>

<script type="text/javascript">
var viewWidth = 805;
var viewHeight = 631;
var sectionId = 'dynsection-1797';
</script>
<script xlink:href="svgpan.js"/>
<svg id="graph" class="graph">
<g id="viewport">
<title>js_Date_parse</title>
<!-- Node1 -->
<g id="node1" class="node">
<title>Node1</title>
<g id="a_node1"><a xlink:title=" ">
<polygon fill="#bfbfbf" stroke="black" points="0,-240.5 0,-259.5 86,-259.5 86,-240.5 0,-240.5"/>
<text text-anchor="middle" x="43" y="-247.5" font-family="Helvetica,sans-Serif" font-size="10.00">js_Date_parse</text>
</a>
</g>
</g>
<!-- Node2 -->
<g id="node2" class="node">
<title>Node2</title>
<g id="a_node2"><a xlink:href="quickjs_8h.html#afaa20c47565bc704c6c85f3d77254e7d" target="_top" xlink:title=" ">
<polygon fill="none" stroke="black" points="447.5,-603.5 447.5,-622.5 526.5,-622.5 526.5,-603.5 447.5,-603.5"/>
<text text-anchor="middle" x="487" y="-610.5" font-family="Helvetica,sans-Serif" font-size="10.00">JS_FreeValue</text>
</a>
</g>
</g>
<!-- Node1&#45;&gt;Node2 -->
<g id="edge1" class="edge">
<title>Node1&#45;&gt;Node2</title>
<path fill="none" stroke="midnightblue" d="M43.55,-259.67C42.26,-299.57 42.79,-453.05 122,-534 205.86,-619.71 359.2,-622.7 437.38,-617.84"/>
<polygon fill="midnightblue" stroke="midnightblue" points="437.71,-621.33 447.44,-617.14 437.22,-614.34 437.71,-621.33"/>
</g>
<!-- Node40 -->
<g id="node5" class="node">
<title>Node40</title>
<g id="a_node5"><a xlink:href="quickjs_8h.html#ad80a83d73e9b7d872b88fbf2943aebe9" target="_top" xlink:title=" ">
<polygon fill="none" stroke="black" points="443.5,-565.5 443.5,-584.5 530.5,-584.5 530.5,-565.5 443.5,-565.5"/>
<text text-anchor="middle" x="487" y="-572.5" font-family="Helvetica,sans-Serif" font-size="10.00">JS_IsException</text>
</a>
</g>
</g>
<!-- Node1&#45;&gt;Node40 -->
<g id="edge4" class="edge">
<title>Node1&#45;&gt;Node40</title>
<path fill="none" stroke="midnightblue" d="M44.26,-259.63C45.73,-294.95 55.6,-418.87 122,-485 205.87,-568.53 354.24,-578.81 433.17,-577.75"/>
<polygon fill="midnightblue" stroke="midnightblue" points="433.44,-581.24 443.37,-577.54 433.3,-574.25 433.44,-581.24"/>
</g>
<!-- Node41 -->
<g id="node6" class="node">
<title>Node41</title>
<g id="a_node6"><a xlink:href="quickjs_8h.html#ae91f44bd7249613050c18c7133702c67" target="_top" xlink:title=" ">
<polygon fill="none" stroke="black" points="145,-399.5 145,-418.5 234,-418.5 234,-399.5 145,-399.5"/>
<text text-anchor="middle" x="189.5" y="-406.5" font-family="Helvetica,sans-Serif" font-size="10.00">JS_NewFloat64</text>
</a>
</g>
</g>
<!-- Node1&#45;&gt;Node41 -->
<g id="edge5" class="edge">
<title>Node1&#45;&gt;Node41</title>
<path fill="none" stroke="midnightblue" d="M48.21,-259.57C58.25,-281.56 85.54,-336.44 122,-371 132.05,-380.53 144.93,-388.59 156.68,-394.81"/>
<polygon fill="midnightblue" stroke="midnightblue" points="155.27,-398.02 165.77,-399.39 158.42,-391.77 155.27,-398.02"/>
</g>
<!-- Node43 -->
<g id="node8" class="node">
<title>Node43</title>
<g id="a_node8"><a xlink:href="quickjs_8c.html#a7bcb8e1a20cbc8374a5f9ba4a2088cec" target="_top" xlink:title=" ">
<polygon fill="none" stroke="black" points="154.5,-456.5 154.5,-475.5 224.5,-475.5 224.5,-456.5 154.5,-456.5"/>
<text text-anchor="middle" x="189.5" y="-463.5" font-family="Helvetica,sans-Serif" font-size="10.00">JS_ToString</text>
</a>
</g>
</g>
<!-- Node1&#45;&gt;Node43 -->
<g id="edge7" class="edge">
<title>Node1&#45;&gt;Node43</title>
<path fill="none" stroke="midnightblue" d="M45.97,-259.66C52.28,-288.47 74.4,-375.06 122,-428 130.98,-437.99 143.22,-446.01 154.76,-452.06"/>
<polygon fill="midnightblue" stroke="midnightblue" points="153.27,-455.23 163.78,-456.49 156.35,-448.94 153.27,-455.23"/>
</g>
<!-- Node437 -->
<g id="node15" class="node">
<title>Node437</title>
<g id="a_node15"><a xlink:href="quickjs_8c.html#ad3c70a30f3676b516a77c91e3761a124" target="_top" xlink:title=" ">
<polygon fill="none" stroke="black" points="144.5,-342.5 144.5,-361.5 234.5,-361.5 234.5,-342.5 144.5,-342.5"/>
<text text-anchor="middle" x="189.5" y="-349.5" font-family="Helvetica,sans-Serif" font-size="10.00">set_date_fields</text>
</a>
</g>
</g>
<!-- Node1&#45;&gt;Node437 -->
<g id="edge19" class="edge">
<title>Node1&#45;&gt;Node437</title>
<path fill="none" stroke="midnightblue" d="M57.59,-259.6C82.66,-277.29 136.36,-315.19 166.61,-336.55"/>
<polygon fill="midnightblue" stroke="midnightblue" points="164.65,-339.45 174.84,-342.36 168.69,-333.73 164.65,-339.45"/>
</g>
<!-- Node443 -->
<g id="node21" class="node">
<title>Node443</title>
<g id="a_node21"><a xlink:href="quickjs_8c.html#a80398f847e2e83c2613b638719bf6fda" target="_top" xlink:title=" ">
<polygon fill="none" stroke="black" points="454.5,-133.5 454.5,-152.5 519.5,-152.5 519.5,-133.5 454.5,-133.5"/>
<text text-anchor="middle" x="487" y="-140.5" font-family="Helvetica,sans-Serif" font-size="10.00">string_get</text>
</a>
</g>
</g>
<!-- Node1&#45;&gt;Node443 -->
<g id="edge25" class="edge">
<title>Node1&#45;&gt;Node443</title>
<path fill="none" stroke="midnightblue" d="M74.02,-259.59C138.49,-278.35 293.19,-313.36 403,-257 442.03,-236.97 467.09,-189.12 478.61,-162.21"/>
<polygon fill="midnightblue" stroke="midnightblue" points="481.95,-163.3 482.49,-152.72 475.47,-160.65 481.95,-163.3"/>
</g>
<!-- Node444 -->
<g id="node22" class="node">
<title>Node444</title>
<g id="a_node22"><a xlink:href="quickjs_8c.html#a4502faf013a4f94c09e686fbddbda07a" target="_top" xlink:title=" ">
<polygon fill="none" stroke="black" points="299,-228.5 299,-247.5 397,-247.5 397,-228.5 299,-228.5"/>
<text text-anchor="middle" x="348" y="-235.5" font-family="Helvetica,sans-Serif" font-size="10.00">string_get_digits</text>
</a>
</g>
</g>
<!-- Node1&#45;&gt;Node444 -->
<g id="edge26" class="edge">
<title>Node1&#45;&gt;Node444</title>
<path fill="none" stroke="midnightblue" d="M86.13,-248.33C138.82,-246.24 229.31,-242.66 288.65,-240.31"/>
<polygon fill="midnightblue" stroke="midnightblue" points="289.13,-243.79 298.98,-239.9 288.85,-236.8 289.13,-243.79"/>
</g>
<!-- Node445 -->
<g id="node23" class="node">
<title>Node445</title>
<g id="a_node23"><a xlink:href="quickjs_8c.html#aad89e5b8f768e4b139b29de1bf2ff244" target="_top" xlink:title=" ">
<polygon fill="none" stroke="black" points="126.5,-153 126.5,-183 252.5,-183 252.5,-153 126.5,-153"/>
<text text-anchor="start" x="134.5" y="-171" font-family="Helvetica,sans-Serif" font-size="10.00">string_get_fixed_width</text>
<text text-anchor="middle" x="189.5" y="-160" font-family="Helvetica,sans-Serif" font-size="10.00">_digits</text>
</a>
</g>
</g>
<!-- Node1&#45;&gt;Node445 -->
<g id="edge28" class="edge">
<title>Node1&#45;&gt;Node445</title>
<path fill="none" stroke="midnightblue" d="M54.98,-240.47C69.52,-228.22 96.32,-206.87 122,-193 125.89,-190.9 129.99,-188.9 134.18,-187"/>
<polygon fill="midnightblue" stroke="midnightblue" points="135.59,-190.21 143.4,-183.05 132.83,-183.77 135.59,-190.21"/>
</g>
<!-- Node446 -->
<g id="node24" class="node">
<title>Node446</title>
<g id="a_node24"><a xlink:href="quickjs_8c.html#a16df88d4a6f77ed4e8a79875a8b074a6" target="_top" xlink:title=" ">
<polygon fill="none" stroke="black" points="123.5,-114.5 123.5,-133.5 255.5,-133.5 255.5,-114.5 123.5,-114.5"/>
<text text-anchor="middle" x="189.5" y="-121.5" font-family="Helvetica,sans-Serif" font-size="10.00">string_get_milliseconds</text>
</a>
</g>
</g>
<!-- Node1&#45;&gt;Node446 -->
<g id="edge30" class="edge">
<title>Node1&#45;&gt;Node446</title>
<path fill="none" stroke="midnightblue" d="M48.35,-240.47C58.32,-219.72 84.84,-170.21 122,-144 125.44,-141.58 129.17,-139.44 133.06,-137.56"/>
<polygon fill="midnightblue" stroke="midnightblue" points="134.5,-140.75 142.34,-133.63 131.76,-134.31 134.5,-140.75"/>
</g>
<!-- Node447 -->
<g id="node25" class="node">
<title>Node447</title>
<g id="a_node25"><a xlink:href="quickjs_8c.html#a3f727a5b0254dc65d6cb61d7b4812b9b" target="_top" xlink:title=" ">
<polygon fill="none" stroke="black" points="138.5,-76.5 138.5,-95.5 240.5,-95.5 240.5,-76.5 138.5,-76.5"/>
<text text-anchor="middle" x="189.5" y="-83.5" font-family="Helvetica,sans-Serif" font-size="10.00">string_get_month</text>
</a>
</g>
</g>
<!-- Node1&#45;&gt;Node447 -->
<g id="edge32" class="edge">
<title>Node1&#45;&gt;Node447</title>
<path fill="none" stroke="midnightblue" d="M46.41,-240.17C53.36,-214.01 75.91,-142.1 122,-105 124.28,-103.16 126.73,-101.51 129.29,-100.01"/>
<polygon fill="midnightblue" stroke="midnightblue" points="130.97,-103.08 138.38,-95.51 127.87,-96.81 130.97,-103.08"/>
</g>
<!-- Node449 -->
<g id="node27" class="node">
<title>Node449</title>
<g id="a_node27"><a xlink:href="quickjs_8c.html#ae8bb4fb34fa1e849bdfd7a108a1f346e" target="_top" xlink:title=" ">
<polygon fill="none" stroke="black" points="293.5,-38.5 293.5,-57.5 402.5,-57.5 402.5,-38.5 293.5,-38.5"/>
<text text-anchor="middle" x="348" y="-45.5" font-family="Helvetica,sans-Serif" font-size="10.00">string_skip_spaces</text>
</a>
</g>
</g>
<!-- Node1&#45;&gt;Node449 -->
<g id="edge42" class="edge">
<title>Node1&#45;&gt;Node449</title>
<path fill="none" stroke="midnightblue" d="M44.77,-240.34C47.84,-209.09 62.11,-110.31 122,-67 169.3,-32.79 237.7,-31.95 286.65,-37.24"/>
<polygon fill="midnightblue" stroke="midnightblue" points="286.44,-40.74 296.79,-38.45 287.27,-33.78 286.44,-40.74"/>
</g>
<!-- Node450 -->
<g id="node28" class="node">
<title>Node450</title>
<g id="a_node28"><a xlink:href="quickjs_8c.html#a2f179461e54402c919fc78c4e76b0a21" target="_top" xlink:title=" ">
<polygon fill="none" stroke="black" points="122,-202.5 122,-221.5 257,-221.5 257,-202.5 122,-202.5"/>
<text text-anchor="middle" x="189.5" y="-209.5" font-family="Helvetica,sans-Serif" font-size="10.00">string_get_signed_digits</text>
</a>
</g>
</g>
<!-- Node1&#45;&gt;Node450 -->
<g id="edge37" class="edge">
<title>Node1&#45;&gt;Node450</title>
<path fill="none" stroke="midnightblue" d="M80.46,-240.41C99.27,-235.46 122.41,-229.38 142.45,-224.11"/>
<polygon fill="midnightblue" stroke="midnightblue" points="143.52,-227.45 152.3,-221.52 141.74,-220.68 143.52,-227.45"/>
</g>
<!-- Node451 -->
<g id="node29" class="node">
<title>Node451</title>
<g id="a_node29"><a xlink:href="quickjs_8c.html#a156d960178dceb45d82581c53cd7f81b" target="_top" xlink:title=" ">
<polygon fill="none" stroke="black" points="123.5,-0.5 123.5,-19.5 255.5,-19.5 255.5,-0.5 123.5,-0.5"/>
<text text-anchor="middle" x="189.5" y="-7.5" font-family="Helvetica,sans-Serif" font-size="10.00">string_skip_non_spaces</text>
</a>
</g>
</g>
<!-- Node1&#45;&gt;Node451 -->
<g id="edge40" class="edge">
<title>Node1&#45;&gt;Node451</title>
<path fill="none" stroke="midnightblue" d="M44.66,-240.29C47.44,-206.8 61.1,-94.89 122,-34 125.96,-30.04 130.62,-26.73 135.61,-23.96"/>
<polygon fill="midnightblue" stroke="midnightblue" points="137.34,-27.02 144.85,-19.55 134.32,-20.7 137.34,-27.02"/>
</g>
<!-- Node3 -->
<g id="node3" class="node">
<title>Node3</title>
<g id="a_node3"><a xlink:href="quickjs_8c.html#aa059f309c30fd5166d16c82a97973146" target="_top" xlink:title=" ">
<polygon fill="none" stroke="black" points="571,-603.5 571,-622.5 660,-622.5 660,-603.5 571,-603.5"/>
<text text-anchor="middle" x="615.5" y="-610.5" font-family="Helvetica,sans-Serif" font-size="10.00">__JS_FreeValue</text>
</a>
</g>
</g>
<!-- Node2&#45;&gt;Node3 -->
<g id="edge2" class="edge">
<title>Node2&#45;&gt;Node3</title>
<path fill="none" stroke="midnightblue" d="M526.64,-613C537.32,-613 549.11,-613 560.49,-613"/>
<polygon fill="midnightblue" stroke="midnightblue" points="560.79,-616.5 570.79,-613 560.79,-609.5 560.79,-616.5"/>
</g>
<!-- Node4 -->
<g id="node4" class="node">
<title>Node4</title>
<g id="a_node4"><a xlink:href="quickjs_8c.html#ab1ea3fad7d138be12144a38be4d36423" target="_top" xlink:title=" ">
<polygon fill="none" stroke="red" points="696,-603.5 696,-622.5 797,-622.5 797,-603.5 696,-603.5"/>
<text text-anchor="middle" x="746.5" y="-610.5" font-family="Helvetica,sans-Serif" font-size="10.00">__JS_FreeValueRT</text>
</a>
</g>
</g>
<!-- Node3&#45;&gt;Node4 -->
<g id="edge3" class="edge">
<title>Node3&#45;&gt;Node4</title>
<path fill="none" stroke="midnightblue" d="M660.17,-613C668.28,-613 676.88,-613 685.37,-613"/>
<polygon fill="midnightblue" stroke="midnightblue" points="685.65,-616.5 695.65,-613 685.65,-609.5 685.65,-616.5"/>
</g>
<!-- Node42 -->
<g id="node7" class="node">
<title>Node42</title>
<g id="a_node7"><a xlink:href="quickjs_8h.html#a9bf98b18de88b4199910a43e933eb97d" target="_top" xlink:title=" ">
<polygon fill="none" stroke="black" points="298,-456.5 298,-475.5 398,-475.5 398,-456.5 298,-456.5"/>
<text text-anchor="middle" x="348" y="-463.5" font-family="Helvetica,sans-Serif" font-size="10.00">__JS_NewFloat64</text>
</a>
</g>
</g>
<!-- Node41&#45;&gt;Node42 -->
<g id="edge6" class="edge">
<title>Node41&#45;&gt;Node42</title>
<path fill="none" stroke="midnightblue" d="M216.15,-418.65C236.86,-426.4 266.76,-437.52 293,-447 298.51,-448.99 304.34,-451.07 310.06,-453.1"/>
<polygon fill="midnightblue" stroke="midnightblue" points="308.9,-456.4 319.5,-456.42 311.23,-449.8 308.9,-456.4"/>
</g>
<!-- Node44 -->
<g id="node9" class="node">
<title>Node44</title>
<g id="a_node9"><a xlink:href="quickjs_8c.html#a46d6ebdd8c73102fd9e02a89b1f1d09a" target="_top" xlink:title=" ">
<polygon fill="none" stroke="black" points="294.5,-494.5 294.5,-513.5 401.5,-513.5 401.5,-494.5 294.5,-494.5"/>
<text text-anchor="middle" x="348" y="-501.5" font-family="Helvetica,sans-Serif" font-size="10.00">JS_ToStringInternal</text>
</a>
</g>
</g>
<!-- Node43&#45;&gt;Node44 -->
<g id="edge8" class="edge">
<title>Node43&#45;&gt;Node44</title>
<path fill="none" stroke="midnightblue" d="M224.84,-474.34C246.26,-479.54 274.16,-486.31 297.89,-492.08"/>
<polygon fill="midnightblue" stroke="midnightblue" points="297.23,-495.52 307.77,-494.48 298.88,-488.71 297.23,-495.52"/>
</g>
<!-- Node44&#45;&gt;Node2 -->
<g id="edge13" class="edge">
<title>Node44&#45;&gt;Node2</title>
<path fill="none" stroke="midnightblue" d="M356.43,-513.67C370.69,-531.66 403.62,-570.58 439,-594 441.72,-595.8 444.63,-597.47 447.62,-599.02"/>
<polygon fill="midnightblue" stroke="midnightblue" points="446.21,-602.22 456.75,-603.3 449.17,-595.88 446.21,-602.22"/>
</g>
<!-- Node44&#45;&gt;Node40 -->
<g id="edge14" class="edge">
<title>Node44&#45;&gt;Node40</title>
<path fill="none" stroke="midnightblue" d="M367.25,-513.59C385.41,-523.12 414.1,-538.14 439,-551 445.24,-554.22 451.95,-557.66 458.29,-560.9"/>
<polygon fill="midnightblue" stroke="midnightblue" points="456.73,-564.04 467.23,-565.46 459.91,-557.8 456.73,-564.04"/>
</g>
<!-- Node44&#45;&gt;Node44 -->
<g id="edge18" class="edge">
<title>Node44&#45;&gt;Node44</title>
<path fill="none" stroke="midnightblue" d="M326.73,-513.76C316.38,-522.57 323.47,-532 348,-532 363.71,-532 372.27,-528.13 373.67,-523.03"/>
<polygon fill="midnightblue" stroke="midnightblue" points="376.72,-521.29 369.27,-513.76 370.39,-524.29 376.72,-521.29"/>
</g>
<!-- Node45 -->
<g id="node10" class="node">
<title>Node45</title>
<g id="a_node10"><a xlink:href="quickjs_8c.html#a260bfa297ff6cb5bd18e229afaa54663" target="_top" xlink:title=" ">
<polygon fill="none" stroke="red" points="439,-451.5 439,-470.5 535,-470.5 535,-451.5 439,-451.5"/>
<text text-anchor="middle" x="487" y="-458.5" font-family="Helvetica,sans-Serif" font-size="10.00">JS_AtomToString</text>
</a>
</g>
</g>
<!-- Node44&#45;&gt;Node45 -->
<g id="edge9" class="edge">
<title>Node44&#45;&gt;Node45</title>
<path fill="none" stroke="midnightblue" d="M379.4,-494.46C399,-488.31 424.7,-480.24 445.96,-473.57"/>
<polygon fill="midnightblue" stroke="midnightblue" points="447.19,-476.85 455.68,-470.52 445.09,-470.17 447.19,-476.85"/>
</g>
<!-- Node71 -->
<g id="node11" class="node">
<title>Node71</title>
<g id="a_node11"><a xlink:href="quickjs_8c.html#a6508a2922531adcb280bbff485a9a44a" target="_top" xlink:title=" ">
<polygon fill="none" stroke="red" points="461,-489.5 461,-508.5 513,-508.5 513,-489.5 461,-489.5"/>
<text text-anchor="middle" x="487" y="-496.5" font-family="Helvetica,sans-Serif" font-size="10.00">js_dtoa</text>
</a>
</g>
</g>
<!-- Node44&#45;&gt;Node71 -->
<g id="edge10" class="edge">
<title>Node44&#45;&gt;Node71</title>
<path fill="none" stroke="midnightblue" d="M401.58,-502.08C417.97,-501.48 435.65,-500.84 450.58,-500.29"/>
<polygon fill="midnightblue" stroke="midnightblue" points="451.04,-503.78 460.9,-499.92 450.78,-496.78 451.04,-503.78"/>
</g>
<!-- Node50 -->
<g id="node12" class="node">
<title>Node50</title>
<g id="a_node12"><a xlink:href="quickjs_8c.html#a0ee6a3654a6016393fac5e1c108f403a" target="_top" xlink:title=" ">
<polygon fill="none" stroke="red" points="575,-508.5 575,-527.5 656,-527.5 656,-508.5 575,-508.5"/>
<text text-anchor="middle" x="615.5" y="-515.5" font-family="Helvetica,sans-Serif" font-size="10.00">JS_NewString</text>
</a>
</g>
</g>
<!-- Node44&#45;&gt;Node50 -->
<g id="edge15" class="edge">
<title>Node44&#45;&gt;Node50</title>
<path fill="none" stroke="midnightblue" d="M401.19,-513.51C413.54,-515.38 426.7,-517.05 439,-518 481.3,-521.27 529.51,-520.98 564.69,-520.04"/>
<polygon fill="midnightblue" stroke="midnightblue" points="564.81,-523.54 574.7,-519.75 564.6,-516.54 564.81,-523.54"/>
</g>
<!-- Node49 -->
<g id="node13" class="node">
<title>Node49</title>
<g id="a_node13"><a xlink:href="quickjs_8h.html#a775522f2d084fc8fa0fcb33f390006b4" target="_top" xlink:title=" ">
<polygon fill="none" stroke="black" points="577,-394.5 577,-413.5 654,-413.5 654,-394.5 577,-394.5"/>
<text text-anchor="middle" x="615.5" y="-401.5" font-family="Helvetica,sans-Serif" font-size="10.00">JS_DupValue</text>
</a>
</g>
</g>
<!-- Node44&#45;&gt;Node49 -->
<g id="edge12" class="edge">
<title>Node44&#45;&gt;Node49</title>
<path fill="none" stroke="midnightblue" d="M388.62,-494.37C393.85,-491.92 398.84,-488.84 403,-485 431.95,-458.28 405.97,-425.47 439,-404 478.7,-378.2 534.87,-383.72 572.88,-392.05"/>
<polygon fill="midnightblue" stroke="midnightblue" points="572.56,-395.56 583.09,-394.44 574.16,-388.75 572.56,-395.56"/>
</g>
<!-- Node78 -->
<g id="node14" class="node">
<title>Node78</title>
<g id="a_node14"><a xlink:href="quickjs_8c.html#a2b8df609710fa689dd50b4bd18df2493" target="_top" xlink:title=" ">
<polygon fill="none" stroke="red" points="444,-413.5 444,-432.5 530,-432.5 530,-413.5 444,-413.5"/>
<text text-anchor="middle" x="487" y="-420.5" font-family="Helvetica,sans-Serif" font-size="10.00">JS_ToPrimitive</text>
</a>
</g>
</g>
<!-- Node44&#45;&gt;Node78 -->
<g id="edge16" class="edge">
<title>Node44&#45;&gt;Node78</title>
<path fill="none" stroke="midnightblue" d="M384.89,-494.43C391.22,-491.9 397.53,-488.79 403,-485 423.49,-470.8 418.85,-456.66 439,-442 441.48,-440.19 444.16,-438.53 446.93,-437"/>
<polygon fill="midnightblue" stroke="midnightblue" points="448.56,-440.1 456,-432.56 445.48,-433.81 448.56,-440.1"/>
</g>
<!-- Node71&#45;&gt;Node50 -->
<g id="edge11" class="edge">
<title>Node71&#45;&gt;Node50</title>
<path fill="none" stroke="midnightblue" d="M513.3,-502.8C528,-505.01 547.05,-507.87 564.65,-510.51"/>
<polygon fill="midnightblue" stroke="midnightblue" points="564.39,-514.01 574.8,-512.04 565.43,-507.09 564.39,-514.01"/>
</g>
<!-- Node78&#45;&gt;Node49 -->
<g id="edge17" class="edge">
<title>Node78&#45;&gt;Node49</title>
<path fill="none" stroke="midnightblue" d="M530.12,-416.67C541.91,-414.9 554.81,-412.96 566.9,-411.15"/>
<polygon fill="midnightblue" stroke="midnightblue" points="567.45,-414.61 576.82,-409.66 566.41,-407.68 567.45,-414.61"/>
</g>
<!-- Node438 -->
<g id="node16" class="node">
<title>Node438</title>
<g id="a_node16"><a xlink:href="quickjs_8c.html#a3f5def6f020bd1c429735f0b1d079b5e" target="_top" xlink:title=" ">
<polygon fill="none" stroke="black" points="300.5,-418.5 300.5,-437.5 395.5,-437.5 395.5,-418.5 300.5,-418.5"/>
<text text-anchor="middle" x="348" y="-425.5" font-family="Helvetica,sans-Serif" font-size="10.00">days_from_year</text>
</a>
</g>
</g>
<!-- Node437&#45;&gt;Node438 -->
<g id="edge20" class="edge">
<title>Node437&#45;&gt;Node438</title>
<path fill="none" stroke="midnightblue" d="M207.36,-361.58C234.17,-376.78 284.37,-405.11 293,-409 297.64,-411.09 302.58,-413.1 307.52,-414.98"/>
<polygon fill="midnightblue" stroke="midnightblue" points="306.34,-418.28 316.94,-418.43 308.75,-411.71 306.34,-418.28"/>
</g>
<!-- Node440 -->
<g id="node18" class="node">
<title>Node440</title>
<g id="a_node18"><a xlink:href="quickjs_8c.html#a021e07d41b6d7239b3b44e7cbdff7a15" target="_top" xlink:title=" ">
<polygon fill="none" stroke="black" points="307.5,-380.5 307.5,-399.5 388.5,-399.5 388.5,-380.5 307.5,-380.5"/>
<text text-anchor="middle" x="348" y="-387.5" font-family="Helvetica,sans-Serif" font-size="10.00">days_in_year</text>
</a>
</g>
</g>
<!-- Node437&#45;&gt;Node440 -->
<g id="edge22" class="edge">
<title>Node437&#45;&gt;Node440</title>
<path fill="none" stroke="midnightblue" d="M229.99,-361.59C250.64,-366.6 276.11,-372.79 298.01,-378.11"/>
<polygon fill="midnightblue" stroke="midnightblue" points="297.25,-381.52 307.79,-380.48 298.9,-374.72 297.25,-381.52"/>
</g>
<!-- Node441 -->
<g id="node19" class="node">
<title>Node441</title>
<g id="a_node19"><a xlink:href="quickjs_8c.html#adecade3bf915770c66e0a27bc3458343" target="_top" xlink:title=" ">
<polygon fill="none" stroke="black" points="293,-342.5 293,-361.5 403,-361.5 403,-342.5 293,-342.5"/>
<text text-anchor="middle" x="348" y="-349.5" font-family="Helvetica,sans-Serif" font-size="10.00">getTimezoneOffset</text>
</a>
</g>
</g>
<!-- Node437&#45;&gt;Node441 -->
<g id="edge23" class="edge">
<title>Node437&#45;&gt;Node441</title>
<path fill="none" stroke="midnightblue" d="M234.51,-352C249.34,-352 266.22,-352 282.31,-352"/>
<polygon fill="midnightblue" stroke="midnightblue" points="282.74,-355.5 292.74,-352 282.74,-348.5 282.74,-355.5"/>
</g>
<!-- Node442 -->
<g id="node20" class="node">
<title>Node442</title>
<g id="a_node20"><a xlink:href="quickjs_8c.html#a478ea24cf629522a55e209b2619334c7" target="_top" xlink:title=" ">
<polygon fill="none" stroke="black" points="317,-304.5 317,-323.5 379,-323.5 379,-304.5 317,-304.5"/>
<text text-anchor="middle" x="348" y="-311.5" font-family="Helvetica,sans-Serif" font-size="10.00">time_clip</text>
</a>
</g>
</g>
<!-- Node437&#45;&gt;Node442 -->
<g id="edge24" class="edge">
<title>Node437&#45;&gt;Node442</title>
<path fill="none" stroke="midnightblue" d="M229.99,-342.41C253.6,-336.68 283.51,-329.42 307.18,-323.67"/>
<polygon fill="midnightblue" stroke="midnightblue" points="308.01,-327.07 316.91,-321.31 306.36,-320.27 308.01,-327.07"/>
</g>
<!-- Node439 -->
<g id="node17" class="node">
<title>Node439</title>
<g id="a_node17"><a xlink:href="quickjs_8c.html#ad1e54b2564697a7a9d7838321308dd54" target="_top" xlink:title=" ">
<polygon fill="none" stroke="black" points="457.5,-337.5 457.5,-356.5 516.5,-356.5 516.5,-337.5 457.5,-337.5"/>
<text text-anchor="middle" x="487" y="-344.5" font-family="Helvetica,sans-Serif" font-size="10.00">floor_div</text>
</a>
</g>
</g>
<!-- Node438&#45;&gt;Node439 -->
<g id="edge21" class="edge">
<title>Node438&#45;&gt;Node439</title>
<path fill="none" stroke="midnightblue" d="M383.85,-418.48C390.48,-415.92 397.16,-412.79 403,-409 422.52,-396.34 420.37,-384.94 439,-371 443.79,-367.41 449.2,-364.09 454.6,-361.14"/>
<polygon fill="midnightblue" stroke="midnightblue" points="456.27,-364.22 463.56,-356.53 453.07,-357.99 456.27,-364.22"/>
</g>
<!-- Node444&#45;&gt;Node443 -->
<g id="edge27" class="edge">
<title>Node444&#45;&gt;Node443</title>
<path fill="none" stroke="midnightblue" d="M374.51,-228.46C383.78,-224.53 394.15,-219.58 403,-214 427.85,-198.32 453.04,-175.6 469.04,-160.11"/>
<polygon fill="midnightblue" stroke="midnightblue" points="471.85,-162.26 476.52,-152.75 466.94,-157.27 471.85,-162.26"/>
</g>
<!-- Node445&#45;&gt;Node443 -->
<g id="edge29" class="edge">
<title>Node445&#45;&gt;Node443</title>
<path fill="none" stroke="midnightblue" d="M252.81,-162.73C310.35,-157.86 394.24,-150.76 444.15,-146.54"/>
<polygon fill="midnightblue" stroke="midnightblue" points="444.59,-150.02 454.26,-145.69 444,-143.04 444.59,-150.02"/>
</g>
<!-- Node446&#45;&gt;Node443 -->
<g id="edge31" class="edge">
<title>Node446&#45;&gt;Node443</title>
<path fill="none" stroke="midnightblue" d="M255.71,-128.19C313.04,-131.88 394.76,-137.13 443.87,-140.29"/>
<polygon fill="midnightblue" stroke="midnightblue" points="443.92,-143.8 454.13,-140.95 444.37,-136.82 443.92,-143.8"/>
</g>
<!-- Node448 -->
<g id="node26" class="node">
<title>Node448</title>
<g id="a_node26"><a xlink:href="quickjs_8c.html#a7a64dc8a6c1daf2e734e3a4f7013b660" target="_top" xlink:title=" ">
<polygon fill="none" stroke="black" points="311,-76.5 311,-95.5 385,-95.5 385,-76.5 311,-76.5"/>
<text text-anchor="middle" x="348" y="-83.5" font-family="Helvetica,sans-Serif" font-size="10.00">find_abbrev</text>
</a>
</g>
</g>
<!-- Node447&#45;&gt;Node448 -->
<g id="edge33" class="edge">
<title>Node447&#45;&gt;Node448</title>
<path fill="none" stroke="midnightblue" d="M240.88,-86C260.03,-86 281.74,-86 300.51,-86"/>
<polygon fill="midnightblue" stroke="midnightblue" points="300.61,-89.5 310.61,-86 300.61,-82.5 300.61,-89.5"/>
</g>
<!-- Node447&#45;&gt;Node449 -->
<g id="edge35" class="edge">
<title>Node447&#45;&gt;Node449</title>
<path fill="none" stroke="midnightblue" d="M229.99,-76.41C250.64,-71.4 276.11,-65.21 298.01,-59.89"/>
<polygon fill="midnightblue" stroke="midnightblue" points="298.9,-63.28 307.79,-57.52 297.25,-56.48 298.9,-63.28"/>
</g>
<!-- Node448&#45;&gt;Node443 -->
<g id="edge34" class="edge">
<title>Node448&#45;&gt;Node443</title>
<path fill="none" stroke="midnightblue" d="M371.93,-95.54C394.26,-104.83 428.4,-119.04 453.52,-129.49"/>
<polygon fill="midnightblue" stroke="midnightblue" points="452.42,-132.82 462.99,-133.43 455.11,-126.36 452.42,-132.82"/>
</g>
<!-- Node449&#45;&gt;Node443 -->
<g id="edge36" class="edge">
<title>Node449&#45;&gt;Node443</title>
<path fill="none" stroke="midnightblue" d="M382.79,-57.53C389.71,-60.12 396.78,-63.27 403,-67 429.79,-83.05 455.48,-108.69 471.01,-125.68"/>
<polygon fill="midnightblue" stroke="midnightblue" points="468.5,-128.13 477.77,-133.25 473.71,-123.46 468.5,-128.13"/>
</g>
<!-- Node450&#45;&gt;Node443 -->
<g id="edge38" class="edge">
<title>Node450&#45;&gt;Node443</title>
<path fill="none" stroke="midnightblue" d="M243.19,-202.43C286.37,-194.27 348.95,-181.71 403,-168 417.44,-164.34 433.12,-159.77 446.92,-155.55"/>
<polygon fill="midnightblue" stroke="midnightblue" points="448.08,-158.85 456.6,-152.55 446.01,-152.16 448.08,-158.85"/>
</g>
<!-- Node450&#45;&gt;Node444 -->
<g id="edge39" class="edge">
<title>Node450&#45;&gt;Node444</title>
<path fill="none" stroke="midnightblue" d="M247.89,-221.53C261.23,-223.75 275.45,-226.11 288.83,-228.34"/>
<polygon fill="midnightblue" stroke="midnightblue" points="288.44,-231.82 298.87,-230 289.58,-224.91 288.44,-231.82"/>
</g>
<!-- Node451&#45;&gt;Node443 -->
<g id="edge41" class="edge">
<title>Node451&#45;&gt;Node443</title>
<path fill="none" stroke="midnightblue" d="M255.98,-2.33C300.25,-0.26 358.52,-3.81 403,-29 440.99,-50.52 466.33,-97.37 478.21,-123.83"/>
<polygon fill="midnightblue" stroke="midnightblue" points="475.06,-125.37 482.22,-133.18 481.49,-122.61 475.06,-125.37"/>
</g>
</g>
</svg>
        <g id="navigator" transform="translate(0 0)" fill="#404254">
                <rect fill="#f2f5e9" fill-opacity="0.5" stroke="#606060" stroke-width=".5" x="0" y="0" width="60" height="60"/>
                <use id="zoomplus" xlink:href="#zoomPlus" x="17" y="9" onmousedown="handleZoom(evt,'in')"/>
                <use id="zoomminus" xlink:href="#zoomMin" x="42" y="9" onmousedown="handleZoom(evt,'out')"/>
                <use id="reset" xlink:href="#resetDef" x="30" y="36" onmousedown="handleReset()"/>
                <g id="arrowUp" xlink:href="#dirArrow" transform="translate(30 24)" onmousedown="handlePan(0,-1)">
                  <use xlink:href="#rim" fill="#404040">
                        <set attributeName="fill" to="#808080" begin="arrowUp.mouseover" end="arrowUp.mouseout"/>
                  </use>
                  <path fill="none" stroke="white" stroke-width="1.5" d="M0,-3.0v7 M-2.5,-0.5L0,-3.0L2.5,-0.5"/>
                </g>
                <g id="arrowRight" xlink:href="#dirArrow" transform="rotate(90) translate(36 -43)" onmousedown="handlePan(1,0)">
                  <use xlink:href="#rim" fill="#404040">
                        <set attributeName="fill" to="#808080" begin="arrowRight.mouseover" end="arrowRight.mouseout"/>
                  </use>
                  <path fill="none" stroke="white" stroke-width="1.5" d="M0,-3.0v7 M-2.5,-0.5L0,-3.0L2.5,-0.5"/>
                </g>
                <g id="arrowDown" xlink:href="#dirArrow" transform="rotate(180) translate(-30 -48)" onmousedown="handlePan(0,1)">
                  <use xlink:href="#rim" fill="#404040">
                        <set attributeName="fill" to="#808080" begin="arrowDown.mouseover" end="arrowDown.mouseout"/>
                  </use>
                  <path fill="none" stroke="white" stroke-width="1.5" d="M0,-3.0v7 M-2.5,-0.5L0,-3.0L2.5,-0.5"/>
                </g>
                <g id="arrowLeft" xlink:href="#dirArrow" transform="rotate(270) translate(-36 17)" onmousedown="handlePan(-1,0)">
                  <use xlink:href="#rim" fill="#404040">
                        <set attributeName="fill" to="#808080" begin="arrowLeft.mouseover" end="arrowLeft.mouseout"/>
                  </use>
                  <path fill="none" stroke="white" stroke-width="1.5" d="M0,-3.0v7 M-2.5,-0.5L0,-3.0L2.5,-0.5"/>
                </g>
        </g>
        <svg viewBox="0 0 15 15" width="100%" height="30px" preserveAspectRatio="xMaxYMin meet">
         <g id="arrow_out" transform="scale(0.3 0.3)">
          <a xlink:href="quickjs_8c_ac2ddbbd09d32a6d9a4b7530d7f68c6f0_cgraph_org.svg" target="_base">
           <rect id="button" ry="5" rx="5" y="6" x="6" height="38" width="38"
                fill="#f2f5e9" fill-opacity="0.5" stroke="#606060" stroke-width="1.0"/>
           <path id="arrow"
             d="M 11.500037,31.436501 C 11.940474,20.09759 22.043105,11.32322 32.158766,21.979434 L 37.068811,17.246167 C 37.068811,17.246167 37.088388,32 37.088388,32 L 22.160133,31.978069 C 22.160133,31.978069 26.997745,27.140456 26.997745,27.140456 C 18.528582,18.264221 13.291696,25.230495 11.500037,31.436501 z"
             style="fill:#404040;"/>
          </a>
         </g>
        </svg>
</svg>
