<?xml version="1.0" encoding="UTF-8" standalone="no"?>
<!DOCTYPE svg PUBLIC "-//W3C//DTD SVG 1.1//EN"
 "http://www.w3.org/Graphics/SVG/1.1/DTD/svg11.dtd">
<!-- Generated by graphviz version 2.43.0 (0)
 -->
<!-- Title: add_fast_array_element Pages: 1 -->
<svg width="595pt" height="180pt"
 viewBox="0.00 0.00 595.00 180.00" xmlns="http://www.w3.org/2000/svg" xmlns:xlink="http://www.w3.org/1999/xlink">
<g id="graph0" class="graph" transform="scale(1 1) rotate(0) translate(4 176)">
<title>add_fast_array_element</title>
<!-- Node1 -->
<g id="node1" class="node">
<title>Node1</title>
<g id="a_node1"><a xlink:title=" ">
<polygon fill="#bfbfbf" stroke="black" points="0,-76.5 0,-95.5 135,-95.5 135,-76.5 0,-76.5"/>
<text text-anchor="middle" x="67.5" y="-83.5" font-family="Helvetica,sans-Serif" font-size="10.00">add_fast_array_element</text>
</a>
</g>
</g>
<!-- Node2 -->
<g id="node2" class="node">
<title>Node2</title>
<g id="a_node2"><a xlink:href="quickjs_8c.html#a85f635777ac81981997774a375ae4a8c" target="_top" xlink:title=" ">
<polygon fill="none" stroke="black" points="194.5,-152.5 194.5,-171.5 301.5,-171.5 301.5,-152.5 194.5,-152.5"/>
<text text-anchor="middle" x="248" y="-159.5" font-family="Helvetica,sans-Serif" font-size="10.00">expand_fast_array</text>
</a>
</g>
</g>
<!-- Node1&#45;&gt;Node2 -->
<g id="edge1" class="edge">
<title>Node1&#45;&gt;Node2</title>
<path fill="none" stroke="midnightblue" d="M82.84,-95.58C102.13,-108.08 137.86,-129.91 171,-143 177.29,-145.48 184,-147.72 190.74,-149.71"/>
<polygon fill="midnightblue" stroke="midnightblue" points="190,-153.14 200.57,-152.45 191.88,-146.4 190,-153.14"/>
</g>
<!-- Node4 -->
<g id="node4" class="node">
<title>Node4</title>
<g id="a_node4"><a xlink:href="quickjs_8c.html#a643df594b75933007bcdbb071b5ea8c5" target="_top" xlink:title=" ">
<polygon fill="none" stroke="black" points="201,-114.5 201,-133.5 295,-133.5 295,-114.5 201,-114.5"/>
<text text-anchor="middle" x="248" y="-121.5" font-family="Helvetica,sans-Serif" font-size="10.00">get_shape_prop</text>
</a>
</g>
</g>
<!-- Node1&#45;&gt;Node4 -->
<g id="edge3" class="edge">
<title>Node1&#45;&gt;Node4</title>
<path fill="none" stroke="midnightblue" d="M113.54,-95.59C137.52,-100.69 167.2,-107.01 192.47,-112.39"/>
<polygon fill="midnightblue" stroke="midnightblue" points="191.77,-115.82 202.28,-114.48 193.23,-108.97 191.77,-115.82"/>
</g>
<!-- Node5 -->
<g id="node5" class="node">
<title>Node5</title>
<g id="a_node5"><a xlink:href="quickjs_8h.html#afaa20c47565bc704c6c85f3d77254e7d" target="_top" xlink:title=" ">
<polygon fill="none" stroke="black" points="208.5,-76.5 208.5,-95.5 287.5,-95.5 287.5,-76.5 208.5,-76.5"/>
<text text-anchor="middle" x="248" y="-83.5" font-family="Helvetica,sans-Serif" font-size="10.00">JS_FreeValue</text>
</a>
</g>
</g>
<!-- Node1&#45;&gt;Node5 -->
<g id="edge4" class="edge">
<title>Node1&#45;&gt;Node5</title>
<path fill="none" stroke="midnightblue" d="M135.22,-86C156.12,-86 178.79,-86 198.21,-86"/>
<polygon fill="midnightblue" stroke="midnightblue" points="198.34,-89.5 208.34,-86 198.34,-82.5 198.34,-89.5"/>
</g>
<!-- Node42 -->
<g id="node8" class="node">
<title>Node42</title>
<g id="a_node8"><a xlink:href="quickjs_8h.html#a2050bc428da1c65ac7eb87c3fa3b0392" target="_top" xlink:title=" ">
<polygon fill="none" stroke="black" points="209.5,-38.5 209.5,-57.5 286.5,-57.5 286.5,-38.5 209.5,-38.5"/>
<text text-anchor="middle" x="248" y="-45.5" font-family="Helvetica,sans-Serif" font-size="10.00">JS_NewInt32</text>
</a>
</g>
</g>
<!-- Node1&#45;&gt;Node42 -->
<g id="edge7" class="edge">
<title>Node1&#45;&gt;Node42</title>
<path fill="none" stroke="midnightblue" d="M113.54,-76.41C139.73,-70.84 172.72,-63.81 199.35,-58.14"/>
<polygon fill="midnightblue" stroke="midnightblue" points="200.16,-61.55 209.21,-56.04 198.7,-54.7 200.16,-61.55"/>
</g>
<!-- Node43 -->
<g id="node9" class="node">
<title>Node43</title>
<g id="a_node9"><a xlink:href="quickjs_8c.html#adba489eac6c2332de312326782457940" target="_top" xlink:title=" ">
<polygon fill="none" stroke="black" points="171,-0.5 171,-19.5 325,-19.5 325,-0.5 171,-0.5"/>
<text text-anchor="middle" x="248" y="-7.5" font-family="Helvetica,sans-Serif" font-size="10.00">JS_ThrowTypeErrorReadOnly</text>
</a>
</g>
</g>
<!-- Node1&#45;&gt;Node43 -->
<g id="edge8" class="edge">
<title>Node1&#45;&gt;Node43</title>
<path fill="none" stroke="midnightblue" d="M82.84,-76.42C102.13,-63.92 137.86,-42.09 171,-29 177.29,-26.52 184,-24.28 190.74,-22.29"/>
<polygon fill="midnightblue" stroke="midnightblue" points="191.88,-25.6 200.57,-19.55 190,-18.86 191.88,-25.6"/>
</g>
<!-- Node3 -->
<g id="node3" class="node">
<title>Node3</title>
<g id="a_node3"><a xlink:href="cutils_8h.html#a94f155fcce337a2b9d4719ed8042cbbe" target="_top" xlink:title=" ">
<polygon fill="none" stroke="black" points="377.5,-152.5 377.5,-171.5 433.5,-171.5 433.5,-152.5 377.5,-152.5"/>
<text text-anchor="middle" x="405.5" y="-159.5" font-family="Helvetica,sans-Serif" font-size="10.00">max_int</text>
</a>
</g>
</g>
<!-- Node2&#45;&gt;Node3 -->
<g id="edge2" class="edge">
<title>Node2&#45;&gt;Node3</title>
<path fill="none" stroke="midnightblue" d="M301.65,-162C323.15,-162 347.54,-162 367.16,-162"/>
<polygon fill="midnightblue" stroke="midnightblue" points="367.24,-165.5 377.24,-162 367.24,-158.5 367.24,-165.5"/>
</g>
<!-- Node6 -->
<g id="node6" class="node">
<title>Node6</title>
<g id="a_node6"><a xlink:href="quickjs_8c.html#aa059f309c30fd5166d16c82a97973146" target="_top" xlink:title=" ">
<polygon fill="none" stroke="black" points="361,-76.5 361,-95.5 450,-95.5 450,-76.5 361,-76.5"/>
<text text-anchor="middle" x="405.5" y="-83.5" font-family="Helvetica,sans-Serif" font-size="10.00">__JS_FreeValue</text>
</a>
</g>
</g>
<!-- Node5&#45;&gt;Node6 -->
<g id="edge5" class="edge">
<title>Node5&#45;&gt;Node6</title>
<path fill="none" stroke="midnightblue" d="M287.84,-86C306.85,-86 330.03,-86 350.72,-86"/>
<polygon fill="midnightblue" stroke="midnightblue" points="350.95,-89.5 360.95,-86 350.95,-82.5 350.95,-89.5"/>
</g>
<!-- Node7 -->
<g id="node7" class="node">
<title>Node7</title>
<g id="a_node7"><a xlink:href="quickjs_8c.html#ab1ea3fad7d138be12144a38be4d36423" target="_top" xlink:title=" ">
<polygon fill="none" stroke="red" points="486,-76.5 486,-95.5 587,-95.5 587,-76.5 486,-76.5"/>
<text text-anchor="middle" x="536.5" y="-83.5" font-family="Helvetica,sans-Serif" font-size="10.00">__JS_FreeValueRT</text>
</a>
</g>
</g>
<!-- Node6&#45;&gt;Node7 -->
<g id="edge6" class="edge">
<title>Node6&#45;&gt;Node7</title>
<path fill="none" stroke="midnightblue" d="M450.17,-86C458.28,-86 466.88,-86 475.37,-86"/>
<polygon fill="midnightblue" stroke="midnightblue" points="475.65,-89.5 485.65,-86 475.65,-82.5 475.65,-89.5"/>
</g>
<!-- Node44 -->
<g id="node10" class="node">
<title>Node44</title>
<g id="a_node10"><a xlink:href="quickjs_8c.html#a686cf78f8b0361621ee2ba6182195c31" target="_top" xlink:title=" ">
<polygon fill="none" stroke="black" points="361.5,-0.5 361.5,-19.5 449.5,-19.5 449.5,-0.5 361.5,-0.5"/>
<text text-anchor="middle" x="405.5" y="-7.5" font-family="Helvetica,sans-Serif" font-size="10.00">is_strict_mode</text>
</a>
</g>
</g>
<!-- Node43&#45;&gt;Node44 -->
<g id="edge9" class="edge">
<title>Node43&#45;&gt;Node44</title>
<path fill="none" stroke="midnightblue" d="M325.38,-10C334.02,-10 342.69,-10 350.95,-10"/>
<polygon fill="midnightblue" stroke="midnightblue" points="351.16,-13.5 361.16,-10 351.16,-6.5 351.16,-13.5"/>
</g>
</g>
</svg>
