<?xml version="1.0" encoding="UTF-8" standalone="no"?>
<!DOCTYPE svg PUBLIC "-//W3C//DTD SVG 1.1//EN"
 "http://www.w3.org/Graphics/SVG/1.1/DTD/svg11.dtd">
<!-- Generated by graphviz version 2.43.0 (0)
 -->
<!-- Title: JS_GetPrototypeFree Pages: 1 -->
<svg width="593pt" height="163pt"
 viewBox="0.00 0.00 593.00 162.69" xmlns="http://www.w3.org/2000/svg" xmlns:xlink="http://www.w3.org/1999/xlink">
<g id="graph0" class="graph" transform="scale(1 1) rotate(0) translate(4 158.69)">
<title>JS_GetPrototypeFree</title>
<!-- Node1 -->
<g id="node1" class="node">
<title>Node1</title>
<g id="a_node1"><a xlink:title=" ">
<polygon fill="#bfbfbf" stroke="black" points="469,-59.19 469,-78.19 585,-78.19 585,-59.19 469,-59.19"/>
<text text-anchor="middle" x="527" y="-66.19" font-family="Helvetica,sans-Serif" font-size="10.00">JS_GetPrototypeFree</text>
</a>
</g>
</g>
<!-- Node2 -->
<g id="node2" class="node">
<title>Node2</title>
<g id="a_node2"><a xlink:href="quickjs_8c.html#aa40a5354bee3b56e05a71244910bcc78" target="_top" xlink:title=" ">
<polygon fill="none" stroke="black" points="301,-135.19 301,-154.19 416,-154.19 416,-135.19 301,-135.19"/>
<text text-anchor="middle" x="358.5" y="-142.19" font-family="Helvetica,sans-Serif" font-size="10.00">build_for_in_iterator</text>
</a>
</g>
</g>
<!-- Node1&#45;&gt;Node2 -->
<g id="edge1" class="edge">
<title>Node1&#45;&gt;Node2</title>
<path fill="none" stroke="midnightblue" d="M504.96,-84.11C486.73,-96.84 459.22,-114.56 433,-125.69 424.26,-129.4 414.63,-132.52 405.29,-135.1"/>
<polygon fill="midnightblue" stroke="midnightblue" points="507,-86.95 513.12,-78.31 502.94,-81.25 507,-86.95"/>
</g>
<!-- Node309 -->
<g id="node5" class="node">
<title>Node309</title>
<g id="a_node5"><a xlink:href="quickjs_8c.html#a26abea9136a3d8e9a861aefb51626b4e" target="_top" xlink:title=" ">
<polygon fill="none" stroke="black" points="284,-97.19 284,-116.19 433,-116.19 433,-97.19 284,-97.19"/>
<text text-anchor="middle" x="358.5" y="-104.19" font-family="Helvetica,sans-Serif" font-size="10.00">js_object___lookupGetter__</text>
</a>
</g>
</g>
<!-- Node1&#45;&gt;Node309 -->
<g id="edge5" class="edge">
<title>Node1&#45;&gt;Node309</title>
<path fill="none" stroke="midnightblue" d="M474.19,-80.51C450.72,-85.87 423.33,-92.12 401.21,-97.17"/>
<polygon fill="midnightblue" stroke="midnightblue" points="475.01,-83.91 483.99,-78.28 473.46,-77.09 475.01,-83.91"/>
</g>
<!-- Node313 -->
<g id="node6" class="node">
<title>Node313</title>
<g id="a_node6"><a xlink:href="quickjs_8c.html#a04be55d1144f71bce472514bd31f0796" target="_top" xlink:title=" ">
<polygon fill="none" stroke="black" points="292.5,-59.19 292.5,-78.19 424.5,-78.19 424.5,-59.19 292.5,-59.19"/>
<text text-anchor="middle" x="358.5" y="-66.19" font-family="Helvetica,sans-Serif" font-size="10.00">js_object_isPrototypeOf</text>
</a>
</g>
</g>
<!-- Node1&#45;&gt;Node313 -->
<g id="edge6" class="edge">
<title>Node1&#45;&gt;Node313</title>
<path fill="none" stroke="midnightblue" d="M458.55,-68.69C447.36,-68.69 435.76,-68.69 424.62,-68.69"/>
<polygon fill="midnightblue" stroke="midnightblue" points="458.7,-72.19 468.7,-68.69 458.7,-65.19 458.7,-72.19"/>
</g>
<!-- Node407 -->
<g id="node7" class="node">
<title>Node407</title>
<g id="a_node7"><a xlink:href="quickjs_8c.html#aa0b5c1a59ff4832154e2a98d7c63a4b2" target="_top" xlink:title=" ">
<polygon fill="none" stroke="red" points="291.5,-21.19 291.5,-40.19 425.5,-40.19 425.5,-21.19 291.5,-21.19"/>
<text text-anchor="middle" x="358.5" y="-28.19" font-family="Helvetica,sans-Serif" font-size="10.00">JS_OrdinaryIsInstanceOf</text>
</a>
</g>
</g>
<!-- Node1&#45;&gt;Node407 -->
<g id="edge7" class="edge">
<title>Node1&#45;&gt;Node407</title>
<path fill="none" stroke="midnightblue" d="M474.19,-56.86C450.72,-51.51 423.33,-45.26 401.21,-40.21"/>
<polygon fill="midnightblue" stroke="midnightblue" points="473.46,-60.29 483.99,-59.1 475.01,-53.46 473.46,-60.29"/>
</g>
<!-- Node126 -->
<g id="node8" class="node">
<title>Node126</title>
<g id="a_node8"><a xlink:href="quickjs_8c.html#a3d5eeb3c1fed80d35e4e9e14b9cb15b8" target="_top" xlink:title=" ">
<polygon fill="none" stroke="red" points="123,-40.19 123,-59.19 248,-59.19 248,-40.19 123,-40.19"/>
<text text-anchor="middle" x="185.5" y="-47.19" font-family="Helvetica,sans-Serif" font-size="10.00">JS_SetPropertyGeneric</text>
</a>
</g>
</g>
<!-- Node1&#45;&gt;Node126 -->
<g id="edge8" class="edge">
<title>Node1&#45;&gt;Node126</title>
<path fill="none" stroke="midnightblue" d="M507.08,-52.71C489.27,-38.79 461.19,-19.64 433,-11.69 369.26,6.29 349.08,0.55 284,-11.69 255.25,-17.09 224.1,-30.73 204.94,-40.11"/>
<polygon fill="midnightblue" stroke="midnightblue" points="504.97,-55.5 514.95,-59.05 509.36,-50.05 504.97,-55.5"/>
</g>
<!-- Node3 -->
<g id="node3" class="node">
<title>Node3</title>
<g id="a_node3"><a xlink:href="quickjs_8c.html#a3472bcc4762be7f7de1dcf4c1e0c5ff1" target="_top" xlink:title=" ">
<polygon fill="none" stroke="black" points="142.5,-106.19 142.5,-125.19 228.5,-125.19 228.5,-106.19 142.5,-106.19"/>
<text text-anchor="middle" x="185.5" y="-113.19" font-family="Helvetica,sans-Serif" font-size="10.00">js_for_in_start</text>
</a>
</g>
</g>
<!-- Node2&#45;&gt;Node3 -->
<g id="edge2" class="edge">
<title>Node2&#45;&gt;Node3</title>
<path fill="none" stroke="midnightblue" d="M291.17,-133.44C270.11,-129.87 247.41,-126.02 228.55,-122.82"/>
<polygon fill="midnightblue" stroke="midnightblue" points="290.59,-136.89 301.03,-135.11 291.76,-129.99 290.59,-136.89"/>
</g>
<!-- Node4 -->
<g id="node4" class="node">
<title>Node4</title>
<g id="a_node4"><a xlink:href="quickjs_8c.html#ac2894ff4edcdb4e6841bcce9c76081e3" target="_top" xlink:title=" ">
<polygon fill="none" stroke="red" points="0,-59.19 0,-78.19 87,-78.19 87,-59.19 0,-59.19"/>
<text text-anchor="middle" x="43.5" y="-66.19" font-family="Helvetica,sans-Serif" font-size="10.00">JS_CallInternal</text>
</a>
</g>
</g>
<!-- Node3&#45;&gt;Node4 -->
<g id="edge3" class="edge">
<title>Node3&#45;&gt;Node4</title>
<path fill="none" stroke="midnightblue" d="M146.67,-102.99C123.57,-95.23 94.49,-85.47 73.27,-78.35"/>
<polygon fill="midnightblue" stroke="midnightblue" points="145.57,-106.31 156.17,-106.18 147.8,-99.68 145.57,-106.31"/>
</g>
<!-- Node4&#45;&gt;Node4 -->
<g id="edge4" class="edge">
<title>Node4&#45;&gt;Node4</title>
<path fill="none" stroke="midnightblue" d="M70.01,-87.34C68.9,-92.63 60.06,-96.69 43.5,-96.69 18.26,-96.69 10.97,-87.25 21.61,-78.45"/>
<polygon fill="midnightblue" stroke="midnightblue" points="73.1,-85.71 65.39,-78.45 66.89,-88.93 73.1,-85.71"/>
</g>
<!-- Node126&#45;&gt;Node4 -->
<g id="edge9" class="edge">
<title>Node126&#45;&gt;Node4</title>
<path fill="none" stroke="midnightblue" d="M112.51,-59.46C103.82,-60.64 95.18,-61.81 87.11,-62.91"/>
<polygon fill="midnightblue" stroke="midnightblue" points="113.25,-62.89 122.69,-58.08 112.31,-55.95 113.25,-62.89"/>
</g>
</g>
</svg>
