<?xml version="1.0" encoding="UTF-8" standalone="no"?>
<!DOCTYPE svg PUBLIC "-//W3C//DTD SVG 1.1//EN"
 "http://www.w3.org/Graphics/SVG/1.1/DTD/svg11.dtd">
<!-- Generated by graphviz version 2.43.0 (0)
 -->
<!-- Title: qjs::js_traits&lt; std::function&lt; R(Args...)&gt; &gt;::unwrap Pages: 1 -->
<!--zoomable 1117 -->
<svg id="main" version="1.1" xmlns="http://www.w3.org/2000/svg" xmlns:xlink="http://www.w3.org/1999/xlink" xml:space="preserve" onload="init(evt)">
<style type="text/css"><![CDATA[
.edge:hover path { stroke: red; }
.edge:hover polygon { stroke: red; fill: red; }
]]></style>
<script type="text/javascript"><![CDATA[
var edges = document.getElementsByTagName('g');
if (edges && edges.length) {
  for (var i=0;i<edges.length;i++) {
    if (edges[i].id.substr(0,4)=='edge') {
      edges[i].setAttribute('class','edge');
    }
  }
}
]]></script>
        <defs>
                <circle id="rim" cx="0" cy="0" r="7"/>
                <circle id="rim2" cx="0" cy="0" r="3.5"/>
                <g id="zoomPlus">
                        <use xlink:href="#rim" fill="#404040">
                                <set attributeName="fill" to="#808080" begin="zoomplus.mouseover" end="zoomplus.mouseout"/>
                        </use>
                        <path d="M-4,0h8M0,-4v8" fill="none" stroke="white" stroke-width="1.5" pointer-events="none"/>
                </g>
                <g id="zoomMin">
                        <use xlink:href="#rim" fill="#404040">
                                <set attributeName="fill" to="#808080" begin="zoomminus.mouseover" end="zoomminus.mouseout"/>
                        </use>
                        <path d="M-4,0h8" fill="none" stroke="white" stroke-width="1.5" pointer-events="none"/>
                </g>
                <g id="dirArrow">
                        <path fill="none" stroke="white" stroke-width="1.5" d="M0,-3.0v7 M-2.5,-0.5L0,-3.0L2.5,-0.5"/>
                </g>
               <g id="resetDef">
                       <use xlink:href="#rim2" fill="#404040">
                               <set attributeName="fill" to="#808080" begin="reset.mouseover" end="reset.mouseout"/>
                       </use>
               </g>
        </defs>

<script type="text/javascript">
var viewWidth = 745;
var viewHeight = 1117;
var sectionId = 'dynsection-0';
</script>
<script xlink:href="svgpan.js"/>
<svg id="graph" class="graph">
<g id="viewport">
<title>qjs::js_traits&lt; std::function&lt; R(Args...)&gt; &gt;::unwrap</title>
<!-- Node1 -->
<g id="node1" class="node">
<title>Node1</title>
<g id="a_node1"><a xlink:title=" ">
<polygon fill="#bfbfbf" stroke="black" points="0,-1012.45 0,-1053.45 119,-1053.45 119,-1012.45 0,-1012.45"/>
<text text-anchor="start" x="8" y="-1041.45" font-family="Helvetica,sans-Serif" font-size="10.00">qjs::js_traits&lt; std</text>
<text text-anchor="start" x="8" y="-1030.45" font-family="Helvetica,sans-Serif" font-size="10.00">::function&lt; R(Args...)</text>
<text text-anchor="middle" x="59.5" y="-1019.45" font-family="Helvetica,sans-Serif" font-size="10.00">&gt; &gt;::unwrap</text>
</a>
</g>
</g>
<!-- Node2 -->
<g id="node2" class="node">
<title>Node2</title>
<g id="a_node2"><a xlink:href="quickjs_8c.html#a1a4c02a29525d5cb2085dd8bca3af350" target="_top" xlink:title=" ">
<polygon fill="none" stroke="black" points="155,-491.45 155,-510.45 205,-510.45 205,-491.45 155,-491.45"/>
<text text-anchor="middle" x="180" y="-498.45" font-family="Helvetica,sans-Serif" font-size="10.00">JS_Call</text>
</a>
</g>
</g>
<!-- Node1&#45;&gt;Node2 -->
<g id="edge1" class="edge">
<title>Node1&#45;&gt;Node2</title>
<path fill="none" stroke="midnightblue" d="M65.07,-1012.42C83.98,-927.53 155.95,-604.45 174.58,-520.81"/>
<polygon fill="midnightblue" stroke="midnightblue" points="178.04,-521.37 176.8,-510.85 171.21,-519.85 178.04,-521.37"/>
</g>
<!-- Node57 -->
<g id="node10" class="node">
<title>Node57</title>
<g id="a_node10"><a xlink:href="quickjs_8h.html#afaa20c47565bc704c6c85f3d77254e7d" target="_top" xlink:title=" ">
<polygon fill="none" stroke="red" points="658,-757.45 658,-776.45 737,-776.45 737,-757.45 658,-757.45"/>
<text text-anchor="middle" x="697.5" y="-764.45" font-family="Helvetica,sans-Serif" font-size="10.00">JS_FreeValue</text>
</a>
</g>
</g>
<!-- Node1&#45;&gt;Node57 -->
<g id="edge48" class="edge">
<title>Node1&#45;&gt;Node57</title>
<path fill="none" stroke="midnightblue" d="M97.56,-1053.52C141.66,-1076.03 218.19,-1108.95 288.5,-1108.95 288.5,-1108.95 288.5,-1108.95 437.5,-1108.95 531.85,-1108.95 562.75,-1077.38 622,-1003.95 675.96,-937.09 691.05,-830.78 695.09,-786.9"/>
<polygon fill="midnightblue" stroke="midnightblue" points="698.6,-786.96 695.93,-776.71 691.62,-786.39 698.6,-786.96"/>
</g>
<!-- Node36 -->
<g id="node11" class="node">
<title>Node36</title>
<g id="a_node11"><a xlink:href="quickjs_8h.html#a775522f2d084fc8fa0fcb33f390006b4" target="_top" xlink:title=" ">
<polygon fill="none" stroke="black" points="540,-624.45 540,-643.45 617,-643.45 617,-624.45 540,-624.45"/>
<text text-anchor="middle" x="578.5" y="-631.45" font-family="Helvetica,sans-Serif" font-size="10.00">JS_DupValue</text>
</a>
</g>
</g>
<!-- Node1&#45;&gt;Node36 -->
<g id="edge47" class="edge">
<title>Node1&#45;&gt;Node36</title>
<path fill="none" stroke="midnightblue" d="M74.8,-1012.07C115,-954.92 235.23,-794.6 374,-709.95 423.57,-679.71 444.93,-693.11 499,-671.95 516.58,-665.07 535.66,-655.88 550.6,-648.26"/>
<polygon fill="midnightblue" stroke="midnightblue" points="552.5,-651.22 559.77,-643.52 549.28,-645 552.5,-651.22"/>
</g>
<!-- Node75 -->
<g id="node12" class="node">
<title>Node75</title>
<g id="a_node12"><a xlink:href="quickjs_8h.html#ad80a83d73e9b7d872b88fbf2943aebe9" target="_top" xlink:title=" ">
<polygon fill="none" stroke="black" points="535,-947.45 535,-966.45 622,-966.45 622,-947.45 535,-947.45"/>
<text text-anchor="middle" x="578.5" y="-954.45" font-family="Helvetica,sans-Serif" font-size="10.00">JS_IsException</text>
</a>
</g>
</g>
<!-- Node1&#45;&gt;Node75 -->
<g id="edge49" class="edge">
<title>Node1&#45;&gt;Node75</title>
<path fill="none" stroke="midnightblue" d="M119.31,-1049.23C206.88,-1070.13 374.55,-1097.13 499,-1037.95 528.18,-1024.08 552.36,-994.44 565.86,-975.12"/>
<polygon fill="midnightblue" stroke="midnightblue" points="568.92,-976.83 571.6,-966.58 563.12,-972.92 568.92,-976.83"/>
</g>
<!-- Node437 -->
<g id="node30" class="node">
<title>Node437</title>
<g id="a_node30"><a xlink:href="classqjs_1_1Value.html#a8e2a5be6c89f30cee044b884e30bf819" target="_top" xlink:title="Use context.newValue(val) instead.">
<polygon fill="none" stroke="black" points="241,-1023.45 241,-1042.45 338,-1042.45 338,-1023.45 241,-1023.45"/>
<text text-anchor="middle" x="289.5" y="-1030.45" font-family="Helvetica,sans-Serif" font-size="10.00">qjs::Value::Value</text>
</a>
</g>
</g>
<!-- Node1&#45;&gt;Node437 -->
<g id="edge50" class="edge">
<title>Node1&#45;&gt;Node437</title>
<path fill="none" stroke="midnightblue" d="M119.22,-1032.95C153.41,-1032.95 196.37,-1032.95 230.45,-1032.95"/>
<polygon fill="midnightblue" stroke="midnightblue" points="230.73,-1036.45 240.73,-1032.95 230.73,-1029.45 230.73,-1036.45"/>
</g>
<!-- Node3 -->
<g id="node3" class="node">
<title>Node3</title>
<g id="a_node3"><a xlink:href="quickjs_8c.html#ac2894ff4edcdb4e6841bcce9c76081e3" target="_top" xlink:title=" ">
<polygon fill="none" stroke="red" points="246,-491.45 246,-510.45 333,-510.45 333,-491.45 246,-491.45"/>
<text text-anchor="middle" x="289.5" y="-498.45" font-family="Helvetica,sans-Serif" font-size="10.00">JS_CallInternal</text>
</a>
</g>
</g>
<!-- Node2&#45;&gt;Node3 -->
<g id="edge2" class="edge">
<title>Node2&#45;&gt;Node3</title>
<path fill="none" stroke="midnightblue" d="M205.13,-495.21C214.23,-494.52 224.97,-494.18 235.67,-494.2"/>
<polygon fill="midnightblue" stroke="midnightblue" points="235.82,-497.7 245.86,-494.33 235.91,-490.71 235.82,-497.7"/>
</g>
<!-- Node3&#45;&gt;Node2 -->
<g id="edge42" class="edge">
<title>Node3&#45;&gt;Node2</title>
<path fill="none" stroke="midnightblue" d="M245.86,-507.57C235.69,-507.81 224.97,-507.72 215.23,-507.29"/>
<polygon fill="midnightblue" stroke="midnightblue" points="215.31,-503.79 205.13,-506.69 214.9,-510.78 215.31,-503.79"/>
</g>
<!-- Node3&#45;&gt;Node3 -->
<g id="edge43" class="edge">
<title>Node3&#45;&gt;Node3</title>
<path fill="none" stroke="midnightblue" d="M272.85,-510.71C264.76,-519.52 270.3,-528.95 289.5,-528.95 301.5,-528.95 308.16,-525.27 309.5,-520.35"/>
<polygon fill="midnightblue" stroke="midnightblue" points="312.74,-519 306.15,-510.71 306.12,-521.3 312.74,-519"/>
</g>
<!-- Node4 -->
<g id="node4" class="node">
<title>Node4</title>
<g id="a_node4"><a xlink:href="quickjs_8c.html#a853f0924d441ea4225488f37c8b69f9a" target="_top" xlink:title=" ">
<polygon fill="none" stroke="black" points="538.5,-757.45 538.5,-776.45 618.5,-776.45 618.5,-757.45 538.5,-757.45"/>
<text text-anchor="middle" x="578.5" y="-764.45" font-family="Helvetica,sans-Serif" font-size="10.00">__attribute__</text>
</a>
</g>
</g>
<!-- Node3&#45;&gt;Node4 -->
<g id="edge3" class="edge">
<title>Node3&#45;&gt;Node4</title>
<path fill="none" stroke="midnightblue" d="M290.35,-510.57C290.36,-548.17 295.88,-686.19 374,-747.95 417.38,-782.25 483.37,-781.83 528.36,-776.25"/>
<polygon fill="midnightblue" stroke="midnightblue" points="529.04,-779.69 538.47,-774.87 528.09,-772.75 529.04,-779.69"/>
</g>
<!-- Node5 -->
<g id="node5" class="node">
<title>Node5</title>
<g id="a_node5"><a xlink:href="quickjs_8c.html#a877fcb7651d95b411ce70e62b7f4a1f0" target="_top" xlink:title=" ">
<polygon fill="none" stroke="black" points="374,-415.45 374,-434.45 499,-434.45 499,-415.45 374,-415.45"/>
<text text-anchor="middle" x="436.5" y="-422.45" font-family="Helvetica,sans-Serif" font-size="10.00">__JS_AtomFromUInt32</text>
</a>
</g>
</g>
<!-- Node3&#45;&gt;Node5 -->
<g id="edge4" class="edge">
<title>Node3&#45;&gt;Node5</title>
<path fill="none" stroke="midnightblue" d="M304.22,-491.3C320.4,-480.18 348.35,-461.81 374,-448.95 381.73,-445.08 390.25,-441.4 398.42,-438.14"/>
<polygon fill="midnightblue" stroke="midnightblue" points="399.72,-441.39 407.78,-434.52 397.19,-434.87 399.72,-441.39"/>
</g>
<!-- Node6 -->
<g id="node6" class="node">
<title>Node6</title>
<g id="a_node6"><a xlink:href="quickjs_8h.html#a9bf98b18de88b4199910a43e933eb97d" target="_top" xlink:title=" ">
<polygon fill="none" stroke="black" points="386.5,-377.45 386.5,-396.45 486.5,-396.45 486.5,-377.45 386.5,-377.45"/>
<text text-anchor="middle" x="436.5" y="-384.45" font-family="Helvetica,sans-Serif" font-size="10.00">__JS_NewFloat64</text>
</a>
</g>
</g>
<!-- Node3&#45;&gt;Node6 -->
<g id="edge5" class="edge">
<title>Node3&#45;&gt;Node6</title>
<path fill="none" stroke="midnightblue" d="M296.34,-491.31C308.42,-472.16 338.06,-429.23 374,-405.95 377.14,-403.92 380.51,-402.09 384,-400.45"/>
<polygon fill="midnightblue" stroke="midnightblue" points="385.52,-403.61 393.42,-396.54 382.84,-397.14 385.52,-403.61"/>
</g>
<!-- Node7 -->
<g id="node7" class="node">
<title>Node7</title>
<g id="a_node7"><a xlink:href="quickjs_8c.html#a74547db03bf739a52c83a326b32db997" target="_top" xlink:title=" ">
<polygon fill="none" stroke="red" points="538,-453.45 538,-472.45 619,-472.45 619,-453.45 538,-453.45"/>
<text text-anchor="middle" x="578.5" y="-460.45" font-family="Helvetica,sans-Serif" font-size="10.00">add_property</text>
</a>
</g>
</g>
<!-- Node3&#45;&gt;Node7 -->
<g id="edge6" class="edge">
<title>Node3&#45;&gt;Node7</title>
<path fill="none" stroke="midnightblue" d="M327.71,-491.39C342.09,-487.98 358.73,-484.39 374,-481.95 426.17,-473.62 486.49,-468.55 527.83,-465.77"/>
<polygon fill="midnightblue" stroke="midnightblue" points="528.17,-469.26 537.92,-465.11 527.71,-462.27 528.17,-469.26"/>
</g>
<!-- Node65 -->
<g id="node8" class="node">
<title>Node65</title>
<g id="a_node8"><a xlink:href="quickjs_8c.html#a4956f45ffd2849b96dc051277264f87a" target="_top" xlink:title=" ">
<polygon fill="none" stroke="red" points="395.5,-795.45 395.5,-814.45 477.5,-814.45 477.5,-795.45 395.5,-795.45"/>
<text text-anchor="middle" x="436.5" y="-802.45" font-family="Helvetica,sans-Serif" font-size="10.00">build_arg_list</text>
</a>
</g>
</g>
<!-- Node3&#45;&gt;Node65 -->
<g id="edge7" class="edge">
<title>Node3&#45;&gt;Node65</title>
<path fill="none" stroke="midnightblue" d="M290.5,-510.6C291.01,-549.73 298.06,-698.49 374,-780.95 377.55,-784.81 381.79,-788.05 386.36,-790.77"/>
<polygon fill="midnightblue" stroke="midnightblue" points="384.98,-793.99 395.48,-795.41 388.15,-787.75 384.98,-793.99"/>
</g>
<!-- Node66 -->
<g id="node9" class="node">
<title>Node66</title>
<g id="a_node9"><a xlink:href="quickjs_8c.html#ac864482356b3efc2d0b0a509fcfa4c7c" target="_top" xlink:title=" ">
<polygon fill="none" stroke="red" points="540,-795.45 540,-814.45 617,-814.45 617,-795.45 540,-795.45"/>
<text text-anchor="middle" x="578.5" y="-802.45" font-family="Helvetica,sans-Serif" font-size="10.00">free_arg_list</text>
</a>
</g>
</g>
<!-- Node3&#45;&gt;Node66 -->
<g id="edge17" class="edge">
<title>Node3&#45;&gt;Node66</title>
<path fill="none" stroke="midnightblue" d="M290.94,-510.51C293.69,-566.24 310.69,-848.52 374,-899.95 417.12,-934.98 448.74,-923.62 499,-899.95 532.39,-884.23 556.42,-846.57 568.55,-823.67"/>
<polygon fill="midnightblue" stroke="midnightblue" points="571.75,-825.1 573.14,-814.59 565.5,-821.93 571.75,-825.1"/>
</g>
<!-- Node3&#45;&gt;Node57 -->
<g id="edge45" class="edge">
<title>Node3&#45;&gt;Node57</title>
<path fill="none" stroke="midnightblue" d="M290.6,-491.26C291.44,-429.24 299.45,-88.54 374,-25.95 416.55,9.77 454.52,7.33 499,-25.95 621.14,-117.33 682.87,-638.84 694.47,-747.22"/>
<polygon fill="midnightblue" stroke="midnightblue" points="691.01,-747.81 695.54,-757.39 697.97,-747.07 691.01,-747.81"/>
</g>
<!-- Node3&#45;&gt;Node36 -->
<g id="edge44" class="edge">
<title>Node3&#45;&gt;Node36</title>
<path fill="none" stroke="midnightblue" d="M301.97,-510.47C317.45,-522.91 346.3,-544.67 374,-557.95 426.36,-583.05 444.93,-574.79 499,-595.95 516.58,-602.83 535.66,-612.02 550.6,-619.64"/>
<polygon fill="midnightblue" stroke="midnightblue" points="549.28,-622.9 559.77,-624.39 552.5,-616.68 549.28,-622.9"/>
</g>
<!-- Node3&#45;&gt;Node75 -->
<g id="edge46" class="edge">
<title>Node3&#45;&gt;Node75</title>
<path fill="none" stroke="midnightblue" d="M290.95,-510.57C293.82,-567.99 311.56,-864.87 374,-924.95 413.53,-962.99 478.76,-966.93 524.69,-963.98"/>
<polygon fill="midnightblue" stroke="midnightblue" points="525.06,-967.46 534.76,-963.21 524.52,-960.49 525.06,-967.46"/>
</g>
<!-- Node161 -->
<g id="node13" class="node">
<title>Node161</title>
<g id="a_node13"><a xlink:href="quickjs_8c.html#a61c8dfb5e807af1b6ff7d8ca61576dda" target="_top" xlink:title=" ">
<polygon fill="none" stroke="red" points="389.5,-339.45 389.5,-358.45 483.5,-358.45 483.5,-339.45 389.5,-339.45"/>
<text text-anchor="middle" x="436.5" y="-346.45" font-family="Helvetica,sans-Serif" font-size="10.00">build_backtrace</text>
</a>
</g>
</g>
<!-- Node3&#45;&gt;Node161 -->
<g id="edge13" class="edge">
<title>Node3&#45;&gt;Node161</title>
<path fill="none" stroke="midnightblue" d="M293.84,-491.27C302.79,-466.8 329.67,-401.99 374,-367.95 376.45,-366.07 379.08,-364.38 381.83,-362.85"/>
<polygon fill="midnightblue" stroke="midnightblue" points="383.42,-365.97 390.95,-358.51 380.41,-359.65 383.42,-365.97"/>
</g>
<!-- Node248 -->
<g id="node14" class="node">
<title>Node248</title>
<g id="a_node14"><a xlink:href="quickjs_8c.html#a344894112559c2ba75043fd10bcfa02f" target="_top" xlink:title=" ">
<polygon fill="none" stroke="red" points="386,-529.45 386,-548.45 487,-548.45 487,-529.45 386,-529.45"/>
<text text-anchor="middle" x="436.5" y="-536.45" font-family="Helvetica,sans-Serif" font-size="10.00">close_lexical_var</text>
</a>
</g>
</g>
<!-- Node3&#45;&gt;Node248 -->
<g id="edge14" class="edge">
<title>Node3&#45;&gt;Node248</title>
<path fill="none" stroke="midnightblue" d="M327.09,-510.54C345.97,-515.49 369.19,-521.57 389.29,-526.84"/>
<polygon fill="midnightblue" stroke="midnightblue" points="388.61,-530.28 399.17,-529.43 390.39,-523.51 388.61,-530.28"/>
</g>
<!-- Node249 -->
<g id="node15" class="node">
<title>Node249</title>
<g id="a_node15"><a xlink:href="quickjs_8c.html#a1782043fce951bd4f0d91c7796b31e24" target="_top" xlink:title=" ">
<polygon fill="none" stroke="red" points="393,-301.45 393,-320.45 480,-320.45 480,-301.45 393,-301.45"/>
<text text-anchor="middle" x="436.5" y="-308.45" font-family="Helvetica,sans-Serif" font-size="10.00">close_var_refs</text>
</a>
</g>
</g>
<!-- Node3&#45;&gt;Node249 -->
<g id="edge16" class="edge">
<title>Node3&#45;&gt;Node249</title>
<path fill="none" stroke="midnightblue" d="M292.42,-491.16C298.66,-462.06 321.05,-375.29 374,-329.95 376.89,-327.48 380.09,-325.33 383.48,-323.46"/>
<polygon fill="midnightblue" stroke="midnightblue" points="385.19,-326.53 392.78,-319.13 382.23,-320.18 385.19,-326.53"/>
</g>
<!-- Node54 -->
<g id="node16" class="node">
<title>Node54</title>
<g id="a_node16"><a xlink:href="quickjs_8c.html#a9e7b4bccf927d811b0f99b40b08c0472" target="_top" xlink:title=" ">
<polygon fill="none" stroke="red" points="398.5,-263.45 398.5,-282.45 474.5,-282.45 474.5,-263.45 398.5,-263.45"/>
<text text-anchor="middle" x="436.5" y="-270.45" font-family="Helvetica,sans-Serif" font-size="10.00">free_var_ref</text>
</a>
</g>
</g>
<!-- Node3&#45;&gt;Node54 -->
<g id="edge18" class="edge">
<title>Node3&#45;&gt;Node54</title>
<path fill="none" stroke="midnightblue" d="M291.44,-491.43C295.17,-458.63 311.97,-349.18 374,-291.95 378.31,-287.97 383.45,-284.82 388.88,-282.34"/>
<polygon fill="midnightblue" stroke="midnightblue" points="390.15,-285.6 398.22,-278.74 387.63,-279.07 390.15,-285.6"/>
</g>
<!-- Node251 -->
<g id="node17" class="node">
<title>Node251</title>
<g id="a_node17"><a xlink:href="cutils_8h.html#a7c82a3ee025fee89db5b11ff5b7691b8" target="_top" xlink:title=" ">
<polygon fill="none" stroke="black" points="410,-225.45 410,-244.45 463,-244.45 463,-225.45 410,-225.45"/>
<text text-anchor="middle" x="436.5" y="-232.45" font-family="Helvetica,sans-Serif" font-size="10.00">get_i16</text>
</a>
</g>
</g>
<!-- Node3&#45;&gt;Node251 -->
<g id="edge19" class="edge">
<title>Node3&#45;&gt;Node251</title>
<path fill="none" stroke="midnightblue" d="M290.78,-491.3C292.36,-454.71 302.99,-323.12 374,-253.95 381,-247.14 390.38,-242.76 399.71,-239.95"/>
<polygon fill="midnightblue" stroke="midnightblue" points="400.83,-243.28 409.7,-237.48 399.15,-236.49 400.83,-243.28"/>
</g>
<!-- Node252 -->
<g id="node18" class="node">
<title>Node252</title>
<g id="a_node18"><a xlink:href="cutils_8h.html#a288ee4e688944e23500af2ecc813c306" target="_top" xlink:title=" ">
<polygon fill="none" stroke="black" points="413,-187.45 413,-206.45 460,-206.45 460,-187.45 413,-187.45"/>
<text text-anchor="middle" x="436.5" y="-194.45" font-family="Helvetica,sans-Serif" font-size="10.00">get_i8</text>
</a>
</g>
</g>
<!-- Node3&#45;&gt;Node252 -->
<g id="edge20" class="edge">
<title>Node3&#45;&gt;Node252</title>
<path fill="none" stroke="midnightblue" d="M290.27,-491.25C289.88,-451.24 293.84,-297.29 374,-215.95 381.73,-208.11 392.62,-203.49 403.09,-200.77"/>
<polygon fill="midnightblue" stroke="midnightblue" points="403.82,-204.2 412.88,-198.71 402.37,-197.35 403.82,-204.2"/>
</g>
<!-- Node253 -->
<g id="node19" class="node">
<title>Node253</title>
<g id="a_node19"><a xlink:href="cutils_8h.html#ad587834d17e95461893d59661e5e9676" target="_top" xlink:title=" ">
<polygon fill="none" stroke="black" points="408.5,-149.45 408.5,-168.45 464.5,-168.45 464.5,-149.45 408.5,-149.45"/>
<text text-anchor="middle" x="436.5" y="-156.45" font-family="Helvetica,sans-Serif" font-size="10.00">get_u16</text>
</a>
</g>
</g>
<!-- Node3&#45;&gt;Node253 -->
<g id="edge21" class="edge">
<title>Node3&#45;&gt;Node253</title>
<path fill="none" stroke="midnightblue" d="M291.72,-491.29C298.06,-442.69 328.61,-225.51 374,-177.95 380.57,-171.07 389.58,-166.66 398.68,-163.84"/>
<polygon fill="midnightblue" stroke="midnightblue" points="399.63,-167.21 408.47,-161.37 397.92,-160.42 399.63,-167.21"/>
</g>
<!-- Node50 -->
<g id="node20" class="node">
<title>Node50</title>
<g id="a_node20"><a xlink:href="cutils_8h.html#a941262a5f72fda2ec43ae7911e97a0dc" target="_top" xlink:title=" ">
<polygon fill="none" stroke="black" points="408.5,-111.45 408.5,-130.45 464.5,-130.45 464.5,-111.45 408.5,-111.45"/>
<text text-anchor="middle" x="436.5" y="-118.45" font-family="Helvetica,sans-Serif" font-size="10.00">get_u32</text>
</a>
</g>
</g>
<!-- Node3&#45;&gt;Node50 -->
<g id="edge22" class="edge">
<title>Node3&#45;&gt;Node50</title>
<path fill="none" stroke="midnightblue" d="M291.45,-491.21C296.72,-439.12 323.94,-193.77 374,-139.95 380.48,-132.98 389.46,-128.55 398.56,-125.73"/>
<polygon fill="midnightblue" stroke="midnightblue" points="399.51,-129.1 408.36,-123.27 397.81,-122.31 399.51,-129.1"/>
</g>
<!-- Node254 -->
<g id="node21" class="node">
<title>Node254</title>
<g id="a_node21"><a xlink:href="quickjs_8c.html#a37fe43b6649456a848bd54846450b995" target="_top" xlink:title=" ">
<polygon fill="none" stroke="red" points="400.5,-73.45 400.5,-92.45 472.5,-92.45 472.5,-73.45 400.5,-73.45"/>
<text text-anchor="middle" x="436.5" y="-80.45" font-family="Helvetica,sans-Serif" font-size="10.00">get_var_ref</text>
</a>
</g>
</g>
<!-- Node3&#45;&gt;Node254 -->
<g id="edge23" class="edge">
<title>Node3&#45;&gt;Node254</title>
<path fill="none" stroke="midnightblue" d="M291.21,-491.3C295.47,-436.24 319.2,-162.12 374,-101.95 378.6,-96.9 384.51,-93.18 390.84,-90.44"/>
<polygon fill="midnightblue" stroke="midnightblue" points="392.06,-93.72 400.32,-87.09 389.73,-87.12 392.06,-93.72"/>
</g>
<!-- Node197 -->
<g id="node22" class="node">
<title>Node197</title>
<g id="a_node22"><a xlink:href="list_8h.html#a663527a4d757540b2177bef0db1ce5c0" target="_top" xlink:title=" ">
<polygon fill="none" stroke="black" points="395.5,-35.45 395.5,-54.45 477.5,-54.45 477.5,-35.45 395.5,-35.45"/>
<text text-anchor="middle" x="436.5" y="-42.45" font-family="Helvetica,sans-Serif" font-size="10.00">init_list_head</text>
</a>
</g>
</g>
<!-- Node3&#45;&gt;Node197 -->
<g id="edge24" class="edge">
<title>Node3&#45;&gt;Node197</title>
<path fill="none" stroke="midnightblue" d="M291.03,-491.17C294.39,-432.75 314.51,-130.43 374,-63.95 377.45,-60.1 381.67,-57.01 386.26,-54.55"/>
<polygon fill="midnightblue" stroke="midnightblue" points="387.68,-57.75 395.44,-50.54 384.88,-51.33 387.68,-57.75"/>
</g>
<!-- Node255 -->
<g id="node23" class="node">
<title>Node255</title>
<g id="a_node23"><a xlink:href="quickjs_8c.html#a2bb0a2ca3b8320f3ff778c65034fce49" target="_top" xlink:title=" ">
<polygon fill="none" stroke="red" points="377,-871.45 377,-890.45 496,-890.45 496,-871.45 377,-871.45"/>
<text text-anchor="middle" x="436.5" y="-878.45" font-family="Helvetica,sans-Serif" font-size="10.00">is_backtrace_needed</text>
</a>
</g>
</g>
<!-- Node3&#45;&gt;Node255 -->
<g id="edge25" class="edge">
<title>Node3&#45;&gt;Node255</title>
<path fill="none" stroke="midnightblue" d="M291.45,-510.69C296.72,-562.78 323.94,-808.14 374,-861.95 375.23,-863.27 376.55,-864.5 377.94,-865.65"/>
<polygon fill="midnightblue" stroke="midnightblue" points="376.33,-868.78 386.61,-871.33 380.16,-862.92 376.33,-868.78"/>
</g>
<!-- Node181 -->
<g id="node24" class="node">
<title>Node181</title>
<g id="a_node24"><a xlink:href="quickjs_8c.html#a686cf78f8b0361621ee2ba6182195c31" target="_top" xlink:title=" ">
<polygon fill="none" stroke="black" points="392.5,-833.45 392.5,-852.45 480.5,-852.45 480.5,-833.45 392.5,-833.45"/>
<text text-anchor="middle" x="436.5" y="-840.45" font-family="Helvetica,sans-Serif" font-size="10.00">is_strict_mode</text>
</a>
</g>
</g>
<!-- Node3&#45;&gt;Node181 -->
<g id="edge26" class="edge">
<title>Node3&#45;&gt;Node181</title>
<path fill="none" stroke="midnightblue" d="M291.72,-510.62C298.06,-559.21 328.61,-776.4 374,-823.95 376.66,-826.74 379.73,-829.13 383.04,-831.16"/>
<polygon fill="midnightblue" stroke="midnightblue" points="381.75,-834.43 392.26,-835.78 384.88,-828.17 381.75,-834.43"/>
</g>
<!-- Node257 -->
<g id="node25" class="node">
<title>Node257</title>
<g id="a_node25"><a xlink:href="quickjs_8c.html#ae8ff05447c0d51fe277baccf616dc7c6" target="_top" xlink:title=" ">
<polygon fill="none" stroke="red" points="398.5,-985.45 398.5,-1004.45 474.5,-1004.45 474.5,-985.45 398.5,-985.45"/>
<text text-anchor="middle" x="436.5" y="-992.45" font-family="Helvetica,sans-Serif" font-size="10.00">js_add_slow</text>
</a>
</g>
</g>
<!-- Node3&#45;&gt;Node257 -->
<g id="edge27" class="edge">
<title>Node3&#45;&gt;Node257</title>
<path fill="none" stroke="midnightblue" d="M290.96,-510.61C293.99,-571.01 313.01,-896.64 374,-970.95 378.1,-975.95 383.39,-979.91 389.13,-983.05"/>
<polygon fill="midnightblue" stroke="midnightblue" points="387.88,-986.33 398.43,-987.34 390.81,-979.97 387.88,-986.33"/>
</g>
<!-- Node264 -->
<g id="node26" class="node">
<title>Node264</title>
<g id="a_node26"><a xlink:href="quickjs_8c.html#a6a21784a40b8684f2e779bd460dd13b2" target="_top" xlink:title=" ">
<polygon fill="none" stroke="red" points="397.5,-491.45 397.5,-510.45 475.5,-510.45 475.5,-491.45 397.5,-491.45"/>
<text text-anchor="middle" x="436.5" y="-498.45" font-family="Helvetica,sans-Serif" font-size="10.00">JS_AddBrand</text>
</a>
</g>
</g>
<!-- Node3&#45;&gt;Node264 -->
<g id="edge30" class="edge">
<title>Node3&#45;&gt;Node264</title>
<path fill="none" stroke="midnightblue" d="M333.22,-500.95C349.96,-500.95 369.27,-500.95 386.57,-500.95"/>
<polygon fill="midnightblue" stroke="midnightblue" points="387.04,-504.45 397.04,-500.95 387.04,-497.45 387.04,-504.45"/>
</g>
<!-- Node267 -->
<g id="node27" class="node">
<title>Node267</title>
<g id="a_node27"><a xlink:href="quickjs_8c.html#a43208b0746998d2b6b9b8bd1ef8b5f99" target="_top" xlink:title=" ">
<polygon fill="none" stroke="red" points="374,-719.45 374,-738.45 499,-738.45 499,-719.45 374,-719.45"/>
<text text-anchor="middle" x="436.5" y="-726.45" font-family="Helvetica,sans-Serif" font-size="10.00">js_append_enumerate</text>
</a>
</g>
</g>
<!-- Node3&#45;&gt;Node267 -->
<g id="edge35" class="edge">
<title>Node3&#45;&gt;Node267</title>
<path fill="none" stroke="midnightblue" d="M293.75,-510.52C303.23,-537.62 332.83,-616.52 374,-671.95 385.53,-687.48 401.67,-702.25 414.51,-712.86"/>
<polygon fill="midnightblue" stroke="midnightblue" points="412.41,-715.66 422.4,-719.2 416.8,-710.21 412.41,-715.66"/>
</g>
<!-- Node98 -->
<g id="node28" class="node">
<title>Node98</title>
<g id="a_node28"><a xlink:href="quickjs_8c.html#a260bfa297ff6cb5bd18e229afaa54663" target="_top" xlink:title=" ">
<polygon fill="none" stroke="red" points="388.5,-643.45 388.5,-662.45 484.5,-662.45 484.5,-643.45 388.5,-643.45"/>
<text text-anchor="middle" x="436.5" y="-650.45" font-family="Helvetica,sans-Serif" font-size="10.00">JS_AtomToString</text>
</a>
</g>
</g>
<!-- Node3&#45;&gt;Node98 -->
<g id="edge40" class="edge">
<title>Node3&#45;&gt;Node98</title>
<path fill="none" stroke="midnightblue" d="M293.84,-510.63C302.79,-535.1 329.67,-599.91 374,-633.95 376.45,-635.83 379.08,-637.53 381.83,-639.05"/>
<polygon fill="midnightblue" stroke="midnightblue" points="380.41,-642.25 390.95,-643.39 383.42,-635.93 380.41,-642.25"/>
</g>
<!-- Node292 -->
<g id="node29" class="node">
<title>Node292</title>
<g id="a_node29"><a xlink:href="quickjs_8c.html#afa67965c1017685fc6783776d6d0d4d7" target="_top" xlink:title=" ">
<polygon fill="none" stroke="red" points="389,-605.45 389,-624.45 484,-624.45 484,-605.45 389,-605.45"/>
<text text-anchor="middle" x="436.5" y="-612.45" font-family="Helvetica,sans-Serif" font-size="10.00">JS_AtomToValue</text>
</a>
</g>
</g>
<!-- Node3&#45;&gt;Node292 -->
<g id="edge41" class="edge">
<title>Node3&#45;&gt;Node292</title>
<path fill="none" stroke="midnightblue" d="M297.2,-510.7C310.11,-528.82 340.17,-567.93 374,-590.95 380.06,-595.07 386.93,-598.63 393.82,-601.66"/>
<polygon fill="midnightblue" stroke="midnightblue" points="392.59,-604.93 403.17,-605.45 395.22,-598.44 392.59,-604.93"/>
</g>
<!-- Node65&#45;&gt;Node4 -->
<g id="edge8" class="edge">
<title>Node65&#45;&gt;Node4</title>
<path fill="none" stroke="midnightblue" d="M472.83,-795.36C490.9,-790.46 513.1,-784.43 532.39,-779.19"/>
<polygon fill="midnightblue" stroke="midnightblue" points="533.45,-782.54 542.18,-776.54 531.62,-775.78 533.45,-782.54"/>
</g>
<!-- Node65&#45;&gt;Node66 -->
<g id="edge9" class="edge">
<title>Node65&#45;&gt;Node66</title>
<path fill="none" stroke="midnightblue" d="M477.62,-804.95C493.81,-804.95 512.63,-804.95 529.54,-804.95"/>
<polygon fill="midnightblue" stroke="midnightblue" points="529.78,-808.45 539.78,-804.95 529.78,-801.45 529.78,-808.45"/>
</g>
<!-- Node65&#45;&gt;Node36 -->
<g id="edge11" class="edge">
<title>Node65&#45;&gt;Node36</title>
<path fill="none" stroke="midnightblue" d="M449.57,-795.15C462.53,-784.32 483.38,-766.01 499,-747.95 526.1,-716.63 552.3,-675.8 566.52,-652.47"/>
<polygon fill="midnightblue" stroke="midnightblue" points="569.69,-653.99 571.85,-643.62 563.69,-650.38 569.69,-653.99"/>
</g>
<!-- Node65&#45;&gt;Node75 -->
<g id="edge12" class="edge">
<title>Node65&#45;&gt;Node75</title>
<path fill="none" stroke="midnightblue" d="M477.68,-812.67C485.27,-815.38 492.77,-819.03 499,-823.95 537.24,-854.17 560.76,-908.53 571.17,-937.51"/>
<polygon fill="midnightblue" stroke="midnightblue" points="567.97,-938.96 574.53,-947.28 574.59,-936.68 567.97,-938.96"/>
</g>
<!-- Node66&#45;&gt;Node57 -->
<g id="edge10" class="edge">
<title>Node66&#45;&gt;Node57</title>
<path fill="none" stroke="midnightblue" d="M609.02,-795.36C623.71,-790.59 641.66,-784.76 657.47,-779.63"/>
<polygon fill="midnightblue" stroke="midnightblue" points="658.56,-782.96 666.99,-776.54 656.39,-776.3 658.56,-782.96"/>
</g>
<!-- Node248&#45;&gt;Node36 -->
<g id="edge15" class="edge">
<title>Node248&#45;&gt;Node36</title>
<path fill="none" stroke="midnightblue" d="M468.26,-548.46C478.42,-552.24 489.54,-557.11 499,-562.95 523.22,-577.93 546.89,-600.79 561.79,-616.51"/>
<polygon fill="midnightblue" stroke="midnightblue" points="559.38,-619.05 568.75,-623.99 564.51,-614.28 559.38,-619.05"/>
</g>
<!-- Node257&#45;&gt;Node57 -->
<g id="edge28" class="edge">
<title>Node257&#45;&gt;Node57</title>
<path fill="none" stroke="midnightblue" d="M474.65,-1001.84C515.25,-1007.16 580.08,-1008.86 622,-975.95 681.95,-928.89 693.74,-829.73 695.99,-787.11"/>
<polygon fill="midnightblue" stroke="midnightblue" points="699.5,-787.03 696.41,-776.9 692.51,-786.75 699.5,-787.03"/>
</g>
<!-- Node257&#45;&gt;Node75 -->
<g id="edge29" class="edge">
<title>Node257&#45;&gt;Node75</title>
<path fill="none" stroke="midnightblue" d="M472.83,-985.36C490.9,-980.46 513.1,-974.43 532.39,-969.19"/>
<polygon fill="midnightblue" stroke="midnightblue" points="533.45,-972.54 542.18,-966.54 531.62,-965.78 533.45,-972.54"/>
</g>
<!-- Node264&#45;&gt;Node7 -->
<g id="edge31" class="edge">
<title>Node264&#45;&gt;Node7</title>
<path fill="none" stroke="midnightblue" d="M472.83,-491.36C490.9,-486.46 513.1,-480.43 532.39,-475.19"/>
<polygon fill="midnightblue" stroke="midnightblue" points="533.45,-478.54 542.18,-472.54 531.62,-471.78 533.45,-478.54"/>
</g>
<!-- Node264&#45;&gt;Node57 -->
<g id="edge33" class="edge">
<title>Node264&#45;&gt;Node57</title>
<path fill="none" stroke="midnightblue" d="M475.75,-510.44C483.65,-513.04 491.76,-516.19 499,-519.95 560.31,-551.77 578.33,-561.44 622,-614.95 656.09,-656.73 679.58,-716.69 690.16,-747.32"/>
<polygon fill="midnightblue" stroke="midnightblue" points="686.97,-748.82 693.46,-757.19 693.61,-746.6 686.97,-748.82"/>
</g>
<!-- Node264&#45;&gt;Node36 -->
<g id="edge32" class="edge">
<title>Node264&#45;&gt;Node36</title>
<path fill="none" stroke="midnightblue" d="M475.81,-508.46C483.96,-511.21 492.16,-514.92 499,-519.95 533.21,-545.09 557.59,-589.82 569.41,-615.13"/>
<polygon fill="midnightblue" stroke="midnightblue" points="566.28,-616.71 573.58,-624.39 572.66,-613.83 566.28,-616.71"/>
</g>
<!-- Node264&#45;&gt;Node75 -->
<g id="edge34" class="edge">
<title>Node264&#45;&gt;Node75</title>
<path fill="none" stroke="midnightblue" d="M475.66,-505.49C484.51,-508.32 493.06,-512.83 499,-519.95 542.54,-572.22 520.58,-757.47 535,-823.95 543.99,-865.41 560.55,-912.34 570.13,-937.88"/>
<polygon fill="midnightblue" stroke="midnightblue" points="566.94,-939.34 573.76,-947.45 573.48,-936.85 566.94,-939.34"/>
</g>
<!-- Node267&#45;&gt;Node4 -->
<g id="edge36" class="edge">
<title>Node267&#45;&gt;Node4</title>
<path fill="none" stroke="midnightblue" d="M472.83,-738.54C490.9,-743.45 513.1,-749.47 532.39,-754.71"/>
<polygon fill="midnightblue" stroke="midnightblue" points="531.62,-758.12 542.18,-757.37 533.45,-751.37 531.62,-758.12"/>
</g>
<!-- Node267&#45;&gt;Node57 -->
<g id="edge38" class="edge">
<title>Node267&#45;&gt;Node57</title>
<path fill="none" stroke="midnightblue" d="M499.32,-733.03C535.3,-735.98 581.42,-740.73 622,-747.95 632.25,-749.78 643.17,-752.25 653.4,-754.82"/>
<polygon fill="midnightblue" stroke="midnightblue" points="652.79,-758.27 663.35,-757.38 654.54,-751.5 652.79,-758.27"/>
</g>
<!-- Node267&#45;&gt;Node36 -->
<g id="edge37" class="edge">
<title>Node267&#45;&gt;Node36</title>
<path fill="none" stroke="midnightblue" d="M468.26,-719.44C478.42,-715.66 489.54,-710.8 499,-704.95 523.22,-689.98 546.89,-667.11 561.79,-651.4"/>
<polygon fill="midnightblue" stroke="midnightblue" points="564.51,-653.62 568.75,-643.91 559.38,-648.86 564.51,-653.62"/>
</g>
<!-- Node267&#45;&gt;Node75 -->
<g id="edge39" class="edge">
<title>Node267&#45;&gt;Node75</title>
<path fill="none" stroke="midnightblue" d="M450.69,-738.64C464.21,-749.1 485.17,-766.85 499,-785.95 534.98,-835.63 560.41,-904.43 571.41,-937.57"/>
<polygon fill="midnightblue" stroke="midnightblue" points="568.17,-938.93 574.58,-947.37 574.83,-936.78 568.17,-938.93"/>
</g>
<!-- Node437&#45;&gt;Node75 -->
<g id="edge51" class="edge">
<title>Node437&#45;&gt;Node75</title>
<path fill="none" stroke="midnightblue" d="M338.05,-1035.68C381.37,-1036.54 446.43,-1033.71 499,-1013.95 522.68,-1005.05 545.59,-986.98 560.49,-973.56"/>
<polygon fill="midnightblue" stroke="midnightblue" points="562.96,-976.04 567.89,-966.67 558.19,-970.91 562.96,-976.04"/>
</g>
</g>
</svg>
        <g id="navigator" transform="translate(0 0)" fill="#404254">
                <rect fill="#f2f5e9" fill-opacity="0.5" stroke="#606060" stroke-width=".5" x="0" y="0" width="60" height="60"/>
                <use id="zoomplus" xlink:href="#zoomPlus" x="17" y="9" onmousedown="handleZoom(evt,'in')"/>
                <use id="zoomminus" xlink:href="#zoomMin" x="42" y="9" onmousedown="handleZoom(evt,'out')"/>
                <use id="reset" xlink:href="#resetDef" x="30" y="36" onmousedown="handleReset()"/>
                <g id="arrowUp" xlink:href="#dirArrow" transform="translate(30 24)" onmousedown="handlePan(0,-1)">
                  <use xlink:href="#rim" fill="#404040">
                        <set attributeName="fill" to="#808080" begin="arrowUp.mouseover" end="arrowUp.mouseout"/>
                  </use>
                  <path fill="none" stroke="white" stroke-width="1.5" d="M0,-3.0v7 M-2.5,-0.5L0,-3.0L2.5,-0.5"/>
                </g>
                <g id="arrowRight" xlink:href="#dirArrow" transform="rotate(90) translate(36 -43)" onmousedown="handlePan(1,0)">
                  <use xlink:href="#rim" fill="#404040">
                        <set attributeName="fill" to="#808080" begin="arrowRight.mouseover" end="arrowRight.mouseout"/>
                  </use>
                  <path fill="none" stroke="white" stroke-width="1.5" d="M0,-3.0v7 M-2.5,-0.5L0,-3.0L2.5,-0.5"/>
                </g>
                <g id="arrowDown" xlink:href="#dirArrow" transform="rotate(180) translate(-30 -48)" onmousedown="handlePan(0,1)">
                  <use xlink:href="#rim" fill="#404040">
                        <set attributeName="fill" to="#808080" begin="arrowDown.mouseover" end="arrowDown.mouseout"/>
                  </use>
                  <path fill="none" stroke="white" stroke-width="1.5" d="M0,-3.0v7 M-2.5,-0.5L0,-3.0L2.5,-0.5"/>
                </g>
                <g id="arrowLeft" xlink:href="#dirArrow" transform="rotate(270) translate(-36 17)" onmousedown="handlePan(-1,0)">
                  <use xlink:href="#rim" fill="#404040">
                        <set attributeName="fill" to="#808080" begin="arrowLeft.mouseover" end="arrowLeft.mouseout"/>
                  </use>
                  <path fill="none" stroke="white" stroke-width="1.5" d="M0,-3.0v7 M-2.5,-0.5L0,-3.0L2.5,-0.5"/>
                </g>
        </g>
        <svg viewBox="0 0 15 15" width="100%" height="30px" preserveAspectRatio="xMaxYMin meet">
         <g id="arrow_out" transform="scale(0.3 0.3)">
          <a xlink:href="structqjs_1_1js__traits_3_01std_1_1function_3_01R_07Args_8_8_8_08_4_01_4_ac449e51d3fe10c6c115596fa6ec278ee_cgraph_org.svg" target="_base">
           <rect id="button" ry="5" rx="5" y="6" x="6" height="38" width="38"
                fill="#f2f5e9" fill-opacity="0.5" stroke="#606060" stroke-width="1.0"/>
           <path id="arrow"
             d="M 11.500037,31.436501 C 11.940474,20.09759 22.043105,11.32322 32.158766,21.979434 L 37.068811,17.246167 C 37.068811,17.246167 37.088388,32 37.088388,32 L 22.160133,31.978069 C 22.160133,31.978069 26.997745,27.140456 26.997745,27.140456 C 18.528582,18.264221 13.291696,25.230495 11.500037,31.436501 z"
             style="fill:#404040;"/>
          </a>
         </g>
        </svg>
</svg>
